<?xml version="1.0" encoding="utf-8"?>
<!-- Generator: Adobe Illustrator 16.0.0, SVG Export Plug-In . SVG Version: 6.00 Build 0)  -->
<!DOCTYPE svg PUBLIC "-//W3C//DTD SVG 1.1//EN" "http://www.w3.org/Graphics/SVG/1.1/DTD/svg11.dtd">
<svg version="1.1" id="Layer_1" xmlns="http://www.w3.org/2000/svg" xmlns:xlink="http://www.w3.org/1999/xlink" x="0px" y="0px"
	 width="64px" height="64px" viewBox="0 0 64 64" enable-background="new 0 0 64 64" xml:space="preserve">
<g id="Collared_T-shirt">
	<path fill="#4285F4" d="M34.107,14.586c0.635,0.373,1.143,1.002,1.287,1.192c0.051,0.068,0.086,0.147,0.102,0.23
		c0.209,1.274,0.563,1.836,0.791,2.074c1.748-2.19,1.732-6.939,1.705-8.005l-0.961-0.844C37.064,11.413,35.389,13.394,34.107,14.586
		z"/>
	<path fill="#4285F4" d="M28.586,14.285c-1.6-1.159-2.426-3.445-2.785-4.743l-0.957,0.893c-0.016,0.941,0.016,4.168,1.135,6.725
		C26.494,16.202,27.408,14.809,28.586,14.285z"/>
	<path fill="#4285F4" d="M35.73,10.617c0.258-0.695,0.348-1.426,0.147-2.154c-1.142-0.144-2.271-0.228-3.36-0.228
		c-2.909,0-4.877,0.505-5.78,0.799c0.123,0.479,0.334,1.173,0.645,1.89C28.441,10.641,31.379,10.046,35.73,10.617z"/>
	<path fill="#F16666" d="M32.73,14.389c0.016-0.007,0.028-0.013,0.047-0.018c0.69-0.575,1.764-1.582,2.477-2.771
		c-3.723-0.443-6.318,0.011-7.398,0.274c0.408,0.709,0.924,1.354,1.578,1.731c0.035,0.018,0.547,0.278,0.939,0.635
		c0.352,0.159,0.789,0.521,0.975,1.128c0.217-0.188,0.479-0.358,0.791-0.497c0.057-0.042,0.174-0.131,0.338-0.257
		C32.531,14.516,32.617,14.435,32.73,14.389z"/>
	<path fill="#4285F4" d="M32.168,28.445c-0.123-1.375-0.678-7.886-0.393-12.026c-0.422,0.517-0.494,1.081-0.494,1.089l-0.039,0.271
		v0.001c0,0.012,0.006,0.022,0.006,0.033v11.054C31.518,28.821,31.859,28.706,32.168,28.445z"/>
	<path fill="#E7533C" d="M54.465,25.783l-5.471-8.251c-2.332-3.057-3.943-3.675-3.953-3.675l-6.008-3.11
		c-0.008,1.931-0.254,6.34-2.283,8.371c-0.098,0.097-0.23,0.15-0.367,0.15c-0.029,0-0.057-0.001-0.086-0.006
		c-0.223-0.039-1.338-0.359-1.801-2.951c-0.395-0.48-0.953-0.938-1.26-0.975c-0.141,0.113-0.258,0.203-0.353,0.271
		c-0.482,4.265,0.328,12.902,0.337,12.99c0.014,0.147-0.035,0.292-0.134,0.401c-0.783,0.846-1.811,0.941-2.225,0.941
		c-0.105,0-0.172-0.006-0.186-0.009c-0.264-0.027-0.465-0.248-0.465-0.513V17.814c0-0.021,0.01-0.041,0.014-0.062
		c-0.004-0.029-0.014-0.057-0.012-0.089l0.072-1.02c0.002-0.037,0.008-0.076,0.02-0.112c0.309-1.028-0.268-1.31-0.393-1.36
		c-1.781-0.596-3.424,3.306-3.441,3.345c-0.072,0.182-0.242,0.307-0.439,0.322c-0.193,0.018-0.383-0.083-0.482-0.25
		c-1.42-2.375-1.699-5.588-1.74-7.302l-5.354,2.543c-0.066,0.026-1.682,0.64-4.037,3.73l-5.447,8.223
		c-0.145,0.219-0.104,0.512,0.098,0.682l7.063,5.953c0.209,0.174,0.521,0.158,0.713-0.041l0.764-0.813
		c-0.084-0.08-0.145-0.185-0.16-0.308c-0.627-4.801-0.023-8.491,0.002-8.646c0.049-0.281,0.313-0.475,0.598-0.424
		c0.279,0.047,0.471,0.315,0.422,0.597c-0.006,0.036-0.602,3.7,0.004,8.34c0.01,0.084-0.004,0.161-0.027,0.234
		c0.113,3.361,0.328,11.292,0.328,24.326c0,0.262,0.195,0.483,0.455,0.516c0.055,0.006,5.654,0.671,11.232,0.671
		c0.377,0,0.752-0.003,1.119-0.009h0.264c0.373,0.006,0.752,0.009,1.127,0.009c5.58,0,11.18-0.665,11.233-0.671
		c0.263-0.031,0.455-0.254,0.455-0.516c0-13.199,0.221-21.164,0.336-24.449c-0.002-0.025-0.011-0.048-0.006-0.075
		c0.004-0.042,0.01-0.081,0.014-0.123c0.005-0.114,0.009-0.235,0.013-0.334l0.021,0.021c0.479-4.51-0.037-7.911-0.045-7.946
		c-0.045-0.28,0.147-0.546,0.432-0.592c0.281-0.043,0.548,0.149,0.591,0.431c0.024,0.153,0.586,3.797,0.004,8.666
		c-0.019,0.125-0.076,0.234-0.16,0.313l0.734,0.783c0.186,0.199,0.497,0.215,0.711,0.041l7.063-5.953
		C54.566,26.295,54.609,26.002,54.465,25.783z"/>
</g>
</svg>
