<?xml version="1.0" encoding="utf-8"?>
<!-- Generator: Adobe Illustrator 16.0.0, SVG Export Plug-In . SVG Version: 6.00 Build 0)  -->
<!DOCTYPE svg PUBLIC "-//W3C//DTD SVG 1.1//EN" "http://www.w3.org/Graphics/SVG/1.1/DTD/svg11.dtd">
<svg version="1.1" id="Layer_1" xmlns="http://www.w3.org/2000/svg" xmlns:xlink="http://www.w3.org/1999/xlink" x="0px" y="0px"
	 width="64px" height="64px" viewBox="0 0 64 64" enable-background="new 0 0 64 64" xml:space="preserve">
<g id="Frock">
	<path fill="#E7533C" d="M23.318,22.395l0.519-1.332c0,0,0,0.592-0.072,1.332c-0.074,0.739,1.097,2.168,1.624,3.047
		c0.27,0.454,1.045,2.765,0.968,4.084c0.022,0.01,0.049,0.015,0.073,0.031c0.207,0.143,5.39,3.558,12.675-0.163
		c0.012-0.006,0.018-0.002,0.027-0.006c0.018-0.892,0.16-1.701,0.223-2.116c0.172-1.106,0.813-2.515,1.109-3.028
		c0.063-0.11,0.319-0.43,0.348-0.837c0.029-0.411-0.131-0.906-0.14-1.031c-0.069-1.049,0.236,0.537,0.236,0.537s0,0,0.591,0.222
		c1.85,0.294,3.695-0.665,3.622-1.034c-0.074-0.371-1.479-6.579-1.772-7.758c-0.298-1.186-2.07-1.629-3.029-1.629
		c-0.965,0-2.516-0.223-2.516-0.223l-1.332-1.107c0,0-0.07,1.035-0.367,1.626c-0.297,0.59-1.332,1.255-2.733,1.549
		c-1.404,0.298-3.416-0.531-3.934-0.977c-0.518-0.444-1.608-2.568-1.608-2.568s-0.738,0.962-1.107,1.331
		c-0.373,0.369-0.961,0.295-1.704,0.369c-0.738,0.073-1.62,0.371-2.511,0.886c-0.888,0.519-1.403,1.033-1.628,1.701
		c-0.218,0.664-1.403,4.433-1.697,6.502C20.213,22.688,23.318,22.395,23.318,22.395z M32.555,19.98c0.379,0,0.747,0.368,0.747,0.745
		s-0.368,0.743-0.747,0.743c-0.375,0-0.745-0.366-0.745-0.743S32.179,19.98,32.555,19.98z M32.555,25.567
		c0.379,0,0.747,0.365,0.747,0.741c0,0.38-0.368,0.747-0.747,0.747c-0.375,0-0.745-0.367-0.745-0.747
		C31.81,25.933,32.179,25.567,32.555,25.567z"/>
	<path fill="#3A5A80" d="M42.904,38.706c-0.822-4.983-3.133-7.691-3.646-8.242c-2.625,1.27-4.979,1.695-6.953,1.695
		c-3.588,0-5.906-1.386-6.368-1.688c-1.771,1.798-4.065,9.233-4.065,9.233c-1.385,5.093-6.042,9.285-6.042,9.285
		c2.526,2.938,6.516,2.124,6.516,2.124c2.73,3.041,6.858,1.746,6.858,1.746c1.893,1.457,7.318,0.17,7.318,0.17
		c2.496,1.469,5.379-0.245,5.811-0.918c3.29,1.709,6.139-2.939,6.139-2.939C44.451,48.143,42.904,38.706,42.904,38.706z"/>
</g>
</svg>
