<?xml version="1.0" encoding="utf-8"?>
<!-- Generator: Adobe Illustrator 16.0.0, SVG Export Plug-In . SVG Version: 6.00 Build 0)  -->
<!DOCTYPE svg PUBLIC "-//W3C//DTD SVG 1.1//EN" "http://www.w3.org/Graphics/SVG/1.1/DTD/svg11.dtd">
<svg version="1.1" id="Layer_1" xmlns="http://www.w3.org/2000/svg" xmlns:xlink="http://www.w3.org/1999/xlink" x="0px" y="0px"
	 width="64px" height="64px" viewBox="0 0 64 64" enable-background="new 0 0 64 64" xml:space="preserve">
<g id="Jacket">
	<g>
		<g>
			<path fill="#556567" d="M37.823,15.165c-0.212-0.529-0.919-0.92-1.613-1.185c0.082,1.597-1.571,4.14-2.758,5.743
				c1.649-0.876,3.315-2.453,3.996-3.199C37.835,16.014,37.973,15.545,37.823,15.165z"/>
		</g>
		<g>
			<path fill="#4285F4" d="M12.028,50.941c-0.031,0.02-0.068,0.018-0.102,0.029l-0.389,1.797c-0.049,0.236,0.072,0.479,0.291,0.578
				c0.121,0.053,1.246,0.51,4.564,0.043c0.277-0.041,0.473-0.299,0.438-0.58c0-0.015-0.145-1.209,0.373-1.985
				C16.503,50.477,14.276,49.585,12.028,50.941z"/>
		</g>
		<g>
			<path fill="#556567" d="M35.145,13.809c-0.082-0.173-0.322-0.262-0.713-0.262c-0.033,0-0.072-0.004-0.103-0.009
				c-0.009-0.004-0.707-0.141-1.941-0.141c-1.314,0-2.721,0.15-4.178,0.447c-0.053,0.01-0.383,0.082-0.498,0.438
				c-0.158,0.483-0.111,2.041,3.652,6.06c0.004,0.001,0.014,0.001,0.02,0.001c0.006,0,0.012,0.002,0.018,0.002
				c0.063-0.006,0.16-0.021,0.322-0.077C33.407,18.2,35.607,14.793,35.145,13.809z"/>
		</g>
		<g>
			<path fill="#556567" d="M24.421,15.534c-0.188,0.619,0.543,1.399,1.188,1.945c0.033,0.028,1.973,1.72,4.027,2.491
				c-2.268-2.61-3.225-4.521-2.938-5.822C25.644,14.44,24.608,14.908,24.421,15.534z"/>
		</g>
		<g>
			<g>
				<path fill="#E7533C" d="M31.048,31.09c-0.416-2.886-0.027-9.382-0.006-9.731c-0.064-0.005-0.127-0.007-0.193-0.017
					c-0.65-0.036-1.281-0.108-1.893-0.227c0.072,0.525,0.064,1.274-0.215,2.289c-0.346,1.258-0.025,2.197,0.238,2.952
					c0.107,0.309,0.207,0.603,0.252,0.883c0.098,0.617,0.049,1.323,0.02,1.788c-0.012,0.189-0.027,0.341-0.021,0.422
					c0.057,0.28-0.125,0.541-0.406,0.599c-0.031,0.007-0.064,0.01-0.1,0.01c-0.242,0-0.461-0.179-0.51-0.425
					c-0.031-0.145-0.02-0.322,0.004-0.674c0.029-0.446,0.07-1.056-0.008-1.56c-0.031-0.188-0.113-0.429-0.209-0.707
					c-0.293-0.842-0.689-1.995-0.258-3.563c0.352-1.275,0.193-1.999,0.102-2.267c-4.65-1.233-7.826-4.275-7.988-4.434v-0.001
					c-0.605,0.263-1.279,0.68-1.873,1.352c-1.205,1.37-1.703,3.351-1.48,5.888c-0.113,0.804-0.742,5.526-0.207,7.405
					c-0.498,0.69-1.752,2.62-1.23,3.95c-0.291,0.687-1.051,2.631-0.879,3.836c0.057,0.357-0.141,0.8-0.41,1.412
					c-0.461,1.062-1.158,2.66-1.158,5.328c0,1.307-0.344,1.807-0.646,2.244c-0.412,0.596-0.641,1.078-0.213,2.073
					c3.105-1.683,6.076,0.063,6.207,0.14c0.047,0.028,0.084,0.068,0.117,0.109c0.059-0.035,0.127-0.061,0.166-0.117
					c0.082-0.115,0.832-1.253,1.568-6.027c0.221-1.443,0.486-2.596,0.744-3.494c-0.109,1.764-0.277,4.168-0.535,6.873
					c0.037,0.01,0.07,0.012,0.1,0.027c0.064,0.031,4.26,2.1,10.936,2.307c-0.139-4.106-0.264-10.301,0.162-11.685
					c0.563-1.825,0.246-4.03-0.156-6.825L31.048,31.09z M26.632,37.936c-0.209,0.621-2.094,6.104-4.299,7.291
					c-0.078,0.043-0.162,0.063-0.242,0.063c-0.186,0-0.363-0.1-0.457-0.271c-0.135-0.252-0.041-0.565,0.209-0.701
					c1.566-0.842,3.279-5.127,3.809-6.707c0.09-0.271,0.391-0.416,0.654-0.327C26.577,37.371,26.722,37.664,26.632,37.936z
					 M26.14,34.421c-0.002,0-0.004,0-0.006,0c-3.9-0.067-6.309-8.674-6.572-9.654c-0.072-0.275,0.092-0.56,0.369-0.635
					c0.279-0.068,0.559,0.092,0.631,0.368c0.654,2.456,2.939,8.843,5.588,8.889c0.287,0.004,0.516,0.238,0.508,0.524
					C26.655,34.197,26.423,34.421,26.14,34.421z"/>
			</g>
		</g>
		<g>
			<path fill="#4285F4" d="M26.116,19.188c-0.682-0.489-1.133-0.881-1.184-0.926c-1.275-1.076-1.785-2.098-1.506-3.027
				c0.559-1.854,4.107-2.349,4.596-2.408c0,0,0-0.001,0.004-0.001c1.502-0.307,2.977-0.463,4.361-0.463
				c1.166,0,1.892,0.114,2.093,0.148c0.193,0.003,0.349,0.035,0.5,0.067c0.017,0.002,0.031-0.003,0.047-0.001
				c0.316,0.053,3.105,0.56,3.757,2.207c0.293,0.743,0.108,1.551-0.543,2.403c-0.087,0.096-0.953,1.033-2.152,1.999
				c2.091-0.766,4.32-1.985,5.4-3.902c0.002-0.003,0.008-0.005,0.008-0.009c-0.021-0.299-0.103-0.664-0.313-1.066
				c-0.632-1.179-2.093-2.081-4.31-2.673c-0.207-0.072-5.227-1.716-11.451,0.386c-2.582,0.872-3.998,1.722-4.449,2.674
				c-0.26,0.55-0.168,1.032-0.045,1.403C21.667,16.633,23.546,18.125,26.116,19.188z"/>
		</g>
		<g>
			<g>
				<path fill="#E7533C" d="M50.475,44.105c0.004-0.848-0.058-5.576-2.023-8.69c0.006-0.638-0.049-2.881-1.078-4.247
					c-0.145-0.814-0.918-5.433-0.705-8.607c0.008-0.056,0.723-5.231-4.242-6.873c-0.01,0.035-0.016,0.072-0.033,0.104
					c-1.469,2.605-4.662,4.038-7.217,4.799c-0.305,1.046-0.824,3.479-0.234,4.655c0.687,1.379,0.539,2.313,0.41,3.136
					c-0.047,0.288-0.094,0.58-0.1,0.896c-0.006,0.284-0.236,0.508-0.516,0.508c0,0-0.01,0-0.014,0
					c-0.285-0.006-0.513-0.243-0.505-0.528c0.007-0.377,0.06-0.712,0.111-1.035c0.119-0.768,0.226-1.431-0.313-2.514
					c-0.681-1.357-0.281-3.608,0.008-4.809c-0.586,0.145-1.105,0.252-1.521,0.326c-0.148,0.039-0.293,0.069-0.439,0.096
					c0.004,0.03,0.014,0.058,0.014,0.087c-0.006,0.069-0.408,6.736-0.006,9.536l0.02,0.133c0.422,2.922,0.75,5.23,0.121,7.275
					c-0.357,1.164-0.258,7.039-0.113,11.406c3.38,0.002,7.332-0.484,11.671-1.925c0.019-0.005,0.037-0.002,0.058-0.006
					c-0.078-0.726-0.238-2.22-0.442-4.036c0.141,0.475,0.377,1.023,0.793,1.706c0.522,0.858,0.506,1.231,0.485,1.703
					c-0.026,0.641-0.047,1.373,1.03,3.006c0.82-0.515,2.953-1.55,5.855-0.812c0.033-0.14,0.066-0.278,0.115-0.416
					c0.039-0.037,0.074-0.082,0.105-0.131C52.032,48.434,52.083,47.541,50.475,44.105z M41.221,45.016
					c-0.097,0.174-0.273,0.272-0.457,0.272c-0.084,0-0.166-0.021-0.244-0.063c-2.205-1.187-4.09-6.67-4.299-7.289
					c-0.091-0.271,0.057-0.564,0.327-0.656c0.267-0.09,0.563,0.059,0.654,0.328c0.526,1.58,2.241,5.867,3.807,6.707
					C41.259,44.45,41.354,44.764,41.221,45.016z M43.29,25.139c-0.263,0.98-2.672,9.587-6.569,9.653h-0.009
					c-0.282,0-0.514-0.228-0.519-0.508c-0.006-0.287,0.222-0.522,0.507-0.528c2.651-0.044,4.937-6.429,5.59-8.886
					c0.071-0.273,0.353-0.437,0.633-0.365C43.2,24.578,43.359,24.86,43.29,25.139z"/>
			</g>
		</g>
		<g>
			<path fill="#4285F4" d="M32.136,50.826c0.023,0.699,0.051,1.338,0.072,1.887c3.103-0.084,6.824-0.511,11.271-1.543
				c0.234-0.055,0.4-0.264,0.4-0.504v-1.782C39.501,50.311,35.529,50.814,32.136,50.826z"/>
		</g>
		<g>
			<path fill="#4285F4" d="M19.835,48.436l-0.279,1.394c-0.041,0.2,0.043,0.407,0.213,0.524c0.197,0.137,3.604,2.391,11.408,2.373
				c-0.021-0.468-0.049-1.115-0.078-1.916C24.843,50.645,20.724,48.857,19.835,48.436z"/>
		</g>
		<g>
			<path fill="#4285F4" d="M51.417,50.43c-2.565-0.693-4.455,0.213-5.147,0.641c0.246,0.453,0.494,1.13,0.405,1.955
				c-0.024,0.273,0.164,0.521,0.435,0.564c0.051,0.01,0.658,0.104,1.463,0.104c0.898,0,2.039-0.117,2.926-0.61
				c0.223-0.126,0.322-0.396,0.23-0.636C51.725,52.434,51.398,51.533,51.417,50.43z"/>
		</g>
	</g>
</g>
</svg>
