<?xml version="1.0" encoding="utf-8"?>
<!-- Generator: Adobe Illustrator 16.0.0, SVG Export Plug-In . SVG Version: 6.00 Build 0)  -->
<!DOCTYPE svg PUBLIC "-//W3C//DTD SVG 1.1//EN" "http://www.w3.org/Graphics/SVG/1.1/DTD/svg11.dtd">
<svg version="1.1" id="Layer_1" xmlns="http://www.w3.org/2000/svg" xmlns:xlink="http://www.w3.org/1999/xlink" x="0px" y="0px"
	 width="64px" height="64px" viewBox="0 0 64 64" enable-background="new 0 0 64 64" xml:space="preserve">
<g id="Jeans">
	<g>
		<path fill="#B5B5B5" d="M41.162,12.526l-0.15-0.948L40.693,9.97c-0.031-0.155-0.133-0.287-0.273-0.359
			c-0.141-0.07-0.311-0.074-0.453-0.009c-0.021,0.01-2.113,0.941-7.34,1.098v3.142c0,0.04-0.014,0.073-0.021,0.11
			c0.976-0.028,5.951-0.228,8.537-1.42C41.148,12.527,41.154,12.529,41.162,12.526z M33.773,13.16c-0.416,0-0.754-0.338-0.754-0.753
			c0-0.413,0.338-0.749,0.754-0.749c0.412,0,0.748,0.336,0.748,0.749C34.521,12.822,34.186,13.16,33.773,13.16z"/>
		<path fill="#B5B5B5" d="M33.141,22.849c1.654-1.541,1.488-6.246,1.283-7.955c-0.818,0.058-1.451,0.083-1.768,0.091
			c0.055,1.819,0.061,6.38-1.139,8.334C32.17,23.396,32.709,23.248,33.141,22.849z"/>
		<path fill="#8E8E8E" d="M42.541,21.226l-1.215-7.658c-0.984,0.417-2.203,0.713-3.434,0.922L42.541,21.226z"/>
		<path fill="#B5B5B5" d="M31.613,13.939c-0.008-0.032-0.02-0.063-0.02-0.098V10.7c-5.229-0.157-7.32-1.088-7.34-1.097
			C24.11,9.537,23.942,9.538,23.8,9.61c-0.141,0.072-0.244,0.203-0.273,0.36l-0.436,2.53c0.047,0.008,0.09,0.012,0.133,0.031
			C25.6,13.624,30.105,13.884,31.613,13.939z"/>
		<path fill="#8E8E8E" d="M22.92,13.522l-1.271,7.42l4.566-6.503C25.016,14.225,23.85,13.928,22.92,13.522z"/>
		<path fill="#B5B5B5" d="M43.893,29.756l-0.979-6.167l-6.088-8.821c-0.021-0.035-0.031-0.074-0.045-0.112
			c-0.459,0.061-0.902,0.111-1.326,0.151c0.072,0.612,0.703,6.644-1.611,8.797c-0.555,0.521-1.23,0.783-2.006,0.783
			c-0.164,0-0.336-0.027-0.506-0.051l0.912,2.929c3.584,6.892,5.156,27.648,5.172,27.861c0.02,0.263,0.234,0.47,0.498,0.479
			c0.203,0.006,0.41,0.01,0.623,0.01c3.566,0,8.105-0.955,8.297-0.994c0.266-0.057,0.441-0.309,0.404-0.578L43.893,29.756z"/>
		<path fill="#B5B5B5" d="M30.07,23.763c-0.074-0.232,0.025-0.48,0.236-0.602c1.084-0.625,1.412-5.002,1.313-8.184
			c-0.805-0.029-2.475-0.113-4.266-0.361l-6.109,8.707l-1.166,6.814l-3.346,24.155c-0.039,0.278,0.154,0.539,0.434,0.582
			c0.191,0.03,4.789,0.745,8.348,0.745c0.271,0,0.535-0.006,0.793-0.014c0.266-0.01,0.479-0.215,0.498-0.479
			c0.016-0.205,1.455-19.192,4.713-26.882c0.027-0.066-0.158-0.349-0.207-0.496L30.07,23.763z"/>
	</g>
</g>
</svg>
