<?xml version="1.0" encoding="utf-8"?>
<!-- Generator: Adobe Illustrator 16.0.0, SVG Export Plug-In . SVG Version: 6.00 Build 0)  -->
<!DOCTYPE svg PUBLIC "-//W3C//DTD SVG 1.1//EN" "http://www.w3.org/Graphics/SVG/1.1/DTD/svg11.dtd">
<svg version="1.1" id="Layer_1" xmlns="http://www.w3.org/2000/svg" xmlns:xlink="http://www.w3.org/1999/xlink" x="0px" y="0px"
	 width="64px" height="64px" viewBox="0 0 64 64" enable-background="new 0 0 64 64" xml:space="preserve">
<g id="Men_x2019_s_Blazer">
	<g>
		<path fill="#FBBC05" d="M26.778,15.316l-7.432,2.48c-0.144,0.05-0.26,0.157-0.316,0.299L8.417,44.416
			c-0.106,0.262,0.017,0.559,0.275,0.67l6.149,2.635c0.13,0.055,0.275,0.055,0.403,0.002c0.129-0.055,0.23-0.158,0.282-0.289
			l5.217-13.176c-0.025,3.213-0.021,8.965,0.195,16.157c0.009,0.272,0.229,0.491,0.499,0.502l8.714,0.312
			c0.076,0,0.471-0.011,0.901-0.182c-0.002-0.547,0.013-1.389,0.017-1.71v-4.231c0-0.049,0.046-4.364,0.203-9.434l0.134-0.611
			l-3.905-20.468L26.778,15.316z M29.876,42.136c0,0.286-0.23,0.517-0.518,0.517h-5.301c-0.286,0-0.519-0.23-0.519-0.517
			c0-0.284,0.232-0.518,0.519-0.518h5.301C29.646,41.619,29.876,41.852,29.876,42.136z"/>
		<path fill="#4285F4" d="M31.653,13.608c-1.541,0-2.589,0.243-3.199,0.442l3.518,18.442l4.026-18.344
			C34.443,13.797,32.98,13.608,31.653,13.608z"/>
		<path fill="#FBBC05" d="M55.889,44.891L45.419,18.1c-0.056-0.143-0.174-0.254-0.319-0.304l-7.437-2.48l-0.708-0.708l-4.5,20.462
			c0.017,0.125-0.012,0.246-0.078,0.345l-0.083,0.383c-0.143,4.966-0.189,9.269-0.189,9.313v4.236
			c-0.011,0.748-0.02,1.557-0.018,1.908c0.155,0.059,0.321,0.102,0.506,0.102c0.015,0,0.026,0,0.041-0.002l10.329-0.896
			c0.273-0.023,0.479-0.257,0.471-0.532c-0.254-7.215-0.336-12.799-0.361-15.88l5.576,13.684c0.106,0.263,0.399,0.392,0.668,0.289
			l6.277-2.457C55.859,45.456,55.991,45.156,55.889,44.891z M39.704,42.652h-5.302c-0.285,0-0.519-0.23-0.519-0.517
			c0-0.284,0.232-0.518,0.519-0.518h5.302c0.286,0,0.517,0.231,0.517,0.518C40.219,42.422,39.99,42.652,39.704,42.652z"/>
	</g>
</g>
</svg>
