<?xml version="1.0" encoding="utf-8"?>
<!-- Generator: Adobe Illustrator 16.0.0, SVG Export Plug-In . SVG Version: 6.00 Build 0)  -->
<!DOCTYPE svg PUBLIC "-//W3C//DTD SVG 1.1//EN" "http://www.w3.org/Graphics/SVG/1.1/DTD/svg11.dtd">
<svg version="1.1" id="Layer_1" xmlns="http://www.w3.org/2000/svg" xmlns:xlink="http://www.w3.org/1999/xlink" x="0px" y="0px"
	 width="64px" height="64px" viewBox="0 0 64 64" enable-background="new 0 0 64 64" xml:space="preserve">
<g id="Men_x2019_s_Sleeveless_Jacket">
	<path fill="#556567" d="M17.025,26.521c0,0,1.043,3.172,1.932,4.861c0,0,0.887-6.644-2.361-11.664
		C16.596,19.718,15.656,22.108,17.025,26.521z"/>
	<path fill="#556567" d="M47.512,19.718c0,0-3.209,4.026-2.506,11.583c0.84-2.349,1.789-4.789,1.789-4.789
		C48.219,22.151,47.512,19.718,47.512,19.718z"/>
	<path fill="#34A853" d="M37.391,12.41c-1.582-0.695-3.293-1.064-5.104-1.064c-2.689,0-4.803,0.762-5.604,1.096
		c0.428,0.739,2.199,3.453,5.227,3.567C34.982,15.895,36.928,13.138,37.391,12.41z"/>
	<path fill="#556567" d="M32.594,16.993c-0.006,0.322-0.021,1.033-0.049,2.068c1.262-0.359,4.221-1.51,6.408-4.766l-0.744-1.245
		C37.625,13.962,35.701,16.559,32.594,16.993z"/>
	<path fill="#556567" d="M31.51,19.087c0.023-0.98,0.039-1.698,0.049-2.068c-3.109-0.27-4.959-2.74-5.625-3.812l-0.498,1.213
		c0.057,0.05,0.102,0.111,0.131,0.185C25.623,14.752,26.988,18.087,31.51,19.087z"/>
	<path fill="#34A853" d="M31.488,20.137c-4.361-0.885-6.18-3.741-6.711-4.78l-7.412,2.59c-0.16,0.057-0.281,0.188-0.328,0.353
		c-0.045,0.166-0.006,0.344,0.105,0.472c0.025,0.03,2.641,2.873,2.947,11.163L19.2,50.254c-0.006,0.146,0.051,0.288,0.156,0.393
		c0.119,0.117,3.049,2.871,12.299,2.904C30.965,48.171,31.313,28.203,31.488,20.137z M28.574,30.658h-5
		c-0.285,0-0.518-0.231-0.518-0.517c0-0.286,0.232-0.516,0.518-0.516h5c0.285,0,0.518,0.23,0.518,0.516
		C29.092,30.427,28.859,30.658,28.574,30.658z"/>
	<path fill="#34A853" d="M47.02,18.776c0.109-0.125,0.15-0.299,0.113-0.462c-0.039-0.162-0.154-0.296-0.311-0.36l-7.156-2.873
		c-2.564,3.669-5.955,4.774-7.143,5.059c-0.172,8.078-0.521,28.36,0.176,33.381c1.83-0.133,9.09-0.801,11.928-3.289
		c0.115-0.102,0.182-0.252,0.176-0.407l-0.725-19.863C44.152,22.149,46.99,18.809,47.02,18.776z M39.951,30.658h-4.998
		c-0.285,0-0.518-0.231-0.518-0.517c0-0.286,0.231-0.516,0.518-0.516h4.998c0.287,0,0.518,0.23,0.518,0.516
		C40.469,30.427,40.238,30.658,39.951,30.658z"/>
</g>
</svg>
