<?xml version="1.0" encoding="utf-8"?>
<!-- Generator: Adobe Illustrator 16.0.0, SVG Export Plug-In . SVG Version: 6.00 Build 0)  -->
<!DOCTYPE svg PUBLIC "-//W3C//DTD SVG 1.1//EN" "http://www.w3.org/Graphics/SVG/1.1/DTD/svg11.dtd">
<svg version="1.1" id="Layer_1" xmlns="http://www.w3.org/2000/svg" xmlns:xlink="http://www.w3.org/1999/xlink" x="0px" y="0px"
	 width="64px" height="64px" viewBox="0 0 64 64" enable-background="new 0 0 64 64" xml:space="preserve">
<g id="Men_x2019_s_Vest">
	<g>
		<path fill="#333433" d="M39.836,10.364"/>
	</g>
	<g>
		<path fill="#333433" d="M25.052,10.364"/>
	</g>
	<path fill="#4285F4" d="M38.877,14.219c-1.438,2.183-3.92,3.628-6.739,3.628c-2.818,0-5.303-1.446-6.74-3.628v1.151
		c0,3.717,3.024,6.741,6.74,6.741c3.715,0,6.739-3.024,6.739-6.741V14.219z"/>
	<path fill="#FBBC05" d="M42.251,20.066V9.869h-2.058c0,0.044-0.004,0.089-0.014,0.13v5.371c0,4.436-3.606,8.044-8.042,8.044
		c-4.435,0-8.043-3.608-8.043-8.044V9.875L22.05,9.87v10.197c0,5.684-0.925,7.204-3.856,8.569v26.667h13.943h0.028h13.942V28.636
		C43.177,27.27,42.251,25.75,42.251,20.066z"/>
</g>
</svg>
