<?xml version="1.0" encoding="utf-8"?>
<!-- Generator: Adobe Illustrator 16.0.0, SVG Export Plug-In . SVG Version: 6.00 Build 0)  -->
<!DOCTYPE svg PUBLIC "-//W3C//DTD SVG 1.1//EN" "http://www.w3.org/Graphics/SVG/1.1/DTD/svg11.dtd">
<svg version="1.1" id="Layer_1" xmlns="http://www.w3.org/2000/svg" xmlns:xlink="http://www.w3.org/1999/xlink" x="0px" y="0px"
	 width="64px" height="64px" viewBox="0 0 64 64" enable-background="new 0 0 64 64" xml:space="preserve">
<g id="Men_x2019_s_Shirt">
	<path fill="#F89C21" d="M29.525,18.842c-0.033-0.072-0.051-0.151-0.051-0.23l0.01-1.214l-0.141-0.112l-1.676,4.435
		c-0.074,0.199-0.264,0.332-0.477,0.333c-0.002,0-0.004,0-0.004,0c-0.213,0-0.402-0.127-0.482-0.323l-2.645-6.586l-7.221,2.522
		c-0.16,0.056-0.281,0.185-0.326,0.35l-5.516,13.377l7.629,3.363c0.012,0.002,0.021,0.013,0.033,0.017l0.77-1.387l-0.604,16.539
		c-0.004,0.08,0.012,0.161,0.047,0.233c0.068,0.149,1.781,3.646,11.389,3.646c0.307,0,0.629-0.009,0.947-0.016
		c-1.24-6.568-0.047-28.531,0.105-31.242L29.525,18.842z"/>
	<path fill="#F89C21" d="M30.322,16.741c0.127,0.101,0.201,0.251,0.201,0.411L30.512,18.5l1.25,2.592l0.964-2.545l-0.129-1.349
		c-0.018-0.176,0.057-0.347,0.193-0.457l0.854-0.671l3.234-3.892c-1.848-0.62-3.711-0.949-5.545-0.949
		c-2.576,0-4.395,0.614-5.148,0.922l3.287,3.917L30.322,16.741z"/>
	<path fill="#E7533C" d="M36.574,20.501l1.822-6.254c0.02-0.058,0.049-0.103,0.08-0.149l-0.773-1.294l-3.084,3.712L36.574,20.501z"
		/>
	<polygon fill="#E7533C" points="28.518,16.543 25.436,12.868 24.842,14.312 27.172,20.114 	"/>
	<path fill="#F89C21" d="M46.604,18.018c-0.043-0.16-0.16-0.289-0.317-0.347l-7.045-2.62l-2.05,7.021
		c-0.059,0.204-0.237,0.352-0.45,0.37c-0.017,0.001-0.031,0.001-0.046,0.001c-0.196,0-0.377-0.111-0.465-0.291l-2.405-4.907
		l-0.171,0.135l0.113,1.187c0.008,0.079-0.004,0.158-0.029,0.233l-1.378,3.636c-0.082,1.447-1.396,25.08-0.098,31.325
		c2.318-0.097,9.748-0.624,11.992-3.497c0.074-0.095,0.115-0.216,0.107-0.338l-0.658-16.49l0.785,1.449
		c0.016-0.005,0.027-0.014,0.043-0.019l7.908-3.535L46.604,18.018z M33.129,45.141c-0.373,0-0.678-0.305-0.678-0.677
		c0-0.375,0.305-0.679,0.678-0.679s0.678,0.304,0.678,0.679C33.807,44.836,33.502,45.141,33.129,45.141z M33.193,39.322
		c-0.373,0-0.68-0.305-0.68-0.678c0-0.375,0.307-0.68,0.68-0.68s0.676,0.305,0.676,0.68C33.869,39.018,33.566,39.322,33.193,39.322z
		 M33.256,34.303c-0.375,0-0.676-0.304-0.676-0.676c0-0.375,0.301-0.679,0.676-0.679c0.373,0,0.68,0.304,0.68,0.679
		C33.936,33.999,33.629,34.303,33.256,34.303z M33.482,28.484c-0.375,0-0.681-0.306-0.681-0.677c0-0.375,0.306-0.679,0.681-0.679
		s0.676,0.305,0.676,0.679C34.158,28.179,33.857,28.484,33.482,28.484z M33.803,23.051c-0.371,0-0.678-0.305-0.678-0.678
		s0.307-0.677,0.678-0.677c0.373,0,0.678,0.304,0.678,0.677S34.176,23.051,33.803,23.051z"/>
</g>
</svg>
