<?xml version="1.0" encoding="utf-8"?>
<!-- Generator: Adobe Illustrator 16.0.0, SVG Export Plug-In . SVG Version: 6.00 Build 0)  -->
<!DOCTYPE svg PUBLIC "-//W3C//DTD SVG 1.1//EN" "http://www.w3.org/Graphics/SVG/1.1/DTD/svg11.dtd">
<svg version="1.1" id="Layer_1" xmlns="http://www.w3.org/2000/svg" xmlns:xlink="http://www.w3.org/1999/xlink" x="0px" y="0px"
	 width="64px" height="64px" viewBox="0 0 64 64" enable-background="new 0 0 64 64" xml:space="preserve">
<g id="Men_x2019_s_Full_Sleeve_Shirt">
	<path fill="#4A4A4A" d="M8.148,49.63c0.064,0.165,0.211,0.284,0.387,0.315l4.82,0.877c0.236,0.042,0.465-0.077,0.563-0.291
		c0.029-0.063,0.662-1.438,1.119-2.764l-6.342-1.101C8.314,47.633,7.886,48.982,8.148,49.63z"/>
	<path fill="#4A4A4A" d="M54.58,46.479l-6.168,1.479c0.471,1.273,1.131,2.537,1.164,2.598c0.105,0.202,0.324,0.309,0.549,0.27
		l4.82-0.876c0.229-0.042,0.406-0.237,0.422-0.476C55.408,48.87,54.895,47.341,54.58,46.479z"/>
	<path fill="#556567" d="M29.421,19.039l1.686,0.565c0.027-1.2,0.047-2.069,0.057-2.492c-0.002,0-0.006,0-0.01-0.001l-2.107-0.854
		c-0.053-0.02-0.098-0.05-0.139-0.083l-3.379-2.845l-0.592,1.439c0.008,0.011,0.021,0.018,0.027,0.029
		C25.621,15.836,27.697,18.623,29.421,19.039z"/>
	<path fill="#556567" d="M34.305,16.267l-2.1,0.709c-0.008,0.259-0.027,1.141-0.057,2.471l2.305-0.702
		c0.971-0.489,3.789-2.193,4.236-3.812c0.018-0.067,0.051-0.128,0.092-0.18l-0.904-1.509l-3.4,2.925
		C34.424,16.211,34.365,16.246,34.305,16.267z"/>
	<polygon fill="#4A4A4A" points="37.053,12.595 31.849,11.563 31.431,11.573 26.275,12.604 29.511,15.328 31.445,16.114 
		31.531,16.111 33.877,15.32 	"/>
	<path fill="#556567" d="M31.083,20.686l-1.949-0.654c-2.195-0.528-4.432-3.752-4.938-4.518l-7.225,2.524
		c-0.16,0.055-0.281,0.186-0.33,0.349L9.066,45.684l6.297,1.092l4.361-13.529l0.162,17.259c0.002,0.242,0.174,0.45,0.41,0.502
		l10.947,2.326C30.593,47.833,30.908,28.912,31.083,20.686z M28.181,30.749h-5c-0.285,0-0.518-0.231-0.518-0.517
		c0-0.287,0.232-0.517,0.518-0.517h5c0.285,0,0.518,0.23,0.518,0.517C28.699,30.518,28.466,30.749,28.181,30.749z"/>
	<path fill="#556567" d="M46.736,18.387c-0.045-0.159-0.164-0.289-0.32-0.347l-6.834-2.542c-0.881,2.265-4.586,4.123-4.752,4.205
		l-2.708,0.831c-0.172,8.15-0.496,27.536,0.158,32.769l10.801-2.296c0.235-0.052,0.407-0.26,0.41-0.502l0.161-17.261l4.428,13.727
		l6.184-1.479L46.736,18.387z M39.561,30.749h-5c-0.285,0-0.518-0.231-0.518-0.517c0-0.287,0.232-0.517,0.518-0.517h5
		c0.285,0,0.517,0.23,0.517,0.517C40.076,30.518,39.846,30.749,39.561,30.749z"/>
</g>
</svg>
