<?xml version="1.0" encoding="utf-8"?>
<!-- Generator: Adobe Illustrator 16.0.0, SVG Export Plug-In . SVG Version: 6.00 Build 0)  -->
<!DOCTYPE svg PUBLIC "-//W3C//DTD SVG 1.1//EN" "http://www.w3.org/Graphics/SVG/1.1/DTD/svg11.dtd">
<svg version="1.1" id="Layer_1" xmlns="http://www.w3.org/2000/svg" xmlns:xlink="http://www.w3.org/1999/xlink" x="0px" y="0px"
	 width="64px" height="64px" viewBox="0 0 64 64" enable-background="new 0 0 64 64" xml:space="preserve">
<g id="Men_x2019_s_Short">
	<path fill="#556567" d="M47.363,16.185c0-0.286-0.231-0.518-0.52-0.518H16.59c-0.285,0-0.516,0.231-0.516,0.518v3.34h31.289V16.185
		z"/>
	<path fill="#4285F4" d="M54.593,46.195l-2.653-12.506l-4.367-13.078H35.314v12.384c-0.176,1.818-0.733,3.088-1.66,3.824
		c-0.719,0.572-1.46,0.648-1.804,0.648c-0.115,0-0.188-0.008-0.199-0.011c-0.256-0.034-0.451-0.253-0.451-0.513V20.611H15.864
		l-4.379,13.135L8.846,46.195c-0.059,0.271,0.104,0.535,0.371,0.605l8.715,2.346c0.041,0.013,0.084,0.018,0.129,0.019l11.236,0.126
		c0.262,0.048,0.463-0.171,0.512-0.415l1.91-9.464l1.906,9.464c0.049,0.243,0.262,0.415,0.509,0.415c0.003,0,0.007,0,0.009,0
		l11.17-0.191c0.043,0,0.082-0.007,0.123-0.017l8.78-2.278C54.482,46.734,54.648,46.467,54.593,46.195z"/>
	<path fill="#4285F4" d="M32.235,36.391c0.227-0.054,0.512-0.164,0.796-0.396c0.676-0.552,1.109-1.606,1.253-3.048l-0.002-12.335
		h-2.047V36.391z"/>
</g>
</svg>
