<?xml version="1.0" encoding="utf-8"?>
<!-- Generator: Adobe Illustrator 16.0.0, SVG Export Plug-In . SVG Version: 6.00 Build 0)  -->
<!DOCTYPE svg PUBLIC "-//W3C//DTD SVG 1.1//EN" "http://www.w3.org/Graphics/SVG/1.1/DTD/svg11.dtd">
<svg version="1.1" id="Layer_1" xmlns="http://www.w3.org/2000/svg" xmlns:xlink="http://www.w3.org/1999/xlink" x="0px" y="0px"
	 width="64px" height="64px" viewBox="0 0 64 64" enable-background="new 0 0 64 64" xml:space="preserve">
<g id="Scarf">
	<g>
		<path fill="#F89C21" d="M32.137,24.85c0,0,2.325,1.766,5.267,2.12l0.464,0.065c3.381-2.908,3.959-8.63,3.959-8.63
			C41.63,7.927,30.395,9.429,30.395,9.429c-12.559,0.595-7.965,13.696-7.965,13.696c3.557,8.864,13.796,10.537,13.796,10.537
			c2.433-2.164,2.168-5.421,2.168-5.421c-12.038-2.079-11.051-9.514-11.051-9.514c-0.225-5.2,3.75-4.913,3.75-4.913
			c5.43-0.711,5.239,4.332,5.239,4.332C36.563,20.905,33.729,23.634,32.137,24.85z"/>
		<path fill="#F89C21" d="M35.775,46.615c-0.004-0.041-0.021-0.077-0.032-0.114h0.002c0,0-1.625-7.536-1.55-12.289l-0.734-0.278
			c-2.125-0.563-5.41-2.371-5.41-2.371s-5.289,5.356-3.486,17.639c-0.047,0.075-0.082,0.159-0.084,0.255
			c-0.037,1.092-0.111,4.727,0.457,5.579c0.102,0.149,0.264,0.229,0.43,0.229c0.098,0,0.195-0.029,0.285-0.088
			c0.238-0.156,0.303-0.479,0.148-0.717c-0.26-0.391-0.355-2.885-0.287-4.971c0-0.006-0.002-0.012-0.002-0.018h1.549
			c0,0.018-0.008,0.031-0.008,0.051c0.076,0.771,0.488,4.666,1.053,5.512c0.102,0.148,0.264,0.23,0.43,0.23
			c0.1,0,0.201-0.029,0.287-0.086c0.24-0.16,0.303-0.481,0.145-0.72c-0.279-0.419-0.664-2.853-0.879-4.987h3.422
			c0.1,0.976,0.498,4.582,1.039,5.395c0.099,0.146,0.263,0.23,0.433,0.23c0.097,0,0.197-0.029,0.285-0.089
			c0.235-0.157,0.303-0.479,0.145-0.718c-0.283-0.422-0.669-2.895-0.88-5.039c-0.007-0.064-0.027-0.121-0.057-0.175V46.65
			l2.291-0.104c-0.013,0.056-0.023,0.113-0.017,0.172c0.076,0.772,0.485,4.665,1.047,5.511c0.101,0.15,0.267,0.231,0.435,0.231
			c0.098,0,0.196-0.028,0.283-0.088c0.239-0.158,0.305-0.479,0.146-0.718C36.376,51.232,35.988,48.762,35.775,46.615z"/>
	</g>
</g>
</svg>
