<?xml version="1.0" encoding="utf-8"?>
<!-- Generator: Adobe Illustrator 16.0.0, SVG Export Plug-In . SVG Version: 6.00 Build 0)  -->
<!DOCTYPE svg PUBLIC "-//W3C//DTD SVG 1.1//EN" "http://www.w3.org/Graphics/SVG/1.1/DTD/svg11.dtd">
<svg version="1.1" id="Layer_1" xmlns="http://www.w3.org/2000/svg" xmlns:xlink="http://www.w3.org/1999/xlink" x="0px" y="0px"
	 width="64px" height="64px" viewBox="0 0 64 64" enable-background="new 0 0 64 64" xml:space="preserve">
<g id="Skirt">
	<path fill="#4285F4" d="M47.291,26.148c-1.32-8.001-5.576-11.891-5.576-11.891c-1.367,0.664-2.682,1.162-3.934,1.522v0.177
		c0.014,0.188,1.529,22.901,8.521,29.305l0.544,0.595c4.497-0.432,8.372-4.81,8.372-4.81C49.494,39.578,47.291,26.148,47.291,26.148
		z"/>
	<path fill="#4285F4" d="M18.385,45.439c7.35-11.722,8.643-29.238,8.656-29.415v-0.131c-2.389-0.69-3.746-1.637-3.746-1.637
		C20.754,16.525,17.35,27.57,17.35,27.57c-1.971,7.25-8.6,13.215-8.6,13.215c2.895,3.367,7.742,4.523,9.525,4.849
		C18.311,45.568,18.352,45.504,18.385,45.439z"/>
	<path fill="#E7533C" d="M45.656,46.484l-0.275-0.305c-7.17-6.561-8.77-28.204-8.893-30.072c-3.227,0.721-5.998,0.562-8.156,0.108
		c-0.135,1.679-1.658,18.458-8.816,29.871c-0.129,0.248-0.287,0.503-0.451,0.753c3.232-0.086,6.725,3.232,6.725,3.232
		c3.668,0.809,6.313,0,6.313,0c1.318-0.881,4.036-0.586,4.036-0.586c1.319,1.318,4.549,0,4.549,0
		c1.469-1.543,5.178-2.201,5.178-2.201C45.664,47.023,45.633,46.734,45.656,46.484z"/>
</g>
</svg>
