<?xml version="1.0" encoding="utf-8"?>
<!-- Generator: Adobe Illustrator 16.0.0, SVG Export Plug-In . SVG Version: 6.00 Build 0)  -->
<!DOCTYPE svg PUBLIC "-//W3C//DTD SVG 1.1//EN" "http://www.w3.org/Graphics/SVG/1.1/DTD/svg11.dtd">
<svg version="1.1" id="Layer_1" xmlns="http://www.w3.org/2000/svg" xmlns:xlink="http://www.w3.org/1999/xlink" x="0px" y="0px"
	 width="64px" height="64px" viewBox="0 0 64 64" enable-background="new 0 0 64 64" xml:space="preserve">
<g id="Sweater">
	<path fill="#4A4A4A" d="M12.446,52.893l-4.141-0.1c-0.27,0-0.463,0.165-0.52,0.406l-0.43,1.955
		c-0.035,0.154,0.004,0.313,0.104,0.438c0.098,0.121,0.246,0.192,0.404,0.192h4.182c0.246,0,0.457-0.173,0.508-0.411l0.389-1.855
		c0.031-0.149-0.006-0.309-0.102-0.429C12.747,52.967,12.601,52.896,12.446,52.893z"/>
	<path fill="#4A4A4A" d="M56.374,53.199c-0.056-0.241-0.254-0.403-0.521-0.406l-4.141,0.1c-0.152,0.004-0.297,0.075-0.393,0.196
		c-0.096,0.12-0.135,0.278-0.103,0.429l0.39,1.855c0.049,0.238,0.262,0.411,0.506,0.411h4.184c0.008,0,0.016,0,0.023,0
		c0.283,0,0.518-0.232,0.518-0.519c0-0.09-0.025-0.173-0.064-0.246L56.374,53.199z"/>
	<path fill="#4A4A4A" d="M31.239,16.649h0.082c0.76-0.441,5.146-3.08,7.488-6.443l-2.061-0.847c-0.213-0.087-0.463-0.02-0.609,0.165
		c-1.639,2.159-4.25,3.793-4.859,4.157c-0.609-0.361-3.238-1.994-4.855-4.154c-0.141-0.188-0.393-0.257-0.609-0.167l-2.02,0.832
		C26.372,13.833,30.515,16.246,31.239,16.649z"/>
	<path fill="#556567" d="M56.309,51.762c0.315-0.009,0.53-0.229,0.53-0.518c0-0.098-0.028-0.188-0.073-0.266l-9.435-35.225
		c-0.019-0.066-0.047-0.127-0.088-0.181c-2.16-2.834-3.658-3.406-3.703-3.423l-3.758-1.544c-2.652,3.963-7.846,6.885-8.076,7.013
		c-0.074,0.042-0.16,0.065-0.248,0.065h-0.352c-0.084,0-0.166-0.021-0.242-0.061c-0.209-0.111-5.105-2.728-8.047-7.032l-3.773,1.55
		c-0.061,0.025-1.561,0.597-3.721,3.431c-0.047,0.058-0.078,0.126-0.094,0.198L7.144,51.053c-0.033,0.155,0.004,0.315,0.102,0.44
		c0.098,0.122,0.248,0.192,0.406,0.192h6.357c0.242,0,0.451-0.17,0.506-0.408l4.566-20.522c0.104,3.853,0.227,10.151,0.227,19.72
		c0,0.277,0.221,0.498,0.494,0.512h22.962c0.272-0.014,0.491-0.234,0.491-0.512c0-10.143,0.144-16.646,0.252-20.383l5.775,21.284
		c0.061,0.229,0.266,0.385,0.502,0.385h6.514C56.302,51.762,56.305,51.762,56.309,51.762z"/>
	<path fill="#4A4A4A" d="M21.136,53.691c0,0.287,0.234,0.52,0.52,0.52h19.189c0.284,0,0.518-0.232,0.518-0.52v-1.67H21.136V53.691z"
		/>
</g>
</svg>
