<?xml version="1.0" encoding="utf-8"?>
<!-- Generator: Adobe Illustrator 16.0.0, SVG Export Plug-In . SVG Version: 6.00 Build 0)  -->
<!DOCTYPE svg PUBLIC "-//W3C//DTD SVG 1.1//EN" "http://www.w3.org/Graphics/SVG/1.1/DTD/svg11.dtd">
<svg version="1.1" id="Layer_1" xmlns="http://www.w3.org/2000/svg" xmlns:xlink="http://www.w3.org/1999/xlink" x="0px" y="0px"
	 width="64px" height="64px" viewBox="0 0 64 64" enable-background="new 0 0 64 64" xml:space="preserve">
<g id="T-Shirt">
	<path fill="#34A853" d="M32.004,13.906h0.282c3.676,0.089,5.034-3.963,5.091-4.137l0.053-0.174
		c-2.029,1.375-4.509,1.455-4.997,1.455l-0.146-0.002l-0.416,0.002c-0.486,0-2.969-0.08-5-1.457l0.058,0.181
		C26.982,9.943,28.327,13.986,32.004,13.906z"/>
	<path fill="#556567" d="M16.659,14.138c-0.532,0.523-1.135,1.185-1.806,2.065l-5.449,8.222c-0.145,0.219-0.103,0.513,0.099,0.683
		l7.063,5.952c0.21,0.175,0.522,0.16,0.711-0.042l0.473-0.501c0.339-9.336-0.988-16.076-1.002-16.146L16.659,14.138z"/>
	<path fill="#556567" d="M31.964,17.471c0.001,0,0.003,0,0.005,0h0.363c0,0,0.003,0,0.005,0c6.978,0,8.507-6.275,8.521-6.338
		l0.072-0.505L38.497,9.63l-0.131,0.446c-0.021,0.062-1.671,4.929-6.094,4.865h-0.256c-0.05,0-0.097,0.001-0.145,0.001
		c-4.319,0-5.914-4.805-5.93-4.853l-0.145-0.457l-2.431,0.998l0.085,0.538C23.506,11.391,25.014,17.471,31.964,17.471z"/>
	<path fill="#34A853" d="M46.542,14.162l0.291-0.759c-0.849-0.7-1.374-0.914-1.399-0.923l-3.518-1.446l-0.044,0.292
		c-0.022,0.111-1.746,7.179-9.535,7.179c-0.002,0-0.005,0-0.005,0h-0.363c-0.001,0-0.005,0-0.005,0c-7.786,0-9.51-7.068-9.525-7.139
		l-0.053-0.33l-3.496,1.436c-0.037,0.014-0.561,0.227-1.406,0.922l0.255,0.699c0.033,0.137,1.278,6.431,1.079,15.287l0.038-0.038
		c0.105,2.901,0.351,11.016,0.351,24.981c0,0.262,0.197,0.481,0.458,0.513c0.055,0.008,5.654,0.673,11.233,0.673
		c0.377,0,0.752-0.002,1.119-0.008h0.261c0.375,0.006,0.753,0.008,1.128,0.008c5.582,0,11.181-0.665,11.234-0.673
		c0.262-0.031,0.455-0.25,0.455-0.513c0-12.607,0.199-20.431,0.318-23.969C45.098,20.988,46.527,14.228,46.542,14.162z"/>
	<path fill="#556567" d="M54.898,24.425l-5.469-8.25c-0.658-0.865-1.254-1.516-1.777-2.033l-0.121,0.315
		c0.006,0-1.402,6.679-1.08,15.949l0.574,0.612c0.188,0.202,0.5,0.217,0.711,0.042l7.063-5.952
		C55.001,24.938,55.044,24.644,54.898,24.425z"/>
</g>
</svg>
