<?xml version="1.0" encoding="utf-8"?>
<!-- Generator: Adobe Illustrator 16.0.0, SVG Export Plug-In . SVG Version: 6.00 Build 0)  -->
<!DOCTYPE svg PUBLIC "-//W3C//DTD SVG 1.1//EN" "http://www.w3.org/Graphics/SVG/1.1/DTD/svg11.dtd">
<svg version="1.1" id="Layer_1" xmlns="http://www.w3.org/2000/svg" xmlns:xlink="http://www.w3.org/1999/xlink" x="0px" y="0px"
	 width="64px" height="64px" viewBox="0 0 64 64" enable-background="new 0 0 64 64" xml:space="preserve">
<path id="Tank_Top" fill="#B5B5B5" d="M40.755,42.439c-0.229-3.149,1.455-8.313,1.459-8.328c1.412-3.448,1.646-5.97,1.654-6.085
	c0.065-0.916-0.545-1.524-0.927-1.748c-3.791-2.086-3.328-9.734-3.321-9.838c0.034-2.651-0.369-4.243-1.238-4.867
	c-0.362-0.262-0.748-0.299-1.008-0.239c-0.697,0.015-1.301,0.316-1.746,0.87c-2.078,2.589-0.504,10.489-0.133,12.189
	c-0.336,0.41-1.373,1.462-3.16,1.462c-1.377,0-2.25-0.629-2.713-1.101c0.518-2.084,2.787-12.09-0.957-13.193
	c-0.4-0.117-0.795-0.057-1.148,0.181c-1.357,0.907-1.789,4.371-1.861,5.055c-0.117,1.038-0.764,4.049-0.768,4.069
	c-0.84,3.578-3.24,5.601-3.23,5.601c-0.832,0.483-0.844,1.452-0.729,1.904c0.426,2.67,1.377,4.827,1.389,4.844
	c0.016,0.057,1.514,5.676,0.709,9.639c-0.814,4.021-2.639,7.867-2.656,7.904l-0.273,0.569l0.611,0.155
	c5.84,1.488,10.314,1.967,13.658,1.967c5.832,0,8.215-1.456,8.365-1.551l0.346-0.221l-0.135-0.387
	C42.925,51.234,40.988,45.632,40.755,42.439z M28.651,23.186c-0.008-0.021-0.832-2.076-0.832-3.86
	c0.002-0.04,0.117-4.091,0.475-5.374c0.125-0.464,0.287-0.945,0.406-1.24c1.658,1.142,1.066,6.724,0.146,10.839L28.651,23.186z
	 M37.521,17.059c-0.41,2.929-0.898,4.732-1.275,5.801c-0.563-3.133-1.152-8.335,0.189-10.008c0.244-0.304,0.53-0.457,0.896-0.48
	c0.16,0.13,0.308,0.615,0.334,0.992l0.015,0.169l0.053,0.063C37.768,13.763,37.874,14.535,37.521,17.059z"/>
</svg>
