<?xml version="1.0" encoding="utf-8"?>
<!-- Generator: Adobe Illustrator 16.0.0, SVG Export Plug-In . SVG Version: 6.00 Build 0)  -->
<!DOCTYPE svg PUBLIC "-//W3C//DTD SVG 1.1//EN" "http://www.w3.org/Graphics/SVG/1.1/DTD/svg11.dtd">
<svg version="1.1" id="Layer_1" xmlns="http://www.w3.org/2000/svg" xmlns:xlink="http://www.w3.org/1999/xlink" x="0px" y="0px"
	 width="64px" height="64px" viewBox="0 0 64 64" enable-background="new 0 0 64 64" xml:space="preserve">
<path id="Track_Pant" fill="#4285F4" d="M41.875,30.045l-1.551-17.496l0.045-1.73c0.004-0.179-0.086-0.348-0.236-0.445
	c-0.148-0.101-0.34-0.11-0.502-0.035c-0.023,0.011-2.461,1.127-7.761,1.244h-0.285c-5.313-0.117-7.719-1.232-7.74-1.244
	c-0.16-0.076-0.352-0.066-0.502,0.031c-0.148,0.096-0.24,0.262-0.24,0.44l0.014,1.681L21.564,30.05l-1.922,23.821
	c-0.02,0.256,0.15,0.488,0.402,0.546c0.096,0.021,2.586,0.573,6.088,0.448c0.266-0.01,0.48-0.219,0.498-0.486
	c0.016-0.25,1.561-24.814,5.09-31.34c3.529,6.514,5.074,31.09,5.088,31.34c0.019,0.268,0.232,0.477,0.5,0.486
	c0.349,0.012,0.685,0.018,1.008,0.018c2.97,0,4.994-0.447,5.076-0.466c0.252-0.058,0.426-0.29,0.402-0.546L41.875,30.045z"/>
</svg>
