<?xml version="1.0" encoding="utf-8"?>
<!-- Generator: Adobe Illustrator 16.0.0, SVG Export Plug-In . SVG Version: 6.00 Build 0)  -->
<!DOCTYPE svg PUBLIC "-//W3C//DTD SVG 1.1//EN" "http://www.w3.org/Graphics/SVG/1.1/DTD/svg11.dtd">
<svg version="1.1" id="Layer_1" xmlns="http://www.w3.org/2000/svg" xmlns:xlink="http://www.w3.org/1999/xlink" x="0px" y="0px"
	 width="64px" height="64px" viewBox="0 0 64 64" enable-background="new 0 0 64 64" xml:space="preserve">
<g id="Tunic_Dress">
	<path fill="#E7533C" d="M31.503,33.044c1.218-0.168,2.392-0.351,2.92-0.463l0.608-4.334c0-0.007,0.005-0.013,0.007-0.019
		c0.001-0.009-0.002-0.015,0-0.021l0.442-2.021c-0.926,0.472-1.898,1.684-2.262,2.218l-1.717,4.546L31.503,33.044L31.503,33.044z"/>
	<polygon fill="#333433" points="31.503,30.021 32.01,28.677 31.503,28.677 	"/>
	<path fill="#3A5A80" d="M41.971,38.654c0,0-1.181-7.967-3.195-11.948c0,0,0.146-0.346-0.174-0.738c0,0-0.014-0.087-0.035-0.224
		l-0.228,0.083l0.899,10.276c0.017,0.19-0.073,0.373-0.231,0.478l-0.129,0.083c0.046,0.064,0.083,0.141,0.093,0.227
		c0.117,0.877,0.33,1.621,0.555,2.404c0.32,1.114,0.65,2.268,0.707,3.852c0.004,0.088,0.259,8.27,1.188,11.106l2.977-0.487
		C44.396,53.766,42.709,43.675,41.971,38.654z"/>
	<path fill="#E7533C" d="M38.18,35.889L37.3,25.82c-0.274-0.086-0.521-0.031-0.685,0.026l-0.563,2.559l-1.117,9.554l1.219-0.732
		L38.18,35.889z"/>
	<path fill="#E7533C" d="M26.061,25.194c-0.097,0.405-0.217,1.054-0.253,1.938c0,0-0.094,0.117-0.272,0.511h6.954
		c0.322-0.451,1.063-1.396,1.969-2.036c-2.082-0.261-5.795-0.375-8.259-0.384C26.15,25.224,26.107,25.209,26.061,25.194z"/>
	<path fill="#3A5A80" d="M34.848,24.628c0.541,0.079,0.998,0.172,1.311,0.283c0.252-0.103,0.668-0.214,1.138-0.146l0.911-0.51
		c0.085-0.048,0.18-0.059,0.27-0.057c0.004-0.007,0.004-0.018,0.004-0.024l0.812-4.598c0,0,0.541-1.907,0.785-2.076
		c0,0-0.983-4.071,0.347-7.316l-0.518-0.491l-2.614-0.466c0,0,0.183,0.888,0.051,1.498c0,0-0.271,1.478-0.59,1.848
		c-0.221,0.253-0.534,1.088-1.821,1.607c0.115,0.102,0.191,0.245,0.187,0.411C35.111,14.662,34.807,21.475,34.848,24.628z"/>
	<path fill="#3A5A80" d="M34.568,39.393c-0.082,0.049-0.176,0.075-0.269,0.075c-0.099,0-0.194-0.026-0.28-0.082
		c-0.166-0.106-0.256-0.3-0.233-0.495l0.614-5.254c-0.771,0.152-1.979,0.327-2.896,0.451v4.469
		c-1.366,11.242-0.525,16.039-0.516,16.084c0.019,0.102-0.001,0.193-0.035,0.281c0.01,0.008,0.024,0.012,0.034,0.018v0.519
		c0,0,2.501,0.29,3.58,0.042c0.343-2.84,0.092-13.036,0.007-16.107H34.568z"/>
	<path fill="#E7533C" d="M30.472,34.152c-0.076-0.035-0.146-0.086-0.2-0.153c-0.112-0.142-0.143-0.334-0.078-0.505l0.276-0.735
		l-0.001-4.082h-2.594c-0.001,0.01,0.003,0.015,0.002,0.023l-0.885,5.901c-0.678,6.381-1.513,20.027-1.52,20.164
		c-0.001,0.014-0.009,0.021-0.01,0.032c0.938,0.109,2.901,0.283,3.493-0.063c0,0,0.469-0.082,0.989-0.063
		c-0.139-0.888-0.743-5.751,0.527-16.18L30.472,34.152z"/>
	<path fill="#E7533C" d="M38.533,39.58c-0.206-0.723-0.413-1.479-0.543-2.334l-1.563,1.02l-0.839,0.51
		c0.061,1.955,0.354,12.472,0.063,16.297c0.524-0.104,1.234-0.221,1.436-0.141l3.362-0.326C39.463,51.63,39.21,43.529,39.2,43.18
		C39.146,41.725,38.848,40.684,38.533,39.58z"/>
	<path fill="#3A5A80" d="M26.834,28.677h-1.518c-0.064,0-0.125-0.014-0.183-0.035c-0.625,1.711-1.676,5.262-3.13,12.456
		c0,0-1.571,10.489-2.098,12.066c0,0,0.526,0.455,1.77,0.654c0.925,0.145,2.135,0.039,2.807,0.188
		c0.179-2.873,0.89-13.945,1.482-19.535L26.834,28.677z"/>
	<path fill="#3A5A80" d="M24.858,17.266c0,0,0.426,0.95,0.752,3.507l0.518,3.432c0.024-0.004,0.046-0.015,0.075-0.015h0.001
		c0.563,0.002,1.997,0.014,3.623,0.069c0.158-2.219-0.016-9.863-0.018-9.942c-0.002-0.101,0.029-0.188,0.077-0.271
		c-1.085-0.558-1.542-1.328-1.542-1.328s-1.079-1.402-1.302-3.491L25.177,9.79c0,0-0.664-0.246-1.105,0.394
		C24.072,10.184,25.744,11.659,24.858,17.266z"/>
	<path fill="#E7533C" d="M30.862,24.299c1.014,0.046,2.042,0.111,2.951,0.203c-0.03-3.247,0.266-9.889,0.271-9.957
		c0.001-0.04,0.019-0.076,0.028-0.114c-0.442,0.097-0.965,0.164-1.58,0.179c-0.651,0.019-1.2-0.074-1.685-0.207
		C30.865,15.345,31.009,22.082,30.862,24.299z M32.376,23.704c-0.416,0-0.753-0.338-0.753-0.753c0-0.412,0.337-0.748,0.753-0.748
		c0.414,0,0.752,0.336,0.752,0.748C33.128,23.366,32.791,23.704,32.376,23.704z M32.376,16.067c0.414,0,0.752,0.337,0.752,0.751
		c0,0.416-0.338,0.753-0.752,0.753c-0.416,0-0.753-0.337-0.753-0.753C31.624,16.404,31.96,16.067,32.376,16.067z M32.375,18.907
		c0.414,0,0.753,0.336,0.753,0.75c0,0.416-0.339,0.752-0.753,0.752s-0.751-0.336-0.751-0.752
		C31.624,19.243,31.96,18.907,32.375,18.907z"/>
</g>
</svg>
