<?xml version="1.0" encoding="utf-8"?>
<!-- Generator: Adobe Illustrator 16.0.0, SVG Export Plug-In . SVG Version: 6.00 Build 0)  -->
<!DOCTYPE svg PUBLIC "-//W3C//DTD SVG 1.1//EN" "http://www.w3.org/Graphics/SVG/1.1/DTD/svg11.dtd">
<svg version="1.1" id="Layer_1" xmlns="http://www.w3.org/2000/svg" xmlns:xlink="http://www.w3.org/1999/xlink" x="0px" y="0px"
	 width="64px" height="64px" viewBox="0 0 64 64" enable-background="new 0 0 64 64" xml:space="preserve">
<g id="Woman_x2019_s_Top">
	<path fill="#556567" d="M48.958,53.771l-1.449-3.912c-0.485,0.271-1.26,0.689-2.358,1.254c-1.148,0.588-2.488,0.545-3.906,0.49
		c-1.24-0.041-2.525-0.086-3.834,0.27c-1.018,0.275-1.926,0.368-2.682,0.368c-1.332,0-2.205-0.288-2.427-0.368
		c-0.355-0.073-0.717-0.227-1.096-0.384c-1.002-0.423-2.248-0.945-4.119-0.314c-3.533,1.195-9.129-0.35-10.834-0.876
		c-0.119,0.803-0.455,2.631-1.211,4.035c-0.096,0.178-0.08,0.396,0.045,0.561c0.105,0.135,0.711,0.801,2.541,0.801
		c0.463,0,0.975-0.043,1.523-0.129c0.279-0.045,0.564-0.065,0.846-0.065c0.963,0,1.779,0.257,2.572,0.505
		c1.063,0.337,2.123,0.604,3.121,0.296c1.566-0.481,1.523-0.387,2.625-0.153c0.375,0.08,0.85,0.183,1.49,0.295
		c0.477,0.084,0.844,0.154,1.143,0.214c0.6,0.116,0.963,0.188,1.365,0.188c0.488,0,0.988-0.102,2.085-0.324l0.406-0.082
		c1.195-0.239,2.156-0.342,3.217-0.342c0.453,0,0.89,0.019,1.34,0.035c0.511,0.021,1.046,0.042,1.656,0.042
		c2.275,0,3.443-0.034,5.053-0.841c1.4-0.697,2.47-0.868,2.479-0.87c0.154-0.022,0.291-0.112,0.369-0.248
		C48.997,54.078,49.014,53.917,48.958,53.771z"/>
	<g>
		<path fill="#556567" d="M20.603,29.393c0.082,0.061,0.156,0.143,0.193,0.249c0.043,0.118,1.063,2.918,5.924,3.542
			c0,0,0.012,0.002,0.016,0.002c0.426,0.024,1.582,0.039,2.762-0.432c0.16-0.048,2.801-0.799,4.641,0.1
			c1.244,0.438,2.445,0.342,2.646,0.322c4.842-0.643,5.836-4.176,5.846-4.212c0.037-0.14,0.127-0.251,0.242-0.315
			c0.114-1.357,0.603-2.993,1.981-4.503c0.181-0.193,0.187-0.492,0.008-0.691c-0.03-0.037-3.245-3.704-3.959-5.692
			c-0.043-0.126-0.139-0.223-0.256-0.28c0.521-2.832,1.324-8.259,0.121-9.444c-0.274-0.274-0.639-0.384-1.026-0.303
			c-2.507,0.518-2.979,3.859-3.14,11.649l-0.936,0.502c-0.145,0.076-0.246,0.235-0.27,0.395c-0.004,0.013-0.238,1.248-3.271,1.626
			c-0.027-0.001-2.908-0.117-3.211-1.541c-0.033-0.158-0.139-0.291-0.283-0.36l-1.762-0.832c-0.16-7.633-0.648-10.926-3.131-11.438
			c-0.387-0.078-0.754,0.028-1.031,0.303c-1.197,1.186-0.396,6.6,0.123,9.436c-0.016,0.006-0.031,0.004-0.047,0.012
			c-0.145,0.083-0.242,0.231-0.26,0.398c-0.006,0.045-0.504,4.609-3.576,5.414c-0.184,0.046-0.324,0.188-0.373,0.369
			c-0.045,0.181,0.012,0.375,0.145,0.503C18.808,24.256,20.546,25.984,20.603,29.393z M39.882,9.086
			c0.396,0.828,0.109,4.695-0.666,8.723c-0.014,0.061-0.004,0.12,0.002,0.181l-1.254,0.67C38.132,12.013,38.634,9.495,39.882,9.086z
			 M23.597,9.086c1.24,0.407,1.746,2.895,1.914,9.445l-1.248-0.592c0-0.044,0.01-0.086,0-0.131
			C23.487,13.781,23.198,9.914,23.597,9.086z"/>
		<path fill="#34A853" d="M43.159,31.593c-0.017-0.047-0.125-0.387-0.214-0.918c-0.819,1.286-2.536,3.031-5.932,3.511
			c-0.021,0.006-0.039,0.019-0.061,0.021c-0.02,0.001-0.17,0.018-0.398,0.025c-0.096,0.004-0.205,0.009-0.34,0.009
			c-0.592,0-1.521-0.069-2.496-0.415c-0.039-0.014-0.068-0.039-0.102-0.063c-1.256-0.539-2.979-0.217-3.572-0.078
			c-0.025,0.018-0.047,0.039-0.078,0.053c-1.057,0.422-2.086,0.503-2.727,0.503c-0.043,0-0.078-0.002-0.117-0.002
			c-0.006,0-0.016,0-0.021,0c-0.398,0-0.654-0.029-0.68-0.032c-0.045-0.007-0.082-0.025-0.119-0.041
			c-3.326-0.496-5.014-1.962-5.82-3.023c-0.029,0.199-0.053,0.395-0.094,0.603c-0.178,0.521-4.164,12.285-4.113,17.475
			c1.121,0.357,7.049,2.131,10.479,0.975c2.242-0.756,3.752-0.125,4.852,0.34c0.359,0.15,0.672,0.281,0.934,0.332
			c0.037,0.006,0.068,0.016,0.102,0.029c0.019,0.004,1.814,0.703,4.496-0.021c1.459-0.396,2.883-0.346,4.144-0.303
			c1.331,0.048,2.485,0.086,3.396-0.381c1.48-0.758,2.393-1.269,2.742-1.467C47.404,46.541,46.945,40.703,43.159,31.593z"/>
	</g>
</g>
</svg>
