<?xml version="1.0" encoding="utf-8"?>
<!-- Generator: Adobe Illustrator 16.0.0, SVG Export Plug-In . SVG Version: 6.00 Build 0)  -->
<!DOCTYPE svg PUBLIC "-//W3C//DTD SVG 1.1//EN" "http://www.w3.org/Graphics/SVG/1.1/DTD/svg11.dtd">
<svg version="1.1" id="Layer_1" xmlns="http://www.w3.org/2000/svg" xmlns:xlink="http://www.w3.org/1999/xlink" x="0px" y="0px"
	 width="64px" height="64px" viewBox="0 0 64 64" enable-background="new 0 0 64 64" xml:space="preserve">
<g id="Woman_x2019_s_Pant">
	<polygon fill="#333433" points="25.432,11.67 25.436,11.674 25.436,11.67 	"/>
	<path fill="#34A853" d="M40.357,33.204c0,0-0.793-3.314-0.433-7.062c0,0,1.367-7.277-1.516-12.826L38,11.67
		c0,0-1.555,1.646-6.469,2.008c-0.488,0-4.234-0.003-6.096-2.004l-0.412,1.643c-2.881,5.549-1.512,12.826-1.512,12.826
		c0.361,3.747-0.436,7.062-0.436,7.062c-2.447,5.837-2.086,18.804-2.086,18.804l0.025-0.016l5.492,1.026
		c0.729-1.836,0.816-8.357,0.816-8.357c0.143-4.036,1.512-9.151,1.512-9.151c0.721-6.484,2.604-11.535,2.604-11.535l0.182-0.009
		c0,0,1.963,5.06,2.682,11.544c0,0,1.371,5.115,1.515,9.151c0,0,0.178,6.25,0.977,8.357l5.654-1.012
		C42.447,52.008,42.807,39.041,40.357,33.204z"/>
</g>
</svg>
