<?xml version="1.0" encoding="utf-8"?>
<!-- Generator: Adobe Illustrator 16.0.0, SVG Export Plug-In . SVG Version: 6.00 Build 0)  -->
<!DOCTYPE svg PUBLIC "-//W3C//DTD SVG 1.1//EN" "http://www.w3.org/Graphics/SVG/1.1/DTD/svg11.dtd">
<svg version="1.1" id="Layer_1" xmlns="http://www.w3.org/2000/svg" xmlns:xlink="http://www.w3.org/1999/xlink" x="0px" y="0px"
	 width="64px" height="64px" viewBox="0 0 64 64" enable-background="new 0 0 64 64" xml:space="preserve">
<g id="Woman_x2019_s_Formal_Coat_x2F_Blazer">
	<path fill="#784096" d="M28.423,14.35l3.486,20.564l4.461-20.467C30.46,12.982,28.423,14.35,28.423,14.35z"/>
	<path fill="#FBBC05" d="M38.62,25.991l-0.849-0.78c-0.119-0.113-0.18-0.274-0.168-0.436c0.017-0.163,0.105-0.311,0.244-0.401
		l2.223-1.41l-2.614-7.615l-0.397-0.399l-3.511,16.542C35.339,28.957,37.643,26.84,38.62,25.991z"/>
	<path fill="#FBBC05" d="M26.274,24.374c0.139,0.09,0.227,0.238,0.242,0.401c0.016,0.164-0.047,0.323-0.166,0.436l-0.875,0.804
		c0.961,0.927,3.338,3.348,5.105,6.127L27.65,14.96l-0.469,0.47c-0.006,0.016-0.004,0.032-0.01,0.05l-3.098,7.496L26.274,24.374z"/>
	<path fill="#784096" d="M49.984,48.896l6.41-2.724L45.363,18.11l-6.598-2.201l2.443,7.106c0.078,0.229-0.01,0.486-0.219,0.618
		L38.997,24.9l0.782,0.719c0.109,0.107,0.173,0.252,0.169,0.406c-0.005,0.154-0.076,0.299-0.195,0.395
		c-0.053,0.045-5.168,4.244-6.928,8.488l-0.412,1.941l-0.158,12.793l0.016,0.098c0,0-0.195,1.541,1.027,1.525l1.738-0.131
		l8.26-0.654c-0.403-11.6-0.379-18.988-0.379-18.988L49.984,48.896z M50.484,46.338c0.304,0,0.55,0.246,0.55,0.548
		c0,0.306-0.246,0.552-0.55,0.552c-0.305,0-0.553-0.246-0.553-0.552C49.934,46.584,50.182,46.338,50.484,46.338z M33.548,43.864
		c-0.303,0-0.551-0.248-0.551-0.552c0-0.302,0.248-0.549,0.551-0.549c0.306,0,0.554,0.247,0.554,0.549
		C34.102,43.617,33.854,43.864,33.548,43.864z M33.548,37.518c-0.303,0-0.551-0.248-0.551-0.552c0-0.303,0.248-0.549,0.551-0.549
		c0.306,0,0.554,0.246,0.554,0.549C34.102,37.271,33.854,37.518,33.548,37.518z"/>
	<path fill="#784096" d="M24.345,26.399c-0.109-0.101-0.172-0.242-0.172-0.389c0-0.149,0.063-0.289,0.17-0.391l0.783-0.719
		l-1.994-1.267c-0.217-0.139-0.305-0.411-0.205-0.649l2.908-7.037L19.36,18.11L7.575,46.165l6.285,2.69l7.328-17.28
		c0,0-0.18,7.806,0.162,19.373l8.326,0.317c0,0,1.104,0.017,1.504-0.865l0.012-0.192l0.174-13.469l-0.188-1.103
		C29.577,31.226,24.399,26.451,24.345,26.399z M13.382,47.227c-0.305,0-0.551-0.246-0.551-0.551c0-0.301,0.246-0.549,0.551-0.549
		c0.303,0,0.551,0.249,0.551,0.549C13.933,46.98,13.685,47.227,13.382,47.227z"/>
</g>
</svg>
