<?xml version="1.0" encoding="utf-8"?>
<!-- Generator: Adobe Illustrator 16.0.0, SVG Export Plug-In . SVG Version: 6.00 Build 0)  -->
<!DOCTYPE svg PUBLIC "-//W3C//DTD SVG 1.1//EN" "http://www.w3.org/Graphics/SVG/1.1/DTD/svg11.dtd">
<svg version="1.1" id="Layer_1" xmlns="http://www.w3.org/2000/svg" xmlns:xlink="http://www.w3.org/1999/xlink" x="0px" y="0px"
	 width="64px" height="64px" viewBox="0 0 64 64" enable-background="new 0 0 64 64" xml:space="preserve">
<g id="Woman_x2019_s_Jeans">
	<path fill="#556567" d="M39.952,12.079c-0.097-0.209-0.185-0.419-0.29-0.622l-0.447-1.795c0,0-1.646,1.729-6.79,2.164
		c0,0.009,0.003,0.016,0.003,0.024v2.78c0.004,0.041,0.016,0.141,0.031,0.287C35.079,14.451,38.995,13.362,39.952,12.079z
		 M33.76,14.123c-0.285,0-0.587-0.301-0.587-0.588c0-0.287,0.302-0.585,0.587-0.585c0.286,0,0.59,0.298,0.59,0.585
		C34.35,13.822,34.046,14.123,33.76,14.123z"/>
	<path fill="#4A4A4A" d="M37.633,14.697c0.006,0.027,0.623,2.715,2.104,3.485c0.498,0.26,1.035,0.264,1.646,0.011
		c0.048-0.02,0.097-0.022,0.146-0.027c-0.168-1.633-0.514-3.373-1.143-5.049c-0.667,0.601-1.682,1.105-2.779,1.514
		C37.613,14.653,37.627,14.674,37.633,14.697z"/>
	<path fill="#556567" d="M32.552,15.953c0.113,1.31,0.261,3.346,0.279,5.125c0.306-0.077,0.556-0.23,0.748-0.473
		c0.909-1.146,0.542-3.851,0.321-4.798c-0.01-0.041-0.004-0.082-0.002-0.121C33.332,15.81,32.866,15.897,32.552,15.953z"/>
	<path fill="#556567" d="M41.784,33.166c0,0-0.862-3.62-0.468-7.708c0,0,0.511-2.757,0.293-6.255
		c-0.368,0.134-0.732,0.213-1.082,0.213c-0.441,0-0.865-0.105-1.271-0.316c-1.815-0.949-2.534-3.758-2.624-4.133
		c-0.607,0.191-1.212,0.358-1.773,0.497c0.018,0.035,0.041,0.069,0.051,0.112c0.035,0.158,0.883,3.907-0.52,5.673
		c-0.396,0.496-0.925,0.783-1.563,0.878c-0.017,0.631-0.056,1.195-0.132,1.622c-0.016,0.108-0.073,0.197-0.145,0.271
		c0.657,1.908,2.037,6.367,2.625,11.662c0,0,1.495,5.584,1.654,9.988c0,0-0.078,8.102,1.416,9.124c0,0,2.838,0.983,5.82-1.104
		C44.068,53.689,44.46,39.538,41.784,33.166z"/>
	<path fill="#556567" d="M27.863,15.309c-0.177,0.604-0.956,2.935-2.672,3.801c-0.434,0.222-0.891,0.332-1.366,0.332
		c-0.315,0-0.642-0.068-0.974-0.167c-0.144,1.721-0.186,3.773-0.047,6.262c0,0,0.662,5.349-0.089,7.656c0,0-0.868,2.017-0.946,5.084
		c0,0-1.103,3.736-0.981,6.371c0,0-0.789,3.617-0.515,8.93c0,0,1.762,1.855,6.097,1.217c0,0,0.216-0.493,0.302-1.959
		c0,0,0.183-1.063,0.645-7.951l1.492-8.65c0,0,2.194-8.558,2.893-12.854c0.246-1.739-0.02-5.464-0.189-7.418
		C30.038,15.813,28.833,15.586,27.863,15.309z"/>
	<path fill="#556567" d="M31.395,14.909V11.85c0-0.014,0.006-0.024,0.007-0.038c-1.327-0.109-4.1-0.527-5.608-2.15l-0.685,1.929
		c0,0-0.17,0.169-0.42,0.572c0.012,0.025,0.031,0.048,0.042,0.075C24.755,12.301,25.608,14.287,31.395,14.909z"/>
	<path fill="#4A4A4A" d="M24.726,18.187c1.222-0.616,1.945-2.451,2.152-3.197c-1.542-0.577-2.326-1.254-2.729-1.755
		c-0.439,1.029-0.917,2.628-1.194,4.996C23.607,18.467,24.187,18.459,24.726,18.187z"/>
</g>
</svg>
