<?xml version="1.0" encoding="utf-8"?>
<!-- Generator: Adobe Illustrator 16.0.0, SVG Export Plug-In . SVG Version: 6.00 Build 0)  -->
<!DOCTYPE svg PUBLIC "-//W3C//DTD SVG 1.1//EN" "http://www.w3.org/Graphics/SVG/1.1/DTD/svg11.dtd">
<svg version="1.1" id="Layer_1" xmlns="http://www.w3.org/2000/svg" xmlns:xlink="http://www.w3.org/1999/xlink" x="0px" y="0px"
	 width="64px" height="64px" viewBox="0 0 64 64" enable-background="new 0 0 64 64" xml:space="preserve">
<g id="Woman_x2019_s_T-shirt">
	<path fill="#FBBC05" d="M32.146,12.912c0.045,0,4.611-0.074,6.374-3.053c-1.744-0.711-3.889-1.076-6.38-1.076
		c-3.295,0-5.995,0.627-6.109,0.654c-0.014,0.004-0.025,0.014-0.038,0.02c0.002,0.014,0.01,0.025,0.01,0.041
		C26.012,9.65,26.288,12.912,32.146,12.912z"/>
	<path fill="#784096" d="M44.949,27.256c0.033,0.014,0.066,0.021,0.103,0.029c2.121,0.334,4.72-0.535,5.412-1.377
		c0.224-0.273,0.234-0.516,0.203-0.676c-0.099-0.496-2.056-9.15-2.467-10.795c-0.483-1.932-3.144-2.652-4.709-2.652
		c-1.067,0-2.716-0.209-3.247-0.279l-0.938-0.949c-2.115,3.316-6.945,3.389-7.16,3.389c-5.04,0-6.543-2.314-6.988-3.586
		c-0.31,0.385-0.674,0.822-0.912,1.064c-0.244,0.24-0.65,0.275-1.341,0.313c-0.226,0.014-0.463,0.027-0.713,0.051
		c-1.136,0.115-2.448,0.576-3.697,1.299c-1.378,0.807-2.146,1.623-2.488,2.646c-0.021,0.059-1.924,5.938-2.38,9.119
		c-0.023,0.174,0.043,0.352,0.176,0.465c0.783,0.67,2.285,1.012,4.471,1.012c0.847,0,1.497-0.053,1.633-0.066
		c-0.117,1.127-0.151,3.549,1.343,5.504c0.015,0.023,1.371,2.372,0.605,4.521c-0.141,0.394-0.356,0.866-0.609,1.424
		c-1.261,2.781-3.605,7.957-2.175,15.634c0.032,0.172,0.148,0.315,0.312,0.383c0.199,0.084,5,2.043,12.78,2.041
		c4.484,0,9.046-0.66,13.554-1.957c0.2-0.058,0.343-0.228,0.371-0.431c1.327-10.233-2.253-15.93-2.376-16.112
		c-0.484-1-1.538-3.886-0.626-5.163c1.715-2.402,1.613-4.877,1.606-4.922c0-0.006,0-0.016,0-0.021L44.949,27.256z"/>
</g>
</svg>
