<?xml version="1.0" encoding="utf-8"?>
<!-- Generator: Adobe Illustrator 16.0.0, SVG Export Plug-In . SVG Version: 6.00 Build 0)  -->
<!DOCTYPE svg PUBLIC "-//W3C//DTD SVG 1.1//EN" "http://www.w3.org/Graphics/SVG/1.1/DTD/svg11.dtd">
<svg version="1.1" id="Layer_1" xmlns="http://www.w3.org/2000/svg" xmlns:xlink="http://www.w3.org/1999/xlink" x="0px" y="0px"
	 width="64px" height="64px" viewBox="0 0 64 64" enable-background="new 0 0 64 64" xml:space="preserve">
<g id="Woman_x2019_s_Coat">
	<path fill="#4285F4" d="M35.447,14.883c0,0-3.198,2.364-6.555,0.081c0,0-0.692,11.961,3.554,15.988
		C32.446,30.952,36.154,22.917,35.447,14.883z"/>
	<path fill="#556567" d="M28.146,14.07l-0.988,0.987l-0.035,0.011c-2.381,3.754-1.93,6.261-1.925,6.288
		c0.054,0.273-0.12,0.545-0.393,0.605l-0.983,0.224c0.681,1.803,3.213,7.729,8.096,11.024c0.094-0.55,0.16-0.865,0.16-0.865
		C26.777,25.92,28.146,14.07,28.146,14.07z"/>
	<path fill="#4285F4" d="M31.541,34.211c-6.228-4.06-8.789-11.91-8.896-12.241c-0.043-0.141-0.027-0.288,0.044-0.415
		c0.072-0.125,0.193-0.216,0.334-0.247l1.104-0.25c-0.044-0.891,0.078-2.887,1.542-5.566l-8.095,2.356L8.679,39.311
		c0,0,1.552,3.836,5.841,3.143l5.956-15.271c0,0,3.186,6.995-1.298,18.979c0,0,6.839,4.993,11.463,4.331l0.298-0.079
		c0,0,0.871-0.815,0.63-2.64c-0.732-5.565-0.213-10.793,0.18-13.5C31.679,34.266,31.604,34.255,31.541,34.211z"/>
	<path fill="#556567" d="M33.009,32.636c-0.004,0.011-0.007,0.024-0.011,0.036c4.115-3.332,6.727-8.752,7.493-10.494l-0.951-0.216
		c-0.138-0.029-0.259-0.116-0.33-0.24c-0.073-0.12-0.093-0.27-0.053-0.407c0.007-0.019,0.657-2.576-1.816-6.392
		c-0.008-0.012-0.008-0.024-0.014-0.036l-0.816-0.816C37.285,22.473,33.009,32.636,33.009,32.636z"/>
	<path fill="#4285F4" d="M46.729,17.848l-7.86-2.375c1.442,2.675,1.475,4.68,1.378,5.591l1.076,0.244
		c0.146,0.034,0.271,0.129,0.343,0.263c0.067,0.134,0.078,0.289,0.024,0.43c-0.131,0.335-3.256,8.213-8.998,12.204
		c-0.018,0.012-0.041,0.007-0.059,0.018c-0.704,3.885-0.539,9.711-0.539,9.711c0.006,6.211,1.928,6.688,1.928,6.688
		c3.845,0.67,10.557-4.006,10.557-4.006c-3.655-10.052-0.504-18.656-0.504-18.656l6.063,14.493c4.028,0.056,5.488-3.143,5.488-3.143
		L46.729,17.848z M33.167,42.4c-0.403,0-0.732-0.327-0.732-0.731c0-0.403,0.329-0.729,0.732-0.729s0.733,0.326,0.733,0.729
		C33.9,42.073,33.57,42.4,33.167,42.4z M33.637,35.874c-0.406,0-0.734-0.329-0.734-0.731c0-0.406,0.328-0.733,0.734-0.733
		c0.402,0,0.731,0.327,0.731,0.733C34.368,35.545,34.039,35.874,33.637,35.874z"/>
</g>
</svg>
