<?xml version="1.0" encoding="utf-8"?>
<!-- Generator: Adobe Illustrator 16.0.0, SVG Export Plug-In . SVG Version: 6.00 Build 0)  -->
<!DOCTYPE svg PUBLIC "-//W3C//DTD SVG 1.1//EN" "http://www.w3.org/Graphics/SVG/1.1/DTD/svg11.dtd">
<svg version="1.1" id="Layer_1" xmlns="http://www.w3.org/2000/svg" xmlns:xlink="http://www.w3.org/1999/xlink" x="0px" y="0px"
	 width="64px" height="64px" viewBox="0 0 64 64" enable-background="new 0 0 64 64" xml:space="preserve">
<g id="Woman_x2019_s_Dress">
	<path fill="#784096" d="M23.716,17.079c-0.016,0.098-0.002,0.201,0.037,0.291c0.004,0.01,0.406,0.946,0.717,3.374l0.572,3.811
		c-0.098,0.307-0.318,1.121-0.379,2.372l-1.359,3.842c0.066,0.044,0.123,0.099,0.164,0.169c0.023,0.045,2.441,4.218,4.521,3.18
		c1.457-0.728,2.32-0.144,3.016,0.327c0.732,0.49,1.311,0.881,2.769-0.053c1.521-0.972,2.649-0.832,3.561-0.72
		c1.139,0.142,1.887,0.231,3.266-1.936c0.058-0.094,0.144-0.151,0.236-0.192l-2.15-4.995c0.027-0.217,0.01-0.543-0.221-0.891
		c-0.098-0.646-0.148-1.315-0.105-1.501l0.802-4.545c0.213-0.758,0.524-1.685,0.58-1.793c0.176-0.124,0.26-0.341,0.209-0.547
		c-0.011-0.04-0.929-3.945,0.319-6.999c0.08-0.199,0.033-0.424-0.121-0.571L39.63,9.212c-0.073-0.069-0.166-0.115-0.267-0.134
		l-2.612-0.467c-0.168-0.026-0.342,0.025-0.461,0.148c-0.121,0.121-0.17,0.297-0.138,0.465c0.041,0.204,0.142,0.875,0.05,1.301
		c-0.127,0.707-0.353,1.455-0.474,1.602c-0.057,0.063-0.115,0.155-0.188,0.266c-0.319,0.496-0.99,1.529-3.654,1.597h-0.148
		c-2.551,0-3.535-1.575-3.609-1.693c-0.012-0.012-1-1.323-1.199-3.229c-0.02-0.154-0.102-0.292-0.23-0.376
		c-0.129-0.087-0.287-0.11-0.434-0.064l-1.73,0.522c-0.08-0.015-0.18-0.026-0.291-0.026c-0.496,0-0.932,0.233-1.229,0.663
		c-0.143,0.208-0.107,0.497,0.074,0.674C23.103,10.472,24.53,11.925,23.716,17.079z"/>
	<path fill="#784096" d="M18.712,46.09c0.025,0.021,0.051,0.046,0.074,0.072c0.004,0.004,0.83,0.867,2.975,0.867
		c1.527,0,1.943,0.16,2.545,0.438c0.316,0.146,0.672,0.312,1.438,0.491c1.313,0.307,2.291,0.205,3.328,0.096
		c0.504-0.054,1.025-0.109,1.576-0.109c0.49,0,0.762,0.033,0.994,0.061c0.477,0.057,0.742,0.09,3.186-0.416
		c1.4-0.29,2.111-0.373,2.629-0.436c0.756-0.086,0.984-0.115,2.512-0.76c1.199-0.509,2.826-0.42,4.26-0.336
		c1.017,0.061,2.242,0.127,2.703-0.133c0.063-0.191,0.101-0.404,0.104-0.64c0.055-3.404-1.789-5.646-2.522-6.4
		c-0.445,0.472-1.185,1.023-1.193,1.029c-0.92,0.647-1.799,0.72-2.648,0.79c-0.688,0.055-1.396,0.113-2.219,0.46
		c-1.211,0.513-1.477,0.562-2.135,0.64c-0.375,0.043-0.883,0.103-1.896,0.313c-1.904,0.396-2.203,0.387-2.691,0.326
		c-0.146-0.018-0.322-0.039-0.637-0.039c-0.373,0-0.727,0.039-1.09,0.078c-0.393,0.041-0.811,0.086-1.275,0.086
		c-0.457,0-0.961-0.043-1.525-0.176c-0.693-0.164-0.963-0.313-1.199-0.467c-0.135-0.087-0.227-0.146-1.137-0.146
		c-1.791,0-2.979-0.737-3.236-0.914l-0.199-0.09c-0.777-0.352-1.697-0.776-2.123-1.395c-0.9,0.907-2.191,2.477-2.506,4.159
		C17.019,44.212,18.005,45.557,18.712,46.09z"/>
	<path fill="#FBBC05" d="M47.566,46.734c-0.721,0.5-1.977,0.438-3.397,0.356c-1.321-0.073-2.819-0.159-3.797,0.255
		c-1.664,0.702-1.974,0.739-2.797,0.836c-0.498,0.059-1.181,0.139-2.537,0.418c-2.506,0.521-2.889,0.508-3.52,0.432
		c-0.205-0.025-0.441-0.053-0.871-0.053c-0.494,0-0.967,0.051-1.469,0.104c-0.537,0.057-1.084,0.117-1.686,0.117
		c-0.596,0-1.246-0.061-1.988-0.234c-0.867-0.204-1.291-0.4-1.635-0.559c-0.457-0.213-0.736-0.34-2.109-0.34
		c-2.389,0-3.482-0.95-3.709-1.178c-0.549-0.43-1.385-1.394-1.895-2.301c-0.848,1.137-2.893,4.178-2.305,6.422
		c0.244,0.936,0.891,1.619,1.918,2.035c0.227,0.171,0.922,0.607,2.227,0.813c0.463,0.074,1.088,0.123,1.748,0.174
		c0.869,0.066,2.439,0.188,2.824,0.346v0.33c0,0.255,0.188,0.475,0.441,0.512c0.07,0.01,1.707,0.243,3.1,0.243
		c0.836,0,1.404-0.084,1.768-0.259c0.139-0.02,0.449-0.061,0.799-0.061c0.354,0,0.654,0.041,0.873,0.115v0.282
		c0,0.263,0.195,0.483,0.455,0.515c0.061,0.006,1.479,0.168,2.775,0.168c0.996,0,1.941-0.07,2.33-0.529
		c0.494-0.106,1.369-0.275,1.824-0.28c0.073,0.028,0.157,0.037,0.237,0.032l4.496-0.434c0.209-0.021,0.377-0.162,0.438-0.35
		l6.386-1.256c0.069-0.014,0.139-0.045,0.198-0.088c0.582-0.416,0.91-0.984,0.982-1.696C49.839,49.989,48.509,47.952,47.566,46.734z
		"/>
	<path fill="#FBBC05" d="M20.101,38.701c0.08,0.374,1.254,0.904,1.754,1.132l0.248,0.112c0.033,0.016,0.063,0.033,0.09,0.056
		c0.01,0.006,1.041,0.747,2.672,0.747c1.104,0,1.355,0.088,1.695,0.309c0.137,0.084,0.301,0.192,0.877,0.328
		c0.965,0.227,1.689,0.15,2.455,0.069c0.4-0.044,0.789-0.082,1.199-0.082c0.375,0,0.584,0.022,0.76,0.042
		c0.336,0.041,0.537,0.066,2.357-0.311c1.06-0.22,1.594-0.281,1.983-0.328c0.556-0.064,0.726-0.086,1.854-0.563
		c0.978-0.41,1.806-0.479,2.535-0.538c0.812-0.066,1.451-0.117,2.14-0.604c0.313-0.221,1.057-0.862,1.17-1.041
		c0.104-0.164,0.293-0.252,0.479-0.244c-0.055-2.018-2.031-4.381-2.967-5.391c-1.693,2.607-2.963,2.461-4.195,2.306
		c-0.857-0.104-1.672-0.206-2.877,0.563C33.482,35.807,32.805,36,32.244,36c-0.777,0-1.33-0.374-1.816-0.701
		c-0.639-0.432-1.061-0.717-1.975-0.258c-2.791,1.396-5.385-2.744-5.824-3.487c-0.615,0.898-2.867,4.389-2.615,6.946
		C20.052,38.561,20.085,38.627,20.101,38.701z"/>
</g>
</svg>
