<?xml version="1.0" encoding="utf-8"?>
<!-- Generator: Adobe Illustrator 16.0.0, SVG Export Plug-In . SVG Version: 6.00 Build 0)  -->
<!DOCTYPE svg PUBLIC "-//W3C//DTD SVG 1.1//EN" "http://www.w3.org/Graphics/SVG/1.1/DTD/svg11.dtd">
<svg version="1.1" id="Layer_1" xmlns="http://www.w3.org/2000/svg" xmlns:xlink="http://www.w3.org/1999/xlink" x="0px" y="0px"
	 width="64px" height="64px" viewBox="0 0 64 64" enable-background="new 0 0 64 64" xml:space="preserve">
<g id="Woman_x2019_s_Collared_T-shirt">
	<rect x="32.504" y="15.187" fill="#E7533C" width="0.746" height="8.549"/>
	<path fill="#E7533C" d="M36.238,16.748c3.541-1.998,2.945-5.872,2.916-6.044c-0.006-0.045,0-0.085,0.004-0.127l-0.844-0.703
		c-0.15-0.124-0.355-0.151-0.537-0.077c-0.178,0.077-0.297,0.246-0.312,0.44c-0.026,0.371-0.159,1.467-0.457,2.06
		c-0.313,0.626-1.545,1.445-3.301,1.844c0.519,0.046,0.979,0.22,1.373,0.538C35.781,15.246,36.096,16.121,36.238,16.748z"/>
	<path fill="#E7533C" d="M28.982,16.769c0.16-0.688,0.52-1.707,1.287-2.266c0.355-0.257,0.77-0.384,1.213-0.393
		c-1.293-0.263-2.525-0.828-2.93-1.178c-0.467-0.4-1.543-2.307-2.111-3.411c-0.08-0.159-0.236-0.264-0.414-0.278
		c-0.172-0.01-0.35,0.059-0.455,0.198c-0.004,0.008-0.289,0.375-0.623,0.791C25.055,10.843,25.9,15.074,28.982,16.769z"/>
	<path fill="#F89C21" d="M44.783,27.073c0.029,0.012,0.064,0.021,0.1,0.026c2.117,0.333,4.721-0.534,5.412-1.374
		c0.225-0.273,0.238-0.519,0.205-0.677c-0.094-0.479-2.047-9.107-2.469-10.794c-0.48-1.932-3.141-2.652-4.707-2.652
		c-0.988,0-2.455-0.178-3.094-0.261c0.018,1.559-0.402,4.978-4.185,6.658c-0.065,0.029-0.139,0.045-0.209,0.045
		c-0.094,0-0.188-0.026-0.271-0.076c-0.146-0.088-0.237-0.243-0.248-0.413c0-0.014-0.09-1.425-0.896-2.077
		c-0.043-0.037-0.092-0.061-0.139-0.09v8.864c0,0.285-0.232,0.516-0.519,0.516h-1.781c-0.287,0-0.52-0.23-0.52-0.516v-9.099
		c-0.215,0.012-0.416,0.06-0.59,0.186c-0.688,0.501-0.947,1.782-0.988,2.235c-0.014,0.163-0.105,0.309-0.248,0.395
		c-0.08,0.05-0.174,0.075-0.266,0.075c-0.066,0-0.133-0.012-0.197-0.039c-3.365-1.366-4.648-5.058-5.076-6.787
		c-0.006,0.007-0.016,0.016-0.021,0.021c-0.244,0.241-0.648,0.274-1.34,0.313c-0.227,0.011-0.463,0.025-0.715,0.052
		c-1.135,0.113-2.447,0.573-3.697,1.297c-1.375,0.807-2.145,1.622-2.486,2.647c-0.021,0.057-1.924,5.928-2.381,9.118
		c-0.025,0.176,0.041,0.351,0.176,0.466c0.783,0.668,2.285,1.01,4.471,1.01c0.85,0,1.498-0.054,1.633-0.066
		c-0.119,1.127-0.15,3.551,1.344,5.507c0.014,0.021,1.373,2.369,0.604,4.521c-0.141,0.393-0.355,0.865-0.607,1.424
		c-1.262,2.779-3.607,7.955-2.176,15.634c0.031,0.173,0.148,0.315,0.311,0.384c0.199,0.082,4.998,2.04,12.779,2.04
		c4.485,0,9.047-0.658,13.555-1.958c0.199-0.059,0.343-0.227,0.369-0.432c1.332-10.231-2.254-15.928-2.373-16.108
		c-0.485-1.005-1.539-3.887-0.627-5.163c1.715-2.405,1.613-4.879,1.606-4.923c0-0.007,0-0.016,0-0.023L44.783,27.073z"/>
</g>
</svg>
