<?xml version="1.0" encoding="utf-8"?>
<!-- Generator: Adobe Illustrator 16.0.0, SVG Export Plug-In . SVG Version: 6.00 Build 0)  -->
<!DOCTYPE svg PUBLIC "-//W3C//DTD SVG 1.1//EN" "http://www.w3.org/Graphics/SVG/1.1/DTD/svg11.dtd">
<svg version="1.1" id="Layer_1" xmlns="http://www.w3.org/2000/svg" xmlns:xlink="http://www.w3.org/1999/xlink" x="0px" y="0px"
	 width="64px" height="64px" viewBox="0 0 64 64" enable-background="new 0 0 64 64" xml:space="preserve">
<g id="Woman_x2019_s_Sweater">
	<path fill="#4285F4" d="M25.12,14.696c0.047,0.012,0.096,0.012,0.148,0.011c0.039-0.004,3.906-0.407,7.477-0.407
		c2.071,0,3.635,0.133,4.639,0.395c0.035,0.009,0.074,0.014,0.111,0.014h0.01c0.277-0.005,0.818-0.149,1.091-0.651
		c0.354-0.661,0.116-1.635-0.729-2.972l-0.371-0.595c-0.047-0.077-0.119-0.139-0.203-0.172c-1.56-0.646-3.483-0.973-5.723-0.973
		c-2.93,0-5.33,0.558-5.432,0.58c-0.066,0.018-0.133,0.052-0.189,0.099c-0.412,0.362-2.441,2.238-2.104,3.61
		C23.937,14,24.229,14.481,25.12,14.696z"/>
	<path fill="#4285F4" d="M15.382,51.641l-4.717-1.318c-0.037-0.01-0.08-0.016-0.119-0.016c-0.434,0-0.816,0.166-1.109,0.479
		c-0.803,0.868-0.689,2.633-0.676,2.833c0.012,0.142,0.092,0.27,0.213,0.342c0.1,0.061,2.463,1.451,4.582,1.451
		c0.359,0,0.699-0.041,1.006-0.121c0.092-0.023,0.17-0.076,0.23-0.146c0.154-0.188,1.488-1.884,0.873-3.261
		C15.612,51.766,15.507,51.676,15.382,51.641z"/>
	<path fill="#FBBC05" d="M41.73,28.732c3.285,14.088,4.799,19.704,5.541,21.967c0.15-0.114,0.316-0.206,0.502-0.258l4.709-1.316
		c0.131-0.038,0.267-0.057,0.404-0.057c0.033,0,0.059,0.009,0.09,0.01c-0.914-3.648-3.524-13.979-6.184-24.497
		c-1.01-3.998-1.76-6.957-1.861-7.361c-0.408-1.642-2.664-2.252-3.994-2.252c-0.391,0-0.922-0.203-1.422-0.452
		c-0.006,0.011-0.008,0.022-0.012,0.032c-0.467,0.863-1.359,1.186-2.01,1.195c-0.133,0-0.264-0.017-0.371-0.049
		c-0.633-0.164-1.906-0.36-4.379-0.36c-3.443,0-7.213,0.385-7.371,0.403L25.34,15.74l-0.031,0.001l-0.064,0.001h-0.021
		c-0.129,0-0.248-0.013-0.348-0.041c-0.787-0.19-1.271-0.549-1.578-0.922c-0.141,0.1-0.285,0.178-0.422,0.191
		c-0.963,0.097-2.074,0.488-3.137,1.102c-1.168,0.685-1.818,1.375-2.111,2.244c-0.307,0.936-5.908,24.668-7.242,30.971
		c0.055-0.004,0.105-0.018,0.16-0.018c0.139,0,0.279,0.021,0.4,0.059l4.709,1.313c0.117,0.032,0.227,0.082,0.328,0.139l5.037-22.337
		c0.15,0.798,0.461,1.661,1.055,2.439c0.014,0.02,1.164,2.01,0.512,3.835c-0.117,0.335-0.301,0.736-0.516,1.208
		c-1.068,2.358-3.057,6.749-1.844,13.26c0.025,0.146,0.125,0.269,0.262,0.324c0.094,0.038,9.4,3.801,22.34,0.069
		c0.166-0.048,0.291-0.19,0.313-0.363c1.127-8.681-1.91-13.512-2.015-13.666c-0.41-0.85-1.31-3.294-0.53-4.381
		C41.206,30.316,41.544,29.452,41.73,28.732z"/>
	<path fill="#4285F4" d="M53.999,50.583c-0.291-0.313-0.674-0.479-1.11-0.479c-0.041,0-0.078,0.006-0.117,0.017l-4.715,1.317
		c-0.127,0.033-0.23,0.125-0.283,0.244c-0.617,1.377,0.717,3.07,0.873,3.26c0.059,0.072,0.139,0.123,0.229,0.146
		c0.309,0.082,0.646,0.123,1.01,0.123c2.117,0,4.48-1.392,4.578-1.451c0.123-0.073,0.201-0.2,0.215-0.343
		C54.689,53.217,54.802,51.453,53.999,50.583z"/>
</g>
</svg>
