<?xml version="1.0" encoding="utf-8"?>
<!-- Generator: Adobe Illustrator 16.0.0, SVG Export Plug-In . SVG Version: 6.00 Build 0)  -->
<!DOCTYPE svg PUBLIC "-//W3C//DTD SVG 1.1//EN" "http://www.w3.org/Graphics/SVG/1.1/DTD/svg11.dtd">
<svg version="1.1" id="Layer_1" xmlns="http://www.w3.org/2000/svg" xmlns:xlink="http://www.w3.org/1999/xlink" x="0px" y="0px"
	 width="64px" height="64px" viewBox="0 0 64 64" enable-background="new 0 0 64 64" xml:space="preserve">
<g id="Women_x2019_s_Short">
	<path fill="#B5B5B5" d="M54.855,46.2l-2.653-12.507l-4.416-13.231c-3.841,2.1-11.213,2.651-14.619,2.795
		c-0.086,0.041-0.168,0.084-0.26,0.12c0.401,0.873,0.555,2.193,0.715,3.585c0.086,0.746,0.265,2.282,0.446,2.485
		c0.252,0.276,0.236,0.707-0.034,0.959c-0.257,0.245-0.703,0.238-0.951-0.023c-0.474-0.492-0.611-1.507-0.811-3.258
		c-0.324-2.781-0.586-3.344-0.717-3.425c-0.004,0.001-0.01,0.002-0.016,0.004c-0.029,0.005-0.055,0.01-0.086,0.012
		c-0.182,0.013-0.422,0.084-0.652,0.525c-0.807,1.535-0.295,5.352-0.01,5.907c0.113,0.118,0.174,0.27,0.174,0.429
		c0,0.179-0.072,0.353-0.209,0.489c-0.125,0.122-0.289,0.188-0.467,0.188h-0.006c-0.189,0-0.377-0.078-0.512-0.214
		c-0.678-0.676-1.141-4.911-0.373-6.981c0.105-0.291,0.242-0.543,0.402-0.771c-8.092-0.197-12.123-1.889-13.65-2.737l-4.4,13.2
		L9.112,46.2c-0.059,0.269,0.105,0.534,0.371,0.604l8.715,2.344c0.043,0.014,0.084,0.019,0.129,0.02l11.236,0.126
		c0.004,0,0.004,0,0.006,0c0.246,0,0.457-0.172,0.506-0.416l1.908-9.464l1.908,9.464c0.049,0.243,0.262,0.416,0.51,0.416
		c0.002,0,0.007,0,0.009,0l11.172-0.192c0.039,0,0.078-0.006,0.117-0.016l8.782-2.279C54.749,46.739,54.915,46.471,54.855,46.2z"/>
	<g>
		<path fill="#8E8E8E" d="M29.692,20.262c-0.076-0.028-0.26-0.031-0.465,0.086c0.07,0.492,0.311,1.202,1.068,1.629
			c0.135,0.002,0.275,0.003,0.414,0.004C30.468,21.187,30.089,20.409,29.692,20.262z"/>
		<path fill="#8E8E8E" d="M47.445,15.795c-0.112-0.098-0.264-0.139-0.416-0.118c-6.428,1.02-12.313,1.535-17.489,1.535h-0.002
			c-8.719,0-12.449-1.487-12.484-1.5c-0.16-0.068-0.342-0.049-0.484,0.047c-0.143,0.097-0.23,0.257-0.23,0.43v2.917
			c0.508,0.348,3.826,2.393,12.043,2.807c-0.412-0.689-0.549-1.427-0.537-1.919c0.006-0.196,0.098-0.381,0.25-0.507
			c0.695-0.571,1.424-0.743,2.072-0.501c0.354,0.132,0.672,0.388,0.969,0.777c0.35-0.535,0.771-0.903,1.25-1.096
			c0.707-0.285,1.488-0.18,2.296,0.313c0.166,0.1,0.281,0.269,0.314,0.461c0.01,0.057,0.223,1.268-0.361,2.41
			c3.863-0.247,10.125-0.934,12.992-2.845v-2.817C47.628,16.037,47.563,15.894,47.445,15.795z"/>
		<path fill="#8E8E8E" d="M33.238,21.527c0.396-0.505,0.451-1.147,0.443-1.54c-0.303-0.13-0.559-0.15-0.787-0.06
			c-0.453,0.181-0.813,0.815-0.994,1.324c0.098,0.28,0.166,0.524,0.217,0.719c0.186-0.006,0.401-0.013,0.644-0.023
			C32.95,21.83,33.111,21.691,33.238,21.527z"/>
	</g>
</g>
</svg>
