<?xml version="1.0" encoding="iso-8859-1"?>
<!-- Generator: Adobe Illustrator 19.0.0, SVG Export Plug-In . SVG Version: 6.00 Build 0)  -->
<svg version="1.1" id="Layer_1" xmlns="http://www.w3.org/2000/svg" xmlns:xlink="http://www.w3.org/1999/xlink" x="0px" y="0px"
	 viewBox="0 0 485 485" style="enable-background:new 0 0 485 485;" xml:space="preserve">
<g>
	<path d="M320.823,76.385V0H164.177v76.385C122.12,103.104,96.33,149.611,96.33,199.806V485h292.34V199.806
		C388.67,149.611,362.88,103.104,320.823,76.385z M290.823,30v40h-96.646V30H290.823z M183.005,100h118.99
		c30.73,18.348,51.132,49.735,55.7,84.806h-230.39C131.873,149.735,152.275,118.348,183.005,100z M358.67,214.806V385H126.33
		V214.806H358.67z M126.33,455v-40h232.34v40H126.33z"/>
	<polygon points="180.839,314.903 227.5,314.903 227.5,361.564 257.5,361.564 257.5,314.903 304.161,314.903 304.161,284.903 
		257.5,284.903 257.5,238.241 227.5,238.241 227.5,284.903 180.839,284.903 	"/>
</g>
<g>
</g>
<g>
</g>
<g>
</g>
<g>
</g>
<g>
</g>
<g>
</g>
<g>
</g>
<g>
</g>
<g>
</g>
<g>
</g>
<g>
</g>
<g>
</g>
<g>
</g>
<g>
</g>
<g>
</g>
</svg>
