<?xml version="1.0" encoding="iso-8859-1"?>
<!-- Generator: Adobe Illustrator 19.0.0, SVG Export Plug-In . SVG Version: 6.00 Build 0)  -->
<svg version="1.1" id="Layer_1" xmlns="http://www.w3.org/2000/svg" xmlns:xlink="http://www.w3.org/1999/xlink" x="0px" y="0px"
	 viewBox="0 0 495.021 495.021" style="enable-background:new 0 0 495.021 495.021;" xml:space="preserve">
<g>
	<path d="M495.021,191.213l-75-129.904l-97.511,56.298V5.011h-150v112.596L75,61.309L0,191.213l97.511,56.298L0,303.809l75,129.904
		l97.511-56.298v112.596h150V377.415l97.511,56.298l75-129.904l-97.511-56.298L495.021,191.213z M454.041,314.789l-45,77.943
		l-116.53-67.278v134.557h-90V325.454L85.98,392.732l-45-77.943l116.53-67.278L40.98,180.232l45-77.943l116.53,67.278V35.011h90
		v134.557l116.53-67.278l45,77.943l-116.53,67.278L454.041,314.789z"/>
</g>
<g>
</g>
<g>
</g>
<g>
</g>
<g>
</g>
<g>
</g>
<g>
</g>
<g>
</g>
<g>
</g>
<g>
</g>
<g>
</g>
<g>
</g>
<g>
</g>
<g>
</g>
<g>
</g>
<g>
</g>
</svg>
