<?xml version="1.0" encoding="iso-8859-1"?>
<!-- Generator: Adobe Illustrator 19.0.0, SVG Export Plug-In . SVG Version: 6.00 Build 0)  -->
<svg version="1.1" id="Layer_1" xmlns="http://www.w3.org/2000/svg" xmlns:xlink="http://www.w3.org/1999/xlink" x="0px" y="0px"
	 viewBox="0 0 485 485" style="enable-background:new 0 0 485 485;" xml:space="preserve">
<g>
	<path d="M157.729,207.729c27.57,0,50-22.43,50-50s-22.43-50-50-50s-50,22.43-50,50S130.159,207.729,157.729,207.729z
		 M157.729,137.729c11.028,0,20,8.972,20,20s-8.972,20-20,20s-20-8.972-20-20S146.701,137.729,157.729,137.729z"/>
	<path d="M485,0H157.729C70.757,0,0,70.757,0,157.729c0,0.214,0.007,0.427,0.008,0.641C0,158.369,0,327.271,0,327.271
		C0,414.243,70.757,485,157.729,485c81.912,0,149.431-62.767,157.011-142.729H485V0z M157.729,30
		c70.43,0,127.729,57.299,127.729,127.729c0,70.431-57.299,127.729-127.729,127.729C87.299,285.458,30,228.159,30,157.729
		C30,87.299,87.299,30,157.729,30z M157.729,455C87.299,455,30,397.701,30,327.271v-77.116
		c28.689,39.538,75.253,65.303,127.729,65.303c52.475,0,99.039-25.765,127.729-65.303v77.116
		C285.458,397.701,228.159,455,157.729,455z M455,312.271H315.458V158.369c-0.007-0.214,0-0.426,0-0.641
		c0-52.476-25.765-99.039-65.302-127.729H455V312.271z"/>
</g>
<g>
</g>
<g>
</g>
<g>
</g>
<g>
</g>
<g>
</g>
<g>
</g>
<g>
</g>
<g>
</g>
<g>
</g>
<g>
</g>
<g>
</g>
<g>
</g>
<g>
</g>
<g>
</g>
<g>
</g>
</svg>
