<?xml version="1.0" encoding="iso-8859-1"?>
<!-- Generator: Adobe Illustrator 19.0.0, SVG Export Plug-In . SVG Version: 6.00 Build 0)  -->
<svg version="1.1" id="Layer_1" xmlns="http://www.w3.org/2000/svg" xmlns:xlink="http://www.w3.org/1999/xlink" x="0px" y="0px"
	 viewBox="0 0 485 485" style="enable-background:new 0 0 485 485;" xml:space="preserve">
<g>
	<path d="M426.839,67.758h-9.597v-9.597c0-15.536-6.05-30.142-17.035-41.127S374.616-0.001,359.081,0
		c-32.07,0-58.162,26.091-58.162,58.161l0.001,30.72L88.88,300.92l-30.719-0.001c-15.536,0-30.141,6.05-41.126,17.036
		C6.049,328.94,0,343.546,0,359.081c0,15.535,6.049,30.141,17.034,41.126c10.985,10.985,25.591,17.035,41.126,17.035h9.597v9.597
		c0,15.535,6.049,30.142,17.035,41.127C95.778,478.95,110.384,485,125.919,485c15.536,0,30.141-6.05,41.126-17.034
		c10.985-10.985,17.035-25.592,17.035-41.127l0-30.72l212.04-212.039h30.719c15.538,0,30.143-6.05,41.128-17.034
		C478.95,156.061,485,141.455,485,125.919C485,93.849,458.909,67.758,426.839,67.758z M446.752,145.833
		c-5.318,5.318-12.391,8.247-19.913,8.247h-43.146L154.08,383.693l0,43.146c0,7.521-2.929,14.594-8.248,19.912
		c-5.319,5.318-12.391,8.248-19.914,8.248s-14.594-2.93-19.913-8.248c-5.319-5.319-8.248-12.391-8.248-19.913v-39.597H58.161
		c-7.522,0-14.594-2.93-19.913-8.248C32.929,373.675,30,366.604,30,359.081s2.929-14.595,8.248-19.913
		c5.319-5.319,12.391-8.249,19.913-8.249l43.146,0.001L330.92,101.307l-0.001-43.146c0-15.528,12.634-28.161,28.163-28.161
		c7.521,0,14.593,2.929,19.912,8.248c5.318,5.318,8.248,12.391,8.248,19.913v39.597h39.597c15.528,0,28.161,12.633,28.161,28.161
		C455,133.441,452.07,140.514,446.752,145.833z"/>
</g>
<g>
</g>
<g>
</g>
<g>
</g>
<g>
</g>
<g>
</g>
<g>
</g>
<g>
</g>
<g>
</g>
<g>
</g>
<g>
</g>
<g>
</g>
<g>
</g>
<g>
</g>
<g>
</g>
<g>
</g>
</svg>
