<?xml version="1.0" encoding="iso-8859-1"?>
<!-- Generator: Adobe Illustrator 19.0.0, SVG Export Plug-In . SVG Version: 6.00 Build 0)  -->
<svg version="1.1" id="Layer_1" xmlns="http://www.w3.org/2000/svg" xmlns:xlink="http://www.w3.org/1999/xlink" x="0px" y="0px"
	 viewBox="0 0 485 485" style="enable-background:new 0 0 485 485;" xml:space="preserve">
<g>
	<path d="M328.127,0C296.59,0,266.675,10.659,242.5,30.274C218.326,10.659,188.411,0,156.874,0
		C81.754,0,20.639,61.114,20.639,136.234c0,56.007,65.984,287.321,69.81,300.684C97.051,463.462,124.918,485,152.748,485h53.438
		V361.067c0-20.023,16.291-36.314,36.314-36.314c20.023,0,36.314,16.291,36.314,36.314V485h53.656
		c27.711,0,55.48-21.539,62.08-48.083c3.833-13.386,69.81-244.621,69.81-300.683C464.361,61.114,403.246,0,328.127,0z
		 M365.633,428.929l-0.161,0.611c-3.22,13.325-18.949,25.46-33.001,25.46h-23.656v-93.933c0-36.565-29.749-66.314-66.314-66.314
		c-36.566,0-66.314,29.749-66.314,66.314V455h-23.438c-14.167,0-30-12.136-33.22-25.46l-0.161-0.61
		c-19.116-66.701-68.728-249.311-68.728-292.695C50.639,77.656,98.296,30,156.874,30c28.321,0,54.968,11.028,75.03,31.052
		L242.5,71.629l10.597-10.576C273.159,41.028,299.806,30,328.127,30c58.577,0,106.233,47.656,106.233,106.234
		C434.361,179.66,384.749,362.242,365.633,428.929z"/>
</g>
<g>
</g>
<g>
</g>
<g>
</g>
<g>
</g>
<g>
</g>
<g>
</g>
<g>
</g>
<g>
</g>
<g>
</g>
<g>
</g>
<g>
</g>
<g>
</g>
<g>
</g>
<g>
</g>
<g>
</g>
</svg>
