<?xml version="1.0" encoding="iso-8859-1"?>
<!-- Generator: Adobe Illustrator 19.0.0, SVG Export Plug-In . SVG Version: 6.00 Build 0)  -->
<svg version="1.1" id="Layer_1" xmlns="http://www.w3.org/2000/svg" xmlns:xlink="http://www.w3.org/1999/xlink" x="0px" y="0px"
	 viewBox="0 0 495 495" style="enable-background:new 0 0 495 495;" xml:space="preserve">
<g>
	<path d="M272.013,247.5C348.628,187.906,422.889,122.919,422.889,0h-30c0,18.932-1.998,36.308-5.667,52.413H107.778
		c-3.669-16.104-5.667-33.481-5.667-52.413h-30c0,122.919,74.26,187.906,150.875,247.5C146.372,307.094,72.111,372.081,72.111,495
		h30c0-19.524,2.122-37.396,6.014-53.921h278.75c3.892,16.525,6.014,34.397,6.014,53.921h30
		C422.889,372.081,348.628,307.094,272.013,247.5z M314.036,322.159H180.964c20.328-19.551,43.117-37.585,66.536-55.706
		C270.919,284.574,293.708,302.608,314.036,322.159z M247.5,228.547c-23.425-18.125-46.22-36.165-66.553-55.722h133.105
		C293.72,192.382,270.925,210.421,247.5,228.547z M377.966,82.413c-8.855,22.447-21.242,42.259-36.046,60.413H153.08
		c-14.804-18.154-27.191-37.966-36.046-60.413H377.966z M117.64,411.079c8.813-21.833,20.976-41.17,35.453-58.92h188.813
		c14.477,17.75,26.64,37.087,35.453,58.92H117.64z"/>
</g>
<g>
</g>
<g>
</g>
<g>
</g>
<g>
</g>
<g>
</g>
<g>
</g>
<g>
</g>
<g>
</g>
<g>
</g>
<g>
</g>
<g>
</g>
<g>
</g>
<g>
</g>
<g>
</g>
<g>
</g>
</svg>
