<?xml version="1.0" encoding="iso-8859-1"?>
<!-- Generator: Adobe Illustrator 19.0.0, SVG Export Plug-In . SVG Version: 6.00 Build 0)  -->
<svg version="1.1" id="Layer_1" xmlns="http://www.w3.org/2000/svg" xmlns:xlink="http://www.w3.org/1999/xlink" x="0px" y="0px"
	 viewBox="0 0 486.188 486.188" style="enable-background:new 0 0 486.188 486.188;" xml:space="preserve">
<g>
	<path d="M145.835,180.741c0,53.629,43.63,97.259,97.259,97.259s97.259-43.63,97.259-97.259c0-28.157-11.972-54.389-32.628-72.702
		c5.566-10.333,8.732-22.14,8.732-34.676C316.458,32.911,283.547,0,243.094,0s-73.363,32.911-73.363,73.363
		c0,12.536,3.166,24.343,8.732,34.676C157.807,126.352,145.835,152.584,145.835,180.741z M243.094,30
		c23.911,0,43.363,19.453,43.363,43.363s-19.453,43.363-43.363,43.363s-43.363-19.453-43.363-43.363S219.184,30,243.094,30z
		 M197.8,131.01c12.483,9.83,28.209,15.716,45.294,15.716s32.811-5.887,45.294-15.716c13.914,12.642,21.965,30.539,21.965,49.73
		c0,37.087-30.172,67.259-67.259,67.259s-67.259-30.172-67.259-67.259C175.835,161.549,183.886,143.652,197.8,131.01z"/>
	<path d="M243.094,307.188c-90.43,0-164,73.57-164,164v15h328v-15C407.094,380.759,333.524,307.188,243.094,307.188z
		 M228.094,456.188H109.928c4.63-41.386,28.19-77.127,61.79-98.359l56.376,56.376V456.188z M200.46,344.145
		c13.399-4.508,27.736-6.956,42.635-6.956s29.236,2.448,42.635,6.956l-42.635,42.634L200.46,344.145z M258.094,456.188v-41.983
		l56.376-56.376c33.601,21.231,57.161,56.973,61.79,98.359H258.094z"/>
</g>
<g>
</g>
<g>
</g>
<g>
</g>
<g>
</g>
<g>
</g>
<g>
</g>
<g>
</g>
<g>
</g>
<g>
</g>
<g>
</g>
<g>
</g>
<g>
</g>
<g>
</g>
<g>
</g>
<g>
</g>
</svg>
