<?xml version="1.0" encoding="iso-8859-1"?>
<!-- Generator: Adobe Illustrator 19.0.0, SVG Export Plug-In . SVG Version: 6.00 Build 0)  -->
<svg version="1.1" id="Layer_1" xmlns="http://www.w3.org/2000/svg" xmlns:xlink="http://www.w3.org/1999/xlink" x="0px" y="0px"
	 viewBox="0 0 485 485" style="enable-background:new 0 0 485 485;" xml:space="preserve">
<g>
	<path d="M416.306,139.848v-26.765h21.59V0H47.104v113.083h21.59v26.765l-31.436,20V485h410.482V159.848L416.306,139.848z
		 M407.896,83.083h-60.161V30h60.161V83.083z M167.412,83.083V30h60.161v53.083H167.412z M257.573,30h60.161v53.083h-60.161V30z
		 M77.104,30h60.308v53.083H77.104V30z M98.694,156.319v-43.235h287.611v43.235l31.436,20v36.765H67.259v-36.765L98.694,156.319z
		 M417.741,243.083V385H67.259V243.083H417.741z M67.259,455v-40h350.482v40H67.259z"/>
	<path d="M214.561,355h55.878c22.585,0,40.959-18.374,40.959-40.958s-18.374-40.958-40.959-40.958h-55.878
		c-22.584,0-40.958,18.374-40.958,40.958S191.977,355,214.561,355z M214.561,303.083h55.878c6.043,0,10.959,4.916,10.959,10.958
		S276.481,325,270.438,325h-55.878c-6.042,0-10.958-4.916-10.958-10.958S208.519,303.083,214.561,303.083z"/>
</g>
<g>
</g>
<g>
</g>
<g>
</g>
<g>
</g>
<g>
</g>
<g>
</g>
<g>
</g>
<g>
</g>
<g>
</g>
<g>
</g>
<g>
</g>
<g>
</g>
<g>
</g>
<g>
</g>
<g>
</g>
</svg>
