<?xml version="1.0" encoding="iso-8859-1"?>
<!-- Generator: Adobe Illustrator 19.0.0, SVG Export Plug-In . SVG Version: 6.00 Build 0)  -->
<svg version="1.1" id="Layer_1" xmlns="http://www.w3.org/2000/svg" xmlns:xlink="http://www.w3.org/1999/xlink" x="0px" y="0px"
	 viewBox="0 0 480 480" style="enable-background:new 0 0 480 480;" xml:space="preserve">
<g>
	<polygon points="356.499,76.838 326.499,76.838 326.499,123.5 279.837,123.5 279.837,153.5 326.499,153.5 326.499,200.161 
		356.499,200.161 356.499,153.5 403.16,153.5 403.16,123.5 356.499,123.5 	"/>
	<path d="M341.499,0c-76.369,0-138.5,62.131-138.5,138.5c0,25.459,6.879,50.075,19.965,71.662l-23.437,70.31l70.311-23.437
		C291.423,270.12,316.039,277,341.499,277c76.369,0,138.5-62.131,138.5-138.5S417.868,0,341.499,0z M341.499,247
		c-21.943,0-43.08-6.519-61.127-18.852l-6.145-4.199l-27.265,9.088l9.088-27.264l-4.199-6.146
		c-12.333-18.048-18.852-39.186-18.852-61.128c0-59.827,48.673-108.5,108.5-108.5s108.5,48.673,108.5,108.5S401.326,247,341.499,247
		z"/>
	<path d="M244.13,349.602L130.398,235.868l33.726-33.725L58.78,96.8l-10.588,9.741c-4.571,4.205-44.753,42.074-47.91,76.323
		c-2.625,28.499,13.721,63.348,27.897,87.563c19.459,33.241,47.179,68.246,80.163,101.23C174.158,437.474,245.784,480,290.816,480
		c2.154,0,4.279-0.095,6.319-0.283c34.248-3.158,72.117-43.339,76.322-47.91l9.741-10.588L277.856,315.876L244.13,349.602z
		 M294.382,449.844c-1.127,0.104-2.327,0.156-3.565,0.156c-36.331,0-102.645-40.938-161.262-99.555
		c-68.88-68.881-102.142-135.058-99.399-164.828c1.24-13.447,15.422-32.807,28.233-46.782l63.308,63.309l-33.726,33.725
		L244.13,392.027l33.726-33.726l63.279,63.279C328.415,433.222,308.752,448.519,294.382,449.844z"/>
</g>
<g>
</g>
<g>
</g>
<g>
</g>
<g>
</g>
<g>
</g>
<g>
</g>
<g>
</g>
<g>
</g>
<g>
</g>
<g>
</g>
<g>
</g>
<g>
</g>
<g>
</g>
<g>
</g>
<g>
</g>
</svg>
