<?xml version="1.0" encoding="iso-8859-1"?>
<!-- Generator: Adobe Illustrator 19.0.0, SVG Export Plug-In . SVG Version: 6.00 Build 0)  -->
<svg version="1.1" id="Layer_1" xmlns="http://www.w3.org/2000/svg" xmlns:xlink="http://www.w3.org/1999/xlink" x="0px" y="0px"
	 viewBox="0 0 486.479 486.479" style="enable-background:new 0 0 486.479 486.479;" xml:space="preserve">
<g>
	<path d="M485.74,140.421C485.74,62.993,422.747,0,345.319,0c-38.781,0-75.729,16.175-102.079,44.013
		C216.89,16.175,179.942,0,141.16,0C63.732,0,0.74,62.993,0.74,140.421c0,32.323,11.254,63.88,31.698,88.869L243.24,486.479
		l74.732-91.176h98.658v-69.111h69.111V205.555h-16.037C480.148,185.577,485.74,163.191,485.74,140.421z M55.648,210.283
		c-16.063-19.634-24.909-44.444-24.909-69.862C30.74,79.535,80.274,30,141.16,30c35.558,0,69.158,17.295,89.879,46.265l12.2,17.057
		l12.2-17.057C276.161,47.295,309.76,30,345.319,30c60.886,0,110.421,49.535,110.421,110.421c0,23.426-7.53,46.325-21.276,65.134
		h-17.835v-69.111H295.991v69.111h-69.111v120.637h69.111v48.602l-52.752,64.36L55.648,210.283z M455.74,296.192h-69.111v69.111
		h-60.637v-69.111h-69.111v-60.637h69.111v-69.111h60.637v69.111h69.111V296.192z"/>
</g>
<g>
</g>
<g>
</g>
<g>
</g>
<g>
</g>
<g>
</g>
<g>
</g>
<g>
</g>
<g>
</g>
<g>
</g>
<g>
</g>
<g>
</g>
<g>
</g>
<g>
</g>
<g>
</g>
<g>
</g>
</svg>
