<?xml version="1.0" encoding="iso-8859-1"?>
<!-- Generator: Adobe Illustrator 19.0.0, SVG Export Plug-In . SVG Version: 6.00 Build 0)  -->
<svg version="1.1" id="Layer_1" xmlns="http://www.w3.org/2000/svg" xmlns:xlink="http://www.w3.org/1999/xlink" x="0px" y="0px"
	 viewBox="0 0 485.044 485.044" style="enable-background:new 0 0 485.044 485.044;" xml:space="preserve">
<g>
	<path d="M485.044,215.295c0-34.584-22.32-64.035-53.305-74.756c-12.948-38.434-41.418-69.018-79.196-84.666
		c-38.611-15.994-81.677-13.805-117.945,4.907V5.557h-30V60.78c-36.267-18.712-79.332-20.9-117.944-4.907
		c-34.609,14.336-61.565,41.291-75.901,75.901c-14.335,34.609-14.336,72.73,0,107.34l76.863,185.563
		c14.136,34.127,47.241,54.764,82.069,54.761c11.291-0.001,22.769-2.171,33.832-6.753c5.683-2.354,11.061-5.26,16.081-8.685
		c5.022,3.425,10.399,6.33,16.083,8.685c10.946,4.534,22.444,6.801,33.946,6.801c11.499-0.001,23.003-2.268,33.946-6.801
		c21.891-9.067,38.94-26.117,48.008-48.008l15.305-36.95l100.305-122.377C478.704,251.28,485.044,233.502,485.044,215.295z
		 M323.864,413.198c-6.001,14.487-17.284,25.771-31.771,31.771c-14.484,6.002-30.442,6.003-44.931,0
		c-6.453-2.673-12.302-6.409-17.386-11.105l-10.18-9.404l-10.179,9.405c-5.082,4.695-10.931,8.432-17.383,11.104
		c-14.487,6.002-30.446,6.001-44.932,0c-14.487-6.001-25.771-17.284-31.771-31.771L38.468,227.634
		c-11.27-27.206-11.27-57.173,0-84.379c11.27-27.207,32.459-48.396,59.665-59.665c37.544-15.55,80.454-9.232,111.98,16.493
		l9.483,7.737l9.482-7.737c31.53-25.725,74.441-32.042,111.982-16.493c25.118,10.404,44.998,29.214,56.694,53.053
		c-16.334,1.712-31.716,8.478-43.977,19.217c-14.295-12.52-32.827-19.661-52.169-19.661c-43.614,0-79.097,35.482-79.097,79.097
		c0,18.207,6.34,35.984,17.861,50.066l96.14,117.294L323.864,413.198z M443.981,246.344l-90.202,110.051l-90.194-110.04
		c-7.243-8.854-11.071-19.594-11.071-31.06c0-27.072,22.024-49.097,49.097-49.097c15.812,0,30.753,7.692,39.969,20.576
		l12.201,17.057l12.199-17.057c9.215-12.885,24.156-20.576,39.968-20.576c27.072,0,49.097,22.024,49.097,49.097
		C455.044,226.761,451.215,237.501,443.981,246.344z"/>
</g>
<g>
</g>
<g>
</g>
<g>
</g>
<g>
</g>
<g>
</g>
<g>
</g>
<g>
</g>
<g>
</g>
<g>
</g>
<g>
</g>
<g>
</g>
<g>
</g>
<g>
</g>
<g>
</g>
<g>
</g>
</svg>
