<?xml version="1.0" encoding="iso-8859-1"?>
<!-- Generator: Adobe Illustrator 19.0.0, SVG Export Plug-In . SVG Version: 6.00 Build 0)  -->
<svg version="1.1" id="Layer_1" xmlns="http://www.w3.org/2000/svg" xmlns:xlink="http://www.w3.org/1999/xlink" x="0px" y="0px"
	 viewBox="0 0 485 485" style="enable-background:new 0 0 485 485;" xml:space="preserve">
<g>
	<path d="M460.687,274.096c0-27.887-19.135-51.388-44.965-58.065v-17.495c0-53.821-43.786-97.607-97.607-97.607h-16.647V0H183.533
		v205.357H227.5v25.786h30v-25.786h43.967v-74.429h16.647c37.279,0,67.607,30.328,67.607,67.607v17.495
		c-21.033,5.437-37.627,22.031-43.064,43.064H154.665v30h104.827v32.952h-35v30h35V385H109.313c-46.869,0-85,38.131-85,85v15
		h391.408V332.161C441.551,325.484,460.687,301.982,460.687,274.096z M271.467,175.357h-57.935V30h57.935V175.357z M385.722,455
		H56.392c6.545-23.061,27.792-40,52.921-40h276.408V455z M289.491,385v-95.904h53.166c5.437,21.034,22.031,37.627,43.064,43.065V385
		H289.491z M400.722,304.061c-16.522,0-29.964-13.442-29.964-29.965s13.442-29.965,29.964-29.965s29.965,13.442,29.965,29.965
		S417.244,304.061,400.722,304.061z"/>
</g>
<g>
</g>
<g>
</g>
<g>
</g>
<g>
</g>
<g>
</g>
<g>
</g>
<g>
</g>
<g>
</g>
<g>
</g>
<g>
</g>
<g>
</g>
<g>
</g>
<g>
</g>
<g>
</g>
<g>
</g>
</svg>
