<?xml version="1.0" encoding="iso-8859-1"?>
<!-- Generator: Adobe Illustrator 19.0.0, SVG Export Plug-In . SVG Version: 6.00 Build 0)  -->
<svg version="1.1" id="Layer_1" xmlns="http://www.w3.org/2000/svg" xmlns:xlink="http://www.w3.org/1999/xlink" x="0px" y="0px"
	 viewBox="0 0 485.437 485.437" style="enable-background:new 0 0 485.437 485.437;" xml:space="preserve">
<g>
	<path d="M145.052,180.77v82.667h30v-12.309c17.567,16.901,41.423,27.309,67.667,27.309c26.244,0,50.1-10.408,67.667-27.309v12.309
		h30V180.77c0-20.15-6.135-38.894-16.633-54.463l21.745-101.332L242.718,0L139.939,24.975l21.745,101.333
		C151.187,141.877,145.052,160.62,145.052,180.77z M298.827,142.984H186.61c12.171-18.014,32.779-29.881,56.108-29.881
		S286.656,124.97,298.827,142.984z M242.718,248.437c-37.312,0-67.667-30.355-67.667-67.667c0-2.634,0.167-5.229,0.462-7.786h134.41
		c0.294,2.557,0.462,5.151,0.462,7.786C310.385,218.082,280.03,248.437,242.718,248.437z M242.718,30.873l67.319,16.358
		l-11.472,53.461c-15.838-11.079-35.095-17.59-55.847-17.59c-20.752,0-40.01,6.511-55.848,17.59l-11.472-53.462L242.718,30.873z"/>
	<path d="M242.718,306.437c-90.43,0-164,73.57-164,164v15h328v-15C406.718,380.007,333.148,306.437,242.718,306.437z
		 M286.263,343.703l-43.545,43.545l-43.545-43.545c13.659-4.706,28.308-7.267,43.545-7.267S272.604,338.997,286.263,343.703z
		 M170.596,357.552l57.122,57.123v40.761H109.552C114.148,414.358,137.393,378.839,170.596,357.552z M257.718,455.437v-40.761
		l57.122-57.123c33.203,21.287,56.449,56.806,61.044,97.884H257.718z"/>
</g>
<g>
</g>
<g>
</g>
<g>
</g>
<g>
</g>
<g>
</g>
<g>
</g>
<g>
</g>
<g>
</g>
<g>
</g>
<g>
</g>
<g>
</g>
<g>
</g>
<g>
</g>
<g>
</g>
<g>
</g>
</svg>
