<?xml version="1.0" encoding="iso-8859-1"?>
<!-- Generator: Adobe Illustrator 19.0.0, SVG Export Plug-In . SVG Version: 6.00 Build 0)  -->
<svg version="1.1" id="Layer_1" xmlns="http://www.w3.org/2000/svg" xmlns:xlink="http://www.w3.org/1999/xlink" x="0px" y="0px"
	 viewBox="0 0 485 485" style="enable-background:new 0 0 485 485;" xml:space="preserve">
<g>
	<path d="M442.77,42.23C415.537,14.998,379.329,0,340.816,0s-74.721,14.998-101.953,42.23L42.23,238.863
		c-56.218,56.217-56.218,147.689,0,203.906C69.463,470.002,105.671,485,144.184,485s74.721-14.998,101.953-42.23L442.77,246.137
		C498.987,189.92,498.987,98.447,442.77,42.23z M224.924,421.557C203.357,443.123,174.684,455,144.184,455
		s-59.174-11.877-80.74-33.443S30,371.316,30,340.816s11.877-59.174,33.443-80.74l87.71-87.71l161.48,161.48L224.924,421.557z
		 M421.557,224.924l-87.71,87.71l-161.48-161.48l87.71-87.71C281.643,41.877,310.316,30,340.816,30s59.174,11.877,80.74,33.443
		S455,113.684,455,144.184S443.123,203.357,421.557,224.924z"/>
</g>
<g>
</g>
<g>
</g>
<g>
</g>
<g>
</g>
<g>
</g>
<g>
</g>
<g>
</g>
<g>
</g>
<g>
</g>
<g>
</g>
<g>
</g>
<g>
</g>
<g>
</g>
<g>
</g>
<g>
</g>
</svg>
