<?xml version="1.0" encoding="iso-8859-1"?>
<!-- Generator: Adobe Illustrator 19.0.0, SVG Export Plug-In . SVG Version: 6.00 Build 0)  -->
<svg version="1.1" id="Capa_1" xmlns="http://www.w3.org/2000/svg" xmlns:xlink="http://www.w3.org/1999/xlink" x="0px" y="0px"
	 viewBox="0 0 485 485" style="enable-background:new 0 0 485 485;" xml:space="preserve">
<g>
	<path d="M448.787,36.213C425.435,12.861,394.387,0,361.362,0s-64.073,12.861-87.426,36.213L36.213,273.937
		c-48.207,48.207-48.207,126.644,0,174.851C59.565,472.139,90.613,485,123.638,485s64.073-12.861,87.425-36.213l237.724-237.724
		C496.994,162.857,496.994,84.419,448.787,36.213z M215.811,136.764l132.425,132.425l-79.046,79.046L136.764,215.811
		L215.811,136.764z M189.85,427.574C172.164,445.26,148.65,455,123.638,455s-48.526-9.74-66.212-27.426
		c-36.509-36.51-36.509-95.915,0-132.425l58.126-58.126l132.425,132.425L189.85,427.574z M427.574,189.851l-58.126,58.126
		L237.023,115.552l58.126-58.126C312.836,39.74,336.35,30,361.362,30s48.526,9.74,66.212,27.426
		C464.084,93.936,464.084,153.341,427.574,189.851z"/>
	<path d="M112.015,339.557l-21.213-21.213l28.284-28.284l21.213,21.213L112.015,339.557z M145.442,372.982l28.284-28.284
		l21.213,21.213l-28.284,28.284L145.442,372.982z M92.779,413.435l-21.213-21.213l28.284-28.284l21.213,21.213L92.779,413.435z
		 M385.149,121.068l-21.213-21.213l28.284-28.284l21.213,21.213L385.149,121.068z M311.272,140.303l-21.213-21.213l28.284-28.284
		l21.213,21.213L311.272,140.303z M365.914,194.946l-21.213-21.213l28.284-28.284l21.213,21.213L365.914,194.946z"/>
</g>
<g>
</g>
<g>
</g>
<g>
</g>
<g>
</g>
<g>
</g>
<g>
</g>
<g>
</g>
<g>
</g>
<g>
</g>
<g>
</g>
<g>
</g>
<g>
</g>
<g>
</g>
<g>
</g>
<g>
</g>
</svg>
