<?xml version="1.0" encoding="iso-8859-1"?>
<!-- Generator: Adobe Illustrator 19.0.0, SVG Export Plug-In . SVG Version: 6.00 Build 0)  -->
<svg version="1.1" id="Layer_1" xmlns="http://www.w3.org/2000/svg" xmlns:xlink="http://www.w3.org/1999/xlink" x="0px" y="0px"
	 viewBox="0 0 485.967 485.967" style="enable-background:new 0 0 485.967 485.967;" xml:space="preserve">
<g>
	<path d="M309.07,258.341l35.971-44.396c18.865-23.282,29.255-52.629,29.255-82.633C374.295,58.906,315.389,0,242.983,0
		S111.67,58.906,111.67,131.313c0,30.004,10.39,59.35,29.255,82.633l35.971,44.396L44.847,421.317l51.412,18.113l28.381,46.536
		l118.343-146.061l118.344,146.061l28.381-46.536l51.412-18.113L309.07,258.341z M128.106,434.033l-11.8-19.347l-21.375-7.531
		l101.27-124.987l27.475,33.91L128.106,434.033z M369.659,414.687l-11.799,19.347L164.234,195.059
		c-14.55-17.957-22.564-40.597-22.564-63.746C141.67,75.448,187.119,30,242.983,30s101.313,45.448,101.313,101.313
		c0,23.15-8.014,45.789-22.563,63.746l-31.968,39.455l-27.476-33.911l26.27-32.423c8.532-10.527,13.042-23.275,13.042-36.867
		c0-32.321-26.296-58.617-58.617-58.617c-32.322,0-58.617,26.296-58.617,58.617c0,13.591,4.509,26.339,13.04,36.866l193.628,238.977
		L369.659,414.687z M242.983,176.775l-22.269-27.483c-4.153-5.126-6.349-11.343-6.349-17.979c0-15.779,12.837-28.617,28.617-28.617
		c15.779,0,28.617,12.838,28.617,28.617c0,6.637-2.195,12.854-6.351,17.98L242.983,176.775z"/>
</g>
<g>
</g>
<g>
</g>
<g>
</g>
<g>
</g>
<g>
</g>
<g>
</g>
<g>
</g>
<g>
</g>
<g>
</g>
<g>
</g>
<g>
</g>
<g>
</g>
<g>
</g>
<g>
</g>
<g>
</g>
</svg>
