<?xml version="1.0" encoding="iso-8859-1"?>
<!-- Generator: Adobe Illustrator 19.0.0, SVG Export Plug-In . SVG Version: 6.00 Build 0)  -->
<svg version="1.1" id="Layer_1" xmlns="http://www.w3.org/2000/svg" xmlns:xlink="http://www.w3.org/1999/xlink" x="0px" y="0px"
	 viewBox="0 0 485.312 485.312" style="enable-background:new 0 0 485.312 485.312;" xml:space="preserve">
<g>
	<path d="M83.641,0v345h79.015v70h30v-70h30v70h35v70.312h30V415h35v-70h79.015V0H83.641z M371.67,30v72.091
		c-59.246,13.565-91.449,5.614-125.414-2.785c-34.734-8.588-70.559-17.433-132.615-4.375V30H371.67z M292.656,315v70h-40v-70
		H113.641V125.644c59.249-13.563,91.448-5.614,125.414,2.785c22.036,5.449,44.503,11.005,73.833,11.005
		c16.9,0,36.096-1.858,58.782-6.631V315H292.656z"/>
</g>
<g>
</g>
<g>
</g>
<g>
</g>
<g>
</g>
<g>
</g>
<g>
</g>
<g>
</g>
<g>
</g>
<g>
</g>
<g>
</g>
<g>
</g>
<g>
</g>
<g>
</g>
<g>
</g>
<g>
</g>
</svg>
