<?xml version="1.0" encoding="iso-8859-1"?>
<!-- Generator: Adobe Illustrator 19.0.0, SVG Export Plug-In . SVG Version: 6.00 Build 0)  -->
<svg version="1.1" id="Layer_1" xmlns="http://www.w3.org/2000/svg" xmlns:xlink="http://www.w3.org/1999/xlink" x="0px" y="0px"
	 viewBox="0 0 485 485" style="enable-background:new 0 0 485 485;" xml:space="preserve">
<g>
	<path d="M441.916,87.66c0-48.336-39.323-87.66-87.659-87.66s-87.66,39.324-87.66,87.66c0,43.223,31.446,79.235,72.66,86.371
		v184.905c0,52.97-43.095,96.064-96.065,96.064c-52.97,0-96.064-43.094-96.064-96.064v-67.337
		c41.981-7.152,74.043-43.786,74.043-87.773V0h-62.145v30h32.145v173.825c0,32.556-26.486,59.043-59.043,59.043
		s-59.043-26.487-59.043-59.043V30h32.145V0H43.084v203.825c0,43.987,32.062,80.621,74.043,87.773v67.337
		C117.127,428.448,173.68,485,243.191,485c69.513,0,126.065-56.552,126.065-126.064V174.031
		C410.471,166.894,441.916,130.882,441.916,87.66z M354.257,145.32c-31.794,0-57.66-25.866-57.66-57.66
		c0-31.793,25.866-57.66,57.66-57.66c31.793,0,57.659,25.866,57.659,57.66C411.916,119.454,386.05,145.32,354.257,145.32z"/>
	<path d="M354.256,62.66c-13.784,0-24.999,11.215-24.999,25s11.215,25,24.999,25c13.785,0,25.001-11.215,25.001-25
		S368.041,62.66,354.256,62.66z"/>
</g>
<g>
</g>
<g>
</g>
<g>
</g>
<g>
</g>
<g>
</g>
<g>
</g>
<g>
</g>
<g>
</g>
<g>
</g>
<g>
</g>
<g>
</g>
<g>
</g>
<g>
</g>
<g>
</g>
<g>
</g>
</svg>
