<?xml version="1.0" encoding="iso-8859-1"?>
<!-- Generator: Adobe Illustrator 19.0.0, SVG Export Plug-In . SVG Version: 6.00 Build 0)  -->
<svg version="1.1" id="Layer_1" xmlns="http://www.w3.org/2000/svg" xmlns:xlink="http://www.w3.org/1999/xlink" x="0px" y="0px"
	 viewBox="0 0 485 485" style="enable-background:new 0 0 485 485;" xml:space="preserve">
<g>
	<path d="M485,212.278v-100H383.5v-70h-282v70H0v100h51.5v142.303c-17.656,6.208-30.351,23.039-30.351,42.79
		c0,25.007,20.344,45.351,45.351,45.351s45.351-20.344,45.351-45.351c0-19.751-12.695-36.583-30.351-42.79v-34.295h322v34.295
		c-17.656,6.208-30.351,23.039-30.351,42.79c0,25.007,20.344,45.351,45.351,45.351s45.351-20.344,45.351-45.351
		c0-19.751-12.695-36.583-30.351-42.79V212.278H485z M455,142.278v40h-71.5v-40H455z M131.5,182.278v-40h222v40H131.5z
		 M131.5,72.278h222v40h-222V72.278z M30,142.278h71.5v40H30V142.278z M66.5,412.722c-8.465,0-15.351-6.886-15.351-15.351
		s6.886-15.351,15.351-15.351s15.351,6.886,15.351,15.351S74.965,412.722,66.5,412.722z M418.5,412.722
		c-8.465,0-15.351-6.886-15.351-15.351s6.886-15.351,15.351-15.351s15.351,6.886,15.351,15.351S426.965,412.722,418.5,412.722z
		 M403.5,290.286h-322v-78.008h322V290.286z"/>
</g>
<g>
</g>
<g>
</g>
<g>
</g>
<g>
</g>
<g>
</g>
<g>
</g>
<g>
</g>
<g>
</g>
<g>
</g>
<g>
</g>
<g>
</g>
<g>
</g>
<g>
</g>
<g>
</g>
<g>
</g>
</svg>
