<?xml version="1.0" encoding="iso-8859-1"?>
<!-- Generator: Adobe Illustrator 19.0.0, SVG Export Plug-In . SVG Version: 6.00 Build 0)  -->
<svg version="1.1" id="Layer_1" xmlns="http://www.w3.org/2000/svg" xmlns:xlink="http://www.w3.org/1999/xlink" x="0px" y="0px"
	 viewBox="0 0 484.113 484.113" style="enable-background:new 0 0 484.113 484.113;" xml:space="preserve">
<g>
	<path d="M462.9,134.413l21.213-21.213L370.914,0l-21.213,21.213l45.993,45.993l-42.458,42.458l-67.207-67.207L264.816,63.67
		l24.749,24.749L32.5,345.485l42.457,42.458L0,462.9l21.213,21.213l74.957-74.958l42.458,42.458l257.066-257.066l24.749,24.749
		l21.213-21.213l-67.206-67.207l42.458-42.458L462.9,134.413z M138.628,409.188l-63.702-63.702l43.054-43.054l31.851,31.851
		l21.213-21.213l-31.851-31.851l43.053-43.053l31.851,31.851l21.213-21.213l-31.851-31.851l43.053-43.054l31.851,31.851
		l21.213-21.213l-31.851-31.851l43.054-43.054l63.703,63.703L138.628,409.188z"/>
</g>
<g>
</g>
<g>
</g>
<g>
</g>
<g>
</g>
<g>
</g>
<g>
</g>
<g>
</g>
<g>
</g>
<g>
</g>
<g>
</g>
<g>
</g>
<g>
</g>
<g>
</g>
<g>
</g>
<g>
</g>
</svg>
