<?xml version="1.0" encoding="iso-8859-1"?>
<!-- Generator: Adobe Illustrator 19.0.0, SVG Export Plug-In . SVG Version: 6.00 Build 0)  -->
<svg version="1.1" id="Layer_1" xmlns="http://www.w3.org/2000/svg" xmlns:xlink="http://www.w3.org/1999/xlink" x="0px" y="0px"
	 viewBox="0 0 483.522 483.522" style="enable-background:new 0 0 483.522 483.522;" xml:space="preserve">
<g>
	<path d="M458.647,24.896C442.592,8.841,421.247,0,398.543,0s-44.05,8.842-60.104,24.896l-255.6,255.6L74.59,387.74L0.02,462.31
		l21.213,21.213l74.569-74.569l107.245-8.25l255.6-255.6C491.788,111.962,491.788,58.038,458.647,24.896z M437.434,123.891
		L189.681,371.643l-61.283,4.714L417.604,87.151l-21.213-21.213L107.185,355.145l4.714-61.283L359.651,46.109
		C370.04,35.721,383.852,30,398.543,30s28.503,5.721,38.891,16.109C458.878,67.554,458.878,102.446,437.434,123.891z"/>
</g>
<g>
</g>
<g>
</g>
<g>
</g>
<g>
</g>
<g>
</g>
<g>
</g>
<g>
</g>
<g>
</g>
<g>
</g>
<g>
</g>
<g>
</g>
<g>
</g>
<g>
</g>
<g>
</g>
<g>
</g>
</svg>
