<?xml version="1.0" encoding="iso-8859-1"?>
<!-- Generator: Adobe Illustrator 19.0.0, SVG Export Plug-In . SVG Version: 6.00 Build 0)  -->
<svg version="1.1" id="Layer_1" xmlns="http://www.w3.org/2000/svg" xmlns:xlink="http://www.w3.org/1999/xlink" x="0px" y="0px"
	 viewBox="0 0 485.357 485.357" style="enable-background:new 0 0 485.357 485.357;" xml:space="preserve">
<g>
	<path d="M319.363,31.488C299.616,12.029,272.527,0,242.679,0s-56.937,12.029-76.684,31.488L0.179,62.935v422.423h485V62.935
		L319.363,31.488z M385.179,145.753v239.604h-285V145.753l37.195-7.054c12.866,46.056,55.2,79.94,105.305,79.94
		s92.439-33.884,105.305-79.94L385.179,145.753z M227.679,31.441v57.892c-6.068,4.565-10,11.825-10,19.986c0,13.785,11.215,25,25,25
		s25-11.215,25-25c0-8.162-3.932-15.421-10-19.986V31.441c36.586,7.034,64.319,39.271,64.319,77.878
		c0,43.736-35.583,79.319-79.319,79.319s-79.319-35.583-79.319-79.319C163.359,70.712,191.092,38.476,227.679,31.441z
		 M455.179,455.357h-425V87.78l111.894-21.22c-5.557,13.026-8.654,27.343-8.708,42.364l-63.186,11.983v294.45h345v-294.45
		l-63.186-11.983c-0.054-15.021-3.151-29.338-8.708-42.364l111.894,21.22V455.357z"/>
</g>
<g>
</g>
<g>
</g>
<g>
</g>
<g>
</g>
<g>
</g>
<g>
</g>
<g>
</g>
<g>
</g>
<g>
</g>
<g>
</g>
<g>
</g>
<g>
</g>
<g>
</g>
<g>
</g>
<g>
</g>
</svg>
