<?xml version="1.0" encoding="iso-8859-1"?>
<!-- Generator: Adobe Illustrator 19.0.0, SVG Export Plug-In . SVG Version: 6.00 Build 0)  -->
<svg version="1.1" id="Layer_1" xmlns="http://www.w3.org/2000/svg" xmlns:xlink="http://www.w3.org/1999/xlink" x="0px" y="0px"
	 viewBox="0 0 490 490" style="enable-background:new 0 0 490 490;" xml:space="preserve">
<g>
	<path d="M356.043,182.252l24.85-142.233c0.381-2.185,3.236-4.584,5.454-4.584h71.94v-30h-71.94
		c-16.747,0-32.124,12.923-35.006,29.421l-15.087,86.355H48.223v226.676h36.89v38.796c-15.815,4.761-28.354,17.151-33.311,32.881H0
		v30h51.802c6.386,20.264,25.352,35,47.698,35c27.57,0,50-22.43,50-50c0-22.119-14.442-40.917-34.387-47.49v-39.187h72.276
		c7.557,76.62,72.362,136.677,150.935,136.677c83.635,0,151.676-68.042,151.676-151.677
		C490,255.247,431.359,191.057,356.043,182.252z M99.5,454.564c-11.028,0-20-8.972-20-20s8.972-20,20-20s20,8.972,20,20
		S110.528,454.564,99.5,454.564z M331.012,151.212l-5.334,30.532c-45.295,3.757-85,27.5-110.256,62.368L78.223,244.11v-92.898
		H331.012z M78.223,274.11l120.279,0.001c-5.777,13.69-9.596,28.4-11.113,43.776H78.223V274.11z M338.324,454.564
		c-67.092,0-121.676-54.584-121.676-121.677s54.583-121.676,121.676-121.676S460,265.795,460,332.888
		S405.416,454.564,338.324,454.564z"/>
</g>
<g>
</g>
<g>
</g>
<g>
</g>
<g>
</g>
<g>
</g>
<g>
</g>
<g>
</g>
<g>
</g>
<g>
</g>
<g>
</g>
<g>
</g>
<g>
</g>
<g>
</g>
<g>
</g>
<g>
</g>
</svg>
