<?xml version="1.0" encoding="utf-8"?>
<!-- Generator: Adobe Illustrator 16.0.0, SVG Export Plug-In . SVG Version: 6.00 Build 0)  -->
<!DOCTYPE svg PUBLIC "-//W3C//DTD SVG 1.1//EN" "http://www.w3.org/Graphics/SVG/1.1/DTD/svg11.dtd">
<svg version="1.1" id="Layer_1" xmlns="http://www.w3.org/2000/svg" xmlns:xlink="http://www.w3.org/1999/xlink" x="0px" y="0px"
	 width="64px" height="64px" viewBox="0 0 64 64" enable-background="new 0 0 64 64" xml:space="preserve">
<g id="Collared_T-shirt">
	<rect x="0.176" y="0.466" fill="#F79420" width="63.647" height="64.132"/>
	<g>
		<path fill="none" stroke="#FFFFFF" stroke-linecap="round" stroke-linejoin="round" stroke-miterlimit="10" d="M35.238,15.298
			c-4.512-0.635-7.121,0.512-7.121,0.512l-1.474,1.385l-4.152,1.984c0,0-1.098,0.406-2.748,2.585l-3.961,6.021l5.133,4.358
			l1.761-1.883c0,0,0.293,5.983,0.293,19.207c0,0,4.593,0.557,8.933,0.482h0.196c4.337,0.074,8.931-0.482,8.931-0.482
			c0-13.224,0.294-19.207,0.294-19.207l1.76,1.883l5.133-4.358l-3.959-6.021c-1.649-2.179-2.75-2.585-2.75-2.585l-4.59-2.394
			L35.238,15.298z"/>
		<path fill="none" stroke="#FFFFFF" stroke-linecap="round" stroke-linejoin="round" stroke-miterlimit="10" d="M22.002,25.315
			c0,0,0.014,1.488,0.674,4.945"/>
		<path fill="none" stroke="#FFFFFF" stroke-linecap="round" stroke-linejoin="round" stroke-miterlimit="10" d="M42.02,25.315
			c0,0-0.015,1.488-0.674,4.945"/>
		<path fill="none" stroke="#FFFFFF" stroke-linecap="round" stroke-linejoin="round" stroke-miterlimit="10" d="M31.308,21.48
			c0,0,0.234-1.344,1.41-1.771c-0.483,2.618,0,9.961,0,9.961c-0.594,0.649-1.436,0.563-1.436,0.563V21.74L31.308,21.48z"/>
		<path fill="none" stroke="#FFFFFF" stroke-linecap="round" stroke-linejoin="round" stroke-miterlimit="10" d="M32.878,19.583
			c1.031-0.428,3.119-2.887,2.36-4.285l1.679,1.487c0,0,0.252,3.849-1.526,5.642c0,0-0.72-0.125-1.019-1.947
			C34.372,20.479,33.497,19.327,32.878,19.583z"/>
		<path fill="none" stroke="#FFFFFF" stroke-linecap="round" stroke-linejoin="round" stroke-miterlimit="10" d="M30.813,19.448
			c-1.247-1.256-2.973,2.665-2.973,2.665c-1.397-2.357-1.196-4.919-1.196-4.919l1.474-1.385c0,0,0.408,1.846,2.035,3.177
			C30.153,18.987,30.559,19.192,30.813,19.448z"/>
		<path fill="none" stroke="#FFFFFF" stroke-linecap="round" stroke-linejoin="round" stroke-miterlimit="10" d="M35.238,15.298
			c0.759,1.398-1.329,3.857-2.36,4.285c-1.077,0.461-1.57,1.897-1.57,1.897l-0.026,0.177l0.052-0.747
			c0.132-1.201-0.607-1.542-0.607-1.542l0.087,0.08c-0.254-0.256-0.66-0.461-0.66-0.461c-1.627-1.332-2.035-3.177-2.035-3.177
			S30.726,14.663,35.238,15.298z"/>
		<path fill="none" stroke="#FFFFFF" stroke-linecap="round" stroke-linejoin="round" stroke-miterlimit="10" d="M35.212,16.887
			c0.22-0.571,0.271-1.136,0.026-1.589c-4.512-0.635-7.121,0.512-7.121,0.512s0.131,0.587,0.536,1.34
			C28.654,17.149,31.153,16.295,35.212,16.887z"/>
	</g>
</g>
</svg>
