<?xml version="1.0" encoding="utf-8"?>
<!-- Generator: Adobe Illustrator 16.0.0, SVG Export Plug-In . SVG Version: 6.00 Build 0)  -->
<!DOCTYPE svg PUBLIC "-//W3C//DTD SVG 1.1//EN" "http://www.w3.org/Graphics/SVG/1.1/DTD/svg11.dtd">
<svg version="1.1" id="Layer_1" xmlns="http://www.w3.org/2000/svg" xmlns:xlink="http://www.w3.org/1999/xlink" x="0px" y="0px"
	 width="64px" height="64px" viewBox="0 0 64 64" enable-background="new 0 0 64 64" xml:space="preserve">
<g id="Frock">
	<rect x="0.176" y="-0.138" fill="#12978B" width="63.647" height="64.13"/>
	<g>
		<path fill="none" stroke="#FFFFFF" stroke-linecap="round" stroke-linejoin="round" stroke-miterlimit="10" d="M29.858,46.975
			c1.375,1.067,5.319,0.125,5.319,0.125c1.813,1.074,3.907-0.181,4.224-0.673c2.39,1.251,4.461-2.153,4.461-2.153
			c-2.922-0.756-4.047-7.66-4.047-7.66c-0.58-3.538-2.271-5.618-2.733-6.104c-0.033-0.512,0.05-1.581,0.155-2.272
			c0.123-0.81,0.59-1.84,0.805-2.217c0.045-0.082,0.232-0.314,0.252-0.613c0.021-0.301-0.094-0.663-0.102-0.756
			c-0.049-0.767,0.172,0.395,0.172,0.395s0,0,0.43,0.162c1.343,0.215,2.684-0.488,2.631-0.757c-0.053-0.271-1.074-4.817-1.288-5.683
			c-0.215-0.865-1.504-1.191-2.202-1.191c-0.699,0-1.826-0.162-1.826-0.162l-0.969-0.811c0,0-0.052,0.759-0.268,1.19
			c-0.217,0.431-0.969,0.918-1.986,1.135c-1.021,0.217-2.482-0.39-2.857-0.717c-0.377-0.323-1.17-1.88-1.17-1.88
			s-0.536,0.705-0.805,0.975c-0.271,0.27-0.699,0.217-1.239,0.27c-0.536,0.055-1.177,0.272-1.823,0.649
			c-0.646,0.38-1.019,0.757-1.184,1.245c-0.158,0.485-1.019,3.246-1.233,4.761c0.751,0.649,3.005,0.433,3.005,0.433l0.377-0.974
			c0,0,0,0.435-0.053,0.974c-0.053,0.543,0.797,1.59,1.181,2.233c0.254,0.427,1.119,3.118,0.479,3.597l0,0
			c-1.296,1.166-3.034,6.846-3.034,6.846c-1.005,3.73-4.39,6.799-4.39,6.799c1.835,2.151,4.733,1.555,4.733,1.555
			C26.858,47.921,29.858,46.975,29.858,46.975z"/>
		<path fill="none" stroke="#FFFFFF" stroke-linecap="round" stroke-linejoin="round" stroke-miterlimit="10" d="M27.563,30.495
			c0.64-0.479-0.225-3.17-0.479-3.597c-0.383-0.644-1.233-1.69-1.181-2.233c0.053-0.539,0.053-0.974,0.053-0.974l-0.377,0.974
			c0,0-2.254,0.217-3.005-0.433c0.214-1.515,1.075-4.275,1.233-4.761c0.165-0.488,0.538-0.865,1.184-1.245
			c0.646-0.377,1.288-0.595,1.823-0.649c0.541-0.053,0.968,0,1.239-0.27c0.269-0.27,0.805-0.975,0.805-0.975s0.792,1.557,1.17,1.88
			c0.375,0.327,1.836,0.934,2.857,0.717c1.02-0.217,1.771-0.703,1.986-1.135s0.268-1.19,0.268-1.19l0.969,0.811
			c0,0,1.127,0.162,1.826,0.162c0.698,0,1.987,0.326,2.203,1.191c0.213,0.865,1.234,5.411,1.287,5.683
			c0.053,0.269-1.287,0.972-2.631,0.757c-0.43-0.162-0.43-0.162-0.43-0.162s-0.223-1.161-0.172-0.395
			c0.008,0.093,0.123,0.455,0.102,0.756c-0.02,0.299-0.207,0.531-0.252,0.613c-0.214,0.377-0.682,1.407-0.805,2.217
			c-0.098,0.647-0.174,1.719-0.155,2.272c-1.549,0.758-3.081,1.079-4.319,1.168C29.566,31.906,27.563,30.495,27.563,30.495z"/>
		<path fill="none" stroke="#FFFFFF" stroke-linecap="round" stroke-linejoin="round" stroke-miterlimit="10" d="M37.081,30.51
			c0.462,0.484,2.153,2.564,2.733,6.104c0,0,1.125,6.904,4.047,7.66c0,0-2.071,3.404-4.461,2.153
			c-0.315,0.492-2.409,1.747-4.224,0.673c0,0-3.943,0.942-5.319-0.125c0,0-3,0.946-4.985-1.279c0,0-2.898,0.597-4.733-1.557
			c0,0,3.384-3.066,4.39-6.798c0,0,1.737-5.68,3.034-6.846c0,0,2.003,1.411,5.198,1.183C34,31.589,35.531,31.268,37.081,30.51z"/>
		<g>
			
				<circle fill="none" stroke="#FFFFFF" stroke-linecap="round" stroke-linejoin="round" stroke-miterlimit="10" cx="32.294" cy="23.103" r="0.034"/>
			
				<circle fill="none" stroke="#FFFFFF" stroke-linecap="round" stroke-linejoin="round" stroke-miterlimit="10" cx="32.294" cy="26.92" r="0.034"/>
		</g>
	</g>
</g>
</svg>
