<?xml version="1.0" encoding="utf-8"?>
<!-- Generator: Adobe Illustrator 16.0.0, SVG Export Plug-In . SVG Version: 6.00 Build 0)  -->
<!DOCTYPE svg PUBLIC "-//W3C//DTD SVG 1.1//EN" "http://www.w3.org/Graphics/SVG/1.1/DTD/svg11.dtd">
<svg version="1.1" id="Layer_1" xmlns="http://www.w3.org/2000/svg" xmlns:xlink="http://www.w3.org/1999/xlink" x="0px" y="0px"
	 width="64px" height="64px" viewBox="0 0 64 64" enable-background="new 0 0 64 64" xml:space="preserve">
<g id="Hat">
	<rect x="0.496" y="0.107" fill="#EC3F7A" width="63.648" height="64.129"/>
	<g>
		<g>
			<path fill="none" stroke="#FFFFFF" stroke-linecap="round" stroke-linejoin="round" stroke-miterlimit="10" d="M25.125,34.24
				c-3.844,1.213-6.316,2.625-6.127,3.695c0.285,1.612,6.48,1.852,13.838,0.531c7.359-1.318,13.092-3.695,12.807-5.313
				c-0.199-1.126-3.285-1.581-7.639-1.302c-0.596-1.662-1.568-4.082-2.479-5.045c0,0-0.617-0.93-2.313-1.15
				c0,0-0.278-0.048-0.902-0.012l-0.5-0.255c-2.678-0.963-4.338,0.267-4.338,0.267c-1.5,0.824-1.742,1.919-1.742,1.919
				C25.182,28.92,25.115,32.277,25.125,34.24L25.125,34.24z"/>
		</g>
		<path fill="none" stroke="#FFFFFF" stroke-linecap="round" stroke-linejoin="round" stroke-miterlimit="10" d="M38.74,34.016
			c0,0-0.385-1.181-0.736-2.162c-0.596-1.662-1.568-4.082-2.479-5.045c0,0-0.617-0.93-2.313-1.15c0,0-0.278-0.048-0.902-0.012
			l-0.5-0.255c-2.678-0.963-4.338,0.267-4.338,0.267c-1.5,0.824-1.742,1.919-1.742,1.919c-0.549,1.343-0.615,4.7-0.605,6.663
			c0.006,0.889,0.07,2.239,0.07,2.239c2-0.104,4.297-0.371,6.717-0.806C34.439,35.223,36.775,34.645,38.74,34.016z"/>
		<path fill="none" stroke="#FFFFFF" stroke-linecap="round" stroke-linejoin="round" stroke-miterlimit="10" d="M32.213,25.651
			c-0.746,0.044-1.846,0.203-3.08,0.687"/>
	</g>
</g>
</svg>
