<?xml version="1.0" encoding="utf-8"?>
<!-- Generator: Adobe Illustrator 16.0.0, SVG Export Plug-In . SVG Version: 6.00 Build 0)  -->
<!DOCTYPE svg PUBLIC "-//W3C//DTD SVG 1.1//EN" "http://www.w3.org/Graphics/SVG/1.1/DTD/svg11.dtd">
<svg version="1.1" id="Layer_1" xmlns="http://www.w3.org/2000/svg" xmlns:xlink="http://www.w3.org/1999/xlink" x="0px" y="0px"
	 width="64px" height="64px" viewBox="0 0 64 64" enable-background="new 0 0 64 64" xml:space="preserve">
<g id="Hoodie">
	<rect x="0.352" y="-0.065" fill="#795CA6" width="63.648" height="64.131"/>
	<g>
		<path fill="none" stroke="#FFFFFF" stroke-linecap="round" stroke-linejoin="round" stroke-miterlimit="10" d="M18.948,43.724
			c0,0-0.719,1.463-0.563,1.854l2.553,0.465c0,0,0.451-0.975,0.69-1.719l0.181,0.041l3.381-10.563l0.116,12.521
			c0,0-0.067,1.132,0.733,1.587c0,0,0.023,0.26,0,1.209c0,0,3.792,1.524,12.547-0.217v-1.523c0.291-0.162,0.424-0.543,0.432-0.799
			l0.117-12.777l3.381,10.563l0.254-0.058l0,0c0.236,0.73,0.697,1.715,0.697,1.715l2.502-0.458c0.151-0.381-0.584-1.842-0.584-1.842
			l0.276-0.062L41,26.749l-4.869-2.476l-0.27-0.625c3.018-1.978,1.822-3.709,1.822-3.709c-2.91-5.343-5.304-5.674-5.304-5.674
			c-2.439,0.944-5.067,5.957-5.067,5.957c-0.798,1.985,1.501,3.31,1.501,3.31l-0.012,0.76l-5.479,2.455L18.66,43.659L18.948,43.724z
			"/>
		<path fill="none" stroke="#FFFFFF" stroke-linecap="round" stroke-linejoin="round" stroke-miterlimit="10" d="M32.067,47.77"/>
		<path fill="none" stroke="#FFFFFF" stroke-linecap="round" stroke-linejoin="round" stroke-miterlimit="10" d="M31.955,25.589"/>
		<path fill="none" stroke="#FFFFFF" stroke-linecap="round" stroke-linejoin="round" stroke-miterlimit="10" d="M32.259,28.063"/>
		
			<line fill="none" stroke="#FFFFFF" stroke-linecap="round" stroke-linejoin="round" stroke-miterlimit="10" x1="29.02" y1="39.093" x2="26.943" y2="42.733"/>
		
			<line fill="none" stroke="#FFFFFF" stroke-linecap="round" stroke-linejoin="round" stroke-miterlimit="10" x1="35.113" y1="39.093" x2="37.19" y2="42.733"/>
		<path fill="none" stroke="#FFFFFF" stroke-linecap="round" stroke-linejoin="round" stroke-miterlimit="10" d="M21.628,44.323
			l0.181,0.041l3.381-10.563l0.116,12.521c0,0-0.067,1.132,0.733,1.587c0.114,0.064,0.196,0.09,0.351,0.124
			c0,0,2.572,0.523,5.897,0.433c-0.592-3.371-0.028-20.401-0.028-20.401c-0.421-1.386-0.601-2.782-0.601-2.782
			c-0.274-1.041-2.844-1.749-2.844-1.749l-0.012,0.759l-5.479,2.457l-4.662,16.912l0.286,0.063"/>
		<path fill="none" stroke="#FFFFFF" stroke-linecap="round" stroke-linejoin="round" stroke-miterlimit="10" d="M21.628,44.323
			c-0.239,0.744-0.69,1.719-0.69,1.719l-2.553-0.465c-0.155-0.391,0.563-1.854,0.563-1.854l2.697,0.604L21.628,44.323z"/>
		<path fill="none" stroke="#FFFFFF" stroke-linecap="round" stroke-linejoin="round" stroke-miterlimit="10" d="M45.385,43.722
			c0,0,0.735,1.461,0.584,1.842l-2.502,0.458c0,0-0.461-0.983-0.695-1.715L45.385,43.722z"/>
		<path fill="none" stroke="#FFFFFF" stroke-linecap="round" stroke-linejoin="round" stroke-miterlimit="10" d="M37.918,47.641
			c-1.908,0.558-3.875,0.778-5.63,0.825c-0.592-3.373-0.028-20.402-0.028-20.402c1.009-1.068,1.089-2.475,1.089-2.475
			c0.353-1.168,2.513-1.94,2.513-1.94l0.269,0.625l4.871,2.476l4.66,16.912l-0.275,0.062c0,0,0.734,1.461,0.582,1.842l-2.502,0.458
			c0,0-0.461-0.984-0.695-1.715l0,0l-0.256,0.058l-3.379-10.563l-0.119,12.777c-0.006,0.256-0.141,0.637-0.432,0.799
			C38.329,47.521,37.918,47.641,37.918,47.641z"/>
		<path fill="none" stroke="#FFFFFF" stroke-linecap="round" stroke-linejoin="round" stroke-miterlimit="10" d="M26.039,47.909
			c0.114,0.064,0.196,0.09,0.351,0.124c0,0,2.572,0.523,5.897,0.433c1.756-0.047,3.723-0.267,5.631-0.824
			c0,0,0.411-0.12,0.668-0.264v1.523c-8.754,1.741-12.547,0.217-12.547,0.217C26.063,48.169,26.039,47.909,26.039,47.909z"/>
		<path fill="none" stroke="#FFFFFF" stroke-linecap="round" stroke-linejoin="round" stroke-miterlimit="10" d="M28.814,23.532
			c0,0,2.57,0.708,2.844,1.749c0,0,0.179,1.397,0.601,2.782c1.01-1.068,1.088-2.475,1.088-2.475c0.354-1.168,2.514-1.94,2.514-1.94
			c3.018-1.978,1.822-3.709,1.822-3.709c-2.91-5.343-5.304-5.674-5.304-5.674c-2.439,0.944-5.067,5.957-5.067,5.957
			C26.514,22.208,28.814,23.532,28.814,23.532z"/>
		<g>
			<path fill="none" stroke="#FFFFFF" stroke-linecap="round" stroke-linejoin="round" stroke-miterlimit="10" d="M29.612,20.552
				c0,0-0.47,1.043,0.563,2.177c1.033,1.135,2.309,1.142,2.34,2.862"/>
			<path fill="none" stroke="#FFFFFF" stroke-linecap="round" stroke-linejoin="round" stroke-miterlimit="10" d="M35.242,20.063
				c0,0,0.891,2.003,0,2.57c-0.891,0.566-3.05,1.552-2.727,4.6"/>
		</g>
		<path fill="none" stroke="#FFFFFF" stroke-linecap="round" stroke-linejoin="round" stroke-miterlimit="10" d="M37.831,21.264
			c-0.978-2.882-5.315-2.365-5.315-2.365c-5.26,0.521-5.368,2.127-5.368,2.127c-0.036-0.422,0.166-0.803,0.166-0.803
			s2.628-5.013,5.067-5.957c0,0,2.394,0.332,5.303,5.674C37.684,19.939,38.027,20.552,37.831,21.264z"/>
	</g>
</g>
</svg>
