<?xml version="1.0" encoding="utf-8"?>
<!-- Generator: Adobe Illustrator 16.0.0, SVG Export Plug-In . SVG Version: 6.00 Build 0)  -->
<!DOCTYPE svg PUBLIC "-//W3C//DTD SVG 1.1//EN" "http://www.w3.org/Graphics/SVG/1.1/DTD/svg11.dtd">
<svg version="1.1" id="Layer_1" xmlns="http://www.w3.org/2000/svg" xmlns:xlink="http://www.w3.org/1999/xlink" x="0px" y="0px"
	 width="64px" height="64px" viewBox="0 0 64 64" enable-background="new 0 0 64 64" xml:space="preserve">
<g id="Jacket">
	<rect x="0.176" y="0.201" fill="#C183B8" width="63.647" height="64.13"/>
	<g>
		<path fill="none" stroke="#FFFFFF" stroke-linecap="round" stroke-linejoin="round" stroke-miterlimit="10" d="M39.605,36.557
			c0,0,0.47,0.676,0.871,1.891c0.4,1.212-0.08,1.685,0.896,3.304s-0.295,1.417,1.178,3.574c0,0,0.824,0.884,0.691,2.173
			c0,0,1.828,0.299,2.945-0.33c0,0-0.58-1.527,0-2.922c0,0,0.578,0-0.938-3.236c0,0,0.088-3.955-1.474-6.34
			c0,0,0.091-2.021-0.758-3.056c0,0-0.707-3.867-0.529-6.521c0,0,0.625-4.135-3.793-4.854c0,0,0.607-1.81-3.069-2.802
			c0,0-3.627-1.231-8.083,0.283c-4.177,1.42-2.946,2.383-2.878,2.991c0,0-3.814,0.134-3.347,5.259c0,0-0.615,4.331-0.105,5.478
			c0,0-1.476,1.892-0.902,2.818c0,0-0.814,1.817-0.68,2.765c0.133,0.942-1.139,1.918-1.139,4.987c0,2.359-1.473,1.688-0.402,3.508
			l-0.39,1.82c0,0,0.736,0.338,3.106,0c0,0-0.24-1.889,1.099-2.293c0,0,0.536-0.742,1.071-4.248
			c0.534-3.507,1.405-4.722,1.405-4.722s-0.119,3.188-0.521,7.418l-0.335,1.687c0,0,4.819,3.371,16.933,0.541v-1.688
			C40.462,44.042,40.044,40.031,39.605,36.557z"/>
		<path fill="none" stroke="#FFFFFF" stroke-linecap="round" stroke-linejoin="round" stroke-miterlimit="10" d="M42.843,45.734
			c0.224,0.379,0.479,0.998,0.4,1.763c0,0,1.827,0.299,2.944-0.33c0,0-0.321-0.847-0.248-1.853
			C44.089,44.723,42.843,45.734,42.843,45.734L42.843,45.734z"/>
		<path fill="none" stroke="#FFFFFF" stroke-linecap="round" stroke-linejoin="round" stroke-miterlimit="10" d="M21.214,45.525
			c-0.548,0.699-0.405,1.822-0.405,1.822c-2.37,0.338-3.106,0-3.106,0l0.39-1.822C19.654,44.577,21.215,45.525,21.214,45.525z"/>
		<g>
			<g>
				<path fill="none" stroke="#FFFFFF" stroke-linecap="round" stroke-linejoin="round" stroke-miterlimit="10" d="M23.529,26.668
					c0,0,1.786,6.742,4.417,6.787"/>
				<path fill="none" stroke="#FFFFFF" stroke-linecap="round" stroke-linejoin="round" stroke-miterlimit="10" d="M27.946,36.288
					c0,0-1.428,4.302-2.943,5.125"/>
				<path fill="none" stroke="#FFFFFF" stroke-linecap="round" stroke-linejoin="round" stroke-miterlimit="10" d="M40.044,26.939
					c0,0-1.785,6.743-4.416,6.788"/>
				<path fill="none" stroke="#FFFFFF" stroke-linecap="round" stroke-linejoin="round" stroke-miterlimit="10" d="M35.628,36.288
					c0,0,1.429,4.302,2.942,5.125"/>
				<path fill="none" stroke="#FFFFFF" stroke-linecap="round" stroke-linejoin="round" stroke-miterlimit="10" d="M29.473,23.626
					c0,0,0.387,0.626,0,2.042c-0.389,1.415,0.247,2.326,0.348,2.968c0.1,0.64-0.034,1.449,0,1.618"/>
				<path fill="none" stroke="#FFFFFF" stroke-linecap="round" stroke-linejoin="round" stroke-miterlimit="10" d="M34.189,23.459
					c0,0-0.807,2.577-0.188,3.827s0.207,1.877,0.188,2.775"/>
				<path fill="none" stroke="#FFFFFF" stroke-linecap="round" stroke-linejoin="round" stroke-miterlimit="10" d="M24.384,36.085
					c0,0,0.585-3.68,1.354-4.25"/>
				<path fill="none" stroke="#FFFFFF" stroke-linecap="round" stroke-linejoin="round" stroke-miterlimit="10" d="M37.62,32.405
					c0,0,1.787,1.119,1.985,4.152"/>
			</g>
		</g>
		<path fill="none" stroke="#FFFFFF" stroke-linecap="round" stroke-linejoin="round" stroke-miterlimit="10" d="M24.667,20.712
			c-0.068-0.608-1.299-1.571,2.878-2.991c4.455-1.515,8.083-0.283,8.083-0.283c3.679,0.992,3.07,2.802,3.07,2.802
			c-1.406,3.67-6.907,3.67-6.907,3.67C26.596,24.032,24.667,20.712,24.667,20.712z"/>
		<path fill="none" stroke="#FFFFFF" stroke-linecap="round" stroke-linejoin="round" stroke-miterlimit="10" d="M34.343,18.215
			c0,0-2.113-0.401-4.968,0.182c0,0-5.226,0.626-2.057,3.323c0,0,2.456,2.188,4.474,2.189c2,0.001,4.649-2.924,4.649-2.924
			C38.077,18.838,34.343,18.215,34.343,18.215z"/>
		<path fill="none" stroke="#FFFFFF" stroke-linecap="round" stroke-linejoin="round" stroke-miterlimit="10" d="M29.375,18.396
			c0,0-2.543,0.403,2.096,5.394c0,0,0.09,0.271,0.76,0c0,0,4.625-5.459,1.74-5.618C33.971,18.172,32.23,17.813,29.375,18.396z"/>
		<path fill="none" stroke="#FFFFFF" stroke-linecap="round" stroke-linejoin="round" stroke-miterlimit="10" d="M23.529,45.188
			c0,0,4.819,3.373,16.933,0.541v-1.688c-9.75,3.26-16.644-0.305-16.644-0.305L23.529,45.188z"/>
		<path fill="none" stroke="#FFFFFF" stroke-linecap="round" stroke-linejoin="round" stroke-miterlimit="10" d="M31.907,23.907
			c-5.195,0.124-7.239-3.195-7.239-3.195s-3.814,0.134-3.347,5.259c0,0-0.615,4.331-0.105,5.478c0,0-1.476,1.892-0.902,2.818
			c0,0-0.814,1.817-0.68,2.765c0.133,0.942-1.139,1.918-1.139,4.987c0,2.359-1.473,1.688-0.402,3.508l-0.39,1.82
			c0,0,0.736,0.338,3.106,0c0,0-0.24-1.889,1.099-2.293c0,0,0.536-0.742,1.071-4.248c0.534-3.507,1.405-4.722,1.405-4.722
			s-0.119,3.188-0.521,7.418l-0.335,1.687c0,0,2.513,1.759,8.471,1.67c0,0-0.439-8.818,0-10.256
			c0.439-1.438,0.186-3.147-0.115-5.262C31.583,29.229,31.907,23.907,31.907,23.907z"/>
		<path fill="none" stroke="#FFFFFF" stroke-linecap="round" stroke-linejoin="round" stroke-miterlimit="10" d="M38.698,20.239
			c4.418,0.72,3.793,4.854,3.793,4.854c-0.179,2.652,0.528,6.52,0.528,6.52c0.849,1.034,0.758,3.056,0.758,3.056
			c1.562,2.386,1.474,6.34,1.474,6.34c1.517,3.236,0.938,3.236,0.938,3.236c-0.58,1.394,0,2.922,0,2.922
			c-1.117,0.629-2.945,0.33-2.945,0.33c0.133-1.289-0.691-2.173-0.691-2.173c-1.473-2.157-0.201-1.955-1.178-3.574
			s-0.496-2.092-0.896-3.305c-0.401-1.213-0.871-1.889-0.871-1.889c0.438,3.475,0.855,7.484,0.855,7.484v1.688
			c-3.367,0.787-6.17,1.095-8.462,1.129c0,0-0.439-8.817,0-10.256c0.439-1.438,0.186-3.146-0.115-5.261
			c-0.302-2.112,0.022-7.435,0.022-7.435C31.485,23.907,37.249,24.019,38.698,20.239z"/>
	</g>
</g>
</svg>
