<?xml version="1.0" encoding="utf-8"?>
<!-- Generator: Adobe Illustrator 16.0.0, SVG Export Plug-In . SVG Version: 6.00 Build 0)  -->
<!DOCTYPE svg PUBLIC "-//W3C//DTD SVG 1.1//EN" "http://www.w3.org/Graphics/SVG/1.1/DTD/svg11.dtd">
<svg version="1.1" id="Layer_1" xmlns="http://www.w3.org/2000/svg" xmlns:xlink="http://www.w3.org/1999/xlink" x="0px" y="0px"
	 width="64px" height="64px" viewBox="0 0 64 64" enable-background="new 0 0 64 64" xml:space="preserve">
<g id="Jeans">
	<rect x="0.496" y="0.372" fill="#53A1D8" width="63.648" height="64.13"/>
	<g>
		<path fill="none" stroke="#FFFFFF" stroke-linecap="round" stroke-linejoin="round" stroke-miterlimit="10" d="M32.441,27.681
			c0.039,0.056,0.155,0.234,0.191,0.296c2.822,4.764,4.011,20.936,4.011,20.936c2.619,0.093,6.389-0.713,6.389-0.713l-2.43-17.775
			l-0.896-5.705l-1.018-6.475l-0.408-2.293c0,0-1.592,0.754-5.758,0.847h-0.224c-4.164-0.093-5.848-0.838-5.848-0.838l-0.402,2.235
			l-2.01,12.5l-2.43,17.686c0,0,3.951,0.624,6.57,0.531c0,0,1.188-16.172,4.01-20.936c0.035-0.063,0.152-0.241,0.189-0.296H32.441z"
			/>
		
			<line fill="none" stroke="#FFFFFF" stroke-linecap="round" stroke-linejoin="round" stroke-miterlimit="10" x1="28.662" y1="19.043" x2="25.039" y2="24.721"/>
		<path fill="none" stroke="#FFFFFF" stroke-linecap="round" stroke-linejoin="round" stroke-miterlimit="10" d="M39.705,24.72
			l-0.594-3.778l-0.432-2.744c-0.771,0.357-1.781,0.623-2.714,0.759L39.705,24.72"/>
		<path fill="none" stroke="#FFFFFF" stroke-linecap="round" stroke-linejoin="round" stroke-miterlimit="10" d="M25.039,24.72
			l0.594-3.778l0.432-2.744c0.77,0.357,1.781,0.623,2.715,0.759L25.039,24.72"/>
		
			<line fill="none" stroke="#FFFFFF" stroke-linecap="round" stroke-linejoin="round" stroke-miterlimit="10" x1="31.65" y1="25.819" x2="32.379" y2="27.648"/>
		<path fill="none" stroke="#FFFFFF" stroke-linecap="round" stroke-linejoin="round" stroke-miterlimit="10" d="M34.406,19.12
			c-1.018,0.069-1.766,0.056-1.766,0.056h-0.224c0,0,0.635,5.832-0.768,6.644l0.455,0.176C35.678,26.373,34.406,19.12,34.406,19.12z
			"/>
		<path fill="none" stroke="#FFFFFF" stroke-linecap="round" stroke-linejoin="round" stroke-miterlimit="10" d="M26.049,18.196
			l0.402-2.235c0,0,1.684,0.746,5.848,0.838h0.223c4.166-0.093,5.758-0.847,5.758-0.847l0.4,2.246
			c-0.77,0.357-1.781,0.623-2.713,0.759c-1.709,0.249-3.326,0.219-3.326,0.219h-0.223C32.418,19.175,28.227,19.207,26.049,18.196z"
			/>
		
			<circle fill="none" stroke="#FFFFFF" stroke-linecap="round" stroke-linejoin="round" stroke-miterlimit="10" cx="33.618" cy="17.924" r="0.169"/>
		
			<line fill="none" stroke="#FFFFFF" stroke-linecap="round" stroke-linejoin="round" stroke-miterlimit="10" x1="32.412" y1="17.139" x2="32.412" y2="18.883"/>
	</g>
</g>
</svg>
