<?xml version="1.0" encoding="utf-8"?>
<!-- Generator: Adobe Illustrator 16.0.0, SVG Export Plug-In . SVG Version: 6.00 Build 0)  -->
<!DOCTYPE svg PUBLIC "-//W3C//DTD SVG 1.1//EN" "http://www.w3.org/Graphics/SVG/1.1/DTD/svg11.dtd">
<svg version="1.1" id="Layer_1" xmlns="http://www.w3.org/2000/svg" xmlns:xlink="http://www.w3.org/1999/xlink" x="0px" y="0px"
	 width="64px" height="64px" viewBox="0 0 64 64" enable-background="new 0 0 64 64" xml:space="preserve">
<g id="Men_x2019_s_Vest">
	<rect x="0.176" y="0.127" fill="#EC5451" width="63.647" height="64.13"/>
	<g>
		<path fill="none" stroke="#FFFFFF" stroke-linecap="round" stroke-linejoin="round" stroke-miterlimit="10" d="M37.229,16.386"/>
		<path fill="none" stroke="#FFFFFF" stroke-linecap="round" stroke-linejoin="round" stroke-miterlimit="10" d="M26.751,16.386"/>
		<g>
			<path fill="none" stroke="#FFFFFF" stroke-linecap="round" stroke-linejoin="round" stroke-miterlimit="10" d="M37.229,15.969
				L37.229,15.969h1.93v7.282c0,4.06,0.656,5.145,2.734,6.12v19.046H32.01h-0.02h-9.883V29.371c2.078-0.975,2.734-2.061,2.734-6.12
				v-7.282l1.91,0.005v-0.005c0,2.916,2.346,5.232,5.239,5.232C34.883,21.201,37.229,18.884,37.229,15.969z"/>
			<path fill="none" stroke="#FFFFFF" stroke-linecap="round" stroke-linejoin="round" stroke-miterlimit="10" d="M26.751,16.386
				v-0.413v3.923c0,2.917,2.346,5.28,5.239,5.28c2.893,0,5.238-2.363,5.238-5.28v-3.928v0.417v-0.417
				c0,2.916-2.346,5.232-5.238,5.232c-2.893,0-5.239-2.316-5.239-5.232V16.386z"/>
		</g>
	</g>
</g>
</svg>
