<?xml version="1.0" encoding="utf-8"?>
<!-- Generator: Adobe Illustrator 16.0.0, SVG Export Plug-In . SVG Version: 6.00 Build 0)  -->
<!DOCTYPE svg PUBLIC "-//W3C//DTD SVG 1.1//EN" "http://www.w3.org/Graphics/SVG/1.1/DTD/svg11.dtd">
<svg version="1.1" id="Layer_1" xmlns="http://www.w3.org/2000/svg" xmlns:xlink="http://www.w3.org/1999/xlink" x="0px" y="0px"
	 width="64px" height="64px" viewBox="0 0 64 64" enable-background="new 0 0 64 64" xml:space="preserve">
<g id="Men_x2019_s_Full_Sleeve_Shirt">
	<rect x="0.176" y="0.366" fill="#C183B8" width="63.647" height="64.131"/>
	<g>
		<path fill="none" stroke="#FFFFFF" stroke-linecap="round" stroke-linejoin="round" stroke-miterlimit="10" d="M31.848,47.363"/>
		<path fill="none" stroke="#FFFFFF" stroke-linecap="round" stroke-linejoin="round" stroke-miterlimit="10" d="M44.389,43.292
			c0.329,1.021,0.905,2.203,0.905,2.203l3.5-0.642c0.215-0.535-0.746-2.405-0.746-2.405l0.002,0.014l0.062-0.014l-5.576-20.229
			l-5.424-2.032l-1.127-1.9L32.08,17.5h-0.231l-3.904,0.787l-0.774,1.9l-5.776,2.032l-5.577,20.229l0.095,0.021l0.011-0.021
			c0,0-0.929,1.87-0.716,2.405l3.502,0.642c0,0,0.544-1.183,0.872-2.203l4.043-12.635l0.139,14.975l8.087,1.731h0.231l8.085-1.731
			l0.14-14.975l4.043,12.635"/>
		
			<line fill="none" stroke="#FFFFFF" stroke-linecap="round" stroke-linejoin="round" stroke-miterlimit="10" x1="25.781" y1="30.792" x2="29.414" y2="30.792"/>
		
			<line fill="none" stroke="#FFFFFF" stroke-linecap="round" stroke-linejoin="round" stroke-miterlimit="10" x1="34.05" y1="30.792" x2="37.684" y2="30.792"/>
		<path fill="none" stroke="#FFFFFF" stroke-linecap="round" stroke-linejoin="round" stroke-miterlimit="10" d="M36.859,19.764
			c-0.438,1.609-2.78,2.979-2.78,2.979l-2.174,0.725l-1.678-0.503c-1.679-0.407-2.913-3.132-2.913-3.132l0.63-1.545l2.24,1.921
			l1.763,0.717l1.794-0.717l2.241-1.921L36.859,19.764z"/>
		<path fill="none" stroke="#FFFFFF" stroke-linecap="round" stroke-linejoin="round" stroke-miterlimit="10" d="M15.921,42.449
			c0,0-0.929,1.869-0.716,2.406l3.502,0.641c0,0,0.544-1.182,0.872-2.203l-1.861-0.418l-1.808-0.404"/>
		<path fill="none" stroke="#FFFFFF" stroke-linecap="round" stroke-linejoin="round" stroke-miterlimit="10" d="M44.389,43.292
			c0.329,1.021,0.905,2.203,0.905,2.203l3.5-0.642c0.215-0.535-0.746-2.405-0.746-2.405l0.002,0.014l-1.852,0.415l-1.853,0.415"/>
		<path fill="none" stroke="#FFFFFF" stroke-linecap="round" stroke-linejoin="round" stroke-miterlimit="10" d="M31.848,47.363
			l-8.087-1.731l-0.139-14.975L19.58,43.292c-0.328,1.021-0.872,2.203-0.872,2.203l-3.502-0.642
			c-0.213-0.535,0.716-2.405,0.716-2.405l-0.011,0.021l-0.095-0.021l5.577-20.229l5.776-2.032l0.774-1.9l2.24,1.921l1.763,0.717l0,0
			c0,0-0.575,22.407,0.133,26.439"/>
		<path fill="none" stroke="#FFFFFF" stroke-linecap="round" stroke-linejoin="round" stroke-miterlimit="10" d="M32.08,47.363
			c-0.708-4.032-0.133-26.439-0.133-26.439l0,0l1.794-0.717l2.241-1.921l1.127,1.9l5.425,2.032l5.575,20.229l-0.061,0.014
			l-0.002-0.014c0,0,0.961,1.869,0.746,2.406l-3.5,0.641c0,0-0.576-1.182-0.906-2.203h-0.041l-4.043-12.635l-0.139,14.975
			L32.08,47.363h-0.231"/>
		<polygon fill="none" stroke="#FFFFFF" stroke-linecap="round" stroke-linejoin="round" stroke-miterlimit="10" points="
			27.944,18.287 31.848,17.5 32.08,17.5 35.982,18.287 33.741,20.208 31.947,20.924 30.184,20.208 		"/>
	</g>
</g>
</svg>
