<?xml version="1.0" encoding="utf-8"?>
<!-- Generator: Adobe Illustrator 16.0.0, SVG Export Plug-In . SVG Version: 6.00 Build 0)  -->
<!DOCTYPE svg PUBLIC "-//W3C//DTD SVG 1.1//EN" "http://www.w3.org/Graphics/SVG/1.1/DTD/svg11.dtd">
<svg version="1.1" id="Layer_1" xmlns="http://www.w3.org/2000/svg" xmlns:xlink="http://www.w3.org/1999/xlink" x="0px" y="0px"
	 width="64px" height="64px" viewBox="0 0 64 64" enable-background="new 0 0 64 64" xml:space="preserve">
<g id="Men_x2019_s_Blazer">
	<rect x="0.176" y="0.027" fill="#12978B" width="63.647" height="64.13"/>
	<g>
		<path fill="none" stroke="#FFFFFF" stroke-linecap="round" stroke-linejoin="round" stroke-miterlimit="10" d="M28.471,19.824"/>
		<g>
			<path fill="none" stroke="#FFFFFF" stroke-linecap="round" stroke-linejoin="round" stroke-miterlimit="10" d="M28.478,19.855"/>
			<path fill="none" stroke="#FFFFFF" stroke-linecap="round" stroke-linejoin="round" stroke-miterlimit="10" d="M48.323,39.297
				l0.979,2.625l-4.493,1.946l-1.017-2.702l-4.087-9.883c0,0-0.02,5.291,0.27,13.595l-6.268,0.563l-1.233,0.093
				c-0.749,0-0.708-0.712-0.708-0.712c-0.283,0.631-1.067,0.619-1.067,0.619l-6.318-0.229c-0.244-8.28-0.115-13.872-0.115-13.872
				l-4.006,9.885l-1.056,2.616l-4.506-1.937l1.095-2.608l7.174-17.598l5.485-1.844l0.732-0.737c0,0,1.839-1.048,6.039,0l0.733,0.737
				l5.485,1.844L48.323,39.297z"/>
			<path fill="none" stroke="#FFFFFF" stroke-linecap="round" stroke-linejoin="round" stroke-miterlimit="10" d="M31.766,44.82
				l-0.023-3.485c0,0,0.026-2.938,0.142-6.69l3.338-15.525l0.732,0.737l5.486,1.844l6.882,17.598l0.979,2.625l-4.493,1.946
				l-1.017-2.702l-4.087-9.883c0,0-0.02,5.291,0.27,13.595l-6.268,0.563l-1.233,0.094C31.725,45.533,31.766,44.82,31.766,44.82z"/>
			<path fill="none" stroke="#FFFFFF" stroke-linecap="round" stroke-linejoin="round" stroke-miterlimit="10" d="M31.909,34.557
				l-2.725-15.438l-0.732,0.737L22.967,21.7l-7.174,17.598l-1.095,2.609l4.506,1.936l1.056-2.616l4.006-9.885
				c0,0-0.129,5.592,0.115,13.872l6.318,0.229c0,0,0.784,0.012,1.067-0.619L31.909,34.557z"/>
			<path fill="none" stroke="#FFFFFF" stroke-linecap="round" stroke-linejoin="round" stroke-miterlimit="10" d="M35.223,19.118
				c-4.2-1.048-6.04,0-6.04,0l2.725,15.438l0,0L35.223,19.118z"/>
		</g>
		
			<line fill="none" stroke="#FFFFFF" stroke-linecap="round" stroke-linejoin="round" stroke-miterlimit="10" x1="26.266" y1="39.131" x2="30.119" y2="39.131"/>
		
			<line fill="none" stroke="#FFFFFF" stroke-linecap="round" stroke-linejoin="round" stroke-miterlimit="10" x1="33.784" y1="39.131" x2="37.637" y2="39.131"/>
	</g>
</g>
</svg>
