<?xml version="1.0" encoding="utf-8"?>
<!-- Generator: Adobe Illustrator 16.0.0, SVG Export Plug-In . SVG Version: 6.00 Build 0)  -->
<!DOCTYPE svg PUBLIC "-//W3C//DTD SVG 1.1//EN" "http://www.w3.org/Graphics/SVG/1.1/DTD/svg11.dtd">
<svg version="1.1" id="Layer_1" xmlns="http://www.w3.org/2000/svg" xmlns:xlink="http://www.w3.org/1999/xlink" x="0px" y="0px"
	 width="64px" height="64px" viewBox="0 0 64 64" enable-background="new 0 0 64 64" xml:space="preserve">
<g id="Men_x2019_s_Sleeveless_Jacket">
	<rect x="0.496" y="0.239" fill="#FFCA1C" width="63.648" height="64.131"/>
	<g>
		<path fill="none" stroke="#FFFFFF" stroke-linecap="round" stroke-linejoin="round" stroke-miterlimit="10" d="M36.291,18.111
			l0.637,1.445l0.199,0.456l5.777,2.032h-0.025h0.025c0,0,0.902,2.305-0.414,6.566c0,0-0.904,2.392-1.695,4.693l0.381,11.739
			c-2.248,1.983-8.752,2.335-8.752,2.335c-6.988,0.063-9.102-2.02-9.102-2.02l0.521-12.055c-0.787-2.301-1.693-4.693-1.693-4.693
			c-1.314-4.261-0.414-6.566-0.414-6.566l5.777-2.032l0.199-0.455l0.635-1.446C28.348,18.111,32.273,16.133,36.291,18.111z"/>
		
			<line fill="none" stroke="#FFFFFF" stroke-linecap="round" stroke-linejoin="round" stroke-miterlimit="10" x1="26.152" y1="30.616" x2="29.785" y2="30.616"/>
		
			<line fill="none" stroke="#FFFFFF" stroke-linecap="round" stroke-linejoin="round" stroke-miterlimit="10" x1="34.42" y1="30.616" x2="38.055" y2="30.616"/>
		<path fill="none" stroke="#FFFFFF" stroke-linecap="round" stroke-linejoin="round" stroke-miterlimit="10" d="M23.871,33.303
			l0.154-2.732c-0.387-6.292-2.23-8.437-2.23-8.437"/>
		<path fill="none" stroke="#FFFFFF" stroke-linecap="round" stroke-linejoin="round" stroke-miterlimit="10" d="M28.348,18.111
			c0,0,1.115,2.496,3.973,2.543c2.857-0.047,3.971-2.543,3.971-2.543s0.638,1.445,0.638,1.446c0,0-0.744,2.948-4.653,3.597l0,0
			c-3.906-0.649-4.563-3.597-4.563-3.597L28.348,18.111z"/>
		<path fill="none" stroke="#FFFFFF" stroke-linecap="round" stroke-linejoin="round" stroke-miterlimit="10" d="M28.314,18.111"/>
		<path fill="none" stroke="#FFFFFF" stroke-linecap="round" stroke-linejoin="round" stroke-miterlimit="10" d="M21.736,22.044
			c0,0,1.902,2.235,2.289,8.527l-0.154,2.732h-0.027c-0.787-2.301-1.693-4.693-1.693-4.693
			C20.836,24.349,21.736,22.044,21.736,22.044z"/>
		<path fill="none" stroke="#FFFFFF" stroke-linecap="round" stroke-linejoin="round" stroke-miterlimit="10" d="M42.904,22.044
			c0,0-1.9,2.235-2.289,8.527l0.154,2.732h0.026c0.789-2.301,1.692-4.693,1.692-4.693C43.805,24.349,42.904,22.044,42.904,22.044z"
			/>
		<path fill="none" stroke="#FFFFFF" stroke-linecap="round" stroke-linejoin="round" stroke-miterlimit="10" d="M32.424,47.377
			c-6.988,0.063-9.102-2.02-9.102-2.02l0.521-12.055c-0.787-2.301-1.693-4.693-1.693-4.693c-1.314-4.261-0.414-6.566-0.414-6.566
			l5.777-2.032l0.199-0.455l0.635-1.446c0,0,1.115,2.496,3.973,2.543C32.32,20.654,31.715,43.346,32.424,47.377z"/>
		<path fill="none" stroke="#FFFFFF" stroke-linecap="round" stroke-linejoin="round" stroke-miterlimit="10" d="M42.879,22.044
			h0.025l-5.777-2.032l-0.199-0.456l-0.637-1.445c0,0-1.113,2.496-3.971,2.543c0,0-0.605,22.692,0.104,26.723
			c0,0,6.504-0.352,8.752-2.335l-0.381-11.739c0.791-2.301,1.695-4.693,1.695-4.693c1.316-4.261,0.414-6.566,0.414-6.566H42.879z"/>
		<path fill="none" stroke="#FFFFFF" stroke-linecap="round" stroke-linejoin="round" stroke-miterlimit="10" d="M28.348,18.111
			c0,0,1.115,2.496,3.973,2.543c2.857-0.047,3.971-2.543,3.971-2.543C32.273,16.133,28.348,18.111,28.348,18.111z"/>
	</g>
</g>
</svg>
