<?xml version="1.0" encoding="utf-8"?>
<!-- Generator: Adobe Illustrator 16.0.0, SVG Export Plug-In . SVG Version: 6.00 Build 0)  -->
<!DOCTYPE svg PUBLIC "-//W3C//DTD SVG 1.1//EN" "http://www.w3.org/Graphics/SVG/1.1/DTD/svg11.dtd">
<svg version="1.1" id="Layer_1" xmlns="http://www.w3.org/2000/svg" xmlns:xlink="http://www.w3.org/1999/xlink" x="0px" y="0px"
	 width="64px" height="64px" viewBox="0 0 64 64" enable-background="new 0 0 64 64" xml:space="preserve">
<g id="Men_x2019_s_Short">
	<rect x="0.176" y="0.399" fill="#4358A6" width="63.647" height="64.13"/>
	<g id="_x34_51">
		<polygon fill="none" stroke="#FFFFFF" stroke-linecap="round" stroke-linejoin="round" stroke-miterlimit="10" points="
			32.022,35.734 33.755,44.396 41.872,44.254 48.253,42.586 46.335,33.471 42.991,23.377 42.991,20.533 32.022,20.533 
			31.977,20.533 21.006,20.533 21.006,23.377 17.665,33.471 15.746,42.586 22.079,44.302 30.244,44.396 31.977,35.734 		"/>
		<path fill="none" stroke="#FFFFFF" stroke-linecap="round" stroke-linejoin="round" stroke-miterlimit="10" d="M32,23.377v12.357
			c0,0,1.932,0.252,2.238-2.891v-9.467H32z"/>
		<polygon fill="none" stroke="#FFFFFF" stroke-linecap="round" stroke-linejoin="round" stroke-miterlimit="10" points="
			21.006,23.377 21.006,20.533 31.977,20.533 32.022,20.533 42.991,20.533 42.991,23.377 		"/>
	</g>
</g>
</svg>
