<?xml version="1.0" encoding="utf-8"?>
<!-- Generator: Adobe Illustrator 16.0.0, SVG Export Plug-In . SVG Version: 6.00 Build 0)  -->
<!DOCTYPE svg PUBLIC "-//W3C//DTD SVG 1.1//EN" "http://www.w3.org/Graphics/SVG/1.1/DTD/svg11.dtd">
<svg version="1.1" id="Layer_1" xmlns="http://www.w3.org/2000/svg" xmlns:xlink="http://www.w3.org/1999/xlink" x="0px" y="0px"
	 width="64px" height="64px" viewBox="0 0 64 64" enable-background="new 0 0 64 64" xml:space="preserve">
<g id="Men_x2019_s_Shirt">
	<rect x="0.176" y="0.434" fill="#617F8F" width="63.647" height="64.13"/>
	<g>
		<path fill="none" stroke="#FFFFFF" stroke-linecap="round" stroke-linejoin="round" stroke-miterlimit="10" d="M23.659,30.42
			l-1.368,2.984l-4.76-1.923l3.897-9.499l5.776-2.032l0.775-1.901c0,0,3.672-1.709,8.394,0l0.771,1.901l5.426,2.032l3.896,9.499
			l-4.76,1.923l-1.367-2.984h-0.002l0.59,14.839c-1.811,2.333-8.93,2.433-8.93,2.433c-7.66,0.235-8.876-2.433-8.876-2.433
			L23.659,30.42L23.659,30.42z"/>
		<path fill="none" stroke="#FFFFFF" stroke-linecap="round" stroke-linejoin="round" stroke-miterlimit="10" d="M27.98,18.049
			c0,0,3.672-1.709,8.394,0l-2.24,2.679l-1.004,0.516l0.103,1.076l-1.023,2.716l-1.347-2.716l0.01-1.076l-0.651-0.516L27.98,18.049z
			"/>
		<path fill="none" stroke="#FFFFFF" stroke-linecap="round" stroke-linejoin="round" stroke-miterlimit="10" d="M23.659,30.42
			l-1.368,2.984l-4.76-1.923l3.897-9.499l5.776-2.032l0.775-1.901l2.24,2.679l0.651,0.516l-0.01,1.076l1.347,2.716
			c0,0-0.606,18.612,0.101,22.647c-0.298,0.012-0.311,0.008-0.311,0.008c-7.66,0.235-8.876-2.433-8.876-2.433L23.659,30.42"/>
		<path fill="none" stroke="#FFFFFF" stroke-linecap="round" stroke-linejoin="round" stroke-miterlimit="10" d="M40.341,30.42
			l1.367,2.984l4.76-1.923l-3.896-9.499l-5.426-2.032l-0.771-1.901l-2.24,2.679l-1.004,0.516l0.102,1.076l-1.022,2.716
			c0,0-0.606,18.612,0.101,22.647c1.387-0.052,7.039-0.383,8.621-2.425L40.341,30.42L40.341,30.42L40.341,30.42z"/>
		
			<circle fill="none" stroke="#FFFFFF" stroke-linecap="round" stroke-linejoin="round" stroke-miterlimit="10" cx="33.141" cy="41.245" r="0.116"/>
		<path fill="none" stroke="#FFFFFF" stroke-linecap="round" stroke-linejoin="round" stroke-miterlimit="10" d="M33.305,36.984
			c0,0.063-0.052,0.117-0.115,0.117c-0.064,0-0.119-0.054-0.119-0.117c0-0.066,0.055-0.118,0.119-0.118
			C33.253,36.866,33.305,36.918,33.305,36.984z"/>
		
			<circle fill="none" stroke="#FFFFFF" stroke-linecap="round" stroke-linejoin="round" stroke-miterlimit="10" cx="33.232" cy="33.31" r="0.117"/>
		
			<circle fill="none" stroke="#FFFFFF" stroke-linecap="round" stroke-linejoin="round" stroke-miterlimit="10" cx="33.396" cy="29.049" r="0.116"/>
		<path fill="none" stroke="#FFFFFF" stroke-linecap="round" stroke-linejoin="round" stroke-miterlimit="10" d="M36.374,18.049
			c-4.722-1.709-8.394,0-8.394,0l0.902,1.079c1.241-0.358,3.656-0.792,6.568,0.022L36.374,18.049z"/>
		
			<circle fill="none" stroke="#FFFFFF" stroke-linecap="round" stroke-linejoin="round" stroke-miterlimit="10" cx="33.63" cy="25.07" r="0.117"/>
		<polygon fill="none" stroke="#FFFFFF" stroke-linecap="round" stroke-linejoin="round" stroke-miterlimit="10" points="
			36.374,18.049 37.148,19.95 35.532,24.459 34.134,20.728 		"/>
		<polygon fill="none" stroke="#FFFFFF" stroke-linecap="round" stroke-linejoin="round" stroke-miterlimit="10" points="
			27.98,18.049 27.205,19.95 28.821,24.459 30.22,20.728 		"/>
	</g>
</g>
</svg>
