<?xml version="1.0" encoding="utf-8"?>
<!-- Generator: Adobe Illustrator 16.0.0, SVG Export Plug-In . SVG Version: 6.00 Build 0)  -->
<!DOCTYPE svg PUBLIC "-//W3C//DTD SVG 1.1//EN" "http://www.w3.org/Graphics/SVG/1.1/DTD/svg11.dtd">
<svg version="1.1" id="Layer_1" xmlns="http://www.w3.org/2000/svg" xmlns:xlink="http://www.w3.org/1999/xlink" x="0px" y="0px"
	 width="64px" height="64px" viewBox="0 0 64 64" enable-background="new 0 0 64 64" xml:space="preserve">
<g id="Scarf">
	<rect x="0.176" y="0.234" fill="#4358A6" width="63.647" height="64.13"/>
	<g>
		<path fill="none" stroke="#FFFFFF" stroke-linecap="round" stroke-linejoin="round" stroke-miterlimit="10" d="M26.805,45.055
			c0,0-0.109,3.293,0.27,3.863"/>
		<path fill="none" stroke="#FFFFFF" stroke-linecap="round" stroke-linejoin="round" stroke-miterlimit="10" d="M29.311,45.055
			c0,0,0.324,3.293,0.703,3.863"/>
		<path fill="none" stroke="#FFFFFF" stroke-linecap="round" stroke-linejoin="round" stroke-miterlimit="10" d="M32.54,44.934
			c0,0,0.321,3.289,0.701,3.861"/>
		<path fill="none" stroke="#FFFFFF" stroke-linecap="round" stroke-linejoin="round" stroke-miterlimit="10" d="M34.898,43
			c0,0,0.322,3.292,0.701,3.863"/>
		<g>
			<path fill="none" stroke="#FFFFFF" stroke-linecap="round" stroke-linejoin="round" stroke-miterlimit="10" d="M31.466,27.504
				c0,0,4.095-2.545,3.859-5.385c0,0-0.076-3.359-3.805-3.173c0,0-2.659,0.086-2.726,3.598c0,0-0.715,5.445,8.031,6.966
				l-1.576,3.971c0,0-7.441-1.226-10.025-7.717c0,0-3.177-9.563,5.787-10.027c0,0,8.166-1.1,8.307,6.572c0,0,0.203,4.985-3.94,6.895
				"/>
			<path fill="none" stroke="#FFFFFF" stroke-linecap="round" stroke-linejoin="round" stroke-miterlimit="10" d="M29.486,31.025
				c1.264,0.882,2.55,1.465,3.584,1.842h0.003c-0.056,3.48,1.825,10.012,1.825,10.012l-2.375,0.109v2.066H26.8
				c-0.756-9.466,2.687-14.032,2.687-14.032"/>
		</g>
	</g>
</g>
</svg>
