<?xml version="1.0" encoding="utf-8"?>
<!-- Generator: Adobe Illustrator 16.0.0, SVG Export Plug-In . SVG Version: 6.00 Build 0)  -->
<!DOCTYPE svg PUBLIC "-//W3C//DTD SVG 1.1//EN" "http://www.w3.org/Graphics/SVG/1.1/DTD/svg11.dtd">
<svg version="1.1" id="Layer_1" xmlns="http://www.w3.org/2000/svg" xmlns:xlink="http://www.w3.org/1999/xlink" x="0px" y="0px"
	 width="64px" height="64px" viewBox="0 0 64 64" enable-background="new 0 0 64 64" xml:space="preserve">
<g id="Skirt">
	<rect x="0.496" y="0.141" fill="#77594A" width="63.648" height="64.13"/>
	<g>
		<path fill="none" stroke="#FFFFFF" stroke-linecap="round" stroke-linejoin="round" stroke-miterlimit="10" d="M26.162,19.288
			c0,0,5.355,3.773,13.055,0c0,0,3.018,2.778,3.953,8.491c0,0,1.561,9.593,5.619,10.642c0,0-3.174,3.616-6.658,3.458
			c0,0-0.301,0.559,0.027,0.997c0,0-2.629,0.472-3.67,1.572c0,0-2.289,0.942-3.225,0c0,0-1.927-0.21-2.862,0.419
			c0,0-1.873,0.576-4.473,0c0,0-2.975-2.857-5.418-2.229c0,0,0.371-0.078,0.58-0.865c0,0-4.689-0.551-7.24-3.541
			c0,0,4.699-4.26,6.096-9.438C21.947,28.796,24.361,20.907,26.162,19.288L26.162,19.288z"/>
		<path fill="none" stroke="#FFFFFF" stroke-linecap="round" stroke-linejoin="round" stroke-miterlimit="10" d="M29.273,20.582
			c1.682,0.421,3.975,0.622,6.693-0.08v-0.001c0,0,1.039,16.521,6.191,21.272l-0.027,0.104c0,0-0.301,0.56,0.027,0.997
			c0,0-2.63,0.471-3.671,1.572c0,0-2.288,0.941-3.225,0c0,0-1.926-0.211-2.861,0.419c0,0-1.873,0.577-4.473,0
			c0,0-2.975-2.857-5.418-2.228c0,0,0.371-0.08,0.58-0.867c5.311-8.532,6.186-21.19,6.186-21.19L29.273,20.582L29.273,20.582z"/>
		<path fill="none" stroke="#FFFFFF" stroke-linecap="round" stroke-linejoin="round" stroke-miterlimit="10" d="M29.277,20.582
			c0,0-0.875,12.658-6.186,21.191c0,0-4.689-0.551-7.24-3.541c0,0,4.699-4.26,6.096-9.438c0,0,2.414-7.889,4.215-9.508l0,0
			c0,0,1.135,0.8,3.111,1.294L29.277,20.582L29.277,20.582z"/>
		<path fill="none" stroke="#FFFFFF" stroke-linecap="round" stroke-linejoin="round" stroke-miterlimit="10" d="M35.967,20.501
			c0,0,1.039,16.521,6.191,21.272l-0.027,0.104c3.484,0.158,6.658-3.458,6.658-3.458c-4.059-1.049-5.619-10.642-5.619-10.642
			c-0.936-5.713-3.953-8.491-3.953-8.491c-1.137,0.558-2.223,0.95-3.248,1.214"/>
	</g>
</g>
</svg>
