<?xml version="1.0" encoding="utf-8"?>
<!-- Generator: Adobe Illustrator 16.0.0, SVG Export Plug-In . SVG Version: 6.00 Build 0)  -->
<!DOCTYPE svg PUBLIC "-//W3C//DTD SVG 1.1//EN" "http://www.w3.org/Graphics/SVG/1.1/DTD/svg11.dtd">
<svg version="1.1" id="Layer_1" xmlns="http://www.w3.org/2000/svg" xmlns:xlink="http://www.w3.org/1999/xlink" x="0px" y="0px"
	 width="64px" height="64px" viewBox="0 0 64 64" enable-background="new 0 0 64 64" xml:space="preserve">
<g id="Sweater">
	<rect x="0.496" y="0.339" fill="#9D9E9E" width="63.648" height="64.132"/>
	<g>
		<g>
			<path fill="none" stroke="#FFFFFF" stroke-linecap="round" stroke-linejoin="round" stroke-miterlimit="10" d="M40.129,45.893
				c0-12.179,0.27-17.69,0.27-17.69l5.021,19.129h4.731L43.1,20.375c-1.52-2.009-2.531-2.382-2.531-2.382l-4.932-2.042
				c-1.412,1.875-3.736,3.197-3.736,3.197h-0.182c0,0-2.342-1.322-3.734-3.197l-4.932,2.042c0,0-1.012,0.374-2.531,2.382
				l-6.03,26.955h4.615l4.115-19.129c0,0,0.27,5.512,0.27,17.691h1.328v1.666h13.934v-1.666H40.129L40.129,45.893z"/>
		</g>
		<path fill="none" stroke="#FFFFFF" stroke-linecap="round" stroke-linejoin="round" stroke-miterlimit="10" d="M26.305,16.647
			l1.68-0.695c1.393,1.875,3.734,3.197,3.734,3.197H31.9c0,0,2.325-1.322,3.737-3.197l1.688,0.699
			c-1.863,2.626-5.387,4.663-5.387,4.663h-0.256C31.682,21.313,28.1,19.337,26.305,16.647z"/>
		<polygon fill="none" stroke="#FFFFFF" stroke-linecap="round" stroke-linejoin="round" stroke-miterlimit="10" points="
			18.486,47.33 15.469,47.33 15.135,48.857 18.172,48.857 		"/>
		<polygon fill="none" stroke="#FFFFFF" stroke-linecap="round" stroke-linejoin="round" stroke-miterlimit="10" points="
			46.232,47.33 49.25,47.33 49.584,48.857 46.547,48.857 		"/>
		
			<rect x="24.82" y="45.893" fill="none" stroke="#FFFFFF" stroke-linecap="round" stroke-linejoin="round" stroke-miterlimit="10" width="13.934" height="1.668"/>
	</g>
</g>
</svg>
