<?xml version="1.0" encoding="utf-8"?>
<!-- Generator: Adobe Illustrator 16.0.0, SVG Export Plug-In . SVG Version: 6.00 Build 0)  -->
<!DOCTYPE svg PUBLIC "-//W3C//DTD SVG 1.1//EN" "http://www.w3.org/Graphics/SVG/1.1/DTD/svg11.dtd">
<svg version="1.1" id="Layer_1" xmlns="http://www.w3.org/2000/svg" xmlns:xlink="http://www.w3.org/1999/xlink" x="0px" y="0px"
	 width="64px" height="64px" viewBox="0 0 64 64" enable-background="new 0 0 64 64" xml:space="preserve">
<g id="T-Shirt">
	<rect x="0.176" y="0.094" fill="#444444" width="63.647" height="64.131"/>
	<g>
		<path fill="none" stroke="#FFFFFF" stroke-linecap="round" stroke-linejoin="round" stroke-miterlimit="10" d="M32.098,48.65
			c4.339,0.074,8.933-0.482,8.933-0.482c0-13.225,0.293-19.208,0.293-19.208l1.759,1.884l5.133-4.358l-3.959-6.021
			c-1.649-2.179-2.749-2.584-2.749-2.584l-5.354-2.218c-1.795,1.293-4.056,1.198-4.056,1.198h-0.196c0,0-2.26,0.096-4.057-1.198
			l-5.354,2.218c0,0-1.099,0.406-2.748,2.584l-3.96,6.021l5.133,4.358l1.758-1.884c0,0,0.294,5.985,0.294,19.208
			c0,0,4.595,0.557,8.933,0.482H32.098z"/>
		<path fill="none" stroke="#FFFFFF" stroke-linecap="round" stroke-linejoin="round" stroke-miterlimit="10" d="M42.824,18.839
			c0.404,0.381,0.888,0.907,1.432,1.625l3.959,6.021l-5.133,4.358l-1.759-1.884C41.031,21.832,42.825,18.84,42.824,18.839
			L42.824,18.839z"/>
		<path fill="none" stroke="#FFFFFF" stroke-linecap="round" stroke-linejoin="round" stroke-miterlimit="10" d="M21.175,18.839
			c-0.404,0.381-0.888,0.907-1.432,1.625l-3.959,6.021l5.133,4.358l1.758-1.884C22.969,21.832,21.174,18.84,21.175,18.839
			L21.175,18.839z"/>
		<path fill="none" stroke="#FFFFFF" stroke-linecap="round" stroke-linejoin="round" stroke-miterlimit="10" d="M27.845,15.662
			c0,0,1.074,3.365,4.057,3.291h0.196c2.981,0.074,4.056-3.291,4.056-3.291l2.519,1.042c-0.171,0.625-1.513,4.86-6.542,4.858h-0.263
			c-5.03,0.002-6.371-4.238-6.541-4.858l0,0L27.845,15.662z"/>
		<path fill="none" stroke="#FFFFFF" stroke-linecap="round" stroke-linejoin="round" stroke-miterlimit="10" d="M36.154,15.662
			c0,0-1.074,3.365-4.056,3.291h-0.196c-2.982,0.074-4.057-3.291-4.057-3.291c1.797,1.293,4.057,1.198,4.057,1.198h0.196
			C32.098,16.86,34.359,16.956,36.154,15.662z"/>
	</g>
</g>
</svg>
