<?xml version="1.0" encoding="utf-8"?>
<!-- Generator: Adobe Illustrator 16.0.0, SVG Export Plug-In . SVG Version: 6.00 Build 0)  -->
<!DOCTYPE svg PUBLIC "-//W3C//DTD SVG 1.1//EN" "http://www.w3.org/Graphics/SVG/1.1/DTD/svg11.dtd">
<svg version="1.1" id="Layer_1" xmlns="http://www.w3.org/2000/svg" xmlns:xlink="http://www.w3.org/1999/xlink" x="0px" y="0px"
	 width="64px" height="64px" viewBox="0 0 64 64" enable-background="new 0 0 64 64" xml:space="preserve">
<g id="Tank_Top">
	<rect x="0.496" y="0.174" fill="#9D9E9E" width="63.648" height="64.131"/>
	<g>
		<g id="_x34_61">
			<path fill="none" stroke="#FFFFFF" stroke-linecap="round" stroke-linejoin="round" stroke-miterlimit="10" d="M36.205,17.209
				c0.377,0.15,0.537,1.082,0.537,1.082s0.168,0.406-0.107,2.783c-0.51,4.384-1.441,5.406-1.441,5.406s-0.87,1.362-2.698,1.362
				s-2.596-1.377-2.596-1.377l-0.43-0.816c0,0-0.648-1.153-0.631-2.978c0,0,0.084-3.03,0.355-4.023c0,0,0.322-1.208,0.527-1.289
				c-1.295-0.385-1.707,3.512-1.707,3.512c-0.088,0.789-0.566,3.026-0.566,3.026c-0.654,2.805-2.523,4.34-2.523,4.34
				c-0.521,0.307-0.348,1.008-0.348,1.008c0.305,1.929,1,3.508,1,3.508s1.131,4.208,0.521,7.231
				c-0.609,3.026-1.959,5.877-1.959,5.877c11.619,2.98,15.709,0.35,15.709,0.35s-1.437-4.165-1.611-6.576
				c-0.172-2.41,1.088-6.271,1.088-6.271c1.018-2.498,1.176-4.338,1.176-4.338c0.043-0.614-0.479-0.921-0.479-0.921
				c-3.002-1.665-2.609-7.54-2.609-7.54C37.461,16.765,36.205,17.209,36.205,17.209z"/>
		</g>
		<path fill="none" stroke="#FFFFFF" stroke-linecap="round" stroke-linejoin="round" stroke-miterlimit="10" d="M35.193,26.48
			c0,0,0.932-1.022,1.44-5.406c0.275-2.377,0.107-2.783,0.107-2.783s-0.16-0.932-0.537-1.082
			C33.098,17.191,35.193,26.48,35.193,26.48z"/>
		<path fill="none" stroke="#FFFFFF" stroke-linecap="round" stroke-linejoin="round" stroke-miterlimit="10" d="M30.111,26.756
			l-0.643-1.106c0,0-0.648-1.153-0.631-2.978c0,0,0.084-3.03,0.355-4.023c0,0,0.322-1.208,0.527-1.289
			C32.322,18.133,30.111,26.756,30.111,26.756z"/>
		<path fill="none" stroke="#FFFFFF" stroke-linecap="round" stroke-linejoin="round" stroke-miterlimit="10" d="M30.109,26.757
			c0.338,0.404,1.1,1.086,2.385,1.086c1.828,0,2.699-1.362,2.699-1.362s-2.096-9.289,1.012-9.271c0,0,1.27-0.299,1.207,3.355
			c0,0-0.393,5.875,2.609,7.54c0,0,0.521,0.307,0.479,0.921c0,0-0.158,1.84-1.176,4.339c0,0-1.26,3.859-1.088,6.271
			c0.176,2.411,1.611,6.576,1.611,6.576s-4.091,2.632-15.709-0.351c0,0,1.35-2.85,1.959-5.877c0.609-3.022-0.521-7.23-0.521-7.23
			s-0.695-1.579-1-3.508c0,0-0.174-0.701,0.348-1.008c0,0,1.869-1.535,2.523-4.34c0,0,0.479-2.237,0.566-3.026
			c0,0,0.412-3.896,1.707-3.512c2.602,0.773,0.391,9.396,0.391,9.396L30.109,26.757z"/>
	</g>
</g>
</svg>
