<?xml version="1.0" encoding="utf-8"?>
<!-- Generator: Adobe Illustrator 16.0.0, SVG Export Plug-In . SVG Version: 6.00 Build 0)  -->
<!DOCTYPE svg PUBLIC "-//W3C//DTD SVG 1.1//EN" "http://www.w3.org/Graphics/SVG/1.1/DTD/svg11.dtd">
<svg version="1.1" id="Layer_1" xmlns="http://www.w3.org/2000/svg" xmlns:xlink="http://www.w3.org/1999/xlink" x="0px" y="0px"
	 width="64px" height="64px" viewBox="0 0 64 64" enable-background="new 0 0 64 64" xml:space="preserve">
<g id="Track_Pant">
	<rect x="0.176" y="0.499" fill="#69B76B" width="63.647" height="64.13"/>
	<g id="_x34_42">
		<path fill="none" stroke="#FFFFFF" stroke-linecap="round" stroke-linejoin="round" stroke-miterlimit="10" d="M32.031,24.9
			c0.035,0.054,0.147,0.227,0.183,0.287c2.72,4.586,3.862,23.312,3.862,23.312c2.523,0.089,4.326-0.319,4.326-0.319l-1.398-17.44
			l-1.125-12.854l0.031-1.266c0,0-1.789,0.858-5.801,0.948h-0.215c-4.013-0.09-5.779-0.948-5.779-0.948l0.009,1.266l-1.127,12.854
			l-1.399,17.44c0,0,1.802,0.408,4.327,0.319c0,0,1.142-18.726,3.859-23.312c0.035-0.061,0.149-0.233,0.184-0.287H32.031z"/>
	</g>
</g>
</svg>
