<?xml version="1.0" encoding="utf-8"?>
<!-- Generator: Adobe Illustrator 16.0.0, SVG Export Plug-In . SVG Version: 6.00 Build 0)  -->
<!DOCTYPE svg PUBLIC "-//W3C//DTD SVG 1.1//EN" "http://www.w3.org/Graphics/SVG/1.1/DTD/svg11.dtd">
<svg version="1.1" id="Layer_1" xmlns="http://www.w3.org/2000/svg" xmlns:xlink="http://www.w3.org/1999/xlink" x="0px" y="0px"
	 width="64px" height="64px" viewBox="0 0 64 64" enable-background="new 0 0 64 64" xml:space="preserve">
<g id="Tunic_Dress">
	<rect x="0.176" y="-0.038" fill="#EC5451" width="63.647" height="64.13"/>
	<g>
		<path fill="none" stroke="#FFFFFF" stroke-linecap="round" stroke-linejoin="round" stroke-miterlimit="10" d="M35.771,16.146
			c0,0-0.198,1.082-0.43,1.353c-0.232,0.27-0.604,1.43-3.068,1.492c-2.198,0.053-3.04-1.385-3.04-1.385s-0.786-1.028-0.947-2.558
			c0,0-1.669,0.464-2.16,0.702c0,0,1.215,1.079,0.571,5.185c0,0,0.31,0.695,0.548,2.568l0.43,2.881c0,0-0.238,0.623-0.287,1.776
			c0,0-0.954,1.201-2.764,10.226c0,0-1.143,7.681-1.523,8.835c0,0,0.38,0.334,1.286,0.479c0.906,0.145,2.191-0.047,2.383,0.335
			v0.338c0,0,2.334,0.337,2.906,0c0,0,1-0.183,1.477,0.147v0.379c0,0,2.86,0.336,2.954-0.189c0,0,1.24-0.289,1.478-0.195
			l2.824-0.274v-0.166l2.487-0.411c0,0-1.226-7.389-1.764-11.064c0,0-0.857-5.833-2.32-8.748c0,0,0.104-0.254-0.127-0.54
			c0,0-0.16-1.009-0.088-1.315l0.59-3.364c0,0,0.393-1.397,0.57-1.521c0,0-0.688-3.185,0.354-5.6l-2.377-0.459
			C35.734,15.049,35.866,15.7,35.771,16.146z"/>
		<polygon fill="none" stroke="#FFFFFF" stroke-linecap="round" stroke-linejoin="round" stroke-miterlimit="10" points="
			36.584,26.77 36.098,26.949 35.807,26.823 36.584,26.385 		"/>
		<path fill="none" stroke="#FFFFFF" stroke-linecap="round" stroke-linejoin="round" stroke-miterlimit="10" d="M27.033,28.914
			c0.236-0.602,0.357-0.753,0.357-0.753c0.048-1.153,0.287-1.776,0.287-1.776s6.313,0.023,7.241,0.564c0,0,0.59-0.36,1.18,0
			l0.678,7.813l-3.213,2.051l0.508-4.378c-0.322,0.145-3.14,0.518-3.14,0.518l1.512-4.038H27.033z"/>
		<path fill="none" stroke="#FFFFFF" stroke-linecap="round" stroke-linejoin="round" stroke-miterlimit="10" d="M32.441,28.914
			l-1.512,4.038c0,0,2.932-0.408,3.254-0.554l0.733-5.449C33.738,26.949,32.441,28.914,32.441,28.914z"/>
		<path fill="none" stroke="#FFFFFF" stroke-linecap="round" stroke-linejoin="round" stroke-miterlimit="10" d="M34.917,26.949
			c0,0,0.59-0.36,1.179,0l0.678,7.813l-3.213,2.051L34.917,26.949z"/>
		<path fill="none" stroke="#FFFFFF" stroke-linecap="round" stroke-linejoin="round" stroke-miterlimit="10" d="M34.917,26.949
			c-0.927-0.541-7.241-0.564-7.241-0.564s-0.238,0.623-0.287,1.776c0,0-0.121,0.151-0.357,0.753h5.408
			C32.441,28.914,33.738,26.949,34.917,26.949z"/>
		<path fill="none" stroke="#FFFFFF" stroke-linecap="round" stroke-linejoin="round" stroke-miterlimit="10" d="M30.677,26.452
			c1.008,0.04,2.085,0.104,2.916,0.204c-0.046-2.252,0.185-7.892,0.185-7.892c-0.387,0.125-0.877,0.211-1.502,0.227
			c-0.643,0.015-1.17-0.097-1.594-0.264l0,0C30.68,18.728,30.818,25.04,30.677,26.452z"/>
		
			<circle fill="none" stroke="#FFFFFF" stroke-linecap="round" stroke-linejoin="round" stroke-miterlimit="10" cx="32.162" cy="22.688" r="0.171"/>
		
			<circle fill="none" stroke="#FFFFFF" stroke-linecap="round" stroke-linejoin="round" stroke-miterlimit="10" cx="32.163" cy="25.1" r="0.171"/>
		<path fill="none" stroke="#FFFFFF" stroke-linecap="round" stroke-linejoin="round" stroke-miterlimit="10" d="M32.333,20.607
			c0,0.098-0.077,0.175-0.17,0.175c-0.093,0-0.171-0.077-0.171-0.175c0-0.093,0.078-0.17,0.171-0.17
			C32.256,20.437,32.333,20.515,32.333,20.607z"/>
		<path fill="none" stroke="#FFFFFF" stroke-linecap="round" stroke-linejoin="round" stroke-miterlimit="10" d="M30.677,26.452
			c0.142-1.412,0.003-7.725,0.003-7.725l0,0h-0.001c-1.023-0.401-1.444-1.121-1.444-1.121s-0.786-1.028-0.947-2.558
			c0,0-1.669,0.464-2.16,0.702c0,0,1.215,1.079,0.571,5.185c0,0,0.31,0.695,0.548,2.568l0.43,2.881
			C27.677,26.385,29.079,26.389,30.677,26.452z"/>
		<path fill="none" stroke="#FFFFFF" stroke-linecap="round" stroke-linejoin="round" stroke-miterlimit="10" d="M36.541,26.385
			l-0.777,0.438v0.001c-0.479-0.126-0.89,0.125-0.89,0.125c-0.21-0.123-0.697-0.218-1.324-0.293
			c-0.048-2.252,0.185-7.892,0.185-7.892c1.142-0.366,1.392-1.064,1.564-1.266c0.23-0.271,0.43-1.353,0.43-1.353
			c0.095-0.446-0.037-1.098-0.037-1.098l2.375,0.459c-1.039,2.415-0.353,5.6-0.353,5.6c-0.178,0.124-0.569,1.521-0.569,1.521
			l-0.59,3.364C36.531,26.093,36.527,26.194,36.541,26.385z"/>
		<path fill="none" stroke="#FFFFFF" stroke-linecap="round" stroke-linejoin="round" stroke-miterlimit="10" d="M31.154,28.914
			v7.611c-1.012,8.365,0,11.994,0,11.994c-0.476-0.33-1.477-0.147-1.477-0.147c-0.572,0.337-2.906,0-2.906,0v-0.338v0.338
			c0,0,0.608-10.049,1.108-14.799l0.734-4.659H31.154z"/>
		<path fill="none" stroke="#FFFFFF" stroke-linecap="round" stroke-linejoin="round" stroke-miterlimit="10" d="M28.613,28.914
			l-0.734,4.659c-0.5,4.75-1.108,14.799-1.108,14.799v-0.338c-0.191-0.382-1.477-0.19-2.383-0.335
			c-0.905-0.145-1.286-0.479-1.286-0.479c0.38-1.154,1.523-8.835,1.523-8.835c1.167-5.817,1.978-8.385,2.407-9.473L28.613,28.914
			L28.613,28.914z"/>
		<path fill="none" stroke="#FFFFFF" stroke-linecap="round" stroke-linejoin="round" stroke-miterlimit="10" d="M34.107,36.464"/>
		<polygon fill="none" stroke="#FFFFFF" stroke-linecap="round" stroke-linejoin="round" stroke-miterlimit="10" points="
			32.441,28.914 31.154,32.353 31.154,28.914 		"/>
		<path fill="none" stroke="#FFFFFF" stroke-linecap="round" stroke-linejoin="round" stroke-miterlimit="10" d="M34.107,48.709
			c-0.094,0.525-2.954,0.189-2.954,0.189V48.52c0,0-1.012-3.629,0-11.994l0.028-3.608c0.718-0.103,2.738-0.399,3.001-0.519
			l-0.623,4.415l0.547-0.35l0.008,0.014C34.116,36.477,34.441,46.484,34.107,48.709z"/>
		<path fill="none" stroke="#FFFFFF" stroke-linecap="round" stroke-linejoin="round" stroke-miterlimit="10" d="M38.409,48.072
			v0.166l-2.824,0.273c-0.237-0.093-1.478,0.196-1.478,0.196c0.334-2.226,0.009-12.231,0.009-12.231l2.356-1.521
			c0.211,1.605,0.957,3.029,1.023,4.943C37.496,39.898,37.682,45.999,38.409,48.072z"/>
		<path fill="none" stroke="#FFFFFF" stroke-linecap="round" stroke-linejoin="round" stroke-miterlimit="10" d="M36.061,26.656
			l0.713,8.105c0,0-0.301,0.194-0.301,0.193c0.211,1.605,0.957,3.029,1.023,4.943c0,0,0.186,6.1,0.913,8.172l2.487-0.41
			c0,0-1.226-7.389-1.764-11.064c0,0-0.857-5.833-2.32-8.748c0,0,0.104-0.254-0.127-0.54c0,0-0.082-0.521-0.103-0.929L36.061,26.656
			z"/>
	</g>
</g>
</svg>
