<?xml version="1.0" encoding="utf-8"?>
<!-- Generator: Adobe Illustrator 16.0.0, SVG Export Plug-In . SVG Version: 6.00 Build 0)  -->
<!DOCTYPE svg PUBLIC "-//W3C//DTD SVG 1.1//EN" "http://www.w3.org/Graphics/SVG/1.1/DTD/svg11.dtd">
<svg version="1.1" id="Layer_1" xmlns="http://www.w3.org/2000/svg" xmlns:xlink="http://www.w3.org/1999/xlink" x="0px" y="0px"
	 width="64px" height="64px" viewBox="0 0 64 64" enable-background="new 0 0 64 64" xml:space="preserve">
<g id="Woman_x2019_s_Dress">
	<rect x="0.176" y="0.334" fill="#69B76B" width="63.647" height="64.13"/>
	<g>
		<path fill="none" stroke="#FFFFFF" stroke-linecap="round" stroke-linejoin="round" stroke-miterlimit="10" d="M36.671,28.143
			c0,0,0.104-0.253-0.127-0.541c0,0-0.16-1.008-0.09-1.314l0.59-3.366c0,0,0.394-1.396,0.569-1.52c0,0-0.713-2.981,0.253-5.356
			l-0.375-0.359l-1.9-0.343c0,0,0.134,0.651,0.037,1.098c0,0-0.196,1.082-0.43,1.353c-0.232,0.27-0.603,1.43-3.066,1.492
			c-2.199,0.053-3.041-1.386-3.041-1.386s-0.786-1.027-0.947-2.557l-1.355,0.413c0,0-0.482-0.18-0.805,0.289
			c0,0,1.217,1.08,0.571,5.185c0,0,0.31,0.695,0.548,2.568l0.431,2.88c0,0-0.238,0.624-0.287,1.776l-1.208,3.438
			c0,0,1.54,3.039,3.42,2.091c1.879-0.945,1.896,1.69,4.238,0.183c2.338-1.507,2.854,0.849,4.758-1.845L36.671,28.143z"/>
		<path fill="none" stroke="#FFFFFF" stroke-linecap="round" stroke-linejoin="round" stroke-miterlimit="10" d="M42.604,42.37
			c0,0,3.392,3.674,1.513,5.028l-4.923,0.978v0.19l-3.268,0.317c-0.275-0.106-1.709,0.228-1.709,0.228
			c-0.111,0.609-3.419,0.222-3.419,0.222v-0.438c-0.551-0.385-1.709-0.174-1.709-0.174c-0.66,0.393-3.363,0-3.363,0v-0.39
			c-0.222-0.442-2.592-0.438-3.64-0.604c-1.047-0.168-1.487-0.555-1.487-0.555c-3.222-1.25,0.637-5.945,0.637-5.945l0.232-0.187
			c0.022-1.907,2.409-4.077,2.409-4.077l0,0c-0.32-1.975,1.916-5.11,1.916-5.11c0.052-0.075,0.245,0.039,0.245,0.039l1.208-3.438
			c0.049-1.152,0.287-1.776,0.287-1.776l-0.431-2.88c-0.238-1.873-0.548-2.568-0.548-2.568c0.646-4.104-0.571-5.185-0.571-5.185
			c0.322-0.469,0.805-0.289,0.805-0.289l1.355-0.413c0.161,1.529,0.947,2.557,0.947,2.557s0.842,1.438,3.041,1.386
			c2.465-0.063,2.833-1.223,3.066-1.492c0.232-0.271,0.43-1.353,0.43-1.353c0.096-0.446-0.037-1.098-0.037-1.098l1.9,0.343
			l0.375,0.359c-0.965,2.375-0.252,5.356-0.252,5.356c-0.178,0.124-0.57,1.52-0.57,1.52l-0.59,3.366
			c-0.07,0.307,0.09,1.314,0.09,1.314c0.23,0.288,0.127,0.541,0.127,0.541l1.783,4.179c0,0,3.104,3.082,2.205,4.764
			c0,0,2.152,1.668,2.094,4.733c-0.004,0.22-0.049,0.392-0.129,0.522L42.604,42.37z"/>
		<path fill="none" stroke="#FFFFFF" stroke-linecap="round" stroke-linejoin="round" stroke-miterlimit="10" d="M26.039,31.893
			c0,0,1.54,3.039,3.42,2.091c1.879-0.945,1.896,1.69,4.238,0.183c2.338-1.507,2.854,0.849,4.758-1.845c0,0,3.82,3.793,1.758,5.262
			c-1.078,0.766-2.045,0.268-3.467,0.874c-1.424,0.606-0.918,0.271-2.859,0.676c-1.94,0.404-1.473,0.202-2.341,0.202
			c-0.869,0-1.606,0.27-2.743,0c-1.138-0.271-0.444-0.457-1.781-0.457c-1.34,0-2.166-0.622-2.166-0.622
			c-2.725-1.266,0.939-6.402,0.939-6.402L26.039,31.893z"/>
		<path fill="none" stroke="#FFFFFF" stroke-linecap="round" stroke-linejoin="round" stroke-miterlimit="10" d="M23.877,36.964
			c0.107,0.511,0.415,1.032,0.977,1.292c0,0,0.826,0.622,2.166,0.622c1.337,0,0.644,0.187,1.781,0.457c1.137,0.271,1.874,0,2.743,0
			s0.401,0.202,2.341-0.202c1.941-0.404,1.436-0.068,2.859-0.676c1.422-0.605,2.389-0.107,3.467-0.874
			c0.203-0.146,0.35-0.313,0.447-0.498c0,0,2.172,1.765,2.094,4.733c-0.045,1.769-2.719,0.355-4.613,1.164
			c-1.893,0.808-1.223,0.357-3.803,0.896c-2.581,0.537-1.958,0.27-3.116,0.27c-1.158,0-2.136,0.358-3.65,0
			c-1.513-0.358-1.027-0.668-2.809-0.668c-1.778,0-2.443-0.768-2.443-0.768C19.739,40.745,23.877,36.964,23.877,36.964z"/>
		<path fill="none" stroke="#FFFFFF" stroke-linecap="round" stroke-linejoin="round" stroke-miterlimit="10" d="M21.236,41.227
			c0,0-3.858,4.696-0.637,5.946c0,0,0.44,0.388,1.487,0.556c1.048,0.166,3.418,0.16,3.64,0.604v0.391c0,0,2.703,0.392,3.363,0
			c0,0,1.158-0.212,1.709,0.174v0.438c0,0,3.308,0.389,3.419-0.221c0,0,1.434-0.336,1.709-0.229l3.268-0.316v-0.191l4.923-0.977
			c1.879-1.355-1.513-5.029-1.513-5.029c-0.567,0.926-2.807-0.094-4.465,0.611c-1.893,0.809-1.223,0.358-3.803,0.897
			c-2.581,0.537-1.958,0.269-3.116,0.269c-1.158,0-2.136,0.359-3.65,0c-1.513-0.357-1.027-0.668-2.809-0.668
			c-1.778,0-2.443-0.767-2.443-0.767c-0.625-0.478-0.856-1.063-0.847-1.673L21.236,41.227z"/>
	</g>
</g>
</svg>
