<?xml version="1.0" encoding="utf-8"?>
<!-- Generator: Adobe Illustrator 16.0.0, SVG Export Plug-In . SVG Version: 6.00 Build 0)  -->
<!DOCTYPE svg PUBLIC "-//W3C//DTD SVG 1.1//EN" "http://www.w3.org/Graphics/SVG/1.1/DTD/svg11.dtd">
<svg version="1.1" id="Layer_1" xmlns="http://www.w3.org/2000/svg" xmlns:xlink="http://www.w3.org/1999/xlink" x="0px" y="0px"
	 width="64px" height="64px" viewBox="0 0 64 64" enable-background="new 0 0 64 64" xml:space="preserve">
<g id="Woman_x2019_s_Collared_T-shirt">
	<rect x="0.496" y="0.207" fill="#53A1D8" width="63.648" height="64.13"/>
	<g>
		<g>
			<path fill="none" stroke="#FFFFFF" stroke-linecap="round" stroke-linejoin="round" stroke-miterlimit="10" d="M40.381,35.859
				c0,0,2.652,4.14,1.691,11.58c-11.086,3.221-18.889-0.045-18.889-0.045c-1.223-6.611,1.383-10.525,2.008-12.293
				c0.627-1.769-0.469-3.631-0.469-3.631c-1.371-1.812-0.865-4.216-0.865-4.216c0.07-0.75,0.07-1.354,0.07-1.354l-0.523,1.354
				c0,0-3.129,0.301-4.172-0.601c0.297-2.103,1.492-5.938,1.713-6.611c0.227-0.679,0.746-1.202,1.643-1.729
				c0.896-0.523,1.789-0.826,2.533-0.901c0.748-0.075,1.344,0,1.719-0.374c0.373-0.378,1.117-1.355,1.117-1.355
				s1.102,2.162,1.625,2.613c0.521,0.451,2.553,1.295,3.969,0.993c1.414-0.3,2.457-0.976,2.758-1.577
				c0.299-0.599,0.371-1.652,0.371-1.652l1.344,1.126c0,0,1.564,0.227,2.537,0.227c0.969,0,2.76,0.451,3.058,1.655
				c0.297,1.2,1.715,7.511,1.789,7.886c0.073,0.378-1.789,1.353-3.654,1.054c-0.596-0.225-0.596-0.225-0.596-0.225
				s-0.312-1.611-0.238-0.546c0.008,0.127,0.168,0.63,0.142,1.047c0,0,0.086,1.736-1.101,3.408
				C39.018,33.02,40.381,35.859,40.381,35.859z"/>
		</g>
		
			<rect x="32.322" y="19.479" fill="none" stroke="#FFFFFF" stroke-linecap="round" stroke-linejoin="round" stroke-miterlimit="10" width="1.295" height="6.816"/>
		<path fill="none" stroke="#FFFFFF" stroke-linecap="round" stroke-linejoin="round" stroke-miterlimit="10" d="M38.023,17.187
			c0,0,0.479,2.672-2.902,4.187c0,0-0.125-2.194-2.068-1.894h-0.729c-1.672-0.379-1.898,1.894-1.898,1.894
			c-3.008-1.23-3.439-4.49-3.439-4.49l0.973-1.199c0,0,1.102,2.162,1.625,2.613c0.521,0.451,2.553,1.295,3.969,0.993
			c1.414-0.3,2.457-0.976,2.758-1.577c0.299-0.599,0.371-1.652,0.371-1.652L38.023,17.187z"/>
		<path fill="none" stroke="#FFFFFF" stroke-linecap="round" stroke-linejoin="round" stroke-miterlimit="10" d="M33.551,19.29
			c1.414-0.3,2.457-0.976,2.758-1.577c0.299-0.599,0.371-1.652,0.371-1.652l1.344,1.126c0,0,0.479,2.672-2.901,4.187
			c0,0-0.125-2.194-2.067-1.894v-0.128L33.551,19.29z"/>
		<path fill="none" stroke="#FFFFFF" stroke-linecap="round" stroke-linejoin="round" stroke-miterlimit="10" d="M32.322,19.479
			c-1.672-0.379-1.898,1.894-1.898,1.894c-3.008-1.23-3.439-4.49-3.439-4.49l0.973-1.199c0,0,1.102,2.162,1.625,2.613
			c0.391,0.338,1.627,0.896,2.816,1.028L32.322,19.479z"/>
	</g>
</g>
</svg>
