<?xml version="1.0" encoding="utf-8"?>
<!-- Generator: Adobe Illustrator 16.0.0, SVG Export Plug-In . SVG Version: 6.00 Build 0)  -->
<!DOCTYPE svg PUBLIC "-//W3C//DTD SVG 1.1//EN" "http://www.w3.org/Graphics/SVG/1.1/DTD/svg11.dtd">
<svg version="1.1" id="Layer_1" xmlns="http://www.w3.org/2000/svg" xmlns:xlink="http://www.w3.org/1999/xlink" x="0px" y="0px"
	 width="64px" height="64px" viewBox="0 0 64 64" enable-background="new 0 0 64 64" xml:space="preserve">
<g id="Woman_x2019_s_T-shirt">
	<rect x="0.176" y="-0.171" fill="#795CA6" width="63.647" height="64.13"/>
	<g>
		<g>
			<path fill="none" stroke="#FFFFFF" stroke-linecap="round" stroke-linejoin="round" stroke-miterlimit="10" d="M36.525,15.844
				l1.177,1.2c0,0,1.565,0.226,2.536,0.226c0.97,0,2.76,0.452,3.057,1.655c0.298,1.2,1.715,7.513,1.79,7.886
				c0.074,0.378-1.79,1.354-3.653,1.055c-0.595-0.225-0.595-0.225-0.595-0.225s-0.312-1.613-0.241-0.548
				c0.01,0.129,0.17,0.632,0.141,1.048c0,0,0.087,1.736-1.098,3.409c-0.938,1.325,0.424,4.165,0.424,4.165s2.649,4.141,1.69,11.584
				c-11.087,3.219-18.89-0.049-18.89-0.049c-1.223-6.609,1.382-10.523,2.007-12.292c0.627-1.769-0.469-3.63-0.469-3.63
				c-1.372-1.813-0.865-4.216-0.865-4.216c0.072-0.751,0.072-1.354,0.072-1.354l-0.524,1.354c0,0-3.13,0.3-4.172-0.6
				c0.297-2.104,1.493-5.938,1.713-6.613c0.226-0.679,0.746-1.201,1.641-1.729c0.897-0.522,1.79-0.825,2.534-0.9
				c0.749-0.075,1.343,0,1.719-0.375c0.373-0.376,1.117-1.354,1.117-1.354S32.839,14.307,36.525,15.844z"/>
		</g>
		<path fill="none" stroke="#FFFFFF" stroke-linecap="round" stroke-linejoin="round" stroke-miterlimit="10" d="M36.525,15.844
			c-3.688-1.537-8.889-0.303-8.889-0.303s-0.094,2.482,4.362,2.482C31.999,18.023,35.282,18.306,36.525,15.844z"/>
	</g>
</g>
</svg>
