<?xml version="1.0" encoding="utf-8"?>
<!-- Generator: Adobe Illustrator 16.0.0, SVG Export Plug-In . SVG Version: 6.00 Build 0)  -->
<!DOCTYPE svg PUBLIC "-//W3C//DTD SVG 1.1//EN" "http://www.w3.org/Graphics/SVG/1.1/DTD/svg11.dtd">
<svg version="1.1" id="Layer_1" xmlns="http://www.w3.org/2000/svg" xmlns:xlink="http://www.w3.org/1999/xlink" x="0px" y="0px"
	 width="64px" height="64px" viewBox="0 0 64 64" enable-background="new 0 0 64 64" xml:space="preserve">
<g id="Woman_x2019_s_Coat">
	<rect x="0.176" y="-0.071" fill="#444444" width="63.647" height="64.129"/>
	<g>
		<path fill="none" stroke="#FFFFFF" stroke-linecap="round" stroke-linejoin="round" stroke-miterlimit="10" d="M31.972,43.454
			c-0.338,1.305-0.78,1.771-0.78,1.771l-0.216,0.058c-3.36,0.485-8.33-3.173-8.33-3.173c3.258-8.772,0.944-13.895,0.944-13.895
			l-4.33,11.18c-3.117,0.508-4.245-2.301-4.245-2.301l6.464-15.715l6.964-2.043l0.718-0.724c1.386,0.932,2.924,0.983,2.924,0.983
			h0.083c0,0,1.539-0.052,2.925-0.983l0.718,0.724l6.709,2.043l6.463,15.715c0,0-1.063,2.342-3.987,2.301L40.59,28.782
			c0,0-2.289,6.301,0.367,13.659c0,0-5.087,3.375-7.88,2.885C33.077,45.326,32.38,45.225,31.972,43.454L31.972,43.454z"/>
		<path fill="none" stroke="#FFFFFF" stroke-linecap="round" stroke-linejoin="round" stroke-miterlimit="10" d="M31.972,43.454
			c0.408,1.771,1.105,1.872,1.105,1.872c2.792,0.49,7.88-2.885,7.88-2.885c-2.656-7.358-0.367-13.659-0.367-13.659l4.406,10.612
			c2.925,0.039,3.986-2.302,3.986-2.302L42.52,21.378l-6.707-2.043l-0.719-0.724c0.564,6.153-2.754,13.546-2.754,13.546
			c-0.06,0.191-0.114,0.399-0.165,0.618c-0.636,2.808-0.499,7.651-0.499,7.651C31.678,41.723,31.81,42.752,31.972,43.454z"/>
		<path fill="none" stroke="#FFFFFF" stroke-linecap="round" stroke-linejoin="round" stroke-miterlimit="10" d="M32.34,32.158
			c-0.06,0.191-0.114,0.398-0.165,0.619c-4.497-2.146-6.652-8.495-6.652-8.495l1.127-0.259c0,0-0.673-1.529,1.258-4.53l0.535-0.157
			l0.718-0.724C29.162,18.612,28.489,27.454,32.34,32.158z"/>
		<path fill="none" stroke="#FFFFFF" stroke-linecap="round" stroke-linejoin="round" stroke-miterlimit="10" d="M35.096,18.612
			c0.563,6.153-2.755,13.546-2.755,13.546c-0.06,0.191-0.114,0.398-0.165,0.619c4.127-2.889,6.331-8.495,6.331-8.495l-1.127-0.259
			c0,0,0.72-1.578-1.21-4.579l-0.355-0.108L35.096,18.612z"/>
		<path fill="none" stroke="#FFFFFF" stroke-linecap="round" stroke-linejoin="round" stroke-miterlimit="10" d="M32.34,32.158
			c-3.851-4.704-3.179-13.546-3.179-13.546l-0.718,0.724l-6.964,2.043l-6.464,15.715c0,0,1.128,2.809,4.245,2.301l4.33-11.18
			c0,0,2.314,5.121-0.944,13.895c0,0,4.97,3.658,8.33,3.173l0.216-0.058c0,0,0.442-0.466,0.78-1.771
			c-0.162-0.702-0.294-1.731-0.295-3.024c0,0-0.137-4.846,0.499-7.652C32.226,32.559,32.28,32.35,32.34,32.158z"/>
		<path fill="none" stroke="#FFFFFF" stroke-linecap="round" stroke-linejoin="round" stroke-miterlimit="10" d="M29.162,18.612
			c0,0-0.672,8.842,3.179,13.546c0,0,3.318-7.393,2.755-13.546c-1.387,0.932-2.926,0.983-2.926,0.983h-0.083
			C32.086,19.596,30.548,19.544,29.162,18.612z"/>
	</g>
</g>
</svg>
