<?xml version="1.0" encoding="utf-8"?>
<!-- Generator: Adobe Illustrator 16.0.0, SVG Export Plug-In . SVG Version: 6.00 Build 0)  -->
<!DOCTYPE svg PUBLIC "-//W3C//DTD SVG 1.1//EN" "http://www.w3.org/Graphics/SVG/1.1/DTD/svg11.dtd">
<svg version="1.1" id="Layer_1" xmlns="http://www.w3.org/2000/svg" xmlns:xlink="http://www.w3.org/1999/xlink" x="0px" y="0px"
	 width="64px" height="64px" viewBox="0 0 64 64" enable-background="new 0 0 64 64" xml:space="preserve">
<g id="Woman_x2019_s_Shirt">
	<rect x="0.176" y="0.062" fill="#F0592F" width="63.647" height="64.129"/>
	<g>
		<path fill="none" stroke="#FFFFFF" stroke-linecap="round" stroke-linejoin="round" stroke-miterlimit="10" d="M48.143,41.839
			c0,0,0.418,1.183,0.713,2.406l-3.748,0.641c0,0-0.394-1.181-0.719-2.204h0.002l-4.043-12.636l0.59,14.84
			c-1.811,2.333-8.931,2.433-8.931,2.433c-7.661,0.236-8.877-2.433-8.877-2.433l0.537-14.84l-4.043,12.636
			c-0.328,1.023-0.722,2.204-0.722,2.204l-3.758-0.641c0.298-1.224,0.717-2.406,0.717-2.406l5.576-20.229l5.777-2.032l0.775-1.9
			c0,0,3.672-1.709,8.394,0l0.771,1.9l5.426,2.032l5.576,20.229H48.143z"/>
		<path fill="none" stroke="#FFFFFF" stroke-linecap="round" stroke-linejoin="round" stroke-miterlimit="10" d="M27.988,17.678
			c0,0,3.672-1.709,8.394,0l-2.241,2.678l-1.004,0.517l0.102,1.076l-1.022,2.715l-1.346-2.715l0.009-1.076l-0.65-0.517
			L27.988,17.678z"/>
		
			<circle fill="none" stroke="#FFFFFF" stroke-linecap="round" stroke-linejoin="round" stroke-miterlimit="10" cx="33.148" cy="40.873" r="0.117"/>
		<path fill="none" stroke="#FFFFFF" stroke-linecap="round" stroke-linejoin="round" stroke-miterlimit="10" d="M33.313,36.613
			c0,0.063-0.051,0.115-0.117,0.115c-0.064,0-0.117-0.053-0.117-0.115c0-0.068,0.053-0.119,0.117-0.119
			C33.262,36.494,33.313,36.545,33.313,36.613z"/>
		
			<circle fill="none" stroke="#FFFFFF" stroke-linecap="round" stroke-linejoin="round" stroke-miterlimit="10" cx="33.242" cy="32.938" r="0.117"/>
		
			<circle fill="none" stroke="#FFFFFF" stroke-linecap="round" stroke-linejoin="round" stroke-miterlimit="10" cx="33.404" cy="28.677" r="0.116"/>
		
			<circle fill="none" stroke="#FFFFFF" stroke-linecap="round" stroke-linejoin="round" stroke-miterlimit="10" cx="33.639" cy="24.699" r="0.117"/>
		<path fill="none" stroke="#FFFFFF" stroke-linecap="round" stroke-linejoin="round" stroke-miterlimit="10" d="M19.624,42.684
			c-0.328,1.022-0.722,2.203-0.722,2.203l-3.758-0.641c0.298-1.225,0.717-2.406,0.717-2.406L19.624,42.684z"/>
		<path fill="none" stroke="#FFFFFF" stroke-linecap="round" stroke-linejoin="round" stroke-miterlimit="10" d="M44.389,42.684
			c0.326,1.022,0.719,2.203,0.719,2.203l3.748-0.641c-0.295-1.225-0.713-2.406-0.713-2.406L44.389,42.684z"/>
		<polygon fill="none" stroke="#FFFFFF" stroke-linecap="round" stroke-linejoin="round" stroke-miterlimit="10" points="
			27.988,17.678 27.213,19.578 28.829,24.087 30.229,20.356 		"/>
		<polygon fill="none" stroke="#FFFFFF" stroke-linecap="round" stroke-linejoin="round" stroke-miterlimit="10" points="
			36.382,17.678 37.158,19.578 35.541,24.087 34.143,20.356 		"/>
		<path fill="none" stroke="#FFFFFF" stroke-linecap="round" stroke-linejoin="round" stroke-miterlimit="10" d="M32.317,47.311
			c1.387-0.051,7.037-0.381,8.621-2.424l-0.59-14.84l4.043,12.637h-0.002c0.326,1.022,0.719,2.203,0.719,2.203l3.748-0.641
			c-0.295-1.225-0.713-2.406-0.713-2.406h0.014l-5.577-20.23l-5.425-2.032l-0.772-1.9l-2.241,2.678l-1.004,0.517l0.102,1.076
			l-1.022,2.715C32.216,24.664,31.609,43.275,32.317,47.311z"/>
		<path fill="none" stroke="#FFFFFF" stroke-linecap="round" stroke-linejoin="round" stroke-miterlimit="10" d="M32.317,47.311
			c-0.708-4.033-0.101-22.646-0.101-22.646l-1.346-2.715l0.009-1.076l-0.65-0.517l-2.241-2.678l-0.775,1.9l-5.777,2.032
			L15.86,41.839c0,0-0.419,1.183-0.717,2.406l3.758,0.641c0,0,0.395-1.181,0.722-2.204l4.043-12.636l-0.537,14.84
			c0,0,1.216,2.669,8.877,2.433C32.007,47.318,32.02,47.323,32.317,47.311z"/>
		<path fill="none" stroke="#FFFFFF" stroke-linecap="round" stroke-linejoin="round" stroke-miterlimit="10" d="M36.382,17.678
			c-4.722-1.709-8.394,0-8.394,0l0.902,1.079c1.242-0.358,3.656-0.792,6.568,0.022L36.382,17.678z"/>
	</g>
</g>
</svg>
