<?xml version="1.0" encoding="utf-8"?>
<!-- Generator: Adobe Illustrator 16.0.0, SVG Export Plug-In . SVG Version: 6.00 Build 0)  -->
<!DOCTYPE svg PUBLIC "-//W3C//DTD SVG 1.1//EN" "http://www.w3.org/Graphics/SVG/1.1/DTD/svg11.dtd">
<svg version="1.1" id="Layer_1" xmlns="http://www.w3.org/2000/svg" xmlns:xlink="http://www.w3.org/1999/xlink" x="0px" y="0px"
	 width="64px" height="64px" viewBox="0 0 64 64" enable-background="new 0 0 64 64" xml:space="preserve">
<g id="Woman_x2019_s_Formal_Coat_x2F_Blazer">
	<rect x="0.496" y="0.307" fill="#77594A" width="63.648" height="64.13"/>
	<g>
		<g>
			<path fill="none" stroke="#FFFFFF" stroke-linecap="round" stroke-linejoin="round" stroke-miterlimit="10" d="M28.799,20.134"/>
			<path fill="none" stroke="#FFFFFF" stroke-linecap="round" stroke-linejoin="round" stroke-miterlimit="10" d="M48.645,39.575
				l0.979,2.626l-4.494,1.945l-1.017-2.701l-4.088-9.883c0,0-0.02,5.292,0.271,13.595l-6.269,0.562l-1.231,0.094
				c-0.748,0-0.707-0.711-0.707-0.711c-0.285,0.629-1.068,0.617-1.068,0.617l-6.318-0.227c-0.244-8.282-0.115-13.873-0.115-13.873
				l-4.006,9.883l-1.057,2.617l-4.506-1.936l1.096-2.609l7.174-17.595l5.486-1.846l0.732-0.737c0,0,1.838-1.048,6.037,0l0.731,0.737
				l5.486,1.846L48.645,39.575z"/>
			
				<circle fill="none" stroke="#FFFFFF" stroke-linecap="round" stroke-linejoin="round" stroke-miterlimit="10" cx="33.753" cy="35.481" r="0.157"/>
			
				<circle fill="none" stroke="#FFFFFF" stroke-linecap="round" stroke-linejoin="round" stroke-miterlimit="10" cx="33.596" cy="40.19" r="0.157"/>
			<polygon fill="none" stroke="#FFFFFF" stroke-linecap="round" stroke-linejoin="round" stroke-miterlimit="10" points="
				44.113,41.445 45.129,44.146 49.623,42.201 48.676,39.648 			"/>
			<polygon fill="none" stroke="#FFFFFF" stroke-linecap="round" stroke-linejoin="round" stroke-miterlimit="10" points="
				16.113,39.575 15.018,42.186 19.523,44.12 20.58,41.503 			"/>
			<path fill="none" stroke="#FFFFFF" stroke-linecap="round" stroke-linejoin="round" stroke-miterlimit="10" d="M32.088,45.102
				l-0.023-3.486c0,0,0.025-2.939,0.141-6.69l3.338-15.527l0.731,0.737l5.486,1.846l6.883,17.595l0.979,2.626l-4.494,1.946
				l-1.017-2.703l-4.088-9.882c0,0-0.02,5.291,0.271,13.595l-6.269,0.563l-1.231,0.092C32.047,45.813,32.088,45.102,32.088,45.102z"
				/>
			<path fill="none" stroke="#FFFFFF" stroke-linecap="round" stroke-linejoin="round" stroke-miterlimit="10" d="M32.205,34.924
				c0.889-3.452,5.336-7.289,5.336-7.289l-0.916-0.851l1.832-1.17l-2.182-5.48l-0.732-0.737L32.205,34.924z"/>
			<path fill="none" stroke="#FFFFFF" stroke-linecap="round" stroke-linejoin="round" stroke-miterlimit="10" d="M29.506,19.396
				l-0.732,0.737l-2.605,5.48l1.83,1.17l-0.916,0.851c0,0,4.258,3.749,5.148,7.201L29.506,19.396z"/>
			<path fill="none" stroke="#FFFFFF" stroke-linecap="round" stroke-linejoin="round" stroke-miterlimit="10" d="M32.23,34.836
				l-2.725-15.439l-0.732,0.737l-5.486,1.846l-7.174,17.595l-1.096,2.61l4.506,1.935l1.057-2.617l4.006-9.883
				c0,0-0.129,5.59,0.115,13.873l6.318,0.228c0,0,0.783,0.012,1.068-0.617L32.23,34.836z"/>
		</g>
		<path fill="none" stroke="#FFFFFF" stroke-linecap="round" stroke-linejoin="round" stroke-miterlimit="10" d="M35.543,19.396
			c-4.199-1.048-6.037,0-6.037,0l2.725,15.439l-0.025,0.088L35.543,19.396z"/>
	</g>
</g>
</svg>
