<?xml version="1.0" encoding="utf-8"?>
<!-- Generator: Adobe Illustrator 16.0.0, SVG Export Plug-In . SVG Version: 6.00 Build 0)  -->
<!DOCTYPE svg PUBLIC "-//W3C//DTD SVG 1.1//EN" "http://www.w3.org/Graphics/SVG/1.1/DTD/svg11.dtd">
<svg version="1.1" id="Layer_1" xmlns="http://www.w3.org/2000/svg" xmlns:xlink="http://www.w3.org/1999/xlink" x="0px" y="0px"
	 width="64px" height="64px" viewBox="0 0 64 64" enable-background="new 0 0 64 64" xml:space="preserve">
<g id="Woman_x2019_s_Top">
	<rect x="0.496" y="0.074" fill="#FFCA1C" width="63.648" height="64.13"/>
	<g>
		<path fill="none" stroke="#FFFFFF" stroke-linecap="round" stroke-linejoin="round" stroke-miterlimit="10" d="M25.818,21.583
			c0,0-0.367,3.631-2.879,4.291c0,0,2.074,1.981,1.311,5.943c0,0-3.275,9.682-2.949,13.203c0,0-0.197,1.961-0.961,3.392
			c0,0,0.518,0.68,2.596,0.351c2.078-0.33,3.281,0.99,4.699,0.551c1.42-0.439,1.201-0.261,3.168,0.09
			c1.964,0.351,1.42,0.422,3.494,0c2.074-0.422,2.949-0.199,4.586-0.199c1.639,0,2.414-0.025,3.506-0.576
			c1.092-0.548,1.914-0.672,1.914-0.672l-1.16-3.153c0,0,0.438-4.622-3.059-13.096c0,0-1.09-3.19,1.311-5.831
			c0,0-2.399-2.751-2.946-4.291l-3.277,1.761c0,0-0.096,1.195-2.758,1.525c0,0-2.402-0.066-2.689-1.429L25.818,21.583z"/>
		<path fill="none" stroke="#FFFFFF" stroke-linecap="round" stroke-linejoin="round" stroke-miterlimit="10" d="M24.418,30.276
			c0.059-2.937-1.479-4.402-1.479-4.402c2.512-0.66,2.879-4.291,2.879-4.291l3.904,1.857c0.287,1.362,2.689,1.429,2.689,1.429
			c2.662-0.33,2.758-1.525,2.758-1.525l3.276-1.761c0.548,1.54,2.947,4.291,2.947,4.291c-1.385,1.522-1.606,3.229-1.549,4.4
			c0,0-0.186,2.354-4.027,2.849c0,0-1.02,0.128-2.11-0.262c-1.19-0.586-2.99-0.061-2.99-0.061c-1.152,0.463-2.27,0.321-2.27,0.321
			C24.604,32.628,24.418,30.276,24.418,30.276z"/>
		<path fill="none" stroke="#FFFFFF" stroke-linecap="round" stroke-linejoin="round" stroke-miterlimit="10" d="M43.143,44.801
			l1.16,3.153c0,0-0.822,0.124-1.914,0.672c-1.092,0.551-1.867,0.576-3.506,0.576c-1.637,0-2.512-0.222-4.586,0.2
			c-2.074,0.421-1.529,0.35-3.494,0c-1.967-0.352-1.748-0.53-3.168-0.092c-1.418,0.44-2.621-0.881-4.699-0.55
			c-2.078,0.329-2.596-0.351-2.596-0.351c0.764-1.43,0.961-3.393,0.961-3.393s4.434,1.529,7.34,0.543
			c2.033-0.691,3.145,0.338,4.013,0.504c0,0,1.396,0.576,3.511,0c2.11-0.58,4.123,0.209,5.551-0.528
			C43.143,44.801,43.143,44.801,43.143,44.801z"/>
		<path fill="none" stroke="#FFFFFF" stroke-linecap="round" stroke-linejoin="round" stroke-miterlimit="10" d="M36.209,22.786
			l1.887-1.015c0,0,1.35-7.465-0.041-7.176c-1.393,0.289-1.775,2.3-1.891,8.082L36.209,22.786z"/>
		<path fill="none" stroke="#FFFFFF" stroke-linecap="round" stroke-linejoin="round" stroke-miterlimit="10" d="M28.119,22.677
			l-1.891-0.9h-0.002c0,0-1.391-7.47,0.002-7.181C27.621,14.885,28.004,16.896,28.119,22.677L28.119,22.677z"/>
	</g>
</g>
</svg>
