<?xml version="1.0" encoding="utf-8"?>
<!-- Generator: Adobe Illustrator 16.0.0, SVG Export Plug-In . SVG Version: 6.00 Build 0)  -->
<!DOCTYPE svg PUBLIC "-//W3C//DTD SVG 1.1//EN" "http://www.w3.org/Graphics/SVG/1.1/DTD/svg11.dtd">
<svg version="1.1" id="Layer_1" xmlns="http://www.w3.org/2000/svg" xmlns:xlink="http://www.w3.org/1999/xlink" x="0px" y="0px"
	 width="64px" height="64px" viewBox="0 0 64 64" enable-background="new 0 0 64 64" xml:space="preserve">
<g id="Woman_x2019_s_Sweater">
	<rect x="0.176" y="0.301" fill="#F79420" width="63.647" height="64.131"/>
	<g>
		<path fill="none" stroke="#FFFFFF" stroke-linecap="round" stroke-linejoin="round" stroke-miterlimit="10" d="M43.956,46.629
			c-0.504-0.189-4.75-18.651-4.75-18.651s-0.263-1.367-0.203-0.464c0.009,0.108,0.146,0.535,0.119,0.889
			c0,0,0.073,1.473-0.933,2.891c-0.797,1.124,0.359,3.533,0.359,3.533s2.248,3.512,1.436,9.825
			c-9.405,2.729-16.022-0.041-16.022-0.041c-1.037-5.605,1.172-8.928,1.702-10.426c0.532-1.5-0.398-3.08-0.398-3.08
			c-1.163-1.538-0.733-3.576-0.733-3.576c0.061-0.637,0.061-1.147,0.061-1.147l-4.551,20.396c0.381,0.857-0.59,2.053-0.59,2.053
			c-1.564,0.414-3.817-0.938-3.817-0.938s-0.161-2.084,0.98-2.08c0.253-1.783,5.261-23.07,5.447-23.645
			c0.192-0.574,0.633-1.018,1.393-1.466c0.761-0.444,1.518-0.7,2.149-0.764c0.549-0.056,1.002-0.772,1.32-0.967l0.001,0.001
			c-1.224-0.678,1.092-2.735,1.092-2.735s4.628-1.099,7.912,0.271l0.268,0.435c0.84,1.338,0.627,1.849,0.352,2.043l0.002,0.003
			c0,0,1.328,0.95,2.15,0.95s2.342,0.383,2.594,1.403c0.252,1.019,6.027,24.002,6.09,24.321c1.141-0.003,0.98,2.079,0.98,2.079
			s-2.254,1.354-3.816,0.938C44.548,48.682,43.575,47.486,43.956,46.629z"/>
		<path fill="none" stroke="#FFFFFF" stroke-linecap="round" stroke-linejoin="round" stroke-miterlimit="10" d="M16.616,45.813
			c-1.142-0.002-0.98,2.08-0.98,2.08s2.253,1.353,3.817,0.938c0,0,0.971-1.195,0.59-2.054C20.042,46.777,17.483,46.7,16.616,45.813z
			"/>
		<path fill="none" stroke="#FFFFFF" stroke-linecap="round" stroke-linejoin="round" stroke-miterlimit="10" d="M43.956,46.629
			c-0.381,0.857,0.592,2.053,0.592,2.053c1.563,0.414,3.815-0.938,3.815-0.938s0.16-2.082-0.979-2.079
			C47.445,45.984,44.982,47.021,43.956,46.629z"/>
		<path fill="none" stroke="#FFFFFF" stroke-linecap="round" stroke-linejoin="round" stroke-miterlimit="10" d="M36.548,18.986
			c0.275-0.194,0.488-0.705-0.353-2.043l-0.268-0.435c-3.281-1.369-7.911-0.271-7.911-0.271s-2.315,2.058-1.092,2.735
			c0.096,0.053,0.212,0.098,0.353,0.133c0,0,6.355-0.674,8.917,0C36.195,19.106,36.384,19.102,36.548,18.986z"/>
	</g>
</g>
</svg>
