<?xml version="1.0" encoding="utf-8"?>
<!-- Generator: Adobe Illustrator 16.0.0, SVG Export Plug-In . SVG Version: 6.00 Build 0)  -->
<!DOCTYPE svg PUBLIC "-//W3C//DTD SVG 1.1//EN" "http://www.w3.org/Graphics/SVG/1.1/DTD/svg11.dtd">
<svg version="1.1" id="Layer_1" xmlns="http://www.w3.org/2000/svg" xmlns:xlink="http://www.w3.org/1999/xlink" x="0px" y="0px"
	 width="64px" height="64px" viewBox="0 0 64 64" enable-background="new 0 0 64 64" xml:space="preserve">
<g id="Woman_x2019_s_Pant">
	<rect x="0.176" y="0.268" fill="#617F8F" width="63.647" height="64.13"/>
	<g id="_x34_63">
		<path fill="none" stroke="#FFFFFF" stroke-linecap="round" stroke-linejoin="round" stroke-miterlimit="10" d="M36.564,17.195
			l0.297,1.205c2.097,4.063,1.103,9.391,1.103,9.391c-0.264,2.744,0.313,5.172,0.313,5.172c1.781,4.273,1.52,13.768,1.52,13.768
			l-4.107,0.74c-0.582-1.543-0.711-6.119-0.711-6.119c-0.104-2.955-1.1-6.701-1.1-6.701c-0.521-4.749-1.949-8.451-1.949-8.451
			l-0.133,0.006c0,0-1.367,3.697-1.892,8.445c0,0-0.993,3.746-1.099,6.701c0,0-0.063,4.775-0.592,6.119l-3.991-0.752l-0.02,0.012
			c0,0-0.262-9.494,1.518-13.768c0,0,0.577-2.428,0.314-5.172c0,0-0.995-5.328,1.099-9.391l0.3-1.205h-0.003
			c1.354,1.468,4.077,1.469,4.432,1.469C35.436,18.4,36.564,17.195,36.564,17.195z"/>
	</g>
</g>
</svg>
