<?xml version="1.0" encoding="utf-8"?>
<!-- Generator: Adobe Illustrator 16.0.0, SVG Export Plug-In . SVG Version: 6.00 Build 0)  -->
<!DOCTYPE svg PUBLIC "-//W3C//DTD SVG 1.1//EN" "http://www.w3.org/Graphics/SVG/1.1/DTD/svg11.dtd">
<svg version="1.1" id="Layer_1" xmlns="http://www.w3.org/2000/svg" xmlns:xlink="http://www.w3.org/1999/xlink" x="0px" y="0px"
	 width="64px" height="64px" viewBox="0 0 64 64" enable-background="new 0 0 64 64" xml:space="preserve">
<g id="Woman_x2019_s_Jeans">
	<rect x="0.176" y="-0.104" fill="#F0592F" width="63.647" height="64.131"/>
	<path fill="none" stroke="#FFFFFF" stroke-linecap="round" stroke-linejoin="round" stroke-miterlimit="10" d="M32,31.961"/>
	<g>
		<path fill="none" stroke="#FFFFFF" stroke-linecap="round" stroke-linejoin="round" stroke-miterlimit="10" d="M27.379,15.354
			l-0.497,1.41c0,0-0.208,0.203-0.48,0.729c-0.392,0.758-0.917,2.188-1.145,4.651c-0.121,1.303-0.159,2.895-0.049,4.831
			c0,0,0.479,3.917-0.065,5.606c0,0-0.631,1.478-0.688,3.724c0,0-0.801,2.735-0.714,4.664c0,0-0.573,2.65-0.374,6.537
			c0,0,1.28,1.359,4.431,0.893c0,0,0.156-0.361,0.219-1.437c0,0,0.132-0.776,0.467-5.821l1.085-6.332c0,0,2-6.625,2.458-9.675
			c0,0,1.599,4.087,2.171,9.269c0,0,1.087,4.092,1.202,7.315c0,0-0.058,5.933,1.029,6.681c0,0,2.063,0.721,4.229-0.809
			c0,0,0.286-10.363-1.659-15.029c0,0-0.627-2.649-0.341-5.644c0,0,1.084-5.816-1.203-10.251l-0.325-1.313
			c0,0-1.232,1.313-5.132,1.602C32,16.955,28.855,16.952,27.379,15.354z"/>
		
			<circle fill="none" stroke="#FFFFFF" stroke-linecap="round" stroke-linejoin="round" stroke-miterlimit="10" cx="33.169" cy="18.189" r="0.051"/>
		<path fill="none" stroke="#FFFFFF" stroke-linecap="round" stroke-linejoin="round" stroke-miterlimit="10" d="M32.027,25.135
			c0-0.351,0-0.438-0.027-1.002"/>
		<path fill="none" stroke="#FFFFFF" stroke-linecap="round" stroke-linejoin="round" stroke-miterlimit="10" d="M26.396,17.507
			c0.275-0.536,0.487-0.743,0.487-0.743l0.497-1.41c1.476,1.599,4.62,1.602,4.62,1.602c3.898-0.288,5.132-1.602,5.132-1.602
			l0.325,1.313c0.143,0.277,0.273,0.559,0.391,0.846c-0.517,1.007-2.683,1.581-4.234,1.87c-0.932,0.175-1.641,0.246-1.641,0.246
			c-1.444-0.118-2.516-0.334-3.312-0.586C26.602,18.392,26.396,17.507,26.396,17.507z"/>
		<path fill="none" stroke="#FFFFFF" stroke-linecap="round" stroke-linejoin="round" stroke-miterlimit="10" d="M33.613,19.383
			C32.682,19.558,32,19.622,32,19.622c0,1.053,0.015,2.967,0,4.511C34.617,24.133,33.613,19.383,33.613,19.383z"/>
		
			<line fill="none" stroke="#FFFFFF" stroke-linecap="round" stroke-linejoin="round" stroke-miterlimit="10" x1="32" y1="16.951" x2="32" y2="19.622"/>
		<path fill="none" stroke="#FFFFFF" stroke-linecap="round" stroke-linejoin="round" stroke-miterlimit="10" d="M28.66,19.043
			c-2.058-0.651-2.264-1.536-2.264-1.536l0.007-0.014c-0.392,0.758-0.917,2.188-1.145,4.651
			C28.315,23.298,28.66,19.044,28.66,19.043L28.66,19.043z"/>
		<path fill="none" stroke="#FFFFFF" stroke-linecap="round" stroke-linejoin="round" stroke-miterlimit="10" d="M35.441,18.947
			c2.093-0.643,2.406-1.435,2.406-1.435l-0.008-0.014c0.393,0.757,0.834,2.13,1.026,4.674
			C35.809,23.328,35.441,18.947,35.441,18.947z"/>
	</g>
	<path fill="none" stroke="#FFFFFF" stroke-linecap="round" stroke-linejoin="round" stroke-miterlimit="10" d="M32,31.961"/>
	<path fill="none" stroke="#FFFFFF" stroke-linecap="round" stroke-linejoin="round" stroke-miterlimit="10" d="M32,31.961"/>
</g>
</svg>
