<?xml version="1.0" encoding="utf-8"?>
<!-- Generator: Adobe Illustrator 16.0.0, SVG Export Plug-In . SVG Version: 6.00 Build 0)  -->
<!DOCTYPE svg PUBLIC "-//W3C//DTD SVG 1.1//EN" "http://www.w3.org/Graphics/SVG/1.1/DTD/svg11.dtd">
<svg version="1.1" id="Layer_1" xmlns="http://www.w3.org/2000/svg" xmlns:xlink="http://www.w3.org/1999/xlink" x="0px" y="0px"
	 width="64px" height="64px" viewBox="0 0 64 64" enable-background="new 0 0 64 64" xml:space="preserve">
<g id="Women_x2019_s_Short">
	<rect x="0.496" y="0.272" fill="#EC3F7A" width="63.648" height="64.13"/>
	<g>
		<g id="_x34_52">
			<path fill="none" stroke="#FFFFFF" stroke-linecap="round" stroke-linejoin="round" stroke-miterlimit="10" d="M43.313,20.407
				v2.844l3.345,10.093l1.918,9.117l-6.382,1.668l-8.116,0.141l-1.734-8.662H32.3l-1.732,8.662L22.4,44.176l-6.334-1.716l1.92-9.117
				l3.342-10.093v-2.844C21.328,20.407,27.408,22.946,43.313,20.407z"/>
		</g>
		<path fill="none" stroke="#FFFFFF" stroke-linecap="round" stroke-linejoin="round" stroke-miterlimit="10" d="M43.313,23.186
			v-2.779c-15.903,2.539-21.983,0-21.983,0v2.844c0,0,2.6,2.17,10.572,2.17C31.9,25.421,40.307,25.356,43.313,23.186z"/>
		<g>
			<g>
				<path fill="none" stroke="#FFFFFF" stroke-linecap="round" stroke-linejoin="round" stroke-miterlimit="10" d="M31.74,24.121
					c0,0,0.596-2.279,2.283-1.246c0,0,0.422,2.35-2.124,2.545c-1.9,0.147-1.16,5.182-0.836,5.509"/>
				<path fill="none" stroke="#FFFFFF" stroke-linecap="round" stroke-linejoin="round" stroke-miterlimit="10" d="M32.021,25.13
					c0,0-0.564-3.289-2.213-1.923c0,0-0.053,2.068,2.227,2.197c1.105,0.063,0.84,4.42,1.441,5.052"/>
			</g>
		</g>
	</g>
</g>
</svg>
