<?xml version="1.0" encoding="utf-8"?>
<!-- Generator: Adobe Illustrator 16.0.0, SVG Export Plug-In . SVG Version: 6.00 Build 0)  -->
<!DOCTYPE svg PUBLIC "-//W3C//DTD SVG 1.1//EN" "http://www.w3.org/Graphics/SVG/1.1/DTD/svg11.dtd">
<svg version="1.1" id="Layer_1" xmlns="http://www.w3.org/2000/svg" xmlns:xlink="http://www.w3.org/1999/xlink" x="0px" y="0px"
	 width="64px" height="64px" viewBox="0 0 64 64" enable-background="new 0 0 64 64" xml:space="preserve">
<g id="Collared_T-shirt">
	
		<path fill="#D6E167" stroke="#494949" stroke-width="1.5" stroke-linecap="round" stroke-linejoin="round" stroke-miterlimit="10" d="
		M36.376,7.813C29.763,6.89,25.941,8.558,25.941,8.558l-2.16,2.015l-6.086,2.888c0,0-1.609,0.59-4.028,3.759l-5.804,8.758
		l7.523,6.339l2.58-2.74c0,0,0.428,8.705,0.428,27.94c0,0,6.734,0.81,13.093,0.701h0.288c6.358,0.108,13.091-0.701,13.091-0.701
		c0-19.235,0.43-27.94,0.43-27.94l2.579,2.74l7.521-6.339l-5.804-8.758c-2.42-3.169-4.026-3.759-4.026-3.759l-6.729-3.484
		L36.376,7.813z"/>
	
		<path fill="#DDDDDC" stroke="#494949" stroke-width="1.5" stroke-linecap="round" stroke-linejoin="round" stroke-miterlimit="10" d="
		M16.979,22.384c0,0,0.019,2.167,0.987,7.193"/>
	
		<path fill="#DDDDDC" stroke="#494949" stroke-width="1.5" stroke-linecap="round" stroke-linejoin="round" stroke-miterlimit="10" d="
		M46.314,22.384c0,0-0.021,2.167-0.989,7.193"/>
	
		<path fill="#B7B444" stroke="#494949" stroke-width="1.5" stroke-linecap="round" stroke-linejoin="round" stroke-miterlimit="10" d="
		M30.617,16.808c0,0,0.344-1.956,2.066-2.577c-0.709,3.809,0,14.491,0,14.491c-0.873,0.944-2.105,0.819-2.105,0.819V17.188
		L30.617,16.808z"/>
	
		<path fill="#B7B444" stroke="#494949" stroke-width="1.5" stroke-linecap="round" stroke-linejoin="round" stroke-miterlimit="10" d="
		M32.917,14.047c1.515-0.622,4.569-4.2,3.459-6.233l2.461,2.163c0,0,0.369,5.599-2.239,8.207c0,0-1.056-0.181-1.49-2.832
		C35.107,15.351,33.823,13.675,32.917,14.047z"/>
	
		<path fill="#B7B444" stroke="#494949" stroke-width="1.5" stroke-linecap="round" stroke-linejoin="round" stroke-miterlimit="10" d="
		M29.892,13.852c-1.828-1.828-4.358,3.875-4.358,3.875c-2.048-3.428-1.753-7.155-1.753-7.155l2.16-2.015
		c0,0,0.598,2.686,2.982,4.622C28.923,13.18,29.519,13.479,29.892,13.852z"/>
	
		<path fill="#B7B444" stroke="#494949" stroke-width="1.5" stroke-linecap="round" stroke-linejoin="round" stroke-miterlimit="10" d="
		M36.376,7.813c1.11,2.034-1.944,5.612-3.459,6.233c-1.577,0.67-2.3,2.761-2.3,2.761l-0.039,0.257l0.076-1.087
		c0.193-1.748-0.889-2.243-0.889-2.243l0.127,0.117c-0.373-0.373-0.969-0.672-0.969-0.672c-2.385-1.936-2.982-4.622-2.982-4.622
		S29.763,6.89,36.376,7.813z"/>
	
		<path fill="#B7B444" stroke="#494949" stroke-width="1.5" stroke-linecap="round" stroke-linejoin="round" stroke-miterlimit="10" d="
		M36.337,10.126c0.321-0.832,0.399-1.653,0.039-2.313C29.763,6.89,25.941,8.558,25.941,8.558s0.191,0.856,0.785,1.95
		C26.726,10.507,30.388,9.264,36.337,10.126z"/>
</g>
</svg>
