<?xml version="1.0" encoding="utf-8"?>
<!-- Generator: Adobe Illustrator 16.0.0, SVG Export Plug-In . SVG Version: 6.00 Build 0)  -->
<!DOCTYPE svg PUBLIC "-//W3C//DTD SVG 1.1//EN" "http://www.w3.org/Graphics/SVG/1.1/DTD/svg11.dtd">
<svg version="1.1" id="Layer_1" xmlns="http://www.w3.org/2000/svg" xmlns:xlink="http://www.w3.org/1999/xlink" x="0px" y="0px"
	 width="64px" height="64px" viewBox="0 0 64 64" enable-background="new 0 0 64 64" xml:space="preserve">
<g id="Frock">
	
		<path fill="#DD7236" stroke="#494949" stroke-width="1.5" stroke-linecap="round" stroke-linejoin="round" stroke-miterlimit="10" d="
		M28.693,54.885c2.017,1.555,7.795,0.186,7.795,0.186c2.658,1.563,5.728-0.262,6.188-0.979c3.505,1.821,6.539-3.132,6.539-3.132
		c-4.282-1.1-5.931-11.146-5.931-11.146c-0.85-5.146-3.328-8.169-4.006-8.875c-0.049-0.745,0.074-2.3,0.228-3.306
		c0.181-1.176,0.865-2.677,1.179-3.226c0.066-0.117,0.344-0.456,0.371-0.891c0.03-0.437-0.139-0.964-0.148-1.099
		c-0.073-1.115,0.253,0.572,0.253,0.572s0,0,0.629,0.236c1.969,0.313,3.935-0.708,3.856-1.103c-0.078-0.394-1.576-7.006-1.888-8.264
		c-0.315-1.261-2.206-1.733-3.227-1.733c-1.025,0-2.679-0.237-2.679-0.237l-1.42-1.179c0,0-0.074,1.104-0.392,1.731
		c-0.315,0.628-1.419,1.338-2.911,1.649c-1.496,0.317-3.639-0.565-4.188-1.04c-0.553-0.472-1.714-2.735-1.714-2.735
		s-0.787,1.024-1.181,1.419c-0.397,0.392-1.024,0.313-1.816,0.392c-0.785,0.08-1.726,0.396-2.673,0.943
		c-0.947,0.555-1.494,1.101-1.734,1.813c-0.231,0.706-1.493,4.722-1.807,6.925c1.101,0.944,4.404,0.631,4.404,0.631l0.553-1.418
		c0,0,0,0.632-0.077,1.418c-0.078,0.788,1.168,2.311,1.73,3.247c0.372,0.622,1.639,4.535,0.701,5.232l0,0
		c-1.9,1.696-4.446,9.958-4.446,9.958c-1.474,5.425-6.434,9.888-6.434,9.888c2.689,3.13,6.938,2.263,6.938,2.263
		C24.297,56.266,28.693,54.885,28.693,54.885z"/>
	
		<path fill="#F18543" stroke="#494949" stroke-width="1.5" stroke-linecap="round" stroke-linejoin="round" stroke-miterlimit="10" d="
		M25.331,30.917c0.938-0.697-0.329-4.61-0.701-5.232c-0.562-0.937-1.808-2.459-1.73-3.247c0.077-0.786,0.077-1.418,0.077-1.418
		l-0.553,1.418c0,0-3.303,0.313-4.404-0.631c0.314-2.203,1.576-6.219,1.807-6.925c0.241-0.712,0.788-1.258,1.734-1.813
		c0.947-0.548,1.888-0.863,2.673-0.943c0.792-0.079,1.418,0,1.816-0.392c0.394-0.395,1.181-1.419,1.181-1.419
		s1.161,2.264,1.714,2.735c0.548,0.475,2.692,1.357,4.188,1.04c1.492-0.312,2.596-1.021,2.911-1.649
		c0.317-0.627,0.392-1.731,0.392-1.731l1.42,1.179c0,0,1.653,0.237,2.679,0.237c1.021,0,2.911,0.473,3.228,1.733
		c0.312,1.258,1.809,7.87,1.887,8.264c0.078,0.395-1.887,1.416-3.856,1.103c-0.629-0.236-0.629-0.236-0.629-0.236
		s-0.326-1.688-0.253-0.572c0.01,0.135,0.179,0.662,0.148,1.099c-0.027,0.435-0.305,0.773-0.371,0.891
		c-0.313,0.549-0.998,2.05-1.179,3.226c-0.144,0.943-0.255,2.499-0.227,3.306c-2.271,1.103-4.515,1.57-6.331,1.701
		C28.268,32.971,25.331,30.917,25.331,30.917z"/>
	<path fill="none" stroke="#494949" stroke-width="1.5" stroke-linecap="round" stroke-linejoin="round" stroke-miterlimit="10" d="
		M39.279,30.938c0.678,0.705,3.158,3.729,4.006,8.875c0,0,1.648,10.047,5.931,11.146c0,0-3.034,4.953-6.539,3.132
		c-0.462,0.718-3.53,2.541-6.188,0.979c0,0-5.778,1.369-7.795-0.186c0,0-4.396,1.381-7.305-1.859c0,0-4.248,0.867-6.938-2.262
		c0,0,4.96-4.464,6.434-9.889c0,0,2.546-8.262,4.446-9.958c0,0,2.937,2.054,7.619,1.722C34.766,32.508,37.01,32.04,39.279,30.938z"
		/>
	<g>
		
			<path fill="#DDDDDC" stroke="#494949" stroke-width="1.5" stroke-linecap="round" stroke-linejoin="round" stroke-miterlimit="10" d="
			M32.313,20.162c0,0.03-0.021,0.051-0.049,0.051c-0.025,0-0.049-0.021-0.049-0.051c0-0.024,0.024-0.049,0.049-0.049
			C32.292,20.113,32.313,20.138,32.313,20.162z"/>
		
			<circle fill="#DDDDDC" stroke="#494949" stroke-width="1.5" stroke-linecap="round" stroke-linejoin="round" stroke-miterlimit="10" cx="32.264" cy="25.718" r="0.049"/>
	</g>
</g>
</svg>
