<?xml version="1.0" encoding="utf-8"?>
<!-- Generator: Adobe Illustrator 16.0.0, SVG Export Plug-In . SVG Version: 6.00 Build 0)  -->
<!DOCTYPE svg PUBLIC "-//W3C//DTD SVG 1.1//EN" "http://www.w3.org/Graphics/SVG/1.1/DTD/svg11.dtd">
<svg version="1.1" id="Layer_1" xmlns="http://www.w3.org/2000/svg" xmlns:xlink="http://www.w3.org/1999/xlink" x="0px" y="0px"
	 width="64px" height="64px" viewBox="0 0 64 64" enable-background="new 0 0 64 64" xml:space="preserve">
<g id="Hat_1_">
	<g>
		
			<path fill="#C69981" stroke="#494949" stroke-width="1.5" stroke-linecap="round" stroke-linejoin="round" stroke-miterlimit="10" d="
			M20.575,36.007c-5.633,1.767-9.258,3.817-8.979,5.377c0.418,2.349,9.497,2.693,20.281,0.773
			c10.783-1.918,19.188-5.378,18.77-7.726c-0.293-1.641-4.813-2.302-11.194-1.896c-0.873-2.419-2.298-5.938-3.632-7.337
			c0,0-0.907-1.354-3.391-1.675c0,0-0.408-0.069-1.322-0.018l-0.73-0.369c-3.927-1.403-6.362,0.387-6.362,0.387
			c-2.196,1.2-2.552,2.792-2.552,2.792C20.659,28.271,20.56,33.152,20.575,36.007L20.575,36.007z"/>
	</g>
	
		<path fill="#A87B69" stroke="#494949" stroke-width="1.5" stroke-linecap="round" stroke-linejoin="round" stroke-miterlimit="10" d="
		M40.529,35.682c0,0-0.563-1.718-1.078-3.146c-0.873-2.419-2.299-5.938-3.631-7.337c0,0-0.908-1.354-3.392-1.675
		c0,0-0.408-0.069-1.322-0.018l-0.73-0.369c-3.927-1.403-6.362,0.387-6.362,0.387c-2.196,1.2-2.552,2.792-2.552,2.792
		c-0.803,1.955-0.902,6.836-0.887,9.69c0.008,1.294,0.104,3.256,0.104,3.256c2.931-0.148,6.294-0.535,9.845-1.166
		C34.227,37.438,37.648,36.596,40.529,35.682z"/>
	<path fill="none" stroke="#494949" stroke-width="1.5" stroke-linecap="round" stroke-linejoin="round" stroke-miterlimit="10" d="
		M30.963,23.515c-1.093,0.064-2.706,0.294-4.514,0.998"/>
</g>
</svg>
