<?xml version="1.0" encoding="utf-8"?>
<!-- Generator: Adobe Illustrator 16.0.0, SVG Export Plug-In . SVG Version: 6.00 Build 0)  -->
<!DOCTYPE svg PUBLIC "-//W3C//DTD SVG 1.1//EN" "http://www.w3.org/Graphics/SVG/1.1/DTD/svg11.dtd">
<svg version="1.1" id="Layer_1" xmlns="http://www.w3.org/2000/svg" xmlns:xlink="http://www.w3.org/1999/xlink" x="0px" y="0px"
	 width="64px" height="64px" viewBox="0 0 64 64" enable-background="new 0 0 64 64" xml:space="preserve">
<g id="Hoodie">
	
		<path fill="#E55D59" stroke="#494949" stroke-width="1.5" stroke-linecap="round" stroke-linejoin="round" stroke-miterlimit="10" d="
		M12.446,49.984c0,0-1.054,2.127-0.826,2.695l3.743,0.68c0,0,0.661-1.418,1.011-2.502l0.266,0.06l4.955-15.365l0.17,18.212
		c0,0-0.099,1.648,1.075,2.31c0,0,0.034,0.379,0,1.761c0,0,5.559,2.216,18.389-0.316v-2.217c0.426-0.236,0.623-0.791,0.633-1.162
		l0.173-18.586l4.955,15.365l0.374-0.083l0,0c0.344,1.063,1.019,2.495,1.019,2.495l3.668-0.668c0.224-0.555-0.854-2.68-0.854-2.68
		l0.404-0.09l-6.832-24.602l-7.137-3.6l-0.393-0.908c4.421-2.877,2.669-5.395,2.669-5.395c-4.265-7.772-7.774-8.254-7.774-8.254
		c-3.574,1.375-7.426,8.666-7.426,8.666c-1.17,2.888,2.2,4.813,2.2,4.813l-0.017,1.105l-8.029,3.572l-6.832,24.603L12.446,49.984z"
		/>
	<path fill="none" stroke="#494949" stroke-width="1.5" stroke-linecap="round" stroke-linejoin="round" stroke-miterlimit="10" d="
		M31.673,55.87"/>
	<path fill="none" stroke="#494949" stroke-width="1.5" stroke-linecap="round" stroke-linejoin="round" stroke-miterlimit="10" d="
		M31.51,23.607"/>
	
		<path fill="#DDDDDC" stroke="#494949" stroke-width="1.5" stroke-linecap="round" stroke-linejoin="round" stroke-miterlimit="10" d="
		M31.956,27.204"/>
	
		<line fill="none" stroke="#494949" stroke-width="1.5" stroke-linecap="round" stroke-linejoin="round" stroke-miterlimit="10" x1="27.208" y1="43.249" x2="24.164" y2="48.546"/>
	
		<line fill="none" stroke="#494949" stroke-width="1.5" stroke-linecap="round" stroke-linejoin="round" stroke-miterlimit="10" x1="36.139" y1="43.249" x2="39.184" y2="48.546"/>
	<path fill="none" stroke="#494949" stroke-width="1.5" stroke-linecap="round" stroke-linejoin="round" stroke-miterlimit="10" d="
		M16.374,50.857l0.266,0.06l4.955-15.365l0.17,18.212c0,0-0.099,1.648,1.075,2.31c0.168,0.095,0.288,0.134,0.514,0.181
		c0,0,3.771,0.764,8.643,0.63c-0.867-4.903-0.041-29.679-0.041-29.679c-0.618-2.014-0.88-4.044-0.88-4.044
		c-0.401-1.516-4.169-2.547-4.169-2.547l-0.017,1.104l-8.029,3.572l-6.832,24.602l0.418,0.092"/>
	
		<path fill="#C4494F" stroke="#494949" stroke-width="1.5" stroke-linecap="round" stroke-linejoin="round" stroke-miterlimit="10" d="
		M16.374,50.857c-0.35,1.084-1.011,2.502-1.011,2.502l-3.743-0.68c-0.228-0.568,0.826-2.695,0.826-2.695l3.953,0.877L16.374,50.857z
		"/>
	
		<path fill="#C4494F" stroke="#494949" stroke-width="1.5" stroke-linecap="round" stroke-linejoin="round" stroke-miterlimit="10" d="
		M51.195,49.98c0,0,1.078,2.127,0.854,2.681l-3.668,0.668c0,0-0.675-1.433-1.018-2.495L51.195,49.98z"/>
	<path fill="none" stroke="#494949" stroke-width="1.5" stroke-linecap="round" stroke-linejoin="round" stroke-miterlimit="10" d="
		M40.249,55.682c-2.796,0.813-5.679,1.133-8.252,1.201c-0.867-4.902-0.041-29.679-0.041-29.679c1.479-1.554,1.597-3.597,1.597-3.597
		c0.516-1.701,3.686-2.824,3.686-2.824l0.393,0.908l7.137,3.6L51.6,49.893l-0.404,0.09c0,0,1.078,2.125,0.854,2.68l-3.668,0.668
		c0,0-0.675-1.434-1.019-2.495l0,0l-0.374,0.083l-4.955-15.365l-0.173,18.586c-0.01,0.371-0.207,0.926-0.633,1.162
		C40.854,55.508,40.249,55.682,40.249,55.682z"/>
	
		<path fill="#C4494F" stroke="#494949" stroke-width="1.5" stroke-linecap="round" stroke-linejoin="round" stroke-miterlimit="10" d="
		M22.839,56.072c0.168,0.095,0.288,0.134,0.514,0.181c0,0,3.771,0.763,8.643,0.63c2.574-0.068,5.456-0.388,8.252-1.201
		c0,0,0.604-0.174,0.979-0.382v2.218c-12.83,2.531-18.389,0.315-18.389,0.315C22.874,56.451,22.839,56.072,22.839,56.072z"/>
	
		<path fill="#C4494F" stroke="#494949" stroke-width="1.5" stroke-linecap="round" stroke-linejoin="round" stroke-miterlimit="10" d="
		M26.906,20.613c0,0,3.768,1.031,4.169,2.547c0,0,0.263,2.03,0.88,4.044c1.48-1.554,1.597-3.597,1.597-3.597
		c0.517-1.701,3.685-2.824,3.685-2.824c4.422-2.877,2.67-5.395,2.67-5.395c-4.266-7.772-7.774-8.254-7.774-8.254
		c-3.574,1.375-7.426,8.666-7.426,8.666C23.536,18.688,26.906,20.613,26.906,20.613z"/>
	<g>
		
			<path fill="none" stroke="#494949" stroke-width="1.5" stroke-linecap="round" stroke-linejoin="round" stroke-miterlimit="10" d="
			M28.075,16.28c0,0-0.687,1.515,0.825,3.166c1.514,1.65,3.384,1.658,3.431,4.162"/>
		
			<path fill="none" stroke="#494949" stroke-width="1.5" stroke-linecap="round" stroke-linejoin="round" stroke-miterlimit="10" d="
			M36.328,15.567c0,0,1.307,2.914,0,3.741c-1.305,0.822-4.469,2.256-3.996,6.688"/>
	</g>
	
		<path fill="#E55D59" stroke="#494949" stroke-width="1.5" stroke-linecap="round" stroke-linejoin="round" stroke-miterlimit="10" d="
		M40.123,17.315c-1.434-4.192-7.791-3.441-7.791-3.441c-7.71,0.756-7.87,3.095-7.87,3.095c-0.051-0.614,0.244-1.168,0.244-1.168
		s3.852-7.291,7.426-8.666c0,0,3.509,0.481,7.774,8.254C39.906,15.388,40.41,16.28,40.123,17.315z"/>
</g>
</svg>
