<?xml version="1.0" encoding="utf-8"?>
<!-- Generator: Adobe Illustrator 16.0.0, SVG Export Plug-In . SVG Version: 6.00 Build 0)  -->
<!DOCTYPE svg PUBLIC "-//W3C//DTD SVG 1.1//EN" "http://www.w3.org/Graphics/SVG/1.1/DTD/svg11.dtd">
<svg version="1.1" id="Layer_1" xmlns="http://www.w3.org/2000/svg" xmlns:xlink="http://www.w3.org/1999/xlink" x="0px" y="0px"
	 width="64px" height="64px" viewBox="0 0 64 64" enable-background="new 0 0 64 64" xml:space="preserve">
<g id="Jacket">
	
		<path fill="#72CACA" stroke="#494949" stroke-width="1.5" stroke-linecap="round" stroke-linejoin="round" stroke-miterlimit="10" d="
		M42.779,39.258c0,0,0.688,0.981,1.275,2.748c0.59,1.766-0.115,2.45,1.314,4.807c1.431,2.354-0.434,2.061,1.729,5.199
		c0,0,1.209,1.285,1.012,3.159c0,0,2.682,0.435,4.315-0.479c0,0-0.85-2.223,0-4.25c0,0,0.853,0-1.372-4.709
		c0,0,0.133-5.752-2.158-9.221c0,0,0.129-2.941-1.112-4.445c0,0-1.036-5.625-0.775-9.483c0,0,0.917-6.016-5.558-7.06
		c0,0,0.891-2.633-4.502-4.078c0,0-5.316-1.789-11.845,0.412c-6.121,2.066-4.318,3.468-4.219,4.351c0,0-5.591,0.197-4.903,7.65
		c0,0-0.901,6.302-0.157,7.969c0,0-2.162,2.751-1.32,4.098c0,0-1.195,2.646-0.998,4.021c0.196,1.375-1.668,2.791-1.668,7.259
		c0,3.433-2.157,2.451-0.589,5.101l-0.572,2.648c0,0,1.079,0.49,4.553,0c0,0-0.351-2.746,1.61-3.334c0,0,0.785-1.082,1.571-6.182
		c0.784-5.102,2.058-6.867,2.058-6.867s-0.174,4.642-0.761,10.789l-0.491,2.453c0,0,7.063,4.904,24.819,0.787v-2.453
		C44.034,50.146,43.424,44.313,42.779,39.258z"/>
	
		<path fill="#60A8A6" stroke="#494949" stroke-width="1.5" stroke-linecap="round" stroke-linejoin="round" stroke-miterlimit="10" d="
		M47.523,52.607c0.326,0.551,0.701,1.455,0.586,2.563c0,0,2.682,0.434,4.315-0.479c0,0-0.469-1.229-0.36-2.693
		c-2.715-0.864-4.539,0.609-4.539,0.609H47.523z"/>
	
		<path fill="#60A8A6" stroke="#494949" stroke-width="1.5" stroke-linecap="round" stroke-linejoin="round" stroke-miterlimit="10" d="
		M15.823,52.303c-0.803,1.018-0.595,2.65-0.595,2.65c-3.474,0.49-4.553,0-4.553,0l0.572-2.648
		C13.536,50.923,15.823,52.305,15.823,52.303z"/>
	<g>
		<g>
			
				<path fill="none" stroke="#494949" stroke-width="1.5" stroke-linecap="round" stroke-linejoin="round" stroke-miterlimit="10" d="
				M19.215,24.872c0,0,2.617,9.81,6.475,9.874"/>
			
				<path fill="none" stroke="#494949" stroke-width="1.5" stroke-linecap="round" stroke-linejoin="round" stroke-miterlimit="10" d="
				M25.69,38.867c0,0-2.093,6.257-4.316,7.453"/>
			
				<path fill="none" stroke="#494949" stroke-width="1.5" stroke-linecap="round" stroke-linejoin="round" stroke-miterlimit="10" d="
				M43.424,25.269c0,0-2.617,9.808-6.477,9.872"/>
			
				<path fill="none" stroke="#494949" stroke-width="1.5" stroke-linecap="round" stroke-linejoin="round" stroke-miterlimit="10" d="
				M36.947,38.867c0,0,2.094,6.257,4.316,7.453"/>
			
				<path fill="none" stroke="#494949" stroke-width="1.5" stroke-linecap="round" stroke-linejoin="round" stroke-miterlimit="10" d="
				M27.928,20.448c0,0,0.566,0.91,0,2.969c-0.569,2.06,0.361,3.386,0.509,4.316c0.146,0.934-0.051,2.109,0,2.355"/>
			
				<path fill="none" stroke="#494949" stroke-width="1.5" stroke-linecap="round" stroke-linejoin="round" stroke-miterlimit="10" d="
				M34.843,20.205c0,0-1.182,3.749-0.272,5.565c0.904,1.82,0.301,2.732,0.272,4.037"/>
			
				<path fill="none" stroke="#494949" stroke-width="1.5" stroke-linecap="round" stroke-linejoin="round" stroke-miterlimit="10" d="
				M20.467,38.57c0,0,0.859-5.354,1.985-6.181"/>
			
				<path fill="none" stroke="#494949" stroke-width="1.5" stroke-linecap="round" stroke-linejoin="round" stroke-miterlimit="10" d="
				M39.871,33.218c0,0,2.615,1.628,2.908,6.04"/>
		</g>
	</g>
	
		<path fill="#60A8A6" stroke="#494949" stroke-width="1.5" stroke-linecap="round" stroke-linejoin="round" stroke-miterlimit="10" d="
		M20.883,16.208c-0.1-0.883-1.902-2.284,4.219-4.351c6.529-2.201,11.845-0.412,11.845-0.412c5.393,1.445,4.502,4.078,4.502,4.078
		c-2.063,5.337-10.125,5.337-10.125,5.337C23.709,21.039,20.883,16.208,20.883,16.208z"/>
	
		<path fill="#60A8A6" stroke="#494949" stroke-width="1.5" stroke-linecap="round" stroke-linejoin="round" stroke-miterlimit="10" d="
		M35.064,12.576c0,0-3.096-0.584-7.281,0.266c0,0-7.66,0.909-3.016,4.834c0,0,3.6,3.183,6.557,3.185
		c2.932,0.002,6.814-4.252,6.814-4.252C40.538,13.483,35.064,12.576,35.064,12.576z"/>
	
		<path fill="#60A8A6" stroke="#494949" stroke-width="1.5" stroke-linecap="round" stroke-linejoin="round" stroke-miterlimit="10" d="
		M27.784,12.842c0,0-3.729,0.588,3.071,7.846c0,0,0.13,0.392,1.114,0c0,0,6.779-7.942,2.549-8.173
		C34.518,12.515,31.969,11.992,27.784,12.842z"/>
	
		<path fill="#60A8A6" stroke="#494949" stroke-width="1.5" stroke-linecap="round" stroke-linejoin="round" stroke-miterlimit="10" d="
		M19.215,51.813c0,0,7.063,4.904,24.819,0.787v-2.453C29.744,54.886,19.638,49.7,19.638,49.7L19.215,51.813z"/>
	<path fill="none" stroke="#494949" stroke-width="1.5" stroke-linecap="round" stroke-linejoin="round" stroke-miterlimit="10" d="
		M31.494,20.859c-7.614,0.18-10.61-4.651-10.61-4.651s-5.591,0.197-4.903,7.65c0,0-0.901,6.302-0.157,7.969
		c0,0-2.162,2.751-1.32,4.098c0,0-1.195,2.646-0.998,4.021c0.196,1.375-1.668,2.791-1.668,7.26c0,3.434-2.157,2.451-0.589,5.1
		l-0.572,2.649c0,0,1.079,0.489,4.553,0c0,0-0.351-2.746,1.61-3.334c0,0,0.785-1.082,1.571-6.183
		c0.784-5.101,2.058-6.867,2.058-6.867s-0.174,4.643-0.761,10.791l-0.491,2.453c0,0,3.683,2.559,12.415,2.429
		c0,0-0.646-12.825,0-14.919c0.645-2.092,0.271-4.577-0.169-7.65C31.023,28.601,31.494,20.859,31.494,20.859z"/>
	<path fill="none" stroke="#494949" stroke-width="1.5" stroke-linecap="round" stroke-linejoin="round" stroke-miterlimit="10" d="
		M41.449,15.523c6.475,1.044,5.558,7.06,5.558,7.06c-0.261,3.858,0.775,9.483,0.775,9.483c1.241,1.502,1.112,4.445,1.112,4.445
		c2.291,3.468,2.158,9.222,2.158,9.222c2.225,4.709,1.372,4.709,1.372,4.709c-0.85,2.026,0,4.25,0,4.25
		c-1.635,0.912-4.315,0.479-4.315,0.479c0.197-1.874-1.012-3.159-1.012-3.159c-2.162-3.14-0.298-2.846-1.729-5.2
		c-1.432-2.354-0.727-3.041-1.314-4.806c-0.589-1.767-1.275-2.748-1.275-2.748c0.645,5.056,1.255,10.89,1.255,10.89V52.6
		c-4.937,1.144-9.043,1.592-12.404,1.643c0,0-0.646-12.825,0-14.919c0.645-2.093,0.271-4.577-0.169-7.65
		c-0.44-3.073,0.032-10.813,0.032-10.813C30.875,20.859,39.327,21.02,41.449,15.523z"/>
</g>
</svg>
