<?xml version="1.0" encoding="utf-8"?>
<!-- Generator: Adobe Illustrator 16.0.0, SVG Export Plug-In . SVG Version: 6.00 Build 0)  -->
<!DOCTYPE svg PUBLIC "-//W3C//DTD SVG 1.1//EN" "http://www.w3.org/Graphics/SVG/1.1/DTD/svg11.dtd">
<svg version="1.1" id="Layer_1" xmlns="http://www.w3.org/2000/svg" xmlns:xlink="http://www.w3.org/1999/xlink" x="0px" y="0px"
	 width="64px" height="64px" viewBox="0 0 64 64" enable-background="new 0 0 64 64" xml:space="preserve">
<g>
	
		<path fill="#72CACA" stroke="#494949" stroke-width="1.5" stroke-linecap="round" stroke-linejoin="round" stroke-miterlimit="10" d="
		M31.299,25.945c0.055,0.082,0.226,0.341,0.278,0.432c4.137,6.93,5.878,30.454,5.878,30.454c3.839,0.136,9.363-1.037,9.363-1.037
		l-3.563-25.857l-1.313-8.297l-1.491-9.418l-0.599-3.336c0,0-2.332,1.097-8.438,1.232H31.09c-6.106-0.135-8.571-1.219-8.571-1.219
		l-0.593,3.252l-2.941,18.183l-3.563,25.727c0,0,5.79,0.907,9.629,0.771c0,0,1.74-23.523,5.876-30.454
		c0.055-0.091,0.224-0.351,0.278-0.432L31.299,25.945L31.299,25.945z"/>
	
		<line fill="none" stroke="#494949" stroke-width="1.5" stroke-linecap="round" stroke-linejoin="round" stroke-miterlimit="10" x1="25.76" y1="13.381" x2="20.447" y2="21.642"/>
	
		<path fill="#60A8A6" stroke="#494949" stroke-width="1.5" stroke-linecap="round" stroke-linejoin="round" stroke-miterlimit="10" d="
		M41.943,21.64l-0.869-5.496l-0.633-3.992c-1.131,0.52-2.611,0.905-3.979,1.103l5.479,8.386"/>
	
		<path fill="#60A8A6" stroke="#494949" stroke-width="1.5" stroke-linecap="round" stroke-linejoin="round" stroke-miterlimit="10" d="
		M20.447,21.64l0.871-5.496l0.632-3.992c1.129,0.52,2.61,0.905,3.979,1.103l-5.481,8.386"/>
	
		<line fill="none" stroke="#494949" stroke-width="1.5" stroke-linecap="round" stroke-linejoin="round" stroke-miterlimit="10" x1="30.139" y1="23.238" x2="31.206" y2="25.897"/>
	
		<path fill="#72CACA" stroke="#494949" stroke-width="1.5" stroke-linecap="round" stroke-linejoin="round" stroke-miterlimit="10" d="
		M34.178,13.492c-1.492,0.102-2.591,0.082-2.591,0.082h-0.326c0,0,0.935,8.482-1.122,9.664l0.667,0.256
		C36.042,24.043,34.178,13.492,34.178,13.492z"/>
	
		<path fill="#72CACA" stroke="#494949" stroke-width="1.5" stroke-linecap="round" stroke-linejoin="round" stroke-miterlimit="10" d="
		M21.927,12.15l0.593-3.252c0,0,2.465,1.084,8.571,1.219h0.325c6.105-0.135,8.438-1.232,8.438-1.232l0.59,3.268
		c-1.131,0.52-2.612,0.905-3.979,1.103c-2.504,0.361-4.877,0.319-4.877,0.319h-0.326C31.261,13.574,25.12,13.621,21.927,12.15z"/>
	<path fill="none" stroke="#494949" stroke-width="1.5" stroke-linecap="round" stroke-linejoin="round" stroke-miterlimit="10" d="
		M33.271,11.753c0,0.139-0.109,0.252-0.246,0.252c-0.139,0-0.252-0.113-0.252-0.252c0-0.136,0.113-0.247,0.252-0.247
		C33.161,11.506,33.271,11.617,33.271,11.753z"/>
	
		<line fill="none" stroke="#494949" stroke-width="1.5" stroke-linecap="round" stroke-linejoin="round" stroke-miterlimit="10" x1="31.253" y1="10.611" x2="31.253" y2="13.148"/>
</g>
</svg>
