<?xml version="1.0" encoding="utf-8"?>
<!-- Generator: Adobe Illustrator 16.0.0, SVG Export Plug-In . SVG Version: 6.00 Build 0)  -->
<!DOCTYPE svg PUBLIC "-//W3C//DTD SVG 1.1//EN" "http://www.w3.org/Graphics/SVG/1.1/DTD/svg11.dtd">
<svg version="1.1" id="Layer_1" xmlns="http://www.w3.org/2000/svg" xmlns:xlink="http://www.w3.org/1999/xlink" x="0px" y="0px"
	 width="64px" height="64px" viewBox="0 0 64 64" enable-background="new 0 0 64 64" xml:space="preserve">
<g id="Men_x2019_s_Vest">
	
		<path fill="#DDDDDC" stroke="#494949" stroke-width="1.5" stroke-linecap="round" stroke-linejoin="round" stroke-miterlimit="10" d="
		M39.499,9.874"/>
	
		<path fill="#DDDDDC" stroke="#494949" stroke-width="1.5" stroke-linecap="round" stroke-linejoin="round" stroke-miterlimit="10" d="
		M24.141,9.874"/>
	<g>
		
			<path fill="#D6E167" stroke="#494949" stroke-width="1.5" stroke-linecap="round" stroke-linejoin="round" stroke-miterlimit="10" d="
			M39.499,9.265L39.499,9.265h2.828v10.594c0,5.905,0.962,7.483,4.007,8.902v27.704H31.849H31.82H17.334V28.761
			c3.045-1.418,4.006-2.997,4.006-8.902V9.265l2.8,0.007V9.265c0,4.242,3.438,7.611,7.679,7.611
			C36.061,16.876,39.499,13.507,39.499,9.265z"/>
		
			<path fill="#B7B444" stroke="#494949" stroke-width="1.5" stroke-linecap="round" stroke-linejoin="round" stroke-miterlimit="10" d="
			M24.141,9.874V9.272v5.707c0,4.243,3.438,7.68,7.679,7.68s7.679-3.438,7.679-7.68V9.265v0.609V9.265
			c0,4.242-3.438,7.611-7.679,7.611s-7.679-3.369-7.679-7.611V9.874L24.141,9.874z"/>
	</g>
</g>
</svg>
