<?xml version="1.0" encoding="utf-8"?>
<!-- Generator: Adobe Illustrator 16.0.0, SVG Export Plug-In . SVG Version: 6.00 Build 0)  -->
<!DOCTYPE svg PUBLIC "-//W3C//DTD SVG 1.1//EN" "http://www.w3.org/Graphics/SVG/1.1/DTD/svg11.dtd">
<svg version="1.1" id="Layer_1" xmlns="http://www.w3.org/2000/svg" xmlns:xlink="http://www.w3.org/1999/xlink" x="0px" y="0px"
	 width="64px" height="64px" viewBox="0 0 64 64" enable-background="new 0 0 64 64" xml:space="preserve">
<g id="Men_x2019_s_Full_Sleeve_Shirt">
	<path fill="none" stroke="#494949" stroke-width="1.5" stroke-linecap="round" stroke-linejoin="round" stroke-miterlimit="10" d="
		M31.409,54.65"/>
	
		<path fill="#C69981" stroke="#494949" stroke-width="1.5" stroke-linecap="round" stroke-linejoin="round" stroke-miterlimit="10" d="
		M49.786,48.729c0.485,1.487,1.327,3.207,1.327,3.207l5.134-0.935c0.313-0.776-1.097-3.499-1.097-3.499l0.006,0.02l0.088-0.02
		L47.07,18.078l-7.948-2.958l-1.654-2.763l-5.723-1.144h-0.336l-5.724,1.144L24.55,15.12l-8.468,2.958L7.909,47.502l0.139,0.031
		l0.016-0.031c0,0-1.361,2.723-1.049,3.499l5.133,0.935c0,0,0.797-1.72,1.279-3.207l5.924-18.377l0.205,21.782l11.854,2.52h0.336
		l11.852-2.52l0.207-21.782l5.924,18.377"/>
	
		<line fill="none" stroke="#494949" stroke-width="1.5" stroke-linecap="round" stroke-linejoin="round" stroke-miterlimit="10" x1="22.515" y1="30.546" x2="27.84" y2="30.546"/>
	
		<line fill="none" stroke="#494949" stroke-width="1.5" stroke-linecap="round" stroke-linejoin="round" stroke-miterlimit="10" x1="34.634" y1="30.546" x2="39.96" y2="30.546"/>
	
		<path fill="#A87B69" stroke="#494949" stroke-width="1.5" stroke-linecap="round" stroke-linejoin="round" stroke-miterlimit="10" d="
		M38.753,14.503c-0.644,2.342-4.073,4.334-4.073,4.334l-3.188,1.057l-2.458-0.734c-2.461-0.593-4.271-4.557-4.271-4.557l0.925-2.246
		l3.282,2.793l2.584,1.042l2.632-1.042l3.283-2.793L38.753,14.503z"/>
	
		<path fill="#A87B69" stroke="#494949" stroke-width="1.5" stroke-linecap="round" stroke-linejoin="round" stroke-miterlimit="10" d="
		M8.063,47.502c0,0-1.361,2.723-1.049,3.499l5.133,0.935c0,0,0.797-1.72,1.279-3.207l-2.729-0.605l-2.65-0.589"/>
	
		<path fill="#A87B69" stroke="#494949" stroke-width="1.5" stroke-linecap="round" stroke-linejoin="round" stroke-miterlimit="10" d="
		M49.786,48.729c0.485,1.487,1.327,3.207,1.327,3.207l5.134-0.935c0.313-0.776-1.097-3.499-1.097-3.499l0.006,0.02l-2.717,0.604
		l-2.713,0.604"/>
	<path fill="none" stroke="#494949" stroke-width="1.5" stroke-linecap="round" stroke-linejoin="round" stroke-miterlimit="10" d="
		M31.409,54.65l-11.854-2.519L19.35,30.35l-5.924,18.378c-0.482,1.486-1.279,3.205-1.279,3.205L7.014,51
		c-0.313-0.777,1.049-3.499,1.049-3.499l-0.016,0.031l-0.139-0.031l8.173-29.424l8.468-2.958l1.136-2.763l3.282,2.793l2.584,1.042
		l0,0c0,0-0.844,32.593,0.193,38.459"/>
	<path fill="none" stroke="#494949" stroke-width="1.5" stroke-linecap="round" stroke-linejoin="round" stroke-miterlimit="10" d="
		M31.745,54.65c-1.037-5.865-0.193-38.458-0.193-38.458l0,0l2.634-1.042l3.282-2.793l1.654,2.763l7.948,2.958l8.174,29.424
		l-0.088,0.02l-0.006-0.02c0,0,1.408,2.723,1.097,3.499l-5.134,0.935c0,0-0.842-1.72-1.327-3.207h-0.06l-5.925-18.377l-0.206,21.782
		L31.745,54.65h-0.336"/>
	
		<polygon fill="#A87B69" stroke="#494949" stroke-width="1.5" stroke-linecap="round" stroke-linejoin="round" stroke-miterlimit="10" points="
		25.686,12.357 31.409,11.213 31.745,11.213 37.468,12.357 34.186,15.15 31.552,16.192 28.968,15.15 	"/>
</g>
</svg>
