<?xml version="1.0" encoding="utf-8"?>
<!-- Generator: Adobe Illustrator 16.0.0, SVG Export Plug-In . SVG Version: 6.00 Build 0)  -->
<!DOCTYPE svg PUBLIC "-//W3C//DTD SVG 1.1//EN" "http://www.w3.org/Graphics/SVG/1.1/DTD/svg11.dtd">
<svg version="1.1" id="Layer_1" xmlns="http://www.w3.org/2000/svg" xmlns:xlink="http://www.w3.org/1999/xlink" x="0px" y="0px"
	 width="64px" height="64px" viewBox="0 0 64 64" enable-background="new 0 0 64 64" xml:space="preserve">
<g id="Men_x2019_s_Sleeveless_Jacket">
	
		<path fill="#72CACA" stroke="#494949" stroke-width="1.5" stroke-linecap="round" stroke-linejoin="round" stroke-miterlimit="10" d="
		M36.941,12.285l0.93,2.102l0.295,0.662l8.466,2.957h-0.039h0.039c0,0,1.323,3.354-0.606,9.552c0,0-1.325,3.48-2.481,6.825
		l0.554,17.075c-3.291,2.888-12.825,3.397-12.825,3.397c-10.241,0.09-13.34-2.938-13.34-2.938l0.765-17.536
		c-1.153-3.345-2.48-6.825-2.48-6.825c-1.927-6.198-0.608-9.552-0.608-9.552l8.469-2.957l0.29-0.662l0.933-2.102
		C25.299,12.285,31.049,9.408,36.941,12.285z"/>
	
		<line fill="none" stroke="#494949" stroke-width="1.5" stroke-linecap="round" stroke-linejoin="round" stroke-miterlimit="10" x1="22.08" y1="30.474" x2="27.404" y2="30.474"/>
	
		<line fill="none" stroke="#494949" stroke-width="1.5" stroke-linecap="round" stroke-linejoin="round" stroke-miterlimit="10" x1="34.197" y1="30.474" x2="39.523" y2="30.474"/>
	<path fill="none" stroke="#494949" stroke-width="1.5" stroke-linecap="round" stroke-linejoin="round" stroke-miterlimit="10" d="
		M18.736,34.382l0.226-3.974c-0.565-9.153-3.271-12.272-3.271-12.272"/>
	
		<path fill="#60A8A6" stroke="#494949" stroke-width="1.5" stroke-linecap="round" stroke-linejoin="round" stroke-miterlimit="10" d="
		M25.299,12.285c0,0,1.633,3.63,5.821,3.699c4.188-0.069,5.821-3.699,5.821-3.699l0.93,2.102c0,0-1.089,4.289-6.814,5.234l0,0
		c-5.727-0.945-6.69-5.234-6.69-5.234L25.299,12.285z"/>
	
		<path fill="#DDDDDC" stroke="#494949" stroke-width="1.5" stroke-linecap="round" stroke-linejoin="round" stroke-miterlimit="10" d="
		M25.25,12.285"/>
	
		<path fill="#60A8A6" stroke="#494949" stroke-width="1.5" stroke-linecap="round" stroke-linejoin="round" stroke-miterlimit="10" d="
		M15.607,18.005c0,0,2.789,3.25,3.354,12.403l-0.226,3.974h-0.04c-1.153-3.345-2.48-6.825-2.48-6.825
		C14.289,21.359,15.607,18.005,15.607,18.005z"/>
	
		<path fill="#60A8A6" stroke="#494949" stroke-width="1.5" stroke-linecap="round" stroke-linejoin="round" stroke-miterlimit="10" d="
		M46.634,18.005c0,0-2.786,3.25-3.356,12.403l0.228,3.974h0.039c1.156-3.345,2.481-6.825,2.481-6.825
		C47.953,21.359,46.634,18.005,46.634,18.005z"/>
	<path fill="none" stroke="#494949" stroke-width="1.5" stroke-linecap="round" stroke-linejoin="round" stroke-miterlimit="10" d="
		M31.271,54.855c-10.241,0.09-13.34-2.938-13.34-2.938l0.765-17.536c-1.153-3.345-2.48-6.825-2.48-6.825
		c-1.927-6.198-0.608-9.552-0.608-9.552l8.469-2.957l0.29-0.662l0.933-2.102c0,0,1.633,3.63,5.821,3.699
		C31.12,15.983,30.232,48.989,31.271,54.855z"/>
	<path fill="none" stroke="#494949" stroke-width="1.5" stroke-linecap="round" stroke-linejoin="round" stroke-miterlimit="10" d="
		M46.593,18.005h0.039l-8.466-2.957l-0.295-0.662l-0.93-2.102c0,0-1.635,3.63-5.821,3.699c0,0-0.888,33.005,0.151,38.873
		c0,0,9.534-0.51,12.825-3.397l-0.554-17.075c1.156-3.345,2.481-6.825,2.481-6.825c1.931-6.198,0.606-9.552,0.606-9.552
		L46.593,18.005L46.593,18.005z"/>
	
		<path fill="#60A8A6" stroke="#494949" stroke-width="1.5" stroke-linecap="round" stroke-linejoin="round" stroke-miterlimit="10" d="
		M25.299,12.285c0,0,1.633,3.63,5.821,3.699c4.188-0.069,5.821-3.699,5.821-3.699C31.049,9.408,25.299,12.285,25.299,12.285z"/>
</g>
</svg>
