<?xml version="1.0" encoding="utf-8"?>
<!-- Generator: Adobe Illustrator 16.0.0, SVG Export Plug-In . SVG Version: 6.00 Build 0)  -->
<!DOCTYPE svg PUBLIC "-//W3C//DTD SVG 1.1//EN" "http://www.w3.org/Graphics/SVG/1.1/DTD/svg11.dtd">
<svg version="1.1" id="Layer_1" xmlns="http://www.w3.org/2000/svg" xmlns:xlink="http://www.w3.org/1999/xlink" x="0px" y="0px"
	 width="64px" height="64px" viewBox="0 0 64 64" enable-background="new 0 0 64 64" xml:space="preserve">
<g id="Men_x2019_s_Shirt">
	
		<path fill="#DDDDDC" stroke="#494949" stroke-width="1.5" stroke-linecap="round" stroke-linejoin="round" stroke-miterlimit="10" d="
		M19.403,29.875l-2.004,4.342l-6.977-2.8l5.712-13.815l8.468-2.957l1.135-2.763c0,0,5.383-2.487,12.303,0l1.131,2.763l7.952,2.957
		l5.715,13.815l-6.98,2.8l-2.002-4.342l-0.004-0.001l0.865,21.586c-2.65,3.394-13.088,3.538-13.088,3.538
		C20.4,55.342,18.618,51.46,18.618,51.46L19.403,29.875L19.403,29.875z"/>
	
		<path fill="#A87B69" stroke="#494949" stroke-width="1.5" stroke-linecap="round" stroke-linejoin="round" stroke-miterlimit="10" d="
		M25.737,11.883c0,0,5.383-2.487,12.303,0l-3.281,3.895l-1.474,0.751l0.15,1.564l-1.501,3.952l-1.973-3.952l0.014-1.564
		l-0.954-0.751L25.737,11.883z"/>
	
		<path fill="#C69981" stroke="#494949" stroke-width="1.5" stroke-linecap="round" stroke-linejoin="round" stroke-miterlimit="10" d="
		M19.403,29.875l-2.004,4.342l-6.977-2.8l5.712-13.815l8.468-2.957l1.135-2.763l3.284,3.895l0.954,0.751l-0.014,1.564l1.973,3.952
		c0,0-0.89,27.075,0.148,32.94c-0.436,0.019-0.454,0.013-0.454,0.013c-11.229,0.344-13.011-3.538-13.011-3.538L19.403,29.875"/>
	
		<path fill="#C69981" stroke="#494949" stroke-width="1.5" stroke-linecap="round" stroke-linejoin="round" stroke-miterlimit="10" d="
		M43.855,29.875l2.002,4.342l6.979-2.8l-5.715-13.815l-7.952-2.957l-1.131-2.763l-3.281,3.895l-1.474,0.751l0.149,1.564l-1.5,3.952
		c0,0-0.89,27.075,0.148,32.94c2.03-0.074,10.313-0.555,12.634-3.524L43.85,29.874L43.855,29.875z"/>
	<path fill="none" stroke="#494949" stroke-width="1.5" stroke-linecap="round" stroke-linejoin="round" stroke-miterlimit="10" d="
		M33.473,45.622c0,0.093-0.076,0.17-0.171,0.17c-0.096,0-0.172-0.077-0.172-0.17c0-0.099,0.076-0.173,0.172-0.173
		C33.396,45.449,33.473,45.523,33.473,45.622z"/>
	<path fill="none" stroke="#494949" stroke-width="1.5" stroke-linecap="round" stroke-linejoin="round" stroke-miterlimit="10" d="
		M33.54,39.424c0,0.094-0.075,0.172-0.17,0.172s-0.172-0.078-0.172-0.172c0-0.097,0.077-0.171,0.172-0.171
		S33.54,39.327,33.54,39.424z"/>
	
		<circle fill="none" stroke="#494949" stroke-width="1.5" stroke-linecap="round" stroke-linejoin="round" stroke-miterlimit="10" cx="33.439" cy="34.08" r="0.171"/>
	<path fill="none" stroke="#494949" stroke-width="1.5" stroke-linecap="round" stroke-linejoin="round" stroke-miterlimit="10" d="
		M33.85,27.882c0,0.093-0.076,0.17-0.17,0.17c-0.097,0-0.174-0.077-0.174-0.17c0-0.097,0.077-0.171,0.174-0.171
		C33.771,27.711,33.85,27.785,33.85,27.882z"/>
	
		<path fill="#A87B69" stroke="#494949" stroke-width="1.5" stroke-linecap="round" stroke-linejoin="round" stroke-miterlimit="10" d="
		M38.04,11.883c-6.92-2.487-12.303,0-12.303,0l1.324,1.568c1.818-0.521,5.358-1.153,9.626,0.032L38.04,11.883z"/>
	
		<circle fill="none" stroke="#494949" stroke-width="1.5" stroke-linecap="round" stroke-linejoin="round" stroke-miterlimit="10" cx="34.02" cy="22.094" r="0.171"/>
	
		<polygon fill="#A87B69" stroke="#494949" stroke-width="1.5" stroke-linecap="round" stroke-linejoin="round" stroke-miterlimit="10" points="
		38.04,11.883 39.177,14.646 36.809,21.205 34.759,15.778 	"/>
	
		<polygon fill="#A87B69" stroke="#494949" stroke-width="1.5" stroke-linecap="round" stroke-linejoin="round" stroke-miterlimit="10" points="
		25.737,11.883 24.603,14.646 26.972,21.205 29.021,15.778 	"/>
</g>
</svg>
