<?xml version="1.0" encoding="utf-8"?>
<!-- Generator: Adobe Illustrator 16.0.0, SVG Export Plug-In . SVG Version: 6.00 Build 0)  -->
<!DOCTYPE svg PUBLIC "-//W3C//DTD SVG 1.1//EN" "http://www.w3.org/Graphics/SVG/1.1/DTD/svg11.dtd">
<svg version="1.1" id="Layer_1" xmlns="http://www.w3.org/2000/svg" xmlns:xlink="http://www.w3.org/1999/xlink" x="0px" y="0px"
	 width="64px" height="64px" viewBox="0 0 64 64" enable-background="new 0 0 64 64" xml:space="preserve">
<g id="Men_x2019_s_Blazer">
	
		<path fill="#DDDDDC" stroke="#494949" stroke-width="1.5" stroke-linecap="round" stroke-linejoin="round" stroke-miterlimit="10" d="
		M26.663,15.068"/>
	<g>
		
			<path fill="none" stroke="#494949" stroke-width="1.5" stroke-linecap="round" stroke-linejoin="round" stroke-miterlimit="10" d="
			M26.672,15.114"/>
		
			<path fill="#C69981" stroke="#494949" stroke-width="1.5" stroke-linecap="round" stroke-linejoin="round" stroke-miterlimit="10" d="
			M55.759,43.395l1.435,3.819l-6.584,2.831l-1.491-3.929l-5.991-14.377c0,0-0.027,7.694,0.395,19.774l-9.185,0.818l-1.808,0.135
			c-1.097,0-1.037-1.033-1.037-1.033c-0.416,0.916-1.565,0.898-1.565,0.898L20.668,52c-0.359-12.046-0.169-20.178-0.169-20.178
			l-5.871,14.376l-1.548,3.807l-6.605-2.813l1.606-3.797l10.514-25.597l8.04-2.684l1.073-1.071c0,0,2.696-1.526,8.851,0l1.074,1.071
			l8.042,2.684L55.759,43.395z"/>
		
			<path fill="none" stroke="#494949" stroke-width="1.5" stroke-linecap="round" stroke-linejoin="round" stroke-miterlimit="10" d="
			M31.492,51.432l-0.035-5.072c0,0,0.038-4.273,0.208-9.73l4.892-22.585l1.074,1.071l8.042,2.684l10.086,25.598l1.435,3.818
			l-6.584,2.831l-1.491-3.929L43.127,31.74c0,0-0.027,7.693,0.395,19.775l-9.185,0.817l-1.808,0.135
			C31.432,52.466,31.492,51.432,31.492,51.432z"/>
		
			<path fill="none" stroke="#494949" stroke-width="1.5" stroke-linecap="round" stroke-linejoin="round" stroke-miterlimit="10" d="
			M31.701,36.5l-3.994-22.457l-1.073,1.071l-8.04,2.684L8.08,43.395l-1.606,3.797l6.605,2.813l1.548-3.807l5.871-14.376
			c0,0-0.189,8.132,0.169,20.178l9.259,0.332c0,0,1.149,0.018,1.565-0.898L31.701,36.5z"/>
		
			<path fill="#A87B69" stroke="#494949" stroke-width="1.5" stroke-linecap="round" stroke-linejoin="round" stroke-miterlimit="10" d="
			M36.559,14.043c-6.156-1.526-8.852,0-8.852,0L31.701,36.5l0,0L36.559,14.043z"/>
	</g>
	
		<line fill="none" stroke="#494949" stroke-width="1.5" stroke-linecap="round" stroke-linejoin="round" stroke-miterlimit="10" x1="23.431" y1="43.154" x2="29.078" y2="43.154"/>
	
		<line fill="none" stroke="#494949" stroke-width="1.5" stroke-linecap="round" stroke-linejoin="round" stroke-miterlimit="10" x1="34.448" y1="43.154" x2="40.096" y2="43.154"/>
</g>
</svg>
