<?xml version="1.0" encoding="utf-8"?>
<!-- Generator: Adobe Illustrator 16.0.0, SVG Export Plug-In . SVG Version: 6.00 Build 0)  -->
<!DOCTYPE svg PUBLIC "-//W3C//DTD SVG 1.1//EN" "http://www.w3.org/Graphics/SVG/1.1/DTD/svg11.dtd">
<svg version="1.1" id="Layer_1" xmlns="http://www.w3.org/2000/svg" xmlns:xlink="http://www.w3.org/1999/xlink" x="0px" y="0px"
	 width="64px" height="64px" viewBox="0 0 64 64" enable-background="new 0 0 64 64" xml:space="preserve">
<g id="Scarf_1_">
	<path fill="none" stroke="#494949" stroke-width="1.5" stroke-linecap="round" stroke-linejoin="round" stroke-miterlimit="10" d="
		M24.017,51.555c0,0-0.159,4.786,0.396,5.618"/>
	<path fill="none" stroke="#494949" stroke-width="1.5" stroke-linecap="round" stroke-linejoin="round" stroke-miterlimit="10" d="
		M27.689,51.555c0,0,0.475,4.786,1.029,5.618"/>
	<path fill="none" stroke="#494949" stroke-width="1.5" stroke-linecap="round" stroke-linejoin="round" stroke-miterlimit="10" d="
		M32.423,51.376c0,0,0.474,4.785,1.025,5.618"/>
	<path fill="none" stroke="#494949" stroke-width="1.5" stroke-linecap="round" stroke-linejoin="round" stroke-miterlimit="10" d="
		M35.878,48.564c0,0,0.478,4.789,1.029,5.619"/>
	<g>
		
			<path fill="#72CACA" stroke="#494949" stroke-width="1.5" stroke-linecap="round" stroke-linejoin="round" stroke-miterlimit="10" d="
			M30.85,26.024c0,0,6-3.703,5.655-7.835c0,0-0.11-4.886-5.577-4.614c0,0-3.898,0.127-3.994,5.234c0,0-1.049,7.92,11.77,10.134
			l-2.31,5.772c0,0-10.906-1.781-14.692-11.226c0,0-4.657-13.908,8.48-14.585c0,0,11.968-1.602,12.177,9.561
			c0,0,0.299,7.252-5.778,10.028"/>
		
			<path fill="#72CACA" stroke="#494949" stroke-width="1.5" stroke-linecap="round" stroke-linejoin="round" stroke-miterlimit="10" d="
			M27.945,31.146c1.853,1.282,3.738,2.129,5.256,2.677l0,0c-0.076,5.065,2.677,14.563,2.677,14.563l-3.479,0.16v3.008H24.01
			c-1.107-13.769,3.938-20.412,3.938-20.412"/>
	</g>
</g>
</svg>
