<?xml version="1.0" encoding="utf-8"?>
<!-- Generator: Adobe Illustrator 16.0.0, SVG Export Plug-In . SVG Version: 6.00 Build 0)  -->
<!DOCTYPE svg PUBLIC "-//W3C//DTD SVG 1.1//EN" "http://www.w3.org/Graphics/SVG/1.1/DTD/svg11.dtd">
<svg version="1.1" id="Layer_1" xmlns="http://www.w3.org/2000/svg" xmlns:xlink="http://www.w3.org/1999/xlink" x="0px" y="0px"
	 width="64px" height="64px" viewBox="0 0 64 64" enable-background="new 0 0 64 64" xml:space="preserve">
<g id="Skirt">
	
		<path fill="#D6E167" stroke="#494949" stroke-width="1.5" stroke-linecap="round" stroke-linejoin="round" stroke-miterlimit="10" d="
		M22.092,14.192c0,0,7.853,5.49,19.139,0c0,0,4.42,4.04,5.793,12.351c0,0,2.289,13.954,8.234,15.48c0,0-4.648,5.262-9.758,5.031
		c0,0-0.441,0.813,0.037,1.448c0,0-3.852,0.685-5.378,2.288c0,0-3.354,1.369-4.726,0c0,0-2.822-0.307-4.192,0.607
		c0,0-2.747,0.841-6.559,0c0,0-4.357-4.153-7.938-3.24c0,0,0.543-0.114,0.85-1.26c0,0-6.873-0.803-10.61-5.146
		c0,0,6.887-6.201,8.935-13.73C15.918,28.023,19.454,16.549,22.092,14.192L22.092,14.192z"/>
	
		<path fill="#D6E167" stroke="#494949" stroke-width="1.5" stroke-linecap="round" stroke-linejoin="round" stroke-miterlimit="10" d="
		M26.655,16.074c2.465,0.615,5.824,0.905,9.811-0.114v-0.001c0,0,1.522,24.027,9.071,30.941L45.5,47.055
		c0,0-0.441,0.813,0.037,1.449c0,0-3.852,0.684-5.378,2.288c0,0-3.354,1.369-4.726,0c0,0-2.822-0.306-4.192,0.608
		c0,0-2.747,0.84-6.559,0c0,0-4.357-4.154-7.938-3.241c0,0,0.543-0.114,0.85-1.259c7.785-12.416,9.065-30.826,9.065-30.826H26.655z"
		/>
	
		<path fill="#B7B444" stroke="#494949" stroke-width="1.5" stroke-linecap="round" stroke-linejoin="round" stroke-miterlimit="10" d="
		M26.659,16.074c0,0-1.28,18.41-9.065,30.826c0,0-6.873-0.803-10.61-5.146c0,0,6.887-6.201,8.935-13.73
		c0,0,3.536-11.475,6.174-13.831l0,0c0,0,1.666,1.164,4.563,1.882L26.659,16.074L26.659,16.074z"/>
	
		<path fill="#B7B444" stroke="#494949" stroke-width="1.5" stroke-linecap="round" stroke-linejoin="round" stroke-miterlimit="10" d="
		M36.466,15.959c0,0,1.522,24.027,9.071,30.941L45.5,47.055c5.107,0.23,9.758-5.031,9.758-5.031
		c-5.945-1.525-8.234-15.479-8.234-15.479c-1.373-8.311-5.793-12.351-5.793-12.351c-1.67,0.81-3.26,1.382-4.763,1.768"/>
</g>
</svg>
