<?xml version="1.0" encoding="utf-8"?>
<!-- Generator: Adobe Illustrator 16.0.0, SVG Export Plug-In . SVG Version: 6.00 Build 0)  -->
<!DOCTYPE svg PUBLIC "-//W3C//DTD SVG 1.1//EN" "http://www.w3.org/Graphics/SVG/1.1/DTD/svg11.dtd">
<svg version="1.1" id="Layer_1" xmlns="http://www.w3.org/2000/svg" xmlns:xlink="http://www.w3.org/1999/xlink" x="0px" y="0px"
	 width="64px" height="64px" viewBox="0 0 64 64" enable-background="new 0 0 64 64" xml:space="preserve">
<g id="Tank_Top">
	<g id="_x34_61">
		
			<path fill="#72CACA" stroke="#494949" stroke-width="1.5" stroke-linecap="round" stroke-linejoin="round" stroke-miterlimit="10" d="
			M36.814,11.104c0.553,0.218,0.787,1.573,0.787,1.573s0.246,0.592-0.158,4.048c-0.748,6.379-2.111,7.864-2.111,7.864
			s-1.277,1.982-3.957,1.982c-2.679,0-3.806-2.004-3.806-2.004l-0.628-1.186c0,0-0.95-1.679-0.924-4.332c0,0,0.119-4.409,0.52-5.852
			c0,0,0.473-1.759,0.773-1.877c-1.899-0.559-2.502,5.111-2.502,5.111c-0.128,1.146-0.831,4.399-0.831,4.399
			c-0.957,4.079-3.699,6.313-3.699,6.313c-0.764,0.446-0.51,1.467-0.51,1.467c0.449,2.806,1.468,5.102,1.468,5.102
			s1.658,6.122,0.766,10.521c-0.894,4.403-2.874,8.549-2.874,8.549c17.03,4.338,23.024,0.509,23.024,0.509s-2.104-6.058-2.361-9.565
			c-0.254-3.507,1.596-9.121,1.596-9.121c1.491-3.636,1.725-6.312,1.725-6.312c0.062-0.893-0.701-1.34-0.701-1.34
			c-4.402-2.421-3.825-10.97-3.825-10.97C38.656,10.458,36.814,11.104,36.814,11.104z"/>
	</g>
	
		<path fill="#60A8A6" stroke="#494949" stroke-width="1.5" stroke-linecap="round" stroke-linejoin="round" stroke-miterlimit="10" d="
		M35.332,24.589c0,0,1.363-1.485,2.111-7.864c0.404-3.456,0.158-4.048,0.158-4.048s-0.234-1.355-0.787-1.573
		C32.26,11.078,35.332,24.589,35.332,24.589z"/>
	
		<path fill="#60A8A6" stroke="#494949" stroke-width="1.5" stroke-linecap="round" stroke-linejoin="round" stroke-miterlimit="10" d="
		M27.882,24.989l-0.94-1.607c0,0-0.95-1.679-0.924-4.332c0,0,0.119-4.409,0.52-5.852c0,0,0.473-1.759,0.773-1.877
		C31.122,12.446,27.882,24.989,27.882,24.989z"/>
	<path fill="none" stroke="#494949" stroke-width="1.5" stroke-linecap="round" stroke-linejoin="round" stroke-miterlimit="10" d="
		M27.88,24.992c0.494,0.588,1.611,1.579,3.495,1.579c2.68,0,3.957-1.982,3.957-1.982s-3.072-13.511,1.482-13.485
		c0,0,1.858-0.436,1.77,4.879c0,0-0.577,8.549,3.825,10.97c0,0,0.763,0.447,0.702,1.34c0,0-0.233,2.676-1.725,6.313
		c0,0-1.851,5.613-1.597,9.119c0.257,3.51,2.362,9.566,2.362,9.566s-5.995,3.829-23.025-0.509c0,0,1.98-4.146,2.874-8.548
		c0.893-4.398-0.766-10.521-0.766-10.521s-1.019-2.296-1.468-5.102c0,0-0.254-1.021,0.51-1.467c0,0,2.742-2.233,3.699-6.313
		c0,0,0.703-3.254,0.831-4.399c0,0,0.603-5.67,2.502-5.111c3.812,1.125,0.571,13.668,0.571,13.668V24.992z"/>
</g>
</svg>
