<?xml version="1.0" encoding="utf-8"?>
<!-- Generator: Adobe Illustrator 16.0.0, SVG Export Plug-In . SVG Version: 6.00 Build 0)  -->
<!DOCTYPE svg PUBLIC "-//W3C//DTD SVG 1.1//EN" "http://www.w3.org/Graphics/SVG/1.1/DTD/svg11.dtd">
<svg version="1.1" id="Layer_1" xmlns="http://www.w3.org/2000/svg" xmlns:xlink="http://www.w3.org/1999/xlink" x="0px" y="0px"
	 width="64px" height="64px" viewBox="0 0 64 64" enable-background="new 0 0 64 64" xml:space="preserve">
<g id="Track_Pant">
	
		<path fill="#C69981" stroke="#494949" stroke-width="1.5" stroke-linecap="round" stroke-linejoin="round" stroke-miterlimit="10" d="
		M31.674,21.716c0.053,0.078,0.217,0.329,0.271,0.417c3.982,6.67,5.657,33.908,5.657,33.908c3.7,0.131,6.342-0.463,6.342-0.463
		l-2.049-25.371l-1.649-18.698l0.047-1.841c0,0-2.621,1.248-8.503,1.379h-0.316c-5.881-0.131-8.469-1.379-8.469-1.379l0.012,1.841
		l-1.652,18.698l-2.047,25.371c0,0,2.641,0.594,6.342,0.463c0,0,1.674-27.238,5.656-33.908c0.055-0.088,0.219-0.34,0.271-0.417
		H31.674z"/>
</g>
</svg>
