<?xml version="1.0" encoding="utf-8"?>
<!-- Generator: Adobe Illustrator 16.0.0, SVG Export Plug-In . SVG Version: 6.00 Build 0)  -->
<!DOCTYPE svg PUBLIC "-//W3C//DTD SVG 1.1//EN" "http://www.w3.org/Graphics/SVG/1.1/DTD/svg11.dtd">
<svg version="1.1" id="Layer_1" xmlns="http://www.w3.org/2000/svg" xmlns:xlink="http://www.w3.org/1999/xlink" x="0px" y="0px"
	 width="64px" height="64px" viewBox="0 0 64 64" enable-background="new 0 0 64 64" xml:space="preserve">
<g id="Tunic_Dress">
	
		<path fill="#F18543" stroke="#494949" stroke-width="1.5" stroke-linecap="round" stroke-linejoin="round" stroke-miterlimit="10" d="
		M37.361,9.849c0,0-0.289,1.574-0.627,1.968c-0.34,0.392-0.883,2.08-4.498,2.171c-3.221,0.078-4.456-2.016-4.456-2.016
		s-1.152-1.494-1.388-3.719c0,0-2.447,0.675-3.166,1.02c0,0,1.781,1.57,0.835,7.543c0,0,0.456,1.011,0.803,3.735l0.63,4.189
		c0,0-0.349,0.908-0.419,2.585c0,0-1.397,1.747-4.051,14.873c0,0-1.675,11.174-2.233,12.852c0,0,0.559,0.486,1.885,0.697
		c1.327,0.208,3.212-0.069,3.492,0.487v0.488c0,0,3.422,0.492,4.26,0c0,0,1.467-0.264,2.165,0.217v0.553
		c0,0,4.189,0.488,4.331-0.276c0,0,1.815-0.421,2.163-0.284l4.141-0.4V56.29l3.646-0.597c0,0-1.797-10.75-2.584-16.096
		c0,0-1.256-8.486-3.4-12.727c0,0,0.153-0.368-0.187-0.786c0,0-0.233-1.467-0.13-1.913l0.863-4.895c0,0,0.578-2.032,0.836-2.213
		c0,0-1.006-4.633,0.519-8.145l-3.483-0.667C37.307,8.253,37.501,9.2,37.361,9.849z"/>
	
		<polygon fill="none" stroke="#494949" stroke-width="1.5" stroke-linecap="round" stroke-linejoin="round" stroke-miterlimit="10" points="
		38.553,25.301 37.838,25.563 37.413,25.38 38.553,24.74 	"/>
	
		<path fill="#B7B7B7" stroke="#494949" stroke-width="1.5" stroke-linecap="round" stroke-linejoin="round" stroke-miterlimit="10" d="
		M24.555,28.42c0.347-0.874,0.522-1.095,0.522-1.095c0.071-1.677,0.419-2.585,0.419-2.585s9.255,0.035,10.613,0.822
		c0,0,0.865-0.525,1.729,0l0.994,11.366l-4.71,2.982l0.745-6.37c-0.473,0.211-4.602,0.754-4.602,0.754l2.215-5.875L24.555,28.42
		L24.555,28.42z"/>
	
		<path fill="#DD7236" stroke="#494949" stroke-width="1.5" stroke-linecap="round" stroke-linejoin="round" stroke-miterlimit="10" d="
		M32.48,28.42l-2.215,5.875c0,0,4.297-0.594,4.77-0.806l1.074-7.927C34.382,25.563,32.48,28.42,32.48,28.42z"/>
	
		<path fill="#DD7236" stroke="#494949" stroke-width="1.5" stroke-linecap="round" stroke-linejoin="round" stroke-miterlimit="10" d="
		M36.109,25.563c0,0,0.867-0.525,1.729,0l0.994,11.367l-4.71,2.981L36.109,25.563z"/>
	
		<path fill="#DD7236" stroke="#494949" stroke-width="1.5" stroke-linecap="round" stroke-linejoin="round" stroke-miterlimit="10" d="
		M36.109,25.563c-1.357-0.787-10.612-0.822-10.612-0.822s-0.349,0.908-0.419,2.585c0,0-0.176,0.221-0.522,1.095h7.926
		C32.48,28.42,34.382,25.563,36.109,25.563z"/>
	
		<path fill="#DD7236" stroke="#494949" stroke-width="1.5" stroke-linecap="round" stroke-linejoin="round" stroke-miterlimit="10" d="
		M29.896,24.839c1.476,0.059,3.055,0.15,4.273,0.296c-0.067-3.275,0.271-11.478,0.271-11.478c-0.567,0.182-1.287,0.308-2.204,0.33
		c-0.943,0.022-1.716-0.14-2.337-0.383l0,0C29.899,13.604,30.102,22.785,29.896,24.839z"/>
	<path fill="none" stroke="#494949" stroke-width="1.5" stroke-linecap="round" stroke-linejoin="round" stroke-miterlimit="10" d="
		M32.322,19.362c0,0.138-0.112,0.251-0.25,0.251c-0.137,0-0.25-0.113-0.25-0.251c0-0.136,0.113-0.249,0.25-0.249
		C32.21,19.113,32.322,19.227,32.322,19.362z"/>
	
		<circle fill="none" stroke="#494949" stroke-width="1.5" stroke-linecap="round" stroke-linejoin="round" stroke-miterlimit="10" cx="32.073" cy="22.874" r="0.25"/>
	<path fill="none" stroke="#494949" stroke-width="1.5" stroke-linecap="round" stroke-linejoin="round" stroke-miterlimit="10" d="
		M32.322,16.34c0,0.139-0.111,0.252-0.25,0.252c-0.138,0-0.25-0.113-0.25-0.252c0-0.135,0.112-0.25,0.25-0.25
		C32.211,16.09,32.322,16.205,32.322,16.34z"/>
	
		<path fill="#F18543" stroke="#494949" stroke-width="1.5" stroke-linecap="round" stroke-linejoin="round" stroke-miterlimit="10" d="
		M29.896,24.839c0.206-2.054,0.003-11.234,0.003-11.234l0,0h-0.001c-1.5-0.587-2.117-1.633-2.117-1.633s-1.152-1.494-1.388-3.719
		c0,0-2.447,0.675-3.166,1.02c0,0,1.781,1.57,0.835,7.543c0,0,0.456,1.011,0.803,3.735l0.63,4.189
		C25.497,24.74,27.553,24.747,29.896,24.839z"/>
	
		<path fill="#F18543" stroke="#494949" stroke-width="1.5" stroke-linecap="round" stroke-linejoin="round" stroke-miterlimit="10" d="
		M38.488,24.74l-1.141,0.64v0.001c-0.701-0.184-1.302,0.182-1.302,0.182c-0.31-0.179-1.021-0.318-1.94-0.428
		c-0.068-3.275,0.271-11.478,0.271-11.478c1.672-0.532,2.039-1.549,2.292-1.841c0.34-0.394,0.628-1.968,0.628-1.968
		c0.141-0.648-0.052-1.596-0.052-1.596l3.481,0.667c-1.522,3.512-0.518,8.145-0.518,8.145c-0.26,0.181-0.836,2.213-0.836,2.213
		l-0.865,4.895C38.477,24.318,38.471,24.464,38.488,24.74z"/>
	<path fill="none" stroke="#494949" stroke-width="1.5" stroke-linecap="round" stroke-linejoin="round" stroke-miterlimit="10" d="
		M30.594,28.42v11.072c-1.484,12.169,0,17.447,0,17.447c-0.697-0.479-2.165-0.217-2.165-0.217c-0.838,0.492-4.26,0-4.26,0v-0.488
		v0.488c0,0,0.891-14.615,1.624-21.523l1.076-6.779H30.594z"/>
	<path fill="none" stroke="#494949" stroke-width="1.5" stroke-linecap="round" stroke-linejoin="round" stroke-miterlimit="10" d="
		M26.87,28.42l-1.076,6.779c-0.733,6.908-1.624,21.523-1.624,21.523v-0.488c-0.28-0.558-2.166-0.279-3.492-0.487
		c-1.326-0.211-1.885-0.697-1.885-0.697c0.559-1.678,2.233-12.852,2.233-12.852c1.711-8.462,2.899-12.194,3.528-13.778H26.87z"/>
	
		<path fill="#B7B7B7" stroke="#494949" stroke-width="1.5" stroke-linecap="round" stroke-linejoin="round" stroke-miterlimit="10" d="
		M34.925,39.402"/>
	
		<polygon fill="#B7B7B7" stroke="#494949" stroke-width="1.5" stroke-linecap="round" stroke-linejoin="round" stroke-miterlimit="10" points="
		32.48,28.42 30.594,33.423 30.594,28.42 	"/>
	
		<path fill="#F18543" stroke="#494949" stroke-width="1.5" stroke-linecap="round" stroke-linejoin="round" stroke-miterlimit="10" d="
		M34.925,57.216c-0.142,0.765-4.331,0.276-4.331,0.276v-0.553c0,0-1.484-5.278,0-17.447l0.041-5.249
		c1.053-0.149,4.014-0.581,4.4-0.755l-0.913,6.423l0.803-0.509l0.011,0.019C34.936,39.421,35.413,53.98,34.925,57.216z"/>
	
		<path fill="#F18543" stroke="#494949" stroke-width="1.5" stroke-linecap="round" stroke-linejoin="round" stroke-miterlimit="10" d="
		M41.229,56.289v0.24l-4.141,0.4c-0.348-0.136-2.163,0.285-2.163,0.285c0.488-3.234,0.011-17.795,0.011-17.795l3.455-2.212
		c0.309,2.337,1.401,4.408,1.5,7.19C39.891,44.4,40.162,53.271,41.229,56.289z"/>
	
		<path fill="#F18543" stroke="#494949" stroke-width="1.5" stroke-linecap="round" stroke-linejoin="round" stroke-miterlimit="10" d="
		M37.786,25.135l1.047,11.795c0,0-0.442,0.28-0.442,0.279c0.31,2.337,1.402,4.408,1.5,7.191c0,0,0.272,8.871,1.338,11.889
		l3.647-0.598c0,0-1.797-10.748-2.584-16.096c0,0-1.256-8.485-3.401-12.726c0,0,0.154-0.368-0.186-0.786c0,0-0.121-0.758-0.15-1.351
		L37.786,25.135z"/>
</g>
</svg>
