<?xml version="1.0" encoding="utf-8"?>
<!-- Generator: Adobe Illustrator 16.0.0, SVG Export Plug-In . SVG Version: 6.00 Build 0)  -->
<!DOCTYPE svg PUBLIC "-//W3C//DTD SVG 1.1//EN" "http://www.w3.org/Graphics/SVG/1.1/DTD/svg11.dtd">
<svg version="1.1" id="Layer_1" xmlns="http://www.w3.org/2000/svg" xmlns:xlink="http://www.w3.org/1999/xlink" x="0px" y="0px"
	 width="64px" height="64px" viewBox="0 0 64 64" enable-background="new 0 0 64 64" xml:space="preserve">
<g id="Woman_x2019_s_Formal_Coat_x2F_Blazer">
	<g>
		
			<path fill="none" stroke="#494949" stroke-width="1.5" stroke-linecap="round" stroke-linejoin="round" stroke-miterlimit="10" d="
			M25.96,15.097"/>
		
			<path fill="#72CACA" stroke="#494949" stroke-width="1.5" stroke-linecap="round" stroke-linejoin="round" stroke-miterlimit="10" d="
			M55.046,43.377l1.435,3.818l-6.586,2.832l-1.49-3.93L42.416,31.72c0,0-0.027,7.695,0.393,19.774l-9.184,0.818l-1.808,0.136
			c-1.099,0-1.038-1.035-1.038-1.035c-0.416,0.917-1.564,0.899-1.564,0.899l-9.259-0.332c-0.359-12.045-0.169-20.177-0.169-20.177
			L13.915,46.18l-1.549,3.807l-6.604-2.814l1.605-3.796L17.883,17.78l8.039-2.684l1.071-1.071c0,0,2.697-1.525,8.853,0l1.074,1.071
			l8.039,2.684L55.046,43.377z"/>
		
			<path fill="none" stroke="#494949" stroke-width="1.5" stroke-linecap="round" stroke-linejoin="round" stroke-miterlimit="10" d="
			M33.449,37.42c0,0.127-0.104,0.23-0.231,0.23c-0.127,0-0.229-0.104-0.229-0.23c0-0.125,0.103-0.229,0.229-0.229
			C33.346,37.191,33.449,37.296,33.449,37.42z"/>
		
			<path fill="none" stroke="#494949" stroke-width="1.5" stroke-linecap="round" stroke-linejoin="round" stroke-miterlimit="10" d="
			M33.218,44.271c0,0.125-0.102,0.229-0.226,0.229c-0.131,0-0.235-0.104-0.235-0.229c0-0.127,0.104-0.229,0.235-0.229
			C33.116,44.043,33.218,44.145,33.218,44.271z"/>
		
			<polygon fill="#60A8A6" stroke="#494949" stroke-width="1.5" stroke-linecap="round" stroke-linejoin="round" stroke-miterlimit="10" points="
			48.404,46.098 49.895,50.027 56.48,47.195 55.093,43.482 		"/>
		
			<polygon fill="#60A8A6" stroke="#494949" stroke-width="1.5" stroke-linecap="round" stroke-linejoin="round" stroke-miterlimit="10" points="
			7.366,43.377 5.761,47.173 12.365,49.988 13.914,46.182 		"/>
		
			<path fill="none" stroke="#494949" stroke-width="1.5" stroke-linecap="round" stroke-linejoin="round" stroke-miterlimit="10" d="
			M30.778,51.415l-0.033-5.072c0,0,0.037-4.274,0.208-9.731l4.891-22.585l1.075,1.071l8.039,2.684l10.088,25.596l1.435,3.818
			l-6.586,2.832l-1.49-3.93L42.416,31.72c0,0-0.027,7.695,0.393,19.774l-9.184,0.818l-1.808,0.136
			C30.718,52.45,30.778,51.415,30.778,51.415z"/>
		
			<path fill="#60A8A6" stroke="#494949" stroke-width="1.5" stroke-linecap="round" stroke-linejoin="round" stroke-miterlimit="10" d="
			M30.953,36.609c1.301-5.021,7.818-10.601,7.818-10.601l-1.342-1.237l2.684-1.703l-3.194-7.973l-1.075-1.071L30.953,36.609z"/>
		
			<path fill="#60A8A6" stroke="#494949" stroke-width="1.5" stroke-linecap="round" stroke-linejoin="round" stroke-miterlimit="10" d="
			M26.992,14.025l-1.071,1.071l-3.817,7.973l2.683,1.703l-1.344,1.237c0,0,6.241,5.453,7.544,10.474L26.992,14.025z"/>
		
			<path fill="none" stroke="#494949" stroke-width="1.5" stroke-linecap="round" stroke-linejoin="round" stroke-miterlimit="10" d="
			M30.986,36.482l-3.994-22.458l-1.071,1.071l-8.039,2.684L7.366,43.377l-1.605,3.796l6.604,2.813l1.549-3.805l5.872-14.377
			c0,0-0.19,8.133,0.169,20.178l9.259,0.33c0,0,1.148,0.019,1.564-0.898L30.986,36.482z"/>
	</g>
	
		<path fill="#60A8A6" stroke="#494949" stroke-width="1.5" stroke-linecap="round" stroke-linejoin="round" stroke-miterlimit="10" d="
		M35.844,14.025c-6.154-1.525-8.852,0-8.852,0l3.994,22.458l-0.033,0.127L35.844,14.025z"/>
</g>
</svg>
