<?xml version="1.0" encoding="utf-8"?>
<!-- Generator: Adobe Illustrator 16.0.0, SVG Export Plug-In . SVG Version: 6.00 Build 0)  -->
<!DOCTYPE svg PUBLIC "-//W3C//DTD SVG 1.1//EN" "http://www.w3.org/Graphics/SVG/1.1/DTD/svg11.dtd">
<svg version="1.1" id="Layer_1" xmlns="http://www.w3.org/2000/svg" xmlns:xlink="http://www.w3.org/1999/xlink" x="0px" y="0px"
	 width="64px" height="64px" viewBox="0 0 64 64" enable-background="new 0 0 64 64" xml:space="preserve">
<g id="Woman_x2019_s_Shirt">
	
		<path fill="#E55D59" stroke="#494949" stroke-width="1.5" stroke-linecap="round" stroke-linejoin="round" stroke-miterlimit="10" d="
		M55.493,47.027c0,0,0.612,1.72,1.046,3.498l-5.494,0.935c0,0-0.577-1.719-1.055-3.206h0.005l-5.927-18.381l0.865,21.586
		c-2.654,3.395-13.088,3.538-13.088,3.538c-11.229,0.344-13.01-3.538-13.01-3.538l0.786-21.586l-5.926,18.381
		c-0.48,1.486-1.058,3.206-1.058,3.206l-5.508-0.935c0.436-1.778,1.05-3.498,1.05-3.498l8.172-29.425l8.467-2.957l1.136-2.763
		c0,0,5.382-2.487,12.303,0l1.132,2.763l7.95,2.957l8.173,29.425H55.493z"/>
	
		<path fill="#C4494F" stroke="#494949" stroke-width="1.5" stroke-linecap="round" stroke-linejoin="round" stroke-miterlimit="10" d="
		M25.954,11.883c0,0,5.382-2.487,12.303,0l-3.284,3.895l-1.472,0.751l0.149,1.564l-1.5,3.952l-1.974-3.952l0.013-1.564l-0.953-0.751
		L25.954,11.883z"/>
	<path fill="none" stroke="#494949" stroke-width="1.5" stroke-linecap="round" stroke-linejoin="round" stroke-miterlimit="10" d="
		M33.689,45.622c0,0.093-0.078,0.17-0.172,0.17c-0.095,0-0.17-0.077-0.17-0.17c0-0.099,0.075-0.173,0.17-0.173
		C33.611,45.449,33.689,45.523,33.689,45.622z"/>
	<path fill="none" stroke="#494949" stroke-width="1.5" stroke-linecap="round" stroke-linejoin="round" stroke-miterlimit="10" d="
		M33.757,39.424c0,0.094-0.075,0.172-0.17,0.172c-0.093,0-0.172-0.078-0.172-0.172c0-0.097,0.079-0.171,0.172-0.171
		C33.682,39.253,33.757,39.327,33.757,39.424z"/>
	
		<circle fill="none" stroke="#494949" stroke-width="1.5" stroke-linecap="round" stroke-linejoin="round" stroke-miterlimit="10" cx="33.654" cy="34.08" r="0.171"/>
	<path fill="none" stroke="#494949" stroke-width="1.5" stroke-linecap="round" stroke-linejoin="round" stroke-miterlimit="10" d="
		M34.064,27.882c0,0.093-0.076,0.17-0.172,0.17c-0.093,0-0.17-0.077-0.17-0.17c0-0.097,0.077-0.171,0.17-0.171
		C33.988,27.711,34.064,27.785,34.064,27.882z"/>
	
		<circle fill="none" stroke="#494949" stroke-width="1.5" stroke-linecap="round" stroke-linejoin="round" stroke-miterlimit="10" cx="34.236" cy="22.094" r="0.171"/>
	
		<path fill="#C4494F" stroke="#494949" stroke-width="1.5" stroke-linecap="round" stroke-linejoin="round" stroke-miterlimit="10" d="
		M13.695,48.255c-0.48,1.486-1.058,3.206-1.058,3.206l-5.508-0.934c0.436-1.779,1.05-3.5,1.05-3.5L13.695,48.255z"/>
	
		<path fill="#C4494F" stroke="#494949" stroke-width="1.5" stroke-linecap="round" stroke-linejoin="round" stroke-miterlimit="10" d="
		M49.99,48.255c0.479,1.486,1.055,3.206,1.055,3.206l5.494-0.934c-0.434-1.779-1.046-3.5-1.046-3.5L49.99,48.255z"/>
	
		<polygon fill="#C4494F" stroke="#494949" stroke-width="1.5" stroke-linecap="round" stroke-linejoin="round" stroke-miterlimit="10" points="
		25.954,11.883 24.818,14.646 27.188,21.205 29.238,15.778 	"/>
	
		<polygon fill="#C4494F" stroke="#494949" stroke-width="1.5" stroke-linecap="round" stroke-linejoin="round" stroke-miterlimit="10" points="
		38.257,11.883 39.393,14.646 37.023,21.205 34.973,15.778 	"/>
	<path fill="none" stroke="#494949" stroke-width="1.5" stroke-linecap="round" stroke-linejoin="round" stroke-miterlimit="10" d="
		M32.298,54.986c2.034-0.075,10.313-0.557,12.636-3.525l-0.865-21.586l5.927,18.381H49.99c0.479,1.486,1.055,3.206,1.055,3.206
		l5.494-0.935c-0.434-1.778-1.046-3.498-1.046-3.498h0.021L47.34,17.604l-7.951-2.957l-1.131-2.763l-3.283,3.895l-1.473,0.751
		l0.148,1.564l-1.499,3.952C32.152,22.044,31.261,49.12,32.298,54.986z"/>
	<path fill="none" stroke="#494949" stroke-width="1.5" stroke-linecap="round" stroke-linejoin="round" stroke-miterlimit="10" d="
		M32.298,54.986c-1.037-5.866-0.146-32.941-0.146-32.941l-1.974-3.952l0.013-1.564l-0.953-0.751l-3.284-3.895l-1.136,2.763
		l-8.467,2.957L8.179,47.027c0,0-0.615,1.72-1.05,3.498l5.508,0.935c0,0,0.578-1.719,1.058-3.206l5.926-18.381L18.835,51.46
		c0,0,1.781,3.882,13.01,3.538C31.845,54.998,31.863,55.004,32.298,54.986z"/>
	
		<path fill="#C4494F" stroke="#494949" stroke-width="1.5" stroke-linecap="round" stroke-linejoin="round" stroke-miterlimit="10" d="
		M38.257,11.883c-6.921-2.487-12.303,0-12.303,0l1.322,1.568c1.819-0.521,5.359-1.153,9.626,0.032L38.257,11.883z"/>
</g>
</svg>
