<?xml version="1.0" encoding="utf-8"?>
<!-- Generator: Adobe Illustrator 16.0.0, SVG Export Plug-In . SVG Version: 6.00 Build 0)  -->
<!DOCTYPE svg PUBLIC "-//W3C//DTD SVG 1.1//EN" "http://www.w3.org/Graphics/SVG/1.1/DTD/svg11.dtd">
<svg version="1.1" id="Layer_1" xmlns="http://www.w3.org/2000/svg" xmlns:xlink="http://www.w3.org/1999/xlink" x="0px" y="0px"
	 width="64px" height="64px" viewBox="0 0 64 64" enable-background="new 0 0 64 64" xml:space="preserve">
<g id="Woman_x2019_s_Coat">
	
		<path fill="#D6E167" stroke="#494949" stroke-width="1.5" stroke-linecap="round" stroke-linejoin="round" stroke-miterlimit="10" d="
		M31.793,49.637c-0.496,1.896-1.143,2.572-1.143,2.572l-0.316,0.086c-4.926,0.703-12.209-4.615-12.209-4.615
		c4.775-12.762,1.383-20.211,1.383-20.211l-6.345,16.264c-4.569,0.736-6.221-3.348-6.221-3.348l9.475-22.859l10.206-2.973
		l1.052-1.051c2.031,1.354,4.287,1.428,4.287,1.428h0.123c0,0,2.255-0.074,4.287-1.428l1.052,1.051l9.832,2.973l9.473,22.859
		c0,0-1.556,3.404-5.845,3.348l-6.458-15.438c0,0-3.355,9.166,0.537,19.871c0,0-7.456,4.91-11.548,4.194
		C33.413,52.359,32.39,52.211,31.793,49.637L31.793,49.637z"/>
	
		<path fill="#D6E167" stroke="#494949" stroke-width="1.5" stroke-linecap="round" stroke-linejoin="round" stroke-miterlimit="10" d="
		M31.793,49.637c0.597,2.574,1.62,2.723,1.62,2.723c4.092,0.716,11.548-4.194,11.548-4.194c-3.893-10.705-0.537-19.871-0.537-19.871
		l6.458,15.438c4.289,0.058,5.845-3.348,5.845-3.348l-9.473-22.859l-9.832-2.973l-1.052-1.051
		c0.825,8.949-4.038,19.701-4.038,19.701c-0.087,0.281-0.167,0.582-0.241,0.904c-0.933,4.082-0.731,11.129-0.731,11.129
		C31.362,47.115,31.556,48.615,31.793,49.637z"/>
	
		<path fill="#B7B444" stroke="#494949" stroke-width="1.5" stroke-linecap="round" stroke-linejoin="round" stroke-miterlimit="10" d="
		M32.332,33.203c-0.087,0.281-0.167,0.582-0.241,0.904c-6.59-3.124-9.75-12.359-9.75-12.359l1.652-0.377
		c0,0-0.986-2.225,1.843-6.588l0.785-0.23l1.052-1.051C27.673,13.502,26.688,26.361,32.332,33.203z"/>
	
		<path fill="#B7B444" stroke="#494949" stroke-width="1.5" stroke-linecap="round" stroke-linejoin="round" stroke-miterlimit="10" d="
		M36.37,13.502c0.825,8.949-4.038,19.701-4.038,19.701c-0.087,0.281-0.167,0.582-0.241,0.904c6.05-4.206,9.279-12.359,9.279-12.359
		l-1.653-0.377c0,0,1.055-2.295-1.773-6.66l-0.521-0.158L36.37,13.502z"/>
	<path fill="none" stroke="#494949" stroke-width="1.5" stroke-linecap="round" stroke-linejoin="round" stroke-miterlimit="10" d="
		M32.332,33.203c-5.644-6.842-4.659-19.701-4.659-19.701l-1.052,1.051l-10.206,2.973L6.941,40.385c0,0,1.652,4.084,6.221,3.348
		l6.345-16.264c0,0,3.392,7.449-1.383,20.211c0,0,7.284,5.318,12.209,4.615l0.316-0.086c0,0,0.647-0.676,1.143-2.572
		c-0.237-1.021-0.431-2.521-0.433-4.4c0,0-0.202-7.047,0.731-11.129C32.165,33.785,32.245,33.484,32.332,33.203z"/>
	
		<path fill="#B7B444" stroke="#494949" stroke-width="1.5" stroke-linecap="round" stroke-linejoin="round" stroke-miterlimit="10" d="
		M27.673,13.502c0,0-0.985,12.859,4.659,19.701c0,0,4.863-10.752,4.038-19.701c-2.032,1.354-4.287,1.428-4.287,1.428H31.96
		C31.96,14.93,29.705,14.855,27.673,13.502z"/>
</g>
</svg>
