<?xml version="1.0" encoding="utf-8"?>
<!-- Generator: Adobe Illustrator 16.0.0, SVG Export Plug-In . SVG Version: 6.00 Build 0)  -->
<!DOCTYPE svg PUBLIC "-//W3C//DTD SVG 1.1//EN" "http://www.w3.org/Graphics/SVG/1.1/DTD/svg11.dtd">
<svg version="1.1" id="Layer_1" xmlns="http://www.w3.org/2000/svg" xmlns:xlink="http://www.w3.org/1999/xlink" x="0px" y="0px"
	 width="64px" height="64px" viewBox="0 0 64 64" enable-background="new 0 0 64 64" xml:space="preserve">
<g id="Woman_x2019_s_Pant">
	
		<path fill="#E55D59" stroke="#494949" stroke-width="1.5" stroke-linecap="round" stroke-linejoin="round" stroke-miterlimit="10" d="
		M38.32,10.964l0.437,1.755c3.07,5.908,1.614,13.659,1.614,13.659c-0.387,3.991,0.457,7.522,0.457,7.522
		c2.611,6.217,2.229,20.027,2.229,20.027l-6.021,1.073c-0.853-2.243-1.043-8.899-1.043-8.899c-0.154-4.297-1.611-9.746-1.611-9.746
		c-0.766-6.907-2.855-12.293-2.855-12.293l-0.193,0.007c0,0-2.006,5.379-2.773,12.287c0,0-1.457,5.449-1.611,9.746
		c0,0-0.094,6.946-0.867,8.899l-5.85-1.09l-0.029,0.017c0,0-0.383-13.812,2.225-20.027c0,0,0.846-3.531,0.461-7.522
		c0,0-1.459-7.751,1.61-13.659l0.438-1.755h-0.002c1.982,2.136,5.975,2.138,6.493,2.138C36.664,12.719,38.32,10.964,38.32,10.964z"
		/>
</g>
</svg>
