<?xml version="1.0" encoding="utf-8"?>
<!-- Generator: Adobe Illustrator 16.0.0, SVG Export Plug-In . SVG Version: 6.00 Build 0)  -->
<!DOCTYPE svg PUBLIC "-//W3C//DTD SVG 1.1//EN" "http://www.w3.org/Graphics/SVG/1.1/DTD/svg11.dtd">
<svg version="1.1" id="Layer_1" xmlns="http://www.w3.org/2000/svg" xmlns:xlink="http://www.w3.org/1999/xlink" x="0px" y="0px"
	 width="64px" height="64px" viewBox="0 0 64 64" enable-background="new 0 0 64 64" xml:space="preserve">
<g id="Woman_x2019_s_T-shirt">
	<g>
		
			<path fill="#E55D59" stroke="#494949" stroke-width="1.5" stroke-linecap="round" stroke-linejoin="round" stroke-miterlimit="10" d="
			M38.469,9.671l1.725,1.742c0,0,2.295,0.331,3.719,0.331c1.419,0,4.043,0.655,4.479,2.406c0.438,1.745,2.514,10.925,2.623,11.472
			c0.108,0.549-2.623,1.969-5.354,1.532c-0.872-0.325-0.872-0.325-0.872-0.325s-0.458-2.347-0.354-0.798
			c0.012,0.188,0.246,0.92,0.207,1.524c0,0,0.127,2.526-1.609,4.958c-1.379,1.928,0.619,6.06,0.619,6.06s3.884,6.024,2.479,16.849
			c-16.25,4.686-27.687-0.066-27.687-0.066c-1.792-9.614,2.026-15.312,2.942-17.883c0.919-2.568-0.688-5.278-0.688-5.278
			c-2.01-2.639-1.268-6.133-1.268-6.133c0.105-1.092,0.105-1.971,0.105-1.971l-0.767,1.971c0,0-4.589,0.436-6.116-0.875
			c0.437-3.06,2.188-8.636,2.511-9.619c0.331-0.985,1.093-1.746,2.406-2.516c1.315-0.76,2.624-1.199,3.715-1.308
			c1.098-0.111,1.968,0,2.519-0.546c0.547-0.547,1.638-1.97,1.638-1.97S33.064,7.432,38.469,9.671z"/>
	</g>
	
		<path fill="#C4494F" stroke="#494949" stroke-width="1.5" stroke-linecap="round" stroke-linejoin="round" stroke-miterlimit="10" d="
		M38.469,9.671C33.064,7.432,25.44,9.229,25.44,9.229s-0.138,3.61,6.394,3.61C31.833,12.839,36.646,13.251,38.469,9.671z"/>
</g>
</svg>
