<?xml version="1.0" encoding="utf-8"?>
<!-- Generator: Adobe Illustrator 16.0.0, SVG Export Plug-In . SVG Version: 6.00 Build 0)  -->
<!DOCTYPE svg PUBLIC "-//W3C//DTD SVG 1.1//EN" "http://www.w3.org/Graphics/SVG/1.1/DTD/svg11.dtd">
<svg version="1.1" id="Layer_1" xmlns="http://www.w3.org/2000/svg" xmlns:xlink="http://www.w3.org/1999/xlink" x="0px" y="0px"
	 width="64px" height="64px" viewBox="0 0 64 64" enable-background="new 0 0 64 64" xml:space="preserve">
<g id="Woman_x2019_s_Dress">
	
		<path fill="#DDDDDC" stroke="#494949" stroke-width="1.5" stroke-linecap="round" stroke-linejoin="round" stroke-miterlimit="10" d="
		M38.477,26.756c0,0,0.152-0.367-0.184-0.785c0,0-0.238-1.466-0.134-1.912l0.866-4.896c0,0,0.576-2.031,0.836-2.212
		c0,0-1.045-4.335,0.367-7.791l-0.552-0.524L36.893,8.14c0,0,0.194,0.948,0.053,1.598c0,0-0.286,1.572-0.627,1.966
		c-0.338,0.391-0.883,2.081-4.495,2.171c-3.222,0.079-4.456-2.017-4.456-2.017s-1.15-1.493-1.388-3.718l-1.985,0.601
		c0,0-0.709-0.263-1.18,0.42c0,0,1.781,1.57,0.837,7.542c0,0,0.454,1.011,0.803,3.736l0.631,4.188c0,0-0.349,0.909-0.42,2.585
		l-1.771,5.002c0,0,2.259,4.42,5.013,3.043c2.752-1.378,2.78,2.459,6.208,0.263c3.431-2.191,4.184,1.233,6.975-2.683L38.477,26.756z
		"/>
	
		<path fill="#D6E167" stroke="#494949" stroke-width="1.5" stroke-linecap="round" stroke-linejoin="round" stroke-miterlimit="10" d="
		M47.173,47.453c0,0,4.97,5.344,2.216,7.314l-7.212,1.422v0.277l-4.79,0.463c-0.404-0.156-2.504,0.33-2.504,0.33
		c-0.165,0.887-5.011,0.319-5.011,0.319v-0.638c-0.807-0.56-2.506-0.252-2.506-0.252c-0.969,0.569-4.93,0-4.93,0v-0.566
		c-0.324-0.645-3.799-0.637-5.335-0.879c-1.534-0.242-2.18-0.807-2.18-0.807c-4.722-1.817,0.935-8.648,0.935-8.648l0.34-0.271
		c0.032-2.772,3.532-5.93,3.532-5.93l0,0c-0.47-2.873,2.808-7.432,2.808-7.432c0.076-0.11,0.358,0.056,0.358,0.056l1.771-5.002
		c0.071-1.676,0.42-2.585,0.42-2.585l-0.631-4.188c-0.349-2.726-0.803-3.736-0.803-3.736c0.944-5.972-0.837-7.542-0.837-7.542
		c0.471-0.683,1.18-0.42,1.18-0.42l1.985-0.601c0.237,2.225,1.388,3.718,1.388,3.718s1.234,2.096,4.456,2.017
		c3.612-0.09,4.157-1.78,4.495-2.171c0.341-0.394,0.627-1.966,0.627-1.966c0.143-0.649-0.053-1.598-0.053-1.598l2.784,0.496
		l0.552,0.524c-1.412,3.456-0.367,7.791-0.367,7.791c-0.26,0.181-0.836,2.212-0.836,2.212l-0.866,4.896
		c-0.104,0.446,0.134,1.912,0.134,1.912c0.336,0.418,0.184,0.785,0.184,0.785l2.612,6.08c0,0,4.55,4.482,3.233,6.93
		c0,0,3.152,2.426,3.07,6.883c-0.007,0.322-0.072,0.571-0.188,0.766L47.173,47.453z"/>
	
		<path fill="#B7B444" stroke="#494949" stroke-width="1.5" stroke-linecap="round" stroke-linejoin="round" stroke-miterlimit="10" d="
		M22.894,32.213c0,0,2.259,4.42,5.013,3.043c2.752-1.378,2.78,2.459,6.208,0.264c3.431-2.192,4.184,1.232,6.975-2.684
		c0,0,5.6,5.518,2.577,7.652c-1.58,1.113-2.997,0.392-5.08,1.272c-2.084,0.884-1.346,0.392-4.188,0.981
		c-2.845,0.588-2.16,0.294-3.432,0.294c-1.275,0-2.355,0.394-4.021,0c-1.668-0.394-0.652-0.663-2.611-0.663
		c-1.963,0-3.175-0.904-3.175-0.904c-3.992-1.842,1.378-9.313,1.378-9.313L22.894,32.213z"/>
	
		<path fill="#D6E167" stroke="#494949" stroke-width="1.5" stroke-linecap="round" stroke-linejoin="round" stroke-miterlimit="10" d="
		M19.728,39.589c0.156,0.744,0.607,1.502,1.43,1.882c0,0,1.212,0.903,3.175,0.903c1.959,0,0.943,0.271,2.611,0.663
		c1.666,0.393,2.746,0,4.021,0c1.272,0,0.586,0.294,3.432-0.294c2.844-0.591,2.104-0.099,4.188-0.981
		c2.083-0.882,3.5-0.158,5.08-1.272c0.298-0.21,0.515-0.455,0.657-0.724c0,0,3.182,2.566,3.068,6.883
		c-0.067,2.574-3.984,0.521-6.761,1.697c-2.774,1.172-1.792,0.521-5.573,1.303c-3.785,0.783-2.873,0.393-4.566,0.393
		c-1.697,0-3.132,0.523-5.351,0c-2.218-0.521-1.507-0.975-4.117-0.975c-2.607,0-3.58-1.113-3.58-1.113
		C13.66,45.089,19.728,39.589,19.728,39.589z"/>
	
		<path fill="#B7B444" stroke="#494949" stroke-width="1.5" stroke-linecap="round" stroke-linejoin="round" stroke-miterlimit="10" d="
		M15.856,45.79c0,0-5.656,6.831-0.935,8.647c0,0,0.646,0.564,2.18,0.808c1.536,0.241,5.011,0.235,5.335,0.879v0.567
		c0,0,3.961,0.568,4.93,0c0,0,1.699-0.309,2.506,0.252v0.637c0,0,4.846,0.566,5.011-0.319c0,0,2.1-0.487,2.504-0.329l4.79-0.464
		v-0.278l7.212-1.422c2.754-1.971-2.216-7.313-2.216-7.313c-0.832,1.347-4.112-0.138-6.541,0.892
		c-2.774,1.174-1.792,0.521-5.573,1.303c-3.785,0.785-2.873,0.394-4.566,0.394c-1.697,0-3.132,0.524-5.351,0
		c-2.218-0.522-1.507-0.974-4.117-0.974c-2.607,0-3.58-1.114-3.58-1.114c-0.918-0.695-1.256-1.545-1.242-2.435L15.856,45.79z"/>
</g>
</svg>
