<?xml version="1.0" encoding="utf-8"?>
<!-- Generator: Adobe Illustrator 16.0.0, SVG Export Plug-In . SVG Version: 6.00 Build 0)  -->
<!DOCTYPE svg PUBLIC "-//W3C//DTD SVG 1.1//EN" "http://www.w3.org/Graphics/SVG/1.1/DTD/svg11.dtd">
<svg version="1.1" id="Layer_1" xmlns="http://www.w3.org/2000/svg" xmlns:xlink="http://www.w3.org/1999/xlink" x="0px" y="0px"
	 width="64px" height="64px" viewBox="0 0 64 64" enable-background="new 0 0 64 64" xml:space="preserve">
<g id="Woman_x2019_s_Jeans">
	
		<path fill="#72CACA" stroke="#494949" stroke-width="1.5" stroke-linecap="round" stroke-linejoin="round" stroke-miterlimit="10" d="
		M25.062,8.825l-0.728,2.052c0,0-0.305,0.293-0.705,1.061c-0.574,1.103-1.343,3.18-1.678,6.765
		c-0.177,1.896-0.232,4.213-0.072,7.028c0,0,0.703,5.696-0.095,8.153c0,0-0.925,2.15-1.008,5.416c0,0-1.174,3.979-1.047,6.785
		c0,0-0.84,3.854-0.547,9.511c0,0,1.875,1.979,6.493,1.299c0,0,0.229-0.527,0.321-2.09c0,0,0.194-1.13,0.685-8.468l1.59-9.213
		c0,0,2.931-9.635,3.602-14.071c0,0,2.344,5.943,3.184,13.483c0,0,1.592,5.948,1.762,10.637c0,0-0.084,8.632,1.507,9.722
		c0,0,3.024,1.047,6.2-1.176c0,0,0.42-15.074-2.432-21.861c0,0-0.919-3.856-0.498-8.208c0,0,1.588-8.463-1.764-14.913l-0.477-1.91
		c0,0-1.808,1.91-7.522,2.328C31.833,11.153,27.225,11.15,25.062,8.825z"/>
	
		<circle fill="none" stroke="#494949" stroke-width="1.5" stroke-linecap="round" stroke-linejoin="round" stroke-miterlimit="10" cx="33.547" cy="12.95" r="0.075"/>
	<path fill="none" stroke="#494949" stroke-width="1.5" stroke-linecap="round" stroke-linejoin="round" stroke-miterlimit="10" d="
		M31.874,23.053c0-0.511,0-0.637-0.04-1.458"/>
	<path fill="none" stroke="#494949" stroke-width="1.5" stroke-linecap="round" stroke-linejoin="round" stroke-miterlimit="10" d="
		M23.619,11.956c0.404-0.779,0.715-1.079,0.715-1.079l0.728-2.052c2.163,2.325,6.771,2.328,6.771,2.328
		c5.715-0.418,7.522-2.328,7.522-2.328l0.477,1.91c0.209,0.401,0.4,0.813,0.572,1.23c-0.758,1.463-3.932,2.299-6.206,2.72
		c-1.366,0.254-2.407,0.357-2.407,0.357c-2.116-0.17-3.688-0.485-4.854-0.852C23.923,13.245,23.619,11.956,23.619,11.956z"/>
	<path fill="none" stroke="#494949" stroke-width="1.5" stroke-linecap="round" stroke-linejoin="round" stroke-miterlimit="10" d="
		M34.198,14.686c-1.366,0.254-2.364,0.346-2.364,0.346c0,1.534,0.021,4.319,0,6.563C35.669,21.595,34.198,14.686,34.198,14.686z"/>
	
		<line fill="none" stroke="#494949" stroke-width="1.5" stroke-linecap="round" stroke-linejoin="round" stroke-miterlimit="10" x1="31.834" y1="11.147" x2="31.834" y2="15.031"/>
	
		<path fill="#60A8A6" stroke="#494949" stroke-width="1.5" stroke-linecap="round" stroke-linejoin="round" stroke-miterlimit="10" d="
		M26.938,14.191c-3.015-0.946-3.319-2.235-3.319-2.235l0.01-0.019c-0.574,1.103-1.343,3.18-1.678,6.765
		C26.434,20.382,26.939,14.191,26.938,14.191L26.938,14.191z"/>
	
		<path fill="#60A8A6" stroke="#494949" stroke-width="1.5" stroke-linecap="round" stroke-linejoin="round" stroke-miterlimit="10" d="
		M36.877,14.052c3.066-0.934,3.527-2.086,3.527-2.086l-0.01-0.021c0.573,1.102,1.222,3.099,1.504,6.801
		C37.416,20.423,36.877,14.052,36.877,14.052z"/>
</g>
</svg>
