<?xml version="1.0" encoding="utf-8"?>
<!-- Generator: Adobe Illustrator 16.0.0, SVG Export Plug-In . SVG Version: 6.00 Build 0)  -->
<!DOCTYPE svg PUBLIC "-//W3C//DTD SVG 1.1//EN" "http://www.w3.org/Graphics/SVG/1.1/DTD/svg11.dtd">
<svg version="1.1" id="Layer_1" xmlns="http://www.w3.org/2000/svg" xmlns:xlink="http://www.w3.org/1999/xlink" x="0px" y="0px"
	 width="64px" height="64px" viewBox="0 0 64 64" enable-background="new 0 0 64 64" xml:space="preserve">
<g id="Woman_x2019_s_Sweater">
	
		<path fill="#C69981" stroke="#494949" stroke-width="1.5" stroke-linecap="round" stroke-linejoin="round" stroke-miterlimit="10" d="
		M49.156,53.716c-0.738-0.276-6.961-27.132-6.961-27.132s-0.387-1.989-0.299-0.675c0.012,0.159,0.209,0.779,0.174,1.293
		c0,0,0.109,2.142-1.365,4.205c-1.167,1.635,0.527,5.14,0.527,5.14s3.293,5.107,2.103,14.29
		c-13.783,3.974-23.483-0.058-23.483-0.058c-1.521-8.154,1.718-12.984,2.495-15.166c0.78-2.182-0.585-4.479-0.585-4.479
		c-1.704-2.237-1.075-5.203-1.075-5.203c0.09-0.926,0.09-1.671,0.09-1.671l-6.67,29.671c0.557,1.245-0.865,2.984-0.865,2.984
		c-2.292,0.602-5.596-1.366-5.596-1.366s-0.235-3.028,1.438-3.022c0.371-2.596,7.712-33.559,7.984-34.394
		c0.281-0.836,0.929-1.48,2.042-2.133c1.114-0.646,2.225-1.019,3.149-1.11c0.806-0.08,1.469-1.123,1.936-1.405v0.002
		c-1.793-0.987,1.602-3.98,1.602-3.98S32.579,7.91,37.391,9.9l0.395,0.634c1.23,1.947,0.918,2.689,0.512,2.972L38.3,13.51
		c0,0,1.947,1.382,3.154,1.382c1.205,0,3.433,0.556,3.8,2.042c0.371,1.479,8.833,34.914,8.926,35.378
		c1.674-0.006,1.438,3.024,1.438,3.024s-3.301,1.966-5.594,1.364C50.021,56.701,48.598,54.961,49.156,53.716z"/>
	
		<path fill="#D6E167" stroke="#494949" stroke-width="1.5" stroke-linecap="round" stroke-linejoin="round" stroke-miterlimit="10" d="
		M9.083,52.527C7.41,52.521,7.645,55.55,7.645,55.55s3.304,1.968,5.596,1.366c0,0,1.422-1.739,0.865-2.984
		C14.106,53.932,10.354,53.818,9.083,52.527z"/>
	
		<path fill="#D6E167" stroke="#494949" stroke-width="1.5" stroke-linecap="round" stroke-linejoin="round" stroke-miterlimit="10" d="
		M49.156,53.716c-0.561,1.245,0.865,2.985,0.865,2.985c2.293,0.602,5.594-1.364,5.594-1.364s0.236-3.03-1.438-3.024
		C54.271,52.775,50.661,54.287,49.156,53.716z"/>
	
		<path fill="#D6E167" stroke="#494949" stroke-width="1.5" stroke-linecap="round" stroke-linejoin="round" stroke-miterlimit="10" d="
		M38.296,13.506c0.406-0.282,0.72-1.024-0.512-2.972L37.391,9.9c-4.812-1.99-11.595-0.393-11.595-0.393s-3.395,2.993-1.602,3.98
		c0.141,0.076,0.311,0.142,0.519,0.191c0,0,9.313-0.98,13.071,0C37.784,13.68,38.057,13.675,38.296,13.506z"/>
</g>
</svg>
