<?xml version="1.0" encoding="utf-8"?>
<!-- Generator: Adobe Illustrator 16.0.0, SVG Export Plug-In . SVG Version: 6.00 Build 0)  -->
<!DOCTYPE svg PUBLIC "-//W3C//DTD SVG 1.1//EN" "http://www.w3.org/Graphics/SVG/1.1/DTD/svg11.dtd">
<svg version="1.1" id="Layer_1" xmlns="http://www.w3.org/2000/svg" xmlns:xlink="http://www.w3.org/1999/xlink" x="0px" y="0px"
	 width="64px" height="64px" viewBox="0 0 64 64" enable-background="new 0 0 64 64" xml:space="preserve">
<g id="Woman_x2019_s_Collared_T-shirt">
	<g>
		
			<path fill="#E55D59" stroke="#494949" stroke-width="1.5" stroke-linecap="round" stroke-linejoin="round" stroke-miterlimit="10" d="
			M42.938,38.166c0,0,3.886,6.023,2.477,16.85c-16.246,4.684-27.682-0.067-27.682-0.067c-1.794-9.616,2.025-15.312,2.939-17.882
			c0.921-2.572-0.687-5.28-0.687-5.28c-2.012-2.637-1.271-6.134-1.271-6.134c0.108-1.092,0.108-1.969,0.108-1.969l-0.77,1.969
			c0,0-4.587,0.438-6.115-0.874c0.438-3.06,2.188-8.636,2.51-9.616c0.334-0.987,1.096-1.747,2.408-2.516
			c1.315-0.763,2.622-1.201,3.716-1.31c1.097-0.11,1.966,0,2.518-0.544c0.548-0.551,1.639-1.974,1.639-1.974
			s1.611,3.146,2.379,3.801c0.766,0.658,3.742,1.886,5.817,1.447c2.072-0.438,3.601-1.421,4.041-2.295
			c0.438-0.871,0.545-2.402,0.545-2.402l1.97,1.637c0,0,2.293,0.33,3.719,0.33c1.422,0,4.043,0.655,4.48,2.407
			c0.434,1.745,2.512,10.925,2.622,11.472c0.107,0.548-2.622,1.967-5.358,1.531C44.07,26.42,44.07,26.42,44.07,26.42
			s-0.452-2.344-0.35-0.795c0.012,0.185,0.247,0.918,0.204,1.524c0,0,0.128,2.523-1.606,4.956
			C40.938,34.035,42.938,38.166,42.938,38.166z"/>
	</g>
	
		<rect x="31.122" y="14.342" fill="#C4494F" stroke="#494949" stroke-width="1.5" stroke-linecap="round" stroke-linejoin="round" stroke-miterlimit="10" width="1.897" height="9.916"/>
	<path fill="none" stroke="#494949" stroke-width="1.5" stroke-linecap="round" stroke-linejoin="round" stroke-miterlimit="10" d="
		M39.479,11.006c0,0,0.703,3.886-4.254,6.09c0,0-0.18-3.192-3.029-2.754h-1.073c-2.449-0.551-2.781,2.754-2.781,2.754
		c-4.408-1.79-5.04-6.53-5.04-6.53l1.427-1.747c0,0,1.611,3.146,2.379,3.801c0.766,0.658,3.742,1.886,5.817,1.447
		c2.072-0.438,3.601-1.421,4.041-2.295c0.438-0.871,0.546-2.402,0.546-2.402L39.479,11.006z"/>
	
		<path fill="#C4494F" stroke="#494949" stroke-width="1.5" stroke-linecap="round" stroke-linejoin="round" stroke-miterlimit="10" d="
		M32.924,14.066c2.072-0.438,3.602-1.421,4.041-2.295c0.438-0.871,0.545-2.402,0.545-2.402l1.969,1.637c0,0,0.703,3.886-4.254,6.09
		c0,0-0.18-3.192-3.029-2.754v-0.188L32.924,14.066z"/>
	
		<path fill="#C4494F" stroke="#494949" stroke-width="1.5" stroke-linecap="round" stroke-linejoin="round" stroke-miterlimit="10" d="
		M31.122,14.342c-2.449-0.551-2.781,2.754-2.781,2.754c-4.408-1.79-5.04-6.53-5.04-6.53l1.427-1.747c0,0,1.611,3.146,2.379,3.801
		c0.573,0.492,2.383,1.304,4.129,1.497L31.122,14.342z"/>
</g>
</svg>
