<?xml version="1.0" encoding="utf-8"?>
<!-- Generator: Adobe Illustrator 16.0.0, SVG Export Plug-In . SVG Version: 6.00 Build 0)  -->
<!DOCTYPE svg PUBLIC "-//W3C//DTD SVG 1.1//EN" "http://www.w3.org/Graphics/SVG/1.1/DTD/svg11.dtd">
<svg version="1.1" id="Layer_1" xmlns="http://www.w3.org/2000/svg" xmlns:xlink="http://www.w3.org/1999/xlink" x="0px" y="0px"
	 width="64px" height="64px" viewBox="0 0 64 64" enable-background="new 0 0 64 64" xml:space="preserve">
<g id="Woman_x2019_s_Top">
	
		<path fill="#D6E167" stroke="#494949" stroke-width="1.5" stroke-linecap="round" stroke-linejoin="round" stroke-miterlimit="10" d="
		M21.592,17.661c0,0-0.54,5.281-4.22,6.243c0,0,3.04,2.88,1.919,8.642c0,0-4.801,14.086-4.319,19.207c0,0-0.291,2.853-1.411,4.935
		c0,0,0.758,0.986,3.804,0.508c3.048-0.479,4.808,1.439,6.889,0.802c2.08-0.642,1.763-0.378,4.642,0.132
		c2.883,0.507,2.08,0.611,5.122,0c3.041-0.613,4.319-0.293,6.725-0.293c2.4,0,3.535-0.036,5.137-0.837
		c1.6-0.798,2.805-0.979,2.805-0.979l-1.699-4.586c0,0,0.64-6.722-4.48-19.048c0,0-1.602-4.643,1.92-8.481
		c0,0-3.521-4.003-4.322-6.243l-4.801,2.562c0,0-0.143,1.739-4.043,2.219c0,0-3.521-0.096-3.942-2.079L21.592,17.661z"/>
	
		<path fill="#B7B444" stroke="#494949" stroke-width="1.5" stroke-linecap="round" stroke-linejoin="round" stroke-miterlimit="10" d="
		M19.538,30.305c0.085-4.269-2.166-6.4-2.166-6.4c3.68-0.962,4.22-6.243,4.22-6.243l5.721,2.701
		c0.422,1.983,3.942,2.079,3.942,2.079c3.899-0.479,4.043-2.219,4.043-2.219l4.802-2.562c0.801,2.24,4.321,6.243,4.321,6.243
		c-2.03,2.214-2.358,4.695-2.271,6.399c0,0-0.271,3.421-5.904,4.142c0,0-1.491,0.188-3.096-0.379
		c-1.745-0.854-4.38-0.086-4.38-0.086c-1.688,0.672-3.328,0.465-3.328,0.465C19.812,33.727,19.538,30.305,19.538,30.305z"/>
	
		<path fill="#B7B444" stroke="#494949" stroke-width="1.5" stroke-linecap="round" stroke-linejoin="round" stroke-miterlimit="10" d="
		M46.98,51.434l1.701,4.586c0,0-1.205,0.182-2.806,0.979c-1.603,0.801-2.735,0.837-5.138,0.837c-2.403,0-3.684-0.32-6.723,0.293
		c-3.042,0.611-2.24,0.507-5.123,0c-2.879-0.51-2.562-0.771-4.642-0.132c-2.081,0.639-3.841-1.281-6.889-0.802
		c-3.046,0.479-3.804-0.508-3.804-0.508c1.12-2.082,1.411-4.935,1.411-4.935s6.496,2.226,10.755,0.786
		c2.981-1.003,4.61,0.494,5.884,0.732c0,0,2.046,0.842,5.143,0c3.095-0.84,6.042,0.307,8.138-0.767
		C46.98,51.434,46.98,51.434,46.98,51.434z"/>
	<path fill="none" stroke="#494949" stroke-width="1.5" stroke-linecap="round" stroke-linejoin="round" stroke-miterlimit="10" d="
		M36.818,19.41l2.765-1.476c0,0,1.981-10.859-0.06-10.438c-2.039,0.422-2.602,3.346-2.771,11.76L36.818,19.41z"/>
	<path fill="none" stroke="#494949" stroke-width="1.5" stroke-linecap="round" stroke-linejoin="round" stroke-miterlimit="10" d="
		M24.963,19.253l-2.772-1.311l0,0c0,0-2.04-10.867,0.004-10.446c2.039,0.422,2.6,3.346,2.769,11.76L24.963,19.253L24.963,19.253z"/>
</g>
</svg>
