<?xml version="1.0" encoding="utf-8"?>
<!-- Generator: Adobe Illustrator 16.0.0, SVG Export Plug-In . SVG Version: 6.00 Build 0)  -->
<!DOCTYPE svg PUBLIC "-//W3C//DTD SVG 1.1//EN" "http://www.w3.org/Graphics/SVG/1.1/DTD/svg11.dtd">
<svg version="1.1" id="Layer_1" xmlns="http://www.w3.org/2000/svg" xmlns:xlink="http://www.w3.org/1999/xlink" x="0px" y="0px"
	 width="64px" height="64px" viewBox="0 0 64 64" enable-background="new 0 0 64 64" xml:space="preserve">
<g id="Women_x2019_s_Short">
	<g id="_x34_52">
		
			<path fill="#F18543" stroke="#494949" stroke-width="1.5" stroke-linecap="round" stroke-linejoin="round" stroke-miterlimit="10" d="
			M47.23,15.56v4.137l4.901,14.682l2.812,13.26l-9.354,2.428l-11.896,0.205l-2.542-12.599h-0.064l-2.54,12.599L16.58,50.135
			l-9.281-2.496l2.811-13.261l4.896-14.682V15.56C15.006,15.56,23.92,19.254,47.23,15.56z"/>
	</g>
	
		<path fill="#DD7236" stroke="#494949" stroke-width="1.5" stroke-linecap="round" stroke-linejoin="round" stroke-miterlimit="10" d="
		M47.23,19.602V15.56c-23.312,3.694-32.226,0-32.226,0v4.137c0,0,3.813,3.158,15.499,3.158
		C30.505,22.854,42.826,22.759,47.23,19.602z"/>
	<g>
		<g>
			
				<path fill="none" stroke="#494949" stroke-width="1.5" stroke-linecap="round" stroke-linejoin="round" stroke-miterlimit="10" d="
				M30.268,20.962c0,0,0.877-3.315,3.35-1.812c0,0,0.616,3.417-3.112,3.704c-2.787,0.213-1.702,7.537-1.227,8.013"/>
			
				<path fill="none" stroke="#494949" stroke-width="1.5" stroke-linecap="round" stroke-linejoin="round" stroke-miterlimit="10" d="
				M30.682,22.429c0,0-0.827-4.782-3.244-2.797c0,0-0.077,3.009,3.264,3.197c1.621,0.093,1.232,6.432,2.112,7.35"/>
		</g>
	</g>
</g>
</svg>
