<?xml version="1.0" encoding="iso-8859-1"?>
<!-- Generator: Adobe Illustrator 19.0.0, SVG Export Plug-In . SVG Version: 6.00 Build 0)  -->
<svg version="1.1" id="Capa_1" xmlns="http://www.w3.org/2000/svg" xmlns:xlink="http://www.w3.org/1999/xlink" x="0px" y="0px"
	 viewBox="0 0 511 511" style="enable-background:new 0 0 511 511;" xml:space="preserve">
<g>
	<path d="M415.5,0h-320C73.72,0,56,17.72,56,39.5v432c0,21.78,17.72,39.5,39.5,39.5h320c21.78,0,39.5-17.72,39.5-39.5v-432
		C455,17.72,437.28,0,415.5,0z M440,471.5c0,13.509-10.991,24.5-24.5,24.5h-320C81.991,496,71,485.009,71,471.5v-432
		C71,25.991,81.991,15,95.5,15h320c13.509,0,24.5,10.991,24.5,24.5V471.5z"/>
	<path d="M415.5,32h-320c-4.142,0-7.5,3.358-7.5,7.5v432c0,4.142,3.358,7.5,7.5,7.5h320c4.142,0,7.5-3.358,7.5-7.5v-432
		C423,35.358,419.642,32,415.5,32z M359,391.5c0-4.687,3.813-8.5,8.5-8.5s8.5,3.813,8.5,8.5v16c0,4.687-3.813,8.5-8.5,8.5
		s-8.5-3.813-8.5-8.5V391.5z M367.5,368c-12.958,0-23.5,10.542-23.5,23.5v0.5h-49v-0.5c0-12.958-10.542-23.5-23.5-23.5
		c-6.177,0-11.801,2.399-16,6.31c-4.199-3.911-9.823-6.31-16-6.31c-12.958,0-23.5,10.542-23.5,23.5v0.5H103v-81h17v0.5
		c0,12.958,10.542,23.5,23.5,23.5s23.5-10.542,23.5-23.5V311h113v0.5c0,12.958,10.542,23.5,23.5,23.5c6.177,0,11.801-2.399,16-6.31
		c4.199,3.911,9.823,6.31,16,6.31s11.801-2.399,16-6.31c4.199,3.911,9.823,6.31,16,6.31c12.958,0,23.5-10.542,23.5-23.5V311h17v81
		h-17v-0.5C391,378.542,380.458,368,367.5,368z M263,391.5c0-4.687,3.813-8.5,8.5-8.5s8.5,3.813,8.5,8.5v16
		c0,4.687-3.813,8.5-8.5,8.5s-8.5-3.813-8.5-8.5V391.5z M231,391.5c0-4.687,3.813-8.5,8.5-8.5s8.5,3.813,8.5,8.5v16
		c0,4.687-3.813,8.5-8.5,8.5s-8.5-3.813-8.5-8.5V391.5z M152,119.5c0,4.687-3.813,8.5-8.5,8.5s-8.5-3.813-8.5-8.5v-16
		c0-4.687,3.813-8.5,8.5-8.5s8.5,3.813,8.5,8.5V119.5z M143.5,143c6.177,0,11.801-2.399,16-6.31c4.199,3.911,9.823,6.31,16,6.31
		s11.801-2.399,16-6.31c4.199,3.911,9.823,6.31,16,6.31s11.801-2.399,16-6.31c4.199,3.911,9.823,6.31,16,6.31
		c12.958,0,23.5-10.542,23.5-23.5V119h49v0.5c0,12.958,10.542,23.5,23.5,23.5c6.177,0,11.801-2.399,16-6.31
		c4.199,3.911,9.823,6.31,16,6.31c12.958,0,23.5-10.542,23.5-23.5V119h17v81H295v-0.5c0-12.958-10.542-23.5-23.5-23.5
		c-6.177,0-11.801,2.399-16,6.31c-4.199-3.911-9.823-6.31-16-6.31s-11.801,2.399-16,6.31c-4.199-3.911-9.823-6.31-16-6.31
		s-11.801,2.399-16,6.31c-4.199-3.911-9.823-6.31-16-6.31s-11.801,2.399-16,6.31c-4.199-3.911-9.823-6.31-16-6.31
		c-12.958,0-23.5,10.542-23.5,23.5v0.5h-17v-81h17v0.5C120,132.458,130.542,143,143.5,143z M184,119.5c0,4.687-3.813,8.5-8.5,8.5
		s-8.5-3.813-8.5-8.5v-16c0-4.687,3.813-8.5,8.5-8.5s8.5,3.813,8.5,8.5V119.5z M216,119.5c0,4.687-3.813,8.5-8.5,8.5
		s-8.5-3.813-8.5-8.5v-16c0-4.687,3.813-8.5,8.5-8.5s8.5,3.813,8.5,8.5V119.5z M248,119.5c0,4.687-3.813,8.5-8.5,8.5
		s-8.5-3.813-8.5-8.5v-16c0-4.687,3.813-8.5,8.5-8.5s8.5,3.813,8.5,8.5V119.5z M344,119.5c0,4.687-3.813,8.5-8.5,8.5
		s-8.5-3.813-8.5-8.5v-16c0-4.687,3.813-8.5,8.5-8.5s8.5,3.813,8.5,8.5V119.5z M376,119.5c0,4.687-3.813,8.5-8.5,8.5
		s-8.5-3.813-8.5-8.5v-16c0-4.687,3.813-8.5,8.5-8.5s8.5,3.813,8.5,8.5V119.5z M359,295.5c0-4.687,3.813-8.5,8.5-8.5
		s8.5,3.813,8.5,8.5v16c0,4.687-3.813,8.5-8.5,8.5s-8.5-3.813-8.5-8.5V295.5z M367.5,272c-6.177,0-11.801,2.399-16,6.31
		c-4.199-3.911-9.823-6.31-16-6.31s-11.801,2.399-16,6.31c-4.199-3.911-9.823-6.31-16-6.31c-12.958,0-23.5,10.542-23.5,23.5v0.5H167
		v-0.5c0-12.958-10.542-23.5-23.5-23.5S120,282.542,120,295.5v0.5h-17v-81h17v0.5c0,12.958,10.542,23.5,23.5,23.5
		c6.177,0,11.801-2.399,16-6.31c4.199,3.911,9.823,6.31,16,6.31s11.801-2.399,16-6.31c4.199,3.911,9.823,6.31,16,6.31
		s11.801-2.399,16-6.31c4.199,3.911,9.823,6.31,16,6.31s11.801-2.399,16-6.31c4.199,3.911,9.823,6.31,16,6.31
		c12.958,0,23.5-10.542,23.5-23.5V215h113v81h-17v-0.5C391,282.542,380.458,272,367.5,272z M327,295.5c0-4.687,3.813-8.5,8.5-8.5
		s8.5,3.813,8.5,8.5v16c0,4.687-3.813,8.5-8.5,8.5s-8.5-3.813-8.5-8.5V295.5z M295,295.5c0-4.687,3.813-8.5,8.5-8.5
		s8.5,3.813,8.5,8.5v16c0,4.687-3.813,8.5-8.5,8.5s-8.5-3.813-8.5-8.5V295.5z M135,295.5c0-4.687,3.813-8.5,8.5-8.5
		s8.5,3.813,8.5,8.5v16c0,4.687-3.813,8.5-8.5,8.5s-8.5-3.813-8.5-8.5V295.5z M152,215.5c0,4.687-3.813,8.5-8.5,8.5
		s-8.5-3.813-8.5-8.5v-16c0-4.687,3.813-8.5,8.5-8.5s8.5,3.813,8.5,8.5V215.5z M184,215.5c0,4.687-3.813,8.5-8.5,8.5
		s-8.5-3.813-8.5-8.5v-16c0-4.687,3.813-8.5,8.5-8.5s8.5,3.813,8.5,8.5V215.5z M216,215.5c0,4.687-3.813,8.5-8.5,8.5
		s-8.5-3.813-8.5-8.5v-16c0-4.687,3.813-8.5,8.5-8.5s8.5,3.813,8.5,8.5V215.5z M248,215.5c0,4.687-3.813,8.5-8.5,8.5
		s-8.5-3.813-8.5-8.5v-16c0-4.687,3.813-8.5,8.5-8.5s8.5,3.813,8.5,8.5V215.5z M280,215.5c0,4.687-3.813,8.5-8.5,8.5
		s-8.5-3.813-8.5-8.5v-16c0-4.687,3.813-8.5,8.5-8.5s8.5,3.813,8.5,8.5V215.5z M408,47v57h-17v-0.5c0-12.958-10.542-23.5-23.5-23.5
		c-6.177,0-11.801,2.399-16,6.31c-4.199-3.911-9.823-6.31-16-6.31c-12.958,0-23.5,10.542-23.5,23.5v0.5h-49v-0.5
		c0-12.958-10.542-23.5-23.5-23.5c-6.177,0-11.801,2.399-16,6.31c-4.199-3.911-9.823-6.31-16-6.31s-11.801,2.399-16,6.31
		c-4.199-3.911-9.823-6.31-16-6.31s-11.801,2.399-16,6.31c-4.199-3.911-9.823-6.31-16-6.31c-12.958,0-23.5,10.542-23.5,23.5v0.5h-17
		V47H408z M103,464v-57h113v0.5c0,12.958,10.542,23.5,23.5,23.5c6.177,0,11.801-2.399,16-6.31c4.199,3.911,9.823,6.31,16,6.31
		c12.958,0,23.5-10.542,23.5-23.5V407h49v0.5c0,12.958,10.542,23.5,23.5,23.5s23.5-10.542,23.5-23.5V407h17v57H103z"/>
</g>
<g>
</g>
<g>
</g>
<g>
</g>
<g>
</g>
<g>
</g>
<g>
</g>
<g>
</g>
<g>
</g>
<g>
</g>
<g>
</g>
<g>
</g>
<g>
</g>
<g>
</g>
<g>
</g>
<g>
</g>
</svg>
