<?xml version="1.0" encoding="iso-8859-1"?>
<!-- Generator: Adobe Illustrator 19.0.0, SVG Export Plug-In . SVG Version: 6.00 Build 0)  -->
<svg version="1.1" id="Capa_1" xmlns="http://www.w3.org/2000/svg" xmlns:xlink="http://www.w3.org/1999/xlink" x="0px" y="0px"
	 viewBox="0 0 511.274 511.274" style="enable-background:new 0 0 511.274 511.274;" xml:space="preserve">
<g>
	<path d="M463.137,287.773c0-78.827-44.186-147.525-109.087-182.637l11.245-21.428l51.935,27.255
		c1.085,0.569,2.282,0.859,3.485,0.859c0.75,0,1.502-0.112,2.231-0.34c1.899-0.592,3.485-1.914,4.41-3.675
		c18.861-35.94,4.965-80.525-30.975-99.386c-35.94-18.861-80.525-4.966-99.386,30.975c-1.925,3.667-0.512,8.201,3.156,10.126
		l51.861,27.216l-11.409,21.741c-25.946-11.692-54.709-18.206-84.966-18.206s-59.02,6.513-84.966,18.206l-11.409-21.741
		l51.861-27.216c3.667-1.925,5.081-6.458,3.156-10.126c-18.86-35.941-63.443-49.835-99.386-30.975
		c-35.94,18.861-49.835,63.445-30.975,99.386c0.924,1.762,2.51,3.083,4.41,3.675c0.729,0.228,1.481,0.34,2.231,0.34
		c1.203,0,2.4-0.29,3.485-0.859l51.935-27.255l11.245,21.428C92.322,140.248,48.137,208.945,48.137,287.773
		c0,73.137,38.037,137.553,95.365,174.517l-22.317,37.659c-2.112,3.563-0.935,8.164,2.628,10.276c1.2,0.711,2.517,1.049,3.816,1.049
		c2.563,0,5.059-1.313,6.459-3.677l22.304-37.639c29.498,16.133,63.318,25.315,99.244,25.315s69.745-9.182,99.244-25.315
		l22.304,37.639c1.401,2.364,3.897,3.677,6.459,3.677c1.3,0,2.617-0.338,3.816-1.049c3.563-2.112,4.74-6.712,2.628-10.276
		l-22.317-37.659C425.1,425.326,463.137,360.909,463.137,287.773z M389.411,21.703c26.367,13.837,37.833,45.062,27.725,72.271
		l-51.506-27.029c-0.002-0.001-0.004-0.003-0.006-0.004s-0.005-0.002-0.007-0.003l-51.432-26.99
		C330.834,16.172,363.045,7.866,389.411,21.703z M121.862,21.703c8.669-4.549,17.967-6.705,27.138-6.705
		c18.725,0,36.913,8.989,48.087,24.948l-51.433,26.991c-0.002,0.001-0.003,0.001-0.005,0.002s-0.003,0.002-0.005,0.003
		L94.137,93.973C84.03,66.765,95.495,35.54,121.862,21.703z M255.637,480.273c-106.145,0-192.5-86.355-192.5-192.5
		s86.355-192.5,192.5-192.5s192.5,86.355,192.5,192.5S361.782,480.273,255.637,480.273z"/>
	<path d="M255.637,112.273c-96.771,0-175.5,78.729-175.5,175.5s78.729,175.5,175.5,175.5s175.5-78.729,175.5-175.5
		S352.408,112.273,255.637,112.273z M255.637,448.273c-88.5,0-160.5-72-160.5-160.5s72-160.5,160.5-160.5s160.5,72,160.5,160.5
		S344.137,448.273,255.637,448.273z"/>
	<path d="M151.637,280.273h-32c-4.142,0-7.5,3.358-7.5,7.5s3.358,7.5,7.5,7.5h32c4.142,0,7.5-3.358,7.5-7.5
		S155.779,280.273,151.637,280.273z"/>
	<path d="M391.637,280.273h-32c-4.142,0-7.5,3.358-7.5,7.5s3.358,7.5,7.5,7.5h32c4.142,0,7.5-3.358,7.5-7.5
		S395.779,280.273,391.637,280.273z"/>
	<path d="M255.637,384.273c-4.142,0-7.5,3.358-7.5,7.5v32c0,4.142,3.358,7.5,7.5,7.5s7.5-3.358,7.5-7.5v-32
		C263.137,387.631,259.779,384.273,255.637,384.273z"/>
	<path d="M255.637,191.273c4.142,0,7.5-3.358,7.5-7.5v-32c0-4.142-3.358-7.5-7.5-7.5s-7.5,3.358-7.5,7.5v32
		C248.137,187.915,251.495,191.273,255.637,191.273z"/>
	<path d="M276.94,298.469c-0.085-0.085-0.178-0.16-0.266-0.241c1.573-3.152,2.463-6.701,2.463-10.456
		c0-10.336-6.71-19.128-16-22.266v-49.734c0-4.142-3.358-7.5-7.5-7.5s-7.5,3.358-7.5,7.5v49.734
		c-6.997,2.364-12.527,7.934-14.831,14.958c-0.537-0.122-1.094-0.193-1.669-0.193h-40c-4.142,0-7.5,3.358-7.5,7.5s3.358,7.5,7.5,7.5
		h40c0.574,0,1.132-0.071,1.669-0.193c3.081,9.39,11.924,16.193,22.331,16.193c3.755,0,7.305-0.89,10.456-2.463
		c0.081,0.089,0.155,0.181,0.241,0.266l64,64c1.464,1.464,3.384,2.197,5.303,2.197s3.839-0.732,5.303-2.197
		c2.929-2.929,2.929-7.678,0-10.606L276.94,298.469z M255.637,296.273c-4.687,0-8.5-3.813-8.5-8.5s3.813-8.5,8.5-8.5
		s8.5,3.813,8.5,8.5S260.324,296.273,255.637,296.273z"/>
</g>
<g>
</g>
<g>
</g>
<g>
</g>
<g>
</g>
<g>
</g>
<g>
</g>
<g>
</g>
<g>
</g>
<g>
</g>
<g>
</g>
<g>
</g>
<g>
</g>
<g>
</g>
<g>
</g>
<g>
</g>
</svg>
