<?xml version="1.0" encoding="iso-8859-1"?>
<!-- Generator: Adobe Illustrator 19.0.0, SVG Export Plug-In . SVG Version: 6.00 Build 0)  -->
<svg version="1.1" id="Capa_1" xmlns="http://www.w3.org/2000/svg" xmlns:xlink="http://www.w3.org/1999/xlink" x="0px" y="0px"
	 viewBox="0 0 511.026 511.026" style="enable-background:new 0 0 511.026 511.026;" xml:space="preserve">
<g>
	<path d="M439.945,162.178c-17.469-17.987-41.731-29.458-72.113-34.092c-28.332-4.322-49.615,1.893-70.196,7.904
		c-11.69,3.414-22.844,6.664-34.687,7.679c-0.103-6.545-0.353-14.796-0.901-24.052c1.064,0.043,2.128,0.072,3.191,0.072
		c3.349,0,6.694-0.213,10.012-0.638c21.819-2.795,43.344-13.842,60.61-31.108c17.266-17.266,28.313-38.791,31.107-60.609
		c0.857-6.689,0.851-13.485-0.019-20.199c-0.438-3.377-3.097-6.036-6.474-6.474c-6.712-0.87-13.508-0.877-20.198-0.02
		c-21.819,2.795-43.344,13.843-60.61,31.108c-10.333,10.333-18.417,22.196-23.86,34.729c-4.944-26.07-13.231-50.951-27.078-64.365
		c-2.975-2.882-7.724-2.807-10.605,0.168c-2.882,2.975-2.807,7.723,0.168,10.605c11.98,11.606,20.895,37.633,25.781,75.266
		c2.806,21.617,3.656,42.045,3.873,55.506c-11.795-1.028-22.911-4.267-34.558-7.669c-20.581-6.011-41.862-12.227-70.196-7.904
		c-30.382,4.634-54.645,16.104-72.113,34.092c-20.933,21.553-31.546,52.014-31.546,90.536c0,50.102,9.09,100.97,25.597,143.234
		c18.995,48.636,47.444,85.434,82.272,106.415c20.85,12.561,44.881,8.865,70.322,4.953c12.393-1.906,25.208-3.877,37.787-3.877
		c12.579,0,25.394,1.971,37.787,3.877c12.227,1.88,24.125,3.71,35.504,3.71c12.298,0,23.988-2.139,34.818-8.663
		c34.829-20.981,63.278-57.779,82.272-106.415c16.506-42.264,25.597-93.132,25.597-143.234
		C471.491,214.192,460.878,183.731,439.945,162.178z M342.185,15.52c3.438-0.44,6.912-0.601,10.383-0.476
		c0.123,3.471-0.036,6.944-0.476,10.382c0,0,0,0,0,0c-4.925,38.451-40.182,73.74-78.627,78.728l35.351-35.351
		c2.929-2.929,2.929-7.678,0-10.606c-2.929-2.929-7.678-2.929-10.606,0l-34.536,34.536C269.331,54.843,304.206,20.384,342.185,15.52
		z M431.922,390.491c-17.779,45.524-44.074,79.766-76.041,99.023c-16.198,9.758-36.636,6.616-60.302,2.976
		c-12.95-1.992-26.342-4.051-40.067-4.051s-27.116,2.06-40.066,4.051c-23.666,3.639-44.104,6.782-60.302-2.976
		c-31.967-19.257-58.261-53.499-76.041-99.023c-15.843-40.567-24.569-89.497-24.569-137.777c0-34.484,9.187-61.429,27.306-80.085
		c15.138-15.587,36.541-25.584,63.615-29.714c25.052-3.822,44.713,1.921,63.729,7.474c14.496,4.234,29.485,8.612,46.328,8.612
		s31.833-4.378,46.329-8.612c19.015-5.553,38.675-11.295,63.729-7.474c27.074,4.13,48.477,14.127,63.615,29.714
		c18.119,18.656,27.306,45.601,27.306,80.085C456.491,300.994,447.766,349.924,431.922,390.491z"/>
	<path d="M171.656,462.103c-21.658-13.047-40.744-35.82-55.196-65.858c-1.796-3.733-6.279-5.303-10.01-3.507
		c-3.733,1.795-5.303,6.277-3.507,10.01c15.722,32.678,36.806,57.646,60.972,72.204c1.211,0.729,2.545,1.077,3.863,1.077
		c2.543,0,5.024-1.294,6.432-3.631C176.348,468.85,175.204,464.241,171.656,462.103z"/>
	<path d="M103.976,365.151c-2.495-7.524-4.77-15.415-6.762-23.455c-0.996-4.021-5.063-6.471-9.083-5.476
		c-4.021,0.996-6.472,5.063-5.476,9.083c2.084,8.413,4.468,16.679,7.084,24.569c1.044,3.148,3.973,5.141,7.118,5.141
		c0.782,0,1.579-0.124,2.362-0.383C103.149,373.327,105.279,369.083,103.976,365.151z"/>
	<path d="M394.724,168.898c-5.251-2.471-11.067-4.56-17.287-6.21c-4.005-1.062-8.11,1.323-9.172,5.327
		c-1.062,4.004,1.323,8.11,5.327,9.172c5.349,1.418,10.31,3.196,14.746,5.283c1.032,0.486,2.119,0.716,3.188,0.716
		c2.815,0,5.513-1.593,6.791-4.309C400.081,175.129,398.472,170.661,394.724,168.898z"/>
	<path d="M421.378,189.624c-2.573-3.247-7.291-3.793-10.536-1.22c-3.246,2.573-3.792,7.29-1.22,10.536
		c10.005,12.625,14.869,30.215,14.869,53.774c0,8.682-0.309,17.518-0.918,26.262c-0.288,4.132,2.829,7.715,6.961,8.003
		c0.177,0.012,0.354,0.019,0.529,0.019c3.904,0,7.199-3.025,7.474-6.979c0.633-9.089,0.954-18.275,0.954-27.304
		C439.491,225.64,433.566,205.003,421.378,189.624z"/>
</g>
<g>
</g>
<g>
</g>
<g>
</g>
<g>
</g>
<g>
</g>
<g>
</g>
<g>
</g>
<g>
</g>
<g>
</g>
<g>
</g>
<g>
</g>
<g>
</g>
<g>
</g>
<g>
</g>
<g>
</g>
</svg>
