<?xml version="1.0" encoding="iso-8859-1"?>
<!-- Generator: Adobe Illustrator 19.0.0, SVG Export Plug-In . SVG Version: 6.00 Build 0)  -->
<svg version="1.1" id="Capa_1" xmlns="http://www.w3.org/2000/svg" xmlns:xlink="http://www.w3.org/1999/xlink" x="0px" y="0px"
	 viewBox="0 0 479 479" style="enable-background:new 0 0 479 479;" xml:space="preserve">
<g>
	<path d="M408.852,70.148c-2.727-2.727-5.511-5.377-8.344-7.955c-0.001-0.001-0.002-0.002-0.004-0.003
		C356.345,22.002,299.614,0,239.5,0C175.527,0,115.383,24.912,70.148,70.148C24.913,115.383,0,175.527,0,239.5
		s24.913,124.116,70.148,169.352C115.384,454.087,175.527,479,239.5,479s124.116-24.913,169.352-70.148
		C454.087,363.616,479,303.473,479,239.5S454.087,115.383,408.852,70.148z M463.863,232H327.136
		c0.957-29.527,7.559-58.049,19.69-84.882c11.763-26.018,28.125-49.211,48.671-69.047c0.92,0.89,1.842,1.776,2.749,2.683
		C438.875,121.384,461.999,174.846,463.863,232z M247,232V15.137c50.86,1.659,98.787,20.163,137.359,52.849
		c-21.576,21.001-38.789,45.5-51.201,72.953c-13.014,28.787-20.07,59.387-21.032,91.061H247z M232,232h-57.129
		c-1.996-63.701-29.348-123.948-75.999-167.512C136.691,33.981,182.984,16.736,232,15.137V232z M232,247v216.863
		c-49.016-1.599-95.309-18.843-133.129-49.351c46.652-43.564,74.004-103.811,76-167.512H232z M247,247h65.125
		c0.962,31.674,8.018,62.274,21.032,91.061c12.411,27.454,29.625,51.952,51.201,72.953c-38.571,32.686-86.5,51.19-137.359,52.849
		V247z M80.754,80.754c2.194-2.194,4.434-4.324,6.702-6.415c44.341,40.816,70.396,97.588,72.404,157.661H15.137
		C17.001,174.846,40.125,121.384,80.754,80.754z M15.137,247H159.86c-2.008,60.073-28.064,116.845-72.404,157.661
		c-2.267-2.091-4.507-4.221-6.701-6.415C40.125,357.616,17.001,304.153,15.137,247z M398.246,398.246
		c-0.907,0.907-1.829,1.793-2.749,2.683c-20.546-19.835-36.908-43.028-48.671-69.047c-12.131-26.833-18.733-55.354-19.69-84.881
		h136.727C461.999,304.153,438.875,357.616,398.246,398.246z"/>
	<path d="M348.035,78.988c2.458,0,4.867-1.208,6.303-3.425c2.251-3.477,1.257-8.121-2.22-10.372
		c-24.245-15.695-50.969-25.974-79.429-30.55c-4.093-0.657-7.938,2.125-8.596,6.214c-0.658,4.09,2.125,7.938,6.214,8.596
		c26.391,4.244,51.173,13.776,73.659,28.333C345.226,78.599,346.639,78.988,348.035,78.988z"/>
	<path d="M90.624,373.262c3.181-2.653,3.61-7.382,0.957-10.563c-22.104-26.509-36.672-58.457-42.129-92.389
		c-0.658-4.09-4.504-6.875-8.596-6.214c-4.089,0.658-6.872,4.506-6.214,8.596c5.884,36.59,21.59,71.036,45.418,99.614
		c1.483,1.779,3.616,2.697,5.764,2.697C87.518,375.002,89.221,374.432,90.624,373.262z"/>
	<path d="M139.858,421.553c5.896,3.234,12.016,6.21,18.187,8.846c0.961,0.411,1.96,0.605,2.943,0.605c2.913,0,5.684-1.708,6.9-4.556
		c1.627-3.81-0.142-8.216-3.951-9.843c-5.723-2.445-11.397-5.205-16.867-8.205c-3.633-1.993-8.191-0.662-10.183,2.97
		S136.227,419.561,139.858,421.553z"/>
	<path d="M393.516,124.001c3.713,4.943,7.225,10.12,10.438,15.386c1.413,2.316,3.881,3.595,6.41,3.595
		c1.331,0,2.679-0.354,3.899-1.099c3.536-2.157,4.653-6.772,2.496-10.309c-3.463-5.676-7.247-11.255-11.248-16.582
		c-2.489-3.312-7.189-3.98-10.501-1.493C391.697,115.988,391.028,120.689,393.516,124.001z"/>
</g>
<g>
</g>
<g>
</g>
<g>
</g>
<g>
</g>
<g>
</g>
<g>
</g>
<g>
</g>
<g>
</g>
<g>
</g>
<g>
</g>
<g>
</g>
<g>
</g>
<g>
</g>
<g>
</g>
<g>
</g>
</svg>
