<?xml version="1.0" encoding="iso-8859-1"?>
<!-- Generator: Adobe Illustrator 19.0.0, SVG Export Plug-In . SVG Version: 6.00 Build 0)  -->
<svg version="1.1" id="Capa_1" xmlns="http://www.w3.org/2000/svg" xmlns:xlink="http://www.w3.org/1999/xlink" x="0px" y="0px"
	 viewBox="0 0 511 511" style="enable-background:new 0 0 511 511;" xml:space="preserve">
<g>
	<path d="M456.087,407.361c-16.175-26.404-25.085-40.948-25.085-72.861v-58.974c0-46.227-17.335-90.272-48.813-124.021
		c-31.541-33.817-73.831-53.435-119.187-55.338V77.766c9.29-3.138,16-11.93,16-22.266v-32c0-12.958-10.542-23.5-23.5-23.5
		s-23.5,10.542-23.5,23.5v32c0,10.336,6.71,19.128,16,22.266v18.393c-42.945,1.778-83.13,18.908-114.359,49.046
		C99.051,178.587,80.001,223.44,80.001,271.5v63c0,31.913-8.911,46.458-25.109,72.898c-2.943,4.804-3.069,10.828-0.328,15.72
		c2.764,4.936,7.803,7.882,13.478,7.882h179.959v17.909c-13.759,3.374-24,15.806-24,30.591c0,17.369,14.131,31.5,31.5,31.5
		s31.5-14.131,31.5-31.5c0-14.785-10.241-27.216-24-30.591V431h179.959c5.675,0,10.713-2.946,13.478-7.882
		C459.179,418.226,459.053,412.202,456.087,407.361z M272.001,479.5c0,9.098-7.402,16.5-16.5,16.5s-16.5-7.402-16.5-16.5
		s7.402-16.5,16.5-16.5S272.001,470.402,272.001,479.5z M247.001,23.5c0-4.687,3.813-8.5,8.5-8.5s8.5,3.813,8.5,8.5v32
		c0,4.687-3.813,8.5-8.5,8.5s-8.5-3.813-8.5-8.5V23.5z M443.351,415.788c-0.11,0.197-0.231,0.212-0.391,0.212H68.042
		c-0.159,0-0.281-0.015-0.391-0.212c-0.147-0.262-0.035-0.445,0.054-0.591c17.021-27.784,27.296-44.555,27.296-80.697v-63
		c0-43.953,17.422-84.972,49.057-115.502c30.201-29.146,69.56-44.998,111.392-44.998c1.964,0,3.936,0.035,5.911,0.105
		c41.775,1.485,80.79,19.467,109.858,50.632c28.878,30.962,44.782,71.374,44.782,113.79V334.5c0,36.142,10.274,52.912,27.318,80.734
		C443.386,415.343,443.498,415.526,443.351,415.788z"/>
	<path d="M321.826,144.92c-3.638-1.982-8.193-0.639-10.174,2.999c-1.981,3.637-0.639,8.192,2.999,10.174
		c28.374,15.456,50.895,42.103,61.79,73.107c1.084,3.085,3.981,5.016,7.076,5.016c0.825,0,1.664-0.137,2.486-0.426
		c3.908-1.373,5.963-5.654,4.589-9.562C378.304,191.258,353.883,162.382,321.826,144.92z"/>
	<path d="M289.34,132.169c-5.556-1.405-11.253-2.468-16.934-3.16c-4.115-0.501-7.852,2.426-8.352,6.537
		c-0.501,4.112,2.426,7.851,6.538,8.352c5.055,0.616,10.125,1.563,15.071,2.813c0.617,0.156,1.235,0.23,1.844,0.23
		c3.353,0,6.406-2.265,7.266-5.663C295.788,137.263,293.356,133.184,289.34,132.169z"/>
</g>
<g>
</g>
<g>
</g>
<g>
</g>
<g>
</g>
<g>
</g>
<g>
</g>
<g>
</g>
<g>
</g>
<g>
</g>
<g>
</g>
<g>
</g>
<g>
</g>
<g>
</g>
<g>
</g>
<g>
</g>
</svg>
