<?xml version="1.0" encoding="iso-8859-1"?>
<!-- Generator: Adobe Illustrator 19.0.0, SVG Export Plug-In . SVG Version: 6.00 Build 0)  -->
<svg version="1.1" id="Capa_1" xmlns="http://www.w3.org/2000/svg" xmlns:xlink="http://www.w3.org/1999/xlink" x="0px" y="0px"
	 viewBox="0 0 511 511" style="enable-background:new 0 0 511 511;" xml:space="preserve">
<g>
	<path d="M495.5,392H487V87.5c0-8.547-6.953-15.5-15.5-15.5h-432C30.953,72,24,78.953,24,87.5V392h-8.5C6.953,392,0,398.953,0,407.5
		v16c0,8.547,6.953,15.5,15.5,15.5h480c8.547,0,15.5-6.953,15.5-15.5v-16C511,398.953,504.047,392,495.5,392z M39,87.5
		c0-0.275,0.224-0.5,0.5-0.5h432c0.276,0,0.5,0.225,0.5,0.5V392H143v-16.5c0-4.142-3.358-7.5-7.5-7.5h-64
		c-4.142,0-7.5,3.358-7.5,7.5V392H39V87.5z M79,392v-9h49v9H79z M496,423.5c0,0.275-0.224,0.5-0.5,0.5h-480
		c-0.276,0-0.5-0.225-0.5-0.5v-16c0-0.275,0.224-0.5,0.5-0.5h480c0.276,0,0.5,0.225,0.5,0.5V423.5z"/>
	<path d="M87.5,303h64c4.142,0,7.5-3.358,7.5-7.5s-3.358-7.5-7.5-7.5H95v-0.5c0-9.098,7.402-16.5,16.5-16.5h8
		c21.78,0,39.5-17.72,39.5-39.5S141.28,192,119.5,192S80,209.72,80,231.5c0,4.142,3.358,7.5,7.5,7.5s7.5-3.358,7.5-7.5
		c0-13.509,10.991-24.5,24.5-24.5s24.5,10.991,24.5,24.5S133.009,256,119.5,256h-8C94.131,256,80,270.131,80,287.5v8
		C80,299.642,83.358,303,87.5,303z"/>
	<path d="M231.5,303h64c4.142,0,7.5-3.358,7.5-7.5s-3.358-7.5-7.5-7.5H239v-0.5c0-9.098,7.402-16.5,16.5-16.5h8
		c21.78,0,39.5-17.72,39.5-39.5S285.28,192,263.5,192S224,209.72,224,231.5c0,4.142,3.358,7.5,7.5,7.5s7.5-3.358,7.5-7.5
		c0-13.509,10.991-24.5,24.5-24.5s24.5,10.991,24.5,24.5S277.009,256,263.5,256h-8c-17.369,0-31.5,14.131-31.5,31.5v8
		C224,299.642,227.358,303,231.5,303z"/>
	<path d="M175.5,255h8.5v8.5c0,4.142,3.358,7.5,7.5,7.5s7.5-3.358,7.5-7.5V255h8.5c4.142,0,7.5-3.358,7.5-7.5s-3.358-7.5-7.5-7.5
		H199v-8.5c0-4.142-3.358-7.5-7.5-7.5s-7.5,3.358-7.5,7.5v8.5h-8.5c-4.142,0-7.5,3.358-7.5,7.5S171.358,255,175.5,255z"/>
	<path d="M319.5,271h32c4.142,0,7.5-3.358,7.5-7.5s-3.358-7.5-7.5-7.5h-32c-4.142,0-7.5,3.358-7.5,7.5S315.358,271,319.5,271z"/>
	<path d="M319.5,247h32c4.142,0,7.5-3.358,7.5-7.5s-3.358-7.5-7.5-7.5h-32c-4.142,0-7.5,3.358-7.5,7.5S315.358,247,319.5,247z"/>
	<path d="M375.5,271H416v24.5c0,4.142,3.358,7.5,7.5,7.5s7.5-3.358,7.5-7.5V271h8.5c4.142,0,7.5-3.358,7.5-7.5s-3.358-7.5-7.5-7.5
		H431v-32.5c0-4.142-3.358-7.5-7.5-7.5s-7.5,3.358-7.5,7.5V256h-30.894l13.67-54.681c1.005-4.019-1.438-8.091-5.457-9.096
		c-4.012-1.002-8.09,1.438-9.095,5.457l-16,64c-0.561,2.241-0.057,4.614,1.364,6.435C371.01,269.936,373.19,271,375.5,271z"/>
</g>
<g>
</g>
<g>
</g>
<g>
</g>
<g>
</g>
<g>
</g>
<g>
</g>
<g>
</g>
<g>
</g>
<g>
</g>
<g>
</g>
<g>
</g>
<g>
</g>
<g>
</g>
<g>
</g>
<g>
</g>
</svg>
