<?xml version="1.0" encoding="iso-8859-1"?>
<!-- Generator: Adobe Illustrator 19.0.0, SVG Export Plug-In . SVG Version: 6.00 Build 0)  -->
<svg version="1.1" id="Capa_1" xmlns="http://www.w3.org/2000/svg" xmlns:xlink="http://www.w3.org/1999/xlink" x="0px" y="0px"
	 viewBox="0 0 511 511" style="enable-background:new 0 0 511 511;" xml:space="preserve">
<path d="M471.5,104H351V81.495c7.048-2.408,12.782-8.111,15.002-15.478c1.809-6.01,1.17-12.365-1.8-17.895
	c-2.971-5.53-7.917-9.573-13.927-11.382C322.59,28.405,289.817,24,255.5,24s-67.09,4.405-94.775,12.74
	c-6.011,1.809-10.957,5.852-13.927,11.382c-2.97,5.53-3.609,11.885-1.799,17.899c1.816,6.022,5.868,10.973,11.409,13.943
	c1.164,0.624,2.366,1.135,3.592,1.551V104H39.5C17.72,104,0,121.72,0,143.5v139.209c0,12.653,6.07,24.305,16,31.709V447.5
	c0,21.78,17.72,39.5,39.5,39.5h400c21.78,0,39.5-17.72,39.5-39.5V314.418c9.93-7.404,16-19.056,16-31.709V143.5
	C511,121.72,493.28,104,471.5,104z M160.013,55.22c1.074-2,2.863-3.462,5.036-4.116C191.35,43.186,222.627,39,255.5,39
	s64.15,4.186,90.452,12.104c2.173,0.654,3.961,2.116,5.036,4.116c1.075,2,1.306,4.3,0.652,6.472
	c-1.074,3.565-4.418,6.055-8.131,6.055c-0.83,0-1.654-0.122-2.458-0.365C316.326,59.936,286.744,56,255.5,56
	s-60.826,3.936-85.56,11.384c-2.165,0.655-4.453,0.427-6.447-0.642c-2.007-1.076-3.475-2.87-4.132-5.049
	C158.707,59.52,158.938,57.22,160.013,55.22z M175,81.535C198.197,74.645,226.006,71,255.5,71c29.496,0,57.308,3.646,80.5,10.535
	V104H175V81.535z M455.5,472h-400C41.991,472,31,461.009,31,447.5V322.014c61.606,25.367,126.462,40.001,193,43.547v1.938
	c0,17.369,14.131,31.5,31.5,31.5s31.5-14.131,31.5-31.5v-1.939c66.539-3.547,131.395-18.18,193-43.547V447.5
	C480,461.009,469.009,472,455.5,472z M336,345.757c-16.219,2.286-32.568,3.882-49.024,4.781C286.464,333.613,272.546,320,255.5,320
	s-30.964,13.613-31.476,30.538c-16.456-0.899-32.805-2.495-49.024-4.781V279.5c0-9.098,7.402-16.5,16.5-16.5h128
	c9.098,0,16.5,7.402,16.5,16.5V345.757z M272,351.5v16c0,9.098-7.402,16.5-16.5,16.5s-16.5-7.402-16.5-16.5v-16
	c0-9.098,7.402-16.5,16.5-16.5S272,342.402,272,351.5z M496,282.709c0,9.863-5.965,18.777-15.198,22.71
	C438.94,323.253,395.497,335.964,351,343.443V279.5c0-17.369-14.131-31.5-31.5-31.5h-128c-17.369,0-31.5,14.131-31.5,31.5v63.943
	c-44.497-7.478-87.939-20.19-129.802-38.024C20.965,301.486,15,292.572,15,282.709V143.5c0-13.509,10.991-24.5,24.5-24.5h432
	c13.509,0,24.5,10.991,24.5,24.5V282.709z"/>
<g>
</g>
<g>
</g>
<g>
</g>
<g>
</g>
<g>
</g>
<g>
</g>
<g>
</g>
<g>
</g>
<g>
</g>
<g>
</g>
<g>
</g>
<g>
</g>
<g>
</g>
<g>
</g>
<g>
</g>
</svg>
