<?xml version="1.0" encoding="iso-8859-1"?>
<!-- Generator: Adobe Illustrator 19.0.0, SVG Export Plug-In . SVG Version: 6.00 Build 0)  -->
<svg version="1.1" id="Capa_1" xmlns="http://www.w3.org/2000/svg" xmlns:xlink="http://www.w3.org/1999/xlink" x="0px" y="0px"
	 viewBox="0 0 511 511" style="enable-background:new 0 0 511 511;" xml:space="preserve">
<path d="M439.5,27.699H336.07c-16.972,0-32.919,6.608-44.901,18.603L18.589,318.875C6.602,330.871,0,346.815,0,363.77v47.734
	c0,39.176,31.873,71.248,71.05,71.492l48.336,0.305h0.359c16.72,0,33.084-6.778,44.897-18.595l203.063-203.063
	c7.462-7.462,11.572-17.38,11.572-27.928c0-10.545-4.107-20.463-11.568-27.928l-30.083-30.083
	c-7.448-7.457-17.365-11.563-27.925-11.563c-0.003,0-0.007,0-0.01,0c-10.558,0.002-20.476,4.108-27.928,11.56L106.884,350.583
	c-9.162,9.162-9.162,24.069,0,33.231c4.439,4.439,10.341,6.884,16.619,6.884c6.279,0,12.18-2.446,16.613-6.884l169.579-169.579
	l19.476,19.479L131.416,431.469c-3.24,3.235-7.515,5.045-11.434,4.842c-0.114-0.006-0.228-0.009-0.341-0.01l-48.297-0.305
	C57.92,435.913,47,424.925,47,411.504V363.77c0-4.404,1.718-8.553,4.831-11.673L324.411,79.523
	c3.108-3.111,7.249-4.824,11.659-4.824H439.5c13.509,0,24.5,10.991,24.5,24.5v103.43c0,4.404-1.718,8.553-4.831,11.673
	L318.884,354.583c-9.162,9.162-9.162,24.069,0,33.231c4.439,4.439,10.341,6.884,16.619,6.884c6.279,0,12.18-2.446,16.613-6.884
	l140.295-140.291C504.398,235.528,511,219.583,511,202.629V99.199C511,59.774,478.925,27.699,439.5,27.699z M496,202.629
	c0,12.95-5.043,25.129-14.198,34.291L341.506,377.212c-1.602,1.604-3.734,2.487-6.003,2.487c-2.271,0-4.406-0.885-6.012-2.491
	c-1.606-1.606-2.491-3.74-2.491-6.009s0.885-4.403,2.491-6.009l140.292-140.288c5.944-5.959,9.217-13.869,9.217-22.273V99.199
	c0-21.78-17.72-39.5-39.5-39.5H336.07c-8.419,0-16.329,3.275-22.268,9.22L41.217,341.497C35.273,347.456,32,355.366,32,363.77
	v47.734c0,21.641,17.607,39.357,39.25,39.492l48.142,0.304c8.152,0.367,16.383-2.986,22.626-9.219l203.063-203.063
	c2.929-2.929,2.929-7.677,0-10.606l-30.082-30.086c-1.407-1.406-3.314-2.197-5.303-2.197c0,0,0,0,0,0
	c-1.989,0-3.897,0.79-5.303,2.197L129.506,373.212c-1.602,1.604-3.734,2.487-6.003,2.487c-2.271,0-4.406-0.885-6.012-2.491
	c-3.313-3.313-3.313-8.705,0-12.019L292.37,186.307c4.62-4.62,10.773-7.165,17.326-7.167c0.002,0,0.003,0,0.006,0
	c6.55,0,12.699,2.544,17.316,7.167l30.084,30.084c4.628,4.63,7.176,10.783,7.176,17.323c0,6.541-2.549,12.693-7.178,17.322
	L154.036,454.1c-9.021,9.025-21.52,14.201-34.29,14.201l-48.602-0.305C40.186,467.803,15,442.461,15,411.504V363.77
	c0-12.95,5.043-25.129,14.198-34.291L301.779,56.906c9.151-9.161,21.33-14.207,34.292-14.207H439.5c31.154,0,56.5,25.346,56.5,56.5
	V202.629z"/>
<g>
</g>
<g>
</g>
<g>
</g>
<g>
</g>
<g>
</g>
<g>
</g>
<g>
</g>
<g>
</g>
<g>
</g>
<g>
</g>
<g>
</g>
<g>
</g>
<g>
</g>
<g>
</g>
<g>
</g>
</svg>
