<?xml version="1.0" encoding="iso-8859-1"?>
<!-- Generator: Adobe Illustrator 19.0.0, SVG Export Plug-In . SVG Version: 6.00 Build 0)  -->
<svg version="1.1" id="Capa_1" xmlns="http://www.w3.org/2000/svg" xmlns:xlink="http://www.w3.org/1999/xlink" x="0px" y="0px"
	 viewBox="0 0 511 511" style="enable-background:new 0 0 511 511;" xml:space="preserve">
<path d="M453.235,30.224C437.025,11.016,411.608,0,383.5,0h-256C99.392,0,73.975,11.016,57.765,30.224
	C43.026,47.69,37.182,70.64,41.311,94.847c6.465,37.914,39.836,64.75,78.307,64.747c0.127,0,0.255-0.005,0.383-0.006v241.646
	c-9.29,3.138-16,11.93-16,22.266c0,12.732,10.18,23.125,22.827,23.483C123.656,456.843,114.4,464,103.5,464h-8
	C82.542,464,72,474.542,72,487.5S82.542,511,95.5,511h320c12.958,0,23.5-10.542,23.5-23.5S428.458,464,415.5,464h-8
	c-10.9,0-20.156-7.157-23.327-17.017C396.82,446.625,407,436.232,407,423.5c0-10.336-6.71-19.128-16-22.266V159.588
	c0.127,0.001,0.256,0.006,0.383,0.006c38.468-0.001,71.842-26.835,78.307-64.747C473.818,70.64,467.974,47.689,453.235,30.224z
	 M113.109,84.578c0.011-0.018,0.022-0.035,0.033-0.053c2.249-3.322,6.052-5.509,10.357-5.509c6.893,0,12.5,5.607,12.5,12.5
	s-5.607,12.5-12.5,12.5s-12.5-5.607-12.5-12.5C111,88.95,111.779,86.565,113.109,84.578z M387.5,79.016
	c4.305,0,8.108,2.188,10.357,5.509c0.011,0.019,0.023,0.037,0.035,0.056c1.33,1.986,2.108,4.371,2.108,6.935
	c0,6.893-5.607,12.5-12.5,12.5s-12.5-5.607-12.5-12.5S380.607,79.016,387.5,79.016z M311,120v-17h9v17H311z M287,120v-17h9v17H287z
	 M263,120v-17h9v17H263z M239,120v-17h9v17H239z M215,120v-17h9v17H215z M191,120v-17h9v17H191z M329.676,88H181.324
	c-2.041-6.544-5.178-12.272-9.231-17h166.813C334.854,75.728,331.717,81.456,329.676,88z M172.904,134.529
	c0.81,0.299,1.682,0.471,2.596,0.471h160c0.914,0,1.786-0.172,2.596-0.471c6.536,8.578,15.546,15.413,25.705,19.733
	c-4.793,1.925-9.006,4.993-12.3,8.869c-5.783-6.803-14.393-11.131-24-11.131s-18.217,4.328-24,11.131
	c-5.783-6.803-14.393-11.131-24-11.131s-18.217,4.328-24,11.131c-5.783-6.803-14.393-11.131-24-11.131s-18.217,4.328-24,11.131
	c-5.783-6.803-14.393-11.131-24-11.131s-18.217,4.328-24,11.131c-3.294-3.876-7.507-6.944-12.3-8.869
	C157.359,149.942,166.368,143.107,172.904,134.529z M135,400v-9.025c0.166,0.011,0.331,0.025,0.5,0.025
	c9.607,0,18.217-4.328,24-11.131c5.783,6.803,14.393,11.131,24,11.131s18.217-4.328,24-11.131c5.783,6.803,14.393,11.131,24,11.131
	s18.217-4.328,24-11.131c5.783,6.803,14.393,11.131,24,11.131s18.217-4.328,24-11.131c5.783,6.803,14.393,11.131,24,11.131
	s18.217-4.328,24-11.131c5.783,6.803,14.393,11.131,24,11.131c0.169,0,0.334-0.014,0.5-0.025V400H135z M375.5,167
	c0.169,0,0.334-0.014,0.5-0.025v209.05c-0.166-0.011-0.331-0.025-0.5-0.025c-9.098,0-16.5-7.402-16.5-16.5v-176
	C359,174.402,366.402,167,375.5,167z M344,359.5c0,9.098-7.402,16.5-16.5,16.5s-16.5-7.402-16.5-16.5v-176
	c0-9.098,7.402-16.5,16.5-16.5s16.5,7.402,16.5,16.5V359.5z M296,359.5c0,9.098-7.402,16.5-16.5,16.5s-16.5-7.402-16.5-16.5v-176
	c0-9.098,7.402-16.5,16.5-16.5s16.5,7.402,16.5,16.5V359.5z M248,359.5c0,9.098-7.402,16.5-16.5,16.5s-16.5-7.402-16.5-16.5v-176
	c0-9.098,7.402-16.5,16.5-16.5s16.5,7.402,16.5,16.5V359.5z M200,359.5c0,9.098-7.402,16.5-16.5,16.5s-16.5-7.402-16.5-16.5v-176
	c0-9.098,7.402-16.5,16.5-16.5s16.5,7.402,16.5,16.5V359.5z M152,359.5c0,9.098-7.402,16.5-16.5,16.5
	c-0.169,0-0.334,0.014-0.5,0.025v-209.05c0.166,0.011,0.331,0.025,0.5,0.025c9.098,0,16.5,7.402,16.5,16.5V359.5z M424,487.5
	c0,4.687-3.813,8.5-8.5,8.5h-320c-4.687,0-8.5-3.813-8.5-8.5s3.813-8.5,8.5-8.5h320C420.187,479,424,482.813,424,487.5z
	 M134.449,464c3.864-4.87,6.605-10.666,7.827-17h226.447c1.223,6.334,3.964,12.13,7.827,17H134.449z M383.5,432h-256
	c-4.687,0-8.5-3.813-8.5-8.5s3.813-8.5,8.5-8.5h256c4.687,0,8.5,3.813,8.5,8.5S388.187,432,383.5,432z M454.903,92.326
	c-5.528,32.417-35.568,54.785-69.119,52.031c-0.72-0.23-1.487-0.357-2.284-0.357c-0.262,0-0.521,0.014-0.777,0.04
	c-13.299-1.701-25.752-8.953-33.33-19.419c-4.288-5.922-8.901-15.529-6.532-27.669c3.776-19.354,16.806-24.228,24.237-25.412
	c0.583-0.093,1.168-0.153,1.753-0.213C363.413,76.355,360,83.543,360,91.516c0,15.164,12.336,27.5,27.5,27.5s27.5-12.336,27.5-27.5
	c0-5.514-1.637-10.65-4.443-14.96c-7.605-13.22-24.354-21.314-41.223-20.32c-0.588-0.148-1.2-0.235-1.834-0.235h-224
	c-0.635,0-1.248,0.087-1.837,0.236c-16.867-0.99-33.615,7.101-41.22,20.319C97.638,80.865,96,86.001,96,91.516
	c0,15.164,12.336,27.5,27.5,27.5s27.5-12.336,27.5-27.5c0-7.973-3.413-15.16-8.852-20.188c0.585,0.06,1.171,0.12,1.754,0.213
	c7.431,1.184,20.461,6.058,24.237,25.412c2.369,12.141-2.244,21.748-6.532,27.669c-7.578,10.467-20.031,17.718-33.33,19.419
	c-0.255-0.026-0.514-0.04-0.777-0.04c-0.796,0-1.563,0.127-2.283,0.357c-33.55,2.751-63.592-19.613-69.12-52.031
	c-3.421-20.064,1.12-38.193,13.132-52.427C82.582,24.075,103.821,15,127.5,15h256c23.679,0,44.918,9.075,58.271,24.898
	C453.784,54.132,458.325,72.262,454.903,92.326z"/>
<g>
</g>
<g>
</g>
<g>
</g>
<g>
</g>
<g>
</g>
<g>
</g>
<g>
</g>
<g>
</g>
<g>
</g>
<g>
</g>
<g>
</g>
<g>
</g>
<g>
</g>
<g>
</g>
<g>
</g>
</svg>
