<?xml version="1.0" encoding="iso-8859-1"?>
<!-- Generator: Adobe Illustrator 19.0.0, SVG Export Plug-In . SVG Version: 6.00 Build 0)  -->
<svg version="1.1" id="Capa_1" xmlns="http://www.w3.org/2000/svg" xmlns:xlink="http://www.w3.org/1999/xlink" x="0px" y="0px"
	 viewBox="0 0 511.002 511.002" style="enable-background:new 0 0 511.002 511.002;" xml:space="preserve">
<g>
	<path d="M398.655,501.248l-17.313-54.993c7.92-5.781,11.682-16.184,8.578-26.045L358.059,319h9.443c4.142,0,7.5-3.358,7.5-7.5
		s-3.358-7.5-7.5-7.5h-14.165l-59.788-189.914c0.939-3.372,1.452-6.919,1.452-10.586v-40c0-12.958-10.542-23.5-23.5-23.5h-8.5V7.5
		c0-4.142-3.358-7.5-7.5-7.5s-7.5,3.358-7.5,7.5V40h-8.5c-12.958,0-23.5,10.542-23.5,23.5v40c0,3.677,0.516,7.234,1.46,10.615
		L157.675,304h-14.174c-4.142,0-7.5,3.358-7.5,7.5s3.358,7.5,7.5,7.5h9.451l-31.867,101.21c-1.884,5.988-1.324,12.351,1.576,17.917
		c1.703,3.268,4.108,6.013,7.002,8.12l-17.316,55.002c-1.244,3.951,0.951,8.162,4.902,9.406c0.75,0.236,1.508,0.348,2.254,0.348
		c3.188,0,6.144-2.048,7.152-5.25l17.315-55.001c10.114-0.197,18.898-6.74,21.946-16.429L202.222,319h29.779v8.5
		c0,12.958,10.542,23.5,23.5,23.5s23.5-10.542,23.5-23.5V319h29.783l36.305,115.321c3.048,9.688,11.831,16.231,21.943,16.429
		l17.315,55.001c1.008,3.202,3.964,5.25,7.152,5.25c0.746,0,1.505-0.112,2.254-0.348
		C397.704,509.41,399.899,505.198,398.655,501.248z M231.001,63.5c0-4.687,3.813-8.5,8.5-8.5h32c4.687,0,8.5,3.813,8.5,8.5v40
		c0,2.896-0.508,5.676-1.435,8.257c-0.022,0.067-0.05,0.132-0.07,0.199C275.045,121.311,266.04,128,255.501,128
		c-10.494,0-19.465-6.634-22.948-15.926c-0.086-0.305-0.19-0.604-0.312-0.895c-0.8-2.417-1.239-4.997-1.239-7.679V63.5z
		 M151.608,429.819c-1.12,3.559-4.376,5.95-8.104,5.95c-0.863,0-1.722-0.133-2.558-0.396c-2.165-0.681-3.935-2.165-4.984-4.178
		c-1.049-2.014-1.251-4.316-0.57-6.481l92.31-293.181c4.161,4.127,9.235,7.329,14.886,9.29L151.608,429.819z M255.501,336
		c-4.687,0-8.5-3.813-8.5-8.5v-32c0-4.687,3.813-8.5,8.5-8.5s8.5,3.813,8.5,8.5v15.99c0,0.003,0,0.006,0,0.01s0,0.006,0,0.01v15.99
		C264.001,332.187,260.188,336,255.501,336z M279.001,304v-8.5c0-12.958-10.542-23.5-23.5-23.5s-23.5,10.542-23.5,23.5v8.5h-25.057
		l48.559-154.247L304.062,304H279.001z M359.397,429.818l-90.98-288.998c5.655-1.963,10.732-5.169,14.895-9.301l92.301,293.192
		c0.682,2.167,0.479,4.469-0.57,6.483c-1.049,2.013-2.819,3.497-4.989,4.18c-0.831,0.262-1.689,0.395-2.553,0.395
		C363.774,435.77,360.517,433.378,359.397,429.818z"/>
	<path d="M255.501,111c1.97,0,3.91-0.8,5.3-2.2c1.4-1.39,2.2-3.33,2.2-5.3c0-1.97-0.8-3.91-2.2-5.3c-1.39-1.4-3.32-2.2-5.3-2.2
		s-3.91,0.8-5.3,2.2c-1.4,1.39-2.2,3.33-2.2,5.3c0,1.97,0.8,3.91,2.2,5.3C251.591,110.2,253.531,111,255.501,111z"/>
</g>
<g>
</g>
<g>
</g>
<g>
</g>
<g>
</g>
<g>
</g>
<g>
</g>
<g>
</g>
<g>
</g>
<g>
</g>
<g>
</g>
<g>
</g>
<g>
</g>
<g>
</g>
<g>
</g>
<g>
</g>
</svg>
