<?xml version="1.0" encoding="iso-8859-1"?>
<!-- Generator: Adobe Illustrator 19.0.0, SVG Export Plug-In . SVG Version: 6.00 Build 0)  -->
<svg version="1.1" id="Capa_1" xmlns="http://www.w3.org/2000/svg" xmlns:xlink="http://www.w3.org/1999/xlink" x="0px" y="0px"
	 viewBox="0 0 511 511" style="enable-background:new 0 0 511 511;" xml:space="preserve">
<path d="M487.5,199c12.958,0,23.5-10.542,23.5-23.5S500.458,152,487.5,152h-8H479v-17h0.5h16c4.142,0,7.5-3.358,7.5-7.5
	s-3.358-7.5-7.5-7.5H495v-17h0.5c4.142,0,7.5-3.358,7.5-7.5s-3.358-7.5-7.5-7.5h-16H479V71h0.5c4.142,0,7.5-3.358,7.5-7.5
	s-3.358-7.5-7.5-7.5h-72C394.542,56,384,66.542,384,79.5c0,11.018,7.624,20.285,17.871,22.814c-1.204,2.823-1.871,5.928-1.871,9.186
	s0.667,6.363,1.871,9.186C391.624,123.215,384,132.482,384,143.5c0,2.997,0.57,5.862,1.597,8.5H367v-40.5
	c0-12.958-10.542-23.5-23.5-23.5h-176c-12.958,0-23.5,10.542-23.5,23.5V152h-39.646l6.544-39.267
	c0.362-2.174-0.25-4.398-1.675-6.081c-1.425-1.683-3.518-2.652-5.723-2.652H103V71.5c0-4.142-3.358-7.5-7.5-7.5S88,67.358,88,71.5
	V104h-9V87.5c0-4.142-3.358-7.5-7.5-7.5S64,83.358,64,87.5V104h-0.5c-2.205,0-4.298,0.97-5.723,2.652
	c-1.425,1.682-2.038,3.906-1.675,6.081L62.646,152H23.5C10.542,152,0,162.542,0,175.5S10.542,199,23.5,199H24v210.234
	c-9.29,3.138-16,11.93-16,22.266v16c0,4.142,3.358,7.5,7.5,7.5h32c4.142,0,7.5-3.358,7.5-7.5v-16c0-10.335-6.71-19.127-16-22.266
	V199h105v8.5c0,12.958,10.542,23.5,23.5,23.5h0.5v17h-40.5c-4.142,0-7.5,3.358-7.5,7.5v16c0,12.958,10.542,23.5,23.5,23.5h0.5
	v114.234c-9.29,3.138-16,11.93-16,22.266v16c0,4.142,3.358,7.5,7.5,7.5h32c4.142,0,7.5-3.358,7.5-7.5v-16
	c0-10.335-6.71-19.127-16-22.266V367h193v42.234c-9.29,3.138-16,11.93-16,22.266v16c0,4.142,3.358,7.5,7.5,7.5h32
	c4.142,0,7.5-3.358,7.5-7.5v-16c0-10.335-6.71-19.127-16-22.266V295h0.5c12.958,0,23.5-10.542,23.5-23.5v-16
	c0-4.142-3.358-7.5-7.5-7.5H343v-17h0.5c12.958,0,23.5-10.542,23.5-23.5l0-8.5h105v210.234c-9.29,3.138-16,11.93-16,22.266v16
	c0,4.142,3.358,7.5,7.5,7.5h32c4.142,0,7.5-3.358,7.5-7.5v-16c0-10.335-6.71-19.127-16-22.266V199H487.5z M40,440H23v-8.5
	c0-4.687,3.813-8.5,8.5-8.5s8.5,3.813,8.5,8.5V440z M488,440h-17v-8.5c0-4.687,3.813-8.5,8.5-8.5s8.5,3.813,8.5,8.5V440z M480,103
	v17h-0.5h-56c-4.687,0-8.5-3.813-8.5-8.5s3.813-8.5,8.5-8.5h56H480z M399,79.5c0-4.687,3.813-8.5,8.5-8.5H464v17h-40.5h-16
	C402.813,88,399,84.187,399,79.5z M399,143.5c0-4.687,3.813-8.5,8.5-8.5h16H464v17h-56.5C402.813,152,399,148.187,399,143.5z
	 M159,111.5c0-4.687,3.813-8.5,8.5-8.5h176c4.687,0,8.5,3.813,8.5,8.5V152H159V111.5z M72.354,119h22.293l-5.5,33H77.854L72.354,119
	z M15,175.5c0-4.687,3.813-8.5,8.5-8.5h464c4.687,0,8.5,3.813,8.5,8.5s-3.813,8.5-8.5,8.5h-464C18.813,184,15,180.187,15,175.5z
	 M160,440h-17v-8.5c0-4.687,3.813-8.5,8.5-8.5s8.5,3.813,8.5,8.5V440z M368,440h-17v-8.5c0-4.687,3.813-8.5,8.5-8.5
	s8.5,3.813,8.5,8.5V440z M352,352H159v-57h193V352z M376,271.5c0,4.687-3.813,8.5-8.5,8.5h-224c-4.687,0-8.5-3.813-8.5-8.5V263h241
	V271.5z M328,248H183v-17h145V248z M352,207.5c0,4.687-3.813,8.5-8.5,8.5h-176c-4.687,0-8.5-3.813-8.5-8.5V199h193L352,207.5z"/>
<g>
</g>
<g>
</g>
<g>
</g>
<g>
</g>
<g>
</g>
<g>
</g>
<g>
</g>
<g>
</g>
<g>
</g>
<g>
</g>
<g>
</g>
<g>
</g>
<g>
</g>
<g>
</g>
<g>
</g>
</svg>
