<?xml version="1.0" encoding="iso-8859-1"?>
<!-- Generator: Adobe Illustrator 19.0.0, SVG Export Plug-In . SVG Version: 6.00 Build 0)  -->
<svg version="1.1" id="Capa_1" xmlns="http://www.w3.org/2000/svg" xmlns:xlink="http://www.w3.org/1999/xlink" x="0px" y="0px"
	 viewBox="0 0 511 511" style="enable-background:new 0 0 511 511;" xml:space="preserve">
<g>
	<path d="M487.5,72h-464C10.542,72,0,82.542,0,95.5v320C0,428.458,10.542,439,23.5,439h464c12.958,0,23.5-10.542,23.5-23.5v-320
		C511,82.542,500.458,72,487.5,72z M496,415.5c0,4.687-3.813,8.5-8.5,8.5h-464c-4.687,0-8.5-3.813-8.5-8.5v-320
		c0-4.687,3.813-8.5,8.5-8.5h464c4.687,0,8.5,3.813,8.5,8.5V415.5z"/>
	<path d="M39.5,144c-1.97,0-3.91,0.8-5.3,2.2c-1.4,1.39-2.2,3.33-2.2,5.3c0,1.97,0.8,3.9,2.2,5.3c1.39,1.4,3.33,2.2,5.3,2.2
		c1.98,0,3.91-0.8,5.3-2.2c1.4-1.4,2.2-3.33,2.2-5.3c0-1.97-0.8-3.91-2.2-5.3C43.409,144.8,41.479,144,39.5,144z"/>
	<path d="M32,183.497V327.5c0,4.142,3.358,7.5,7.5,7.5s7.5-3.358,7.5-7.5V183.497c0-4.142-3.358-7.5-7.5-7.5S32,179.355,32,183.497z
		"/>
	<path d="M464,183.497V327.5c0,4.142,3.358,7.5,7.5,7.5s7.5-3.358,7.5-7.5V183.497c0-4.142-3.358-7.5-7.5-7.5
		S464,179.355,464,183.497z"/>
	<path d="M399.5,392h-288c-4.142,0-7.5,3.358-7.5,7.5s3.358,7.5,7.5,7.5h288c4.142,0,7.5-3.358,7.5-7.5S403.642,392,399.5,392z"/>
	<path d="M111.5,119h288c4.142,0,7.5-3.358,7.5-7.5s-3.358-7.5-7.5-7.5h-288c-4.142,0-7.5,3.358-7.5,7.5S107.358,119,111.5,119z"/>
	<path d="M44.803,106.197c-2.929-2.929-7.678-2.929-10.606,0c-2.929,2.929-2.929,7.678,0,10.606l24,24
		C59.661,142.268,61.581,143,63.5,143s3.839-0.732,5.303-2.197c2.929-2.929,2.929-7.678,0-10.606L44.803,106.197z"/>
	<path d="M431.5,104c-1.97,0-3.91,0.8-5.3,2.2c-1.4,1.39-2.2,3.33-2.2,5.3c0,1.98,0.8,3.91,2.2,5.3c1.39,1.4,3.32,2.2,5.3,2.2
		s3.91-0.8,5.3-2.2c1.4-1.39,2.2-3.33,2.2-5.3c0-1.97-0.8-3.91-2.2-5.3C435.409,104.8,433.469,104,431.5,104z"/>
	<path d="M471.5,144c-1.97,0-3.91,0.8-5.3,2.2c-1.4,1.39-2.2,3.33-2.2,5.3c0,1.97,0.8,3.9,2.2,5.3c1.39,1.4,3.33,2.2,5.3,2.2
		c1.98,0,3.91-0.8,5.3-2.2c1.4-1.39,2.2-3.33,2.2-5.3c0-1.97-0.8-3.91-2.2-5.3C475.409,144.8,473.479,144,471.5,144z"/>
	<path d="M466.197,106.197l-24,24c-2.929,2.929-2.929,7.678,0,10.606c1.464,1.464,3.384,2.197,5.303,2.197s3.839-0.732,5.303-2.197
		l24-24c2.929-2.929,2.929-7.678,0-10.606C473.875,103.268,469.125,103.268,466.197,106.197z"/>
	<path d="M466.199,364.8c1.4,1.4,3.33,2.2,5.3,2.2c1.97,0,3.91-0.8,5.3-2.2c1.4-1.39,2.2-3.33,2.2-5.3c0-1.97-0.8-3.91-2.2-5.3
		c-1.39-1.4-3.32-2.2-5.3-2.2c-1.97,0-3.91,0.8-5.3,2.2c-1.4,1.39-2.2,3.33-2.2,5.3C464,361.47,464.799,363.41,466.199,364.8z"/>
	<path d="M431.5,392c-1.97,0-3.91,0.8-5.3,2.2c-1.4,1.39-2.2,3.33-2.2,5.3c0,1.97,0.8,3.91,2.2,5.3c1.39,1.4,3.33,2.2,5.3,2.2
		c1.97,0,3.91-0.8,5.3-2.2c1.4-1.39,2.2-3.33,2.2-5.3c0-1.97-0.8-3.91-2.2-5.3C435.409,392.8,433.469,392,431.5,392z"/>
	<path d="M452.803,370.197c-2.929-2.929-7.678-2.929-10.606,0c-2.929,2.929-2.929,7.678,0,10.606l24,24
		c1.464,1.464,3.384,2.197,5.303,2.197s3.839-0.732,5.303-2.197c2.929-2.929,2.929-7.678,0-10.606L452.803,370.197z"/>
	<path d="M79.5,392c-1.97,0-3.91,0.8-5.3,2.2c-1.4,1.39-2.2,3.33-2.2,5.3c0,1.97,0.8,3.91,2.2,5.3c1.39,1.4,3.33,2.2,5.3,2.2
		c1.97,0,3.91-0.8,5.3-2.2c1.4-1.39,2.2-3.33,2.2-5.3c0-1.97-0.8-3.91-2.2-5.3C83.409,392.8,81.479,392,79.5,392z"/>
	<path d="M39.5,367c1.97,0,3.91-0.8,5.3-2.2c1.4-1.39,2.2-3.33,2.2-5.3c0-1.97-0.8-3.91-2.2-5.3c-1.39-1.4-3.33-2.2-5.3-2.2
		c-1.98,0-3.91,0.8-5.3,2.2c-1.4,1.39-2.2,3.33-2.2,5.3c0,1.97,0.8,3.91,2.2,5.3C35.589,366.2,37.529,367,39.5,367z"/>
	<path d="M58.197,370.197l-24,24c-2.929,2.929-2.929,7.678,0,10.606C35.661,406.268,37.581,407,39.5,407s3.839-0.732,5.303-2.197
		l24-24c2.929-2.929,2.929-7.678,0-10.606C65.875,367.268,61.125,367.268,58.197,370.197z"/>
	<path d="M430.429,352.384l-20.131-48.599C418.173,295.304,423,283.958,423,271.5c0-26.191-21.309-47.5-47.5-47.5
		S328,245.309,328,271.5c0,12.06,4.526,23.077,11.958,31.463l-20.471,49.421c-1.161,2.803-0.519,6.028,1.626,8.173
		c2.145,2.146,5.373,2.787,8.173,1.626l13.976-5.789l5.789,13.976c1.161,2.803,3.896,4.63,6.929,4.63s5.768-1.827,6.929-4.63
		l12.049-29.088l12.048,29.088c1.161,2.803,3.896,4.63,6.929,4.63c3.033,0,5.768-1.827,6.929-4.63l5.789-13.976l13.976,5.789
		c2.804,1.161,6.029,0.519,8.173-1.626C430.948,358.412,431.59,355.186,430.429,352.384z M375.5,239c17.92,0,32.5,14.58,32.5,32.5
		S393.42,304,375.5,304S343,289.42,343,271.5S357.58,239,375.5,239z M355.98,347.902l-1.73-4.177
		c-1.585-3.827-5.974-5.644-9.799-4.059l-4.177,1.73l11.838-28.578c4.052,2.303,8.472,4.027,13.151,5.059l1.577,3.807
		L355.98,347.902z M405.465,339.666c-3.827-1.585-8.214,0.232-9.799,4.059l-1.73,4.177l-10.86-26.218l1.474-3.559
		c4.778-0.926,9.305-2.563,13.46-4.809l11.632,28.08L405.465,339.666z"/>
	<path d="M375.5,287c8.547,0,15.5-6.953,15.5-15.5s-6.953-15.5-15.5-15.5s-15.5,6.953-15.5,15.5S366.953,287,375.5,287z M375.5,271
		c0.276,0,0.5,0.224,0.5,0.5s-0.224,0.5-0.5,0.5s-0.5-0.224-0.5-0.5S375.224,271,375.5,271z"/>
	<path d="M191.5,152c-4.142,0-7.5,3.358-7.5,7.5s3.358,7.5,7.5,7.5h128c4.142,0,7.5-3.358,7.5-7.5s-3.358-7.5-7.5-7.5H191.5z"/>
	<path d="M111.5,199h288c4.142,0,7.5-3.358,7.5-7.5s-3.358-7.5-7.5-7.5h-288c-4.142,0-7.5,3.358-7.5,7.5S107.358,199,111.5,199z"/>
	<path d="M111.5,255h176c4.142,0,7.5-3.358,7.5-7.5s-3.358-7.5-7.5-7.5h-176c-4.142,0-7.5,3.358-7.5,7.5S107.358,255,111.5,255z"/>
	<path d="M111.5,351h128c4.142,0,7.5-3.358,7.5-7.5s-3.358-7.5-7.5-7.5h-128c-4.142,0-7.5,3.358-7.5,7.5S107.358,351,111.5,351z"/>
	<path d="M111.5,319h160c4.142,0,7.5-3.358,7.5-7.5s-3.358-7.5-7.5-7.5h-160c-4.142,0-7.5,3.358-7.5,7.5S107.358,319,111.5,319z"/>
	<path d="M111.5,287h96c4.142,0,7.5-3.358,7.5-7.5s-3.358-7.5-7.5-7.5h-96c-4.142,0-7.5,3.358-7.5,7.5S107.358,287,111.5,287z"/>
	<path d="M239.5,272c-4.142,0-7.5,3.358-7.5,7.5s3.358,7.5,7.5,7.5h16c4.142,0,7.5-3.358,7.5-7.5s-3.358-7.5-7.5-7.5H239.5z"/>
</g>
<g>
</g>
<g>
</g>
<g>
</g>
<g>
</g>
<g>
</g>
<g>
</g>
<g>
</g>
<g>
</g>
<g>
</g>
<g>
</g>
<g>
</g>
<g>
</g>
<g>
</g>
<g>
</g>
<g>
</g>
</svg>
