<?xml version="1.0" encoding="iso-8859-1"?>
<!-- Generator: Adobe Illustrator 19.0.0, SVG Export Plug-In . SVG Version: 6.00 Build 0)  -->
<svg version="1.1" id="Capa_1" xmlns="http://www.w3.org/2000/svg" xmlns:xlink="http://www.w3.org/1999/xlink" x="0px" y="0px"
	 viewBox="0 0 511 511" style="enable-background:new 0 0 511 511;" xml:space="preserve">
<g>
	<path d="M439,199.5c0-89.846-71.108-163.386-160-167.324V15h24.5c4.142,0,7.5-3.358,7.5-7.5S307.642,0,303.5,0h-32
		C161.495,0,72,89.495,72,199.5c0,102.054,77.03,186.442,176,198.109V432h-8.5c-12.958,0-23.5,10.542-23.5,23.5v8.5h-0.5
		c-21.78,0-39.5,17.72-39.5,39.5c0,4.142,3.358,7.5,7.5,7.5h176c4.142,0,7.5-3.358,7.5-7.5c0-21.78-17.72-39.5-39.5-39.5H327v-8.5
		c0-12.958-10.542-23.5-23.5-23.5H295v-33h8.5c4.142,0,7.5-3.358,7.5-7.5s-3.358-7.5-7.5-7.5H279v-17.176
		C367.892,362.886,439,289.346,439,199.5z M119,199.5c0-74.44,53.615-136.583,124.256-149.867l-23.797,19.193
		c-6.733,5.431-10.595,13.507-10.595,22.157v7.184c0,2.242,1.003,4.367,2.735,5.792c1.731,1.425,4.012,2,6.209,1.568l11.235-2.205
		L209.327,118.2c-1.878,1.417-2.982,3.634-2.982,5.987v7.998l-2.618,0.278c-9.516,1.011-16.57,9.288-16.058,18.844l0.375,7.004
		c0.354,6.606,4.273,12.375,10.064,15.198c-4.07,4.3-6.454,10.14-6.312,16.499l0.092,4.154l-7.452,14.365
		c-7.436,14.334-6.464,31.568,2.535,44.976l3.813,5.681c6.289,9.368,17.527,14.143,28.638,12.159l31.994-5.712l6.296,7.795
		c6.029,7.465,13.95,13.231,22.906,16.676l0.415,0.16v18.527c0,1.959,0.319,5.364,2.808,14.375
		c2.587,9.367,8.694,17.149,17.195,21.914c1.963,1.1,4,1.999,6.083,2.713C295.688,350.535,283.763,352,271.5,352
		C187.411,352,119,283.589,119,199.5z M286.203,47.711l-4.311,6.17l-11.916-6.862C270.484,47.014,270.99,47,271.5,47
		C276.46,47,281.363,47.246,286.203,47.711z M336.319,337.518l20.041-50.645l29.916-28.19c1.166-1.099,1.949-2.542,2.236-4.118
		l3.065-16.872c0.414-2.277-0.247-4.617-1.79-6.341c-1.543-1.725-3.793-2.639-6.104-2.482l-7.443,0.511
		c-1.125,0.077-2.234,0.005-3.311-0.189l20.278-15.019c5.887-4.36,9.401-11.337,9.401-18.663v-14.239c0-1.63-0.53-3.193-1.478-4.47
		l20.273,5.9c0.566,0.165,1.134,0.252,1.698,0.282C423.69,188.411,424,193.919,424,199.5
		C424,260.424,388.084,313.108,336.319,337.518z M420.46,166.804l-45.967-13.379c-2.547-0.742-5.299-0.081-7.233,1.737
		c-1.934,1.818-2.762,4.523-2.179,7.113l3.363,14.926c1.113,4.941,4.28,9.205,8.689,11.699c3.202,1.812,6.869,2.579,10.477,2.255
		v4.354c0,2.594-1.245,5.065-3.329,6.609l-22.615,16.75l-20.7-39.937c-1.906-3.677-6.432-5.113-10.11-3.207
		c-3.678,1.906-5.114,6.432-3.208,10.11l22.397,43.212c4.887,9.429,14.563,15.294,25.064,15.366l-0.917,5.044l-29.337,27.644
		c-0.801,0.755-1.425,1.676-1.831,2.699l-21.679,54.786c-4.467,0.535-8.973-0.351-12.977-2.596
		c-4.98-2.791-8.556-7.345-10.069-12.822c-2.204-7.978-2.267-10.16-2.267-10.382v-23.678c0-3.103-1.911-5.886-4.808-7l-5.223-2.009
		c-6.499-2.499-12.247-6.683-16.622-12.1l-9.083-11.245c-1.718-2.128-4.458-3.154-7.153-2.671l-36.36,6.491
		c-5.258,0.94-10.573-1.32-13.547-5.751l-3.813-5.681c-5.945-8.856-6.586-20.24-1.674-29.709l8.335-16.068
		c0.58-1.117,0.869-2.362,0.84-3.621l-0.135-6.072c-0.091-4.088,2.765-7.572,6.792-8.282l32.548-5.746
		c4.745-0.837,9.563,0.166,13.577,2.822l18.791,12.437c1.924,1.274,4.327,1.59,6.518,0.859l30.79-10.293
		c0.981-0.328,1.883-0.855,2.65-1.548l4.454-4.025c4.557-4.118,7.157-10.002,7.132-16.145s-2.672-12.006-7.263-16.087
		c-1.938-1.724-4.63-2.322-7.116-1.585l-23.013,6.826l-14.052-12.863c-3.686-3.374-8.844-4.286-13.463-2.38
		c-3.118,1.286-5.505,3.657-6.799,6.597l-1.598-1.417c-0.41-0.364-0.859-0.681-1.338-0.947c-8.807-4.883-19.68-3.56-27.06,3.288
		l-7.656,7.106c-0.596,0.553-1.097,1.199-1.486,1.913l-6.574,12.082l-7.424-2.064c-1.235-0.343-2.111-1.434-2.179-2.714
		l-0.375-7.004c-0.085-1.585,1.085-2.958,2.664-3.126l9.326-0.99c3.814-0.405,6.708-3.623,6.708-7.458v-11.007l17.857-13.476
		c2.521-1.902,4.594-4.255,6.162-6.994l6.437-11.236c1.459-2.548,1.298-5.713-0.413-8.099c-1.711-2.386-4.663-3.554-7.539-2.989
		l-19.844,3.895c0.485-3.335,2.201-6.369,4.871-8.522l28.82-23.244l18.53,10.671c2.992,1.723,6.47,2.158,9.794,1.228
		c3.167-0.887,5.809-2.907,7.489-5.712l8.139-11.648c0.36-0.516,0.638-1.063,0.853-1.625
		C361.195,62.339,407.639,108.348,420.46,166.804z M392.413,174.263l-5.489,1.817c-1.09,0.361-1.976,0.008-2.406-0.235
		c-0.43-0.243-1.188-0.818-1.441-1.94l-0.568-2.523L392.413,174.263z M229.085,163.422l2.705-4.971l6.757-6.271
		c2.442-2.266,5.965-2.823,8.961-1.476l13.02,11.541c-5.405-1.898-11.238-2.39-17.001-1.372L229.085,163.422z M273.702,156.383
		l-0.625-5.062l12.578,11.513c1.942,1.778,4.674,2.406,7.197,1.658l21.937-6.507c0.167,0.584,0.255,1.196,0.257,1.826
		c0.008,1.913-0.77,3.672-2.188,4.954l-3.291,2.973l-25.834,8.637l-15.742-10.419c-0.615-0.407-1.241-0.793-1.876-1.157
		c1.235,0.018,2.49-0.258,3.636-0.861C272.51,162.488,274.084,159.479,273.702,156.383z M87,199.5
		c0-99.22,78.731-180.385,177-184.335v17.011c-88.892,3.938-160,77.478-160,167.324s71.108,163.386,160,167.324v17.011
		C165.731,379.885,87,298.72,87,199.5z M350.826,496H192.174c3.175-9.853,12.431-17,23.326-17h112
		C338.395,479,347.651,486.147,350.826,496z M312,455.5v8.5h-81v-8.5c0-4.687,3.813-8.5,8.5-8.5h64
		C308.187,447,312,450.813,312,455.5z M280,432h-17v-33.193c2.82,0.119,5.651,0.193,8.5,0.193h8.5V432z"/>
	<path d="M190.889,126.975c0.208,0.017,0.414,0.025,0.619,0.025c3.865,0,7.146-2.969,7.467-6.89l1.379-16.879
		c0.337-4.128-2.736-7.749-6.864-8.086c-4.131-0.34-7.749,2.736-8.086,6.865l-1.379,16.879
		C183.688,123.018,186.761,126.638,190.889,126.975z"/>
	<path d="M296,127.5c0,4.142,3.358,7.5,7.5,7.5h16c4.142,0,7.5-3.358,7.5-7.5s-3.358-7.5-7.5-7.5h-16
		C299.358,120,296,123.358,296,127.5z"/>
	<path d="M328.634,117.644l17.961,15.53c1.418,1.226,3.164,1.827,4.902,1.827c2.103,0,4.194-0.88,5.677-2.595
		c2.709-3.133,2.365-7.87-0.768-10.579l-17.961-15.53c-3.132-2.708-7.87-2.365-10.579,0.768
		C325.157,110.198,325.5,114.934,328.634,117.644z"/>
</g>
<g>
</g>
<g>
</g>
<g>
</g>
<g>
</g>
<g>
</g>
<g>
</g>
<g>
</g>
<g>
</g>
<g>
</g>
<g>
</g>
<g>
</g>
<g>
</g>
<g>
</g>
<g>
</g>
<g>
</g>
</svg>
