<?xml version="1.0" encoding="iso-8859-1"?>
<!-- Generator: Adobe Illustrator 19.0.0, SVG Export Plug-In . SVG Version: 6.00 Build 0)  -->
<svg version="1.1" id="Capa_1" xmlns="http://www.w3.org/2000/svg" xmlns:xlink="http://www.w3.org/1999/xlink" x="0px" y="0px"
	 viewBox="0 0 511 511" style="enable-background:new 0 0 511 511;" xml:space="preserve">
<path d="M303.5,48H287v-0.5C287,21.309,265.691,0,239.5,0S192,21.309,192,47.5V48h-0.5c-4.142,0-7.5,3.358-7.5,7.5v136
	c0,0.133,0.003,0.266,0.011,0.398l7.271,136.719c0.321,6.732,3.438,12.679,8.196,16.749l-15.333,76.663
	c-0.285,1.426-0.149,2.905,0.391,4.256l32,80c1.139,2.847,3.896,4.714,6.963,4.714h16h16c3.067,0,5.825-1.867,6.963-4.714l32-80
	c0.541-1.351,0.676-2.83,0.391-4.256l-15.333-76.663c4.756-4.065,7.87-10,8.189-16.707l7.278-136.761
	c0.007-0.133,0.011-0.266,0.011-0.398V63h8.5c4.687,0,8.5,3.813,8.5,8.5v144c0,4.142,3.358,7.5,7.5,7.5s7.5-3.358,7.5-7.5v-144
	C327,58.542,316.458,48,303.5,48z M207,47.5c0-17.92,14.58-32.5,32.5-32.5S272,29.58,272,47.5V48h-65V47.5z M272.73,327.904
	c-0.216,4.54-3.945,8.096-8.49,8.096h-49.485c-4.545,0-8.274-3.556-8.493-8.138L199.409,199h80.181L272.73,327.904z
	 M279.708,422.785L250.422,496H247v-58.945c4.765-2.647,8-7.728,8-13.555c0-8.547-6.953-15.5-15.5-15.5s-15.5,6.953-15.5,15.5
	c0,5.827,3.235,10.908,8,13.555V496h-3.422l-29.286-73.215l14.363-71.812c0.365,0.017,0.732,0.027,1.101,0.027h49.485
	c0.371,0,0.739-0.01,1.106-0.027L279.708,422.785z M280,184h-81V63h81V184z"/>
<g>
</g>
<g>
</g>
<g>
</g>
<g>
</g>
<g>
</g>
<g>
</g>
<g>
</g>
<g>
</g>
<g>
</g>
<g>
</g>
<g>
</g>
<g>
</g>
<g>
</g>
<g>
</g>
<g>
</g>
</svg>
