<?xml version="1.0" encoding="iso-8859-1"?>
<!-- Generator: Adobe Illustrator 19.0.0, SVG Export Plug-In . SVG Version: 6.00 Build 0)  -->
<svg version="1.1" id="Capa_1" xmlns="http://www.w3.org/2000/svg" xmlns:xlink="http://www.w3.org/1999/xlink" x="0px" y="0px"
	 viewBox="0 0 504.762 504.762" style="enable-background:new 0 0 504.762 504.762;" xml:space="preserve">
<g>
	<path d="M445.877,323.958l-22.625-22.625c-2.929-2.929-7.678-2.929-10.606,0l-54.625,54.625c-2.929,2.929-2.929,7.678,0,10.606
		l8.353,8.353l-14.011,14.011c-3.116,3.116-7.26,4.833-11.667,4.833h-27.246v-22.769l116.428-116.428
		c2.929-2.929,2.929-7.678,0-10.606l-22.625-22.625c-2.929-2.929-7.678-2.929-10.606,0L286.247,331.732
		c-3.873-1.273-8.005-1.97-12.298-1.97c-6.893,0-13.377,1.779-19.023,4.896c-19.334-6.918-36.618-19.707-48.937-36.303
		c-13.437-18.103-20.54-39.593-20.54-62.148c0-7.81,0.85-15.535,2.51-23.002c3.383-1.392,6.567-3.165,9.507-5.263l39.845,39.535
		c0.043,0.042,0.089,0.078,0.133,0.119c0.115,0.109,0.231,0.215,0.353,0.316c0.076,0.064,0.155,0.124,0.233,0.184
		c0.113,0.086,0.227,0.171,0.345,0.252c0.098,0.067,0.198,0.13,0.299,0.191c0.103,0.063,0.206,0.125,0.313,0.184
		c0.123,0.068,0.248,0.13,0.375,0.19c0.092,0.044,0.183,0.088,0.277,0.128c0.145,0.062,0.292,0.117,0.44,0.17
		c0.058,0.021,0.113,0.047,0.173,0.067l34.426,11.318l15.704,15.704c3.022,3.022,6.99,4.532,10.96,4.532
		c3.969,0,7.939-1.511,10.96-4.532l20.686-20.687c6.043-6.043,6.043-15.876,0-21.92l-15.669-15.669l-10.938-34.758
		c-0.031-0.097-0.071-0.188-0.105-0.282c-0.046-0.129-0.089-0.259-0.143-0.385c-0.056-0.132-0.12-0.258-0.183-0.385
		c-0.045-0.092-0.086-0.185-0.135-0.275c-0.079-0.145-0.166-0.283-0.253-0.421c-0.043-0.068-0.082-0.137-0.127-0.204
		c-0.098-0.145-0.205-0.283-0.312-0.42c-0.043-0.056-0.084-0.113-0.129-0.167c-0.114-0.137-0.235-0.266-0.357-0.393
		c-0.041-0.042-0.077-0.089-0.118-0.13l-0.06-0.06c-0.008-0.008-0.016-0.017-0.025-0.025L187.137,63.272
		c-4.438-4.438-10.34-6.883-16.617-6.883c-6.12,0-11.879,2.329-16.277,6.559l-30.995-30.995c3.375-8.387,1.673-18.358-5.113-25.145
		C113.744,2.418,107.907,0,101.698,0h0c-6.209,0-12.046,2.418-16.436,6.808L63.496,28.574c-4.391,4.39-6.808,10.228-6.808,16.437
		c0,6.208,2.419,12.046,6.809,16.436c4.532,4.531,10.482,6.796,16.435,6.796c2.961,0,5.921-0.563,8.707-1.685l30.997,30.997
		c-4.23,4.398-6.559,10.157-6.559,16.277c0,6.277,2.445,12.179,6.883,16.617l11.303,11.303c-5.541,7.769-8.814,17.261-8.814,27.51
		c0,8.312,2.152,16.128,5.919,22.932c-3.92,14.375-5.919,29.176-5.919,44.013c0,36.312,11.475,70.884,33.184,99.977
		c19.86,26.616,47.69,47.073,78.816,58.063v55.515h-16.5c-17.369,0-31.5,14.131-31.5,31.5v16c0,4.142,3.358,7.5,7.5,7.5h160
		c4.142,0,7.5-3.358,7.5-7.5v-16c0-17.369-14.131-31.5-31.5-31.5h-16.5v-41h27.246c8.414,0,16.325-3.276,22.274-9.226l14.011-14.011
		l3.666,3.666c1.464,1.464,3.384,2.197,5.303,2.197s3.839-0.732,5.303-2.197l54.625-54.625
		C448.807,331.636,448.807,326.887,445.877,323.958z M401.949,237.243l12.019,12.019L310.025,353.205
		c-2.378-5.321-5.897-10.02-10.247-13.79L401.949,237.243z M169.949,201.762c-17.92,0-32.5-14.58-32.5-32.5s14.58-32.5,32.5-32.5
		s32.5,14.58,32.5,32.5S187.87,201.762,169.949,201.762z M295.786,199.568l6.412,20.375l-25.521,25.521l-20.159-6.628
		L295.786,199.568z M322.528,244.655c0,0.207-0.11,0.317-0.146,0.354l-20.686,20.686c-0.195,0.195-0.512,0.195-0.708,0
		l-11.665-11.665l21.394-21.394l11.665,11.665C322.418,244.338,322.528,244.448,322.528,244.655z M130.234,86.94L100.554,57.26
		l13.395-13.392l29.68,29.68L130.234,86.94z M74.103,50.839L74.103,50.839c-1.558-1.557-2.416-3.627-2.416-5.829
		s0.857-4.272,2.415-5.83l21.766-21.766C97.425,15.857,99.495,15,101.697,15s4.272,0.857,5.831,2.416
		c3.214,3.215,3.214,8.445,0,11.659L85.761,50.839C82.546,54.053,77.316,54.053,74.103,50.839z M128.077,113.832
		c0-2.271,0.884-4.405,2.49-6.011l33.942-33.942c1.605-1.605,3.74-2.49,6.011-2.49s4.405,0.884,6.021,2.5L288.611,185.53
		l-46.038,46.038l-34.406-34.139c5.828-7.887,9.282-17.63,9.282-28.167c0-26.191-21.309-47.5-47.5-47.5
		c-10.541,0-20.287,3.456-28.176,9.288l-11.207-11.208C128.961,118.237,128.077,116.103,128.077,113.832z M167.655,327.213
		c-19.761-26.482-30.206-57.952-30.206-91.006c0-9.993,1.005-19.968,2.966-29.785c8.115,6.463,18.378,10.339,29.534,10.339
		c0.695,0,1.385-0.023,2.073-0.053c-1.037,6.401-1.573,12.925-1.573,19.498c0,25.799,8.125,50.38,23.495,71.088
		c12.63,17.016,29.17,30.136,48.285,38.458c-4.885,6.573-7.78,14.709-7.78,23.509v8.977
		C208.128,367.874,184.68,350.03,167.655,327.213z M346.449,481.262v8.5h-145v-8.5c0-9.098,7.402-16.5,16.5-16.5h112
		C339.047,464.762,346.449,472.164,346.449,481.262z M249.449,449.762v-60.128c0.053-0.512,0.051-1.022,0-1.522v-18.85
		c0-13.509,10.991-24.5,24.5-24.5s24.5,10.991,24.5,24.5v80.5H249.449z M385.949,373.28l-12.019-12.019l44.019-44.019l12.019,12.019
		L385.949,373.28z"/>
	<path d="M169.949,153.762c-8.547,0-15.5,6.953-15.5,15.5s6.953,15.5,15.5,15.5s15.5-6.953,15.5-15.5
		S178.496,153.762,169.949,153.762z M169.949,169.762c-0.276,0-0.5-0.224-0.5-0.5s0.224-0.5,0.5-0.5s0.5,0.224,0.5,0.5
		S170.225,169.762,169.949,169.762z"/>
	<path d="M273.949,361.762c-1.97,0-3.91,0.8-5.3,2.2c-1.4,1.39-2.2,3.33-2.2,5.3c0,1.97,0.8,3.91,2.2,5.3c1.39,1.4,3.33,2.2,5.3,2.2
		c1.97,0,3.91-0.8,5.3-2.2c1.4-1.39,2.2-3.33,2.2-5.3c0-1.97-0.8-3.91-2.2-5.3C277.858,362.562,275.918,361.762,273.949,361.762z"/>
</g>
<g>
</g>
<g>
</g>
<g>
</g>
<g>
</g>
<g>
</g>
<g>
</g>
<g>
</g>
<g>
</g>
<g>
</g>
<g>
</g>
<g>
</g>
<g>
</g>
<g>
</g>
<g>
</g>
<g>
</g>
</svg>
