<?xml version="1.0" encoding="iso-8859-1"?>
<!-- Generator: Adobe Illustrator 19.0.0, SVG Export Plug-In . SVG Version: 6.00 Build 0)  -->
<svg version="1.1" id="Capa_1" xmlns="http://www.w3.org/2000/svg" xmlns:xlink="http://www.w3.org/1999/xlink" x="0px" y="0px"
	 viewBox="0 0 507.034 507.034" style="enable-background:new 0 0 507.034 507.034;" xml:space="preserve">
<path d="M497.823,231.292c-10.455-10.455-26.486-12.004-38.602-4.66L391,158.411v-36.894c0-21.78-17.72-39.5-39.5-39.5h-272
	c-21.78,0-39.5,17.72-39.5,39.5v233.734c-9.29,3.138-16,11.93-16,22.266c0,0.169,0.014,0.334,0.025,0.5H23.5
	c-12.958,0-23.5,10.542-23.5,23.5v16c0,4.142,3.358,7.5,7.5,7.5h416c4.142,0,7.5-3.358,7.5-7.5v-16c0-12.958-10.542-23.5-23.5-23.5
	h-0.525c0.011-0.166,0.025-0.331,0.025-0.5c0-10.336-6.71-19.128-16-22.266V179.624l57.615,57.615
	c-7.343,12.115-5.794,28.147,4.66,38.601c6.141,6.141,14.208,9.211,22.274,9.211s16.133-3.07,22.274-9.211
	C510.104,263.558,510.104,243.574,497.823,231.292z M376,121.517v21.894l-46.394-46.394H351.5
	C365.009,97.017,376,108.008,376,121.517z M119.5,305.017c9.098,0,16.5,7.402,16.5,16.5s-7.402,16.5-16.5,16.5
	s-16.5-7.402-16.5-16.5S110.402,305.017,119.5,305.017z M127,290.926V97.017h33v193.909c-6.535,1.603-12.273,5.249-16.5,10.221
	C139.273,296.175,133.535,292.529,127,290.926z M167.5,305.017c9.098,0,16.5,7.402,16.5,16.5s-7.402,16.5-16.5,16.5
	s-16.5-7.402-16.5-16.5S158.402,305.017,167.5,305.017z M175,290.926V97.017h33v193.909c-6.535,1.603-12.273,5.249-16.5,10.221
	C187.273,296.175,181.535,292.529,175,290.926z M215.5,305.017c9.098,0,16.5,7.402,16.5,16.5s-7.402,16.5-16.5,16.5
	s-16.5-7.402-16.5-16.5S206.402,305.017,215.5,305.017z M223,290.926V97.017h33v193.909c-6.535,1.603-12.273,5.249-16.5,10.221
	C235.273,296.175,229.535,292.529,223,290.926z M263.5,305.017c9.098,0,16.5,7.402,16.5,16.5s-7.402,16.5-16.5,16.5
	s-16.5-7.402-16.5-16.5S254.402,305.017,263.5,305.017z M271,290.926V97.017h33v193.909c-6.535,1.603-12.273,5.249-16.5,10.221
	C283.273,296.175,277.535,292.529,271,290.926z M311.5,305.017c9.098,0,16.5,7.402,16.5,16.5s-7.402,16.5-16.5,16.5
	s-16.5-7.402-16.5-16.5S302.402,305.017,311.5,305.017z M39,377.517c0-4.687,3.813-8.5,8.5-8.5s8.5,3.813,8.5,8.5
	c0,0.169,0.014,0.334,0.025,0.5h-17.05C38.986,377.851,39,377.686,39,377.517z M416,401.517v8.5H15v-8.5c0-4.687,3.813-8.5,8.5-8.5
	h384C412.187,393.017,416,396.83,416,401.517z M392.025,378.017h-17.05c0.011-0.166,0.025-0.331,0.025-0.5
	c0-4.687,3.813-8.5,8.5-8.5s8.5,3.813,8.5,8.5C392,377.686,392.014,377.851,392.025,378.017z M376,355.251
	c-9.29,3.138-16,11.93-16,22.266c0,0.169,0.014,0.334,0.025,0.5H70.975c0.011-0.166,0.025-0.331,0.025-0.5
	c0-10.336-6.71-19.128-16-22.266V121.517c0-13.509,10.991-24.5,24.5-24.5H112v193.909c-13.759,3.374-24,15.806-24,30.591
	c0,17.369,14.131,31.5,31.5,31.5c9.607,0,18.218-4.328,24-11.131c5.782,6.803,14.393,11.131,24,11.131s18.218-4.328,24-11.131
	c5.782,6.803,14.393,11.131,24,11.131s18.218-4.328,24-11.131c5.782,6.803,14.393,11.131,24,11.131s18.218-4.328,24-11.131
	c5.782,6.803,14.393,11.131,24,11.131c17.369,0,31.5-14.131,31.5-31.5c0-14.785-10.241-27.216-24-30.591V107.624l57,57V355.251z
	 M487.216,265.233c-6.434,6.434-16.901,6.434-23.335,0c-6.433-6.434-6.433-16.901,0-23.334c3.217-3.217,7.442-4.825,11.667-4.825
	s8.451,1.608,11.667,4.825C493.649,248.332,493.649,258.8,487.216,265.233z"/>
<g>
</g>
<g>
</g>
<g>
</g>
<g>
</g>
<g>
</g>
<g>
</g>
<g>
</g>
<g>
</g>
<g>
</g>
<g>
</g>
<g>
</g>
<g>
</g>
<g>
</g>
<g>
</g>
<g>
</g>
</svg>
