<?xml version="1.0" encoding="iso-8859-1"?>
<!-- Generator: Adobe Illustrator 19.0.0, SVG Export Plug-In . SVG Version: 6.00 Build 0)  -->
<svg version="1.1" id="Capa_1" xmlns="http://www.w3.org/2000/svg" xmlns:xlink="http://www.w3.org/1999/xlink" x="0px" y="0px"
	 viewBox="0 0 511 511" style="enable-background:new 0 0 511 511;" xml:space="preserve">
<g>
	<path d="M199.5,144c-12.958,0-23.5,10.542-23.5,23.5v32c0,12.958,10.542,23.5,23.5,23.5s23.5-10.542,23.5-23.5v-32
		C223,154.542,212.458,144,199.5,144z M208,199.5c0,4.687-3.813,8.5-8.5,8.5s-8.5-3.813-8.5-8.5v-32c0-4.687,3.813-8.5,8.5-8.5
		s8.5,3.813,8.5,8.5V199.5z"/>
	<path d="M447.5,96h-16C409.168,96,391,77.832,391,55.5C391,24.897,366.103,0,335.5,0h-56c-45.721,0-83.358,35.25-87.175,80H143.5
		C95.252,80,56,119.252,56,167.5v200C56,446.626,120.374,511,199.5,511S343,446.626,343,367.5v-200c0-48.248-39.252-87.5-87.5-87.5
		h-48.113c3.765-36.466,34.668-65,72.113-65h56c22.332,0,40.5,18.168,40.5,40.5c0,30.603,24.897,55.5,55.5,55.5h16
		c4.142,0,7.5-3.358,7.5-7.5S451.642,96,447.5,96z M328,167.5v200c0,70.855-57.645,128.5-128.5,128.5S71,438.355,71,367.5v-200
		c0-21.818,9.701-41.4,25-54.702V231.5c0,30.603,24.897,55.5,55.5,55.5h96c30.603,0,55.5-24.897,55.5-55.5V112.798
		C318.299,126.1,328,145.682,328,167.5z M288.038,102.742c-0.025,0.249-0.038,0.502-0.038,0.758v128c0,22.332-18.168,40.5-40.5,40.5
		H207v-24.5c0-4.142-3.358-7.5-7.5-7.5s-7.5,3.358-7.5,7.5V272h-40.5c-22.332,0-40.5-18.168-40.5-40.5v-128
		c0-0.256-0.013-0.509-0.038-0.758C120.754,97.801,131.803,95,143.5,95H192v24.5c0,4.142,3.358,7.5,7.5,7.5s7.5-3.358,7.5-7.5V95
		h48.5C267.197,95,278.246,97.801,288.038,102.742z"/>
</g>
<g>
</g>
<g>
</g>
<g>
</g>
<g>
</g>
<g>
</g>
<g>
</g>
<g>
</g>
<g>
</g>
<g>
</g>
<g>
</g>
<g>
</g>
<g>
</g>
<g>
</g>
<g>
</g>
<g>
</g>
</svg>
