<?xml version="1.0" encoding="iso-8859-1"?>
<!-- Generator: Adobe Illustrator 19.0.0, SVG Export Plug-In . SVG Version: 6.00 Build 0)  -->
<svg version="1.1" id="Capa_1" xmlns="http://www.w3.org/2000/svg" xmlns:xlink="http://www.w3.org/1999/xlink" x="0px" y="0px"
	 viewBox="0 0 511 511" style="enable-background:new 0 0 511 511;" xml:space="preserve">
<g>
	<path d="M439.5,0h-352C74.542,0,64,10.542,64,23.5V48h-8.5c-4.142,0-7.5,3.358-7.5,7.5s3.358,7.5,7.5,7.5H64v25h-8.5
		c-4.142,0-7.5,3.358-7.5,7.5s3.358,7.5,7.5,7.5H64v25h-8.5c-4.142,0-7.5,3.358-7.5,7.5s3.358,7.5,7.5,7.5H64v25h-8.5
		c-4.142,0-7.5,3.358-7.5,7.5s3.358,7.5,7.5,7.5H64v25h-8.5c-4.142,0-7.5,3.358-7.5,7.5s3.358,7.5,7.5,7.5H64v25h-8.5
		c-4.142,0-7.5,3.358-7.5,7.5s3.358,7.5,7.5,7.5H64v25h-8.5c-4.142,0-7.5,3.358-7.5,7.5s3.358,7.5,7.5,7.5H64v25h-8.5
		c-4.142,0-7.5,3.358-7.5,7.5s3.358,7.5,7.5,7.5H64v25h-8.5c-4.142,0-7.5,3.358-7.5,7.5s3.358,7.5,7.5,7.5H64v25h-8.5
		c-4.142,0-7.5,3.358-7.5,7.5s3.358,7.5,7.5,7.5H64v25h-8.5c-4.142,0-7.5,3.358-7.5,7.5s3.358,7.5,7.5,7.5H64v24.5
		c0,12.958,10.542,23.5,23.5,23.5h352c12.958,0,23.5-10.542,23.5-23.5v-464C463,10.542,452.458,0,439.5,0z M448,487.5
		c0,4.687-3.813,8.5-8.5,8.5h-352c-4.687,0-8.5-3.813-8.5-8.5V463h8.5c4.142,0,7.5-3.358,7.5-7.5s-3.358-7.5-7.5-7.5H79v-25h8.5
		c4.142,0,7.5-3.358,7.5-7.5s-3.358-7.5-7.5-7.5H79v-25h8.5c4.142,0,7.5-3.358,7.5-7.5s-3.358-7.5-7.5-7.5H79v-25h8.5
		c4.142,0,7.5-3.358,7.5-7.5s-3.358-7.5-7.5-7.5H79v-25h8.5c4.142,0,7.5-3.358,7.5-7.5s-3.358-7.5-7.5-7.5H79v-25h8.5
		c4.142,0,7.5-3.358,7.5-7.5s-3.358-7.5-7.5-7.5H79v-25h8.5c4.142,0,7.5-3.358,7.5-7.5s-3.358-7.5-7.5-7.5H79v-25h8.5
		c4.142,0,7.5-3.358,7.5-7.5s-3.358-7.5-7.5-7.5H79v-25h8.5c4.142,0,7.5-3.358,7.5-7.5s-3.358-7.5-7.5-7.5H79v-25h8.5
		c4.142,0,7.5-3.358,7.5-7.5S91.642,88,87.5,88H79V63h8.5c4.142,0,7.5-3.358,7.5-7.5S91.642,48,87.5,48H79V23.5
		c0-4.687,3.813-8.5,8.5-8.5h352c4.687,0,8.5,3.813,8.5,8.5V487.5z"/>
	<path d="M367.5,328h-10.503l-43.263-137h5.766c4.142,0,7.5-3.358,7.5-7.5s-3.358-7.5-7.5-7.5h-15.984c-0.028,0-0.056,0-0.084,0
		h-31.864c-0.028,0-0.056,0-0.084,0H255.5c-4.142,0-7.5,3.358-7.5,7.5s3.358,7.5,7.5,7.5h5.766l-43.263,137H207.5
		c-4.142,0-7.5,3.358-7.5,7.5s3.358,7.5,7.5,7.5h15.976c0.008,0,0.017,0.002,0.026,0.002c0.008,0,0.016-0.002,0.024-0.002H239.5
		c4.142,0,7.5-3.358,7.5-7.5s-3.358-7.5-7.5-7.5h-5.766l5.375-17.02c0.131,0.006,0.26,0.02,0.392,0.02h96
		c0.132,0,0.261-0.013,0.392-0.02l5.375,17.02H335.5c-4.142,0-7.5,3.358-7.5,7.5s3.358,7.5,7.5,7.5h15.974
		c0.008,0,0.016,0.002,0.024,0.002c0.008,0,0.017-0.002,0.026-0.002H367.5c4.142,0,7.5-3.358,7.5-7.5S371.642,328,367.5,328z
		 M243.839,296l33.158-105h21.007l33.158,105H243.839z"/>
	<path d="M119.5,32c-4.142,0-7.5,3.358-7.5,7.5v432c0,4.142,3.358,7.5,7.5,7.5s7.5-3.358,7.5-7.5v-432
		C127,35.358,123.642,32,119.5,32z"/>
</g>
<g>
</g>
<g>
</g>
<g>
</g>
<g>
</g>
<g>
</g>
<g>
</g>
<g>
</g>
<g>
</g>
<g>
</g>
<g>
</g>
<g>
</g>
<g>
</g>
<g>
</g>
<g>
</g>
<g>
</g>
</svg>
