<?xml version="1.0" encoding="iso-8859-1"?>
<!-- Generator: Adobe Illustrator 19.0.0, SVG Export Plug-In . SVG Version: 6.00 Build 0)  -->
<svg version="1.1" id="Capa_1" xmlns="http://www.w3.org/2000/svg" xmlns:xlink="http://www.w3.org/1999/xlink" x="0px" y="0px"
	 viewBox="0 0 511 511" style="enable-background:new 0 0 511 511;" xml:space="preserve">
<path d="M315.492,63.858c1.046-16.736-4.701-32.684-16.183-44.906C287.827,6.731,272.269,0,255.5,0s-32.328,6.731-43.81,18.953
	c-11.481,12.222-17.229,28.169-16.182,44.917l19.068,297.643c0.43,6.711,2.981,12.959,7.161,17.981
	C208.533,389.649,200,405.593,200,423.5c0,43.541,48.663,84.086,50.734,85.791c0.072,0.06,0.154,0.1,0.228,0.156
	c0.211,0.161,0.428,0.311,0.655,0.449c0.134,0.082,0.268,0.16,0.406,0.232c0.224,0.118,0.456,0.219,0.692,0.314
	c0.141,0.057,0.279,0.118,0.423,0.166c0.26,0.086,0.527,0.149,0.797,0.207c0.123,0.026,0.243,0.064,0.367,0.084
	c0.393,0.064,0.793,0.101,1.199,0.101c0.005,0,0.011,0,0.016,0c0.406-0.001,0.806-0.039,1.199-0.104
	c0.118-0.019,0.233-0.056,0.35-0.081c0.278-0.059,0.552-0.125,0.819-0.214c0.142-0.048,0.279-0.109,0.419-0.166
	c0.24-0.097,0.474-0.201,0.701-0.321c0.137-0.073,0.27-0.151,0.404-0.233c0.23-0.141,0.45-0.295,0.664-0.46
	c0.074-0.058,0.157-0.099,0.23-0.159C262.371,507.537,311,466.518,311,423.5c0-17.907-8.533-33.851-21.737-44.006
	c4.18-5.022,6.731-11.27,7.161-17.98L315.492,63.858z M210.478,62.923c-0.785-12.56,3.528-24.528,12.144-33.7
	C231.239,20.051,242.915,15,255.5,15c12.584,0,24.261,5.051,32.877,14.223c8.616,9.172,12.929,21.14,12.145,33.688L288.15,256.033
	c-0.215-0.019-0.431-0.033-0.65-0.033h-64c-0.219,0-0.435,0.014-0.65,0.033L210.478,62.923z M223.809,271h63.383l-4.677,73h-54.029
	L223.809,271z M255.476,479.35C251.38,464.639,247,444.093,247,423.5c0-23.34,5.511-36.894,8.5-40.055
	c2.989,3.161,8.5,16.714,8.5,40.055C264,443.911,259.587,464.55,255.476,479.35z M215,423.5c0-15.635,8.912-29.22,21.918-35.967
	C233.583,397.673,232,410.613,232,423.5c0,19.092,3.363,37.787,7.058,52.582c-0.57-0.687-1.14-1.381-1.711-2.091
	C227.152,461.3,215,442.239,215,423.5z M296,423.5c0,18.832-12.288,38.182-24.065,52.406C275.632,461.065,279,442.377,279,423.5
	c0-13.461-1.765-26.223-4.97-35.994C287.064,394.244,296,407.844,296,423.5z M256.117,368.016c-0.208-0.01-0.414-0.016-0.617-0.016
	c-7.16,0-14.001,1.378-20.291,3.858c-3.318-2.861-5.381-6.893-5.663-11.303l-0.1-1.555h52.107l-0.1,1.555
	c-0.282,4.41-2.345,8.442-5.663,11.303C269.683,369.45,263.053,368.092,256.117,368.016z"/>
<g>
</g>
<g>
</g>
<g>
</g>
<g>
</g>
<g>
</g>
<g>
</g>
<g>
</g>
<g>
</g>
<g>
</g>
<g>
</g>
<g>
</g>
<g>
</g>
<g>
</g>
<g>
</g>
<g>
</g>
</svg>
