<?xml version="1.0" encoding="iso-8859-1"?>
<!-- Generator: Adobe Illustrator 19.0.0, SVG Export Plug-In . SVG Version: 6.00 Build 0)  -->
<svg version="1.1" id="Capa_1" xmlns="http://www.w3.org/2000/svg" xmlns:xlink="http://www.w3.org/1999/xlink" x="0px" y="0px"
	 viewBox="0 0 510.492 510.492" style="enable-background:new 0 0 510.492 510.492;" xml:space="preserve">
<g>
	<path d="M452.307,218.045c-15.771-17.972-31.757-31.413-45.861-43.272c-28.026-23.565-48.276-40.592-48.276-76.781
		c0-33.85-14.201-63.233-38.962-80.617c-29.892-20.986-72.691-23.031-120.515-5.758c-52.346,18.906-96.601,51.076-127.98,93.033
		C38.301,147.986,21.17,199.974,21.17,254.992c0,68.247,26.577,132.408,74.834,180.666c48.258,48.257,112.419,74.834,180.666,74.834
		c22.749,0,45.312-2.992,67.063-8.894c0.253-0.068,0.499-0.149,0.738-0.241c30.814-9.042,60.314-27.248,85.347-52.682
		c25.137-25.54,43.356-55.906,52.688-87.817C497.837,308.426,487.112,257.707,452.307,218.045z M468.108,356.648
		c-17.555,60.032-70.367,113.688-128.429,130.481c-0.161,0.046-0.32,0.098-0.476,0.154c-20.286,5.447-41.32,8.208-62.534,8.208
		c-64.24,0-124.635-25.016-170.059-70.441C61.186,379.627,36.17,319.232,36.17,254.992c0-51.754,16.099-100.635,46.556-141.358
		c29.619-39.603,71.482-70.001,121.063-87.908c19.845-7.168,38.593-10.739,55.566-10.739c19.883,0,37.328,4.902,51.234,14.665
		c20.705,14.537,32.581,39.445,32.581,68.34c0,43.174,24.85,64.068,53.623,88.262c13.696,11.516,29.219,24.568,44.24,41.685
		c16.379,18.665,26.85,39.771,31.12,62.733C476.086,311.823,474.725,334.02,468.108,356.648z"/>
	<path d="M388.67,279.492c-26.191,0-47.5,21.309-47.5,47.5s21.309,47.5,47.5,47.5s47.5-21.309,47.5-47.5
		S414.861,279.492,388.67,279.492z M388.67,359.492c-17.92,0-32.5-14.58-32.5-32.5s14.58-32.5,32.5-32.5s32.5,14.58,32.5,32.5
		S406.59,359.492,388.67,359.492z"/>
	<path d="M180.67,327.492c-26.191,0-47.5,21.309-47.5,47.5s21.309,47.5,47.5,47.5s47.5-21.309,47.5-47.5
		S206.861,327.492,180.67,327.492z M180.67,407.492c-17.92,0-32.5-14.58-32.5-32.5s14.58-32.5,32.5-32.5s32.5,14.58,32.5,32.5
		S198.59,407.492,180.67,407.492z"/>
	<path d="M172.17,262.992c0-26.191-21.309-47.5-47.5-47.5s-47.5,21.309-47.5,47.5s21.309,47.5,47.5,47.5
		S172.17,289.183,172.17,262.992z M124.67,295.492c-17.92,0-32.5-14.58-32.5-32.5s14.58-32.5,32.5-32.5s32.5,14.58,32.5,32.5
		S142.59,295.492,124.67,295.492z"/>
	<path d="M172.67,190.492c26.191,0,47.5-21.309,47.5-47.5s-21.309-47.5-47.5-47.5s-47.5,21.309-47.5,47.5
		S146.478,190.492,172.67,190.492z M172.67,110.492c17.92,0,32.5,14.58,32.5,32.5s-14.58,32.5-32.5,32.5s-32.5-14.58-32.5-32.5
		S154.749,110.492,172.67,110.492z"/>
	<path d="M300.67,367.492c-26.191,0-47.5,21.309-47.5,47.5s21.309,47.5,47.5,47.5s47.5-21.309,47.5-47.5
		S326.861,367.492,300.67,367.492z M300.67,447.492c-17.92,0-32.5-14.58-32.5-32.5s14.58-32.5,32.5-32.5s32.5,14.58,32.5,32.5
		S318.59,447.492,300.67,447.492z"/>
	<path d="M315.846,213.775c1.14,0.074,2.262,0.111,3.367,0.111c11.875,0,21.687-4.256,27.866-12.163
		c9.235-11.815,9.327-28.598,0.218-39.904c-9.097-11.291-15.406-24.776-18.752-40.084c-2.184-9.989-9.144-18.354-18.617-22.374
		c-9.28-3.94-19.442-3.213-27.879,1.991c-25.965,16.017-33.983,53.119-17.508,81.019
		C274.85,199.828,295.468,212.449,315.846,213.775z M271.865,141.357c2.266-11.778,8.68-21.452,18.06-27.238
		c2.418-1.492,5.133-2.246,7.898-2.246c2.087,0,4.204,0.43,6.245,1.296c5.004,2.124,8.676,6.524,9.823,11.771
		c3.848,17.599,11.157,33.173,21.726,46.291c4.781,5.936,4.632,14.875-0.356,21.257c-4.866,6.227-13.638,6.632-18.441,6.32
		c-15.402-1.002-31.588-10.897-39.362-24.063C271.699,164.99,269.66,152.821,271.865,141.357z"/>
	<path d="M388.67,303.492c-4.142,0-7.5,3.358-7.5,7.5s3.358,7.5,7.5,7.5c4.687,0,8.5,3.813,8.5,8.5c0,4.142,3.358,7.5,7.5,7.5
		s7.5-3.358,7.5-7.5C412.17,314.034,401.628,303.492,388.67,303.492z"/>
	<path d="M300.67,391.492c-4.142,0-7.5,3.358-7.5,7.5s3.358,7.5,7.5,7.5c4.687,0,8.5,3.813,8.5,8.5c0,4.142,3.358,7.5,7.5,7.5
		s7.5-3.358,7.5-7.5C324.17,402.034,313.628,391.492,300.67,391.492z"/>
	<path d="M180.67,351.492c-4.142,0-7.5,3.358-7.5,7.5s3.358,7.5,7.5,7.5c4.687,0,8.5,3.813,8.5,8.5c0,4.142,3.358,7.5,7.5,7.5
		s7.5-3.358,7.5-7.5C204.17,362.034,193.628,351.492,180.67,351.492z"/>
	<path d="M124.67,239.492c-4.142,0-7.5,3.358-7.5,7.5s3.358,7.5,7.5,7.5c4.687,0,8.5,3.813,8.5,8.5c0,4.142,3.358,7.5,7.5,7.5
		s7.5-3.358,7.5-7.5C148.17,250.034,137.628,239.492,124.67,239.492z"/>
	<path d="M172.67,134.492c4.687,0,8.5,3.813,8.5,8.5c0,4.142,3.358,7.5,7.5,7.5s7.5-3.358,7.5-7.5c0-12.958-10.542-23.5-23.5-23.5
		c-4.142,0-7.5,3.358-7.5,7.5S168.528,134.492,172.67,134.492z"/>
</g>
<g>
</g>
<g>
</g>
<g>
</g>
<g>
</g>
<g>
</g>
<g>
</g>
<g>
</g>
<g>
</g>
<g>
</g>
<g>
</g>
<g>
</g>
<g>
</g>
<g>
</g>
<g>
</g>
<g>
</g>
</svg>
