<?xml version="1.0" encoding="iso-8859-1"?>
<!-- Generator: Adobe Illustrator 19.0.0, SVG Export Plug-In . SVG Version: 6.00 Build 0)  -->
<svg version="1.1" id="Capa_1" xmlns="http://www.w3.org/2000/svg" xmlns:xlink="http://www.w3.org/1999/xlink" x="0px" y="0px"
	 viewBox="0 0 511 511" style="enable-background:new 0 0 511 511;" xml:space="preserve">
<path d="M303.5,72H295V55.5c0-8.547-6.953-15.5-15.5-15.5H279V23.5C279,10.542,268.458,0,255.5,0h-32C210.542,0,200,10.542,200,23.5
	V40h-0.5c-8.547,0-15.5,6.953-15.5,15.5v216c0,4.098,1.61,7.819,4.216,10.593c-2.654,3.805-4.216,8.426-4.216,13.407
	c0,6.177,2.399,11.801,6.31,16c-3.911,4.199-6.31,9.823-6.31,16s2.399,11.801,6.31,16c-3.911,4.199-6.31,9.823-6.31,16
	c0,4.978,1.56,9.596,4.211,13.4c-2.603,2.775-4.211,6.499-4.211,10.6c0,46.18,38.855,95.727,48,106.747V503.5
	c0,4.142,3.358,7.5,7.5,7.5s7.5-3.358,7.5-7.5v-13.253c9.145-11.021,48-60.567,48-106.747c0-4.101-1.608-7.825-4.211-10.6
	c2.651-3.804,4.211-8.422,4.211-13.4c0-6.177-2.399-11.801-6.31-16c3.911-4.199,6.31-9.823,6.31-16s-2.399-11.801-6.31-16
	c3.911-4.199,6.31-9.823,6.31-16c0-4.981-1.562-9.602-4.216-13.407c2.606-2.774,4.216-6.495,4.216-10.593V87h8.5
	c4.687,0,8.5,3.813,8.5,8.5v144c0,4.142,3.358,7.5,7.5,7.5s7.5-3.358,7.5-7.5v-144C327,82.542,316.458,72,303.5,72z M215,23.5
	c0-4.687,3.813-8.5,8.5-8.5h32c4.687,0,8.5,3.813,8.5,8.5V40h-49V23.5z M199.5,55h80c0.276,0,0.5,0.224,0.5,0.5V72h-81V55.5
	C199,55.224,199.224,55,199.5,55z M271.5,287c4.687,0,8.5,3.813,8.5,8.5s-3.813,8.5-8.5,8.5h-64c-4.687,0-8.5-3.813-8.5-8.5
	s3.813-8.5,8.5-8.5H271.5z M207.491,368c-4.683-0.005-8.491-3.815-8.491-8.5c0-4.687,3.813-8.5,8.5-8.5h64
	c4.687,0,8.5,3.813,8.5,8.5c0,4.687-3.813,8.5-8.499,8.5L207.491,368z M271.5,319c4.687,0,8.5,3.813,8.5,8.5s-3.813,8.5-8.5,8.5h-64
	c-4.687,0-8.5-3.813-8.5-8.5s3.813-8.5,8.5-8.5H271.5z M239.496,475.574C227.171,459.659,199,419.353,199,383.5
	c0-0.285,0.197-0.5,0.459-0.5h8.024c0.006,0,0.011,0,0.017,0c0.003,0,0.006,0,0.009,0l63.99,0h0.001c0.001,0,0.001,0,0.002,0h8.039
	c0.262,0,0.459,0.215,0.459,0.5C280,419.291,251.815,459.646,239.496,475.574z M280,271.5c0,0.276-0.224,0.5-0.5,0.5h-80
	c-0.276,0-0.5-0.224-0.5-0.5V87h81V271.5z"/>
<g>
</g>
<g>
</g>
<g>
</g>
<g>
</g>
<g>
</g>
<g>
</g>
<g>
</g>
<g>
</g>
<g>
</g>
<g>
</g>
<g>
</g>
<g>
</g>
<g>
</g>
<g>
</g>
<g>
</g>
</svg>
