<?xml version="1.0" encoding="iso-8859-1"?>
<!-- Generator: Adobe Illustrator 19.0.0, SVG Export Plug-In . SVG Version: 6.00 Build 0)  -->
<svg version="1.1" id="Capa_1" xmlns="http://www.w3.org/2000/svg" xmlns:xlink="http://www.w3.org/1999/xlink" x="0px" y="0px"
	 viewBox="0 0 511 511" style="enable-background:new 0 0 511 511;" xml:space="preserve">
<path d="M310.75,385.39c0.038-0.146,0.078-0.291,0.107-0.44c0.022-0.114,0.036-0.229,0.053-0.344
	c0.018-0.124,0.041-0.245,0.053-0.371c0.024-0.244,0.037-0.489,0.037-0.734v-368C311,6.953,304.047,0,295.5,0h-80
	C206.953,0,200,6.953,200,15.5v368c0,0.246,0.013,0.491,0.037,0.734c0.012,0.125,0.035,0.247,0.053,0.371
	c0.017,0.115,0.03,0.23,0.053,0.344c0.029,0.149,0.069,0.294,0.107,0.44c0.022,0.086,0.041,0.173,0.066,0.258
	c0.045,0.152,0.1,0.299,0.154,0.446c0.023,0.064,0.041,0.129,0.066,0.192l0.046,0.114c0.004,0.009,0.007,0.019,0.011,0.028
	l47.943,119.858c1.139,2.847,3.896,4.714,6.963,4.714s5.825-1.867,6.963-4.714l47.943-119.858c0.004-0.009,0.007-0.019,0.011-0.028
	l0.046-0.114c0.025-0.063,0.043-0.128,0.066-0.192c0.055-0.147,0.109-0.295,0.154-0.446
	C310.709,385.562,310.728,385.476,310.75,385.39z M296,15.5v346.097c-2.638-1.027-5.503-1.597-8.5-1.597s-5.862,0.57-8.5,1.597V15
	h16.5C295.776,15,296,15.224,296,15.5z M279.222,424h-47.445l-16.682-41.705c0.589-4.117,4.128-7.295,8.404-7.295
	c4.687,0,8.5,3.813,8.5,8.5c0,4.142,3.358,7.5,7.5,7.5s7.5-3.358,7.5-7.5c0-4.687,3.813-8.5,8.5-8.5s8.5,3.813,8.5,8.5
	c0,4.142,3.358,7.5,7.5,7.5s7.5-3.358,7.5-7.5c0-4.687,3.813-8.5,8.5-8.5c4.277,0,7.816,3.178,8.404,7.295L279.222,424z
	 M247,361.597V15h17v346.597c-2.638-1.027-5.503-1.597-8.5-1.597S249.638,360.57,247,361.597z M215.5,15H232v346.597
	c-2.638-1.027-5.503-1.597-8.5-1.597s-5.862,0.57-8.5,1.597V15.5C215,15.224,215.224,15,215.5,15z M255.5,483.306L237.778,439
	h35.445L255.5,483.306z"/>
<g>
</g>
<g>
</g>
<g>
</g>
<g>
</g>
<g>
</g>
<g>
</g>
<g>
</g>
<g>
</g>
<g>
</g>
<g>
</g>
<g>
</g>
<g>
</g>
<g>
</g>
<g>
</g>
<g>
</g>
</svg>
