<?xml version="1.0" encoding="iso-8859-1"?>
<!-- Generator: Adobe Illustrator 19.0.0, SVG Export Plug-In . SVG Version: 6.00 Build 0)  -->
<svg version="1.1" id="Capa_1" xmlns="http://www.w3.org/2000/svg" xmlns:xlink="http://www.w3.org/1999/xlink" x="0px" y="0px"
	 viewBox="0 0 511 511" style="enable-background:new 0 0 511 511;" xml:space="preserve">
<g>
	<path d="M143.5,308c-8.547,0-15.5,6.953-15.5,15.5s6.953,15.5,15.5,15.5s15.5-6.953,15.5-15.5S152.047,308,143.5,308z M143.5,324
		c-0.276,0-0.5-0.224-0.5-0.5s0.224-0.5,0.5-0.5s0.5,0.224,0.5,0.5S143.776,324,143.5,324z"/>
	<path d="M439.5,308c-8.547,0-15.5,6.953-15.5,15.5s6.953,15.5,15.5,15.5s15.5-6.953,15.5-15.5S448.047,308,439.5,308z M439.5,324
		c-0.276,0-0.5-0.224-0.5-0.5s0.224-0.5,0.5-0.5s0.5,0.224,0.5,0.5S439.776,324,439.5,324z"/>
	<path d="M503.5,292H503v-48.5c0-12.958-10.542-23.5-23.5-23.5h-65.592L407,176.275V155.5c0-8.547-6.953-15.5-15.5-15.5h-360
		C14.131,140,0,154.131,0,171.5v136C0,320.458,10.542,331,23.5,331h73.098c3.607,22.64,23.263,40,46.902,40s43.295-17.36,46.902-40
		h202.195c3.607,22.64,23.263,40,46.902,40s43.295-17.36,46.902-40h9.098c8.547,0,15.5-6.953,15.5-15.5v-16
		C511,295.358,507.642,292,503.5,292z M488,243.5V268h-8.5c-4.142,0-7.5,3.358-7.5,7.5s3.358,7.5,7.5,7.5h8.5v9h-12.989
		c-8.708-9.805-21.396-16-35.511-16c-8.957,0-17.342,2.495-24.5,6.822V235h64.5C484.187,235,488,238.813,488,243.5z M239,220v-33h41
		v33H239z M183,220v-33h41v33H183z M127,220v-33h41v33H127z M71,220v-33h41v33H71z M15,220v-33h41v33H15z M295,187h41v33h-41V187z
		 M351,187h17v128.5c0,0.169,0.014,0.334,0.025,0.5H351V187z M383,315.5V187h10.508L400,228.089v69.064
		c-3.726,5.568-6.305,11.963-7.402,18.847h-9.623C382.986,315.834,383,315.669,383,315.5z M31.5,155h360c0.276,0,0.5,0.224,0.5,0.5
		V172H15v-0.5C15,162.402,22.402,155,31.5,155z M15,307.5V235h321v81H190.402c-3.607-22.64-23.263-40-46.902-40
		s-43.295,17.36-46.902,40H23.5C18.813,316,15,312.187,15,307.5z M143.5,356c-17.92,0-32.5-14.58-32.5-32.5s14.58-32.5,32.5-32.5
		s32.5,14.58,32.5,32.5S161.42,356,143.5,356z M439.5,356c-17.92,0-32.5-14.58-32.5-32.5s14.58-32.5,32.5-32.5s32.5,14.58,32.5,32.5
		S457.42,356,439.5,356z M496,315.5c0,0.276-0.224,0.5-0.5,0.5h-9.098c-0.496-3.11-1.292-6.121-2.362-9H496V315.5z"/>
	<path d="M311.5,267c4.142,0,7.5-3.358,7.5-7.5s-3.358-7.5-7.5-7.5h-272c-4.142,0-7.5,3.358-7.5,7.5s3.358,7.5,7.5,7.5H311.5z"/>
</g>
<g>
</g>
<g>
</g>
<g>
</g>
<g>
</g>
<g>
</g>
<g>
</g>
<g>
</g>
<g>
</g>
<g>
</g>
<g>
</g>
<g>
</g>
<g>
</g>
<g>
</g>
<g>
</g>
<g>
</g>
</svg>
