<?xml version="1.0" encoding="iso-8859-1"?>
<!-- Generator: Adobe Illustrator 19.0.0, SVG Export Plug-In . SVG Version: 6.00 Build 0)  -->
<svg version="1.1" id="Capa_1" xmlns="http://www.w3.org/2000/svg" xmlns:xlink="http://www.w3.org/1999/xlink" x="0px" y="0px"
	 viewBox="0 0 511.01 511.01" style="enable-background:new 0 0 511.01 511.01;" xml:space="preserve">
<g>
	<path d="M134.254,47.438c-6.416-8.361-15.715-13.724-26.185-15.102C97.6,30.958,87.23,33.733,78.871,40.147
		c-8.36,6.415-13.724,15.713-15.102,26.182C62.39,76.8,65.164,87.17,71.564,95.511l61.871,81.202
		c7.768,10.123,19.512,15.438,31.383,15.438c8.391,0,16.845-2.656,24.001-8.147c8.36-6.415,13.723-15.713,15.102-26.182
		c1.379-10.47-1.395-20.841-7.795-29.181L134.254,47.438z M189.048,155.863c-0.855,6.497-4.18,12.265-9.361,16.24
		c-10.719,8.224-26.128,6.195-34.336-4.502L83.48,86.4c-3.976-5.182-5.695-11.614-4.839-18.112c0.855-6.497,4.18-12.265,9.362-16.24
		c4.312-3.309,9.489-5.054,14.849-5.054c1.082,0,2.17,0.071,3.261,0.215c6.498,0.855,12.266,4.18,16.226,9.341l61.87,81.202
		C188.185,142.933,189.903,149.366,189.048,155.863z"/>
	<path d="M377.594,176.692l61.851-81.176c6.407-8.358,9.177-18.723,7.799-29.187c-1.378-10.469-6.742-19.768-15.102-26.182
		s-18.729-9.186-29.199-7.811c-10.47,1.378-19.77,6.742-26.201,15.123l-61.839,81.161c-6.416,8.361-9.189,18.731-7.811,29.202
		c1.378,10.469,6.742,19.768,15.102,26.182c7.155,5.49,15.605,8.146,23.996,8.146C358.064,192.149,369.816,186.829,377.594,176.692z
		 M331.326,172.103c-5.181-3.976-8.506-9.743-9.361-16.24c-0.855-6.498,0.863-12.93,4.855-18.132l61.839-81.161
		c3.976-5.182,9.744-8.507,16.242-9.362c1.091-0.144,2.179-0.214,3.26-0.214c5.361,0,10.538,1.745,14.85,5.054
		c5.181,3.976,8.506,9.743,9.361,16.24c0.856,6.498-0.863,12.93-4.839,18.112c-0.005,0.006-0.01,0.013-0.016,0.02l-61.839,81.161
		C357.455,178.299,342.045,180.327,331.326,172.103z"/>
	<path d="M346.282,224.111c21.716-0.001,42.858-9.9,56.7-27.939l60.463-79.368c23.6-30.756,20.065-74.216-8.047-98.941
		C440.345,4.623,421.085-1.6,401.163,0.351c-19.655,1.921-37.804,11.983-49.807,27.626l-61.839,81.161
		c-18.614,24.258-19.581,57.486-2.983,82.732l-30.832,40.139c-0.065,0-0.129-0.001-0.195-0.001c-0.064,0-0.127,0.005-0.192,0.005
		l-30.835-40.143c16.598-25.246,15.632-58.473-2.967-82.712l-61.871-81.202C147.654,12.335,129.505,2.273,109.85,0.351
		C89.928-1.595,70.668,4.623,55.615,17.864c-28.112,24.725-31.646,68.185-8.063,98.92l60.495,79.409
		c18.615,24.259,50.461,33.792,79.146,24.292l30.4,39.585c0.026,0.033,0.056,0.062,0.082,0.094
		c-1.081,3.596-1.668,7.402-1.668,11.345c0,3.468,0.476,6.928,1.419,10.331L106.686,426.01
		c-8.622,11.236-13.676,24.644-14.617,38.775l-2.546,38.227c-0.22,3.297,1.745,6.35,4.836,7.516
		c0.864,0.326,1.759,0.483,2.645,0.483c2.283,0,4.5-1.044,5.95-2.932L254.322,310.98c0.385,0.019,0.78,0.03,1.184,0.03
		c0.397,0,0.79-0.018,1.184-0.03l151.368,197.098c1.45,1.888,3.667,2.932,5.95,2.932c0.885,0,1.781-0.157,2.645-0.483
		c3.092-1.166,5.056-4.218,4.836-7.516l-2.546-38.226c-0.941-14.131-5.995-27.539-14.619-38.779L293.616,281.878
		c0.901-3.307,1.391-6.781,1.391-10.369c0-3.866-0.56-7.662-1.667-11.335l30.48-39.689
		C331.191,222.926,338.771,224.111,346.282,224.111z M195.705,206.942c-2.081-2.71-5.731-3.671-8.877-2.336
		c-23.727,10.066-51.229,2.852-66.864-17.523l-60.495-79.409c-18.811-24.515-16.152-59.016,6.053-78.545
		c11.902-10.468,27.125-15.388,42.87-13.847c15.539,1.519,29.881,9.468,39.335,21.789l61.871,81.202
		c15.65,20.396,15.501,48.828-0.364,69.142c-2.104,2.695-2.12,6.473-0.037,9.185l29.94,38.978
		c-5.243,2.398-9.871,5.908-13.585,10.23L195.705,206.942z M392.427,435.141c6.813,8.879,10.807,19.475,11.55,30.642l0.901,13.528
		L272.627,307.103c5.188-2.505,9.747-6.112,13.374-10.515L392.427,435.141z M315.308,206.941l-36.367,47.354
		c-1.656,2.156-2.015,5.04-0.939,7.537c1.331,3.087,2.005,6.343,2.005,9.677c0,13.509-10.991,24.5-24.5,24.5
		c-0.857,0-1.855-0.146-3.012-0.313l-0.474-0.069c-2.682-0.387-5.364,0.707-7.014,2.855L106.135,479.31l0.901-13.529
		c0.744-11.166,4.737-21.762,11.548-30.637L231.747,287.82c1.607-2.092,1.997-4.875,1.026-7.329
		c-1.172-2.962-1.767-5.984-1.767-8.981c0-13.509,10.991-24.5,24.5-24.5c0.376,0,0.96,0.08,1.578,0.164
		c0.395,0.054,0.789,0.107,1.186,0.152c2.618,0.302,5.194-0.796,6.796-2.883l36.75-47.844c2.083-2.712,2.068-6.49-0.037-9.185
		c-15.865-20.314-16.014-48.746-0.348-69.163l61.839-81.161c9.47-12.341,23.812-20.29,39.351-21.809
		c15.742-1.539,30.968,3.378,42.87,13.847c22.205,19.53,24.863,54.031,6.037,78.566l-60.463,79.368
		c-15.65,20.396-43.154,27.61-66.88,17.544C321.04,203.272,317.39,204.231,315.308,206.941z"/>
	<path d="M255.526,264.01h-0.01c-4.142,0-7.495,3.358-7.495,7.5s3.363,7.5,7.505,7.5s7.5-3.358,7.5-7.5
		S259.669,264.01,255.526,264.01z"/>
</g>
<g>
</g>
<g>
</g>
<g>
</g>
<g>
</g>
<g>
</g>
<g>
</g>
<g>
</g>
<g>
</g>
<g>
</g>
<g>
</g>
<g>
</g>
<g>
</g>
<g>
</g>
<g>
</g>
<g>
</g>
</svg>
