<?xml version="1.0" encoding="iso-8859-1"?>
<!-- Generator: Adobe Illustrator 19.0.0, SVG Export Plug-In . SVG Version: 6.00 Build 0)  -->
<svg version="1.1" id="Capa_1" xmlns="http://www.w3.org/2000/svg" xmlns:xlink="http://www.w3.org/1999/xlink" x="0px" y="0px"
	 viewBox="0 0 508.241 508.241" style="enable-background:new 0 0 508.241 508.241;" xml:space="preserve">
<g>
	<path d="M501.232,397.754L24.004,84.573c-4.768-3.13-10.848-3.389-15.867-0.681C3.118,86.602,0,91.828,0,97.531v313.181
		c0,8.547,6.953,15.5,15.5,15.5h477.229c6.906,0,12.874-4.446,14.851-11.063C509.557,408.534,507.006,401.543,501.232,397.754z
		 M493.208,410.855c-0.106,0.357-0.231,0.357-0.479,0.357H431v-24.5c0-4.142-3.358-7.5-7.5-7.5s-7.5,3.358-7.5,7.5v24.5h-17v-8.5
		c0-4.142-3.358-7.5-7.5-7.5s-7.5,3.358-7.5,7.5v8.5h-17v-24.5c0-4.142-3.358-7.5-7.5-7.5s-7.5,3.358-7.5,7.5v24.5h-17v-8.5
		c0-4.142-3.358-7.5-7.5-7.5s-7.5,3.358-7.5,7.5v8.5h-17v-24.5c0-4.142-3.358-7.5-7.5-7.5s-7.5,3.358-7.5,7.5v24.5h-17v-8.5
		c0-4.142-3.358-7.5-7.5-7.5s-7.5,3.358-7.5,7.5v8.5h-17v-24.5c0-4.142-3.358-7.5-7.5-7.5s-7.5,3.358-7.5,7.5v24.5h-17v-8.5
		c0-4.142-3.358-7.5-7.5-7.5s-7.5,3.358-7.5,7.5v8.5h-17v-24.5c0-4.142-3.358-7.5-7.5-7.5s-7.5,3.358-7.5,7.5v24.5h-17v-8.5
		c0-4.142-3.358-7.5-7.5-7.5s-7.5,3.358-7.5,7.5v8.5h-17v-24.5c0-4.142-3.358-7.5-7.5-7.5s-7.5,3.358-7.5,7.5v24.5H79v-8.5
		c0-4.142-3.358-7.5-7.5-7.5s-7.5,3.358-7.5,7.5v8.5H47v-24.5c0-4.142-3.358-7.5-7.5-7.5s-7.5,3.358-7.5,7.5v24.5H15.5
		c-0.276,0-0.5-0.224-0.5-0.5V97.531c0-0.126,0-0.298,0.262-0.439c0.1-0.054,0.183-0.074,0.252-0.074
		c0.114,0,0.194,0.053,0.26,0.096l477.229,313.181C493.21,410.431,493.314,410.499,493.208,410.855z"/>
	<path d="M309.442,348.442L75.615,194.993c-2.304-1.512-5.252-1.639-7.678-0.329c-2.425,1.309-3.937,3.843-3.937,6.6v153.449
		c0,4.142,3.358,7.5,7.5,7.5h233.828c3.315,0,6.237-2.176,7.186-5.353S312.214,350.261,309.442,348.442z M79,347.212V215.156
		l201.229,132.057H79z"/>
</g>
<g>
</g>
<g>
</g>
<g>
</g>
<g>
</g>
<g>
</g>
<g>
</g>
<g>
</g>
<g>
</g>
<g>
</g>
<g>
</g>
<g>
</g>
<g>
</g>
<g>
</g>
<g>
</g>
<g>
</g>
</svg>
