<?xml version="1.0" encoding="iso-8859-1"?>
<!-- Generator: Adobe Illustrator 19.0.0, SVG Export Plug-In . SVG Version: 6.00 Build 0)  -->
<svg version="1.1" id="Capa_1" xmlns="http://www.w3.org/2000/svg" xmlns:xlink="http://www.w3.org/1999/xlink" x="0px" y="0px"
	 viewBox="0 0 511 511" style="enable-background:new 0 0 511 511;" xml:space="preserve">
<path d="M338.35,368.196c-1.059-1.848-2.854-3.158-4.936-3.604c-2.08-0.447-4.256,0.015-5.979,1.266
	c-1.592,1.157-3.089,1.8-4.578,1.966c-5.116,0.575-9.382-3.493-11.464-5.967c-4.255-5.059-7.208-12.539-8.1-20.523
	c-1.475-13.192,3.415-28.599,12.777-30.096c0.194-0.002,0.404-0.011,0.628-0.031c2.771-0.247,5.178-2.007,6.253-4.572l0.256-0.615
	c0.614-1.473,1.195-2.865,1.864-4.07c6.497-11.696,9.931-24.992,9.931-38.45c0-18.133-6.267-35.871-17.646-49.947
	c-10.816-13.379-25.816-22.952-42.394-27.133l-3.908-113.33c3.041-2.693,5.379-6.16,6.706-10.09h9.734c4.142,0,7.5-3.358,7.5-7.5
	s-3.358-7.5-7.5-7.5h-8.5V31h8.5c4.142,0,7.5-3.358,7.5-7.5s-3.358-7.5-7.5-7.5h-9.734c-3.138-9.29-11.93-16-22.266-16
	s-19.128,6.71-22.266,16h-9.734c-4.142,0-7.5,3.358-7.5,7.5s3.358,7.5,7.5,7.5h8.5v17h-8.5c-4.142,0-7.5,3.358-7.5,7.5
	s3.358,7.5,7.5,7.5h9.734c1.328,3.93,3.665,7.397,6.706,10.09l-3.908,113.331c-16.576,4.182-31.575,13.756-42.39,27.135
	c-11.377,14.075-17.643,31.813-17.643,49.944c0,13.458,3.434,26.753,9.931,38.449c0.669,1.206,1.25,2.597,1.864,4.07l0.256,0.615
	c1.075,2.565,3.482,4.326,6.253,4.572c0.222,0.02,0.431,0.029,0.623,0.031c9.371,1.509,14.256,16.909,12.782,30.096
	c-0.893,7.984-3.845,15.464-8.1,20.523c-2.082,2.475-6.343,6.541-11.464,5.967c-1.488-0.166-2.985-0.809-4.577-1.966
	c-1.723-1.252-3.898-1.713-5.979-1.266c-2.083,0.446-3.877,1.756-4.936,3.604c-10.112,17.643-14.285,37.705-12.066,58.018
	c4.795,43.912,40.134,79.315,84.029,84.181c3.616,0.401,7.274,0.604,10.872,0.604c0.009,0,0.02,0,0.029,0
	c3.6,0,7.259-0.203,10.875-0.604c43.895-4.867,79.234-40.27,84.029-84.182C352.635,405.9,348.462,385.838,338.35,368.196z
	 M255.497,15c4.687,0,8.5,3.813,8.5,8.5v32c0,4.687-3.813,8.5-8.5,8.5s-8.5-3.813-8.5-8.5v-32C246.997,18.813,250.81,15,255.497,15z
	 M256.251,79l7.482,217H247.26l7.482-217H256.251z M175.494,424.586c-1.614-14.784,0.781-29.407,6.941-42.691
	c1.329,0.404,2.677,0.684,4.04,0.836c8.819,0.987,17.783-3.104,24.61-11.219c6.203-7.375,10.297-17.5,11.528-28.512
	c2.491-22.278-7.129-41.419-22.34-45.898c-0.372-0.8-0.778-1.617-1.232-2.436c-5.263-9.473-8.044-20.25-8.044-31.166
	c0-14.924,4.948-28.934,14.309-40.514c7.854-9.717,18.419-16.962,30.181-20.811l-3.485,101.067c-0.07,2.033,0.688,4.007,2.102,5.469
	c1.414,1.463,3.36,2.289,5.394,2.289h8.5v41h-8.5c-4.142,0-7.5,3.358-7.5,7.5s3.358,7.5,7.5,7.5h8.5v41h-8.5
	c-2.224,0-4.333,0.987-5.758,2.694c-1.425,1.708-2.019,3.959-1.621,6.147l14.305,78.66c-0.052-0.006-0.105-0.009-0.157-0.015
	C209.296,491.388,179.533,461.57,175.494,424.586z M262.51,423l-7.012,38.573L248.483,423H262.51z M335.505,424.586
	c-4.039,36.984-33.802,66.802-70.771,70.901c-0.053,0.006-0.106,0.01-0.158,0.015l14.299-78.661
	c0.398-2.188-0.196-4.439-1.621-6.147c-1.425-1.708-3.534-2.694-5.758-2.694h-8.5v-41h8.5c4.142,0,7.5-3.358,7.5-7.5
	s-3.358-7.5-7.5-7.5h-8.5v-41h8.5c2.034,0,3.98-0.826,5.394-2.289c1.413-1.462,2.171-3.437,2.102-5.469l-3.485-101.068
	c11.763,3.848,22.33,11.093,30.185,20.81c9.362,11.581,14.311,25.591,14.311,40.517c0,10.916-2.781,21.692-8.044,31.166
	c-0.457,0.823-0.866,1.646-1.239,2.45c-7.104,2.132-13.298,7.612-17.387,15.53c-4.421,8.562-6.178,19.342-4.947,30.354
	c1.231,11.012,5.325,21.137,11.528,28.512c6.826,8.115,15.792,12.205,24.609,11.219c1.363-0.152,2.711-0.432,4.041-0.836
	C334.725,395.18,337.12,409.8,335.505,424.586z"/>
<g>
</g>
<g>
</g>
<g>
</g>
<g>
</g>
<g>
</g>
<g>
</g>
<g>
</g>
<g>
</g>
<g>
</g>
<g>
</g>
<g>
</g>
<g>
</g>
<g>
</g>
<g>
</g>
<g>
</g>
</svg>
