<?xml version="1.0" encoding="iso-8859-1"?>
<!-- Generator: Adobe Illustrator 19.0.0, SVG Export Plug-In . SVG Version: 6.00 Build 0)  -->
<svg version="1.1" id="Capa_1" xmlns="http://www.w3.org/2000/svg" xmlns:xlink="http://www.w3.org/1999/xlink" x="0px" y="0px"
	 viewBox="0 0 511 511" style="enable-background:new 0 0 511 511;" xml:space="preserve">
<g>
	<path d="M503.5,104H292.085c-4.142,0-7.5,3.358-7.5,7.5v8c0,4.687-3.813,8.5-8.5,8.5c-4.687,0-8.5-3.813-8.5-8.5v-8
		c0-4.142-3.358-7.5-7.5-7.5h-76.298C109.5,104,46.901,155.612,31.967,224.016C31.811,224.014,31.656,224,31.5,224
		C14.131,224,0,238.131,0,255.5S14.131,287,31.5,287c0.115,0,0.23-0.01,0.345-0.012c5.976,28.446,20.047,54.571,41.113,75.637
		c28.647,28.647,66.637,44.376,107.114,44.375c0.437,0,0.879-0.002,1.317-0.006c82.818-0.697,150.196-70.318,150.196-155.196V235.15
		c0-16.513,12.371-30.393,28.775-32.286c0.065-0.008,0.131-0.016,0.196-0.025l122.66-17.449C499.063,183.508,511,170.08,511,154.11
		V111.5C511,107.358,507.642,104,503.5,104z M15,255.5c0-8.416,6.337-15.367,14.488-16.365c-0.549,4.953-0.855,9.976-0.898,15.058
		c-0.05,5.949,0.25,11.844,0.87,17.667C21.323,270.85,15,263.906,15,255.5z M496,154.11c0,8.383-6.28,15.43-14.609,16.391
		c-0.065,0.008-0.131,0.016-0.196,0.025l-122.657,17.449c-23.925,2.812-41.953,23.074-41.953,47.175v16.648
		c0,76.676-60.706,139.568-135.322,140.197c-0.396,0.003-0.791,0.005-1.187,0.005c-36.468,0-70.703-14.171-96.512-39.981
		c-20.485-20.486-33.634-46.279-38.188-74.284c-0.021-0.179-0.047-0.357-0.082-0.536c-1.188-7.49-1.769-15.135-1.704-22.879
		c0.057-6.735,0.628-13.354,1.664-19.828c0.004-0.015,0.01-0.028,0.015-0.043c0.156-0.55,0.24-1.103,0.269-1.651
		C56.707,168.375,114.637,119,183.787,119h68.798v0.5c0,12.958,10.542,23.5,23.5,23.5s23.5-10.542,23.5-23.5V119H496V154.11z"/>
	<path d="M180.085,144c-61.481,0-111.5,50.019-111.5,111.5S118.604,367,180.085,367s111.5-50.019,111.5-111.5
		S241.566,144,180.085,144z M180.085,352c-53.21,0-96.5-43.29-96.5-96.5s43.29-96.5,96.5-96.5s96.5,43.29,96.5,96.5
		S233.295,352,180.085,352z"/>
	<path d="M180.085,176c-43.836,0-79.5,35.664-79.5,79.5s35.664,79.5,79.5,79.5s79.5-35.664,79.5-79.5S223.921,176,180.085,176z
		 M180.085,320c-35.565,0-64.5-28.935-64.5-64.5s28.935-64.5,64.5-64.5s64.5,28.935,64.5,64.5S215.65,320,180.085,320z"/>
</g>
<g>
</g>
<g>
</g>
<g>
</g>
<g>
</g>
<g>
</g>
<g>
</g>
<g>
</g>
<g>
</g>
<g>
</g>
<g>
</g>
<g>
</g>
<g>
</g>
<g>
</g>
<g>
</g>
<g>
</g>
</svg>
