<?xml version="1.0" encoding="utf-8"?>
<!-- Generator: Adobe Illustrator 16.0.0, SVG Export Plug-In . SVG Version: 6.00 Build 0)  -->
<!DOCTYPE svg PUBLIC "-//W3C//DTD SVG 1.1//EN" "http://www.w3.org/Graphics/SVG/1.1/DTD/svg11.dtd">
<svg version="1.1" id="Layer_1" xmlns="http://www.w3.org/2000/svg" xmlns:xlink="http://www.w3.org/1999/xlink" x="0px" y="0px"
	 width="64px" height="64px" viewBox="0 0 64 64" enable-background="new 0 0 64 64" xml:space="preserve">
<g id="Collared_T-shirt">
	<path fill="#BAD6EE" d="M35.661,10.963c0.315-0.811,0.392-1.614,0.04-2.259c-6.462-0.902-10.197,0.728-10.197,0.728
		s0.186,0.835,0.768,1.905C26.272,11.337,29.85,10.123,35.661,10.963z"/>
	<path fill="none" stroke="#5E8BC7" stroke-linecap="round" stroke-linejoin="round" stroke-miterlimit="10" d="M30.073,16.17
		c0,0,0.335-1.911,2.019-2.517c-0.691,3.721,0,14.157,0,14.157c-0.852,0.923-2.057,0.801-2.057,0.801V16.54L30.073,16.17z"/>
	<g>
		<path fill="#BAD6EE" d="M32.091,16.96c-1.684,0.606-2.019,2.517-2.019,2.517l-0.038,0.37v9.426
			c0.036,0.002,0.082,0.004,0.145,0.004c0.348,0,1.12-0.069,1.848-0.556C31.874,25.964,31.536,19.953,32.091,16.96z"/>
		<path fill="#BAD6EE" d="M35.701,8.705c-6.462-0.902-10.197,0.728-10.197,0.728l4.808,5.089l2.303-1.195L35.701,8.705z"/>
		<path fill="#BAD6EE" d="M35.833,17.384c0.03,0.005,0.063,0.008,0.094,0.008c0.146,0,0.284-0.057,0.39-0.162
			c0.445-0.445,0.789-0.982,1.061-1.557c0.495-1.931,0.371-3.857,0.371-3.857l-0.172-2.217c0.006,0.13,0.001,0.264-0.018,0.4
			c-0.352,1.207-1.238,3.627-3.106,5.011c0.104,0.1-0.347-0.347-0.257-0.239c0.089,0.485,0.205,0.877,0.334,1.199
			c0.115,0.128,0.185,0.22,0.185,0.22c0.019,0.097,0.035,0.185,0.054,0.275C35.204,17.222,35.697,17.361,35.833,17.384z"/>
		<path fill="#BAD6EE" d="M25.278,16.162c-0.028,0.003-0.057,0.004-0.085,0.002c-0.131-0.008-0.255-0.066-0.344-0.168
			c-0.38-0.426-0.663-0.932-0.878-1.468c-0.344-1.776-0.129-3.515-0.129-3.515l0.276-2c-0.013,0.118-0.016,0.24-0.007,0.364
			c0.254,1.112,0.928,3.353,2.546,4.708c-0.1,0.084,0.332-0.296,0.245-0.204c-0.106,0.436-0.232,0.784-0.367,1.068
			c-0.111,0.111-0.18,0.189-0.18,0.189c-0.02,0.088-0.041,0.167-0.062,0.247C25.856,16.048,25.402,16.148,25.278,16.162z"/>
	</g>
	<g>
		<path fill="none" stroke="#5E8BC7" stroke-linecap="round" stroke-linejoin="round" stroke-miterlimit="10" d="M35.701,7.382
			C29.239,6.48,25.504,8.109,25.504,8.109l-2.111,1.968l-5.945,2.822c0,0-1.572,0.576-3.936,3.673l-5.671,8.557l7.351,6.193
			l2.521-2.676c0,0,0.418,8.504,0.418,27.297c0,0,6.578,0.791,12.791,0.686h0.282c6.212,0.105,12.791-0.686,12.791-0.686
			c0-18.793,0.42-27.297,0.42-27.297l2.521,2.676l7.35-6.193l-5.672-8.557c-2.361-3.097-3.934-3.673-3.934-3.673l-6.576-3.404
			L35.701,7.382z"/>
		<path fill="none" stroke="#5E8BC7" stroke-linecap="round" stroke-linejoin="round" stroke-miterlimit="10" d="M16.748,21.618
			c0,0,0.019,2.117,0.966,7.028"/>
		<path fill="none" stroke="#5E8BC7" stroke-linecap="round" stroke-linejoin="round" stroke-miterlimit="10" d="M45.41,21.618
			c0,0-0.02,2.117-0.967,7.028"/>
		<path fill="none" stroke="#5E8BC7" stroke-linecap="round" stroke-linejoin="round" stroke-miterlimit="10" d="M30.073,16.17
			c0,0,0.335-1.911,2.019-2.517c-0.691,3.721,0,14.157,0,14.157c-0.852,0.923-2.057,0.801-2.057,0.801V16.54L30.073,16.17z"/>
		<path fill="none" stroke="#5E8BC7" stroke-linecap="round" stroke-linejoin="round" stroke-miterlimit="10" d="M32.321,13.472
			c1.478-0.607,4.464-4.104,3.38-6.09l2.402,2.113c0,0,0.361,5.471-2.188,8.019c0,0-1.029-0.177-1.456-2.768
			C34.461,14.746,33.206,13.109,32.321,13.472z"/>
		<path fill="none" stroke="#5E8BC7" stroke-linecap="round" stroke-linejoin="round" stroke-miterlimit="10" d="M29.365,13.281
			c-1.786-1.786-4.258,3.787-4.258,3.787c-2.001-3.35-1.714-6.991-1.714-6.991l2.111-1.968c0,0,0.585,2.624,2.914,4.516
			C28.418,12.625,29,12.917,29.365,13.281z"/>
		<path fill="none" stroke="#5E8BC7" stroke-linecap="round" stroke-linejoin="round" stroke-miterlimit="10" d="M35.701,7.382
			c1.084,1.987-1.902,5.483-3.38,6.09c-1.542,0.655-2.248,2.698-2.248,2.698l-0.038,0.25l0.074-1.062
			c0.189-1.706-0.868-2.191-0.868-2.191l0.124,0.114c-0.364-0.364-0.946-0.656-0.946-0.656c-2.329-1.892-2.914-4.516-2.914-4.516
			S29.239,6.479,35.701,7.382z"/>
		<path fill="none" stroke="#5E8BC7" stroke-linecap="round" stroke-linejoin="round" stroke-miterlimit="10" d="M35.661,9.641
			c0.315-0.812,0.392-1.615,0.04-2.259C29.239,6.48,25.504,8.109,25.504,8.109s0.186,0.836,0.768,1.905
			C26.272,10.014,29.85,8.799,35.661,9.641z"/>
	</g>
	<path fill="#BAD6EE" d="M35.833,17.384c0.03,0.005,0.063,0.008,0.094,0.008c0.146,0,0.284-0.057,0.39-0.162
		c0.445-0.445,0.789-0.982,1.061-1.557c0.495-1.931,0.371-3.857,0.371-3.857l-0.172-2.217c0.006,0.13,0.001,0.264-0.018,0.4
		c-0.352,1.207-1.238,3.627-3.106,5.011c0.104,0.1-0.347-0.347-0.257-0.239c0.089,0.485,0.205,0.877,0.334,1.199
		c0.115,0.128,0.185,0.22,0.185,0.22c0.019,0.097,0.035,0.185,0.054,0.275C35.204,17.222,35.697,17.361,35.833,17.384z"/>
	<g>
		<path fill="none" stroke="#5E8BC7" stroke-linecap="round" stroke-linejoin="round" stroke-miterlimit="10" d="M35.701,7.382
			C29.239,6.48,25.504,8.109,25.504,8.109l-2.111,1.968l-5.945,2.822c0,0-1.572,0.576-3.936,3.673l-5.671,8.557l7.351,6.193
			l2.521-2.676c0,0,0.418,8.504,0.418,27.297c0,0,6.578,0.791,12.791,0.686h0.282c6.212,0.105,12.791-0.686,12.791-0.686
			c0-18.793,0.42-27.297,0.42-27.297l2.521,2.676l7.35-6.193l-5.672-8.557c-2.361-3.097-3.934-3.673-3.934-3.673l-6.576-3.404
			L35.701,7.382z"/>
		<path fill="none" stroke="#5E8BC7" stroke-linecap="round" stroke-linejoin="round" stroke-miterlimit="10" d="M16.748,21.618
			c0,0,0.019,2.117,0.966,7.028"/>
		<path fill="none" stroke="#5E8BC7" stroke-linecap="round" stroke-linejoin="round" stroke-miterlimit="10" d="M45.41,21.618
			c0,0-0.02,2.117-0.967,7.028"/>
		<path fill="none" stroke="#5E8BC7" stroke-linecap="round" stroke-linejoin="round" stroke-miterlimit="10" d="M30.073,16.17
			c0,0,0.335-1.911,2.019-2.517c-0.691,3.721,0,14.157,0,14.157c-0.852,0.923-2.057,0.801-2.057,0.801V16.54L30.073,16.17z"/>
		<path fill="none" stroke="#5E8BC7" stroke-linecap="round" stroke-linejoin="round" stroke-miterlimit="10" d="M32.321,13.472
			c1.478-0.607,4.464-4.104,3.38-6.09l2.402,2.113c0,0,0.361,5.471-2.188,8.019c0,0-1.029-0.177-1.456-2.768
			C34.461,14.746,33.206,13.109,32.321,13.472z"/>
		<path fill="none" stroke="#5E8BC7" stroke-linecap="round" stroke-linejoin="round" stroke-miterlimit="10" d="M29.365,13.281
			c-1.786-1.786-4.258,3.787-4.258,3.787c-2.001-3.35-1.714-6.991-1.714-6.991l2.111-1.968c0,0,0.585,2.624,2.914,4.516
			C28.418,12.625,29,12.917,29.365,13.281z"/>
		<path fill="none" stroke="#5E8BC7" stroke-linecap="round" stroke-linejoin="round" stroke-miterlimit="10" d="M35.701,7.382
			c1.084,1.987-1.902,5.483-3.38,6.09c-1.542,0.655-2.248,2.698-2.248,2.698l-0.038,0.25l0.074-1.062
			c0.189-1.706-0.868-2.191-0.868-2.191l0.124,0.114c-0.364-0.364-0.946-0.656-0.946-0.656c-2.329-1.892-2.914-4.516-2.914-4.516
			S29.239,6.479,35.701,7.382z"/>
		<path fill="none" stroke="#5E8BC7" stroke-linecap="round" stroke-linejoin="round" stroke-miterlimit="10" d="M35.661,9.641
			c0.315-0.812,0.392-1.615,0.04-2.259C29.239,6.48,25.504,8.109,25.504,8.109s0.186,0.836,0.768,1.905
			C26.272,10.014,29.85,8.799,35.661,9.641z"/>
	</g>
</g>
</svg>
