<?xml version="1.0" encoding="utf-8"?>
<!-- Generator: Adobe Illustrator 16.0.0, SVG Export Plug-In . SVG Version: 6.00 Build 0)  -->
<!DOCTYPE svg PUBLIC "-//W3C//DTD SVG 1.1//EN" "http://www.w3.org/Graphics/SVG/1.1/DTD/svg11.dtd">
<svg version="1.1" id="Layer_1" xmlns="http://www.w3.org/2000/svg" xmlns:xlink="http://www.w3.org/1999/xlink" x="0px" y="0px"
	 width="64px" height="64px" viewBox="0 0 64 64" enable-background="new 0 0 64 64" xml:space="preserve">
<g id="Frock">
	<path fill="none" stroke="#494949" stroke-linecap="round" stroke-linejoin="round" stroke-miterlimit="10" d="M42.025,53.784"/>
	<path fill="none" stroke="#494949" stroke-linecap="round" stroke-linejoin="round" stroke-miterlimit="10" d="M42.025,53.784"/>
	<path fill="none" stroke="#494949" stroke-linecap="round" stroke-linejoin="round" stroke-miterlimit="10" d="M42.025,53.784"/>
	<path fill="#BAD6EE" d="M25.528,30.769c0.917-0.68-0.322-4.504-0.686-5.111c-0.549-0.915-1.766-2.403-1.69-3.172
		c0.076-0.77,0.076-1.386,0.076-1.386l-0.54,1.386c0,0-3.228,0.307-4.304-0.616c0.307-2.153,1.54-4.092,1.766-4.782
		c0.236-0.695,0.77-1.229,1.694-1.771c0.925-0.536,1.844-0.845,2.612-0.922c0.773-0.076,1.385,0,1.774-0.383
		c0.385-0.385,0.711-0.825,0.711-0.825s0.793,1.521,2.117,2.111c0.648,0.289,2.63,1.327,4.092,1.018
		c1.457-0.307,2.646-0.968,3.143-1.443c0.634-0.607,1.018-1.088,1.018-1.088l0.455,0.379c0,0,1.615,0.231,2.615,0.231
		c0.999,0,2.846,0.462,3.154,1.694c0.305,1.228,1.768,5.704,1.844,6.089c0.076,0.385-1.844,1.384-3.768,1.076
		c-0.614-0.229-0.614-0.229-0.614-0.229s-0.319-1.651-0.248-0.56c0.011,0.132,0.175,0.646,0.146,1.073
		c-0.026,0.424-0.297,0.754-0.361,0.869c-0.307,0.536-0.977,2.002-1.152,3.152C39.24,28.48,39.132,30,39.159,30.788
		c-2.22,1.079-4.412,1.535-6.187,1.661C28.397,32.773,25.528,30.769,25.528,30.769z"/>
	<g>
		<path fill="none" stroke="#5E8BC7" stroke-linecap="round" stroke-linejoin="round" stroke-miterlimit="10" d="M28.814,54.188
			c1.97,1.52,7.618,0.181,7.618,0.181c2.596,1.526,5.594-0.257,6.047-0.956c3.422,1.777,6.388-3.061,6.388-3.061
			c-4.185-1.074-5.796-10.891-5.796-10.891c-0.829-5.027-3.25-7.982-3.913-8.672c-0.048-0.728,0.071-2.246,0.222-3.229
			c0.176-1.15,0.846-2.616,1.152-3.152c0.064-0.115,0.334-0.445,0.361-0.869c0.03-0.428-0.134-0.941-0.146-1.073
			c-0.071-1.092,0.248,0.56,0.248,0.56s0,0,0.614,0.229c1.924,0.308,3.844-0.691,3.768-1.076c-0.076-0.385-1.54-6.846-1.844-8.073
			c-0.309-1.232-2.155-1.694-3.154-1.694c-1,0-2.615-0.231-2.615-0.231l-1.388-1.152c0,0-0.074,1.079-0.383,1.692
			c-0.31,0.613-1.386,1.306-2.845,1.612c-1.46,0.31-3.556-0.553-4.091-1.018c-0.541-0.46-1.675-2.672-1.675-2.672
			s-0.768,1.001-1.152,1.385c-0.389,0.384-1.001,0.308-1.774,0.384c-0.768,0.077-1.687,0.386-2.612,0.922
			c-0.925,0.541-1.458,1.075-1.694,1.771c-0.227,0.69-1.459,4.613-1.766,6.767c1.077,0.923,4.304,0.616,4.304,0.616l0.54-1.386
			c0,0,0,0.616-0.076,1.386c-0.076,0.769,1.142,2.257,1.69,3.172c0.364,0.607,1.602,4.432,0.686,5.111l0,0
			c-1.856,1.659-4.344,9.73-4.344,9.73c-1.44,5.301-6.287,9.661-6.287,9.661c2.628,3.059,6.779,2.209,6.779,2.209
			C24.519,55.536,28.814,54.188,28.814,54.188z"/>
		<path fill="none" stroke="#5E8BC7" stroke-linecap="round" stroke-linejoin="round" stroke-miterlimit="10" d="M25.528,30.769
			c0.917-0.68-0.322-4.504-0.686-5.111c-0.549-0.915-1.766-2.403-1.69-3.172c0.076-0.77,0.076-1.386,0.076-1.386l-0.54,1.386
			c0,0-3.228,0.307-4.304-0.616c0.307-2.153,1.54-6.076,1.766-6.767c0.236-0.695,0.77-1.229,1.694-1.771
			c0.925-0.536,1.844-0.845,2.612-0.922c0.773-0.076,1.385,0,1.774-0.384c0.385-0.384,1.152-1.385,1.152-1.385
			s1.135,2.212,1.675,2.672c0.536,0.465,2.63,1.327,4.091,1.018c1.459-0.307,2.535-0.999,2.845-1.612
			c0.309-0.613,0.383-1.692,0.383-1.692l1.388,1.152c0,0,1.615,0.231,2.615,0.231c0.999,0,2.846,0.462,3.154,1.694
			c0.305,1.228,1.768,7.688,1.844,8.073c0.076,0.385-1.844,1.384-3.768,1.076c-0.614-0.229-0.614-0.229-0.614-0.229
			s-0.319-1.651-0.248-0.56c0.011,0.132,0.175,0.646,0.146,1.073c-0.026,0.424-0.297,0.754-0.361,0.869
			c-0.307,0.536-0.977,2.002-1.152,3.152c-0.141,0.921-0.249,2.441-0.222,3.229c-2.22,1.079-4.412,1.535-6.187,1.661
			C28.397,32.773,25.528,30.769,25.528,30.769z"/>
		<path fill="none" stroke="#5E8BC7" stroke-linecap="round" stroke-linejoin="round" stroke-miterlimit="10" d="M39.158,30.789
			c0.662,0.689,3.084,3.645,3.914,8.672c0,0,1.609,9.814,5.795,10.891c0,0-2.965,4.838-6.389,3.061
			c-0.451,0.699-3.449,2.482-6.047,0.956c0,0-5.646,1.339-7.617-0.181c0,0-4.295,1.35-7.138-1.817c0,0-4.15,0.851-6.779-2.209
			c0,0,4.847-4.36,6.287-9.661c0,0,2.488-8.071,4.344-9.73c0,0,2.869,2.005,7.444,1.682C34.746,32.324,36.939,31.868,39.158,30.789z
			"/>
		<g>
			
				<circle fill="none" stroke="#5E8BC7" stroke-linecap="round" stroke-linejoin="round" stroke-miterlimit="10" cx="32.302" cy="20.264" r="0.048"/>
			<path fill="none" stroke="#5E8BC7" stroke-linecap="round" stroke-linejoin="round" stroke-miterlimit="10" d="M32.351,25.688
				c0,0.027-0.021,0.05-0.048,0.05c-0.025,0-0.048-0.022-0.048-0.05c0-0.024,0.023-0.048,0.048-0.048
				C32.33,25.641,32.351,25.664,32.351,25.688z"/>
		</g>
	</g>
</g>
</svg>
