<?xml version="1.0" encoding="utf-8"?>
<!-- Generator: Adobe Illustrator 16.0.0, SVG Export Plug-In . SVG Version: 6.00 Build 0)  -->
<!DOCTYPE svg PUBLIC "-//W3C//DTD SVG 1.1//EN" "http://www.w3.org/Graphics/SVG/1.1/DTD/svg11.dtd">
<svg version="1.1" id="Layer_1" xmlns="http://www.w3.org/2000/svg" xmlns:xlink="http://www.w3.org/1999/xlink" x="0px" y="0px"
	 width="64px" height="64px" viewBox="0 0 64 64" enable-background="new 0 0 64 64" xml:space="preserve">
<g id="Hat">
	<path fill="#BAD6EE" d="M28.018,26.567c0,0,3.354-1.347,6.114-0.935c2.42,0.36,3.313,1.636,3.313,1.636
		c1.304,1.367,1.814,2.937,2.668,5.3c0.504,1.396,1.056,3.072,1.056,3.072c-2.815,0.895-6.159,1.715-9.778,2.358
		c-3.468,0.617-6.755,0.995-9.619,1.142c0,0-0.093-1.918-0.1-3.182c-0.017-2.789-0.074-5.69,0.712-7.601
		c0,0,0.346-1.557,2.493-2.727c0,0,1.374-0.691,2.533,0.273L28.018,26.567z"/>
	<g>
		<g>
			<path fill="none" stroke="#5E8BC7" stroke-linecap="round" stroke-linejoin="round" stroke-miterlimit="10" d="M21.669,35.96
				c-5.502,1.726-9.043,3.729-8.771,5.254c0.408,2.292,9.279,2.632,19.815,0.755c10.537-1.875,18.747-5.253,18.339-7.548
				c-0.286-1.603-4.704-2.249-10.938-1.853c-0.854-2.363-2.244-5.801-3.547-7.169c0,0-0.887-1.322-3.313-1.635
				c0,0-0.399-0.069-1.294-0.018l-0.714-0.361c-3.836-1.371-6.214,0.379-6.214,0.379c-2.147,1.17-2.494,2.727-2.494,2.727
				c-0.786,1.91-0.883,6.68-0.866,9.469H21.669z"/>
		</g>
		<path fill="none" stroke="#5E8BC7" stroke-linecap="round" stroke-linejoin="round" stroke-miterlimit="10" d="M41.168,35.641
			c0,0-0.552-1.677-1.055-3.072c-0.854-2.362-2.245-5.8-3.549-7.168c0,0-0.887-1.322-3.313-1.635c0,0-0.4-0.069-1.294-0.018
			l-0.714-0.361c-3.836-1.371-6.214,0.379-6.214,0.379c-2.147,1.17-2.494,2.727-2.494,2.727c-0.786,1.91-0.883,6.68-0.866,9.469
			c0.007,1.264,0.1,3.182,0.1,3.182c2.864-0.146,6.151-0.523,9.619-1.142C35.009,37.355,38.354,36.535,41.168,35.641z"/>
		<path fill="none" stroke="#5E8BC7" stroke-linecap="round" stroke-linejoin="round" stroke-miterlimit="10" d="M31.82,23.754
			c-1.068,0.063-2.645,0.288-4.411,0.976"/>
	</g>
</g>
</svg>
