<?xml version="1.0" encoding="utf-8"?>
<!-- Generator: Adobe Illustrator 16.0.0, SVG Export Plug-In . SVG Version: 6.00 Build 0)  -->
<!DOCTYPE svg PUBLIC "-//W3C//DTD SVG 1.1//EN" "http://www.w3.org/Graphics/SVG/1.1/DTD/svg11.dtd">
<svg version="1.1" id="Layer_1" xmlns="http://www.w3.org/2000/svg" xmlns:xlink="http://www.w3.org/1999/xlink" x="0px" y="0px"
	 width="64px" height="64px" viewBox="0 0 64 64" enable-background="new 0 0 64 64" xml:space="preserve">
<g id="Hoodie">
	<path fill="#BAD6EE" d="M39.991,16.719c-1.4-4.097-7.612-3.362-7.612-3.362c-7.534,0.738-7.689,3.023-7.689,3.023
		c-0.051-0.601,0.238-1.143,0.238-1.143s3.912-5.135,7.404-6.479c0,0,2.259-0.123,7.447,6.077
		C39.779,14.836,40.271,15.707,39.991,16.719z"/>
	<path fill="#BAD6EE" d="M16.368,50.473c-0.342,1.059-0.569,1.463-0.569,1.463l-3.657-0.662c-0.222-0.557,0.17-1.433,0.17-1.433
		l3.862,0.858L16.368,50.473z"/>
	<path fill="#BAD6EE" d="M51.241,49.87c0,0,0.62,0.841,0.401,1.383l-3.582,0.651c0,0-0.229-0.163-0.563-1.201L51.241,49.87z"/>
	<path fill="#BAD6EE" d="M22.853,55.29c0.164,0.092,0.281,0.13,0.503,0.177c0,0,2.901,0.959,8.49,0.833
		c2.515-0.067,5.419-0.425,8.267-1.039c0,0,0.591-0.171,0.959-0.374l-0.002,1.399c-12.535,2.475-17.966,0.31-17.966,0.31
		C23.138,55.245,22.853,55.29,22.853,55.29z"/>
	<path fill="none" stroke="#5E8BC7" stroke-linecap="round" stroke-linejoin="round" stroke-miterlimit="10" d="M27.078,19.941
		c0,0,3.68,1.007,4.073,2.487c0,0,0.257,1.984,0.86,3.952c1.446-1.518,1.559-3.515,1.559-3.515c0.505-1.662,3.6-2.759,3.6-2.759
		c4.321-2.812,2.607-5.271,2.607-5.271c-4.166-7.594-7.594-8.064-7.594-8.064c-3.493,1.344-7.256,8.466-7.256,8.466
		C23.785,18.06,27.078,19.941,27.078,19.941z"/>
	<path fill="#BAD6EE" d="M24.69,16.38c0,0,0.176-0.454,7.71-1.192c0,0,6.95-0.86,7.612,1.66c-0.244,0.911-0.986,2.053-2.842,3.26
		c0,0-3.095,1.097-3.6,2.759c0,0-0.113,1.997-1.559,3.515c-0.604-1.968-0.86-3.952-0.86-3.952c-0.393-1.48-4.073-2.487-4.073-2.487
		s-2.424-1.386-2.391-3.561L24.69,16.38z"/>
	<g>
		<path fill="none" stroke="#5E8BC7" stroke-linecap="round" stroke-linejoin="round" stroke-miterlimit="10" d="M12.949,48.639
			c0,0-1.029,2.078-0.807,2.635l3.657,0.662c0,0,0.646-1.387,0.988-2.443l0.259,0.058l4.841-15.013l0.167,17.794
			c0,0-0.096,1.61,1.05,2.256c0,0,0.034,0.37,0,1.72c0,0,5.431,2.166,17.966-0.31l0.002-2.165c0.416-0.229,0.607-0.771,0.617-1.137
			l0.168-18.158l4.842,15.013l0.365-0.081l0,0c0.336,1.039,0.996,2.438,0.996,2.438l3.582-0.652
			c0.219-0.542-0.834-2.618-0.834-2.618l0.395-0.088l-6.674-24.035l-6.975-3.518l-0.385-0.887c4.321-2.812,2.607-5.271,2.607-5.271
			c-4.166-7.594-7.594-8.064-7.594-8.064c-3.493,1.344-7.256,8.466-7.256,8.466c-1.143,2.822,2.15,4.704,2.15,4.704l-0.017,1.08
			l-7.845,3.49l-6.676,24.035L12.949,48.639z"/>
		<path fill="none" stroke="#5E8BC7" stroke-linecap="round" stroke-linejoin="round" stroke-miterlimit="10" d="M31.735,54.389"/>
		<path fill="none" stroke="#5E8BC7" stroke-linecap="round" stroke-linejoin="round" stroke-miterlimit="10" d="M31.576,22.866"/>
		<path fill="none" stroke="#5E8BC7" stroke-linecap="round" stroke-linejoin="round" stroke-miterlimit="10" d="M32.011,26.381"/>
		
			<line fill="none" stroke="#5E8BC7" stroke-linecap="round" stroke-linejoin="round" stroke-miterlimit="10" x1="27.373" y1="42.059" x2="24.398" y2="47.23"/>
		
			<line fill="none" stroke="#5E8BC7" stroke-linecap="round" stroke-linejoin="round" stroke-miterlimit="10" x1="36.098" y1="42.059" x2="39.072" y2="47.23"/>
		<path fill="none" stroke="#5E8BC7" stroke-linecap="round" stroke-linejoin="round" stroke-miterlimit="10" d="M16.787,49.491
			l0.259,0.058l4.841-15.013l0.167,17.794c0,0-0.096,1.609,1.05,2.256c0.164,0.092,0.281,0.13,0.503,0.178
			c0,0,3.684,0.743,8.444,0.614c-0.848-4.791-0.041-28.997-0.041-28.997c-0.604-1.968-0.86-3.952-0.86-3.952
			c-0.393-1.48-4.073-2.487-4.073-2.487l-0.017,1.08l-7.845,3.49l-6.676,24.035l0.409,0.092"/>
		<path fill="none" stroke="#5E8BC7" stroke-linecap="round" stroke-linejoin="round" stroke-miterlimit="10" d="M16.787,49.491
			c-0.342,1.058-0.988,2.442-0.988,2.442l-3.657-0.662c-0.222-0.556,0.807-2.635,0.807-2.635l3.862,0.858L16.787,49.491z"/>
		<path fill="none" stroke="#5E8BC7" stroke-linecap="round" stroke-linejoin="round" stroke-miterlimit="10" d="M50.809,48.635
			c0,0,1.053,2.076,0.834,2.618l-3.582,0.651c0,0-0.66-1.397-0.996-2.438L50.809,48.635z"/>
		<path fill="none" stroke="#5E8BC7" stroke-linecap="round" stroke-linejoin="round" stroke-miterlimit="10" d="M40.113,54.205
			c-2.731,0.794-5.547,1.105-8.063,1.173c-0.848-4.791-0.041-28.997-0.041-28.997c1.446-1.518,1.561-3.515,1.561-3.515
			c0.504-1.662,3.599-2.759,3.599-2.759l0.386,0.887l6.973,3.518l6.675,24.035l-0.396,0.088c0,0,1.053,2.076,0.836,2.618
			l-3.584,0.651c0,0-0.66-1.397-0.996-2.438l0,0l-0.364,0.081l-4.841-15.013l-0.168,18.16c-0.01,0.363-0.203,0.906-0.617,1.136
			C40.704,54.034,40.113,54.205,40.113,54.205z"/>
		<path fill="none" stroke="#5E8BC7" stroke-linecap="round" stroke-linejoin="round" stroke-miterlimit="10" d="M23.104,54.586
			c0.164,0.092,0.281,0.13,0.503,0.178c0,0,3.684,0.743,8.444,0.614c2.516-0.067,5.33-0.379,8.063-1.173
			c0,0,0.591-0.171,0.959-0.374l-0.002,2.165c-12.535,2.475-17.966,0.311-17.966,0.311C23.138,54.956,23.104,54.586,23.104,54.586z"
			/>
		<g>
			<path fill="none" stroke="#5E8BC7" stroke-linecap="round" stroke-linejoin="round" stroke-miterlimit="10" d="M28.22,15.707
				c0,0-0.672,1.479,0.806,3.093c1.479,1.612,3.307,1.62,3.353,4.066"/>
			<path fill="none" stroke="#5E8BC7" stroke-linecap="round" stroke-linejoin="round" stroke-miterlimit="10" d="M36.543,15.707
				c0,0,1.016,2.15-0.261,2.958c-1.275,0.805-4.366,2.205-3.904,6.536"/>
		</g>
		<path fill="none" stroke="#5E8BC7" stroke-linecap="round" stroke-linejoin="round" stroke-miterlimit="10" d="M39.991,16.719
			c-1.4-4.097-7.612-3.362-7.612-3.362c-7.534,0.738-7.689,3.023-7.689,3.023c-0.051-0.601,0.238-1.143,0.238-1.143
			s3.763-7.122,7.256-8.466c0,0,3.429,0.471,7.595,8.064C39.779,14.836,40.271,15.707,39.991,16.719z"/>
	</g>
</g>
</svg>
