<?xml version="1.0" encoding="utf-8"?>
<!-- Generator: Adobe Illustrator 16.0.0, SVG Export Plug-In . SVG Version: 6.00 Build 0)  -->
<!DOCTYPE svg PUBLIC "-//W3C//DTD SVG 1.1//EN" "http://www.w3.org/Graphics/SVG/1.1/DTD/svg11.dtd">
<svg version="1.1" id="Layer_1" xmlns="http://www.w3.org/2000/svg" xmlns:xlink="http://www.w3.org/1999/xlink" x="0px" y="0px"
	 width="64px" height="64px" viewBox="0 0 64 64" enable-background="new 0 0 64 64" xml:space="preserve">
<g id="Jacket">
	<path fill="#BAD6EE" d="M15.178,53.221c-0.186,0.728-0.162,1.188-0.162,1.188c-3.394,0.479-4.448,0-4.448,0l0.14-1.188
		C12.944,51.871,15.178,53.221,15.178,53.221z"/>
	<path fill="#BAD6EE" d="M36.234,13.802c5.27,1.12,4.094,2.751,4.094,2.751c-2.014,4.136-9.584,4.545-9.584,4.545
		c-7.109,0.004-9.641-3.793-9.641-3.793c-0.185-0.36-1.962-1.709,3.559-3.183c0,0-3.777,0.738-0.394,4.092
		c0,0,1.862,2.646,6.484,2.646c0,0,5.26-1.176,7.105-4.694C37.857,16.165,38.641,15.039,36.234,13.802z"/>
	<path fill="#BAD6EE" d="M34.396,14.789c0,0-3.025-0.445-7.114,0.201c0,0-7.482,0.693-2.945,3.681c0,0,3.518,2.424,6.407,2.426
		c2.863,0.001,6.656-3.238,6.656-3.238C39.742,15.48,34.396,14.789,34.396,14.789z"/>
	<path fill="#BAD6EE" d="M27.145,15.116c0,0-2.573-0.622,3.139,5.812c0,0,0.129,0.386,1.087,0c0,0,6.486-5.904,2.354-6.131
		C33.725,14.797,31.234,14.286,27.145,15.116z"/>
	<path fill="#BAD6EE" d="M18.705,51.508c0,0,3.814,2.271,12.371,2.207c3.275-0.025,7.102-1.02,11.906-1.553v-1.148
		c-4.465,1.184-8.502,1.737-11.987,1.719c-7.19-0.043-12.083-2.396-12.083-2.396L18.705,51.508z"/>
	<path fill="#BAD6EE" d="M15.178,53.221c-0.186,0.728-0.162,1.188-0.162,1.188c-3.394,0.479-4.448,0-4.448,0l0.14-1.188
		C12.944,51.871,15.178,53.221,15.178,53.221z"/>
	<path fill="#BAD6EE" d="M46.947,53.221c0.186,0.728,0.162,1.188,0.162,1.188c3.394,0.479,4.447,0,4.447,0l-0.14-1.188
		C49.182,51.871,46.947,53.221,46.947,53.221z"/>
	<g>
		<path fill="none" stroke="#5E8BC7" stroke-linecap="round" stroke-linejoin="round" stroke-miterlimit="10" d="M41.936,39.072
			c0,0,0.67,0.96,1.246,2.686c0.573,1.725-0.115,2.395,1.283,4.694c1.398,2.301-0.423,2.015,1.688,5.08c0,0,1.182,1.257,0.99,3.089
			c0,0,2.619,0.424,4.217-0.471c0,0-0.832-2.17,0-4.15c0,0,0.83,0-1.342-4.602c0,0,0.127-5.621-2.107-9.01
			c0,0,0.127-2.873-1.088-4.343c0,0-1.012-5.496-0.758-9.266c0,0,0.896-5.877-5.431-6.898c0,0,0.87-2.571-4.397-3.984
			c0,0-5.194-1.749-11.574,0.403c-5.979,2.019-4.532,3.734-4.12,4.251c0,0-5.463,0.191-4.792,7.475c0,0-0.881,6.156-0.152,7.786
			c0,0-2.112,2.688-1.292,4.003c0,0-1.166,2.586-0.974,3.93c0.191,1.341-1.63,2.727-1.63,7.091c0,3.354-2.107,2.396-0.576,4.983
			l-0.558,2.588c0,0,1.055,0.479,4.448,0c0,0-0.344-2.686,1.573-3.26c0,0,0.767-1.056,1.534-6.037
			c0.766-4.983,2.012-6.709,2.012-6.709s-0.17,4.533-0.744,10.541l-0.479,2.396c0,0,6.9,4.791,24.247,0.768v-2.396
			C43.158,49.712,42.561,44.012,41.936,39.072z"/>
		<path fill="none" stroke="#5E8BC7" stroke-linecap="round" stroke-linejoin="round" stroke-miterlimit="10" d="M46.566,52.114
			c0.32,0.54,0.688,1.423,0.574,2.507c0,0,2.619,0.424,4.217-0.471c0,0-0.459-1.199-0.353-2.631
			c-2.653-0.844-4.437,0.597-4.437,0.597L46.566,52.114z"/>
		<path fill="none" stroke="#5E8BC7" stroke-linecap="round" stroke-linejoin="round" stroke-miterlimit="10" d="M15.596,51.818
			c-0.783,0.994-0.58,2.59-0.58,2.59c-3.394,0.479-4.448,0-4.448,0l0.558-2.588C13.362,50.471,15.597,51.82,15.596,51.818z"/>
		<g>
			<g>
				<path fill="none" stroke="#5E8BC7" stroke-linecap="round" stroke-linejoin="round" stroke-miterlimit="10" d="M18.912,25.018
					c0,0,2.557,9.583,6.325,9.648"/>
				<path fill="none" stroke="#5E8BC7" stroke-linecap="round" stroke-linejoin="round" stroke-miterlimit="10" d="M25.237,38.689
					c0,0-2.045,6.113-4.217,7.283"/>
				<path fill="none" stroke="#5E8BC7" stroke-linecap="round" stroke-linejoin="round" stroke-miterlimit="10" d="M42.561,25.404
					c0,0-2.557,9.583-6.324,9.646"/>
				<path fill="none" stroke="#5E8BC7" stroke-linecap="round" stroke-linejoin="round" stroke-miterlimit="10" d="M36.234,38.689
					c0,0,2.045,6.113,4.218,7.283"/>
				<path fill="none" stroke="#5E8BC7" stroke-linecap="round" stroke-linejoin="round" stroke-miterlimit="10" d="M27.422,20.695
					c0,0,0.555,0.89,0,2.901c-0.556,2.012,0.354,3.308,0.498,4.218c0.143,0.91-0.048,2.061,0,2.3"/>
				<path fill="none" stroke="#5E8BC7" stroke-linecap="round" stroke-linejoin="round" stroke-miterlimit="10" d="M34.177,20.457
					c0,0-1.153,3.663-0.267,5.439c0.885,1.776,0.295,2.668,0.267,3.944"/>
				<path fill="none" stroke="#5E8BC7" stroke-linecap="round" stroke-linejoin="round" stroke-miterlimit="10" d="M20.135,38.402
					c0,0,0.838-5.23,1.939-6.042"/>
				<path fill="none" stroke="#5E8BC7" stroke-linecap="round" stroke-linejoin="round" stroke-miterlimit="10" d="M39.091,33.172
					c0,0,2.558,1.589,2.845,5.9"/>
			</g>
		</g>
		<path fill="none" stroke="#5E8BC7" stroke-linecap="round" stroke-linejoin="round" stroke-miterlimit="10" d="M20.542,16.553
			c-0.316-0.67-1.859-2.232,4.12-4.251c6.38-2.152,11.574-0.403,11.574-0.403c5.269,1.413,4.397,3.984,4.397,3.984
			c-2.014,5.214-9.89,5.214-9.89,5.214C23.303,21.273,20.542,16.553,20.542,16.553z"/>
		<path fill="none" stroke="#5E8BC7" stroke-linecap="round" stroke-linejoin="round" stroke-miterlimit="10" d="M34.396,13.004
			c0,0-3.025-0.571-7.114,0.259c0,0-7.482,0.89-2.945,4.723c0,0,3.518,3.108,6.407,3.111c2.863,0.002,6.656-4.154,6.656-4.154
			C39.742,13.892,34.396,13.004,34.396,13.004z"/>
		<path fill="none" stroke="#5E8BC7" stroke-linecap="round" stroke-linejoin="round" stroke-miterlimit="10" d="M27.282,13.263
			c0,0-3.642,0.574,3.002,7.665c0,0,0.129,0.386,1.087,0c0,0,6.624-7.758,2.49-7.984C33.861,12.943,31.371,12.433,27.282,13.263z"/>
		<path fill="none" stroke="#5E8BC7" stroke-linecap="round" stroke-linejoin="round" stroke-miterlimit="10" d="M18.912,51.341
			c0,0,6.9,4.791,24.247,0.769v-2.396c-13.96,4.631-23.833-0.436-23.833-0.436L18.912,51.341z"/>
		<path fill="none" stroke="#5E8BC7" stroke-linecap="round" stroke-linejoin="round" stroke-miterlimit="10" d="M30.909,21.095
			c-7.44,0.177-10.367-4.542-10.367-4.542s-5.463,0.191-4.792,7.475c0,0-0.881,6.156-0.152,7.786c0,0-2.112,2.688-1.292,4.002
			c0,0-1.166,2.586-0.974,3.931c0.191,1.341-1.63,2.728-1.63,7.091c0,3.354-2.107,2.396-0.576,4.982l-0.558,2.589
			c0,0,1.055,0.479,4.448,0c0,0-0.344-2.685,1.573-3.259c0,0,0.767-1.057,1.534-6.039c0.766-4.982,2.012-6.709,2.012-6.709
			s-0.17,4.533-0.744,10.543l-0.479,2.396c0,0,3.598,2.498,12.129,2.372c0,0-0.628-12.531,0-14.574
			c0.629-2.047,0.267-4.473-0.165-7.478C30.444,28.659,30.909,21.095,30.909,21.095z"/>
		<path fill="none" stroke="#5E8BC7" stroke-linecap="round" stroke-linejoin="round" stroke-miterlimit="10" d="M40.634,15.883
			c6.325,1.021,5.431,6.898,5.431,6.898c-0.254,3.77,0.758,9.266,0.758,9.266c1.215,1.469,1.088,4.344,1.088,4.344
			c2.234,3.387,2.107,9.01,2.107,9.01c2.17,4.6,1.34,4.6,1.34,4.6c-0.83,1.98,0,4.15,0,4.15c-1.598,0.895-4.217,0.471-4.217,0.471
			c0.191-1.832-0.99-3.089-0.99-3.089c-2.108-3.065-0.287-2.779-1.687-5.08c-1.397-2.3-0.71-2.972-1.284-4.694
			c-0.576-1.726-1.246-2.686-1.246-2.686c0.627,4.938,1.225,10.64,1.225,10.64v2.396c-4.821,1.119-8.835,1.557-12.118,1.604
			c0,0-0.628-12.53,0-14.575c0.629-2.046,0.267-4.472-0.165-7.477c-0.432-3.002,0.033-10.566,0.033-10.566
			C30.303,21.095,38.561,21.253,40.634,15.883z"/>
	</g>
</g>
</svg>
