<?xml version="1.0" encoding="utf-8"?>
<!-- Generator: Adobe Illustrator 16.0.0, SVG Export Plug-In . SVG Version: 6.00 Build 0)  -->
<!DOCTYPE svg PUBLIC "-//W3C//DTD SVG 1.1//EN" "http://www.w3.org/Graphics/SVG/1.1/DTD/svg11.dtd">
<svg version="1.1" id="Layer_1" xmlns="http://www.w3.org/2000/svg" xmlns:xlink="http://www.w3.org/1999/xlink" x="0px" y="0px"
	 width="64px" height="64px" viewBox="0 0 64 64" enable-background="new 0 0 64 64" xml:space="preserve">
<g id="Jeans">
	<g>
		<path fill="#BAD6EE" d="M42.55,23.085c0.124,0,0.25-0.035,0.361-0.108c0.026-0.018,0.047-0.042,0.071-0.063l-1.248-7.88
			c-0.033-0.205-0.159-0.382-0.342-0.479c-0.184-0.099-0.4-0.105-0.59-0.018c-0.943,0.435-2.229,0.792-3.548,0.996l4.74,7.253
			C42.122,22.98,42.334,23.085,42.55,23.085z"/>
		<path fill="#BAD6EE" d="M22.703,14.555c-0.183,0.097-0.309,0.275-0.341,0.479l-1.248,7.88c0.023,0.021,0.043,0.045,0.07,0.063
			c0.112,0.073,0.237,0.108,0.361,0.108c0.216,0,0.428-0.105,0.555-0.299l4.739-7.253c-1.318-0.204-2.604-0.562-3.548-0.996
			C23.104,14.449,22.886,14.456,22.703,14.555z"/>
	</g>
	<g>
		<path fill="none" stroke="#5E8BC7" stroke-linecap="round" stroke-linejoin="round" stroke-miterlimit="10" d="M32.147,26.629
			c0.055,0.08,0.222,0.334,0.273,0.422c4.042,6.77,5.742,29.754,5.742,29.754c3.751,0.133,9.15-1.014,9.15-1.014l-3.48-25.264
			l-1.284-8.106l-1.457-9.202l-0.584-3.26c0,0-2.278,1.072-8.244,1.205h-0.32c-5.964-0.132-8.373-1.192-8.373-1.192l-0.577,3.178
			l-2.877,17.765l-3.48,25.135c0,0,5.657,0.888,9.41,0.755c0,0,1.699-22.984,5.74-29.754c0.052-0.088,0.22-0.343,0.272-0.422H32.147
			z"/>
		
			<line fill="none" stroke="#5E8BC7" stroke-linecap="round" stroke-linejoin="round" stroke-miterlimit="10" x1="26.736" y1="14.354" x2="21.547" y2="22.424"/>
		<path fill="none" stroke="#5E8BC7" stroke-linecap="round" stroke-linejoin="round" stroke-miterlimit="10" d="M42.549,22.423
			l-0.851-5.37l-0.617-3.9c-1.103,0.508-2.55,0.884-3.888,1.078L42.549,22.423"/>
		<path fill="none" stroke="#5E8BC7" stroke-linecap="round" stroke-linejoin="round" stroke-miterlimit="10" d="M21.547,22.423
			l0.851-5.37l0.617-3.9c1.103,0.508,2.551,0.884,3.887,1.078L21.547,22.423"/>
		
			<line fill="none" stroke="#5E8BC7" stroke-linecap="round" stroke-linejoin="round" stroke-miterlimit="10" x1="31.015" y1="23.984" x2="32.059" y2="26.583"/>
		<path fill="none" stroke="#5E8BC7" stroke-linecap="round" stroke-linejoin="round" stroke-miterlimit="10" d="M34.961,14.463
			c-1.456,0.099-2.53,0.079-2.53,0.079h-0.318c0,0,0.913,8.288-1.098,9.442l0.652,0.25C36.782,24.771,34.961,14.463,34.961,14.463z"
			/>
		<path fill="none" stroke="#5E8BC7" stroke-linecap="round" stroke-linejoin="round" stroke-miterlimit="10" d="M22.993,13.151
			l0.577-3.178c0,0,2.409,1.06,8.373,1.192h0.32c5.965-0.132,8.244-1.205,8.244-1.205l0.573,3.193
			c-1.102,0.508-2.551,0.884-3.887,1.078c-2.445,0.353-4.764,0.311-4.764,0.311h-0.318C32.112,14.542,26.111,14.587,22.993,13.151z"
			/>
		<path fill="none" stroke="#5E8BC7" stroke-linecap="round" stroke-linejoin="round" stroke-miterlimit="10" d="M34.074,12.763
			c0,0.134-0.106,0.246-0.239,0.246c-0.136,0-0.246-0.111-0.246-0.246c0-0.133,0.11-0.242,0.246-0.242
			C33.968,12.521,34.074,12.63,34.074,12.763z"/>
		
			<line fill="none" stroke="#5E8BC7" stroke-linecap="round" stroke-linejoin="round" stroke-miterlimit="10" x1="32.104" y1="11.647" x2="32.104" y2="14.126"/>
	</g>
</g>
</svg>
