<?xml version="1.0" encoding="utf-8"?>
<!-- Generator: Adobe Illustrator 16.0.0, SVG Export Plug-In . SVG Version: 6.00 Build 0)  -->
<!DOCTYPE svg PUBLIC "-//W3C//DTD SVG 1.1//EN" "http://www.w3.org/Graphics/SVG/1.1/DTD/svg11.dtd">
<svg version="1.1" id="Layer_1" xmlns="http://www.w3.org/2000/svg" xmlns:xlink="http://www.w3.org/1999/xlink" x="0px" y="0px"
	 width="64px" height="64px" viewBox="0 0 64 64" enable-background="new 0 0 64 64" xml:space="preserve">
<g id="Men_x2019_s_Full_Sleeve_Shirt">
	<path fill="#BAD6EE" d="M38.152,14.282c-0.629,2.287-3.979,4.235-3.979,4.235l-3.116,1.03l-2.401-0.716
		c-2.405-0.58-4.173-4.453-4.173-4.453l0.405-0.88l3.004,3.314l3.225,1.269l3.225-1.24l3.263-3.477L38.152,14.282z"/>
	<polygon fill="#BAD6EE" points="26.743,13.338 30.978,13.092 31.307,13.092 35.557,13.326 33.689,14.913 31.118,15.931 
		28.593,14.913 	"/>
	<polygon fill="#B7B7B7" points="7.598,47.807 6.836,49.803 12.159,50.854 12.911,49.089 	"/>
	<polygon fill="#BAD6EE" points="7.598,47.807 6.836,49.803 12.159,50.854 12.911,49.089 	"/>
	<polygon fill="#BAD6EE" points="54.482,47.807 55.244,49.803 49.922,50.854 49.171,49.089 	"/>
	<g>
		<path fill="none" stroke="#5E8BC7" stroke-linecap="round" stroke-linejoin="round" stroke-miterlimit="10" d="M30.978,53.508"/>
		<path fill="none" stroke="#5E8BC7" stroke-linecap="round" stroke-linejoin="round" stroke-miterlimit="10" d="M48.936,47.721
			c0.472,1.452,1.295,3.133,1.295,3.133l5.016-0.912c0.306-0.76-1.07-3.42-1.07-3.42l0.006,0.02l0.086-0.02l-7.988-28.749
			l-7.766-2.89l-1.615-2.699l-5.59-1.118h-0.33l-5.591,1.118l-1.11,2.699l-8.272,2.89L8.018,46.521l0.137,0.03l0.016-0.03
			c0,0-1.332,2.66-1.026,3.42l5.015,0.912c0,0,0.779-1.681,1.25-3.133l5.789-17.957l0.199,21.282l11.581,2.462h0.33l11.58-2.462
			l0.198-21.282l5.791,17.957"/>
		
			<line fill="none" stroke="#5E8BC7" stroke-linecap="round" stroke-linejoin="round" stroke-miterlimit="10" x1="22.288" y1="29.956" x2="27.491" y2="29.956"/>
		
			<line fill="none" stroke="#5E8BC7" stroke-linecap="round" stroke-linejoin="round" stroke-miterlimit="10" x1="34.13" y1="29.956" x2="39.333" y2="29.956"/>
		<path fill="none" stroke="#5E8BC7" stroke-linecap="round" stroke-linejoin="round" stroke-miterlimit="10" d="M38.152,14.282
			c-0.629,2.287-3.979,4.235-3.979,4.235l-3.116,1.03l-2.401-0.716c-2.405-0.58-4.173-4.453-4.173-4.453l0.903-2.194l3.206,2.729
			l2.524,1.019l2.572-1.019l3.209-2.729L38.152,14.282z"/>
		<path fill="none" stroke="#5E8BC7" stroke-linecap="round" stroke-linejoin="round" stroke-miterlimit="10" d="M8.17,46.521
			c0,0-1.332,2.66-1.026,3.42l5.015,0.912c0,0,0.779-1.681,1.25-3.133l-2.666-0.594l-2.588-0.575"/>
		<path fill="none" stroke="#5E8BC7" stroke-linecap="round" stroke-linejoin="round" stroke-miterlimit="10" d="M48.936,47.721
			c0.472,1.452,1.295,3.133,1.295,3.133l5.016-0.912c0.306-0.76-1.07-3.42-1.07-3.42l0.006,0.02l-2.654,0.59l-2.648,0.59"/>
		<path fill="none" stroke="#5E8BC7" stroke-linecap="round" stroke-linejoin="round" stroke-miterlimit="10" d="M30.978,53.508
			l-11.581-2.462l-0.199-21.282l-5.789,17.957c-0.471,1.452-1.25,3.133-1.25,3.133l-5.015-0.912c-0.306-0.76,1.026-3.42,1.026-3.42
			l-0.016,0.03l-0.137-0.03l7.986-28.749l8.272-2.89l1.11-2.699l3.206,2.729l2.524,1.019l0,0c0,0-0.823,31.845,0.19,37.577"/>
		<path fill="none" stroke="#5E8BC7" stroke-linecap="round" stroke-linejoin="round" stroke-miterlimit="10" d="M31.308,53.508
			c-1.014-5.73-0.19-37.577-0.19-37.577l0,0l2.573-1.019l3.207-2.729l1.615,2.699l7.768,2.89l7.984,28.748L54.18,46.54l-0.005-0.021
			c0,0,1.376,2.66,1.07,3.42l-5.015,0.912c0,0-0.824-1.68-1.295-3.133h-0.06l-5.791-17.956l-0.198,21.282L31.308,53.508h-0.33"/>
		<polygon fill="none" stroke="#5E8BC7" stroke-linecap="round" stroke-linejoin="round" stroke-miterlimit="10" points="
			25.387,12.184 30.978,11.066 31.308,11.066 36.898,12.184 33.689,14.913 31.118,15.931 28.593,14.913 		"/>
	</g>
</g>
</svg>
