<?xml version="1.0" encoding="utf-8"?>
<!-- Generator: Adobe Illustrator 16.0.0, SVG Export Plug-In . SVG Version: 6.00 Build 0)  -->
<!DOCTYPE svg PUBLIC "-//W3C//DTD SVG 1.1//EN" "http://www.w3.org/Graphics/SVG/1.1/DTD/svg11.dtd">
<svg version="1.1" id="Layer_1" xmlns="http://www.w3.org/2000/svg" xmlns:xlink="http://www.w3.org/1999/xlink" x="0px" y="0px"
	 width="64px" height="64px" viewBox="0 0 64 64" enable-background="new 0 0 64 64" xml:space="preserve">
<g id="Men_x2019_s_Sleeveless_Jacket">
	<path fill="#BAD6EE" d="M25.731,14.215c0,0,2.141,4.035,6.232,4.103c4.092-0.067,6.211-4.103,6.211-4.103s0.387,0.87,0.387,0.871
		c0,0-1.064,4.189-6.661,5.112l0,0c-5.595-0.923-6.535-5.112-6.535-5.112L25.731,14.215z"/>
	<path fill="#BAD6EE" d="M16.395,22.557c0,0,1.936,0.151,3.422,9.18l0,0l0,0c-1.346-1.19-2.012-3.514-2.012-3.514
		C15.466,22.748,16.395,22.557,16.395,22.557z"/>
	<path fill="#BAD6EE" d="M47.516,22.884c0,0-1.858-0.171-3.229,8.876l0,0l0,0c1.331-1.208,1.967-3.54,1.967-3.54
		C48.521,22.715,47.516,22.884,47.516,22.884z"/>
	<path fill="#BAD6EE" d="M26.872,14.361c0,0,1,2.219,5.092,2.285c4.093-0.066,5.093-2.193,5.093-2.193
		C31.368,12.137,26.872,14.361,26.872,14.361z"/>
	<g>
		<path fill="none" stroke="#5E8BC7" stroke-linecap="round" stroke-linejoin="round" stroke-miterlimit="10" d="M37.65,13.032
			l0.91,2.054l0.287,0.646l8.271,2.89h-0.038h0.038c0,0,1.291,3.277-0.594,9.332c0,0-1.295,3.401-2.426,6.669l0.543,16.686
			c-3.218,2.818-12.534,3.318-12.534,3.318c-10.006,0.088-13.033-2.87-13.033-2.87l0.749-17.134
			c-1.13-3.268-2.425-6.669-2.425-6.669c-1.884-6.055-0.595-9.332-0.595-9.332l8.272-2.89l0.286-0.646l0.91-2.055
			C26.275,13.032,31.895,10.221,37.65,13.032z"/>
		
			<line fill="none" stroke="#5E8BC7" stroke-linecap="round" stroke-linejoin="round" stroke-miterlimit="10" x1="23.13" y1="30.804" x2="28.333" y2="30.804"/>
		
			<line fill="none" stroke="#5E8BC7" stroke-linecap="round" stroke-linejoin="round" stroke-miterlimit="10" x1="34.971" y1="30.804" x2="40.174" y2="30.804"/>
		<path fill="none" stroke="#5E8BC7" stroke-linecap="round" stroke-linejoin="round" stroke-miterlimit="10" d="M19.864,34.623
			l0.221-3.882c-0.555-8.943-3.195-11.99-3.195-11.99"/>
		<path fill="none" stroke="#5E8BC7" stroke-linecap="round" stroke-linejoin="round" stroke-miterlimit="10" d="M26.275,13.032
			c0,0,1.597,3.548,5.688,3.614c4.092-0.066,5.688-3.614,5.688-3.614s0.91,2.054,0.91,2.055c0,0-1.064,4.189-6.661,5.112l0,0
			c-5.595-0.923-6.535-5.112-6.535-5.112L26.275,13.032z"/>
		<path fill="none" stroke="#5E8BC7" stroke-linecap="round" stroke-linejoin="round" stroke-miterlimit="10" d="M26.229,13.032"/>
		<path fill="none" stroke="#5E8BC7" stroke-linecap="round" stroke-linejoin="round" stroke-miterlimit="10" d="M16.807,18.622
			c0,0,2.724,3.176,3.278,12.119l-0.221,3.882h-0.038c-1.13-3.268-2.425-6.669-2.425-6.669
			C15.518,21.899,16.807,18.622,16.807,18.622z"/>
		<path fill="none" stroke="#5E8BC7" stroke-linecap="round" stroke-linejoin="round" stroke-miterlimit="10" d="M47.121,18.622
			c0,0-2.725,3.176-3.278,12.119l0.222,3.882h0.039c1.129-3.268,2.424-6.669,2.424-6.669C48.41,21.899,47.121,18.622,47.121,18.622z
			"/>
		<path fill="none" stroke="#5E8BC7" stroke-linecap="round" stroke-linejoin="round" stroke-miterlimit="10" d="M32.11,54.626
			c-10.006,0.088-13.033-2.87-13.033-2.87l0.749-17.134c-1.13-3.268-2.425-6.669-2.425-6.669c-1.884-6.055-0.595-9.332-0.595-9.332
			l8.272-2.89l0.286-0.646l0.91-2.055c0,0,1.597,3.548,5.688,3.614C31.964,16.646,31.097,48.895,32.11,54.626z"/>
		<path fill="none" stroke="#5E8BC7" stroke-linecap="round" stroke-linejoin="round" stroke-miterlimit="10" d="M47.082,18.622
			h0.038l-8.272-2.89l-0.287-0.646l-0.908-2.054c0,0-1.596,3.548-5.688,3.614c0,0-0.867,32.249,0.146,37.98
			c0,0,9.316-0.5,12.533-3.319L44.1,34.622c1.131-3.268,2.428-6.669,2.428-6.669c1.884-6.055,0.593-9.332,0.593-9.332L47.082,18.622
			L47.082,18.622z"/>
		<path fill="none" stroke="#5E8BC7" stroke-linecap="round" stroke-linejoin="round" stroke-miterlimit="10" d="M26.275,13.032
			c0,0,1.597,3.548,5.688,3.614c4.092-0.066,5.688-3.614,5.688-3.614C31.895,10.221,26.275,13.032,26.275,13.032z"/>
	</g>
</g>
</svg>
