<?xml version="1.0" encoding="utf-8"?>
<!-- Generator: Adobe Illustrator 16.0.0, SVG Export Plug-In . SVG Version: 6.00 Build 0)  -->
<!DOCTYPE svg PUBLIC "-//W3C//DTD SVG 1.1//EN" "http://www.w3.org/Graphics/SVG/1.1/DTD/svg11.dtd">
<svg version="1.1" id="Layer_1" xmlns="http://www.w3.org/2000/svg" xmlns:xlink="http://www.w3.org/1999/xlink" x="0px" y="0px"
	 width="64px" height="64px" viewBox="0 0 64 64" enable-background="new 0 0 64 64" xml:space="preserve">
<g id="Men_x2019_s_Shirt">
	<polygon fill="#BAD6EE" points="24.421,13.042 24.197,14.84 26.512,21.248 27.63,16.848 	"/>
	<polygon fill="#BAD6EE" points="37.883,13.704 38.438,14.84 36.123,21.248 34.675,17.51 	"/>
	<path fill="#BAD6EE" d="M37.327,12.559c-6.761-2.43-12.02,0-12.02,0l1.292,1.113c1.777-0.509,5.235-1.127,9.404,0.032
		L37.327,12.559z"/>
	<g>
		<g>
			<path fill="none" stroke="#5E8BC7" stroke-linecap="round" stroke-linejoin="round" stroke-miterlimit="10" d="M19.118,29.058
				l-1.958,4.243l-6.816-2.736l5.581-13.498l8.272-2.889l1.11-2.7c0,0,5.259-2.43,12.02,0l1.106,2.7l7.768,2.889l5.581,13.498
				l-6.816,2.736l-1.958-4.243h-0.002l0.846,21.09c-2.593,3.314-12.789,3.457-12.789,3.457c-10.971,0.336-12.711-3.457-12.711-3.457
				L19.118,29.058L19.118,29.058z"/>
			<path fill="none" stroke="#5E8BC7" stroke-linecap="round" stroke-linejoin="round" stroke-miterlimit="10" d="M25.308,11.479
				c0,0,5.259-2.43,12.02,0l-3.208,3.806l-1.438,0.734l0.146,1.528l-1.465,3.86l-1.928-3.86l0.012-1.528l-0.932-0.734L25.308,11.479
				z"/>
			<path fill="none" stroke="#5E8BC7" stroke-linecap="round" stroke-linejoin="round" stroke-miterlimit="10" d="M19.118,29.058
				l-1.958,4.243l-6.816-2.736l5.581-13.498l8.272-2.889l1.11-2.7l3.207,3.806l0.932,0.734l-0.012,1.528l1.928,3.86
				c0,0-0.869,26.453,0.144,32.185c-0.425,0.019-0.443,0.013-0.443,0.013c-10.971,0.336-12.711-3.457-12.711-3.457L19.118,29.058"/>
			<path fill="none" stroke="#5E8BC7" stroke-linecap="round" stroke-linejoin="round" stroke-miterlimit="10" d="M43.008,29.058
				l1.958,4.243l6.816-2.736l-5.581-13.498l-7.768-2.889l-1.106-2.7l-3.208,3.806l-1.438,0.734l0.146,1.528l-1.465,3.86
				c0,0-0.869,26.453,0.144,32.185c1.987-0.073,10.077-0.543,12.346-3.444l-0.846-21.089L43.008,29.058z"/>
			<path fill="none" stroke="#5E8BC7" stroke-linecap="round" stroke-linejoin="round" stroke-miterlimit="10" d="M32.863,44.443
				c0,0.091-0.073,0.166-0.166,0.166c-0.094,0-0.168-0.074-0.168-0.166c0-0.094,0.074-0.168,0.168-0.168
				C32.79,44.275,32.863,44.35,32.863,44.443z"/>
			<path fill="none" stroke="#5E8BC7" stroke-linecap="round" stroke-linejoin="round" stroke-miterlimit="10" d="M32.932,38.389
				c0,0.09-0.074,0.166-0.166,0.166c-0.093,0-0.168-0.076-0.168-0.166c0-0.096,0.075-0.168,0.168-0.168
				C32.857,38.221,32.932,38.293,32.932,38.389z"/>
			<path fill="none" stroke="#5E8BC7" stroke-linecap="round" stroke-linejoin="round" stroke-miterlimit="10" d="M32.998,33.166
				c0,0.09-0.076,0.166-0.168,0.166s-0.167-0.076-0.167-0.166c0-0.096,0.075-0.168,0.167-0.168S32.998,33.07,32.998,33.166z"/>
			<path fill="none" stroke="#5E8BC7" stroke-linecap="round" stroke-linejoin="round" stroke-miterlimit="10" d="M33.23,27.111
				c0,0.09-0.073,0.166-0.166,0.166c-0.092,0-0.168-0.076-0.168-0.166c0-0.095,0.076-0.168,0.168-0.168
				C33.157,26.943,33.23,27.016,33.23,27.111z"/>
			<path fill="none" stroke="#5E8BC7" stroke-linecap="round" stroke-linejoin="round" stroke-miterlimit="10" d="M37.327,11.479
				c-6.761-2.43-12.02,0-12.02,0l1.292,1.532c1.777-0.51,5.235-1.127,9.404,0.032L37.327,11.479z"/>
			
				<circle fill="none" stroke="#5E8BC7" stroke-linecap="round" stroke-linejoin="round" stroke-miterlimit="10" cx="33.398" cy="21.455" r="0.167"/>
			<polygon fill="none" stroke="#5E8BC7" stroke-linecap="round" stroke-linejoin="round" stroke-miterlimit="10" points="
				37.327,11.479 38.438,14.179 36.123,20.586 34.119,15.284 			"/>
			<polygon fill="none" stroke="#5E8BC7" stroke-linecap="round" stroke-linejoin="round" stroke-miterlimit="10" points="
				25.308,11.479 24.197,14.179 26.512,20.586 28.515,15.284 			"/>
		</g>
	</g>
</g>
</svg>
