<?xml version="1.0" encoding="utf-8"?>
<!-- Generator: Adobe Illustrator 16.0.0, SVG Export Plug-In . SVG Version: 6.00 Build 0)  -->
<!DOCTYPE svg PUBLIC "-//W3C//DTD SVG 1.1//EN" "http://www.w3.org/Graphics/SVG/1.1/DTD/svg11.dtd">
<svg version="1.1" id="Layer_1" xmlns="http://www.w3.org/2000/svg" xmlns:xlink="http://www.w3.org/1999/xlink" x="0px" y="0px"
	 width="64px" height="64px" viewBox="0 0 64 64" enable-background="new 0 0 64 64" xml:space="preserve">
<g id="Men_x2019_s_Vest">
	<path fill="#BAD6EE" d="M24.365,10.96v-0.588v5.577c0,2.456,3.36,5.519,7.503,5.519c4.144,0,7.502-3.063,7.502-5.519v-5.584v0.595
		v-0.595c0,4.145-3.358,7.437-7.502,7.437c-4.143,0-7.503-3.292-7.503-7.437V10.96z"/>
	<g>
		<path fill="none" stroke="#494949" stroke-linecap="round" stroke-linejoin="round" stroke-miterlimit="10" d="M39.371,8.976"/>
		<path fill="none" stroke="#494949" stroke-linecap="round" stroke-linejoin="round" stroke-miterlimit="10" d="M24.365,8.976"/>
		<g>
			<path fill="none" stroke="#5E8BC7" stroke-linecap="round" stroke-linejoin="round" stroke-miterlimit="10" d="M39.371,8.381
				L39.371,8.381h2.763v10.351c0,5.769,0.94,7.312,3.915,8.698v27.067H31.896h-0.028H17.715V27.429
				c2.975-1.386,3.915-2.929,3.915-8.698V8.381l2.735,0.007V8.381c0,4.145,3.36,7.437,7.503,7.437
				C36.012,15.818,39.371,12.525,39.371,8.381z"/>
			<path fill="none" stroke="#5E8BC7" stroke-linecap="round" stroke-linejoin="round" stroke-miterlimit="10" d="M24.365,8.976
				V8.388v5.577c0,4.145,3.36,7.503,7.503,7.503c4.144,0,7.502-3.359,7.502-7.503V8.381v0.595V8.381
				c0,4.145-3.358,7.437-7.502,7.437c-4.143,0-7.503-3.292-7.503-7.437V8.976z"/>
		</g>
	</g>
</g>
</svg>
