<?xml version="1.0" encoding="utf-8"?>
<!-- Generator: Adobe Illustrator 16.0.0, SVG Export Plug-In . SVG Version: 6.00 Build 0)  -->
<!DOCTYPE svg PUBLIC "-//W3C//DTD SVG 1.1//EN" "http://www.w3.org/Graphics/SVG/1.1/DTD/svg11.dtd">
<svg version="1.1" id="Layer_1" xmlns="http://www.w3.org/2000/svg" xmlns:xlink="http://www.w3.org/1999/xlink" x="0px" y="0px"
	 width="64px" height="64px" viewBox="0 0 64 64" enable-background="new 0 0 64 64" xml:space="preserve">
<g id="Men_x2019_s_Short">
	<rect x="15.321" y="16.922" fill="#BAD6EE" width="31.484" height="2.311"/>
	<g id="_x34_51">
		<polygon fill="none" stroke="#5E8BC7" stroke-linecap="round" stroke-linejoin="round" stroke-miterlimit="10" points="
			31.095,36.796 33.576,49.105 45.2,48.906 54.338,46.534 51.592,33.579 46.805,19.233 46.805,15.192 31.095,15.192 31.032,15.192 
			15.321,15.192 15.321,19.233 10.535,33.579 7.788,46.534 16.856,48.973 28.548,49.105 31.032,36.796 		"/>
		<path fill="none" stroke="#5E8BC7" stroke-linecap="round" stroke-linejoin="round" stroke-miterlimit="10" d="M31.064,19.233
			v17.563c0,0,2.764,0.358,3.204-4.108V19.233H31.064z"/>
		<polygon fill="none" stroke="#5E8BC7" stroke-linecap="round" stroke-linejoin="round" stroke-miterlimit="10" points="
			15.321,19.233 15.321,15.192 31.032,15.192 31.095,15.192 46.805,15.192 46.805,19.233 		"/>
	</g>
</g>
</svg>
