<?xml version="1.0" encoding="utf-8"?>
<!-- Generator: Adobe Illustrator 16.0.0, SVG Export Plug-In . SVG Version: 6.00 Build 0)  -->
<!DOCTYPE svg PUBLIC "-//W3C//DTD SVG 1.1//EN" "http://www.w3.org/Graphics/SVG/1.1/DTD/svg11.dtd">
<svg version="1.1" id="Layer_1" xmlns="http://www.w3.org/2000/svg" xmlns:xlink="http://www.w3.org/1999/xlink" x="0px" y="0px"
	 width="64px" height="64px" viewBox="0 0 64 64" enable-background="new 0 0 64 64" xml:space="preserve">
<g id="Men_x2019_s_Blazer">
	<path fill="#BAD6EE" d="M36.125,15.313c-3.902-1.454-7.903-0.284-7.903-0.284l3.53,20.424l0,0L36.125,15.313z"/>
	<g>
		<path fill="none" stroke="#5E8BC7" stroke-linecap="round" stroke-linejoin="round" stroke-miterlimit="10" d="M26.829,14.514"/>
		<g>
			<path fill="none" stroke="#5E8BC7" stroke-linecap="round" stroke-linejoin="round" stroke-miterlimit="10" d="M26.838,14.558"/>
			<path fill="none" stroke="#5E8BC7" stroke-linecap="round" stroke-linejoin="round" stroke-miterlimit="10" d="M55.257,42.189
				l1.402,3.73l-6.435,2.766l-1.457-3.838L42.916,30.8c0,0-0.027,7.519,0.385,19.321l-8.974,0.799l-1.767,0.132
				c-1.072,0-1.014-1.011-1.014-1.011c-0.405,0.896-1.528,0.878-1.528,0.878l-9.047-0.323c-0.35-11.77-0.165-19.715-0.165-19.715
				L15.07,44.93l-1.513,3.719l-6.453-2.75l1.568-3.709L18.946,17.18l7.855-2.622l1.048-1.047c0,0,2.634-1.49,8.647,0l1.049,1.047
				l7.857,2.622L55.257,42.189z"/>
			<path fill="none" stroke="#5E8BC7" stroke-linecap="round" stroke-linejoin="round" stroke-miterlimit="10" d="M31.547,50.042
				l-0.033-4.956c0,0,0.037-4.176,0.203-9.509l4.78-22.066l1.049,1.047l7.856,2.622l9.854,25.009l1.402,3.73l-6.435,2.766
				l-1.457-3.838L42.916,30.8c0,0-0.027,7.519,0.385,19.321l-8.974,0.799l-1.767,0.132C31.489,51.053,31.547,50.042,31.547,50.042z"
				/>
			<path fill="none" stroke="#5E8BC7" stroke-linecap="round" stroke-linejoin="round" stroke-miterlimit="10" d="M31.751,35.453
				L27.85,13.511l-1.048,1.047l-7.855,2.622L8.673,42.189l-1.568,3.709l6.453,2.75l1.513-3.719l5.736-14.047
				c0,0-0.185,7.945,0.165,19.715l9.047,0.323c0,0,1.123,0.017,1.528-0.878L31.751,35.453z"/>
			<path fill="none" stroke="#5E8BC7" stroke-linecap="round" stroke-linejoin="round" stroke-miterlimit="10" d="M36.497,13.511
				c-6.013-1.49-8.647,0-8.647,0l3.902,21.942l0,0L36.497,13.511z"/>
		</g>
		
			<line fill="none" stroke="#5E8BC7" stroke-linecap="round" stroke-linejoin="round" stroke-miterlimit="10" x1="23.671" y1="41.953" x2="29.188" y2="41.953"/>
		
			<line fill="none" stroke="#5E8BC7" stroke-linecap="round" stroke-linejoin="round" stroke-miterlimit="10" x1="34.436" y1="41.953" x2="39.953" y2="41.953"/>
	</g>
</g>
</svg>
