<?xml version="1.0" encoding="utf-8"?>
<!-- Generator: Adobe Illustrator 16.0.0, SVG Export Plug-In . SVG Version: 6.00 Build 0)  -->
<!DOCTYPE svg PUBLIC "-//W3C//DTD SVG 1.1//EN" "http://www.w3.org/Graphics/SVG/1.1/DTD/svg11.dtd">
<svg version="1.1" id="Layer_1" xmlns="http://www.w3.org/2000/svg" xmlns:xlink="http://www.w3.org/1999/xlink" x="0px" y="0px"
	 width="64px" height="64px" viewBox="0 0 64 64" enable-background="new 0 0 64 64" xml:space="preserve">
<g id="Scarf">
	<g>
		<path fill="#BAD6EE" d="M23.625,50.967c0,0-0.156,4.678,0.387,5.49"/>
		<path fill="#BAD6EE" d="M27.212,50.967c0,0,0.464,4.678,1.007,5.49"/>
		<path fill="#BAD6EE" d="M31.836,50.792c0,0,0.463,4.677,1.004,5.49"/>
		<path fill="#BAD6EE" d="M35.214,48.047c0,0,0.464,4.68,1.005,5.489"/>
		<g>
			<path fill="#BAD6EE" d="M30.299,26.023c0,0,5.863-3.618,5.527-7.654c0,0-0.11-4.772-5.45-4.509c0,0-3.164,0.178-4.47,4.697
				c0,0-2.099,8.654,11.394,11.999l-1.584,3.959c0,0-10.655-1.742-14.356-10.968c0,0-4.432-11.964,8.405-12.626
				c0,0,10.692-0.661,11.779,7.715c0,0,0.292,7.086-5.646,9.8"/>
			<path fill="#BAD6EE" d="M27.463,31.027c1.81,1.253,3.651,2.083,5.135,2.618H32.6c-0.076,4.946,2.614,14.229,2.614,14.229
				l-3.401,0.154v2.938h-8.194c-1.083-13.45,3.847-19.942,3.847-19.942"/>
		</g>
	</g>
	<g>
		<path fill="none" stroke="#5E8BC7" stroke-linecap="round" stroke-linejoin="round" stroke-miterlimit="10" d="M23.625,50.967
			c0,0-0.156,4.678,0.387,5.49"/>
		<path fill="none" stroke="#5E8BC7" stroke-linecap="round" stroke-linejoin="round" stroke-miterlimit="10" d="M27.212,50.967
			c0,0,0.464,4.678,1.007,5.49"/>
		<path fill="none" stroke="#5E8BC7" stroke-linecap="round" stroke-linejoin="round" stroke-miterlimit="10" d="M31.836,50.792
			c0,0,0.463,4.677,1.004,5.49"/>
		<path fill="none" stroke="#5E8BC7" stroke-linecap="round" stroke-linejoin="round" stroke-miterlimit="10" d="M35.214,48.047
			c0,0,0.464,4.68,1.005,5.489"/>
		<g>
			<path fill="none" stroke="#5E8BC7" stroke-linecap="round" stroke-linejoin="round" stroke-miterlimit="10" d="M30.299,26.023
				c0,0,5.863-3.618,5.527-7.654c0,0-0.11-4.772-5.45-4.509c0,0-3.809,0.122-3.902,5.113c0,0-1.024,7.738,11.5,9.9l-2.258,5.643
				c0,0-10.655-1.742-14.356-10.968c0,0-4.549-13.591,8.287-14.253c0,0,11.693-1.563,11.897,9.342c0,0,0.292,7.086-5.645,9.8"/>
			<path fill="none" stroke="#5E8BC7" stroke-linecap="round" stroke-linejoin="round" stroke-miterlimit="10" d="M27.463,31.027
				c1.81,1.253,3.651,2.083,5.135,2.618H32.6c-0.076,4.946,2.614,14.229,2.614,14.229l-3.401,0.154v2.938h-8.194
				c-1.083-13.45,3.847-19.942,3.847-19.942"/>
		</g>
	</g>
</g>
</svg>
