<?xml version="1.0" encoding="utf-8"?>
<!-- Generator: Adobe Illustrator 16.0.0, SVG Export Plug-In . SVG Version: 6.00 Build 0)  -->
<!DOCTYPE svg PUBLIC "-//W3C//DTD SVG 1.1//EN" "http://www.w3.org/Graphics/SVG/1.1/DTD/svg11.dtd">
<svg version="1.1" id="Layer_1" xmlns="http://www.w3.org/2000/svg" xmlns:xlink="http://www.w3.org/1999/xlink" x="0px" y="0px"
	 width="64px" height="64px" viewBox="0 0 64 64" enable-background="new 0 0 64 64" xml:space="preserve">
<g id="Skirt">
	<path fill="#BAD6EE" d="M27.143,18.772c0,0-0.777,15.764-8.384,27.893c0,0-6.716-0.783-10.367-5.031c0,0,6.729-6.055,8.729-13.413
		c0,0,2.788-8.765,4.614-11.543l0,0c0,0,2.57,1.392,5.401,2.095L27.143,18.772L27.143,18.772z"/>
	<path fill="#BAD6EE" d="M37.402,18.619c0,0,1.281,21.291,8.658,28.046l-0.037,0.149c4.99,0.226,9.535-4.916,9.535-4.916
		c-5.812-1.489-8.047-15.123-8.047-15.123c-2.421-7.93-4.012-10.344-4.012-10.344C41.991,17.502,38.871,18.245,37.402,18.619"/>
	<g>
		<path fill="none" stroke="#5E8BC7" stroke-linecap="round" stroke-linejoin="round" stroke-miterlimit="10" d="M23.155,14.708
			c0,0,7.67,5.363,18.697,0c0,0,4.319,3.948,5.66,12.068c0,0,2.235,13.633,8.047,15.123c0,0-4.545,5.142-9.535,4.916
			c0,0-0.433,0.795,0.037,1.418c0,0-3.763,0.668-5.254,2.233c0,0-3.277,1.339-4.619,0c0,0-2.756-0.298-4.095,0.595
			c0,0-2.684,0.82-6.408,0c0,0-4.258-4.06-7.758-3.166c0,0,0.532-0.11,0.831-1.229c0,0-6.716-0.783-10.367-5.031
			c0,0,6.729-6.055,8.729-13.413C17.121,28.221,20.576,17.011,23.155,14.708L23.155,14.708z"/>
		<path fill="none" stroke="#5E8BC7" stroke-linecap="round" stroke-linejoin="round" stroke-miterlimit="10" d="M27.612,16.549
			c2.408,0.599,5.69,0.884,9.586-0.114v-0.002c0,0,1.485,23.478,8.862,30.232l-0.037,0.149c0,0-0.433,0.795,0.037,1.418
			c0,0-3.763,0.668-5.254,2.233c0,0-3.277,1.339-4.619,0c0,0-2.756-0.298-4.095,0.595c0,0-2.684,0.82-6.408,0
			c0,0-4.258-4.06-7.758-3.166c0,0,0.532-0.11,0.831-1.229c7.606-12.129,8.858-30.116,8.858-30.116H27.612z"/>
		<path fill="none" stroke="#5E8BC7" stroke-linecap="round" stroke-linejoin="round" stroke-miterlimit="10" d="M27.617,16.549
			c0,0-1.252,17.987-8.858,30.116c0,0-6.716-0.783-10.367-5.031c0,0,6.729-6.055,8.729-13.413c0,0,3.455-11.21,6.034-13.513l0,0
			c0,0,1.625,1.137,4.457,1.841H27.617z"/>
		<path fill="none" stroke="#5E8BC7" stroke-linecap="round" stroke-linejoin="round" stroke-miterlimit="10" d="M37.198,16.433
			c0,0,1.485,23.478,8.862,30.232l-0.037,0.149c4.99,0.226,9.535-4.916,9.535-4.916c-5.812-1.489-8.047-15.123-8.047-15.123
			c-1.341-8.12-5.66-12.068-5.66-12.068c-1.629,0.793-3.186,1.351-4.653,1.727"/>
	</g>
</g>
</svg>
