<?xml version="1.0" encoding="utf-8"?>
<!-- Generator: Adobe Illustrator 16.0.0, SVG Export Plug-In . SVG Version: 6.00 Build 0)  -->
<!DOCTYPE svg PUBLIC "-//W3C//DTD SVG 1.1//EN" "http://www.w3.org/Graphics/SVG/1.1/DTD/svg11.dtd">
<svg version="1.1" id="Layer_1" xmlns="http://www.w3.org/2000/svg" xmlns:xlink="http://www.w3.org/1999/xlink" x="0px" y="0px"
	 width="64px" height="64px" viewBox="0 0 64 64" enable-background="new 0 0 64 64" xml:space="preserve">
<g id="Sweater">
	<path fill="#BAD6EE" d="M23.36,11.423l1.168-0.592c1.997,2.664,6.592,5.367,6.592,5.367h0.26c0,0,3.813-2.359,5.837-5.023
		l1.426,0.662c-3.308,3.576-7.21,5.85-7.21,5.85h-0.364C31.067,17.686,26.301,14.95,23.36,11.423z"/>
	<polygon fill="#BAD6EE" points="51.896,55.775 56.217,55.775 56.695,56.727 52.346,56.727 	"/>
	<polygon fill="#BAD6EE" points="12.379,55.775 8.059,55.775 7.579,56.727 11.931,56.727 	"/>
	<rect x="21.233" y="53.699" fill="#BAD6EE" width="19.955" height="1.185"/>
	<g>
		<g>
			<path fill="none" stroke="#5E8BC7" stroke-linecap="round" stroke-linejoin="round" stroke-miterlimit="10" d="M43.154,52.514
				c0-17.31,0.389-25.144,0.389-25.144l7.188,27.187h6.774L47.409,16.25c-2.177-2.855-3.625-3.387-3.625-3.387l-7.062-2.902
				c-2.021,2.664-5.351,4.544-5.351,4.544h-0.26c0,0-3.354-1.88-5.35-4.544L18.7,12.863c0,0-1.448,0.531-3.625,3.387L6.443,54.557
				h6.609l5.894-27.187c0,0,0.386,7.834,0.386,25.144h1.901v2.369h19.955v-2.369H43.154z"/>
		</g>
		<path fill="none" stroke="#5E8BC7" stroke-linecap="round" stroke-linejoin="round" stroke-miterlimit="10" d="M23.36,10.949
			l2.403-0.988c1.996,2.664,5.35,4.544,5.35,4.544h0.26c0,0,3.328-1.88,5.352-4.544l2.416,0.993
			c-2.668,3.735-7.716,6.627-7.716,6.627h-0.364C31.061,17.581,25.93,14.771,23.36,10.949z"/>
		<polygon fill="none" stroke="#5E8BC7" stroke-linecap="round" stroke-linejoin="round" stroke-miterlimit="10" points="
			12.163,54.557 7.844,54.557 7.363,56.727 11.715,56.727 		"/>
		<polygon fill="none" stroke="#5E8BC7" stroke-linecap="round" stroke-linejoin="round" stroke-miterlimit="10" points="
			51.896,54.557 56.217,54.557 56.695,56.727 52.346,56.727 		"/>
		
			<rect x="21.233" y="52.514" fill="none" stroke="#5E8BC7" stroke-linecap="round" stroke-linejoin="round" stroke-miterlimit="10" width="19.955" height="2.369"/>
	</g>
</g>
</svg>
