<?xml version="1.0" encoding="utf-8"?>
<!-- Generator: Adobe Illustrator 16.0.0, SVG Export Plug-In . SVG Version: 6.00 Build 0)  -->
<!DOCTYPE svg PUBLIC "-//W3C//DTD SVG 1.1//EN" "http://www.w3.org/Graphics/SVG/1.1/DTD/svg11.dtd">
<svg version="1.1" id="Layer_1" xmlns="http://www.w3.org/2000/svg" xmlns:xlink="http://www.w3.org/1999/xlink" x="0px" y="0px"
	 width="64px" height="64px" viewBox="0 0 64 64" enable-background="new 0 0 64 64" xml:space="preserve">
<g id="T-Shirt">
	<path fill="#BAD6EE" d="M48.771,17.634c-0.778-1.021-1.472-1.768-2.051-2.31l0.002,0.001c0,0-1.613,3.769-1.531,12.657l2.08,2.21
		c0.131,0.138,0.307,0.208,0.482,0.208c0.15,0,0.303-0.051,0.426-0.156l5.506-5.196L48.771,17.634z"/>
	<path fill="#BAD6EE" d="M17.042,15.324c-0.579,0.542-1.271,1.29-2.05,2.31l-4.913,7.415l5.505,5.196
		c0.124,0.105,0.275,0.156,0.426,0.156c0.177,0,0.353-0.07,0.482-0.208l2.079-2.21c0.083-8.888-1.53-12.657-1.53-12.657
		L17.042,15.324z"/>
	<path fill="#BAD6EE" d="M31.604,13.503l0.138-0.002l0.419,0.002c2.671-0.001,4.338-1.664,5.284-3.1
		c-2.498,1.566-5.421,1.447-5.421,1.447h-0.282c0,0-2.922,0.119-5.422-1.447C27.264,11.838,28.931,13.503,31.604,13.503z"/>
	<g>
		<path fill="none" stroke="#5E8BC7" stroke-linecap="round" stroke-linejoin="round" stroke-miterlimit="10" d="M32.023,55.046
			c6.213,0.104,12.792-0.687,12.792-0.687c0-18.793,0.42-27.297,0.42-27.297l2.52,2.677l7.35-6.193l-5.67-8.558
			c-2.363-3.097-3.936-3.674-3.936-3.674l-7.666-3.15c-2.572,1.838-5.809,1.702-5.809,1.702h-0.282c0,0-3.235,0.136-5.809-1.702
			l-7.666,3.15c0,0-1.575,0.578-3.936,3.674l-5.67,8.558l7.35,6.193l2.519-2.677c0,0,0.42,8.504,0.42,27.297
			c0,0,6.579,0.791,12.792,0.687H32.023z"/>
		<path fill="none" stroke="#5E8BC7" stroke-linecap="round" stroke-linejoin="round" stroke-miterlimit="10" d="M47.383,12.678
			c0.579,0.543,1.271,1.29,2.051,2.31l5.67,8.558l-7.35,6.193l-2.52-2.677C44.814,16.931,47.384,12.679,47.383,12.678L47.383,12.678
			z"/>
		<path fill="none" stroke="#5E8BC7" stroke-linecap="round" stroke-linejoin="round" stroke-miterlimit="10" d="M16.381,12.678
			c-0.579,0.543-1.272,1.29-2.051,2.31l-5.67,8.558l7.35,6.193l2.519-2.677C18.949,16.931,16.38,12.679,16.381,12.678L16.381,12.678
			z"/>
		<path fill="none" stroke="#5E8BC7" stroke-linecap="round" stroke-linejoin="round" stroke-miterlimit="10" d="M25.932,8.163
			c0,0,1.539,4.781,5.809,4.676h0.282c4.27,0.104,5.809-4.676,5.809-4.676l3.605,1.481c-0.244,0.888-2.166,6.907-9.369,6.904h-0.376
			c-7.204,0.003-9.124-6.022-9.366-6.905v0.001L25.932,8.163z"/>
		<path fill="none" stroke="#5E8BC7" stroke-linecap="round" stroke-linejoin="round" stroke-miterlimit="10" d="M37.832,8.163
			c0,0-1.54,4.781-5.809,4.676h-0.282c-4.271,0.104-5.809-4.676-5.809-4.676c2.574,1.838,5.809,1.702,5.809,1.702h0.282
			C32.023,9.865,35.26,10.001,37.832,8.163z"/>
	</g>
</g>
</svg>
