<?xml version="1.0" encoding="utf-8"?>
<!-- Generator: Adobe Illustrator 16.0.0, SVG Export Plug-In . SVG Version: 6.00 Build 0)  -->
<!DOCTYPE svg PUBLIC "-//W3C//DTD SVG 1.1//EN" "http://www.w3.org/Graphics/SVG/1.1/DTD/svg11.dtd">
<svg version="1.1" id="Layer_1" xmlns="http://www.w3.org/2000/svg" xmlns:xlink="http://www.w3.org/1999/xlink" x="0px" y="0px"
	 width="64px" height="64px" viewBox="0 0 64 64" enable-background="new 0 0 64 64" xml:space="preserve">
<g id="Tank_Top">
	<path fill="#BAD6EE" d="M36.089,24.93c0,0,1.333-1.452,2.063-7.684c0.395-3.377,0.228-1.504,0.228-1.504s0.076-1.198-0.001-1.633
		C33.868,14.213,36.089,24.93,36.089,24.93z"/>
	<path fill="#BAD6EE" d="M28.811,25.321L27.89,23.75c0,0-0.926-1.641-0.902-4.232c0,0-0.187-1.579,0.204-2.989
		c0,0-0.004-1.871,0.289-1.984C31.205,15.642,28.811,25.321,28.811,25.321z"/>
	<g>
		<g id="_x34_61">
			<path fill="none" stroke="#5E8BC7" stroke-linecap="round" stroke-linejoin="round" stroke-miterlimit="10" d="M37.537,11.753
				c0.541,0.214,0.771,1.538,0.771,1.538s0.237,0.578-0.156,3.955c-0.729,6.231-2.063,7.684-2.063,7.684s-1.249,1.937-3.866,1.937
				c-2.616,0-3.717-1.957-3.717-1.957l-0.616-1.16c0,0-0.926-1.641-0.902-4.232c0,0,0.119-4.308,0.51-5.718
				c0,0,0.461-1.719,0.754-1.832c-1.855-0.547-2.444,4.992-2.444,4.992c-0.125,1.12-0.812,4.299-0.812,4.299
				c-0.935,3.986-3.613,6.168-3.613,6.168c-0.748,0.436-0.499,1.433-0.499,1.433c0.438,2.741,1.435,4.984,1.435,4.984
				s1.619,5.981,0.747,10.279c-0.872,4.301-2.808,8.352-2.808,8.352c16.639,4.238,22.497,0.498,22.497,0.498
				s-2.057-5.918-2.308-9.348c-0.248-3.425,1.559-8.91,1.559-8.91c1.456-3.553,1.684-6.167,1.684-6.167
				c0.063-0.873-0.687-1.31-0.687-1.31c-4.298-2.365-3.735-10.717-3.735-10.717C39.337,11.123,37.537,11.753,37.537,11.753z"/>
		</g>
		<path fill="none" stroke="#5E8BC7" stroke-linecap="round" stroke-linejoin="round" stroke-miterlimit="10" d="M36.089,24.93
			c0,0,1.333-1.452,2.063-7.684c0.395-3.377,0.156-3.955,0.156-3.955s-0.229-1.324-0.771-1.538
			C33.088,11.729,36.089,24.93,36.089,24.93z"/>
		<path fill="none" stroke="#5E8BC7" stroke-linecap="round" stroke-linejoin="round" stroke-miterlimit="10" d="M28.811,25.321
			L27.89,23.75c0,0-0.926-1.641-0.902-4.232c0,0,0.119-4.308,0.51-5.718c0,0,0.461-1.719,0.754-1.832
			C31.976,13.065,28.811,25.321,28.811,25.321z"/>
		<path fill="none" stroke="#5E8BC7" stroke-linecap="round" stroke-linejoin="round" stroke-miterlimit="10" d="M28.808,25.323
			c0.484,0.575,1.575,1.543,3.415,1.543c2.617,0,3.866-1.937,3.866-1.937s-3.001-13.201,1.448-13.177c0,0,1.818-0.424,1.729,4.769
			c0,0-0.562,8.352,3.736,10.717c0,0,0.748,0.437,0.688,1.31c0,0-0.229,2.614-1.685,6.167c0,0-1.807,5.485-1.56,8.91
			c0.252,3.43,2.309,9.348,2.309,9.348s-5.857,3.74-22.497-0.498c0,0,1.936-4.051,2.808-8.352
			c0.872-4.298-0.747-10.279-0.747-10.279s-0.996-2.243-1.435-4.984c0,0-0.249-0.997,0.499-1.433c0,0,2.679-2.182,3.613-6.168
			c0,0,0.687-3.179,0.812-4.299c0,0,0.589-5.539,2.444-4.992c3.725,1.098,0.56,13.354,0.56,13.354L28.808,25.323z"/>
	</g>
</g>
</svg>
