<?xml version="1.0" encoding="utf-8"?>
<!-- Generator: Adobe Illustrator 16.0.0, SVG Export Plug-In . SVG Version: 6.00 Build 0)  -->
<!DOCTYPE svg PUBLIC "-//W3C//DTD SVG 1.1//EN" "http://www.w3.org/Graphics/SVG/1.1/DTD/svg11.dtd">
<svg version="1.1" id="Layer_1" xmlns="http://www.w3.org/2000/svg" xmlns:xlink="http://www.w3.org/1999/xlink" x="0px" y="0px"
	 width="64px" height="64px" viewBox="0 0 64 64" enable-background="new 0 0 64 64" xml:space="preserve">
<g id="Track_Pant">
	<path fill="#BAD6EE" d="M42.988,54.294l-1.896-23.5L39.48,12.525l0.045-1.799c0,0-2.563,1.219-8.307,1.347h-0.31
		c-5.745-0.128-8.274-1.347-8.274-1.347l0.012,1.799l-1.614,18.269l-1.896,23.5c0.734,0.142,3.049,0.526,6.116,0.418
		c0.024,0,0.044-0.012,0.067-0.017c0.363-5.07,1.83-23.204,4.724-30.321c0.32-1.03,0.659-1.929,1.02-2.639
		c0.362,0.712,0.702,1.614,1.023,2.648c2.892,7.124,4.358,25.244,4.722,30.313c0.021,0.005,0.043,0.016,0.066,0.017
		c0.363,0.013,0.717,0.019,1.059,0.019C40.463,54.73,42.337,54.42,42.988,54.294z"/>
	<g id="_x34_42">
		<path fill="none" stroke="#5E8BC7" stroke-linecap="round" stroke-linejoin="round" stroke-miterlimit="10" d="M31.107,20.514
			c0.05,0.075,0.212,0.321,0.262,0.407c3.893,6.518,5.529,33.131,5.529,33.131c3.613,0.126,6.195-0.454,6.195-0.454L41.092,28.81
			L39.48,10.541l0.045-1.799c0,0-2.563,1.219-8.307,1.347h-0.31c-5.745-0.128-8.274-1.347-8.274-1.347l0.012,1.799L21.032,28.81
			l-2,24.79c0,0,2.58,0.58,6.196,0.453c0,0,1.635-26.613,5.527-33.131c0.051-0.086,0.213-0.332,0.264-0.407L31.107,20.514
			L31.107,20.514z"/>
	</g>
</g>
</svg>
