<?xml version="1.0" encoding="utf-8"?>
<!-- Generator: Adobe Illustrator 16.0.0, SVG Export Plug-In . SVG Version: 6.00 Build 0)  -->
<!DOCTYPE svg PUBLIC "-//W3C//DTD SVG 1.1//EN" "http://www.w3.org/Graphics/SVG/1.1/DTD/svg11.dtd">
<svg version="1.1" id="Layer_1" xmlns="http://www.w3.org/2000/svg" xmlns:xlink="http://www.w3.org/1999/xlink" x="0px" y="0px"
	 width="64px" height="64px" viewBox="0 0 64 64" enable-background="new 0 0 64 64" xml:space="preserve">
<g id="Tunic_Dress">
	<path fill="#BAD6EE" d="M31.87,30.311l-1.521,3.296c0,0,4.2-0.58,4.66-0.787l0.806-5.973C33.859,27.867,31.87,30.311,31.87,30.311z
		"/>
	<path fill="#BAD6EE" d="M36.061,26.96c0,0,0.844-0.513,1.688,0l0.971,9.222l-4.603,2.914L36.061,26.96z"/>
	<path fill="#BAD6EE" d="M25.28,26.797c0,0-0.172,0.216-0.511,1.069l7.745,0.001c0,0,0.561-1.063,1.346-1.821
		c0,0-7.336-0.306-8.301-0.197L25.28,26.797z"/>
	<path fill="#BAD6EE" d="M29.988,24.369c1.442,0.057,2.987,0.146,4.175,0.288c-0.067-3.2,0.263-9.606,0.263-9.606
		c-0.555,0.178-1.257,0.3-2.153,0.322c-0.922,0.022-1.677-0.137-2.284-0.374l0.002,0.376C29.992,15.375,30.19,22.361,29.988,24.369z
		"/>
	<g>
		<path fill="none" stroke="#5E8BC7" stroke-linecap="round" stroke-linejoin="round" stroke-miterlimit="10" d="M37.283,9.723
			c0,0-0.283,1.537-0.614,1.922c-0.332,0.383-0.862,2.033-4.393,2.121c-3.147,0.076-4.353-1.97-4.353-1.97s-1.126-1.459-1.356-3.633
			c0,0-2.391,0.658-3.093,0.996c0,0,1.74,1.535,0.817,7.369c0,0,0.445,0.988,0.785,3.65l0.615,4.094c0,0-0.34,0.887-0.41,2.524
			c0,0-1.365,1.708-3.958,14.532c0,0-1.637,10.916-2.183,12.557c0,0,0.545,0.477,1.842,0.682c1.296,0.203,3.138-0.067,3.412,0.476
			v0.479c0,0,3.343,0.479,4.162,0c0,0,1.433-0.26,2.114,0.211v0.539c0,0,4.094,0.478,4.23-0.271c0,0,1.773-0.409,2.115-0.275
			l4.043-0.393v-0.234l3.564-0.586c0,0-1.756-10.502-2.525-15.725c0,0-1.228-8.29-3.324-12.434c0,0,0.151-0.359-0.181-0.768
			c0,0-0.229-1.434-0.127-1.869l0.847-4.783c0,0,0.563-1.984,0.815-2.161c0,0-0.983-4.526,0.505-7.958L37.23,8.163
			C37.23,8.163,37.419,9.088,37.283,9.723z"/>
		<polygon fill="none" stroke="#5E8BC7" stroke-linecap="round" stroke-linejoin="round" stroke-miterlimit="10" points="
			38.445,24.818 37.749,25.075 37.332,24.896 38.445,24.272 		"/>
		<path fill="none" stroke="#5E8BC7" stroke-linecap="round" stroke-linejoin="round" stroke-miterlimit="10" d="M24.769,27.866
			c0.339-0.854,0.511-1.069,0.511-1.069c0.07-1.638,0.41-2.524,0.41-2.524s9.042,0.033,10.371,0.803c0,0,0.844-0.513,1.688,0
			l0.971,11.105l-4.603,2.914l0.728-6.226c-0.46,0.206-4.497,0.737-4.497,0.737l2.167-5.74L24.769,27.866z"/>
		<path fill="none" stroke="#5E8BC7" stroke-linecap="round" stroke-linejoin="round" stroke-miterlimit="10" d="M32.514,27.867
			l-2.166,5.74c0,0,4.2-0.582,4.66-0.787l1.051-7.745C34.372,25.075,32.514,27.867,32.514,27.867z"/>
		<path fill="none" stroke="#5E8BC7" stroke-linecap="round" stroke-linejoin="round" stroke-miterlimit="10" d="M36.061,25.075
			c0,0,0.844-0.513,1.688,0l0.971,11.104l-4.603,2.914L36.061,25.075z"/>
		<path fill="none" stroke="#5E8BC7" stroke-linecap="round" stroke-linejoin="round" stroke-miterlimit="10" d="M36.061,25.075
			c-1.328-0.77-10.371-0.803-10.371-0.803s-0.34,0.887-0.41,2.524c0,0-0.172,0.216-0.511,1.069l7.745,0.001
			C32.514,27.867,34.372,25.075,36.061,25.075z"/>
		<path fill="none" stroke="#5E8BC7" stroke-linecap="round" stroke-linejoin="round" stroke-miterlimit="10" d="M29.988,24.369
			c1.442,0.057,2.987,0.146,4.175,0.288c-0.067-3.2,0.267-11.214,0.267-11.214c-0.556,0.177-1.259,0.3-2.154,0.322
			c-0.921,0.022-1.676-0.137-2.283-0.375l0,0C29.992,13.391,30.19,22.361,29.988,24.369z"/>
		
			<circle fill="none" stroke="#5E8BC7" stroke-linecap="round" stroke-linejoin="round" stroke-miterlimit="10" cx="32.114" cy="19.018" r="0.244"/>
		
			<circle fill="none" stroke="#5E8BC7" stroke-linecap="round" stroke-linejoin="round" stroke-miterlimit="10" cx="32.115" cy="22.447" r="0.244"/>
		<path fill="none" stroke="#5E8BC7" stroke-linecap="round" stroke-linejoin="round" stroke-miterlimit="10" d="M32.359,16.064
			c0,0.136-0.109,0.246-0.244,0.246c-0.134,0-0.245-0.11-0.245-0.246c0-0.133,0.111-0.244,0.245-0.244
			C32.25,15.82,32.359,15.932,32.359,16.064z"/>
		<path fill="none" stroke="#5E8BC7" stroke-linecap="round" stroke-linejoin="round" stroke-miterlimit="10" d="M29.988,24.369
			c0.202-2.008,0.004-10.979,0.004-10.979l0,0h-0.001c-1.466-0.572-2.069-1.595-2.069-1.595s-1.126-1.459-1.356-3.633
			c0,0-2.391,0.658-3.093,0.996c0,0,1.74,1.535,0.817,7.369c0,0,0.445,0.988,0.785,3.65l0.615,4.094
			C25.69,24.272,27.699,24.278,29.988,24.369z"/>
		<path fill="none" stroke="#5E8BC7" stroke-linecap="round" stroke-linejoin="round" stroke-miterlimit="10" d="M38.384,24.272
			l-1.114,0.624v0.001c-0.685-0.179-1.271,0.178-1.271,0.178c-0.301-0.175-0.998-0.31-1.896-0.418
			c-0.067-3.2,0.266-11.214,0.266-11.214c1.633-0.521,1.992-1.513,2.24-1.799c0.33-0.385,0.613-1.922,0.613-1.922
			c0.137-0.635-0.053-1.56-0.053-1.56l3.402,0.651c-1.487,3.432-0.504,7.958-0.504,7.958c-0.254,0.177-0.816,2.161-0.816,2.161
			l-0.846,4.783C38.371,23.859,38.367,24.001,38.384,24.272z"/>
		<path fill="none" stroke="#5E8BC7" stroke-linecap="round" stroke-linejoin="round" stroke-miterlimit="10" d="M30.67,27.867
			v10.816c-1.45,11.891,0,17.049,0,17.049c-0.681-0.471-2.114-0.211-2.114-0.211c-0.819,0.479-4.162,0-4.162,0v-0.479v0.479
			c0,0,0.871-14.28,1.586-21.031l1.051-6.623H30.67z"/>
		<path fill="none" stroke="#5E8BC7" stroke-linecap="round" stroke-linejoin="round" stroke-miterlimit="10" d="M27.032,27.867
			L25.98,34.49c-0.716,6.751-1.586,21.031-1.586,21.031v-0.479c-0.274-0.543-2.116-0.271-3.412-0.476s-1.842-0.682-1.842-0.682
			c0.545-1.641,2.183-12.557,2.183-12.557c1.671-8.268,2.832-11.915,3.446-13.463L27.032,27.867z"/>
		<path fill="none" stroke="#5E8BC7" stroke-linecap="round" stroke-linejoin="round" stroke-miterlimit="10" d="M34.902,38.598"/>
		<polygon fill="none" stroke="#5E8BC7" stroke-linecap="round" stroke-linejoin="round" stroke-miterlimit="10" points="
			32.514,27.867 30.67,32.755 30.67,27.867 		"/>
		<path fill="none" stroke="#5E8BC7" stroke-linecap="round" stroke-linejoin="round" stroke-miterlimit="10" d="M34.9,56
			c-0.137,0.749-4.23,0.271-4.23,0.271v-0.539c0,0-1.45-5.158,0-17.049l0.04-5.129c1.029-0.146,3.921-0.565,4.299-0.734
			l-0.892,6.273l0.785-0.498l0.01,0.02C34.912,38.615,35.379,52.841,34.9,56z"/>
		<path fill="none" stroke="#5E8BC7" stroke-linecap="round" stroke-linejoin="round" stroke-miterlimit="10" d="M41.061,55.098
			v0.234l-4.045,0.393C36.675,55.591,34.9,56,34.9,56c0.479-3.159,0.012-17.385,0.012-17.385l3.375-2.161
			c0.303,2.284,1.37,4.308,1.466,7.026C39.753,43.48,40.018,52.148,41.061,55.098z"/>
		<path fill="none" stroke="#5E8BC7" stroke-linecap="round" stroke-linejoin="round" stroke-miterlimit="10" d="M37.697,24.657
			l1.023,11.522c0,0-0.434,0.274-0.434,0.273c0.303,2.283,1.37,4.308,1.466,7.025c0,0,0.265,8.67,1.308,11.617l3.563-0.586
			c0,0-1.756-10.502-2.524-15.725c0,0-1.229-8.29-3.324-12.434c0,0,0.15-0.359-0.182-0.768c0,0-0.117-0.741-0.146-1.319
			L37.697,24.657z"/>
	</g>
</g>
</svg>
