<?xml version="1.0" encoding="utf-8"?>
<!-- Generator: Adobe Illustrator 16.0.0, SVG Export Plug-In . SVG Version: 6.00 Build 0)  -->
<!DOCTYPE svg PUBLIC "-//W3C//DTD SVG 1.1//EN" "http://www.w3.org/Graphics/SVG/1.1/DTD/svg11.dtd">
<svg version="1.1" id="Layer_1" xmlns="http://www.w3.org/2000/svg" xmlns:xlink="http://www.w3.org/1999/xlink" x="0px" y="0px"
	 width="64px" height="64px" viewBox="0 0 64 64" enable-background="new 0 0 64 64" xml:space="preserve">
<g id="Woman_x2019_s_Coat">
	<path fill="#BAD6EE" d="M32.37,33.577C32.284,33.85,32.44,33.264,32.37,33.577c-5.764-4.741-7.186-10.507-7.186-10.507l1.173-0.51
		c0,0-1.173-3.969,0.882-7.496l0.25,1.268l0.288-0.11C27.777,16.222,26.855,26.892,32.37,33.577z"/>
	<path fill="#BAD6EE" d="M31.641,33.328c0.085,0.271,0.146-0.082,0.216,0.23c4.81-4.99,6.999-10.488,6.999-10.488l-1.17-0.516
		c0,0,1.431-3.946-0.607-7.483l-0.256,1.267l-0.288-0.111C36.533,16.228,36.667,26.502,31.641,33.328z"/>
	<path fill="#BAD6EE" d="M27.817,15.43c0,0-0.962,12.564,4.552,19.251c0,0,4.751-10.507,3.943-19.251
		c-1.984,1.322-4.188,1.396-4.188,1.396h-0.12C32.006,16.826,29.802,16.752,27.817,15.43z"/>
	<g>
		<path fill="none" stroke="#5E8BC7" stroke-linecap="round" stroke-linejoin="round" stroke-miterlimit="10" d="M31.842,48.751
			c-0.484,1.854-1.116,2.515-1.116,2.515l-0.31,0.082c-4.813,0.688-11.93-4.509-11.93-4.509c4.666-12.47,1.352-19.748,1.352-19.748
			l-6.2,15.89c-4.463,0.723-6.079-3.269-6.079-3.269l9.257-22.335l9.972-2.903l1.028-1.028c1.985,1.322,4.188,1.396,4.188,1.396
			h0.12c0,0,2.203-0.074,4.188-1.396l1.028,1.028l9.606,2.903l9.255,22.335c0,0-1.521,3.326-5.71,3.269l-6.311-15.083
			c0,0-3.277,8.956,0.525,19.415c0,0-7.284,4.797-11.284,4.101C33.425,51.412,32.426,51.266,31.842,48.751L31.842,48.751z"/>
		<path fill="none" stroke="#5E8BC7" stroke-linecap="round" stroke-linejoin="round" stroke-miterlimit="10" d="M31.842,48.751
			c0.584,2.515,1.583,2.661,1.583,2.661c4,0.695,11.284-4.1,11.284-4.1c-3.803-10.461-0.525-19.416-0.525-19.416l6.311,15.083
			c4.189,0.058,5.71-3.27,5.71-3.27l-9.255-22.335l-9.606-2.903l-1.028-1.028c0.808,8.745-3.944,19.25-3.944,19.25
			c-0.086,0.272-0.164,0.568-0.236,0.882c-0.912,3.989-0.714,10.874-0.714,10.874C31.42,46.288,31.61,47.752,31.842,48.751z"/>
		<path fill="none" stroke="#5E8BC7" stroke-linecap="round" stroke-linejoin="round" stroke-miterlimit="10" d="M32.37,32.695
			c-0.086,0.272-0.164,0.568-0.235,0.882c-6.439-3.051-9.526-12.075-9.526-12.075l1.614-0.367c0,0-0.964-2.174,1.801-6.438
			l0.767-0.224l1.028-1.028C27.817,13.445,26.855,26.01,32.37,32.695z"/>
		<path fill="none" stroke="#5E8BC7" stroke-linecap="round" stroke-linejoin="round" stroke-miterlimit="10" d="M36.313,13.445
			c0.809,8.745-3.943,19.25-3.943,19.25c-0.086,0.272-0.164,0.568-0.236,0.882c5.911-4.106,9.066-12.075,9.066-12.075l-1.615-0.367
			c0,0,1.029-2.243-1.732-6.507l-0.51-0.154L36.313,13.445z"/>
		<path fill="none" stroke="#5E8BC7" stroke-linecap="round" stroke-linejoin="round" stroke-miterlimit="10" d="M32.37,32.695
			c-5.515-6.687-4.552-19.25-4.552-19.25l-1.028,1.028l-9.972,2.903L7.56,39.712c0,0,1.615,3.99,6.079,3.269l6.2-15.89
			c0,0,3.314,7.278-1.352,19.748c0,0,7.117,5.197,11.93,4.509l0.31-0.082c0,0,0.632-0.66,1.116-2.515
			c-0.232-0.999-0.421-2.463-0.422-4.3c0,0-0.197-6.885,0.714-10.874C32.206,33.264,32.284,32.969,32.37,32.695z"/>
		<path fill="none" stroke="#5E8BC7" stroke-linecap="round" stroke-linejoin="round" stroke-miterlimit="10" d="M27.817,13.445
			c0,0-0.962,12.564,4.552,19.25c0,0,4.751-10.505,3.943-19.25c-1.984,1.322-4.188,1.396-4.188,1.396h-0.12
			C32.006,14.842,29.802,14.768,27.817,13.445z"/>
	</g>
</g>
</svg>
