<?xml version="1.0" encoding="utf-8"?>
<!-- Generator: Adobe Illustrator 16.0.0, SVG Export Plug-In . SVG Version: 6.00 Build 0)  -->
<!DOCTYPE svg PUBLIC "-//W3C//DTD SVG 1.1//EN" "http://www.w3.org/Graphics/SVG/1.1/DTD/svg11.dtd">
<svg version="1.1" id="Layer_1" xmlns="http://www.w3.org/2000/svg" xmlns:xlink="http://www.w3.org/1999/xlink" x="0px" y="0px"
	 width="64px" height="64px" viewBox="0 0 64 64" enable-background="new 0 0 64 64" xml:space="preserve">
<g id="Woman_x2019_s_Pant">
	<g>
		<path fill="#BAD6EE" d="M30.817,25.642l0.124-0.005c-0.021-0.066-0.042-0.135-0.062-0.196
			C30.859,25.503,30.839,25.574,30.817,25.642z"/>
		<path fill="#BAD6EE" d="M28.063,37.646c0,0-1.423,5.322-1.573,9.521c0,0-0.063,4.58-0.504,7.273
			c0.118-0.072,0.217-0.181,0.271-0.316c0.778-1.965,0.885-8.227,0.894-8.918c0.146-4.073,1.537-9.322,1.552-9.375
			c0.008-0.032,0.014-0.064,0.018-0.098c0.479-4.309,1.466-8.022,2.097-10.094l-0.045,0.002
			C30.772,25.644,28.814,30.897,28.063,37.646z"/>
		<path fill="#BAD6EE" d="M33.753,37.646c-0.748-6.75-2.79-12.013-2.79-12.013l-0.021,0.002c0.654,2.068,1.676,5.785,2.154,10.099
			c0.004,0.033,0.01,0.065,0.02,0.1c0.014,0.052,1.406,5.301,1.552,9.369c0.008,0.27,0.198,6.643,1.062,8.914
			c0.049,0.129,0.14,0.23,0.246,0.305c-0.518-2.777-0.646-7.253-0.646-7.253C35.178,42.971,33.753,37.646,33.753,37.646z"/>
		<polygon fill="#BAD6EE" points="24.521,12.84 24.524,12.843 24.524,12.84 		"/>
		<path fill="#BAD6EE" d="M40.052,35.248c0,0-0.823-3.45-0.446-7.349c0,0,1.422-7.573-1.578-13.347l-0.426-1.713
			c0,0-1.619,1.713-6.733,2.087c-0.508,0-4.404-0.002-6.343-2.084l-0.429,1.71c-2.998,5.773-1.573,13.347-1.573,13.347
			c0.376,3.898-0.451,7.349-0.451,7.349c-2.061,4.912-2.209,14.677-2.191,18.23c0.004,0,0.006,0.002,0.009,0.002l5.632,1.053
			c0.04,0.007,0.082,0.011,0.122,0.011c0.124,0,0.241-0.038,0.344-0.101c0.441-2.694,0.504-7.274,0.504-7.274
			c0.15-4.198,1.573-9.522,1.573-9.522c0.751-6.749,2.709-12.002,2.709-12.002l0.045-0.002c0.021-0.067,0.042-0.139,0.063-0.201
			c0.02,0.062,0.041,0.13,0.062,0.196l0.021-0.002c0,0,2.042,5.263,2.79,12.012c0,0,1.425,5.324,1.575,9.522
			c0,0,0.128,4.476,0.646,7.253c0.14,0.096,0.311,0.145,0.487,0.111l5.784-1.033C42.266,49.961,42.118,40.169,40.052,35.248z"/>
	</g>
	<g id="_x34_63">
		<path fill="none" stroke="#5E8BC7" stroke-linecap="round" stroke-linejoin="round" stroke-miterlimit="10" d="M37.602,10.855
			l0.426,1.713c3,5.773,1.578,13.347,1.578,13.347c-0.377,3.898,0.446,7.349,0.446,7.349c2.55,6.073,2.177,19.567,2.177,19.567
			l-5.883,1.051c-0.832-2.192-1.018-8.696-1.018-8.696c-0.15-4.199-1.575-9.522-1.575-9.522c-0.748-6.749-2.79-12.012-2.79-12.012
			l-0.19,0.009c0,0-1.958,5.254-2.709,12.003c0,0-1.423,5.323-1.573,9.522c0,0-0.092,6.789-0.848,8.696l-5.716-1.067l-0.028,0.018
			c0,0-0.374-13.494,2.173-19.566c0,0,0.827-3.451,0.451-7.35c0,0-1.425-7.573,1.573-13.347l0.429-1.713h-0.003
			c1.938,2.085,5.838,2.087,6.346,2.087C35.982,12.568,37.602,10.855,37.602,10.855z"/>
	</g>
</g>
</svg>
