<?xml version="1.0" encoding="utf-8"?>
<!-- Generator: Adobe Illustrator 16.0.0, SVG Export Plug-In . SVG Version: 6.00 Build 0)  -->
<!DOCTYPE svg PUBLIC "-//W3C//DTD SVG 1.1//EN" "http://www.w3.org/Graphics/SVG/1.1/DTD/svg11.dtd">
<svg version="1.1" id="Layer_1" xmlns="http://www.w3.org/2000/svg" xmlns:xlink="http://www.w3.org/1999/xlink" x="0px" y="0px"
	 width="64px" height="64px" viewBox="0 0 64 64" enable-background="new 0 0 64 64" xml:space="preserve">
<g id="Woman_x2019_s_Shirt">
	<g>
		<path fill="#BAD6EE" d="M8.424,47.15c0,0,0.005,1.369-0.345,2.582l4.936,0.836c0.037,0.006,0.074,0.009,0.11,0.009
			c0.209,0,0.404-0.101,0.528-0.265c0.161-0.487-0.005-1.447,0.161-1.963L8.424,47.15z"/>
		<path fill="#BAD6EE" d="M49.621,48.35c0.166,0.517,0.344,1.479,0.505,1.967c0.124,0.162,0.317,0.262,0.524,0.262
			c0.037,0,0.074-0.003,0.111-0.01l4.922-0.836c-0.349-1.211-0.688-2.58-0.688-2.58L49.621,48.35z"/>
	</g>
	<polygon fill="#BAD6EE" points="25.25,12.811 25.026,14.608 27.341,21.017 28.459,16.617 	"/>
	<polygon fill="#BAD6EE" points="38.712,13.472 39.268,14.608 36.953,21.017 35.504,17.278 	"/>
	<path fill="#BAD6EE" d="M38.157,12.327c-6.762-2.43-12.021,0-12.021,0l1.292,1.113c1.778-0.509,5.236-1.127,9.405,0.032
		L38.157,12.327z"/>
	<g>
		<path fill="none" stroke="#5E8BC7" stroke-linecap="round" stroke-linejoin="round" stroke-miterlimit="10" d="M54.997,45.585
			c0,0,0.599,1.681,1.022,3.419l-5.367,0.912c0,0-0.563-1.68-1.031-3.132h0.005l-5.791-17.958l0.845,21.09
			c-2.592,3.314-12.788,3.457-12.788,3.457c-10.971,0.336-12.712-3.457-12.712-3.457l0.768-21.09l-5.79,17.958
			c-0.469,1.452-1.033,3.132-1.033,3.132l-5.382-0.912c0.426-1.738,1.026-3.419,1.026-3.419l7.985-28.749l8.272-2.889l1.11-2.7
			c0,0,5.259-2.43,12.021,0l1.104,2.7l7.77,2.889l7.984,28.749H54.997z"/>
		<path fill="none" stroke="#5E8BC7" stroke-linecap="round" stroke-linejoin="round" stroke-miterlimit="10" d="M26.137,11.247
			c0,0,5.259-2.43,12.021,0l-3.208,3.806l-1.438,0.734l0.147,1.528l-1.465,3.86l-1.928-3.86l0.012-1.528l-0.931-0.734L26.137,11.247
			z"/>
		<path fill="none" stroke="#5E8BC7" stroke-linecap="round" stroke-linejoin="round" stroke-miterlimit="10" d="M33.693,44.212
			c0,0.09-0.074,0.166-0.166,0.166c-0.094,0-0.168-0.075-0.168-0.166c0-0.095,0.074-0.169,0.168-0.169
			C33.619,44.043,33.693,44.117,33.693,44.212z"/>
		<path fill="none" stroke="#5E8BC7" stroke-linecap="round" stroke-linejoin="round" stroke-miterlimit="10" d="M33.76,38.157
			c0,0.091-0.074,0.166-0.166,0.166s-0.168-0.075-0.168-0.166c0-0.095,0.076-0.168,0.168-0.168S33.76,38.063,33.76,38.157z"/>
		<path fill="none" stroke="#5E8BC7" stroke-linecap="round" stroke-linejoin="round" stroke-miterlimit="10" d="M33.828,32.936
			c0,0.09-0.076,0.166-0.168,0.166s-0.166-0.076-0.166-0.166c0-0.096,0.074-0.168,0.166-0.168S33.828,32.84,33.828,32.936z"/>
		<path fill="none" stroke="#5E8BC7" stroke-linecap="round" stroke-linejoin="round" stroke-miterlimit="10" d="M34.061,26.879
			c0,0.09-0.074,0.166-0.166,0.166c-0.093,0-0.168-0.076-0.168-0.166c0-0.095,0.076-0.168,0.168-0.168S34.061,26.785,34.061,26.879z
			"/>
		
			<circle fill="none" stroke="#5E8BC7" stroke-linecap="round" stroke-linejoin="round" stroke-miterlimit="10" cx="34.229" cy="21.224" r="0.167"/>
		<path fill="none" stroke="#5E8BC7" stroke-linecap="round" stroke-linejoin="round" stroke-miterlimit="10" d="M14.159,46.784
			c-0.469,1.452-1.033,3.132-1.033,3.132l-5.382-0.912c0.426-1.738,1.026-3.419,1.026-3.419L14.159,46.784z"/>
		<path fill="none" stroke="#5E8BC7" stroke-linecap="round" stroke-linejoin="round" stroke-miterlimit="10" d="M49.621,46.784
			c0.468,1.452,1.031,3.132,1.031,3.132l5.367-0.912c-0.424-1.738-1.022-3.419-1.022-3.419L49.621,46.784z"/>
		<polygon fill="none" stroke="#5E8BC7" stroke-linecap="round" stroke-linejoin="round" stroke-miterlimit="10" points="
			26.137,11.247 25.026,13.947 27.341,20.355 29.345,15.053 		"/>
		<polygon fill="none" stroke="#5E8BC7" stroke-linecap="round" stroke-linejoin="round" stroke-miterlimit="10" points="
			38.157,11.247 39.268,13.947 36.953,20.355 34.949,15.053 		"/>
		<path fill="none" stroke="#5E8BC7" stroke-linecap="round" stroke-linejoin="round" stroke-miterlimit="10" d="M32.335,53.359
			c1.987-0.072,10.077-0.543,12.345-3.443l-0.845-21.09l5.791,17.958h-0.005c0.468,1.452,1.031,3.132,1.031,3.132l5.367-0.912
			c-0.424-1.738-1.022-3.419-1.022-3.419h0.021l-7.985-28.749l-7.769-2.889l-1.105-2.7l-3.208,3.806l-1.438,0.734l0.147,1.528
			l-1.465,3.86C32.192,21.175,31.322,47.628,32.335,53.359z"/>
		<path fill="none" stroke="#5E8BC7" stroke-linecap="round" stroke-linejoin="round" stroke-miterlimit="10" d="M32.335,53.359
			c-1.013-5.731-0.144-32.185-0.144-32.185l-1.928-3.86l0.012-1.528l-0.931-0.734l-3.208-3.806l-1.11,2.7l-8.272,2.889L8.769,45.585
			c0,0-0.6,1.681-1.026,3.419l5.382,0.912c0,0,0.564-1.68,1.033-3.132l5.79-17.958l-0.768,21.09c0,0,1.741,3.793,12.712,3.457
			C31.893,53.373,31.911,53.378,32.335,53.359z"/>
		<path fill="none" stroke="#5E8BC7" stroke-linecap="round" stroke-linejoin="round" stroke-miterlimit="10" d="M38.157,11.247
			c-6.762-2.43-12.021,0-12.021,0l1.292,1.532c1.778-0.51,5.236-1.127,9.405,0.032L38.157,11.247z"/>
	</g>
</g>
</svg>
