<?xml version="1.0" encoding="utf-8"?>
<!-- Generator: Adobe Illustrator 16.0.0, SVG Export Plug-In . SVG Version: 6.00 Build 0)  -->
<!DOCTYPE svg PUBLIC "-//W3C//DTD SVG 1.1//EN" "http://www.w3.org/Graphics/SVG/1.1/DTD/svg11.dtd">
<svg version="1.1" id="Layer_1" xmlns="http://www.w3.org/2000/svg" xmlns:xlink="http://www.w3.org/1999/xlink" x="0px" y="0px"
	 width="64px" height="64px" viewBox="0 0 64 64" enable-background="new 0 0 64 64" xml:space="preserve">
<g id="Woman_x2019_s_Collared_T-shirt">
	<rect x="31.977" y="16.963" fill="#BAD6EE" width="1.854" height="7.704"/>
	<path fill="#BAD6EE" d="M30.323,16.276c-1.092-0.01-1.009,1.646-1.009,1.646c-4.308-1.749-4.846-5.995-4.846-5.995l0.767-1.005
		c0,0,0.192,1.378,1.991,3.468c0.48,0.56,1.867,1.355,2.97,1.438L30.323,16.276z"/>
	<path fill="#BAD6EE" d="M35.594,15.883c1.272-0.737,1.415-0.756,2.092-1.43c1.551-1.547,1.496-2.87,1.496-2.87l0.961,0.469
		c0,0,0.225,3.418-4.015,5.552L35.594,15.883z"/>
	<g>
		<g>
			<path fill="none" stroke="#5E8BC7" stroke-linecap="round" stroke-linejoin="round" stroke-miterlimit="10" d="M43.52,38.258
				c0,0,3.797,5.885,2.422,16.46c-15.875,4.577-27.048-0.065-27.048-0.065c-1.752-9.396,1.979-14.959,2.874-17.471
				c0.897-2.513-0.673-5.16-0.673-5.16c-1.964-2.575-1.239-5.992-1.239-5.992c0.104-1.066,0.104-1.924,0.104-1.924l-0.751,1.924
				c0,0-4.481,0.427-5.975-0.854c0.426-2.989,2.138-8.438,2.453-9.396c0.324-0.965,1.068-1.707,2.352-2.458
				c1.284-0.744,2.563-1.173,3.629-1.28c1.072-0.106,1.924,0,2.461-0.531c0.535-0.536,1.601-1.926,1.601-1.926
				s1.576,3.071,2.326,3.713c0.746,0.643,3.654,1.842,5.683,1.413c2.025-0.427,3.52-1.389,3.947-2.241
				c0.431-0.852,0.532-2.35,0.532-2.35l1.927,1.601c0,0,2.239,0.321,3.633,0.321c1.387,0,3.949,0.642,4.377,2.353
				c0.425,1.706,2.455,10.675,2.563,11.209c0.105,0.536-2.563,1.922-5.234,1.497c-0.853-0.319-0.853-0.319-0.853-0.319
				s-0.442-2.29-0.342-0.776c0.012,0.181,0.241,0.896,0.2,1.488c0,0,0.125,2.467-1.573,4.845
				C41.566,34.221,43.52,38.258,43.52,38.258z"/>
		</g>
		
			<rect x="31.977" y="14.979" fill="none" stroke="#5E8BC7" stroke-linecap="round" stroke-linejoin="round" stroke-miterlimit="10" width="1.854" height="9.688"/>
		<path fill="none" stroke="#5E8BC7" stroke-linecap="round" stroke-linejoin="round" stroke-miterlimit="10" d="M40.143,11.72
			c0,0,0.686,3.797-4.158,5.95c0,0-0.176-3.118-2.961-2.691h-1.046c-2.395-0.538-2.718,2.691-2.718,2.691
			c-4.308-1.75-4.925-6.381-4.925-6.381l1.394-1.705c0,0,1.576,3.071,2.326,3.713c0.746,0.643,3.654,1.842,5.684,1.413
			c2.023-0.427,3.519-1.389,3.947-2.241c0.43-0.852,0.531-2.35,0.531-2.35L40.143,11.72z"/>
		<path fill="none" stroke="#5E8BC7" stroke-linecap="round" stroke-linejoin="round" stroke-miterlimit="10" d="M33.736,14.71
			c2.025-0.427,3.52-1.389,3.947-2.241c0.43-0.852,0.532-2.35,0.532-2.35l1.927,1.601c0,0,0.685,3.797-4.158,5.95
			c0,0-0.178-3.118-2.961-2.691v-0.183L33.736,14.71z"/>
		<path fill="none" stroke="#5E8BC7" stroke-linecap="round" stroke-linejoin="round" stroke-miterlimit="10" d="M31.977,14.979
			c-2.395-0.538-2.718,2.691-2.718,2.691c-4.308-1.75-4.925-6.381-4.925-6.381l1.394-1.705c0,0,1.576,3.071,2.326,3.713
			c0.559,0.481,2.329,1.274,4.034,1.462L31.977,14.979z"/>
	</g>
</g>
</svg>
