<?xml version="1.0" encoding="utf-8"?>
<!-- Generator: Adobe Illustrator 16.0.0, SVG Export Plug-In . SVG Version: 6.00 Build 0)  -->
<!DOCTYPE svg PUBLIC "-//W3C//DTD SVG 1.1//EN" "http://www.w3.org/Graphics/SVG/1.1/DTD/svg11.dtd">
<svg version="1.1" id="Layer_1" xmlns="http://www.w3.org/2000/svg" xmlns:xlink="http://www.w3.org/1999/xlink" x="0px" y="0px"
	 width="64px" height="64px" viewBox="0 0 64 64" enable-background="new 0 0 64 64" xml:space="preserve">
<g id="Woman_x2019_s_Top">
	<path fill="#BAD6EE" d="M20.658,30.325c0.084-4.171-2.116-6.255-2.116-6.255c3.151-1.103,3.823-4.506,3.823-4.506l4.897,2.265
		c0.756,2.489,5.113,2.613,5.113,2.613c3.811-0.469,4.775-2.606,4.775-2.606l4.717-2.499c0.781,2.19,3.102,4.733,3.102,4.733
		c-1.982,2.164-2.303,4.588-2.219,6.253c0,0-0.264,3.345-5.768,4.05c0,0-1.459,0.184-3.023-0.373
		c-1.706-0.832-4.283-0.084-4.283-0.084c-1.647,0.658-3.25,0.457-3.25,0.457C20.925,33.668,20.658,30.325,20.658,30.325z"/>
	<path fill="#BAD6EE" d="M47.613,52.938l1.52,3.276c0,0-1.177,0.122-2.74,0.661c-1.563,0.54-2.674,0.564-5.019,0.564
		c-2.347,0-3.599-0.217-6.567,0.197c-2.973,0.412-2.189,0.342-5.006,0c-2.814-0.345-2.502-0.521-4.534-0.091
		c-2.033,0.433-3.754-0.862-6.731-0.54c-2.977,0.323-3.718-0.343-3.718-0.343c1.096-1.404,1.52-3.513,1.52-3.513
		s6.349,1.502,10.51,0.531c2.912-0.678,3.5,0.418,4.745,0.58c0,0,2.646,0.895,6.408,0c2.993-0.711,5.524,0.122,7.569-0.603
		C47.613,52.938,47.613,52.938,47.613,52.938z"/>
	<g>
		<path fill="none" stroke="#5E8BC7" stroke-linecap="round" stroke-linejoin="round" stroke-miterlimit="10" d="M22.666,17.971
			c0,0-0.528,5.161-4.124,6.1c0,0,2.971,2.814,1.877,8.445c0,0-4.692,13.762-4.223,18.766c0,0-0.283,2.787-1.379,4.82
			c0,0,0.741,0.965,3.718,0.496c2.978-0.469,4.698,1.408,6.731,0.782c2.032-0.624,1.72-0.368,4.534,0.13
			c2.815,0.496,2.033,0.598,5.005,0c2.971-0.6,4.223-0.285,6.568-0.285c2.345,0,3.454-0.035,5.02-0.817
			c1.563-0.779,2.739-0.957,2.739-0.957l-1.661-4.479c0,0,0.627-6.568-4.378-18.611c0,0-1.563-4.535,1.876-8.288
			c0,0-3.439-3.909-4.222-6.1l-4.69,2.504c0,0-0.139,1.699-3.95,2.168c0,0-3.442-0.095-3.853-2.031L22.666,17.971z"/>
		<path fill="none" stroke="#5E8BC7" stroke-linecap="round" stroke-linejoin="round" stroke-miterlimit="10" d="M20.658,30.325
			c0.084-4.171-2.116-6.255-2.116-6.255c3.596-0.938,4.124-6.1,4.124-6.1l5.589,2.641c0.41,1.937,3.853,2.031,3.853,2.031
			c3.812-0.469,3.949-2.168,3.949-2.168l4.691-2.504c0.781,2.19,4.223,6.1,4.223,6.1c-1.984,2.164-2.304,4.588-2.22,6.253
			c0,0-0.265,3.345-5.767,4.05c0,0-1.459,0.184-3.024-0.373c-1.706-0.832-4.283-0.084-4.283-0.084
			c-1.647,0.658-3.25,0.457-3.25,0.457C20.925,33.668,20.658,30.325,20.658,30.325z"/>
		<path fill="none" stroke="#5E8BC7" stroke-linecap="round" stroke-linejoin="round" stroke-miterlimit="10" d="M47.473,50.969
			l1.66,4.48c0,0-1.177,0.178-2.74,0.957c-1.563,0.781-2.674,0.816-5.019,0.816c-2.347,0-3.599-0.313-6.567,0.286
			c-2.973,0.599-2.189,0.496-5.006,0c-2.814-0.498-2.502-0.754-4.534-0.13c-2.033,0.626-3.754-1.251-6.731-0.781
			c-2.977,0.469-3.718-0.496-3.718-0.496c1.096-2.033,1.379-4.822,1.379-4.822s6.348,2.176,10.509,0.771
			c2.912-0.981,4.504,0.481,5.749,0.718c0,0,1.999,0.819,5.023,0c3.023-0.822,5.905,0.299,7.949-0.75
			C47.473,50.969,47.473,50.969,47.473,50.969z"/>
		<path fill="none" stroke="#5E8BC7" stroke-linecap="round" stroke-linejoin="round" stroke-miterlimit="10" d="M37.544,19.682
			l2.699-1.441c0,0,1.937-10.609-0.058-10.199c-1.994,0.412-2.541,3.269-2.709,11.488L37.544,19.682z"/>
		<path fill="none" stroke="#5E8BC7" stroke-linecap="round" stroke-linejoin="round" stroke-miterlimit="10" d="M25.958,19.526
			l-2.707-1.279H23.25c0,0-1.992-10.616,0.002-10.206c1.994,0.412,2.542,3.269,2.708,11.488L25.958,19.526z"/>
	</g>
</g>
</svg>
