<?xml version="1.0" encoding="utf-8"?>
<!-- Generator: Adobe Illustrator 16.0.0, SVG Export Plug-In . SVG Version: 6.00 Build 0)  -->
<!DOCTYPE svg PUBLIC "-//W3C//DTD SVG 1.1//EN" "http://www.w3.org/Graphics/SVG/1.1/DTD/svg11.dtd">
<svg version="1.1" id="Layer_1" xmlns="http://www.w3.org/2000/svg" xmlns:xlink="http://www.w3.org/1999/xlink" x="0px" y="0px"
	 width="64px" height="64px" viewBox="0 0 64 64" enable-background="new 0 0 64 64" xml:space="preserve">
<g id="Woman_x2019_s_Dress">
	<g>
		<path fill="#BAD6EE" d="M41.245,33.586c-2.728,3.826-4.37,0.489-7.722,2.631c-3.352,2.145-3.376-1.604-6.067-0.258
			s-5.835-3-5.835-3l-0.351-0.055c0,0-2.458,4.183-1.977,7.004c0.298,0.453,0.705,0.828,1.236,1.084
			c0.29,0.197,1.551,0.971,3.435,0.971c0.91,0,0.996,0.055,1.115,0.133c0.255,0.163,0.546,0.324,1.284,0.5
			c0.538,0.125,1.066,0.188,1.616,0.188c0.486,0,0.922-0.047,1.343-0.092c0.385-0.041,0.748-0.078,1.12-0.078
			c0.32,0,0.498,0.021,0.649,0.039c0.15,0.018,0.28,0.031,0.451,0.031c0.369,0,0.878-0.062,2.388-0.373
			c1.049-0.217,1.576-0.278,1.961-0.324c0.7-0.082,0.983-0.133,2.256-0.672c0.838-0.355,1.565-0.414,2.27-0.473
			c0.902-0.072,1.838-0.148,2.82-0.842c0.236-0.167,0.424-0.366,0.59-0.578C44.107,36.977,41.245,33.586,41.245,33.586z"/>
		<path fill="#BAD6EE" d="M47.363,48.027c-0.813,1.314-5.102-0.284-7.473,0.721c-2.711,1.146-1.752,0.509-5.447,1.273
			c-3.696,0.766-2.806,0.383-4.462,0.383c-1.657,0-3.06,0.512-5.228,0c-2.167-0.512-1.471-0.95-4.021-0.95
			c-2.549,0-4.293-0.985-4.293-0.985c-0.715-0.542-1.525-1.037-1.822-1.656c-0.461,0.679-2.162,3.355-1.872,5.5
			c0.362,0.588,0.927,1.047,1.694,1.358c0.264,0.19,1.006,0.646,2.357,0.861c0.488,0.075,1.141,0.126,1.832,0.18
			c0.825,0.063,2.281,0.177,2.821,0.36v0.219c0,0.329,0.241,0.607,0.567,0.654c0.072,0.011,1.783,0.254,3.241,0.254h0.001
			c0.875,0,1.479-0.088,1.876-0.271c0.146-0.021,0.452-0.058,0.794-0.058c0.31,0,0.579,0.03,0.784,0.088v0.202
			c0,0.336,0.251,0.617,0.585,0.656c0.063,0.008,1.544,0.179,2.903,0.179c1.044,0,2.042-0.079,2.491-0.563
			c0.513-0.111,1.369-0.274,1.774-0.274c0.003-0.015,0.015-0.015,0.021-0.013c0.096,0.035,0.195,0.049,0.295,0.039l4.681-0.453
			c0.238-0.021,0.437-0.17,0.533-0.375l6.578-1.295c0.092-0.019,0.18-0.056,0.258-0.11c0.224-0.16,0.401-0.353,0.558-0.56
			C49.663,51.118,47.363,48.027,47.363,48.027z"/>
	</g>
	<g>
		<path fill="none" stroke="#5E8BC7" stroke-linecap="round" stroke-linejoin="round" stroke-miterlimit="10" d="M37.784,26.043
			c0,0,0.149-0.359-0.183-0.768c0,0-0.229-1.433-0.127-1.868l0.846-4.783c0,0,0.563-1.984,0.816-2.161c0,0-1.021-4.236,0.359-7.613
			l-0.538-0.511l-2.722-0.485c0,0,0.189,0.925,0.054,1.56c0,0-0.281,1.537-0.613,1.922c-0.333,0.382-0.862,2.032-4.393,2.121
			c-3.148,0.075-4.354-1.97-4.354-1.97s-1.125-1.46-1.356-3.633L23.635,8.44c0,0-0.692-0.256-1.153,0.41
			c0,0,1.741,1.535,0.817,7.369c0,0,0.444,0.988,0.785,3.649l0.616,4.094c0,0-0.342,0.888-0.41,2.525l-1.731,4.887
			c0,0,2.206,4.317,4.897,2.974c2.691-1.347,2.717,2.401,6.067,0.258c3.352-2.143,4.088,1.205,6.814-2.623L37.784,26.043z"/>
		<path fill="none" stroke="#5E8BC7" stroke-linecap="round" stroke-linejoin="round" stroke-miterlimit="10" d="M46.281,46.266
			c0,0,4.855,5.221,2.167,7.146L41.4,54.799v0.273l-4.682,0.451c-0.396-0.152-2.445,0.322-2.445,0.322
			c-0.16,0.866-4.898,0.313-4.898,0.313v-0.623c-0.788-0.548-2.446-0.246-2.446-0.246c-0.946,0.556-4.817,0-4.817,0v-0.556
			c-0.316-0.629-3.711-0.621-5.212-0.857c-1.499-0.236-2.13-0.788-2.13-0.788c-4.613-1.776,0.912-8.45,0.912-8.45l0.332-0.266
			c0.033-2.71,3.452-5.793,3.452-5.793l0,0c-0.459-2.807,2.743-7.263,2.743-7.263c0.074-0.106,0.35,0.056,0.35,0.056l1.731-4.887
			c0.068-1.638,0.41-2.525,0.41-2.525l-0.616-4.094c-0.341-2.661-0.785-3.649-0.785-3.649c0.924-5.834-0.817-7.369-0.817-7.369
			c0.461-0.666,1.153-0.41,1.153-0.41l1.939-0.586c0.231,2.173,1.356,3.633,1.356,3.633s1.206,2.045,4.354,1.97
			c3.528-0.089,4.06-1.739,4.393-2.121c0.332-0.385,0.613-1.922,0.613-1.922c0.137-0.635-0.054-1.56-0.054-1.56l2.722,0.485
			l0.538,0.511c-1.381,3.377-0.359,7.613-0.359,7.613c-0.255,0.177-0.816,2.161-0.816,2.161l-0.846,4.783
			c-0.102,0.436,0.127,1.868,0.127,1.868c0.332,0.408,0.183,0.768,0.183,0.768l2.555,5.939c0,0,4.443,4.38,3.158,6.771
			c0,0,3.081,2.37,2.999,6.725c-0.006,0.314-0.07,0.56-0.186,0.746L46.281,46.266z"/>
		<path fill="none" stroke="#5E8BC7" stroke-linecap="round" stroke-linejoin="round" stroke-miterlimit="10" d="M22.559,31.374
			c0,0,2.206,4.317,4.897,2.974c2.691-1.347,2.717,2.401,6.067,0.258c3.352-2.143,4.088,1.205,6.814-2.623
			c0,0,5.471,5.392,2.518,7.478c-1.545,1.089-2.929,0.382-4.965,1.244c-2.037,0.861-1.315,0.383-4.094,0.959
			c-2.78,0.572-2.109,0.287-3.354,0.287c-1.244,0-2.3,0.384-3.927,0c-1.63-0.385-0.637-0.648-2.552-0.648
			c-1.918,0-3.102-0.884-3.102-0.884c-3.9-1.799,1.346-9.1,1.346-9.1L22.559,31.374z"/>
		<path fill="none" stroke="#5E8BC7" stroke-linecap="round" stroke-linejoin="round" stroke-miterlimit="10" d="M19.466,38.581
			c0.152,0.728,0.594,1.467,1.397,1.837c0,0,1.184,0.884,3.102,0.884c1.915,0,0.922,0.265,2.552,0.648c1.627,0.384,2.683,0,3.927,0
			c1.245,0,0.574,0.286,3.354-0.287c2.777-0.576,2.056-0.097,4.093-0.959s3.422-0.155,4.965-1.244
			c0.291-0.206,0.5-0.444,0.643-0.706c0,0,3.107,2.508,2.999,6.725c-0.065,2.516-3.896,0.511-6.604,1.657
			c-2.711,1.146-1.752,0.509-5.447,1.273c-3.696,0.766-2.806,0.384-4.462,0.384c-1.657,0-3.06,0.512-5.228,0
			c-2.167-0.512-1.471-0.951-4.021-0.951c-2.549,0-3.498-1.089-3.498-1.089C13.537,43.954,19.466,38.581,19.466,38.581z"/>
		<path fill="none" stroke="#5E8BC7" stroke-linecap="round" stroke-linejoin="round" stroke-miterlimit="10" d="M15.682,44.641
			c0,0-5.525,6.674-0.912,8.449c0,0,0.631,0.551,2.13,0.788c1.501,0.236,4.896,0.229,5.212,0.858v0.555c0,0,3.871,0.557,4.817,0
			c0,0,1.658-0.301,2.446,0.246v0.623c0,0,4.738,0.553,4.898-0.313c0,0,2.051-0.477,2.445-0.322l4.682-0.452V54.8l7.048-1.387
			c2.688-1.927-2.167-7.147-2.167-7.147c-0.813,1.316-4.02-0.134-6.391,0.871c-2.711,1.146-1.752,0.51-5.447,1.273
			c-3.696,0.766-2.806,0.384-4.462,0.384c-1.657,0-3.06,0.511-5.228,0c-2.167-0.512-1.471-0.951-4.021-0.951
			c-2.549,0-3.498-1.089-3.498-1.089c-0.897-0.679-1.227-1.51-1.213-2.379L15.682,44.641z"/>
	</g>
</g>
</svg>
