<?xml version="1.0" encoding="utf-8"?>
<!-- Generator: Adobe Illustrator 16.0.0, SVG Export Plug-In . SVG Version: 6.00 Build 0)  -->
<!DOCTYPE svg PUBLIC "-//W3C//DTD SVG 1.1//EN" "http://www.w3.org/Graphics/SVG/1.1/DTD/svg11.dtd">
<svg version="1.1" id="Layer_1" xmlns="http://www.w3.org/2000/svg" xmlns:xlink="http://www.w3.org/1999/xlink" x="0px" y="0px"
	 width="64px" height="64px" viewBox="0 0 64 64" enable-background="new 0 0 64 64" xml:space="preserve">
<g id="Woman_x2019_s_T-shirt">
	<path fill="#BAD6EE" d="M36.995,11.561c-2.108,1.586-5.114,1.7-5.114,1.7c-2.827,0-4.264-1.054-5.112-1.825
		C26.769,11.436,32.283,10.01,36.995,11.561z"/>
	<g>
		<g>
			<path fill="none" stroke="#5E8BC7" stroke-linecap="round" stroke-linejoin="round" stroke-miterlimit="10" d="M38.363,10.164
				l1.686,1.704c0,0,2.243,0.321,3.633,0.321c1.389,0,3.951,0.643,4.377,2.353c0.428,1.706,2.457,10.676,2.563,11.209
				c0.104,0.536-2.563,1.922-5.233,1.497c-0.852-0.319-0.852-0.319-0.852-0.319s-0.446-2.291-0.346-0.777
				c0.013,0.183,0.242,0.896,0.201,1.488c0,0,0.125,2.468-1.572,4.845c-1.344,1.884,0.605,5.921,0.605,5.921
				s3.795,5.885,2.422,16.462c-15.876,4.575-27.05-0.067-27.05-0.067c-1.752-9.395,1.979-14.958,2.874-17.471
				C22.571,34.816,21,32.171,21,32.171c-1.964-2.578-1.239-5.992-1.239-5.992c0.104-1.067,0.104-1.925,0.104-1.925l-0.75,1.925
				c0,0-4.482,0.426-5.975-0.854c0.426-2.989,2.138-8.438,2.453-9.397c0.324-0.963,1.068-1.706,2.351-2.457
				c1.285-0.744,2.563-1.173,3.629-1.28c1.072-0.107,1.924,0,2.462-0.532c0.534-0.534,1.6-1.925,1.6-1.925
				S33.083,7.979,38.363,10.164z"/>
		</g>
		<path fill="none" stroke="#5E8BC7" stroke-linecap="round" stroke-linejoin="round" stroke-miterlimit="10" d="M38.363,10.164
			c-5.279-2.186-12.729-0.432-12.729-0.432S25.5,13.26,31.881,13.26C31.881,13.261,36.582,13.662,38.363,10.164z"/>
	</g>
</g>
</svg>
