<?xml version="1.0" encoding="utf-8"?>
<!-- Generator: Adobe Illustrator 16.0.0, SVG Export Plug-In . SVG Version: 6.00 Build 0)  -->
<!DOCTYPE svg PUBLIC "-//W3C//DTD SVG 1.1//EN" "http://www.w3.org/Graphics/SVG/1.1/DTD/svg11.dtd">
<svg version="1.1" id="Layer_1" xmlns="http://www.w3.org/2000/svg" xmlns:xlink="http://www.w3.org/1999/xlink" x="0px" y="0px"
	 width="64px" height="64px" viewBox="0 0 64 64" enable-background="new 0 0 64 64" xml:space="preserve">
<g id="Woman_x2019_s_Sweater">
	<path fill="#BAD6EE" d="M8.248,52.99c-1.197,0-0.73,1.639-0.73,1.639s3.229,1.921,5.467,1.334c0,0,0.937-0.396,0.392-1.613
		C13.375,54.35,9.49,54.252,8.248,52.99z"/>
	<path fill="#BAD6EE" d="M48.486,54.102c-0.545,1.217,0.435,1.649,0.435,1.649c2.239,0.588,5.468-1.334,5.468-1.334
		s1.014-1.692-0.621-1.688C53.855,53.184,49.958,54.657,48.486,54.102z"/>
	<path fill="#BAD6EE" d="M37.466,13.626c0.396-0.15,0.89-0.377-0.313-1.411l0.076-0.538c-4.699-1.058-13.395-0.124-13.395-0.124
		s-1.899,1.539-0.147,2.063c0.137,0.042,0.304,0.075,0.506,0.103c0,0,9.1-0.521,12.771,0C36.964,13.718,37.23,13.715,37.466,13.626z
		"/>
	<g>
		<path fill="none" stroke="#5E8BC7" stroke-linecap="round" stroke-linejoin="round" stroke-miterlimit="10" d="M48.076,52.834
			c-0.723-0.27-6.803-26.508-6.803-26.508s-0.377-1.944-0.291-0.659c0.01,0.154,0.205,0.761,0.17,1.263c0,0,0.105,2.093-1.334,4.107
			c-1.142,1.599,0.516,5.021,0.516,5.021s3.219,4.992,2.055,13.963c-13.469,3.881-22.946-0.056-22.946-0.056
			c-1.486-7.969,1.679-12.688,2.438-14.817c0.763-2.133-0.57-4.376-0.57-4.376c-1.666-2.187-1.051-5.084-1.051-5.084
			c0.088-0.904,0.088-1.631,0.088-1.631L13.83,53.045c0.545,1.219-0.846,2.918-0.846,2.918c-2.238,0.587-5.467-1.334-5.467-1.334
			s-0.23-2.96,1.404-2.955c0.363-2.535,7.535-32.788,7.802-33.604c0.275-0.816,0.906-1.446,1.994-2.083
			c1.089-0.631,2.174-0.995,3.078-1.086c0.786-0.079,1.435-1.098,1.89-1.373l0.002,0.002c-1.752-0.963,1.564-3.889,1.564-3.889
			s6.627-1.561,11.327,0.385l0.386,0.618c1.202,1.902,0.896,2.627,0.502,2.903l0.002,0.004c0,0,1.902,1.35,3.081,1.35
			c1.178,0,3.352,0.543,3.715,1.995c0.36,1.446,8.629,34.112,8.719,34.566c1.636-0.005,1.406,2.954,1.406,2.954
			s-3.229,1.922-5.468,1.334C48.921,55.751,47.529,54.052,48.076,52.834z"/>
		<path fill="none" stroke="#5E8BC7" stroke-linecap="round" stroke-linejoin="round" stroke-miterlimit="10" d="M8.921,51.674
			c-1.635-0.005-1.404,2.955-1.404,2.955s3.229,1.921,5.467,1.334c0,0,1.391-1.699,0.846-2.918
			C13.83,53.045,10.164,52.936,8.921,51.674z"/>
		<path fill="none" stroke="#5E8BC7" stroke-linecap="round" stroke-linejoin="round" stroke-miterlimit="10" d="M48.076,52.834
			c-0.547,1.218,0.845,2.917,0.845,2.917c2.239,0.588,5.468-1.334,5.468-1.334s0.229-2.959-1.406-2.954
			C53.072,51.917,49.546,53.393,48.076,52.834z"/>
		<path fill="none" stroke="#5E8BC7" stroke-linecap="round" stroke-linejoin="round" stroke-miterlimit="10" d="M37.466,13.548
			c0.396-0.276,0.7-1.001-0.502-2.903l-0.386-0.618c-4.7-1.945-11.327-0.385-11.327-0.385s-3.316,2.926-1.564,3.889
			c0.137,0.075,0.304,0.138,0.506,0.188c0,0,9.1-0.958,12.771,0C36.964,13.718,37.23,13.712,37.466,13.548z"/>
	</g>
</g>
</svg>
