<?xml version="1.0" encoding="utf-8"?>
<!-- Generator: Adobe Illustrator 16.0.0, SVG Export Plug-In . SVG Version: 6.00 Build 0)  -->
<!DOCTYPE svg PUBLIC "-//W3C//DTD SVG 1.1//EN" "http://www.w3.org/Graphics/SVG/1.1/DTD/svg11.dtd">
<svg version="1.1" id="Layer_1" xmlns="http://www.w3.org/2000/svg" xmlns:xlink="http://www.w3.org/1999/xlink" x="0px" y="0px"
	 width="64px" height="64px" viewBox="0 0 64 64" enable-background="new 0 0 64 64" xml:space="preserve">
<g id="Woman_x2019_s_Jeans">
	<path fill="#BAD6EE" d="M26.741,16.012c-0.514,1.644-1.728,3.714-4.515,2.669c0.188-2.015,0.517-3.543,0.869-4.682
		C23.095,13.999,23.817,15.422,26.741,16.012z"/>
	<path fill="#BAD6EE" d="M37.2,15.873c0.514,1.644,1.728,3.715,4.515,2.669c-0.188-2.015-0.517-3.542-0.869-4.682
		C40.846,13.86,40.124,15.283,37.2,15.873z"/>
	<g>
		<path fill="none" stroke="#5E8BC7" stroke-linecap="round" stroke-linejoin="round" stroke-miterlimit="10" d="M25.265,9.03
			l-0.711,2.006c0,0-0.298,0.287-0.688,1.035c-0.562,1.077-1.313,3.108-1.64,6.609c-0.173,1.853-0.227,4.116-0.071,6.868
			c0,0,0.688,5.565-0.093,7.966c0,0-0.904,2.102-0.985,5.293c0,0-1.147,3.887-1.022,6.629c0,0-0.82,3.767-0.535,9.291
			c0,0,1.833,1.933,6.345,1.269c0,0,0.224-0.515,0.314-2.039c0,0,0.189-1.106,0.668-8.272l1.554-9.004c0,0,2.863-9.413,3.52-13.748
			c0,0,2.29,5.81,3.108,13.173c0,0,1.557,5.813,1.722,10.396c0,0-0.082,8.431,1.474,9.495c0,0,2.953,1.023,6.057-1.148
			c0,0,0.41-14.728-2.375-21.357c0,0-0.898-3.768-0.488-8.021c0,0,1.553-8.267-1.723-14.57L39.23,9.03c0,0-1.767,1.866-7.35,2.276
			C31.881,11.307,27.379,11.303,25.265,9.03z"/>
		
			<circle fill="none" stroke="#5E8BC7" stroke-linecap="round" stroke-linejoin="round" stroke-miterlimit="10" cx="33.557" cy="13.06" r="0.074"/>
		<path fill="none" stroke="#5E8BC7" stroke-linecap="round" stroke-linejoin="round" stroke-miterlimit="10" d="M31.921,22.932
			c0-0.498,0-0.622-0.04-1.424"/>
		<path fill="none" stroke="#5E8BC7" stroke-linecap="round" stroke-linejoin="round" stroke-miterlimit="10" d="M23.856,12.091
			c0.395-0.763,0.698-1.055,0.698-1.055l0.711-2.006c2.114,2.272,6.616,2.276,6.616,2.276c5.583-0.41,7.35-2.276,7.35-2.276
			l0.465,1.866c0.205,0.395,0.392,0.796,0.56,1.202c-0.741,1.431-3.841,2.248-6.063,2.659c-1.334,0.247-2.352,0.348-2.352,0.348
			c-2.067-0.166-3.603-0.474-4.742-0.832C24.152,13.35,23.856,12.091,23.856,12.091z"/>
		<path fill="none" stroke="#5E8BC7" stroke-linecap="round" stroke-linejoin="round" stroke-miterlimit="10" d="M34.191,14.758
			c-1.334,0.247-2.31,0.339-2.31,0.339c0,1.497,0.021,4.218,0,6.411C35.63,21.508,34.191,14.758,34.191,14.758z"/>
		
			<line fill="none" stroke="#5E8BC7" stroke-linecap="round" stroke-linejoin="round" stroke-miterlimit="10" x1="31.882" y1="11.3" x2="31.882" y2="15.097"/>
		<path fill="none" stroke="#5E8BC7" stroke-linecap="round" stroke-linejoin="round" stroke-miterlimit="10" d="M27.099,14.273
			c-2.947-0.924-3.243-2.183-3.243-2.183l0.01-0.02c-0.562,1.077-1.313,3.108-1.64,6.609C26.605,20.321,27.1,14.274,27.099,14.273
			L27.099,14.273z"/>
		<path fill="none" stroke="#5E8BC7" stroke-linecap="round" stroke-linejoin="round" stroke-miterlimit="10" d="M36.809,14.138
			c2.998-0.913,3.446-2.039,3.446-2.039l-0.01-0.02c0.562,1.077,1.194,3.026,1.47,6.644C37.336,20.364,36.809,14.138,36.809,14.138z
			"/>
	</g>
</g>
</svg>
