<?xml version="1.0" encoding="utf-8"?>
<!-- Generator: Adobe Illustrator 16.0.0, SVG Export Plug-In . SVG Version: 6.00 Build 0)  -->
<!DOCTYPE svg PUBLIC "-//W3C//DTD SVG 1.1//EN" "http://www.w3.org/Graphics/SVG/1.1/DTD/svg11.dtd">
<svg version="1.1" id="Layer_1" xmlns="http://www.w3.org/2000/svg" xmlns:xlink="http://www.w3.org/1999/xlink" x="0px" y="0px"
	 width="64px" height="64px" viewBox="0 0 64 64" enable-background="new 0 0 64 64" xml:space="preserve">
<g id="Women_x2019_s_Short">
	<path fill="#BAD6EE" d="M47.717,20.243l-0.268-1.718c-21.571,4.032-31.484,0-31.484,0l0.268,1.812c0,0,3.723,3.086,15.142,3.086
		C31.374,23.422,43.412,23.329,47.717,20.243z"/>
	<g>
		<g id="_x34_52">
			<path fill="none" stroke="#5E8BC7" stroke-linecap="round" stroke-linejoin="round" stroke-miterlimit="10" d="M47.717,16.295
				v4.041l4.788,14.346l2.746,12.955l-9.138,2.371l-11.625,0.2l-2.481-12.31h-0.063l-2.481,12.31L17.77,50.076l-9.069-2.439
				l2.748-12.955l4.785-14.346v-4.041C16.232,16.295,24.94,19.904,47.717,16.295z"/>
		</g>
		<path fill="none" stroke="#5E8BC7" stroke-linecap="round" stroke-linejoin="round" stroke-miterlimit="10" d="M47.717,20.243
			v-3.948c-22.776,3.608-31.484,0-31.484,0v4.041c0,0,3.723,3.086,15.142,3.086C31.374,23.422,43.412,23.329,47.717,20.243z"/>
		<g>
			<g>
				<path fill="none" stroke="#5E8BC7" stroke-linecap="round" stroke-linejoin="round" stroke-miterlimit="10" d="M31.144,21.573
					c0,0,0.854-3.239,3.271-1.77c0,0,0.603,3.339-3.041,3.619c-2.724,0.208-1.663,7.364-1.197,7.829"/>
				<path fill="none" stroke="#5E8BC7" stroke-linecap="round" stroke-linejoin="round" stroke-miterlimit="10" d="M31.546,23.007
					c0,0-0.808-4.672-3.169-2.732c0,0-0.075,2.94,3.189,3.123c1.584,0.09,1.204,6.285,2.064,7.181"/>
			</g>
		</g>
	</g>
</g>
</svg>
