<?xml version="1.0" encoding="utf-8"?>
<!-- Generator: Adobe Illustrator 16.0.0, SVG Export Plug-In . SVG Version: 6.00 Build 0)  -->
<!DOCTYPE svg PUBLIC "-//W3C//DTD SVG 1.1//EN" "http://www.w3.org/Graphics/SVG/1.1/DTD/svg11.dtd">
<svg version="1.1" id="Layer_1" xmlns="http://www.w3.org/2000/svg" xmlns:xlink="http://www.w3.org/1999/xlink" x="0px" y="0px"
	 width="64px" height="64px" viewBox="0 0 64 64" enable-background="new 0 0 64 64" xml:space="preserve">
<g id="Collared_T-shirt">
	<path fill="#DB7B27" d="M61.751,40.42c0,12.473-10.562,22.584-23.589,22.584H26.104c-13.03,0-23.592-10.111-23.592-22.584V26.348
		c0-12.473,10.562-22.583,23.592-22.583h12.058c13.027,0,23.589,10.11,23.589,22.583V40.42z"/>
	<path fill="#F79420" d="M61.751,37.971c0,12.471-10.562,22.584-23.589,22.584H26.104c-13.03,0-23.592-10.113-23.592-22.584V23.896
		c0-12.472,10.562-22.583,23.592-22.583h12.058c13.027,0,23.589,10.111,23.589,22.583V37.971z"/>
	<g>
		<path fill="#DB7B27" d="M33.445,23.513c0.348,0.205,0.629,0.551,0.709,0.653c0.027,0.038,0.047,0.082,0.055,0.128
			c0.116,0.7,0.311,1.009,0.434,1.139c0.961-1.203,0.953-3.813,0.939-4.397l-0.53-0.464C35.07,21.769,34.15,22.857,33.445,23.513z"
			/>
		<path fill="#DB7B27" d="M30.41,23.349c-0.877-0.639-1.331-1.895-1.527-2.607l-0.524,0.49c-0.012,0.517,0.008,2.29,0.62,3.695
			C29.263,24.401,29.766,23.635,30.41,23.349z"/>
		<path fill="#DB7B27" d="M34.339,21.332c0.14-0.383,0.188-0.784,0.082-1.184c-0.63-0.079-1.25-0.126-1.851-0.126
			c-1.595,0-2.677,0.276-3.175,0.438c0.069,0.266,0.183,0.645,0.354,1.039C30.332,21.344,31.944,21.018,34.339,21.332z"/>
		<path fill="#DB7B27" d="M32.688,23.403c0.008-0.004,0.017-0.007,0.025-0.009c0.38-0.317,0.973-0.869,1.364-1.522
			c-2.047-0.246-3.473,0.005-4.067,0.15c0.224,0.389,0.507,0.745,0.868,0.951c0.02,0.01,0.3,0.152,0.516,0.349
			c0.191,0.087,0.433,0.284,0.532,0.62c0.122-0.104,0.267-0.198,0.435-0.274c0.033-0.022,0.099-0.071,0.188-0.142
			C32.579,23.473,32.626,23.429,32.688,23.403z"/>
		<path fill="#DB7B27" d="M32.379,31.129c-0.068-0.758-0.372-4.335-0.213-6.608c-0.233,0.283-0.272,0.594-0.272,0.598l-0.023,0.149
			v0.001c0,0.006,0.004,0.011,0.004,0.019v6.072C32.022,31.335,32.211,31.271,32.379,31.129z"/>
		<path fill="#DB7B27" d="M44.631,29.663l-3.004-4.532c-1.283-1.68-2.168-2.02-2.174-2.02l-3.301-1.708
			c-0.006,1.061-0.141,3.482-1.256,4.6c-0.054,0.054-0.125,0.082-0.199,0.082c-0.021,0-0.033-0.002-0.049-0.004
			c-0.123-0.021-0.733-0.197-0.986-1.621c-0.221-0.264-0.527-0.515-0.695-0.534c-0.076,0.06-0.141,0.11-0.193,0.148
			c-0.267,2.341,0.181,7.088,0.185,7.135c0.008,0.08-0.021,0.161-0.074,0.221c-0.427,0.464-0.991,0.518-1.221,0.518
			c-0.059,0-0.094-0.004-0.1-0.005c-0.146-0.015-0.256-0.137-0.256-0.282v-6.373c0-0.013,0.004-0.023,0.006-0.034
			c-0.002-0.018-0.008-0.031-0.006-0.05l0.041-0.561c0-0.021,0.006-0.042,0.012-0.061c0.166-0.566-0.149-0.722-0.216-0.748
			c-0.982-0.326-1.883,1.816-1.891,1.839c-0.043,0.101-0.137,0.168-0.243,0.177c-0.107,0.01-0.209-0.047-0.266-0.137
			c-0.777-1.307-0.933-3.07-0.956-4.015l-2.942,1.398c-0.035,0.014-0.92,0.353-2.218,2.05l-2.993,4.517
			c-0.08,0.121-0.055,0.282,0.055,0.376l3.881,3.271c0.113,0.096,0.283,0.088,0.391-0.023l0.419-0.446
			c-0.045-0.044-0.078-0.103-0.086-0.168c-0.345-2.64-0.016-4.667,0-4.751c0.027-0.154,0.172-0.262,0.326-0.233
			c0.157,0.025,0.259,0.172,0.233,0.328c-0.002,0.021-0.331,2.032,0.002,4.581c0.006,0.049-0.002,0.09-0.014,0.129
			c0.063,1.849,0.181,6.205,0.181,13.366c0,0.144,0.105,0.267,0.25,0.283c0.029,0.004,3.105,0.369,6.171,0.369
			c0.207,0,0.413-0.002,0.615-0.006h0.145c0.206,0.004,0.413,0.006,0.619,0.006c3.065,0,6.145-0.365,6.174-0.369
			c0.142-0.017,0.249-0.14,0.249-0.283c0-7.253,0.123-11.628,0.184-13.433c0-0.014-0.004-0.026-0.004-0.041
			c0.004-0.025,0.008-0.045,0.01-0.068c0.002-0.063,0.004-0.129,0.006-0.185l0.012,0.014c0.264-2.479-0.02-4.349-0.023-4.368
			c-0.023-0.152,0.08-0.3,0.236-0.323c0.157-0.024,0.298,0.084,0.325,0.236c0.012,0.082,0.321,2.086,0,4.761
			c-0.011,0.069-0.041,0.129-0.087,0.174l0.402,0.429c0.104,0.11,0.273,0.119,0.393,0.022l3.882-3.271
			C44.689,29.945,44.713,29.784,44.631,29.663z"/>
	</g>
	<g>
		<path fill="#FFFFFF" d="M33.445,21.063c0.348,0.204,0.629,0.55,0.709,0.653c0.027,0.037,0.047,0.081,0.055,0.128
			c0.116,0.699,0.311,1.008,0.434,1.14c0.961-1.204,0.953-3.814,0.939-4.397l-0.53-0.467C35.07,19.319,34.15,20.407,33.445,21.063z"
			/>
		<path fill="#FFFFFF" d="M30.41,20.898c-0.877-0.639-1.331-1.894-1.527-2.608l-0.524,0.491c-0.012,0.517,0.008,2.29,0.62,3.694
			C29.263,21.95,29.766,21.185,30.41,20.898z"/>
		<path fill="#FFFFFF" d="M34.339,18.882c0.14-0.385,0.188-0.784,0.082-1.184c-0.63-0.079-1.25-0.126-1.851-0.126
			c-1.595,0-2.677,0.277-3.175,0.438c0.069,0.265,0.183,0.643,0.354,1.039C30.332,18.895,31.944,18.567,34.339,18.882z"/>
		<path fill="#FFFFFF" d="M32.688,20.954c0.008-0.004,0.017-0.008,0.025-0.011c0.38-0.316,0.973-0.868,1.364-1.521
			c-2.047-0.245-3.473,0.006-4.067,0.149c0.224,0.389,0.507,0.745,0.868,0.951c0.02,0.009,0.3,0.152,0.516,0.35
			c0.191,0.087,0.433,0.284,0.532,0.62c0.122-0.104,0.267-0.198,0.435-0.274c0.033-0.022,0.099-0.071,0.188-0.142
			C32.579,21.021,32.626,20.978,32.688,20.954z"/>
		<path fill="#FFFFFF" d="M32.379,28.677c-0.068-0.757-0.372-4.334-0.213-6.607c-0.233,0.283-0.272,0.593-0.272,0.598l-0.023,0.149
			v0.001c0,0.007,0.004,0.012,0.004,0.019v6.073C32.022,28.885,32.211,28.819,32.379,28.677z"/>
		<path fill="#FFFFFF" d="M44.631,27.213l-3.004-4.532c-1.283-1.68-2.168-2.02-2.174-2.02l-3.301-1.709
			c-0.006,1.062-0.141,3.484-1.256,4.6c-0.054,0.054-0.125,0.082-0.199,0.082c-0.021,0-0.033-0.002-0.049-0.004
			c-0.123-0.021-0.733-0.196-0.986-1.621c-0.221-0.263-0.527-0.514-0.695-0.535c-0.076,0.061-0.141,0.11-0.193,0.147
			c-0.267,2.345,0.181,7.089,0.185,7.137c0.008,0.081-0.021,0.161-0.074,0.221c-0.427,0.465-0.991,0.518-1.221,0.518
			c-0.059,0-0.094-0.003-0.1-0.004c-0.146-0.015-0.256-0.137-0.256-0.283v-6.373c0-0.012,0.004-0.023,0.006-0.034
			c-0.002-0.017-0.008-0.03-0.006-0.05l0.041-0.561c0-0.021,0.006-0.041,0.012-0.061c0.166-0.566-0.149-0.721-0.216-0.747
			c-0.982-0.326-1.883,1.816-1.891,1.837c-0.043,0.102-0.137,0.168-0.243,0.176c-0.107,0.012-0.209-0.045-0.266-0.136
			c-0.777-1.305-0.933-3.07-0.956-4.012l-2.942,1.397c-0.035,0.014-0.92,0.353-2.218,2.05l-2.993,4.517
			c-0.08,0.12-0.055,0.281,0.055,0.375l3.881,3.271c0.113,0.095,0.283,0.086,0.391-0.022l0.419-0.447
			c-0.045-0.045-0.078-0.104-0.086-0.168c-0.345-2.64-0.016-4.666,0-4.752c0.027-0.155,0.172-0.262,0.326-0.231
			c0.157,0.024,0.259,0.171,0.233,0.326c-0.002,0.021-0.331,2.033,0.002,4.581c0.006,0.047-0.002,0.09-0.014,0.13
			c0.063,1.846,0.181,6.205,0.181,13.367c0,0.143,0.105,0.267,0.25,0.281c0.029,0.006,3.105,0.37,6.171,0.37
			c0.207,0,0.413-0.003,0.615-0.006h0.145c0.206,0.003,0.413,0.006,0.619,0.006c3.065,0,6.145-0.364,6.174-0.37
			c0.142-0.016,0.249-0.14,0.249-0.281c0-7.254,0.123-11.629,0.184-13.435c0-0.015-0.004-0.026-0.004-0.041
			c0.004-0.025,0.008-0.045,0.01-0.068c0.002-0.063,0.004-0.128,0.006-0.186l0.012,0.015c0.264-2.479-0.02-4.348-0.023-4.367
			c-0.023-0.153,0.08-0.3,0.236-0.322c0.157-0.027,0.298,0.079,0.325,0.234c0.012,0.084,0.321,2.087,0,4.761
			c-0.011,0.068-0.041,0.129-0.087,0.173l0.402,0.431c0.104,0.108,0.273,0.117,0.393,0.022l3.882-3.271
			C44.689,27.494,44.713,27.333,44.631,27.213z"/>
	</g>
</g>
</svg>
