<?xml version="1.0" encoding="utf-8"?>
<!-- Generator: Adobe Illustrator 16.0.0, SVG Export Plug-In . SVG Version: 6.00 Build 0)  -->
<!DOCTYPE svg PUBLIC "-//W3C//DTD SVG 1.1//EN" "http://www.w3.org/Graphics/SVG/1.1/DTD/svg11.dtd">
<svg version="1.1" id="Layer_1" xmlns="http://www.w3.org/2000/svg" xmlns:xlink="http://www.w3.org/1999/xlink" x="0px" y="0px"
	 width="64px" height="64px" viewBox="0 0 64 64" enable-background="new 0 0 64 64" xml:space="preserve">
<g id="Frock">
	<path fill="#0F8275" d="M61.887,41.203c0,12.473-10.562,22.584-23.591,22.584H26.239c-13.029,0-23.592-10.111-23.592-22.584V27.131
		c0-12.472,10.563-22.584,23.592-22.584h12.058c13.029,0,23.592,10.112,23.592,22.584v14.072H61.887z"/>
	<path fill="#12978B" d="M61.887,38.754c0,12.471-10.562,22.583-23.591,22.583H26.239c-13.029,0-23.592-10.112-23.592-22.583V24.679
		C2.647,12.209,13.209,2.1,26.239,2.1h12.058c13.029,0,23.592,10.109,23.592,22.579v14.075H61.887z"/>
	<g>
		<path fill="#0F8275" d="M27.414,28.721l0.285-0.733c0,0,0,0.326-0.04,0.733c-0.041,0.405,0.603,1.19,0.891,1.672
			c0.149,0.251,0.575,1.519,0.532,2.246c0.013,0.006,0.027,0.008,0.041,0.016c0.115,0.08,2.961,1.957,6.964-0.09
			c0.006-0.002,0.011,0,0.015-0.002c0.01-0.489,0.09-0.937,0.125-1.163c0.094-0.609,0.445-1.383,0.608-1.665
			c0.034-0.061,0.175-0.236,0.19-0.458c0.017-0.227-0.072-0.497-0.077-0.569c-0.037-0.575,0.131,0.297,0.131,0.297s0,0,0.323,0.122
			c1.017,0.162,2.031-0.366,1.992-0.57c-0.043-0.201-0.813-3.615-0.977-4.261c-0.163-0.652-1.137-0.894-1.664-0.894
			c-0.529,0-1.382-0.123-1.382-0.123l-0.731-0.609c0,0-0.041,0.568-0.203,0.892c-0.162,0.325-0.731,0.693-1.502,0.852
			c-0.771,0.164-1.876-0.29-2.162-0.536c-0.285-0.245-0.882-1.41-0.882-1.41s-0.406,0.526-0.61,0.732
			c-0.205,0.203-0.528,0.16-0.937,0.203c-0.405,0.039-0.89,0.202-1.378,0.484c-0.488,0.283-0.771,0.567-0.894,0.934
			c-0.121,0.365-0.771,2.436-0.933,3.574C25.708,28.881,27.414,28.721,27.414,28.721z M32.489,27.235
			c0.158,0,0.311,0.154,0.311,0.311c0,0.157-0.153,0.308-0.311,0.308c-0.156,0-0.31-0.15-0.31-0.308
			C32.179,27.39,32.333,27.235,32.489,27.235z M32.489,30.103c0.158,0,0.311,0.151,0.311,0.31c0,0.157-0.153,0.308-0.311,0.308
			c-0.156,0-0.31-0.15-0.31-0.308C32.179,30.254,32.333,30.103,32.489,30.103z"/>
		<path fill="#0F8275" d="M38.175,37.682c-0.45-2.738-1.721-4.226-2.002-4.529c-1.44,0.701-2.735,0.934-3.821,0.934
			c-1.971,0-3.245-0.762-3.499-0.93c-0.974,0.988-2.234,5.074-2.234,5.074c-0.761,2.797-3.319,5.102-3.319,5.102
			c1.388,1.613,3.579,1.167,3.579,1.167c1.501,1.674,3.769,0.959,3.769,0.959c1.04,0.803,4.022,0.097,4.022,0.097
			c1.371,0.805,2.955-0.136,3.191-0.506c1.809,0.938,3.373-1.615,3.373-1.615C39.025,42.867,38.175,37.682,38.175,37.682z"/>
	</g>
	<g>
		<path fill="#FFFFFF" d="M27.414,26.268l0.285-0.73c0,0,0,0.325-0.04,0.73c-0.041,0.407,0.603,1.192,0.891,1.677
			c0.149,0.249,0.575,1.519,0.532,2.243c0.013,0.006,0.027,0.008,0.041,0.018c0.115,0.076,2.961,1.953,6.964-0.091
			c0.006-0.004,0.011-0.002,0.015-0.004c0.01-0.489,0.09-0.934,0.125-1.163c0.094-0.606,0.445-1.382,0.608-1.663
			c0.034-0.061,0.175-0.237,0.19-0.461c0.017-0.225-0.072-0.497-0.077-0.565c-0.037-0.578,0.131,0.296,0.131,0.296s0,0,0.323,0.121
			c1.017,0.16,2.031-0.366,1.992-0.567c-0.043-0.206-0.813-3.616-0.977-4.263c-0.163-0.653-1.137-0.896-1.664-0.896
			c-0.529,0-1.382-0.124-1.382-0.124l-0.731-0.606c0,0-0.041,0.569-0.203,0.891c-0.162,0.325-0.731,0.692-1.502,0.854
			c-0.771,0.165-1.876-0.293-2.162-0.539c-0.285-0.245-0.882-1.41-0.882-1.41s-0.406,0.529-0.61,0.734
			c-0.205,0.2-0.528,0.158-0.937,0.2c-0.405,0.039-0.89,0.203-1.378,0.485c-0.488,0.287-0.771,0.566-0.894,0.937
			c-0.121,0.362-0.771,2.433-0.933,3.571C25.708,26.43,27.414,26.268,27.414,26.268z M32.489,24.786c0.158,0,0.311,0.15,0.311,0.311
			c0,0.154-0.153,0.31-0.311,0.31c-0.156,0-0.31-0.155-0.31-0.31C32.179,24.937,32.333,24.786,32.489,24.786z M32.489,27.65
			c0.158,0,0.311,0.15,0.311,0.312c0,0.154-0.153,0.31-0.311,0.31c-0.156,0-0.31-0.155-0.31-0.31
			C32.179,27.801,32.333,27.65,32.489,27.65z"/>
		<path fill="#FFFFFF" d="M38.175,35.23c-0.45-2.737-1.721-4.228-2.002-4.528c-1.44,0.697-2.735,0.93-3.821,0.93
			c-1.971,0-3.245-0.76-3.499-0.926c-0.974,0.989-2.234,5.073-2.234,5.073c-0.761,2.8-3.319,5.101-3.319,5.101
			c1.388,1.615,3.579,1.171,3.579,1.171c1.501,1.67,3.769,0.955,3.769,0.955c1.04,0.803,4.022,0.094,4.022,0.094
			c1.371,0.811,2.955-0.133,3.191-0.502c1.809,0.938,3.373-1.615,3.373-1.615C39.025,40.414,38.175,35.23,38.175,35.23z"/>
	</g>
</g>
</svg>
