<?xml version="1.0" encoding="utf-8"?>
<!-- Generator: Adobe Illustrator 16.0.0, SVG Export Plug-In . SVG Version: 6.00 Build 0)  -->
<!DOCTYPE svg PUBLIC "-//W3C//DTD SVG 1.1//EN" "http://www.w3.org/Graphics/SVG/1.1/DTD/svg11.dtd">
<svg version="1.1" id="Layer_1" xmlns="http://www.w3.org/2000/svg" xmlns:xlink="http://www.w3.org/1999/xlink" x="0px" y="0px"
	 width="64px" height="64px" viewBox="0 0 64 64" enable-background="new 0 0 64 64" xml:space="preserve">
<g id="Hat">
	<path fill="#CE2E6B" d="M61.746,40.904c0,12.473-10.561,22.587-23.589,22.587H26.099c-13.031,0-23.591-10.114-23.591-22.587V26.832
		c0-12.47,10.56-22.582,23.591-22.582h12.059c13.027,0,23.589,10.112,23.589,22.582L61.746,40.904L61.746,40.904z"/>
	<path fill="#EC3F7A" d="M61.746,38.457c0,12.473-10.561,22.581-23.589,22.581H26.099c-13.031,0-23.591-10.108-23.591-22.581V24.382
		c0-12.472,10.56-22.583,23.591-22.583h12.059c13.027,0,23.589,10.111,23.589,22.583L61.746,38.457L61.746,38.457z"/>
	<g>
		<path fill="#CE2C6B" d="M42.453,34.629c-0.143-0.802-2.189-1.162-5.159-1.042c0.265,0.728,0.493,1.558,0.503,1.593
			c0.053,0.188-0.053,0.383-0.24,0.438c-1.688,0.51-3.654,0.958-5.69,1.303c-1.941,0.331-3.874,0.548-5.591,0.637
			c-0.008,0-0.014,0-0.02,0c-0.088,0-0.172-0.033-0.241-0.093c-0.07-0.063-0.111-0.153-0.115-0.248
			c-0.002-0.04-0.043-0.86-0.053-1.522c-2.574,0.879-4.18,1.854-4.047,2.613c0.222,1.24,5.025,1.422,10.729,0.41
			C38.229,37.698,42.676,35.869,42.453,34.629z"/>
		<path fill="#CE2C6B" d="M26.559,35.475c0.002,0.42,0.023,0.982,0.039,1.344c1.597-0.094,3.367-0.303,5.148-0.604
			c1.871-0.316,3.684-0.725,5.264-1.183c-0.104-0.351-0.279-0.908-0.453-1.372c-0.006-0.012-0.004-0.025-0.008-0.035
			c-0.004,0.002-0.01,0.002-0.016,0.002c-0.463-1.281-1.215-3.141-1.92-3.881c0,0-0.479-0.715-1.797-0.887
			c0,0-0.119-0.02-0.379-0.02c-0.527,0.055-1.63,0.419-2.635,0.869c-0.047,0.021-0.099,0.031-0.147,0.031
			c-0.135,0-0.266-0.08-0.327-0.209c-0.078-0.183,0-0.394,0.183-0.476c0.454-0.204,1.004-0.422,1.521-0.594
			c-1.66-0.338-2.664,0.397-2.664,0.397c-1.159,0.633-1.348,1.479-1.348,1.479c-0.422,1.022-0.477,3.571-0.471,5.086
			C26.551,35.439,26.559,35.456,26.559,35.475z"/>
	</g>
	<g>
		<path fill="#FFFFFF" d="M42.453,32.177c-0.143-0.802-2.189-1.16-5.159-1.041c0.265,0.726,0.493,1.554,0.503,1.595
			c0.053,0.188-0.053,0.381-0.24,0.438c-1.688,0.505-3.654,0.955-5.69,1.298c-1.941,0.331-3.874,0.553-5.591,0.637
			c-0.008,0-0.014,0-0.02,0c-0.088,0-0.172-0.031-0.241-0.088c-0.07-0.065-0.111-0.154-0.115-0.25
			c-0.002-0.039-0.043-0.859-0.053-1.523c-2.574,0.879-4.18,1.855-4.047,2.613c0.222,1.24,5.025,1.426,10.729,0.41
			C38.229,35.248,42.676,33.416,42.453,32.177z"/>
		<path fill="#FFFFFF" d="M26.559,33.021c0.002,0.42,0.023,0.983,0.039,1.347c1.597-0.097,3.367-0.304,5.148-0.607
			c1.871-0.315,3.684-0.723,5.264-1.181c-0.104-0.349-0.279-0.907-0.453-1.374c-0.006-0.01-0.004-0.021-0.008-0.033
			c-0.004,0.002-0.01,0.002-0.016,0.002c-0.463-1.28-1.215-3.14-1.92-3.88c0,0-0.479-0.717-1.797-0.888c0,0-0.119-0.02-0.379-0.02
			c-0.527,0.055-1.63,0.419-2.635,0.87c-0.047,0.021-0.099,0.031-0.147,0.031c-0.135,0-0.266-0.08-0.327-0.212
			c-0.078-0.18,0-0.392,0.183-0.472c0.454-0.206,1.004-0.423,1.521-0.598c-1.66-0.335-2.664,0.399-2.664,0.399
			c-1.159,0.635-1.348,1.479-1.348,1.479c-0.422,1.025-0.477,3.571-0.471,5.087C26.551,32.989,26.559,33.005,26.559,33.021z"/>
	</g>
</g>
</svg>
