<?xml version="1.0" encoding="utf-8"?>
<!-- Generator: Adobe Illustrator 16.0.0, SVG Export Plug-In . SVG Version: 6.00 Build 0)  -->
<!DOCTYPE svg PUBLIC "-//W3C//DTD SVG 1.1//EN" "http://www.w3.org/Graphics/SVG/1.1/DTD/svg11.dtd">
<svg version="1.1" id="Layer_1" xmlns="http://www.w3.org/2000/svg" xmlns:xlink="http://www.w3.org/1999/xlink" x="0px" y="0px"
	 width="64px" height="64px" viewBox="0 0 64 64" enable-background="new 0 0 64 64" xml:space="preserve">
<g id="Hoodie">
	<path fill="#594482" d="M61.887,40.91c0,12.474-10.562,22.584-23.591,22.584H26.239c-13.03,0-23.592-10.11-23.592-22.584V26.838
		c0-12.473,10.562-22.584,23.592-22.584h12.058c13.029,0,23.592,10.111,23.592,22.584V40.91H61.887z"/>
	<path fill="#795CA6" d="M61.887,38.461c0,12.471-10.562,22.58-23.591,22.58H26.239c-13.03,0-23.592-10.109-23.592-22.58V24.387
		c0-12.473,10.562-22.584,23.592-22.584h12.058c13.029,0,23.592,10.111,23.592,22.584v14.074H61.887z"/>
	<path fill="#594482" d="M35.251,27.738l0.082,0.19l3.774,1.902l3.556,12.802l-0.003,0.581c0.158,0.355,0.377,0.902,0.3,1.096
		l-1.94,0.353c0,0-0.272-0.578-0.463-1.099l-0.385-0.519l-2.51-7.785l-0.092,9.828c-0.002,0.063-0.016,0.134-0.038,0.204
		l-0.296,0.73v0.853c-6.785,1.339-9.727,0.168-9.727,0.168c0.006-0.258,0.009-0.587,0.01-0.587l-0.327-0.637
		c-0.282-0.396-0.252-0.928-0.252-0.928l-0.09-9.633l-2.519,7.813l-0.325,0.521c-0.189,0.521-0.452,1.081-0.452,1.081l-1.979-0.354
		c-0.082-0.203,0.141-0.768,0.297-1.125l-0.017-0.586l3.549-12.777l4.247-1.887l0.003-0.2c0.01-0.435-0.353-0.641-0.353-0.641
		c-0.357-0.289-0.861-0.809-0.928-1.499c-0.138-0.515,0.236-1,0.236-1c0.453-0.81,2.188-3.749,3.813-4.376
		c0,0,1.856,0.256,4.112,4.368c0,0,0.088,0.125,0.143,0.347c0,0,0.149,0.301-0.063,0.883c-0.135,0.369-0.424,0.798-0.985,1.252
		C35.63,27.078,35.169,27.553,35.251,27.738z"/>
	<path fill="#594482" d="M30.068,39.473l-1.609,2.803c-0.053,0.091-0.15,0.142-0.249,0.142c-0.049,0-0.098-0.013-0.142-0.037
		c-0.138-0.079-0.186-0.255-0.106-0.39l1.61-2.805c0.079-0.135,0.254-0.182,0.391-0.104C30.101,39.158,30.148,39.336,30.068,39.473z
		"/>
	<path fill="#594482" d="M36.296,42.379c-0.045,0.025-0.095,0.037-0.144,0.037c-0.098,0-0.195-0.051-0.248-0.143l-1.609-2.801
		c-0.079-0.138-0.031-0.314,0.105-0.392c0.137-0.078,0.313-0.031,0.392,0.104l1.61,2.804C36.48,42.124,36.434,42.3,36.296,42.379z"
		/>
	<g>
		<path fill="#FFFFFF" d="M32.822,26.869c0.035-0.138,0.05-0.247,0.059-0.315C32.857,26.653,32.837,26.759,32.822,26.869z"/>
		<path fill="#FFFFFF" d="M32.516,21.057c0.135-0.008,2.754-0.086,4.164,1.436c-0.055-0.22-0.144-0.349-0.144-0.349
			c-2.255-4.109-4.112-4.366-4.112-4.366c-1.625,0.625-3.36,3.565-3.813,4.374C29.319,21.656,30.515,21.162,32.516,21.057z"/>
		<path fill="#FFFFFF" d="M32.541,21.629c-2.723,0.145-3.781,1.029-4.166,1.528c0.067,0.688,0.571,1.206,0.928,1.496
			c0.708,0.096,2.519,0.444,2.837,1.519c0.004,0.018,0.007,0.031,0.01,0.047c0,0.006,0.032,0.247,0.099,0.604
			c0.009-0.069,0.015-0.14,0.027-0.206c-0.018-0.037-0.032-0.076-0.033-0.119c-0.013-0.729-0.351-0.959-0.861-1.302
			c-0.274-0.186-0.585-0.394-0.878-0.713c-0.918-1-0.505-1.945-0.486-1.984c0.066-0.146,0.237-0.208,0.379-0.145
			c0.144,0.064,0.208,0.234,0.144,0.38c-0.012,0.029-0.264,0.654,0.386,1.363c0.246,0.267,0.516,0.446,0.776,0.625
			c0.353,0.237,0.71,0.481,0.922,0.912c0.454-0.811,1.186-1.251,1.668-1.539c0.072-0.043,0.139-0.084,0.197-0.121
			c0.287-0.179,0.179-0.836-0.02-1.392c-0.054-0.148,0.025-0.312,0.174-0.366c0.151-0.053,0.313,0.027,0.366,0.175
			c0.362,1.017,0.287,1.751-0.213,2.068c-0.063,0.039-0.135,0.08-0.211,0.128c-0.519,0.311-1.28,0.768-1.619,1.685
			c0.659-1.328,2.533-1.634,2.614-1.646c0.016-0.004,0.031,0.002,0.049,0.002c0.561-0.455,0.852-0.884,0.985-1.252
			C35.574,21.538,32.574,21.625,32.541,21.629z"/>
		<g>
			<path fill="#FFFFFF" d="M24.332,40.618l2.519-7.812l0.09,9.633c0,0-0.03,0.533,0.252,0.931c0.125,0.024,0.308,0.052,0.412,0.069
				c0.107,0.016,0.196,0.028,0.236,0.035c0.016,0.004,1.824,0.367,4.182,0.334c-0.374-3.127-0.009-14.507,0.02-15.382
				c-0.296-0.979-0.435-1.94-0.458-2.113c-0.183-0.547-1.178-0.866-1.93-1.02l-0.003,0.198l-4.247,1.887l-3.549,12.78L24.332,40.618
				z M27.962,39.539l1.61-2.805c0.079-0.135,0.254-0.184,0.391-0.104c0.138,0.078,0.185,0.255,0.105,0.393l-1.609,2.802
				c-0.053,0.09-0.15,0.141-0.249,0.141c-0.049,0-0.098-0.012-0.142-0.036C27.931,39.852,27.883,39.674,27.962,39.539z"/>
			<path fill="#FFFFFF" d="M36.637,43.18c0.262-0.089,0.715-0.257,0.896-0.339c0.022-0.069,0.036-0.141,0.038-0.204l0.092-9.828
				l2.51,7.787l2.491-0.412L39.107,27.38l-3.775-1.902l-0.082-0.19c-0.539,0.159-1.445,0.523-1.794,1.276
				c-0.022,0.237-0.163,1.165-0.843,1.937c-0.036,1.123-0.386,12.396-0.016,15.291C34.068,43.732,35.43,43.531,36.637,43.18z
				 M34.4,36.632c0.137-0.08,0.313-0.03,0.392,0.104l1.61,2.804c0.078,0.135,0.031,0.312-0.105,0.39
				c-0.045,0.025-0.095,0.037-0.143,0.037c-0.1,0-0.196-0.051-0.248-0.141l-1.61-2.803C34.216,36.887,34.264,36.71,34.4,36.632z"/>
			<path fill="#FFFFFF" d="M21.873,40.743c-0.156,0.358-0.378,0.925-0.297,1.124l1.979,0.357c0,0,0.262-0.56,0.452-1.082
				L21.873,40.743z"/>
			<path fill="#FFFFFF" d="M40.555,41.111c0.19,0.522,0.463,1.099,0.463,1.099l1.941-0.354c0.078-0.188-0.141-0.735-0.3-1.092
				L40.555,41.111z"/>
			<path fill="#FFFFFF" d="M36.813,43.725c-1.34,0.393-2.834,0.609-4.453,0.652c-0.209,0.006-0.415,0.01-0.617,0.01
				c-2.271,0-3.942-0.332-4.018-0.349c-0.036-0.011-0.113-0.021-0.205-0.035c-0.001,0-0.001,0-0.001,0
				c0,0.144-0.002,0.331-0.009,0.59c0,0,2.941,1.173,9.727-0.167v-0.852C37.046,43.645,36.872,43.705,36.813,43.725z"/>
		</g>
	</g>
</g>
</svg>
