<?xml version="1.0" encoding="utf-8"?>
<!-- Generator: Adobe Illustrator 16.0.0, SVG Export Plug-In . SVG Version: 6.00 Build 0)  -->
<!DOCTYPE svg PUBLIC "-//W3C//DTD SVG 1.1//EN" "http://www.w3.org/Graphics/SVG/1.1/DTD/svg11.dtd">
<svg version="1.1" id="Layer_1" xmlns="http://www.w3.org/2000/svg" xmlns:xlink="http://www.w3.org/1999/xlink" x="0px" y="0px"
	 width="64px" height="64px" viewBox="0 0 64 64" enable-background="new 0 0 64 64" xml:space="preserve">
<g id="Jacket">
	<path fill="#9A6596" d="M61.751,41.213c0,12.473-10.562,22.582-23.589,22.582H26.104c-13.03,0-23.592-10.109-23.592-22.582V27.139
		c0-12.471,10.562-22.582,23.592-22.582h12.058c13.027,0,23.589,10.111,23.589,22.582V41.213z"/>
	<path fill="#C183B8" d="M61.751,38.762c0,12.473-10.562,22.582-23.589,22.582H26.104c-13.03,0-23.592-10.109-23.592-22.582V24.688
		c0-12.473,10.562-22.583,23.592-22.583h12.058c13.027,0,23.589,10.11,23.589,22.583V38.762z"/>
	<path fill="#9A6596" d="M43.027,43.583c0.02-0.076,0.037-0.149,0.063-0.229c0.021-0.021,0.039-0.045,0.058-0.07
		c0.144-0.229,0.172-0.719-0.711-2.607c0.002-0.466-0.033-3.062-1.111-4.775c0.004-0.35-0.025-1.582-0.594-2.33
		c-0.076-0.448-0.504-2.987-0.39-4.73c0.007-0.031,0.4-2.875-2.327-3.775l-0.515-0.221c0.002-0.004,0.004-0.004,0.004-0.008
		c-0.012-0.165-0.055-0.364-0.174-0.584c-0.347-0.648-1.146-1.144-2.367-1.471c-0.112-0.037-2.871-0.94-6.292,0.214
		c-1.42,0.481-2.196,0.943-2.444,1.469c-0.142,0.303-0.092,0.567-0.025,0.773l-0.588,0.23c-0.333,0.146-0.703,0.377-1.028,0.745
		c-0.661,0.754-0.937,1.841-0.815,3.236c-0.061,0.44-0.405,3.034-0.113,4.065c-0.272,0.383-0.964,1.441-0.676,2.174
		c-0.16,0.375-0.578,1.442-0.481,2.104c0.029,0.194-0.08,0.438-0.226,0.774c-0.253,0.586-0.637,1.465-0.637,2.928
		c0,0.72-0.189,0.995-0.356,1.234c-0.225,0.326-0.353,0.592-0.115,1.14l0.092,0.577l-0.215,0.986
		c-0.027,0.133,0.039,0.267,0.16,0.32c0.066,0.029,0.686,0.28,2.509,0.023c0.15-0.021,0.26-0.166,0.242-0.318
		c-0.002-0.008-0.084-0.664,0.205-1.093c0.36-0.315,0.48-0.36,0.48-0.36c0.033-0.02,0.07-0.031,0.09-0.064
		c0.049-0.063,0.46-0.688,0.861-3.313c0.123-0.791,0.269-1.424,0.409-1.92c-0.059,0.969-0.15,2.288-0.294,3.777
		c0.02,0.006,0.038,0.008,0.058,0.016c0,0.002,0.012,0.006,0.025,0.012c-0.025-0.008-0.063-0.02-0.083-0.027l-0.258,1.334
		c-0.02,0.109,0.025,0.224,0.117,0.289c0.105,0.072,1.885,1.24,5.92,1.3v0.006h1.097v-0.019c1.669-0.057,3.651-0.291,6.013-0.838
		c0.131-0.031,0.219-0.146,0.219-0.275l-0.026-1.561c-0.019,0.002-0.031,0.006-0.047,0.01c0.004-0.002,0.01-0.004,0.016-0.006
		c0.011-0.004,0.021-0.002,0.031-0.004c-0.043-0.4-0.132-1.222-0.245-2.219c0.078,0.264,0.21,0.563,0.438,0.938
		c0.285,0.475,0.277,0.678,0.267,0.938c-0.017,0.351-0.022,0.754,0.565,1.651c0,0,0.179,0.223,0.313,0.472
		c0.138,0.25,0.272,0.62,0.226,1.075c-0.016,0.148,0.09,0.287,0.237,0.31c0.027,0.007,0.363,0.06,0.806,0.06
		c0.494,0,1.119-0.066,1.605-0.338c0.123-0.07,0.18-0.219,0.127-0.351c-0.002-0.008-0.18-0.5-0.168-1.106L43.027,43.583z"/>
	<g>
		<path fill="#FFFFFF" d="M35.486,22.324c-0.113-0.292-0.504-0.507-0.887-0.651c0.045,0.876-0.863,2.274-1.517,3.157
			c0.908-0.483,1.821-1.349,2.196-1.758C35.494,22.79,35.57,22.533,35.486,22.324z"/>
		<path fill="#FFFFFF" d="M21.314,41.98c-0.016,0.011-0.038,0.011-0.056,0.019l-0.215,0.987c-0.027,0.127,0.039,0.262,0.16,0.313
			c0.066,0.031,0.686,0.282,2.509,0.025c0.15-0.021,0.26-0.162,0.242-0.316c-0.002-0.008-0.084-0.666,0.205-1.093
			C23.771,41.727,22.55,41.234,21.314,41.98z"/>
		<path fill="#FFFFFF" d="M34.014,21.579c-0.043-0.097-0.178-0.144-0.391-0.144c-0.021,0-0.041-0.004-0.057-0.004
			c-0.004-0.002-0.389-0.08-1.067-0.08c-0.721,0-1.492,0.086-2.296,0.247c-0.028,0.006-0.208,0.045-0.272,0.241
			c-0.086,0.265-0.061,1.123,2.006,3.33c0.002,0,0.008,0,0.012,0c0.004,0,0.008,0.002,0.01,0.002
			c0.033-0.004,0.089-0.014,0.175-0.044C33.061,23.994,34.27,22.12,34.014,21.579z"/>
		<path fill="#FFFFFF" d="M28.121,22.525c-0.102,0.341,0.302,0.77,0.652,1.069c0.021,0.018,1.087,0.946,2.216,1.369
			c-1.247-1.434-1.773-2.481-1.615-3.201C28.795,21.927,28.227,22.185,28.121,22.525z"/>
		<path fill="#FFFFFF" d="M31.767,31.073c-0.229-1.586-0.018-5.155-0.004-5.347c-0.039-0.002-0.072-0.002-0.108-0.008
			c-0.357-0.021-0.702-0.06-1.037-0.124c0.037,0.288,0.033,0.7-0.119,1.254c-0.193,0.695-0.014,1.208,0.131,1.623
			c0.061,0.172,0.115,0.334,0.139,0.485c0.051,0.341,0.025,0.729,0.008,0.982c-0.004,0.106-0.012,0.188-0.01,0.233
			c0.031,0.152-0.068,0.298-0.225,0.329c-0.018,0.002-0.035,0.006-0.053,0.006c-0.133,0-0.256-0.098-0.283-0.235
			c-0.016-0.076-0.012-0.176,0.002-0.368c0.018-0.244,0.041-0.579-0.004-0.855c-0.016-0.105-0.062-0.237-0.114-0.392
			c-0.16-0.463-0.38-1.096-0.143-1.957c0.193-0.701,0.107-1.098,0.057-1.247c-2.554-0.678-4.298-2.346-4.388-2.434l0,0
			c-0.333,0.145-0.703,0.372-1.028,0.742c-0.661,0.754-0.937,1.841-0.815,3.235c-0.061,0.439-0.405,3.035-0.113,4.066
			c-0.272,0.38-0.964,1.442-0.676,2.171c-0.16,0.377-0.578,1.444-0.481,2.107c0.029,0.196-0.08,0.439-0.226,0.777
			c-0.253,0.582-0.637,1.461-0.637,2.927c0,0.718-0.189,0.993-0.356,1.231c-0.225,0.326-0.353,0.594-0.115,1.14
			c1.706-0.924,3.336,0.035,3.408,0.075c0.025,0.016,0.047,0.041,0.065,0.063c0.033-0.02,0.07-0.033,0.09-0.063
			c0.049-0.063,0.46-0.688,0.861-3.313c0.123-0.794,0.269-1.424,0.409-1.917c-0.059,0.966-0.15,2.287-0.294,3.774
			c0.02,0.006,0.038,0.006,0.058,0.014c0.033,0.02,2.341,1.155,6.008,1.27c-0.078-2.258-0.146-5.66,0.088-6.42
			c0.31-1.004,0.135-2.217-0.084-3.752L31.767,31.073z M29.337,34.835c-0.113,0.343-1.147,3.354-2.362,4.005
			c-0.043,0.023-0.088,0.033-0.134,0.033c-0.1,0-0.199-0.055-0.25-0.148c-0.074-0.139-0.021-0.31,0.117-0.386
			c0.86-0.462,1.801-2.813,2.091-3.683c0.051-0.148,0.215-0.229,0.358-0.182C29.306,34.525,29.386,34.686,29.337,34.835z
			 M29.066,32.902c-0.002,0-0.002,0-0.004,0c-2.143-0.036-3.467-4.767-3.609-5.304c-0.037-0.15,0.051-0.308,0.203-0.347
			c0.151-0.039,0.306,0.049,0.345,0.2c0.36,1.352,1.617,4.859,3.071,4.886c0.159,0.002,0.282,0.129,0.28,0.288
			C29.349,32.782,29.224,32.902,29.066,32.902z"/>
		<path fill="#FFFFFF" d="M29.053,24.535c-0.374-0.271-0.618-0.486-0.649-0.51c-0.699-0.591-0.981-1.153-0.825-1.664
			c0.304-1.018,2.253-1.29,2.522-1.321c0,0,0.002,0,0.004,0c0.826-0.17,1.633-0.254,2.395-0.254c0.643,0,1.042,0.061,1.152,0.08
			c0.104,0.002,0.188,0.021,0.274,0.037c0.009,0.002,0.017-0.002,0.023,0c0.175,0.027,1.706,0.306,2.063,1.213
			c0.161,0.407,0.062,0.853-0.3,1.32c-0.047,0.053-0.522,0.567-1.181,1.099c1.146-0.421,2.374-1.091,2.968-2.143
			c0.002-0.004,0.004-0.004,0.004-0.006c-0.012-0.166-0.055-0.366-0.174-0.589c-0.347-0.646-1.146-1.144-2.367-1.469
			c-0.112-0.037-2.871-0.941-6.292,0.214c-1.42,0.478-2.196,0.943-2.444,1.468c-0.142,0.304-0.092,0.567-0.025,0.773
			C26.608,23.131,27.642,23.949,29.053,24.535z"/>
		<path fill="#FFFFFF" d="M42.438,38.227c0.002-0.467-0.033-3.063-1.111-4.775c0.004-0.352-0.025-1.585-0.594-2.333
			c-0.076-0.447-0.504-2.986-0.39-4.729c0.007-0.033,0.4-2.876-2.327-3.776c-0.007,0.02-0.009,0.039-0.021,0.057
			c-0.81,1.432-2.56,2.219-3.966,2.638c-0.168,0.574-0.452,1.91-0.127,2.557c0.377,0.759,0.293,1.271,0.224,1.724
			c-0.022,0.157-0.049,0.319-0.053,0.49c-0.003,0.156-0.132,0.278-0.285,0.278c0,0-0.004,0-0.006,0
			c-0.158-0.002-0.282-0.132-0.276-0.29c0.003-0.206,0.03-0.388,0.061-0.568c0.063-0.421,0.123-0.783-0.174-1.382
			c-0.371-0.744-0.154-1.979,0.006-2.641c-0.322,0.078-0.607,0.14-0.836,0.181c-0.082,0.021-0.163,0.038-0.241,0.052
			c0,0.018,0.006,0.031,0.006,0.049c-0.004,0.035-0.223,3.7-0.004,5.237l0.012,0.072c0.23,1.607,0.411,2.876,0.069,3.998
			c-0.198,0.645-0.144,3.869-0.065,6.27c1.857,0.002,4.027-0.268,6.416-1.059c0.01-0.002,0.02-0.002,0.031-0.004
			c-0.043-0.398-0.133-1.217-0.245-2.217c0.078,0.26,0.21,0.563,0.437,0.938c0.287,0.472,0.278,0.676,0.268,0.934
			c-0.016,0.353-0.023,0.757,0.566,1.653c0.449-0.282,1.621-0.854,3.215-0.446c0.021-0.077,0.037-0.153,0.064-0.229
			c0.021-0.02,0.039-0.043,0.059-0.069C43.292,40.604,43.32,40.114,42.438,38.227z M37.354,38.725
			c-0.053,0.094-0.151,0.148-0.252,0.148c-0.047,0-0.094-0.01-0.135-0.033c-1.212-0.65-2.246-3.662-2.359-4.005
			c-0.051-0.149,0.029-0.31,0.179-0.36c0.146-0.047,0.31,0.033,0.36,0.183c0.291,0.868,1.23,3.223,2.095,3.683
			C37.375,38.415,37.426,38.586,37.354,38.725z M38.488,27.805c-0.141,0.538-1.467,5.27-3.609,5.304h-0.004
			c-0.154,0-0.279-0.125-0.284-0.277c-0.002-0.16,0.124-0.288,0.278-0.292c1.457-0.022,2.711-3.533,3.07-4.882
			c0.043-0.15,0.194-0.243,0.348-0.201C38.439,27.497,38.529,27.649,38.488,27.805z"/>
		<path fill="#FFFFFF" d="M32.359,41.919c0.016,0.384,0.029,0.733,0.041,1.036c1.706-0.046,3.75-0.28,6.194-0.848
			c0.133-0.032,0.221-0.146,0.221-0.275v-0.98C36.408,41.636,34.227,41.913,32.359,41.919z"/>
		<path fill="#FFFFFF" d="M25.602,40.604l-0.152,0.765c-0.02,0.11,0.025,0.226,0.117,0.292c0.107,0.072,1.98,1.314,6.269,1.304
			c-0.012-0.257-0.027-0.61-0.041-1.052C28.354,41.818,26.091,40.837,25.602,40.604z"/>
		<path fill="#FFFFFF" d="M42.957,41.7c-1.41-0.38-2.451,0.118-2.833,0.352c0.138,0.249,0.272,0.621,0.226,1.075
			c-0.016,0.148,0.09,0.288,0.237,0.311c0.026,0.006,0.363,0.057,0.806,0.057c0.494,0,1.119-0.064,1.605-0.335
			c0.123-0.07,0.179-0.22,0.127-0.351C43.123,42.8,42.945,42.307,42.957,41.7z"/>
	</g>
</g>
</svg>
