<?xml version="1.0" encoding="utf-8"?>
<!-- Generator: Adobe Illustrator 16.0.0, SVG Export Plug-In . SVG Version: 6.00 Build 0)  -->
<!DOCTYPE svg PUBLIC "-//W3C//DTD SVG 1.1//EN" "http://www.w3.org/Graphics/SVG/1.1/DTD/svg11.dtd">
<svg version="1.1" id="Layer_1" xmlns="http://www.w3.org/2000/svg" xmlns:xlink="http://www.w3.org/1999/xlink" x="0px" y="0px"
	 width="64px" height="64px" viewBox="0 0 64 64" enable-background="new 0 0 64 64" xml:space="preserve">
<g id="Jeans">
	<path fill="#3D87AD" d="M61.746,40.107c0,12.473-10.561,22.584-23.589,22.584H26.099c-13.029,0-23.591-10.111-23.591-22.584V26.033
		C2.508,13.562,13.07,3.45,26.099,3.45h12.059c13.027,0,23.589,10.111,23.589,22.583L61.746,40.107L61.746,40.107z"/>
	<path fill="#53A1D8" d="M61.746,37.656c0,12.473-10.561,22.583-23.589,22.583H26.099c-13.029,0-23.591-10.11-23.591-22.583V23.583
		C2.508,11.111,13.069,1,26.099,1h12.059c13.027,0,23.589,10.111,23.589,22.583L61.746,37.656L61.746,37.656z"/>
	<g>
		<path fill="#3D87AD" d="M37.169,22.049l-0.083-0.522l-0.174-0.883c-0.018-0.084-0.074-0.157-0.152-0.197
			c-0.078-0.039-0.17-0.042-0.246-0.006c-0.014,0.008-1.162,0.518-4.033,0.604v1.728c0,0.021-0.01,0.041-0.012,0.059
			c0.532-0.015,3.27-0.125,4.69-0.778C37.163,22.049,37.167,22.05,37.169,22.049z M33.109,22.397c-0.229,0-0.414-0.185-0.414-0.416
			c0-0.225,0.185-0.409,0.414-0.409c0.227,0,0.41,0.184,0.41,0.409C33.52,22.212,33.336,22.397,33.109,22.397z"/>
		<path fill="#3D87AD" d="M32.759,27.719c0.911-0.845,0.821-3.431,0.71-4.368c-0.453,0.031-0.799,0.043-0.973,0.049
			c0.029,0.998,0.033,3.507-0.627,4.58C32.228,28.021,32.525,27.94,32.759,27.719z"/>
		<path fill="#3D87AD" d="M37.927,26.827l-0.665-4.207c-0.545,0.228-1.212,0.391-1.888,0.505L37.927,26.827z"/>
		<path fill="#3D87AD" d="M31.922,22.824c-0.004-0.018-0.01-0.033-0.01-0.053v-1.728c-2.873-0.086-4.023-0.596-4.033-0.602
			c-0.08-0.035-0.172-0.035-0.248,0.003c-0.078,0.041-0.136,0.113-0.151,0.199l-0.238,1.391c0.025,0.004,0.049,0.006,0.072,0.018
			C28.617,22.65,31.094,22.794,31.922,22.824z"/>
		<path fill="#3D87AD" d="M27.146,22.595l-0.699,4.078l2.507-3.573C28.297,22.981,27.656,22.818,27.146,22.595z"/>
		<path fill="#3D87AD" d="M38.669,31.517l-0.535-3.389l-3.346-4.849c-0.015-0.018-0.019-0.039-0.024-0.061
			c-0.256,0.034-0.498,0.061-0.73,0.084c0.041,0.336,0.386,3.651-0.885,4.834c-0.306,0.287-0.677,0.431-1.101,0.431
			c-0.093,0-0.188-0.016-0.282-0.028l0.505,1.608c1.967,3.789,2.831,15.19,2.84,15.309c0.009,0.146,0.13,0.257,0.274,0.263
			c0.109,0.004,0.226,0.006,0.341,0.006c1.959,0,4.453-0.525,4.562-0.545c0.144-0.033,0.243-0.171,0.224-0.32L38.669,31.517z"/>
		<path fill="#3D87AD" d="M31.074,28.223c-0.043-0.128,0.014-0.264,0.129-0.332c0.598-0.344,0.776-2.748,0.723-4.497
			c-0.442-0.015-1.36-0.062-2.345-0.197l-3.357,4.782l-0.641,3.746l-1.837,13.272c-0.023,0.153,0.085,0.294,0.239,0.317
			c0.104,0.02,2.63,0.41,4.583,0.41c0.149,0,0.296-0.002,0.438-0.007c0.146-0.006,0.266-0.118,0.273-0.263
			c0.01-0.112,0.797-10.547,2.59-14.771c0.016-0.036-0.086-0.191-0.113-0.273L31.074,28.223z"/>
	</g>
	<g>
		<path fill="#FFFFFF" d="M37.169,19.598l-0.083-0.521l-0.174-0.884c-0.018-0.085-0.074-0.158-0.152-0.198
			c-0.078-0.038-0.17-0.041-0.246-0.006c-0.014,0.008-1.162,0.519-4.033,0.604v1.728c0,0.021-0.01,0.041-0.012,0.06
			c0.532-0.016,3.27-0.126,4.69-0.78C37.163,19.598,37.167,19.599,37.169,19.598z M33.109,19.946c-0.229,0-0.414-0.184-0.414-0.415
			c0-0.226,0.185-0.409,0.414-0.409c0.227,0,0.41,0.183,0.41,0.409C33.52,19.762,33.336,19.946,33.109,19.946z"/>
		<path fill="#FFFFFF" d="M32.759,25.269c0.911-0.846,0.821-3.431,0.71-4.37c-0.453,0.032-0.799,0.043-0.973,0.05
			c0.029,0.999,0.033,3.507-0.627,4.58C32.228,25.571,32.525,25.489,32.759,25.269z"/>
		<path fill="#FFFFFF" d="M37.927,24.376l-0.665-4.206c-0.545,0.227-1.212,0.392-1.888,0.505L37.927,24.376z"/>
		<path fill="#FFFFFF" d="M31.922,20.374c-0.004-0.018-0.01-0.034-0.01-0.053v-1.728c-2.873-0.085-4.023-0.596-4.033-0.603
			c-0.08-0.034-0.172-0.034-0.248,0.003c-0.078,0.04-0.136,0.113-0.151,0.199l-0.238,1.39c0.025,0.005,0.049,0.006,0.072,0.018
			C28.617,20.2,31.094,20.344,31.922,20.374z"/>
		<path fill="#FFFFFF" d="M27.146,20.144l-0.699,4.077l2.507-3.572C28.297,20.531,27.656,20.368,27.146,20.144z"/>
		<path fill="#FFFFFF" d="M38.669,29.066l-0.535-3.39l-3.346-4.848c-0.015-0.017-0.019-0.04-0.024-0.061
			c-0.256,0.034-0.498,0.061-0.73,0.083c0.041,0.335,0.386,3.652-0.885,4.834c-0.306,0.285-0.677,0.43-1.101,0.43
			c-0.093,0-0.188-0.016-0.282-0.028l0.505,1.607c1.967,3.788,2.831,15.19,2.84,15.31c0.009,0.146,0.13,0.258,0.274,0.263
			c0.109,0.004,0.226,0.006,0.341,0.006c1.959,0,4.453-0.525,4.562-0.547c0.144-0.031,0.243-0.17,0.224-0.317L38.669,29.066z"/>
		<path fill="#FFFFFF" d="M31.074,25.771c-0.043-0.125,0.014-0.262,0.129-0.331c0.598-0.343,0.776-2.748,0.723-4.498
			c-0.442-0.014-1.36-0.062-2.345-0.196l-3.357,4.783l-0.641,3.746l-1.837,13.273c-0.023,0.152,0.085,0.293,0.239,0.317
			c0.104,0.017,2.63,0.41,4.583,0.41c0.149,0,0.296-0.004,0.438-0.008c0.146-0.004,0.266-0.117,0.273-0.263
			c0.01-0.112,0.797-10.546,2.59-14.771c0.016-0.035-0.086-0.192-0.113-0.273L31.074,25.771z"/>
	</g>
</g>
</svg>
