<?xml version="1.0" encoding="utf-8"?>
<!-- Generator: Adobe Illustrator 16.0.0, SVG Export Plug-In . SVG Version: 6.00 Build 0)  -->
<!DOCTYPE svg PUBLIC "-//W3C//DTD SVG 1.1//EN" "http://www.w3.org/Graphics/SVG/1.1/DTD/svg11.dtd">
<svg version="1.1" id="Layer_1" xmlns="http://www.w3.org/2000/svg" xmlns:xlink="http://www.w3.org/1999/xlink" x="0px" y="0px"
	 width="64px" height="64px" viewBox="0 0 64 64" enable-background="new 0 0 64 64" xml:space="preserve">
<g id="Men_x2019_s_Blazer">
	<path fill="#0F8275" d="M61.887,40.836c0,12.473-10.562,22.583-23.591,22.583H26.239c-13.029,0-23.592-10.108-23.592-22.583V26.763
		c0-12.471,10.563-22.582,23.592-22.582h12.058c13.029,0,23.592,10.111,23.592,22.582v14.073H61.887z"/>
	<path fill="#12978B" d="M61.887,38.386c0,12.472-10.562,22.582-23.591,22.582H26.239c-13.029,0-23.592-10.108-23.592-22.582V24.312
		C2.647,11.841,13.21,1.73,26.239,1.73h12.058c13.029,0,23.592,10.11,23.592,22.582v14.074H61.887z"/>
	<g>
		<g>
			<path fill="#0F8275" d="M29.316,24.367l-4.084,1.362c-0.079,0.03-0.143,0.087-0.173,0.166l-5.833,14.462
				c-0.057,0.143,0.009,0.306,0.153,0.367l3.378,1.448c0.071,0.03,0.151,0.03,0.222,0c0.072-0.03,0.127-0.086,0.155-0.159L26,34.773
				c-0.013,1.767-0.01,4.927,0.107,8.879c0.005,0.148,0.126,0.27,0.275,0.275l4.789,0.172c0.041,0,0.257-0.006,0.494-0.1
				c-0.001-0.301,0.006-0.764,0.009-0.941v-2.324c0-0.027,0.026-2.397,0.113-5.184l0.073-0.336L29.714,23.97L29.316,24.367z
				 M31.018,39.104c0,0.158-0.127,0.285-0.284,0.285H27.82c-0.156,0-0.284-0.127-0.284-0.285c0-0.155,0.128-0.283,0.284-0.283h2.914
				C30.891,38.82,31.018,38.948,31.018,39.104z"/>
			<path fill="#0F8275" d="M31.994,23.43c-0.848,0-1.422,0.133-1.757,0.242l1.932,10.135l2.213-10.08
				C33.527,23.533,32.723,23.43,31.994,23.43z"/>
			<path fill="#0F8275" d="M45.311,40.616l-5.752-14.72c-0.031-0.077-0.096-0.137-0.177-0.167l-4.084-1.362l-0.39-0.389
				l-2.472,11.245c0.008,0.068-0.006,0.135-0.043,0.19l-0.046,0.208c-0.078,2.729-0.104,5.093-0.104,5.117v2.328
				c-0.006,0.412-0.01,0.854-0.009,1.05c0.085,0.03,0.175,0.056,0.278,0.056c0.008,0,0.014,0,0.022-0.002l5.676-0.492
				c0.149-0.014,0.263-0.143,0.258-0.293c-0.14-3.967-0.185-7.033-0.198-8.726l3.063,7.519c0.058,0.146,0.22,0.215,0.368,0.16
				l3.449-1.354C45.295,40.93,45.367,40.764,45.311,40.616z M36.418,39.389h-2.914c-0.156,0-0.283-0.127-0.283-0.285
				c0-0.155,0.127-0.283,0.283-0.283h2.914c0.157,0,0.283,0.128,0.283,0.283C36.701,39.262,36.575,39.389,36.418,39.389z"/>
		</g>
	</g>
	<g>
		<g>
			<path fill="#FFFFFF" d="M29.316,21.917l-4.084,1.363c-0.079,0.028-0.143,0.086-0.173,0.166l-5.833,14.462
				c-0.057,0.142,0.009,0.305,0.153,0.367l3.378,1.447c0.071,0.03,0.151,0.03,0.222,0.002c0.072-0.031,0.127-0.086,0.155-0.16
				L26,32.324c-0.013,1.765-0.01,4.926,0.107,8.877c0.005,0.148,0.126,0.27,0.275,0.275l4.789,0.172c0.041,0,0.257-0.006,0.494-0.1
				c-0.001-0.301,0.006-0.765,0.009-0.939v-2.324c0-0.03,0.026-2.4,0.113-5.186l0.073-0.336L29.714,21.52L29.316,21.917z
				 M31.018,36.652c0,0.158-0.127,0.285-0.284,0.285H27.82c-0.156,0-0.284-0.125-0.284-0.285c0-0.155,0.128-0.281,0.284-0.281h2.914
				C30.891,36.371,31.018,36.497,31.018,36.652z"/>
			<path fill="#FFFFFF" d="M31.994,20.979c-0.848,0-1.422,0.133-1.757,0.242l1.932,10.135l2.213-10.08
				C33.527,21.082,32.723,20.979,31.994,20.979z"/>
			<path fill="#FFFFFF" d="M45.311,38.167l-5.752-14.721c-0.031-0.077-0.096-0.138-0.177-0.167l-4.084-1.363l-0.39-0.389
				L32.436,32.77c0.008,0.069-0.006,0.137-0.043,0.191l-0.046,0.209c-0.078,2.727-0.104,5.092-0.104,5.116v2.327
				c-0.006,0.412-0.01,0.854-0.009,1.051c0.085,0.031,0.175,0.055,0.278,0.055c0.008,0,0.014,0,0.022-0.001l5.676-0.495
				c0.149-0.013,0.263-0.141,0.258-0.291c-0.14-3.965-0.185-7.031-0.198-8.726l3.063,7.519c0.058,0.146,0.22,0.215,0.368,0.159
				l3.449-1.351C45.295,38.477,45.367,38.313,45.311,38.167z M36.418,36.938h-2.914c-0.156,0-0.283-0.125-0.283-0.285
				c0-0.155,0.127-0.281,0.283-0.281h2.914c0.157,0,0.283,0.126,0.283,0.281C36.701,36.811,36.575,36.938,36.418,36.938z"/>
		</g>
	</g>
</g>
</svg>
