<?xml version="1.0" encoding="utf-8"?>
<!-- Generator: Adobe Illustrator 16.0.0, SVG Export Plug-In . SVG Version: 6.00 Build 0)  -->
<!DOCTYPE svg PUBLIC "-//W3C//DTD SVG 1.1//EN" "http://www.w3.org/Graphics/SVG/1.1/DTD/svg11.dtd">
<svg version="1.1" id="Layer_1" xmlns="http://www.w3.org/2000/svg" xmlns:xlink="http://www.w3.org/1999/xlink" x="0px" y="0px"
	 width="64px" height="64px" viewBox="0 0 64 64" enable-background="new 0 0 64 64" xml:space="preserve">
<g id="Men_x2019_s_Shirt">
	<path fill="#476572" d="M61.751,40.52c0,12.473-10.562,22.584-23.589,22.584H26.104c-13.03,0-23.592-10.111-23.592-22.584V26.446
		c0-12.472,10.562-22.583,23.592-22.583h12.058c13.027,0,23.589,10.111,23.589,22.583V40.52z"/>
	<path fill="#617F8F" d="M61.751,38.068c0,12.473-10.562,22.584-23.589,22.584H26.104c-13.03,0-23.592-10.111-23.592-22.584V23.994
		c0-12.47,10.562-22.582,23.592-22.582h12.058c13.027,0,23.589,10.112,23.589,22.582V38.068z"/>
	<g>
		<path fill="#466672" d="M30.929,25.97c-0.019-0.04-0.028-0.084-0.028-0.127l0.006-0.667l-0.076-0.06l-0.923,2.437
			c-0.039,0.108-0.147,0.182-0.261,0.183c-0.002,0-0.004,0-0.004,0c-0.117,0-0.22-0.072-0.267-0.178l-1.451-3.619l-3.966,1.386
			c-0.092,0.031-0.158,0.102-0.182,0.193l-3.029,7.35l4.189,1.848c0.008,0.002,0.014,0.007,0.02,0.011l0.424-0.764l-0.331,9.088
			c-0.002,0.043,0.008,0.088,0.025,0.127c0.037,0.083,0.979,2.004,6.259,2.004c0.166,0,0.343-0.005,0.519-0.009
			c-0.682-3.61-0.027-15.676,0.059-17.167L30.929,25.97z"/>
		<path fill="#466672" d="M31.369,24.814c0.066,0.056,0.105,0.138,0.104,0.225l-0.006,0.742l0.689,1.423l0.527-1.396l-0.07-0.741
			c-0.008-0.097,0.033-0.192,0.105-0.252l0.469-0.37l1.78-2.138c-1.017-0.34-2.041-0.522-3.05-0.522
			c-1.413,0-2.413,0.338-2.826,0.509l1.806,2.15L31.369,24.814z"/>
		<path fill="#466672" d="M34.799,26.881l1.006-3.436c0.01-0.033,0.024-0.057,0.043-0.082l-0.428-0.712l-1.695,2.04L34.799,26.881z"
			/>
		<polygon fill="#466672" points="30.373,24.707 28.679,22.688 28.353,23.48 29.635,26.668 		"/>
		<path fill="#466672" d="M40.311,25.517c-0.022-0.088-0.088-0.16-0.177-0.191l-3.87-1.439l-1.123,3.857
			c-0.033,0.111-0.132,0.193-0.25,0.203c-0.008,0-0.018,0-0.024,0c-0.104,0-0.205-0.061-0.255-0.159l-1.318-2.696l-0.098,0.073
			l0.066,0.653c0.002,0.043-0.003,0.086-0.021,0.128l-0.756,1.997c-0.045,0.796-0.77,13.78-0.055,17.211
			c1.272-0.055,5.355-0.344,6.589-1.922c0.041-0.051,0.064-0.119,0.062-0.185l-0.36-9.062l0.43,0.795
			c0.008-0.002,0.016-0.008,0.022-0.01l4.343-1.941L40.311,25.517z M32.908,40.418c-0.206,0-0.374-0.167-0.374-0.372
			c0-0.206,0.168-0.372,0.374-0.372c0.203,0,0.371,0.167,0.371,0.372S33.111,40.418,32.908,40.418z M32.941,37.223
			c-0.205,0-0.375-0.166-0.375-0.373c0-0.205,0.17-0.371,0.375-0.371s0.371,0.166,0.371,0.371
			C33.313,37.057,33.146,37.223,32.941,37.223z M32.977,34.465c-0.205,0-0.371-0.167-0.371-0.373s0.166-0.374,0.371-0.374
			s0.373,0.168,0.373,0.374S33.182,34.465,32.977,34.465z M33.1,31.268c-0.203,0-0.371-0.167-0.371-0.372s0.168-0.374,0.371-0.374
			c0.207,0,0.373,0.169,0.373,0.374S33.307,31.268,33.1,31.268z M33.279,28.282c-0.207,0-0.373-0.168-0.373-0.372
			c0-0.207,0.166-0.375,0.373-0.375c0.201,0,0.373,0.168,0.373,0.375C33.652,28.114,33.48,28.282,33.279,28.282z"/>
	</g>
	<g>
		<path fill="#FFFFFF" d="M30.929,23.52c-0.019-0.04-0.028-0.084-0.028-0.126l0.006-0.668l-0.076-0.061L29.907,25.1
			c-0.039,0.11-0.147,0.182-0.261,0.184c-0.002,0-0.004,0-0.004,0c-0.117,0-0.22-0.071-0.267-0.178l-1.451-3.618l-3.966,1.386
			c-0.092,0.03-0.158,0.102-0.182,0.193l-3.029,7.348l4.189,1.849c0.008,0.001,0.014,0.006,0.02,0.009l0.424-0.762l-0.331,9.087
			c-0.002,0.043,0.008,0.09,0.025,0.129c0.037,0.08,0.979,2.004,6.259,2.004c0.166,0,0.343-0.006,0.519-0.01
			c-0.682-3.609-0.027-15.677,0.059-17.167L30.929,23.52z"/>
		<path fill="#FFFFFF" d="M31.369,22.363c0.066,0.056,0.105,0.138,0.104,0.225l-0.006,0.742l0.689,1.424l0.527-1.398l-0.07-0.741
			c-0.008-0.097,0.033-0.191,0.105-0.251l0.469-0.369l1.78-2.138c-1.017-0.339-2.041-0.521-3.05-0.521
			c-1.413,0-2.413,0.339-2.826,0.508l1.806,2.151L31.369,22.363z"/>
		<path fill="#FFFFFF" d="M34.799,24.43l1.006-3.436c0.01-0.034,0.024-0.058,0.043-0.082L35.42,20.2l-1.695,2.041L34.799,24.43z"/>
		<polygon fill="#FFFFFF" points="30.373,22.255 28.679,20.236 28.353,21.029 29.635,24.217 		"/>
		<path fill="#FFFFFF" d="M40.311,23.067c-0.022-0.088-0.088-0.161-0.177-0.192l-3.87-1.439l-1.123,3.857
			c-0.033,0.112-0.132,0.193-0.25,0.203c-0.008,0-0.018,0-0.024,0c-0.104,0-0.205-0.06-0.255-0.159l-1.318-2.695l-0.098,0.073
			l0.066,0.654c0.002,0.042-0.003,0.084-0.021,0.127l-0.756,1.998c-0.045,0.795-0.77,13.779-0.055,17.21
			c1.272-0.054,5.355-0.343,6.589-1.92c0.041-0.052,0.064-0.12,0.062-0.187l-0.36-9.061l0.43,0.796
			c0.008-0.003,0.016-0.008,0.022-0.012l4.343-1.94L40.311,23.067z M32.908,37.968c-0.206,0-0.374-0.168-0.374-0.372
			c0-0.207,0.168-0.373,0.374-0.373c0.203,0,0.371,0.166,0.371,0.373C33.279,37.8,33.111,37.968,32.908,37.968z M32.941,34.771
			c-0.205,0-0.375-0.166-0.375-0.373s0.17-0.371,0.375-0.371s0.371,0.164,0.371,0.371C33.313,34.604,33.146,34.771,32.941,34.771z
			 M32.977,32.013c-0.205,0-0.371-0.166-0.371-0.373c0-0.206,0.166-0.372,0.371-0.372s0.373,0.167,0.373,0.372
			C33.35,31.847,33.182,32.013,32.977,32.013z M33.1,28.816c-0.203,0-0.371-0.167-0.371-0.371c0-0.206,0.168-0.375,0.371-0.375
			c0.207,0,0.373,0.169,0.373,0.375C33.473,28.649,33.307,28.816,33.1,28.816z M33.279,25.831c-0.207,0-0.373-0.169-0.373-0.373
			c0-0.207,0.166-0.373,0.373-0.373c0.201,0,0.373,0.167,0.373,0.373C33.652,25.662,33.48,25.831,33.279,25.831z"/>
	</g>
</g>
</svg>
