<?xml version="1.0" encoding="utf-8"?>
<!-- Generator: Adobe Illustrator 16.0.0, SVG Export Plug-In . SVG Version: 6.00 Build 0)  -->
<!DOCTYPE svg PUBLIC "-//W3C//DTD SVG 1.1//EN" "http://www.w3.org/Graphics/SVG/1.1/DTD/svg11.dtd">
<svg version="1.1" id="Layer_1" xmlns="http://www.w3.org/2000/svg" xmlns:xlink="http://www.w3.org/1999/xlink" x="0px" y="0px"
	 width="64px" height="64px" viewBox="0 0 64 64" enable-background="new 0 0 64 64" xml:space="preserve">
<g id="Men_x2019_s_Short">
	<path fill="#334787" d="M61.751,40.619c0,12.472-10.562,22.582-23.589,22.582H26.104c-13.03,0-23.592-10.11-23.592-22.582V26.545
		c0-12.472,10.562-22.583,23.592-22.583h12.058c13.027,0,23.589,10.11,23.589,22.583V40.619z"/>
	<path fill="#4358A6" d="M61.751,38.169c0,12.472-10.562,22.582-23.589,22.582H26.104c-13.03,0-23.592-10.11-23.592-22.582V24.094
		c0-12.471,10.562-22.583,23.592-22.583h12.058c13.027,0,23.589,10.111,23.589,22.583V38.169z"/>
	<g>
		<path fill="#334687" d="M40.729,24.626c0-0.156-0.129-0.282-0.285-0.282H23.82c-0.156,0-0.283,0.126-0.283,0.282v1.834h17.191
			V24.626L40.729,24.626z"/>
		<path fill="#334687" d="M44.703,41.116l-1.462-6.871l-2.397-7.185h-6.734v6.803c-0.098,1-0.403,1.697-0.912,2.101
			c-0.393,0.313-0.802,0.356-0.991,0.356c-0.066,0-0.104-0.004-0.109-0.006c-0.14-0.021-0.249-0.14-0.249-0.281v-8.974h-8.426
			l-2.404,7.214l-1.452,6.842c-0.031,0.146,0.059,0.294,0.203,0.333l4.792,1.288c0.021,0.005,0.045,0.008,0.069,0.009l6.174,0.069
			c0.146,0.027,0.255-0.092,0.282-0.227l1.046-5.201l1.05,5.201c0.027,0.131,0.144,0.227,0.277,0.227c0.002,0,0.004,0,0.006,0
			l6.139-0.105c0.022,0,0.045-0.002,0.065-0.008l4.825-1.252C44.643,41.411,44.732,41.266,44.703,41.116z"/>
		<path fill="#334687" d="M32.419,35.729c0.121-0.029,0.276-0.088,0.435-0.218c0.373-0.303,0.61-0.883,0.689-1.675l-0.002-6.776
			h-1.122V35.729z"/>
	</g>
	<g>
		<path fill="#FFFFFF" d="M40.729,22.175c0-0.157-0.129-0.282-0.285-0.282H23.82c-0.156,0-0.283,0.125-0.283,0.282v1.836h17.191
			V22.175L40.729,22.175z"/>
		<path fill="#FFFFFF" d="M44.703,38.665l-1.462-6.871l-2.397-7.186h-6.734v6.805c-0.098,1-0.403,1.696-0.912,2.103
			c-0.393,0.313-0.802,0.355-0.991,0.355c-0.066,0-0.104-0.004-0.109-0.006c-0.14-0.02-0.249-0.139-0.249-0.281v-8.976h-8.426
			l-2.404,7.217l-1.452,6.84c-0.031,0.147,0.059,0.294,0.203,0.333l4.792,1.289c0.021,0.006,0.045,0.009,0.069,0.01l6.174,0.068
			c0.146,0.027,0.255-0.094,0.282-0.227l1.046-5.201l1.05,5.201c0.027,0.131,0.144,0.227,0.277,0.227c0.002,0,0.004,0,0.006,0
			l6.139-0.105c0.022,0,0.045-0.002,0.065-0.007l4.825-1.254C44.643,38.962,44.732,38.814,44.703,38.665z"/>
		<path fill="#FFFFFF" d="M32.419,33.277c0.121-0.028,0.276-0.088,0.435-0.217c0.373-0.304,0.61-0.881,0.689-1.675l-0.002-6.778
			h-1.122V33.277z"/>
	</g>
</g>
</svg>
