<?xml version="1.0" encoding="utf-8"?>
<!-- Generator: Adobe Illustrator 16.0.0, SVG Export Plug-In . SVG Version: 6.00 Build 0)  -->
<!DOCTYPE svg PUBLIC "-//W3C//DTD SVG 1.1//EN" "http://www.w3.org/Graphics/SVG/1.1/DTD/svg11.dtd">
<svg version="1.1" id="Layer_1" xmlns="http://www.w3.org/2000/svg" xmlns:xlink="http://www.w3.org/1999/xlink" x="0px" y="0px"
	 width="64px" height="64px" viewBox="0 0 64 64" enable-background="new 0 0 64 64" xml:space="preserve">
<g id="Men_x2019_s_Vest">
	<path fill="#D13B3B" d="M61.887,40.616c0,12.472-10.562,22.583-23.59,22.583H26.239c-13.029,0-23.592-10.11-23.592-22.583V26.543
		c0-12.471,10.563-22.582,23.592-22.582h12.058c13.028,0,23.59,10.11,23.59,22.582V40.616z"/>
	<path fill="#EC5451" d="M61.887,38.166c0,12.473-10.562,22.583-23.59,22.583H26.239c-13.029,0-23.592-10.11-23.592-22.583V24.092
		c0-12.472,10.563-22.583,23.592-22.583h12.058c13.028,0,23.59,10.111,23.59,22.583V38.166z"/>
	<g>
		<g>
			<path fill="#D13B3A" d="M36.49,21.37"/>
		</g>
		<g>
			<path fill="#D13B3A" d="M28.367,21.37"/>
		</g>
		<path fill="#D13B3A" d="M35.963,23.489c-0.789,1.2-2.154,1.994-3.703,1.994s-2.914-0.794-3.703-1.994v0.633
			c0,2.042,1.661,3.705,3.703,3.705c2.041,0,3.703-1.663,3.703-3.705V23.489z"/>
		<path fill="#D13B3A" d="M37.816,26.701v-5.603h-1.131c0,0.025-0.002,0.049-0.006,0.072v2.952c0,2.437-1.981,4.419-4.42,4.419
			c-2.438,0-4.419-1.982-4.419-4.419v-3.021l-1.123-0.003v5.603c0,3.123-0.508,3.958-2.119,4.707v14.652h7.661h0.016h7.66V31.408
			C38.326,30.659,37.816,29.824,37.816,26.701z"/>
	</g>
	<g>
		<g>
			<path fill="#FFFFFF" d="M36.49,18.919"/>
		</g>
		<g>
			<path fill="#FFFFFF" d="M28.367,18.919"/>
		</g>
		<path fill="#FFFFFF" d="M35.963,21.037c-0.789,1.202-2.154,1.995-3.703,1.995s-2.914-0.793-3.703-1.995v0.633
			c0,2.043,1.661,3.705,3.703,3.705c2.041,0,3.703-1.662,3.703-3.705V21.037z"/>
		<path fill="#FFFFFF" d="M37.816,24.251v-5.604h-1.131c0,0.024-0.002,0.049-0.006,0.072v2.951c0,2.438-1.981,4.42-4.42,4.42
			c-2.438,0-4.419-1.982-4.419-4.42v-3.02l-1.123-0.003v5.604c0,3.123-0.508,3.958-2.119,4.708v14.65h7.661h0.016h7.66V28.958
			C38.326,28.208,37.816,27.374,37.816,24.251z"/>
	</g>
</g>
</svg>
