<?xml version="1.0" encoding="utf-8"?>
<!-- Generator: Adobe Illustrator 16.0.0, SVG Export Plug-In . SVG Version: 6.00 Build 0)  -->
<!DOCTYPE svg PUBLIC "-//W3C//DTD SVG 1.1//EN" "http://www.w3.org/Graphics/SVG/1.1/DTD/svg11.dtd">
<svg version="1.1" id="Layer_1" xmlns="http://www.w3.org/2000/svg" xmlns:xlink="http://www.w3.org/1999/xlink" x="0px" y="0px"
	 width="64px" height="64px" viewBox="0 0 64 64" enable-background="new 0 0 64 64" xml:space="preserve">
<g id="Men_x2019_s_Full_Sleeve_Shirt">
	<path fill="#9A6596" d="M61.751,40.718c0,12.472-10.562,22.584-23.589,22.584H26.104c-13.03,0-23.592-10.112-23.592-22.584V26.644
		c0-12.473,10.562-22.584,23.592-22.584h12.058c13.027,0,23.589,10.111,23.589,22.584V40.718z"/>
	<path fill="#C183B8" d="M61.751,38.268c0,12.473-10.562,22.584-23.589,22.584H26.104c-13.03,0-23.592-10.111-23.592-22.584V24.193
		c0-12.473,10.562-22.584,23.592-22.584h12.058c13.027,0,23.589,10.111,23.589,22.584V38.268z"/>
	<g>
		<path fill="#9A6596" d="M19.181,43.122c0.037,0.092,0.117,0.153,0.213,0.176l2.651,0.478c0.129,0.025,0.254-0.043,0.309-0.157
			c0.016-0.035,0.364-0.79,0.615-1.519l-3.484-0.605C19.274,42.023,19.037,42.768,19.181,43.122z"/>
		<path fill="#9A6596" d="M44.697,41.393l-3.391,0.811c0.258,0.699,0.619,1.395,0.639,1.427c0.056,0.109,0.178,0.17,0.301,0.146
			l2.648-0.478c0.125-0.024,0.224-0.133,0.232-0.263C45.148,42.704,44.867,41.863,44.697,41.393z"/>
		<path fill="#9A6596" d="M30.871,26.314l0.927,0.312c0.014-0.661,0.025-1.139,0.031-1.37c-0.002-0.002-0.004,0-0.006-0.002
			l-1.157-0.472c-0.029-0.008-0.053-0.025-0.076-0.043l-1.857-1.564l-0.323,0.793c0.004,0.006,0.012,0.008,0.016,0.014
			C28.783,24.553,29.923,26.085,30.871,26.314z"/>
		<path fill="#9A6596" d="M33.553,24.788l-1.154,0.394c-0.004,0.14-0.016,0.625-0.031,1.358l1.271-0.389
			c0.532-0.269,2.079-1.204,2.324-2.092c0.012-0.039,0.029-0.072,0.053-0.098l-0.498-0.83l-1.867,1.604
			C33.621,24.759,33.588,24.776,33.553,24.788z"/>
		<polygon fill="#9A6596" points="35.063,22.772 32.205,22.206 31.976,22.212 29.144,22.778 30.92,24.273 31.983,24.706 
			32.031,24.704 33.318,24.27 		"/>
		<path fill="#9A6596" d="M31.784,27.22l-1.069-0.36c-1.209-0.29-2.438-2.063-2.715-2.482l-3.967,1.387
			c-0.088,0.029-0.16,0.102-0.186,0.189l-4.158,15l3.457,0.599l2.396-7.434l0.09,9.484c0.002,0.131,0.094,0.25,0.226,0.272
			l6.012,1.28C31.514,42.134,31.688,31.738,31.784,27.22z M30.189,32.749h-2.746c-0.159,0-0.287-0.13-0.287-0.286
			c0-0.155,0.128-0.284,0.287-0.284h2.746c0.158,0,0.285,0.129,0.285,0.284C30.475,32.619,30.348,32.749,30.189,32.749z"/>
		<path fill="#9A6596" d="M40.383,25.953c-0.025-0.084-0.088-0.156-0.174-0.188l-3.756-1.398c-0.482,1.243-2.52,2.267-2.611,2.312
			l-1.488,0.454c-0.094,4.48-0.271,15.133,0.089,18.006l5.936-1.263c0.131-0.022,0.225-0.142,0.225-0.272l0.09-9.484l2.435,7.544
			l3.396-0.813L40.383,25.953z M36.441,32.749h-2.746c-0.158,0-0.286-0.13-0.286-0.286c0-0.155,0.128-0.284,0.286-0.284h2.746
			c0.154,0,0.283,0.129,0.283,0.284C36.727,32.619,36.598,32.749,36.441,32.749z"/>
	</g>
	<g>
		<path fill="#FFFFFF" d="M19.181,40.671c0.037,0.093,0.117,0.155,0.213,0.175l2.651,0.479c0.129,0.022,0.254-0.043,0.309-0.159
			c0.016-0.033,0.364-0.789,0.615-1.518l-3.484-0.605C19.274,39.574,19.037,40.316,19.181,40.671z"/>
		<path fill="#FFFFFF" d="M44.697,38.938l-3.391,0.813c0.258,0.7,0.619,1.394,0.639,1.427c0.056,0.11,0.178,0.17,0.301,0.147
			l2.648-0.479c0.125-0.025,0.224-0.132,0.232-0.261C45.148,40.252,44.867,39.411,44.697,38.938z"/>
		<path fill="#FFFFFF" d="M30.871,23.864l0.927,0.311c0.014-0.659,0.025-1.138,0.031-1.371c-0.002-0.002-0.004,0-0.006-0.002
			l-1.157-0.47c-0.029-0.009-0.053-0.026-0.076-0.044l-1.857-1.564l-0.323,0.791c0.004,0.008,0.012,0.012,0.016,0.018
			C28.783,22.103,29.923,23.633,30.871,23.864z"/>
		<path fill="#FFFFFF" d="M33.553,22.338l-1.154,0.394c-0.004,0.141-0.016,0.627-0.031,1.357l1.271-0.388
			c0.532-0.269,2.079-1.205,2.324-2.096c0.012-0.036,0.029-0.069,0.053-0.097l-0.498-0.828l-1.867,1.605
			C33.621,22.31,33.588,22.325,33.553,22.338z"/>
		<polygon fill="#FFFFFF" points="35.063,20.322 32.205,19.755 31.976,19.761 29.144,20.33 30.92,21.822 31.983,22.255 
			32.031,22.253 33.318,21.816 		"/>
		<path fill="#FFFFFF" d="M31.784,24.769l-1.069-0.36c-1.209-0.29-2.438-2.063-2.715-2.482l-3.967,1.386
			c-0.088,0.031-0.16,0.102-0.186,0.192l-4.158,14.998l3.457,0.601l2.396-7.437l0.09,9.485c0.002,0.133,0.094,0.25,0.226,0.274
			l6.012,1.279C31.514,39.684,31.688,29.287,31.784,24.769z M30.189,30.299h-2.746c-0.159,0-0.287-0.131-0.287-0.284
			c0-0.158,0.128-0.286,0.287-0.286h2.746c0.158,0,0.285,0.128,0.285,0.286C30.475,30.168,30.348,30.299,30.189,30.299z"/>
		<path fill="#FFFFFF" d="M40.383,23.504c-0.025-0.087-0.088-0.157-0.174-0.188l-3.756-1.399c-0.482,1.245-2.52,2.268-2.611,2.313
			l-1.488,0.454c-0.094,4.479-0.271,15.132,0.089,18.005l5.936-1.262c0.131-0.025,0.225-0.143,0.225-0.273l0.09-9.486l2.435,7.543
			l3.396-0.814L40.383,23.504z M36.441,30.299h-2.746c-0.158,0-0.286-0.131-0.286-0.284c0-0.158,0.128-0.286,0.286-0.286h2.746
			c0.154,0,0.283,0.128,0.283,0.286C36.727,30.168,36.598,30.299,36.441,30.299z"/>
	</g>
</g>
</svg>
