<?xml version="1.0" encoding="utf-8"?>
<!-- Generator: Adobe Illustrator 16.0.0, SVG Export Plug-In . SVG Version: 6.00 Build 0)  -->
<!DOCTYPE svg PUBLIC "-//W3C//DTD SVG 1.1//EN" "http://www.w3.org/Graphics/SVG/1.1/DTD/svg11.dtd">
<svg version="1.1" id="Layer_1" xmlns="http://www.w3.org/2000/svg" xmlns:xlink="http://www.w3.org/1999/xlink" x="0px" y="0px"
	 width="64px" height="64px" viewBox="0 0 64 64" enable-background="new 0 0 64 64" xml:space="preserve">
<g id="Men_x2019_s_Sleeveless_Jacket">
	<path fill="#E0AC25" d="M61.746,40.506c0,12.473-10.561,22.584-23.589,22.584H26.099c-13.031,0-23.591-10.111-23.591-22.584V26.432
		c0-12.471,10.56-22.58,23.591-22.58h12.059c13.027,0,23.589,10.109,23.589,22.58L61.746,40.506L61.746,40.506z"/>
	<path fill="#FFCA1C" d="M61.746,38.055c0,12.473-10.561,22.584-23.589,22.584H26.099c-13.031,0-23.591-10.111-23.591-22.584V23.98
		c0-12.473,10.56-22.58,23.591-22.58h12.059c13.027,0,23.589,10.107,23.589,22.58L61.746,38.055L61.746,38.055z"/>
	<g>
		<path fill="#E0AC25" d="M23.909,30.212c0,0,0.571,1.742,1.06,2.672c0,0,0.489-3.652-1.297-6.409
			C23.672,26.475,23.154,27.788,23.909,30.212z"/>
		<path fill="#E0AC25" d="M40.661,26.475c0,0-1.769,2.213-1.382,6.366c0.463-1.292,0.988-2.633,0.988-2.633
			C41.047,27.812,40.661,26.475,40.661,26.475z"/>
		<path fill="#E0AC25" d="M35.096,22.46c-0.867-0.384-1.809-0.588-2.802-0.588c-1.479,0-2.641,0.419-3.081,0.605
			c0.235,0.403,1.211,1.896,2.872,1.959C33.773,24.374,34.843,22.857,35.096,22.46z"/>
		<path fill="#E0AC25" d="M32.463,24.976c-0.004,0.178-0.014,0.567-0.027,1.136c0.691-0.196,2.319-0.829,3.518-2.616l-0.407-0.685
			C35.225,23.311,34.169,24.738,32.463,24.976z"/>
		<path fill="#E0AC25" d="M31.865,26.125c0.012-0.535,0.021-0.931,0.027-1.136c-1.709-0.144-2.725-1.502-3.091-2.093l-0.274,0.667
			c0.031,0.027,0.055,0.061,0.072,0.102C28.634,23.745,29.382,25.578,31.865,26.125z"/>
		<path fill="#E0AC25" d="M31.854,26.703c-2.396-0.483-3.396-2.055-3.688-2.627L24.093,25.5c-0.086,0.031-0.154,0.104-0.178,0.194
			c-0.025,0.092-0.004,0.189,0.059,0.26c0.012,0.016,1.445,1.58,1.615,6.134l-0.485,11.166c-0.004,0.08,0.025,0.156,0.084,0.214
			c0.066,0.066,1.678,1.576,6.758,1.595C31.567,42.107,31.756,31.136,31.854,26.703z M30.254,32.483h-2.749
			c-0.154,0-0.281-0.125-0.281-0.282c0-0.156,0.127-0.284,0.281-0.284h2.749c0.154,0,0.284,0.128,0.284,0.284
			C30.538,32.358,30.408,32.483,30.254,32.483z"/>
		<path fill="#E0AC25" d="M40.387,25.956c0.062-0.068,0.084-0.164,0.064-0.254c-0.023-0.089-0.088-0.161-0.17-0.198l-3.938-1.576
			c-1.404,2.015-3.267,2.621-3.919,2.779c-0.098,4.437-0.288,15.58,0.095,18.339c1.006-0.069,4.996-0.438,6.553-1.804
			c0.064-0.059,0.1-0.141,0.096-0.227l-0.396-10.913C38.813,27.81,40.371,25.974,40.387,25.956z M36.506,32.483h-2.748
			c-0.156,0-0.283-0.125-0.283-0.282c0-0.156,0.127-0.284,0.283-0.284h2.748c0.154,0,0.282,0.128,0.282,0.284
			C36.788,32.358,36.66,32.483,36.506,32.483z"/>
	</g>
	<g>
		<path fill="#FFFFFF" d="M23.909,27.761c0,0,0.571,1.743,1.06,2.67c0,0,0.489-3.648-1.297-6.409
			C23.672,24.021,23.154,25.336,23.909,27.761z"/>
		<path fill="#FFFFFF" d="M40.661,24.021c0,0-1.769,2.216-1.382,6.364c0.463-1.289,0.988-2.631,0.988-2.631
			C41.047,25.359,40.661,24.021,40.661,24.021z"/>
		<path fill="#FFFFFF" d="M35.096,20.008c-0.867-0.38-1.809-0.586-2.802-0.586c-1.479,0-2.641,0.422-3.081,0.602
			c0.235,0.407,1.211,1.899,2.872,1.963C33.773,21.923,34.843,20.407,35.096,20.008z"/>
		<path fill="#FFFFFF" d="M32.463,22.524c-0.004,0.176-0.014,0.569-0.027,1.137c0.691-0.197,2.319-0.829,3.518-2.617l-0.407-0.684
			C35.225,20.86,34.169,22.287,32.463,22.524z"/>
		<path fill="#FFFFFF" d="M31.865,23.677c0.012-0.536,0.021-0.933,0.027-1.139c-1.709-0.145-2.725-1.504-3.091-2.092l-0.274,0.664
			c0.031,0.031,0.055,0.063,0.072,0.104C28.634,21.295,29.382,23.129,31.865,23.677z"/>
		<path fill="#FFFFFF" d="M31.854,24.253c-2.396-0.486-3.396-2.056-3.688-2.629l-4.072,1.426c-0.086,0.032-0.154,0.104-0.178,0.192
			c-0.025,0.094-0.004,0.191,0.059,0.261c0.012,0.018,1.445,1.578,1.615,6.133l-0.485,11.165c-0.004,0.083,0.025,0.159,0.084,0.217
			c0.066,0.063,1.678,1.578,6.758,1.594C31.567,39.657,31.756,28.688,31.854,24.253z M30.254,30.035h-2.749
			c-0.154,0-0.281-0.127-0.281-0.285s0.127-0.285,0.281-0.285h2.749c0.154,0,0.284,0.127,0.284,0.285S30.408,30.035,30.254,30.035z"
			/>
		<path fill="#FFFFFF" d="M40.387,23.507c0.062-0.068,0.084-0.165,0.064-0.255c-0.023-0.088-0.088-0.162-0.17-0.198l-3.938-1.579
			c-1.404,2.017-3.267,2.625-3.919,2.78c-0.098,4.438-0.288,15.583,0.095,18.343c1.006-0.072,4.996-0.443,6.553-1.809
			c0.064-0.057,0.1-0.139,0.096-0.225l-0.396-10.912C38.813,25.357,40.371,23.524,40.387,23.507z M36.506,30.035h-2.748
			c-0.156,0-0.283-0.127-0.283-0.285s0.127-0.285,0.283-0.285h2.748c0.154,0,0.282,0.127,0.282,0.285S36.66,30.035,36.506,30.035z"
			/>
	</g>
</g>
</svg>
