<?xml version="1.0" encoding="utf-8"?>
<!-- Generator: Adobe Illustrator 16.0.0, SVG Export Plug-In . SVG Version: 6.00 Build 0)  -->
<!DOCTYPE svg PUBLIC "-//W3C//DTD SVG 1.1//EN" "http://www.w3.org/Graphics/SVG/1.1/DTD/svg11.dtd">
<svg version="1.1" id="Layer_1" xmlns="http://www.w3.org/2000/svg" xmlns:xlink="http://www.w3.org/1999/xlink" x="0px" y="0px"
	 width="64px" height="64px" viewBox="0 0 64 64" enable-background="new 0 0 64 64" xml:space="preserve">
<g id="Scarf">
	<path fill="#334787" d="M61.751,41.113c0,12.473-10.562,22.584-23.589,22.584H26.104c-13.03,0-23.592-10.111-23.592-22.584V27.039
		c0-12.471,10.562-22.582,23.592-22.582h12.058c13.027,0,23.589,10.111,23.589,22.582V41.113z"/>
	<path fill="#4358A6" d="M61.751,38.663c0,12.472-10.562,22.584-23.589,22.584H26.104c-13.03,0-23.592-10.112-23.592-22.584V24.588
		c0-12.471,10.562-22.583,23.592-22.583h12.058c13.027,0,23.589,10.112,23.589,22.583V38.663z"/>
	<g>
		<path fill="#334787" d="M32.359,29.978c0,0,1.28,0.972,2.896,1.167l0.255,0.035c1.859-1.598,2.178-4.742,2.178-4.742
			c-0.11-5.759-6.28-4.93-6.28-4.93c-6.901,0.325-4.379,7.523-4.379,7.523c1.955,4.869,7.583,5.787,7.583,5.787
			c1.334-1.188,1.19-2.979,1.19-2.979c-6.617-1.141-6.073-5.225-6.073-5.225c-0.125-2.858,2.062-2.699,2.062-2.699
			c2.98-0.394,2.876,2.378,2.876,2.378C34.793,27.811,33.236,29.312,32.359,29.978z"/>
		<path fill="#334787" d="M34.361,41.938c-0.002-0.022-0.012-0.045-0.018-0.063l0,0c0,0-0.893-4.14-0.85-6.75l-0.404-0.153
			c-1.167-0.31-2.972-1.305-2.972-1.305s-2.907,2.943-1.915,9.689c-0.023,0.045-0.045,0.09-0.047,0.145
			c-0.021,0.598-0.061,2.596,0.251,3.063c0.055,0.084,0.143,0.127,0.236,0.127c0.056,0,0.108-0.016,0.157-0.049
			c0.129-0.088,0.164-0.263,0.08-0.394c-0.143-0.216-0.194-1.587-0.156-2.729c0-0.002-0.002-0.007-0.002-0.011h0.85
			c0,0.011-0.004,0.017-0.004,0.027c0.041,0.425,0.269,2.563,0.579,3.028c0.054,0.084,0.146,0.127,0.235,0.127
			c0.055,0,0.111-0.017,0.158-0.049c0.131-0.089,0.17-0.264,0.08-0.395c-0.154-0.23-0.365-1.569-0.483-2.74h1.881
			c0.054,0.536,0.272,2.516,0.57,2.965c0.053,0.081,0.143,0.127,0.237,0.127c0.053,0,0.106-0.017,0.153-0.05
			c0.131-0.086,0.17-0.263,0.082-0.394c-0.153-0.231-0.367-1.592-0.486-2.77c-0.002-0.037-0.014-0.068-0.027-0.098v-1.334
			l1.258-0.059c-0.009,0.032-0.013,0.063-0.011,0.098c0.041,0.426,0.269,2.563,0.577,3.027c0.055,0.082,0.145,0.125,0.238,0.125
			c0.052,0,0.109-0.015,0.154-0.047c0.131-0.088,0.166-0.265,0.08-0.394C34.691,44.475,34.479,43.118,34.361,41.938z"/>
	</g>
	<g>
		<path fill="#FFFFFF" d="M32.359,27.526c0,0,1.28,0.973,2.896,1.167l0.255,0.037c1.859-1.6,2.178-4.745,2.178-4.745
			c-0.11-5.756-6.28-4.93-6.28-4.93c-6.901,0.324-4.379,7.523-4.379,7.523c1.955,4.871,7.583,5.791,7.583,5.791
			c1.334-1.19,1.19-2.98,1.19-2.98c-6.617-1.138-6.073-5.227-6.073-5.227c-0.125-2.855,2.062-2.699,2.062-2.699
			c2.98-0.392,2.876,2.38,2.876,2.38C34.793,25.36,33.236,26.859,32.359,27.526z"/>
		<path fill="#FFFFFF" d="M34.361,39.488c-0.002-0.023-0.012-0.045-0.018-0.065l0,0c0,0-0.893-4.139-0.85-6.754l-0.405-0.149
			c-1.167-0.309-2.972-1.305-2.972-1.305s-2.907,2.944-1.915,9.691c-0.023,0.041-0.045,0.09-0.047,0.141
			c-0.021,0.602-0.061,2.6,0.251,3.064c0.055,0.082,0.143,0.129,0.236,0.129c0.056,0,0.108-0.018,0.157-0.051
			c0.129-0.086,0.164-0.262,0.08-0.392c-0.143-0.217-0.194-1.586-0.156-2.731c0-0.002-0.002-0.006-0.002-0.01h0.85
			c0,0.01-0.004,0.018-0.004,0.026c0.041,0.426,0.269,2.563,0.579,3.028c0.054,0.082,0.146,0.128,0.235,0.128
			c0.055,0,0.111-0.015,0.158-0.05c0.131-0.086,0.17-0.263,0.08-0.393c-0.154-0.232-0.365-1.568-0.483-2.742h1.881
			c0.054,0.537,0.272,2.516,0.57,2.967c0.054,0.08,0.144,0.125,0.237,0.125c0.053,0,0.107-0.019,0.154-0.051
			c0.131-0.085,0.168-0.264,0.082-0.393c-0.154-0.23-0.369-1.59-0.487-2.77c-0.003-0.037-0.015-0.065-0.027-0.096v-1.333
			l1.257-0.062c-0.008,0.033-0.012,0.064-0.01,0.097c0.041,0.425,0.268,2.563,0.577,3.026c0.055,0.086,0.146,0.127,0.237,0.127
			c0.053,0,0.11-0.014,0.156-0.045c0.131-0.088,0.166-0.267,0.079-0.396C34.691,42.023,34.479,40.665,34.361,39.488z"/>
	</g>
</g>
</svg>
