<?xml version="1.0" encoding="utf-8"?>
<!-- Generator: Adobe Illustrator 16.0.0, SVG Export Plug-In . SVG Version: 6.00 Build 0)  -->
<!DOCTYPE svg PUBLIC "-//W3C//DTD SVG 1.1//EN" "http://www.w3.org/Graphics/SVG/1.1/DTD/svg11.dtd">
<svg version="1.1" id="Layer_1" xmlns="http://www.w3.org/2000/svg" xmlns:xlink="http://www.w3.org/1999/xlink" x="0px" y="0px"
	 width="64px" height="64px" viewBox="0 0 64 64" enable-background="new 0 0 64 64" xml:space="preserve">
<g id="Skirt">
	<path fill="#604438" d="M61.746,40.809c0,12.473-10.561,22.582-23.589,22.582H26.099c-13.031,0-23.591-10.109-23.591-22.582V26.733
		c0-12.473,10.56-22.584,23.591-22.584h12.059c13.027,0,23.589,10.111,23.589,22.584L61.746,40.809L61.746,40.809z"/>
	<path fill="#77594A" d="M61.746,38.357c0,12.472-10.561,22.58-23.589,22.58H26.099c-13.031,0-23.591-10.108-23.591-22.58V24.282
		c0-12.472,10.56-22.583,23.591-22.583h12.059c13.027,0,23.589,10.111,23.589,22.583L61.746,38.357L61.746,38.357z"/>
	<g>
		<path fill="#604438" d="M40.538,30.365c-0.726-4.397-3.063-6.535-3.063-6.535c-0.754,0.368-1.473,0.639-2.16,0.837v0.1
			c0.008,0.103,0.838,12.581,4.679,16.098l0.301,0.328c2.47-0.236,4.601-2.642,4.601-2.642
			C41.748,37.746,40.538,30.365,40.538,30.365z"/>
		<path fill="#604438" d="M24.657,40.964c4.035-6.44,4.746-16.065,4.752-16.161v-0.071c-1.311-0.381-2.055-0.901-2.055-0.901
			c-1.399,1.248-3.268,7.316-3.268,7.316C23,35.129,19.36,38.409,19.36,38.409c1.59,1.849,4.254,2.485,5.235,2.663
			C24.616,41.035,24.638,41.002,24.657,40.964z"/>
		<path fill="#604438" d="M39.639,41.541l-0.15-0.169c-3.941-3.604-4.818-15.497-4.885-16.524c-1.771,0.397-3.297,0.31-4.482,0.061
			c-0.075,0.922-0.913,10.141-4.845,16.413c-0.072,0.134-0.156,0.273-0.246,0.41c1.777-0.045,3.69,1.776,3.69,1.776
			c2.02,0.444,3.471,0,3.471,0c0.727-0.481,2.218-0.321,2.218-0.321c0.725,0.728,2.502,0,2.502,0
			c0.807-0.846,2.842-1.207,2.842-1.207C39.645,41.835,39.626,41.674,39.639,41.541z"/>
	</g>
	<g>
		<path fill="#FFFFFF" d="M40.538,27.915c-0.726-4.398-3.063-6.533-3.063-6.533c-0.754,0.364-1.473,0.637-2.16,0.835v0.1
			c0.008,0.102,0.838,12.582,4.679,16.1l0.301,0.325c2.47-0.236,4.601-2.643,4.601-2.643C41.748,35.294,40.538,27.915,40.538,27.915
			z"/>
		<path fill="#FFFFFF" d="M24.657,38.516c4.035-6.441,4.746-16.067,4.752-16.162V22.28c-1.311-0.378-2.055-0.897-2.055-0.897
			c-1.399,1.246-3.268,7.314-3.268,7.314C23,32.68,19.36,35.959,19.36,35.959c1.59,1.85,4.254,2.482,5.235,2.664
			C24.616,38.587,24.638,38.55,24.657,38.516z"/>
		<path fill="#FFFFFF" d="M39.639,39.09l-0.15-0.168c-3.941-3.604-4.818-15.497-4.885-16.523c-1.771,0.394-3.297,0.31-4.482,0.057
			c-0.075,0.925-0.913,10.144-4.845,16.416c-0.072,0.133-0.156,0.272-0.246,0.411c1.777-0.045,3.69,1.777,3.69,1.777
			c2.02,0.443,3.471,0,3.471,0c0.727-0.483,2.218-0.322,2.218-0.322c0.725,0.726,2.502,0,2.502,0
			c0.807-0.848,2.842-1.209,2.842-1.209C39.645,39.384,39.626,39.227,39.639,39.09z"/>
	</g>
</g>
</svg>
