<?xml version="1.0" encoding="utf-8"?>
<!-- Generator: Adobe Illustrator 16.0.0, SVG Export Plug-In . SVG Version: 6.00 Build 0)  -->
<!DOCTYPE svg PUBLIC "-//W3C//DTD SVG 1.1//EN" "http://www.w3.org/Graphics/SVG/1.1/DTD/svg11.dtd">
<svg version="1.1" id="Layer_1" xmlns="http://www.w3.org/2000/svg" xmlns:xlink="http://www.w3.org/1999/xlink" x="0px" y="0px"
	 width="64px" height="64px" viewBox="0 0 64 64" enable-background="new 0 0 64 64" xml:space="preserve">
<g id="Sweater">
	<path fill="#7B7D7D" d="M61.746,40.207c0,12.473-10.561,22.583-23.589,22.583H26.099c-13.031,0-23.591-10.112-23.591-22.583V26.134
		c0-12.472,10.56-22.583,23.591-22.583h12.059c13.027,0,23.589,10.111,23.589,22.583L61.746,40.207L61.746,40.207z"/>
	<path fill="#9D9E9E" d="M61.746,37.757c0,12.472-10.561,22.583-23.589,22.583H26.099c-13.031,0-23.591-10.111-23.591-22.583V23.682
		C2.508,11.21,13.067,1.1,26.099,1.1h12.059c13.027,0,23.589,10.111,23.589,22.583L61.746,37.757L61.746,37.757z"/>
	<g>
		<path fill="#7B7D7D" d="M31.717,24.432h0.043c0.419-0.243,2.831-1.693,4.117-3.54l-1.132-0.465
			c-0.117-0.047-0.257-0.012-0.337,0.091c-0.898,1.186-2.333,2.084-2.67,2.283c-0.331-0.199-1.779-1.095-2.666-2.281
			c-0.078-0.105-0.216-0.14-0.337-0.093l-1.106,0.456C29.043,22.885,31.319,24.211,31.717,24.432z"/>
		<path fill="#7B7D7D" d="M22.249,43.686c0.134,0,0.249-0.095,0.278-0.227l2.508-11.276c0.059,2.116,0.125,5.581,0.125,10.834
			c0,0.153,0.121,0.275,0.272,0.282l0.732,0.568v0.92c0,0.155,0.129,0.284,0.286,0.284h10.545c0.157,0,0.284-0.129,0.284-0.284
			v-0.92l0.768-0.568c0.15-0.007,0.271-0.128,0.271-0.282c0-5.572,0.08-9.146,0.139-11.2l3.174,11.694
			c0.031,0.127,0.145,0.213,0.273,0.213c0,0,0.488,0.217,0.791,0.965l0.212,1.02c0.026,0.131,0.145,0.227,0.278,0.227h2.299
			c0.004,0,0.009,0,0.013,0c0.157,0,0.286-0.129,0.286-0.283c0-0.051-0.014-0.096-0.035-0.137l-0.223-1.002l-0.041-0.789
			c0.002,0,0.004,0,0.007,0c0.173-0.004,0.292-0.125,0.292-0.283c0-0.053-0.016-0.103-0.041-0.146L40.561,23.94
			c-0.011-0.035-0.025-0.069-0.049-0.099c-1.188-1.558-2.014-1.872-2.037-1.881l-2.063-0.847c-1.455,2.176-4.312,3.783-4.437,3.852
			c-0.044,0.024-0.091,0.037-0.136,0.037h-0.195c-0.045,0-0.091-0.011-0.134-0.035c-0.113-0.06-2.803-1.497-4.421-3.863
			l-2.072,0.852c-0.033,0.014-0.854,0.328-2.044,1.885c-0.025,0.033-0.043,0.07-0.051,0.109l-4.442,19.386
			c-0.018,0.085,0.002,0.172,0.055,0.241c0.055,0.065,0.138,0.106,0.224,0.106l0.074,0.83l-0.237,1.075
			c-0.018,0.083,0.004,0.175,0.058,0.24c0.057,0.065,0.135,0.104,0.223,0.104h2.296c0.136,0,0.253-0.095,0.28-0.226l0.216-1.019"/>
	</g>
	<g>
		<path fill="#FFFFFF" d="M21.392,41.896l-2.274-0.055c-0.149,0-0.255,0.09-0.286,0.223l-0.237,1.074
			c-0.018,0.086,0.004,0.172,0.058,0.24c0.057,0.064,0.135,0.105,0.223,0.105h2.296c0.136,0,0.253-0.096,0.28-0.229l0.216-1.016
			c0.016-0.084-0.004-0.172-0.059-0.237C21.556,41.938,21.478,41.896,21.392,41.896z"/>
		<path fill="#FFFFFF" d="M45.525,42.063c-0.028-0.131-0.139-0.221-0.283-0.222l-2.276,0.054c-0.084,0.002-0.161,0.043-0.215,0.107
			c-0.053,0.064-0.073,0.152-0.056,0.237l0.212,1.016c0.026,0.132,0.145,0.228,0.278,0.228h2.299c0.004,0,0.009,0,0.013,0
			c0.157,0,0.286-0.127,0.286-0.283c0-0.051-0.014-0.096-0.035-0.137L45.525,42.063z"/>
		<path fill="#FFFFFF" d="M31.717,21.982h0.043c0.419-0.243,2.831-1.693,4.117-3.541l-1.132-0.464
			c-0.117-0.049-0.257-0.012-0.337,0.089c-0.898,1.187-2.333,2.084-2.67,2.284c-0.331-0.199-1.779-1.094-2.666-2.282
			c-0.078-0.103-0.216-0.14-0.337-0.091l-1.106,0.455C29.043,20.433,31.319,21.76,31.717,21.982z"/>
		<path fill="#FFFFFF" d="M45.491,41.275c0.173-0.006,0.292-0.125,0.292-0.285c0-0.055-0.016-0.104-0.041-0.146L40.561,21.49
			c-0.011-0.036-0.025-0.071-0.049-0.1c-1.188-1.559-2.014-1.871-2.037-1.881l-2.063-0.849c-1.455,2.179-4.312,3.784-4.437,3.855
			c-0.044,0.023-0.091,0.035-0.136,0.035h-0.195c-0.045,0-0.091-0.011-0.134-0.033c-0.113-0.06-2.803-1.499-4.421-3.865
			l-2.072,0.853c-0.033,0.015-0.854,0.326-2.044,1.885c-0.025,0.033-0.043,0.069-0.051,0.109l-4.442,19.385
			c-0.018,0.087,0.002,0.173,0.055,0.242c0.055,0.065,0.138,0.104,0.224,0.104h3.492c0.134,0,0.249-0.094,0.278-0.224l2.508-11.275
			c0.059,2.115,0.125,5.577,0.125,10.834c0,0.152,0.121,0.272,0.272,0.281h12.615c0.15-0.008,0.271-0.129,0.271-0.281
			c0-5.573,0.08-9.147,0.14-11.199l3.174,11.693c0.031,0.125,0.146,0.213,0.272,0.213h3.582
			C45.486,41.275,45.488,41.275,45.491,41.275z"/>
		<path fill="#FFFFFF" d="M26.165,42.337c0,0.156,0.129,0.283,0.286,0.283h10.545c0.156,0,0.283-0.127,0.283-0.283v-0.92H26.165
			V42.337z"/>
	</g>
</g>
</svg>
