<?xml version="1.0" encoding="utf-8"?>
<!-- Generator: Adobe Illustrator 16.0.0, SVG Export Plug-In . SVG Version: 6.00 Build 0)  -->
<!DOCTYPE svg PUBLIC "-//W3C//DTD SVG 1.1//EN" "http://www.w3.org/Graphics/SVG/1.1/DTD/svg11.dtd">
<svg version="1.1" id="Layer_1" xmlns="http://www.w3.org/2000/svg" xmlns:xlink="http://www.w3.org/1999/xlink" x="0px" y="0px"
	 width="64px" height="64px" viewBox="0 0 64 64" enable-background="new 0 0 64 64" xml:space="preserve">
<g id="T-Shirt">
	<path fill="#2B2A2A" d="M61.887,40.688c0,12.474-10.562,22.584-23.591,22.584H26.238c-13.029,0-23.591-10.11-23.591-22.584V26.616
		c0-12.472,10.563-22.582,23.591-22.582h12.058c13.029,0,23.591,10.11,23.591,22.582V40.688z"/>
	<path fill="#444444" d="M61.887,38.238c0,12.473-10.562,22.584-23.591,22.584H26.238c-13.029,0-23.591-10.111-23.591-22.584V24.164
		c0-12.471,10.563-22.582,23.591-22.582h12.058c13.029,0,23.591,10.111,23.591,22.582V38.238z"/>
	<g>
		<path fill="#2B2A2A" d="M32.186,23.408h0.155c2.021,0.049,2.767-2.178,2.798-2.272l0.03-0.097c-1.117,0.755-2.479,0.8-2.747,0.8
			h-0.081h-0.228c-0.268,0-1.632-0.045-2.748-0.801l0.031,0.1C29.426,21.23,30.166,23.452,32.186,23.408z"/>
		<path fill="#2B2A2A" d="M23.754,23.538c-0.292,0.283-0.623,0.648-0.992,1.132l-2.994,4.517c-0.079,0.122-0.056,0.284,0.054,0.375
			l3.881,3.271c0.114,0.097,0.287,0.089,0.39-0.021l0.261-0.277c0.186-5.128-0.543-8.832-0.551-8.871L23.754,23.538z"/>
		<path fill="#2B2A2A" d="M32.164,25.366c0.001,0,0.001,0,0.003,0h0.199h0.002c3.833,0,4.674-3.447,4.681-3.482l0.041-0.278
			l-1.337-0.547l-0.073,0.246c-0.01,0.033-0.916,2.706-3.347,2.674h-0.14c-0.028,0-0.054,0-0.08,0c-2.374,0-3.25-2.641-3.259-2.668
			l-0.079-0.25l-1.337,0.547l0.047,0.296C27.516,22.025,28.345,25.366,32.164,25.366z"/>
		<path fill="#2B2A2A" d="M40.174,23.549l0.159-0.418c-0.466-0.384-0.755-0.503-0.769-0.507l-1.934-0.795l-0.023,0.16
			c-0.012,0.062-0.959,3.945-5.238,3.945h-0.002h-0.199h-0.003c-4.279,0-5.225-3.884-5.233-3.924l-0.03-0.18l-1.921,0.788
			c-0.021,0.009-0.308,0.124-0.772,0.509l0.141,0.383c0.017,0.075,0.703,3.532,0.592,8.398l0.021-0.021
			c0.059,1.595,0.193,6.054,0.193,13.727c0,0.146,0.109,0.265,0.251,0.282c0.031,0.006,3.108,0.369,6.173,0.369
			c0.207,0,0.413-0.002,0.615-0.007h0.143c0.206,0.005,0.414,0.007,0.62,0.007c3.065,0,6.144-0.363,6.173-0.369
			c0.143-0.019,0.249-0.138,0.249-0.282c0-6.927,0.111-11.226,0.177-13.169C39.38,27.3,40.166,23.586,40.174,23.549z"/>
		<path fill="#2B2A2A" d="M44.766,29.187l-3.004-4.532c-0.363-0.475-0.689-0.835-0.978-1.116l-0.067,0.173
			c0.004,0-0.77,3.671-0.593,8.763l0.315,0.337c0.104,0.109,0.274,0.117,0.392,0.021l3.881-3.271
			C44.822,29.471,44.846,29.309,44.766,29.187z"/>
	</g>
	<g>
		<path fill="#FFFFFF" d="M32.186,20.958h0.155c2.021,0.05,2.767-2.181,2.798-2.272l0.03-0.097c-1.117,0.755-2.479,0.8-2.747,0.8
			h-0.081h-0.228c-0.268,0-1.632-0.045-2.748-0.801l0.031,0.099C29.426,18.777,30.166,21.001,32.186,20.958z"/>
		<path fill="#FFFFFF" d="M23.754,21.085c-0.292,0.286-0.623,0.65-0.992,1.135l-2.994,4.517c-0.079,0.119-0.056,0.283,0.054,0.376
			l3.881,3.27c0.114,0.096,0.287,0.088,0.39-0.023l0.261-0.275c0.186-5.129-0.543-8.831-0.551-8.87L23.754,21.085z"/>
		<path fill="#FFFFFF" d="M32.164,22.914c0.001,0,0.001,0,0.003,0h0.199h0.002c3.833,0,4.674-3.447,4.681-3.48l0.041-0.278
			l-1.337-0.548l-0.073,0.246c-0.01,0.033-0.916,2.707-3.347,2.672h-0.14c-0.028,0-0.054,0-0.08,0c-2.374,0-3.25-2.639-3.259-2.666
			l-0.079-0.25l-1.337,0.548l0.047,0.296C27.516,19.575,28.345,22.914,32.164,22.914z"/>
		<path fill="#FFFFFF" d="M40.174,21.097l0.159-0.417c-0.466-0.384-0.755-0.502-0.769-0.506l-1.934-0.794l-0.023,0.159
			c-0.012,0.062-0.959,3.944-5.238,3.944h-0.002h-0.199h-0.003c-4.279,0-5.225-3.883-5.233-3.923l-0.03-0.18l-1.921,0.788
			c-0.021,0.009-0.308,0.124-0.772,0.508l0.141,0.384c0.017,0.073,0.703,3.531,0.592,8.398l0.021-0.02
			c0.059,1.594,0.193,6.053,0.193,13.725c0,0.146,0.109,0.265,0.251,0.282c0.031,0.006,3.108,0.369,6.173,0.369
			c0.207,0,0.413,0,0.615-0.006h0.143c0.206,0.006,0.414,0.006,0.62,0.006c3.065,0,6.144-0.363,6.173-0.369
			c0.143-0.019,0.249-0.137,0.249-0.282c0-6.927,0.111-11.226,0.177-13.169C39.38,24.85,40.166,21.134,40.174,21.097z"/>
		<path fill="#FFFFFF" d="M44.766,26.736l-3.004-4.532c-0.363-0.477-0.689-0.835-0.978-1.119l-0.067,0.175
			c0.004,0-0.77,3.67-0.593,8.763l0.315,0.336c0.104,0.111,0.274,0.119,0.392,0.023l3.881-3.27
			C44.822,27.02,44.846,26.855,44.766,26.736z"/>
	</g>
</g>
</svg>
