<?xml version="1.0" encoding="utf-8"?>
<!-- Generator: Adobe Illustrator 16.0.0, SVG Export Plug-In . SVG Version: 6.00 Build 0)  -->
<!DOCTYPE svg PUBLIC "-//W3C//DTD SVG 1.1//EN" "http://www.w3.org/Graphics/SVG/1.1/DTD/svg11.dtd">
<svg version="1.1" id="Layer_1" xmlns="http://www.w3.org/2000/svg" xmlns:xlink="http://www.w3.org/1999/xlink" x="0px" y="0px"
	 width="64px" height="64px" viewBox="0 0 64 64" enable-background="new 0 0 64 64" xml:space="preserve">
<g id="Tank_Top">
	<path fill="#7B7D7D" d="M61.746,40.707c0,12.475-10.561,22.583-23.589,22.583H26.099c-13.031,0-23.591-10.108-23.591-22.583V26.634
		c0-12.472,10.56-22.583,23.591-22.583h12.059c13.027,0,23.589,10.111,23.589,22.583L61.746,40.707L61.746,40.707z"/>
	<path fill="#9D9E9E" d="M61.746,38.258c0,12.471-10.561,22.582-23.589,22.582H26.099c-13.031,0-23.591-10.111-23.591-22.582V24.184
		C2.508,11.712,13.067,1.6,26.099,1.6h12.059c13.027,0,23.589,10.112,23.589,22.584L61.746,38.258L61.746,38.258z"/>
	<path fill="#7B7D7D" d="M36.945,39.198c-0.127-1.728,0.801-4.565,0.803-4.573c0.773-1.895,0.902-3.283,0.909-3.346
		c0.034-0.504-0.302-0.838-0.511-0.961c-2.084-1.146-1.83-5.347-1.828-5.406c0.021-1.456-0.2-2.329-0.678-2.672
		c-0.199-0.143-0.41-0.164-0.554-0.133c-0.384,0.008-0.713,0.174-0.96,0.478c-1.143,1.422-0.275,5.764-0.074,6.697
		c-0.184,0.228-0.753,0.805-1.734,0.805c-0.758,0-1.237-0.347-1.49-0.604c0.282-1.146,1.53-6.643-0.526-7.252
		c-0.221-0.063-0.438-0.029-0.632,0.102c-0.746,0.498-0.982,2.402-1.021,2.776c-0.067,0.569-0.422,2.228-0.424,2.239
		c-0.458,1.962-1.778,3.074-1.774,3.074c-0.457,0.266-0.463,0.8-0.401,1.047c0.234,1.469,0.759,2.652,0.767,2.662
		c0.008,0.029,0.83,3.118,0.39,5.295c-0.449,2.208-1.452,4.322-1.462,4.34l-0.149,0.316l0.333,0.088
		c3.211,0.816,5.67,1.077,7.505,1.077c3.205,0,4.518-0.797,4.6-0.853l0.188-0.121l-0.072-0.211
		C38.139,44.031,37.074,40.954,36.945,39.198z M30.295,28.618c-0.004-0.01-0.457-1.14-0.457-2.121c0-0.021,0.064-2.246,0.26-2.952
		c0.07-0.255,0.16-0.52,0.225-0.682c0.911,0.629,0.586,3.696,0.08,5.957L30.295,28.618z M35.17,25.255
		c-0.227,1.606-0.497,2.602-0.703,3.188c-0.31-1.725-0.632-4.58,0.106-5.501c0.135-0.166,0.288-0.251,0.491-0.265
		c0.086,0.073,0.168,0.339,0.184,0.545l0.006,0.092l0.029,0.037C35.305,23.44,35.361,23.866,35.17,25.255z"/>
	<path fill="#FFFFFF" d="M36.945,36.747c-0.127-1.729,0.801-4.565,0.803-4.573c0.773-1.896,0.902-3.285,0.909-3.346
		c0.034-0.503-0.302-0.836-0.511-0.96c-2.084-1.148-1.83-5.348-1.828-5.404c0.021-1.457-0.2-2.331-0.678-2.676
		c-0.199-0.142-0.41-0.163-0.554-0.132c-0.384,0.01-0.713,0.173-0.96,0.479c-1.143,1.422-0.275,5.763-0.074,6.697
		c-0.184,0.227-0.753,0.806-1.734,0.806c-0.758,0-1.237-0.349-1.49-0.608c0.282-1.146,1.53-6.641-0.526-7.25
		c-0.221-0.061-0.438-0.029-0.632,0.103c-0.746,0.495-0.982,2.401-1.021,2.777c-0.067,0.568-0.422,2.224-0.424,2.235
		c-0.458,1.965-1.778,3.078-1.774,3.078c-0.457,0.266-0.463,0.799-0.401,1.045c0.234,1.467,0.759,2.655,0.767,2.663
		c0.008,0.029,0.83,3.118,0.39,5.295c-0.449,2.209-1.452,4.322-1.462,4.342l-0.149,0.313l0.333,0.09
		c3.211,0.816,5.67,1.079,7.505,1.079c3.205,0,4.518-0.799,4.6-0.854l0.188-0.12l-0.072-0.212
		C38.139,41.578,37.074,38.501,36.945,36.747z M30.295,26.168c-0.004-0.01-0.457-1.14-0.457-2.121c0-0.021,0.064-2.247,0.26-2.952
		c0.07-0.255,0.16-0.519,0.225-0.681c0.911,0.628,0.586,3.693,0.08,5.955L30.295,26.168z M35.17,22.805
		c-0.227,1.606-0.497,2.596-0.703,3.187c-0.31-1.723-0.632-4.581,0.106-5.5c0.135-0.167,0.288-0.251,0.491-0.265
		c0.086,0.07,0.168,0.338,0.184,0.545l0.006,0.092l0.029,0.036C35.305,20.993,35.361,21.416,35.17,22.805z"/>
</g>
</svg>
