<?xml version="1.0" encoding="utf-8"?>
<!-- Generator: Adobe Illustrator 16.0.0, SVG Export Plug-In . SVG Version: 6.00 Build 0)  -->
<!DOCTYPE svg PUBLIC "-//W3C//DTD SVG 1.1//EN" "http://www.w3.org/Graphics/SVG/1.1/DTD/svg11.dtd">
<svg version="1.1" id="Layer_1" xmlns="http://www.w3.org/2000/svg" xmlns:xlink="http://www.w3.org/1999/xlink" x="0px" y="0px"
	 width="64px" height="64px" viewBox="0 0 64 64" enable-background="new 0 0 64 64" xml:space="preserve">
<g id="Track_Pant">
	<path fill="#519852" d="M61.751,40.323c0,12.472-10.562,22.583-23.589,22.583H26.104c-13.03,0-23.592-10.111-23.592-22.583V26.249
		c0-12.471,10.562-22.582,23.592-22.582h12.058c13.027,0,23.589,10.111,23.589,22.582V40.323z"/>
	<path fill="#69B76B" d="M61.751,37.872c0,12.474-10.562,22.583-23.589,22.583H26.104c-13.03,0-23.592-10.111-23.592-22.583V23.797
		c0-12.472,10.562-22.583,23.592-22.583h12.058c13.027,0,23.589,10.111,23.589,22.583V37.872z"/>
	<path fill="#519852" d="M37.714,31.891l-0.853-9.613l0.025-0.951c0.002-0.098-0.048-0.191-0.133-0.244
		c-0.082-0.056-0.186-0.061-0.273-0.02c-0.015,0.006-1.352,0.62-4.267,0.684h-0.156c-2.919-0.063-4.239-0.678-4.251-0.683
		c-0.09-0.042-0.193-0.037-0.276,0.017c-0.084,0.052-0.133,0.145-0.133,0.242l0.006,0.925l-0.853,9.646l-1.056,13.088
		c-0.01,0.14,0.082,0.269,0.221,0.301c0.054,0.011,1.422,0.313,3.344,0.246c0.147-0.006,0.265-0.12,0.272-0.269
		c0.012-0.138,0.86-13.634,2.798-17.221c1.943,3.581,2.791,17.083,2.8,17.221c0.008,0.148,0.125,0.263,0.273,0.269
		c0.189,0.005,0.376,0.009,0.557,0.009c1.629,0,2.74-0.246,2.787-0.255c0.137-0.032,0.232-0.161,0.223-0.301L37.714,31.891z"/>
	<path fill="#FFFFFF" d="M37.714,29.44l-0.853-9.613l0.025-0.95c0.002-0.099-0.048-0.192-0.133-0.245
		c-0.082-0.057-0.186-0.061-0.273-0.019c-0.015,0.005-1.352,0.62-4.267,0.683h-0.156c-2.919-0.063-4.239-0.678-4.251-0.683
		c-0.09-0.042-0.193-0.038-0.276,0.016c-0.084,0.053-0.133,0.144-0.133,0.242l0.006,0.923l-0.853,9.648l-1.056,13.087
		c-0.01,0.141,0.082,0.27,0.221,0.301c0.054,0.012,1.422,0.314,3.344,0.246c0.147-0.006,0.265-0.119,0.272-0.268
		c0.012-0.138,0.86-13.635,2.798-17.22c1.943,3.58,2.791,17.082,2.8,17.22c0.008,0.148,0.125,0.262,0.273,0.268
		c0.189,0.005,0.376,0.01,0.557,0.01c1.629,0,2.74-0.245,2.787-0.255c0.137-0.031,0.232-0.16,0.223-0.3L37.714,29.44z"/>
</g>
</svg>
