<?xml version="1.0" encoding="utf-8"?>
<!-- Generator: Adobe Illustrator 16.0.0, SVG Export Plug-In . SVG Version: 6.00 Build 0)  -->
<!DOCTYPE svg PUBLIC "-//W3C//DTD SVG 1.1//EN" "http://www.w3.org/Graphics/SVG/1.1/DTD/svg11.dtd">
<svg version="1.1" id="Layer_1" xmlns="http://www.w3.org/2000/svg" xmlns:xlink="http://www.w3.org/1999/xlink" x="0px" y="0px"
	 width="64px" height="64px" viewBox="0 0 64 64" enable-background="new 0 0 64 64" xml:space="preserve">
<g id="Tunic_Dress">
	<path fill="#D13B3B" d="M61.887,40.982c0,12.476-10.562,22.584-23.591,22.584H26.239c-13.029,0-23.592-10.108-23.592-22.584V26.909
		c0-12.47,10.563-22.584,23.592-22.584h12.058c13.029,0,23.592,10.114,23.592,22.584v14.073H61.887z"/>
	<path fill="#EC5451" d="M61.887,38.533c0,12.472-10.562,22.582-23.591,22.582H26.239c-13.029,0-23.592-10.11-23.592-22.582V24.459
		c0-12.471,10.563-22.582,23.592-22.582h12.058c13.029,0,23.592,10.111,23.592,22.582v14.074H61.887z"/>
	<g>
		<path fill="#D13B3A" d="M31.912,34.296c0.668-0.094,1.313-0.192,1.604-0.256l0.334-2.381c0-0.004,0.004-0.008,0.004-0.012
			c0.002-0.004,0-0.008,0-0.01l0.244-1.112c-0.508,0.261-1.043,0.927-1.242,1.218l-0.942,2.5L31.912,34.296L31.912,34.296z"/>
		<polygon fill="#D13B3A" points="31.912,32.633 32.189,31.895 31.912,31.895 		"/>
		<path fill="#D13B3A" d="M37.662,37.376c0,0-0.648-4.375-1.755-6.564c0,0,0.079-0.19-0.097-0.405c0,0-0.006-0.049-0.019-0.122
			l-0.125,0.046l0.494,5.646c0.009,0.104-0.041,0.205-0.127,0.263l-0.071,0.045c0.025,0.034,0.045,0.077,0.053,0.125
			c0.063,0.483,0.18,0.89,0.303,1.321c0.176,0.609,0.357,1.244,0.389,2.113c0.002,0.051,0.143,4.547,0.652,6.104l1.635-0.267
			C38.995,45.682,38.068,40.134,37.662,37.376z"/>
		<path fill="#D13B3A" d="M35.58,35.855l-0.482-5.529c-0.152-0.048-0.287-0.019-0.377,0.014l-0.31,1.403l-0.613,5.251l0.668-0.405
			L35.58,35.855z"/>
		<path fill="#D13B3A" d="M28.921,29.98c-0.054,0.222-0.12,0.58-0.139,1.065c0,0-0.052,0.065-0.149,0.28h3.82
			c0.177-0.246,0.585-0.766,1.082-1.12c-1.144-0.142-3.185-0.204-4.538-0.21C28.97,29.996,28.946,29.988,28.921,29.98z"/>
		<path fill="#D13B3A" d="M33.749,29.667c0.297,0.047,0.548,0.096,0.719,0.158c0.138-0.057,0.368-0.115,0.626-0.08l0.5-0.28
			c0.049-0.027,0.098-0.033,0.147-0.031c0.002-0.004,0.002-0.01,0.002-0.014l0.446-2.526c0,0,0.297-1.049,0.432-1.141
			c0,0-0.54-2.236,0.189-4.02l-0.285-0.268l-1.437-0.259c0,0,0.101,0.491,0.029,0.824c0,0-0.149,0.811-0.325,1.015
			c-0.121,0.139-0.292,0.598-1,0.884c0.064,0.053,0.105,0.134,0.102,0.226C33.895,24.194,33.727,27.938,33.749,29.667z"/>
		<path fill="#D13B3A" d="M33.596,37.781c-0.046,0.029-0.097,0.043-0.146,0.043c-0.055,0-0.107-0.014-0.155-0.045
			c-0.091-0.059-0.142-0.168-0.127-0.274l0.337-2.886c-0.425,0.084-1.088,0.181-1.591,0.249v2.454
			c-0.752,6.177-0.289,8.811-0.284,8.836c0.01,0.058,0,0.107-0.019,0.156c0.005,0.004,0.013,0.004,0.019,0.011v0.282
			c0,0,1.374,0.16,1.967,0.021c0.188-1.559,0.051-7.163,0.002-8.85h-0.002V37.781z"/>
		<path fill="#D13B3A" d="M31.344,34.902c-0.041-0.021-0.08-0.047-0.109-0.084c-0.062-0.079-0.079-0.185-0.043-0.277l0.152-0.405
			l-0.001-2.241h-1.425c0,0.006,0.002,0.01,0.002,0.014l-0.487,3.241c-0.372,3.507-0.831,11.002-0.834,11.08
			c-0.001,0.008-0.004,0.012-0.005,0.018c0.515,0.061,1.593,0.154,1.918-0.033c0,0,0.258-0.048,0.544-0.038
			c-0.076-0.485-0.409-3.157,0.29-8.889L31.344,34.902z"/>
		<path fill="#D13B3A" d="M35.773,37.885c-0.113-0.396-0.227-0.813-0.299-1.283l-0.858,0.563l-0.462,0.279
			c0.033,1.074,0.195,6.851,0.035,8.951c0.287-0.059,0.68-0.121,0.789-0.076l1.848-0.18c-0.541-1.634-0.68-6.086-0.688-6.274
			C36.109,39.063,35.945,38.49,35.773,37.885z"/>
		<path fill="#D13B3A" d="M29.346,31.895h-0.834c-0.036,0-0.068-0.006-0.101-0.02c-0.343,0.939-0.921,2.893-1.72,6.842
			c0,0-0.864,5.766-1.152,6.633c0,0,0.289,0.248,0.972,0.36c0.507,0.078,1.172,0.021,1.542,0.103
			c0.098-1.578,0.488-7.664,0.813-10.734L29.346,31.895z"/>
		<path fill="#D13B3A" d="M28.26,25.622c0,0,0.233,0.522,0.413,1.93l0.285,1.884c0.013-0.002,0.025-0.006,0.041-0.006l0,0
			c0.31,0,1.099,0.006,1.992,0.037c0.086-1.22-0.009-5.419-0.01-5.462c-0.001-0.058,0.016-0.104,0.042-0.149
			c-0.596-0.308-0.847-0.731-0.847-0.731s-0.593-0.771-0.715-1.917l-1.025,0.312c0,0-0.365-0.138-0.608,0.215
			C27.827,21.733,28.746,22.545,28.26,25.622z"/>
		<path fill="#D13B3A" d="M31.559,29.49c0.558,0.023,1.121,0.059,1.623,0.11c-0.019-1.782,0.146-5.434,0.146-5.469
			c0-0.023,0.01-0.045,0.016-0.064c-0.242,0.055-0.529,0.088-0.868,0.1c-0.358,0.01-0.66-0.043-0.925-0.117
			C31.561,24.568,31.64,28.271,31.559,29.49z M32.391,29.163c-0.228,0-0.414-0.186-0.414-0.417c0-0.223,0.186-0.409,0.414-0.409
			c0.227,0,0.414,0.187,0.414,0.409C32.805,28.978,32.618,29.163,32.391,29.163z M32.391,24.968c0.227,0,0.414,0.185,0.414,0.411
			c0,0.228-0.187,0.413-0.414,0.413c-0.228,0-0.414-0.186-0.414-0.413S32.163,24.968,32.391,24.968z M32.39,26.524
			c0.228,0,0.413,0.186,0.413,0.414c0,0.229-0.186,0.414-0.413,0.414s-0.413-0.185-0.413-0.414
			C31.977,26.71,32.163,26.524,32.39,26.524z"/>
	</g>
	<g>
		<path fill="#FFFFFF" d="M31.912,31.846c0.668-0.095,1.313-0.194,1.604-0.257l0.334-2.38c0-0.005,0.004-0.009,0.004-0.013
			c0.002-0.004,0-0.008,0-0.01l0.244-1.113c-0.508,0.26-1.043,0.928-1.242,1.22l-0.942,2.497L31.912,31.846L31.912,31.846z"/>
		<polygon fill="#FFFFFF" points="31.912,30.183 32.189,29.443 31.912,29.443 		"/>
		<path fill="#FFFFFF" d="M37.662,34.925c0,0-0.648-4.374-1.755-6.564c0,0,0.079-0.189-0.097-0.405c0,0-0.006-0.047-0.019-0.121
			l-0.125,0.045l0.494,5.646c0.009,0.105-0.041,0.207-0.127,0.264l-0.071,0.047c0.025,0.033,0.045,0.074,0.053,0.123
			c0.063,0.48,0.18,0.891,0.303,1.32c0.176,0.613,0.357,1.244,0.389,2.113c0.002,0.053,0.143,4.547,0.652,6.105l1.635-0.27
			C38.995,43.229,38.068,37.686,37.662,34.925z"/>
		<path fill="#FFFFFF" d="M35.58,33.402l-0.482-5.527c-0.152-0.047-0.287-0.018-0.377,0.014l-0.31,1.404l-0.613,5.252l0.668-0.404
			L35.58,33.402z"/>
		<path fill="#FFFFFF" d="M28.921,27.53c-0.054,0.224-0.12,0.578-0.139,1.063c0,0-0.052,0.066-0.149,0.28h3.82
			c0.177-0.247,0.585-0.766,1.082-1.116c-1.144-0.144-3.185-0.206-4.538-0.21C28.97,27.548,28.946,27.536,28.921,27.53z"/>
		<path fill="#FFFFFF" d="M33.749,27.219c0.297,0.041,0.548,0.096,0.719,0.155c0.138-0.056,0.368-0.118,0.626-0.079l0.5-0.279
			c0.049-0.029,0.098-0.034,0.147-0.034c0.002-0.004,0.002-0.008,0.002-0.014l0.446-2.524c0,0,0.297-1.049,0.432-1.141
			c0,0-0.54-2.236,0.189-4.021l-0.285-0.271l-1.437-0.255c0,0,0.101,0.488,0.029,0.825c0,0-0.149,0.812-0.325,1.013
			c-0.121,0.142-0.292,0.6-1,0.886c0.064,0.055,0.105,0.133,0.102,0.225C33.895,21.743,33.727,25.489,33.749,27.219z"/>
		<path fill="#FFFFFF" d="M33.596,35.33c-0.046,0.029-0.097,0.041-0.146,0.041c-0.055,0-0.107-0.012-0.155-0.043
			c-0.091-0.061-0.142-0.166-0.127-0.273l0.337-2.886c-0.425,0.084-1.088,0.18-1.591,0.248v2.453
			c-0.752,6.179-0.289,8.813-0.284,8.839c0.01,0.053,0,0.107-0.019,0.156c0.005,0.002,0.013,0.006,0.019,0.01v0.282
			c0,0,1.374,0.157,1.967,0.021c0.188-1.558,0.051-7.158,0.002-8.849L33.596,35.33L33.596,35.33z"/>
		<path fill="#FFFFFF" d="M31.344,32.45c-0.041-0.018-0.08-0.045-0.109-0.082c-0.062-0.078-0.079-0.184-0.043-0.278l0.152-0.405
			l-0.001-2.241h-1.425c0,0.006,0.002,0.01,0.002,0.014L29.433,32.7c-0.372,3.504-0.831,11.004-0.834,11.079
			c-0.001,0.007-0.004,0.011-0.005,0.017c0.515,0.062,1.593,0.156,1.918-0.035c0,0,0.258-0.043,0.544-0.032
			c-0.076-0.489-0.409-3.16,0.29-8.891L31.344,32.45z"/>
		<path fill="#FFFFFF" d="M35.773,35.434c-0.113-0.396-0.227-0.813-0.299-1.281l-0.858,0.56l-0.462,0.28
			c0.033,1.072,0.195,6.854,0.035,8.953c0.287-0.057,0.68-0.118,0.789-0.077l1.848-0.179c-0.541-1.635-0.68-6.086-0.688-6.275
			C36.109,36.613,35.945,36.037,35.773,35.434z"/>
		<path fill="#FFFFFF" d="M29.346,29.443h-0.834c-0.036,0-0.068-0.008-0.101-0.02c-0.343,0.941-0.921,2.89-1.72,6.843
			c0,0-0.864,5.766-1.152,6.631c0,0,0.289,0.25,0.972,0.359c0.507,0.081,1.172,0.023,1.542,0.104
			c0.098-1.578,0.488-7.662,0.813-10.733L29.346,29.443z"/>
		<path fill="#FFFFFF" d="M28.26,23.173c0,0,0.233,0.522,0.413,1.926l0.285,1.885c0.013-0.002,0.025-0.006,0.041-0.006l0,0
			c0.31,0,1.099,0.006,1.992,0.04c0.086-1.222-0.009-5.421-0.01-5.466c-0.001-0.053,0.016-0.102,0.042-0.149
			c-0.596-0.303-0.847-0.728-0.847-0.728s-0.593-0.773-0.715-1.919l-1.025,0.312c0,0-0.365-0.137-0.608,0.214
			C27.827,19.281,28.746,20.095,28.26,23.173z"/>
		<path fill="#FFFFFF" d="M31.559,27.039c0.558,0.023,1.121,0.061,1.623,0.111c-0.019-1.787,0.146-5.435,0.146-5.474
			c0-0.021,0.01-0.041,0.016-0.061c-0.242,0.051-0.529,0.09-0.868,0.1c-0.358,0.008-0.66-0.045-0.925-0.117
			C31.561,22.117,31.64,25.821,31.559,27.039z M32.391,26.712c-0.228,0-0.414-0.188-0.414-0.416c0-0.224,0.186-0.409,0.414-0.409
			c0.227,0,0.414,0.186,0.414,0.409C32.805,26.524,32.618,26.712,32.391,26.712z M32.391,22.515c0.227,0,0.414,0.185,0.414,0.412
			c0,0.23-0.187,0.415-0.414,0.415c-0.228,0-0.414-0.185-0.414-0.415C31.977,22.699,32.163,22.515,32.391,22.515z M32.39,24.073
			c0.228,0,0.413,0.188,0.413,0.415s-0.186,0.413-0.413,0.413s-0.413-0.187-0.413-0.413C31.977,24.261,32.163,24.073,32.39,24.073z"
			/>
	</g>
</g>
</svg>
