<?xml version="1.0" encoding="utf-8"?>
<!-- Generator: Adobe Illustrator 16.0.0, SVG Export Plug-In . SVG Version: 6.00 Build 0)  -->
<!DOCTYPE svg PUBLIC "-//W3C//DTD SVG 1.1//EN" "http://www.w3.org/Graphics/SVG/1.1/DTD/svg11.dtd">
<svg version="1.1" id="Layer_1" xmlns="http://www.w3.org/2000/svg" xmlns:xlink="http://www.w3.org/1999/xlink" x="0px" y="0px"
	 width="64px" height="64px" viewBox="0 0 64 64" enable-background="new 0 0 64 64" xml:space="preserve">
<g id="Woman_x2019_s_Top">
	<path fill="#E0AC25" d="M61.746,41.007c0,12.472-10.561,22.582-23.589,22.582H26.099c-13.029,0-23.591-10.11-23.591-22.582V26.933
		c0-12.47,10.562-22.582,23.591-22.582h12.059c13.027,0,23.589,10.112,23.589,22.582L61.746,41.007L61.746,41.007z"/>
	<path fill="#FFCA1C" d="M61.746,38.555c0,12.475-10.561,22.584-23.589,22.584H26.099c-13.029,0-23.591-10.109-23.591-22.584V24.482
		C2.508,12.012,13.069,1.9,26.099,1.9h12.059c13.027,0,23.589,10.111,23.589,22.582L61.746,38.555L61.746,38.555z"/>
	<g>
		<path fill="#E0AC25" d="M41.484,45.795l-0.797-2.156c-0.269,0.148-0.695,0.377-1.303,0.688c-0.633,0.325-1.371,0.3-2.152,0.272
			c-0.685-0.021-1.394-0.048-2.113,0.147c-0.563,0.151-1.064,0.202-1.48,0.202c-0.732,0-1.213-0.157-1.337-0.202
			c-0.197-0.043-0.396-0.125-0.604-0.213c-0.553-0.231-1.24-0.521-2.272-0.173c-1.947,0.66-5.032-0.193-5.973-0.483
			c-0.067,0.442-0.251,1.451-0.668,2.228c-0.053,0.099-0.045,0.217,0.025,0.309c0.055,0.074,0.392,0.439,1.401,0.439
			c0.256,0,0.534-0.022,0.842-0.069c0.15-0.025,0.31-0.035,0.464-0.035c0.529,0,0.981,0.144,1.421,0.276
			c0.584,0.188,1.167,0.33,1.72,0.162c0.863-0.264,0.84-0.211,1.446-0.082c0.209,0.043,0.47,0.1,0.822,0.16
			c0.262,0.047,0.464,0.086,0.628,0.116c0.333,0.069,0.533,0.106,0.754,0.106c0.269,0,0.545-0.055,1.151-0.182l0.225-0.043
			c0.66-0.133,1.188-0.188,1.772-0.188c0.251,0,0.487,0.01,0.737,0.021c0.281,0.012,0.576,0.022,0.916,0.022
			c1.254,0,1.897-0.021,2.787-0.464c0.771-0.385,1.357-0.478,1.363-0.479c0.088-0.014,0.16-0.063,0.203-0.139
			C41.509,45.966,41.518,45.875,41.484,45.795z"/>
		<g>
			<path fill="#E0AC25" d="M25.842,32.365c0.047,0.035,0.086,0.078,0.105,0.137c0.025,0.064,0.586,1.605,3.256,1.947
				c0,0,0.006,0,0.008,0c0.237,0.016,0.871,0.021,1.519-0.235c0.088-0.026,1.541-0.438,2.549,0.054
				c0.688,0.242,1.346,0.188,1.457,0.178c2.658-0.353,3.207-2.296,3.211-2.315c0.02-0.076,0.07-0.135,0.133-0.17
				c0.064-0.748,0.331-1.647,1.087-2.476c0.101-0.107,0.103-0.272,0.006-0.38c-0.021-0.02-1.784-2.037-2.174-3.126
				c-0.024-0.071-0.078-0.124-0.142-0.157c0.285-1.556,0.728-4.539,0.066-5.189c-0.154-0.15-0.354-0.211-0.568-0.164
				c-1.373,0.281-1.633,2.119-1.722,6.399l-0.514,0.274c-0.08,0.043-0.136,0.131-0.147,0.219c-0.002,0.006-0.132,0.686-1.798,0.894
				c-0.016,0-1.598-0.066-1.763-0.847c-0.018-0.09-0.076-0.16-0.156-0.199l-0.969-0.456c-0.09-4.194-0.358-6.005-1.719-6.284
				c-0.212-0.045-0.413,0.014-0.566,0.164c-0.659,0.65-0.219,3.626,0.066,5.184c-0.008,0.004-0.016,0.002-0.025,0.008
				c-0.078,0.047-0.133,0.128-0.145,0.22c-0.002,0.025-0.275,2.533-1.963,2.974c-0.101,0.029-0.181,0.104-0.206,0.203
				c-0.023,0.101,0.006,0.206,0.082,0.276C24.858,29.542,25.811,30.492,25.842,32.365z M36.436,21.209
				c0.219,0.454,0.063,2.578-0.363,4.792c-0.008,0.033-0.004,0.066,0,0.1l-0.688,0.368C35.477,22.817,35.752,21.432,36.436,21.209z
				 M27.487,21.209c0.682,0.223,0.96,1.589,1.052,5.189l-0.684-0.325c0-0.025,0.004-0.047,0-0.072
				C27.429,23.787,27.271,21.663,27.487,21.209z"/>
			<path fill="#E0AC25" d="M38.236,33.577c-0.01-0.029-0.067-0.216-0.114-0.505c-0.452,0.705-1.397,1.664-3.263,1.929
				c-0.012,0.002-0.021,0.008-0.03,0.01c-0.013,0-0.093,0.011-0.22,0.015c-0.053,0.002-0.113,0.006-0.188,0.006
				c-0.324,0-0.834-0.039-1.37-0.229c-0.024-0.01-0.04-0.021-0.057-0.032c-0.689-0.297-1.637-0.117-1.964-0.045
				c-0.014,0.012-0.025,0.022-0.041,0.028c-0.58,0.233-1.146,0.278-1.497,0.278c-0.027,0-0.045-0.002-0.066-0.002
				c-0.004,0-0.008,0-0.012,0c-0.22,0-0.358-0.019-0.372-0.019c-0.025-0.002-0.045-0.014-0.069-0.021
				c-1.823-0.274-2.752-1.079-3.196-1.661c-0.016,0.108-0.029,0.214-0.051,0.329c-0.099,0.285-2.289,6.749-2.261,9.603
				c0.617,0.198,3.875,1.173,5.757,0.533c1.232-0.413,2.062-0.063,2.666,0.188c0.198,0.082,0.37,0.153,0.514,0.182
				c0.023,0.004,0.039,0.01,0.057,0.018c0.01,0.002,0.996,0.387,2.472-0.014c0.801-0.214,1.584-0.188,2.273-0.165
				c0.734,0.026,1.368,0.047,1.865-0.209c0.816-0.417,1.316-0.694,1.508-0.803C40.57,41.786,40.318,38.58,38.236,33.577z"/>
		</g>
	</g>
	<g>
		<path fill="#FFFFFF" d="M41.484,43.346l-0.797-2.16c-0.269,0.15-0.695,0.383-1.303,0.691c-0.633,0.326-1.371,0.303-2.152,0.271
			c-0.685-0.021-1.394-0.049-2.113,0.147c-0.563,0.152-1.064,0.203-1.48,0.203c-0.732,0-1.213-0.158-1.337-0.203
			c-0.197-0.041-0.396-0.124-0.604-0.21c-0.553-0.232-1.24-0.521-2.272-0.174c-1.947,0.656-5.032-0.195-5.973-0.485
			c-0.067,0.441-0.251,1.454-0.668,2.226c-0.053,0.1-0.045,0.221,0.025,0.311c0.055,0.074,0.392,0.441,1.401,0.441
			c0.256,0,0.534-0.024,0.842-0.071c0.15-0.024,0.31-0.037,0.464-0.037c0.529,0,0.981,0.142,1.421,0.28
			c0.584,0.186,1.167,0.331,1.72,0.158c0.863-0.262,0.84-0.209,1.446-0.082c0.209,0.045,0.47,0.102,0.822,0.164
			c0.262,0.045,0.464,0.084,0.628,0.115c0.333,0.066,0.533,0.105,0.754,0.105c0.269,0,0.545-0.057,1.151-0.178l0.225-0.047
			c0.66-0.133,1.188-0.188,1.772-0.188c0.251,0,0.487,0.01,0.737,0.021c0.281,0.012,0.576,0.022,0.916,0.022
			c1.254,0,1.897-0.021,2.787-0.462c0.771-0.387,1.357-0.479,1.363-0.479c0.088-0.013,0.16-0.064,0.203-0.141
			C41.509,43.516,41.518,43.425,41.484,43.346z"/>
		<g>
			<path fill="#FFFFFF" d="M25.842,29.916c0.047,0.031,0.086,0.076,0.105,0.136c0.025,0.064,0.586,1.604,3.256,1.946
				c0,0,0.006,0,0.008,0c0.237,0.016,0.871,0.023,1.519-0.235c0.088-0.027,1.541-0.44,2.549,0.053
				c0.688,0.241,1.346,0.188,1.457,0.179c2.658-0.354,3.207-2.295,3.211-2.313c0.02-0.078,0.07-0.142,0.133-0.177
				c0.064-0.744,0.331-1.644,1.087-2.472c0.101-0.106,0.103-0.271,0.006-0.381c-0.021-0.02-1.784-2.035-2.174-3.128
				c-0.024-0.068-0.078-0.123-0.142-0.154c0.285-1.559,0.728-4.54,0.066-5.188c-0.154-0.151-0.354-0.212-0.568-0.169
				c-1.373,0.284-1.633,2.122-1.722,6.401l-0.514,0.274c-0.08,0.043-0.136,0.131-0.147,0.218c-0.002,0.008-0.132,0.688-1.798,0.894
				c-0.016,0-1.598-0.064-1.763-0.845c-0.018-0.088-0.076-0.163-0.156-0.202L29.287,24.3c-0.09-4.193-0.358-6.004-1.719-6.286
				c-0.212-0.043-0.413,0.018-0.566,0.169c-0.659,0.647-0.219,3.623,0.066,5.184c-0.008,0.004-0.016,0.002-0.025,0.006
				c-0.078,0.045-0.133,0.127-0.145,0.219c-0.002,0.023-0.275,2.533-1.963,2.974c-0.101,0.025-0.181,0.104-0.206,0.204
				c-0.023,0.1,0.006,0.205,0.082,0.276C24.858,27.092,25.811,28.041,25.842,29.916z M36.436,18.758
				c0.219,0.455,0.063,2.58-0.363,4.794c-0.008,0.031-0.004,0.064,0,0.098l-0.688,0.368C35.477,20.367,35.752,18.979,36.436,18.758z
				 M27.487,18.758c0.682,0.222,0.96,1.59,1.052,5.188l-0.684-0.325c0-0.021,0.004-0.047,0-0.068
				C27.429,21.338,27.271,19.213,27.487,18.758z"/>
			<path fill="#FFFFFF" d="M38.236,31.123c-0.01-0.025-0.067-0.212-0.114-0.504c-0.452,0.707-1.397,1.665-3.263,1.93
				c-0.012,0.004-0.021,0.01-0.03,0.012c-0.013,0-0.093,0.01-0.22,0.015c-0.053,0.004-0.113,0.006-0.188,0.006
				c-0.324,0-0.834-0.039-1.37-0.229c-0.024-0.008-0.04-0.021-0.057-0.031c-0.689-0.299-1.637-0.125-1.964-0.046
				c-0.014,0.008-0.025,0.02-0.041,0.025c-0.58,0.235-1.146,0.28-1.497,0.28c-0.027,0-0.045-0.002-0.066-0.002
				c-0.004,0-0.008,0-0.012,0c-0.22,0-0.358-0.018-0.372-0.018c-0.025-0.002-0.045-0.015-0.069-0.021
				c-1.823-0.274-2.752-1.08-3.196-1.663c-0.016,0.109-0.029,0.216-0.051,0.331c-0.099,0.288-2.289,6.75-2.261,9.604
				c0.617,0.194,3.875,1.17,5.757,0.533c1.232-0.414,2.062-0.068,2.666,0.188c0.198,0.084,0.37,0.154,0.514,0.182
				c0.023,0.004,0.039,0.01,0.057,0.016c0.01,0.004,0.996,0.388,2.472-0.012c0.801-0.217,1.584-0.189,2.273-0.164
				c0.734,0.025,1.368,0.047,1.865-0.21c0.816-0.417,1.316-0.694,1.508-0.805C40.57,39.337,40.318,36.13,38.236,31.123z"/>
		</g>
	</g>
</g>
</svg>
