<?xml version="1.0" encoding="utf-8"?>
<!-- Generator: Adobe Illustrator 16.0.0, SVG Export Plug-In . SVG Version: 6.00 Build 0)  -->
<!DOCTYPE svg PUBLIC "-//W3C//DTD SVG 1.1//EN" "http://www.w3.org/Graphics/SVG/1.1/DTD/svg11.dtd">
<svg version="1.1" id="Layer_1" xmlns="http://www.w3.org/2000/svg" xmlns:xlink="http://www.w3.org/1999/xlink" x="0px" y="0px"
	 width="64px" height="64px" viewBox="0 0 64 64" enable-background="new 0 0 64 64" xml:space="preserve">
<g id="Woman_x2019_s_Jeans">
	<path fill="#CC3D27" d="M61.887,41.132c0,12.472-10.562,22.583-23.591,22.583H26.239c-13.029,0-23.592-10.111-23.592-22.583V27.057
		c0-12.47,10.563-22.582,23.592-22.582h12.058c13.029,0,23.592,10.112,23.592,22.582v14.075H61.887z"/>
	<path fill="#F0592F" d="M61.887,38.682c0,12.471-10.562,22.584-23.591,22.584H26.239c-13.029,0-23.592-10.113-23.592-22.584V24.608
		c0-12.473,10.563-22.584,23.592-22.584h12.058c13.029,0,23.592,10.111,23.592,22.584v14.074H61.887z"/>
	<g>
		<path fill="#CB3E27" d="M36.553,22.959c-0.054-0.112-0.101-0.228-0.16-0.341l-0.246-0.987c0,0-0.904,0.95-3.73,1.188
			c0,0.006,0.002,0.012,0.002,0.016v1.525c0.002,0.021,0.008,0.079,0.017,0.159C33.875,24.263,36.027,23.665,36.553,22.959z
			 M33.15,24.083c-0.156,0-0.324-0.163-0.324-0.323c0-0.157,0.167-0.319,0.324-0.319c0.158,0,0.324,0.162,0.324,0.319
			C33.475,23.92,33.309,24.083,33.15,24.083z"/>
		<path fill="#CB3E27" d="M35.279,24.396c0.004,0.018,0.343,1.494,1.156,1.919c0.272,0.141,0.567,0.143,0.903,0.006
			c0.024-0.01,0.052-0.012,0.079-0.016c-0.092-0.897-0.281-1.854-0.626-2.774c-0.368,0.329-0.925,0.604-1.528,0.832
			C35.268,24.372,35.275,24.384,35.279,24.396z"/>
		<path fill="#CB3E27" d="M32.486,25.086c0.062,0.721,0.144,1.841,0.155,2.819c0.166-0.043,0.305-0.127,0.411-0.262
			c0.499-0.631,0.298-2.115,0.177-2.634c-0.004-0.023-0.002-0.045-0.002-0.068C32.916,25.01,32.659,25.059,32.486,25.086z"/>
		<path fill="#CB3E27" d="M37.559,34.55c0,0-0.474-1.991-0.256-4.238c0,0,0.28-1.516,0.162-3.438
			c-0.203,0.074-0.404,0.117-0.596,0.117c-0.242,0-0.475-0.059-0.697-0.176c-0.998-0.521-1.393-2.063-1.441-2.268
			c-0.334,0.104-0.666,0.195-0.976,0.274c0.011,0.018,0.024,0.035,0.029,0.059c0.021,0.088,0.483,2.146-0.286,3.116
			c-0.216,0.274-0.507,0.433-0.857,0.484c-0.01,0.346-0.031,0.653-0.072,0.891c-0.01,0.057-0.041,0.107-0.081,0.15
			c0.362,1.048,1.12,3.497,1.444,6.406c0,0,0.821,3.067,0.908,5.486c0,0-0.042,4.455,0.778,5.015c0,0,1.56,0.54,3.198-0.607
			C38.814,45.822,39.031,38.048,37.559,34.55z"/>
		<path fill="#CB3E27" d="M29.911,24.733c-0.098,0.333-0.526,1.614-1.469,2.092c-0.238,0.119-0.489,0.178-0.751,0.178
			c-0.172,0-0.352-0.035-0.535-0.09c-0.078,0.945-0.102,2.073-0.024,3.442c0,0,0.363,2.938-0.05,4.208c0,0-0.476,1.106-0.52,2.791
			c0,0-0.606,2.051-0.539,3.498c0,0-0.434,1.99-0.283,4.909c0,0,0.968,1.017,3.35,0.669c0,0,0.119-0.272,0.166-1.076
			c0,0,0.1-0.586,0.354-4.369l0.821-4.756c0,0,1.206-4.7,1.588-7.063c0.136-0.951-0.01-3.001-0.104-4.074
			C31.105,25.014,30.444,24.887,29.911,24.733z"/>
		<path fill="#CB3E27" d="M31.852,24.516v-1.681c0-0.008,0.003-0.016,0.004-0.023c-0.731-0.059-2.254-0.29-3.082-1.181l-0.375,1.06
			c0,0-0.094,0.094-0.232,0.315c0.007,0.014,0.018,0.027,0.024,0.041C28.205,23.082,28.671,24.173,31.852,24.516z"/>
		<path fill="#CB3E27" d="M28.188,26.316c0.67-0.341,1.068-1.346,1.183-1.757c-0.847-0.318-1.278-0.69-1.5-0.965
			c-0.242,0.566-0.504,1.444-0.657,2.747C27.572,26.469,27.891,26.465,28.188,26.316z"/>
	</g>
	<g>
		<path fill="#FFFFFF" d="M36.553,20.508c-0.054-0.115-0.101-0.229-0.16-0.339l-0.246-0.989c0,0-0.904,0.95-3.73,1.189
			c0,0.004,0.002,0.008,0.002,0.014v1.528c0.002,0.023,0.008,0.078,0.017,0.158C33.875,21.813,36.027,21.212,36.553,20.508z
			 M33.15,21.631c-0.156,0-0.324-0.164-0.324-0.321c0-0.156,0.167-0.324,0.324-0.324c0.158,0,0.324,0.168,0.324,0.324
			C33.475,21.467,33.309,21.631,33.15,21.631z"/>
		<path fill="#FFFFFF" d="M35.279,21.946c0.004,0.016,0.343,1.494,1.156,1.915c0.272,0.143,0.567,0.146,0.903,0.006
			c0.024-0.01,0.052-0.012,0.079-0.016c-0.092-0.895-0.281-1.851-0.626-2.771c-0.368,0.328-0.925,0.604-1.528,0.832
			C35.268,21.925,35.275,21.935,35.279,21.946z"/>
		<path fill="#FFFFFF" d="M32.486,22.638c0.062,0.719,0.144,1.839,0.155,2.816c0.166-0.043,0.305-0.127,0.411-0.26
			c0.499-0.629,0.298-2.116,0.177-2.635c-0.004-0.024-0.002-0.048-0.002-0.069C32.916,22.56,32.659,22.608,32.486,22.638z"/>
		<path fill="#FFFFFF" d="M37.559,32.097c0,0-0.474-1.99-0.256-4.236c0,0,0.28-1.515,0.162-3.437
			c-0.203,0.074-0.404,0.118-0.596,0.118c-0.242,0-0.475-0.062-0.697-0.178c-0.998-0.522-1.393-2.063-1.441-2.268
			c-0.334,0.104-0.666,0.196-0.976,0.272c0.011,0.02,0.024,0.037,0.029,0.063c0.021,0.084,0.483,2.146-0.286,3.115
			c-0.216,0.273-0.507,0.431-0.857,0.483c-0.01,0.347-0.031,0.654-0.072,0.891c-0.01,0.059-0.041,0.106-0.081,0.149
			c0.362,1.048,1.12,3.498,1.444,6.406c0,0,0.821,3.066,0.908,5.488c0,0-0.042,4.452,0.778,5.014c0,0,1.56,0.543,3.198-0.605
			C38.814,43.372,39.031,35.596,37.559,32.097z"/>
		<path fill="#FFFFFF" d="M29.911,22.283c-0.098,0.335-0.526,1.613-1.469,2.087c-0.238,0.124-0.489,0.184-0.751,0.184
			c-0.172,0-0.352-0.036-0.535-0.091c-0.078,0.944-0.102,2.072-0.024,3.442c0,0,0.363,2.938-0.05,4.205c0,0-0.476,1.108-0.52,2.794
			c0,0-0.606,2.05-0.539,3.5c0,0-0.434,1.986-0.283,4.904c0,0,0.968,1.021,3.35,0.67c0,0,0.119-0.271,0.166-1.076
			c0,0,0.1-0.584,0.354-4.37l0.821-4.753c0,0,1.206-4.701,1.588-7.063c0.136-0.954-0.01-2.999-0.104-4.074
			C31.105,22.562,30.444,22.436,29.911,22.283z"/>
		<path fill="#FFFFFF" d="M31.852,22.065v-1.683c0-0.008,0.003-0.014,0.004-0.021c-0.731-0.06-2.254-0.288-3.082-1.182l-0.375,1.06
			c0,0-0.094,0.094-0.232,0.315c0.007,0.014,0.018,0.027,0.024,0.041C28.205,20.629,28.671,21.721,31.852,22.065z"/>
		<path fill="#FFFFFF" d="M28.188,23.863c0.67-0.339,1.068-1.346,1.183-1.753c-0.847-0.317-1.278-0.693-1.5-0.965
			c-0.242,0.563-0.504,1.443-0.657,2.743C27.572,24.018,27.891,24.014,28.188,23.863z"/>
	</g>
</g>
</svg>
