<?xml version="1.0" encoding="utf-8"?>
<!-- Generator: Adobe Illustrator 16.0.0, SVG Export Plug-In . SVG Version: 6.00 Build 0)  -->
<!DOCTYPE svg PUBLIC "-//W3C//DTD SVG 1.1//EN" "http://www.w3.org/Graphics/SVG/1.1/DTD/svg11.dtd">
<svg version="1.1" id="Layer_1" xmlns="http://www.w3.org/2000/svg" xmlns:xlink="http://www.w3.org/1999/xlink" x="0px" y="0px"
	 width="64px" height="64px" viewBox="0 0 64 64" enable-background="new 0 0 64 64" xml:space="preserve">
<g id="Woman_x2019_s_Sweater">
	<path fill="#DB7B27" d="M61.751,40.918c0,12.469-10.562,22.579-23.589,22.579H26.104c-13.03,0-23.592-10.11-23.592-22.579V26.841
		c0-12.472,10.562-22.579,23.592-22.579h12.058c13.027,0,23.589,10.107,23.589,22.579V40.918z"/>
	<path fill="#F79420" d="M61.751,38.463c0,12.473-10.562,22.584-23.589,22.584H26.104c-13.03,0-23.592-10.111-23.592-22.584v-14.07
		c0-12.473,10.562-22.584,23.592-22.584h12.058c13.027,0,23.589,10.111,23.589,22.584V38.463z"/>
	<g>
		<path fill="#DA7B27" d="M28.507,24.163c0.025,0.008,0.055,0.008,0.084,0.006c0.02-0.002,2.147-0.224,4.104-0.224
			c1.141,0,1.998,0.073,2.55,0.218c0.021,0.006,0.039,0.008,0.06,0.008h0.008c0.152-0.004,0.453-0.084,0.6-0.363
			c0.195-0.36,0.064-0.895-0.401-1.629l-0.206-0.327c-0.022-0.043-0.063-0.074-0.106-0.092c-0.855-0.358-1.914-0.537-3.146-0.537
			c-1.611,0-2.929,0.308-2.984,0.319c-0.037,0.01-0.072,0.027-0.105,0.053c-0.223,0.2-1.339,1.23-1.153,1.982
			C27.856,23.776,28.02,24.044,28.507,24.163z"/>
		<path fill="#DA7B27" d="M23.157,44.465l-2.59-0.729c-0.024-0.006-0.048-0.008-0.069-0.008c-0.236,0-0.446,0.09-0.608,0.265
			c-0.44,0.478-0.378,1.446-0.37,1.555c0.006,0.078,0.051,0.147,0.115,0.188c0.057,0.035,1.354,0.799,2.52,0.799
			c0.197,0,0.384-0.023,0.55-0.068c0.051-0.014,0.095-0.042,0.128-0.081c0.086-0.102,0.818-1.032,0.481-1.79
			C23.284,44.529,23.228,44.482,23.157,44.465z"/>
		<path fill="#DA7B27" d="M37.634,31.875c1.806,7.741,2.638,10.824,3.046,12.07c0.082-0.063,0.174-0.116,0.276-0.145l2.585-0.723
			c0.072-0.021,0.148-0.031,0.221-0.031c0.018,0,0.037,0.004,0.053,0.006c-0.502-2.005-1.937-7.68-3.396-13.461
			c-0.558-2.195-0.969-3.819-1.022-4.043c-0.225-0.904-1.467-1.237-2.199-1.237c-0.211,0-0.504-0.112-0.775-0.249
			c-0.004,0.004-0.004,0.01-0.01,0.018c-0.258,0.474-0.746,0.65-1.105,0.658c-0.07,0-0.144-0.01-0.201-0.027
			c-0.348-0.092-1.049-0.198-2.406-0.198c-1.892,0-3.96,0.212-4.051,0.222l-0.018,0.002h-0.016l-0.035,0.002h-0.014
			c-0.07,0-0.133-0.008-0.188-0.023c-0.434-0.105-0.701-0.302-0.872-0.508c-0.076,0.056-0.154,0.099-0.231,0.106
			c-0.527,0.053-1.138,0.269-1.722,0.604c-0.641,0.374-0.997,0.754-1.161,1.23c-0.167,0.517-3.244,13.559-3.978,17.019
			c0.029-0.002,0.057-0.01,0.086-0.01c0.079,0,0.156,0.012,0.221,0.031l2.589,0.725c0.064,0.018,0.121,0.043,0.178,0.074
			l2.771-12.271c0.082,0.438,0.253,0.91,0.577,1.342c0.008,0.01,0.642,1.104,0.282,2.104c-0.066,0.188-0.166,0.402-0.284,0.664
			c-0.585,1.294-1.678,3.708-1.01,7.287c0.014,0.078,0.068,0.146,0.141,0.176c0.051,0.021,5.17,2.089,12.274,0.039
			c0.093-0.025,0.16-0.104,0.173-0.199c0.62-4.768-1.05-7.424-1.106-7.507c-0.227-0.468-0.718-1.812-0.293-2.407
			C37.348,32.745,37.531,32.271,37.634,31.875z"/>
		<path fill="#DA7B27" d="M44.374,43.883c-0.159-0.177-0.368-0.265-0.612-0.265c-0.021,0-0.041,0.002-0.063,0.008l-2.592,0.726
			c-0.067,0.021-0.125,0.068-0.153,0.131c-0.343,0.761,0.394,1.688,0.479,1.795c0.03,0.037,0.078,0.063,0.127,0.08
			c0.168,0.043,0.354,0.063,0.555,0.063c1.16,0,2.46-0.764,2.514-0.797c0.068-0.039,0.111-0.108,0.119-0.187
			C44.754,45.329,44.816,44.359,44.374,43.883z"/>
	</g>
	<g>
		<path fill="#FFFFFF" d="M28.507,21.713c0.025,0.008,0.055,0.008,0.084,0.004c0.02-0.002,2.147-0.222,4.104-0.222
			c1.141,0,1.998,0.072,2.55,0.216c0.021,0.006,0.039,0.01,0.06,0.01h0.008c0.152-0.006,0.453-0.086,0.6-0.36
			c0.195-0.362,0.064-0.898-0.401-1.633l-0.206-0.324c-0.022-0.044-0.063-0.077-0.106-0.097c-0.855-0.356-1.914-0.534-3.146-0.534
			c-1.611,0-2.929,0.308-2.984,0.319c-0.037,0.01-0.072,0.027-0.105,0.053c-0.223,0.199-1.339,1.228-1.153,1.984
			C27.856,21.329,28.02,21.593,28.507,21.713z"/>
		<path fill="#FFFFFF" d="M23.157,42.016l-2.59-0.728c-0.024-0.004-0.048-0.009-0.069-0.009c-0.236,0-0.446,0.089-0.608,0.263
			c-0.44,0.479-0.378,1.444-0.37,1.556c0.006,0.078,0.051,0.146,0.115,0.187c0.057,0.036,1.354,0.8,2.52,0.8
			c0.197,0,0.384-0.021,0.55-0.066c0.051-0.014,0.095-0.041,0.128-0.082c0.086-0.104,0.818-1.033,0.481-1.789
			C23.284,42.081,23.228,42.032,23.157,42.016z"/>
		<path fill="#FFFFFF" d="M37.634,29.425c1.806,7.738,2.638,10.826,3.046,12.07c0.082-0.063,0.174-0.115,0.276-0.144l2.585-0.727
			c0.072-0.02,0.148-0.029,0.221-0.029c0.018,0,0.037,0.006,0.053,0.006c-0.502-2.004-1.937-7.68-3.396-13.458
			c-0.558-2.198-0.969-3.824-1.022-4.046c-0.225-0.904-1.467-1.237-2.199-1.237c-0.211,0-0.504-0.111-0.775-0.249
			c-0.004,0.004-0.004,0.012-0.01,0.018c-0.258,0.477-0.746,0.652-1.105,0.658c-0.07,0-0.144-0.01-0.201-0.027
			c-0.348-0.09-1.049-0.197-2.406-0.197c-1.892,0-3.96,0.211-4.051,0.221l-0.018,0.002h-0.016l-0.035,0.002h-0.014
			c-0.07,0-0.133-0.008-0.188-0.021c-0.434-0.107-0.701-0.306-0.872-0.509c-0.076,0.055-0.154,0.098-0.231,0.105
			c-0.527,0.053-1.138,0.265-1.722,0.604c-0.641,0.376-0.997,0.756-1.161,1.231c-0.167,0.518-3.244,13.56-3.978,17.02
			c0.029-0.002,0.057-0.01,0.086-0.01c0.079,0,0.156,0.012,0.221,0.031l2.589,0.725c0.064,0.018,0.121,0.043,0.178,0.074
			l2.771-12.272c0.082,0.437,0.253,0.911,0.577,1.342c0.008,0.008,0.642,1.104,0.282,2.106c-0.066,0.182-0.166,0.401-0.284,0.659
			c-0.585,1.3-1.678,3.71-1.01,7.29c0.014,0.078,0.068,0.146,0.141,0.176c0.051,0.021,5.17,2.09,12.274,0.04
			c0.093-0.026,0.16-0.106,0.173-0.2c0.62-4.769-1.05-7.425-1.106-7.509c-0.227-0.467-0.718-1.81-0.293-2.407
			C37.348,30.294,37.531,29.818,37.634,29.425z"/>
		<path fill="#FFFFFF" d="M44.374,41.432c-0.159-0.175-0.368-0.266-0.612-0.266c-0.021,0-0.041,0.002-0.063,0.01L41.107,41.9
			c-0.067,0.018-0.125,0.064-0.153,0.134c-0.343,0.758,0.394,1.687,0.479,1.789c0.03,0.042,0.078,0.069,0.127,0.083
			c0.168,0.043,0.354,0.064,0.555,0.064c1.16,0,2.46-0.765,2.514-0.796c0.068-0.041,0.111-0.112,0.119-0.19
			C44.754,42.878,44.816,41.908,44.374,41.432z"/>
	</g>
</g>
</svg>
