<?xml version="1.0" encoding="utf-8"?>
<!-- Generator: Adobe Illustrator 16.0.0, SVG Export Plug-In . SVG Version: 6.00 Build 0)  -->
<!DOCTYPE svg PUBLIC "-//W3C//DTD SVG 1.1//EN" "http://www.w3.org/Graphics/SVG/1.1/DTD/svg11.dtd">
<svg version="1.1" id="Layer_1" xmlns="http://www.w3.org/2000/svg" xmlns:xlink="http://www.w3.org/1999/xlink" x="0px" y="0px"
	 width="64px" height="64px" viewBox="0 0 64 64" enable-background="new 0 0 64 64" xml:space="preserve">
<g id="Woman_x2019_s_T-shirt">
	<path fill="#594482" d="M61.887,41.277c0,12.473-10.562,22.584-23.591,22.584H26.239c-13.029,0-23.592-10.111-23.592-22.584V27.205
		c0-12.473,10.563-22.582,23.592-22.582h12.058c13.029,0,23.592,10.109,23.592,22.582v14.072H61.887z"/>
	<path fill="#795CA6" d="M61.887,38.826c0,12.473-10.562,22.584-23.591,22.584H26.239c-13.029,0-23.592-10.111-23.592-22.584V24.752
		c0-12.47,10.563-22.579,23.592-22.579h12.058c13.029,0,23.592,10.109,23.592,22.579v14.074H61.887z"/>
	<g>
		<path fill="#594482" d="M32.265,23.601c0.024,0,2.533-0.039,3.5-1.676c-0.957-0.391-2.137-0.591-3.507-0.591
			c-1.809,0-3.293,0.343-3.356,0.358c-0.008,0.002-0.014,0.008-0.021,0.012c0,0.008,0.005,0.012,0.005,0.021
			C28.893,21.808,29.046,23.601,32.265,23.601z"/>
		<path fill="#594482" d="M39.299,31.482c0.018,0.008,0.036,0.015,0.055,0.017c1.168,0.182,2.594-0.294,2.976-0.757
			c0.123-0.152,0.128-0.283,0.11-0.371c-0.053-0.269-1.129-5.025-1.355-5.93c-0.266-1.063-1.727-1.457-2.586-1.457
			c-0.587,0-1.493-0.116-1.784-0.155l-0.516-0.522c-1.161,1.823-3.815,1.862-3.934,1.864c-2.77,0-3.595-1.271-3.839-1.97
			c-0.169,0.211-0.37,0.452-0.501,0.583c-0.135,0.135-0.357,0.15-0.737,0.175c-0.125,0.006-0.255,0.012-0.392,0.027
			c-0.624,0.061-1.346,0.313-2.032,0.711c-0.757,0.442-1.178,0.891-1.366,1.452c-0.012,0.034-1.057,3.264-1.309,5.014
			c-0.013,0.094,0.024,0.19,0.097,0.255c0.43,0.366,1.257,0.556,2.457,0.556c0.465,0,0.824-0.029,0.897-0.035
			c-0.064,0.615-0.083,1.95,0.738,3.021c0.008,0.015,0.753,1.306,0.332,2.488c-0.077,0.213-0.196,0.476-0.334,0.778
			c-0.693,1.531-1.981,4.375-1.194,8.59c0.017,0.097,0.08,0.176,0.171,0.211c0.108,0.047,2.746,1.125,7.022,1.123
			c2.464,0,4.97-0.361,7.447-1.076c0.109-0.031,0.188-0.121,0.203-0.235c0.729-5.624-1.238-8.752-1.306-8.856
			c-0.265-0.545-0.845-2.133-0.343-2.834c0.941-1.319,0.887-2.678,0.884-2.704c0-0.004,0-0.008,0-0.012L39.299,31.482z"/>
	</g>
	<g>
		<path fill="#FFFFFF" d="M32.265,21.15c0.024,0,2.533-0.039,3.5-1.677c-0.957-0.39-2.137-0.591-3.507-0.591
			c-1.809,0-3.293,0.344-3.356,0.359c-0.008,0.002-0.014,0.008-0.021,0.012c0,0.008,0.005,0.012,0.005,0.021
			C28.893,19.358,29.046,21.15,32.265,21.15z"/>
		<path fill="#FFFFFF" d="M39.299,29.033c0.018,0.008,0.036,0.014,0.055,0.016c1.168,0.184,2.594-0.296,2.976-0.757
			c0.123-0.151,0.128-0.284,0.11-0.374c-0.053-0.269-1.129-5.026-1.355-5.929c-0.266-1.061-1.727-1.456-2.586-1.456
			c-0.587,0-1.493-0.117-1.784-0.154l-0.516-0.521c-1.161,1.823-3.815,1.862-3.934,1.862c-2.77,0-3.595-1.272-3.839-1.968
			c-0.169,0.209-0.37,0.448-0.501,0.581c-0.135,0.134-0.357,0.151-0.737,0.175c-0.125,0.004-0.255,0.012-0.392,0.027
			c-0.624,0.063-1.346,0.315-2.032,0.709c-0.757,0.444-1.178,0.894-1.366,1.458c-0.012,0.031-1.057,3.264-1.309,5.01
			c-0.013,0.095,0.024,0.19,0.097,0.257c0.43,0.366,1.257,0.555,2.457,0.555c0.465,0,0.824-0.029,0.897-0.038
			c-0.064,0.618-0.083,1.952,0.738,3.025c0.008,0.012,0.753,1.304,0.332,2.483c-0.077,0.218-0.196,0.477-0.334,0.781
			c-0.693,1.531-1.981,4.373-1.194,8.591c0.017,0.096,0.08,0.174,0.171,0.211c0.108,0.045,2.746,1.122,7.022,1.12
			c2.464,0,4.97-0.36,7.447-1.075c0.109-0.031,0.188-0.123,0.203-0.236c0.729-5.622-1.238-8.751-1.306-8.853
			c-0.265-0.551-0.845-2.135-0.343-2.837c0.941-1.319,0.887-2.679,0.884-2.704c0-0.004,0-0.008,0-0.012L39.299,29.033z"/>
	</g>
</g>
</svg>
