<?xml version="1.0" encoding="utf-8"?>
<!-- Generator: Adobe Illustrator 16.0.0, SVG Export Plug-In . SVG Version: 6.00 Build 0)  -->
<!DOCTYPE svg PUBLIC "-//W3C//DTD SVG 1.1//EN" "http://www.w3.org/Graphics/SVG/1.1/DTD/svg11.dtd">
<svg version="1.1" id="Layer_1" xmlns="http://www.w3.org/2000/svg" xmlns:xlink="http://www.w3.org/1999/xlink" x="0px" y="0px"
	 width="64px" height="64px" viewBox="0 0 64 64" enable-background="new 0 0 64 64" xml:space="preserve">
<g id="Woman_x2019_s_Collared_T-shirt">
	<path fill="#3D87AD" d="M61.746,40.607c0,12.472-10.561,22.58-23.589,22.58H26.099c-13.031,0-23.591-10.108-23.591-22.58V26.532
		c0-12.469,10.56-22.581,23.591-22.581h12.059c13.027,0,23.589,10.112,23.589,22.581L61.746,40.607L61.746,40.607z"/>
	<path fill="#53A1D8" d="M61.746,38.154c0,12.473-10.561,22.587-23.589,22.587H26.099c-13.031,0-23.591-10.114-23.591-22.587V24.081
		c0-12.471,10.56-22.58,23.591-22.58h12.059c13.027,0,23.589,10.109,23.589,22.58L61.746,38.154L61.746,38.154z"/>
	<g>
		<rect x="32.412" y="24.106" fill="#3D87AD" width="0.408" height="4.694"/>
		<path fill="#3D87AD" d="M34.465,24.962c1.943-1.097,1.616-3.225,1.602-3.32c-0.004-0.025,0-0.047,0.002-0.068l-0.463-0.388
			c-0.084-0.068-0.195-0.084-0.293-0.043c-0.1,0.043-0.168,0.137-0.174,0.24c-0.016,0.206-0.086,0.81-0.252,1.134
			c-0.171,0.343-0.849,0.794-1.811,1.014c0.281,0.025,0.537,0.121,0.751,0.298C34.213,24.138,34.385,24.619,34.465,24.962z"/>
		<path fill="#3D87AD" d="M30.475,24.974c0.091-0.38,0.288-0.938,0.709-1.245c0.196-0.14,0.424-0.212,0.666-0.216
			c-0.709-0.144-1.389-0.453-1.607-0.647c-0.258-0.219-0.849-1.267-1.16-1.874c-0.043-0.086-0.132-0.146-0.228-0.154
			c-0.096-0.004-0.193,0.033-0.251,0.111c-0.004,0.004-0.16,0.206-0.342,0.433C28.318,21.718,28.784,24.044,30.475,24.974z"/>
		<path fill="#3D87AD" d="M39.158,30.635c0.018,0.006,0.037,0.012,0.055,0.014c1.166,0.185,2.592-0.291,2.975-0.755
			c0.123-0.148,0.131-0.283,0.11-0.37c-0.051-0.264-1.122-5.002-1.353-5.931c-0.266-1.063-1.729-1.46-2.588-1.46
			c-0.543,0-1.351-0.096-1.701-0.141c0.01,0.855-0.219,2.734-2.297,3.655c-0.035,0.018-0.076,0.025-0.115,0.025
			c-0.051,0-0.104-0.014-0.148-0.041c-0.08-0.047-0.13-0.131-0.134-0.226c0-0.008-0.051-0.781-0.493-1.142
			c-0.023-0.021-0.054-0.033-0.078-0.049v4.869c0,0.159-0.129,0.282-0.285,0.282h-0.979c-0.156,0-0.282-0.123-0.282-0.282v-5
			c-0.119,0.008-0.23,0.035-0.327,0.104c-0.376,0.274-0.521,0.981-0.542,1.229c-0.008,0.089-0.059,0.171-0.136,0.214
			c-0.043,0.027-0.096,0.041-0.148,0.041c-0.033,0-0.072-0.006-0.105-0.02c-1.85-0.75-2.555-2.78-2.79-3.731
			c-0.004,0.006-0.008,0.01-0.012,0.014c-0.135,0.133-0.356,0.152-0.734,0.174c-0.125,0.004-0.256,0.012-0.396,0.025
			c-0.623,0.065-1.343,0.315-2.028,0.715c-0.756,0.443-1.181,0.891-1.368,1.454c-0.012,0.029-1.056,3.258-1.307,5.011
			c-0.016,0.098,0.022,0.191,0.097,0.257c0.431,0.365,1.255,0.552,2.454,0.552c0.467,0,0.827-0.027,0.897-0.035
			c-0.063,0.62-0.08,1.951,0.74,3.024c0.008,0.014,0.753,1.304,0.331,2.484c-0.079,0.217-0.194,0.478-0.335,0.782
			c-0.691,1.524-1.98,4.371-1.192,8.593c0.016,0.092,0.08,0.174,0.17,0.209c0.109,0.045,2.746,1.12,7.019,1.12
			c2.467,0,4.975-0.36,7.449-1.075c0.109-0.033,0.188-0.125,0.204-0.236c0.731-5.622-1.238-8.752-1.308-8.852
			c-0.267-0.554-0.844-2.136-0.34-2.837c0.939-1.325,0.883-2.681,0.879-2.706c0-0.004,0.002-0.008,0.002-0.014L39.158,30.635z"/>
	</g>
	<g>
		<rect x="32.412" y="21.653" fill="#FFFFFF" width="0.408" height="4.695"/>
		<path fill="#FFFFFF" d="M34.465,22.509c1.943-1.094,1.616-3.224,1.602-3.318c-0.004-0.023,0-0.047,0.002-0.068l-0.463-0.388
			c-0.084-0.068-0.195-0.084-0.293-0.043c-0.1,0.043-0.168,0.138-0.174,0.243c-0.016,0.203-0.086,0.805-0.252,1.131
			c-0.171,0.345-0.849,0.795-1.811,1.013c0.281,0.025,0.537,0.123,0.751,0.297C34.213,21.687,34.385,22.167,34.465,22.509z"/>
		<path fill="#FFFFFF" d="M30.475,22.522c0.091-0.378,0.288-0.938,0.709-1.243c0.196-0.145,0.424-0.213,0.666-0.218
			c-0.709-0.143-1.389-0.454-1.607-0.646c-0.258-0.22-0.849-1.269-1.16-1.875c-0.043-0.089-0.132-0.146-0.228-0.155
			c-0.096-0.004-0.193,0.033-0.251,0.114c-0.004,0.002-0.16,0.203-0.342,0.433C28.318,19.266,28.784,21.593,30.475,22.522z"/>
		<path fill="#FFFFFF" d="M39.158,28.185c0.018,0.006,0.037,0.012,0.055,0.014c1.166,0.186,2.592-0.29,2.975-0.754
			c0.123-0.149,0.131-0.284,0.11-0.37c-0.051-0.265-1.122-5.006-1.353-5.932c-0.266-1.063-1.729-1.458-2.588-1.458
			c-0.543,0-1.351-0.096-1.701-0.146c0.01,0.861-0.219,2.737-2.297,3.659c-0.035,0.016-0.076,0.023-0.115,0.023
			c-0.051,0-0.104-0.016-0.148-0.041c-0.08-0.047-0.13-0.131-0.134-0.227c0-0.006-0.051-0.783-0.493-1.14
			c-0.023-0.022-0.054-0.032-0.078-0.052v4.873c0,0.158-0.129,0.283-0.285,0.283h-0.979c-0.156,0-0.282-0.125-0.282-0.283v-5.002
			c-0.119,0.008-0.23,0.033-0.327,0.104c-0.376,0.276-0.521,0.979-0.542,1.229c-0.008,0.092-0.059,0.17-0.136,0.215
			c-0.043,0.027-0.096,0.041-0.148,0.041c-0.033,0-0.072-0.006-0.105-0.021c-1.85-0.75-2.555-2.776-2.79-3.728
			c-0.004,0.004-0.008,0.008-0.012,0.012c-0.135,0.134-0.356,0.151-0.734,0.173c-0.125,0.006-0.256,0.014-0.396,0.027
			C26.032,19.748,25.312,20,24.627,20.4c-0.756,0.44-1.181,0.889-1.368,1.453c-0.012,0.031-1.056,3.255-1.307,5.013
			c-0.016,0.094,0.022,0.19,0.097,0.253c0.431,0.366,1.255,0.554,2.454,0.554c0.467,0,0.827-0.029,0.897-0.035
			c-0.063,0.619-0.08,1.951,0.74,3.024c0.008,0.013,0.753,1.303,0.331,2.484c-0.079,0.215-0.194,0.476-0.335,0.778
			c-0.691,1.529-1.98,4.376-1.192,8.595c0.016,0.094,0.08,0.174,0.17,0.207c0.109,0.047,2.746,1.125,7.019,1.125
			c2.467,0,4.975-0.362,7.449-1.078c0.109-0.031,0.188-0.123,0.204-0.234c0.731-5.622-1.238-8.752-1.308-8.85
			c-0.267-0.559-0.844-2.136-0.34-2.841c0.939-1.321,0.883-2.678,0.879-2.701c0-0.006,0.002-0.01,0.002-0.014L39.158,28.185z"/>
	</g>
</g>
</svg>
