<?xml version="1.0" encoding="utf-8"?>
<!-- Generator: Adobe Illustrator 16.0.0, SVG Export Plug-In . SVG Version: 6.00 Build 0)  -->
<!DOCTYPE svg PUBLIC "-//W3C//DTD SVG 1.1//EN" "http://www.w3.org/Graphics/SVG/1.1/DTD/svg11.dtd">
<svg version="1.1" id="Layer_1" xmlns="http://www.w3.org/2000/svg" xmlns:xlink="http://www.w3.org/1999/xlink" x="0px" y="0px"
	 width="64px" height="64px" viewBox="0 0 64 64" enable-background="new 0 0 64 64" xml:space="preserve">
<g id="Woman_x2019_s_Coat">
	<path fill="#2B2A2A" d="M61.887,41.059c0,12.473-10.562,22.584-23.591,22.584H26.239c-13.029,0-23.592-10.111-23.592-22.584V26.983
		c0-12.47,10.563-22.579,23.592-22.579h12.058c13.029,0,23.592,10.109,23.592,22.579v14.076H61.887z"/>
	<path fill="#444444" d="M61.887,38.607c0,12.473-10.562,22.584-23.591,22.584H26.239c-13.029,0-23.592-10.111-23.592-22.584V24.533
		c0-12.47,10.563-22.582,23.592-22.582h12.058c13.029,0,23.592,10.112,23.592,22.582v14.074H61.887z"/>
	<g>
		<path fill="#292828" d="M34.078,24.41c0,0-1.757,1.297-3.603,0.043c0,0-0.379,6.572,1.955,8.785
			C32.43,33.238,34.466,28.823,34.078,24.41z"/>
		<path fill="#292828" d="M30.066,23.963l-0.542,0.541l-0.021,0.006c-1.308,2.064-1.06,3.442-1.057,3.458
			c0.028,0.15-0.066,0.297-0.216,0.329l-0.541,0.125c0.375,0.991,1.766,4.246,4.449,6.055c0.052-0.3,0.087-0.472,0.087-0.472
			C29.314,30.47,30.066,23.963,30.066,23.963z"/>
		<path fill="#292828" d="M31.932,35.029c-3.421-2.231-4.829-6.545-4.887-6.728c-0.024-0.077-0.016-0.157,0.022-0.228
			c0.041-0.068,0.108-0.117,0.185-0.137l0.606-0.14c-0.022-0.487,0.044-1.585,0.849-3.056l-4.449,1.294L19.37,37.832
			c0,0,0.852,2.105,3.209,1.725l3.272-8.391c0,0,1.751,3.844-0.712,10.43c0,0,3.756,2.742,6.299,2.379l0.163-0.045
			c0,0,0.479-0.445,0.347-1.449c-0.402-3.058-0.117-5.93,0.098-7.416C32.008,35.061,31.968,35.055,31.932,35.029z"/>
		<path fill="#292828" d="M32.738,34.163c-0.002,0.006-0.004,0.014-0.006,0.021c2.262-1.834,3.695-4.811,4.115-5.766l-0.521-0.121
			c-0.075-0.015-0.141-0.062-0.182-0.13c-0.041-0.066-0.051-0.148-0.029-0.225c0.004-0.01,0.361-1.415-0.998-3.511
			c-0.004-0.006-0.004-0.014-0.008-0.02l-0.448-0.449C35.088,28.578,32.738,34.163,32.738,34.163z"/>
		<path fill="#292828" d="M40.275,26.037l-4.319-1.304c0.793,1.469,0.812,2.568,0.758,3.071l0.591,0.134
			c0.082,0.021,0.15,0.07,0.188,0.145c0.038,0.072,0.042,0.158,0.013,0.237c-0.072,0.184-1.789,4.511-4.943,6.704
			c-0.01,0.008-0.022,0.006-0.033,0.012c-0.385,2.132-0.295,5.333-0.295,5.333c0.003,3.414,1.06,3.678,1.06,3.678
			c2.11,0.368,5.8-2.202,5.8-2.202c-2.009-5.521-0.277-10.251-0.277-10.251l3.332,7.964c2.213,0.032,3.016-1.725,3.016-1.725
			L40.275,26.037z M32.824,39.527c-0.223,0-0.402-0.18-0.402-0.4c0-0.225,0.182-0.4,0.402-0.4c0.224,0,0.404,0.178,0.404,0.4
			C33.229,39.348,33.048,39.527,32.824,39.527z M33.082,35.941c-0.223,0-0.402-0.183-0.402-0.403c0-0.222,0.18-0.401,0.402-0.401
			s0.402,0.182,0.402,0.401C33.484,35.76,33.305,35.941,33.082,35.941z"/>
	</g>
	<g>
		<path fill="#FFFFFF" d="M34.078,21.957c0,0-1.757,1.299-3.603,0.046c0,0-0.379,6.569,1.955,8.785
			C32.43,30.788,34.466,26.372,34.078,21.957z"/>
		<path fill="#FFFFFF" d="M30.066,21.513l-0.542,0.543l-0.021,0.006c-1.308,2.063-1.06,3.439-1.057,3.453
			c0.028,0.15-0.066,0.3-0.216,0.333l-0.541,0.123c0.375,0.989,1.766,4.245,4.449,6.056c0.052-0.3,0.087-0.475,0.087-0.475
			C29.314,28.022,30.066,21.513,30.066,21.513z"/>
		<path fill="#FFFFFF" d="M31.932,32.576c-3.421-2.231-4.829-6.543-4.887-6.725c-0.024-0.076-0.016-0.159,0.022-0.228
			c0.041-0.068,0.108-0.119,0.185-0.137l0.606-0.137c-0.022-0.49,0.044-1.586,0.849-3.059l-4.449,1.293L19.37,35.382
			c0,0,0.852,2.104,3.209,1.724l3.272-8.39c0,0,1.751,3.843-0.712,10.429c0,0,3.756,2.742,6.299,2.381l0.163-0.045
			c0,0,0.479-0.446,0.347-1.451c-0.402-3.057-0.117-5.928,0.098-7.418C32.008,32.607,31.968,32.602,31.932,32.576z"/>
		<path fill="#FFFFFF" d="M32.738,31.713c-0.002,0.008-0.004,0.014-0.006,0.02c2.262-1.832,3.695-4.81,4.115-5.768l-0.521-0.117
			c-0.075-0.016-0.141-0.063-0.182-0.133c-0.041-0.065-0.051-0.147-0.029-0.222c0.004-0.012,0.361-1.418-0.998-3.515
			c-0.004-0.006-0.004-0.014-0.008-0.02l-0.448-0.446C35.088,26.128,32.738,31.713,32.738,31.713z"/>
		<path fill="#FFFFFF" d="M40.275,23.585l-4.319-1.301c0.793,1.467,0.812,2.568,0.758,3.07l0.591,0.133
			c0.082,0.02,0.15,0.07,0.188,0.145c0.038,0.072,0.042,0.161,0.013,0.235c-0.072,0.187-1.789,4.515-4.943,6.705
			c-0.01,0.008-0.022,0.004-0.033,0.012c-0.385,2.132-0.295,5.335-0.295,5.335c0.003,3.414,1.06,3.677,1.06,3.677
			c2.11,0.365,5.8-2.199,5.8-2.199c-2.009-5.523-0.277-10.255-0.277-10.255l3.332,7.964c2.213,0.028,3.016-1.724,3.016-1.724
			L40.275,23.585z M32.824,37.079c-0.223,0-0.402-0.185-0.402-0.403c0-0.221,0.182-0.4,0.402-0.4c0.224,0,0.404,0.181,0.404,0.4
			C33.229,36.896,33.048,37.079,32.824,37.079z M33.082,33.493c-0.223,0-0.402-0.185-0.402-0.404c0-0.225,0.18-0.401,0.402-0.401
			s0.402,0.178,0.402,0.401C33.484,33.309,33.305,33.493,33.082,33.493z"/>
	</g>
</g>
</svg>
