<?xml version="1.0" encoding="utf-8"?>
<!-- Generator: Adobe Illustrator 16.0.0, SVG Export Plug-In . SVG Version: 6.00 Build 0)  -->
<!DOCTYPE svg PUBLIC "-//W3C//DTD SVG 1.1//EN" "http://www.w3.org/Graphics/SVG/1.1/DTD/svg11.dtd">
<svg version="1.1" id="Layer_1" xmlns="http://www.w3.org/2000/svg" xmlns:xlink="http://www.w3.org/1999/xlink" x="0px" y="0px"
	 width="64px" height="64px" viewBox="0 0 64 64" enable-background="new 0 0 64 64" xml:space="preserve">
<g id="Woman_x2019_s_Dress">
	<path fill="#519852" d="M61.751,40.816c0,12.472-10.562,22.582-23.589,22.582H26.104c-13.03,0-23.592-10.11-23.592-22.582V26.743
		c0-12.471,10.562-22.582,23.592-22.582h12.058c13.027,0,23.589,10.111,23.589,22.582V40.816z"/>
	<path fill="#69B76B" d="M61.751,38.366c0,12.471-10.562,22.584-23.589,22.584H26.104c-13.03,0-23.592-10.113-23.592-22.584V24.292
		C2.513,11.82,13.074,1.71,26.104,1.71h12.058c13.027,0,23.589,10.11,23.589,22.582V38.366z"/>
	<g>
		<path fill="#529751" d="M27.737,25.354c-0.01,0.053-0.002,0.109,0.02,0.161c0.002,0.006,0.222,0.521,0.394,1.854l0.313,2.095
			c-0.053,0.169-0.173,0.615-0.208,1.304l-0.748,2.11c0.037,0.026,0.07,0.054,0.091,0.095c0.016,0.023,1.341,2.315,2.484,1.745
			c0.8-0.399,1.278-0.079,1.654,0.179c0.401,0.271,0.723,0.481,1.525-0.028c0.836-0.533,1.456-0.456,1.955-0.396
			c0.625,0.079,1.038,0.129,1.792-1.061c0.033-0.053,0.082-0.084,0.132-0.107l-1.182-2.745c0.016-0.121,0.006-0.298-0.121-0.488
			c-0.055-0.354-0.08-0.725-0.059-0.826l0.439-2.495c0.117-0.418,0.288-0.926,0.317-0.988c0.098-0.066,0.146-0.186,0.114-0.3
			c-0.004-0.021-0.508-2.166,0.177-3.847c0.046-0.107,0.021-0.231-0.065-0.313l-0.281-0.271c-0.043-0.037-0.096-0.063-0.147-0.072
			l-1.438-0.254c-0.09-0.014-0.185,0.012-0.25,0.08c-0.067,0.066-0.094,0.162-0.076,0.256c0.023,0.11,0.078,0.48,0.025,0.713
			c-0.07,0.388-0.193,0.802-0.258,0.882c-0.029,0.033-0.064,0.082-0.104,0.145c-0.178,0.274-0.545,0.841-2.008,0.879h-0.086
			c-1.395,0-1.939-0.865-1.981-0.934c-0.004-0.008-0.55-0.723-0.657-1.772c-0.008-0.084-0.055-0.16-0.126-0.205
			c-0.072-0.049-0.158-0.061-0.238-0.035l-0.948,0.287c-0.047-0.01-0.102-0.014-0.162-0.014c-0.272,0-0.512,0.126-0.674,0.362
			c-0.081,0.116-0.063,0.272,0.041,0.37C27.398,21.726,28.184,22.522,27.737,25.354z"/>
		<path fill="#529751" d="M24.986,41.295c0.014,0.01,0.03,0.025,0.042,0.039c0.002,0.002,0.454,0.479,1.631,0.479
			c0.839,0,1.072,0.084,1.401,0.24c0.174,0.078,0.37,0.172,0.789,0.27c0.721,0.168,1.259,0.111,1.828,0.053
			c0.28-0.029,0.563-0.059,0.867-0.059c0.267,0,0.417,0.016,0.545,0.029c0.26,0.03,0.407,0.051,1.75-0.227
			c0.771-0.16,1.161-0.207,1.442-0.24c0.417-0.045,0.545-0.061,1.381-0.415c0.661-0.282,1.556-0.229,2.343-0.187
			c0.556,0.031,1.229,0.07,1.481-0.072c0.037-0.105,0.058-0.225,0.061-0.354c0.027-1.873-0.982-3.101-1.387-3.516
			c-0.245,0.258-0.648,0.561-0.656,0.563c-0.504,0.36-0.986,0.401-1.455,0.437c-0.378,0.031-0.766,0.063-1.218,0.255
			c-0.666,0.28-0.812,0.309-1.175,0.35c-0.204,0.024-0.482,0.057-1.039,0.172c-1.051,0.22-1.21,0.216-1.48,0.183
			c-0.08-0.012-0.175-0.021-0.349-0.021c-0.206,0-0.399,0.021-0.6,0.041c-0.213,0.021-0.444,0.047-0.698,0.047
			c-0.254,0-0.532-0.023-0.84-0.098c-0.382-0.09-0.528-0.172-0.658-0.256c-0.076-0.047-0.125-0.08-0.626-0.08
			c-0.983,0-1.637-0.404-1.779-0.504l-0.108-0.049c-0.427-0.193-0.932-0.425-1.167-0.766c-0.493,0.5-1.204,1.361-1.374,2.285
			C24.057,40.261,24.597,41.001,24.986,41.295z"/>
		<path fill="#529751" d="M40.842,41.646c-0.396,0.276-1.088,0.242-1.867,0.199c-0.729-0.039-1.551-0.088-2.088,0.141
			c-0.912,0.382-1.082,0.4-1.535,0.457c-0.273,0.031-0.647,0.076-1.396,0.229c-1.377,0.286-1.589,0.28-1.934,0.237
			c-0.111-0.014-0.242-0.029-0.478-0.029c-0.274,0-0.532,0.029-0.805,0.055c-0.301,0.033-0.601,0.066-0.932,0.066
			c-0.326,0-0.683-0.033-1.088-0.127c-0.479-0.113-0.711-0.221-0.899-0.309c-0.251-0.119-0.405-0.188-1.162-0.188
			c-1.313,0-1.911-0.521-2.037-0.646c-0.301-0.233-0.761-0.764-1.04-1.26c-0.465,0.623-1.589,2.291-1.268,3.527
			c0.136,0.512,0.49,0.887,1.056,1.115c0.125,0.095,0.503,0.335,1.223,0.449c0.255,0.039,0.598,0.063,0.962,0.092
			c0.478,0.039,1.34,0.105,1.551,0.189v0.182c0,0.142,0.102,0.262,0.244,0.283c0.037,0.004,0.938,0.133,1.699,0.133
			c0.463,0,0.772-0.049,0.972-0.142c0.076-0.012,0.249-0.032,0.438-0.032c0.197,0,0.359,0.021,0.483,0.061v0.156
			c0,0.145,0.105,0.268,0.248,0.285c0.035,0.002,0.813,0.092,1.525,0.092c0.547,0,1.067-0.039,1.28-0.291
			c0.271-0.063,0.752-0.152,1.003-0.154c0.039,0.014,0.086,0.02,0.131,0.018l2.47-0.236c0.114-0.016,0.207-0.092,0.239-0.193
			l3.511-0.689c0.039-0.008,0.076-0.024,0.107-0.049c0.32-0.229,0.501-0.537,0.54-0.933C42.088,43.436,41.357,42.316,40.842,41.646z
			"/>
		<path fill="#529751" d="M25.749,37.234c0.045,0.207,0.688,0.5,0.963,0.623l0.135,0.061c0.019,0.01,0.038,0.021,0.052,0.031
			c0.004,0.004,0.57,0.408,1.468,0.408c0.606,0,0.744,0.05,0.932,0.172c0.072,0.049,0.165,0.104,0.481,0.178
			c0.531,0.128,0.932,0.084,1.353,0.043c0.216-0.029,0.431-0.049,0.656-0.049c0.203,0,0.319,0.012,0.417,0.025
			c0.184,0.022,0.294,0.035,1.296-0.17c0.581-0.123,0.875-0.156,1.09-0.184c0.305-0.035,0.396-0.045,1.02-0.307
			c0.537-0.229,0.988-0.266,1.393-0.297c0.443-0.037,0.798-0.064,1.176-0.33c0.174-0.129,0.58-0.476,0.646-0.574
			c0.057-0.094,0.159-0.137,0.261-0.137c-0.029-1.104-1.115-2.404-1.63-2.959c-0.931,1.435-1.628,1.352-2.306,1.268
			c-0.475-0.061-0.92-0.113-1.582,0.309c-0.467,0.301-0.838,0.404-1.144,0.404c-0.432,0-0.732-0.203-0.999-0.386
			c-0.353-0.236-0.584-0.394-1.086-0.142c-1.533,0.769-2.957-1.504-3.201-1.916c-0.339,0.494-1.576,2.409-1.438,3.816
			C25.721,37.156,25.738,37.193,25.749,37.234z"/>
	</g>
	<g>
		<path fill="#FFFFFF" d="M27.737,22.903c-0.01,0.053-0.002,0.107,0.02,0.16c0.002,0.008,0.222,0.521,0.394,1.855l0.313,2.093
			c-0.053,0.168-0.173,0.614-0.208,1.302l-0.748,2.112c0.037,0.025,0.07,0.057,0.091,0.094c0.016,0.025,1.341,2.314,2.484,1.747
			c0.8-0.399,1.278-0.078,1.654,0.178c0.401,0.271,0.723,0.484,1.525-0.027c0.836-0.534,1.456-0.458,1.955-0.397
			c0.625,0.08,1.038,0.132,1.792-1.062c0.033-0.051,0.082-0.084,0.132-0.105l-1.182-2.744c0.016-0.122,0.006-0.298-0.121-0.49
			c-0.055-0.356-0.08-0.723-0.059-0.822l0.439-2.502c0.117-0.413,0.288-0.923,0.317-0.983c0.098-0.069,0.146-0.188,0.114-0.302
			c-0.004-0.02-0.508-2.166,0.177-3.844c0.046-0.109,0.021-0.23-0.065-0.313l-0.281-0.271c-0.043-0.039-0.096-0.063-0.147-0.074
			l-1.438-0.255c-0.09-0.014-0.185,0.012-0.25,0.082c-0.067,0.064-0.094,0.163-0.076,0.255c0.023,0.109,0.078,0.481,0.025,0.715
			c-0.07,0.388-0.193,0.8-0.258,0.88c-0.029,0.033-0.064,0.084-0.104,0.144c-0.178,0.271-0.545,0.844-2.008,0.879h-0.086
			c-1.395,0-1.939-0.867-1.981-0.931c-0.004-0.008-0.55-0.729-0.657-1.774c-0.008-0.085-0.055-0.159-0.126-0.206
			c-0.072-0.047-0.158-0.061-0.238-0.035l-0.948,0.288c-0.047-0.01-0.102-0.014-0.162-0.014c-0.272,0-0.512,0.123-0.674,0.36
			c-0.081,0.113-0.063,0.273,0.041,0.368C27.398,19.271,28.184,20.071,27.737,22.903z"/>
		<path fill="#FFFFFF" d="M24.986,38.846c0.014,0.01,0.03,0.022,0.042,0.038c0.002,0.002,0.454,0.478,1.631,0.478
			c0.839,0,1.072,0.087,1.401,0.24c0.174,0.08,0.37,0.172,0.789,0.27c0.721,0.168,1.259,0.113,1.828,0.053
			c0.28-0.029,0.563-0.059,0.867-0.059c0.267,0,0.417,0.016,0.545,0.031c0.26,0.03,0.407,0.051,1.75-0.229
			c0.771-0.159,1.161-0.206,1.442-0.239c0.417-0.047,0.545-0.063,1.381-0.416c0.661-0.283,1.556-0.229,2.343-0.183
			c0.556,0.028,1.229,0.067,1.481-0.075c0.037-0.107,0.058-0.223,0.061-0.354c0.027-1.871-0.982-3.101-1.387-3.516
			c-0.245,0.26-0.648,0.563-0.656,0.563c-0.505,0.358-0.986,0.397-1.456,0.438c-0.378,0.026-0.766,0.061-1.218,0.25
			c-0.666,0.281-0.811,0.309-1.176,0.353c-0.203,0.022-0.481,0.055-1.038,0.169c-1.05,0.222-1.21,0.218-1.48,0.183
			c-0.08-0.012-0.175-0.022-0.349-0.022c-0.206,0-0.399,0.022-0.6,0.043c-0.213,0.022-0.444,0.049-0.698,0.049
			c-0.254,0-0.532-0.023-0.84-0.1c-0.382-0.088-0.528-0.17-0.658-0.256c-0.076-0.048-0.125-0.076-0.626-0.076
			c-0.983,0-1.637-0.41-1.779-0.506l-0.108-0.049c-0.427-0.193-0.932-0.427-1.167-0.766c-0.493,0.499-1.204,1.359-1.374,2.287
			C24.057,37.813,24.597,38.551,24.986,38.846z"/>
		<path fill="#FFFFFF" d="M40.842,39.199c-0.396,0.273-1.088,0.238-1.867,0.195c-0.729-0.039-1.551-0.086-2.088,0.143
			c-0.912,0.382-1.082,0.402-1.535,0.458c-0.273,0.03-0.647,0.075-1.396,0.229c-1.377,0.287-1.589,0.279-1.934,0.236
			c-0.111-0.014-0.242-0.029-0.478-0.029c-0.274,0-0.532,0.029-0.805,0.058c-0.301,0.03-0.601,0.063-0.932,0.063
			c-0.326,0-0.683-0.03-1.088-0.125c-0.479-0.112-0.711-0.222-0.899-0.308c-0.251-0.117-0.405-0.189-1.162-0.189
			c-1.313,0-1.911-0.521-2.037-0.646c-0.301-0.235-0.761-0.767-1.04-1.263c-0.465,0.623-1.589,2.293-1.268,3.526
			c0.136,0.511,0.49,0.89,1.056,1.118c0.125,0.094,0.503,0.333,1.223,0.445c0.255,0.041,0.598,0.068,0.962,0.095
			c0.478,0.037,1.34,0.106,1.551,0.192v0.181c0,0.142,0.102,0.261,0.244,0.282c0.037,0.004,0.938,0.134,1.699,0.134
			c0.463,0,0.772-0.048,0.972-0.142c0.076-0.013,0.249-0.035,0.438-0.035c0.197,0,0.359,0.022,0.483,0.063v0.153
			c0,0.145,0.105,0.266,0.248,0.283c0.035,0.002,0.813,0.095,1.525,0.095c0.547,0,1.067-0.038,1.28-0.29
			c0.271-0.063,0.752-0.155,1.003-0.155c0.039,0.017,0.086,0.021,0.131,0.019l2.47-0.238c0.114-0.014,0.207-0.088,0.239-0.191
			l3.511-0.692c0.039-0.009,0.076-0.021,0.107-0.046c0.32-0.229,0.501-0.543,0.54-0.936C42.088,40.986,41.357,39.868,40.842,39.199z
			"/>
		<path fill="#FFFFFF" d="M25.749,34.786c0.045,0.203,0.688,0.497,0.963,0.62l0.135,0.061c0.019,0.012,0.038,0.02,0.052,0.03
			c0.004,0.004,0.57,0.411,1.468,0.411c0.606,0,0.744,0.049,0.932,0.17c0.072,0.047,0.165,0.105,0.481,0.179
			c0.531,0.127,0.932,0.084,1.353,0.041c0.216-0.024,0.431-0.047,0.656-0.047c0.203,0,0.319,0.015,0.417,0.024
			c0.184,0.021,0.294,0.033,1.296-0.17c0.581-0.121,0.875-0.154,1.09-0.183c0.305-0.034,0.396-0.045,1.02-0.31
			c0.537-0.227,0.988-0.264,1.393-0.295c0.443-0.036,0.798-0.067,1.176-0.332c0.174-0.123,0.58-0.473,0.646-0.571
			c0.057-0.091,0.159-0.138,0.261-0.136c-0.029-1.109-1.115-2.405-1.63-2.96c-0.931,1.434-1.628,1.352-2.306,1.264
			c-0.475-0.056-0.92-0.11-1.582,0.312c-0.467,0.301-0.838,0.406-1.144,0.406c-0.432,0-0.732-0.207-0.999-0.385
			c-0.353-0.239-0.584-0.396-1.086-0.145c-1.533,0.768-2.957-1.505-3.201-1.917c-0.339,0.495-1.576,2.413-1.438,3.817
			C25.721,34.705,25.738,34.745,25.749,34.786z"/>
	</g>
</g>
</svg>
