<?xml version="1.0" encoding="utf-8"?>
<!-- Generator: Adobe Illustrator 16.0.0, SVG Export Plug-In . SVG Version: 6.00 Build 0)  -->
<!DOCTYPE svg PUBLIC "-//W3C//DTD SVG 1.1//EN" "http://www.w3.org/Graphics/SVG/1.1/DTD/svg11.dtd">
<svg version="1.1" id="Layer_1" xmlns="http://www.w3.org/2000/svg" xmlns:xlink="http://www.w3.org/1999/xlink" x="0px" y="0px"
	 width="64px" height="64px" viewBox="0 0 64 64" enable-background="new 0 0 64 64" xml:space="preserve">
<g id="Woman_x2019_s_Pant">
	<path fill="#476572" d="M61.751,41.014c0,12.475-10.562,22.584-23.589,22.584H26.104c-13.03,0-23.592-10.109-23.592-22.584V26.938
		c0-12.469,10.562-22.584,23.592-22.584h12.058c13.027,0,23.589,10.115,23.589,22.584V41.014z"/>
	<path fill="#617F8F" d="M61.751,38.563c0,12.467-10.562,22.582-23.589,22.582H26.104c-13.03,0-23.592-10.115-23.592-22.582V24.488
		c0-12.472,10.562-22.581,23.592-22.581h12.058c13.027,0,23.589,10.109,23.589,22.581V38.563z"/>
	<g>
		<polygon fill="#231F20" points="28.677,22.62 28.679,22.62 28.679,22.62 		"/>
		<path fill="#476572" d="M36.879,34.448c0,0-0.434-1.822-0.236-3.88c0,0,0.752-3.998-0.832-7.048l-0.225-0.9
			c0,0-0.855,0.9-3.555,1.099c-0.269,0-2.328,0-3.353-1.099l-0.223,0.9c-1.587,3.05-0.832,7.048-0.832,7.048
			c0.199,2.058-0.239,3.88-0.239,3.88c-1.343,3.206-1.146,10.333-1.146,10.333l0.014-0.01l3.019,0.563
			c0.399-1.01,0.446-4.592,0.446-4.592c0.078-2.22,0.83-5.026,0.83-5.026c0.399-3.563,1.433-6.339,1.433-6.339l0.101-0.006
			c0,0,1.079,2.781,1.474,6.345c0,0,0.754,2.809,0.83,5.026c0,0,0.098,3.437,0.538,4.592l3.104-0.554
			C38.027,44.781,38.225,37.654,36.879,34.448z"/>
	</g>
	<g>
		<polygon fill="#FFFFFF" points="28.677,20.169 28.679,20.169 28.679,20.169 		"/>
		<path fill="#FFFFFF" d="M36.879,31.997c0,0-0.434-1.822-0.236-3.879c0,0,0.752-4-0.832-7.045l-0.225-0.904
			c0,0-0.855,0.904-3.555,1.102c-0.269,0-2.328-0.002-3.353-1.102l-0.223,0.904c-1.587,3.045-0.832,7.045-0.832,7.045
			c0.199,2.057-0.239,3.879-0.239,3.879c-1.343,3.209-1.146,10.333-1.146,10.333l0.014-0.008l3.019,0.562
			c0.399-1.008,0.446-4.591,0.446-4.591c0.078-2.218,0.83-5.027,0.83-5.027c0.399-3.565,1.433-6.341,1.433-6.341l0.101-0.004
			c0,0,1.079,2.778,1.474,6.345c0,0,0.754,2.811,0.83,5.027c0,0,0.098,3.434,0.538,4.591l3.104-0.554
			C38.027,42.33,38.225,35.206,36.879,31.997z"/>
	</g>
</g>
</svg>
