<?xml version="1.0" encoding="utf-8"?>
<!-- Generator: Adobe Illustrator 16.0.0, SVG Export Plug-In . SVG Version: 6.00 Build 0)  -->
<!DOCTYPE svg PUBLIC "-//W3C//DTD SVG 1.1//EN" "http://www.w3.org/Graphics/SVG/1.1/DTD/svg11.dtd">
<svg version="1.1" id="Layer_1" xmlns="http://www.w3.org/2000/svg" xmlns:xlink="http://www.w3.org/1999/xlink" x="0px" y="0px"
	 width="64px" height="64px" viewBox="0 0 64 64" enable-background="new 0 0 64 64" xml:space="preserve">
<g id="Woman_x2019_s_Shirt">
	<path fill="#CC3D27" d="M61.887,40.764c0,12.471-10.562,22.582-23.591,22.582H26.239c-13.029,0-23.592-10.111-23.592-22.582V26.689
		c0-12.472,10.563-22.583,23.592-22.583h12.058c13.029,0,23.592,10.11,23.592,22.583v14.075H61.887z"/>
	<path fill="#F0592F" d="M61.887,38.313c0,12.473-10.562,22.584-23.591,22.584H26.239c-13.029,0-23.592-10.111-23.592-22.584V24.238
		c0-12.471,10.563-22.582,23.592-22.582h12.058c13.029,0,23.592,10.111,23.592,22.582v14.075H61.887z"/>
	<g>
		<path fill="#CC3D27" d="M19.688,41.186c-0.112,0.332-0.304,0.934-0.46,1.567c-0.018,0.076-0.005,0.156,0.038,0.224
			c0.043,0.065,0.112,0.11,0.19,0.125l2.842,0.48c0.136,0.023,0.272-0.057,0.316-0.188c0,0,0.234-0.693,0.459-1.387l-3.361-0.81
			C19.703,41.193,19.697,41.188,19.688,41.186z"/>
		<path fill="#CC3D27" d="M31.138,26.214c-0.018-0.04-0.027-0.084-0.026-0.127l0.005-0.668l-0.078-0.062l-0.92,2.437
			c-0.042,0.109-0.146,0.183-0.264,0.184c-0.001,0-0.002,0-0.004,0c-0.114,0-0.219-0.072-0.262-0.178l-1.453-3.62l-3.968,1.387
			c-0.089,0.031-0.156,0.102-0.179,0.193l-4.134,14.885l3.375,0.813c0.006,0.001,0.012,0.006,0.019,0.009l2.341-7.264l-0.331,9.087
			c-0.002,0.044,0.006,0.089,0.026,0.129c0.037,0.082,0.979,2.003,6.258,2.003c0.168,0,0.344-0.005,0.52-0.009
			c-0.681-3.61-0.025-15.676,0.058-17.167L31.138,26.214z"/>
		<path fill="#CC3D27" d="M31.578,25.057c0.069,0.056,0.109,0.138,0.109,0.226l-0.007,0.741l0.688,1.424l0.528-1.397l-0.071-0.741
			c-0.009-0.096,0.032-0.192,0.108-0.252l0.469-0.369l1.777-2.137c-1.016-0.34-2.039-0.522-3.048-0.522
			c-1.415,0-2.414,0.339-2.83,0.508l1.807,2.151L31.578,25.057z"/>
		<path fill="#CC3D27" d="M35.012,27.125l1.002-3.435c0.01-0.035,0.025-0.058,0.043-0.083l-0.426-0.711l-1.695,2.039L35.012,27.125z
			"/>
		<polygon fill="#CC3D27" points="30.585,24.949 28.891,22.93 28.565,23.723 29.845,26.91 		"/>
		<path fill="#CC3D27" d="M45.301,42.734l-0.467-1.492l-3.357,0.756c0.24,0.659,0.494,1.396,0.496,1.396
			c0.043,0.133,0.178,0.211,0.316,0.188l2.79-0.48c0.081-0.016,0.151-0.063,0.194-0.131C45.316,42.898,45.326,42.814,45.301,42.734z
			"/>
		<path fill="#CC3D27" d="M40.521,25.761c-0.023-0.088-0.088-0.16-0.174-0.192l-3.871-1.439l-1.125,3.858
			c-0.033,0.111-0.131,0.192-0.25,0.203c-0.006,0-0.016,0-0.023,0c-0.107,0-0.206-0.06-0.255-0.158l-1.322-2.696l-0.094,0.074
			l0.063,0.652c0.004,0.044-0.002,0.087-0.017,0.129l-0.757,1.997c-0.045,0.795-0.768,13.779-0.055,17.211
			c1.273-0.055,5.356-0.344,6.59-1.922c0.041-0.052,0.063-0.119,0.06-0.186L38.93,34.23l2.334,7.238
			c0.008-0.004,0.016-0.01,0.022-0.011l3.385-0.763L40.521,25.761z M33.119,41.23c-0.205,0-0.373-0.166-0.373-0.373
			c0-0.205,0.167-0.373,0.373-0.373s0.372,0.168,0.372,0.373S33.324,41.23,33.119,41.23z M33.154,38.035
			c-0.205,0-0.375-0.168-0.375-0.375c0-0.205,0.169-0.371,0.375-0.371c0.203,0,0.373,0.167,0.373,0.371
			C33.527,37.866,33.357,38.035,33.154,38.035z M33.189,34.708c-0.205,0-0.373-0.167-0.373-0.372c0-0.206,0.168-0.374,0.373-0.374
			s0.373,0.167,0.373,0.374C33.563,34.541,33.395,34.708,33.189,34.708z M33.313,31.51c-0.205,0-0.373-0.167-0.373-0.371
			c0-0.206,0.168-0.375,0.373-0.375s0.371,0.169,0.371,0.375C33.684,31.343,33.52,31.51,33.313,31.51z M33.488,28.525
			c-0.204,0-0.371-0.168-0.371-0.372c0-0.206,0.167-0.373,0.371-0.373c0.205,0,0.373,0.167,0.373,0.373
			C33.861,28.357,33.693,28.525,33.488,28.525z"/>
	</g>
	<g>
		<path fill="#FFFFFF" d="M19.688,38.734c-0.112,0.332-0.304,0.936-0.46,1.565c-0.018,0.077-0.005,0.158,0.038,0.224
			c0.043,0.067,0.112,0.113,0.19,0.125l2.842,0.482c0.136,0.021,0.272-0.057,0.316-0.189c0,0,0.234-0.692,0.459-1.387l-3.361-0.811
			C19.703,38.742,19.697,38.734,19.688,38.734z"/>
		<path fill="#FFFFFF" d="M31.138,23.763c-0.018-0.041-0.027-0.084-0.026-0.127l0.005-0.667l-0.078-0.061l-0.92,2.436
			c-0.042,0.109-0.146,0.181-0.264,0.182c-0.001,0-0.002,0-0.004,0c-0.114,0-0.219-0.07-0.262-0.176l-1.453-3.62l-3.968,1.388
			c-0.089,0.03-0.156,0.101-0.179,0.192l-4.134,14.885l3.375,0.813c0.006,0.001,0.012,0.007,0.019,0.009l2.341-7.264l-0.331,9.087
			c-0.002,0.043,0.006,0.091,0.026,0.13c0.037,0.079,0.979,2.002,6.258,2.002c0.168,0,0.344-0.006,0.52-0.01
			c-0.681-3.609-0.025-15.676,0.058-17.167L31.138,23.763z"/>
		<path fill="#FFFFFF" d="M31.578,22.607c0.069,0.056,0.109,0.138,0.109,0.226l-0.007,0.741l0.688,1.424l0.528-1.398l-0.071-0.741
			c-0.009-0.096,0.032-0.192,0.108-0.251l0.469-0.369l1.777-2.138c-1.016-0.341-2.039-0.521-3.048-0.521
			c-1.415,0-2.414,0.338-2.83,0.508l1.807,2.151L31.578,22.607z"/>
		<path fill="#FFFFFF" d="M35.012,24.673l1.002-3.436c0.01-0.033,0.025-0.057,0.043-0.081l-0.426-0.714l-1.695,2.04L35.012,24.673z"
			/>
		<polygon fill="#FFFFFF" points="30.585,22.499 28.891,20.479 28.565,21.273 29.845,24.46 		"/>
		<path fill="#FFFFFF" d="M45.301,40.285l-0.467-1.495l-3.357,0.758c0.24,0.659,0.494,1.396,0.496,1.396
			c0.043,0.132,0.178,0.211,0.316,0.188l2.79-0.481c0.081-0.016,0.151-0.063,0.194-0.131C45.316,40.448,45.326,40.361,45.301,40.285
			z"/>
		<path fill="#FFFFFF" d="M40.521,23.309c-0.023-0.087-0.088-0.159-0.174-0.191l-3.871-1.44l-1.125,3.856
			c-0.033,0.113-0.131,0.195-0.25,0.205c-0.006,0-0.016,0-0.023,0c-0.107,0-0.206-0.061-0.255-0.16l-1.322-2.694l-0.094,0.073
			l0.063,0.653c0.004,0.042-0.002,0.085-0.017,0.126l-0.757,1.998c-0.045,0.795-0.768,13.779-0.055,17.21
			c1.273-0.055,5.356-0.342,6.59-1.92c0.041-0.053,0.063-0.121,0.06-0.187L38.93,31.78l2.334,7.24
			c0.008-0.004,0.016-0.011,0.022-0.013l3.385-0.761L40.521,23.309z M33.119,38.779c-0.205,0-0.373-0.168-0.373-0.371
			c0-0.206,0.167-0.374,0.373-0.374s0.372,0.168,0.372,0.374C33.491,38.613,33.324,38.779,33.119,38.779z M33.154,35.582
			c-0.205,0-0.375-0.167-0.375-0.372c0-0.204,0.169-0.372,0.375-0.372c0.203,0,0.373,0.168,0.373,0.372
			C33.527,35.415,33.357,35.582,33.154,35.582z M33.189,32.257c-0.205,0-0.373-0.167-0.373-0.373c0-0.205,0.168-0.372,0.373-0.372
			s0.373,0.167,0.373,0.372C33.563,32.09,33.395,32.257,33.189,32.257z M33.313,29.06c-0.205,0-0.373-0.167-0.373-0.372
			s0.168-0.373,0.373-0.373s0.371,0.168,0.371,0.373S33.52,29.06,33.313,29.06z M33.488,26.074c-0.204,0-0.371-0.168-0.371-0.372
			c0-0.207,0.167-0.374,0.371-0.374c0.205,0,0.373,0.167,0.373,0.374C33.861,25.906,33.693,26.074,33.488,26.074z"/>
	</g>
</g>
</svg>
