<?xml version="1.0" encoding="utf-8"?>
<!-- Generator: Adobe Illustrator 16.0.0, SVG Export Plug-In . SVG Version: 6.00 Build 0)  -->
<!DOCTYPE svg PUBLIC "-//W3C//DTD SVG 1.1//EN" "http://www.w3.org/Graphics/SVG/1.1/DTD/svg11.dtd">
<svg version="1.1" id="Layer_1" xmlns="http://www.w3.org/2000/svg" xmlns:xlink="http://www.w3.org/1999/xlink" x="0px" y="0px"
	 width="64px" height="64px" viewBox="0 0 64 64" enable-background="new 0 0 64 64" xml:space="preserve">
<g id="Woman_x2019_s_Formal_Coat_x2F_Blazer">
	<path fill="#604438" d="M61.746,40.307c0,12.473-10.561,22.582-23.589,22.582H26.099c-13.031,0-23.591-10.109-23.591-22.582V26.233
		c0-12.472,10.56-22.583,23.591-22.583h12.059c13.027,0,23.589,10.111,23.589,22.583L61.746,40.307L61.746,40.307z"/>
	<path fill="#77594A" d="M61.746,37.855c0,12.472-10.561,22.584-23.589,22.584H26.099c-13.031,0-23.591-10.112-23.591-22.584V23.782
		C2.508,11.311,13.067,1.2,26.099,1.2h12.059c13.027,0,23.589,10.111,23.589,22.582L61.746,37.855L61.746,37.855z"/>
	<g>
		<path fill="#604438" d="M30.17,23.287l1.915,11.3l2.452-11.245C31.29,22.535,30.17,23.287,30.17,23.287z"/>
		<path fill="#604438" d="M35.773,29.684l-0.465-0.43c-0.066-0.062-0.101-0.15-0.093-0.238c0.007-0.089,0.056-0.171,0.132-0.22
			l1.221-0.775l-1.437-4.185l-0.221-0.219l-1.927,9.09C33.971,31.313,35.234,30.152,35.773,29.684z"/>
		<path fill="#604438" d="M28.989,28.795c0.077,0.049,0.126,0.131,0.134,0.22c0.008,0.09-0.027,0.177-0.092,0.238l-0.482,0.442
			c0.529,0.51,1.836,1.841,2.808,3.368l-1.608-9.441L29.49,23.88c-0.002,0.008,0,0.018-0.006,0.028l-1.702,4.119L28.989,28.795z"/>
		<path fill="#604438" d="M42.018,42.27l3.522-1.498l-6.063-15.418l-3.623-1.209l1.34,3.905c0.045,0.125-0.004,0.266-0.117,0.34
			l-1.098,0.696l0.43,0.396c0.061,0.058,0.098,0.139,0.094,0.223c-0.002,0.084-0.041,0.165-0.107,0.216
			c-0.031,0.026-2.84,2.332-3.807,4.663l-0.227,1.067l-0.085,7.029l0.008,0.053c0,0-0.107,0.847,0.563,0.84l0.952-0.073l4.541-0.36
			c-0.22-6.371-0.206-10.433-0.206-10.433L42.018,42.27z M42.29,40.863c0.169,0,0.304,0.135,0.304,0.301
			c0,0.169-0.135,0.304-0.304,0.304c-0.166,0-0.302-0.135-0.302-0.304C41.988,40.999,42.124,40.863,42.29,40.863z M32.984,39.504
			c-0.166,0-0.299-0.137-0.299-0.304c0-0.165,0.133-0.302,0.299-0.302c0.168,0,0.303,0.137,0.303,0.302
			C33.287,39.367,33.152,39.504,32.984,39.504z M32.984,36.018c-0.166,0-0.299-0.136-0.299-0.304c0-0.167,0.133-0.302,0.299-0.302
			c0.168,0,0.303,0.135,0.303,0.302S33.152,36.018,32.984,36.018z"/>
		<path fill="#604438" d="M27.929,29.909c-0.06-0.056-0.095-0.134-0.095-0.214c0-0.082,0.035-0.16,0.095-0.215l0.429-0.396
			l-1.095-0.696c-0.118-0.077-0.167-0.225-0.112-0.356l1.599-3.867l-3.558,1.188l-6.476,15.415l3.453,1.479l4.023-9.496
			c0,0-0.096,4.289,0.092,10.646l4.575,0.176c0,0,0.606,0.008,0.826-0.477l0.006-0.104l0.096-7.4l-0.102-0.604
			C30.804,32.561,27.958,29.937,27.929,29.909z M21.906,41.354c-0.168,0-0.303-0.138-0.303-0.306c0-0.165,0.135-0.301,0.303-0.301
			c0.167,0,0.302,0.136,0.302,0.301C22.208,41.215,22.073,41.354,21.906,41.354z"/>
	</g>
	<g>
		<path fill="#FFFFFF" d="M30.17,20.836l1.915,11.298l2.452-11.245C31.29,20.085,30.17,20.836,30.17,20.836z"/>
		<path fill="#FFFFFF" d="M35.773,27.233l-0.465-0.431c-0.066-0.06-0.101-0.149-0.093-0.238c0.007-0.089,0.056-0.169,0.132-0.219
			l1.221-0.776l-1.437-4.184l-0.221-0.22l-1.927,9.09C33.971,28.861,35.234,27.7,35.773,27.233z"/>
		<path fill="#FFFFFF" d="M28.989,26.345c0.077,0.05,0.126,0.13,0.134,0.219c0.008,0.09-0.027,0.178-0.092,0.238l-0.482,0.443
			c0.529,0.51,1.836,1.84,2.808,3.366l-1.608-9.439l-0.259,0.259c-0.002,0.007,0,0.017-0.006,0.027l-1.702,4.118L28.989,26.345z"/>
		<path fill="#FFFFFF" d="M42.018,39.818l3.522-1.496l-6.063-15.419l-3.623-1.21l1.34,3.905c0.045,0.125-0.004,0.266-0.117,0.339
			l-1.098,0.695l0.43,0.397c0.061,0.058,0.098,0.137,0.094,0.222c-0.002,0.085-0.041,0.165-0.107,0.217
			c-0.031,0.026-2.84,2.332-3.807,4.661l-0.227,1.07l-0.085,7.027l0.008,0.053c0,0-0.107,0.849,0.563,0.841l0.952-0.072l4.541-0.36
			c-0.22-6.371-0.206-10.432-0.206-10.432L42.018,39.818z M42.29,38.413c0.169,0,0.304,0.135,0.304,0.301
			c0,0.169-0.135,0.304-0.304,0.304c-0.166,0-0.302-0.135-0.302-0.304C41.988,38.547,42.124,38.413,42.29,38.413z M32.984,37.055
			c-0.166,0-0.299-0.138-0.299-0.304s0.133-0.302,0.299-0.302c0.168,0,0.303,0.136,0.303,0.302S33.152,37.055,32.984,37.055z
			 M32.984,33.566c-0.166,0-0.299-0.135-0.299-0.303c0-0.166,0.133-0.302,0.299-0.302c0.168,0,0.303,0.134,0.303,0.302
			S33.152,33.566,32.984,33.566z"/>
		<path fill="#FFFFFF" d="M27.929,27.457c-0.06-0.056-0.095-0.133-0.095-0.213c0-0.083,0.035-0.159,0.095-0.214l0.429-0.397
			l-1.095-0.695c-0.118-0.076-0.167-0.225-0.112-0.357l1.599-3.865l-3.558,1.188l-6.476,15.415l3.453,1.479l4.023-9.495
			c0,0-0.096,4.289,0.092,10.646l4.575,0.175c0,0,0.606,0.009,0.826-0.476l0.006-0.107l0.096-7.398l-0.102-0.606
			C30.804,30.11,27.958,27.486,27.929,27.457z M21.906,38.9c-0.168,0-0.303-0.135-0.303-0.303c0-0.166,0.135-0.303,0.303-0.303
			c0.167,0,0.302,0.137,0.302,0.303C22.208,38.766,22.073,38.9,21.906,38.9z"/>
	</g>
</g>
</svg>
