<?xml version="1.0" encoding="utf-8"?>
<!-- Generator: Adobe Illustrator 16.0.0, SVG Export Plug-In . SVG Version: 6.00 Build 0)  -->
<!DOCTYPE svg PUBLIC "-//W3C//DTD SVG 1.1//EN" "http://www.w3.org/Graphics/SVG/1.1/DTD/svg11.dtd">
<svg version="1.1" id="Layer_1" xmlns="http://www.w3.org/2000/svg" xmlns:xlink="http://www.w3.org/1999/xlink" x="0px" y="0px"
	 width="64px" height="64px" viewBox="0 0 64 64" enable-background="new 0 0 64 64" xml:space="preserve">
<g>
	<path fill="#CE2E6B" d="M61.746,40.408c0,12.471-10.561,22.583-23.589,22.583H26.099c-13.031,0-23.591-10.111-23.591-22.583V26.334
		c0-12.472,10.56-22.583,23.591-22.583h12.059c13.027,0,23.589,10.111,23.589,22.583L61.746,40.408L61.746,40.408z"/>
	<path fill="#EC3F7A" d="M61.746,37.957c0,12.471-10.561,22.582-23.589,22.582H26.099c-13.031,0-23.591-10.111-23.591-22.582V23.883
		C2.508,11.412,13.067,1.3,26.099,1.3h12.059c13.027,0,23.589,10.112,23.589,22.583L61.746,37.957L61.746,37.957z"/>
	<g>
		<path fill="#CE2E6B" d="M44.693,40.907l-1.457-6.871l-2.428-7.271c-2.11,1.154-6.162,1.457-8.033,1.538
			c-0.047,0.021-0.09,0.046-0.142,0.066c0.22,0.478,0.304,1.205,0.39,1.968c0.053,0.41,0.147,1.255,0.248,1.367
			c0.138,0.151,0.129,0.389-0.019,0.526c-0.142,0.134-0.388,0.13-0.522-0.013c-0.26-0.27-0.334-0.829-0.444-1.79
			c-0.18-1.528-0.322-1.836-0.394-1.881c-0.004,0.001-0.006,0.002-0.012,0.002c-0.014,0.002-0.029,0.005-0.045,0.006
			c-0.1,0.007-0.23,0.047-0.358,0.289c-0.446,0.842-0.162,2.94-0.006,3.245c0.063,0.064,0.096,0.15,0.098,0.237
			c0,0.098-0.045,0.192-0.117,0.267c-0.068,0.069-0.158,0.104-0.257,0.104h-0.002c-0.104,0-0.207-0.041-0.281-0.115
			c-0.372-0.374-0.627-2.699-0.206-3.837c0.059-0.16,0.133-0.298,0.224-0.424c-4.447-0.107-6.66-1.036-7.504-1.503l-2.414,7.252
			l-1.452,6.84c-0.031,0.148,0.059,0.294,0.206,0.333l4.787,1.288c0.022,0.007,0.048,0.011,0.071,0.011l6.174,0.069
			c0.002,0,0.002,0,0.002,0c0.138,0,0.253-0.094,0.278-0.229l1.048-5.2l1.05,5.2c0.027,0.136,0.145,0.229,0.279,0.229
			c0.002,0,0.002,0,0.006,0l6.137-0.105c0.021-0.001,0.047-0.002,0.065-0.009l4.827-1.252
			C44.634,41.203,44.727,41.057,44.693,40.907z"/>
		<g>
			<path fill="#CE2E6B" d="M30.867,26.654c-0.042-0.014-0.142-0.015-0.255,0.049c0.039,0.269,0.172,0.659,0.587,0.896
				c0.073,0.001,0.153,0.001,0.229,0.002C31.294,27.166,31.086,26.738,30.867,26.654z"/>
			<path fill="#CE2E6B" d="M40.622,24.203c-0.062-0.054-0.144-0.077-0.228-0.067c-3.531,0.56-6.767,0.846-9.608,0.846h-0.002
				c-4.792,0-6.842-0.819-6.859-0.826c-0.088-0.036-0.19-0.027-0.267,0.025c-0.078,0.052-0.127,0.143-0.127,0.236v1.604
				c0.279,0.19,2.101,1.315,6.616,1.542c-0.226-0.379-0.302-0.783-0.294-1.053c0.002-0.107,0.053-0.21,0.137-0.279
				c0.381-0.313,0.78-0.408,1.137-0.276c0.194,0.073,0.37,0.213,0.535,0.428c0.191-0.295,0.421-0.497,0.686-0.604
				c0.388-0.156,0.818-0.098,1.261,0.172c0.091,0.056,0.156,0.147,0.173,0.253c0.006,0.031,0.126,0.698-0.195,1.325
				c2.123-0.136,5.56-0.512,7.136-1.563v-1.548C40.723,24.334,40.688,24.256,40.622,24.203z"/>
			<path fill="#CE2E6B" d="M32.814,27.352c0.215-0.278,0.252-0.63,0.248-0.848c-0.17-0.07-0.311-0.082-0.437-0.032
				c-0.246,0.1-0.446,0.448-0.546,0.727c0.055,0.155,0.092,0.289,0.121,0.397c0.1-0.003,0.22-0.008,0.354-0.014
				C32.658,27.517,32.745,27.443,32.814,27.352z"/>
		</g>
	</g>
	<g>
		<path fill="#FFFFFF" d="M44.693,38.456l-1.457-6.87l-2.428-7.272c-2.11,1.154-6.162,1.458-8.033,1.537
			c-0.047,0.022-0.09,0.047-0.142,0.067c0.22,0.478,0.304,1.205,0.39,1.968c0.053,0.41,0.147,1.255,0.248,1.367
			c0.138,0.151,0.129,0.388-0.019,0.525c-0.142,0.136-0.388,0.131-0.522-0.012c-0.26-0.27-0.334-0.828-0.444-1.789
			c-0.18-1.529-0.322-1.838-0.394-1.884c-0.004,0.002-0.006,0.002-0.012,0.002c-0.014,0.002-0.029,0.006-0.045,0.007
			c-0.1,0.008-0.23,0.048-0.358,0.29c-0.446,0.843-0.162,2.941-0.006,3.244c0.063,0.065,0.096,0.149,0.098,0.238
			c0,0.098-0.045,0.193-0.117,0.267c-0.068,0.069-0.158,0.106-0.257,0.106h-0.002c-0.104,0-0.207-0.043-0.281-0.118
			c-0.372-0.373-0.627-2.7-0.206-3.838c0.059-0.158,0.133-0.298,0.224-0.424c-4.447-0.106-6.66-1.037-7.504-1.503l-2.414,7.252
			l-1.452,6.84c-0.031,0.149,0.059,0.294,0.206,0.334l4.787,1.288c0.022,0.007,0.048,0.01,0.071,0.01l6.174,0.069
			c0.002,0,0.002,0,0.002,0c0.138,0,0.253-0.095,0.278-0.228l1.048-5.199l1.05,5.199c0.027,0.133,0.145,0.228,0.279,0.228
			c0.002,0,0.002,0,0.006,0l6.137-0.104c0.021-0.002,0.047-0.003,0.065-0.009l4.827-1.252
			C44.634,38.751,44.727,38.605,44.693,38.456z"/>
		<g>
			<path fill="#FFFFFF" d="M30.867,24.204c-0.042-0.014-0.142-0.015-0.255,0.048c0.039,0.271,0.172,0.66,0.587,0.896
				c0.073,0.001,0.153,0.001,0.229,0.002C31.294,24.714,31.086,24.287,30.867,24.204z"/>
			<path fill="#FFFFFF" d="M40.622,21.751c-0.062-0.054-0.144-0.076-0.228-0.066c-3.531,0.561-6.767,0.844-9.608,0.844h-0.002
				c-4.792,0-6.842-0.817-6.859-0.825c-0.088-0.035-0.19-0.026-0.267,0.026c-0.078,0.053-0.127,0.141-0.127,0.235v1.604
				c0.279,0.191,2.101,1.315,6.616,1.542c-0.226-0.379-0.302-0.784-0.294-1.054c0.002-0.107,0.053-0.21,0.137-0.279
				c0.381-0.313,0.78-0.408,1.137-0.276c0.194,0.074,0.37,0.214,0.535,0.429c0.191-0.294,0.421-0.498,0.686-0.604
				c0.388-0.155,0.818-0.098,1.261,0.172c0.091,0.057,0.156,0.149,0.173,0.255c0.006,0.031,0.126,0.697-0.195,1.324
				c2.123-0.137,5.56-0.514,7.136-1.563v-1.549C40.723,21.884,40.688,21.806,40.622,21.751z"/>
			<path fill="#FFFFFF" d="M32.814,24.9c0.215-0.277,0.252-0.63,0.248-0.846c-0.17-0.071-0.311-0.083-0.437-0.034
				c-0.246,0.1-0.446,0.447-0.546,0.727c0.055,0.155,0.092,0.29,0.121,0.396c0.1-0.003,0.22-0.008,0.354-0.013
				C32.658,25.067,32.745,24.992,32.814,24.9z"/>
		</g>
	</g>
</g>
</svg>
