<?xml version="1.0" encoding="iso-8859-1"?>
<!-- Generator: Adobe Illustrator 19.0.0, SVG Export Plug-In . SVG Version: 6.00 Build 0)  -->
<svg version="1.1" id="Layer_1" xmlns="http://www.w3.org/2000/svg" xmlns:xlink="http://www.w3.org/1999/xlink" x="0px" y="0px"
	 viewBox="0 0 512 512" style="enable-background:new 0 0 512 512;" xml:space="preserve">
<g>
	<g>
		<path d="M372.365,227.085c0-2.06-0.431-4.589-1.254-6.735L312.616,68.126V18.842C312.616,8.436,304.18,0,293.774,0h-75.55
			c-10.406,0-18.842,8.436-18.842,18.842v49.284L140.887,220.35c-0.725,1.889-1.252,4.425-1.252,6.735
			c0,0.008-0.001,0.015-0.001,0.024v266.049c0,10.406,8.436,18.842,18.842,18.842h195.049c10.406,0,18.842-8.436,18.842-18.842
			V227.109C372.366,227.102,372.365,227.094,372.365,227.085z M303.072,378.975h-28.232v28.232c0,10.406-8.436,18.842-18.842,18.842
			s-18.842-8.436-18.842-18.842v-28.232h-28.231c-10.406,0-18.842-8.436-18.842-18.842s8.436-18.842,18.842-18.842h28.231V313.06
			c0-10.406,8.436-18.842,18.842-18.842s18.842,8.436,18.842,18.842v28.231h28.232c10.406,0,18.842,8.436,18.842,18.842
			S313.479,378.975,303.072,378.975z M185.901,208.267l45.27-117.803h49.658l45.27,117.803H185.901z"/>
	</g>
</g>
<g>
</g>
<g>
</g>
<g>
</g>
<g>
</g>
<g>
</g>
<g>
</g>
<g>
</g>
<g>
</g>
<g>
</g>
<g>
</g>
<g>
</g>
<g>
</g>
<g>
</g>
<g>
</g>
<g>
</g>
</svg>
