<?xml version="1.0" encoding="iso-8859-1"?>
<!-- Generator: Adobe Illustrator 19.0.0, SVG Export Plug-In . SVG Version: 6.00 Build 0)  -->
<svg version="1.1" id="Layer_1" xmlns="http://www.w3.org/2000/svg" xmlns:xlink="http://www.w3.org/1999/xlink" x="0px" y="0px"
	 viewBox="0 0 512.001 512.001" style="enable-background:new 0 0 512.001 512.001;" xml:space="preserve">
<g>
	<g>
		<path d="M446.704,19.386C446.704,8.68,438.024,0,427.318,0H84.673C73.966,0,65.287,8.68,65.287,19.386
			c0,19.634-0.004,395.963-0.004,415.779c0,10.706,8.68,19.386,19.386,19.386h56.06v38.045c0,17.225,20.902,25.896,33.091,13.71
			l33.746-33.736l33.735,33.733c12.127,12.131,33.094,3.592,33.094-13.707v-38.045h152.938c10.706,0,19.386-8.68,19.386-19.386
			C446.718,423.129,446.704,234.426,446.704,19.386z M207.562,147.398h29.047v-29.046c0-10.706,8.68-19.386,19.386-19.386
			s19.386,8.68,19.386,19.386V147.4h29.047c10.706,0,19.386,8.68,19.386,19.386c0,10.706-8.68,19.386-19.386,19.386h-29.047v29.046
			c0,10.706-8.68,19.386-19.386,19.386s-19.386-8.68-19.386-19.386v-29.046h-29.047c-10.706,0-19.386-8.68-19.386-19.386
			C188.176,156.078,196.854,147.398,207.562,147.398z M407.947,415.779h-0.001H274.394v-21.714h94.992
			c10.706,0,19.386-8.68,19.386-19.386c0-10.706-8.68-19.386-19.386-19.386H142.614c-10.706,0-19.386,8.68-19.386,19.386
			c0,10.07,7.679,18.342,17.501,19.291v21.81h-36.674v-82.207h303.892V415.779z"/>
	</g>
</g>
<g>
</g>
<g>
</g>
<g>
</g>
<g>
</g>
<g>
</g>
<g>
</g>
<g>
</g>
<g>
</g>
<g>
</g>
<g>
</g>
<g>
</g>
<g>
</g>
<g>
</g>
<g>
</g>
<g>
</g>
</svg>
