<?xml version="1.0" encoding="iso-8859-1"?>
<!-- Generator: Adobe Illustrator 19.0.0, SVG Export Plug-In . SVG Version: 6.00 Build 0)  -->
<svg version="1.1" id="Layer_1" xmlns="http://www.w3.org/2000/svg" xmlns:xlink="http://www.w3.org/1999/xlink" x="0px" y="0px"
	 viewBox="0 0 512 512" style="enable-background:new 0 0 512 512;" xml:space="preserve">
<g>
	<g>
		<g>
			<path d="M373.656,198.636c-10.621,0-19.26,8.641-19.26,19.261s8.64,19.26,19.26,19.26s19.261-8.64,19.261-19.26
				S384.277,198.636,373.656,198.636z"/>
			<path d="M181.758,278.325c-11.428,0-20.726,9.298-20.726,20.726c0,11.428,9.298,20.726,20.726,20.726
				c11.428,0,20.726-9.298,20.726-20.726C202.484,287.624,193.186,278.325,181.758,278.325z"/>
			<path d="M256,0C114.841,0,0,114.841,0,256s114.841,256,256,256s256-114.841,256-256S397.159,0,256,0z M255.995,317.893h-18.964
				c-0.813,2.378-1.769,4.689-2.868,6.919l13.412,13.412c7.358,7.357,7.358,19.288,0,26.646s-19.288,7.358-26.646,0l-13.412-13.412
				c-2.23,1.1-4.54,2.055-6.918,2.868v18.964c0,10.406-8.436,18.842-18.842,18.842c-10.406,0-18.842-8.436-18.842-18.842v-18.964
				c-2.378-0.813-4.688-1.767-6.918-2.868l-13.412,13.412c-7.36,7.358-19.288,7.358-26.646,0c-7.358-7.357-7.358-19.288,0-26.646
				l13.412-13.412c-1.1-2.23-2.055-4.541-2.868-6.919h-18.965c-10.406,0-18.842-8.436-18.842-18.842s8.436-18.842,18.842-18.842
				h18.964c0.813-2.378,1.767-4.688,2.868-6.917l-13.41-13.41c-7.358-7.357-7.358-19.288,0-26.646
				c7.357-7.357,19.288-7.357,26.646,0l13.41,13.41c2.23-1.1,4.541-2.055,6.919-2.868v-18.964c0-10.406,8.436-18.842,18.842-18.842
				s18.842,8.436,18.842,18.842v18.964c2.378,0.813,4.689,1.769,6.919,2.868l13.41-13.41c7.357-7.357,19.288-7.357,26.646,0
				s7.358,19.288,0,26.646l-13.412,13.412c1.1,2.23,2.055,4.54,2.868,6.917h18.964c10.406,0,18.842,8.436,18.842,18.842
				C274.837,309.457,266.402,317.893,255.995,317.893z M279.855,142.542c-1.539,10.322-11.162,17.392-21.414,15.857l-75.827-11.305
				c-10.293-1.535-17.392-11.122-15.857-21.414c1.535-10.291,11.126-17.4,21.414-15.857l75.827,11.305
				C274.289,122.661,281.389,132.249,279.855,142.542z M352.722,397.767H310.85c-24.898,0-24.924-37.684,0-37.684h20.206
				l-2.019-14.418c-3.452-24.654,33.861-29.918,37.32-5.228l5.024,35.874C372.968,387.648,364.153,397.767,352.722,397.767z
				 M373.656,274.842c-31.399,0-56.944-25.545-56.944-56.944s25.545-56.945,56.944-56.945s56.945,25.546,56.945,56.945
				S405.056,274.842,373.656,274.842z"/>
		</g>
	</g>
</g>
<g>
</g>
<g>
</g>
<g>
</g>
<g>
</g>
<g>
</g>
<g>
</g>
<g>
</g>
<g>
</g>
<g>
</g>
<g>
</g>
<g>
</g>
<g>
</g>
<g>
</g>
<g>
</g>
<g>
</g>
</svg>
