<?xml version="1.0" encoding="iso-8859-1"?>
<!-- Generator: Adobe Illustrator 19.0.0, SVG Export Plug-In . SVG Version: 6.00 Build 0)  -->
<svg version="1.1" id="Layer_1" xmlns="http://www.w3.org/2000/svg" xmlns:xlink="http://www.w3.org/1999/xlink" x="0px" y="0px"
	 viewBox="0 0 512 512" style="enable-background:new 0 0 512 512;" xml:space="preserve">
<g>
	<g>
		<path d="M410.647,314.942l-58.942-58.944l58.942-58.942c34.53,19.461,72.71,1.401,81.113-11.203
			c40.463-30.348,18.478-117.754-50.097-115.636c1.983-60.852-72.069-93.752-115.66-50.131
			c-22.453,22.437-25.419,55.91-11.208,81.118l-58.944,58.944l-58.944-58.946c14.382-25.514,11-58.925-11.199-81.11
			C142.718-22.926,68.03,8.51,70.04,70.215c-61.208-1.9-93.484,72.278-50.102,115.632c22.442,22.456,55.913,25.413,81.118,11.207
			l58.942,58.944l-58.942,58.945c-25.563-14.407-58.96-10.965-81.11,11.2C-23.509,369.57,8.952,443.709,70.04,441.783
			c-1.982,60.852,72.069,93.752,115.66,50.131c22.452-22.437,25.419-55.91,11.208-81.118l58.944-58.944l58.944,58.944
			c-14.382,25.514-11,58.925,11.199,81.11c43.574,43.601,117.653,10.746,115.67-50.123c61.149,1.905,93.512-72.251,50.102-115.633
			C469.323,303.694,435.852,300.737,410.647,314.942z M159.774,396.067c-7.157,7.157-7.16,18.776,0.004,25.936
			c12.13,12.121,12.192,31.784-0.009,43.979c-29.082,29.103-72.906-15.063-43.985-43.982c17.131-17.131-8.775-43.086-25.931-25.932
			c-29.067,29.069-73.074-14.917-43.975-43.995c12.148-12.157,31.819-12.158,43.971,0.001c7.158,7.163,18.775,7.166,25.935,0.004
			L351.93,115.931c7.157-7.157,7.16-18.776-0.004-25.936c-12.13-12.122-12.192-31.784,0.008-43.979
			c29.042-29.063,73.088,14.879,43.985,43.983c-17.108,17.108,8.814,43.047,25.931,25.932
			c29.079-29.076,73.061,14.928,43.982,43.986c-0.002,0.002-0.005,0.005-0.009,0.009c-12.148,12.157-31.819,12.158-43.971,0
			c-7.158-7.163-18.775-7.166-25.935-0.004L159.774,396.067z"/>
	</g>
</g>
<g>
</g>
<g>
</g>
<g>
</g>
<g>
</g>
<g>
</g>
<g>
</g>
<g>
</g>
<g>
</g>
<g>
</g>
<g>
</g>
<g>
</g>
<g>
</g>
<g>
</g>
<g>
</g>
<g>
</g>
</svg>
