<?xml version="1.0" encoding="iso-8859-1"?>
<!-- Generator: Adobe Illustrator 19.0.0, SVG Export Plug-In . SVG Version: 6.00 Build 0)  -->
<svg version="1.1" id="Layer_1" xmlns="http://www.w3.org/2000/svg" xmlns:xlink="http://www.w3.org/1999/xlink" x="0px" y="0px"
	 viewBox="0 0 512 512" style="enable-background:new 0 0 512 512;" xml:space="preserve">
<g>
	<g>
		<g>
			<path d="M150.477,270.599l-6.059,9.574c-12.663,20.002-42.948,0.861-30.276-19.163c14.475-22.87,11.421-18.045,25.677-40.57
				c12.435-19.644,42.204-1.56,30.646,18.506c39.68,9.418,57.025-4.699,61.776-6.683v-29.243
				c-31.509,8.943-69.896-1.633-94.748-17.61c-19.9-12.8-0.575-42.897,19.345-30.159c20.941,13.159,48.447,20.665,75.403,9.405
				V78.556c0.001-36.594-29.77-66.364-66.363-66.364c-39.725,0-70.79,34.887-65.858,74.597
				c-35.94,16.934-56.91,54.905-52.313,94.422c-63.623,29.578-63.596,120.015,0,149.577c-4.591,39.473,16.336,77.472,52.313,94.422
				c-4.926,39.684,26.107,74.597,65.858,74.597c36.593,0,66.364-29.77,66.364-66.364v-86.101c-0.415-0.173-0.83-0.346-1.238-0.553
				c-31.89-16.209-73.712,9.665-74.126,9.932c-19.905,12.806-39.32-17.311-19.384-30.133c2.16-1.389,48.592-30.703,94.748-17.604
				v-37.114C206.245,281.309,176.552,278.754,150.477,270.599z"/>
			<path d="M464.294,181.21c4.597-39.517-16.372-77.488-52.313-94.422c4.931-39.71-26.134-74.597-65.858-74.597
				c-36.593,0-66.364,29.77-66.364,66.364v86.101c0.415,0.174,0.832,0.346,1.239,0.554c31.965,16.247,73.423-9.492,74.165-9.958
				c8.318-5.318,19.375-2.907,24.719,5.401c19.547,30.39-60.697,53.56-100.123,42.368v29.244c4.75,1.983,22.095,16.101,61.776,6.683
				c-11.556-20.061,18.209-38.152,30.646-18.506c3.089,4.88,21.571,34.081,25.677,40.57c12.659,20.003-17.599,39.185-30.276,19.163
				l-6.059-9.574c-26.075,8.154-55.768,10.711-81.765,1.27v37.114c46.156-13.099,92.588,16.215,94.748,17.604
				c19.905,12.804,0.552,42.958-19.384,30.133c-0.414-0.267-42.237-26.142-74.126-9.932c-0.408,0.207-0.823,0.379-1.238,0.553
				v86.101c0,36.594,29.772,66.364,66.364,66.364c39.751,0,70.784-34.913,65.858-74.597c35.977-16.949,56.904-54.948,52.313-94.422
				C527.889,301.225,527.916,210.788,464.294,181.21z"/>
		</g>
	</g>
</g>
<g>
</g>
<g>
</g>
<g>
</g>
<g>
</g>
<g>
</g>
<g>
</g>
<g>
</g>
<g>
</g>
<g>
</g>
<g>
</g>
<g>
</g>
<g>
</g>
<g>
</g>
<g>
</g>
<g>
</g>
</svg>
