<?xml version="1.0" encoding="iso-8859-1"?>
<!-- Generator: Adobe Illustrator 19.0.0, SVG Export Plug-In . SVG Version: 6.00 Build 0)  -->
<svg version="1.1" id="Layer_1" xmlns="http://www.w3.org/2000/svg" xmlns:xlink="http://www.w3.org/1999/xlink" x="0px" y="0px"
	 viewBox="0 0 512 512" style="enable-background:new 0 0 512 512;" xml:space="preserve">
<g>
	<g>
		<g>
			<path d="M494.099,49.235H17.901C8.015,49.235,0,57.25,0,67.136c0,6.954,0,373.861,0,377.728c0,9.886,8.015,17.901,17.901,17.901
				h476.198c9.886,0,17.901-8.015,17.901-17.901c0-3.787,0-370.422,0-377.728C512,57.25,503.985,49.235,494.099,49.235z
				 M331.239,321.472l-57.213,57.213c-9.936,9.936-26.107,9.941-36.049,0.001l-57.214-57.214
				c-52.838-52.836,14.076-134.336,75.239-98.483C317.103,187.167,384.148,268.564,331.239,321.472z M476.198,137.886H35.802V85.037
				h440.396V137.886z"/>
			<circle cx="81.76" cy="111.464" r="13.058"/>
			<circle cx="128.697" cy="111.464" r="13.058"/>
			<circle cx="175.646" cy="111.464" r="13.058"/>
		</g>
	</g>
</g>
<g>
</g>
<g>
</g>
<g>
</g>
<g>
</g>
<g>
</g>
<g>
</g>
<g>
</g>
<g>
</g>
<g>
</g>
<g>
</g>
<g>
</g>
<g>
</g>
<g>
</g>
<g>
</g>
<g>
</g>
</svg>
