<?xml version="1.0" encoding="iso-8859-1"?>
<!-- Generator: Adobe Illustrator 19.0.0, SVG Export Plug-In . SVG Version: 6.00 Build 0)  -->
<svg version="1.1" id="Layer_1" xmlns="http://www.w3.org/2000/svg" xmlns:xlink="http://www.w3.org/1999/xlink" x="0px" y="0px"
	 viewBox="0 0 512 512" style="enable-background:new 0 0 512 512;" xml:space="preserve">
<g>
	<g>
		<g>
			<path d="M506.256,112.148c-60.303-60.303-76.42-76.421-78.548-78.549c1.13,1.13,5.651,5.651,6.282,6.282
				c-0.774-0.774-8.274-8.274-34.021-34.021c-17.865-17.865-44.924,9.157-27.04,27.04l5.099,5.099l-34.77,34.768l-26.454-26.454
				c-17.865-17.865-44.924,9.157-27.04,27.04l26.455,26.455l-54.452,54.462c-0.529-0.008-1.057-0.013-1.586-0.013l-69.444-69.441
				c-7.466-7.466-19.573-7.466-27.04,0l-69.039,69.04c-7.467,7.466-7.467,19.573,0,27.04l69.452,69.45
				c-0.004,0.528-0.005,1.053-0.001,1.581l-51.898,51.896c-7.466,7.465-7.463,19.578,0,27.04l21,21.001L5.983,479.092
				c-17.865,17.864,9.155,44.928,27.04,27.04l127.228-127.228l20.999,21.001c7.466,7.467,19.579,7.462,27.04,0l51.801-51.801
				c0.586,0,1.173-0.004,1.758-0.015l69.37,69.369c7.466,7.467,19.579,7.461,27.04,0l69.04-69.04c7.467-7.466,7.467-19.573,0-27.04
				l-69.374-69.372c0-0.572-0.004-1.146-0.014-1.722l54.396-54.386l26.455,26.455c17.862,17.862,44.93-9.151,27.04-27.04
				l-26.455-26.455l34.77-34.77l5.099,5.1c3.734,3.734,8.627,5.6,13.521,5.6C509.616,144.788,518.336,124.228,506.256,112.148z
				 M280.451,270.61c-16.376,16.377-44.406,6.356-46.855-16.535c-1.637-15.118,9.346-28.705,24.445-30.32
				C283.852,220.956,298.711,252.349,280.451,270.61z M434.039,39.931C434.069,39.961,434.067,39.959,434.039,39.931L434.039,39.931
				z M412.308,141.818l-42.01-42.01l34.77-34.768l42.009,42.009L412.308,141.818z"/>
			<path d="M427.653,33.544c-0.069-0.069-0.12-0.12-0.153-0.153C427.534,33.426,427.586,33.478,427.653,33.544z"/>
		</g>
	</g>
</g>
<g>
</g>
<g>
</g>
<g>
</g>
<g>
</g>
<g>
</g>
<g>
</g>
<g>
</g>
<g>
</g>
<g>
</g>
<g>
</g>
<g>
</g>
<g>
</g>
<g>
</g>
<g>
</g>
<g>
</g>
</svg>
