<?xml version="1.0" encoding="iso-8859-1"?>
<!-- Generator: Adobe Illustrator 19.0.0, SVG Export Plug-In . SVG Version: 6.00 Build 0)  -->
<svg version="1.1" id="Layer_1" xmlns="http://www.w3.org/2000/svg" xmlns:xlink="http://www.w3.org/1999/xlink" x="0px" y="0px"
	 viewBox="0 0 511.997 511.997" style="enable-background:new 0 0 511.997 511.997;" xml:space="preserve">
<g>
	<g>
		<path d="M460.801,34.657c-1.242,0-407.489,0-409.604,0C22.967,34.657,0,57.624,0,85.854v279.082
			c0,28.23,22.967,51.197,51.197,51.197h0.984v42.622c0,10.264,8.321,18.586,18.586,18.586h83.919
			c10.264,0,18.586-8.321,18.586-18.586v-42.622c5.6,0,159.901,0,165.454,0v42.622c0,10.264,8.321,18.586,18.586,18.586h83.919
			c10.264,0,18.586-8.321,18.586-18.586v-42.622h0.984c28.23,0,51.197-22.967,51.197-51.197V85.854
			C512,57.624,489.032,34.657,460.801,34.657z M298.238,378.964c-10.6,0-237.674,0-247.041,0
			c-7.734-0.002-14.026-6.294-14.026-14.028V255.561h46.177c8.611,0,10.019-2.763,39.849-27.29l28.924,44.523
			c6.478,9.969,20.498,11.36,28.816,2.927l39.239-39.778c21.362,16.378,23.745,19.62,31.894,19.62h46.167V378.964z M298.238,218.39
			h-39.861l-28.601-21.929c-7.439-5.707-17.959-4.977-24.541,1.696l-34.532,35.007l-27.663-42.581
			c-6.023-9.272-18.806-11.288-27.39-4.23L76.688,218.39H37.171V85.854c0-7.734,6.292-14.026,14.026-14.026h247.041V218.39z
			 M353.92,136.047c0-10.264,8.321-18.586,18.586-18.586h65.227c10.264,0,18.586,8.321,18.586,18.586v68.286
			c0,10.264-8.321,18.586-18.586,18.586h-65.227c-10.264,0-18.586-8.321-18.586-18.586V136.047z M438.419,333.329h-66.601
			c-10.264,0-18.586-8.321-18.586-18.586c0-10.264,8.321-18.586,18.586-18.586h66.601c10.264,0,18.586,8.321,18.586,18.586
			C457.005,325.007,448.683,333.329,438.419,333.329z M438.419,283.148h-66.601c-10.264,0-18.586-8.321-18.586-18.586
			c0-10.264,8.321-18.586,18.586-18.586h66.601c10.264,0,18.586,8.321,18.586,18.586
			C457.005,274.826,448.683,283.148,438.419,283.148z"/>
	</g>
</g>
<g>
</g>
<g>
</g>
<g>
</g>
<g>
</g>
<g>
</g>
<g>
</g>
<g>
</g>
<g>
</g>
<g>
</g>
<g>
</g>
<g>
</g>
<g>
</g>
<g>
</g>
<g>
</g>
<g>
</g>
</svg>
