<?xml version="1.0" encoding="iso-8859-1"?>
<!-- Generator: Adobe Illustrator 19.0.0, SVG Export Plug-In . SVG Version: 6.00 Build 0)  -->
<svg version="1.1" id="Layer_1" xmlns="http://www.w3.org/2000/svg" xmlns:xlink="http://www.w3.org/1999/xlink" x="0px" y="0px"
	 viewBox="0 0 512 512" style="enable-background:new 0 0 512 512;" xml:space="preserve">
<g>
	<g>
		<path d="M460.802,34.655H51.198C22.967,34.655,0,57.622,0,85.852v279.084c0,28.231,22.967,51.198,51.198,51.198h0.981v42.625
			c0,10.264,8.322,18.586,18.586,18.586h83.921c10.264,0,18.586-8.322,18.586-18.586v-42.625h165.456v42.625
			c0,10.264,8.322,18.586,18.586,18.586h83.921c10.264,0,18.586-8.322,18.586-18.586v-42.625h0.981
			c28.231,0,51.198-22.967,51.198-51.198V85.852C512,57.622,489.033,34.655,460.802,34.655z M70.764,117.81
			c0-6.843,5.549-12.391,12.391-12.391h345.689c6.843,0,12.391,5.547,12.391,12.391v71.736h-74.137l-36.74-28.169
			c-7.438-5.705-17.958-4.976-24.541,1.698l-46.826,47.469l-37.411-57.587c-6.033-9.286-18.825-11.276-27.39-4.23l-49.643,40.82
			H70.764V117.81z M89.35,440.175v-24.039h46.749v24.039H89.35z M83.155,310.842c-6.843,0-12.391-5.547-12.391-12.391v-71.736
			h80.443c8.77,0,8.966-1.896,50.53-36.073l38.672,59.526c6.478,9.971,20.497,11.36,28.817,2.927l51.533-52.239
			c42.31,32.44,17.408,25.859,120.476,25.859v71.736c0,6.843-5.547,12.391-12.391,12.391H83.155z M365.142,353.533
			c0-8.571,6.947-15.518,15.518-15.518c8.569,0,15.518,6.947,15.518,15.518s-6.947,15.519-15.518,15.519
			C372.09,369.052,365.142,362.105,365.142,353.533z M422.649,440.175H375.9v-24.039h46.749V440.175z M426.75,369.052
			c-8.571,0-15.519-6.947-15.519-15.519c0-8.571,6.947-15.518,15.519-15.518s15.519,6.947,15.519,15.518
			S435.322,369.052,426.75,369.052z"/>
	</g>
</g>
<g>
</g>
<g>
</g>
<g>
</g>
<g>
</g>
<g>
</g>
<g>
</g>
<g>
</g>
<g>
</g>
<g>
</g>
<g>
</g>
<g>
</g>
<g>
</g>
<g>
</g>
<g>
</g>
<g>
</g>
</svg>
