<?xml version="1.0" encoding="iso-8859-1"?>
<!-- Generator: Adobe Illustrator 19.0.0, SVG Export Plug-In . SVG Version: 6.00 Build 0)  -->
<svg version="1.1" id="Layer_1" xmlns="http://www.w3.org/2000/svg" xmlns:xlink="http://www.w3.org/1999/xlink" x="0px" y="0px"
	 viewBox="0 0 512 512" style="enable-background:new 0 0 512 512;" xml:space="preserve">
<g>
	<g>
		<g>
			<path d="M136.673,67.012c-8.642,0-15.647,7.005-15.647,15.647c0.707,10.32,8.08,15.648,15.647,15.648
				c7.922,0,14.468-5.887,15.501-13.527C152.949,73.474,144.926,67.012,136.673,67.012z"/>
			<path d="M437.04,61.716c-11.567,0-20.944,9.377-20.944,20.944v258.211c0,71.265-57.978,129.241-129.242,129.241
				c-67.812,0-123.589-52.496-128.835-118.981c25.874-8.53,45.227-32.091,47.17-60.564c0.078-1.145,14.144-206.761,14.144-207.907
				c0-45.58-37.081-82.66-82.66-82.66s-82.66,37.081-82.66,82.66c0,1.102,14.058,206.804,14.133,207.903
				c1.96,28.744,21.663,52.485,47.908,60.807C121.499,440.86,196.02,512,286.855,512c94.36,0,171.131-76.767,171.131-171.129V82.66
				C457.984,71.093,448.607,61.716,437.04,61.716z M136.674,123.43c-21.769,0-38.919-14.478-40.766-41.418
				c0.345-22.183,18.499-40.123,40.764-40.123c22.268,0,40.424,17.942,40.767,40.129c-1.938,28.311-21.708,41.391-40.728,41.412
				C136.699,123.43,136.687,123.43,136.674,123.43z"/>
		</g>
	</g>
</g>
<g>
</g>
<g>
</g>
<g>
</g>
<g>
</g>
<g>
</g>
<g>
</g>
<g>
</g>
<g>
</g>
<g>
</g>
<g>
</g>
<g>
</g>
<g>
</g>
<g>
</g>
<g>
</g>
<g>
</g>
</svg>
