<?xml version="1.0" encoding="iso-8859-1"?>
<!-- Generator: Adobe Illustrator 19.0.0, SVG Export Plug-In . SVG Version: 6.00 Build 0)  -->
<svg version="1.1" id="Layer_1" xmlns="http://www.w3.org/2000/svg" xmlns:xlink="http://www.w3.org/1999/xlink" x="0px" y="0px"
	 viewBox="0 0 512 512" style="enable-background:new 0 0 512 512;" xml:space="preserve">
<g>
	<g>
		<path d="M482.962,343.489c0-7.986,0-211.382,0-219.142c0-8.994-7.292-16.286-16.286-16.286H242.115
			c-16.808-21.02-19.461-27.159-29.546-27.159H45.324c-8.994,0-16.286,7.292-16.286,16.286c0,7.808,0,232.955,0,246.301
			C12.07,350.046,0,366.522,0,385.775c0,24.992,20.332,45.324,45.324,45.324s45.324-20.333,45.324-45.324
			c0-19.252-12.071-35.728-29.038-42.286v-15.764H450.39v15.764c-16.966,6.558-29.038,23.033-29.038,42.286
			c0,24.992,20.333,45.324,45.324,45.324c24.992,0,45.324-20.333,45.324-45.324C512,366.522,499.929,350.046,482.962,343.489z
			 M450.39,295.152H61.61V265.54H450.39V295.152z M450.39,156.935H61.61v-43.46h143.128v-0.001
			c16.808,21.02,19.461,27.159,29.546,27.159H450.39V156.935z"/>
	</g>
</g>
<g>
</g>
<g>
</g>
<g>
</g>
<g>
</g>
<g>
</g>
<g>
</g>
<g>
</g>
<g>
</g>
<g>
</g>
<g>
</g>
<g>
</g>
<g>
</g>
<g>
</g>
<g>
</g>
<g>
</g>
</svg>
