<?xml version="1.0" encoding="iso-8859-1"?>
<!-- Generator: Adobe Illustrator 19.0.0, SVG Export Plug-In . SVG Version: 6.00 Build 0)  -->
<svg version="1.1" id="Layer_1" xmlns="http://www.w3.org/2000/svg" xmlns:xlink="http://www.w3.org/1999/xlink" x="0px" y="0px"
	 viewBox="0 0 511.998 511.998" style="enable-background:new 0 0 511.998 511.998;" xml:space="preserve">
<g>
	<g>
		<g>
			<path d="M227.97,6.071c-5.972,0-164.769-0.001-172.736-0.001c-0.009,0-0.017,0.001-0.025,0.001H19.361
				c-25.801,0-25.827,39.052,0,39.052h16.35c0,13.248,0,202.356,0,208.651c0,3.964,1.297,7.938,3.414,11.023l65.016,95.52v107.299
				c-21.694,6.078-17.331,38.312,5.271,38.312h28.512c22.636,0,26.944-32.241,5.269-38.312V360.317l65.004-95.501
				c2.111-3.069,3.429-7.066,3.429-11.042c0-6.319,0-195.353,0-208.651h16.347C253.772,45.123,253.799,6.071,227.97,6.071z
				 M123.665,319.602L92.15,273.301h63.031L123.665,319.602z M172.572,120.165H74.761V45.123h97.811V120.165z"/>
			<path d="M492.637,466.874h-16.348c0-9.164,0-199.502,0-208.651c0-3.701-1.148-7.723-3.418-11.028l-65.013-95.516V44.382
				c21.694-6.078,17.331-38.312-5.271-38.312h-28.51c-22.636,0-26.944,32.24-5.271,38.312V151.68l-65.007,95.506
				c-2.269,3.299-3.426,7.338-3.426,11.039c0,9.163,0,199.5,0,208.651h-16.348c-25.801,0-25.829,39.052,0,39.052
				c9.962,0,199.138,0,208.611,0C518.439,505.926,518.466,466.874,492.637,466.874z M388.332,192.397l31.516,46.302h-63.031
				L388.332,192.397z M437.239,466.874h-97.812v-75.042h97.812V466.874z"/>
		</g>
	</g>
</g>
<g>
</g>
<g>
</g>
<g>
</g>
<g>
</g>
<g>
</g>
<g>
</g>
<g>
</g>
<g>
</g>
<g>
</g>
<g>
</g>
<g>
</g>
<g>
</g>
<g>
</g>
<g>
</g>
<g>
</g>
</svg>
