<?xml version="1.0" encoding="iso-8859-1"?>
<!-- Generator: Adobe Illustrator 19.0.0, SVG Export Plug-In . SVG Version: 6.00 Build 0)  -->
<svg version="1.1" id="Layer_1" xmlns="http://www.w3.org/2000/svg" xmlns:xlink="http://www.w3.org/1999/xlink" x="0px" y="0px"
	 viewBox="0 0 512 512" style="enable-background:new 0 0 512 512;" xml:space="preserve">
<g>
	<g>
		<path d="M388.422,344.154c-0.001-0.003-0.003-0.005-0.004-0.008c-12.596-31.252-30.908-57.627-52.956-76.276
			c-5.239-4.432-10.67-8.373-16.239-11.872c5.57-3.497,11-7.44,16.239-11.872c22.048-18.647,40.359-45.022,52.956-76.276
			c0.001-0.003,0.003-0.005,0.004-0.008c12.515-31.029,19.13-66.386,19.13-102.25c0-0.009-0.001-0.016-0.001-0.024V18.842
			C407.55,8.436,399.114,0,388.709,0c-10.406,0-18.842,8.436-18.842,18.842v27.912H142.133V18.842
			C142.133,8.436,133.697,0,123.291,0c-10.406,0-18.842,8.436-18.842,18.842v46.729c0,0.009-0.001,0.016-0.001,0.024
			c0,35.864,6.615,71.221,19.13,102.25c0.001,0.003,0.003,0.005,0.004,0.008c12.596,31.252,30.908,57.627,52.956,76.276
			c5.239,4.432,10.67,8.373,16.239,11.872c-5.57,3.497-11,7.44-16.239,11.872c-22.048,18.647-40.359,45.022-52.956,76.276
			c-0.001,0.003-0.003,0.005-0.004,0.008c-12.515,31.029-19.13,66.386-19.13,102.25c0,0.009,0.001,0.016,0.001,0.024v46.729
			c0,10.406,8.436,18.842,18.842,18.842c10.406,0,18.842-8.436,18.842-18.842v-27.912h227.733v27.912
			c0,10.406,8.436,18.842,18.842,18.842s18.842-8.436,18.842-18.842v-46.73c0-0.009,0.001-0.016,0.001-0.024
			C407.552,410.54,400.937,375.183,388.422,344.154z M171.296,179.64h169.408c-21.516,36.057-52.424,57.518-84.704,57.518
			C223.721,237.158,192.813,215.697,171.296,179.64z M171.296,332.36c21.517-36.058,52.426-57.518,84.704-57.518
			c32.279,0,63.187,21.461,84.704,57.518H171.296z"/>
	</g>
</g>
<g>
</g>
<g>
</g>
<g>
</g>
<g>
</g>
<g>
</g>
<g>
</g>
<g>
</g>
<g>
</g>
<g>
</g>
<g>
</g>
<g>
</g>
<g>
</g>
<g>
</g>
<g>
</g>
<g>
</g>
</svg>
