<?xml version="1.0" encoding="iso-8859-1"?>
<!-- Generator: Adobe Illustrator 19.0.0, SVG Export Plug-In . SVG Version: 6.00 Build 0)  -->
<svg version="1.1" id="Layer_1" xmlns="http://www.w3.org/2000/svg" xmlns:xlink="http://www.w3.org/1999/xlink" x="0px" y="0px"
	 viewBox="0 0 512 512" style="enable-background:new 0 0 512 512;" xml:space="preserve">
<g>
	<g>
		<path d="M507.84,185.563L388.01,47.984c-0.197-0.227-0.404-0.432-0.608-0.645c-0.079-0.082-0.153-0.168-0.235-0.249
			c-3.473-3.487-7.829-5.003-12.097-4.912h-238.15c-4.265-0.088-8.616,1.428-12.087,4.91c-0.083,0.082-0.159,0.171-0.24,0.255
			c-0.202,0.211-0.407,0.415-0.602,0.639L4.16,185.563C1.477,188.643,0,192.59,0,196.674v213.83c0,9.342,7.574,16.916,16.916,16.916
			h68.02c9.342,0,16.916-7.574,16.916-16.916V240.762l17.976-21.286v97.621h86.066v69.149h-86.066v66.665
			c0,9.342,7.574,16.916,16.916,16.916h238.507c9.342,0,16.916-7.574,16.916-16.916v-66.665h-86.066v-69.149h86.066v-97.621
			l17.976,21.286v169.743c0,9.342,7.574,16.916,16.916,16.916h68.022c9.342,0,16.916-7.574,16.916-16.916V196.674
			C512,192.59,510.523,188.643,507.84,185.563z M358.337,80.147L256,207.509L153.662,80.147V59.095h53.504L256,207.509
			l48.833-148.415h53.504V80.147z"/>
	</g>
</g>
<g>
</g>
<g>
</g>
<g>
</g>
<g>
</g>
<g>
</g>
<g>
</g>
<g>
</g>
<g>
</g>
<g>
</g>
<g>
</g>
<g>
</g>
<g>
</g>
<g>
</g>
<g>
</g>
<g>
</g>
</svg>
