<?xml version="1.0" encoding="iso-8859-1"?>
<!-- Generator: Adobe Illustrator 19.0.0, SVG Export Plug-In . SVG Version: 6.00 Build 0)  -->
<svg version="1.1" id="Layer_1" xmlns="http://www.w3.org/2000/svg" xmlns:xlink="http://www.w3.org/1999/xlink" x="0px" y="0px"
	 viewBox="0 0 512 512" style="enable-background:new 0 0 512 512;" xml:space="preserve">
<g>
	<g>
		<g>
			<path d="M76.776,219.349H256h179.224c11.08,0,20.062-8.983,20.062-20.062c0-109.423-88.007-198.208-197.283-199.285
				c0,0-3.572-0.001-3.805-0.001C148.487,0,56.714,87.266,56.714,199.286C56.714,210.366,65.696,219.349,76.776,219.349z
				 M187.219,99.055h137.561c6.427,40.793-24.942,80.138-68.728,80.168c-0.017,0-0.035,0.001-0.052,0.001
				c-0.017,0-0.035-0.001-0.052-0.001C212.317,179.193,180.775,139.978,187.219,99.055z"/>
			<path d="M362.384,260.378c-0.015-0.007-0.028-0.016-0.044-0.023c-66.768-30.709-144.103-31.412-212.68-0.001
				c-0.005,0.003-0.009,0.005-0.013,0.008C61.244,300.95,1.221,390.057,1.221,491.938c0,11.08,8.983,20.062,20.062,20.062h469.433
				c11.08,0,20.062-8.983,20.062-20.062C510.779,389.811,450.552,300.94,362.384,260.378z M256,346.472
				c-6.344-6.215-54.951-53.839-61.51-60.267c40.141-12.036,82.892-12.037,123.021-0.001
				C310.427,293.145,263.333,339.286,256,346.472z M404.464,424.059h-9.362v9.362c0,11.08-8.983,20.062-20.062,20.062
				s-20.062-8.983-20.062-20.062v-9.362h-9.362c-11.08,0-20.062-8.983-20.062-20.062s8.983-20.062,20.062-20.062h9.362v-9.362
				c0-11.08,8.983-20.062,20.062-20.062s20.062,8.983,20.062,20.062v9.362h9.362c11.08,0,20.062,8.983,20.062,20.062
				S415.545,424.059,404.464,424.059z"/>
		</g>
	</g>
</g>
<g>
</g>
<g>
</g>
<g>
</g>
<g>
</g>
<g>
</g>
<g>
</g>
<g>
</g>
<g>
</g>
<g>
</g>
<g>
</g>
<g>
</g>
<g>
</g>
<g>
</g>
<g>
</g>
<g>
</g>
</svg>
