<?xml version="1.0" encoding="iso-8859-1"?>
<!-- Generator: Adobe Illustrator 19.0.0, SVG Export Plug-In . SVG Version: 6.00 Build 0)  -->
<svg version="1.1" id="Layer_1" xmlns="http://www.w3.org/2000/svg" xmlns:xlink="http://www.w3.org/1999/xlink" x="0px" y="0px"
	 viewBox="0 0 512 512" style="enable-background:new 0 0 512 512;" xml:space="preserve">
<g>
	<g>
		<g>
			<path d="M256,219.35c60.474,0,109.674-49.2,109.674-109.674C365.674,49.201,316.474,0,256,0
				c-60.474,0-109.674,49.2-109.674,109.674C146.326,170.149,195.526,219.35,256,219.35z"/>
			<path d="M362.381,260.384c-0.015-0.007-0.028-0.016-0.043-0.023c-67.899-31.228-145.293-30.855-212.458-0.098
				c-0.072,0.033-0.144,0.063-0.217,0.096c-0.005,0.003-0.009,0.005-0.013,0.008C61.249,300.957,1.228,390.061,1.228,491.938
				C1.228,503.018,10.21,512,21.29,512H490.71c11.079,0,20.062-8.982,20.062-20.062
				C510.772,389.814,450.545,300.945,362.381,260.384z M256,346.476c-6.344-6.215-54.949-53.838-61.508-60.264
				c40.141-12.037,82.89-12.038,123.018-0.001L256,346.476z M404.462,424.061H395.1v9.362c0,11.08-8.982,20.062-20.062,20.062
				s-20.062-8.982-20.062-20.062v-9.362h-9.362c-11.079,0-20.062-8.982-20.062-20.062c0-11.08,8.982-20.062,20.062-20.062h9.362
				v-9.362c0-11.079,8.982-20.062,20.062-20.062s20.062,8.982,20.062,20.062v9.362h9.362c11.079,0,20.062,8.982,20.062,20.062
				C424.524,415.078,415.541,424.061,404.462,424.061z"/>
		</g>
	</g>
</g>
<g>
</g>
<g>
</g>
<g>
</g>
<g>
</g>
<g>
</g>
<g>
</g>
<g>
</g>
<g>
</g>
<g>
</g>
<g>
</g>
<g>
</g>
<g>
</g>
<g>
</g>
<g>
</g>
<g>
</g>
</svg>
