<?xml version="1.0" encoding="iso-8859-1"?>
<!-- Generator: Adobe Illustrator 19.0.0, SVG Export Plug-In . SVG Version: 6.00 Build 0)  -->
<svg version="1.1" id="Layer_1" xmlns="http://www.w3.org/2000/svg" xmlns:xlink="http://www.w3.org/1999/xlink" x="0px" y="0px"
	 viewBox="0 0 512 512" style="enable-background:new 0 0 512 512;" xml:space="preserve">
<g>
	<g>
		<path d="M450.486,0H61.513c-11.28,0-20.426,9.145-20.426,20.426v90.156c0,11.28,9.145,20.426,20.426,20.426h21.75
			c0,9.885,0,351.216,0,360.568c0,11.28,9.145,20.426,20.426,20.426h304.622c11.28,0,20.426-9.145,20.426-20.426
			c0-9.452,0-350.755,0-360.568h21.75c11.28,0,20.425-9.145,20.425-20.426V20.426C470.911,9.145,461.766,0,450.486,0z
			 M315.322,40.851h36.943v49.305h-36.943V40.851z M237.528,40.851h36.944v49.305h-36.944V40.851z M159.734,40.851h36.943v49.305
			h-36.943V40.851z M118.883,90.156c-18.952,0-17.976,0-36.944,0V40.851h36.944V90.156z M387.884,471.149H124.113v-35.521h263.771
			V471.149z M184.597,316.71H327.4c11.28,0,20.425,9.145,20.425,20.426s-9.145,20.425-20.425,20.425H184.597
			c-11.28,0-20.426-9.145-20.426-20.426S173.317,316.71,184.597,316.71z M164.172,265.02c0-11.28,9.145-20.426,20.426-20.426H327.4
			c11.28,0,20.425,9.145,20.425,20.426c0,11.28-9.145,20.426-20.425,20.426H184.597C173.317,285.445,164.172,276.3,164.172,265.02z
			 M387.884,166.527H124.113v-35.52h263.771V166.527z M430.06,90.156c-18.967,0-17.994,0-36.944,0V40.851h36.944V90.156z"/>
	</g>
</g>
<g>
</g>
<g>
</g>
<g>
</g>
<g>
</g>
<g>
</g>
<g>
</g>
<g>
</g>
<g>
</g>
<g>
</g>
<g>
</g>
<g>
</g>
<g>
</g>
<g>
</g>
<g>
</g>
<g>
</g>
</svg>
