<?xml version="1.0" encoding="iso-8859-1"?>
<!-- Generator: Adobe Illustrator 19.0.0, SVG Export Plug-In . SVG Version: 6.00 Build 0)  -->
<svg version="1.1" id="Layer_1" xmlns="http://www.w3.org/2000/svg" xmlns:xlink="http://www.w3.org/1999/xlink" x="0px" y="0px"
	 viewBox="0 0 511.999 511.999" style="enable-background:new 0 0 511.999 511.999;" xml:space="preserve">
<g>
	<g>
		<path d="M309.331,0h-63.393C154.307,0,74.293,56.121,41.276,138.367c-19.938,49.673-15.799,69.351-15.799,249.984
			c0,68.18,55.469,123.648,123.648,123.648c71.732,0,123.649-59.989,123.649-120.363c0-20.051,16.146-36.574,36.557-36.574
			c48.528,0,92.905-19.358,125.549-51.998C546.239,191.642,466.844,0,309.331,0z M147.654,162.741
			c62.258,32.724,52.549,125.778-15.711,144.806C131.942,216.226,127.887,196.103,147.654,162.741z M187.361,388.352h-0.032v-0.001
			c0,21.066-17.136,38.204-38.204,38.204c-21.066,0-38.204-17.136-38.204-38.204v-35.897c34.4,0,65.453-14.523,87.416-37.732
			c1.699,4.119,3.281,8.083,7.954,11.647C194.838,344.386,187.968,365.594,187.361,388.352z M231.357,271.81
			c-2.723-74.489,89.223-109.186,137.09-54.864C333.796,268.766,295.618,229.991,231.357,271.81z M400.574,189.832
			c-46.679-53.836-129.758-55.258-178.304-3.722c-12.807-30.978-37.524-54.191-66.672-65.89
			c46.125-41.626,91.246-34.775,153.733-34.775C364.586,85.445,408.046,134.193,400.574,189.832z"/>
	</g>
</g>
<g>
</g>
<g>
</g>
<g>
</g>
<g>
</g>
<g>
</g>
<g>
</g>
<g>
</g>
<g>
</g>
<g>
</g>
<g>
</g>
<g>
</g>
<g>
</g>
<g>
</g>
<g>
</g>
<g>
</g>
</svg>
