<?xml version="1.0" encoding="iso-8859-1"?>
<!-- Generator: Adobe Illustrator 19.0.0, SVG Export Plug-In . SVG Version: 6.00 Build 0)  -->
<svg version="1.1" id="Layer_1" xmlns="http://www.w3.org/2000/svg" xmlns:xlink="http://www.w3.org/1999/xlink" x="0px" y="0px"
	 viewBox="0 0 512.001 512.001" style="enable-background:new 0 0 512.001 512.001;" xml:space="preserve">
<g>
	<g>
		<path d="M463.615,48.379C341.138-74.096,137.045,55.651,195.04,218.382l-23.411,23.411c-7.984,7.983-7.984,20.928,0,28.912
			l0.305,0.305L14.304,428.64c-19.036,19.036-19.038,50.01-0.001,69.048l0.001,0.001c19.077,19.08,49.968,19.085,69.049,0
			L240.981,340.06l0.307,0.307c7.984,7.984,20.928,7.983,28.912,0l23.411-23.411C456.581,375.045,585.955,170.719,463.615,48.379z
			 M54.442,468.777c-3.095,3.094-8.131,3.094-11.224,0c-3.095-3.097-3.095-8.131-0.001-11.225l157.628-157.628l9.909,9.909
			l1.317,1.317L54.442,468.777z M386.516,125.477c-10.17-10.17-23.692-15.771-38.074-15.771c-27.015,0-27.043-40.888,0-40.888
			c25.303,0,49.092,9.853,66.986,27.744C434.527,115.666,405.645,144.601,386.516,125.477z"/>
	</g>
</g>
<g>
</g>
<g>
</g>
<g>
</g>
<g>
</g>
<g>
</g>
<g>
</g>
<g>
</g>
<g>
</g>
<g>
</g>
<g>
</g>
<g>
</g>
<g>
</g>
<g>
</g>
<g>
</g>
<g>
</g>
</svg>
