<?xml version="1.0" encoding="iso-8859-1"?>
<!-- Generator: Adobe Illustrator 19.0.0, SVG Export Plug-In . SVG Version: 6.00 Build 0)  -->
<svg version="1.1" id="Layer_1" xmlns="http://www.w3.org/2000/svg" xmlns:xlink="http://www.w3.org/1999/xlink" x="0px" y="0px"
	 viewBox="0 0 512.002 512.002" style="enable-background:new 0 0 512.002 512.002;" xml:space="preserve">
<g>
	<g>
		<path d="M511.275,251.006C478.71,141.412,377.152,60.675,256.001,60.675c-121.025,0-222.672,80.615-255.274,190.331
			c-0.969,3.26-0.969,6.731,0,9.99C33.291,370.589,134.85,451.327,256.001,451.327c121.025,0,222.672-80.615,255.274-190.331
			C512.244,257.736,512.244,254.265,511.275,251.006z M293.292,186.56c10.732-22.046,44.203-14.475,44.241,10.069h0.001
			c0.001,13.741-11.528,23.689-23.851,23.313c-5.697-9.138-13.453-16.752-22.696-22.279
			C290.812,193.762,291.629,189.971,293.292,186.56z M286.153,242.729c0.001,0.002,0.002,0.005,0.003,0.007
			c9.616,24.04-7.841,46.201-30.156,46.201c-32.495,0-45.278-42.362-18.225-60.346C255.838,216.586,278.377,225.07,286.153,242.729z
			 M256.002,353.959c-54.015,0-97.959-43.944-97.959-97.959c0-61.991,55.517-105.156,111.746-97.112
			c-7.559,8.95-12.185,20.178-13.298,29.078c-37.04-0.269-68.502,29.692-68.502,68.034c0,37.502,30.51,68.012,68.011,68.012
			c38.899,0,68.979-32.31,68.022-69.761c10.333-1.736,20.47-6.531,28.713-13.732C362.245,300.262,315.912,353.959,256.002,353.959z"
			/>
	</g>
</g>
<g>
</g>
<g>
</g>
<g>
</g>
<g>
</g>
<g>
</g>
<g>
</g>
<g>
</g>
<g>
</g>
<g>
</g>
<g>
</g>
<g>
</g>
<g>
</g>
<g>
</g>
<g>
</g>
<g>
</g>
</svg>
