<?xml version="1.0" encoding="iso-8859-1"?>
<!-- Generator: Adobe Illustrator 19.0.0, SVG Export Plug-In . SVG Version: 6.00 Build 0)  -->
<svg version="1.1" id="Layer_1" xmlns="http://www.w3.org/2000/svg" xmlns:xlink="http://www.w3.org/1999/xlink" x="0px" y="0px"
	 viewBox="0 0 511.999 511.999" style="enable-background:new 0 0 511.999 511.999;" xml:space="preserve">
<g>
	<g>
		<path d="M459.078,180.876l-84.459-55.747c-24.037-15.867-56.269-12.6-76.635,7.766c-15.489,15.486,7.938,38.945,23.441,23.441
			c18.282-18.281,37.442-1.883,51.093,7.126c-49.216,9.234-87.728,49.19-94.797,99.126h-43.445
			c-7.068-49.936-45.581-89.892-94.796-99.126c11.917-7.866,32.325-25.892,51.093-7.126c15.483,15.485,38.953-7.931,23.441-23.441
			c-20.367-20.367-52.597-23.634-76.636-7.766c-91.38,60.315-84.141,55.507-85.199,56.291C20.732,202.577,0,238.494,0,279.164
			c0,64.913,52.811,117.724,117.726,117.724c59.288,0,108.471-44.057,116.552-101.149h43.445
			c8.081,57.092,57.264,101.149,116.552,101.149c64.913,0,117.724-52.811,117.724-117.724
			C512,238.557,491.163,202.053,459.078,180.876z M117.724,317.001c-20.863,0-37.837-16.973-37.837-37.837
			c0-20.863,16.973-37.837,37.837-37.837c20.863,0,37.837,16.973,37.837,37.837C155.562,300.027,138.589,317.001,117.724,317.001z
			 M394.276,317.001c-20.863,0-37.837-16.973-37.837-37.837c0-20.863,16.973-37.837,37.837-37.837
			c20.863,0,37.837,16.973,37.837,37.837C432.112,300.027,415.139,317.001,394.276,317.001z"/>
	</g>
</g>
<g>
</g>
<g>
</g>
<g>
</g>
<g>
</g>
<g>
</g>
<g>
</g>
<g>
</g>
<g>
</g>
<g>
</g>
<g>
</g>
<g>
</g>
<g>
</g>
<g>
</g>
<g>
</g>
<g>
</g>
</svg>
