<?xml version="1.0" encoding="iso-8859-1"?>
<!-- Generator: Adobe Illustrator 19.0.0, SVG Export Plug-In . SVG Version: 6.00 Build 0)  -->
<svg version="1.1" id="Layer_1" xmlns="http://www.w3.org/2000/svg" xmlns:xlink="http://www.w3.org/1999/xlink" x="0px" y="0px"
	 viewBox="0 0 512.001 512.001" style="enable-background:new 0 0 512.001 512.001;" xml:space="preserve">
<g>
	<g>
		<path d="M467.981,200.051l11.678-11.678c43.117-43.117,43.126-112.909,0-156.031c-43.116-43.12-112.906-43.124-156.031,0
			l-11.68,11.68c-3.269-3.269-21.011-25.534-38.528-8.026L40.988,268.415c-8.423,8.424-8.418,22.089,0,30.507l8.03,8.032
			l-16.677,16.676c-43.117,43.119-43.124,112.908,0,156.031c43.119,43.119,112.908,43.124,156.032,0l16.676-16.676l8.03,8.03
			c8.423,8.424,22.09,8.418,30.505,0l232.42-232.433c8.423-8.424,8.423-22.081-0.001-30.505L467.981,200.051z M157.867,449.153
			c-26.255,26.258-68.758,26.263-95.02,0c-26.259-26.257-26.26-68.756,0-95.02l16.676-16.676c1.93,1.93,43.301,43.301,95.02,95.02
			L157.867,449.153z M168.164,365.085l-21.247-21.249l201.926-201.913l21.234,21.236
			C361.187,172.051,176.995,356.254,168.164,365.085z M437.476,169.545c-8.531-8.531-86.403-86.403-95.02-95.02l11.678-11.678
			c26.258-26.258,68.758-26.263,95.02,0c26.258,26.256,26.263,68.758,0,95.02L437.476,169.545z"/>
	</g>
</g>
<g>
</g>
<g>
</g>
<g>
</g>
<g>
</g>
<g>
</g>
<g>
</g>
<g>
</g>
<g>
</g>
<g>
</g>
<g>
</g>
<g>
</g>
<g>
</g>
<g>
</g>
<g>
</g>
<g>
</g>
</svg>
