<?xml version="1.0" encoding="iso-8859-1"?>
<!-- Generator: Adobe Illustrator 19.0.0, SVG Export Plug-In . SVG Version: 6.00 Build 0)  -->
<svg version="1.1" id="Layer_1" xmlns="http://www.w3.org/2000/svg" xmlns:xlink="http://www.w3.org/1999/xlink" x="0px" y="0px"
	 viewBox="0 0 512 512" style="enable-background:new 0 0 512 512;" xml:space="preserve">
<g>
	<g>
		<path d="M347.877,147.737V40.161h10.665c11.09,0,20.08-8.991,20.08-20.08c0-11.09-8.991-20.08-20.08-20.08H152.687
			c-11.09,0-20.08,8.991-20.08,20.08c0,11.09,8.991,20.08,20.08,20.08h10.664v107.587C-12.303,243.119,55.015,512,255.614,512
			C454.991,512,526.114,244.238,347.877,147.737z M279.438,328.156c-1.553-0.319-2.813-1.432-3.374-2.772
			c-0.06-0.143-0.265-0.842-0.273-0.881c-0.037-0.185-0.094-0.894-0.094-0.937c0-24.728-20.118-44.846-44.846-44.846H107.117
			c11.712-43.834,42.73-81.126,84.667-100.306c7.146-3.268,11.728-10.404,11.728-18.261V40.165h104.204v119.987
			c0,7.858,4.584,14.993,11.73,18.261c58.469,26.739,93.598,86.763,89.493,149.837C408.191,328.251,280.17,328.304,279.438,328.156z
			"/>
	</g>
</g>
<g>
</g>
<g>
</g>
<g>
</g>
<g>
</g>
<g>
</g>
<g>
</g>
<g>
</g>
<g>
</g>
<g>
</g>
<g>
</g>
<g>
</g>
<g>
</g>
<g>
</g>
<g>
</g>
<g>
</g>
</svg>
