<?xml version="1.0" encoding="iso-8859-1"?>
<!-- Generator: Adobe Illustrator 19.0.0, SVG Export Plug-In . SVG Version: 6.00 Build 0)  -->
<svg version="1.1" id="Layer_1" xmlns="http://www.w3.org/2000/svg" xmlns:xlink="http://www.w3.org/1999/xlink" x="0px" y="0px"
	 viewBox="0 0 512.001 512.001" style="enable-background:new 0 0 512.001 512.001;" xml:space="preserve">
<g>
	<g>
		<path d="M492.973,211.64H442.53V148.23c0-10.502-8.514-19.016-19.016-19.016H189.699V63.912c0-10.502-8.514-19.016-19.016-19.016
			H19.02c-10.502,0-19.016,8.514-19.016,19.016c0,13.737,0.001,370.061,0.001,383.753c-0.25,10.43,8.148,19.439,19.06,19.439
			h404.448c8.273,0,15.597-5.349,18.115-13.23l69.459-217.433C515.005,224.176,505.832,211.64,492.973,211.64z M305.986,358.388
			h-30.973v30.973c0,10.502-8.514,19.016-19.016,19.016c-10.502,0-19.016-8.514-19.016-19.016v-30.973h-30.973
			c-10.502,0-19.016-8.514-19.016-19.016s8.514-19.016,19.016-19.016h30.973v-30.973c0-10.502,8.514-19.016,19.016-19.016
			c10.502,0,19.016,8.514,19.016,19.016v30.973h30.973c10.502,0,19.016,8.514,19.016,19.016
			C325.002,349.874,316.487,358.388,305.986,358.388z M404.498,211.64H88.494c-8.255,0-15.591,5.331-18.115,13.229L38.037,326.091
			V167.248c8.343,0,359.627-0.001,366.461-0.001V211.64z"/>
	</g>
</g>
<g>
</g>
<g>
</g>
<g>
</g>
<g>
</g>
<g>
</g>
<g>
</g>
<g>
</g>
<g>
</g>
<g>
</g>
<g>
</g>
<g>
</g>
<g>
</g>
<g>
</g>
<g>
</g>
<g>
</g>
</svg>
