<?xml version="1.0" encoding="iso-8859-1"?>
<!-- Generator: Adobe Illustrator 19.0.0, SVG Export Plug-In . SVG Version: 6.00 Build 0)  -->
<svg version="1.1" id="Layer_1" xmlns="http://www.w3.org/2000/svg" xmlns:xlink="http://www.w3.org/1999/xlink" x="0px" y="0px"
	 viewBox="0 0 512 512" style="enable-background:new 0 0 512 512;" xml:space="preserve">
<g>
	<g>
		<path d="M506.087,191.167c-55.252-55.253-43.381-43.383-78.354-78.355l11.853-11.853c18.86-18.858-9.659-47.436-28.549-28.55
			l-11.854,11.853c-46.737-46.737-28.715-28.716-78.35-78.349c-7.876-7.878-20.667-7.883-28.549,0l-72.66,72.661
			c-7.884,7.884-7.884,20.665,0,28.549c49.151,49.152,32.513,32.514,78.349,78.349L176.204,307.239l-17.181-17.182
			c-7.881-7.883-20.671-7.88-28.549,0L18.959,401.572c-25.28,25.28-25.277,66.191,0,91.467c25.277,25.28,66.193,25.276,91.466,0
			l111.515-111.515c7.884-7.884,7.884-20.665,0-28.549l-17.188-17.188l121.768-121.768c14.792,14.792,63.281,63.281,78.355,78.355
			c7.881,7.883,20.664,7.884,28.549,0l72.661-72.661C513.971,211.834,513.971,199.051,506.087,191.167z M300.999,87.291
			l-22.057,22.055L262.446,92.85l44.112-44.112l16.497,16.496L300.999,87.291z M419.15,249.553l-16.496-16.494l44.112-44.112
			l16.496,16.496L419.15,249.553z"/>
	</g>
</g>
<g>
</g>
<g>
</g>
<g>
</g>
<g>
</g>
<g>
</g>
<g>
</g>
<g>
</g>
<g>
</g>
<g>
</g>
<g>
</g>
<g>
</g>
<g>
</g>
<g>
</g>
<g>
</g>
<g>
</g>
</svg>
