<?xml version="1.0" encoding="iso-8859-1"?>
<!-- Generator: Adobe Illustrator 19.0.0, SVG Export Plug-In . SVG Version: 6.00 Build 0)  -->
<svg version="1.1" id="Layer_1" xmlns="http://www.w3.org/2000/svg" xmlns:xlink="http://www.w3.org/1999/xlink" x="0px" y="0px"
	 viewBox="0 0 512 512" style="enable-background:new 0 0 512 512;" xml:space="preserve">
<g>
	<g>
		<path d="M512,179.68v-59.281c0-10.125-8.209-18.334-18.334-18.334H380.904V61.664c0-10.125-8.209-18.334-18.334-18.334H149.43
			c-10.125,0-18.334,8.209-18.334,18.334v40.401H18.334C8.209,102.065,0,110.274,0,120.399v59.281h131.096v36.667H0v233.989
			c0,10.125,8.209,18.334,18.334,18.334H149.43h31.045c10.125,0,18.334-8.209,18.334-18.334V335.151
			c0-10.125,8.209-18.334,18.334-18.334h77.206c10.125,0,18.334,8.209,18.334,18.334v115.185c0,10.125,8.208,18.334,18.334,18.334
			h31.556h131.096c10.125,0,18.334-8.209,18.334-18.334V216.347H380.905V179.68H512z M294.807,177.54h-20.474v20.474
			c0,10.125-8.209,18.334-18.334,18.334s-18.334-8.209-18.334-18.334V177.54h-20.474c-10.125,0-18.334-8.209-18.334-18.334
			s8.209-18.334,18.334-18.334h20.474v-20.474c0-10.125,8.209-18.334,18.334-18.334s18.334,8.209,18.334,18.334v20.474h20.474
			c10.125,0,18.334,8.209,18.334,18.334S304.932,177.54,294.807,177.54z"/>
	</g>
</g>
<g>
</g>
<g>
</g>
<g>
</g>
<g>
</g>
<g>
</g>
<g>
</g>
<g>
</g>
<g>
</g>
<g>
</g>
<g>
</g>
<g>
</g>
<g>
</g>
<g>
</g>
<g>
</g>
<g>
</g>
</svg>
