<?xml version="1.0" encoding="iso-8859-1"?>
<!-- Generator: Adobe Illustrator 19.0.0, SVG Export Plug-In . SVG Version: 6.00 Build 0)  -->
<svg version="1.1" id="Layer_1" xmlns="http://www.w3.org/2000/svg" xmlns:xlink="http://www.w3.org/1999/xlink" x="0px" y="0px"
	 viewBox="0 0 512 512" style="enable-background:new 0 0 512 512;" xml:space="preserve">
<g>
	<g>
		<path d="M468.509,137.107h-93.616V43.491C374.892,19.51,355.383,0,331.402,0H180.598c-23.981,0-43.491,19.51-43.491,43.491v93.616
			H43.491c-23.981,0-43.491,19.51-43.491,43.491v150.805c0,23.981,19.51,43.491,43.491,43.491h93.616v93.616
			c0,23.981,19.51,43.491,43.491,43.491h150.804c23.982,0,43.492-19.51,43.491-43.492v-93.616h93.616
			c23.981,0,43.491-19.51,43.491-43.491V180.598C511.999,156.617,492.489,137.107,468.509,137.107z"/>
	</g>
</g>
<g>
</g>
<g>
</g>
<g>
</g>
<g>
</g>
<g>
</g>
<g>
</g>
<g>
</g>
<g>
</g>
<g>
</g>
<g>
</g>
<g>
</g>
<g>
</g>
<g>
</g>
<g>
</g>
<g>
</g>
</svg>
