<?xml version="1.0" encoding="iso-8859-1"?>
<!-- Generator: Adobe Illustrator 19.0.0, SVG Export Plug-In . SVG Version: 6.00 Build 0)  -->
<svg version="1.1" id="Layer_1" xmlns="http://www.w3.org/2000/svg" xmlns:xlink="http://www.w3.org/1999/xlink" x="0px" y="0px"
	 viewBox="0 0 511.999 511.999" style="enable-background:new 0 0 511.999 511.999;" xml:space="preserve">
<g>
	<g>
		<g>
			<path d="M99.877,315.006c30.021-38.164,87.28-39.447,118.95-2.583V168.026H99.877V315.006z M159.352,210.154
				c15.025,0,27.205,12.18,27.205,27.205s-12.18,27.204-27.205,27.204s-27.205-12.18-27.205-27.204
				C132.149,222.334,144.329,210.154,159.352,210.154z"/>
			<path d="M460.803,65.26H51.197C22.967,65.26,0,88.228,0,116.457v279.084c0,28.23,22.967,51.197,51.197,51.197h409.605
				c28.23,0,51.197-22.967,51.197-51.197V116.457C512,88.228,489.033,65.26,460.803,65.26z M255.999,362.559
				c0,10.264-8.322,18.586-18.586,18.586H81.291c-10.264,0-18.586-8.322-18.586-18.586V149.44c0-10.264,8.322-18.586,18.586-18.586
				h156.122c10.264,0,18.586,8.322,18.586,18.586V362.559z M439.004,381.145h-147.18c-10.264,0-18.586-8.322-18.586-18.586
				s8.322-18.586,18.586-18.586h147.18c10.264,0,18.586,8.322,18.586,18.586C457.59,372.825,449.269,381.145,439.004,381.145z
				 M439.004,332.821h-147.18c-10.264,0-18.586-8.322-18.586-18.586s8.322-18.586,18.586-18.586h147.18
				c10.264,0,18.586,8.322,18.586,18.586C457.59,324.501,449.269,332.821,439.004,332.821z M439.004,284.498h-147.18
				c-10.264,0-18.586-8.322-18.586-18.586c0-10.264,8.322-18.586,18.586-18.586h147.18c10.264,0,18.586,8.322,18.586,18.586
				C457.59,276.178,449.269,284.498,439.004,284.498z M457.59,216.001c0,10.264-8.322,18.586-18.586,18.586h-147.18
				c-10.264,0-18.586-8.322-18.586-18.586V149.44c0-10.264,8.322-18.586,18.586-18.586h147.18c10.264,0,18.586,8.322,18.586,18.586
				V216.001z"/>
		</g>
	</g>
</g>
<g>
</g>
<g>
</g>
<g>
</g>
<g>
</g>
<g>
</g>
<g>
</g>
<g>
</g>
<g>
</g>
<g>
</g>
<g>
</g>
<g>
</g>
<g>
</g>
<g>
</g>
<g>
</g>
<g>
</g>
</svg>
