<?xml version="1.0" encoding="iso-8859-1"?>
<!-- Generator: Adobe Illustrator 19.0.0, SVG Export Plug-In . SVG Version: 6.00 Build 0)  -->
<svg version="1.1" id="Layer_1" xmlns="http://www.w3.org/2000/svg" xmlns:xlink="http://www.w3.org/1999/xlink" x="0px" y="0px"
	 viewBox="0 0 512 512" style="enable-background:new 0 0 512 512;" xml:space="preserve">
<g>
	<g>
		<path d="M398.626,21.909H113.374C50.859,21.909,0,72.768,0,135.282v154.111c0,36.092,28.938,64.948,64.365,65.626
			c37.437,0.721,66.91-30.489,66.91-66.567v-129.3c0-3.29,2.677-5.967,5.967-5.967h237.517c3.29,0,5.967,2.677,5.967,5.967v58.638
			c0,3.29-2.677,5.967-5.967,5.967H256.001c-36.193,0-65.638,29.445-65.638,65.638c0,77.286-7.343,109.322,26.36,135.189v26.235
			c0,21.654,17.617,39.273,39.273,39.273c21.656,0,39.273-17.618,39.273-39.273v-25.842c16.495-12.254,26.368-31.549,26.368-52.622
			v-17.324h76.989c62.514,0,113.374-50.859,113.374-113.374V135.282C512,72.768,461.141,21.909,398.626,21.909z"/>
	</g>
</g>
<g>
</g>
<g>
</g>
<g>
</g>
<g>
</g>
<g>
</g>
<g>
</g>
<g>
</g>
<g>
</g>
<g>
</g>
<g>
</g>
<g>
</g>
<g>
</g>
<g>
</g>
<g>
</g>
<g>
</g>
</svg>
