<?xml version="1.0" encoding="iso-8859-1"?>
<!-- Generator: Adobe Illustrator 19.0.0, SVG Export Plug-In . SVG Version: 6.00 Build 0)  -->
<svg version="1.1" id="Layer_1" xmlns="http://www.w3.org/2000/svg" xmlns:xlink="http://www.w3.org/1999/xlink" x="0px" y="0px"
	 viewBox="0 0 512 512" style="enable-background:new 0 0 512 512;" xml:space="preserve">
<g>
	<g>
		<g>
			<path d="M190.412,199.129c72.513-49.118,36.555-161.64-49.557-161.64C63.188,37.489,0,100.676,0,178.343
				c0,87.978,116.494,122.501,163.6,46.548c30.666,26.94,36.131,29.203,36.131,40.463v190.786c0,24.479,37.051,24.505,37.051,0
				V265.354C236.781,234.129,215.714,221.355,190.412,199.129z"/>
			<path d="M371.146,37.489c-86.166,0-122.014,112.558-49.557,161.64c-25.703,22.58-46.369,35.198-46.369,66.227v190.786
				c0,24.479,37.051,24.505,37.051,0V265.356c0-11.275,5.493-13.548,36.131-40.463C395.492,300.822,512,266.34,512,178.344
				C512,100.676,448.813,37.489,371.146,37.489z"/>
		</g>
	</g>
</g>
<g>
</g>
<g>
</g>
<g>
</g>
<g>
</g>
<g>
</g>
<g>
</g>
<g>
</g>
<g>
</g>
<g>
</g>
<g>
</g>
<g>
</g>
<g>
</g>
<g>
</g>
<g>
</g>
<g>
</g>
</svg>
