<?xml version="1.0" encoding="iso-8859-1"?>
<!-- Generator: Adobe Illustrator 19.0.0, SVG Export Plug-In . SVG Version: 6.00 Build 0)  -->
<svg version="1.1" id="Layer_1" xmlns="http://www.w3.org/2000/svg" xmlns:xlink="http://www.w3.org/1999/xlink" x="0px" y="0px"
	 viewBox="0 0 512 512" style="enable-background:new 0 0 512 512;" xml:space="preserve">
<g>
	<g>
		<g>
			<path d="M485.101,26.933c-35.908-35.908-94.027-35.913-129.938,0c-31.055,31.052-34.825,77.998-13.479,112.836L220.386,261.067
				l-21.013-21.013c-8.445-8.445-22.136-8.445-30.581,0L75.615,333.23c-2.815,2.815-2.815,7.38,0,10.194l92.992,92.992
				c2.815,2.815,7.378,2.815,10.194,0l93.175-93.175c8.445-8.443,8.445-22.136,0-30.581l-21.013-21.013l121.298-121.298
				c34.836,21.344,81.781,17.576,112.836-13.48C520.924,121.045,520.924,62.755,485.101,26.933z M454.52,126.288
				c-19.009,19.006-49.767,19.009-68.776,0c-19.006-19.006-19.009-49.766,0-68.775c19.008-19.008,49.766-19.008,68.776,0
				C473.48,76.475,473.48,107.326,454.52,126.288z"/>
			<path d="M45.034,374.004c-2.814-2.814-7.378-2.814-10.194,0L6.366,402.48c-8.445,8.444-8.445,22.136,0,30.581l72.605,72.605
				c8.445,8.445,22.136,8.445,30.581,0l28.475-28.476c2.815-2.815,2.815-7.378,0-10.194L45.034,374.004z"/>
		</g>
	</g>
</g>
<g>
</g>
<g>
</g>
<g>
</g>
<g>
</g>
<g>
</g>
<g>
</g>
<g>
</g>
<g>
</g>
<g>
</g>
<g>
</g>
<g>
</g>
<g>
</g>
<g>
</g>
<g>
</g>
<g>
</g>
</svg>
