<?xml version="1.0" encoding="iso-8859-1"?>
<!-- Generator: Adobe Illustrator 19.0.0, SVG Export Plug-In . SVG Version: 6.00 Build 0)  -->
<svg version="1.1" id="Layer_1" xmlns="http://www.w3.org/2000/svg" xmlns:xlink="http://www.w3.org/1999/xlink" x="0px" y="0px"
	 viewBox="0 0 512.001 512.001" style="enable-background:new 0 0 512.001 512.001;" xml:space="preserve">
<g>
	<g>
		<g>
			<path d="M293.959,90.51h-69.368c-112.869,0-207.942,84.335-221.402,196.399l-2.447,20.369
				c-7.295,60.728,40.195,114.212,101.311,114.212h41.744c63.674,0,118.606-41.949,136.772-100.97h0.01v-0.001l25.925-215.869
				C307.407,97.129,301.535,90.51,293.959,90.51z M196.917,194.753c-42.033,9.794-76.059,41.477-88.801,82.685
				c-3.093,10.003-13.707,15.598-23.704,12.508c-10-3.092-15.599-13.706-12.508-23.704c16.706-54.029,61.313-95.567,116.414-108.403
				c10.198-2.377,20.383,3.965,22.757,14.157C213.449,182.191,207.11,192.38,196.917,194.753z"/>
			<path d="M444.857,90.51h-87.274c-6.395,0-11.781,4.778-12.544,11.128l-24.59,204.742c-0.903,7.521,4.969,14.14,12.545,14.14
				h3.939c88.925,0,163.977-66.579,174.58-154.868C516.314,125.699,485.068,90.51,444.857,90.51z"/>
		</g>
	</g>
</g>
<g>
</g>
<g>
</g>
<g>
</g>
<g>
</g>
<g>
</g>
<g>
</g>
<g>
</g>
<g>
</g>
<g>
</g>
<g>
</g>
<g>
</g>
<g>
</g>
<g>
</g>
<g>
</g>
<g>
</g>
</svg>
