<?xml version="1.0" encoding="iso-8859-1"?>
<!-- Generator: Adobe Illustrator 19.0.0, SVG Export Plug-In . SVG Version: 6.00 Build 0)  -->
<svg version="1.1" id="Layer_1" xmlns="http://www.w3.org/2000/svg" xmlns:xlink="http://www.w3.org/1999/xlink" x="0px" y="0px"
	 viewBox="0 0 511.998 511.998" style="enable-background:new 0 0 511.998 511.998;" xml:space="preserve">
<g>
	<g>
		<path d="M467.685,44.291c-59.056-59.056-155.147-59.053-214.203,0c-53.612,53.612-58.55,137.743-14.824,196.982l-83.604,83.604
			l-11.78-11.78c-8.848-8.849-23.196-8.848-32.045,0l-93.086,93.086c-24.164,24.165-24.164,63.484,0,87.648
			c24.224,24.223,63.427,24.221,87.648,0l93.086-93.086c8.848-8.848,8.845-23.202,0-32.045l-11.78-11.78l83.604-83.604
			c59.239,43.727,143.369,38.79,196.982-14.822C526.742,199.44,526.742,103.347,467.685,44.291z M411.141,201.95
			c-27.922,27.921-73.191,27.921-101.114,0c-27.922-27.921-27.922-73.191,0-101.114c27.922-27.922,73.191-27.922,101.114,0
			C439.061,128.759,439.061,174.029,411.141,201.95z"/>
	</g>
</g>
<g>
</g>
<g>
</g>
<g>
</g>
<g>
</g>
<g>
</g>
<g>
</g>
<g>
</g>
<g>
</g>
<g>
</g>
<g>
</g>
<g>
</g>
<g>
</g>
<g>
</g>
<g>
</g>
<g>
</g>
</svg>
