<?xml version="1.0" encoding="iso-8859-1"?>
<!-- Generator: Adobe Illustrator 19.0.0, SVG Export Plug-In . SVG Version: 6.00 Build 0)  -->
<svg version="1.1" id="Layer_1" xmlns="http://www.w3.org/2000/svg" xmlns:xlink="http://www.w3.org/1999/xlink" x="0px" y="0px"
	 viewBox="0 0 511.999 511.999" style="enable-background:new 0 0 511.999 511.999;" xml:space="preserve">
<g>
	<g>
		<g>
			<path d="M325.184,148.133c-9.918,0-17.958,8.041-17.958,17.958v82.392l64.854,49.061l30.292-22.915
				c7.908-5.984,19.171-4.423,25.156,3.489c5.984,7.909,4.421,19.172-3.489,25.156l-22.193,16.789l22.193,16.789
				c18.926,14.316-2.722,42.977-21.669,28.645l-95.146-71.975v121.847c0,20.008,16.277,36.285,36.285,36.285h132.203
				c20.008,0,36.285-16.277,36.285-36.285v-80.416C512,231.939,428.195,148.133,325.184,148.133z"/>
			<path d="M87.96,336.849l22.193-16.789L87.96,303.272c-7.91-5.984-9.471-17.247-3.489-25.156c5.986-7.909,17.25-9.47,25.157-3.486
				l30.291,22.915l64.854-49.061v-82.392c0-9.918-8.041-17.958-17.958-17.958C83.805,148.133,0,231.939,0,334.949v80.416
				c0,20.008,16.277,36.286,36.285,36.286h132.203c20.008,0,36.285-16.277,36.285-36.286V293.519l-95.146,71.975
				C90.706,379.809,69.01,351.185,87.96,336.849z"/>
			<path d="M273.958,78.303c0-9.918-8.041-17.958-17.958-17.958c-9.918,0-17.958,8.041-17.958,17.958v145.015l-33.267,25.166v45.036
				L256,254.769l51.226,38.751v-45.036l-33.267-25.166V78.303z"/>
		</g>
	</g>
</g>
<g>
</g>
<g>
</g>
<g>
</g>
<g>
</g>
<g>
</g>
<g>
</g>
<g>
</g>
<g>
</g>
<g>
</g>
<g>
</g>
<g>
</g>
<g>
</g>
<g>
</g>
<g>
</g>
<g>
</g>
</svg>
