<?xml version="1.0" encoding="iso-8859-1"?>
<!-- Generator: Adobe Illustrator 19.0.0, SVG Export Plug-In . SVG Version: 6.00 Build 0)  -->
<svg version="1.1" id="Layer_1" xmlns="http://www.w3.org/2000/svg" xmlns:xlink="http://www.w3.org/1999/xlink" x="0px" y="0px"
	 viewBox="0 0 512 512" style="enable-background:new 0 0 512 512;" xml:space="preserve">
<g>
	<g>
		<path d="M474.543,0H37.457c-11.28,0-20.426,9.145-20.426,20.426v471.149c0,11.28,9.145,20.426,20.426,20.426h375.788
			c11.28,0,20.426-9.145,20.426-20.426V131.007h40.873c11.28,0,20.426-9.145,20.426-20.426V20.426
			C494.968,9.145,485.823,0,474.543,0z M174.322,133.962h30.604v-30.604c0-11.28,9.145-20.426,20.426-20.426
			s20.426,9.145,20.426,20.426v30.604h30.604c11.28,0,20.426,9.145,20.426,20.426s-9.145,20.426-20.426,20.426h-30.604v30.604
			c0,11.28-9.145,20.426-20.426,20.426s-20.426-9.145-20.426-20.426v-30.604h-30.604c-11.28,0-20.426-9.145-20.426-20.426
			S163.04,133.962,174.322,133.962z M339.097,435.225H111.603c-11.28,0-20.426-9.145-20.426-20.426s9.145-20.426,20.426-20.426
			h227.494c11.28,0,20.426,9.145,20.426,20.426S350.379,435.225,339.097,435.225z M339.097,372.54H111.603
			c-11.28,0-20.426-9.145-20.426-20.426s9.145-20.425,20.426-20.425h227.494c11.28,0,20.426,9.145,20.426,20.425
			S350.379,372.54,339.097,372.54z M339.097,309.855H111.603c-11.28,0-20.426-9.145-20.426-20.426s9.145-20.426,20.426-20.426
			h227.494c11.28,0,20.426,9.145,20.426,20.426S350.379,309.855,339.097,309.855z M454.116,90.156h-20.447V40.851h20.447V90.156z"/>
	</g>
</g>
<g>
</g>
<g>
</g>
<g>
</g>
<g>
</g>
<g>
</g>
<g>
</g>
<g>
</g>
<g>
</g>
<g>
</g>
<g>
</g>
<g>
</g>
<g>
</g>
<g>
</g>
<g>
</g>
<g>
</g>
</svg>
