<?xml version="1.0" encoding="iso-8859-1"?>
<!-- Generator: Adobe Illustrator 19.0.0, SVG Export Plug-In . SVG Version: 6.00 Build 0)  -->
<svg version="1.1" id="Layer_1" xmlns="http://www.w3.org/2000/svg" xmlns:xlink="http://www.w3.org/1999/xlink" x="0px" y="0px"
	 viewBox="0 0 511.997 511.997" style="enable-background:new 0 0 511.997 511.997;" xml:space="preserve">
<g>
	<g>
		<path d="M403.502,284.851v-64.658c0-57.557-46.826-104.383-104.383-104.383h-65.035V66.752c0-11.529-9.347-20.877-20.877-20.877
			h-30.268V20.877C182.939,9.347,173.592,0,162.062,0s-20.877,9.347-20.877,20.877v24.999h-30.267
			c-11.529,0-20.877,9.347-20.877,20.877c0,14.427,0,190.163,0,197.571c0,11.529,9.347,20.877,20.877,20.877h102.29
			c11.529,0,20.877-9.347,20.877-20.877c0-10.259,0-95.821,0-106.762h65.035c34.534,0,62.63,28.096,62.63,62.63v64.659
			c-29.329,7.571-52.467,30.707-60.038,60.03c-8.868,0-179.865,0.006-190.793,0.006c-11.529,0-20.877,9.347-20.877,20.877
			s9.347,20.877,20.877,20.877h81.416v20.925h-62.727c-46.073,0-83.555,37.483-83.555,83.555c0,11.529,9.347,20.877,20.877,20.877
			h315.697c11.529,0,20.877-9.347,20.877-20.877V446.68C486.651,425.217,486.868,306.368,403.502,284.851z M192.332,243.448h-60.537
			v-15.951h60.537V243.448z M234.088,407.568v-20.925h67.622c1.858,7.194,4.828,14.441,8.589,20.925H234.088z"/>
	</g>
</g>
<g>
</g>
<g>
</g>
<g>
</g>
<g>
</g>
<g>
</g>
<g>
</g>
<g>
</g>
<g>
</g>
<g>
</g>
<g>
</g>
<g>
</g>
<g>
</g>
<g>
</g>
<g>
</g>
<g>
</g>
</svg>
