<?xml version="1.0" encoding="iso-8859-1"?>
<!-- Generator: Adobe Illustrator 19.0.0, SVG Export Plug-In . SVG Version: 6.00 Build 0)  -->
<svg version="1.1" id="Layer_1" xmlns="http://www.w3.org/2000/svg" xmlns:xlink="http://www.w3.org/1999/xlink" x="0px" y="0px"
	 viewBox="0 0 512.001 512.001" style="enable-background:new 0 0 512.001 512.001;" xml:space="preserve">
<g>
	<g>
		<path d="M485.348,205.797c-31.799-16.93-67.033,3.947-73.056,34.787l-93.35,15.643c-13.791-37.772-49.088-62.257-88.113-63.018
			l-10.231-62.096c9.066-4.884,17.009-12.484,22.567-22.921v-0.001c14.544-27.312,4.208-61.183-23.1-75.725
			c-44.052-23.451-94.299,18.402-79.858,65.746c6.993,22.925,25.632,36.21,45.699,38.999l10.171,61.738
			c-54.64,19.779-80.328,83.929-51.357,136.572l-69.308,56.988c-0.51-0.295-1.017-0.593-1.54-0.871
			c-24.459-13.023-54.957-3.722-67.982,20.739c-13.024,24.459-3.721,54.957,20.739,67.982c24.467,13.027,54.959,3.714,67.98-20.739
			c6.798-12.768,7.501-27.176,3.154-39.89l69.229-56.922c45.867,38.898,117.695,25.753,146.573-28.474v-0.001
			c7.367-13.834,10.968-28.679,11.215-43.369l93.425-15.656c19.575,33.995,69.308,33.348,87.879-1.529l-0.001,0.001
			C519.145,249.259,509.866,218.852,485.348,205.797z"/>
	</g>
</g>
<g>
</g>
<g>
</g>
<g>
</g>
<g>
</g>
<g>
</g>
<g>
</g>
<g>
</g>
<g>
</g>
<g>
</g>
<g>
</g>
<g>
</g>
<g>
</g>
<g>
</g>
<g>
</g>
<g>
</g>
</svg>
