<?xml version="1.0" encoding="iso-8859-1"?>
<!-- Generator: Adobe Illustrator 19.0.0, SVG Export Plug-In . SVG Version: 6.00 Build 0)  -->
<svg version="1.1" id="Layer_1" xmlns="http://www.w3.org/2000/svg" xmlns:xlink="http://www.w3.org/1999/xlink" x="0px" y="0px"
	 viewBox="0 0 511.999 511.999" style="enable-background:new 0 0 511.999 511.999;" xml:space="preserve">
<g>
	<g>
		<g>
			<path d="M491.891,131.589H408.22c35.934-15.466,44.802-62.477,17.221-90.058c-43.232-43.235-114.325,5.758-89.918,61.481
				l-28.577,28.577H20.109C9.003,131.589,0,140.593,0,151.698c0,141.399,114.58,256.001,255.999,256.001
				c141.428,0,255.999-114.605,255.999-256.001C512,140.593,502.997,131.589,491.891,131.589z M397.003,91.475
				c-5.929,5.928-15.576,5.927-21.506,0c-5.928-5.929-5.928-15.576,0-21.506c5.931-5.929,15.575-5.928,21.506,0
				C402.931,75.899,402.931,85.546,397.003,91.475z"/>
			<path d="M344.623,446.784H167.377c-11.105,0-20.109,9.003-20.109,20.109s9.003,20.109,20.109,20.109h177.247
				c11.105,0,20.109-9.003,20.109-20.109C364.731,455.787,355.728,446.784,344.623,446.784z"/>
		</g>
	</g>
</g>
<g>
</g>
<g>
</g>
<g>
</g>
<g>
</g>
<g>
</g>
<g>
</g>
<g>
</g>
<g>
</g>
<g>
</g>
<g>
</g>
<g>
</g>
<g>
</g>
<g>
</g>
<g>
</g>
<g>
</g>
</svg>
