<?xml version="1.0" encoding="iso-8859-1"?>
<!-- Generator: Adobe Illustrator 19.0.0, SVG Export Plug-In . SVG Version: 6.00 Build 0)  -->
<svg version="1.1" id="Layer_1" xmlns="http://www.w3.org/2000/svg" xmlns:xlink="http://www.w3.org/1999/xlink" x="0px" y="0px"
	 viewBox="0 0 512 512" style="enable-background:new 0 0 512 512;" xml:space="preserve">
<g>
	<g>
		<path d="M474.609,0H37.391c-11.28,0-20.426,9.145-20.426,20.426v471.149c0,11.28,9.145,20.426,20.426,20.426
			c19.747,0,422.347,0,437.218,0c11.28,0,20.425-9.145,20.425-20.426V20.426C495.035,9.145,485.889,0,474.609,0z M235.686,133.962
			h30.604v-30.604c0-11.28,9.145-20.426,20.426-20.426s20.426,9.145,20.426,20.426v30.604h30.603
			c11.28,0,20.426,9.145,20.426,20.426s-9.145,20.426-20.426,20.426h-30.603v30.604c0,11.28-9.145,20.426-20.426,20.426
			s-20.426-9.145-20.426-20.426v-30.604h-30.604c-11.28,0-20.426-9.145-20.426-20.426S224.406,133.962,235.686,133.962z
			 M172.968,269.004h113.747c11.28,0,20.426,9.145,20.426,20.426s-9.145,20.426-20.426,20.426H172.968
			c-11.28,0-20.426-9.145-20.426-20.426S161.687,269.004,172.968,269.004z M78.396,471.149H57.817V40.851h20.579V471.149z
			 M400.463,435.225H172.968c-11.28,0-20.426-9.145-20.426-20.426s9.145-20.426,20.426-20.426h227.495
			c11.28,0,20.426,9.145,20.426,20.426S411.743,435.225,400.463,435.225z M400.463,372.54H172.968
			c-11.28,0-20.426-9.145-20.426-20.426s9.145-20.425,20.426-20.425h227.495c11.28,0,20.426,9.145,20.426,20.425
			S411.743,372.54,400.463,372.54z"/>
	</g>
</g>
<g>
</g>
<g>
</g>
<g>
</g>
<g>
</g>
<g>
</g>
<g>
</g>
<g>
</g>
<g>
</g>
<g>
</g>
<g>
</g>
<g>
</g>
<g>
</g>
<g>
</g>
<g>
</g>
<g>
</g>
</svg>
