<?xml version="1.0" encoding="iso-8859-1"?>
<!-- Generator: Adobe Illustrator 19.0.0, SVG Export Plug-In . SVG Version: 6.00 Build 0)  -->
<svg version="1.1" id="Layer_1" xmlns="http://www.w3.org/2000/svg" xmlns:xlink="http://www.w3.org/1999/xlink" x="0px" y="0px"
	 viewBox="0 0 512.001 512.001" style="enable-background:new 0 0 512.001 512.001;" xml:space="preserve">
<g>
	<g>
		<g>
			<path d="M87.012,234.063h168.985c0.001,0,0.004,0,0.005,0c0.001,0,0.004,0,0.005,0h168.985c10.447,0,18.917-8.47,18.917-18.917
				c0-65.772-34.048-126.108-89.577-160.146V18.917C354.331,8.47,345.861,0,335.414,0H176.589c-10.447,0-18.917,8.47-18.917,18.917
				v36.084c-55.53,34.038-89.577,94.373-89.577,160.146C68.095,225.594,76.563,234.063,87.012,234.063z M195.505,37.834h120.99
				c0,31.307,0.006,33.426-0.023,44.971H195.526C195.5,71.087,195.505,69.457,195.505,37.834z M191.148,120.639h129.706
				c6.105,38.766-23.839,75.591-64.853,75.591C214.924,196.23,185.06,159.297,191.148,120.639z"/>
			<path d="M356.269,274.723c-62.855-28.909-133.8-28.89-195.448-2.257C73.76,310.012,15.77,396.049,15.77,493.083
				c0,10.447,8.47,18.917,18.917,18.917h281.809V408.173c0-10.447,8.47-18.917,18.917-18.917h137.27
				C449.177,340.27,409.107,299.256,356.269,274.723z M256.001,355.924l-57.998-56.826c37.849-11.349,78.159-11.35,115.996-0.001
				L256.001,355.924z"/>
			<path d="M487.041,427.091H354.329v84.91h122.985c10.447,0,18.917-8.47,18.917-18.917
				C496.232,470.234,493.028,448.092,487.041,427.091z"/>
		</g>
	</g>
</g>
<g>
</g>
<g>
</g>
<g>
</g>
<g>
</g>
<g>
</g>
<g>
</g>
<g>
</g>
<g>
</g>
<g>
</g>
<g>
</g>
<g>
</g>
<g>
</g>
<g>
</g>
<g>
</g>
<g>
</g>
</svg>
