<?xml version="1.0" encoding="iso-8859-1"?>
<!-- Generator: Adobe Illustrator 19.0.0, SVG Export Plug-In . SVG Version: 6.00 Build 0)  -->
<svg version="1.1" id="Layer_1" xmlns="http://www.w3.org/2000/svg" xmlns:xlink="http://www.w3.org/1999/xlink" x="0px" y="0px"
	 viewBox="0 0 512 512" style="enable-background:new 0 0 512 512;" xml:space="preserve">
<g>
	<g>
		<path d="M505.98,75.418L436.58,6.02c-8.026-8.027-21.051-8.025-29.074,0l-67.225,67.227l-87.883,46.768
			c-1.221,0.65-2.843,1.746-4.017,2.792C13.418,332.136,78.076,271.881,6.02,343.937c-8.023,8.022-8.029,21.047,0,29.074
			c5.249,5.251,127.472,127.472,132.968,132.968c8.027,8.027,21.045,8.029,29.074,0
			c214.104-233.581,175.327-190.947,221.131-242.361c1.058-1.187,2.109-2.741,2.792-4.019l46.767-87.878l67.229-67.228
			C514.009,96.464,514.004,83.44,505.98,75.418z M64.88,373.723l-15.249-15.249l18.826-18.826l15.249,15.249L64.88,373.723z
			 M109.202,418.045l-15.248-15.248l18.826-18.826l15.248,15.248L109.202,418.045z M153.523,462.367l-15.249-15.248l18.826-18.826
			l15.249,15.249L153.523,462.367z M240.98,313.426c8.029,8.029,8.029,21.045,0,29.074c-8.027,8.029-21.045,8.03-29.074,0
			l-6.668-6.668l-6.668,6.668c-8.029,8.027-21.045,8.03-29.074,0c-8.029-8.029-8.029-21.045,0-29.074l6.668-6.668l-6.668-6.668
			c-8.029-8.027-8.029-21.045,0-29.074c8.027-8.029,21.045-8.029,29.074,0l6.668,6.668l6.668-6.668
			c8.029-8.027,21.048-8.027,29.074,0c8.029,8.029,8.029,21.045,0,29.074l-6.668,6.668L240.98,313.426z M337.618,259.696
			l-85.314-85.316l8.938-7.962l84.34,84.338L337.618,259.696z M368.737,215.762l-72.499-72.499l52.633-28.01l47.877,47.877
			L368.737,215.762z"/>
	</g>
</g>
<g>
</g>
<g>
</g>
<g>
</g>
<g>
</g>
<g>
</g>
<g>
</g>
<g>
</g>
<g>
</g>
<g>
</g>
<g>
</g>
<g>
</g>
<g>
</g>
<g>
</g>
<g>
</g>
<g>
</g>
</svg>
