<?xml version="1.0" encoding="iso-8859-1"?>
<!-- Generator: Adobe Illustrator 19.0.0, SVG Export Plug-In . SVG Version: 6.00 Build 0)  -->
<svg version="1.1" id="Layer_1" xmlns="http://www.w3.org/2000/svg" xmlns:xlink="http://www.w3.org/1999/xlink" x="0px" y="0px"
	 viewBox="0 0 511.999 511.999" style="enable-background:new 0 0 511.999 511.999;" xml:space="preserve">
<g>
	<g>
		<path d="M506.803,257.992l-44.362-44.361l-39.043-74.536c-0.829-1.603-2.13-3.313-3.216-4.4l-86.189-86.189
			c-6.93-6.93-18.167-6.93-25.098,0l-82.426,82.426c-6.931,6.928-6.926,18.174,0,25.098l6.019,6.019l-20.652,20.652l-6.017-6.019
			c-6.93-6.93-18.167-6.93-25.098,0c-5.75,5.749-169.803,169.801-175.523,175.523c-6.931,6.93-6.931,18.167,0,25.098l86.189,86.189
			c6.931,6.931,18.167,6.931,25.098,0c10.61-10.61,169.231-169.231,175.522-175.522c6.931-6.93,6.931-18.167,0-25.098l-6.018-6.017
			l20.653-20.653l6.019,6.017c1.072,1.074,2.785,2.379,4.378,3.206l74.557,39.053l44.362,44.361c6.931,6.931,18.166,6.932,25.098,0
			l45.75-45.75C513.734,276.161,513.728,264.915,506.803,257.992z M103.935,425.844l-61.091-61.09l14.329-14.328l61.09,61.089
			L103.935,425.844z M240.031,289.75l-61.091-61.09l14.328-14.328l61.09,61.09L240.031,289.75z M260.89,231.755l-23.956-23.956
			l20.652-20.652l23.956,23.956L260.89,231.755z M398.903,248.24l-44.078-23.089l48.288-48.288l23.089,44.078
			C409.764,237.379,414.185,232.957,398.903,248.24z"/>
	</g>
</g>
<g>
</g>
<g>
</g>
<g>
</g>
<g>
</g>
<g>
</g>
<g>
</g>
<g>
</g>
<g>
</g>
<g>
</g>
<g>
</g>
<g>
</g>
<g>
</g>
<g>
</g>
<g>
</g>
<g>
</g>
</svg>
