<?xml version="1.0" encoding="iso-8859-1"?>
<!-- Generator: Adobe Illustrator 19.0.0, SVG Export Plug-In . SVG Version: 6.00 Build 0)  -->
<svg version="1.1" id="Layer_1" xmlns="http://www.w3.org/2000/svg" xmlns:xlink="http://www.w3.org/1999/xlink" x="0px" y="0px"
	 viewBox="0 0 511.999 511.999" style="enable-background:new 0 0 511.999 511.999;" xml:space="preserve">
<g>
	<g>
		<g>
			<path d="M504.527,123.802c-124.105-84.45-119.661-84.018-128.801-83.621h-65.651c-9.345,0-17.132,7.51-17.076,16.854
				c0.121,20.503-16.523,37.22-36.998,37.22s-37.118-16.718-36.997-37.22c0.055-9.344-7.732-16.854-17.077-16.854h-65.66
				c-9.398-0.403-7.611,1.161-128.792,83.621c-7.136,4.855-9.526,14.271-5.573,21.943l50.09,97.163
				c5.149,9.987,18.4,12.371,26.704,4.774l39.849-36.451v69.681c0,6.287,5.097,11.384,11.384,11.384h252.145
				c6.287,0,11.384-5.097,11.384-11.384v-69.681l39.849,36.451c8.325,7.615,21.571,5.181,26.704-4.775l50.09-97.163
				C514.054,138.074,511.662,128.658,504.527,123.802z"/>
			<path d="M366.984,353.376l-12.935,18.92c-5.322,7.784-15.946,9.782-23.735,4.459c-7.786-5.322-9.782-15.949-4.459-23.735
				l5.991-8.764c5.166-7.556-0.245-17.809-9.398-17.809H129.927c-6.287,0-11.384,5.097-11.384,11.384v116.964
				c0,9.431,7.646,17.076,17.076,17.076H376.38c9.431,0,17.076-7.646,17.076-17.076c0-102.949,2.559-86.448-7.677-101.42
				C381.258,346.764,371.504,346.764,366.984,353.376z"/>
		</g>
	</g>
</g>
<g>
</g>
<g>
</g>
<g>
</g>
<g>
</g>
<g>
</g>
<g>
</g>
<g>
</g>
<g>
</g>
<g>
</g>
<g>
</g>
<g>
</g>
<g>
</g>
<g>
</g>
<g>
</g>
<g>
</g>
</svg>
