<?xml version="1.0" encoding="iso-8859-1"?>
<!-- Generator: Adobe Illustrator 19.0.0, SVG Export Plug-In . SVG Version: 6.00 Build 0)  -->
<svg version="1.1" id="Layer_1" xmlns="http://www.w3.org/2000/svg" xmlns:xlink="http://www.w3.org/1999/xlink" x="0px" y="0px"
	 viewBox="0 0 512 512" style="enable-background:new 0 0 512 512;" xml:space="preserve">
<g>
	<g>
		<g>
			<path d="M256,0C114.841,0,0,114.841,0,256s114.841,256,256,256s256-114.841,256-256S397.159,0,256,0z M256,474.316
				C135.62,474.316,37.684,376.38,37.684,256S135.62,37.684,256,37.684S474.316,135.62,474.316,256S376.38,474.316,256,474.316z"/>
			<path d="M307.103,195.706c-11.428,0-20.726,9.298-20.726,20.726c0,11.428,9.298,20.726,20.726,20.726
				c11.428,0,20.726-9.298,20.726-20.726S318.531,195.706,307.103,195.706z"/>
			<path d="M256,66.324C151.411,66.324,66.324,151.412,66.324,256S151.411,445.677,256,445.677S445.677,360.588,445.677,256
				S360.589,66.324,256,66.324z M172.179,158.612c10.082-2.581,20.347,3.49,22.932,13.57l12.565,48.989
				c2.586,10.079-3.49,20.347-13.57,22.932c-10.085,2.585-20.348-3.493-22.932-13.57l-12.565-48.989
				C156.024,171.465,162.099,161.198,172.179,158.612z M208.891,353.67c-21.853,0-39.568-17.715-39.568-39.568
				s17.715-39.568,39.568-39.568s39.568,17.715,39.568,39.568S230.744,353.67,208.891,353.67z M357.442,333.482
				c-1.653,9.099-9.586,15.474-18.515,15.474c-1.119,0-2.253-0.1-3.393-0.308l-41.452-7.537
				c-10.237-1.86-17.029-11.669-15.167-21.908c1.859-10.239,11.673-17.031,21.908-15.168l41.452,7.537
				C352.513,313.434,359.304,323.243,357.442,333.482z M307.103,274.842c-32.208,0-58.41-26.203-58.41-58.41
				s26.202-58.41,58.41-58.41s58.41,26.203,58.41,58.41S339.311,274.842,307.103,274.842z"/>
		</g>
	</g>
</g>
<g>
</g>
<g>
</g>
<g>
</g>
<g>
</g>
<g>
</g>
<g>
</g>
<g>
</g>
<g>
</g>
<g>
</g>
<g>
</g>
<g>
</g>
<g>
</g>
<g>
</g>
<g>
</g>
<g>
</g>
</svg>
