<?xml version="1.0" encoding="iso-8859-1"?>
<!-- Generator: Adobe Illustrator 19.0.0, SVG Export Plug-In . SVG Version: 6.00 Build 0)  -->
<svg version="1.1" id="Layer_1" xmlns="http://www.w3.org/2000/svg" xmlns:xlink="http://www.w3.org/1999/xlink" x="0px" y="0px"
	 viewBox="0 0 512 512" style="enable-background:new 0 0 512 512;" xml:space="preserve">
<g>
	<g>
		<g>
			<path d="M208.139,274.448H12.301C5.507,274.448,0,279.955,0,286.749v57.429c0,60.681,48.454,111.033,109.133,111.621
				c61.272,0.594,111.307-49.077,111.307-110.215v-58.835C220.44,279.955,214.933,274.448,208.139,274.448z"/>
			<path d="M111.309,56.201C50.036,55.607,0,105.278,0,166.416v58.826c0,6.794,5.507,12.301,12.301,12.301H208.14
				c6.793,0,12.301-5.507,12.301-12.301v-57.421C220.441,107.14,171.987,56.789,111.309,56.201z"/>
			<path d="M499.698,274.448H303.86c-6.794,0-12.301,5.507-12.301,12.301v57.429c0,60.681,48.454,111.033,109.133,111.621
				c61.272,0.594,111.307-49.077,111.307-110.215v-58.835C511.999,279.955,506.492,274.448,499.698,274.448z"/>
			<path d="M402.867,56.201c-61.273-0.594-111.309,49.077-111.309,110.215v58.826c0,6.794,5.507,12.301,12.301,12.301h195.839
				c6.794,0,12.301-5.507,12.301-12.301v-57.421C512,107.14,463.546,56.789,402.867,56.201z"/>
		</g>
	</g>
</g>
<g>
</g>
<g>
</g>
<g>
</g>
<g>
</g>
<g>
</g>
<g>
</g>
<g>
</g>
<g>
</g>
<g>
</g>
<g>
</g>
<g>
</g>
<g>
</g>
<g>
</g>
<g>
</g>
<g>
</g>
</svg>
