<?xml version="1.0" encoding="iso-8859-1"?>
<!-- Generator: Adobe Illustrator 19.0.0, SVG Export Plug-In . SVG Version: 6.00 Build 0)  -->
<svg version="1.1" id="Layer_1" xmlns="http://www.w3.org/2000/svg" xmlns:xlink="http://www.w3.org/1999/xlink" x="0px" y="0px"
	 viewBox="0 0 511.999 511.999" style="enable-background:new 0 0 511.999 511.999;" xml:space="preserve">
<g>
	<g>
		<path d="M480.988,31.013c-41.347-41.35-108.63-41.35-149.977,0L265.945,96.08l-41.042-41.042
			c-21.171-21.171-53.25,10.849-32.047,32.047l41.042,41.042c-24.135,24.135-103.66,103.66-131.791,131.791
			c-5.38,5.38-2.18-1.379-45.477,133.078c-2.53,7.863-0.94,16.482,6.449,23.872L6.947,472.999
			c-21.176,21.171,10.85,53.242,32.047,32.047l56.125-56.125c7.401,7.404,16.036,8.987,23.886,6.458
			C253.671,412,246.728,415.241,252.079,409.893c65.318-65.299,34.23-34.216,131.8-131.786l41.039,41.037
			c20.999,20.999,53.514-10.583,32.047-32.047l-41.042-41.042l65.065-65.065C522.336,139.642,522.336,72.362,480.988,31.013z
			 M294.205,303.686l-85.881-85.892l57.616-57.616c18.426,18.423,69.696,69.685,85.892,85.882L294.205,303.686z"/>
	</g>
</g>
<g>
</g>
<g>
</g>
<g>
</g>
<g>
</g>
<g>
</g>
<g>
</g>
<g>
</g>
<g>
</g>
<g>
</g>
<g>
</g>
<g>
</g>
<g>
</g>
<g>
</g>
<g>
</g>
<g>
</g>
</svg>
