<?xml version="1.0" encoding="iso-8859-1"?>
<!-- Generator: Adobe Illustrator 19.0.0, SVG Export Plug-In . SVG Version: 6.00 Build 0)  -->
<svg version="1.1" id="Layer_1" xmlns="http://www.w3.org/2000/svg" xmlns:xlink="http://www.w3.org/1999/xlink" x="0px" y="0px"
	 viewBox="0 0 511.999 511.999" style="enable-background:new 0 0 511.999 511.999;" xml:space="preserve">
<g>
	<g>
		<g>
			<path d="M282.504,166.246h-7.773v-7.774c0-10.345-8.387-18.732-18.732-18.732s-18.732,8.387-18.732,18.732v7.774h-7.773
				c-10.345,0-18.732,8.387-18.732,18.732s8.387,18.732,18.732,18.732h7.773v7.773c0,10.345,8.387,18.732,18.732,18.732
				s18.732-8.387,18.732-18.732v-7.773h7.773c10.345,0,18.732-8.387,18.732-18.732S292.849,166.246,282.504,166.246z"/>
			<path d="M256,0C154.002,0,71.022,82.981,71.022,184.977c0,83.689,121.584,256.466,170.121,319.705
				c7.494,9.757,22.221,9.756,29.714,0c48.537-63.239,170.121-235.867,170.121-319.705C440.977,82.981,357.996,0,256,0z
				 M256,279.534c-52.222,0-94.556-42.334-94.556-94.556S203.778,90.421,256,90.421s94.556,42.334,94.556,94.556
				C350.556,237.199,308.222,279.534,256,279.534z"/>
		</g>
	</g>
</g>
<g>
</g>
<g>
</g>
<g>
</g>
<g>
</g>
<g>
</g>
<g>
</g>
<g>
</g>
<g>
</g>
<g>
</g>
<g>
</g>
<g>
</g>
<g>
</g>
<g>
</g>
<g>
</g>
<g>
</g>
</svg>
