<?xml version="1.0" encoding="iso-8859-1"?>
<!-- Generator: Adobe Illustrator 19.0.0, SVG Export Plug-In . SVG Version: 6.00 Build 0)  -->
<svg version="1.1" id="Layer_1" xmlns="http://www.w3.org/2000/svg" xmlns:xlink="http://www.w3.org/1999/xlink" x="0px" y="0px"
	 viewBox="0 0 512 512" style="enable-background:new 0 0 512 512;" xml:space="preserve">
<g>
	<g>
		<path d="M495.301,106.89L405.11,16.699c-22.264-22.264-58.305-22.266-80.57,0C317.862,23.377,26.718,314.521,16.699,324.54
			c-22.263,22.263-22.267,58.305,0,80.57l90.191,90.191c22.264,22.264,58.305,22.266,80.57,0
			c8.072-8.072,301.308-301.308,307.841-307.841C517.565,165.196,517.567,129.157,495.301,106.89z M312.198,131.484
			c6.603-6.603,17.309-6.603,23.913,0c6.603,6.603,6.603,17.309,0,23.913c-6.603,6.603-17.309,6.603-23.913,0
			S305.594,138.087,312.198,131.484z M110.987,380.52c-6.603,6.603-17.309,6.603-23.913,0s-6.603-17.309,0-23.913
			s17.309-6.603,23.913,0C117.592,363.21,117.592,373.917,110.987,380.52z M155.394,424.927c-6.603,6.603-17.309,6.603-23.913,0
			c-6.603-6.603-6.603-17.309,0-23.913c6.603-6.603,17.309-6.603,23.913,0C161.997,407.616,161.997,418.322,155.394,424.927z
			 M155.398,336.11c-6.603,6.603-17.309,6.603-23.913,0c-6.603-6.603-6.603-17.309,0-23.913c6.603-6.603,17.309-6.603,23.913,0
			S162.001,329.507,155.398,336.11z M199.803,380.517c-6.603,6.603-17.309,6.603-23.913,0c-6.603-6.603-6.603-17.309,0-23.913
			c6.603-6.603,17.309-6.603,23.913,0C206.407,363.206,206.407,373.913,199.803,380.517z M276.094,347.999L164.002,235.907
			l71.905-71.905l112.091,112.091L276.094,347.999z M380.516,199.803c-6.603,6.603-17.309,6.603-23.913,0s-6.603-17.309,0-23.913
			s17.309-6.603,23.913,0C387.119,182.494,387.119,193.2,380.516,199.803z M380.52,110.987c-6.603,6.603-17.309,6.603-23.913,0
			s-6.603-17.309,0-23.913s17.309-6.603,23.913,0S387.123,104.384,380.52,110.987z M424.925,155.394
			c-6.603,6.603-17.309,6.603-23.913,0c-6.603-6.603-6.603-17.309,0-23.913c6.603-6.603,17.309-6.603,23.913,0
			C431.53,138.084,431.53,148.791,424.925,155.394z"/>
	</g>
</g>
<g>
</g>
<g>
</g>
<g>
</g>
<g>
</g>
<g>
</g>
<g>
</g>
<g>
</g>
<g>
</g>
<g>
</g>
<g>
</g>
<g>
</g>
<g>
</g>
<g>
</g>
<g>
</g>
<g>
</g>
</svg>
