<?xml version="1.0" encoding="iso-8859-1"?>
<!-- Generator: Adobe Illustrator 19.0.0, SVG Export Plug-In . SVG Version: 6.00 Build 0)  -->
<svg version="1.1" id="Layer_1" xmlns="http://www.w3.org/2000/svg" xmlns:xlink="http://www.w3.org/1999/xlink" x="0px" y="0px"
	 viewBox="0 0 512 512" style="enable-background:new 0 0 512 512;" xml:space="preserve">
<g>
	<g>
		<path d="M256,0C114.841,0,0,114.841,0,256s114.841,256,256,256s256-114.841,256-256S397.159,0,256,0z M157.211,450.653
			C82.685,412.676,33.158,333.43,38.017,244.024l173.021,9.346c-1.586,27.517,19.731,40.538,24.528,42.892L157.211,450.653z
			 M234.101,216.639L139.487,71.456c71.315-45.185,163.514-45.476,235.665,1.702l-94.565,145.108
			C266.486,209.06,248.561,208.576,234.101,216.639z M354.788,450.652l-78.405-154.489c-0.001,0-0.003,0.001-0.004,0.001
			c14.633-7.44,24.664-22.627,24.664-40.166c0-0.816-0.025-1.625-0.068-2.429l173.019-9.344
			C478.719,332.64,430.097,412.277,354.788,450.652z"/>
	</g>
</g>
<g>
</g>
<g>
</g>
<g>
</g>
<g>
</g>
<g>
</g>
<g>
</g>
<g>
</g>
<g>
</g>
<g>
</g>
<g>
</g>
<g>
</g>
<g>
</g>
<g>
</g>
<g>
</g>
<g>
</g>
</svg>
