<?xml version="1.0" encoding="iso-8859-1"?>
<!-- Generator: Adobe Illustrator 19.0.0, SVG Export Plug-In . SVG Version: 6.00 Build 0)  -->
<svg version="1.1" id="Layer_1" xmlns="http://www.w3.org/2000/svg" xmlns:xlink="http://www.w3.org/1999/xlink" x="0px" y="0px"
	 viewBox="0 0 512 512" style="enable-background:new 0 0 512 512;" xml:space="preserve">
<g>
	<g>
		<path d="M475.728,119.297l-37.642,37.642l-26.592-26.593l37.642-37.642c19.697-19.693-10.093-49.525-29.81-29.81l-37.642,37.642
			l-26.592-26.592l37.641-37.641c19.697-19.693-10.093-49.525-29.81-29.81L310.378,59.04c-8.232,8.231-8.232,21.578,0,29.81
			l41.497,41.497L187.05,295.171c-38.983-18.716-85.084,5.977-90.835,48.934C16.533,333.006-32.333,429.922,24.89,487.141
			c57,57.003,154.162,8.559,143.036-71.325c13.385-1.792,26.306-7.809,36.572-18.073h0.001
			c19.648-19.648,23.759-49.026,12.362-72.762l164.823-164.825l41.497,41.497c8.224,8.226,21.58,8.232,29.81,0l52.547-52.547
			C525.235,129.413,495.445,99.581,475.728,119.297z"/>
	</g>
</g>
<g>
</g>
<g>
</g>
<g>
</g>
<g>
</g>
<g>
</g>
<g>
</g>
<g>
</g>
<g>
</g>
<g>
</g>
<g>
</g>
<g>
</g>
<g>
</g>
<g>
</g>
<g>
</g>
<g>
</g>
</svg>
