<?xml version="1.0" encoding="iso-8859-1"?>
<!-- Generator: Adobe Illustrator 19.0.0, SVG Export Plug-In . SVG Version: 6.00 Build 0)  -->
<svg version="1.1" id="Layer_1" xmlns="http://www.w3.org/2000/svg" xmlns:xlink="http://www.w3.org/1999/xlink" x="0px" y="0px"
	 viewBox="0 0 512.001 512.001" style="enable-background:new 0 0 512.001 512.001;" xml:space="preserve">
<g>
	<g>
		<path d="M506.449,357.147L383.107,233.803l78.973-78.978c7.369-7.371,7.369-19.32-0.001-26.689L361.667,27.724
			c-3.505-3.505-8.451-5.549-13.395-5.526H163.741c-4.959-0.016-9.906,2.027-13.405,5.526L49.925,128.135
			c-7.371,7.371-7.371,19.32,0,26.69l78.978,78.978L5.554,357.146c-12.274,12.27-2.778,33.282,14.554,32.18l85.882-5.513
			l-5.515,85.882c-1.111,17.313,19.896,26.837,32.178,14.555l123.353-123.34l123.34,123.34c12.174,12.176,33.301,2.908,32.18-14.554
			l-5.515-85.882l85.882,5.515C509.263,390.416,518.702,369.399,506.449,357.147z M302.757,59.944l-46.753,46.753L209.25,59.944
			H302.757z M141.35,422.176l3.683-57.364c0.728-11.333-8.668-20.772-20.043-20.044l-57.357,3.683
			c184.164-184.145,95.402-95.39,280.69-280.69l73.72,73.722C309.604,253.937,378.09,185.447,141.35,422.176z"/>
	</g>
</g>
<g>
</g>
<g>
</g>
<g>
</g>
<g>
</g>
<g>
</g>
<g>
</g>
<g>
</g>
<g>
</g>
<g>
</g>
<g>
</g>
<g>
</g>
<g>
</g>
<g>
</g>
<g>
</g>
<g>
</g>
</svg>
