<?xml version="1.0" encoding="iso-8859-1"?>
<!-- Generator: Adobe Illustrator 19.0.0, SVG Export Plug-In . SVG Version: 6.00 Build 0)  -->
<svg version="1.1" id="Layer_1" xmlns="http://www.w3.org/2000/svg" xmlns:xlink="http://www.w3.org/1999/xlink" x="0px" y="0px"
	 viewBox="0 0 512 512" style="enable-background:new 0 0 512 512;" xml:space="preserve">
<g>
	<g>
		<path d="M418.221,10.514c-2.253,0-318.399,0-324.45,0c-51.702,0-93.766,42.063-93.766,93.766C0.006,115.932,0,459.603,0,480.917
			c0,27.411,41.488,27.44,41.488,0v-49.09h115.346v49.09c0,27.411,41.488,27.44,41.488,0v-49.09H313.67v49.09
			c0,27.411,41.488,27.44,41.488,0v-49.09h115.346v49.09c0,27.411,41.488,27.44,41.488,0c0-51.799,0.008,4.716,0.008-376.637
			C512,52.577,469.931,10.514,418.221,10.514z M156.831,390.339H41.493v-67.324h115.338V390.339z M156.833,137.347H41.493V104.28
			c0-28.826,23.452-52.278,52.278-52.278h63.062V137.347z M313.671,390.339H198.319v-67.324h115.352V390.339z M313.671,137.347
			H198.319V52.002h115.352V137.347z M355.159,52.002h63.062c28.834,0,52.291,23.452,52.291,52.278v33.067H355.159V52.002z
			 M470.512,390.339H355.159v-67.324h115.353V390.339z"/>
	</g>
</g>
<g>
</g>
<g>
</g>
<g>
</g>
<g>
</g>
<g>
</g>
<g>
</g>
<g>
</g>
<g>
</g>
<g>
</g>
<g>
</g>
<g>
</g>
<g>
</g>
<g>
</g>
<g>
</g>
<g>
</g>
</svg>
