<?xml version="1.0" encoding="iso-8859-1"?>
<!-- Generator: Adobe Illustrator 19.0.0, SVG Export Plug-In . SVG Version: 6.00 Build 0)  -->
<svg version="1.1" id="Layer_1" xmlns="http://www.w3.org/2000/svg" xmlns:xlink="http://www.w3.org/1999/xlink" x="0px" y="0px"
	 viewBox="0 0 512.002 512.002" style="enable-background:new 0 0 512.002 512.002;" xml:space="preserve">
<g>
	<g>
		<path d="M438.608,6.667c-442.059,442.059,10.16-10.151-406.5,406.509c-22.619,22.617-22.623,59.238,0,81.859
			c22.619,22.62,59.239,22.623,81.859,0c214.088-214.089,161.441-161.446,232.698-232.683c8.473-8.469,8.479-22.225,0.001-30.701
			l-35.82-35.82l19.053-19.053l35.817,35.817c8.472,8.474,22.225,8.476,30.7,0c74.581-74.581,100.445-90.417,100.445-139.41
			C496.86,31.772,463.532-18.26,438.608,6.667z M282.823,264.785l-20.465-20.464l17.786-17.791l20.47,20.47L282.823,264.785z
			 M381.066,166.543l-20.468-20.467l89.925-89.925C463.982,93.949,437.404,110.206,381.066,166.543z"/>
	</g>
</g>
<g>
</g>
<g>
</g>
<g>
</g>
<g>
</g>
<g>
</g>
<g>
</g>
<g>
</g>
<g>
</g>
<g>
</g>
<g>
</g>
<g>
</g>
<g>
</g>
<g>
</g>
<g>
</g>
<g>
</g>
</svg>
