<?xml version="1.0" encoding="iso-8859-1"?>
<!-- Generator: Adobe Illustrator 19.0.0, SVG Export Plug-In . SVG Version: 6.00 Build 0)  -->
<svg version="1.1" id="Layer_1" xmlns="http://www.w3.org/2000/svg" xmlns:xlink="http://www.w3.org/1999/xlink" x="0px" y="0px"
	 viewBox="0 0 511.999 511.999" style="enable-background:new 0 0 511.999 511.999;" xml:space="preserve">
<g>
	<g>
		<g>
			<path d="M144.154,359.058c-32.249-24.723-79.916-9.239-90.681,30.894c-13.289,49.538,39.751,90.428,84.355,64.69
				C174.625,433.407,175.843,383.347,144.154,359.058z M97.858,419.404c-13.783-10.582-6.32-33.003,11.27-33.003
				c8.982,0,16.957,6.599,18.193,16.001v0.003C129.438,418.525,110.752,429.303,97.858,419.404z"/>
			<path d="M367.846,359.058c-31.65,24.259-30.516,74.322,6.327,95.583c44.604,25.738,97.642-15.151,84.355-64.69
				C447.761,349.82,400.095,334.335,367.846,359.058z M414.142,419.404c-10.782,8.278-29.462,3.145-29.462-17.003
				c1.236-9.404,9.21-16.001,18.192-16.001C420.462,386.399,427.925,408.822,414.142,419.404z"/>
			<path d="M487.918,339.553c-26.836-34.956-71.067-49.603-113.908-37.903l-25.294-32.944l66.007-85.975
				c42.968-55.968,32.342-135.829-23.46-178.674c-8.585-6.595-20.907-4.978-27.503,3.613L256.027,147.985L256,147.95l-0.027,0.035
				L148.242,7.669c-6.597-8.591-18.918-10.208-27.503-3.613C64.936,46.901,54.309,126.763,97.279,182.73l66.007,85.975
				l-25.295,32.944c-42.841-11.7-87.072,2.946-113.908,37.903C-11.904,386.42-3.056,453.821,43.805,489.802
				c46.982,36.07,114.183,27.263,150.257-19.743c0.012-0.016,0.024-0.031,0.035-0.047l61.874-80.582l0.029,0.037l0.029-0.037
				l61.874,80.582c0.012,0.016,0.023,0.031,0.035,0.047c36.075,47.005,103.274,55.813,150.257,19.743
				C515.056,453.821,523.902,386.42,487.918,339.553z M117.923,472.159c-59.6,7.834-99.575-60.721-62.723-108.716
				c14.7-19.15,37.797-28.853,61.746-26.029C196.265,346.753,196.8,461.787,117.923,472.159z M394.077,472.159
				c-78.849-10.367-78.359-125.403,0.977-134.745c23.949-2.823,47.047,6.881,61.746,26.029
				C493.651,411.438,453.677,479.993,394.077,472.159z"/>
		</g>
	</g>
</g>
<g>
</g>
<g>
</g>
<g>
</g>
<g>
</g>
<g>
</g>
<g>
</g>
<g>
</g>
<g>
</g>
<g>
</g>
<g>
</g>
<g>
</g>
<g>
</g>
<g>
</g>
<g>
</g>
<g>
</g>
</svg>
