<?xml version="1.0" encoding="iso-8859-1"?>
<!-- Generator: Adobe Illustrator 19.0.0, SVG Export Plug-In . SVG Version: 6.00 Build 0)  -->
<svg version="1.1" id="Layer_1" xmlns="http://www.w3.org/2000/svg" xmlns:xlink="http://www.w3.org/1999/xlink" x="0px" y="0px"
	 viewBox="0 0 512 512" style="enable-background:new 0 0 512 512;" xml:space="preserve">
<g>
	<g>
		<path d="M436.203,169.117c-34.893,0-64.337,23.707-73.116,55.855c-38.588,0-62.516,28.893-62.516,59.839v131.647
			c0,10.998-8.948,19.946-19.946,19.946H156.021c-10.998,0-19.946-8.948-19.946-19.946V274.22
			c23.424-4.033,45.01-15.123,62.174-32.275c21.938-21.938,34.021-51.103,34.021-82.122c0-85.591-0.005-18.984-0.005-104.174
			c0-11.016-8.931-19.946-19.946-19.946h-40.779c-11.016,0-19.946,8.931-19.946,19.946c0,11.016,8.931,19.946,19.946,19.946h20.832
			v18.617h-46.536c-11.016,0-19.946,8.929-19.946,19.946v45.663c0,5.375-4.379,9.747-9.76,9.747c-5.375,0-9.747-4.374-9.747-9.747
			v-45.663c0-11.017-8.931-19.946-19.946-19.946H39.893V75.596h20.832c11.016,0,19.946-8.931,19.946-19.946
			c0-11.016-8.931-19.946-19.946-19.946H19.946C8.931,35.703,0,44.633,0,55.649v104.172c0,57.234,41.619,104.924,96.182,114.409
			v142.227c0,32.995,26.844,59.839,59.839,59.839h124.604c32.995,0,59.839-26.845,59.839-59.839V284.811
			c0-10.998,8.947-19.946,19.946-19.946h2.68c8.782,32.142,38.224,55.845,73.113,55.845c41.794,0,75.797-34.002,75.797-75.797
			C512,203.119,477.998,169.117,436.203,169.117z"/>
	</g>
</g>
<g>
</g>
<g>
</g>
<g>
</g>
<g>
</g>
<g>
</g>
<g>
</g>
<g>
</g>
<g>
</g>
<g>
</g>
<g>
</g>
<g>
</g>
<g>
</g>
<g>
</g>
<g>
</g>
<g>
</g>
</svg>
