<?xml version="1.0" encoding="iso-8859-1"?>
<!-- Generator: Adobe Illustrator 19.0.0, SVG Export Plug-In . SVG Version: 6.00 Build 0)  -->
<svg version="1.1" id="Layer_1" xmlns="http://www.w3.org/2000/svg" xmlns:xlink="http://www.w3.org/1999/xlink" x="0px" y="0px"
	 viewBox="0 0 511.999 511.999" style="enable-background:new 0 0 511.999 511.999;" xml:space="preserve">
<g>
	<g>
		<path d="M393.557,44.498c-48.176-56.935-133.91-53.109-178.549,1.908c-16.632-7.919-28.487-17.487-32.752-26.75
			c-6.442-13.994-21.448-21.854-36.482-19.116l-33.098,6.016c-20.138,3.661-32.35,24.378-25.748,43.645
			c14.136,41.248,51.221,74.606,105.047,94.807c3.367,15.184,9.202,26.844,15.058,36.039c-37.306,24.27-43.674,76.189-12.734,108.64
			c-18.908,16.073-32.154,37.811-37.757,62.157c-56.524,9.004-101.221,47.52-117.28,113.155
			c-4.603,18.817,7.77,37.678,26.908,40.944l32.606,5.568c17.155,2.931,33.529-7.601,38.037-24.548
			c6.523-24.519,19.547-36.253,41.718-37.121C299.27,603.147,622.918,315.484,393.557,44.498z"/>
	</g>
</g>
<g>
</g>
<g>
</g>
<g>
</g>
<g>
</g>
<g>
</g>
<g>
</g>
<g>
</g>
<g>
</g>
<g>
</g>
<g>
</g>
<g>
</g>
<g>
</g>
<g>
</g>
<g>
</g>
<g>
</g>
</svg>
