<?xml version="1.0" encoding="iso-8859-1"?>
<!-- Generator: Adobe Illustrator 19.0.0, SVG Export Plug-In . SVG Version: 6.00 Build 0)  -->
<svg version="1.1" id="Layer_1" xmlns="http://www.w3.org/2000/svg" xmlns:xlink="http://www.w3.org/1999/xlink" x="0px" y="0px"
	 viewBox="0 0 511.999 511.999" style="enable-background:new 0 0 511.999 511.999;" xml:space="preserve">
<g>
	<g>
		<path d="M493.63,141.402H387.021V79.727c0-10.145-8.225-18.37-18.37-18.37H143.349c-10.145,0-18.37,8.225-18.37,18.37v61.675
			H18.37c-10.145,0-18.37,8.225-18.37,18.37v85.76c0,10.145,8.225,18.37,18.37,18.37h67.306v87.923
			c-19.137,7.396-32.753,25.98-32.753,47.695c0,28.19,22.933,51.122,51.123,51.122s51.123-22.933,51.123-51.122
			c0-21.715-13.616-40.299-32.753-47.695v-17.782h267.167v17.782c-19.137,7.396-32.753,25.98-32.753,47.695
			c0,28.19,22.934,51.122,51.123,51.122c28.19,0,51.123-22.933,51.123-51.122c0-21.715-13.615-40.299-32.753-47.695v-87.923h67.306
			c10.145,0,18.37-8.225,18.37-18.37v-85.76C512,149.627,503.775,141.402,493.63,141.402z M161.719,98.097h188.562v43.304H161.719
			V98.097z M122.416,297.304v-33.401h267.167v33.401H122.416z"/>
	</g>
</g>
<g>
</g>
<g>
</g>
<g>
</g>
<g>
</g>
<g>
</g>
<g>
</g>
<g>
</g>
<g>
</g>
<g>
</g>
<g>
</g>
<g>
</g>
<g>
</g>
<g>
</g>
<g>
</g>
<g>
</g>
</svg>
