<?xml version="1.0" encoding="iso-8859-1"?>
<!-- Generator: Adobe Illustrator 19.0.0, SVG Export Plug-In . SVG Version: 6.00 Build 0)  -->
<svg version="1.1" id="Layer_1" xmlns="http://www.w3.org/2000/svg" xmlns:xlink="http://www.w3.org/1999/xlink" x="0px" y="0px"
	 viewBox="0 0 511.999 511.999" style="enable-background:new 0 0 511.999 511.999;" xml:space="preserve">
<g>
	<g>
		<path d="M505.376,107.359c-10.598-10.598-89.38-89.38-100.741-100.739c-20.167-20.169-50.715,10.337-30.524,30.524l12.241,12.241
			l-58.862,58.864l-51.042-51.042c-20.162-20.165-50.719,10.33-30.524,30.524l23.534,23.534
			C167.043,213.697,224.574,156.16,71.038,309.696c-8.429,8.429-8.429,22.095,0,30.524l35.107,35.107L6.322,475.15
			c-8.429,8.429-8.429,22.095,0,30.524c8.428,8.429,22.095,8.431,30.524,0l99.824-99.824l35.107,35.107
			c8.429,8.431,22.096,8.429,30.524,0c125.405-125.404,197.716-197.703,198.434-198.419l23.532,23.532
			c20.162,20.165,50.719-10.33,30.524-30.524l-51.042-51.042l58.862-58.864l12.241,12.241
			C495.018,158.052,525.567,127.546,505.376,107.359z M275.056,307.157c-15.847-15.84-20.899-18.81-16.25-23.457
			c31.122-31.171,9.061-59.023-16.319-84.404l57.497-57.507l70.227,70.227L275.056,307.157z M373.225,153.98
			c-9.334-9.333-5.882-5.882-15.211-15.211l58.862-58.862c9.068,9.067,9.49,9.488,15.211,15.209L373.225,153.98z"/>
	</g>
</g>
<g>
</g>
<g>
</g>
<g>
</g>
<g>
</g>
<g>
</g>
<g>
</g>
<g>
</g>
<g>
</g>
<g>
</g>
<g>
</g>
<g>
</g>
<g>
</g>
<g>
</g>
<g>
</g>
<g>
</g>
</svg>
