<?xml version="1.0" encoding="iso-8859-1"?>
<!-- Generator: Adobe Illustrator 19.0.0, SVG Export Plug-In . SVG Version: 6.00 Build 0)  -->
<svg version="1.1" id="Layer_1" xmlns="http://www.w3.org/2000/svg" xmlns:xlink="http://www.w3.org/1999/xlink" x="0px" y="0px"
	 viewBox="0 0 512 512" style="enable-background:new 0 0 512 512;" xml:space="preserve">
<g>
	<g>
		<path d="M493.186,109.798c25.086-25.084,25.086-65.9,0-90.984c-25.084-25.084-65.9-25.084-90.984,0
			c-19.394,19.392-23.779,48.185-13.186,71.845l-17.983,17.983L292.763,30.37c-21.355-21.355-53.711,10.943-32.325,32.325
			l24.929,24.929c-35.813,35.822-38.145,38.159-75.433,75.442c-2.976,2.975-2.976,7.799,0,10.775l46.328,46.328
			c21.36,21.355-10.944,53.705-32.325,32.325l-46.329-46.329c-2.976-2.976-7.799-2.976-10.775,0l-7.543,7.543
			c-2.976,2.976-2.976,7.801,0,10.775l46.329,46.329c21.36,21.355-10.944,53.705-32.325,32.325l-46.332-46.332
			c-2.976-2.975-7.799-2.975-10.775,0l-40.955,40.95c-8.473,8.474-9.481,22.844,0.279,32.606l36.901,36.9L6.695,472.979
			c-8.927,8.925-8.927,23.399,0,32.325c8.928,8.927,23.399,8.927,32.325,0l105.715-105.716l37.18,37.18
			c8.922,8.925,23.396,8.928,32.325,0.002c191.311-191.295,142.842-142.827,210.138-210.135l24.925,24.925
			c21.354,21.354,53.714-10.94,32.325-32.325l-78.271-78.271l17.983-17.981C445.247,133.685,473.952,129.031,493.186,109.798z
			 M434.527,51.139c7.264-7.261,19.071-7.26,26.333,0c7.261,7.261,7.261,19.074,0,26.333
			C443.458,94.867,417.122,68.544,434.527,51.139z M361.873,224.497l-74.359-74.359l30.171-30.18l74.36,74.359L361.873,224.497z"/>
	</g>
</g>
<g>
</g>
<g>
</g>
<g>
</g>
<g>
</g>
<g>
</g>
<g>
</g>
<g>
</g>
<g>
</g>
<g>
</g>
<g>
</g>
<g>
</g>
<g>
</g>
<g>
</g>
<g>
</g>
<g>
</g>
</svg>
