<?xml version="1.0" encoding="iso-8859-1"?>
<!-- Generator: Adobe Illustrator 19.0.0, SVG Export Plug-In . SVG Version: 6.00 Build 0)  -->
<svg version="1.1" id="Layer_1" xmlns="http://www.w3.org/2000/svg" xmlns:xlink="http://www.w3.org/1999/xlink" x="0px" y="0px"
	 viewBox="0 0 512 512" style="enable-background:new 0 0 512 512;" xml:space="preserve">
<g>
	<g>
		<g>
			<path d="M458.032,55.212H53.968C24.163,55.212,0,79.375,0,109.181V222.27c0,7.452,6.04,13.492,13.492,13.492h485.016
				c7.452,0,13.492-6.04,13.492-13.492V109.181C512,79.375,487.838,55.212,458.032,55.212z M122.874,196.872
				c-16.765,0-30.356-13.591-30.356-30.356s13.591-30.356,30.356-30.356c16.765,0,30.356,13.591,30.356,30.356
				C153.229,183.282,139.639,196.872,122.874,196.872z M255.996,196.872c-16.765,0-30.356-13.591-30.356-30.356
				s13.591-30.356,30.356-30.356s30.356,13.591,30.356,30.356C286.352,183.282,272.761,196.872,255.996,196.872z M389.118,196.872
				c-16.765,0-30.356-13.591-30.356-30.356s13.591-30.356,30.356-30.356s30.356,13.591,30.356,30.356
				C419.474,183.282,405.883,196.872,389.118,196.872z"/>
			<path d="M498.508,276.238H13.492C6.04,276.238,0,282.279,0,289.73v113.089c0,29.805,24.163,53.968,53.968,53.968h404.063
				c29.805,0,53.968-24.163,53.968-53.968V289.73C512,282.279,505.96,276.238,498.508,276.238z M122.874,377.423
				c-16.765,0-30.356-13.591-30.356-30.356c0-16.765,13.591-30.356,30.356-30.356c16.765,0,30.356,13.591,30.356,30.356
				C153.229,363.833,139.639,377.423,122.874,377.423z M255.996,377.423c-16.765,0-30.356-13.591-30.356-30.356
				c0-16.765,13.591-30.356,30.356-30.356s30.356,13.591,30.356,30.356C286.352,363.833,272.761,377.423,255.996,377.423z
				 M389.118,377.423c-16.765,0-30.356-13.591-30.356-30.356c0-16.765,13.591-30.356,30.356-30.356s30.356,13.591,30.356,30.356
				C419.474,363.833,405.883,377.423,389.118,377.423z"/>
		</g>
	</g>
</g>
<g>
</g>
<g>
</g>
<g>
</g>
<g>
</g>
<g>
</g>
<g>
</g>
<g>
</g>
<g>
</g>
<g>
</g>
<g>
</g>
<g>
</g>
<g>
</g>
<g>
</g>
<g>
</g>
<g>
</g>
</svg>
