<?xml version="1.0" encoding="iso-8859-1"?>
<!-- Generator: Adobe Illustrator 19.0.0, SVG Export Plug-In . SVG Version: 6.00 Build 0)  -->
<svg version="1.1" id="Layer_1" xmlns="http://www.w3.org/2000/svg" xmlns:xlink="http://www.w3.org/1999/xlink" x="0px" y="0px"
	 viewBox="0 0 511.999 511.999" style="enable-background:new 0 0 511.999 511.999;" xml:space="preserve">
<g>
	<g>
		<g>
			<path d="M397.159,329.417c-20.707-20.707-54.22-20.708-74.927-0.001l-14.342,14.341c-14.731,14.73-38.566,14.73-53.298,0
				l-86.297-86.297c-14.731-14.73-14.73-38.571,0-53.3l14.338-14.339c20.71-20.707,20.707-54.225,0.001-74.928L150.82,83.079
				c-20.658-20.659-54.271-20.658-74.928,0c-59.963,59.963-56.798,56.268-58.789,60.15C-13.59,203.099-2.25,275.287,45.323,322.86
				L189.19,466.727c67.132,67.134,163.977,45.237,184.65,24.565l55.132-55.133c20.71-20.707,20.707-54.224,0.001-74.928
				L397.159,329.417z"/>
			<path d="M346.249,194.091l92.347-92.347c18.687-18.685-9.572-47.004-28.288-28.288l-92.348,92.347
				C299.271,184.489,327.538,212.804,346.249,194.091z"/>
			<path d="M492.165,231.06H361.566c-26.432,0-26.46,40.006,0,40.006h130.599C518.596,271.066,518.624,231.06,492.165,231.06z"/>
			<path d="M280.994,150.488V19.889c0-26.432-40.006-26.46-40.006,0v130.6C240.988,176.92,280.994,176.948,280.994,150.488z"/>
		</g>
	</g>
</g>
<g>
</g>
<g>
</g>
<g>
</g>
<g>
</g>
<g>
</g>
<g>
</g>
<g>
</g>
<g>
</g>
<g>
</g>
<g>
</g>
<g>
</g>
<g>
</g>
<g>
</g>
<g>
</g>
<g>
</g>
</svg>
