<?xml version="1.0" encoding="iso-8859-1"?>
<!-- Generator: Adobe Illustrator 19.0.0, SVG Export Plug-In . SVG Version: 6.00 Build 0)  -->
<svg version="1.1" id="Layer_1" xmlns="http://www.w3.org/2000/svg" xmlns:xlink="http://www.w3.org/1999/xlink" x="0px" y="0px"
	 viewBox="0 0 512 512" style="enable-background:new 0 0 512 512;" xml:space="preserve">
<g>
	<g>
		<g>
			<path d="M270.408,313.104V74.616C270.408,33.474,236.936,0,195.792,0c-41.137,0-74.604,33.472-74.604,74.616v238.484
				C42.546,381.907,91.292,512,195.792,512C300.267,512,349.051,381.94,270.408,313.104z M233.31,207.303h-75.024V74.616
				c0-20.688,16.825-37.518,37.506-37.518c20.687,0,37.518,16.83,37.518,37.518V207.303z"/>
			<path d="M342.889,88.22h68.227c10.244,0,18.549-8.305,18.549-18.549s-8.305-18.549-18.549-18.549h-68.227
				c-10.244,0-18.549,8.305-18.549,18.549S332.645,88.22,342.889,88.22z"/>
			<path d="M342.889,166.311h43.298c10.244,0,18.549-8.305,18.549-18.549s-8.305-18.549-18.549-18.549h-43.298
				c-10.244,0-18.549,8.305-18.549,18.549S332.645,166.311,342.889,166.311z"/>
			<path d="M386.187,207.305h-43.298c-24.511,0-24.537,37.098,0,37.098h43.298c10.244,0,18.549-8.305,18.549-18.549
				C404.736,215.61,396.431,207.305,386.187,207.305z"/>
			<path d="M411.116,285.396h-68.227c-10.244,0-18.549,8.305-18.549,18.549c0,10.244,8.305,18.549,18.549,18.549h68.227
				c10.244,0,18.549-8.305,18.549-18.549C429.665,293.701,421.36,285.396,411.116,285.396z"/>
		</g>
	</g>
</g>
<g>
</g>
<g>
</g>
<g>
</g>
<g>
</g>
<g>
</g>
<g>
</g>
<g>
</g>
<g>
</g>
<g>
</g>
<g>
</g>
<g>
</g>
<g>
</g>
<g>
</g>
<g>
</g>
<g>
</g>
</svg>
