<?xml version="1.0" encoding="iso-8859-1"?>
<!-- Generator: Adobe Illustrator 19.0.0, SVG Export Plug-In . SVG Version: 6.00 Build 0)  -->
<svg version="1.1" id="Layer_1" xmlns="http://www.w3.org/2000/svg" xmlns:xlink="http://www.w3.org/1999/xlink" x="0px" y="0px"
	 viewBox="0 0 511.999 511.999" style="enable-background:new 0 0 511.999 511.999;" xml:space="preserve">
<g>
	<g>
		<g>
			<path d="M475.513,305.981h-53.386c-26.695,0-27.114-40.519,0.573-40.519h52.813c4.045,0,7.207-3.537,6.715-7.553
				C469.581,154.417,387.304,72.139,283.812,59.492c-4.015-0.49-7.553,2.67-7.553,6.717v52.81c0,27.653-40.519,27.287-40.519,0.573
				V66.207c0-4.047-3.537-7.207-7.553-6.717C124.694,72.138,42.418,154.415,29.77,257.907c-0.49,4.016,2.67,7.553,6.715,7.553
				h52.813c27.654,0,27.287,40.519,0.573,40.519H36.486c-4.045,0-7.207,3.537-6.715,7.553
				c12.647,103.492,94.925,185.769,198.417,198.417c4.016,0.49,7.553-2.67,7.553-6.717v-52.813c0-27.653,40.519-27.289,40.519-0.573
				v53.386c0,4.047,3.537,7.207,7.553,6.717c103.492-12.647,185.769-94.925,198.417-198.417
				C482.72,309.518,479.56,305.981,475.513,305.981z M346.098,224.271l-58.367,58.368c1.809,18.873-13.018,34.963-31.731,34.963
				c-17.608,0-31.882-14.275-31.882-31.882c0-18.709,16.088-33.542,34.963-31.731l58.367-58.368
				C336.375,176.693,365.055,205.318,346.098,224.271z"/>
			<path d="M221.115,40.519h69.769c26.771,0,26.799-40.519,0-40.519h-69.769C194.344,0,194.315,40.519,221.115,40.519z"/>
		</g>
	</g>
</g>
<g>
</g>
<g>
</g>
<g>
</g>
<g>
</g>
<g>
</g>
<g>
</g>
<g>
</g>
<g>
</g>
<g>
</g>
<g>
</g>
<g>
</g>
<g>
</g>
<g>
</g>
<g>
</g>
<g>
</g>
</svg>
