<?xml version="1.0" encoding="iso-8859-1"?>
<!-- Generator: Adobe Illustrator 19.0.0, SVG Export Plug-In . SVG Version: 6.00 Build 0)  -->
<svg version="1.1" id="Layer_1" xmlns="http://www.w3.org/2000/svg" xmlns:xlink="http://www.w3.org/1999/xlink" x="0px" y="0px"
	 viewBox="0 0 512.001 512.001" style="enable-background:new 0 0 512.001 512.001;" xml:space="preserve">
<g>
	<g>
		<g>
			<path d="M506.221,121.392C501.135,116.306,395.68,10.85,390.617,5.788c-7.704-7.705-20.196-7.705-27.901,0L235.249,133.256
				c-7.705,7.705-7.705,20.196,0,27.901l40.333,40.334c-158.092,99.632-131.486,80.721-154.641,103.875
				c-2.569,2.569-2.569,6.733,0,9.3l76.401,76.402c2.569,2.569,6.733,2.569,9.3,0l14.179-14.179
				c192.031-121.046,122.71-64.907,285.398-227.596C513.927,141.588,513.927,129.097,506.221,121.392z M307.001,177.106l-29.9-29.9
				l14.588-14.588l29.9,29.9L307.001,177.106z M349.491,134.62l-29.901-29.901l14.589-14.589l29.901,29.901L349.491,134.62z
				 M395.391,88.718l-3.41,3.41l-29.901-29.901l14.588-14.586l29.901,29.9L395.391,88.718z"/>
			<path d="M93.041,342.567c-2.569-2.567-6.732-2.567-9.3,0l-65.979,65.978c-22.659,22.657-23.4,58.336-3.585,81.802
				c22.976,27.212,63.866,29.323,90.026,3.161l65.239-65.239c2.569-2.569,2.569-6.733,0-9.3L93.041,342.567z"/>
		</g>
	</g>
</g>
<g>
</g>
<g>
</g>
<g>
</g>
<g>
</g>
<g>
</g>
<g>
</g>
<g>
</g>
<g>
</g>
<g>
</g>
<g>
</g>
<g>
</g>
<g>
</g>
<g>
</g>
<g>
</g>
<g>
</g>
</svg>
