<?xml version="1.0" encoding="iso-8859-1"?>
<!-- Generator: Adobe Illustrator 19.0.0, SVG Export Plug-In . SVG Version: 6.00 Build 0)  -->
<svg version="1.1" id="Layer_1" xmlns="http://www.w3.org/2000/svg" xmlns:xlink="http://www.w3.org/1999/xlink" x="0px" y="0px"
	 viewBox="0 0 511.999 511.999" style="enable-background:new 0 0 511.999 511.999;" xml:space="preserve">
<g>
	<g>
		<path d="M490.083,140.694c0.003-99.034-99.816-167.824-190.981-130.295c-4.255,1.752-5.809,6.989-3.168,10.758l40.345,57.539
			c16.296,23.234-18.857,47.946-35.18,24.667l-46.565-66.407c-0.044-0.064-0.079-0.132-0.123-0.196
			C228.625,13.062,194.52-0.26,158.856,0.147C83.35,1.074,21.922,64.124,21.922,140.694c0,2.494-3.134-18.28,48.672,311.587
			c8.164,62.247,89.186,81.691,124.757,30.05l40.64-58.994c9.679-14.053,30.358-14.035,40.024,0l40.64,58.995
			c35.6,51.674,116.599,32.155,124.757-30.051C493.008,123.755,490.083,143.199,490.083,140.694z M143.727,298.142
			c-10.669,0-19.92-7.94-21.287-18.801L104.836,139.64c-1.484-11.772,6.856-22.518,18.629-24c11.762-1.495,22.518,6.858,24,18.629
			l17.604,139.701C166.682,286.764,156.722,298.142,143.727,298.142z"/>
	</g>
</g>
<g>
</g>
<g>
</g>
<g>
</g>
<g>
</g>
<g>
</g>
<g>
</g>
<g>
</g>
<g>
</g>
<g>
</g>
<g>
</g>
<g>
</g>
<g>
</g>
<g>
</g>
<g>
</g>
<g>
</g>
</svg>
