<?xml version="1.0" encoding="iso-8859-1"?>
<!-- Generator: Adobe Illustrator 19.0.0, SVG Export Plug-In . SVG Version: 6.00 Build 0)  -->
<svg version="1.1" id="Layer_1" xmlns="http://www.w3.org/2000/svg" xmlns:xlink="http://www.w3.org/1999/xlink" x="0px" y="0px"
	 viewBox="0 0 512 512" style="enable-background:new 0 0 512 512;" xml:space="preserve">
<g>
	<g>
		<path d="M505.37,122.648L389.352,6.631c-8.835-8.837-23.18-8.843-32.022,0C345.765,18.195,52.78,311.179,39.532,324.427
			c-8.843,8.843-8.843,23.179,0,32.022l4.349,4.349l-21.638,21.638c-29.655,29.656-29.661,77.661,0,107.319
			c29.658,29.66,77.66,29.661,107.319,0l21.638-21.638l4.351,4.351c8.843,8.843,23.179,8.843,32.022,0
			c12.875-12.875,305.341-305.342,317.798-317.798C514.209,145.834,514.212,131.488,505.37,122.648z M97.541,457.734
			c-11.957,11.959-31.314,11.962-43.274,0c-11.959-11.96-11.959-31.314,0-43.276l21.638-21.638l43.274,43.276L97.541,457.734z
			 M323.071,220.952c-21.158,21.156-53.201-10.843-32.022-32.022l40.868-40.868l32.022,32.022L323.071,220.952z M421.949,174.049
			l-26.289-26.289l-31.42-31.42l-26.289-26.289l35.388-35.39l83.995,83.997L421.949,174.049z"/>
	</g>
</g>
<g>
</g>
<g>
</g>
<g>
</g>
<g>
</g>
<g>
</g>
<g>
</g>
<g>
</g>
<g>
</g>
<g>
</g>
<g>
</g>
<g>
</g>
<g>
</g>
<g>
</g>
<g>
</g>
<g>
</g>
</svg>
