<?xml version="1.0" encoding="iso-8859-1"?>
<!-- Generator: Adobe Illustrator 19.0.0, SVG Export Plug-In . SVG Version: 6.00 Build 0)  -->
<svg version="1.1" id="Layer_1" xmlns="http://www.w3.org/2000/svg" xmlns:xlink="http://www.w3.org/1999/xlink" x="0px" y="0px"
	 viewBox="0 0 512.001 512.001" style="enable-background:new 0 0 512.001 512.001;" xml:space="preserve">
<g>
	<g>
		<path d="M495.908,16.113c-21.482-21.482-56.253-21.486-77.736,0l-73.472,73.472c-39.825-3.901-77.385,20.376-90.117,58.346
			c-71.864,45.801-70.158,44.328-72.774,46.944l-0.093,0.093c-0.004,0.004-0.007,0.007-0.011,0.011L5.869,370.814
			c-7.799,7.798-7.799,20.444,0,28.243l107.095,107.095c7.799,7.799,20.442,7.799,28.243,0l175.939-175.939
			c2.49-2.49-0.995,2.438,46.949-72.776c37.937-12.722,62.247-50.26,58.341-90.114l73.475-73.473
			C517.339,72.415,517.339,37.545,495.908,16.113z M467.666,65.607c-85.357,85.356-89.429,84.74-86.018,99.353
			c5.969,25.549-10.171,50.251-34.795,55.884c-10.497,2.401-9.547,4.311-47.297,63.536l-71.913-71.913
			c58.985-37.596,61.113-36.705,63.534-47.298c5.661-24.745,30.446-40.739,55.884-34.795c14.464,3.37,13.132,0.205,99.356-86.016
			C460.503,30.263,481.676,51.592,467.666,65.607z"/>
	</g>
</g>
<g>
</g>
<g>
</g>
<g>
</g>
<g>
</g>
<g>
</g>
<g>
</g>
<g>
</g>
<g>
</g>
<g>
</g>
<g>
</g>
<g>
</g>
<g>
</g>
<g>
</g>
<g>
</g>
<g>
</g>
</svg>
