<?xml version="1.0" encoding="iso-8859-1"?>
<!-- Generator: Adobe Illustrator 19.0.0, SVG Export Plug-In . SVG Version: 6.00 Build 0)  -->
<svg version="1.1" id="Layer_1" xmlns="http://www.w3.org/2000/svg" xmlns:xlink="http://www.w3.org/1999/xlink" x="0px" y="0px"
	 viewBox="0 0 512 512" style="enable-background:new 0 0 512 512;" xml:space="preserve">
<g>
	<g>
		<path d="M364.058,220.747c0-24.422-16.346-45.099-38.671-51.666v-45.247h10.228c11.151,0,20.19-9.04,20.19-20.19V20.19
			c0-11.15-9.04-20.19-20.19-20.19H176.384c-11.15,0-20.19,9.04-20.19,20.19v83.454c0,11.151,9.04,20.19,20.19,20.19h10.228v45.247
			c-22.325,6.566-38.671,27.244-38.671,51.666c0,10.045,0,226.982,0,237.412c0,29.688,24.153,53.841,53.841,53.841h108.436
			c29.688,0,53.841-24.153,53.841-53.841C364.059,449.927,364.058,241.274,364.058,220.747z M323.677,282.664H188.321v-61.917
			c0-7.422,6.038-13.46,13.46-13.46h5.021c11.15,0,20.19-9.04,20.19-20.19v-63.262h58.014v63.262c0,11.15,9.04,20.19,20.19,20.19
			h5.021c7.422,0,13.46,6.038,13.46,13.46V282.664z"/>
	</g>
</g>
<g>
</g>
<g>
</g>
<g>
</g>
<g>
</g>
<g>
</g>
<g>
</g>
<g>
</g>
<g>
</g>
<g>
</g>
<g>
</g>
<g>
</g>
<g>
</g>
<g>
</g>
<g>
</g>
<g>
</g>
</svg>
