<?xml version="1.0" encoding="iso-8859-1"?>
<!-- Generator: Adobe Illustrator 19.0.0, SVG Export Plug-In . SVG Version: 6.00 Build 0)  -->
<svg version="1.1" id="Layer_1" xmlns="http://www.w3.org/2000/svg" xmlns:xlink="http://www.w3.org/1999/xlink" x="0px" y="0px"
	 viewBox="0 0 512 512" style="enable-background:new 0 0 512 512;" xml:space="preserve">
<g>
	<g>
		<path d="M364.058,220.747c0-24.422-16.347-45.1-38.671-51.666v-45.247h10.228c11.151,0,20.19-9.04,20.19-20.19V20.19
			c0-11.15-9.04-20.19-20.19-20.19H176.383c-11.15,0-20.19,9.04-20.19,20.19v83.454c0,11.151,9.04,20.19,20.19,20.19h10.228v45.247
			c-22.325,6.566-38.671,27.244-38.671,51.666v237.412c0,29.688,24.153,53.841,53.841,53.841h108.437
			c29.688,0,53.841-24.153,53.841-53.841V220.747H364.058z M302.727,40.381h12.697v43.073c-9.658,0-11.649-0.001-12.697-0.001
			V40.381z M249.652,40.381h12.696v43.071h-12.696V40.381z M196.574,40.381h12.697v43.071c-3.14,0,0.755,0.001-12.697,0.001V40.381z
			 M323.676,343.047h-43.424c-2.268,0-4.045-2.205-4.061-4.69c0-0.012-0.003-0.023-0.003-0.035
			c0-24.864-19.944-45.092-44.459-45.092H188.32v-72.485c0-7.422,6.038-13.46,13.46-13.46h5.021c11.15,0,20.19-9.04,20.19-20.19
			v-63.26h58.014v63.262c0,11.15,9.04,20.19,20.19,20.19h5.021c7.422,0,13.46,6.038,13.46,13.46V343.047z"/>
	</g>
</g>
<g>
</g>
<g>
</g>
<g>
</g>
<g>
</g>
<g>
</g>
<g>
</g>
<g>
</g>
<g>
</g>
<g>
</g>
<g>
</g>
<g>
</g>
<g>
</g>
<g>
</g>
<g>
</g>
<g>
</g>
</svg>
