<?xml version="1.0" encoding="iso-8859-1"?>
<!-- Generator: Adobe Illustrator 19.0.0, SVG Export Plug-In . SVG Version: 6.00 Build 0)  -->
<svg version="1.1" id="Layer_1" xmlns="http://www.w3.org/2000/svg" xmlns:xlink="http://www.w3.org/1999/xlink" x="0px" y="0px"
	 viewBox="0 0 512 512" style="enable-background:new 0 0 512 512;" xml:space="preserve">
<g>
	<g>
		<path d="M476.627,0H352.514c-12.096,0-21.902,9.806-21.902,21.902v9.741h-19.582c-41.241,0-78.472,22.837-97.162,59.598
			L16.135,480.15c-13.157,25.873,26.013,45.49,39.048,19.852l21.349-41.991h378.194v32.065c0,28.942,43.805,28.973,43.805,0
			c0-10.525,0-457.889,0-468.173C498.53,9.806,488.723,0,476.627,0z M454.725,414.206H98.803l100.008-196.7h255.914V414.206z
			 M454.725,173.701H221.083c42.188-82.978,41.359-98.253,109.528-98.253v9.738c0,12.096,9.806,21.902,21.902,21.902h102.211
			V173.701z"/>
	</g>
</g>
<g>
</g>
<g>
</g>
<g>
</g>
<g>
</g>
<g>
</g>
<g>
</g>
<g>
</g>
<g>
</g>
<g>
</g>
<g>
</g>
<g>
</g>
<g>
</g>
<g>
</g>
<g>
</g>
<g>
</g>
</svg>
