<?xml version="1.0" encoding="iso-8859-1"?>
<!-- Generator: Adobe Illustrator 19.0.0, SVG Export Plug-In . SVG Version: 6.00 Build 0)  -->
<svg version="1.1" id="Layer_1" xmlns="http://www.w3.org/2000/svg" xmlns:xlink="http://www.w3.org/1999/xlink" x="0px" y="0px"
	 viewBox="0 0 512 512" style="enable-background:new 0 0 512 512;" xml:space="preserve">
<g>
	<g>
		<path d="M456.891,0H55.109C24.722,0,0,24.722,0,55.109v401.782C0,487.278,24.722,512,55.109,512h401.782
			C487.278,512,512,487.278,512,456.891V55.109C512,24.722,487.278,0,456.891,0z M322.235,125.217L285.55,146.16
			c-2.846-2.877-5.821-5.337-8.884-7.36c0-7.474,3.487-34.81-20.666-34.81c-11.413,0-20.666,9.253-20.666,20.666V138.8
			c-3.063,2.022-6.037,4.483-8.884,7.36c-32.753-18.698-22.097-12.614-36.683-20.943C226.946,79.241,285.102,79.306,322.235,125.217
			z M375.732,374.853c-0.331,7.372-6.375,13.148-13.757,13.148H150.026c-7.383,0-13.426-5.775-13.757-13.152
			c-11.324-251.111-16.873-250.848,4.891-250.848c-4.079,9.552-0.426,20.817,8.76,26.062l71.793,40.987
			c9.915,5.661,22.534,2.211,28.192-7.699c2.29-4.009,4.472-6.664,6.095-8.284c1.624,1.62,3.807,4.276,6.095,8.284
			c13.156,23.04,29.19,7.13,99.986-33.289c9.346-5.336,12.76-16.693,8.76-26.062C394.685,123.999,386.609,133.627,375.732,374.853z"
			/>
	</g>
</g>
<g>
</g>
<g>
</g>
<g>
</g>
<g>
</g>
<g>
</g>
<g>
</g>
<g>
</g>
<g>
</g>
<g>
</g>
<g>
</g>
<g>
</g>
<g>
</g>
<g>
</g>
<g>
</g>
<g>
</g>
</svg>
