<?xml version="1.0" encoding="iso-8859-1"?>
<!-- Generator: Adobe Illustrator 19.0.0, SVG Export Plug-In . SVG Version: 6.00 Build 0)  -->
<svg version="1.1" id="Layer_1" xmlns="http://www.w3.org/2000/svg" xmlns:xlink="http://www.w3.org/1999/xlink" x="0px" y="0px"
	 viewBox="0 0 512 512" style="enable-background:new 0 0 512 512;" xml:space="preserve">
<g>
	<g>
		<g>
			<path d="M206.887,144.117c-25.94,8.588-44.706,33.069-44.706,61.851v29.606h44.706V144.117z"/>
			<path d="M305.112,144.117v91.457h44.706v-29.606C349.819,177.186,331.053,152.705,305.112,144.117z"/>
			<path d="M443.893,0H68.107c-11.28,0-20.426,9.145-20.426,20.426v471.149c0,11.28,9.145,20.426,20.426,20.426h270.957
				c5.418,0,10.613-2.151,14.442-5.983l104.829-104.829c3.832-3.83,5.983-9.025,5.983-14.444V20.426
				C464.319,9.145,455.175,0,443.893,0z M121.33,205.968c0-58.439,47.544-105.981,105.983-105.981
				c11.28,0,20.426,9.145,20.426,20.426v126.302c0,16.383-13.328,29.711-29.711,29.711h-66.985
				c-16.383,0-29.711-13.328-29.711-29.711v-40.746H121.33z M243.291,344.967c0,11.28-9.145,20.426-20.426,20.426h-80.613
				c-11.28,0-20.426-9.145-20.426-20.426s9.145-20.426,20.426-20.426h80.613C234.146,324.541,243.291,333.686,243.291,344.967z
				 M256,428.076H142.253c-11.28,0-20.426-9.145-20.426-20.425s9.145-20.426,20.426-20.426H256c11.28,0,20.426,9.145,20.426,20.426
				S267.28,428.076,256,428.076z M390.671,246.715h-0.001c0,16.383-13.328,29.711-29.711,29.711h-66.985
				c-16.383,0-29.711-13.328-29.711-29.711V120.413c0-11.28,9.145-20.426,20.426-20.426c58.439,0,105.983,47.542,105.983,105.981
				V246.715z"/>
		</g>
	</g>
</g>
<g>
</g>
<g>
</g>
<g>
</g>
<g>
</g>
<g>
</g>
<g>
</g>
<g>
</g>
<g>
</g>
<g>
</g>
<g>
</g>
<g>
</g>
<g>
</g>
<g>
</g>
<g>
</g>
<g>
</g>
</svg>
