<?xml version="1.0" encoding="iso-8859-1"?>
<!-- Generator: Adobe Illustrator 19.0.0, SVG Export Plug-In . SVG Version: 6.00 Build 0)  -->
<svg version="1.1" id="Layer_1" xmlns="http://www.w3.org/2000/svg" xmlns:xlink="http://www.w3.org/1999/xlink" x="0px" y="0px"
	 viewBox="0 0 512 512" style="enable-background:new 0 0 512 512;" xml:space="preserve">
<g>
	<g>
		<path d="M477.68,30.058H340.594c0-4.367,3.03-30.058-19.284-30.058H190.69c-21.701,0-19.284,23.919-19.284,30.058H34.32
			c-10.65,0-19.284,8.634-19.284,19.284v405.024l66.413-66.413c-17.258-17.247-17.258-45.221,0-62.467
			c17.247-17.258,45.221-17.258,62.477,0c17.247,17.247,17.247,45.221,0,62.467c17.247-17.247,45.221-17.247,62.467,0
			c17.258,17.258,17.258,45.231,0,62.477c-17.247,17.258-45.221,17.258-62.467,0L82.357,512h347.286l-61.569-61.569
			c-17.247,17.258-45.221,17.258-62.467,0c-17.258-17.247-17.258-45.221,0-62.477c17.247-17.247,45.221-17.247,62.467,0
			c-17.247-17.247-17.247-45.221,0-62.467c17.258-17.258,45.231-17.258,62.479,0c17.258,17.247,17.258,45.221,0,62.467
			l66.411,66.413V49.342C496.965,38.692,488.33,30.058,477.68,30.058z M295.844,249.883l-27.825,62.668
			c-4.626,10.419-19.412,10.419-24.037,0l-27.826-62.668c-3.861-8.696,2.504-18.486,12.019-18.486h55.651
			C293.34,231.396,299.705,241.187,295.844,249.883z M302.025,97.489h-92.049c0-5.698,0-53.47,0-58.92h92.049V97.489z"/>
	</g>
</g>
<g>
</g>
<g>
</g>
<g>
</g>
<g>
</g>
<g>
</g>
<g>
</g>
<g>
</g>
<g>
</g>
<g>
</g>
<g>
</g>
<g>
</g>
<g>
</g>
<g>
</g>
<g>
</g>
<g>
</g>
</svg>
