<?xml version="1.0" encoding="iso-8859-1"?>
<!-- Generator: Adobe Illustrator 19.0.0, SVG Export Plug-In . SVG Version: 6.00 Build 0)  -->
<svg version="1.1" id="Layer_1" xmlns="http://www.w3.org/2000/svg" xmlns:xlink="http://www.w3.org/1999/xlink" x="0px" y="0px"
	 viewBox="0 0 512 512" style="enable-background:new 0 0 512 512;" xml:space="preserve">
<path style="fill:#74B8E5;" d="M293.775,90.464h-75.55c-10.406,0-18.842-8.436-18.842-18.842v-52.78
	C199.383,8.436,207.819,0,218.225,0h75.55c10.406,0,18.842,8.436,18.842,18.842v52.78C312.616,82.028,304.18,90.464,293.775,90.464z
	"/>
<path style="fill:#3797D3;" d="M293.775,0H256v90.464h37.774c10.406,0,18.842-8.436,18.842-18.842v-52.78
	C312.616,8.436,304.18,0,293.775,0z"/>
<path style="fill:#C7E9F4;" d="M353.523,245.951H158.476c-13.212,0-22.324-13.276-17.588-25.6l59.749-155.487
	c2.797-7.279,9.79-12.084,17.588-12.084h75.55c17.775,0,14.085,2.967,77.337,167.57
	C375.851,232.683,366.727,245.951,353.523,245.951z"/>
<path style="fill:#80D0E1;" d="M371.112,220.35C307.734,55.419,311.509,52.78,293.775,52.78H256v193.171h97.524
	C366.737,245.951,375.849,232.674,371.112,220.35z"/>
<path style="fill:#74B8E5;" d="M353.523,512H158.476c-10.406,0-18.842-8.436-18.842-18.842V227.109
	c0-10.406,8.436-18.842,18.842-18.842h195.048c10.406,0,18.842,8.436,18.842,18.842v266.049
	C372.365,503.564,363.931,512,353.523,512z"/>
<path style="fill:#3797D3;" d="M353.523,208.267h-97.524V512h97.524c10.406,0,18.842-8.436,18.842-18.842V227.109
	C372.365,216.703,363.931,208.267,353.523,208.267z"/>
<path style="fill:#FF5E5B;" d="M303.072,341.291h-28.231V313.06c0-24.898-37.684-24.924-37.684,0v28.231h-28.231
	c-24.898,0-24.924,37.684,0,37.684h28.231v28.231c0,24.898,37.684,24.924,37.684,0v-28.231h28.231
	C327.97,378.975,327.996,341.291,303.072,341.291z"/>
<path style="fill:#FF423D;" d="M303.072,341.291h-28.231V313.06c0-10.406-8.436-18.842-18.842-18.842v131.829
	c10.406,0,18.842-8.436,18.842-18.842v-28.231h28.231C327.97,378.975,327.996,341.291,303.072,341.291z"/>
<g>
</g>
<g>
</g>
<g>
</g>
<g>
</g>
<g>
</g>
<g>
</g>
<g>
</g>
<g>
</g>
<g>
</g>
<g>
</g>
<g>
</g>
<g>
</g>
<g>
</g>
<g>
</g>
<g>
</g>
</svg>
