<?xml version="1.0" encoding="iso-8859-1"?>
<!-- Generator: Adobe Illustrator 19.0.0, SVG Export Plug-In . SVG Version: 6.00 Build 0)  -->
<svg version="1.1" id="Layer_1" xmlns="http://www.w3.org/2000/svg" xmlns:xlink="http://www.w3.org/1999/xlink" x="0px" y="0px"
	 viewBox="0 0 512 512" style="enable-background:new 0 0 512 512;" xml:space="preserve">
<path style="fill:#FF5E5B;" d="M219.633,123.125H112.315c-11.123,0-20.14-9.017-20.14-20.14V37.376
	c0-11.123,9.017-20.14,20.14-20.14h107.316c11.123,0,20.14,9.017,20.14,20.14v65.609
	C239.773,114.108,230.756,123.125,219.633,123.125z"/>
<path style="fill:#E8F2FB;" d="M172.87,401.12c-6.833,0-13.199-3.464-16.91-9.201c-15.997-24.725-52.06-24.786-68.087-0.003
	c-7.692,11.895-15.484,9.203-67.733,9.203c-11.123,0-20.14-9.017-20.14-20.14V102.992c0-11.123,9.017-20.14,20.14-20.14h291.657
	c11.123,0,20.14,9.017,20.14,20.14c0,336.108,5.312,254.126-17.192,288.926C306.665,404.411,305.834,401.12,172.87,401.12z"/>
<path style="fill:#C7E9F4;" d="M311.797,82.852h-55.815V401.12c42.341,0,51.152,2.569,58.764-9.203
	c22.493-34.781,17.192,47.223,17.192-288.926C331.937,91.868,322.92,82.852,311.797,82.852z"/>
<path style="fill:#FF5E5B;" d="M222.904,221.84h-36.789v-36.789c0-11.123-9.017-20.14-20.14-20.14s-20.14,9.017-20.14,20.14v36.789
	h-36.789c-11.123,0-20.14,9.017-20.14,20.14s9.017,20.14,20.14,20.14h36.789v36.789c0,11.123,9.017,20.14,20.14,20.14
	s20.14-9.017,20.14-20.14v-36.789h36.789c11.123,0,20.14-9.017,20.14-20.14S234.026,221.84,222.904,221.84z"/>
<path style="fill:#80D0E1;" d="M491.824,401.12c-97.487,0-101.059,3.061-108.992-9.201c-12.896-19.936-39.985-24.584-58.749-10.139
	c-6.081,4.681-14.294,5.5-21.179,2.112c-14.998-7.381-11.248-11.957-11.248-129.782c0-11.123,9.017-20.14,20.14-20.14h180.028
	c11.123,0,20.14,9.017,20.14,20.14v126.87C511.964,392.103,502.946,401.12,491.824,401.12z"/>
<path style="fill:#51B3DA;" d="M491.824,401.12c-97.487,0-101.059,3.061-108.992-9.201c-12.896-19.936-39.985-24.584-58.749-10.139
	c-6.081,4.681-14.294,5.5-21.179,2.112c-14.998-7.381-11.248-11.957-11.248-129.782c0-11.123,9.017-20.14,20.14-20.14h180.028
	c11.123,0,20.14,9.017,20.14,20.14v126.87C511.964,392.103,502.946,401.12,491.824,401.12z"/>
<path style="fill:#80D0E1;" d="M511.964,274.249H291.657v-170.77c0-18.091,20.23-26.655,33.051-15.946
	c194.58,162.538,187.255,152.857,187.255,165.838V274.249z"/>
<path style="fill:#51B3DA;" d="M51.018,452.544c-14.189-26.09-13.028-57.706,3.032-82.51
	c31.877-49.272,103.914-49.181,135.737,0.005c16.057,24.801,17.221,56.414,3.036,82.497
	C162.204,508.837,81.632,508.837,51.018,452.544z"/>
<path style="fill:#39A3DB;" d="M277.897,452.556c-14.193-26.098-13.033-57.718,3.024-82.521
	c31.823-49.143,103.911-49.185,135.737,0.005c16.056,24.801,17.221,56.414,3.037,82.496
	C389.079,508.825,308.512,508.848,277.897,452.556z"/>
<g>
</g>
<g>
</g>
<g>
</g>
<g>
</g>
<g>
</g>
<g>
</g>
<g>
</g>
<g>
</g>
<g>
</g>
<g>
</g>
<g>
</g>
<g>
</g>
<g>
</g>
<g>
</g>
<g>
</g>
</svg>
