<?xml version="1.0" encoding="iso-8859-1"?>
<!-- Generator: Adobe Illustrator 19.0.0, SVG Export Plug-In . SVG Version: 6.00 Build 0)  -->
<svg version="1.1" id="Layer_1" xmlns="http://www.w3.org/2000/svg" xmlns:xlink="http://www.w3.org/1999/xlink" x="0px" y="0px"
	 viewBox="0 0 512 512" style="enable-background:new 0 0 512 512;" xml:space="preserve">
<path style="fill:#74B8E5;" d="M427.318,333.574H84.67c-10.706,0-19.386-8.68-19.386-19.386V19.386C65.284,8.68,73.964,0,84.67,0
	h342.648c10.706,0,19.386,8.68,19.386,19.386v294.801C446.705,324.894,438.025,333.574,427.318,333.574z"/>
<path style="fill:#39A3DB;" d="M427.318,0H255.999v333.574h171.319c10.706,0,19.386-8.68,19.386-19.386V19.386
	C446.705,8.68,438.025,0,427.318,0z"/>
<path style="fill:#E8F2FB;" d="M427.333,454.556H255.007c-10.706,0-19.386-8.68-19.386-19.386v-41.095h-56.122v41.095
	c0,10.706-8.68,19.386-19.386,19.386H84.666c-10.706,0-19.386-8.68-19.386-19.386v-120.98c0-10.706,8.68-19.386,19.386-19.386
	h342.668c10.706,0,19.386,8.68,19.386,19.386v120.98C446.719,445.876,438.04,454.556,427.333,454.556z"/>
<path style="fill:#C7E9F4;" d="M427.333,294.803H255.999v159.753h171.333c10.706,0,19.386-8.68,19.386-19.386v-120.98
	C446.719,303.482,438.04,294.803,427.333,294.803z"/>
<path style="fill:#FF5E5B;" d="M241.299,506.303l-33.735-33.734l-33.747,33.736c-12.189,12.185-33.091,3.515-33.091-13.71V374.682
	c0-10.706,8.68-19.386,19.386-19.386h94.895c10.706,0,19.386,8.68,19.386,19.386v117.913
	C274.393,509.895,253.426,518.434,241.299,506.303z"/>
<path style="fill:#C7E9F4;" d="M369.387,394.067H142.612c-25.617,0-25.644-38.773,0-38.773h226.776
	C395.005,355.295,395.031,394.067,369.387,394.067z"/>
<path style="fill:#FF5E5B;" d="M304.427,147.4h-29.047v-29.046c0-25.617-38.773-25.643-38.773,0v29.047h-29.047
	c-25.617,0-25.644,38.773,0,38.773h29.047v29.046c0,25.617,38.773,25.644,38.773,0v-29.046h29.047
	C330.044,186.173,330.07,147.4,304.427,147.4z"/>
<path style="fill:#FF423D;" d="M255.999,355.345v156.589c10.562-0.54,18.394-9.241,18.394-19.339V374.682
	C274.393,364.309,266.242,355.865,255.999,355.345z"/>
<path style="fill:#80D0E1;" d="M369.387,355.295H255.999v38.773h113.387C395.005,394.067,395.031,355.295,369.387,355.295z"/>
<path style="fill:#FF423D;" d="M304.427,147.4h-29.047v-29.046c0-10.704-8.676-19.383-19.38-19.386v135.638
	c10.704-0.004,19.38-8.681,19.38-19.386v-29.046h29.047C330.044,186.173,330.07,147.4,304.427,147.4z"/>
<g>
</g>
<g>
</g>
<g>
</g>
<g>
</g>
<g>
</g>
<g>
</g>
<g>
</g>
<g>
</g>
<g>
</g>
<g>
</g>
<g>
</g>
<g>
</g>
<g>
</g>
<g>
</g>
<g>
</g>
</svg>
