<?xml version="1.0" encoding="iso-8859-1"?>
<!-- Generator: Adobe Illustrator 19.0.0, SVG Export Plug-In . SVG Version: 6.00 Build 0)  -->
<svg version="1.1" id="Layer_1" xmlns="http://www.w3.org/2000/svg" xmlns:xlink="http://www.w3.org/1999/xlink" x="0px" y="0px"
	 viewBox="0 0 512 512" style="enable-background:new 0 0 512 512;" xml:space="preserve">
<path style="fill:#C7E9F4;" d="M256,512C114.841,512,0,397.159,0,256S114.841,0,256,0s256,114.841,256,256S397.159,512,256,512z"/>
<path style="fill:#80D0E1;" d="M256,0v512c141.159,0,256-114.841,256-256S397.159,0,256,0z"/>
<g>
	<path style="fill:#FF5E5B;" d="M261.242,158.607c-2.025,0,3.27,0.697-78.629-11.514c-24.625-3.672-19.098-40.967,5.557-37.272
		l75.827,11.305C286.974,124.553,284.341,158.607,261.242,158.607z"/>
	<path style="fill:#FF5E5B;" d="M255.995,280.209h-18.964c-0.813-2.378-1.767-4.688-2.868-6.917l13.412-13.412
		c17.606-17.605-9.023-44.27-26.646-26.646l-13.41,13.41c-2.23-1.1-4.541-2.055-6.919-2.868v-18.964
		c0-24.898-37.684-24.924-37.684,0v18.964c-2.378,0.813-4.689,1.767-6.919,2.868l-13.41-13.41
		c-17.605-17.605-44.27,9.024-26.646,26.646l13.412,13.412c-1.1,2.23-2.055,4.54-2.868,6.917h-18.965
		c-24.898,0-24.924,37.684,0,37.684h18.964c0.813,2.378,1.767,4.689,2.868,6.919l-13.41,13.412
		c-17.606,17.605,9.023,44.27,26.646,26.646l13.412-13.412c2.23,1.1,4.54,2.055,6.917,2.868v18.964c0,24.898,37.684,24.924,37.684,0
		v-18.964c2.378-0.813,4.688-1.767,6.917-2.868l13.412,13.412c17.602,17.602,44.276-9.018,26.646-26.646l-13.412-13.412
		c1.1-2.23,2.055-4.541,2.868-6.919h18.964C280.893,317.893,280.919,280.209,255.995,280.209z"/>
</g>
<g>
	<path style="fill:#FF423D;" d="M263.997,121.127l-7.998-1.192v38.1c2.569,0.383,3.532,0.573,5.242,0.573
		C284.314,158.607,286.99,124.555,263.997,121.127z"/>
	<path style="fill:#FF423D;" d="M256,280.209v37.684C280.891,317.888,280.918,280.216,256,280.209z"/>
	<path style="fill:#FF423D;" d="M373.656,274.842c-31.399,0-56.944-25.545-56.944-56.944s25.545-56.945,56.944-56.945
		s56.945,25.546,56.945,56.945S405.056,274.842,373.656,274.842z M373.656,198.636c-10.621,0-19.26,8.641-19.26,19.261
		s8.64,19.26,19.26,19.26c10.621,0,19.261-8.64,19.261-19.26C392.918,207.277,384.277,198.636,373.656,198.636z"/>
	<path style="fill:#FF423D;" d="M352.722,397.767H310.85c-24.898,0-24.924-37.684,0-37.684h20.206l-2.019-14.418
		c-3.452-24.654,33.861-29.918,37.32-5.228l5.025,35.874C372.968,387.648,364.153,397.767,352.722,397.767z"/>
</g>
<g>
</g>
<g>
</g>
<g>
</g>
<g>
</g>
<g>
</g>
<g>
</g>
<g>
</g>
<g>
</g>
<g>
</g>
<g>
</g>
<g>
</g>
<g>
</g>
<g>
</g>
<g>
</g>
<g>
</g>
</svg>
