<?xml version="1.0" encoding="iso-8859-1"?>
<!-- Generator: Adobe Illustrator 19.0.0, SVG Export Plug-In . SVG Version: 6.00 Build 0)  -->
<svg version="1.1" id="Layer_1" xmlns="http://www.w3.org/2000/svg" xmlns:xlink="http://www.w3.org/1999/xlink" x="0px" y="0px"
	 viewBox="0 0 512 512" style="enable-background:new 0 0 512 512;" xml:space="preserve">
<path style="fill:#51B3DA;" d="M255.48,164.125c0,2.619,0.189,5.193,0.52,7.724v-15.504
	C255.666,158.905,255.48,161.501,255.48,164.125z"/>
<path style="fill:#3797D3;" d="M379.835,104.872h-65.102c-15.837,0-30.718,6.169-41.893,17.361
	c-9.338,9.338-15.16,21.241-16.84,34.113v15.504c3.799,29.033,28.68,51.53,58.733,51.53h65.102c15.837,0,30.718-6.169,41.893-17.361
	c11.195-11.195,17.36-26.073,17.36-41.892C439.088,131.452,412.508,104.872,379.835,104.872z"/>
<path style="fill:#51B3DA;" d="M421.366,357.469H90.634c-9.788,0-17.723-7.935-17.723-17.723v-58.58
	c0-9.788,7.935-17.723,17.723-17.723h330.731c9.788,0,17.723,7.935,17.723,17.723v58.58
	C439.088,349.534,431.153,357.469,421.366,357.469z"/>
<path style="fill:#3797D3;" d="M421.366,263.444H256v94.025h165.366c9.788,0,17.723-7.935,17.723-17.723v-58.58
	C439.088,271.379,431.153,263.444,421.366,263.444z"/>
<path style="fill:#80D0E1;" d="M421.366,298.889H90.634c-9.788,0-17.723-7.935-17.723-17.723v-75.511
	c0-9.788,7.935-17.723,17.723-17.723h330.731c9.788,0,17.723,7.935,17.723,17.723v75.511
	C439.088,290.954,431.153,298.889,421.366,298.889z"/>
<path style="fill:#51B3DA;" d="M421.366,187.933H256v110.957h165.366c9.788,0,17.723-7.935,17.723-17.723v-75.511
	C439.088,195.868,431.153,187.933,421.366,187.933z"/>
<path style="fill:#FFC72D;" d="M90.634,407.128H17.723C7.935,407.128,0,399.193,0,389.405V278.567
	c0-49.976,40.658-90.634,90.634-90.634c9.788,0,17.723,7.935,17.723,17.723v183.75C108.357,399.193,100.422,407.128,90.634,407.128z
	"/>
<path style="fill:#FFBE00;" d="M494.277,407.128h-72.912c-9.788,0-17.723-7.935-17.723-17.723V159.044
	c0-29.871,24.302-54.173,54.173-54.173c14.461,0,28.062,5.629,38.301,15.85C506.363,130.968,512,144.574,512,159.046v230.361
	C512,399.193,504.065,407.128,494.277,407.128z"/>
<g>
</g>
<g>
</g>
<g>
</g>
<g>
</g>
<g>
</g>
<g>
</g>
<g>
</g>
<g>
</g>
<g>
</g>
<g>
</g>
<g>
</g>
<g>
</g>
<g>
</g>
<g>
</g>
<g>
</g>
</svg>
