<?xml version="1.0" encoding="iso-8859-1"?>
<!-- Generator: Adobe Illustrator 19.0.0, SVG Export Plug-In . SVG Version: 6.00 Build 0)  -->
<svg version="1.1" id="Layer_1" xmlns="http://www.w3.org/2000/svg" xmlns:xlink="http://www.w3.org/1999/xlink" x="0px" y="0px"
	 viewBox="0 0 512 512" style="enable-background:new 0 0 512 512;" xml:space="preserve">
<path style="fill:#F32E28;" d="M349.762,512c-9.832,0-17.803-7.971-17.803-17.803V390.035c0-9.832,7.971-17.803,17.803-17.803
	c9.832,0,17.803,7.971,17.803,17.803v104.162C367.565,504.029,359.594,512,349.762,512z"/>
<path style="fill:#FFC72D;" d="M311.934,84.265H200.067c-9.832,0-17.803-7.971-17.803-17.803V17.803
	C182.264,7.971,190.235,0,200.067,0h111.867c9.832,0,17.803,7.971,17.803,17.803v48.659
	C329.737,76.294,321.766,84.265,311.934,84.265z"/>
<path style="fill:#FFBE00;" d="M311.934,0h-55.933v84.265h55.933c9.832,0,17.803-7.971,17.803-17.803V17.803
	C329.737,7.971,321.766,0,311.934,0z"/>
<path style="fill:#FB3732;" d="M255.996,465.334c-9.832,0-17.803-7.971-17.803-17.803v-57.496c0-9.832,7.971-17.803,17.803-17.803
	s17.803,7.971,17.803,17.803v57.496C273.799,457.363,265.828,465.334,255.996,465.334z"/>
<path style="fill:#F32E28;" d="M256,372.232v93.102c9.831-0.002,17.799-7.972,17.799-17.803v-57.496
	C273.799,380.204,265.831,372.234,256,372.232z"/>
<path style="fill:#FB3732;" d="M403.17,407.838H108.83c-9.832,0-17.803-7.971-17.803-17.803V66.462
	c0-9.832,7.971-17.803,17.803-17.803H403.17c9.832,0,17.803,7.971,17.803,17.803v323.573
	C420.973,399.867,413.002,407.838,403.17,407.838z"/>
<path style="fill:#F32E28;" d="M403.17,48.659H256v359.179h147.17c9.832,0,17.803-7.971,17.803-17.803V66.462
	C420.973,56.63,413.002,48.659,403.17,48.659z"/>
<path style="fill:#FF5E5B;" d="M349.762,354.429H162.238c-9.832,0-17.803-7.971-17.803-17.803V119.87
	c0-9.832,7.971-17.803,17.803-17.803h187.524c9.832,0,17.803,7.971,17.803,17.803v216.756
	C367.565,346.458,359.594,354.429,349.762,354.429z"/>
<path style="fill:#FF423D;" d="M349.762,102.067H256v252.362h93.762c9.832,0,17.803-7.971,17.803-17.803V119.87
	C367.565,110.038,359.594,102.067,349.762,102.067z"/>
<path style="fill:#FB3732;" d="M256,294.136c-28.888,0-52.39-23.503-52.39-52.391c0-21.731,25.171-56.359,38.585-72.82
	c3.381-4.153,8.452-6.562,13.806-6.562c5.354,0,10.424,2.409,13.806,6.562c13.332,16.362,38.585,50.965,38.585,72.82
	C308.39,270.632,284.888,294.136,256,294.136z"/>
<path style="fill:#F32E28;" d="M269.806,168.924c-3.381-4.153-8.452-6.562-13.806-6.562v131.773c28.888,0,52.39-23.503,52.39-52.391
	C308.39,220.014,283.219,185.386,269.806,168.924z"/>
<g>
</g>
<g>
</g>
<g>
</g>
<g>
</g>
<g>
</g>
<g>
</g>
<g>
</g>
<g>
</g>
<g>
</g>
<g>
</g>
<g>
</g>
<g>
</g>
<g>
</g>
<g>
</g>
<g>
</g>
</svg>
