<?xml version="1.0" encoding="iso-8859-1"?>
<!-- Generator: Adobe Illustrator 19.0.0, SVG Export Plug-In . SVG Version: 6.00 Build 0)  -->
<svg version="1.1" id="Layer_1" xmlns="http://www.w3.org/2000/svg" xmlns:xlink="http://www.w3.org/1999/xlink" x="0px" y="0px"
	 viewBox="0 0 511.999 511.999" style="enable-background:new 0 0 511.999 511.999;" xml:space="preserve">
<path style="fill:#FFEDBE;" d="M172.013,508.824c-41.229,0-73.402-36.21-68.294-77.356c-37.267-17.557-59.014-56.93-54.247-97.914
	c-65.978-30.669-65.947-124.451,0-155.109c-4.762-40.935,16.947-80.339,54.247-97.914c-5.1-41.072,26.998-77.356,68.294-77.356
	c37.946,0,68.819,30.871,68.819,68.819v368.012C240.832,477.953,209.959,508.824,172.013,508.824z"/>
<g>
	<path style="fill:#FFC72D;" d="M150.452,235.675c8.648-21.188-21.215-36.715-33.528-17.262l-27.143,42.886
		c-13.382,21.145,18.605,41.421,32.004,20.256l4.751-7.507c35.549,13.366,78.474,18.156,114.296,3.834v-48.514
		C232.444,231.362,208.873,253.861,150.452,235.675z"/>
	<path style="fill:#FFC72D;" d="M144.798,330.618c-21.045,13.538-0.576,45.405,20.491,31.852
		c0.425-0.274,42.239-26.133,75.543-11.804v-39.728C193.436,299.881,147.017,329.192,144.798,330.618z"/>
	<path style="fill:#FFC72D;" d="M165.247,149.502c-21.076-13.477-41.47,18.359-20.45,31.88
		c23.296,14.978,62.317,27.538,96.033,19.671v-39.719C207.472,175.711,166.009,149.979,165.247,149.502z"/>
</g>
<path style="fill:#FFDA79;" d="M271.168,440.006V71.994c0-37.948,30.873-68.819,68.819-68.819c41.193,0,73.408,36.178,68.294,77.356
	c37.27,17.56,59.014,56.935,54.247,97.914c65.976,30.672,65.948,124.454,0,155.109c4.761,40.933-16.94,80.338-54.247,97.914
	c5.108,41.152-27.073,77.356-68.294,77.356C302.039,508.824,271.168,477.953,271.168,440.006z"/>
<g>
	<path style="fill:#FFBE00;" d="M361.546,235.675c-8.648-21.188,21.215-36.715,33.528-17.262l27.143,42.886
		c13.382,21.145-18.605,41.421-32.004,20.256l-4.751-7.507c-35.549,13.366-78.474,18.156-114.296,3.834v-48.514
		C279.556,231.362,303.125,253.861,361.546,235.675z"/>
	<path style="fill:#FFBE00;" d="M367.201,330.618c21.046,13.538,0.576,45.405-20.49,31.852
		c-0.425-0.274-42.239-26.133-75.543-11.804v-39.728C318.564,299.881,364.983,329.192,367.201,330.618z"/>
	<path style="fill:#FFBE00;" d="M346.751,149.502c21.076-13.477,41.47,18.359,20.45,31.88
		c-23.296,14.978-62.317,27.538-96.033,19.671v-39.719C304.526,175.711,345.99,149.979,346.751,149.502z"/>
</g>
<g>
</g>
<g>
</g>
<g>
</g>
<g>
</g>
<g>
</g>
<g>
</g>
<g>
</g>
<g>
</g>
<g>
</g>
<g>
</g>
<g>
</g>
<g>
</g>
<g>
</g>
<g>
</g>
<g>
</g>
</svg>
