<?xml version="1.0" encoding="iso-8859-1"?>
<!-- Generator: Adobe Illustrator 19.0.0, SVG Export Plug-In . SVG Version: 6.00 Build 0)  -->
<svg version="1.1" id="Layer_1" xmlns="http://www.w3.org/2000/svg" xmlns:xlink="http://www.w3.org/1999/xlink" x="0px" y="0px"
	 viewBox="0 0 512 512" style="enable-background:new 0 0 512 512;" xml:space="preserve">
<g>
	<path style="fill:#FFC72D;" d="M268.132,284.83v-40.966h-40.961c-17.219,0-25.934-20.907-13.719-33.121L334.024,90.172
		c-11.605-22.913-8.192-52.176,11.544-71.91C384.26-20.432,450.037,6.483,451.505,60.464c53.888,1.412,80.993,67.21,42.232,105.968
		c-19.744,19.744-49.009,23.141-71.91,11.543L301.252,298.549C289.132,310.673,268.132,302.219,268.132,284.83z"/>
	<path style="fill:#FFC72D;" d="M60.422,451.577C6.373,450.135-20.35,384.178,18.219,345.61
		c19.755-19.755,49.022-23.134,71.91-11.544l60.218-60.218c3.639-3.639,8.573-5.684,13.719-5.684
		c92.386,0,79.766-11.261,79.766,79.771c0,5.146-2.045,10.08-5.684,13.719l-60.234,60.235c11.736,23.284,7.894,52.472-11.525,71.891
		C127.837,532.335,61.865,505.654,60.422,451.577z"/>
</g>
<g>
	<path style="fill:#FFBE00;" d="M451.519,60.464l-183.4,183.4h0.012v40.966c0,17.387,21,25.843,33.121,13.719l120.575-120.574
		c22.9,11.597,52.165,8.199,71.91-11.543C532.496,127.678,505.398,61.888,451.519,60.464z"/>
	<path style="fill:#FFBE00;" d="M177.915,421.89l60.234-60.235c3.639-3.639,5.684-8.573,5.684-13.719
		c0-45.969,3.21-65.848-5.5-74.268L60.422,451.577c1.444,54.076,67.415,80.757,105.967,42.203
		C185.809,474.362,189.651,445.174,177.915,421.89z"/>
</g>
<g>
</g>
<g>
</g>
<g>
</g>
<g>
</g>
<g>
</g>
<g>
</g>
<g>
</g>
<g>
</g>
<g>
</g>
<g>
</g>
<g>
</g>
<g>
</g>
<g>
</g>
<g>
</g>
<g>
</g>
</svg>
