<?xml version="1.0" encoding="iso-8859-1"?>
<!-- Generator: Adobe Illustrator 19.0.0, SVG Export Plug-In . SVG Version: 6.00 Build 0)  -->
<svg version="1.1" id="Layer_1" xmlns="http://www.w3.org/2000/svg" xmlns:xlink="http://www.w3.org/1999/xlink" x="0px" y="0px"
	 viewBox="0 0 512.001 512.001" style="enable-background:new 0 0 512.001 512.001;" xml:space="preserve">
<path style="fill:#80D0E1;" d="M494.099,462.766H17.901C8.015,462.766,0,454.751,0,444.865V155.788
	c0-9.886,8.015-17.901,17.901-17.901h476.198c9.886,0,17.901,8.015,17.901,17.901v289.077
	C512,454.751,503.986,462.766,494.099,462.766z"/>
<path style="fill:#51B3DA;" d="M494.099,137.886H256.001v324.879H494.1c9.886,0,17.901-8.015,17.901-17.901V155.788
	C512,145.901,503.986,137.886,494.099,137.886z"/>
<path style="fill:#FF423D;" d="M255.999,386.139c-13.82,0-13.359-2.788-75.237-64.668c-24.38-24.38-24.707-64.016-0.727-88.353
	c20.753-21.062,52.306-23.998,75.965-10.128c23.582-13.826,55.145-11.002,75.965,10.128c23.979,24.338,23.653,63.973-0.727,88.353
	C270.438,382.273,270.035,386.139,255.999,386.139z"/>
<path style="fill:#39A3DB;" d="M494.099,173.689H17.901C8.015,173.689,0,165.674,0,155.788V67.136
	c0-9.886,8.015-17.901,17.901-17.901h476.198c9.886,0,17.901,8.015,17.901,17.901v88.651
	C512,165.674,503.986,173.689,494.099,173.689z"/>
<g>
	<circle style="fill:#FFC72D;" cx="81.76" cy="111.464" r="13.058"/>
	<circle style="fill:#FFC72D;" cx="128.697" cy="111.464" r="13.058"/>
	<circle style="fill:#FFC72D;" cx="175.646" cy="111.464" r="13.058"/>
</g>
<path style="fill:#FB3732;" d="M331.966,233.119c-20.771-21.082-52.329-23.986-75.965-10.128v163.149
	c13.822,0,13.359-2.788,75.238-64.668C355.619,297.092,355.945,257.457,331.966,233.119z"/>
<path style="fill:#3797D3;" d="M494.099,49.235H256.001v124.453H494.1c9.886,0,17.901-8.015,17.901-17.901V67.136
	C512,57.25,503.986,49.235,494.099,49.235z"/>
<g>
</g>
<g>
</g>
<g>
</g>
<g>
</g>
<g>
</g>
<g>
</g>
<g>
</g>
<g>
</g>
<g>
</g>
<g>
</g>
<g>
</g>
<g>
</g>
<g>
</g>
<g>
</g>
<g>
</g>
</svg>
