<?xml version="1.0" encoding="iso-8859-1"?>
<!-- Generator: Adobe Illustrator 19.0.0, SVG Export Plug-In . SVG Version: 6.00 Build 0)  -->
<svg version="1.1" id="Layer_1" xmlns="http://www.w3.org/2000/svg" xmlns:xlink="http://www.w3.org/1999/xlink" x="0px" y="0px"
	 viewBox="0 0 512.001 512.001" style="enable-background:new 0 0 512.001 512.001;" xml:space="preserve">
<path style="fill:#39A3DB;" d="M5.607,506.394c-7.475-7.475-7.475-19.593,0-27.068l140.889-140.889
	c7.475-7.475,19.593-7.475,27.068,0c7.475,7.475,7.475,19.593,0,27.068L32.676,506.394C25.201,513.869,13.081,513.869,5.607,506.394
	z"/>
<path style="fill:#3797D3;" d="M173.564,338.437L5.607,506.395c7.475,7.475,19.593,7.475,27.068,0l140.889-140.889
	C181.039,358.03,181.039,345.912,173.564,338.437z"/>
<path style="fill:#48AEE2;" d="M506.394,112.003L399.999,5.606c-7.475-7.475-19.593-7.475-27.068,0
	c-7.475,7.475-7.475,19.593,0,27.068l5.108,5.108L329.7,86.121c-7.475,7.475-7.475,19.593,0,27.068l69.113,69.113
	c7.475,7.475,19.593,7.475,27.068,0l48.339-48.339l5.108,5.108c7.475,7.475,19.593,7.475,27.068,0
	C513.869,131.596,513.869,119.478,506.394,112.003z"/>
<path style="fill:#39A3DB;" d="M506.394,112.003l-53.198-53.198l-88.941,88.94l34.557,34.557c7.475,7.475,19.593,7.475,27.068,0
	l48.339-48.339l5.108,5.108c7.475,7.475,19.593,7.475,27.068,0C513.869,131.597,513.869,119.478,506.394,112.003z"/>
<path style="fill:#80D0E1;" d="M465.897,195.25C462.139,191.49,318.597,47.95,316.751,46.104c-7.475-7.475-19.593-7.475-27.068,0
	s-7.475,19.593,0,27.068l26.482,26.482l-60.534,60.534c-11.348,11.348-4.475,30.85,11.492,32.565
	c13.485,1.447,25.678,7.277,35.262,16.861c9.584,9.584,15.415,21.779,16.861,35.264c1.706,15.902,21.185,22.872,32.565,11.492
	l60.534-60.534l26.482,26.482c7.475,7.475,19.593,7.475,27.068,0C473.372,214.844,473.372,202.724,465.897,195.25z"/>
<path style="fill:#51B3DA;" d="M465.897,195.25c-14.605-14.604-58.381-58.381-74.572-74.572l-88.937,88.937
	c9.584,9.584,15.415,21.779,16.861,35.262c1.706,15.902,21.185,22.872,32.565,11.492l60.534-60.534l26.482,26.482
	c7.475,7.475,19.593,7.475,27.068,0C473.372,214.844,473.372,202.724,465.897,195.25z"/>
<path style="fill:#80D0E1;" d="M181.056,400.057l-69.111-69.111c-7.475-7.475-7.475-19.593,0-27.068l57.971-57.971
	c11.351-11.351,30.858-4.469,32.566,11.498c1.441,13.469,7.272,25.659,16.864,35.251c9.592,9.592,21.781,15.423,35.251,16.864
	c15.959,1.706,22.856,21.208,11.498,32.566l-57.971,57.971C200.649,407.532,188.529,407.532,181.056,400.057z"/>
<path style="fill:#51B3DA;" d="M254.596,309.521c-13.469-1.441-25.659-7.272-35.251-16.864l-72.846,72.846l34.555,34.555
	c7.475,7.475,19.593,7.475,27.068,0l57.971-57.971C277.451,330.729,270.555,311.227,254.596,309.521z"/>
<g>
	<path style="fill:#80D0E1;" d="M169.915,256.366l-75.541-75.542c-7.475-7.475-7.475-19.593,0-27.068l69.111-69.111
		c7.475-7.475,19.593-7.475,27.068,0l75.541,75.541c11.349,11.349,4.472,30.856-11.498,32.565
		c-13.469,1.441-25.66,7.273-35.251,16.864c-9.59,9.59-15.423,21.781-16.864,35.252
		C200.771,260.828,181.273,267.724,169.915,256.366z"/>
	<path style="fill:#80D0E1;" d="M331.178,417.629l-75.542-75.542c-11.349-11.349-4.474-30.855,11.497-32.566
		c13.471-1.441,25.662-7.273,35.252-16.864c9.59-9.59,15.423-21.781,16.864-35.251c1.707-15.959,21.208-22.854,32.565-11.498
		l75.542,75.542c7.475,7.475,7.475,19.593,0,27.068l-69.111,69.111C350.771,425.102,338.651,425.102,331.178,417.629z"/>
</g>
<path style="fill:#51B3DA;" d="M331.178,417.629l-75.542-75.542c-11.349-11.349-4.474-30.855,11.497-32.566
	c13.471-1.441,25.662-7.273,35.252-16.864c9.59-9.59,15.423-21.781,16.864-35.251c1.707-15.959,21.208-22.854,32.565-11.498
	l75.542,75.542c7.475,7.475,7.475,19.593,0,27.068l-69.111,69.111C350.771,425.102,338.651,425.102,331.178,417.629z"/>
<path style="fill:#39A3DB;" d="M164.418,261.478c-0.741-6.853-0.741-13.826,0.001-20.703c4.832-45.135,40.602-81.218,86.105-86.084
	c6.853-0.741,13.828-0.743,20.704,0.003c45.234,4.841,81.224,40.692,86.084,86.103c0.743,6.856,0.741,13.831-0.003,20.707
	c-4.839,45.232-40.692,81.22-86.103,86.083c-6.856,0.741-13.829,0.741-20.704-0.004
	C205.269,342.743,169.276,306.887,164.418,261.478z"/>
<path style="fill:#3797D3;" d="M357.309,261.502c0.744-6.878,0.745-13.852,0.003-20.707c-2.428-22.69-12.629-42.994-27.87-58.234
	L192.29,319.712c15.264,15.262,35.581,25.449,58.213,27.869c6.875,0.744,13.848,0.744,20.704,0.004
	C316.618,342.722,352.471,306.733,357.309,261.502z"/>
<path style="fill:#48AEE2;" d="M291.285,281.557c-16.801,16.801-44.043,16.796-60.84,0c-16.827-16.828-16.772-44.068,0-60.84
	c16.804-16.804,44.046-16.793,60.84,0C308.092,237.525,308.076,264.766,291.285,281.557z"/>
<path style="fill:#39A3DB;" d="M291.285,220.717l-60.84,60.84c16.796,16.796,44.039,16.801,60.84,0
	C308.076,264.766,308.092,237.525,291.285,220.717z"/>
<g>
</g>
<g>
</g>
<g>
</g>
<g>
</g>
<g>
</g>
<g>
</g>
<g>
</g>
<g>
</g>
<g>
</g>
<g>
</g>
<g>
</g>
<g>
</g>
<g>
</g>
<g>
</g>
<g>
</g>
</svg>
