<?xml version="1.0" encoding="iso-8859-1"?>
<!-- Generator: Adobe Illustrator 19.0.0, SVG Export Plug-In . SVG Version: 6.00 Build 0)  -->
<svg version="1.1" id="Layer_1" xmlns="http://www.w3.org/2000/svg" xmlns:xlink="http://www.w3.org/1999/xlink" x="0px" y="0px"
	 viewBox="0 0 512 512" style="enable-background:new 0 0 512 512;" xml:space="preserve">
<path style="fill:#48AEE2;" d="M441.233,477.343h-83.92c-10.264,0-18.586-8.321-18.586-18.586v-61.21
	c0-10.264,8.321-18.586,18.586-18.586h83.92c10.264,0,18.586,8.321,18.586,18.586v61.21
	C459.819,469.022,451.497,477.343,441.233,477.343z"/>
<path style="fill:#74B8E5;" d="M154.687,477.343h-83.92c-10.264,0-18.586-8.321-18.586-18.586v-61.21
	c0-10.264,8.321-18.586,18.586-18.586h83.92c10.264,0,18.586,8.321,18.586,18.586v61.21
	C173.272,469.022,164.951,477.343,154.687,477.343z"/>
<path style="fill:#E8F2FB;" d="M316.825,416.134H51.198C22.967,416.134,0,393.167,0,364.937V85.854
	c0-28.231,22.967-51.198,51.198-51.198h265.627c10.264,0,18.586,8.321,18.586,18.586V397.55
	C335.411,407.814,327.089,416.134,316.825,416.134z"/>
<path style="fill:#C7E9F4;" d="M316.825,34.657H256v381.479h60.825c10.264,0,18.586-8.321,18.586-18.586V53.243
	C335.411,42.977,327.089,34.657,316.825,34.657z"/>
<path style="fill:#FFC72D;" d="M335.411,218.391h-77.034l-28.601-21.929c-7.438-5.705-17.959-4.975-24.541,1.696l-34.534,35.007
	l-27.663-42.581c-6.023-9.272-18.806-11.288-27.389-4.23l-38.962,32.037H0v37.171h83.348c8.611,0,10.019-2.762,39.849-27.29
	l28.924,44.523c6.47,9.959,20.498,11.36,28.817,2.927l39.239-39.778l20.586,15.783c3.245,2.489,7.22,3.837,11.309,3.837h83.338
	V218.391z"/>
<polygon style="fill:#FFBE00;" points="335.411,218.391 258.376,218.391 256,216.568 256,255.562 335.411,255.562 "/>
<path style="fill:#3797D3;" d="M460.802,416.134H298.239V34.657h162.563c28.276,0,51.198,22.922,51.198,51.198v279.082
	C512,393.213,489.079,416.134,460.802,416.134z"/>
<g>
	<path style="fill:#FF5E5B;" d="M437.734,222.919h-65.227c-10.264,0-18.586-8.321-18.586-18.586v-68.286
		c0-10.264,8.321-18.586,18.586-18.586h65.227c10.264,0,18.586,8.321,18.586,18.586v68.286
		C456.32,214.598,447.998,222.919,437.734,222.919z"/>
	<path style="fill:#FF5E5B;" d="M438.419,283.148h-66.601c-10.264,0-18.586-8.321-18.586-18.586
		c0-10.264,8.321-18.586,18.586-18.586h66.601c10.264,0,18.586,8.321,18.586,18.586
		C457.005,274.827,448.685,283.148,438.419,283.148z"/>
	<path style="fill:#FF5E5B;" d="M438.419,333.33h-66.601c-10.264,0-18.586-8.321-18.586-18.586s8.321-18.586,18.586-18.586h66.601
		c10.264,0,18.586,8.321,18.586,18.586C457.005,325.008,448.685,333.33,438.419,333.33z"/>
</g>
<g>
</g>
<g>
</g>
<g>
</g>
<g>
</g>
<g>
</g>
<g>
</g>
<g>
</g>
<g>
</g>
<g>
</g>
<g>
</g>
<g>
</g>
<g>
</g>
<g>
</g>
<g>
</g>
<g>
</g>
</svg>
