<?xml version="1.0" encoding="iso-8859-1"?>
<!-- Generator: Adobe Illustrator 19.0.0, SVG Export Plug-In . SVG Version: 6.00 Build 0)  -->
<svg version="1.1" id="Layer_1" xmlns="http://www.w3.org/2000/svg" xmlns:xlink="http://www.w3.org/1999/xlink" x="0px" y="0px"
	 viewBox="0 0 512 512" style="enable-background:new 0 0 512 512;" xml:space="preserve">
<path style="fill:#48AEE2;" d="M441.235,477.346h-83.921c-10.264,0-18.586-8.322-18.586-18.586v-61.211
	c0-10.264,8.322-18.586,18.586-18.586h83.921c10.264,0,18.586,8.322,18.586,18.586v61.211
	C459.821,469.024,451.5,477.346,441.235,477.346z"/>
<path style="fill:#74B8E5;" d="M154.686,477.346H70.764c-10.264,0-18.586-8.322-18.586-18.586v-61.211
	c0-10.264,8.322-18.586,18.586-18.586h83.921c10.264,0,18.586,8.322,18.586,18.586v61.211
	C173.272,469.024,164.95,477.346,154.686,477.346z"/>
<path style="fill:#39A3DB;" d="M460.802,416.135H51.198C22.967,416.135,0,393.168,0,364.935V85.851
	c0-28.23,22.967-51.197,51.198-51.197h409.604c28.231,0,51.198,22.967,51.198,51.197v279.084
	C512,393.168,489.033,416.135,460.802,416.135z"/>
<path style="fill:#3797D3;" d="M460.802,34.654H255.999v381.481h204.802c28.231,0,51.198-22.967,51.198-51.198V85.851
	C512,57.621,489.033,34.654,460.802,34.654z"/>
<path style="fill:#E8F2FB;" d="M441.235,329.428H70.764c-10.264,0-18.586-8.322-18.586-18.586V105.418
	c0-10.264,8.322-18.586,18.586-18.586h370.47c10.264,0,18.586,8.322,18.586,18.586v205.423
	C459.821,321.106,451.5,329.428,441.235,329.428z"/>
<g>
	<circle style="fill:#FF5E5B;" cx="380.653" cy="369.055" r="15.518"/>
	<circle style="fill:#FF5E5B;" cx="426.746" cy="369.055" r="15.518"/>
</g>
<path style="fill:#C7E9F4;" d="M441.235,86.832H255.999v242.595h185.235c10.264,0,18.586-8.322,18.586-18.586V105.418
	C459.821,95.154,451.5,86.832,441.235,86.832z"/>
<path style="fill:#FFC72D;" d="M459.821,189.545h-92.723l-36.74-28.169c-7.438-5.705-17.958-4.976-24.541,1.698l-46.825,47.469
	l-37.411-57.587c-6.033-9.286-18.825-11.275-27.39-4.23l-49.643,40.82h-92.37v37.172h99.029c4.306,0,8.479-1.496,11.805-4.23
	l38.726-31.843l38.672,59.526c6.478,9.971,20.497,11.36,28.817,2.927l51.533-52.239l28.724,22.023
	c3.245,2.488,7.22,3.836,11.309,3.836h99.029L459.821,189.545L459.821,189.545z"/>
<path style="fill:#FFBE00;" d="M367.098,189.545l-36.74-28.169c-7.438-5.705-17.958-4.976-24.541,1.698l-46.825,47.469l-2.992-4.606
	v52.695c4.945-0.001,9.718-1.976,13.227-5.534l51.533-52.239l28.724,22.023c3.245,2.488,7.22,3.836,11.309,3.836h99.029v-37.172
	h-92.723V189.545z"/>
<g>
</g>
<g>
</g>
<g>
</g>
<g>
</g>
<g>
</g>
<g>
</g>
<g>
</g>
<g>
</g>
<g>
</g>
<g>
</g>
<g>
</g>
<g>
</g>
<g>
</g>
<g>
</g>
<g>
</g>
</svg>
