<?xml version="1.0" encoding="iso-8859-1"?>
<!-- Generator: Adobe Illustrator 19.0.0, SVG Export Plug-In . SVG Version: 6.00 Build 0)  -->
<svg version="1.1" id="Layer_1" xmlns="http://www.w3.org/2000/svg" xmlns:xlink="http://www.w3.org/1999/xlink" x="0px" y="0px"
	 viewBox="0 0 512 512" style="enable-background:new 0 0 512 512;" xml:space="preserve">
<path style="fill:#FFEDBE;" d="M286.672,512c-88.006,0-171.131-67.967-171.131-178.375c0-11.567,9.377-20.944,20.944-20.944
	s20.944,9.377,20.944,20.944c0,86.59,63.721,136.486,129.242,136.486c71.265,0,129.242-57.976,129.242-129.241V82.66
	c0-27.676,41.888-27.705,41.888,0v258.211C457.803,435.233,381.034,512,286.672,512z"/>
<path style="fill:#80D0E1;" d="M136.486,354.57c-35.975,0-66.073-28.115-68.521-64.007L54.451,92.434
	C52.629,65.696,92.52,61.618,96.102,88.21c6.289,46.634,74.459,46.686,80.775,0.004c3.594-26.55,43.477-22.529,41.651,4.235
	l-13.523,198.119C202.555,326.458,172.458,354.57,136.486,354.57z"/>
<path style="fill:#C7E9F4;" d="M54.453,92.442C50.521,35.137,92.613,0,136.49,0c50.993,0,88.4,45.286,81.899,93.831
	C205.039,192.485,60.772,184.497,54.453,92.442z"/>
<path style="fill:#80D0E1;" d="M136.49,51.678c17.11,0,30.981,13.871,30.981,30.981c-2.825,41.247-59.13,41.327-61.963,0
	C105.509,65.55,119.381,51.678,136.49,51.678z"/>
<path style="fill:#FFE49C;" d="M415.914,82.66v258.211c0,71.265-57.978,129.241-129.242,129.241V512
	c94.362,0,171.131-76.767,171.131-171.129V82.66C457.803,54.984,415.914,54.956,415.914,82.66z"/>
<g>
</g>
<g>
</g>
<g>
</g>
<g>
</g>
<g>
</g>
<g>
</g>
<g>
</g>
<g>
</g>
<g>
</g>
<g>
</g>
<g>
</g>
<g>
</g>
<g>
</g>
<g>
</g>
<g>
</g>
</svg>
