<?xml version="1.0" encoding="iso-8859-1"?>
<!-- Generator: Adobe Illustrator 19.0.0, SVG Export Plug-In . SVG Version: 6.00 Build 0)  -->
<svg version="1.1" id="Layer_1" xmlns="http://www.w3.org/2000/svg" xmlns:xlink="http://www.w3.org/1999/xlink" x="0px" y="0px"
	 viewBox="0 0 512 512" style="enable-background:new 0 0 512 512;" xml:space="preserve">
<path style="fill:#80D0E1;" d="M432.01,512H79.99c-10.223,0-18.51-8.288-18.51-18.51V38.255c0-10.223,8.288-18.51,18.51-18.51
	h108.447c10.223,0,18.51,8.288,18.51,18.51v43.191h98.106V38.255c0-10.223,8.288-18.51,18.51-18.51H432.01
	c10.223,0,18.51,8.288,18.51,18.51V493.49C450.52,503.713,442.233,512,432.01,512z"/>
<path style="fill:#51B3DA;" d="M432.01,19.745H323.563c-10.223,0-18.51,8.288-18.51,18.51v43.191H256V512h176.01
	c10.223,0,18.51-8.288,18.51-18.51V38.255C450.52,28.032,442.233,19.745,432.01,19.745z"/>
<path style="fill:#FFE49C;" d="M296.575,450.303H141.688c-10.223,0-18.51-8.288-18.51-18.51V99.952
	c0-10.223,8.288-18.51,18.51-18.51h228.624c10.223,0,18.51,8.288,18.51,18.51v258.104c0,4.909-1.951,9.617-5.422,13.089
	l-73.737,73.737C306.192,448.354,301.484,450.303,296.575,450.303z"/>
<path style="fill:#FFDA79;" d="M370.312,81.441H256v368.862h40.574c4.909,0,9.617-1.95,13.088-5.421l73.737-73.737
	c3.471-3.471,5.422-8.179,5.422-13.089V99.952C388.823,89.729,380.535,81.441,370.312,81.441z"/>
<path style="fill:#39A3DB;" d="M323.563,118.467H188.437c-10.223,0-18.51-8.288-18.51-18.51V18.51c0-10.223,8.288-18.51,18.51-18.51
	h135.127c10.223,0,18.51,8.288,18.51,18.51v81.446C342.074,110.179,333.786,118.467,323.563,118.467z"/>
<path style="fill:#FFD155;" d="M296.57,450.305c-2.384,0-4.789-0.462-7.08-1.409c-6.917-2.865-11.427-9.614-11.427-17.101v-73.737
	c0-10.223,8.288-18.51,18.51-18.51h73.737c7.487,0,14.237,4.51,17.101,11.427c2.864,6.917,1.281,14.879-4.013,20.173l-73.737,73.737
	C306.123,448.423,301.388,450.305,296.57,450.305z"/>
<path style="fill:#3797D3;" d="M323.563,0H256v118.467h67.563c10.223,0,18.51-8.288,18.51-18.51V18.51
	C342.074,8.288,333.786,0,323.563,0z"/>
<g>
</g>
<g>
</g>
<g>
</g>
<g>
</g>
<g>
</g>
<g>
</g>
<g>
</g>
<g>
</g>
<g>
</g>
<g>
</g>
<g>
</g>
<g>
</g>
<g>
</g>
<g>
</g>
<g>
</g>
</svg>
