<?xml version="1.0" encoding="iso-8859-1"?>
<!-- Generator: Adobe Illustrator 19.0.0, SVG Export Plug-In . SVG Version: 6.00 Build 0)  -->
<svg version="1.1" id="Layer_1" xmlns="http://www.w3.org/2000/svg" xmlns:xlink="http://www.w3.org/1999/xlink" x="0px" y="0px"
	 viewBox="0 0 512 512" style="enable-background:new 0 0 512 512;" xml:space="preserve">
<path style="fill:#939598;" d="M466.676,232.966c-8.994,0-16.286,7.292-16.286,16.286v45.898H61.61v-45.898
	c0-8.994-7.292-16.286-16.286-16.286s-16.286,7.292-16.286,16.286v107.484c0,8.994,7.292,16.286,16.286,16.286
	s16.286-7.292,16.286-16.286v-29.013H450.39v29.013c0,8.994,7.292,16.286,16.286,16.286c8.994,0,16.286-7.292,16.286-16.286V249.253
	C482.962,240.258,475.67,232.966,466.676,232.966z"/>
<path style="fill:#808285;" d="M466.676,232.966c-8.994,0-16.286,7.292-16.286,16.286v45.898h-194.39v32.573h194.39v29.013
	c0,8.994,7.292,16.286,16.286,16.286c8.994,0,16.286-7.292,16.286-16.286V249.253C482.962,240.258,475.67,232.966,466.676,232.966z"
	/>
<path style="fill:#80D0E1;" d="M466.676,265.539H45.324c-8.994,0-16.286-7.292-16.286-16.286V173.22
	c0-8.994,7.292-16.286,16.286-16.286h421.352c8.994,0,16.286,7.292,16.286,16.286v76.033
	C482.962,258.248,475.67,265.539,466.676,265.539z"/>
<path style="fill:#51B3DA;" d="M466.676,156.934H255.999v108.605h210.677c8.994,0,16.286-7.292,16.286-16.286V173.22
	C482.962,164.226,475.67,156.934,466.676,156.934z"/>
<path style="fill:#39A3DB;" d="M45.324,431.099C20.332,431.099,0,410.766,0,385.775c0-24.992,20.332-45.324,45.324-45.324
	s45.324,20.333,45.324,45.324C90.648,410.766,70.315,431.099,45.324,431.099z M45.324,373.024c-7.031,0-12.751,5.72-12.751,12.751
	c0,7.031,5.72,12.751,12.751,12.751s12.751-5.721,12.751-12.751C58.075,378.744,52.354,373.024,45.324,373.024z"/>
<path style="fill:#74B8E5;" d="M482.962,189.506H29.038V97.187c0-8.994,7.292-16.286,16.286-16.286H212.57
	c4.949,0,9.63,2.25,12.72,6.116l16.826,21.043h224.561c8.994,0,16.286,7.292,16.286,16.286v65.16H482.962z"/>
<path style="fill:#48AEE2;" d="M482.962,124.346c0-8.994-7.292-16.286-16.286-16.286H255.999v81.447h226.963V124.346z"/>
<path style="fill:#3797D3;" d="M466.676,431.099c-24.991,0-45.324-20.333-45.324-45.324c0-24.992,20.333-45.324,45.324-45.324
	c24.992,0,45.324,20.333,45.324,45.324S491.667,431.099,466.676,431.099z M466.676,373.024c-7.03,0-12.751,5.72-12.751,12.751
	c0,7.031,5.721,12.751,12.751,12.751c7.031,0,12.751-5.721,12.751-12.751C479.427,378.744,473.706,373.024,466.676,373.024z"/>
<g>
</g>
<g>
</g>
<g>
</g>
<g>
</g>
<g>
</g>
<g>
</g>
<g>
</g>
<g>
</g>
<g>
</g>
<g>
</g>
<g>
</g>
<g>
</g>
<g>
</g>
<g>
</g>
<g>
</g>
</svg>
