<?xml version="1.0" encoding="iso-8859-1"?>
<!-- Generator: Adobe Illustrator 19.0.0, SVG Export Plug-In . SVG Version: 6.00 Build 0)  -->
<svg version="1.1" id="Layer_1" xmlns="http://www.w3.org/2000/svg" xmlns:xlink="http://www.w3.org/1999/xlink" x="0px" y="0px"
	 viewBox="0 0 512.001 512.001" style="enable-background:new 0 0 512.001 512.001;" xml:space="preserve">
<path style="fill:#939598;" d="M143.193,467.707V354.392c0-10.783-8.742-19.526-19.526-19.526s-19.526,8.742-19.526,19.526v113.315
	c-8.219,2.303-14.255,9.832-14.255,18.786c0,10.783,8.742,19.526,19.526,19.526h28.512c10.783,0,19.526-8.742,19.526-19.526
	C157.449,477.537,151.413,470.008,143.193,467.707z"/>
<path style="fill:#808285;" d="M143.193,467.707V354.392c0-10.783-8.741-19.526-19.524-19.526v171.151h14.255
	c10.783,0,19.526-8.742,19.526-19.526C157.449,477.537,151.413,470.008,143.193,467.707z"/>
<path style="fill:#51B3DA;" d="M123.668,373.921c-6.462,0-12.506-3.197-16.141-8.538L39.095,264.851
	c-4.07-5.981-4.501-13.723-1.118-20.117c3.383-6.395,10.025-10.396,17.259-10.396h136.863c7.235,0,13.876,4,17.26,10.396
	s2.952,14.135-1.118,20.117l-68.431,100.532C136.172,370.724,130.13,373.921,123.668,373.921z"/>
<path style="fill:#39A3DB;" d="M209.36,244.734c-3.383-6.395-10.025-10.396-17.259-10.396h-68.431v139.582
	c6.462,0,12.504-3.197,16.141-8.538l68.431-100.532C212.313,258.869,212.742,251.129,209.36,244.734z"/>
<path style="fill:#939598;" d="M227.972,6.16c-8.421,0-200.307,0-208.611,0c-25.801,0-25.829,39.052,0,39.052H35.71v94.569
	c0,10.783,8.742,19.526,19.526,19.526h136.863c10.783,0,19.526-8.742,19.526-19.526V45.212h16.347
	C253.774,45.212,253.801,6.16,227.972,6.16z M172.574,120.256H74.762V45.212h97.811V120.256z"/>
<path style="fill:#808285;" d="M227.972,6.16c-8.595,0-100.806-0.001-104.304-0.001v39.053h48.906v75.043h-48.906v39.052h68.431
	c10.783,0,19.526-8.742,19.526-19.526V45.212h16.347C253.774,45.212,253.801,6.16,227.972,6.16z"/>
<path style="fill:#80D0E1;" d="M192.099,273.389H55.237c-10.783,0-19.526-8.742-19.526-19.526V139.78
	c0-10.783,8.742-19.526,19.526-19.526h136.863c10.783,0,19.526,8.742,19.526,19.526v114.083
	C211.625,264.648,202.883,273.389,192.099,273.389z"/>
<path style="fill:#51B3DA;" d="M192.099,120.256h-68.431V273.39h68.431c10.783,0,19.526-8.742,19.526-19.526V139.782
	C211.625,128.998,202.883,120.256,192.099,120.256z"/>
<path style="fill:#939598;" d="M407.859,44.471v113.315c0,10.783-8.742,19.526-19.526,19.526s-19.526-8.742-19.526-19.526V44.471
	c-8.219-2.303-14.255-9.832-14.255-18.786c0-10.783,8.742-19.526,19.526-19.526h28.512c10.783,0,19.526,8.742,19.526,19.526
	C422.116,34.64,416.08,42.17,407.859,44.471z"/>
<path style="fill:#808285;" d="M407.859,44.471v113.315c0,10.783-8.741,19.526-19.524,19.526V6.159
	c8.388,0,33.781-3.392,33.781,19.526C422.116,34.64,416.08,42.17,407.859,44.471z"/>
<path style="fill:#51B3DA;" d="M404.476,146.797c72.076,105.884,77.007,106.551,69.551,120.649
	c-3.383,6.395-10.025,10.396-17.259,10.396H319.905c-15.652,0-24.953-17.567-16.141-30.512l68.431-100.53
	c3.636-5.342,9.68-8.539,16.141-8.539C394.798,138.259,400.839,141.454,404.476,146.797z"/>
<path style="fill:#39A3DB;" d="M474.027,267.444c-3.383,6.395-10.025,10.396-17.259,10.396h-68.431V138.257
	c6.462,0,12.504,3.197,16.141,8.539C476.551,252.68,481.483,253.346,474.027,267.444z"/>
<path style="fill:#939598;" d="M492.639,466.965h-16.347v-94.569c0-10.783-8.742-19.526-19.526-19.526H319.903
	c-10.783,0-19.526,8.742-19.526,19.526v94.569h-16.35c-25.801,0-25.829,39.052,0,39.052c8.003,0,198.239,0,208.611,0
	C518.442,506.016,518.468,466.965,492.639,466.965z M437.241,466.965h-97.811v-75.043h97.811L437.241,466.965L437.241,466.965z"/>
<path style="fill:#808285;" d="M492.639,506.016c-8.595,0-100.806,0.001-104.304,0.001v-39.053h48.906v-75.043h-48.906V352.87
	h68.431c10.783,0,19.526,8.742,19.526,19.526v94.569h16.347C518.442,466.965,518.468,506.016,492.639,506.016z"/>
<path style="fill:#80D0E1;" d="M476.292,258.314v114.083c0,10.783-8.742,19.526-19.526,19.526H319.904
	c-10.783,0-19.526-8.742-19.526-19.526V258.314c0-10.783,8.742-19.526,19.526-19.526h136.863
	C467.55,238.788,476.292,247.53,476.292,258.314z"/>
<path style="fill:#51B3DA;" d="M456.766,391.922h-68.431V238.788h68.431c10.783,0,19.526,8.742,19.526,19.526v114.083
	C476.292,383.18,467.55,391.922,456.766,391.922z"/>
<g>
</g>
<g>
</g>
<g>
</g>
<g>
</g>
<g>
</g>
<g>
</g>
<g>
</g>
<g>
</g>
<g>
</g>
<g>
</g>
<g>
</g>
<g>
</g>
<g>
</g>
<g>
</g>
<g>
</g>
</svg>
