<?xml version="1.0" encoding="iso-8859-1"?>
<!-- Generator: Adobe Illustrator 19.0.0, SVG Export Plug-In . SVG Version: 6.00 Build 0)  -->
<svg version="1.1" id="Layer_1" xmlns="http://www.w3.org/2000/svg" xmlns:xlink="http://www.w3.org/1999/xlink" x="0px" y="0px"
	 viewBox="0 0 512 512" style="enable-background:new 0 0 512 512;" xml:space="preserve">
<path style="fill:#FF5E5B;" d="M407.645,65.474v-46.78c0-24.913-37.707-24.94-37.707,0v27.926H142.063V18.695
	c0-24.913-37.707-24.94-37.707,0v46.78c0,73.064,28.801,153.065,88.171,190.526c-59.07,37.271-88.171,116.734-88.171,190.525v46.78
	c0,24.913,37.707,24.94,37.707,0v-27.926h227.875v27.926c0,24.913,37.707,24.94,37.707,0v-46.78
	c0-73.064-28.801-153.065-88.171-190.525C378.544,218.729,407.645,139.265,407.645,65.474z M369.256,84.328
	c-1.472,20.214-5.318,39.621-11.322,57.556H154.067c-6.004-17.935-9.85-37.343-11.322-57.556H369.256z M142.745,427.671
	c1.472-20.212,5.318-39.622,11.322-57.556h203.865c6.004,17.935,9.85,37.343,11.322,57.556H142.745z M340.75,332.408H171.251
	c18.908-31.614,48.254-57.555,84.75-57.555C292.516,274.853,321.857,300.818,340.75,332.408z M256,237.145
	c-36.514,0-65.857-25.965-84.75-57.555H340.75C321.843,211.204,292.497,237.145,256,237.145z"/>
<path style="fill:#FF423D;" d="M407.645,65.474v-46.78c0-24.913-37.707-24.94-37.707,0v27.926H255.996v37.707h113.26
	c-1.472,20.214-5.318,39.621-11.322,57.556H255.998v37.707h84.753c-18.908,31.614-48.254,57.555-84.75,57.555
	c-0.001,0-0.003,0-0.004,0v37.707c0.001,0,0.003,0,0.004,0c36.514,0,65.856,25.965,84.75,57.555h-84.753v37.707h101.936
	c6.004,17.935,9.85,37.343,11.322,57.556h-113.26v37.707h113.941v27.926c0,24.913,37.707,24.94,37.707,0v-46.78
	c0-73.064-28.801-153.065-88.171-190.525C378.544,218.729,407.645,139.265,407.645,65.474z"/>
<g>
</g>
<g>
</g>
<g>
</g>
<g>
</g>
<g>
</g>
<g>
</g>
<g>
</g>
<g>
</g>
<g>
</g>
<g>
</g>
<g>
</g>
<g>
</g>
<g>
</g>
<g>
</g>
<g>
</g>
</svg>
