<?xml version="1.0" encoding="iso-8859-1"?>
<!-- Generator: Adobe Illustrator 19.0.0, SVG Export Plug-In . SVG Version: 6.00 Build 0)  -->
<svg version="1.1" id="Layer_1" xmlns="http://www.w3.org/2000/svg" xmlns:xlink="http://www.w3.org/1999/xlink" x="0px" y="0px"
	 viewBox="0 0 512 512" style="enable-background:new 0 0 512 512;" xml:space="preserve">
<path style="fill:#C7E9F4;" d="M255.999,219.351c-60.475,0-109.675-49.2-109.675-109.675S195.524,0,255.999,0
	s109.675,49.2,109.675,109.676S316.475,219.351,255.999,219.351z"/>
<path style="fill:#80D0E1;" d="M490.718,512H21.281c-11.08,0-20.062-8.982-20.062-20.062c0-140.486,114.293-254.781,254.781-254.781
	s254.781,114.295,254.781,254.781C510.78,503.018,501.797,512,490.718,512z"/>
<path style="fill:#51B3DA;" d="M255.999,237.157V512h234.719c11.08,0,20.062-8.982,20.062-20.062
	C510.78,351.45,396.485,237.157,255.999,237.157z"/>
<path style="fill:#C7E9F4;" d="M241.959,388.902l-97.961-95.982c-10.01-9.808-7.125-26.676,5.655-32.555
	c67.584-31.096,145.109-31.095,212.693,0c12.731,5.857,15.703,22.71,5.655,32.555l-97.961,95.982
	C262.238,396.546,249.759,396.546,241.959,388.902z"/>
<g>
	<path style="fill:#80D0E1;" d="M362.346,260.366c-33.792-15.548-70.07-23.321-106.347-23.321v157.591
		c5.07,0,10.139-1.911,14.041-5.732l97.961-95.982C378.01,283.114,375.126,266.246,362.346,260.366z"/>
	<path style="fill:#80D0E1;" d="M255.999,0v219.351c60.475,0,109.675-49.2,109.675-109.675S316.475,0,255.999,0z"/>
</g>
<path style="fill:#FF423D;" d="M404.462,383.94h-9.362v-9.362c0-26.51-40.124-26.538-40.124,0v9.362h-9.362
	c-26.51,0-26.538,40.124,0,40.124h9.362v9.362c0,26.51,40.124,26.538,40.124,0v-9.362h9.362
	C430.972,424.064,430.998,383.94,404.462,383.94z"/>
<g>
</g>
<g>
</g>
<g>
</g>
<g>
</g>
<g>
</g>
<g>
</g>
<g>
</g>
<g>
</g>
<g>
</g>
<g>
</g>
<g>
</g>
<g>
</g>
<g>
</g>
<g>
</g>
<g>
</g>
</svg>
