<?xml version="1.0" encoding="iso-8859-1"?>
<!-- Generator: Adobe Illustrator 19.0.0, SVG Export Plug-In . SVG Version: 6.00 Build 0)  -->
<svg version="1.1" id="Layer_1" xmlns="http://www.w3.org/2000/svg" xmlns:xlink="http://www.w3.org/1999/xlink" x="0px" y="0px"
	 viewBox="0 0 512.001 512.001" style="enable-background:new 0 0 512.001 512.001;" xml:space="preserve">
<path style="fill:#80D0E1;" d="M256.003,219.357H76.783c-11.08,0-20.062-8.982-20.062-20.062C56.721,89.99,144.605,1.094,254,0.015
	c0.068-0.001,0.136-0.001,0.202-0.001c10.948,0,19.891,8.79,20.055,19.761c0.166,11.038-8.619,20.137-19.655,20.359
	c-55.085,1.107-87.694,63.476-55.546,109.41c13.205,18.868,33.962,29.69,56.948,29.69c11.08,0,20.062,8.982,20.062,20.062
	C276.065,210.375,267.084,219.357,256.003,219.357z"/>
<path style="fill:#51B3DA;" d="M435.224,219.357h-179.22c-11.08,0-20.062-8.982-20.062-20.062c0-11.08,8.982-20.062,20.062-20.062
	c48.372,0,81.873-48.093,65.371-93.359c0-0.001-0.001-0.003-0.001-0.004c-9.757-26.784-35.464-45.165-63.968-45.737
	c-11.037-0.222-19.821-9.319-19.655-20.359c0.165-10.971,9.109-19.761,20.055-19.761c0.068,0,0.134,0,0.202,0.001
	C367.28,1.091,455.286,89.876,455.286,199.296C455.286,210.375,446.304,219.357,435.224,219.357z"/>
<path style="fill:#C7E9F4;" d="M256.003,219.357c-35.733,0-69.31-17.498-89.823-46.807c-28.564-40.815-26.206-113.608,5.604-113.608
	h168.439c31.341,0,34.704,72.024,5.603,113.608C325.313,201.859,291.735,219.357,256.003,219.357z"/>
<g>
	<path style="fill:#80D0E1;" d="M340.224,58.942h-84.224v160.415c0.001,0,0.003,0,0.004,0c35.732,0,69.309-17.498,89.821-46.807
		C374.39,131.734,372.034,58.942,340.224,58.942z"/>
	<path style="fill:#80D0E1;" d="M490.718,512H21.282c-11.08,0-20.062-8.982-20.062-20.062c0-140.486,114.294-254.78,254.78-254.78
		s254.78,114.294,254.78,254.78C510.78,503.019,501.797,512,490.718,512z"/>
</g>
<path style="fill:#51B3DA;" d="M255.999,237.159v274.842h234.718c11.08,0,20.062-8.982,20.062-20.062
	C510.78,351.452,396.485,237.159,255.999,237.159z"/>
<path style="fill:#C7E9F4;" d="M241.96,388.904l-97.961-95.982c-10.01-9.806-7.125-26.676,5.655-32.555
	c67.583-31.095,145.108-31.095,212.693,0c12.731,5.857,15.703,22.71,5.655,32.555l-97.961,95.982
	C262.239,396.547,249.76,396.546,241.96,388.904z"/>
<path style="fill:#80D0E1;" d="M362.346,260.367c-33.792-15.547-70.07-23.321-106.347-23.321v157.591
	c5.07,0,10.139-1.911,14.041-5.732l97.961-95.982C378.011,283.116,375.126,266.246,362.346,260.367z"/>
<path style="fill:#FF423D;" d="M404.462,383.942H395.1v-9.362c0-26.51-40.124-26.538-40.124,0v9.362h-9.362
	c-26.51,0-26.538,40.124,0,40.124h9.362v9.362c0,26.51,40.124,26.538,40.124,0v-9.362h9.362
	C430.972,424.066,430.999,383.942,404.462,383.942z"/>
<path style="fill:#80D0E1;" d="M340.224,99.066H171.785C124.96,99.066,169.119,0,255.986,0C342.58,0,387.726,99.066,340.224,99.066z
	"/>
<path style="fill:#51B3DA;" d="M255.999,0v99.066h84.224C387.864,99.066,342.513,0.011,255.999,0z"/>
<g>
</g>
<g>
</g>
<g>
</g>
<g>
</g>
<g>
</g>
<g>
</g>
<g>
</g>
<g>
</g>
<g>
</g>
<g>
</g>
<g>
</g>
<g>
</g>
<g>
</g>
<g>
</g>
<g>
</g>
</svg>
