<?xml version="1.0" encoding="iso-8859-1"?>
<!-- Generator: Adobe Illustrator 19.0.0, SVG Export Plug-In . SVG Version: 6.00 Build 0)  -->
<svg version="1.1" id="Layer_1" xmlns="http://www.w3.org/2000/svg" xmlns:xlink="http://www.w3.org/1999/xlink" x="0px" y="0px"
	 viewBox="0 0 512 512" style="enable-background:new 0 0 512 512;" xml:space="preserve">
<path style="fill:#C7E9F4;" d="M495.084,427.424h-68.02c-9.342,0-16.916-7.574-16.916-16.916V240.766l-47.817-56.62
	c-2.578-3.053-3.992-6.919-3.992-10.914V59.098c0-15.598,19.429-22.874,29.672-11.111l119.829,137.58
	c2.683,3.08,4.16,7.026,4.16,11.111v213.83C512,419.85,504.426,427.424,495.084,427.424z"/>
<path style="fill:#E8F2FB;" d="M375.254,469.83H136.746c-9.342,0-16.916-7.574-16.916-16.916V59.098
	c0-9.342,7.574-16.916,16.916-16.916h238.507c9.342,0,16.916,7.574,16.916,16.916v393.816
	C392.171,462.256,384.597,469.83,375.254,469.83z"/>
<path style="fill:#C7E9F4;" d="M375.254,42.182H256V469.83h119.254c9.342,0,16.916-7.574,16.916-16.916V59.098
	C392.171,49.756,384.597,42.182,375.254,42.182z"/>
<path style="fill:#E8F2FB;" d="M84.937,427.424h-68.02C7.574,427.424,0,419.85,0,410.508v-213.83c0-4.085,1.477-8.031,4.16-11.111
	L123.99,47.987c10.246-11.762,29.672-4.487,29.672,11.111v114.133c0,3.996-1.414,7.862-3.992,10.914l-47.817,56.62v169.743
	C101.853,419.85,94.28,427.424,84.937,427.424z"/>
<path style="fill:#C7E9F4;" d="M205.895,403.166h-86.066V300.184h86.066c9.342,0,16.916,7.574,16.916,16.916v69.149
	C222.811,395.592,215.238,403.166,205.895,403.166z"/>
<path style="fill:#80D0E1;" d="M256,224.429c-7.306,0-13.786-4.69-16.069-11.629L191.098,64.385
	c-3.594-10.923,4.55-22.203,16.068-22.203h97.667c11.5,0,19.669,11.262,16.068,22.203l-48.833,148.415
	C269.786,219.738,263.306,224.429,256,224.429z"/>
<path style="fill:#51B3DA;" d="M304.833,42.182H256v182.247c7.306,0,13.786-4.69,16.068-11.629l48.834-148.415
	C324.496,53.462,316.352,42.182,304.833,42.182z"/>
<g>
	<path style="fill:#C7E9F4;" d="M256.009,224.43c-4.991,0-9.889-2.208-13.196-6.321L123.559,69.694
		c-8.874-11.045-0.996-27.513,13.187-27.513h70.42c16.324,0,12.797,1.685,64.902,160.044
		C275.685,213.215,267.434,224.43,256.009,224.43z"/>
	<path style="fill:#C7E9F4;" d="M255.991,224.43c-11.429,0-19.675-11.217-16.06-22.204l48.833-148.415
		c2.283-6.94,8.764-11.629,16.069-11.629h70.42c14.169,0,22.07,16.456,13.187,27.513L269.187,218.109
		C265.881,222.223,260.981,224.43,255.991,224.43z"/>
</g>
<path style="fill:#80D0E1;" d="M392.171,403.166h-86.066c-9.342,0-16.916-7.574-16.916-16.916v-69.149
	c0-9.342,7.574-16.916,16.916-16.916h86.066V403.166z"/>
<path style="fill:#C7E9F4;" d="M272.068,202.225L256,153.389v71.041c0.003,0,0.006,0.001,0.009,0.001
	C267.438,224.43,275.684,213.213,272.068,202.225z"/>
<path style="fill:#80D0E1;" d="M375.254,42.182h-70.42c-7.306,0-13.786,4.689-16.069,11.629L256,153.389v71.041
	c4.987-0.002,9.882-2.209,13.187-6.321L388.441,69.694C397.315,58.649,389.436,42.182,375.254,42.182z"/>
<g>
</g>
<g>
</g>
<g>
</g>
<g>
</g>
<g>
</g>
<g>
</g>
<g>
</g>
<g>
</g>
<g>
</g>
<g>
</g>
<g>
</g>
<g>
</g>
<g>
</g>
<g>
</g>
<g>
</g>
</svg>
