<?xml version="1.0" encoding="iso-8859-1"?>
<!-- Generator: Adobe Illustrator 19.0.0, SVG Export Plug-In . SVG Version: 6.00 Build 0)  -->
<svg version="1.1" id="Layer_1" xmlns="http://www.w3.org/2000/svg" xmlns:xlink="http://www.w3.org/1999/xlink" x="0px" y="0px"
	 viewBox="0 0 512 512" style="enable-background:new 0 0 512 512;" xml:space="preserve">
<path style="fill:#C7E9F4;" d="M408.31,512H103.688c-11.28,0-20.426-9.145-20.426-20.426V110.581
	c0-11.28,9.145-20.426,20.426-20.426H408.31c11.28,0,20.426,9.145,20.426,20.426v380.993C428.736,502.855,419.592,512,408.31,512z"
	/>
<path style="fill:#80D0E1;" d="M408.31,90.156H256V512h152.31c11.28,0,20.426-9.145,20.426-20.426V110.581
	C428.736,99.301,419.592,90.156,408.31,90.156z"/>
<rect x="83.268" y="181.106" style="fill:#FFEDBE;" width="345.477" height="239.946"/>
<rect x="256" y="181.106" style="fill:#FFDA79;" width="172.732" height="239.946"/>
<path style="fill:#80D0E1;" d="M450.486,131.007H61.514c-11.28,0-20.426-9.145-20.426-20.426V20.426C41.088,9.145,50.233,0,61.514,0
	h388.973c11.28,0,20.426,9.145,20.426,20.426v90.156C470.912,121.861,461.767,131.007,450.486,131.007z"/>
<g>
	<path style="fill:#FFC72D;" d="M327.402,285.445H184.598c-11.28,0-20.426-9.145-20.426-20.426s9.145-20.426,20.426-20.426h142.803
		c11.28,0,20.426,9.145,20.426,20.426C347.828,276.3,338.683,285.445,327.402,285.445z"/>
	<path style="fill:#FFC72D;" d="M327.402,357.561H184.598c-11.28,0-20.426-9.145-20.426-20.426s9.145-20.426,20.426-20.426h142.803
		c11.28,0,20.426,9.145,20.426,20.426S338.683,357.561,327.402,357.561z"/>
</g>
<path style="fill:#51B3DA;" d="M450.486,0H256v131.007h194.486c11.28,0,20.426-9.145,20.426-20.426V20.426
	C470.912,9.145,461.767,0,450.486,0z"/>
<g>
	<path style="fill:#FFB700;" d="M327.402,244.594H256v40.851h71.402c11.28,0,20.426-9.145,20.426-20.426
		S338.683,244.594,327.402,244.594z"/>
	<path style="fill:#FFB700;" d="M327.402,316.71H256v40.851h71.402c11.28,0,20.426-9.145,20.426-20.426
		S338.683,316.71,327.402,316.71z"/>
</g>
<g>
</g>
<g>
</g>
<g>
</g>
<g>
</g>
<g>
</g>
<g>
</g>
<g>
</g>
<g>
</g>
<g>
</g>
<g>
</g>
<g>
</g>
<g>
</g>
<g>
</g>
<g>
</g>
<g>
</g>
</svg>
