<?xml version="1.0" encoding="iso-8859-1"?>
<!-- Generator: Adobe Illustrator 19.0.0, SVG Export Plug-In . SVG Version: 6.00 Build 0)  -->
<svg version="1.1" id="Layer_1" xmlns="http://www.w3.org/2000/svg" xmlns:xlink="http://www.w3.org/1999/xlink" x="0px" y="0px"
	 viewBox="0 0 511.998 511.998" style="enable-background:new 0 0 511.998 511.998;" xml:space="preserve">
<path style="fill:#FFEDBE;" d="M14.278,497.715c-19.037-19.037-19.037-50.015,0-69.053l172.095-172.095
	c7.985-7.985,20.929-7.985,28.914,0l40.14,40.14c7.985,7.985,7.985,20.929,0,28.914L83.331,497.715
	C64.293,516.753,33.315,516.753,14.278,497.715z"/>
<path style="fill:#FFE49C;" d="M255.425,296.706l-20.073-20.073L14.274,497.713c0.001,0.001,0.003,0.001,0.003,0.003
	c19.037,19.037,50.015,19.037,69.053,0L255.425,325.62C263.41,317.636,263.41,304.691,255.425,296.706z"/>
<path style="fill:#FF5E5B;" d="M241.274,340.383l-69.664-69.665c-7.985-7.985-7.985-20.929,0-28.914l23.413-23.413
	C136.927,55.364,341.267-73.973,463.616,48.376c122.482,122.482-7.268,326.59-170.015,268.594l-23.413,23.413
	C262.203,348.368,249.259,348.368,241.274,340.383z"/>
<path style="fill:#FF423D;" d="M463.616,48.376l-0.003-0.003L206.44,305.547l34.835,34.835c7.985,7.985,20.929,7.985,28.914,0
	l23.413-23.413C456.629,375.066,585.965,170.725,463.616,48.376z"/>
<g>
</g>
<g>
</g>
<g>
</g>
<g>
</g>
<g>
</g>
<g>
</g>
<g>
</g>
<g>
</g>
<g>
</g>
<g>
</g>
<g>
</g>
<g>
</g>
<g>
</g>
<g>
</g>
<g>
</g>
</svg>
