<?xml version="1.0" encoding="iso-8859-1"?>
<!-- Generator: Adobe Illustrator 19.0.0, SVG Export Plug-In . SVG Version: 6.00 Build 0)  -->
<svg version="1.1" id="Layer_1" xmlns="http://www.w3.org/2000/svg" xmlns:xlink="http://www.w3.org/1999/xlink" x="0px" y="0px"
	 viewBox="0 0 511.999 511.999" style="enable-background:new 0 0 511.999 511.999;" xml:space="preserve">
<path style="fill:#39A3DB;" d="M52.922,180.876l84.459-55.747c24.038-15.866,56.268-12.6,76.636,7.766
	c15.487,15.486-7.935,38.949-23.441,23.441c-9.282-9.281-23.974-10.77-34.931-3.541l-84.461,55.747
	C52.832,220.658,34.718,192.89,52.922,180.876z"/>
<path style="fill:#3797D3;" d="M440.818,208.543l-84.459-55.747c-10.96-7.231-25.649-5.741-34.931,3.541
	c-15.485,15.485-38.951-7.935-23.441-23.441c20.366-20.367,52.598-23.635,76.635-7.766l84.459,55.747
	C477.286,192.894,459.155,220.651,440.818,208.543z"/>
<path style="fill:#39A3DB;" d="M293.126,295.74h-74.251c-9.154,0-16.576-7.421-16.576-16.576c0-9.154,7.421-16.576,16.576-16.576
	h74.251c9.154,0,16.576,7.421,16.576,16.576C309.701,288.319,302.28,295.74,293.126,295.74z"/>
<path style="fill:#3797D3;" d="M293.126,262.589h-37.129v33.151h37.129c9.154,0,16.576-7.421,16.576-16.576
	C309.701,270.01,302.28,262.589,293.126,262.589z"/>
<path style="fill:#80D0E1;" d="M117.726,396.889C52.811,396.889,0,344.078,0,279.164S52.811,161.44,117.726,161.44
	c64.913,0,117.724,52.811,117.724,117.725S182.639,396.889,117.726,396.889z"/>
<path style="fill:#FFEDBE;" d="M117.724,333.577c-30.003,0-54.412-24.409-54.412-54.412s24.409-54.412,54.412-54.412
	s54.412,24.409,54.412,54.412C172.137,309.167,147.729,333.577,117.724,333.577z"/>
<path style="fill:#51B3DA;" d="M394.274,396.889c-64.913,0-117.724-52.811-117.724-117.724S329.361,161.44,394.274,161.44
	s117.724,52.811,117.724,117.724C512,344.078,459.189,396.889,394.274,396.889z"/>
<path style="fill:#FFDA79;" d="M394.274,333.577c-30.003,0-54.412-24.409-54.412-54.412s24.409-54.412,54.412-54.412
	s54.412,24.409,54.412,54.412C448.688,309.167,424.278,333.577,394.274,333.577z"/>
<g>
</g>
<g>
</g>
<g>
</g>
<g>
</g>
<g>
</g>
<g>
</g>
<g>
</g>
<g>
</g>
<g>
</g>
<g>
</g>
<g>
</g>
<g>
</g>
<g>
</g>
<g>
</g>
<g>
</g>
</svg>
