<?xml version="1.0" encoding="iso-8859-1"?>
<!-- Generator: Adobe Illustrator 19.0.0, SVG Export Plug-In . SVG Version: 6.00 Build 0)  -->
<svg version="1.1" id="Layer_1" xmlns="http://www.w3.org/2000/svg" xmlns:xlink="http://www.w3.org/1999/xlink" x="0px" y="0px"
	 viewBox="0 0 512 512" style="enable-background:new 0 0 512 512;" xml:space="preserve">
<path style="fill:#939598;" d="M328.938,121.432c-10.707,0-19.386-8.68-19.386-19.386V64.513H202.449v37.532
	c0,10.707-8.68,19.386-19.386,19.386c-10.707,0-19.387-8.68-19.387-19.386V45.127c0-10.707,8.68-19.386,19.387-19.386h145.876
	c10.707,0,19.386,8.68,19.386,19.386v56.919C348.325,112.752,339.645,121.432,328.938,121.432z"/>
<path style="fill:#808285;" d="M328.938,25.739H255.73v38.773h53.822v37.534c0,10.707,8.68,19.386,19.386,19.386
	s19.386-8.68,19.386-19.386v-56.92C348.325,34.419,339.645,25.739,328.938,25.739z"/>
<g>
	<path style="fill:#74B8E5;" d="M155.675,486.261H63.148c-10.707,0-19.386-8.68-19.386-19.387v-60.697
		c0-10.707,8.68-19.386,19.386-19.386h92.527c10.707,0,19.387,8.68,19.387,19.386v60.697
		C175.061,477.581,166.381,486.261,155.675,486.261z"/>
	<path style="fill:#74B8E5;" d="M448.847,486.261H356.32c-10.707,0-19.386-8.68-19.386-19.387v-60.697
		c0-10.707,8.68-19.386,19.386-19.386h92.527c10.707,0,19.386,8.68,19.386,19.386v60.697
		C468.233,477.581,459.553,486.261,448.847,486.261z"/>
</g>
<path style="fill:#C7E9F4;" d="M463.921,425.565H48.079C21.567,425.565,0,403.997,0,377.486v-246.75
	c0-26.51,21.568-48.079,48.079-48.079h415.843c26.512,0,48.078,21.568,48.078,48.079v246.75
	C512,403.998,490.433,425.565,463.921,425.565z"/>
<path style="fill:#80D0E1;" d="M463.921,82.659H255.73v342.907h208.192c26.512,0,48.078-21.568,48.078-48.079V130.736
	C512,104.227,490.433,82.659,463.921,82.659z"/>
<path style="fill:#FF5E5B;" d="M301.549,234.72h-26.163v-26.163c0-10.707-8.68-19.387-19.386-19.387s-19.387,8.68-19.387,19.387
	v26.163h-26.163c-10.707,0-19.386,8.68-19.386,19.386c0,10.707,8.68,19.386,19.386,19.386h26.163v26.163
	c0,10.707,8.68,19.387,19.387,19.387s19.386-8.68,19.386-19.387v-26.163h26.163c10.707,0,19.387-8.68,19.387-19.386
	C320.936,243.4,312.257,234.72,301.549,234.72z"/>
<path style="fill:#FF423D;" d="M301.549,234.72h-26.163v-26.163c0-10.707-8.68-19.387-19.386-19.387c-0.092,0-0.18,0.013-0.27,0.013
	v129.846c0.09,0.001,0.178,0.013,0.27,0.013c10.707,0,19.386-8.68,19.386-19.387v-26.163h26.163c10.707,0,19.387-8.68,19.387-19.386
	C320.936,243.4,312.257,234.72,301.549,234.72z"/>
<g>
</g>
<g>
</g>
<g>
</g>
<g>
</g>
<g>
</g>
<g>
</g>
<g>
</g>
<g>
</g>
<g>
</g>
<g>
</g>
<g>
</g>
<g>
</g>
<g>
</g>
<g>
</g>
<g>
</g>
</svg>
