<?xml version="1.0" encoding="iso-8859-1"?>
<!-- Generator: Adobe Illustrator 19.0.0, SVG Export Plug-In . SVG Version: 6.00 Build 0)  -->
<svg version="1.1" id="Layer_1" xmlns="http://www.w3.org/2000/svg" xmlns:xlink="http://www.w3.org/1999/xlink" x="0px" y="0px"
	 viewBox="0 0 512 512" style="enable-background:new 0 0 512 512;" xml:space="preserve">
<path style="fill:#C7E9F4;" d="M348.263,147.744V40.161h10.664c26.534,0,26.562-40.161,0-40.161H153.073
	c-26.534,0-26.562,40.161,0,40.161h10.664v107.587c-55.34,30.047-93.359,85.967-100.346,148.833
	c-0.631,5.677,1.186,11.353,4.995,15.611c8.242,9.208,2.612,6.688,162.848,6.688c2.584,0,4.685,2.102,4.685,4.685
	c0,11.976,4.665,23.237,13.115,31.688c8.459,8.486,19.728,13.158,31.731,13.158h146.346c9.754,0,18.099-7.009,19.779-16.619
	c1.93-11.034,2.91-22.336,2.91-33.596C449.803,246.953,410.35,181.412,348.263,147.744z"/>
<path style="fill:#80D0E1;" d="M348.263,147.744V40.161h10.664c26.534,0,26.562-40.161,0-40.161H254.696v360.055
	c7.549,5.422,16.577,8.356,26.071,8.356h146.346c9.754,0,18.099-7.009,19.779-16.619c1.93-11.034,2.91-22.336,2.91-33.596
	C449.803,246.953,410.35,181.412,348.263,147.744z"/>
<path style="fill:#39A3DB;" d="M256,512c-106.864,0-193.803-86.939-193.803-193.803c0-7.229,0.402-14.505,1.195-21.621
	c1.133-10.167,9.727-17.857,19.957-17.857h147.886c24.728,0,44.846,20.118,44.846,44.846c0,2.549,2.051,4.685,4.685,4.685h146.346
	c12.474,0,21.925,11.269,19.781,23.538C430.923,443.17,351.138,512,256,512z"/>
<path style="fill:#3797D3;" d="M427.113,328.251H280.767c-2.636,0-4.685-2.138-4.685-4.685c0-16.133-8.566-30.299-21.386-38.201
	v226.62c0.435,0.003,0.869,0.016,1.305,0.016c95.154,0,174.926-68.849,190.894-160.212
	C449.041,339.501,439.567,328.251,427.113,328.251z"/>
<g>
</g>
<g>
</g>
<g>
</g>
<g>
</g>
<g>
</g>
<g>
</g>
<g>
</g>
<g>
</g>
<g>
</g>
<g>
</g>
<g>
</g>
<g>
</g>
<g>
</g>
<g>
</g>
<g>
</g>
</svg>
