<?xml version="1.0" encoding="iso-8859-1"?>
<!-- Generator: Adobe Illustrator 19.0.0, SVG Export Plug-In . SVG Version: 6.00 Build 0)  -->
<svg version="1.1" id="Layer_1" xmlns="http://www.w3.org/2000/svg" xmlns:xlink="http://www.w3.org/1999/xlink" x="0px" y="0px"
	 viewBox="0 0 512.001 512.001" style="enable-background:new 0 0 512.001 512.001;" xml:space="preserve">
<path style="fill:#FFEDBE;" d="M423.526,129.214H189.707V63.91c0-10.502-8.514-19.016-19.016-19.016H19.027
	c-10.502,0-19.016,8.514-19.016,19.016v84.321c0,0.009,0.001,0.016,0.001,0.024V448.09c0,9.372,6.828,17.346,16.088,18.789
	c0.986,0.153,1.97,0.228,2.941,0.228c8.153,0,15.553-5.255,18.101-13.23l65.246-204.206h321.137
	c10.502,0,19.016-8.514,19.016-19.016v-82.426C442.542,137.728,434.028,129.214,423.526,129.214z"/>
<path style="fill:#FFE49C;" d="M423.526,129.214H256.006v120.458h167.519c10.502,0,19.016-8.514,19.016-19.016V148.23
	C442.542,137.728,434.028,129.214,423.526,129.214z"/>
<path style="fill:#FFBE00;" d="M423.526,467.106H19.029c-12.852,0-22.035-12.529-18.115-24.803l69.472-217.435
	c2.518-7.88,9.841-13.229,18.115-13.229h404.483c6.071,0,11.776,2.898,15.356,7.8s4.604,11.22,2.757,17.002l-69.46,217.435
	C439.121,461.757,431.799,467.106,423.526,467.106z"/>
<path style="fill:#FFB700;" d="M508.341,219.44c-3.58-4.902-9.286-7.8-15.356-7.8H256.006v255.468h167.519
	c8.273,0,15.597-5.349,18.115-13.23l69.46-217.435C512.946,230.658,511.921,224.342,508.341,219.44z"/>
<path style="fill:#FF5E5B;" d="M305.996,320.356h-30.973v-30.973c0-10.502-8.514-19.016-19.016-19.016
	c-10.502,0-19.016,8.514-19.016,19.016v30.973h-30.973c-10.502,0-19.016,8.514-19.016,19.016c0,10.502,8.514,19.016,19.016,19.016
	h30.973v30.973c0,10.502,8.514,19.016,19.016,19.016c10.502,0,19.016-8.514,19.016-19.016v-30.973h30.973
	c10.502,0,19.016-8.514,19.016-19.016C325.012,328.87,316.498,320.356,305.996,320.356z"/>
<path style="fill:#FF423D;" d="M305.996,320.356h-30.973v-30.973c0-10.502-8.514-19.016-19.016-19.016h-0.001v138.011h0.001
	c10.502,0,19.016-8.514,19.016-19.016v-30.973h30.973c10.502,0,19.016-8.514,19.016-19.016
	C325.012,328.87,316.498,320.356,305.996,320.356z"/>
<g>
</g>
<g>
</g>
<g>
</g>
<g>
</g>
<g>
</g>
<g>
</g>
<g>
</g>
<g>
</g>
<g>
</g>
<g>
</g>
<g>
</g>
<g>
</g>
<g>
</g>
<g>
</g>
<g>
</g>
</svg>
