<?xml version="1.0" encoding="iso-8859-1"?>
<!-- Generator: Adobe Illustrator 19.0.0, SVG Export Plug-In . SVG Version: 6.00 Build 0)  -->
<svg version="1.1" id="Layer_1" xmlns="http://www.w3.org/2000/svg" xmlns:xlink="http://www.w3.org/1999/xlink" x="0px" y="0px"
	 viewBox="0 0 512 512" style="enable-background:new 0 0 512 512;" xml:space="preserve">
<path style="fill:#C7E9F4;" d="M334.786,511.995H97.812c-10.612,0-19.216-8.604-19.216-19.216v-53.498
	c0-10.612,8.604-19.216,19.216-19.216h236.973c10.612,0,19.216,8.604,19.216,19.216v53.498
	C354.002,503.391,345.398,511.995,334.786,511.995z"/>
<path style="fill:#80D0E1;" d="M334.786,420.065h-78.786v91.93h78.786c10.612,0,19.216-8.604,19.216-19.216v-53.498
	C354.002,428.669,345.398,420.065,334.786,420.065z"/>
<path style="fill:#E8F2FB;" d="M334.786,458.497H97.812c-10.612,0-19.216-8.604-19.216-19.216v-61.339
	c-28.796-8.072-49.975-34.558-49.975-65.897V203.806c0-35.096,33.705-60.49,67.385-50.896V86.934
	c0-36.052,35.57-61.768,69.885-50.116C172.715,15.487,192.732,0,216.299,0s43.583,15.487,50.409,36.819
	c28.145-9.562,58.44,6.067,67.385,34.025c34.274-11.639,69.885,14.024,69.885,50.116v191.085c0,31.338-21.179,57.824-49.975,65.897
	v61.338C354.002,449.893,345.398,458.497,334.786,458.497z"/>
<path style="fill:#C7E9F4;" d="M334.091,70.844c-8.948-27.972-39.253-43.581-67.385-34.025c-2.25-7.031-5.938-13.419-10.707-18.834
	v440.513h78.786c10.612,0,19.216-8.604,19.216-19.216v-61.339c28.796-8.073,49.975-34.558,49.975-65.897V120.959
	C403.976,84.908,368.406,59.191,334.091,70.844z"/>
<path style="fill:#80D0E1;" d="M414.184,512h-30.657c-25.392,0-25.419-38.432,0-38.432h11.441v-65.53
	c0-6.257,3.046-12.12,8.163-15.719c26.184-18.409,41.816-48.417,41.816-80.27V127.251c0-11.635-9.466-21.101-21.102-21.101
	c-25.392,0-25.419-38.432,0-38.432c32.796,0,59.482,26.657,59.534,59.439c0,0.018,0,0.033,0,0.051V312.05
	c0,40.929-18.508,79.65-49.979,105.499v75.235C433.4,503.396,424.797,512,414.184,512z"/>
<g>
</g>
<g>
</g>
<g>
</g>
<g>
</g>
<g>
</g>
<g>
</g>
<g>
</g>
<g>
</g>
<g>
</g>
<g>
</g>
<g>
</g>
<g>
</g>
<g>
</g>
<g>
</g>
<g>
</g>
</svg>
