<?xml version="1.0" encoding="iso-8859-1"?>
<!-- Generator: Adobe Illustrator 19.0.0, SVG Export Plug-In . SVG Version: 6.00 Build 0)  -->
<svg version="1.1" id="Layer_1" xmlns="http://www.w3.org/2000/svg" xmlns:xlink="http://www.w3.org/1999/xlink" x="0px" y="0px"
	 viewBox="0 0 512 512" style="enable-background:new 0 0 512 512;" xml:space="preserve">
<path style="fill:#FFB700;" d="M149.433,468.671h-131.1C8.209,468.671,0,460.463,0,450.338V198.017
	c0-10.125,8.209-18.334,18.334-18.334h131.1c10.125,0,18.334,8.209,18.334,18.334v252.321
	C167.767,460.463,159.558,468.671,149.433,468.671z"/>
<path style="fill:#FFAF00;" d="M493.666,468.671H362.568c-10.125,0-18.334-8.209-18.334-18.334V198.017
	c0-10.125,8.209-18.334,18.334-18.334h131.098c10.125,0,18.334,8.209,18.334,18.334v252.321
	C512,460.463,503.793,468.671,493.666,468.671z"/>
<path style="fill:#74B8E5;" d="M167.767,216.35H0v-95.959c0-10.125,8.209-18.334,18.334-18.334h131.1
	c10.125,0,18.334,8.209,18.334,18.334V216.35z"/>
<path style="fill:#39A3DB;" d="M512,216.35H344.234v-95.959c0-10.125,8.209-18.334,18.334-18.334h131.098
	c10.125,0,18.334,8.209,18.334,18.334V216.35z"/>
<path style="fill:#FFC72D;" d="M380.902,468.671H131.1V61.662c0-10.125,8.209-18.334,18.334-18.334h213.135
	c10.125,0,18.334,8.209,18.334,18.334V468.671z"/>
<path style="fill:#FFB700;" d="M362.568,43.329H256v425.343h124.902V61.662C380.902,51.537,372.693,43.329,362.568,43.329z"/>
<path style="fill:#FFBE00;" d="M312.682,468.671H198.807v-133.52c0-10.125,8.209-18.334,18.334-18.334h77.207
	c10.125,0,18.334,8.209,18.334,18.334V468.671z"/>
<path style="fill:#FF423D;" d="M294.808,140.871h-20.474v-20.474c0-10.125-8.209-18.334-18.334-18.334
	c-10.125,0-18.334,8.209-18.334,18.334v20.474h-20.474c-10.125,0-18.334,8.209-18.334,18.334c0,10.125,8.209,18.334,18.334,18.334
	h20.474v20.474c0,10.125,8.209,18.334,18.334,18.334c10.125,0,18.334-8.209,18.334-18.334v-20.474h20.474
	c10.125,0,18.334-8.209,18.334-18.334C313.141,149.08,304.933,140.871,294.808,140.871z"/>
<path style="fill:#FB3732;" d="M294.808,140.871h-20.474v-20.474c0-10.125-8.209-18.334-18.334-18.334v114.283
	c10.125,0,18.334-8.209,18.334-18.334v-20.474h20.474c10.125,0,18.334-8.209,18.334-18.334
	C313.141,149.08,304.933,140.871,294.808,140.871z"/>
<path style="fill:#FFAF00;" d="M294.348,316.818H256v151.853h56.682v-133.52C312.682,325.026,304.473,316.818,294.348,316.818z"/>
<g>
</g>
<g>
</g>
<g>
</g>
<g>
</g>
<g>
</g>
<g>
</g>
<g>
</g>
<g>
</g>
<g>
</g>
<g>
</g>
<g>
</g>
<g>
</g>
<g>
</g>
<g>
</g>
<g>
</g>
</svg>
