<?xml version="1.0" encoding="iso-8859-1"?>
<!-- Generator: Adobe Illustrator 19.0.0, SVG Export Plug-In . SVG Version: 6.00 Build 0)  -->
<svg version="1.1" id="Layer_1" xmlns="http://www.w3.org/2000/svg" xmlns:xlink="http://www.w3.org/1999/xlink" x="0px" y="0px"
	 viewBox="0 0 512.001 512.001" style="enable-background:new 0 0 512.001 512.001;" xml:space="preserve">
<path style="fill:#51B3DA;" d="M491.512,504.247H20.488C9.173,504.247,0,495.074,0,483.76V206.016
	c0-11.315,9.173-20.488,20.488-20.488h471.025c11.315,0,20.488,9.173,20.488,20.488V483.76
	C512,495.074,502.828,504.247,491.512,504.247z"/>
<g>
	<path style="fill:#39A3DB;" d="M491.512,185.528H256.001v318.719h235.513c11.315,0,20.488-9.173,20.488-20.488V206.016
		C512,194.701,502.828,185.528,491.512,185.528z"/>
	<path style="fill:#39A3DB;" d="M360.508,504.247H151.492v-159.36c0-11.315,9.173-20.488,20.488-20.488h168.042
		c11.315,0,20.488,9.173,20.488,20.488V504.247z"/>
</g>
<path style="fill:#80D0E1;" d="M428.114,226.504H83.886c-11.315,0-20.488-9.173-20.488-20.488V28.242
	c0-11.315,9.173-20.488,20.488-20.488h344.228c11.315,0,20.488,9.173,20.488,20.488v177.775
	C448.601,217.331,439.43,226.504,428.114,226.504z"/>
<path style="fill:#51B3DA;" d="M428.114,7.754H256.001v218.75h172.114c11.315,0,20.488-9.173,20.488-20.488V28.242
	C448.601,16.927,439.43,7.754,428.114,7.754z"/>
<path style="fill:#FF423D;" d="M290.704,96.642h-14.216V82.426c0-11.315-9.173-20.488-20.488-20.488s-20.488,9.173-20.488,20.488
	v14.216h-14.216c-11.315,0-20.488,9.173-20.488,20.488s9.173,20.488,20.488,20.488h14.216v14.216
	c0,11.315,9.173,20.488,20.488,20.488s20.488-9.173,20.488-20.488v-14.216h14.216c11.315,0,20.488-9.173,20.488-20.488
	S302.019,96.642,290.704,96.642z"/>
<path style="fill:#3797D3;" d="M360.508,344.887c0-11.315-9.173-20.488-20.488-20.488h-84.02v179.848H360.51v-159.36H360.508z"/>
<path style="fill:#FB3732;" d="M290.704,96.642h-14.216V82.426c0-11.315-9.173-20.488-20.488-20.488v110.382
	c11.315,0,20.488-9.173,20.488-20.488v-14.216h14.216c11.315,0,20.488-9.173,20.488-20.488
	C311.192,105.815,302.019,96.642,290.704,96.642z"/>
<g>
</g>
<g>
</g>
<g>
</g>
<g>
</g>
<g>
</g>
<g>
</g>
<g>
</g>
<g>
</g>
<g>
</g>
<g>
</g>
<g>
</g>
<g>
</g>
<g>
</g>
<g>
</g>
<g>
</g>
</svg>
