<?xml version="1.0" encoding="iso-8859-1"?>
<!-- Generator: Adobe Illustrator 19.0.0, SVG Export Plug-In . SVG Version: 6.00 Build 0)  -->
<svg version="1.1" id="Layer_1" xmlns="http://www.w3.org/2000/svg" xmlns:xlink="http://www.w3.org/1999/xlink" x="0px" y="0px"
	 viewBox="0 0 512 512" style="enable-background:new 0 0 512 512;" xml:space="preserve">
<path style="fill:#FF5E5B;" d="M331.401,512H180.598c-23.981,0-43.491-19.51-43.491-43.491v-93.616H43.491
	C19.51,374.893,0,355.383,0,331.402V180.598c0-23.981,19.51-43.491,43.491-43.491h93.616V43.491C137.107,19.51,156.617,0,180.598,0
	h150.804c23.981,0,43.491,19.51,43.491,43.491v93.616h93.616c23.981,0,43.491,19.51,43.491,43.491v150.804
	c0,23.981-19.51,43.491-43.491,43.491h-93.616v93.616C374.893,492.49,355.383,512,331.401,512z"/>
<path style="fill:#FF423D;" d="M468.509,137.107h-93.616V43.491C374.893,19.51,355.383,0,331.402,0h-75.407v512h75.407
	c23.981,0,43.491-19.51,43.491-43.491v-93.616h93.616c23.981,0,43.491-19.51,43.491-43.491V180.598
	C512,156.617,492.49,137.107,468.509,137.107z"/>
<g>
</g>
<g>
</g>
<g>
</g>
<g>
</g>
<g>
</g>
<g>
</g>
<g>
</g>
<g>
</g>
<g>
</g>
<g>
</g>
<g>
</g>
<g>
</g>
<g>
</g>
<g>
</g>
<g>
</g>
</svg>
