<?xml version="1.0" encoding="iso-8859-1"?>
<!-- Generator: Adobe Illustrator 19.0.0, SVG Export Plug-In . SVG Version: 6.00 Build 0)  -->
<svg version="1.1" id="Layer_1" xmlns="http://www.w3.org/2000/svg" xmlns:xlink="http://www.w3.org/1999/xlink" x="0px" y="0px"
	 viewBox="0 0 512.001 512.001" style="enable-background:new 0 0 512.001 512.001;" xml:space="preserve">
<path style="fill:#FFC72D;" d="M255.996,490.092c-21.656,0-39.273-17.618-39.273-39.273v-26.235
	c-16.294-12.506-26.36-32.339-26.36-53.172v-82.018c0-36.193,29.445-65.637,65.637-65.637h118.759c3.29,0,5.967-2.677,5.967-5.967
	v-58.638c0-3.29-2.677-5.967-5.967-5.967H137.242c-3.29,0-5.967,2.677-5.967,5.967v129.3c0,36.078-29.472,67.288-66.91,66.567
	C28.938,354.342,0,325.486,0,289.394V135.283C0,72.769,50.86,21.909,113.374,21.909h285.252C461.14,21.909,512,72.769,512,135.283
	v106.375c0,62.514-50.86,113.374-113.374,113.374h-76.989v17.324c0,21.073-9.873,40.368-26.368,52.622v25.842
	C295.269,472.474,277.651,490.092,255.996,490.092z"/>
<path style="fill:#FFBE00;" d="M398.626,21.909H256.001v131.275h118.759c3.29,0,5.967,2.677,5.967,5.967v58.638
	c0,3.29-2.677,5.967-5.967,5.967H256.001v266.336c21.653-0.002,39.269-17.62,39.269-39.273v-25.842
	c16.495-12.254,26.368-31.549,26.368-52.622v-17.324h76.989c62.514,0,113.374-50.86,113.374-113.374V135.283
	C512,72.77,461.142,21.909,398.626,21.909z"/>
<g>
</g>
<g>
</g>
<g>
</g>
<g>
</g>
<g>
</g>
<g>
</g>
<g>
</g>
<g>
</g>
<g>
</g>
<g>
</g>
<g>
</g>
<g>
</g>
<g>
</g>
<g>
</g>
<g>
</g>
</svg>
