<?xml version="1.0" encoding="iso-8859-1"?>
<!-- Generator: Adobe Illustrator 19.0.0, SVG Export Plug-In . SVG Version: 6.00 Build 0)  -->
<svg version="1.1" id="Layer_1" xmlns="http://www.w3.org/2000/svg" xmlns:xlink="http://www.w3.org/1999/xlink" x="0px" y="0px"
	 viewBox="0 0 512.001 512.001" style="enable-background:new 0 0 512.001 512.001;" xml:space="preserve">
<path style="fill:#FF5E5B;" d="M0,178.266C0,100.599,63.188,37.411,140.856,37.411c48.759,0,88.429,39.669,88.429,88.429
	c0,36.691-22.766,70.015-57.866,82.99C137.394,300.852,0,276.634,0,178.266z"/>
<path style="fill:#FFEDBE;" d="M218.256,474.591c-10.231,0-18.525-8.294-18.525-18.525V265.276c0-11.344-3.787-12.05-48.529-51.354
	c-69.335,10.379-49.918-49.3-21.462-36.943c12.288,5.333,26.574-7.886,39.049,3.074l48.843,42.907
	c12.17,10.692,19.15,26.115,19.15,42.316v190.789C236.781,466.296,228.487,474.591,218.256,474.591z"/>
<path style="fill:#FB3732;" d="M340.582,208.83c-35.152-12.996-57.866-46.36-57.866-82.99c0-48.759,39.669-88.429,88.429-88.429
	c77.668,0,140.856,63.188,140.856,140.856C512,276.732,374.556,300.715,340.582,208.83z"/>
<path style="fill:#FFBE00;" d="M293.745,474.591c-10.231,0-18.525-8.294-18.525-18.525V265.276c0-16.201,6.98-31.623,19.152-42.316
	l48.841-42.906c12.684-11.137,26.591,2.328,39.049-3.074c28.443-12.35,47.876,47.321-21.462,36.943
	c-44.813,39.366-48.529,40.06-48.529,51.354v190.789C312.271,466.296,303.976,474.591,293.745,474.591z"/>
<g>
</g>
<g>
</g>
<g>
</g>
<g>
</g>
<g>
</g>
<g>
</g>
<g>
</g>
<g>
</g>
<g>
</g>
<g>
</g>
<g>
</g>
<g>
</g>
<g>
</g>
<g>
</g>
<g>
</g>
</svg>
