<?xml version="1.0" encoding="iso-8859-1"?>
<!-- Generator: Adobe Illustrator 19.0.0, SVG Export Plug-In . SVG Version: 6.00 Build 0)  -->
<svg version="1.1" id="Layer_1" xmlns="http://www.w3.org/2000/svg" xmlns:xlink="http://www.w3.org/1999/xlink" x="0px" y="0px"
	 viewBox="0 0 512 512" style="enable-background:new 0 0 512 512;" xml:space="preserve">
<path style="fill:#FF5E5B;" d="M78.945,505.665l-72.61-72.609c-8.446-8.446-8.446-22.139,0-30.585l48.864-48.864
	c8.446-8.446,22.139-8.446,30.585,0l72.61,72.61c8.446,8.446,8.446,22.139,0,30.585l-48.864,48.862
	C101.083,514.111,87.391,514.111,78.945,505.665z"/>
<path style="fill:#FF423D;" d="M158.394,426.216l-36.304-36.304l-79.45,79.448l36.304,36.304c8.446,8.446,22.139,8.446,30.585,0
	l48.864-48.864C166.839,448.355,166.839,434.662,158.394,426.216z"/>
<path style="fill:#939598;" d="M205.087,306.914c-8.446-8.446-8.446-22.139,0-30.585l150.087-150.088
	c8.446-8.446,22.139-8.446,30.585,0c8.446,8.446,8.446,22.139,0,30.585L235.671,306.914
	C227.225,315.36,213.533,315.36,205.087,306.914z"/>
<path style="fill:#808285;" d="M385.759,126.242L205.087,306.914c8.446,8.446,22.139,8.446,30.585,0l150.087-150.088
	C394.205,148.38,394.205,134.686,385.759,126.242z"/>
<path style="fill:#51B3DA;" d="M355.174,156.826c-35.828-35.828-35.828-94.126,0-129.954s94.126-35.828,129.954,0
	s35.829,94.126,0,129.954S391.003,192.655,355.174,156.826z"/>
<path style="fill:#39A3DB;" d="M485.129,26.872L355.174,156.826c35.828,35.829,94.126,35.829,129.954,0
	C520.957,120.997,520.957,62.701,485.129,26.872z"/>
<path style="fill:#80D0E1;" d="M388.399,123.6c-17.508-17.508-17.508-45.996,0-63.504s45.996-17.508,63.504,0
	c17.508,17.508,17.508,45.996,0,63.504C434.395,141.109,405.908,141.109,388.399,123.6z"/>
<g>
	<path style="fill:#51B3DA;" d="M143.101,472.094L39.907,368.899l128.874-128.874c8.446-8.446,22.139-8.446,30.585,0l72.61,72.61
		c8.446,8.446,8.446,22.139,0,30.585L143.101,472.094z"/>
	<path style="fill:#51B3DA;" d="M451.903,60.097L388.399,123.6c17.508,17.508,45.996,17.509,63.504,0
		C469.412,106.093,469.412,77.606,451.903,60.097z"/>
</g>
<path style="fill:#39A3DB;" d="M271.977,343.218c8.446-8.446,8.446-22.139,0-30.585l-36.304-36.304L91.505,420.497l51.597,51.597
	L271.977,343.218z"/>
<g>
</g>
<g>
</g>
<g>
</g>
<g>
</g>
<g>
</g>
<g>
</g>
<g>
</g>
<g>
</g>
<g>
</g>
<g>
</g>
<g>
</g>
<g>
</g>
<g>
</g>
<g>
</g>
<g>
</g>
</svg>
