<?xml version="1.0" encoding="iso-8859-1"?>
<!-- Generator: Adobe Illustrator 19.0.0, SVG Export Plug-In . SVG Version: 6.00 Build 0)  -->
<svg version="1.1" id="Layer_1" xmlns="http://www.w3.org/2000/svg" xmlns:xlink="http://www.w3.org/1999/xlink" x="0px" y="0px"
	 viewBox="0 0 512.001 512.001" style="enable-background:new 0 0 512.001 512.001;" xml:space="preserve">
<path style="fill:#FF423D;" d="M336.935,320.523h-70.867c-5.42,0-10.58-2.321-14.177-6.376c-3.598-4.055-5.286-9.455-4.639-14.836
	l23.072-192.116c1.143-9.525,9.223-16.693,18.817-16.693h155.724c19.186,0,37.493,8.232,50.225,22.585
	c12.732,14.352,18.722,33.51,16.434,52.561v-0.001C500.92,253.942,425.863,320.523,336.935,320.523z"/>
<path style="fill:#FF5E5B;" d="M143.79,421.498h-41.745c-29.162,0-56.987-12.511-76.339-34.328
	C6.352,365.354-2.75,336.235,0.727,307.282l2.447-20.37C16.624,174.942,111.812,90.504,224.589,90.504h64.551
	c5.42,0,10.58,2.321,14.177,6.376c3.598,4.055,5.286,9.455,4.639,14.837l-22.069,183.737
	C277.254,367.311,216.166,421.498,143.79,421.498z"/>
<path style="fill:#FF423D;" d="M90.006,290.8c-1.855,0-3.74-0.274-5.605-0.85c-10-3.092-15.6-13.706-12.508-23.705
	c16.707-54.031,61.315-95.571,116.42-108.408c10.199-2.377,20.384,3.965,22.758,14.157c2.375,10.194-3.964,20.384-14.157,22.758
	c-42.033,9.794-76.063,41.479-88.805,82.688C105.591,285.577,98.097,290.8,90.006,290.8z"/>
<g>
</g>
<g>
</g>
<g>
</g>
<g>
</g>
<g>
</g>
<g>
</g>
<g>
</g>
<g>
</g>
<g>
</g>
<g>
</g>
<g>
</g>
<g>
</g>
<g>
</g>
<g>
</g>
<g>
</g>
</svg>
