<?xml version="1.0" encoding="iso-8859-1"?>
<!-- Generator: Adobe Illustrator 19.0.0, SVG Export Plug-In . SVG Version: 6.00 Build 0)  -->
<svg version="1.1" id="Layer_1" xmlns="http://www.w3.org/2000/svg" xmlns:xlink="http://www.w3.org/1999/xlink" x="0px" y="0px"
	 viewBox="0 0 512 512" style="enable-background:new 0 0 512 512;" xml:space="preserve">
<path style="fill:#939598;" d="M139.031,340.9L253.481,226.45c8.848-8.848,23.196-8.849,32.045,0c8.849,8.849,8.849,23.196,0,32.045
	L171.076,372.945C149.903,394.118,117.837,362.094,139.031,340.9z"/>
<path style="fill:#808285;" d="M171.076,372.945l114.449-114.451c8.846-8.845,8.849-23.184,0.011-32.033L139.042,372.956
	C147.891,381.793,162.23,381.793,171.076,372.945z"/>
<path style="fill:#C7E9F4;" d="M467.685,44.291c-59.056-59.056-155.147-59.053-214.203,0c-59.056,59.056-59.056,155.149,0,214.205
	c59.055,59.053,155.146,59.056,214.203,0S526.743,103.347,467.685,44.291z"/>
<path style="fill:#80D0E1;" d="M467.685,258.496c59.053-59.053,59.058-155.136,0.012-214.194L253.493,258.507
	C312.549,317.549,408.631,317.549,467.685,258.496z"/>
<path style="fill:#FFC72D;" d="M18.145,493.833L18.145,493.833c-24.165-24.165-24.165-63.484,0-87.648l93.086-93.086
	c8.848-8.848,23.196-8.849,32.045,0l55.605,55.603c8.845,8.845,8.848,23.197,0,32.045l-93.086,93.086
	C81.572,518.054,42.368,518.057,18.145,493.833z"/>
<circle style="fill:#E8F2FB;" cx="360.585" cy="151.394" r="81.572"/>
<path style="fill:#C7E9F4;" d="M418.264,209.073c31.851-31.851,31.856-83.492,0.011-115.348l-115.36,115.36
	C334.772,240.929,386.412,240.926,418.264,209.073z"/>
<path style="fill:#FFBE00;" d="M198.879,368.702l-27.791-27.789L18.156,493.843c24.224,24.212,63.419,24.208,87.637-0.011
	l93.086-93.086C207.727,391.899,207.722,377.547,198.879,368.702z"/>
<g>
</g>
<g>
</g>
<g>
</g>
<g>
</g>
<g>
</g>
<g>
</g>
<g>
</g>
<g>
</g>
<g>
</g>
<g>
</g>
<g>
</g>
<g>
</g>
<g>
</g>
<g>
</g>
<g>
</g>
</svg>
