<?xml version="1.0" encoding="iso-8859-1"?>
<!-- Generator: Adobe Illustrator 19.0.0, SVG Export Plug-In . SVG Version: 6.00 Build 0)  -->
<svg version="1.1" id="Layer_1" xmlns="http://www.w3.org/2000/svg" xmlns:xlink="http://www.w3.org/1999/xlink" x="0px" y="0px"
	 viewBox="0 0 512 512" style="enable-background:new 0 0 512 512;" xml:space="preserve">
<path style="fill:#51B3DA;" d="M382.516,449.323h-169.42c-11.529,0-20.877-9.347-20.877-20.877V365.76
	c0-11.529,9.347-20.877,20.877-20.877H319.83c11.529,0,20.877,9.347,20.877,20.877c0,23.053,18.756,41.809,41.809,41.809
	c11.529,0,20.877,9.347,20.877,20.877S394.046,449.323,382.516,449.323z"/>
<g>
	<path style="fill:#39A3DB;" d="M382.516,407.569c-23.053,0-41.809-18.756-41.809-41.809c0-11.529-9.347-20.877-20.877-20.877
		h-63.83v104.439h126.515c11.529,0,20.877-9.347,20.877-20.877S394.046,407.569,382.516,407.569z"/>
	<path style="fill:#39A3DB;" d="M382.51,512H66.812c-11.529,0-20.877-9.347-20.877-20.877c0-46.072,37.483-83.555,83.555-83.555
		h253.02c11.529,0,20.877,9.347,20.877,20.877v62.679C403.387,502.654,394.04,512,382.51,512z"/>
</g>
<path style="fill:#3797D3;" d="M382.51,407.568h-126.51V512h126.51c11.529,0,20.877-9.347,20.877-20.877v-62.679
	C403.387,416.915,394.04,407.568,382.51,407.568z"/>
<g>
	<path style="fill:#C7E9F4;" d="M319.832,386.643H110.804c-11.529,0-20.877-9.347-20.877-20.877s9.347-20.877,20.877-20.877h209.028
		c11.529,0,20.877,9.347,20.877,20.877C340.708,377.297,331.361,386.643,319.832,386.643z"/>
	<path style="fill:#C7E9F4;" d="M161.949,87.63c-11.529,0-20.877-9.347-20.877-20.877V20.877C141.072,9.347,150.419,0,161.949,0
		c11.529,0,20.877,9.347,20.877,20.877v45.877C182.825,78.283,173.478,87.63,161.949,87.63z"/>
</g>
<path style="fill:#51B3DA;" d="M213.094,285.202h-102.29c-11.529,0-20.877-9.347-20.877-20.877v-78.581H233.97v78.581
	C233.97,275.854,224.623,285.202,213.094,285.202z"/>
<path style="fill:#39A3DB;" d="M382.51,323.964c-11.529,0-20.877-9.347-20.877-20.877v-82.894c0-34.534-28.094-62.63-62.63-62.63
	h-85.912c-11.529,0-20.877-9.347-20.877-20.877s9.347-20.877,20.877-20.877h85.912c57.557,0,104.383,46.826,104.383,104.383v82.894
	C403.387,314.617,394.04,323.964,382.51,323.964z"/>
<path style="fill:#3797D3;" d="M299.004,115.81h-43.003v41.753h43.003c34.534,0,62.63,28.096,62.63,62.63v82.894
	c0,11.529,9.347,20.877,20.877,20.877s20.877-9.347,20.877-20.877v-82.894C403.387,162.636,356.562,115.81,299.004,115.81z"/>
<g>
	<path style="fill:#80D0E1;" d="M233.97,227.497H89.927V66.754c0-11.529,9.347-20.877,20.877-20.877h102.29
		c11.529,0,20.877,9.347,20.877,20.877L233.97,227.497L233.97,227.497z"/>
	<path style="fill:#80D0E1;" d="M319.832,344.889h-63.831v41.753h63.831c11.529,0,20.877-9.347,20.877-20.877
		S331.361,344.889,319.832,344.889z"/>
</g>
<path style="fill:#51B3DA;" d="M382.516,449.323c-46.076,0-83.562-37.486-83.562-83.562c0-46.069,37.486-83.548,83.562-83.548
	c46.069,0,83.548,37.479,83.548,83.548C466.064,411.837,428.585,449.323,382.516,449.323z"/>
<g>
</g>
<g>
</g>
<g>
</g>
<g>
</g>
<g>
</g>
<g>
</g>
<g>
</g>
<g>
</g>
<g>
</g>
<g>
</g>
<g>
</g>
<g>
</g>
<g>
</g>
<g>
</g>
<g>
</g>
</svg>
