<?xml version="1.0" encoding="iso-8859-1"?>
<!-- Generator: Adobe Illustrator 19.0.0, SVG Export Plug-In . SVG Version: 6.00 Build 0)  -->
<svg version="1.1" id="Layer_1" xmlns="http://www.w3.org/2000/svg" xmlns:xlink="http://www.w3.org/1999/xlink" x="0px" y="0px"
	 viewBox="0 0 512 512" style="enable-background:new 0 0 512 512;" xml:space="preserve">
<path style="fill:#39A3DB;" d="M306.119,293.765c-8.447,0-15.906-6.094-17.348-14.701c-1.607-9.593,4.866-18.672,14.458-20.279
	l123.389-20.677c9.604-1.61,18.672,4.866,20.279,14.457c1.607,9.593-4.866,18.672-14.458,20.279l-123.389,20.677
	C308.067,293.686,307.086,293.765,306.119,293.765z"/>
<path style="fill:#FB3732;" d="M461.656,300.362c-8.129,0-16.182-1.994-23.558-5.923c-11.849-6.308-20.531-16.855-24.447-29.695
	c-3.917-12.839-2.599-26.436,3.71-38.283c6.309-11.85,16.856-20.532,29.695-24.448c12.842-3.915,26.437-2.598,38.285,3.71
	c11.85,6.309,20.532,16.855,24.448,29.695c3.918,12.842,2.599,26.438-3.711,38.286l0.001-0.001
	c-6.309,11.85-16.856,20.532-29.695,24.448C471.537,299.628,466.581,300.362,461.656,300.362z"/>
<g>
	<path style="fill:#80D0E1;" d="M75.48,432.792c-5.086,0-10.131-2.191-13.613-6.427c-6.177-7.512-5.094-18.61,2.419-24.786
		l92.728-76.245c7.512-6.179,18.61-5.095,24.788,2.419c6.177,7.512,5.094,18.609-2.419,24.786l-92.728,76.245
		C83.377,431.479,79.417,432.792,75.48,432.792z"/>
	<path style="fill:#80D0E1;" d="M216.019,229.341c-8.467,0-15.934-6.123-17.355-14.751l-14.887-90.358
		c-1.581-9.597,4.917-18.659,14.514-20.239c9.6-1.574,18.659,4.918,20.239,14.514l14.887,90.358
		c1.581,9.597-4.917,18.659-14.514,20.239C217.935,229.265,216.97,229.341,216.019,229.341z"/>
	<path style="fill:#80D0E1;" d="M228.629,385.14c-15.216,0-30.638-3.618-44.98-11.256c-22.643-12.059-39.236-32.212-46.72-56.749
		c-7.486-24.536-4.966-50.52,7.09-73.162c24.891-46.742,83.17-64.521,129.912-39.631c46.742,24.891,64.521,83.17,39.631,129.911
		v0.001C296.308,366.654,263.006,385.14,228.629,385.14z M298.017,325.977h0.012H298.017z"/>
</g>
<g>
	<path style="fill:#FF423D;" d="M193.678,137.811c-9.054,0-18.025-2.221-26.242-6.597c-13.197-7.027-22.869-18.774-27.232-33.078
		c-4.363-14.302-2.895-29.446,4.134-42.645c14.509-27.245,48.478-37.605,75.724-23.101c13.199,7.028,22.87,18.775,27.232,33.079
		c4.363,14.302,2.895,29.447-4.133,42.645v0.001c-7.028,13.197-18.775,22.869-33.078,27.232
		C204.685,136.995,199.166,137.811,193.678,137.811z M227.617,99.839h0.012H227.617z"/>
	<path style="fill:#FF423D;" d="M50.165,486.168c-7.962,0-16.033-1.894-23.537-5.89C2.169,467.252-7.134,436.756,5.889,412.297
		c13.025-24.46,43.522-33.761,67.981-20.738c24.459,13.026,33.762,43.522,20.738,67.981l-0.001,0.001
		C85.579,476.495,68.153,486.168,50.165,486.168z M79.064,451.263h0.012H79.064z"/>
</g>
<path style="fill:#51B3DA;" d="M273.931,204.342c-5.827-3.103-11.832-5.542-17.931-7.344v184.16
	c23.851-7.054,44.977-23.272,57.562-46.903v-0.001C338.453,287.512,320.674,229.234,273.931,204.342z M298.017,325.977h0.012
	H298.017z"/>
<path style="fill:#FF423D;" d="M227.617,99.839h0.012H227.617z"/>
<g>
</g>
<g>
</g>
<g>
</g>
<g>
</g>
<g>
</g>
<g>
</g>
<g>
</g>
<g>
</g>
<g>
</g>
<g>
</g>
<g>
</g>
<g>
</g>
<g>
</g>
<g>
</g>
<g>
</g>
</svg>
