<?xml version="1.0" encoding="iso-8859-1"?>
<!-- Generator: Adobe Illustrator 19.0.0, SVG Export Plug-In . SVG Version: 6.00 Build 0)  -->
<svg version="1.1" id="Layer_1" xmlns="http://www.w3.org/2000/svg" xmlns:xlink="http://www.w3.org/1999/xlink" x="0px" y="0px"
	 viewBox="0 0 512 512" style="enable-background:new 0 0 512 512;" xml:space="preserve">
<path style="fill:#74B8E5;" d="M425.44,41.533c-43.232-43.235-114.325,5.754-89.918,61.481l-34.468,34.468
	c-18.786,18.786,9.625,47.253,28.438,28.438l34.468-34.468C419.761,155.891,468.633,84.725,425.44,41.533z"/>
<path style="fill:#FFC72D;" d="M255.999,407.7C114.658,407.7,0,293.186,0,151.699c0-11.105,9.003-20.109,20.109-20.109h471.783
	c11.105,0,20.109,9.003,20.109,20.109C512,293.154,397.375,407.7,255.999,407.7z"/>
<path style="fill:#FFEDBE;" d="M344.623,487.001H167.377c-26.572,0-26.6-40.218,0-40.218h177.247
	C371.194,446.783,371.223,487.001,344.623,487.001z"/>
<path style="fill:#FFBE00;" d="M491.891,131.59H255.999V407.7c141.347,0,255.999-114.518,255.999-256.001
	C512,140.594,502.997,131.59,491.891,131.59z"/>
<path style="fill:#FFE49C;" d="M344.623,446.785h-88.623v40.218h88.623C371.194,487.002,371.223,446.785,344.623,446.785z"/>
<g>
</g>
<g>
</g>
<g>
</g>
<g>
</g>
<g>
</g>
<g>
</g>
<g>
</g>
<g>
</g>
<g>
</g>
<g>
</g>
<g>
</g>
<g>
</g>
<g>
</g>
<g>
</g>
<g>
</g>
</svg>
