<?xml version="1.0" encoding="iso-8859-1"?>
<!-- Generator: Adobe Illustrator 19.0.0, SVG Export Plug-In . SVG Version: 6.00 Build 0)  -->
<svg version="1.1" id="Layer_1" xmlns="http://www.w3.org/2000/svg" xmlns:xlink="http://www.w3.org/1999/xlink" x="0px" y="0px"
	 viewBox="0 0 512 512" style="enable-background:new 0 0 512 512;" xml:space="preserve">
<path style="fill:#FFEDBE;" d="M474.609,512H98.821c-11.28,0-20.426-9.145-20.426-20.426V20.426C78.396,9.145,87.541,0,98.821,0
	h375.788c11.28,0,20.426,9.145,20.426,20.426v471.149C495.035,502.855,485.889,512,474.609,512z"/>
<path style="fill:#FFDA79;" d="M474.609,0H256v512h218.609c11.28,0,20.426-9.145,20.426-20.426V20.426
	C495.035,9.145,485.889,0,474.609,0z"/>
<path style="fill:#FF423D;" d="M337.744,133.962h-30.603v-30.604c0-11.28-9.145-20.426-20.426-20.426s-20.426,9.145-20.426,20.426
	v30.604h-30.604c-11.28,0-20.426,9.145-20.426,20.426c0,11.28,9.145,20.426,20.426,20.426h30.604v30.604
	c0,11.28,9.145,20.426,20.426,20.426s20.426-9.145,20.426-20.426v-30.604h30.603c11.28,0,20.426-9.145,20.426-20.426
	C358.17,143.107,349.025,133.962,337.744,133.962z"/>
<g>
	<path style="fill:#FFC72D;" d="M286.716,309.855H172.969c-11.28,0-20.426-9.145-20.426-20.426s9.145-20.426,20.426-20.426h113.747
		c11.28,0,20.426,9.145,20.426,20.426S297.996,309.855,286.716,309.855z"/>
	<path style="fill:#FFC72D;" d="M400.463,372.54H172.967c-11.28,0-20.426-9.145-20.426-20.426s9.145-20.426,20.426-20.426h227.495
		c11.28,0,20.426,9.145,20.426,20.426S411.743,372.54,400.463,372.54z"/>
	<path style="fill:#FFC72D;" d="M400.463,435.225H172.967c-11.28,0-20.426-9.145-20.426-20.426s9.145-20.426,20.426-20.426h227.495
		c11.28,0,20.426,9.145,20.426,20.426S411.743,435.225,400.463,435.225z"/>
	<path style="fill:#FFC72D;" d="M98.821,512h-61.43c-11.28,0-20.426-9.145-20.426-20.426V20.426C16.965,9.145,26.111,0,37.391,0
		h61.43c11.28,0,20.426,9.145,20.426,20.426v471.149C119.247,502.855,110.102,512,98.821,512z"/>
</g>
<path style="fill:#FF423D;" d="M235.686,133.962c-11.28,0-20.426,9.145-20.426,20.426c0,11.28,9.145,20.426,20.426,20.426H256
	v-40.851L235.686,133.962L235.686,133.962z"/>
<path style="fill:#FB3732;" d="M337.744,133.962h-30.603v-30.604c0-11.28-9.145-20.426-20.426-20.426s-20.426,9.145-20.426,20.426
	v30.604H256v40.851h10.29v30.604c0,11.28,9.145,20.426,20.426,20.426s20.426-9.145,20.426-20.426v-30.604h30.603
	c11.28,0,20.426-9.145,20.426-20.426C358.17,143.107,349.025,133.962,337.744,133.962z"/>
<g>
	<path style="fill:#FFB700;" d="M286.716,269.004H256v40.851h30.716c11.28,0,20.426-9.145,20.426-20.426
		S297.996,269.004,286.716,269.004z"/>
	<path style="fill:#FFB700;" d="M400.463,331.689H256v40.851h144.463c11.28,0,20.426-9.145,20.426-20.426
		C420.888,340.834,411.743,331.689,400.463,331.689z"/>
	<path style="fill:#FFB700;" d="M400.463,394.373H256v40.851h144.463c11.28,0,20.426-9.145,20.426-20.426
		S411.743,394.373,400.463,394.373z"/>
</g>
<g>
</g>
<g>
</g>
<g>
</g>
<g>
</g>
<g>
</g>
<g>
</g>
<g>
</g>
<g>
</g>
<g>
</g>
<g>
</g>
<g>
</g>
<g>
</g>
<g>
</g>
<g>
</g>
<g>
</g>
</svg>
