<?xml version="1.0" encoding="iso-8859-1"?>
<!-- Generator: Adobe Illustrator 19.0.0, SVG Export Plug-In . SVG Version: 6.00 Build 0)  -->
<svg version="1.1" id="Layer_1" xmlns="http://www.w3.org/2000/svg" xmlns:xlink="http://www.w3.org/1999/xlink" x="0px" y="0px"
	 viewBox="0 0 512 512" style="enable-background:new 0 0 512 512;" xml:space="preserve">
<path style="fill:#80D0E1;" d="M256.002,251.86H96.688c-9.849,0-17.834-7.985-17.834-17.834
	c0-97.165,78.122-176.188,175.367-177.147c0.061-0.001,0.121-0.001,0.18-0.001c9.732,0,17.682,7.814,17.828,17.566
	c0.147,9.812-7.661,17.9-17.472,18.098c-48.967,0.983-77.954,56.426-49.377,97.258c11.738,16.772,30.19,26.393,50.623,26.393
	c9.849,0,17.834,7.985,17.834,17.834C273.836,243.876,265.853,251.86,256.002,251.86z"/>
<path style="fill:#51B3DA;" d="M415.317,251.86H256.002c-9.849,0-17.834-7.985-17.834-17.834c0-9.849,7.985-17.834,17.834-17.834
	c42.999,0,72.779-42.751,58.111-82.99c0-0.001-0.001-0.002-0.001-0.004c-8.673-23.809-31.525-40.148-56.863-40.657
	c-9.811-0.197-17.62-8.284-17.472-18.098c0.146-9.753,8.098-17.566,17.828-17.566c0.061,0,0.119,0,0.18,0.001
	c97.137,0.957,175.367,79.881,175.367,177.147C433.151,243.876,425.167,251.86,415.317,251.86z"/>
<path style="fill:#C7E9F4;" d="M256.002,251.86c-31.764,0-61.612-15.555-79.846-41.608c-25.392-36.282-23.296-100.99,4.98-100.99
	h149.731c27.86,0,30.85,64.024,4.979,100.99C317.614,236.305,287.765,251.86,256.002,251.86z"/>
<g>
	<path style="fill:#80D0E1;" d="M330.868,109.261h-74.869V251.86c0.001,0,0.002,0,0.004,0c31.763,0,61.611-15.555,79.845-41.608
		C361.24,173.968,359.145,109.261,330.868,109.261z"/>
	<path style="fill:#80D0E1;" d="M464.647,512H47.351c-9.849,0-17.834-7.985-17.834-17.834
		c0-124.882,101.599-226.482,226.482-226.482s226.482,101.6,226.482,226.482C482.481,504.015,474.496,512,464.647,512z"/>
</g>
<path style="fill:#51B3DA;" d="M255.999,267.684V512h208.649c9.849,0,17.834-7.985,17.834-17.834
	C482.481,369.284,380.881,267.684,255.999,267.684z"/>
<path style="fill:#C7E9F4;" d="M243.519,402.575l-87.081-85.321c-8.898-8.717-6.333-23.713,5.027-28.939
	c60.077-27.642,128.991-27.641,189.069,0c11.317,5.206,13.959,20.188,5.027,28.939l-87.081,85.321
	C261.545,409.369,250.453,409.368,243.519,402.575z"/>
<g>
	<path style="fill:#80D0E1;" d="M350.534,288.314c-30.039-13.821-62.287-20.731-94.535-20.731V407.67
		c4.507,0,9.014-1.699,12.481-5.096l87.081-85.321C364.459,308.536,361.894,293.542,350.534,288.314z"/>
	<path style="fill:#80D0E1;" d="M330.868,144.929H181.138c-41.623,0-2.37-88.063,74.849-88.063
		C332.963,56.866,373.095,144.929,330.868,144.929z"/>
</g>
<path style="fill:#51B3DA;" d="M255.999,56.866v88.063h74.87C373.217,144.929,332.904,56.875,255.999,56.866z"/>
<path style="fill:#FFC72D;" d="M330.865,113.732H181.134c-9.849,0-17.834-7.985-17.834-17.834V17.834
	C163.3,7.985,171.285,0,181.134,0h149.731c9.849,0,17.834,7.985,17.834,17.834v78.064
	C348.698,105.747,340.714,113.732,330.865,113.732z"/>
<path style="fill:#FF5E5B;" d="M464.646,512H330.865c-9.849,0-17.834-7.985-17.834-17.834v-78.168
	c0-9.849,7.985-17.834,17.834-17.834h118.631c7.268,0,13.809,4.411,16.533,11.148c10.917,26.998,16.451,55.546,16.451,84.853
	C482.48,504.015,474.496,512,464.646,512z"/>
<path style="fill:#FFBE00;" d="M330.865,0h-74.87v113.732h74.87c9.849,0,17.834-7.985,17.834-17.834V17.834
	C348.698,7.985,340.714,0,330.865,0z"/>
<g>
</g>
<g>
</g>
<g>
</g>
<g>
</g>
<g>
</g>
<g>
</g>
<g>
</g>
<g>
</g>
<g>
</g>
<g>
</g>
<g>
</g>
<g>
</g>
<g>
</g>
<g>
</g>
<g>
</g>
</svg>
