<?xml version="1.0" encoding="iso-8859-1"?>
<!-- Generator: Adobe Illustrator 19.0.0, SVG Export Plug-In . SVG Version: 6.00 Build 0)  -->
<svg version="1.1" id="Layer_1" xmlns="http://www.w3.org/2000/svg" xmlns:xlink="http://www.w3.org/1999/xlink" x="0px" y="0px"
	 viewBox="0 0 512 512" style="enable-background:new 0 0 512 512;" xml:space="preserve">
<path style="fill:#51B3DA;" d="M435.958,328.835l-46.274-46.272c-6.931-6.931-6.931-18.167,0-25.098l45.746-45.746
	c6.931-6.931,18.167-6.931,25.098,0l46.274,46.272c6.931,6.931,6.931,18.167,0,25.098l-45.746,45.746
	C454.125,335.765,442.889,335.765,435.958,328.835z"/>
<path style="fill:#39A3DB;" d="M414.783,282.561c-5.489,5.489-13.908,6.773-20.783,3.172l-77.017-40.34
	c-1.609-0.844-3.06-1.918-4.314-3.172c-2.643-2.643-4.418-6.087-4.995-9.872c-0.852-5.581,1.002-11.234,4.994-15.226L395.09,134.7
	c3.992-3.992,9.645-5.846,15.227-4.995c5.58,0.852,10.421,4.307,13.043,9.31l40.34,77.017c3.601,6.875,2.317,15.294-3.172,20.783
	L414.783,282.561z"/>
<path style="fill:#51B3DA;" d="M248.341,269.401l-49.05-49.05c-6.931-6.931-6.931-18.167,0-25.098l45.753-45.753
	c6.931-6.931,18.167-6.931,25.098,0l49.05,49.05c6.931,6.931,6.931,18.167,0,25.098l-45.753,45.753
	C266.509,276.332,255.272,276.332,248.341,269.401z"/>
<path style="fill:#39A3DB;" d="M319.193,198.55l-24.525-24.525l-70.852,70.852l24.525,24.525c6.931,6.931,18.167,6.931,25.098,0
	l45.753-45.753C326.124,216.717,326.124,205.481,319.193,198.55z"/>
<path style="fill:#80D0E1;" d="M227.485,327.403l-86.195-86.195c-6.931-6.931-6.931-18.167,0-25.098l39.429-39.429
	c6.931-6.931,18.167-6.931,25.098,0l86.195,86.195c6.931,6.931,6.931,18.167,0,25.098l-39.429,39.429
	C245.653,334.334,234.415,334.334,227.485,327.403z"/>
<path style="fill:#51B3DA;" d="M292.013,262.876l-43.098-43.098l-64.527,64.527l43.098,43.098c6.931,6.931,18.167,6.931,25.098,0
	l39.429-39.429C298.943,281.043,298.943,269.807,292.013,262.876z"/>
<path style="fill:#80D0E1;" d="M91.394,463.494L5.198,377.298c-6.931-6.931-6.931-18.167,0-25.098l39.43-39.43
	c6.931-6.931,18.167-6.931,25.098,0l86.195,86.195c6.931,6.931,6.931,18.167,0,25.098l-39.429,39.432
	C109.561,470.425,98.325,470.425,91.394,463.494z"/>
<g>
	<path style="fill:#51B3DA;" d="M155.923,398.966l-43.098-43.098l-64.528,64.528l43.098,43.098c6.931,6.931,18.167,6.931,25.098,0
		l39.43-39.43C162.852,417.133,162.852,405.897,155.923,398.966z"/>
	<path style="fill:#51B3DA;" d="M143.373,436.614L32.079,325.319L153.838,203.56l111.294,111.294L143.373,436.614z"/>
</g>
<rect x="137.083" y="261.813" transform="matrix(-0.7071 -0.7071 0.7071 -0.7071 55.1822 718.6743)" style="fill:#39A3DB;" width="78.701" height="172.192"/>
<path style="fill:#80D0E1;" d="M312.668,242.221l-86.195-86.195c-6.931-6.931-6.931-18.167,0-25.098l82.423-82.422
	c6.931-6.931,18.167-6.931,25.098,0l86.195,86.195c6.931,6.931,6.931,18.167,0,25.098l-82.422,82.423
	C330.835,249.151,319.598,249.151,312.668,242.221z"/>
<path style="fill:#51B3DA;" d="M420.188,134.7L377.09,91.601L269.569,199.123l43.098,43.098c6.931,6.931,18.167,6.931,25.098,0
	l82.422-82.423C427.119,152.868,427.119,141.63,420.188,134.7z"/>
<g>
</g>
<g>
</g>
<g>
</g>
<g>
</g>
<g>
</g>
<g>
</g>
<g>
</g>
<g>
</g>
<g>
</g>
<g>
</g>
<g>
</g>
<g>
</g>
<g>
</g>
<g>
</g>
<g>
</g>
</svg>
