<?xml version="1.0" encoding="iso-8859-1"?>
<!-- Generator: Adobe Illustrator 19.0.0, SVG Export Plug-In . SVG Version: 6.00 Build 0)  -->
<svg version="1.1" id="Layer_1" xmlns="http://www.w3.org/2000/svg" xmlns:xlink="http://www.w3.org/1999/xlink" x="0px" y="0px"
	 viewBox="0 0 512 512" style="enable-background:new 0 0 512 512;" xml:space="preserve">
<path style="fill:#E8F2FB;" d="M51.99,243.055L1.9,145.892c-3.955-7.672-1.563-17.088,5.573-21.943
	c126.88-86.339,123.681-88.228,136.132-81.639c5.593,2.959,9.09,8.767,9.09,15.093v115.212c0,4.793-2.015,9.366-5.551,12.6
	l-68.449,62.613C70.389,255.425,57.139,253.042,51.99,243.055z"/>
<path style="fill:#C7E9F4;" d="M433.306,247.829l-68.449-62.613c-3.537-3.234-5.551-7.807-5.551-12.6V57.404
	c0-13.687,15.361-21.822,26.683-14.117l118.54,80.662c7.136,4.855,9.526,14.271,5.573,21.943l-50.09,97.163
	C454.877,253.01,441.631,255.444,433.306,247.829z"/>
<path style="fill:#E8F2FB;" d="M376.381,472.02H135.619c-9.431,0-17.076-7.646-17.076-17.076V57.404
	c0-9.431,7.646-17.076,17.076-17.076h66.306c9.431,0,17.076,7.646,17.076,17.076c0,20.402,16.597,36.998,36.998,36.998
	s36.998-16.597,36.998-36.999c0-9.431,7.646-17.076,17.076-17.076h66.306c9.431,0,17.076,7.646,17.076,17.076v397.539
	C393.457,464.374,385.811,472.02,376.381,472.02z"/>
<g>
	<path style="fill:#C7E9F4;" d="M376.381,40.328h-66.306c-9.431,0-17.076,7.646-17.076,17.076c0,20.402-16.597,36.998-36.999,36.998
		V472.02h120.381c9.431,0,17.076-7.646,17.076-17.076V57.404C393.457,47.974,385.811,40.328,376.381,40.328z"/>
	<rect x="118.543" y="292.437" style="fill:#C7E9F4;" width="274.916" height="34.152"/>
</g>
<g>
	<rect x="255.995" y="292.437" style="fill:#80D0E1;" width="137.452" height="34.152"/>
	<path style="fill:#80D0E1;" d="M398.714,372.442l-22.332-32.667l-22.332,32.667c-12.733,18.625-40.945-0.624-28.194-19.276
		l36.429-53.286c6.78-9.916,21.423-9.902,28.194,0l36.429,53.286C439.641,371.792,411.465,391.095,398.714,372.442z"/>
</g>
<g>
</g>
<g>
</g>
<g>
</g>
<g>
</g>
<g>
</g>
<g>
</g>
<g>
</g>
<g>
</g>
<g>
</g>
<g>
</g>
<g>
</g>
<g>
</g>
<g>
</g>
<g>
</g>
<g>
</g>
</svg>
