<?xml version="1.0" encoding="iso-8859-1"?>
<!-- Generator: Adobe Illustrator 19.0.0, SVG Export Plug-In . SVG Version: 6.00 Build 0)  -->
<svg version="1.1" id="Layer_1" xmlns="http://www.w3.org/2000/svg" xmlns:xlink="http://www.w3.org/1999/xlink" x="0px" y="0px"
	 viewBox="0 0 512 512" style="enable-background:new 0 0 512 512;" xml:space="preserve">
<path style="fill:#C7E9F4;" d="M35.927,342.562c-76.773-76.773-22.406-209.037,86.562-209.038
	c67.533,0.001,122.476,54.942,122.476,122.476l0,0C244.964,364.906,112.711,419.347,35.927,342.562z"/>
<path style="fill:#FF5E5B;" d="M209.053,169.438c-22.177-22.177-52.796-35.913-86.562-35.913
	c-108.906,0-163.346,132.253-86.562,209.038l0,0L209.053,169.438z"/>
<path style="fill:#80D0E1;" d="M122.489,133.525c-33.767,0-64.385,13.736-86.562,35.913l173.125,173.125
	C285.826,265.789,231.458,133.526,122.489,133.525z"/>
<path style="fill:#FF423D;" d="M122.489,256l86.562-86.562c-47.875-47.875-125.221-47.904-173.125,0L122.489,256z"/>
<path style="fill:#C7E9F4;" d="M476.073,169.438c76.773,76.773,22.406,209.037-86.562,209.038
	C321.978,378.475,267.035,323.534,267.035,256l0,0C267.036,147.094,399.289,92.654,476.073,169.438z"/>
<path style="fill:#FF5E5B;" d="M302.949,342.562c22.177,22.177,52.796,35.913,86.562,35.913
	c108.906-0.001,163.346-132.253,86.562-209.038l0,0L302.949,342.562z"/>
<path style="fill:#80D0E1;" d="M389.511,378.476c33.767,0,64.385-13.736,86.562-35.913L302.948,169.438
	C226.174,246.211,280.542,378.474,389.511,378.476z"/>
<path style="fill:#FF423D;" d="M389.511,256l-86.562,86.562c47.875,47.875,125.221,47.904,173.126,0L389.511,256z"/>
<g>
</g>
<g>
</g>
<g>
</g>
<g>
</g>
<g>
</g>
<g>
</g>
<g>
</g>
<g>
</g>
<g>
</g>
<g>
</g>
<g>
</g>
<g>
</g>
<g>
</g>
<g>
</g>
<g>
</g>
</svg>
