<?xml version="1.0" encoding="iso-8859-1"?>
<!-- Generator: Adobe Illustrator 19.0.0, SVG Export Plug-In . SVG Version: 6.00 Build 0)  -->
<svg version="1.1" id="Layer_1" xmlns="http://www.w3.org/2000/svg" xmlns:xlink="http://www.w3.org/1999/xlink" x="0px" y="0px"
	 viewBox="0 0 512 512" style="enable-background:new 0 0 512 512;" xml:space="preserve">
<path style="fill:#939598;" d="M6.64,505.322c-8.854-8.854-8.854-23.208,0-32.062l72.19-72.19c8.854-8.854,23.208-8.854,32.062,0
	s8.854,23.208,0,32.062l-72.19,72.19C29.85,514.176,15.494,514.176,6.64,505.322z"/>
<path style="fill:#808285;" d="M110.895,401.072L6.643,505.324c8.854,8.851,23.206,8.851,32.06-0.002l72.19-72.19
	C119.746,424.28,119.746,409.926,110.895,401.072z"/>
<path style="fill:#80D0E1;" d="M95.775,450.071l-33.878-33.878c-6.012-6.012-8.156-14.884-5.548-22.98l39.948-124.059
	c1.102-3.425,3.003-6.538,5.548-9.082l58.171-58.171c8.854-8.854,23.208-8.854,32.062,0L310.066,319.89
	c8.854,8.854,8.854,23.208,0,32.062l-58.171,58.171c-2.545,2.545-5.657,4.447-9.082,5.548l-124.059,39.948
	C110.659,458.227,101.787,456.083,95.775,450.071z"/>
<path style="fill:#51B3DA;" d="M310.068,319.888l-58.994-58.994L78.836,433.131l16.938,16.938c6.012,6.012,14.884,8.156,22.98,5.548
	l124.059-39.948c3.425-1.102,6.538-3.003,9.082-5.548l58.171-58.171C318.92,343.097,318.92,328.742,310.068,319.888z"/>
<path style="fill:#C7E9F4;" d="M278.005,351.951L160.016,233.963c-8.854-8.854-8.854-23.208,0-32.062l89.709-89.709
	c8.854-8.854,23.208-8.854,32.062,0l117.989,117.989c8.854,8.854,8.854,23.208,0,32.062l-89.709,89.709
	C301.214,360.804,286.859,360.804,278.005,351.951z"/>
<path style="fill:#80D0E1;" d="M399.777,230.179l-58.995-58.994l-121.77,121.77l58.994,58.994c8.854,8.854,23.208,8.854,32.062,0
	l89.709-89.709C408.63,253.389,408.63,239.033,399.777,230.179z"/>
<path style="fill:#FF5E5B;" d="M456.867,287.272l-41.061-41.061l65.097-65.097c41.463-41.463,41.461-108.589,0-150.05
	c-41.369-41.369-108.681-41.369-150.05,0l-65.097,65.097L224.696,55.1c-8.854-8.854-23.208-8.854-32.062,0s-8.854,23.208,0,32.062
	l57.092,57.092l117.989,117.989l57.092,57.092c8.854,8.854,23.208,8.854,32.062,0C465.721,310.48,465.721,296.126,456.867,287.272z"
	/>
<path style="fill:#FF423D;" d="M456.867,287.272l-41.061-41.061l65.097-65.097c41.463-41.463,41.461-108.589,0-150.05
	L308.72,203.248l58.994,58.995l57.092,57.092c8.854,8.854,23.208,8.854,32.062,0C465.721,310.48,465.721,296.126,456.867,287.272z"
	/>
<g>
</g>
<g>
</g>
<g>
</g>
<g>
</g>
<g>
</g>
<g>
</g>
<g>
</g>
<g>
</g>
<g>
</g>
<g>
</g>
<g>
</g>
<g>
</g>
<g>
</g>
<g>
</g>
<g>
</g>
</svg>
