<?xml version="1.0" encoding="iso-8859-1"?>
<!-- Generator: Adobe Illustrator 19.0.0, SVG Export Plug-In . SVG Version: 6.00 Build 0)  -->
<svg version="1.1" id="Layer_1" xmlns="http://www.w3.org/2000/svg" xmlns:xlink="http://www.w3.org/1999/xlink" x="0px" y="0px"
	 viewBox="0 0 512 512" style="enable-background:new 0 0 512 512;" xml:space="preserve">
<path style="fill:#FFC72D;" d="M241.143,504.677C192.607,441.439,71.024,268.814,71.024,184.976C71.024,82.98,154.005,0,256,0
	s184.976,82.98,184.976,184.976c0,83.688-121.583,256.463-170.119,319.702C263.363,514.434,248.636,514.433,241.143,504.677z"/>
<path style="fill:#FFBE00;" d="M256,0v512c5.821,0,11.311-2.706,14.857-7.323c48.536-63.238,170.119-235.863,170.119-319.702
	C440.976,82.98,357.995,0,256,0z"/>
<path style="fill:#FFEDBE;" d="M256,298.262c-62.468,0-113.287-50.82-113.287-113.287S193.532,71.689,256,71.689
	s113.287,50.82,113.287,113.287S318.466,298.262,256,298.262z"/>
<path style="fill:#FFE49C;" d="M256,71.689v226.575c62.466,0,113.287-50.82,113.287-113.287S318.466,71.689,256,71.689z"/>
<path style="fill:#FF5E5B;" d="M282.504,166.244h-7.772v-7.772c0-24.752-37.463-24.778-37.463,0v7.772h-7.772
	c-24.752,0-24.778,37.463,0,37.463h7.772v7.772c0,24.752,37.463,24.778,37.463,0v-7.772h7.772
	C307.256,203.707,307.282,166.244,282.504,166.244z"/>
<path style="fill:#FF423D;" d="M282.504,166.244h-7.772v-7.772c0-10.345-8.387-18.732-18.732-18.732v90.472
	c10.345,0,18.732-8.387,18.732-18.732v-7.772h7.772C307.256,203.707,307.282,166.244,282.504,166.244z"/>
<g>
</g>
<g>
</g>
<g>
</g>
<g>
</g>
<g>
</g>
<g>
</g>
<g>
</g>
<g>
</g>
<g>
</g>
<g>
</g>
<g>
</g>
<g>
</g>
<g>
</g>
<g>
</g>
<g>
</g>
</svg>
