<?xml version="1.0" encoding="iso-8859-1"?>
<!-- Generator: Adobe Illustrator 19.0.0, SVG Export Plug-In . SVG Version: 6.00 Build 0)  -->
<svg version="1.1" id="Layer_1" xmlns="http://www.w3.org/2000/svg" xmlns:xlink="http://www.w3.org/1999/xlink" x="0px" y="0px"
	 viewBox="0 0 512.002 512.002" style="enable-background:new 0 0 512.002 512.002;" xml:space="preserve">
<path style="fill:#FFC72D;" d="M106.864,495.338l-90.199-90.199c-22.219-22.219-22.219-58.37,0-80.589L324.549,16.664
	c22.219-22.219,58.37-22.219,80.589,0l90.199,90.199c22.219,22.219,22.219,58.37,0,80.589L187.453,495.338
	C165.234,517.555,129.082,517.555,106.864,495.338z"/>
<g>
	<path style="fill:#FFBE00;" d="M495.337,106.865l-45.099-45.099L61.764,450.238l45.099,45.099c22.219,22.219,58.37,22.219,80.589,0
		l307.884-307.884C517.555,165.235,517.555,129.082,495.337,106.865z"/>
	<circle style="fill:#FFBE00;" cx="368.577" cy="99.002" r="16.911"/>
	<circle style="fill:#FFBE00;" cx="324.166" cy="143.426" r="16.911"/>
	<circle style="fill:#FFBE00;" cx="99.001" cy="368.577" r="16.911"/>
	<circle style="fill:#FFBE00;" cx="143.425" cy="324.167" r="16.911"/>
</g>
<path style="fill:#FFEDBE;" d="M276.099,406.691L105.311,235.903l130.592-130.592L406.69,276.099L276.099,406.691z"/>
<rect x="238.324" y="206.352" transform="matrix(-0.7071 -0.7071 0.7071 -0.7071 298.72 721.118)" style="fill:#FFE49C;" width="120.769" height="184.681"/>
<g>
	<circle style="fill:#FFAF00;" cx="412.987" cy="143.426" r="16.911"/>
	<circle style="fill:#FFAF00;" cx="368.577" cy="187.837" r="16.911"/>
	<circle style="fill:#FFAF00;" cx="143.425" cy="412.988" r="16.911"/>
	<circle style="fill:#FFAF00;" cx="187.836" cy="368.577" r="16.911"/>
</g>
<g>
</g>
<g>
</g>
<g>
</g>
<g>
</g>
<g>
</g>
<g>
</g>
<g>
</g>
<g>
</g>
<g>
</g>
<g>
</g>
<g>
</g>
<g>
</g>
<g>
</g>
<g>
</g>
<g>
</g>
</svg>
