<?xml version="1.0" encoding="iso-8859-1"?>
<!-- Generator: Adobe Illustrator 19.0.0, SVG Export Plug-In . SVG Version: 6.00 Build 0)  -->
<svg version="1.1" id="Layer_1" xmlns="http://www.w3.org/2000/svg" xmlns:xlink="http://www.w3.org/1999/xlink" x="0px" y="0px"
	 viewBox="0 0 512 512" style="enable-background:new 0 0 512 512;" xml:space="preserve">
<path style="fill:#FFC72D;" d="M256,512C114.841,512,0,397.159,0,256S114.841,0,256,0s256,114.841,256,256S397.159,512,256,512z"/>
<path style="fill:#FFB700;" d="M256.006,0v512C397.162,511.996,512,397.157,512,256S397.162,0.004,256.006,0z"/>
<path style="fill:#6D6E71;" d="M312.526,256c0-0.328-0.019-0.652-0.025-0.979l153.6-8.295
	c-3.672-69.088-40.675-129.325-95.219-164.942l-83.093,127.504c-9.064-6.188-20.01-9.814-31.789-9.814
	c-10.783,0-20.868,3.039-29.45,8.299L143.46,80.273c-55.778,35.379-93.769,96.275-97.548,166.272l153.592,8.295
	c-0.008,0.387-0.029,0.77-0.029,1.158c0,22.301,12.986,41.623,31.79,50.814l-70.504,138.92c28.597,14.542,60.96,22.746,95.24,22.746
	c34.281,0,66.643-8.204,95.241-22.746l-70.504-138.92C299.541,297.622,312.526,278.301,312.526,256z"/>
<path style="fill:#58595B;" d="M312.526,256c0-0.328-0.019-0.652-0.025-0.979l153.6-8.295
	c-3.672-69.088-40.675-129.325-95.219-164.942l-83.093,127.504c-9.063-6.186-20.006-9.813-31.783-9.814V468.48
	c34.278-0.001,66.639-8.205,95.235-22.746l-70.504-138.92C299.541,297.622,312.526,278.301,312.526,256z"/>
<g>
</g>
<g>
</g>
<g>
</g>
<g>
</g>
<g>
</g>
<g>
</g>
<g>
</g>
<g>
</g>
<g>
</g>
<g>
</g>
<g>
</g>
<g>
</g>
<g>
</g>
<g>
</g>
<g>
</g>
</svg>
