<?xml version="1.0" encoding="iso-8859-1"?>
<!-- Generator: Adobe Illustrator 19.0.0, SVG Export Plug-In . SVG Version: 6.00 Build 0)  -->
<svg version="1.1" id="Layer_1" xmlns="http://www.w3.org/2000/svg" xmlns:xlink="http://www.w3.org/1999/xlink" x="0px" y="0px"
	 viewBox="0 0 511.999 511.999" style="enable-background:new 0 0 511.999 511.999;" xml:space="preserve">
<path style="fill:#39A3DB;" d="M505.821,119.061c-8.237-8.237-21.592-8.237-29.829,0l-37.666,37.666l-26.609-26.609l37.666-37.666
	c8.237-8.237,8.237-21.592,0-29.829s-21.592-8.237-29.829,0l-37.667,37.666L355.277,73.68l37.667-37.667
	c8.237-8.237,8.237-21.592,0-29.829s-21.592-8.237-29.829,0l-52.583,52.581c-8.237,8.237-8.237,21.592,0,29.829l41.525,41.525
	L174.751,307.424c-8.237,8.237-8.237,21.592,0,29.829c8.237,8.237,21.592,8.237,29.829,0l177.304-177.304l41.525,41.525
	c8.237,8.237,21.592,8.237,29.829,0l52.581-52.581C514.059,140.655,514.059,127.299,505.821,119.061z"/>
<path style="fill:#3797D3;" d="M505.821,119.061c-8.237-8.237-21.592-8.237-29.829,0l-37.666,37.666l-26.609-26.609l37.666-37.666
	c8.237-8.237,8.237-21.592,0-29.829L174.751,337.253c8.237,8.237,21.592,8.237,29.829,0l177.304-177.304l41.525,41.525
	c8.237,8.237,21.592,8.237,29.829,0l52.581-52.581C514.059,140.655,514.059,127.299,505.821,119.061z"/>
<path style="fill:#74B8E5;" d="M167.986,415.778c52.165-6.985,73.878-71.071,36.596-108.353
	c-37.35-37.35-101.386-15.453-108.355,36.595C16.33,332.891-32.217,430.08,24.853,487.151
	C81.876,544.173,179.121,495.733,167.986,415.778z"/>
<path style="fill:#48AEE2;" d="M167.986,415.778c52.165-6.985,73.878-71.071,36.596-108.353L24.853,487.151
	C81.876,544.173,179.121,495.733,167.986,415.778z"/>
<g>
</g>
<g>
</g>
<g>
</g>
<g>
</g>
<g>
</g>
<g>
</g>
<g>
</g>
<g>
</g>
<g>
</g>
<g>
</g>
<g>
</g>
<g>
</g>
<g>
</g>
<g>
</g>
<g>
</g>
</svg>
