<?xml version="1.0" encoding="iso-8859-1"?>
<!-- Generator: Adobe Illustrator 19.0.0, SVG Export Plug-In . SVG Version: 6.00 Build 0)  -->
<svg version="1.1" id="Layer_1" xmlns="http://www.w3.org/2000/svg" xmlns:xlink="http://www.w3.org/1999/xlink" x="0px" y="0px"
	 viewBox="0 0 512 512" style="enable-background:new 0 0 512 512;" xml:space="preserve">
<g>
	<path style="fill:#FB3732;" d="M506.448,357.149L369.763,220.464c-7.366-7.367-19.321-7.369-26.69,0l-87.074,87.074v53.367
		l123.347,123.347c12.236,12.239,33.297,2.852,32.18-14.554l-5.515-85.883l85.883,5.515
		C509.256,390.419,518.703,369.404,506.448,357.149z"/>
	<path style="fill:#FB3732;" d="M242.655,146.734l-92.318-92.317c-5.398-5.398-7.012-13.516-4.092-20.568
		c2.922-7.052,9.803-11.651,17.436-11.651h184.635c7.634,0,14.516,4.599,17.436,11.651c6.433,15.535,1.637,14.839-96.409,112.885
		C261.976,154.105,250.025,154.106,242.655,146.734z"/>
</g>
<path style="fill:#F32E28;" d="M365.754,33.85c-2.922-7.052-9.804-11.651-17.436-11.651h-92.32v130.063
	c10.725,0,5.235,2.583,105.664-97.846C367.06,49.02,368.676,40.902,365.754,33.85z"/>
<path style="fill:#FF423D;" d="M142.249,247.154l-92.327-92.327c-7.371-7.371-7.371-19.32,0-26.69L150.335,27.725
	c7.369-7.371,19.321-7.371,26.69,0l92.327,92.327c7.371,7.371,7.371,19.32,0,26.69L168.94,247.154
	C161.57,254.524,149.619,254.525,142.249,247.154z"/>
<path style="fill:#FF5E5B;" d="M100.473,469.697l5.515-85.883l-85.883,5.515c-17.367,1.106-26.806-19.93-14.554-32.18
	C286.109,76.606,215.602,147.116,334.974,27.725c3.539-3.539,8.341-5.529,13.346-5.529s9.806,1.988,13.346,5.529l100.412,100.412
	c7.371,7.369,7.371,19.318,0.001,26.689c-240.335,240.351-165.47,165.485-329.427,329.426
	C120.462,496.441,99.356,487.103,100.473,469.697z"/>
<path style="fill:#FF423D;" d="M462.076,128.136L361.664,27.723c-3.539-3.539-8.339-5.529-13.346-5.529s-9.806,1.989-13.346,5.529
	l-78.975,78.986v254.205c22.394-22.392,183.381-183.392,206.079-206.091C469.447,147.455,469.447,135.506,462.076,128.136z"/>
<g>
</g>
<g>
</g>
<g>
</g>
<g>
</g>
<g>
</g>
<g>
</g>
<g>
</g>
<g>
</g>
<g>
</g>
<g>
</g>
<g>
</g>
<g>
</g>
<g>
</g>
<g>
</g>
<g>
</g>
</svg>
