<?xml version="1.0" encoding="iso-8859-1"?>
<!-- Generator: Adobe Illustrator 19.0.0, SVG Export Plug-In . SVG Version: 6.00 Build 0)  -->
<svg version="1.1" id="Layer_1" xmlns="http://www.w3.org/2000/svg" xmlns:xlink="http://www.w3.org/1999/xlink" x="0px" y="0px"
	 viewBox="0 0 512 512" style="enable-background:new 0 0 512 512;" xml:space="preserve">
<g>
	<path style="fill:#51B3DA;" d="M418.222,10.427c-7.059,0-315.911,0-324.453,0c-51.701,0-93.764,42.062-93.764,93.765v53.81
		c0,11.456,9.288,20.744,20.744,20.744c9.537,0,461.941,0,470.506,0c11.456,0,20.744-9.288,20.744-20.744v-53.812
		C512,52.49,469.932,10.427,418.222,10.427z M41.494,104.191c0-28.826,23.451-52.277,52.275-52.277h63.062v85.343H41.494
		C41.494,137.257,41.494,104.191,41.494,104.191z M198.32,51.916h115.352v85.343H198.32V51.916z M470.512,137.259h-115.35V51.916
		h63.062c28.833,0,52.289,23.451,52.289,52.277v33.066H470.512z"/>
	<path style="fill:#51B3DA;" d="M491.256,281.443c-9.537,0-461.941,0-470.506,0c-11.456,0-20.744,9.288-20.744,20.744
		C0.006,308.941,0,464.485,0,480.828c0,11.456,9.288,20.744,20.744,20.744s20.744-9.288,20.744-20.744v-49.086h115.349v49.086
		c0,11.456,9.288,20.744,20.744,20.744c11.456,0,20.744-9.288,20.744-20.744v-49.086h115.347v49.086
		c0,11.456,9.288,20.744,20.744,20.744c11.456,0,20.744-9.288,20.744-20.744v-49.086h115.347v49.086
		c0,11.456,9.288,20.744,20.744,20.744s20.744-9.288,20.744-20.744c0-6.081,0.001-171.545,0.001-178.641
		C512,290.731,502.712,281.443,491.256,281.443z M470.512,390.254h-115.35v-67.322h115.35V390.254z M313.672,390.254H198.32v-67.322
		h115.352V390.254z M41.494,322.932h115.338v67.322H41.494C41.494,390.254,41.494,322.932,41.494,322.932z"/>
</g>
<g>
	<path style="fill:#39A3DB;" d="M418.222,10.427c-17.601,0-147.262,0-162.22,0v41.488h57.669v85.343h-57.669v41.488
		c9.434,0,225.281,0,235.252,0c11.456,0,20.744-9.288,20.744-20.744v-53.812C512,52.49,469.932,10.427,418.222,10.427z
		 M470.512,137.259h-115.35V51.916h63.062c28.833,0,52.289,23.451,52.289,52.277v33.066H470.512z"/>
	<path style="fill:#39A3DB;" d="M491.256,281.443c-9.97,0-225.817,0-235.252,0v41.488h57.669v67.322h-57.669v41.488h57.67v49.086
		c0,11.456,9.288,20.744,20.744,20.744s20.744-9.288,20.744-20.744v-49.086H470.51v49.086c0,11.456,9.288,20.744,20.744,20.744
		s20.744-9.288,20.744-20.744c0-6.081,0.001-171.545,0.001-178.641C512,290.731,502.712,281.443,491.256,281.443z M470.512,390.254
		h-115.35v-67.322h115.35V390.254z"/>
</g>
<path style="fill:#FFBE00;" d="M512,322.932H0.006V137.259H512V322.932z"/>
<rect x="255.997" y="137.257" style="fill:#FFAF00;" width="255.997" height="185.674"/>
<g>
</g>
<g>
</g>
<g>
</g>
<g>
</g>
<g>
</g>
<g>
</g>
<g>
</g>
<g>
</g>
<g>
</g>
<g>
</g>
<g>
</g>
<g>
</g>
<g>
</g>
<g>
</g>
<g>
</g>
</svg>
