<?xml version="1.0" encoding="iso-8859-1"?>
<!-- Generator: Adobe Illustrator 19.0.0, SVG Export Plug-In . SVG Version: 6.00 Build 0)  -->
<svg version="1.1" id="Layer_1" xmlns="http://www.w3.org/2000/svg" xmlns:xlink="http://www.w3.org/1999/xlink" x="0px" y="0px"
	 viewBox="0 0 511.999 511.999" style="enable-background:new 0 0 511.999 511.999;" xml:space="preserve">
<path style="fill:#808285;" d="M345.3,130.496c-8.482-8.483-22.236-8.483-30.718,0l-49.78,49.78c-0.462,0.462-0.889,0.947-1.3,1.439
	v27.84c0.413,0.492,0.838,0.976,1.3,1.439c8.481,8.483,22.236,8.483,30.718,0l49.78-49.78
	C353.783,152.731,353.783,138.979,345.3,130.496z"/>
<path style="fill:#FF5E5B;" d="M31.97,495.023c-22.632-22.631-22.635-59.273,0-81.909
	C231.574,213.511,218.966,222.44,231.644,222.44c11.873,0,11.66,2.664,66.549,57.553c8.483,8.483,8.483,22.236,0,30.718
	L113.879,495.025C91.247,517.657,54.604,517.658,31.97,495.023z"/>
<path style="fill:#FF423D;" d="M298.192,279.991l-34.691-34.691v100.1l34.691-34.691
	C306.675,302.228,306.675,288.474,298.192,279.991z"/>
<path style="fill:#80D0E1;" d="M267.474,310.71l-51.19-51.19c-8.481-8.481-8.483-22.234-0.001-30.716l48.511-48.526
	c8.477-8.48,22.237-8.484,30.72-0.001l51.205,51.205c8.477,8.476,8.483,22.24-0.003,30.721l-48.527,48.511
	C289.707,319.193,275.955,319.193,267.474,310.71z"/>
<path style="fill:#51B3DA;" d="M346.72,231.48l-51.205-51.205c-8.477-8.477-22.238-8.481-30.72,0.001l-1.292,1.292v125.168
	l3.972,3.972c8.479,8.481,22.231,8.484,30.716,0.003l48.527-48.511C355.194,253.727,355.204,239.963,346.72,231.48z"/>
<path style="fill:#80D0E1;" d="M365.781,212.413l-51.199-51.197c-8.483-8.483-8.483-22.235,0-30.718L438.717,6.362
	c8.482-8.483,22.236-8.483,30.718,0c17.778,17.778,27.569,41.416,27.569,66.557s-9.791,48.779-27.569,66.557l-72.936,72.936
	C388.022,220.89,374.261,220.895,365.781,212.413z"/>
<g>
</g>
<g>
</g>
<g>
</g>
<g>
</g>
<g>
</g>
<g>
</g>
<g>
</g>
<g>
</g>
<g>
</g>
<g>
</g>
<g>
</g>
<g>
</g>
<g>
</g>
<g>
</g>
<g>
</g>
</svg>
