<?xml version="1.0" encoding="iso-8859-1"?>
<!-- Generator: Adobe Illustrator 19.0.0, SVG Export Plug-In . SVG Version: 6.00 Build 0)  -->
<svg version="1.1" id="Layer_1" xmlns="http://www.w3.org/2000/svg" xmlns:xlink="http://www.w3.org/1999/xlink" x="0px" y="0px"
	 viewBox="0 0 511.999 511.999" style="enable-background:new 0 0 511.999 511.999;" xml:space="preserve">
<path style="fill:#FFC72D;" d="M99.041,511.511l-32.606-5.568c-19.138-3.266-31.511-22.126-26.908-40.944
	c16.059-65.635,60.756-104.151,117.28-113.155c5.603-24.346,18.849-46.084,37.757-62.157c-30.94-32.451-24.572-84.37,12.734-108.64
	c-5.856-9.195-11.69-20.856-15.058-36.039C138.414,124.808,101.33,91.45,87.193,50.201c-6.6-19.267,5.611-39.984,25.748-43.645
	l33.098-6.016c15.033-2.738,30.04,5.123,36.482,19.116c4.265,9.263,16.12,18.831,32.752,26.75
	c44.639-55.018,130.372-58.844,178.549-1.908c10.276,12.141,99.607,122.24,75.5,251.377
	c-26.055,139.552-201.388,267.148-290.527,153.967c-22.171,0.867-35.195,12.601-41.718,37.121
	C132.569,503.91,116.196,514.442,99.041,511.511z"/>
<path style="fill:#FFBE00;" d="M393.823,44.497c-35.89-42.415-92.761-51.169-137.821-29.969v478.53
	c74.757,8.834,191.367-79.592,213.321-197.183C493.43,166.737,404.099,56.638,393.823,44.497z"/>
<g>
</g>
<g>
</g>
<g>
</g>
<g>
</g>
<g>
</g>
<g>
</g>
<g>
</g>
<g>
</g>
<g>
</g>
<g>
</g>
<g>
</g>
<g>
</g>
<g>
</g>
<g>
</g>
<g>
</g>
</svg>
