<?xml version="1.0" encoding="iso-8859-1"?>
<!-- Generator: Adobe Illustrator 19.0.0, SVG Export Plug-In . SVG Version: 6.00 Build 0)  -->
<svg version="1.1" id="Layer_1" xmlns="http://www.w3.org/2000/svg" xmlns:xlink="http://www.w3.org/1999/xlink" x="0px" y="0px"
	 viewBox="0 0 512.001 512.001" style="enable-background:new 0 0 512.001 512.001;" xml:space="preserve">
<path style="fill:#939598;" d="M407.954,227.164c-10.145,0-18.37,8.225-18.37,18.37v51.771H122.416v-51.771
	c0-10.145-8.225-18.37-18.37-18.37s-18.37,8.225-18.37,18.37v121.235c0,10.145,8.225,18.37,18.37,18.37
	c10.145,0,18.37-8.225,18.37-18.37v-32.724h267.167v32.724c0,10.145,8.225,18.37,18.37,18.37c10.145,0,18.37-8.225,18.37-18.37
	V245.534C426.324,235.388,418.099,227.164,407.954,227.164z"/>
<path style="fill:#808285;" d="M407.954,227.164c-10.145,0-18.37,8.225-18.37,18.37v51.771H256.001v36.74h133.584v32.724
	c0,10.145,8.225,18.37,18.37,18.37c10.145,0,18.37-8.225,18.37-18.37V245.534C426.324,235.388,418.099,227.164,407.954,227.164z"/>
<path style="fill:#939598;" d="M368.651,263.904H143.349c-10.145,0-18.37-8.225-18.37-18.37V79.728
	c0-10.145,8.225-18.37,18.37-18.37h225.302c10.145,0,18.37,8.225,18.37,18.37v165.806
	C387.021,255.679,378.796,263.904,368.651,263.904z M161.719,227.164h188.562V98.098H161.719V227.164z"/>
<path style="fill:#808285;" d="M368.651,61.358h-112.65v36.74h94.28v129.066h-94.28v36.74h112.65c10.145,0,18.37-8.225,18.37-18.37
	V79.728C387.021,69.583,378.796,61.358,368.651,61.358z"/>
<path style="fill:#80D0E1;" d="M493.63,263.904H18.37c-10.145,0-18.37-8.225-18.37-18.37v-85.76c0-10.145,8.225-18.37,18.37-18.37
	h475.26c10.145,0,18.37,8.225,18.37,18.37v85.76C512,255.679,503.775,263.904,493.63,263.904z"/>
<path style="fill:#51B3DA;" d="M493.63,141.402H256.001v122.5h237.63c10.145,0,18.37-8.225,18.37-18.37v-85.76
	C512,149.627,503.775,141.402,493.63,141.402z"/>
<path style="fill:#39A3DB;" d="M104.046,450.643c-28.189,0-51.123-22.933-51.123-51.122c0-28.188,22.933-51.123,51.123-51.123
	s51.123,22.934,51.123,51.123C155.168,427.71,132.235,450.643,104.046,450.643z M104.046,385.139
	c-7.931,0-14.383,6.453-14.383,14.383c0,7.931,6.452,14.381,14.383,14.381s14.383-6.452,14.383-14.381
	C118.429,391.591,111.977,385.139,104.046,385.139z"/>
<path style="fill:#3797D3;" d="M407.954,450.643c-28.19,0-51.123-22.933-51.123-51.122c0-28.188,22.934-51.123,51.123-51.123
	c28.19,0,51.123,22.934,51.123,51.123C459.077,427.71,436.143,450.643,407.954,450.643z M407.954,385.139
	c-7.931,0-14.383,6.453-14.383,14.383c0,7.931,6.453,14.381,14.383,14.381c7.931,0,14.383-6.452,14.383-14.381
	C422.336,391.591,415.884,385.139,407.954,385.139z"/>
<g>
</g>
<g>
</g>
<g>
</g>
<g>
</g>
<g>
</g>
<g>
</g>
<g>
</g>
<g>
</g>
<g>
</g>
<g>
</g>
<g>
</g>
<g>
</g>
<g>
</g>
<g>
</g>
<g>
</g>
</svg>
