<?xml version="1.0" encoding="iso-8859-1"?>
<!-- Generator: Adobe Illustrator 19.0.0, SVG Export Plug-In . SVG Version: 6.00 Build 0)  -->
<svg version="1.1" id="Layer_1" xmlns="http://www.w3.org/2000/svg" xmlns:xlink="http://www.w3.org/1999/xlink" x="0px" y="0px"
	 viewBox="0 0 512.001 512.001" style="enable-background:new 0 0 512.001 512.001;" xml:space="preserve">
<path style="fill:#48AEE2;" d="M6.689,505.27c-8.918-8.918-8.918-23.377,0-32.296l121.763-121.763
	c8.918-8.918,23.377-8.918,32.296,0s8.918,23.377,0,32.296L38.984,505.27C30.067,514.188,15.607,514.188,6.689,505.27z"/>
<path style="fill:#39A3DB;" d="M160.749,351.211L6.689,505.27c8.918,8.918,23.377,8.918,32.296,0l121.763-121.763
	C169.666,374.588,169.666,360.129,160.749,351.211z"/>
<path style="fill:#48AEE2;" d="M492.734,19.226C442.39-31.118,359.709,26.348,388.66,91.004l-34.113,34.113
	c-8.918,8.918-8.918,23.377,0,32.296c8.918,8.918,23.377,8.918,32.296,0l34.113-34.113
	C486.142,152.484,543.077,69.57,492.734,19.226z"/>
<path style="fill:#39A3DB;" d="M492.734,19.226L354.547,157.413c8.918,8.918,23.377,8.918,32.296,0l34.113-34.113
	C486.142,152.484,543.077,69.57,492.734,19.226z"/>
<path style="fill:#FF5E5B;" d="M181.736,436.799L75.159,330.223c-8.918-8.918-8.918-23.377,0-32.296l163.646-163.644
	c8.918-8.918,23.377-8.918,32.296,0L377.677,240.86c8.918,8.918,8.918,23.377,0,32.296L214.033,436.799
	C205.115,445.716,190.655,445.716,181.736,436.799z"/>
<path style="fill:#FF423D;" d="M377.676,240.86l-53.288-53.288l-195.938,195.94l53.288,53.288c8.918,8.918,23.377,8.918,32.296,0
	l163.644-163.644C386.594,264.237,386.594,249.777,377.676,240.86z"/>
<path style="fill:#C7E9F4;" d="M481.188,219.463L292.952,31.227c-8.695-8.695-22.858-9.495-31.953-1.218
	c-9.71,8.836-9.977,23.881-0.799,33.058l24.91,24.91l-62.454,62.454l138.873,138.873l62.454-62.454l24.455,24.455
	c8.695,8.695,22.858,9.494,31.953,1.218C490.099,243.685,490.365,228.641,481.188,219.463z"/>
<path style="fill:#80D0E1;" d="M481.188,219.463l-94.347-94.347l-94.749,94.749l69.435,69.435l62.454-62.454l24.455,24.455
	c8.695,8.695,22.858,9.495,31.953,1.219C490.099,243.685,490.365,228.641,481.188,219.463z"/>
<g>
	<path style="fill:#FF423D;" d="M250.097,226.327l-51.669-51.669l-32.296,32.296l51.669,51.669c8.918,8.918,23.377,8.918,32.296,0
		C259.015,249.704,259.015,235.243,250.097,226.327z"/>
	<path style="fill:#FF423D;" d="M199.5,276.923l-51.669-51.667l-32.296,32.296l51.669,51.667c8.918,8.918,23.377,8.918,32.296,0
		C208.418,300.3,208.418,285.84,199.5,276.923z"/>
</g>
<g>
</g>
<g>
</g>
<g>
</g>
<g>
</g>
<g>
</g>
<g>
</g>
<g>
</g>
<g>
</g>
<g>
</g>
<g>
</g>
<g>
</g>
<g>
</g>
<g>
</g>
<g>
</g>
<g>
</g>
</svg>
