<?xml version="1.0" encoding="iso-8859-1"?>
<!-- Generator: Adobe Illustrator 19.0.0, SVG Export Plug-In . SVG Version: 6.00 Build 0)  -->
<svg version="1.1" id="Layer_1" xmlns="http://www.w3.org/2000/svg" xmlns:xlink="http://www.w3.org/1999/xlink" x="0px" y="0px"
	 viewBox="0 0 512 512" style="enable-background:new 0 0 512 512;" xml:space="preserve">
<path style="fill:#C7E9F4;" d="M491.762,276.238H20.238C9.061,276.238,0,267.177,0,256V109.181c0-29.758,24.21-53.968,53.968-53.968
	h404.063c29.758,0,53.968,24.21,53.968,53.968V256C512,267.177,502.94,276.238,491.762,276.238z"/>
<path style="fill:#80D0E1;" d="M458.032,55.212H256v221.026h235.762c11.177,0,20.238-9.061,20.238-20.238V109.181
	C512,79.422,487.79,55.212,458.032,55.212z"/>
<g>
	<circle style="fill:#FFC72D;" cx="122.872" cy="166.519" r="30.356"/>
	<circle style="fill:#FFC72D;" cx="255.999" cy="166.519" r="30.356"/>
</g>
<path style="fill:#80D0E1;" d="M458.032,456.788H53.968C24.163,456.788,0,432.625,0,402.819V235.762h512v167.058
	C512,432.626,487.838,456.788,458.032,456.788z"/>
<path style="fill:#51B3DA;" d="M256,235.762v221.026h202.032c29.805,0,53.968-24.163,53.968-53.968V235.762H256z"/>
<g>
	<circle style="fill:#FFC72D;" cx="122.872" cy="347.07" r="30.356"/>
	<circle style="fill:#FFC72D;" cx="255.999" cy="347.07" r="30.356"/>
	<circle style="fill:#FFC72D;" cx="389.111" cy="347.07" r="30.356"/>
</g>
<g>
	<path style="fill:#FFBE00;" d="M286.352,166.518c0-16.764-13.588-30.353-30.352-30.356v60.712
		C272.763,196.871,286.352,183.28,286.352,166.518z"/>
	<circle style="fill:#FFBE00;" cx="389.111" cy="166.519" r="30.356"/>
	<path style="fill:#FFBE00;" d="M286.352,347.067c0-16.764-13.588-30.353-30.352-30.356v60.712
		C272.763,377.421,286.352,363.831,286.352,347.067z"/>
</g>
<g>
</g>
<g>
</g>
<g>
</g>
<g>
</g>
<g>
</g>
<g>
</g>
<g>
</g>
<g>
</g>
<g>
</g>
<g>
</g>
<g>
</g>
<g>
</g>
<g>
</g>
<g>
</g>
<g>
</g>
</svg>
