<?xml version="1.0" encoding="iso-8859-1"?>
<!-- Generator: Adobe Illustrator 19.0.0, SVG Export Plug-In . SVG Version: 6.00 Build 0)  -->
<svg version="1.1" id="Layer_1" xmlns="http://www.w3.org/2000/svg" xmlns:xlink="http://www.w3.org/1999/xlink" x="0px" y="0px"
	 viewBox="0 0 512 512" style="enable-background:new 0 0 512 512;" xml:space="preserve">
<path style="fill:#FB3732;" d="M195.793,512c-104.488,0-153.258-130.083-74.604-198.899v-87.248
	c0-10.244,8.305-18.549,18.549-18.549h112.122c10.244,0,18.549,8.305,18.549,18.549v87.253C349.034,381.922,300.291,512,195.793,512
	z"/>
<path style="fill:#FF5E5B;" d="M251.861,244.401H139.738c-10.244,0-18.549-8.305-18.549-18.549V74.616
	C121.189,33.33,154.6,0,195.793,0c41.143,0,74.616,33.472,74.616,74.616v151.236C270.41,236.096,262.104,244.401,251.861,244.401z"
	/>
<g>
	<path style="fill:#6D6E71;" d="M411.117,88.22H342.89c-10.244,0-18.549-8.305-18.549-18.549s8.305-18.549,18.549-18.549h68.227
		c10.244,0,18.549,8.305,18.549,18.549C429.666,79.915,421.361,88.22,411.117,88.22z"/>
	<path style="fill:#6D6E71;" d="M386.189,166.311H342.89c-10.244,0-18.549-8.305-18.549-18.549c0-10.244,8.305-18.549,18.549-18.549
		h43.298c10.244,0,18.549,8.305,18.549,18.549C404.738,158.006,396.432,166.311,386.189,166.311z"/>
	<path style="fill:#6D6E71;" d="M386.189,244.403H342.89c-10.244,0-18.549-8.305-18.549-18.549s8.305-18.549,18.549-18.549h43.298
		c10.244,0,18.549,8.305,18.549,18.549S396.432,244.403,386.189,244.403z"/>
	<path style="fill:#6D6E71;" d="M411.117,322.494H342.89c-10.244,0-18.549-8.305-18.549-18.549s8.305-18.549,18.549-18.549h68.227
		c10.244,0,18.549,8.305,18.549,18.549S421.361,322.494,411.117,322.494z"/>
</g>
<path style="fill:#F32E28;" d="M270.41,313.104v-87.252c0-10.244-8.305-18.549-18.549-18.549h-56.067V512
	C300.27,512,349.053,381.94,270.41,313.104z"/>
<path style="fill:#FF423D;" d="M195.793,0v244.401h56.067c10.244,0,18.549-8.305,18.549-18.549V74.616
	C270.41,33.472,236.937,0,195.793,0z"/>
<g>
</g>
<g>
</g>
<g>
</g>
<g>
</g>
<g>
</g>
<g>
</g>
<g>
</g>
<g>
</g>
<g>
</g>
<g>
</g>
<g>
</g>
<g>
</g>
<g>
</g>
<g>
</g>
<g>
</g>
</svg>
