<?xml version="1.0" encoding="iso-8859-1"?>
<!-- Generator: Adobe Illustrator 19.0.0, SVG Export Plug-In . SVG Version: 6.00 Build 0)  -->
<svg version="1.1" id="Layer_1" xmlns="http://www.w3.org/2000/svg" xmlns:xlink="http://www.w3.org/1999/xlink" x="0px" y="0px"
	 viewBox="0 0 511.999 511.999" style="enable-background:new 0 0 511.999 511.999;" xml:space="preserve">
<path style="fill:#E8F2FB;" d="M293.026,218.946l-57.792-57.807c-7.704-7.705-7.702-20.195,0.001-27.9l42.484-42.484
	c7.704-7.705,20.196-7.705,27.9-0.003l57.807,57.794c7.701,7.7,7.705,20.199,0.001,27.904l-42.498,42.495
	C313.225,226.652,300.728,226.651,293.026,218.946z"/>
<g>
	<path style="fill:#C7E9F4;" d="M363.425,148.547l-57.807-57.794c-7.704-7.702-20.195-7.702-27.9,0.003l-21.732,21.734v69.407
		l37.041,37.05c7.704,7.706,20.199,7.705,27.902,0.001l42.498-42.495C371.126,168.751,371.13,156.252,363.425,148.547z"/>
	<path style="fill:#C7E9F4;" d="M378.009,133.967l-57.794-57.794c-7.704-7.704-7.705-20.195-0.003-27.898l42.485-42.497
		c7.7-7.7,20.196-7.708,27.902-0.004l57.805,57.794c7.701,7.7,7.705,20.2,0.001,27.902l-42.497,42.497
		C398.212,141.665,385.711,141.672,378.009,133.967z"/>
</g>
<path style="fill:#80D0E1;" d="M335.527,176.452l-57.807-57.794c-7.702-7.702-7.705-20.201,0-27.905l42.495-42.484
	c7.704-7.704,20.196-7.702,27.9,0.001l57.794,57.794c7.705,7.705,7.705,20.196,0,27.901l-42.484,42.484
	C355.723,184.154,343.232,184.155,335.527,176.452z"/>
<path style="fill:#74B8E5;" d="M160.122,409.655l-57.801-57.801c-7.705-7.704-7.705-20.196,0-27.901
	c37.358-37.359,35.196-35.457,37.771-37.082l154.502-97.389L420.502,63.576c7.704-7.705,20.196-7.705,27.901,0l57.801,57.801
	c7.7,7.698,7.705,20.197,0,27.901L378.735,276.747c-2.274,2.274,9.249-5.252-157.931,100.13l-32.779,32.779
	C180.319,417.36,167.826,417.362,160.122,409.655z"/>
<path style="fill:#39A3DB;" d="M506.203,121.377l-57.801-57.801c-7.705-7.705-20.197-7.705-27.901,0L294.592,189.482l-38.607,24.335
	v140.881c129.034-81.337,120.489-75.693,122.747-77.952l127.469-127.469C513.901,141.58,513.908,129.081,506.203,121.377z"/>
<path style="fill:#FF5E5B;" d="M17.74,494.236c-23.629-23.629-23.629-62.076,0-85.704l84.579-84.579
	c7.704-7.704,20.196-7.705,27.901,0l57.801,57.801c7.705,7.705,7.705,20.196,0,27.901l-84.581,84.581
	C79.758,517.919,41.424,517.922,17.74,494.236z"/>
<g>
</g>
<g>
</g>
<g>
</g>
<g>
</g>
<g>
</g>
<g>
</g>
<g>
</g>
<g>
</g>
<g>
</g>
<g>
</g>
<g>
</g>
<g>
</g>
<g>
</g>
<g>
</g>
<g>
</g>
</svg>
