<?xml version="1.0" encoding="iso-8859-1"?>
<!-- Generator: Adobe Illustrator 19.0.0, SVG Export Plug-In . SVG Version: 6.00 Build 0)  -->
<svg version="1.1" id="Layer_1" xmlns="http://www.w3.org/2000/svg" xmlns:xlink="http://www.w3.org/1999/xlink" x="0px" y="0px"
	 viewBox="0 0 512 512" style="enable-background:new 0 0 512 512;" xml:space="preserve">
<path style="fill:#FFC72D;" d="M22.193,489.807c-29.591-29.591-29.59-77.738,0-107.33l37.653-37.653
	c8.844-8.844,23.181-8.844,32.025,0l75.305,75.305c8.844,8.844,8.844,23.181,0,32.025l-37.653,37.653
	C99.933,519.398,51.785,519.398,22.193,489.807z"/>
<path style="fill:#FFBE00;" d="M167.176,420.129l-37.652-37.652L22.193,489.807c29.591,29.591,77.738,29.59,107.33,0l37.653-37.653
	C176.02,443.31,176.02,428.972,167.176,420.129z"/>
<path style="fill:#39A3DB;" d="M155.514,472.516l-116.03-116.03c-8.844-8.844-8.844-23.181,0-32.025l250.41-250.41
	c8.844-8.844,23.181-8.844,32.025,0l116.03,116.03c8.844,8.844,8.844,23.181,0,32.025L187.54,472.516
	C178.696,481.36,164.357,481.36,155.514,472.516z"/>
<path style="fill:#3797D3;" d="M437.951,190.081l-58.014-58.014L97.499,414.502l58.016,58.014c8.844,8.844,23.181,8.844,32.025,0
	l250.41-250.41C446.793,213.264,446.793,198.925,437.951,190.081z"/>
<path style="fill:#74B8E5;" d="M505.369,122.663L389.337,6.633c-8.844-8.844-23.181-8.844-32.025,0l-67.418,67.418
	c-8.844,8.844-8.844,23.181,0,32.025l42.003,42.003l-53.813,53.813c-8.844,8.844-8.844,23.181,0,32.025s23.181,8.844,32.025,0
	l53.813-53.813l42.003,42.003c8.844,8.844,23.181,8.844,32.025,0l67.418-67.418C514.211,145.846,514.211,131.507,505.369,122.663z"
	/>
<path style="fill:#48AEE2;" d="M505.369,122.663l-58.016-58.016L278.084,233.918c8.844,8.844,23.181,8.844,32.025,0l53.813-53.813
	l42.003,42.003c8.844,8.844,23.181,8.844,32.025,0l67.418-67.418C514.211,145.846,514.211,131.507,505.369,122.663z"/>
<g>
</g>
<g>
</g>
<g>
</g>
<g>
</g>
<g>
</g>
<g>
</g>
<g>
</g>
<g>
</g>
<g>
</g>
<g>
</g>
<g>
</g>
<g>
</g>
<g>
</g>
<g>
</g>
<g>
</g>
</svg>
