<?xml version="1.0" encoding="iso-8859-1"?>
<!-- Generator: Adobe Illustrator 19.0.0, SVG Export Plug-In . SVG Version: 6.00 Build 0)  -->
<svg version="1.1" id="Layer_1" xmlns="http://www.w3.org/2000/svg" xmlns:xlink="http://www.w3.org/1999/xlink" x="0px" y="0px"
	 viewBox="0 0 512 512" style="enable-background:new 0 0 512 512;" xml:space="preserve">
<path style="fill:#C7E9F4;" d="M427.392,113.736H84.608c-13.191,0-23.692,11.064-23.019,24.227l18.01,352.165
	C80.226,502.384,90.346,512,102.619,512h306.764c12.272,0,22.392-9.616,23.019-21.873l18.01-352.165
	C451.084,124.789,440.572,113.736,427.392,113.736z"/>
<path style="fill:#80D0E1;" d="M427.392,113.736H256.001V512h153.381c12.272,0,22.392-9.616,23.019-21.873l18.01-352.165
	C451.084,124.789,440.572,113.736,427.392,113.736z"/>
<path style="fill:#FFC72D;" d="M178.822,409.327h154.356c12.73,0,23.05-10.32,23.05-23.05v-107.4c0-12.73-10.32-23.05-23.05-23.05
	H178.822c-12.73,0-23.05,10.32-23.05,23.05v107.4C155.772,399.007,166.093,409.327,178.822,409.327z"/>
<path style="fill:#74B8E5;" d="M479.108,159.835H32.892c-12.73,0-23.05-10.32-23.05-23.05V23.05C9.842,10.32,20.162,0,32.892,0
	h446.214c12.73,0,23.05,10.32,23.05,23.05v113.736C502.158,149.515,491.838,159.835,479.108,159.835z"/>
<path style="fill:#3797D3;" d="M479.108,0H256.001v159.835h223.107c12.73,0,23.05-10.32,23.05-23.05V23.05
	C502.158,10.32,491.838,0,479.108,0z"/>
<path style="fill:#FFBE00;" d="M333.178,255.826h-77.177v153.501h77.177c12.73,0,23.05-10.32,23.05-23.05v-107.4
	C356.228,266.146,345.907,255.826,333.178,255.826z"/>
<g>
</g>
<g>
</g>
<g>
</g>
<g>
</g>
<g>
</g>
<g>
</g>
<g>
</g>
<g>
</g>
<g>
</g>
<g>
</g>
<g>
</g>
<g>
</g>
<g>
</g>
<g>
</g>
<g>
</g>
</svg>
