<?xml version="1.0" encoding="iso-8859-1"?>
<!-- Generator: Adobe Illustrator 19.0.0, SVG Export Plug-In . SVG Version: 6.00 Build 0)  -->
<svg version="1.1" id="Layer_1" xmlns="http://www.w3.org/2000/svg" xmlns:xlink="http://www.w3.org/1999/xlink" x="0px" y="0px"
	 viewBox="0 0 512 512" style="enable-background:new 0 0 512 512;" xml:space="preserve">
<path style="fill:#E8F2FB;" d="M343.869,323.045H168.131c-11.15,0-20.19-9.04-20.19-20.19v-82.108
	c0-24.422,16.346-45.099,38.671-51.666v-65.438c0-11.15,9.04-20.19,20.19-20.19h98.394c11.15,0,20.19,9.04,20.19,20.19v65.438
	c22.325,6.566,38.671,27.244,38.671,51.666v82.108C364.059,314.005,355.02,323.045,343.869,323.045z"/>
<path style="fill:#C7E9F4;" d="M325.388,169.081v-65.438c0-11.15-9.04-20.19-20.19-20.19H256v239.593h87.869
	c11.15,0,20.19-9.04,20.19-20.19v-82.108C364.059,196.325,347.713,175.647,325.388,169.081z"/>
<path style="fill:#48AEE2;" d="M335.616,123.834H176.385c-11.15,0-20.19-9.04-20.19-20.19V20.19c0-11.15,9.04-20.19,20.19-20.19
	h159.231c11.15,0,20.19,9.04,20.19,20.19v83.454C355.806,114.794,346.767,123.834,335.616,123.834z"/>
<path style="fill:#FF5E5B;" d="M310.218,512H201.782c-29.735,0-53.841-24.106-53.841-53.841V282.664h216.118v175.495
	C364.059,487.894,339.954,512,310.218,512z"/>
<path style="fill:#FF423D;" d="M256,282.664V512h54.218c29.735,0,53.841-24.106,53.841-53.841V282.664H256z"/>
<path style="fill:#39A3DB;" d="M335.616,0h-79.615v123.834h79.615c11.15,0,20.19-9.04,20.19-20.19V20.19
	C355.806,9.04,346.767,0,335.616,0z"/>
<g>
</g>
<g>
</g>
<g>
</g>
<g>
</g>
<g>
</g>
<g>
</g>
<g>
</g>
<g>
</g>
<g>
</g>
<g>
</g>
<g>
</g>
<g>
</g>
<g>
</g>
<g>
</g>
<g>
</g>
</svg>
