<?xml version="1.0" encoding="iso-8859-1"?>
<!-- Generator: Adobe Illustrator 19.0.0, SVG Export Plug-In . SVG Version: 6.00 Build 0)  -->
<svg version="1.1" id="Layer_1" xmlns="http://www.w3.org/2000/svg" xmlns:xlink="http://www.w3.org/1999/xlink" x="0px" y="0px"
	 viewBox="0 0 512 512" style="enable-background:new 0 0 512 512;" xml:space="preserve">
<path style="fill:#80D0E1;" d="M343.869,383.428h-63.615c-11.976,0-23.204-4.761-31.617-13.404
	c-8.273-8.499-12.828-19.757-12.828-31.702c0-2.598-1.829-4.711-4.078-4.711h-63.6c-11.15,0-20.19-9.04-20.19-20.19v-92.673
	c0-24.421,16.347-45.1,38.671-51.666v-65.438c0-11.15,9.04-20.19,20.19-20.19h98.394c11.15,0,20.19,9.04,20.19,20.19v65.438
	c22.325,6.566,38.671,27.244,38.671,51.666v142.489C364.06,374.389,355.02,383.428,343.869,383.428z"/>
<g>
	<path style="fill:#51B3DA;" d="M325.387,169.082v-65.438c0-11.15-9.04-20.19-20.19-20.19h-49.197v292.673
		c7.149,4.746,15.498,7.301,24.255,7.301h63.615c11.15,0,20.19-9.04,20.19-20.19V220.748
		C364.06,196.327,347.712,175.648,325.387,169.082z"/>
	<path style="fill:#51B3DA;" d="M335.615,123.834H176.385c-11.15,0-20.19-9.04-20.19-20.19V20.19c0-11.15,9.04-20.19,20.19-20.19
		h159.231c11.15,0,20.19,9.04,20.19,20.19v83.454C355.806,114.794,346.766,123.834,335.615,123.834z"/>
</g>
<path style="fill:#FF5E5B;" d="M310.219,512H201.781c-29.735,0-53.841-24.106-53.841-53.841V293.232h83.79
	c24.515,0,44.459,20.228,44.459,45.092c0,1.839,0.868,3.004,1.384,3.536c0.769,0.789,1.669,1.189,2.68,1.189h83.805V458.16
	C364.06,487.894,339.954,512,310.219,512z"/>
<path style="fill:#39A3DB;" d="M335.615,0h-79.615v123.834h79.615c11.15,0,20.19-9.04,20.19-20.19V20.19
	C355.806,9.04,346.766,0,335.615,0z"/>
<path style="fill:#FF423D;" d="M277.575,341.86c-0.517-0.53-1.384-1.697-1.384-3.536c0-15.786-8.045-29.695-20.19-37.752V512h54.218
	c29.735,0,53.841-24.106,53.841-53.841V343.047C273.538,343.047,279.245,343.573,277.575,341.86z"/>
<g>
</g>
<g>
</g>
<g>
</g>
<g>
</g>
<g>
</g>
<g>
</g>
<g>
</g>
<g>
</g>
<g>
</g>
<g>
</g>
<g>
</g>
<g>
</g>
<g>
</g>
<g>
</g>
<g>
</g>
</svg>
