<?xml version="1.0" encoding="iso-8859-1"?>
<!-- Generator: Adobe Illustrator 19.0.0, SVG Export Plug-In . SVG Version: 6.00 Build 0)  -->
<svg version="1.1" id="Layer_1" xmlns="http://www.w3.org/2000/svg" xmlns:xlink="http://www.w3.org/1999/xlink" x="0px" y="0px"
	 viewBox="0 0 512.002 512.002" style="enable-background:new 0 0 512.002 512.002;" xml:space="preserve">
<path style="fill:#80D0E1;" d="M226.098,393.01L118.992,285.904c-7.8-7.8-7.8-20.445,0-28.245l62.807-62.807
	c7.8-7.8,20.445-7.8,28.245,0L317.15,301.958c7.8,7.8,7.8,20.445,0,28.245l-62.807,62.807
	C246.545,400.81,233.898,400.81,226.098,393.01z"/>
<path style="fill:#51B3DA;" d="M317.151,301.957l-53.553-53.553l-91.053,91.053l53.553,53.553c7.8,7.8,20.445,7.8,28.245,0
	l62.807-62.807C324.951,322.403,324.951,309.757,317.151,301.957z"/>
<path style="fill:#80D0E1;" d="M112.957,506.153L5.851,399.047c-7.8-7.8-7.8-20.445,0-28.245l62.799-62.799
	c7.8-7.8,20.445-7.8,28.245,0L204,415.109c7.8,7.8,7.8,20.445,0,28.245l-62.799,62.799
	C133.402,513.951,120.755,513.951,112.957,506.153z"/>
<path style="fill:#51B3DA;" d="M204,415.107l-53.553-53.553l-91.044,91.044l53.553,53.553c7.8,7.8,20.445,7.8,28.245,0L204,443.353
	C211.8,435.554,211.8,422.907,204,415.107z"/>
<path style="fill:#FF5E5B;" d="M189.877,457.476L54.526,322.124l78.589-78.589l135.352,135.351L189.877,457.476z"/>
<path style="fill:#51B3DA;" d="M288.904,330.2L181.8,223.097c-9.018-9.018-7.381-24.103,3.389-30.967l69.392-44.226
	c12.72-37.938,50.261-62.257,90.121-58.35l73.479-73.479c21.434-21.434,56.309-21.434,77.742,0
	c21.434,21.434,21.434,56.309,0,77.742l-73.479,73.479c3.904,39.818-20.375,77.387-58.345,90.12l-44.232,69.395
	C313.013,337.57,297.934,339.229,288.904,330.2z"/>
<rect x="147.482" y="328.769" transform="matrix(-0.7071 -0.7071 0.7071 -0.7071 61.6909 794.2303)" style="fill:#FF423D;" width="95.707" height="111.139"/>
<path style="fill:#39A3DB;" d="M319.869,326.813l44.232-69.395c37.937-12.722,62.254-50.261,58.345-90.12l73.479-73.479
	c21.434-21.434,21.434-56.309,0-77.742L235.353,276.649l53.552,53.552C297.923,339.219,313.005,337.582,319.869,326.813z"/>
<g>
</g>
<g>
</g>
<g>
</g>
<g>
</g>
<g>
</g>
<g>
</g>
<g>
</g>
<g>
</g>
<g>
</g>
<g>
</g>
<g>
</g>
<g>
</g>
<g>
</g>
<g>
</g>
<g>
</g>
</svg>
