<?xml version="1.0" encoding="iso-8859-1"?>
<!-- Generator: Adobe Illustrator 19.0.0, SVG Export Plug-In . SVG Version: 6.00 Build 0)  -->
<svg version="1.1" id="Layer_1" xmlns="http://www.w3.org/2000/svg" xmlns:xlink="http://www.w3.org/1999/xlink" x="0px" y="0px"
	 viewBox="0 0 512.001 512.001" style="enable-background:new 0 0 512.001 512.001;" xml:space="preserve">
<path style="fill:#FF5E5B;" d="M456.891,512.001H55.109C24.722,512.001,0,487.279,0,456.892V55.11
	C0,24.723,24.722,0.001,55.109,0.001h401.782C487.278,0.001,512,24.723,512,55.11v401.782
	C512,487.279,487.278,512.001,456.891,512.001z"/>
<path style="fill:#FF423D;" d="M456.891,0.001h-200.89v512h200.892c30.387,0,55.109-24.722,55.109-55.109V55.11
	C512,24.723,487.278,0.001,456.891,0.001z"/>
<g>
	<path style="fill:#FFC72D;" d="M361.974,429.333H150.025c-29.541,0-53.722-23.115-55.047-52.625L84.314,140.253
		C82.88,108.858,107.908,82.67,139.36,82.67h42.2c18.241,0,27.505,21.991,14.835,35.053c-2.286,2.357-4.497,4.858-6.631,7.496
		l36.685,20.943c8.977-9.072,19.212-14.032,29.549-14.032c10.337,0,20.572,4.96,29.549,14.032l36.685-20.943
		c-2.134-2.638-4.345-5.139-6.631-7.496c-12.7-13.093-3.364-35.053,14.835-35.053h42.2c31.442,0,56.483,26.174,55.046,57.596
		L417.02,376.712C415.697,406.216,391.517,429.333,361.974,429.333z M258.499,173.047L258.499,173.047L258.499,173.047z
		 M253.501,173.047L253.501,173.047L253.501,173.047z"/>
	<path style="fill:#FFC72D;" d="M253.503,173.047L253.503,173.047L253.503,173.047z"/>
</g>
<path style="fill:#FFBE00;" d="M372.639,82.668h-42.2c-18.241,0-27.505,21.991-14.835,35.053c2.286,2.357,4.497,4.858,6.631,7.496
	l-36.685,20.943c-8.977-9.072-19.212-14.032-29.549-14.032v297.203h105.975c29.541,0,53.722-23.116,55.047-52.621l10.662-236.447
	C429.12,108.853,404.092,82.668,372.639,82.668z M258.497,173.047L258.497,173.047L258.497,173.047z"/>
<path style="fill:#E8F2FB;" d="M262.096,183.351c-2.29-4.009-4.472-6.664-6.095-8.284c-1.624,1.62-3.807,4.276-6.095,8.284
	c-5.658,9.911-18.28,13.358-28.192,7.699l-71.793-40.987c-9.906-5.656-13.36-18.287-7.697-28.198
	c27.742-48.562,70.866-72.399,113.779-72.399c42.792,0,85.973,23.724,113.779,72.399c5.658,9.904,2.214,22.54-7.697,28.198
	l-71.793,40.987C280.377,196.708,267.755,193.262,262.096,183.351z"/>
<path style="fill:#C7E9F4;" d="M369.779,121.865c-27.743-48.563-70.872-72.399-113.779-72.399v125.6
	c1.624,1.62,3.807,4.276,6.095,8.284c5.66,9.911,18.281,13.357,28.192,7.699l71.793-40.987
	C371.987,144.407,375.441,131.776,369.779,121.865z"/>
<path style="fill:#74B8E5;" d="M256.001,173.46c-11.413,0-20.666-9.253-20.666-20.666v-28.137c0-11.413,9.253-20.666,20.666-20.666
	c11.413,0,20.666,9.253,20.666,20.666v28.137C276.667,164.208,267.414,173.46,256.001,173.46z"/>
<path style="fill:#48AEE2;" d="M256.001,103.991v69.469c11.413,0,20.666-9.253,20.666-20.666v-28.137
	C276.667,113.244,267.414,103.991,256.001,103.991z"/>
<g>
</g>
<g>
</g>
<g>
</g>
<g>
</g>
<g>
</g>
<g>
</g>
<g>
</g>
<g>
</g>
<g>
</g>
<g>
</g>
<g>
</g>
<g>
</g>
<g>
</g>
<g>
</g>
<g>
</g>
</svg>
