<?xml version="1.0" encoding="iso-8859-1"?>
<!-- Generator: Adobe Illustrator 19.0.0, SVG Export Plug-In . SVG Version: 6.00 Build 0)  -->
<svg version="1.1" id="Layer_1" xmlns="http://www.w3.org/2000/svg" xmlns:xlink="http://www.w3.org/1999/xlink" x="0px" y="0px"
	 viewBox="0 0 512 512" style="enable-background:new 0 0 512 512;" xml:space="preserve">
<g>
	<path style="fill:#939598;" d="M384.947,233.137c-2.1,0-4.234-0.361-6.32-1.126c-9.528-3.491-14.423-14.046-10.933-23.576
		l61.735-168.508c2.653-7.24,9.544-12.054,17.254-12.054h46.942C503.773,27.873,512,36.1,512,46.248s-8.227,18.375-18.375,18.375
		H459.52l-57.318,156.454C399.474,228.521,392.438,233.137,384.947,233.137z"/>
	<path style="fill:#939598;" d="M108.233,261.419c-10.148,0-18.375-8.227-18.375-18.375V140.519
		c0-22.659,18.434-41.093,41.093-41.093h289.517c10.148,0,18.375,8.227,18.375,18.375s-8.227,18.375-18.375,18.375H130.951
		c-2.395,0-4.343,1.948-4.343,4.343v102.525C126.607,253.192,118.381,261.419,108.233,261.419z"/>
</g>
<g>
	<path style="fill:#808285;" d="M384.947,233.137c-2.1,0-4.234-0.361-6.32-1.126c-9.528-3.491-14.423-14.046-10.933-23.576
		l61.735-168.508c2.653-7.24,9.544-12.054,17.254-12.054h46.942C503.773,27.873,512,36.1,512,46.248s-8.227,18.375-18.375,18.375
		H459.52l-57.318,156.454C399.474,228.521,392.438,233.137,384.947,233.137z"/>
	<path style="fill:#808285;" d="M420.469,99.424H255.999v36.751h164.469c10.148,0,18.375-8.227,18.375-18.375
		C438.844,107.651,430.617,99.424,420.469,99.424z"/>
</g>
<g>
	<path style="fill:#939598;" d="M108.233,417.699c-10.148,0-18.375-8.227-18.375-18.375v-98.426
		c0-10.148,8.227-18.375,18.375-18.375s18.375,8.227,18.375,18.375v98.426C126.607,409.473,118.381,417.699,108.233,417.699z"/>
	<path style="fill:#939598;" d="M75.019,450.913H18.375C8.227,450.913,0,442.686,0,432.538c0-10.148,8.227-18.375,18.375-18.375
		h56.644c10.148,0,18.375,8.227,18.375,18.375C93.395,442.686,85.167,450.913,75.019,450.913z"/>
</g>
<path style="fill:#74B8E5;" d="M247.503,319.274H56.964c-10.148,0-18.375-8.227-18.375-18.375v-57.855
	c0-10.148,8.227-18.375,18.375-18.375h229.528c7.724,0,14.624,4.83,17.267,12.089c2.642,7.257,0.466,15.392-5.45,20.36
	c-15.587,13.087-27.107,30.177-33.318,49.425C262.542,314.13,255.478,319.274,247.503,319.274z"/>
<path style="fill:#51B3DA;" d="M303.758,236.755c-2.642-7.258-9.543-12.089-17.267-12.089h-30.492v92.519
	c4.181-2.182,7.473-5.943,8.99-10.645c6.211-19.248,17.732-36.339,33.318-49.425C304.224,252.149,306.402,244.014,303.758,236.755z"
	/>
<path style="fill:#FFBE00;" d="M108.233,484.127c-28.446,0-51.589-23.143-51.589-51.589s23.143-51.589,51.589-51.589
	s51.589,23.143,51.589,51.589S136.68,484.127,108.233,484.127z"/>
<path style="fill:#FFE49C;" d="M367.524,484.127c-79.663,0-144.474-64.811-144.474-144.474s64.81-144.473,144.474-144.473
	s144.474,64.811,144.474,144.473C512,419.316,447.188,484.127,367.524,484.127z"/>
<path id="SVGCleanerId_0" style="fill:#FFBE00;" d="M367.524,417.699c-43.035,0-78.046-35.012-78.046-78.048
	s35.011-78.046,78.046-78.046s78.046,35.011,78.046,78.046C445.571,382.686,410.559,417.699,367.524,417.699z"/>
<path style="fill:#FFDA79;" d="M367.524,195.178c-44.858,0-85.006,20.551-111.525,52.731v183.487
	c26.519,32.18,66.667,52.731,111.525,52.731c79.663,0,144.474-64.811,144.474-144.474C512,259.989,447.188,195.178,367.524,195.178z
	"/>
<g>
	<path id="SVGCleanerId_0_1_" style="fill:#FFBE00;" d="M367.524,417.699c-43.035,0-78.046-35.012-78.046-78.048
		s35.011-78.046,78.046-78.046s78.046,35.011,78.046,78.046C445.571,382.686,410.559,417.699,367.524,417.699z"/>
</g>
<g>
</g>
<g>
</g>
<g>
</g>
<g>
</g>
<g>
</g>
<g>
</g>
<g>
</g>
<g>
</g>
<g>
</g>
<g>
</g>
<g>
</g>
<g>
</g>
<g>
</g>
<g>
</g>
<g>
</g>
</svg>
