<?xml version="1.0" encoding="iso-8859-1"?>
<!-- Generator: Adobe Illustrator 19.0.0, SVG Export Plug-In . SVG Version: 6.00 Build 0)  -->
<svg version="1.1" id="Layer_1" xmlns="http://www.w3.org/2000/svg" xmlns:xlink="http://www.w3.org/1999/xlink" x="0px" y="0px"
	 viewBox="0 0 512 512" style="enable-background:new 0 0 512 512;" xml:space="preserve">
<path style="fill:#FFEDBE;" d="M339.053,512H68.096c-11.28,0-20.426-9.145-20.426-20.426V20.426C47.67,9.145,56.816,0,68.096,0
	h375.788c11.28,0,20.426,9.145,20.426,20.426v366.32c0,5.418-2.151,10.613-5.983,14.444L353.496,506.018
	C349.666,509.849,344.47,512,339.053,512z"/>
<path style="fill:#FFE49C;" d="M443.882,0H255.989v512h83.064c5.418,0,10.613-2.151,14.444-5.983l104.829-104.829
	c3.832-3.83,5.983-9.025,5.983-14.444V20.426C464.308,9.145,455.164,0,443.882,0z"/>
<g>
	<path style="fill:#FFBE00;" d="M222.855,365.392h-80.613c-11.28,0-20.426-9.145-20.426-20.426s9.145-20.426,20.426-20.426h80.613
		c11.28,0,20.426,9.145,20.426,20.426S234.135,365.392,222.855,365.392z"/>
	<path style="fill:#FFBE00;" d="M255.989,428.076H142.242c-11.28,0-20.426-9.145-20.426-20.426s9.145-20.426,20.426-20.426h113.747
		c11.28,0,20.426,9.145,20.426,20.426S267.269,428.076,255.989,428.076z"/>
	<path style="fill:#FFBE00;" d="M218.015,276.426H151.03c-16.383,0-29.711-13.328-29.711-29.711v-40.746
		c0-58.439,47.544-105.981,105.983-105.981c11.28,0,20.426,9.145,20.426,20.426v126.302
		C247.728,263.097,234.398,276.426,218.015,276.426z M162.171,235.574h44.706v-91.457c-25.94,8.588-44.706,33.069-44.706,61.851
		V235.574z"/>
</g>
<g>
	<path style="fill:#FFB700;" d="M339.049,512c-11.245,0-20.421-9.126-20.421-20.426V386.745c0-11.28,9.145-20.426,20.426-20.426
		h104.829c18.126,0,27.302,22.009,14.442,34.869L353.495,506.018C349.588,509.926,344.364,512,339.049,512z"/>
	<path style="fill:#FFB700;" d="M255.989,387.225v40.851c11.28,0,20.426-9.145,20.426-20.426S267.269,387.225,255.989,387.225z"/>
	<path style="fill:#FFB700;" d="M360.948,276.426h-66.985c-16.383,0-29.711-13.328-29.711-29.711V120.413
		c0-11.28,9.145-20.426,20.426-20.426c58.439,0,105.983,47.542,105.983,105.981v40.746
		C390.659,263.097,377.33,276.426,360.948,276.426z M305.102,235.574h44.706v-29.606c0-28.782-18.766-53.263-44.706-61.851V235.574
		L305.102,235.574z"/>
</g>
<g>
</g>
<g>
</g>
<g>
</g>
<g>
</g>
<g>
</g>
<g>
</g>
<g>
</g>
<g>
</g>
<g>
</g>
<g>
</g>
<g>
</g>
<g>
</g>
<g>
</g>
<g>
</g>
<g>
</g>
</svg>
