<?xml version="1.0" encoding="iso-8859-1"?>
<!-- Generator: Adobe Illustrator 19.0.0, SVG Export Plug-In . SVG Version: 6.00 Build 0)  -->
<svg version="1.1" id="Layer_1" xmlns="http://www.w3.org/2000/svg" xmlns:xlink="http://www.w3.org/1999/xlink" x="0px" y="0px"
	 viewBox="0 0 512 512" style="enable-background:new 0 0 512 512;" xml:space="preserve">
<path style="fill:#39A3DB;" d="M477.68,512H34.32c-10.65,0-19.284-8.634-19.284-19.284V49.342c0-10.65,8.634-19.284,19.284-19.284
	H190.69c10.65,0,19.284,8.634,19.284,19.284v48.147h92.051V49.342c0-10.65,8.634-19.284,19.284-19.284H477.68
	c10.65,0,19.284,8.634,19.284,19.284v443.373C496.965,503.366,488.33,512,477.68,512z"/>
<path style="fill:#3797D3;" d="M477.68,30.058H321.31c-10.65,0-19.284,8.634-19.284,19.284v48.147H256V512h221.68
	c10.65,0,19.284-8.634,19.284-19.284V49.342C496.965,38.692,488.33,30.058,477.68,30.058z"/>
<path style="fill:#E8F2FB;" d="M89.98,512H34.313c-10.65,0-19.284-8.634-19.284-19.284v-55.666c0-10.65,1.377-9.364,60.459-68.447
	c-10.372-21.397-7.11-48.558,11.36-67.016c36.195-36.22,97.625-11.581,100.037,38.584c51.128,2.521,74.137,64.452,38.547,100.019
	c-18.273,18.283-45.395,21.827-67.007,11.351C99.554,510.414,100.632,512,89.98,512z"/>
<path style="fill:#C7E9F4;" d="M477.687,512H422.02c-10.65,0-9.366-1.378-68.448-60.459c-21.365,10.357-48.535,7.13-67.014-11.36
	c-35.681-35.657-12.373-97.518,38.583-100.011c2.492-51.032,64.387-74.228,100.02-38.575c18.274,18.265,21.832,45.384,11.351,67.007
	c58.873,58.874,60.459,57.795,60.459,68.448v55.666C496.971,503.366,488.337,512,477.687,512z"/>
<path style="fill:#FF423D;" d="M321.31,136.058H190.69c-10.65,0-19.284-8.634-19.284-19.284V19.284C171.406,8.634,180.04,0,190.69,0
	H321.31c10.65,0,19.284,8.634,19.284,19.284v97.489C340.594,127.423,331.96,136.058,321.31,136.058z"/>
<path style="fill:#E8F2FB;" d="M256,329.948C255.999,329.948,255.999,329.948,256,329.948c-12.244-0.001-23.365-7.23-28.334-18.42
	l-24.792-55.835c-9.104-20.503,5.928-43.58,28.334-43.58h49.583c22.434,0,37.426,23.103,28.333,43.58l-24.791,55.835
	C279.365,322.717,268.242,329.948,256,329.948z"/>
<path style="fill:#FB3732;" d="M321.31,0H256v136.058h65.31c10.65,0,19.284-8.634,19.284-19.284V19.284
	C340.594,8.634,331.96,0,321.31,0z"/>
<path style="fill:#C7E9F4;" d="M280.791,212.111H256v117.835c12.242,0,23.365-7.23,28.333-18.42l24.791-55.835
	C318.228,235.188,303.197,212.111,280.791,212.111z"/>
<g>
</g>
<g>
</g>
<g>
</g>
<g>
</g>
<g>
</g>
<g>
</g>
<g>
</g>
<g>
</g>
<g>
</g>
<g>
</g>
<g>
</g>
<g>
</g>
<g>
</g>
<g>
</g>
<g>
</g>
</svg>
