<?xml version="1.0" encoding="iso-8859-1"?>
<!-- Generator: Adobe Illustrator 19.0.0, SVG Export Plug-In . SVG Version: 6.00 Build 0)  -->
<svg version="1.1" id="Layer_1" xmlns="http://www.w3.org/2000/svg" xmlns:xlink="http://www.w3.org/1999/xlink" x="0px" y="0px"
	 viewBox="0 0 495 495" style="enable-background:new 0 0 495 495;" xml:space="preserve">
<g>
	<rect x="178.831" style="fill:#00CCB3;" width="137.338" height="70"/>
	<rect x="247.5" y="405" style="fill:#00EED1;" width="151.17" height="90"/>
	<polygon style="fill:#00CCB3;" points="247.5,204.81 247.5,243.241 267.5,243.241 267.5,284.903 309.161,284.903 309.161,324.903 
		267.5,324.903 267.5,366.564 247.5,366.564 247.5,405 398.67,405 398.67,204.81 	"/>
	<path style="fill:#00EED1;" d="M247.5,204.81h151.17c0-54.96-29.88-105.65-77.98-132.3L316.17,70H247.5V204.81z"/>
	<rect x="96.33" y="405" style="fill:#AAFFF5;" width="151.17" height="90"/>
	<polygon style="fill:#00EED1;" points="247.5,366.564 227.5,366.564 227.5,324.903 185.839,324.903 185.839,284.903 227.5,284.903 
		227.5,243.241 247.5,243.241 247.5,204.81 96.33,204.81 96.33,405 247.5,405 	"/>
	<path style="fill:#AAFFF5;" d="M247.5,70h-68.67l-4.52,2.51c-48.1,26.65-77.98,77.34-77.98,132.3H247.5V70z"/>
	<polygon style="fill:#FFFFFF;" points="227.5,284.903 185.839,284.903 185.839,324.903 227.5,324.903 227.5,366.564 267.5,366.564 
		267.5,324.903 309.161,324.903 309.161,284.903 267.5,284.903 267.5,243.241 227.5,243.241 	"/>
</g>
<g>
</g>
<g>
</g>
<g>
</g>
<g>
</g>
<g>
</g>
<g>
</g>
<g>
</g>
<g>
</g>
<g>
</g>
<g>
</g>
<g>
</g>
<g>
</g>
<g>
</g>
<g>
</g>
<g>
</g>
</svg>
