<?xml version="1.0" encoding="iso-8859-1"?>
<!-- Generator: Adobe Illustrator 19.0.0, SVG Export Plug-In . SVG Version: 6.00 Build 0)  -->
<svg version="1.1" id="Layer_1" xmlns="http://www.w3.org/2000/svg" xmlns:xlink="http://www.w3.org/1999/xlink" x="0px" y="0px"
	 viewBox="0 0 495 495" style="enable-background:new 0 0 495 495;" xml:space="preserve">
<g>
	<path style="fill:#FFC477;" d="M0.008,163.375C0,163.369,0,332.271,0,332.271C0,422,73,495,162.729,495V325.458
		C73.216,325.458,0.358,252.807,0.008,163.375z"/>
	<path style="fill:#FFDAAA;" d="M495,0H162.729c89.729,0,162.729,73,162.729,162.729c0,0.216-0.007,0.43-0.008,0.646
		c0.008-0.005,0.008,168.897,0.008,168.897c0,6.771-0.423,13.444-1.23,20H495V0z"/>
	<path style="fill:#FFDAAA;" d="M162.729,325.458V217.729c-30.327,0-55-24.673-55-55s24.673-55,55-55V0C73,0,0,73,0,162.729
		c0,0.216,0.007,0.43,0.008,0.646C0.358,252.807,73.216,325.458,162.729,325.458z"/>
	<path style="fill:#FFB655;" d="M325.458,163.369c-0.358,89.438-73.216,162.089-162.729,162.089V495
		c82.958,0,151.61-62.401,161.499-142.729c0.807-6.556,1.23-13.229,1.23-20V163.369z"/>
	<path style="fill:#FFC477;" d="M217.729,162.729c0,30.327-24.673,55-55,55v107.729c89.513,0,162.371-72.651,162.721-162.083
		c0.001-0.216,0.008-0.43,0.008-0.646C325.458,73,252.458,0,162.729,0v107.729C193.056,107.729,217.729,132.401,217.729,162.729z"/>
</g>
<g>
</g>
<g>
</g>
<g>
</g>
<g>
</g>
<g>
</g>
<g>
</g>
<g>
</g>
<g>
</g>
<g>
</g>
<g>
</g>
<g>
</g>
<g>
</g>
<g>
</g>
<g>
</g>
<g>
</g>
</svg>
