<?xml version="1.0" encoding="iso-8859-1"?>
<!-- Generator: Adobe Illustrator 19.0.0, SVG Export Plug-In . SVG Version: 6.00 Build 0)  -->
<svg version="1.1" id="Layer_1" xmlns="http://www.w3.org/2000/svg" xmlns:xlink="http://www.w3.org/1999/xlink" x="0px" y="0px"
	 viewBox="0 0 495 495" style="enable-background:new 0 0 495 495;" xml:space="preserve">
<g>
	<path style="fill:#FFC477;" d="M427.242,63.161c0-16.871-6.57-32.732-18.5-44.662C396.813,6.569,380.951-0.001,364.081,0
		c-34.828,0-63.162,28.334-63.162,63.161l0.001,28.648L91.809,300.92l-28.648-0.001c-16.871,0-32.733,6.57-44.662,18.5
		C6.569,331.35,0,347.211,0,364.081c0,16.87,6.569,32.731,18.499,44.661c11.929,11.93,27.791,18.5,44.661,18.5h4.597L427.242,67.758
		L427.242,63.161z"/>
	<path style="fill:#FFB655;" d="M476.501,86.258c-11.93-11.93-27.791-18.5-44.662-18.5h-4.597L67.758,427.242l0,4.598
		c0,16.871,6.57,32.732,18.5,44.661c11.93,11.93,27.791,18.5,44.661,18.499c16.87,0,32.731-6.569,44.662-18.499
		c11.93-11.93,18.5-27.791,18.5-44.662l-0.001-28.648L403.191,194.08l28.648,0.001c34.827,0,63.161-28.334,63.161-63.162
		C495.001,114.049,488.431,98.188,476.501,86.258z"/>
</g>
<g>
</g>
<g>
</g>
<g>
</g>
<g>
</g>
<g>
</g>
<g>
</g>
<g>
</g>
<g>
</g>
<g>
</g>
<g>
</g>
<g>
</g>
<g>
</g>
<g>
</g>
<g>
</g>
<g>
</g>
</svg>
