<?xml version="1.0" encoding="iso-8859-1"?>
<!-- Generator: Adobe Illustrator 19.0.0, SVG Export Plug-In . SVG Version: 6.00 Build 0)  -->
<svg version="1.1" id="Layer_1" xmlns="http://www.w3.org/2000/svg" xmlns:xlink="http://www.w3.org/1999/xlink" x="0px" y="0px"
	 viewBox="0 0 495 495" style="enable-background:new 0 0 495 495;" xml:space="preserve">
<g>
	<path style="fill:#AAFFF5;" d="M161.874,0C83.997,0,20.639,63.357,20.639,141.234c0,55.92,62.327,275.261,69.979,301.977
		c3.511,14.032,12.395,27.088,25.057,36.805C128.266,489.679,143.208,495,157.748,495h58.438V366.067
		c0-17.267,14.047-31.314,31.314-31.314V28.907C223.011,10.154,193.215,0,161.874,0z"/>
	<path style="fill:#00EED1;" d="M333.126,0c-31.342,0-61.138,10.154-85.626,28.907v305.846c17.267,0,31.314,14.048,31.314,31.314
		V495h58.438c14.54,0,29.482-5.321,42.073-14.984c12.662-9.717,21.545-22.772,25.057-36.805
		c7.652-26.716,69.979-246.057,69.979-301.977C474.361,63.357,411.003,0,333.126,0z"/>
</g>
<g>
</g>
<g>
</g>
<g>
</g>
<g>
</g>
<g>
</g>
<g>
</g>
<g>
</g>
<g>
</g>
<g>
</g>
<g>
</g>
<g>
</g>
<g>
</g>
<g>
</g>
<g>
</g>
<g>
</g>
</svg>
