<?xml version="1.0" encoding="iso-8859-1"?>
<!-- Generator: Adobe Illustrator 19.0.0, SVG Export Plug-In . SVG Version: 6.00 Build 0)  -->
<svg version="1.1" id="Layer_1" xmlns="http://www.w3.org/2000/svg" xmlns:xlink="http://www.w3.org/1999/xlink" x="0px" y="0px"
	 viewBox="0 0 496.188 496.188" style="enable-background:new 0 0 496.188 496.188;" xml:space="preserve">
<g>
	<path style="fill:#00B6BD;" d="M145.835,185.741c0,56.386,45.874,102.259,102.259,102.259V156.727
		c-31.205,0-58.2-18.338-70.796-44.8C157.331,131.019,145.835,157.454,145.835,185.741z"/>
	<path style="fill:#00969B;" d="M248.094,156.727V288c56.386,0,102.259-45.874,102.259-102.259
		c0-28.287-11.496-54.722-31.463-73.814C306.294,138.388,279.299,156.727,248.094,156.727z"/>
	<path style="fill:#FFB655;" d="M331.717,329.37c-24.673-14.108-53.222-22.181-83.623-22.181c-30.4,0-58.949,8.073-83.622,22.181
		l83.623,83.623L331.717,329.37z"/>
	<path style="fill:#FFDAAA;" d="M164.472,329.37c-50.958,29.137-85.378,84.032-85.378,146.819v20h169l0-83.196L164.472,329.37z"/>
	<path style="fill:#FFC477;" d="M331.717,329.37l-83.622,83.623l0,83.196h169v-20C417.094,413.402,382.675,358.507,331.717,329.37z"
		/>
	<path style="fill:#FFDAAA;" d="M248.094,156.727c31.205,0,58.2-18.338,70.796-44.8c4.846-10.18,7.567-21.559,7.567-33.563
		C326.458,35.154,291.304,0,248.094,0s-78.363,35.154-78.363,78.363c0,12.005,2.721,23.383,7.567,33.563
		C189.894,138.388,216.89,156.727,248.094,156.727z"/>
</g>
<g>
</g>
<g>
</g>
<g>
</g>
<g>
</g>
<g>
</g>
<g>
</g>
<g>
</g>
<g>
</g>
<g>
</g>
<g>
</g>
<g>
</g>
<g>
</g>
<g>
</g>
<g>
</g>
<g>
</g>
</svg>
