<?xml version="1.0" encoding="iso-8859-1"?>
<!-- Generator: Adobe Illustrator 19.0.0, SVG Export Plug-In . SVG Version: 6.00 Build 0)  -->
<svg version="1.1" id="Layer_1" xmlns="http://www.w3.org/2000/svg" xmlns:xlink="http://www.w3.org/1999/xlink" x="0px" y="0px"
	 viewBox="0 0 495 495" style="enable-background:new 0 0 495 495;" xml:space="preserve">
<g>
	<rect x="247.5" y="405" style="fill:#00EED1;" width="210.24" height="90"/>
	<path style="fill:#FFB655;" d="M247.5,273.08h27.94c25.34,0,45.96,20.62,45.96,45.96S300.78,365,275.44,365H247.5v40h210.24V233.08
		H247.5V273.08z"/>
	<polygon style="fill:#00EED1;" points="426.31,142.1 426.31,123.08 247.5,123.08 247.5,233.08 457.74,233.08 457.74,162.1 	"/>
	<rect x="347.7" style="fill:#C61469;" width="100.2" height="123.08"/>
	<rect x="247.5" style="fill:#FF3F62;" width="100.2" height="123.08"/>
	<path style="fill:#C61469;" d="M275.44,365c25.34,0,45.96-20.62,45.96-45.96s-20.62-45.96-45.96-45.96H247.5V365H275.44z"/>
	<rect x="37.26" y="405" style="fill:#AAFFF5;" width="210.24" height="90"/>
	<path style="fill:#FFC477;" d="M247.5,365h-27.94c-25.34,0-45.96-20.62-45.96-45.96s20.62-45.96,45.96-45.96h27.94v-40H37.26V405
		H247.5V365z"/>
	<path style="fill:#FF3F62;" d="M173.6,319.04c0,25.34,20.62,45.96,45.96,45.96h27.94v-91.92h-27.94
		C194.22,273.08,173.6,293.7,173.6,319.04z"/>
	<polygon style="fill:#AAFFF5;" points="247.5,123.08 68.69,123.08 68.69,142.1 37.26,162.1 37.26,233.08 247.5,233.08 	"/>
	<rect x="147.3" style="fill:#C61469;" width="100.2" height="123.08"/>
	<rect x="47.1" style="fill:#FF3F62;" width="100.2" height="123.08"/>
</g>
<g>
</g>
<g>
</g>
<g>
</g>
<g>
</g>
<g>
</g>
<g>
</g>
<g>
</g>
<g>
</g>
<g>
</g>
<g>
</g>
<g>
</g>
<g>
</g>
<g>
</g>
<g>
</g>
<g>
</g>
</svg>
