<?xml version="1.0" encoding="iso-8859-1"?>
<!-- Generator: Adobe Illustrator 19.0.0, SVG Export Plug-In . SVG Version: 6.00 Build 0)  -->
<svg version="1.1" id="Layer_1" xmlns="http://www.w3.org/2000/svg" xmlns:xlink="http://www.w3.org/1999/xlink" x="0px" y="0px"
	 viewBox="0 0 495 495" style="enable-background:new 0 0 495 495;" xml:space="preserve">
<g>
	<path style="fill:#FFDAAA;" d="M302.031,154.531c0-30.068-24.462-54.531-54.531-54.531s-54.531,24.463-54.531,54.531v65.899
		c28.621,8.612,49.531,35.211,49.531,66.601c0,38.34-31.191,69.531-69.531,69.531h-20V495h51.885
		c23.027,0,45.149-6.948,63.974-20.092c18.372-12.829,32.342-30.622,40.399-51.456l82.446-213.208
		c6.874-17.774,10.358-36.52,10.358-55.713H302.031z"/>
	<path style="fill:#FFBCAB;" d="M152.969,316.563h20c16.284,0,29.531-13.248,29.531-29.531S189.252,257.5,172.969,257.5h-20V154.531
		C152.969,102.406,195.375,60,247.5,60s94.531,42.406,94.531,94.531h60C402.031,69.322,332.709,0,247.5,0
		S92.969,69.322,92.969,154.531V495h60V316.563z"/>
	<path style="fill:#FF3F62;" d="M247.5,60c-52.125,0-94.531,42.406-94.531,94.531V257.5h20c16.284,0,29.531,13.248,29.531,29.531
		s-13.248,29.531-29.531,29.531h-20v40h20c38.34,0,69.531-31.191,69.531-69.531c0-31.39-20.91-57.988-49.531-66.601v-65.899
		c0-30.068,24.462-54.531,54.531-54.531s54.531,24.463,54.531,54.531h40C342.031,102.406,299.625,60,247.5,60z"/>
</g>
<g>
</g>
<g>
</g>
<g>
</g>
<g>
</g>
<g>
</g>
<g>
</g>
<g>
</g>
<g>
</g>
<g>
</g>
<g>
</g>
<g>
</g>
<g>
</g>
<g>
</g>
<g>
</g>
<g>
</g>
</svg>
