<?xml version="1.0" encoding="iso-8859-1"?>
<!-- Generator: Adobe Illustrator 19.0.0, SVG Export Plug-In . SVG Version: 6.00 Build 0)  -->
<svg version="1.1" id="Layer_1" xmlns="http://www.w3.org/2000/svg" xmlns:xlink="http://www.w3.org/1999/xlink" x="0px" y="0px"
	 viewBox="0 0 490 490" style="enable-background:new 0 0 490 490;" xml:space="preserve">
<g>
	<path style="fill:#AAFFF5;" d="M326.493,205.161V163.5h-41.662v-40h41.662V81.838h20V0c-79.126,0-143.5,64.374-143.5,143.5
		c0,25.595,6.712,50.369,19.498,72.252l-25.875,77.625l77.627-25.875C296.123,280.289,320.898,287,346.493,287v-81.839H326.493z"/>
	<path style="fill:#00EED1;" d="M346.493,0v81.838h20V123.5h41.662v40h-41.662v41.661h-20V287c79.126,0,143.5-64.374,143.5-143.5
		S425.619,0,346.493,0z"/>
	<path style="fill:#00B6BD;" d="M142.463,240.869l33.726-33.726L63.919,94.873l-14.118,12.988
		c-0.458,0.421-11.335,10.469-22.587,24.456c-16.366,20.342-25.422,38.876-26.916,55.089
		C-3.97,233.73,39.012,309.404,109.801,380.194l85.994-85.995L142.463,240.869z"/>
	<path style="fill:#00969B;" d="M249.125,347.53l-53.331-53.331l-85.994,85.995c31.866,31.865,65.834,59.031,98.233,78.561
		C231.68,473.009,266.103,490,295.81,490c2.307,0,4.587-0.103,6.778-0.304c16.212-1.495,34.746-10.551,55.089-26.917
		c13.986-11.252,24.034-22.129,24.455-22.587l12.988-14.118l-112.27-112.27L249.125,347.53z"/>
	<polygon style="fill:#00B6BD;" points="326.493,123.5 284.832,123.5 284.832,163.5 326.493,163.5 326.493,205.161 366.493,205.161 
		366.493,163.5 408.155,163.5 408.155,123.5 366.493,123.5 366.493,81.838 326.493,81.838 	"/>
</g>
<g>
</g>
<g>
</g>
<g>
</g>
<g>
</g>
<g>
</g>
<g>
</g>
<g>
</g>
<g>
</g>
<g>
</g>
<g>
</g>
<g>
</g>
<g>
</g>
<g>
</g>
<g>
</g>
<g>
</g>
</svg>
