<?xml version="1.0" encoding="iso-8859-1"?>
<!-- Generator: Adobe Illustrator 19.0.0, SVG Export Plug-In . SVG Version: 6.00 Build 0)  -->
<svg version="1.1" id="Layer_1" xmlns="http://www.w3.org/2000/svg" xmlns:xlink="http://www.w3.org/1999/xlink" x="0px" y="0px"
	 viewBox="0 0 494.969 494.969" style="enable-background:new 0 0 494.969 494.969;" xml:space="preserve">
<g>
	<path style="fill:#FF3F62;" d="M242.523,65.752V6.656h-40v59.096c7.026,3.904,13.729,8.419,20,13.536
		C228.795,74.171,235.497,69.655,242.523,65.752z"/>
	<path style="fill:#FFC477;" d="M222.523,79.288c-6.272-5.117-12.975-9.632-20-13.536c-35.089-19.498-78.41-23.394-118.378-6.838
		C14.624,87.709-18.39,167.411,10.407,236.931l83.614,201.864c16.947,40.911,63.85,60.34,104.762,43.393
		c9.009-3.731,16.973-8.918,23.74-15.171V79.288z"/>
	<path style="fill:#FFB655;" d="M257.745,261.384c-9.833-12.019-15.733-27.379-15.733-44.12c0-38.509,31.218-69.728,69.728-69.728
		c23.398,0,44.103,11.526,56.751,29.208c12.648-17.683,33.352-29.208,56.75-29.208c5.163,0,10.188,0.578,15.031,1.642
		c-10.68-39.329-38.807-73.463-79.37-90.265c-39.969-16.556-83.29-12.66-118.379,6.838c-7.025,3.904-13.728,8.419-20,13.536v387.729
		c6.767,6.253,14.731,11.44,23.74,15.171c40.912,16.947,87.815-2.482,104.762-43.393l17.574-42.428l-0.108,0.132L257.745,261.384z"
		/>
	<path style="fill:#FF3F62;" d="M311.74,147.536c-38.51,0-69.728,31.218-69.728,69.728c0,16.741,5.9,32.101,15.733,44.12
		l110.746,135.115V176.745C355.843,159.062,335.138,147.536,311.74,147.536z"/>
	<path style="fill:#C61469;" d="M494.969,217.264c0-33.347-23.416-61.209-54.697-68.085c-4.843-1.064-9.868-1.642-15.031-1.642
		c-23.398,0-44.103,11.526-56.75,29.208v219.754l0.108-0.132l110.637-134.983C489.069,249.365,494.969,234.005,494.969,217.264z"/>
</g>
<g>
</g>
<g>
</g>
<g>
</g>
<g>
</g>
<g>
</g>
<g>
</g>
<g>
</g>
<g>
</g>
<g>
</g>
<g>
</g>
<g>
</g>
<g>
</g>
<g>
</g>
<g>
</g>
<g>
</g>
</svg>
