<?xml version="1.0" encoding="iso-8859-1"?>
<!-- Generator: Adobe Illustrator 19.0.0, SVG Export Plug-In . SVG Version: 6.00 Build 0)  -->
<svg version="1.1" id="Layer_1" xmlns="http://www.w3.org/2000/svg" xmlns:xlink="http://www.w3.org/1999/xlink" x="0px" y="0px"
	 viewBox="0 0 495 495" style="enable-background:new 0 0 495 495;" xml:space="preserve">
<g>
	<rect x="229.493" y="322.048" style="fill:#00EED1;" width="30" height="40"/>
	<rect x="259.493" y="299.096" style="fill:#00CCB3;" width="40" height="85.904"/>
	<path style="fill:#00EED1;" d="M343.923,299.096c-2.045-6.305-3.164-13.022-3.164-20s1.119-13.695,3.164-20H159.666v40H343.923z"/>
	<path style="fill:#00CCB3;" d="M425.723,217.294v-13.758c0-56.578-46.029-102.607-102.607-102.607h-11.647v40h11.647
		c34.521,0,62.607,28.086,62.607,62.607v13.759c6.305-2.045,13.023-3.164,20-3.164C412.701,214.131,419.419,215.25,425.723,217.294z
		"/>
	<path style="fill:#00CCB3;" d="M385.723,340.896V385h40v-44.104c-6.305,2.045-13.023,3.164-20,3.164
		C398.746,344.061,392.028,342.942,385.723,340.896z"/>
	<path style="fill:#00969B;" d="M24.312,475v20h401.41v-55H31.392C26.832,450.76,24.312,462.59,24.312,475z"/>
	<path style="fill:#00B6BD;" d="M114.312,385c-37.21,0-69.23,22.71-82.92,55h394.33v-55H114.312z"/>
	<rect x="227.502" y="215.357" style="fill:#00EED1;" width="40" height="20.786"/>
	<path style="fill:#00B6BD;" d="M343.923,299.096c6.41,19.758,22.042,35.391,41.8,41.801c6.305,2.045,13.023,3.164,20,3.164v-129.93
		c-6.977,0-13.696,1.119-20,3.164c-19.758,6.41-35.39,22.042-41.8,41.801c-2.045,6.305-3.164,13.022-3.164,20
		S341.878,292.791,343.923,299.096z"/>
	<rect x="183.534" style="fill:#00B6BD;" width="63.967" height="215.357"/>
	<rect x="247.501" style="fill:#00969B;" width="63.968" height="215.357"/>
	<path style="fill:#00969B;" d="M470.688,279.096c0-28.844-18.902-53.346-44.965-61.801c-6.304-2.045-13.022-3.164-20-3.164v129.93
		c6.977,0,13.695-1.119,20-3.164C451.787,332.441,470.688,307.94,470.688,279.096z"/>
</g>
<g>
</g>
<g>
</g>
<g>
</g>
<g>
</g>
<g>
</g>
<g>
</g>
<g>
</g>
<g>
</g>
<g>
</g>
<g>
</g>
<g>
</g>
<g>
</g>
<g>
</g>
<g>
</g>
<g>
</g>
</svg>
