<?xml version="1.0" encoding="iso-8859-1"?>
<!-- Generator: Adobe Illustrator 19.0.0, SVG Export Plug-In . SVG Version: 6.00 Build 0)  -->
<svg version="1.1" id="Layer_1" xmlns="http://www.w3.org/2000/svg" xmlns:xlink="http://www.w3.org/1999/xlink" x="0px" y="0px"
	 viewBox="0 0 497.206 497.206" style="enable-background:new 0 0 497.206 497.206;" xml:space="preserve">
<g>
	<path style="fill:#FFB655;" d="M332.226,330.387c-24.673-14.108-53.222-22.181-83.623-22.181c-30.4,0-58.949,8.073-83.622,22.181
		l83.623,83.623L332.226,330.387z"/>
	<path style="fill:#FFDAAA;" d="M164.98,330.387c-50.958,29.137-85.378,84.032-85.378,146.819v20h169l0-83.196L164.98,330.387z"/>
	<path style="fill:#FFC477;" d="M332.226,330.387l-83.623,83.623l0,83.196h169v-20C417.603,414.419,383.184,359.524,332.226,330.387
		z"/>
	<path style="fill:#00969B;" d="M310.27,185.159h-61.667v105.452c23.442,0,45.084-7.831,62.469-21h-0.802V185.159z"/>
	<path style="fill:#FFC477;" d="M311.476,104.516c9.703,7.41,18.015,16.538,24.551,26.782l22.446-104.599L248.603,0v83.278
		C271.542,83.278,293.283,90.622,311.476,104.516z"/>
	<path style="fill:#FFDAAA;" d="M185.73,104.516c18.192-13.894,39.934-21.238,62.873-21.238V0L138.732,26.698l22.446,104.6
		C167.714,121.054,176.026,111.926,185.73,104.516z"/>
	<path style="fill:#C61469;" d="M311.476,104.516c-18.192-13.894-39.934-21.238-62.873-21.238v101.881h61.667v84.452h42v-82.667
		c0-8.706-1.089-17.337-3.225-25.707v-0.202l-0.812-2.813c-2.748-9.533-6.892-18.597-12.207-26.926
		C329.491,121.054,321.179,111.926,311.476,104.516z"/>
	<path style="fill:#00B6BD;" d="M186.936,185.159v84.452h-0.802c17.385,13.169,39.027,21,62.469,21V185.159H186.936z"/>
	<path style="fill:#FF3F62;" d="M186.936,185.159h61.667V83.278c-22.939,0-44.681,7.344-62.873,21.238
		c-9.704,7.41-18.015,16.538-24.552,26.782c-5.314,8.329-9.458,17.393-12.195,26.888c-0.011,0.037-0.822,2.851-0.822,2.851v0.202
		c-2.136,8.369-3.225,17-3.225,25.707v82.667h42V185.159z"/>
</g>
<g>
</g>
<g>
</g>
<g>
</g>
<g>
</g>
<g>
</g>
<g>
</g>
<g>
</g>
<g>
</g>
<g>
</g>
<g>
</g>
<g>
</g>
<g>
</g>
<g>
</g>
<g>
</g>
<g>
</g>
</svg>
