<?xml version="1.0" encoding="iso-8859-1"?>
<!-- Generator: Adobe Illustrator 19.0.0, SVG Export Plug-In . SVG Version: 6.00 Build 0)  -->
<svg version="1.1" id="Layer_1" xmlns="http://www.w3.org/2000/svg" xmlns:xlink="http://www.w3.org/1999/xlink" x="0px" y="0px"
	 viewBox="0 0 495 495" style="enable-background:new 0 0 495 495;" xml:space="preserve">
<g>
	<rect x="425" y="113.07" style="fill:#00EED1;" width="30" height="40"/>
	<rect x="425" y="341.93" style="fill:#00EED1;" width="30" height="40"/>
	<polygon style="fill:#FFBCAB;" points="425,35 212.5,35 212.5,123.75 261.51,123.75 261.51,198.49 336.25,198.49 336.25,296.51 
		261.51,296.51 261.51,371.25 212.5,371.25 212.5,460 425,460 	"/>
	<polygon style="fill:#FFDAAA;" points="163.49,371.25 163.49,296.51 88.75,296.51 88.75,198.49 163.49,198.49 163.49,123.75 
		212.5,123.75 212.5,35 0,35 0,460 212.5,460 212.5,371.25 	"/>
	<polygon style="fill:#C61469;" points="261.51,371.25 261.51,296.51 336.25,296.51 336.25,198.49 261.51,198.49 261.51,123.75 
		212.5,123.75 212.5,371.25 	"/>
	<polygon style="fill:#FF3F62;" points="163.49,198.49 88.75,198.49 88.75,296.51 163.49,296.51 163.49,371.25 212.5,371.25 
		212.5,123.75 163.49,123.75 	"/>
	<rect x="455" style="fill:#00CCB3;" width="40" height="495"/>
</g>
<g>
</g>
<g>
</g>
<g>
</g>
<g>
</g>
<g>
</g>
<g>
</g>
<g>
</g>
<g>
</g>
<g>
</g>
<g>
</g>
<g>
</g>
<g>
</g>
<g>
</g>
<g>
</g>
<g>
</g>
</svg>
