<?xml version="1.0" encoding="iso-8859-1"?>
<!-- Generator: Adobe Illustrator 19.0.0, SVG Export Plug-In . SVG Version: 6.00 Build 0)  -->
<svg version="1.1" id="Layer_1" xmlns="http://www.w3.org/2000/svg" xmlns:xlink="http://www.w3.org/1999/xlink" x="0px" y="0px"
	 viewBox="0 0 495.003 495.003" style="enable-background:new 0 0 495.003 495.003;" xml:space="preserve">
<g>
	<path style="fill:#FFBCAB;" d="M115.46,379.542l14.142,14.142l-28.284,28.284l-14.142-14.142l-49.495,49.495
		c24.296,24.296,56.597,37.675,90.955,37.682c34.365,0,66.666-13.378,90.962-37.675l68.738-68.738l-90.962-90.962L115.46,379.542z
		 M175.196,402.734l-28.284-28.284l28.284-28.284l28.284,28.284L175.196,402.734z"/>
	
		<rect x="228.663" y="222.093" transform="matrix(-0.7071 -0.7071 0.7071 -0.7071 292.9826 707.3224)" style="fill:#FFB655;" width="128.64" height="141.78"/>
	<path style="fill:#FFBCAB;" d="M457.321,37.682l-49.495,49.495l14.143,14.142l-28.284,28.284l-14.143-14.142l-81.914,81.914
		l90.962,90.962l68.738-68.738C507.483,169.444,507.476,87.837,457.321,37.682z M374.451,203.48l-28.285-28.284l28.284-28.284
		l28.285,28.284L374.451,203.48z"/>
	<path style="fill:#FFDAAA;" d="M73.034,393.685l28.284-28.284l14.142,14.142l81.914-81.914l-90.962-90.962l-68.738,68.738
		c-50.155,50.155-50.148,131.762,0.007,181.917l49.495-49.495L73.034,393.685z M120.553,291.523l28.284,28.284l-28.284,28.284
		l-28.284-28.284L120.553,291.523z"/>
	
		<rect x="137.7" y="131.13" transform="matrix(0.7071 0.7071 -0.7071 0.7071 202.0203 -83.6796)" style="fill:#FFC477;" width="128.64" height="141.78"/>
	<path style="fill:#FFDAAA;" d="M379.542,115.46L365.4,101.318l28.284-28.284l14.143,14.142l49.495-49.495
		C433.025,13.385,400.724,0.007,366.366,0c-34.365,0-66.666,13.378-90.962,37.675l-68.738,68.738l90.962,90.962L379.542,115.46z
		 M319.807,92.269l28.285,28.284l-28.284,28.284l-28.285-28.284L319.807,92.269z"/>
	
		<rect x="100.553" y="299.807" transform="matrix(0.7071 0.7071 -0.7071 0.7071 261.447 8.4253)" style="fill:#FFFFFF;" width="40" height="40"/>
	
		<rect x="155.196" y="354.45" transform="matrix(-0.7071 -0.7071 0.7071 -0.7071 34.302 763.1078)" style="fill:#FFFFFF;" width="40" height="40"/>
	
		<rect x="81.318" y="373.685" transform="matrix(-0.7071 -0.7071 0.7071 -0.7071 -105.4158 743.7045)" style="fill:#FFFFFF;" width="40" height="40"/>
	
		<rect x="373.684" y="81.318" transform="matrix(-0.7071 -0.7071 0.7071 -0.7071 600.4247 451.3347)" style="fill:#FFFFFF;" width="40.001" height="40"/>
	
		<rect x="299.807" y="100.553" transform="matrix(0.7071 0.7071 -0.7071 0.7071 178.9081 -190.8265)" style="fill:#FFFFFF;" width="40.001" height="40"/>
	
		<rect x="354.45" y="155.196" transform="matrix(-0.7071 -0.7071 0.7071 -0.7071 515.351 563.8518)" style="fill:#FFFFFF;" width="40.001" height="40"/>
</g>
<g>
</g>
<g>
</g>
<g>
</g>
<g>
</g>
<g>
</g>
<g>
</g>
<g>
</g>
<g>
</g>
<g>
</g>
<g>
</g>
<g>
</g>
<g>
</g>
<g>
</g>
<g>
</g>
<g>
</g>
</svg>
