<?xml version="1.0" encoding="iso-8859-1"?>
<!-- Generator: Adobe Illustrator 19.0.0, SVG Export Plug-In . SVG Version: 6.00 Build 0)  -->
<svg version="1.1" id="Layer_1" xmlns="http://www.w3.org/2000/svg" xmlns:xlink="http://www.w3.org/1999/xlink" x="0px" y="0px"
	 viewBox="0 0 499.622 499.622" style="enable-background:new 0 0 499.622 499.622;" xml:space="preserve">
<g>
	<polygon style="fill:#FF3F62;" points="43.327,428.677 99.745,448.555 130.89,499.622 249.811,352.848 177.288,263.341 	"/>
	<path style="fill:#C61469;" d="M322.333,263.341l-72.522-89.508l-18.384-22.689c-3.473-4.285-5.233-9.275-5.233-14.831
		c0-13.022,10.595-23.617,23.617-23.617V0c-75.163,0-136.313,61.149-136.313,136.313c0,31.146,10.786,61.61,30.37,85.78
		l33.421,41.248l72.522,89.507l118.922,146.774l31.144-51.067l56.419-19.878L322.333,263.341z"/>
	<path style="fill:#FF3F62;" d="M273.428,136.313c0,5.557-1.761,10.546-5.235,14.832l-18.382,22.688l72.522,89.508l33.42-41.248
		c19.584-24.17,30.37-54.634,30.37-85.78C386.123,61.149,324.974,0,249.811,0v112.695
		C262.833,112.695,273.428,123.29,273.428,136.313z"/>
</g>
<g>
</g>
<g>
</g>
<g>
</g>
<g>
</g>
<g>
</g>
<g>
</g>
<g>
</g>
<g>
</g>
<g>
</g>
<g>
</g>
<g>
</g>
<g>
</g>
<g>
</g>
<g>
</g>
<g>
</g>
</svg>
