<?xml version="1.0" encoding="iso-8859-1"?>
<!-- Generator: Adobe Illustrator 19.0.0, SVG Export Plug-In . SVG Version: 6.00 Build 0)  -->
<svg version="1.1" id="Layer_1" xmlns="http://www.w3.org/2000/svg" xmlns:xlink="http://www.w3.org/1999/xlink" x="0px" y="0px"
	 viewBox="0 0 495 495" style="enable-background:new 0 0 495 495;" xml:space="preserve">
<g>
	<path style="fill:#00B6BD;" d="M339.257,183.139v180.796c0,50.213-40.852,91.064-91.065,91.064
		c-50.213,0-91.064-40.851-91.064-91.064V300.72c-6.448,1.402-13.138,2.148-20,2.148v-40c-29.8,0-54.043-24.244-54.043-54.043V40
		h27.145V0H43.084v208.825c0,44.994,31.764,82.702,74.043,91.895v63.215c0,72.269,58.795,131.064,131.064,131.064
		s131.065-58.795,131.065-131.064V183.139c-6.444,1.423-13.135,2.18-20,2.18C352.391,185.32,345.7,184.563,339.257,183.139z"/>
	<path style="fill:#00969B;" d="M137.127,302.868c6.862,0,13.552-0.746,20-2.148c42.279-9.194,74.043-46.902,74.043-91.895V0
		h-67.145v40h27.145v168.825c0,29.799-24.243,54.043-54.043,54.043V302.868z"/>
	<path style="fill:#00EED1;" d="M359.257,122.66c-16.543,0-30-13.458-30-30s13.457-30,29.999-30c0.001,0,0.001-62.66,0.001-62.66
		c-51.093,0-92.66,41.567-92.66,92.66c0,44.228,31.149,81.311,72.66,90.48c6.444,1.423,13.135,2.18,20,2.18V122.66z"/>
	<path style="fill:#00CCB3;" d="M451.916,92.66C451.916,41.567,410.35,0,359.257,0v62.66c16.542,0,30,13.458,30,30s-13.458,30-30,30
		v62.66c6.865,0,13.556-0.757,20-2.18C420.767,173.97,451.916,136.887,451.916,92.66z"/>
	<path style="fill:#00969B;" d="M329.257,92.66c0,16.542,13.457,30,29.999,30c16.543,0,30.001-13.458,30.001-30s-13.458-30-30-30
		C342.714,62.66,329.257,76.118,329.257,92.66z"/>
</g>
<g>
</g>
<g>
</g>
<g>
</g>
<g>
</g>
<g>
</g>
<g>
</g>
<g>
</g>
<g>
</g>
<g>
</g>
<g>
</g>
<g>
</g>
<g>
</g>
<g>
</g>
<g>
</g>
<g>
</g>
</svg>
