<?xml version="1.0" encoding="iso-8859-1"?>
<!-- Generator: Adobe Illustrator 19.0.0, SVG Export Plug-In . SVG Version: 6.00 Build 0)  -->
<svg version="1.1" id="Layer_1" xmlns="http://www.w3.org/2000/svg" xmlns:xlink="http://www.w3.org/1999/xlink" x="0px" y="0px"
	 viewBox="0 0 495 495" style="enable-background:new 0 0 495 495;" xml:space="preserve">
<g>
	<path style="fill:#00B6BD;" d="M91.5,290.286v-68.008h-40v133.896c-17.84,7.753-30.351,25.538-30.351,46.197
		c0,27.764,22.587,50.351,50.351,50.351V352.021c7.104,0,13.865,1.487,20,4.153v-25.888h312v-40H91.5z"/>
	<path style="fill:#00969B;" d="M403.5,222.278v133.896c6.135-2.667,12.896-4.153,20-4.153v100.701
		c27.764,0,50.351-22.587,50.351-50.351c0-20.659-12.511-38.444-30.351-46.197V222.278H403.5z"/>
	<path style="fill:#00969B;" d="M71.5,452.722c27.764,0,50.351-22.587,50.351-50.351c0-20.659-12.511-38.444-30.351-46.197
		c-6.135-2.667-12.896-4.153-20-4.153V452.722z"/>
	<rect x="141.5" y="112.278" style="fill:#AAFFF5;" width="106" height="110"/>
	<rect y="112.278" style="fill:#AAFFF5;" width="101.5" height="110"/>
	<rect x="247.5" y="112.278" style="fill:#00EED1;" width="106" height="110"/>
	<rect x="393.5" y="112.278" style="fill:#00EED1;" width="101.5" height="110"/>
	<polygon style="fill:#00B6BD;" points="141.5,222.278 141.5,82.278 353.5,82.278 353.5,222.278 393.5,222.278 393.5,42.278 
		101.5,42.278 101.5,222.278 	"/>
	<path style="fill:#00B6BD;" d="M423.5,352.021c-7.104,0-13.865,1.487-20,4.153c-17.84,7.753-30.351,25.538-30.351,46.197
		c0,27.764,22.587,50.351,50.351,50.351V352.021z"/>
</g>
<g>
</g>
<g>
</g>
<g>
</g>
<g>
</g>
<g>
</g>
<g>
</g>
<g>
</g>
<g>
</g>
<g>
</g>
<g>
</g>
<g>
</g>
<g>
</g>
<g>
</g>
<g>
</g>
<g>
</g>
</svg>
