<?xml version="1.0" encoding="iso-8859-1"?>
<!-- Generator: Adobe Illustrator 19.0.0, SVG Export Plug-In . SVG Version: 6.00 Build 0)  -->
<svg version="1.1" id="Layer_1" xmlns="http://www.w3.org/2000/svg" xmlns:xlink="http://www.w3.org/1999/xlink" x="0px" y="0px"
	 viewBox="0 0 491.185 491.185" style="enable-background:new 0 0 491.185 491.185;" xml:space="preserve">
<g>
	
		<rect x="181.444" y="182.676" transform="matrix(0.7071 0.7071 -0.7071 0.7071 215.5625 -94.1789)" style="fill:#AAFFF5;" width="80.044" height="60.886"/>
	<polygon style="fill:#AAFFF5;" points="299.577,191.608 342.63,148.555 286.03,91.955 222.766,155.22 242.977,135.008 	"/>
	<polygon style="fill:#AAFFF5;" points="199.955,291.23 143.355,234.63 156.674,221.312 100.302,277.684 156.902,334.283 	"/>
	<polygon style="fill:#AAFFF5;" points="128.617,362.568 72.018,305.968 77.031,300.955 28.965,349.021 85.564,405.621 	"/>
	<polygon style="fill:#00EED1;" points="299.577,191.608 271.292,219.893 228.239,262.945 199.955,291.23 156.902,334.283 
		128.617,362.568 85.564,405.621 71.422,391.479 0,462.901 28.284,491.185 99.706,419.763 142.164,462.22 399.229,205.154 
		342.63,148.555 	"/>
	
		<rect x="363.585" y="82.577" transform="matrix(0.7071 -0.7071 0.7071 0.7071 41.2871 304.8306)" style="fill:#00EED1;" width="50.044" height="40"/>
	<polygon style="fill:#00CCB3;" points="293.101,42.458 264.817,70.742 286.03,91.955 342.63,148.555 420.443,226.368 
		448.727,198.084 385.056,134.413 356.772,106.129 	"/>
	<polygon style="fill:#00CCB3;" points="462.901,141.484 491.185,113.199 377.986,0 349.701,28.284 392.159,70.742 420.443,99.026 	
		"/>
	<polygon style="fill:#00B6BD;" points="271.292,219.893 299.577,191.608 242.977,135.008 222.766,155.22 214.693,163.293 	"/>
	<polygon style="fill:#00B6BD;" points="199.955,291.23 228.239,262.945 171.64,206.346 156.674,221.312 143.355,234.63 	"/>
	<polygon style="fill:#00B6BD;" points="128.617,362.568 156.902,334.283 100.302,277.684 77.031,300.955 72.018,305.968 	"/>
</g>
<g>
</g>
<g>
</g>
<g>
</g>
<g>
</g>
<g>
</g>
<g>
</g>
<g>
</g>
<g>
</g>
<g>
</g>
<g>
</g>
<g>
</g>
<g>
</g>
<g>
</g>
<g>
</g>
<g>
</g>
</svg>
