<?xml version="1.0" encoding="iso-8859-1"?>
<!-- Generator: Adobe Illustrator 19.0.0, SVG Export Plug-In . SVG Version: 6.00 Build 0)  -->
<svg version="1.1" id="Layer_1" xmlns="http://www.w3.org/2000/svg" xmlns:xlink="http://www.w3.org/1999/xlink" x="0px" y="0px"
	 viewBox="0 0 492.016 492.016" style="enable-background:new 0 0 492.016 492.016;" xml:space="preserve">
<g>
	<path style="fill:#00CCB3;" d="M465.698,26.318l-28.284,28.285c19.495,19.495,19.495,51.215,0,70.71L190.969,371.758l-45.962,3.535
		l-43.461,43.461l107.245-8.25l256.908-256.908C500.789,118.507,500.789,61.41,465.698,26.318z"/>
	<path style="fill:#00EED1;" d="M120.258,301.047l218.16-218.16l28.284-28.284c19.495-19.496,51.216-19.496,70.711,0l28.284-28.285
		c-35.091-35.091-92.188-35.091-127.279,0L81.511,283.226l-8.25,107.245l43.461-43.461L120.258,301.047z"/>
	<path style="fill:#AAFFF5;" d="M366.703,54.603l-28.284,28.284l35.355,35.355l63.64-63.639
		C417.918,35.107,386.198,35.107,366.703,54.603z"/>
	<path style="fill:#00EED1;" d="M409.129,153.598l28.284-28.284c19.495-19.495,19.495-51.215,0-70.71l-63.64,63.639L409.129,153.598
		z"/>
	<polygon style="fill:#FF3F62;" points="114.366,377.65 373.774,118.242 338.418,82.887 120.258,301.047 116.723,347.009 
		73.261,390.471 0,463.732 28.284,492.016 101.546,418.755 145.007,375.293 	"/>
	<polygon style="fill:#C61469;" points="114.366,377.65 145.007,375.293 190.969,371.758 409.129,153.598 373.774,118.242 	"/>
</g>
<g>
</g>
<g>
</g>
<g>
</g>
<g>
</g>
<g>
</g>
<g>
</g>
<g>
</g>
<g>
</g>
<g>
</g>
<g>
</g>
<g>
</g>
<g>
</g>
<g>
</g>
<g>
</g>
<g>
</g>
</svg>
