<?xml version="1.0" encoding="iso-8859-1"?>
<!-- Generator: Adobe Illustrator 19.0.0, SVG Export Plug-In . SVG Version: 6.00 Build 0)  -->
<svg version="1.1" id="Layer_1" xmlns="http://www.w3.org/2000/svg" xmlns:xlink="http://www.w3.org/1999/xlink" x="0px" y="0px"
	 viewBox="0 0 495.357 495.357" style="enable-background:new 0 0 495.357 495.357;" xml:space="preserve">
<g>
	<path style="fill:#C61469;" d="M326.77,31.855c20.677,19.838,33.93,47.352,35.133,77.912l63.276,12v303.59h-177.5v70h247.5V63.797
		L326.77,31.855z"/>
	<path style="fill:#FFBCAB;" d="M247.679,228.639v196.719h177.5v-303.59l-63.276-12c0.059,1.511,0.095,3.027,0.095,4.552
		C361.998,177.355,310.715,228.639,247.679,228.639z"/>
	<path style="fill:#FF3F62;" d="M70.179,425.357v-303.59l63.276-12c1.203-30.56,14.456-58.074,35.133-77.912L0.179,63.797v431.56
		h247.5v-70H70.179z"/>
	<path style="fill:#FFDAAA;" d="M133.359,114.319c0-1.525,0.036-3.042,0.095-4.552l-63.276,12v303.59h177.5V228.639
		C184.643,228.639,133.359,177.355,133.359,114.319z"/>
	<path style="fill:#00CCB3;" d="M267.679,91.983c6.133,5.497,10,13.472,10,22.336c0,16.542-13.458,30-30,30v84.319
		c63.036,0,114.319-51.283,114.319-114.319c0-1.525-0.036-3.042-0.095-4.552c-1.203-30.56-14.456-58.074-35.133-77.912
		C310.79,16.524,290.382,5.776,267.679,1.754V91.983z"/>
	<path style="fill:#00EED1;" d="M133.455,109.767c-0.059,1.511-0.095,3.027-0.095,4.552c0,63.036,51.283,114.319,114.319,114.319
		v-84.319c-16.542,0-30-13.458-30-30c0-8.864,3.867-16.84,10-22.336V1.754c-22.703,4.022-43.112,14.771-59.091,30.101
		C147.911,51.693,134.658,79.207,133.455,109.767z"/>
	<path style="fill:#00969B;" d="M227.679,91.983c-6.133,5.497-10,13.472-10,22.336c0,16.542,13.458,30,30,30s30-13.458,30-30
		c0-8.864-3.867-16.84-10-22.336V1.754C261.183,0.603,254.5,0,247.679,0s-13.504,0.603-20,1.754V91.983z"/>
</g>
<g>
</g>
<g>
</g>
<g>
</g>
<g>
</g>
<g>
</g>
<g>
</g>
<g>
</g>
<g>
</g>
<g>
</g>
<g>
</g>
<g>
</g>
<g>
</g>
<g>
</g>
<g>
</g>
<g>
</g>
</svg>
