<?xml version="1.0" encoding="utf-8"?>
<!-- Generator: Adobe Illustrator 16.0.0, SVG Export Plug-In . SVG Version: 6.00 Build 0)  -->
<!DOCTYPE svg PUBLIC "-//W3C//DTD SVG 1.1//EN" "http://www.w3.org/Graphics/SVG/1.1/DTD/svg11.dtd">
<svg version="1.1" id="Layer_1" xmlns="http://www.w3.org/2000/svg" xmlns:xlink="http://www.w3.org/1999/xlink" x="0px" y="0px"
	 width="64px" height="64px" viewBox="0 0 64 64" enable-background="new 0 0 64 64" xml:space="preserve">
<g id="Collared_T-shirt">
	
		<path fill="#DDDDDC" stroke="#494949" stroke-width="1.5" stroke-linecap="round" stroke-linejoin="round" stroke-miterlimit="10" d="
		M35.376,6.177c-6.655-0.93-10.5,0.749-10.5,0.749l-2.172,2.027l-6.124,2.905c0,0-1.618,0.594-4.052,3.783l-5.84,8.811l7.567,6.378
		l2.597-2.755c0,0,0.431,8.756,0.431,28.108c0,0,6.775,0.815,13.172,0.707h0.289c6.398,0.108,13.172-0.707,13.172-0.707
		c0-19.353,0.434-28.108,0.434-28.108l2.594,2.755l7.57-6.378l-5.842-8.811c-2.434-3.189-4.052-3.783-4.052-3.783L37.85,8.353
		L35.376,6.177z"/>
	
		<path fill="#DDDDDC" stroke="#494949" stroke-width="1.5" stroke-linecap="round" stroke-linejoin="round" stroke-miterlimit="10" d="
		M15.859,20.836c0,0,0.018,2.179,0.993,7.237"/>
	
		<path fill="#DDDDDC" stroke="#494949" stroke-width="1.5" stroke-linecap="round" stroke-linejoin="round" stroke-miterlimit="10" d="
		M45.371,20.836c0,0-0.018,2.179-0.99,7.237"/>
	
		<path fill="#B7B7B7" stroke="#494949" stroke-width="1.5" stroke-linecap="round" stroke-linejoin="round" stroke-miterlimit="10" d="
		M29.579,15.227c0,0,0.346-1.968,2.079-2.593c-0.712,3.831,0,14.578,0,14.578c-0.876,0.95-2.119,0.824-2.119,0.824V15.608
		L29.579,15.227z"/>
	
		<path fill="#B7B7B7" stroke="#494949" stroke-width="1.5" stroke-linecap="round" stroke-linejoin="round" stroke-miterlimit="10" d="
		M31.894,12.449c1.522-0.625,4.6-4.226,3.482-6.272l2.476,2.175c0,0,0.373,5.634-2.254,8.257c0,0-1.06-0.182-1.498-2.85
		C34.1,13.76,32.807,12.074,31.894,12.449z"/>
	
		<path fill="#B7B7B7" stroke="#494949" stroke-width="1.5" stroke-linecap="round" stroke-linejoin="round" stroke-miterlimit="10" d="
		M28.85,12.252c-1.84-1.839-4.384,3.898-4.384,3.898c-2.061-3.448-1.763-7.198-1.763-7.198l2.172-2.027c0,0,0.602,2.702,3,4.65
		C27.875,11.576,28.476,11.876,28.85,12.252z"/>
	
		<path fill="#B7B7B7" stroke="#494949" stroke-width="1.5" stroke-linecap="round" stroke-linejoin="round" stroke-miterlimit="10" d="
		M35.376,6.177c1.117,2.046-1.96,5.647-3.482,6.272c-1.587,0.674-2.315,2.778-2.315,2.778l-0.04,0.258l0.078-1.094
		c0.194-1.757-0.894-2.256-0.894-2.256l0.127,0.117c-0.374-0.375-0.975-0.676-0.975-0.676c-2.398-1.949-3-4.65-3-4.65
		S28.721,5.247,35.376,6.177z"/>
	
		<path fill="#B7B7B7" stroke="#494949" stroke-width="1.5" stroke-linecap="round" stroke-linejoin="round" stroke-miterlimit="10" d="
		M35.335,8.502c0.324-0.836,0.405-1.663,0.041-2.326c-6.655-0.93-10.5,0.749-10.5,0.749s0.19,0.861,0.79,1.962
		C25.666,8.888,29.35,7.637,35.335,8.502z"/>
</g>
</svg>
