<?xml version="1.0" encoding="utf-8"?>
<!-- Generator: Adobe Illustrator 16.0.0, SVG Export Plug-In . SVG Version: 6.00 Build 0)  -->
<!DOCTYPE svg PUBLIC "-//W3C//DTD SVG 1.1//EN" "http://www.w3.org/Graphics/SVG/1.1/DTD/svg11.dtd">
<svg version="1.1" id="Layer_1" xmlns="http://www.w3.org/2000/svg" xmlns:xlink="http://www.w3.org/1999/xlink" x="0px" y="0px"
	 width="64px" height="64px" viewBox="0 0 64 64" enable-background="new 0 0 64 64" xml:space="preserve">
<g id="Frock">
	
		<path fill="#DDDDDC" stroke="#494949" stroke-width="1.5" stroke-linecap="round" stroke-linejoin="round" stroke-miterlimit="10" d="
		M27.952,54.372c2.029,1.563,7.843,0.183,7.843,0.183c2.674,1.574,5.762-0.262,6.227-0.981c3.524,1.831,6.578-3.152,6.578-3.152
		c-4.309-1.106-5.967-11.211-5.967-11.211c-0.854-5.181-3.348-8.221-4.029-8.931c-0.049-0.75,0.073-2.313,0.229-3.325
		c0.182-1.185,0.87-2.693,1.188-3.246c0.066-0.119,0.344-0.458,0.371-0.896c0.031-0.439-0.138-0.969-0.148-1.104
		c-0.074-1.124,0.255,0.575,0.255,0.575s0,0,0.633,0.239c1.981,0.313,3.958-0.716,3.88-1.11c-0.078-0.397-1.585-7.05-1.898-8.314
		c-0.318-1.269-2.219-1.744-3.248-1.744c-1.03,0-2.693-0.238-2.693-0.238l-1.429-1.187c0,0-0.076,1.111-0.396,1.742
		c-0.318,0.632-1.426,1.345-2.928,1.66c-1.505,0.32-3.661-0.568-4.213-1.049c-0.557-0.472-1.725-2.751-1.725-2.751
		s-0.791,1.032-1.188,1.428c-0.4,0.395-1.029,0.316-1.827,0.395c-0.791,0.08-1.736,0.397-2.689,0.949
		c-0.953,0.557-1.502,1.107-1.745,1.823c-0.233,0.711-1.502,4.75-1.819,6.968c1.109,0.95,4.432,0.635,4.432,0.635l0.557-1.426
		c0,0,0,0.634-0.078,1.426c-0.078,0.794,1.175,2.324,1.741,3.267c0.374,0.625,1.649,4.563,0.706,5.263l0,0
		c-1.912,1.708-4.473,10.021-4.473,10.021c-1.483,5.459-6.473,9.949-6.473,9.949c2.706,3.148,6.979,2.274,6.979,2.274
		C23.528,55.76,27.952,54.372,27.952,54.372z"/>
	
		<path fill="#B7B7B7" stroke="#494949" stroke-width="1.5" stroke-linecap="round" stroke-linejoin="round" stroke-miterlimit="10" d="
		M24.568,30.256c0.943-0.699-0.332-4.638-0.706-5.263c-0.565-0.942-1.819-2.473-1.741-3.267c0.078-0.792,0.078-1.426,0.078-1.426
		l-0.557,1.426c0,0-3.323,0.315-4.432-0.635c0.316-2.218,1.586-6.257,1.819-6.968c0.243-0.716,0.792-1.267,1.745-1.823
		c0.953-0.552,1.898-0.869,2.689-0.949c0.797-0.078,1.427,0,1.827-0.395c0.396-0.396,1.188-1.428,1.188-1.428
		s1.168,2.279,1.725,2.751c0.552,0.48,2.708,1.369,4.213,1.049c1.502-0.315,2.609-1.028,2.928-1.66
		c0.319-0.631,0.396-1.742,0.396-1.742l1.429,1.187c0,0,1.663,0.238,2.693,0.238c1.029,0,2.93,0.476,3.248,1.744
		c0.313,1.265,1.82,7.917,1.898,8.314c0.077,0.395-1.898,1.423-3.88,1.11c-0.633-0.239-0.633-0.239-0.633-0.239
		s-0.329-1.699-0.255-0.575c0.012,0.136,0.181,0.665,0.148,1.104c-0.027,0.438-0.304,0.777-0.371,0.896
		c-0.317,0.553-1.006,2.062-1.188,3.246c-0.145,0.947-0.256,2.513-0.229,3.325c-2.285,1.11-4.543,1.579-6.37,1.71
		C27.522,32.321,24.568,30.256,24.568,30.256z"/>
	<path fill="none" stroke="#494949" stroke-width="1.5" stroke-linecap="round" stroke-linejoin="round" stroke-miterlimit="10" d="
		M38.602,30.278c0.683,0.71,3.176,3.75,4.03,8.931c0,0,1.658,10.104,5.968,11.211c0,0-3.055,4.982-6.578,3.152
		c-0.465,0.721-3.554,2.557-6.228,0.982c0,0-5.814,1.381-7.843-0.184c0,0-4.424,1.388-7.351-1.872c0,0-4.273,0.874-6.979-2.274
		c0,0,4.99-4.49,6.473-9.949c0,0,2.563-8.313,4.473-10.021c0,0,2.955,2.065,7.666,1.732C34.061,31.857,36.318,31.389,38.602,30.278z
		"/>
	<g>
		
			<circle fill="#DDDDDC" stroke="#494949" stroke-width="1.5" stroke-linecap="round" stroke-linejoin="round" stroke-miterlimit="10" cx="31.543" cy="19.438" r="0.05"/>
		
			<path fill="#DDDDDC" stroke="#494949" stroke-width="1.5" stroke-linecap="round" stroke-linejoin="round" stroke-miterlimit="10" d="
			M31.593,25.025c0,0.027-0.021,0.05-0.05,0.05c-0.025,0-0.049-0.022-0.049-0.05c0-0.024,0.023-0.051,0.049-0.051
			C31.572,24.975,31.593,25.001,31.593,25.025z"/>
	</g>
</g>
</svg>
