<?xml version="1.0" encoding="utf-8"?>
<!-- Generator: Adobe Illustrator 16.0.0, SVG Export Plug-In . SVG Version: 6.00 Build 0)  -->
<!DOCTYPE svg PUBLIC "-//W3C//DTD SVG 1.1//EN" "http://www.w3.org/Graphics/SVG/1.1/DTD/svg11.dtd">
<svg version="1.1" id="Layer_1" xmlns="http://www.w3.org/2000/svg" xmlns:xlink="http://www.w3.org/1999/xlink" x="0px" y="0px"
	 width="64px" height="64px" viewBox="0 0 64 64" enable-background="new 0 0 64 64" xml:space="preserve">
<g id="Hat">
	<g>
		
			<path fill="#DDDDDC" stroke="#494949" stroke-width="1.5" stroke-linecap="round" stroke-linejoin="round" stroke-miterlimit="10" d="
			M20.165,35.375c-5.666,1.775-9.313,3.84-9.034,5.409c0.421,2.36,9.557,2.709,20.405,0.776c10.848-1.932,19.304-5.408,18.885-7.771
			c-0.295-1.649-4.846-2.315-11.267-1.906c-0.879-2.436-2.311-5.974-3.653-7.383c0,0-0.911-1.361-3.41-1.684
			c0,0-0.41-0.073-1.332-0.019l-0.734-0.373c-3.949-1.412-6.4,0.392-6.4,0.392c-2.21,1.206-2.565,2.807-2.565,2.807
			c-0.812,1.968-0.909,6.879-0.892,9.752H20.165z"/>
	</g>
	
		<path fill="#B7B7B7" stroke="#494949" stroke-width="1.5" stroke-linecap="round" stroke-linejoin="round" stroke-miterlimit="10" d="
		M40.241,35.046c0,0-0.569-1.729-1.087-3.163c-0.879-2.436-2.311-5.974-3.653-7.383c0,0-0.911-1.361-3.41-1.684
		c0,0-0.41-0.073-1.332-0.019l-0.734-0.373c-3.949-1.412-6.4,0.392-6.4,0.392c-2.21,1.206-2.565,2.807-2.565,2.807
		c-0.812,1.968-0.909,6.879-0.892,9.752c0.006,1.301,0.102,3.275,0.102,3.275c2.948-0.151,6.335-0.541,9.905-1.178
		C33.9,36.813,37.342,35.966,40.241,35.046z"/>
	
		<path fill="#DDDDDC" stroke="#494949" stroke-width="1.5" stroke-linecap="round" stroke-linejoin="round" stroke-miterlimit="10" d="
		M30.615,22.805c-1.1,0.064-2.722,0.296-4.54,1.006"/>
</g>
</svg>
