<?xml version="1.0" encoding="utf-8"?>
<!-- Generator: Adobe Illustrator 16.0.0, SVG Export Plug-In . SVG Version: 6.00 Build 0)  -->
<!DOCTYPE svg PUBLIC "-//W3C//DTD SVG 1.1//EN" "http://www.w3.org/Graphics/SVG/1.1/DTD/svg11.dtd">
<svg version="1.1" id="Layer_1" xmlns="http://www.w3.org/2000/svg" xmlns:xlink="http://www.w3.org/1999/xlink" x="0px" y="0px"
	 width="64px" height="64px" viewBox="0 0 64 64" enable-background="new 0 0 64 64" xml:space="preserve">
<g id="Hoodie">
	
		<path fill="#DDDDDC" stroke="#494949" stroke-width="1.5" stroke-linecap="round" stroke-linejoin="round" stroke-miterlimit="10" d="
		M11.605,48.982c0,0-1.061,2.141-0.832,2.711l3.765,0.684c0,0,0.666-1.429,1.019-2.52l0.266,0.062L20.81,34.46l0.17,18.323
		c0,0-0.099,1.656,1.082,2.322c0,0,0.035,0.379,0,1.771c0,0,5.592,2.229,18.5-0.317l0.002-2.229
		c0.427-0.237,0.625-0.797,0.635-1.168l0.174-18.701l4.984,15.458l0.375-0.083l0,0c0.348,1.069,1.026,2.509,1.026,2.509l3.691-0.67
		c0.224-0.557-0.862-2.695-0.862-2.695l0.408-0.09l-6.873-24.753l-7.182-3.619l-0.397-0.915c4.449-2.895,2.687-5.427,2.687-5.427
		c-4.289-7.822-7.82-8.306-7.82-8.306c-3.597,1.383-7.472,8.72-7.472,8.72c-1.177,2.903,2.214,4.842,2.214,4.842l-0.018,1.112
		l-8.079,3.593l-6.874,24.753L11.605,48.982z"/>
	<path fill="none" stroke="#494949" stroke-width="1.5" stroke-linecap="round" stroke-linejoin="round" stroke-miterlimit="10" d="
		M30.949,54.902"/>
	<path fill="none" stroke="#494949" stroke-width="1.5" stroke-linecap="round" stroke-linejoin="round" stroke-miterlimit="10" d="
		M30.785,22.443"/>
	
		<path fill="#DDDDDC" stroke="#494949" stroke-width="1.5" stroke-linecap="round" stroke-linejoin="round" stroke-miterlimit="10" d="
		M31.233,26.062"/>
	
		<line fill="none" stroke="#494949" stroke-width="1.5" stroke-linecap="round" stroke-linejoin="round" stroke-miterlimit="10" x1="26.457" y1="42.203" x2="23.394" y2="47.532"/>
	
		<line fill="none" stroke="#494949" stroke-width="1.5" stroke-linecap="round" stroke-linejoin="round" stroke-miterlimit="10" x1="35.443" y1="42.203" x2="38.505" y2="47.532"/>
	<path fill="none" stroke="#494949" stroke-width="1.5" stroke-linecap="round" stroke-linejoin="round" stroke-miterlimit="10" d="
		M15.557,49.857l0.266,0.062L20.81,34.46l0.17,18.323c0,0-0.099,1.656,1.082,2.322c0.168,0.096,0.29,0.135,0.518,0.183
		c0,0,3.793,0.767,8.696,0.634c-0.873-4.936-0.042-29.86-0.042-29.86c-0.622-2.026-0.886-4.068-0.886-4.068
		c-0.405-1.525-4.194-2.563-4.194-2.563l-0.018,1.112l-8.079,3.593l-6.874,24.753l0.421,0.094"/>
	
		<path fill="#B7B7B7" stroke="#494949" stroke-width="1.5" stroke-linecap="round" stroke-linejoin="round" stroke-miterlimit="10" d="
		M15.557,49.857c-0.353,1.091-1.019,2.52-1.019,2.52l-3.765-0.684c-0.229-0.57,0.832-2.711,0.832-2.711l3.977,0.882L15.557,49.857z"
		/>
	
		<path fill="#B7B7B7" stroke="#494949" stroke-width="1.5" stroke-linecap="round" stroke-linejoin="round" stroke-miterlimit="10" d="
		M50.588,48.979c0,0,1.085,2.14,0.862,2.695l-3.691,0.67c0,0-0.679-1.438-1.024-2.509L50.588,48.979z"/>
	<path fill="none" stroke="#494949" stroke-width="1.5" stroke-linecap="round" stroke-linejoin="round" stroke-miterlimit="10" d="
		M39.578,54.714c-2.814,0.818-5.712,1.138-8.302,1.208c-0.873-4.936-0.042-29.86-0.042-29.86c1.489-1.563,1.606-3.619,1.606-3.619
		c0.52-1.711,3.706-2.841,3.706-2.841l0.397,0.915l7.182,3.619l6.873,24.753l-0.408,0.09c0,0,1.085,2.14,0.862,2.695l-3.69,0.67
		c0,0-0.68-1.438-1.027-2.509l0,0l-0.375,0.083L41.373,34.46l-0.174,18.701c-0.01,0.371-0.208,0.931-0.635,1.168
		C40.186,54.538,39.578,54.714,39.578,54.714z"/>
	
		<path fill="#B7B7B7" stroke="#494949" stroke-width="1.5" stroke-linecap="round" stroke-linejoin="round" stroke-miterlimit="10" d="
		M22.062,55.105c0.168,0.097,0.29,0.136,0.518,0.184c0,0,3.793,0.766,8.696,0.634c2.59-0.069,5.488-0.39,8.302-1.208
		c0,0,0.607-0.177,0.986-0.385v2.229c-12.91,2.547-18.501,0.318-18.501,0.318C22.096,55.486,22.062,55.105,22.062,55.105z"/>
	
		<path fill="#B7B7B7" stroke="#494949" stroke-width="1.5" stroke-linecap="round" stroke-linejoin="round" stroke-miterlimit="10" d="
		M26.154,19.431c0,0,3.789,1.037,4.194,2.563c0,0,0.264,2.042,0.886,4.068c1.489-1.563,1.606-3.619,1.606-3.619
		c0.52-1.711,3.706-2.841,3.706-2.841c4.449-2.895,2.687-5.427,2.687-5.427c-4.289-7.822-7.82-8.306-7.82-8.306
		c-3.597,1.383-7.472,8.72-7.472,8.72C22.762,17.493,26.154,19.431,26.154,19.431z"/>
	<g>
		
			<path fill="none" stroke="#494949" stroke-width="1.5" stroke-linecap="round" stroke-linejoin="round" stroke-miterlimit="10" d="
			M27.33,15.073c0,0-0.692,1.521,0.83,3.183c1.523,1.661,3.405,1.667,3.453,4.188"/>
		
			<path fill="none" stroke="#494949" stroke-width="1.5" stroke-linecap="round" stroke-linejoin="round" stroke-miterlimit="10" d="
			M35.632,14.354c0,0,1.315,2.932,0,3.764c-1.313,0.829-4.496,2.271-4.02,6.73"/>
	</g>
	
		<path fill="#B7B7B7" stroke="#494949" stroke-width="1.5" stroke-linecap="round" stroke-linejoin="round" stroke-miterlimit="10" d="
		M39.45,16.113c-1.442-4.218-7.838-3.463-7.838-3.463c-7.759,0.761-7.917,3.114-7.917,3.114c-0.053-0.619,0.245-1.175,0.245-1.175
		s3.875-7.337,7.472-8.72c0,0,3.531,0.483,7.82,8.306C39.232,14.175,39.738,15.073,39.45,16.113z"/>
</g>
</svg>
