<?xml version="1.0" encoding="utf-8"?>
<!-- Generator: Adobe Illustrator 16.0.0, SVG Export Plug-In . SVG Version: 6.00 Build 0)  -->
<!DOCTYPE svg PUBLIC "-//W3C//DTD SVG 1.1//EN" "http://www.w3.org/Graphics/SVG/1.1/DTD/svg11.dtd">
<svg version="1.1" id="Layer_1" xmlns="http://www.w3.org/2000/svg" xmlns:xlink="http://www.w3.org/1999/xlink" x="0px" y="0px"
	 width="64px" height="64px" viewBox="0 0 64 64" enable-background="new 0 0 64 64" xml:space="preserve">
<g id="Jacket">
	
		<path fill="#DDDDDC" stroke="#494949" stroke-width="1.5" stroke-linecap="round" stroke-linejoin="round" stroke-miterlimit="10" d="
		M41.816,38.762c0,0,0.691,0.99,1.285,2.766c0.592,1.775-0.117,2.466,1.321,4.836c1.44,2.369-0.435,2.074,1.737,5.229
		c0,0,1.218,1.296,1.02,3.181c0,0,2.696,0.438,4.342-0.482c0,0-0.854-2.236,0-4.275c0,0,0.855,0-1.381-4.736
		c0,0,0.133-5.788-2.17-9.277c0,0,0.131-2.959-1.119-4.472c0,0-1.043-5.66-0.778-9.541c0,0,0.921-6.052-5.597-7.105
		c0,0,0.898-2.647-4.525-4.103c0,0-5.35-1.802-11.919,0.416c-6.158,2.079-4.343,3.488-4.242,4.378c0,0-5.626,0.196-4.934,7.696
		c0,0-0.907,6.34-0.158,8.016c0,0-2.176,2.771-1.33,4.123c0,0-1.201,2.663-1.002,4.048c0.196,1.382-1.68,2.808-1.68,7.301
		c0,3.454-2.172,2.468-0.594,5.132L9.52,54.555c0,0,1.083,0.494,4.58,0c0,0-0.354-2.766,1.62-3.355c0,0,0.787-1.086,1.576-6.219
		c0.792-5.131,2.073-6.908,2.073-6.908s-0.174,4.669-0.766,10.855l-0.492,2.469c0,0,7.104,4.935,24.967,0.789v-2.469
		C43.079,49.717,42.465,43.848,41.816,38.762z"/>
	
		<path fill="#B7B7B7" stroke="#494949" stroke-width="1.5" stroke-linecap="round" stroke-linejoin="round" stroke-miterlimit="10" d="
		M46.589,52.191c0.328,0.557,0.708,1.465,0.591,2.58c0,0,2.697,0.438,4.344-0.481c0,0-0.473-1.235-0.362-2.712
		c-2.731-0.867-4.569,0.615-4.569,0.615L46.589,52.191z"/>
	
		<path fill="#B7B7B7" stroke="#494949" stroke-width="1.5" stroke-linecap="round" stroke-linejoin="round" stroke-miterlimit="10" d="
		M14.697,51.889c-0.807,1.023-0.597,2.666-0.597,2.666c-3.497,0.494-4.58,0-4.58,0l0.572-2.666
		C12.395,50.499,14.698,51.889,14.697,51.889z"/>
	<g>
		<g>
			
				<path fill="none" stroke="#494949" stroke-width="1.5" stroke-linecap="round" stroke-linejoin="round" stroke-miterlimit="10" d="
				M18.112,24.29c0,0,2.631,9.869,6.512,9.933"/>
			
				<path fill="none" stroke="#494949" stroke-width="1.5" stroke-linecap="round" stroke-linejoin="round" stroke-miterlimit="10" d="
				M24.624,38.37c0,0-2.104,6.295-4.34,7.499"/>
			
				<path fill="none" stroke="#494949" stroke-width="1.5" stroke-linecap="round" stroke-linejoin="round" stroke-miterlimit="10" d="
				M42.465,24.69c0,0-2.635,9.867-6.514,9.93"/>
			
				<path fill="none" stroke="#494949" stroke-width="1.5" stroke-linecap="round" stroke-linejoin="round" stroke-miterlimit="10" d="
				M35.951,38.37c0,0,2.104,6.295,4.341,7.499"/>
			
				<path fill="none" stroke="#494949" stroke-width="1.5" stroke-linecap="round" stroke-linejoin="round" stroke-miterlimit="10" d="
				M26.876,19.839c0,0,0.57,0.916,0,2.988c-0.575,2.072,0.362,3.403,0.512,4.343c0.146,0.938-0.051,2.121,0,2.368"/>
			
				<path fill="none" stroke="#494949" stroke-width="1.5" stroke-linecap="round" stroke-linejoin="round" stroke-miterlimit="10" d="
				M33.832,19.593c0,0-1.189,3.771-0.275,5.601c0.911,1.832,0.303,2.75,0.275,4.062"/>
			
				<path fill="none" stroke="#494949" stroke-width="1.5" stroke-linecap="round" stroke-linejoin="round" stroke-miterlimit="10" d="
				M19.37,38.07c0,0,0.863-5.385,1.998-6.218"/>
			
				<path fill="none" stroke="#494949" stroke-width="1.5" stroke-linecap="round" stroke-linejoin="round" stroke-miterlimit="10" d="
				M38.891,32.686c0,0,2.635,1.638,2.928,6.076"/>
		</g>
	</g>
	
		<path fill="#B7B7B7" stroke="#494949" stroke-width="1.5" stroke-linecap="round" stroke-linejoin="round" stroke-miterlimit="10" d="
		M19.79,15.573c-0.101-0.89-1.916-2.299,4.242-4.378c6.57-2.218,11.919-0.416,11.919-0.416c5.425,1.455,4.525,4.103,4.525,4.103
		c-2.072,5.37-10.185,5.37-10.185,5.37C22.632,20.434,19.79,15.573,19.79,15.573z"/>
	
		<path fill="#B7B7B7" stroke="#494949" stroke-width="1.5" stroke-linecap="round" stroke-linejoin="round" stroke-miterlimit="10" d="
		M34.057,11.919c0,0-3.115-0.59-7.326,0.266c0,0-7.706,0.917-3.033,4.863c0,0,3.622,3.201,6.595,3.204
		c2.95,0.003,6.857-4.279,6.857-4.279C39.563,12.834,34.057,11.919,34.057,11.919z"/>
	<path fill="none" stroke="#494949" stroke-width="1.5" stroke-linecap="round" stroke-linejoin="round" stroke-miterlimit="10" d="
		M26.731,12.185c0,0-3.753,0.593,3.09,7.895c0,0,0.132,0.396,1.121,0c0,0,6.82-7.989,2.564-8.224
		C33.506,11.855,30.941,11.329,26.731,12.185z"/>
	
		<path fill="#B7B7B7" stroke="#494949" stroke-width="1.5" stroke-linecap="round" stroke-linejoin="round" stroke-miterlimit="10" d="
		M18.112,51.396c0,0,7.104,4.935,24.967,0.789v-2.469c-14.376,4.77-24.543-0.449-24.543-0.449L18.112,51.396z"/>
	<path fill="none" stroke="#494949" stroke-width="1.5" stroke-linecap="round" stroke-linejoin="round" stroke-miterlimit="10" d="
		M30.465,20.25c-7.662,0.181-10.675-4.677-10.675-4.677s-5.626,0.196-4.934,7.696c0,0-0.907,6.34-0.158,8.016
		c0,0-2.176,2.771-1.33,4.123c0,0-1.201,2.662-1.002,4.048c0.196,1.382-1.68,2.808-1.68,7.301c0,3.454-2.172,2.468-0.594,5.132
		L9.52,54.555c0,0,1.083,0.494,4.58,0c0,0-0.354-2.766,1.62-3.355c0,0,0.787-1.086,1.576-6.219c0.792-5.131,2.073-6.908,2.073-6.908
		s-0.174,4.669-0.766,10.855l-0.492,2.469c0,0,3.704,2.571,12.49,2.441c0,0-0.649-12.904,0-15.009
		c0.646-2.106,0.271-4.606-0.172-7.698C29.987,28.039,30.465,20.25,30.465,20.25z"/>
	<path fill="none" stroke="#494949" stroke-width="1.5" stroke-linecap="round" stroke-linejoin="round" stroke-miterlimit="10" d="
		M40.479,14.882c6.517,1.054,5.596,7.105,5.596,7.105c-0.266,3.881,0.777,9.541,0.777,9.541C48.102,33.041,47.973,36,47.973,36
		c2.303,3.489,2.168,9.277,2.168,9.277c2.237,4.736,1.383,4.736,1.383,4.736c-0.855,2.039,0,4.275,0,4.275
		c-1.646,0.92-4.344,0.482-4.344,0.482c0.199-1.886-1.019-3.181-1.019-3.181c-2.173-3.155-0.298-2.86-1.737-5.229
		c-1.439-2.37-0.73-3.061-1.322-4.836c-0.593-1.774-1.283-2.766-1.283-2.766c0.646,5.086,1.262,10.955,1.262,10.955v2.469
		c-4.967,1.152-9.1,1.604-12.478,1.652c0,0-0.649-12.904,0-15.009c0.646-2.106,0.271-4.606-0.172-7.698
		c-0.443-3.092,0.035-10.881,0.035-10.881C29.841,20.25,38.344,20.413,40.479,14.882z"/>
</g>
</svg>
