<?xml version="1.0" encoding="utf-8"?>
<!-- Generator: Adobe Illustrator 16.0.0, SVG Export Plug-In . SVG Version: 6.00 Build 0)  -->
<!DOCTYPE svg PUBLIC "-//W3C//DTD SVG 1.1//EN" "http://www.w3.org/Graphics/SVG/1.1/DTD/svg11.dtd">
<svg version="1.1" id="Layer_1" xmlns="http://www.w3.org/2000/svg" xmlns:xlink="http://www.w3.org/1999/xlink" x="0px" y="0px"
	 width="64px" height="64px" viewBox="0 0 64 64" enable-background="new 0 0 64 64" xml:space="preserve">
<g id="Jeans">
	
		<path fill="#DDDDDC" stroke="#494949" stroke-width="1.5" stroke-linecap="round" stroke-linejoin="round" stroke-miterlimit="10" d="
		M30.955,24.301c0.057,0.081,0.229,0.344,0.283,0.434c4.161,6.971,5.911,30.639,5.911,30.639c3.863,0.137,9.422-1.044,9.422-1.044
		l-3.584-26.014l-1.318-8.348l-1.504-9.476l-0.602-3.357c0,0-2.346,1.105-8.488,1.242h-0.328c-6.143-0.137-8.623-1.229-8.623-1.229
		l-0.594,3.272l-2.966,18.293l-3.582,25.883c0,0,5.825,0.914,9.692,0.776c0,0,1.749-23.668,5.909-30.639
		c0.054-0.09,0.228-0.353,0.282-0.434h0.091V24.301z"/>
	
		<line fill="none" stroke="#494949" stroke-width="1.5" stroke-linecap="round" stroke-linejoin="round" stroke-miterlimit="10" x1="25.383" y1="11.66" x2="20.04" y2="19.97"/>
	
		<path fill="#B7B7B7" stroke="#494949" stroke-width="1.5" stroke-linecap="round" stroke-linejoin="round" stroke-miterlimit="10" d="
		M41.668,19.968l-0.877-5.529l-0.637-4.016c-1.133,0.523-2.627,0.91-4.004,1.11L41.668,19.968"/>
	
		<path fill="#B7B7B7" stroke="#494949" stroke-width="1.5" stroke-linecap="round" stroke-linejoin="round" stroke-miterlimit="10" d="
		M20.042,19.968l0.872-5.529l0.639-4.016c1.136,0.523,2.623,0.91,4,1.11L20.04,19.97"/>
	
		<line fill="none" stroke="#494949" stroke-width="1.5" stroke-linecap="round" stroke-linejoin="round" stroke-miterlimit="10" x1="29.791" y1="21.577" x2="30.865" y2="24.253"/>
	
		<path fill="#DDDDDC" stroke="#494949" stroke-width="1.5" stroke-linecap="round" stroke-linejoin="round" stroke-miterlimit="10" d="
		M33.854,11.772c-1.5,0.102-2.606,0.082-2.606,0.082H30.92c0,0,0.938,8.535-1.129,9.723l0.67,0.257
		C35.729,22.387,33.854,11.772,33.854,11.772z"/>
	
		<path fill="#DDDDDC" stroke="#494949" stroke-width="1.5" stroke-linecap="round" stroke-linejoin="round" stroke-miterlimit="10" d="
		M21.529,10.421l0.594-3.272c0,0,2.48,1.091,8.623,1.229h0.328c6.144-0.137,8.488-1.242,8.488-1.242l0.592,3.289
		c-1.133,0.523-2.627,0.91-4.004,1.11c-2.516,0.363-4.904,0.32-4.904,0.32H30.92C30.92,11.854,24.74,11.9,21.529,10.421z"/>
	
		<circle fill="none" stroke="#494949" stroke-width="1.5" stroke-linecap="round" stroke-linejoin="round" stroke-miterlimit="10" cx="32.689" cy="10.022" r="0.25"/>
	
		<line fill="none" stroke="#494949" stroke-width="1.5" stroke-linecap="round" stroke-linejoin="round" stroke-miterlimit="10" x1="30.912" y1="8.873" x2="30.912" y2="11.425"/>
</g>
</svg>
