<?xml version="1.0" encoding="utf-8"?>
<!-- Generator: Adobe Illustrator 16.0.0, SVG Export Plug-In . SVG Version: 6.00 Build 0)  -->
<!DOCTYPE svg PUBLIC "-//W3C//DTD SVG 1.1//EN" "http://www.w3.org/Graphics/SVG/1.1/DTD/svg11.dtd">
<svg version="1.1" id="Layer_1" xmlns="http://www.w3.org/2000/svg" xmlns:xlink="http://www.w3.org/1999/xlink" x="0px" y="0px"
	 width="64px" height="64px" viewBox="0 0 64 64" enable-background="new 0 0 64 64" xml:space="preserve">
<g id="Men_x2019_s_Shirt">
	
		<path fill="#DDDDDC" stroke="#494949" stroke-width="1.5" stroke-linecap="round" stroke-linejoin="round" stroke-miterlimit="10" d="
		M18.301,28.492l-2.019,4.367l-7.019-2.816l5.748-13.898l8.517-2.976l1.144-2.779c0,0,5.416-2.503,12.379,0l1.139,2.779l7.998,2.976
		l5.748,13.898l-7.02,2.816l-2.018-4.367l0,0l0.867,21.717C41.1,53.622,30.6,53.768,30.6,53.768
		c-11.295,0.348-13.088-3.559-13.088-3.559L18.301,28.492L18.301,28.492z"/>
	
		<path fill="#B7B7B7" stroke="#494949" stroke-width="1.5" stroke-linecap="round" stroke-linejoin="round" stroke-miterlimit="10" d="
		M24.672,10.39c0,0,5.416-2.503,12.379,0l-3.304,3.918l-1.481,0.756l0.152,1.574l-1.511,3.975l-1.986-3.975l0.013-1.574
		l-0.958-0.756L24.672,10.39z"/>
	
		<path fill="#DDDDDC" stroke="#494949" stroke-width="1.5" stroke-linecap="round" stroke-linejoin="round" stroke-miterlimit="10" d="
		M18.301,28.492l-2.019,4.367l-7.019-2.816l5.748-13.898l8.517-2.976l1.144-2.779l3.305,3.918l0.958,0.756l-0.013,1.574l1.986,3.975
		c0,0-0.895,27.241,0.148,33.143c-0.439,0.018-0.457,0.014-0.457,0.014c-11.295,0.347-13.088-3.56-13.088-3.56L18.301,28.492"/>
	
		<path fill="#DDDDDC" stroke="#494949" stroke-width="1.5" stroke-linecap="round" stroke-linejoin="round" stroke-miterlimit="10" d="
		M42.898,28.492l2.019,4.367l7.021-2.816l-5.748-13.898l-8-2.976l-1.138-2.779l-3.304,3.918l-1.481,0.756l0.152,1.574l-1.511,3.975
		c0,0-0.895,27.241,0.148,33.143c2.045-0.074,10.375-0.559,12.711-3.546L42.898,28.492L42.898,28.492z"/>
	<path fill="none" stroke="#494949" stroke-width="1.5" stroke-linecap="round" stroke-linejoin="round" stroke-miterlimit="10" d="
		M32.454,44.335c0,0.092-0.075,0.171-0.172,0.171c-0.094,0-0.17-0.079-0.17-0.171c0-0.099,0.076-0.174,0.17-0.174
		C32.379,44.161,32.454,44.236,32.454,44.335z"/>
	<path fill="none" stroke="#494949" stroke-width="1.5" stroke-linecap="round" stroke-linejoin="round" stroke-miterlimit="10" d="
		M32.521,38.1c0,0.094-0.076,0.172-0.169,0.172c-0.095,0-0.174-0.078-0.174-0.172c0-0.099,0.079-0.174,0.174-0.174
		C32.446,37.926,32.521,38.001,32.521,38.1z"/>
	
		<circle fill="none" stroke="#494949" stroke-width="1.5" stroke-linecap="round" stroke-linejoin="round" stroke-miterlimit="10" cx="32.422" cy="32.721" r="0.173"/>
	<path fill="none" stroke="#494949" stroke-width="1.5" stroke-linecap="round" stroke-linejoin="round" stroke-miterlimit="10" d="
		M32.834,26.486c0,0.094-0.075,0.171-0.173,0.171c-0.095,0-0.171-0.077-0.171-0.171c0-0.098,0.076-0.173,0.171-0.173
		C32.759,26.313,32.834,26.389,32.834,26.486z"/>
	
		<path fill="#B7B7B7" stroke="#494949" stroke-width="1.5" stroke-linecap="round" stroke-linejoin="round" stroke-miterlimit="10" d="
		M37.052,10.39c-6.964-2.503-12.379,0-12.379,0l1.331,1.577c1.83-0.524,5.393-1.16,9.688,0.033L37.052,10.39z"/>
	
		<circle fill="none" stroke="#494949" stroke-width="1.5" stroke-linecap="round" stroke-linejoin="round" stroke-miterlimit="10" cx="33.006" cy="20.662" r="0.172"/>
	
		<polygon fill="#B7B7B7" stroke="#494949" stroke-width="1.5" stroke-linecap="round" stroke-linejoin="round" stroke-miterlimit="10" points="
		37.052,10.39 38.195,13.169 35.811,19.768 33.748,14.308 	"/>
	
		<polygon fill="#B7B7B7" stroke="#494949" stroke-width="1.5" stroke-linecap="round" stroke-linejoin="round" stroke-miterlimit="10" points="
		24.672,10.39 23.529,13.169 25.913,19.768 27.977,14.308 	"/>
</g>
</svg>
