<?xml version="1.0" encoding="utf-8"?>
<!-- Generator: Adobe Illustrator 16.0.0, SVG Export Plug-In . SVG Version: 6.00 Build 0)  -->
<!DOCTYPE svg PUBLIC "-//W3C//DTD SVG 1.1//EN" "http://www.w3.org/Graphics/SVG/1.1/DTD/svg11.dtd">
<svg version="1.1" id="Layer_1" xmlns="http://www.w3.org/2000/svg" xmlns:xlink="http://www.w3.org/1999/xlink" x="0px" y="0px"
	 width="64px" height="64px" viewBox="0 0 64 64" enable-background="new 0 0 64 64" xml:space="preserve">
<g id="Men_x2019_s_Blazer">
	
		<path fill="#DDDDDC" stroke="#494949" stroke-width="1.5" stroke-linecap="round" stroke-linejoin="round" stroke-miterlimit="10" d="
		M25.907,13.737"/>
	<g>
		
			<path fill="none" stroke="#494949" stroke-width="1.5" stroke-linecap="round" stroke-linejoin="round" stroke-miterlimit="10" d="
			M25.917,13.781"/>
		
			<path fill="#DDDDDC" stroke="#494949" stroke-width="1.5" stroke-linecap="round" stroke-linejoin="round" stroke-miterlimit="10" d="
			M55.18,42.234l1.445,3.844l-6.628,2.848l-1.498-3.953l-6.028-14.465c0,0-0.027,7.742,0.397,19.896l-9.24,0.822l-1.819,0.137
			c-1.104,0-1.044-1.043-1.044-1.043c-0.417,0.922-1.574,0.904-1.574,0.904l-9.316-0.332c-0.36-12.119-0.17-20.302-0.17-20.302
			l-5.907,14.464l-1.557,3.83l-6.646-2.832l1.614-3.818l10.58-25.753l8.088-2.701l1.079-1.077c0,0,2.713-1.536,8.905,0l1.08,1.077
			l8.09,2.701L55.18,42.234z"/>
		
			<path fill="none" stroke="#494949" stroke-width="1.5" stroke-linecap="round" stroke-linejoin="round" stroke-miterlimit="10" d="
			M30.765,50.32l-0.033-5.104c0,0,0.037-4.299,0.208-9.791l4.921-22.722l1.082,1.077l8.089,2.701L55.18,42.234l1.445,3.844
			l-6.628,2.848l-1.498-3.953l-6.028-14.465c0,0-0.027,7.742,0.397,19.896l-9.24,0.822l-1.819,0.137
			C30.705,51.361,30.765,50.32,30.765,50.32z"/>
		
			<path fill="none" stroke="#494949" stroke-width="1.5" stroke-linecap="round" stroke-linejoin="round" stroke-miterlimit="10" d="
			M30.976,35.299l-4.019-22.594l-1.079,1.077l-8.088,2.701L7.21,42.234l-1.614,3.82l6.646,2.831l1.557-3.829l5.907-14.465
			c0,0-0.189,8.182,0.17,20.301l9.316,0.334c0,0,1.157,0.017,1.574-0.904L30.976,35.299z"/>
		
			<path fill="#B7B7B7" stroke="#494949" stroke-width="1.5" stroke-linecap="round" stroke-linejoin="round" stroke-miterlimit="10" d="
			M35.861,12.705c-6.191-1.536-8.904,0-8.904,0l4.019,22.594l0,0L35.861,12.705z"/>
	</g>
	
		<line fill="none" stroke="#494949" stroke-width="1.5" stroke-linecap="round" stroke-linejoin="round" stroke-miterlimit="10" x1="22.655" y1="41.991" x2="28.336" y2="41.991"/>
	
		<line fill="none" stroke="#494949" stroke-width="1.5" stroke-linecap="round" stroke-linejoin="round" stroke-miterlimit="10" x1="33.74" y1="41.991" x2="39.421" y2="41.991"/>
</g>
</svg>
