<?xml version="1.0" encoding="utf-8"?>
<!-- Generator: Adobe Illustrator 16.0.0, SVG Export Plug-In . SVG Version: 6.00 Build 0)  -->
<!DOCTYPE svg PUBLIC "-//W3C//DTD SVG 1.1//EN" "http://www.w3.org/Graphics/SVG/1.1/DTD/svg11.dtd">
<svg version="1.1" id="Layer_1" xmlns="http://www.w3.org/2000/svg" xmlns:xlink="http://www.w3.org/1999/xlink" x="0px" y="0px"
	 width="64px" height="64px" viewBox="0 0 64 64" enable-background="new 0 0 64 64" xml:space="preserve">
<g id="Men_x2019_s_Vest">
	
		<path fill="#DDDDDC" stroke="#494949" stroke-width="1.5" stroke-linecap="round" stroke-linejoin="round" stroke-miterlimit="10" d="
		M38.822,8.165"/>
	
		<path fill="#DDDDDC" stroke="#494949" stroke-width="1.5" stroke-linecap="round" stroke-linejoin="round" stroke-miterlimit="10" d="
		M23.37,8.165"/>
	<g>
		
			<path fill="#DDDDDC" stroke="#494949" stroke-width="1.5" stroke-linecap="round" stroke-linejoin="round" stroke-miterlimit="10" d="
			M38.822,7.553L38.822,7.553h2.844v10.658c0,5.94,0.968,7.529,4.032,8.957V55.04H31.125h-0.029H16.523V27.167
			c3.063-1.428,4.031-3.016,4.031-8.957V7.553l2.816,0.008V7.553c0,4.268,3.459,7.657,7.727,7.657
			C35.361,15.21,38.822,11.821,38.822,7.553z"/>
		
			<path fill="#B7B7B7" stroke="#494949" stroke-width="1.5" stroke-linecap="round" stroke-linejoin="round" stroke-miterlimit="10" d="
			M23.37,8.165V7.561v5.742c0,4.268,3.459,7.727,7.727,7.727c4.264,0,7.725-3.459,7.725-7.727v-5.75v0.612V7.553
			c0,4.268-3.461,7.657-7.725,7.657c-4.267,0-7.727-3.39-7.727-7.657V8.165z"/>
	</g>
</g>
</svg>
