<?xml version="1.0" encoding="utf-8"?>
<!-- Generator: Adobe Illustrator 16.0.0, SVG Export Plug-In . SVG Version: 6.00 Build 0)  -->
<!DOCTYPE svg PUBLIC "-//W3C//DTD SVG 1.1//EN" "http://www.w3.org/Graphics/SVG/1.1/DTD/svg11.dtd">
<svg version="1.1" id="Layer_1" xmlns="http://www.w3.org/2000/svg" xmlns:xlink="http://www.w3.org/1999/xlink" x="0px" y="0px"
	 width="64px" height="64px" viewBox="0 0 64 64" enable-background="new 0 0 64 64" xml:space="preserve">
<g id="Men_x2019_s_Sleeveless_Jacket">
	
		<path fill="#DDDDDC" stroke="#494949" stroke-width="1.5" stroke-linecap="round" stroke-linejoin="round" stroke-miterlimit="10" d="
		M36.632,11.032l0.937,2.114l0.295,0.667l8.521,2.976h-0.04h0.04c0,0,1.331,3.373-0.61,9.609c0,0-1.334,3.503-2.496,6.866
		l0.557,17.184c-3.313,2.9-12.904,3.414-12.904,3.414c-10.307,0.09-13.422-2.955-13.422-2.955l0.77-17.643
		c-1.161-3.363-2.495-6.866-2.495-6.866c-1.939-6.236-0.614-9.609-0.614-9.609l8.52-2.976l0.295-0.667l0.938-2.114
		C24.919,11.032,30.705,8.137,36.632,11.032z"/>
	
		<line fill="none" stroke="#494949" stroke-width="1.5" stroke-linecap="round" stroke-linejoin="round" stroke-miterlimit="10" x1="21.679" y1="29.332" x2="27.036" y2="29.332"/>
	
		<line fill="none" stroke="#494949" stroke-width="1.5" stroke-linecap="round" stroke-linejoin="round" stroke-miterlimit="10" x1="33.873" y1="29.332" x2="39.229" y2="29.332"/>
	<path fill="none" stroke="#494949" stroke-width="1.5" stroke-linecap="round" stroke-linejoin="round" stroke-miterlimit="10" d="
		M18.317,33.264l0.227-3.998c-0.573-9.207-3.292-12.348-3.292-12.348"/>
	
		<path fill="#B7B7B7" stroke="#494949" stroke-width="1.5" stroke-linecap="round" stroke-linejoin="round" stroke-miterlimit="10" d="
		M24.919,11.032c0,0,1.644,3.653,5.855,3.722c4.214-0.068,5.857-3.722,5.857-3.722l0.938,2.114c0,0-1.098,4.315-6.857,5.266l0,0
		c-5.763-0.95-6.73-5.266-6.73-5.266L24.919,11.032z"/>
	
		<path fill="#DDDDDC" stroke="#494949" stroke-width="1.5" stroke-linecap="round" stroke-linejoin="round" stroke-miterlimit="10" d="
		M24.87,11.032"/>
	
		<path fill="#B7B7B7" stroke="#494949" stroke-width="1.5" stroke-linecap="round" stroke-linejoin="round" stroke-miterlimit="10" d="
		M15.166,16.789c0,0,2.805,3.271,3.378,12.478l-0.227,3.997h-0.042c-1.161-3.362-2.495-6.865-2.495-6.865
		C13.841,20.162,15.166,16.789,15.166,16.789z"/>
	
		<path fill="#B7B7B7" stroke="#494949" stroke-width="1.5" stroke-linecap="round" stroke-linejoin="round" stroke-miterlimit="10" d="
		M46.385,16.789c0,0-2.806,3.271-3.379,12.478l0.229,3.997h0.041c1.162-3.362,2.494-6.865,2.494-6.865
		C47.712,20.162,46.385,16.789,46.385,16.789z"/>
	<path fill="none" stroke="#494949" stroke-width="1.5" stroke-linecap="round" stroke-linejoin="round" stroke-miterlimit="10" d="
		M30.928,53.861c-10.307,0.09-13.422-2.955-13.422-2.955l0.77-17.643c-1.161-3.363-2.495-6.866-2.495-6.866
		c-1.939-6.236-0.614-9.609-0.614-9.609l8.52-2.976l0.295-0.667l0.938-2.114c0,0,1.644,3.653,5.855,3.722
		C30.774,14.753,29.883,47.959,30.928,53.861z"/>
	<path fill="none" stroke="#494949" stroke-width="1.5" stroke-linecap="round" stroke-linejoin="round" stroke-miterlimit="10" d="
		M46.343,16.789h0.04l-8.52-2.976l-0.295-0.667l-0.938-2.114c0,0-1.645,3.653-5.857,3.722c0,0-0.892,33.206,0.153,39.107
		c0,0,9.593-0.514,12.904-3.414l-0.558-17.184c1.164-3.363,2.498-6.866,2.498-6.866c1.94-6.236,0.609-9.609,0.609-9.609H46.343z"/>
	
		<path fill="#B7B7B7" stroke="#494949" stroke-width="1.5" stroke-linecap="round" stroke-linejoin="round" stroke-miterlimit="10" d="
		M24.919,11.032c0,0,1.644,3.653,5.855,3.722c4.214-0.068,5.857-3.722,5.857-3.722C30.705,8.137,24.919,11.032,24.919,11.032z"/>
</g>
</svg>
