<?xml version="1.0" encoding="utf-8"?>
<!-- Generator: Adobe Illustrator 16.0.0, SVG Export Plug-In . SVG Version: 6.00 Build 0)  -->
<!DOCTYPE svg PUBLIC "-//W3C//DTD SVG 1.1//EN" "http://www.w3.org/Graphics/SVG/1.1/DTD/svg11.dtd">
<svg version="1.1" id="Layer_1" xmlns="http://www.w3.org/2000/svg" xmlns:xlink="http://www.w3.org/1999/xlink" x="0px" y="0px"
	 width="64px" height="64px" viewBox="0 0 64 64" enable-background="new 0 0 64 64" xml:space="preserve">
<g id="Scarf">
	<path fill="none" stroke="#494949" stroke-width="1.5" stroke-linecap="round" stroke-linejoin="round" stroke-miterlimit="10" d="
		M22.939,51.016c0,0-0.159,4.818,0.399,5.654"/>
	<path fill="none" stroke="#494949" stroke-width="1.5" stroke-linecap="round" stroke-linejoin="round" stroke-miterlimit="10" d="
		M26.636,51.016c0,0,0.477,4.818,1.036,5.654"/>
	<path fill="none" stroke="#494949" stroke-width="1.5" stroke-linecap="round" stroke-linejoin="round" stroke-miterlimit="10" d="
		M31.396,50.835c0,0,0.475,4.815,1.033,5.653"/>
	<path fill="none" stroke="#494949" stroke-width="1.5" stroke-linecap="round" stroke-linejoin="round" stroke-miterlimit="10" d="
		M34.873,48.009c0,0,0.479,4.818,1.034,5.652"/>
	<g>
		
			<path fill="#DDDDDC" stroke="#494949" stroke-width="1.5" stroke-linecap="round" stroke-linejoin="round" stroke-miterlimit="10" d="
			M29.814,25.332c0,0,6.036-3.726,5.689-7.882c0,0-0.112-4.917-5.61-4.645c0,0-3.922,0.126-4.02,5.267
			c0,0-1.054,7.967,11.841,10.193l-2.323,5.81c0,0-10.972-1.794-14.781-11.293c0,0-4.685-13.996,8.533-14.678
			c0,0,12.039-1.609,12.25,9.621c0,0,0.301,7.296-5.813,10.091"/>
		
			<path fill="#DDDDDC" stroke="#494949" stroke-width="1.5" stroke-linecap="round" stroke-linejoin="round" stroke-miterlimit="10" d="
			M26.894,30.484c1.862,1.29,3.761,2.144,5.286,2.694h0.002c-0.08,5.096,2.691,14.654,2.691,14.654l-3.501,0.157v3.024h-8.439
			c-1.114-13.851,3.961-20.534,3.961-20.534"/>
	</g>
</g>
</svg>
