<?xml version="1.0" encoding="utf-8"?>
<!-- Generator: Adobe Illustrator 16.0.0, SVG Export Plug-In . SVG Version: 6.00 Build 0)  -->
<!DOCTYPE svg PUBLIC "-//W3C//DTD SVG 1.1//EN" "http://www.w3.org/Graphics/SVG/1.1/DTD/svg11.dtd">
<svg version="1.1" id="Layer_1" xmlns="http://www.w3.org/2000/svg" xmlns:xlink="http://www.w3.org/1999/xlink" x="0px" y="0px"
	 width="64px" height="64px" viewBox="0 0 64 64" enable-background="new 0 0 64 64" xml:space="preserve">
<g id="Skirt">
	
		<path fill="#DDDDDC" stroke="#494949" stroke-width="1.5" stroke-linecap="round" stroke-linejoin="round" stroke-miterlimit="10" d="
		M21.693,13.307c0,0,7.898,5.522,19.252,0c0,0,4.447,4.064,5.83,12.428c0,0,2.301,14.039,8.285,15.574c0,0-4.68,5.293-9.819,5.06
		c0,0-0.445,0.819,0.04,1.461c0,0-3.877,0.69-5.41,2.301c0,0-3.375,1.38-4.756,0c0,0-2.84-0.307-4.217,0.613
		c0,0-2.764,0.845-6.599,0c0,0-4.386-4.183-7.988-3.261c0,0,0.546-0.115,0.854-1.267c0,0-6.914-0.808-10.673-5.182
		c0,0,6.928-6.235,8.989-13.812C15.481,27.223,19.039,15.677,21.693,13.307L21.693,13.307z"/>
	
		<path fill="#DDDDDC" stroke="#494949" stroke-width="1.5" stroke-linecap="round" stroke-linejoin="round" stroke-miterlimit="10" d="
		M26.281,15.203c2.482,0.615,5.863,0.908,9.873-0.118v-0.003c0,0,1.531,24.177,9.127,31.134l-0.04,0.151c0,0-0.445,0.82,0.04,1.461
		c0,0-3.877,0.689-5.41,2.301c0,0-3.375,1.38-4.756,0c0,0-2.84-0.307-4.217,0.613c0,0-2.764,0.845-6.599,0
		c0,0-4.386-4.182-7.988-3.262c0,0,0.546-0.114,0.854-1.266c7.834-12.488,9.124-31.013,9.124-31.013L26.281,15.203L26.281,15.203z"
		/>
	
		<path fill="#B7B7B7" stroke="#494949" stroke-width="1.5" stroke-linecap="round" stroke-linejoin="round" stroke-miterlimit="10" d="
		M26.289,15.203c0,0-1.29,18.523-9.124,31.013c0,0-6.914-0.808-10.673-5.182c0,0,6.928-6.235,8.989-13.812
		c0,0,3.558-11.546,6.212-13.916l0,0c0,0,1.675,1.172,4.588,1.896L26.289,15.203L26.289,15.203z"/>
	
		<path fill="#B7B7B7" stroke="#494949" stroke-width="1.5" stroke-linecap="round" stroke-linejoin="round" stroke-miterlimit="10" d="
		M36.154,15.082c0,0,1.531,24.177,9.127,31.134l-0.04,0.151c5.141,0.232,9.819-5.059,9.819-5.059
		c-5.984-1.535-8.285-15.575-8.285-15.575c-1.383-8.363-5.83-12.428-5.83-12.428c-1.676,0.819-3.277,1.392-4.791,1.778"/>
</g>
</svg>
