<?xml version="1.0" encoding="utf-8"?>
<!-- Generator: Adobe Illustrator 16.0.0, SVG Export Plug-In . SVG Version: 6.00 Build 0)  -->
<!DOCTYPE svg PUBLIC "-//W3C//DTD SVG 1.1//EN" "http://www.w3.org/Graphics/SVG/1.1/DTD/svg11.dtd">
<svg version="1.1" id="Layer_1" xmlns="http://www.w3.org/2000/svg" xmlns:xlink="http://www.w3.org/1999/xlink" x="0px" y="0px"
	 width="64px" height="64px" viewBox="0 0 64 64" enable-background="new 0 0 64 64" xml:space="preserve">
<g id="Sweater">
	<g>
		
			<path fill="#DDDDDC" stroke="#494949" stroke-width="1.5" stroke-linecap="round" stroke-linejoin="round" stroke-miterlimit="10" d="
			M42.29,51.139c0-17.824,0.397-25.893,0.397-25.893l7.402,27.996h6.977L46.67,13.794c-2.238-2.939-3.734-3.487-3.734-3.487
			l-7.269-2.989c-2.083,2.743-5.512,4.679-5.512,4.679H29.89c0,0-3.454-1.936-5.509-4.679l-7.27,2.989c0,0-1.495,0.547-3.735,3.487
			L4.485,53.241h6.808l6.068-27.996c0,0,0.397,8.069,0.397,25.892h1.957v2.44h20.551v-2.44h2.024V51.139z"/>
	</g>
	
		<path fill="#B7B7B7" stroke="#494949" stroke-width="1.5" stroke-linecap="round" stroke-linejoin="round" stroke-miterlimit="10" d="
		M21.905,8.336l2.476-1.018c2.055,2.743,5.509,4.679,5.509,4.679h0.266c0,0,3.429-1.936,5.512-4.679l2.486,1.023
		c-2.745,3.845-7.943,6.824-7.943,6.824h-0.376C29.834,15.166,24.554,12.272,21.905,8.336z"/>
	
		<polygon fill="#B7B7B7" stroke="#494949" stroke-width="1.5" stroke-linecap="round" stroke-linejoin="round" stroke-miterlimit="10" points="
		10.377,53.241 5.929,53.241 5.434,55.477 9.915,55.477 	"/>
	
		<polygon fill="#B7B7B7" stroke="#494949" stroke-width="1.5" stroke-linecap="round" stroke-linejoin="round" stroke-miterlimit="10" points="
		51.291,53.241 55.74,53.241 56.234,55.477 51.753,55.477 	"/>
	
		<rect x="19.716" y="51.139" fill="#B7B7B7" stroke="#494949" stroke-width="1.5" stroke-linecap="round" stroke-linejoin="round" stroke-miterlimit="10" width="20.55" height="2.439"/>
</g>
</svg>
