<?xml version="1.0" encoding="utf-8"?>
<!-- Generator: Adobe Illustrator 16.0.0, SVG Export Plug-In . SVG Version: 6.00 Build 0)  -->
<!DOCTYPE svg PUBLIC "-//W3C//DTD SVG 1.1//EN" "http://www.w3.org/Graphics/SVG/1.1/DTD/svg11.dtd">
<svg version="1.1" id="Layer_1" xmlns="http://www.w3.org/2000/svg" xmlns:xlink="http://www.w3.org/1999/xlink" x="0px" y="0px"
	 width="64px" height="64px" viewBox="0 0 64 64" enable-background="new 0 0 64 64" xml:space="preserve">
<g id="T-Shirt">
	
		<path fill="#DDDDDC" stroke="#494949" stroke-width="1.5" stroke-linecap="round" stroke-linejoin="round" stroke-miterlimit="10" d="
		M31.255,55.563c6.397,0.107,13.172-0.707,13.172-0.707c0-19.353,0.435-28.109,0.435-28.109l2.594,2.756l7.568-6.378l-5.838-8.813
		c-2.434-3.188-4.054-3.783-4.054-3.783l-7.894-3.244c-2.648,1.892-5.982,1.752-5.982,1.752h-0.289c0,0-3.332,0.14-5.982-1.752
		l-7.893,3.244c0,0-1.622,0.595-4.053,3.783l-5.84,8.813l7.569,6.378l2.593-2.756c0,0,0.434,8.757,0.434,28.109
		c0,0,6.774,0.814,13.172,0.707H31.255z"/>
	
		<path fill="#B7B7B7" stroke="#494949" stroke-width="1.5" stroke-linecap="round" stroke-linejoin="round" stroke-miterlimit="10" d="
		M47.073,11.934c0.596,0.558,1.309,1.327,2.11,2.378l5.84,8.813l-7.569,6.378l-2.595-2.756
		C44.427,16.313,47.073,11.935,47.073,11.934L47.073,11.934z"/>
	
		<path fill="#B7B7B7" stroke="#494949" stroke-width="1.5" stroke-linecap="round" stroke-linejoin="round" stroke-miterlimit="10" d="
		M15.149,11.934c-0.596,0.558-1.311,1.327-2.112,2.378l-5.839,8.813l7.569,6.378l2.593-2.756
		C17.794,16.313,15.148,11.935,15.149,11.934L15.149,11.934z"/>
	<path fill="none" stroke="#494949" stroke-width="1.5" stroke-linecap="round" stroke-linejoin="round" stroke-miterlimit="10" d="
		M24.984,7.285c0,0,1.584,4.923,5.982,4.815h0.289c4.397,0.108,5.983-4.815,5.983-4.815l3.711,1.525
		c-0.251,0.915-2.229,7.111-9.646,7.108h-0.387c-7.417,0.003-9.395-6.201-9.644-7.11V8.81L24.984,7.285z"/>
	
		<path fill="#B7B7B7" stroke="#494949" stroke-width="1.5" stroke-linecap="round" stroke-linejoin="round" stroke-miterlimit="10" d="
		M37.238,7.285c0,0-1.586,4.923-5.983,4.815h-0.289c-4.397,0.108-5.982-4.815-5.982-4.815c2.65,1.892,5.982,1.752,5.982,1.752h0.289
		C31.255,9.038,34.589,9.177,37.238,7.285z"/>
</g>
</svg>
