<?xml version="1.0" encoding="utf-8"?>
<!-- Generator: Adobe Illustrator 16.0.0, SVG Export Plug-In . SVG Version: 6.00 Build 0)  -->
<!DOCTYPE svg PUBLIC "-//W3C//DTD SVG 1.1//EN" "http://www.w3.org/Graphics/SVG/1.1/DTD/svg11.dtd">
<svg version="1.1" id="Layer_1" xmlns="http://www.w3.org/2000/svg" xmlns:xlink="http://www.w3.org/1999/xlink" x="0px" y="0px"
	 width="64px" height="64px" viewBox="0 0 64 64" enable-background="new 0 0 64 64" xml:space="preserve">
<g id="Tank_Top">
	<g id="_x34_61_1_">
		
			<path fill="#DDDDDC" stroke="#494949" stroke-width="1.5" stroke-linecap="round" stroke-linejoin="round" stroke-miterlimit="10" d="
			M36.506,10.081c0.557,0.22,0.792,1.582,0.792,1.582s0.246,0.595-0.159,4.073c-0.754,6.416-2.123,7.913-2.123,7.913
			s-1.287,1.994-3.981,1.994s-3.827-2.017-3.827-2.017l-0.635-1.192c0,0-0.953-1.691-0.93-4.358c0,0,0.123-4.437,0.525-5.89
			c0,0,0.475-1.767,0.776-1.886c-1.912-0.562-2.518,5.141-2.518,5.141c-0.129,1.154-0.835,4.428-0.835,4.428
			c-0.964,4.104-3.72,6.351-3.72,6.351c-0.771,0.447-0.514,1.475-0.514,1.475c0.449,2.824,1.476,5.134,1.476,5.134
			s1.665,6.159,0.769,10.585c-0.897,4.429-2.891,8.602-2.891,8.602c17.136,4.363,23.168,0.51,23.168,0.51S39.76,46.432,39.5,42.9
			c-0.255-3.526,1.605-9.174,1.605-9.174c1.498-3.658,1.73-6.353,1.73-6.353c0.066-0.897-0.704-1.349-0.704-1.349
			c-4.428-2.434-3.848-11.034-3.848-11.034C38.359,9.432,36.506,10.081,36.506,10.081z"/>
	</g>
	
		<path fill="#B7B7B7" stroke="#494949" stroke-width="1.5" stroke-linecap="round" stroke-linejoin="round" stroke-miterlimit="10" d="
		M35.016,23.649c0,0,1.369-1.497,2.123-7.913c0.405-3.479,0.159-4.073,0.159-4.073s-0.235-1.362-0.792-1.582
		C31.925,10.055,35.016,23.649,35.016,23.649z"/>
	
		<path fill="#B7B7B7" stroke="#494949" stroke-width="1.5" stroke-linecap="round" stroke-linejoin="round" stroke-miterlimit="10" d="
		M27.52,24.051l-0.948-1.616c0,0-0.953-1.691-0.93-4.358c0,0,0.123-4.437,0.525-5.89c0,0,0.475-1.767,0.776-1.886
		C30.78,11.432,27.52,24.051,27.52,24.051z"/>
	<path fill="none" stroke="#494949" stroke-width="1.5" stroke-linecap="round" stroke-linejoin="round" stroke-miterlimit="10" d="
		M27.516,24.054c0.501,0.592,1.623,1.59,3.518,1.59c2.694,0,3.981-1.994,3.981-1.994s-3.091-13.595,1.49-13.568
		c0,0,1.871-0.438,1.78,4.909c0,0-0.58,8.601,3.848,11.034c0,0,0.771,0.451,0.704,1.349c0,0-0.232,2.694-1.73,6.353
		c0,0-1.86,5.646-1.605,9.174c0.26,3.531,2.378,9.625,2.378,9.625s-6.032,3.854-23.168-0.51c0,0,1.993-4.173,2.891-8.602
		c0.896-4.426-0.769-10.585-0.769-10.585s-1.026-2.31-1.476-5.134c0,0-0.258-1.027,0.514-1.475c0,0,2.756-2.246,3.72-6.351
		c0,0,0.706-3.273,0.835-4.428c0,0,0.605-5.702,2.518-5.141c3.837,1.131,0.576,13.75,0.576,13.75L27.516,24.054z"/>
</g>
</svg>
