<?xml version="1.0" encoding="utf-8"?>
<!-- Generator: Adobe Illustrator 16.0.0, SVG Export Plug-In . SVG Version: 6.00 Build 0)  -->
<!DOCTYPE svg PUBLIC "-//W3C//DTD SVG 1.1//EN" "http://www.w3.org/Graphics/SVG/1.1/DTD/svg11.dtd">
<svg version="1.1" id="Layer_1" xmlns="http://www.w3.org/2000/svg" xmlns:xlink="http://www.w3.org/1999/xlink" x="0px" y="0px"
	 width="64px" height="64px" viewBox="0 0 64 64" enable-background="new 0 0 64 64" xml:space="preserve">
<g id="Track_Pant">
	
		<path fill="#DDDDDC" stroke="#494949" stroke-width="1.5" stroke-linecap="round" stroke-linejoin="round" stroke-miterlimit="10" d="
		M30.646,20.046c0.051,0.078,0.219,0.332,0.271,0.42c4.008,6.711,5.692,34.116,5.692,34.116c3.724,0.13,6.381-0.467,6.381-0.467
		L40.928,28.59L39.27,9.777l0.047-1.854c0,0-2.64,1.256-8.558,1.388h-0.315c-5.918-0.131-8.522-1.388-8.522-1.388l0.012,1.854
		l-1.661,18.812l-2.061,25.525c0,0,2.658,0.597,6.382,0.467c0,0,1.684-27.404,5.691-34.116c0.052-0.088,0.221-0.342,0.271-0.42
		L30.646,20.046L30.646,20.046z"/>
</g>
</svg>
