<?xml version="1.0" encoding="utf-8"?>
<!-- Generator: Adobe Illustrator 16.0.0, SVG Export Plug-In . SVG Version: 6.00 Build 0)  -->
<!DOCTYPE svg PUBLIC "-//W3C//DTD SVG 1.1//EN" "http://www.w3.org/Graphics/SVG/1.1/DTD/svg11.dtd">
<svg version="1.1" id="Layer_1" xmlns="http://www.w3.org/2000/svg" xmlns:xlink="http://www.w3.org/1999/xlink" x="0px" y="0px"
	 width="64px" height="64px" viewBox="0 0 64 64" enable-background="new 0 0 64 64" xml:space="preserve">
<g id="Tunic_Dress">
	
		<path fill="#DDDDDC" stroke="#494949" stroke-width="1.5" stroke-linecap="round" stroke-linejoin="round" stroke-miterlimit="10" d="
		M36.671,8.715c0,0-0.291,1.583-0.632,1.978c-0.344,0.396-0.889,2.095-4.524,2.185c-3.241,0.081-4.482-2.026-4.482-2.026
		s-1.16-1.504-1.397-3.742c0,0-2.462,0.679-3.185,1.027c0,0,1.792,1.578,0.841,7.588c0,0,0.458,1.018,0.808,3.759l0.634,4.215
		c0,0-0.351,0.913-0.423,2.601c0,0-1.406,1.758-4.075,14.964c0,0-1.685,11.24-2.247,12.93c0,0,0.562,0.49,1.896,0.701
		c1.335,0.211,3.231-0.068,3.513,0.489v0.493c0,0,3.443,0.495,4.286,0c0,0,1.476-0.266,2.178,0.221v0.555
		c0,0,4.215,0.49,4.357-0.279c0,0,1.826-0.423,2.178-0.287l4.164-0.402v-0.242l3.67-0.602c0,0-1.809-10.814-2.601-16.191
		c0,0-1.265-8.538-3.423-12.805c0,0,0.156-0.37-0.188-0.791c0,0-0.234-1.476-0.129-1.926l0.869-4.924c0,0,0.579-2.045,0.842-2.225
		c0,0-1.013-4.662,0.521-8.196l-3.504-0.671C36.618,7.108,36.813,8.061,36.671,8.715z"/>
	
		<polygon fill="none" stroke="#494949" stroke-width="1.5" stroke-linecap="round" stroke-linejoin="round" stroke-miterlimit="10" points="
		37.87,24.259 37.15,24.523 36.723,24.341 37.87,23.697 	"/>
	
		<path fill="#B7B7B7" stroke="#494949" stroke-width="1.5" stroke-linecap="round" stroke-linejoin="round" stroke-miterlimit="10" d="
		M23.787,27.398c0.349-0.88,0.525-1.101,0.525-1.101c0.072-1.688,0.423-2.601,0.423-2.601s9.31,0.034,10.677,0.826
		c0,0,0.871-0.528,1.738,0l1,11.436l-4.738,3.001l0.749-6.409c-0.474,0.211-4.63,0.759-4.63,0.759l2.229-5.911H23.787z"/>
	
		<path fill="#B7B7B7" stroke="#494949" stroke-width="1.5" stroke-linecap="round" stroke-linejoin="round" stroke-miterlimit="10" d="
		M31.761,27.398l-2.229,5.911c0,0,4.325-0.598,4.798-0.81l1.082-7.977C33.674,24.523,31.761,27.398,31.761,27.398z"/>
	
		<path fill="#B7B7B7" stroke="#494949" stroke-width="1.5" stroke-linecap="round" stroke-linejoin="round" stroke-miterlimit="10" d="
		M35.412,24.523c0,0,0.871-0.528,1.738,0l1,11.436l-4.738,3.001L35.412,24.523z"/>
	
		<path fill="#B7B7B7" stroke="#494949" stroke-width="1.5" stroke-linecap="round" stroke-linejoin="round" stroke-miterlimit="10" d="
		M35.412,24.523c-1.367-0.792-10.677-0.826-10.677-0.826s-0.351,0.913-0.423,2.601c0,0-0.177,0.221-0.525,1.101h7.975
		C31.761,27.398,33.674,24.523,35.412,24.523z"/>
	
		<path fill="#B7B7B7" stroke="#494949" stroke-width="1.5" stroke-linecap="round" stroke-linejoin="round" stroke-miterlimit="10" d="
		M29.16,23.796c1.486,0.061,3.075,0.152,4.3,0.299c-0.069-3.295,0.272-11.55,0.272-11.55c-0.57,0.184-1.294,0.312-2.216,0.332
		c-0.949,0.022-1.727-0.14-2.351-0.385l0,0C29.165,12.492,29.368,21.729,29.16,23.796z"/>
	
		<circle fill="none" stroke="#494949" stroke-width="1.5" stroke-linecap="round" stroke-linejoin="round" stroke-miterlimit="10" cx="31.35" cy="18.288" r="0.252"/>
	<path fill="none" stroke="#494949" stroke-width="1.5" stroke-linecap="round" stroke-linejoin="round" stroke-miterlimit="10" d="
		M31.603,21.817c0,0.142-0.113,0.251-0.251,0.251c-0.139,0-0.252-0.109-0.252-0.251c0-0.137,0.114-0.248,0.252-0.248
		S31.603,21.681,31.603,21.817z"/>
	<path fill="none" stroke="#494949" stroke-width="1.5" stroke-linecap="round" stroke-linejoin="round" stroke-miterlimit="10" d="
		M31.603,15.245c0,0.14-0.113,0.254-0.251,0.254c-0.139,0-0.252-0.114-0.252-0.254c0-0.137,0.114-0.252,0.252-0.252
		S31.603,15.108,31.603,15.245z"/>
	
		<path fill="#DDDDDC" stroke="#494949" stroke-width="1.5" stroke-linecap="round" stroke-linejoin="round" stroke-miterlimit="10" d="
		M29.16,23.796c0.208-2.066,0.005-11.304,0.005-11.304l0,0h-0.001c-1.51-0.59-2.13-1.642-2.13-1.642s-1.16-1.504-1.397-3.742
		c0,0-2.462,0.679-3.185,1.027c0,0,1.792,1.578,0.841,7.588c0,0,0.458,1.018,0.808,3.759l0.634,4.215
		C24.735,23.697,26.803,23.704,29.16,23.796z"/>
	
		<path fill="#DDDDDC" stroke="#494949" stroke-width="1.5" stroke-linecap="round" stroke-linejoin="round" stroke-miterlimit="10" d="
		M37.807,23.697l-1.147,0.644l0,0c-0.706-0.185-1.312,0.183-1.312,0.183c-0.31-0.18-1.027-0.317-1.953-0.429
		c-0.069-3.295,0.273-11.55,0.273-11.55c1.682-0.534,2.051-1.556,2.307-1.853c0.342-0.395,0.631-1.978,0.631-1.978
		c0.142-0.654-0.055-1.606-0.055-1.606l3.506,0.671c-1.533,3.534-0.521,8.196-0.521,8.196c-0.263,0.18-0.841,2.225-0.841,2.225
		l-0.871,4.924C37.793,23.272,37.789,23.418,37.807,23.697z"/>
	<path fill="none" stroke="#494949" stroke-width="1.5" stroke-linecap="round" stroke-linejoin="round" stroke-miterlimit="10" d="
		M29.863,27.398v11.139c-1.493,12.242,0,17.559,0,17.559c-0.702-0.486-2.178-0.221-2.178-0.221c-0.843,0.495-4.286,0-4.286,0v-0.493
		v0.493c0,0,0.897-14.703,1.634-21.654l1.083-6.822L29.863,27.398L29.863,27.398z"/>
	<path fill="none" stroke="#494949" stroke-width="1.5" stroke-linecap="round" stroke-linejoin="round" stroke-miterlimit="10" d="
		M26.116,27.398l-1.083,6.821c-0.737,6.952-1.634,21.655-1.634,21.655v-0.493c-0.282-0.559-2.178-0.277-3.513-0.49
		c-1.334-0.209-1.896-0.701-1.896-0.701c0.562-1.688,2.247-12.929,2.247-12.929c1.722-8.515,2.917-12.269,3.55-13.863H26.116z"/>
	
		<path fill="#B7B7B7" stroke="#494949" stroke-width="1.5" stroke-linecap="round" stroke-linejoin="round" stroke-miterlimit="10" d="
		M34.221,38.448"/>
	
		<polygon fill="#B7B7B7" stroke="#494949" stroke-width="1.5" stroke-linecap="round" stroke-linejoin="round" stroke-miterlimit="10" points="
		31.761,27.398 29.863,32.433 29.863,27.398 	"/>
	
		<path fill="#DDDDDC" stroke="#494949" stroke-width="1.5" stroke-linecap="round" stroke-linejoin="round" stroke-miterlimit="10" d="
		M34.221,56.37c-0.143,0.771-4.358,0.278-4.358,0.278v-0.555c0,0-1.493-5.314,0-17.558l0.04-5.28
		c1.06-0.148,4.039-0.583,4.427-0.757l-0.917,6.46l0.808-0.512l0.012,0.019C34.23,38.467,34.711,53.115,34.221,56.37z"/>
	
		<path fill="#DDDDDC" stroke="#494949" stroke-width="1.5" stroke-linecap="round" stroke-linejoin="round" stroke-miterlimit="10" d="
		M40.563,55.438v0.242l-4.166,0.402c-0.351-0.137-2.176,0.287-2.176,0.287c0.49-3.255,0.01-17.903,0.01-17.903l3.476-2.226
		c0.312,2.352,1.41,4.436,1.509,7.234C39.215,43.477,39.488,52.402,40.563,55.438z"/>
	
		<path fill="#DDDDDC" stroke="#494949" stroke-width="1.5" stroke-linecap="round" stroke-linejoin="round" stroke-miterlimit="10" d="
		M37.1,24.095l1.053,11.864c0,0-0.445,0.284-0.445,0.282c0.313,2.352,1.41,4.436,1.509,7.235c0,0,0.272,8.926,1.347,11.961
		l3.668-0.602c0,0-1.808-10.814-2.6-16.191c0,0-1.265-8.538-3.423-12.805c0,0,0.155-0.37-0.187-0.791c0,0-0.121-0.763-0.151-1.359
		L37.1,24.095z"/>
</g>
</svg>
