<?xml version="1.0" encoding="utf-8"?>
<!-- Generator: Adobe Illustrator 16.0.0, SVG Export Plug-In . SVG Version: 6.00 Build 0)  -->
<!DOCTYPE svg PUBLIC "-//W3C//DTD SVG 1.1//EN" "http://www.w3.org/Graphics/SVG/1.1/DTD/svg11.dtd">
<svg version="1.1" id="Layer_1" xmlns="http://www.w3.org/2000/svg" xmlns:xlink="http://www.w3.org/1999/xlink" x="0px" y="0px"
	 width="64px" height="64px" viewBox="0 0 64 64" enable-background="new 0 0 64 64" xml:space="preserve">
<g id="Woman_x2019_s_Dress">
	
		<path fill="#DDDDDC" stroke="#494949" stroke-width="1.5" stroke-linecap="round" stroke-linejoin="round" stroke-miterlimit="10" d="
		M37.486,25.712c0,0,0.156-0.37-0.188-0.791c0,0-0.234-1.477-0.13-1.925l0.869-4.925c0,0,0.579-2.045,0.843-2.227
		c0,0-1.053-4.361,0.371-7.838l-0.557-0.527l-2.801-0.5c0,0,0.194,0.952,0.055,1.605c0,0-0.29,1.583-0.633,1.979
		c-0.34,0.395-0.889,2.094-4.521,2.186c-3.242,0.077-4.485-2.029-4.485-2.029s-1.157-1.502-1.394-3.74l-2.001,0.604
		c0,0-0.712-0.265-1.186,0.424c0,0,1.794,1.578,0.843,7.587c0,0,0.456,1.018,0.808,3.758l0.633,4.216c0,0-0.352,0.914-0.421,2.6
		L21.809,31.2c0,0,2.272,4.444,5.044,3.06c2.771-1.386,2.797,2.477,6.249,0.268c3.449-2.204,4.207,1.24,7.018-2.7L37.486,25.712z"/>
	
		<path fill="#DDDDDC" stroke="#494949" stroke-width="1.5" stroke-linecap="round" stroke-linejoin="round" stroke-miterlimit="10" d="
		M46.236,46.533c0,0,5,5.377,2.23,7.357l-7.257,1.432v0.281l-4.819,0.465C35.984,55.909,33.87,56.4,33.87,56.4
		c-0.164,0.892-5.043,0.322-5.043,0.322V56.08c-0.81-0.563-2.52-0.252-2.52-0.252c-0.974,0.572-4.959,0-4.959,0v-0.572
		c-0.328-0.646-3.823-0.64-5.367-0.884c-1.543-0.245-2.192-0.812-2.192-0.812c-4.752-1.828,0.94-8.701,0.94-8.701l0.34-0.271
		c0.034-2.792,3.555-5.965,3.555-5.965l0,0c-0.473-2.893,2.823-7.48,2.823-7.48c0.078-0.11,0.361,0.058,0.361,0.058l1.783-5.033
		c0.069-1.686,0.421-2.6,0.421-2.6l-0.633-4.216c-0.352-2.74-0.808-3.758-0.808-3.758c0.951-6.009-0.843-7.587-0.843-7.587
		c0.474-0.688,1.186-0.424,1.186-0.424l2.001-0.604c0.236,2.238,1.394,3.74,1.394,3.74s1.243,2.106,4.485,2.029
		c3.634-0.092,4.183-1.791,4.522-2.186c0.342-0.396,0.632-1.979,0.632-1.979c0.141-0.653-0.054-1.605-0.054-1.605l2.799,0.5
		l0.558,0.527c-1.424,3.477-0.371,7.838-0.371,7.838c-0.264,0.182-0.843,2.227-0.843,2.227l-0.869,4.925
		c-0.104,0.448,0.13,1.925,0.13,1.925c0.345,0.421,0.188,0.791,0.188,0.791l2.631,6.114c0,0,4.574,4.513,3.252,6.972
		c0,0,3.174,2.441,3.086,6.926c-0.005,0.326-0.07,0.575-0.188,0.771L46.236,46.533z"/>
	
		<path fill="#B7B7B7" stroke="#494949" stroke-width="1.5" stroke-linecap="round" stroke-linejoin="round" stroke-miterlimit="10" d="
		M21.809,31.2c0,0,2.272,4.444,5.044,3.06c2.771-1.386,2.797,2.477,6.249,0.268c3.449-2.204,4.207,1.24,7.018-2.7
		c0,0,5.63,5.553,2.591,7.7c-1.591,1.121-3.017,0.394-5.11,1.281c-2.1,0.885-1.354,0.394-4.217,0.986
		c-2.862,0.59-2.173,0.297-3.453,0.297c-1.281,0-2.369,0.395-4.046,0c-1.675-0.398-0.653-0.669-2.626-0.669
		c-1.975,0-3.196-0.909-3.196-0.909c-4.013-1.854,1.387-9.371,1.387-9.371L21.809,31.2z"/>
	
		<path fill="#DDDDDC" stroke="#494949" stroke-width="1.5" stroke-linecap="round" stroke-linejoin="round" stroke-miterlimit="10" d="
		M18.625,38.623c0.157,0.746,0.612,1.509,1.437,1.891c0,0,1.222,0.909,3.196,0.909c1.973,0,0.951,0.271,2.626,0.669
		c1.677,0.395,2.765,0,4.046,0c1.28,0,0.59,0.293,3.453-0.297c2.862-0.594,2.117-0.102,4.217-0.986
		c2.096-0.889,3.521-0.16,5.11-1.281c0.3-0.213,0.515-0.457,0.661-0.729c0,0,3.199,2.583,3.086,6.927
		c-0.066,2.59-4.012,0.524-6.799,1.707c-2.792,1.178-1.805,0.522-5.61,1.311c-3.807,0.79-2.888,0.396-4.594,0.396
		s-3.15,0.523-5.383,0c-2.23-0.529-1.517-0.98-4.141-0.98c-2.626,0-3.604-1.121-3.604-1.121
		C12.519,44.154,18.625,38.623,18.625,38.623z"/>
	
		<path fill="#B7B7B7" stroke="#494949" stroke-width="1.5" stroke-linecap="round" stroke-linejoin="round" stroke-miterlimit="10" d="
		M14.73,44.859c0,0-5.692,6.873-0.94,8.701c0,0,0.649,0.565,2.192,0.812c1.544,0.244,5.039,0.237,5.367,0.884v0.572
		c0,0,3.985,0.572,4.959,0c0,0,1.71-0.311,2.52,0.252v0.643c0,0,4.879,0.569,5.043-0.322c0,0,2.113-0.49,2.52-0.332l4.82-0.465
		v-0.28l7.257-1.431c2.771-1.981-2.229-7.358-2.229-7.358c-0.84,1.356-4.141-0.138-6.58,0.897c-2.792,1.178-1.805,0.522-5.61,1.311
		c-3.807,0.79-2.888,0.396-4.594,0.396s-3.15,0.523-5.383,0c-2.23-0.529-1.517-0.98-4.141-0.98c-2.626,0-3.604-1.121-3.604-1.121
		c-0.924-0.699-1.262-1.555-1.248-2.447L14.73,44.859z"/>
</g>
</svg>
