<?xml version="1.0" encoding="utf-8"?>
<!-- Generator: Adobe Illustrator 16.0.0, SVG Export Plug-In . SVG Version: 6.00 Build 0)  -->
<!DOCTYPE svg PUBLIC "-//W3C//DTD SVG 1.1//EN" "http://www.w3.org/Graphics/SVG/1.1/DTD/svg11.dtd">
<svg version="1.1" id="Layer_1" xmlns="http://www.w3.org/2000/svg" xmlns:xlink="http://www.w3.org/1999/xlink" x="0px" y="0px"
	 width="64px" height="64px" viewBox="0 0 64 64" enable-background="new 0 0 64 64" xml:space="preserve">
<g id="Woman_x2019_s_Sweater">
	
		<path fill="#DDDDDC" stroke="#494949" stroke-width="1.5" stroke-linecap="round" stroke-linejoin="round" stroke-miterlimit="10" d="
		M48.232,52.95c-0.744-0.277-7.004-27.297-7.004-27.297s-0.39-2.002-0.302-0.678c0.011,0.158,0.212,0.782,0.179,1.3
		c0,0,0.105,2.155-1.375,4.231c-1.174,1.646,0.528,5.17,0.528,5.17s3.315,5.143,2.116,14.379
		c-13.868,3.995-23.627-0.058-23.627-0.058c-1.528-8.206,1.729-13.065,2.512-15.259c0.784-2.196-0.589-4.507-0.589-4.507
		c-1.716-2.25-1.081-5.233-1.081-5.233c0.089-0.933,0.089-1.681,0.089-1.681l-6.712,29.85c0.562,1.254-0.87,3.005-0.87,3.005
		c-2.304,0.604-5.628-1.375-5.628-1.375s-0.236-3.047,1.445-3.042c0.372-2.61,7.758-33.763,8.032-34.603
		c0.285-0.84,0.936-1.489,2.056-2.146c1.122-0.648,2.238-1.025,3.169-1.117c0.811-0.082,1.477-1.132,1.945-1.414l0.002,0.001
		c-1.803-0.991,1.611-4.003,1.611-4.003s6.825-1.609,11.664,0.395l0.396,0.639c1.238,1.957,0.925,2.703,0.518,2.988l0.002,0.005
		c0,0,1.959,1.39,3.172,1.39s3.451,0.559,3.824,2.053c0.373,1.49,8.889,35.129,8.98,35.595c1.686-0.005,1.443,3.043,1.443,3.043
		s-3.321,1.978-5.629,1.374C49.102,55.955,47.672,54.206,48.232,52.95z"/>
	
		<path fill="#B7B7B7" stroke="#494949" stroke-width="1.5" stroke-linecap="round" stroke-linejoin="round" stroke-miterlimit="10" d="
		M7.915,51.756c-1.682-0.005-1.445,3.042-1.445,3.042s3.324,1.979,5.628,1.375c0,0,1.432-1.751,0.87-3.005
		C12.967,53.168,9.194,53.055,7.915,51.756z"/>
	
		<path fill="#B7B7B7" stroke="#494949" stroke-width="1.5" stroke-linecap="round" stroke-linejoin="round" stroke-miterlimit="10" d="
		M48.232,52.95c-0.562,1.256,0.869,3.005,0.869,3.005c2.307,0.604,5.629-1.374,5.629-1.374s0.24-3.048-1.444-3.043
		C53.378,52.008,49.746,53.525,48.232,52.95z"/>
	
		<path fill="#B7B7B7" stroke="#494949" stroke-width="1.5" stroke-linecap="round" stroke-linejoin="round" stroke-miterlimit="10" d="
		M37.309,12.496c0.406-0.285,0.721-1.031-0.519-2.988l-0.396-0.639C31.555,6.865,24.73,8.475,24.73,8.475s-3.414,3.012-1.611,4.003
		c0.142,0.077,0.313,0.142,0.52,0.193c0,0,9.373-0.986,13.152,0C36.79,12.671,37.064,12.665,37.309,12.496z"/>
</g>
</svg>
