<?xml version="1.0" encoding="utf-8"?>
<!-- Generator: Adobe Illustrator 16.0.0, SVG Export Plug-In . SVG Version: 6.00 Build 0)  -->
<!DOCTYPE svg PUBLIC "-//W3C//DTD SVG 1.1//EN" "http://www.w3.org/Graphics/SVG/1.1/DTD/svg11.dtd">
<svg version="1.1" id="Layer_1" xmlns="http://www.w3.org/2000/svg" xmlns:xlink="http://www.w3.org/1999/xlink" x="0px" y="0px"
	 width="64px" height="64px" viewBox="0 0 64 64" enable-background="new 0 0 64 64" xml:space="preserve">
<g id="Woman_x2019_s_Top">
	
		<path fill="#DDDDDC" stroke="#494949" stroke-width="1.5" stroke-linecap="round" stroke-linejoin="round" stroke-miterlimit="10" d="
		M21.189,17.035c0,0-0.542,5.314-4.246,6.279c0,0,3.061,2.899,1.934,8.696c0,0-4.831,14.172-4.35,19.321
		c0,0-0.291,2.871-1.419,4.965c0,0,0.763,0.995,3.831,0.513c3.064-0.481,4.836,1.449,6.929,0.805
		c2.094-0.643,1.771-0.379,4.671,0.135c2.898,0.511,2.094,0.616,5.15,0c3.062-0.617,4.349-0.295,6.767-0.295
		c2.412,0,3.556-0.036,5.166-0.842c1.612-0.803,2.821-0.985,2.821-0.985l-1.707-4.612c0,0,0.644-6.765-4.51-19.165
		c0,0-1.609-4.668,1.932-8.534c0,0-3.541-4.025-4.348-6.279l-4.832,2.578c0,0-0.141,1.748-4.066,2.229c0,0-3.543-0.096-3.967-2.089
		L21.189,17.035z"/>
	
		<path fill="#B7B7B7" stroke="#494949" stroke-width="1.5" stroke-linecap="round" stroke-linejoin="round" stroke-miterlimit="10" d="
		M19.123,29.756c0.088-4.297-2.18-6.441-2.18-6.441c3.704-0.965,4.246-6.279,4.246-6.279l5.756,2.719
		c0.424,1.993,3.967,2.089,3.967,2.089c3.927-0.481,4.066-2.229,4.066-2.229l4.832-2.578c0.807,2.254,4.348,6.279,4.348,6.279
		c-2.043,2.228-2.372,4.724-2.285,6.439c0,0-0.271,3.443-5.938,4.17c0,0-1.502,0.187-3.112-0.385
		c-1.759-0.858-4.412-0.087-4.412-0.087c-1.697,0.678-3.346,0.472-3.346,0.472C19.397,33.197,19.123,29.756,19.123,29.756z"/>
	
		<path fill="#B7B7B7" stroke="#494949" stroke-width="1.5" stroke-linecap="round" stroke-linejoin="round" stroke-miterlimit="10" d="
		M46.736,51.014l1.707,4.612c0,0-1.209,0.185-2.821,0.985c-1.61,0.806-2.754,0.842-5.166,0.842c-2.418,0-3.705-0.322-6.767,0.295
		c-3.058,0.616-2.252,0.511-5.15,0c-2.899-0.514-2.577-0.777-4.671-0.135c-2.093,0.646-3.864-1.286-6.929-0.805
		c-3.068,0.482-3.831-0.513-3.831-0.513c1.128-2.094,1.419-4.965,1.419-4.965s6.539,2.239,10.822,0.793
		c2.999-1.013,4.639,0.497,5.919,0.739c0,0,2.062,0.843,5.173,0c3.115-0.848,6.082,0.309,8.188-0.774
		C46.736,51.014,46.736,51.014,46.736,51.014z"/>
	<path fill="none" stroke="#494949" stroke-width="1.5" stroke-linecap="round" stroke-linejoin="round" stroke-miterlimit="10" d="
		M36.51,18.795l2.783-1.484c0,0,1.99-10.926-0.061-10.504c-2.055,0.425-2.621,3.367-2.791,11.831L36.51,18.795z"/>
	<path fill="none" stroke="#494949" stroke-width="1.5" stroke-linecap="round" stroke-linejoin="round" stroke-miterlimit="10" d="
		M24.58,18.635l-2.785-1.317h-0.002c0,0-2.052-10.933,0.004-10.511c2.051,0.425,2.615,3.367,2.785,11.831L24.58,18.635z"/>
</g>
</svg>
