<?xml version="1.0" encoding="utf-8"?>
<!-- Generator: Adobe Illustrator 16.0.0, SVG Export Plug-In . SVG Version: 6.00 Build 0)  -->
<!DOCTYPE svg PUBLIC "-//W3C//DTD SVG 1.1//EN" "http://www.w3.org/Graphics/SVG/1.1/DTD/svg11.dtd">
<svg version="1.1" id="Layer_1" xmlns="http://www.w3.org/2000/svg" xmlns:xlink="http://www.w3.org/1999/xlink" x="0px" y="0px"
	 width="64px" height="64px" viewBox="0 0 64 64" enable-background="new 0 0 64 64" xml:space="preserve">
<g id="Woman_x2019_s_Formal_Coat_x2F_Blazer">
	<g>
		
			<path fill="none" stroke="#494949" stroke-width="1.5" stroke-linecap="round" stroke-linejoin="round" stroke-miterlimit="10" d="
			M25.584,13.624"/>
		
			<path fill="#DDDDDC" stroke="#494949" stroke-width="1.5" stroke-linecap="round" stroke-linejoin="round" stroke-miterlimit="10" d="
			M54.848,42.076l1.443,3.842l-6.626,2.848l-1.5-3.953l-6.026-14.464c0,0-0.027,7.742,0.396,19.896l-9.241,0.822l-1.819,0.137
			c-1.103,0-1.042-1.042-1.042-1.042c-0.418,0.922-1.573,0.903-1.573,0.903l-9.319-0.332c-0.357-12.119-0.169-20.3-0.169-20.3
			l-5.907,14.462l-1.558,3.83l-6.646-2.83l1.616-3.819l10.578-25.753l8.089-2.699l1.079-1.079c0,0,2.714-1.534,8.904,0l1.082,1.079
			l8.09,2.699L54.848,42.076z"/>
		
			<circle fill="none" stroke="#494949" stroke-width="1.5" stroke-linecap="round" stroke-linejoin="round" stroke-miterlimit="10" cx="32.887" cy="36.083" r="0.231"/>
		
			<circle fill="none" stroke="#494949" stroke-width="1.5" stroke-linecap="round" stroke-linejoin="round" stroke-miterlimit="10" cx="32.654" cy="42.975" r="0.231"/>
		
			<polygon fill="#B7B7B7" stroke="#494949" stroke-width="1.5" stroke-linecap="round" stroke-linejoin="round" stroke-miterlimit="10" points="
			48.165,44.813 49.665,48.766 56.291,45.918 54.895,42.182 		"/>
		
			<polygon fill="#B7B7B7" stroke="#494949" stroke-width="1.5" stroke-linecap="round" stroke-linejoin="round" stroke-miterlimit="10" points="
			6.877,42.076 5.261,45.895 11.906,48.727 13.464,44.896 		"/>
		
			<path fill="none" stroke="#494949" stroke-width="1.5" stroke-linecap="round" stroke-linejoin="round" stroke-miterlimit="10" d="
			M30.433,50.162l-0.034-5.104c0,0,0.038-4.3,0.21-9.791l4.92-22.723l1.08,1.079l8.091,2.699l10.147,25.753l1.443,3.842
			l-6.626,2.848l-1.5-3.953l-6.026-14.464c0,0-0.027,7.742,0.396,19.896l-9.241,0.822l-1.819,0.137
			C30.372,51.204,30.433,50.162,30.433,50.162z"/>
		
			<path fill="#B7B7B7" stroke="#494949" stroke-width="1.5" stroke-linecap="round" stroke-linejoin="round" stroke-miterlimit="10" d="
			M30.608,35.268c1.309-5.051,7.865-10.667,7.865-10.667l-1.35-1.243l2.7-1.713l-3.216-8.021l-1.08-1.079L30.608,35.268z"/>
		
			<path fill="#B7B7B7" stroke="#494949" stroke-width="1.5" stroke-linecap="round" stroke-linejoin="round" stroke-miterlimit="10" d="
			M26.623,12.545l-1.079,1.079l-3.839,8.021l2.698,1.713l-1.351,1.243c0,0,6.276,5.486,7.59,10.538L26.623,12.545z"/>
		
			<path fill="none" stroke="#494949" stroke-width="1.5" stroke-linecap="round" stroke-linejoin="round" stroke-miterlimit="10" d="
			M30.643,35.141l-4.02-22.596l-1.079,1.079l-8.089,2.699L6.877,42.076l-1.616,3.818l6.646,2.832l1.558-3.83l5.907-14.463
			c0,0-0.188,8.181,0.169,20.299l9.319,0.334c0,0,1.155,0.018,1.573-0.904L30.643,35.141z"/>
	</g>
	
		<path fill="#B7B7B7" stroke="#494949" stroke-width="1.5" stroke-linecap="round" stroke-linejoin="round" stroke-miterlimit="10" d="
		M35.527,12.545c-6.19-1.534-8.904,0-8.904,0l4.02,22.596l-0.034,0.127L35.527,12.545z"/>
</g>
</svg>
