<?xml version="1.0" encoding="utf-8"?>
<!-- Generator: Adobe Illustrator 16.0.0, SVG Export Plug-In . SVG Version: 6.00 Build 0)  -->
<!DOCTYPE svg PUBLIC "-//W3C//DTD SVG 1.1//EN" "http://www.w3.org/Graphics/SVG/1.1/DTD/svg11.dtd">
<svg version="1.1" id="Layer_1" xmlns="http://www.w3.org/2000/svg" xmlns:xlink="http://www.w3.org/1999/xlink" x="0px" y="0px"
	 width="64px" height="64px" viewBox="0 0 64 64" enable-background="new 0 0 64 64" xml:space="preserve">
<g id="Woman_x2019_s_Shirt">
	
		<path fill="#DDDDDC" stroke="#494949" stroke-width="1.5" stroke-linecap="round" stroke-linejoin="round" stroke-miterlimit="10" d="
		M54.913,45.775c0,0,0.616,1.729,1.053,3.521l-5.526,0.94c0,0-0.58-1.729-1.062-3.227h0.004l-5.963-18.491l0.871,21.717
		c-2.669,3.414-13.168,3.559-13.168,3.559c-11.297,0.348-13.089-3.559-13.089-3.559l0.791-21.717L12.861,47.01
		c-0.483,1.496-1.064,3.227-1.064,3.227l-5.542-0.94c0.439-1.791,1.056-3.521,1.056-3.521l8.223-29.604l8.518-2.975l1.144-2.78
		c0,0,5.415-2.502,12.378,0l1.138,2.78l7.999,2.975l8.223,29.604H54.913z"/>
	
		<path fill="#B7B7B7" stroke="#494949" stroke-width="1.5" stroke-linecap="round" stroke-linejoin="round" stroke-miterlimit="10" d="
		M25.195,10.417c0,0,5.415-2.502,12.378,0l-3.304,3.918l-1.481,0.756l0.151,1.574l-1.509,3.974l-1.985-3.974l0.012-1.574
		l-0.959-0.756L25.195,10.417z"/>
	<path fill="none" stroke="#494949" stroke-width="1.5" stroke-linecap="round" stroke-linejoin="round" stroke-miterlimit="10" d="
		M32.977,44.361c0,0.093-0.076,0.172-0.172,0.172c-0.095,0-0.171-0.079-0.171-0.172c0-0.098,0.076-0.174,0.171-0.174
		C32.9,44.188,32.977,44.264,32.977,44.361z"/>
	<path fill="none" stroke="#494949" stroke-width="1.5" stroke-linecap="round" stroke-linejoin="round" stroke-miterlimit="10" d="
		M33.044,38.126c0,0.093-0.075,0.171-0.171,0.171S32.7,38.219,32.7,38.126c0-0.099,0.077-0.173,0.173-0.173
		C32.971,37.953,33.044,38.027,33.044,38.126z"/>
	
		<circle fill="none" stroke="#494949" stroke-width="1.5" stroke-linecap="round" stroke-linejoin="round" stroke-miterlimit="10" cx="32.943" cy="32.748" r="0.172"/>
	<path fill="none" stroke="#494949" stroke-width="1.5" stroke-linecap="round" stroke-linejoin="round" stroke-miterlimit="10" d="
		M33.354,26.513c0,0.094-0.074,0.171-0.17,0.171s-0.174-0.077-0.174-0.171c0-0.097,0.078-0.173,0.174-0.173
		S33.354,26.416,33.354,26.513z"/>
	
		<circle fill="none" stroke="#494949" stroke-width="1.5" stroke-linecap="round" stroke-linejoin="round" stroke-miterlimit="10" cx="33.527" cy="20.689" r="0.172"/>
	
		<path fill="#B7B7B7" stroke="#494949" stroke-width="1.5" stroke-linecap="round" stroke-linejoin="round" stroke-miterlimit="10" d="
		M12.861,47.01c-0.483,1.496-1.064,3.227-1.064,3.227l-5.542-0.94c0.439-1.791,1.056-3.521,1.056-3.521L12.861,47.01z"/>
	
		<path fill="#B7B7B7" stroke="#494949" stroke-width="1.5" stroke-linecap="round" stroke-linejoin="round" stroke-miterlimit="10" d="
		M49.378,47.01c0.481,1.496,1.062,3.227,1.062,3.227l5.526-0.94c-0.437-1.791-1.053-3.521-1.053-3.521L49.378,47.01z"/>
	
		<polygon fill="#B7B7B7" stroke="#494949" stroke-width="1.5" stroke-linecap="round" stroke-linejoin="round" stroke-miterlimit="10" points="
		25.195,10.417 24.051,13.196 26.435,19.795 28.498,14.335 	"/>
	
		<polygon fill="#B7B7B7" stroke="#494949" stroke-width="1.5" stroke-linecap="round" stroke-linejoin="round" stroke-miterlimit="10" points="
		37.573,10.417 38.715,13.196 36.332,19.795 34.27,14.335 	"/>
	<path fill="none" stroke="#494949" stroke-width="1.5" stroke-linecap="round" stroke-linejoin="round" stroke-miterlimit="10" d="
		M31.577,53.782c2.047-0.075,10.376-0.56,12.712-3.546l-0.871-21.717l5.963,18.491h-0.004c0.48,1.496,1.061,3.227,1.061,3.227
		l5.527-0.94c-0.438-1.791-1.053-3.521-1.053-3.521h0.02L46.71,16.171l-7.999-2.975l-1.138-2.78l-3.304,3.918l-1.481,0.756
		l0.151,1.574l-1.509,3.974C31.43,20.639,30.534,47.88,31.577,53.782z"/>
	<path fill="none" stroke="#494949" stroke-width="1.5" stroke-linecap="round" stroke-linejoin="round" stroke-miterlimit="10" d="
		M31.577,53.782c-1.043-5.902-0.147-33.143-0.147-33.143l-1.985-3.974l0.012-1.574l-0.959-0.756l-3.303-3.918l-1.144,2.78
		l-8.518,2.975L7.31,45.775c0,0-0.617,1.729-1.056,3.521l5.542,0.94c0,0,0.582-1.729,1.064-3.227l5.962-18.491l-0.791,21.717
		c0,0,1.792,3.906,13.089,3.559C31.121,53.794,31.141,53.8,31.577,53.782z"/>
	
		<path fill="#B7B7B7" stroke="#494949" stroke-width="1.5" stroke-linecap="round" stroke-linejoin="round" stroke-miterlimit="10" d="
		M37.573,10.417c-6.963-2.502-12.378,0-12.378,0l1.331,1.578c1.831-0.525,5.392-1.161,9.684,0.033L37.573,10.417z"/>
</g>
</svg>
