<?xml version="1.0" encoding="utf-8"?>
<!-- Generator: Adobe Illustrator 16.0.0, SVG Export Plug-In . SVG Version: 6.00 Build 0)  -->
<!DOCTYPE svg PUBLIC "-//W3C//DTD SVG 1.1//EN" "http://www.w3.org/Graphics/SVG/1.1/DTD/svg11.dtd">
<svg version="1.1" id="Layer_1" xmlns="http://www.w3.org/2000/svg" xmlns:xlink="http://www.w3.org/1999/xlink" x="0px" y="0px"
	 width="64px" height="64px" viewBox="0 0 64 64" enable-background="new 0 0 64 64" xml:space="preserve">
<g id="Woman_x2019_s_Collared_T-shirt">
	<g>
		
			<path fill="#DDDDDC" stroke="#494949" stroke-width="1.5" stroke-linecap="round" stroke-linejoin="round" stroke-miterlimit="10" d="
			M42.663,37.191c0,0,3.909,6.06,2.493,16.949c-16.347,4.711-27.853-0.067-27.853-0.067c-1.802-9.677,2.038-15.404,2.961-17.991
			c0.925-2.586-0.694-5.312-0.694-5.312c-2.021-2.653-1.274-6.171-1.274-6.171c0.106-1.1,0.106-1.982,0.106-1.982L17.63,24.6
			c0,0-4.617,0.438-6.153-0.881c0.438-3.078,2.201-8.686,2.525-9.675c0.335-0.993,1.103-1.758,2.422-2.531
			c1.323-0.766,2.639-1.208,3.737-1.317c1.104-0.111,1.981,0,2.535-0.548c0.549-0.554,1.646-1.983,1.646-1.983
			s1.625,3.164,2.397,3.824c0.769,0.662,3.762,1.896,5.851,1.457c2.084-0.441,3.623-1.433,4.064-2.311
			c0.443-0.877,0.549-2.419,0.549-2.419l1.98,1.648c0,0,2.31,0.331,3.741,0.331c1.429,0,4.069,0.661,4.509,2.423
			c0.438,1.755,2.529,10.992,2.637,11.541c0.109,0.552-2.637,1.979-5.389,1.543c-0.877-0.33-0.877-0.33-0.877-0.33
			s-0.457-2.357-0.352-0.8c0.013,0.188,0.248,0.923,0.207,1.533c0,0,0.127,2.541-1.622,4.987
			C40.652,33.034,42.663,37.191,42.663,37.191z"/>
	</g>
	
		<rect x="30.78" y="13.218" fill="#B7B7B7" stroke="#494949" stroke-width="1.5" stroke-linecap="round" stroke-linejoin="round" stroke-miterlimit="10" width="1.908" height="9.979"/>
	<path fill="none" stroke="#494949" stroke-width="1.5" stroke-linecap="round" stroke-linejoin="round" stroke-miterlimit="10" d="
		M39.186,9.864c0,0,0.707,3.908-4.279,6.127c0,0-0.182-3.213-3.049-2.773H30.78c-2.468-0.553-2.8,2.773-2.8,2.773
		c-4.435-1.802-5.071-6.569-5.071-6.569l1.434-1.758c0,0,1.625,3.164,2.397,3.824c0.769,0.662,3.762,1.896,5.851,1.457
		c2.084-0.441,3.623-1.433,4.065-2.311c0.441-0.877,0.548-2.419,0.548-2.419L39.186,9.864z"/>
	
		<path fill="#B7B7B7" stroke="#494949" stroke-width="1.5" stroke-linecap="round" stroke-linejoin="round" stroke-miterlimit="10" d="
		M32.591,12.945c2.084-0.441,3.623-1.433,4.065-2.311c0.441-0.877,0.548-2.419,0.548-2.419l1.981,1.648c0,0,0.705,3.908-4.281,6.127
		c0,0-0.18-3.213-3.048-2.773v-0.188L32.591,12.945z"/>
	
		<path fill="#B7B7B7" stroke="#494949" stroke-width="1.5" stroke-linecap="round" stroke-linejoin="round" stroke-miterlimit="10" d="
		M30.78,13.218c-2.468-0.553-2.8,2.773-2.8,2.773c-4.435-1.802-5.071-6.569-5.071-6.569l1.434-1.758c0,0,1.625,3.164,2.397,3.824
		c0.573,0.495,2.396,1.311,4.153,1.506L30.78,13.218z"/>
</g>
</svg>
