<?xml version="1.0" encoding="utf-8"?>
<!-- Generator: Adobe Illustrator 16.0.0, SVG Export Plug-In . SVG Version: 6.00 Build 0)  -->
<!DOCTYPE svg PUBLIC "-//W3C//DTD SVG 1.1//EN" "http://www.w3.org/Graphics/SVG/1.1/DTD/svg11.dtd">
<svg version="1.1" id="Layer_1" xmlns="http://www.w3.org/2000/svg" xmlns:xlink="http://www.w3.org/1999/xlink" x="0px" y="0px"
	 width="64px" height="64px" viewBox="0 0 64 64" enable-background="new 0 0 64 64" xml:space="preserve">
<g id="Woman_x2019_s_Jeans">
	
		<path fill="#DDDDDC" stroke="#494949" stroke-width="1.5" stroke-linecap="round" stroke-linejoin="round" stroke-miterlimit="10" d="
		M24.297,7.915L23.565,9.98c0,0-0.308,0.296-0.709,1.067c-0.578,1.108-1.352,3.2-1.689,6.806c-0.178,1.908-0.233,4.238-0.073,7.071
		c0,0,0.708,5.731-0.095,8.204c0,0-0.931,2.162-1.014,5.45c0,0-1.182,4.003-1.054,6.824c0,0-0.844,3.879-0.55,9.568
		c0,0,1.887,1.987,6.532,1.305c0,0,0.231-0.529,0.323-2.101c0,0,0.196-1.139,0.689-8.518l1.6-9.272c0,0,2.948-9.692,3.624-14.157
		c0,0,2.357,5.984,3.203,13.567c0,0,1.602,5.984,1.771,10.703c0,0-0.084,8.682,1.517,9.777c0,0,3.043,1.054,6.238-1.185
		c0,0,0.421-15.165-2.447-21.993c0,0-0.925-3.879-0.502-8.26c0,0,1.6-8.513-1.773-15.002l-0.479-1.924c0,0-1.818,1.924-7.568,2.345
		C31.109,10.26,26.473,10.255,24.297,7.915z"/>
	<path fill="none" stroke="#494949" stroke-width="1.5" stroke-linecap="round" stroke-linejoin="round" stroke-miterlimit="10" d="
		M32.91,12.063c0,0.046-0.034,0.076-0.075,0.076c-0.042,0-0.076-0.03-0.076-0.076c0-0.039,0.034-0.071,0.076-0.071
		C32.875,11.992,32.91,12.024,32.91,12.063z"/>
	<path fill="none" stroke="#494949" stroke-width="1.5" stroke-linecap="round" stroke-linejoin="round" stroke-miterlimit="10" d="
		M31.151,22.229c0-0.512,0-0.641-0.041-1.466"/>
	<path fill="none" stroke="#494949" stroke-width="1.5" stroke-linecap="round" stroke-linejoin="round" stroke-miterlimit="10" d="
		M22.845,11.068c0.408-0.786,0.72-1.088,0.72-1.088l0.732-2.065c2.176,2.34,6.813,2.345,6.813,2.345
		c5.75-0.421,7.568-2.345,7.568-2.345l0.479,1.924c0.21,0.404,0.401,0.816,0.575,1.235c-0.764,1.475-3.955,2.317-6.244,2.738
		c-1.373,0.256-2.42,0.359-2.42,0.359c-2.129-0.172-3.71-0.487-4.884-0.856C23.15,12.362,22.845,11.068,22.845,11.068z"/>
	<path fill="none" stroke="#494949" stroke-width="1.5" stroke-linecap="round" stroke-linejoin="round" stroke-miterlimit="10" d="
		M33.488,13.813c-1.373,0.256-2.377,0.348-2.377,0.348c0,1.545,0.021,4.346,0,6.604C34.969,20.764,33.488,13.813,33.488,13.813z"/>
	
		<line fill="none" stroke="#494949" stroke-width="1.5" stroke-linecap="round" stroke-linejoin="round" stroke-miterlimit="10" x1="31.11" y1="10.253" x2="31.11" y2="14.16"/>
	
		<path fill="#B7B7B7" stroke="#494949" stroke-width="1.5" stroke-linecap="round" stroke-linejoin="round" stroke-miterlimit="10" d="
		M26.184,13.315c-3.034-0.953-3.339-2.247-3.339-2.247l0.011-0.021c-0.578,1.108-1.352,3.2-1.689,6.806
		c4.51,1.689,5.018-4.536,5.018-4.536L26.184,13.315z"/>
	
		<path fill="#B7B7B7" stroke="#494949" stroke-width="1.5" stroke-linecap="round" stroke-linejoin="round" stroke-miterlimit="10" d="
		M36.186,13.176c3.084-0.94,3.547-2.102,3.547-2.102l-0.01-0.02c0.578,1.11,1.229,3.117,1.514,6.842
		C36.727,19.588,36.186,13.176,36.186,13.176z"/>
</g>
</svg>
