<?xml version="1.0" encoding="utf-8"?>
<!-- Generator: Adobe Illustrator 16.0.0, SVG Export Plug-In . SVG Version: 6.00 Build 0)  -->
<!DOCTYPE svg PUBLIC "-//W3C//DTD SVG 1.1//EN" "http://www.w3.org/Graphics/SVG/1.1/DTD/svg11.dtd">
<svg version="1.1" id="Layer_1" xmlns="http://www.w3.org/2000/svg" xmlns:xlink="http://www.w3.org/1999/xlink" x="0px" y="0px"
	 width="64px" height="64px" viewBox="0 0 64 64" enable-background="new 0 0 64 64" xml:space="preserve">
<g id="Woman_x2019_s_Pant">
	
		<path fill="#DDDDDC" stroke="#494949" stroke-width="1.5" stroke-linecap="round" stroke-linejoin="round" stroke-miterlimit="10" d="
		M37.333,10.057l0.44,1.766c3.088,5.944,1.623,13.743,1.623,13.743c-0.388,4.015,0.459,7.567,0.459,7.567
		c2.629,6.253,2.24,20.149,2.24,20.149l-6.058,1.083c-0.854-2.26-1.047-8.956-1.047-8.956c-0.153-4.323-1.62-9.808-1.62-9.808
		c-0.773-6.948-2.874-12.368-2.874-12.368L30.3,23.242c0,0-2.015,5.412-2.786,12.359c0,0-1.465,5.483-1.621,9.808
		c0,0-0.095,6.989-0.873,8.956l-5.885-1.104l-0.031,0.021c0,0-0.386-13.896,2.237-20.149c0,0,0.854-3.553,0.466-7.567
		c0,0-1.468-7.799,1.62-13.743l0.442-1.766h-0.006c1.995,2.149,6.013,2.151,6.536,2.151C35.665,11.822,37.333,10.057,37.333,10.057z
		"/>
</g>
</svg>
