<?xml version="1.0" encoding="utf-8"?>
<!-- Generator: Adobe Illustrator 16.0.0, SVG Export Plug-In . SVG Version: 6.00 Build 0)  -->
<!DOCTYPE svg PUBLIC "-//W3C//DTD SVG 1.1//EN" "http://www.w3.org/Graphics/SVG/1.1/DTD/svg11.dtd">
<svg version="1.1" id="Layer_1" xmlns="http://www.w3.org/2000/svg" xmlns:xlink="http://www.w3.org/1999/xlink" x="0px" y="0px"
	 width="64px" height="64px" viewBox="0 0 64 64" enable-background="new 0 0 64 64" xml:space="preserve">
<g id="Woman_x2019_s_T-shirt">
	<g>
		
			<path fill="#DDDDDC" stroke="#494949" stroke-width="1.5" stroke-linecap="round" stroke-linejoin="round" stroke-miterlimit="10" d="
			M37.786,8.996l1.733,1.754c0,0,2.311,0.33,3.742,0.33c1.428,0,4.067,0.663,4.506,2.423c0.439,1.755,2.529,10.993,2.64,11.542
			c0.108,0.553-2.64,1.98-5.39,1.542c-0.877-0.329-0.877-0.329-0.877-0.329s-0.459-2.359-0.354-0.801
			c0.013,0.188,0.248,0.923,0.207,1.532c0,0,0.128,2.542-1.619,4.989c-1.387,1.94,0.623,6.097,0.623,6.097s3.909,6.061,2.495,16.952
			c-16.349,4.711-27.855-0.07-27.855-0.07c-1.803-9.674,2.038-15.402,2.959-17.989c0.924-2.585-0.692-5.311-0.692-5.311
			c-2.022-2.656-1.275-6.172-1.275-6.172c0.106-1.1,0.106-1.982,0.106-1.982l-0.772,1.982c0,0-4.616,0.438-6.154-0.881
			c0.439-3.077,2.202-8.687,2.527-9.675c0.333-0.992,1.1-1.758,2.42-2.53c1.323-0.767,2.639-1.208,3.737-1.319
			c1.104-0.109,1.981,0,2.535-0.549c0.55-0.55,1.647-1.981,1.647-1.981S32.348,6.743,37.786,8.996z"/>
	</g>
	
		<path fill="#B7B7B7" stroke="#494949" stroke-width="1.5" stroke-linecap="round" stroke-linejoin="round" stroke-miterlimit="10" d="
		M37.786,8.996C32.348,6.743,24.677,8.55,24.677,8.55s-0.139,3.633,6.433,3.633C31.11,12.183,35.951,12.597,37.786,8.996z"/>
</g>
</svg>
