<?xml version="1.0" encoding="utf-8"?>
<!-- Generator: Adobe Illustrator 16.0.0, SVG Export Plug-In . SVG Version: 6.00 Build 0)  -->
<!DOCTYPE svg PUBLIC "-//W3C//DTD SVG 1.1//EN" "http://www.w3.org/Graphics/SVG/1.1/DTD/svg11.dtd">
<svg version="1.1" id="Layer_1" xmlns="http://www.w3.org/2000/svg" xmlns:xlink="http://www.w3.org/1999/xlink" x="0px" y="0px"
	 width="64px" height="64px" viewBox="0 0 64 64" enable-background="new 0 0 64 64" xml:space="preserve">
<g id="Woman_x2019_s_Coat">
	
		<path fill="#DDDDDC" stroke="#494949" stroke-width="1.5" stroke-linecap="round" stroke-linejoin="round" stroke-miterlimit="10" d="
		M31.07,48.859c-0.499,1.908-1.149,2.589-1.149,2.589l-0.319,0.085c-4.956,0.711-12.285-4.643-12.285-4.643
		c4.805-12.841,1.392-20.335,1.392-20.335l-6.384,16.362c-4.596,0.742-6.26-3.366-6.26-3.366l9.533-22.998l10.269-2.99l1.059-1.058
		c2.044,1.361,4.313,1.436,4.313,1.436h0.124c0,0,2.269-0.074,4.313-1.436l1.059,1.058l9.893,2.99l9.531,22.998
		c0,0-1.566,3.426-5.881,3.366l-6.498-15.532c0,0-3.375,9.223,0.541,19.992c0,0-7.5,4.938-11.618,4.223
		C32.7,51.6,31.671,51.45,31.07,48.859L31.07,48.859z"/>
	
		<path fill="#DDDDDC" stroke="#494949" stroke-width="1.5" stroke-linecap="round" stroke-linejoin="round" stroke-miterlimit="10" d="
		M31.07,48.859c0.602,2.591,1.63,2.74,1.63,2.74c4.116,0.717,11.618-4.223,11.618-4.223c-3.916-10.771-0.541-19.992-0.541-19.992
		l6.498,15.532c4.314,0.06,5.881-3.366,5.881-3.366l-9.531-22.998l-9.893-2.99l-1.059-1.058c0.832,9.004-4.061,19.823-4.061,19.823
		c-0.088,0.281-0.169,0.582-0.244,0.906c-0.938,4.106-0.735,11.197-0.735,11.197C30.636,46.324,30.83,47.831,31.07,48.859z"/>
	
		<path fill="#B7B7B7" stroke="#494949" stroke-width="1.5" stroke-linecap="round" stroke-linejoin="round" stroke-miterlimit="10" d="
		M31.613,32.329c-0.088,0.28-0.169,0.582-0.243,0.905C24.741,30.094,21.561,20.8,21.561,20.8l1.662-0.377
		c0,0-0.992-2.238,1.854-6.629l0.79-0.23l1.059-1.058C26.926,12.506,25.934,25.443,31.613,32.329z"/>
	
		<path fill="#B7B7B7" stroke="#494949" stroke-width="1.5" stroke-linecap="round" stroke-linejoin="round" stroke-miterlimit="10" d="
		M35.674,12.506c0.832,9.004-4.061,19.823-4.061,19.823c-0.088,0.28-0.169,0.582-0.244,0.905c6.087-4.229,9.336-12.436,9.336-12.436
		l-1.662-0.377c0,0,1.061-2.311-1.786-6.7l-0.524-0.159L35.674,12.506z"/>
	<path fill="none" stroke="#494949" stroke-width="1.5" stroke-linecap="round" stroke-linejoin="round" stroke-miterlimit="10" d="
		M31.613,32.329c-5.679-6.886-4.688-19.823-4.688-19.823l-1.059,1.058l-10.269,2.99L6.065,39.552c0,0,1.664,4.108,6.26,3.366
		l6.384-16.362c0,0,3.413,7.495-1.392,20.336c0,0,7.329,5.353,12.285,4.642l0.319-0.085c0,0,0.651-0.68,1.149-2.59
		c-0.24-1.027-0.434-2.534-0.436-4.426c0,0-0.203-7.091,0.735-11.197C31.444,32.911,31.525,32.609,31.613,32.329z"/>
	
		<path fill="#B7B7B7" stroke="#494949" stroke-width="1.5" stroke-linecap="round" stroke-linejoin="round" stroke-miterlimit="10" d="
		M26.926,12.506c0,0-0.992,12.938,4.688,19.823c0,0,4.893-10.819,4.061-19.823c-2.043,1.361-4.313,1.436-4.313,1.436h-0.124
		C31.238,13.941,28.97,13.867,26.926,12.506z"/>
</g>
</svg>
