<?xml version="1.0" encoding="utf-8"?>
<!-- Generator: Adobe Illustrator 16.0.0, SVG Export Plug-In . SVG Version: 6.00 Build 0)  -->
<!DOCTYPE svg PUBLIC "-//W3C//DTD SVG 1.1//EN" "http://www.w3.org/Graphics/SVG/1.1/DTD/svg11.dtd">
<svg version="1.1" id="Layer_1" xmlns="http://www.w3.org/2000/svg" xmlns:xlink="http://www.w3.org/1999/xlink" x="0px" y="0px"
	 width="64px" height="64px" viewBox="0 0 64 64" enable-background="new 0 0 64 64" xml:space="preserve">
<g id="Women_x2019_s_Short">
	<g id="_x34_52_1_">
		
			<path fill="#DDDDDC" stroke="#494949" stroke-width="1.5" stroke-linecap="round" stroke-linejoin="round" stroke-miterlimit="10" d="
			M46.986,14.209v4.161l4.93,14.771l2.828,13.342l-9.41,2.441l-11.973,0.205L30.81,36.455h-0.066L28.189,49.13l-12.041-0.135
			l-9.339-2.511l2.828-13.342l4.93-14.771V14.21C14.566,14.209,23.531,17.924,46.986,14.209z"/>
	</g>
	
		<path fill="#B7B7B7" stroke="#494949" stroke-width="1.5" stroke-linecap="round" stroke-linejoin="round" stroke-miterlimit="10" d="
		M46.986,18.273v-4.064c-23.455,3.715-32.42,0-32.42,0v4.161c0,0,3.833,3.177,15.589,3.177
		C30.155,21.546,42.555,21.451,46.986,18.273z"/>
	<g>
		<g>
			
				<path fill="none" stroke="#494949" stroke-width="1.5" stroke-linecap="round" stroke-linejoin="round" stroke-miterlimit="10" d="
				M29.92,19.644c0,0,0.882-3.336,3.369-1.823c0,0,0.619,3.439-3.134,3.726c-2.803,0.216-1.709,7.584-1.231,8.063"/>
			
				<path fill="none" stroke="#494949" stroke-width="1.5" stroke-linecap="round" stroke-linejoin="round" stroke-miterlimit="10" d="
				M30.335,21.12c0,0-0.833-4.812-3.264-2.813c0,0-0.078,3.028,3.285,3.215c1.63,0.093,1.238,6.472,2.124,7.396"/>
		</g>
	</g>
</g>
</svg>
