<?xml version="1.0" encoding="utf-8"?>
<!-- Generator: Adobe Illustrator 21.0.2, SVG Export Plug-In . SVG Version: 6.00 Build 0)  -->
<svg version="1.1" id="baseball" xmlns="http://www.w3.org/2000/svg" xmlns:xlink="http://www.w3.org/1999/xlink" x="0px" y="0px"
	 viewBox="0 0 128 128" style="enable-background:new 0 0 128 128;" xml:space="preserve">
<style type="text/css">
	.st0{fill:#3AD0F9;}
	.st1{fill:#FBD000;}
	.st2{fill:#F4B10B;}
	.st3{fill:#415E6D;}
	.st4{fill:#663210;}
	.st5{fill:#FFFFFF;}
	.st6{opacity:0.5;fill:#FFFFFF;}
	.st7{fill:#EAEAEA;}
</style>
<g>
	<circle class="st0" cx="64" cy="64" r="64"/>
	<path class="st1" d="M50.5,96.2c2.8-3.5,10-12.3,18-22.4c16.3-20.5,39.5-50.2,39.5-50.2c3.3-4.4,2.5-10.6-1.8-13.7
		c-4.3-3.1-10.4-1.8-13.4,2.8c0,0-20.9,31.6-34.8,54c-6.7,10.7-12,20.8-14.3,24.5C36.6,102.6,29.5,113,29.5,113
		c-0.9,1.4-1.8,2.5-2.3,3.5c0,0-1.8-1.1-2.9,0.5c-0.7,0.9-0.5,2.3,0.5,2.9l4.9,3.5c0.9,0.7,2.3,0.5,2.9-0.5c0.6-0.9,0.5-2.1-0.3-2.8
		c0.7-0.9,1.4-2.1,2.4-3.5C34.7,116.7,41.9,106.8,50.5,96.2z"/>
	<path class="st2" d="M105.1,9.1c0.7,3.6,0.2,7.6-3.1,12.9S82.8,47.5,66.5,69.7c-8.1,11-15.3,20.6-18.1,24.3
		c-8.6,11.6-15.8,22.2-15.8,22.2c-1,1.4-1.7,2.8-2.4,3.7c0.9,0.7,1.1,2,0.5,2.9c-0.2,0.3-0.4,0.5-0.7,0.7c0.9,0.5,2.1,0.2,2.7-0.6
		c0.6-0.9,0.5-2.1-0.3-2.8c0.7-0.9,1.4-2.1,2.4-3.5c0,0,7.3-9.8,15.8-20.5c2.8-3.5,10-12.3,18-22.4c16.3-20.5,39.5-50.2,39.5-50.2
		C111,19.7,110.1,11.5,105.1,9.1z"/>
	<path class="st3" d="M58.2,86.7l-8.5-5.8c-2.6,4.6-4.7,8.3-5.9,10.3C36.6,102.6,29.5,113,29.5,113c-0.4,0.6-0.8,1.2-1.2,1.7
		l5.2,3.6c0.3-0.5,0.7-1,1.1-1.6c0,0,7.3-9.8,15.8-20.5C52,94.3,54.7,91,58.2,86.7z"/>
	<path class="st4" d="M30.9,124.8L30.9,124.8c-0.6,0-1.3-0.2-1.8-0.6l-4.9-3.5c-1.4-1-1.7-2.9-0.7-4.3c0.8-1.1,1.7-1.3,2.4-1.3
		c0.3,0,0.6,0.1,0.9,0.1c0.3-0.5,0.6-1,1-1.5c0.3-0.4,0.6-0.8,0.9-1.3c0.1-0.1,7.2-10.5,14.3-21.8c0.9-1.4,2.2-3.7,3.9-6.6
		c2.7-4.7,6.3-11.2,10.5-17.8C71,44,91.8,12.5,92,12.1c2-3.1,5.4-5,9-5c2.1,0,4.1,0.6,5.8,1.9c2.3,1.6,3.7,4,4.2,6.8
		c0.5,2.9-0.3,5.9-2.1,8.3c-0.2,0.3-23.4,30-39.6,50.3C63.4,81.8,58,88.5,54.4,92.9c-1.3,1.6-2.4,2.9-3.1,3.9
		c-8.5,10.5-15.7,20.4-15.8,20.5c-0.5,0.6-0.9,1.2-1.2,1.8c-0.2,0.4-0.5,0.7-0.7,1.1c0.6,1,0.6,2.4-0.1,3.4
		C32.8,124.3,31.9,124.8,30.9,124.8z M25.8,117.1c-0.2,0-0.5,0.1-0.8,0.5c-0.4,0.5-0.2,1.2,0.3,1.5l4.9,3.5c0.2,0.1,0.4,0.2,0.6,0.2
		h0c0.4,0,0.7-0.2,0.9-0.5c0.3-0.5,0.2-1.1-0.2-1.5c-0.4-0.4-0.5-1-0.1-1.4c0.4-0.4,0.7-1,1.1-1.6c0.4-0.6,0.8-1.2,1.3-1.9
		c0.1-0.1,7.4-10,15.8-20.5c0.7-0.9,1.8-2.2,3.1-3.9c3.6-4.4,9-11.1,14.9-18.6c16.1-20.3,39.3-49.9,39.5-50.2c1.5-2,2.1-4.4,1.7-6.8
		c-0.3-2.2-1.5-4.2-3.3-5.5c-1.4-1-3-1.5-4.7-1.5c-2.9,0-5.6,1.5-7.3,4.1c-0.2,0.3-21,31.9-34.8,54c-4.1,6.6-7.8,13-10.4,17.7
		c-1.7,3-3,5.3-3.9,6.7c-7.1,11.3-14.2,21.7-14.3,21.8c-0.3,0.5-0.6,0.9-0.9,1.3c-0.5,0.8-1,1.4-1.3,2.1c-0.1,0.3-0.4,0.4-0.6,0.5
		c-0.3,0.1-0.6,0-0.8-0.1C26.5,117.3,26.2,117.1,25.8,117.1z"/>
	<path class="st5" d="M64,63.8c-0.2,0-0.4-0.1-0.5-0.2c-0.5-0.3-0.6-0.9-0.3-1.4l23.1-35.3c0.3-0.5,0.9-0.6,1.4-0.3
		c0.5,0.3,0.6,0.9,0.3,1.4L64.8,63.3C64.6,63.6,64.3,63.8,64,63.8z"/>
	<path class="st6" d="M57,27c1.6,0,3-1.1,3-2.5S58.6,22,57,22H20.4c-1.6,0-3,1.3-3,2.8c0,1.5,0,2.8,0,2.9c0,0,0,1.2,0,2.6
		s1.4,2.5,3,2.5h1.2c1.6,0,3,1.1,3,2.4s-1.4,2.4-3,2.4h-6.2c-1.6,0-3,1.2-3,2.6s0.7,2.6,1.6,2.6s1.6,1.1,1.6,2.4
		c0,1.3-0.3,2.4-0.6,2.4c-0.4,0-0.6,1.2-0.6,2.6s1.4,2.6,3,2.6H32c1.6,0,3-1.6,3-3s1.4-2,3-2h3c1.6,0,3-1.4,3-3s-1.1-3-2-3
		s-1-0.9-1-2s1.4-2,3-2h6c1.6,0,3-1.4,3-3s-1.6-3-3.2-3H36c-1.6,0-3-1.1-3-2.5s1.4-2.5,3-2.5H57z"/>
	<path class="st6" d="M65,35c0,1.6-1.4,3-3,3h-2c-1.6,0-3-1.4-3-3s1.2-3,2.8-3h2.5C64,32,65,33.4,65,35z"/>
	<path class="st5" d="M90.7,23c-0.2,0-0.4-0.1-0.5-0.2c-0.5-0.3-0.6-0.9-0.3-1.4l5.5-8.5c0.3-0.5,0.9-0.6,1.4-0.3
		c0.5,0.3,0.6,0.9,0.3,1.4l-5.5,8.5C91.3,22.8,91,23,90.7,23z"/>
	<circle class="st5" cx="16.6" cy="37.2" r="14.8"/>
	<path class="st7" d="M25.5,25.5c1.1,2.1,1.8,4.5,1.8,7c0,8.2-6.6,14.8-14.8,14.8c-3.4,0-6.5-1.1-9-3c2.5,4.6,7.4,7.8,13,7.8
		c8.2,0,14.8-6.6,14.8-14.8C31.3,32.5,29,28.2,25.5,25.5z"/>
	<path class="st4" d="M17,53C8.2,53,1,45.8,1,37c0-8.8,7.2-16,16-16c8.8,0,16,7.2,16,16C33,45.8,25.8,53,17,53z M17,23
		C9.3,23,3,29.3,3,37c0,7.7,6.3,14,14,14c7.7,0,14-6.3,14-14C31,29.3,24.7,23,17,23z"/>
	<path class="st4" d="M6.7,31.6c-2,0-3.4-0.3-3.4-0.3l0.4-2c0,0,5.3,1,10.9-1.3c5.4-2.2,6.4-4.9,6.4-4.9l1.9,0.6
		c0,0-1.3,3.5-7.5,6.1C12.1,31.3,8.9,31.6,6.7,31.6z"/>
	<path class="st4" d="M6.8,48.8c0,0,0.9-7.5,8.8-11c7.9-3.4,15.3,0.6,15.6,0.8c0.5,0.3,0.7,0.9,0.4,1.4c-0.3,0.5-0.9,0.7-1.4,0.4
		c-0.1,0-6.9-3.7-13.8-0.7c-6.8,3-7.7,9.4-7.7,9.4L6.8,48.8z"/>
	<path class="st4" d="M10.7,46.1c-0.2,0-0.3,0-0.5-0.1l-2.8-1.4C7,44.3,6.8,43.7,7,43.2c0.3-0.5,0.9-0.7,1.3-0.4l2.8,1.4
		c0.5,0.3,0.7,0.9,0.4,1.3C11.4,45.9,11,46.1,10.7,46.1z"/>
	<path class="st4" d="M12.7,43.5c-0.3,0-0.6-0.1-0.8-0.4L10.2,41c-0.4-0.4-0.3-1.1,0.1-1.4c0.4-0.4,1.1-0.3,1.4,0.1l1.8,2.2
		c0.4,0.4,0.3,1.1-0.1,1.4C13.2,43.4,13,43.5,12.7,43.5z"/>
	<path class="st4" d="M15.4,41.6c-0.4,0-0.8-0.2-0.9-0.6l-1.1-2.6c-0.2-0.5,0-1.1,0.5-1.3c0.5-0.2,1.1,0,1.3,0.5l1.1,2.6
		c0.2,0.5,0,1.1-0.5,1.3C15.7,41.6,15.5,41.6,15.4,41.6z"/>
	<path class="st4" d="M18.4,40.3c-0.5,0-0.9-0.3-1-0.8l-0.5-2.7c-0.1-0.5,0.3-1.1,0.8-1.2c0.5-0.1,1.1,0.3,1.2,0.8l0.5,2.7
		c0.1,0.5-0.3,1.1-0.8,1.2C18.5,40.3,18.5,40.3,18.4,40.3z"/>
	<path class="st4" d="M21.8,40C21.7,40,21.7,40,21.8,40c-0.6,0-1-0.5-1-1.1l0.2-3c0-0.6,0.5-1,1.1-0.9c0.6,0,1,0.5,0.9,1.1l-0.2,3
		C22.7,39.6,22.3,40,21.8,40z"/>
	<path class="st4" d="M24.9,40c-0.1,0-0.2,0-0.3,0c-0.5-0.2-0.8-0.7-0.7-1.3l0.8-2.7c0.2-0.5,0.7-0.8,1.3-0.7
		c0.5,0.2,0.8,0.7,0.7,1.3l-0.8,2.7C25.7,39.7,25.4,40,24.9,40z"/>
	<path class="st4" d="M27.8,40.9c-0.1,0-0.2,0-0.4-0.1c-0.5-0.2-0.8-0.8-0.6-1.3l1.2-2.9c0.2-0.5,0.8-0.8,1.3-0.6
		c0.5,0.2,0.8,0.8,0.6,1.3l-1.2,2.9C28.6,40.7,28.2,40.9,27.8,40.9z"/>
	<path class="st4" d="M6,33.1c-0.1,0-0.2,0-0.3,0c-0.5-0.2-0.8-0.7-0.7-1.3L6,28.9c0.2-0.5,0.7-0.8,1.3-0.7c0.5,0.2,0.8,0.7,0.7,1.3
		L7,32.4C6.8,32.8,6.4,33.1,6,33.1z"/>
	<path class="st4" d="M10,32.6c-0.5,0-0.9-0.4-1-0.9L8.8,29c-0.1-0.5,0.4-1,0.9-1.1c0.5-0.1,1,0.4,1.1,0.9l0.2,2.7
		C11.1,32,10.6,32.5,10,32.6C10.1,32.6,10,32.6,10,32.6z"/>
	<path class="st4" d="M13.6,32c-0.4,0-0.8-0.3-1-0.7l-0.8-2.7c-0.2-0.5,0.1-1.1,0.7-1.3c0.5-0.2,1.1,0.1,1.3,0.7l0.8,2.7
		c0.2,0.5-0.1,1.1-0.7,1.3C13.8,32,13.7,32,13.6,32z"/>
	<path class="st4" d="M17.2,30.6c-0.3,0-0.7-0.2-0.9-0.5l-1.5-2.4c-0.3-0.5-0.1-1.1,0.3-1.4c0.5-0.3,1.1-0.1,1.4,0.3L18,29
		c0.3,0.5,0.1,1.1-0.3,1.4C17.5,30.5,17.3,30.6,17.2,30.6z"/>
	<path class="st4" d="M20.2,28.5c-0.2,0-0.5-0.1-0.7-0.3l-1.9-1.8c-0.4-0.4-0.4-1-0.1-1.4c0.4-0.4,1-0.4,1.4-0.1l1.9,1.8
		c0.4,0.4,0.4,1,0.1,1.4C20.7,28.4,20.5,28.5,20.2,28.5z"/>
	<path class="st5" d="M73,109c0-1.1-1.6-2-3.3-2H55.8c-1.7,0-2.8,0.9-2.8,2s-1.3,2-2.7,2c-1.4,0-2.3,0.9-2.3,2s1.1,2,2.7,2h10
		c1.7,0,3.3-0.9,3.3-2s1.1-2,2.7-2h3C71.4,111,73,110.1,73,109z"/>
	<path class="st4" d="M115.4,11.5c-0.3,0-0.5-0.1-0.7-0.3c-0.4-0.4-0.4-1,0-1.4l6.4-6.4c0.4-0.4,1-0.4,1.4,0c0.4,0.4,0.4,1,0,1.4
		l-6.4,6.4C115.9,11.4,115.6,11.5,115.4,11.5z"/>
	<path class="st4" d="M110.1,8.5c-0.1,0-0.1,0-0.2,0c-0.5-0.1-0.9-0.6-0.8-1.2l1.3-6.4c0.1-0.5,0.6-0.9,1.2-0.8
		c0.5,0.1,0.9,0.6,0.8,1.2l-1.3,6.4C111,8.1,110.6,8.5,110.1,8.5z"/>
	<path class="st4" d="M118.4,16.7c-0.5,0-0.9-0.3-1-0.8c-0.1-0.5,0.2-1.1,0.8-1.2l6.4-1.3c0.5-0.1,1.1,0.2,1.2,0.8
		c0.1,0.5-0.2,1.1-0.8,1.2l-6.4,1.3C118.5,16.7,118.5,16.7,118.4,16.7z"/>
	<path class="st5" d="M63,17c-2.2,0-4-1.8-4-4c0-2.2,1.8-4,4-4c2.2,0,4,1.8,4,4C67,15.2,65.2,17,63,17z M63,10.9
		c-1.2,0-2.1,1-2.1,2.1c0,1.2,1,2.1,2.1,2.1c1.2,0,2.1-1,2.1-2.1C65.1,11.8,64.2,10.9,63,10.9z"/>
	<path class="st5" d="M81,94c-2.2,0-4-1.8-4-4c0-2.2,1.8-4,4-4c2.2,0,4,1.8,4,4C85,92.2,83.2,94,81,94z M81,87.9
		c-1.2,0-2.1,1-2.1,2.1c0,1.2,1,2.1,2.1,2.1c1.2,0,2.1-1,2.1-2.1C83.1,88.8,82.2,87.9,81,87.9z"/>
	<path class="st5" d="M96,62c-2.2,0-4-1.8-4-4c0-2.2,1.8-4,4-4c2.2,0,4,1.8,4,4C100,60.2,98.2,62,96,62z M96,55.9
		c-1.2,0-2.1,1-2.1,2.1c0,1.2,1,2.1,2.1,2.1c1.2,0,2.1-1,2.1-2.1C98.1,56.8,97.2,55.9,96,55.9z"/>
	<path class="st5" d="M39,73c-2.2,0-4-1.8-4-4c0-2.2,1.8-4,4-4c2.2,0,4,1.8,4,4C43,71.2,41.2,73,39,73z M39,66.9
		c-1.2,0-2.1,1-2.1,2.1c0,1.2,1,2.1,2.1,2.1c1.2,0,2.1-1,2.1-2.1C41.1,67.8,40.2,66.9,39,66.9z"/>
	<path class="st5" d="M26,97c-2.2,0-4-1.8-4-4c0-2.2,1.8-4,4-4c2.2,0,4,1.8,4,4C30,95.2,28.2,97,26,97z M26,90.9
		c-1.2,0-2.1,1-2.1,2.1c0,1.2,1,2.1,2.1,2.1c1.2,0,2.1-1,2.1-2.1C28.1,91.8,27.2,90.9,26,90.9z"/>
	<path class="st5" d="M23.8,69.1c0-0.4-0.4-0.8-1-0.9L21,68c-0.5-0.1-1.1-0.6-1.1-1.1L19.6,65c-0.1-0.5-0.5-1-0.9-1s-0.8,0.4-0.9,1
		l-0.3,1.9c-0.1,0.5-0.6,1.1-1.1,1.1l-1.9,0.3c-0.5,0.1-1,0.5-1,0.9s0.4,0.8,1,0.9l1.9,0.3c0.5,0.1,1.1,0.6,1.1,1.1l0.3,1.9
		c0.1,0.5,0.5,1,0.9,1s0.8-0.4,0.8-1l0.3-2.1c0.1-0.5,0.6-1,1.1-1.1l1.8-0.1C23.4,69.9,23.8,69.5,23.8,69.1z"/>
	<path class="st5" d="M92.6,107.3c0-0.4-0.4-0.8-1-0.9l-1.9-0.3c-0.5-0.1-1.1-0.6-1.1-1.1l-0.3-1.9c-0.1-0.5-0.5-1-0.9-1
		s-0.8,0.4-0.9,1l-0.3,1.9c-0.1,0.5-0.6,1.1-1.1,1.1l-1.9,0.3c-0.5,0.1-1,0.5-1,0.9c0,0.4,0.4,0.8,1,0.9l1.9,0.3
		c0.5,0.1,1.1,0.6,1.1,1.1l0.3,1.9c0.1,0.5,0.5,1,0.9,1s0.8-0.4,0.8-1l0.3-2.1c0.1-0.5,0.6-1,1.1-1.1l1.8-0.1
		C92.2,108,92.6,107.7,92.6,107.3z"/>
	<path class="st5" d="M116.1,49.6c0-0.4-0.4-0.8-1-0.9l-1.9-0.3c-0.5-0.1-1.1-0.6-1.1-1.1l-0.3-1.9c-0.1-0.5-0.5-1-0.9-1
		c-0.4,0-0.8,0.4-0.9,1l-0.3,1.9c-0.1,0.5-0.6,1.1-1.1,1.1l-1.9,0.3c-0.5,0.1-1,0.5-1,0.9c0,0.4,0.4,0.8,1,0.9l1.9,0.3
		c0.5,0.1,1.1,0.6,1.1,1.1l0.3,1.9c0.1,0.5,0.5,1,0.9,1c0.4,0,0.8-0.4,0.8-1l0.3-2.1c0.1-0.5,0.6-1,1.1-1.1l1.8-0.1
		C115.7,50.4,116.1,50,116.1,49.6z"/>
	<path class="st5" d="M119,73c0-1.1-1-2-2.3-2H115c-1.2,0-2-1-2-2c0-1-1.4-2-2.7-2H97c-1.2,0-2,1-2,2c0,1-0.9,2-2.1,2h-2.3
		c-1.2,0-2.6,0.9-2.6,2s1.4,2,2.6,2H97c1.2,0,2.3,0.2,2.3,1.1S98.2,78,97,78h-1.1c-1.2,0-2.9,0.9-2.9,2c0,1.1,1.6,2,2.9,2h6.1
		c1.2,0,2-1,2-2c0-1,0.8-2,2-2h2c1.2,0,2-1,2-2c0-1,0.6-1,1.9-1h4.9C118,75,119,74.1,119,73z"/>
</g>
</svg>
