<?xml version="1.0" encoding="utf-8"?>
<!-- Generator: Adobe Illustrator 21.0.2, SVG Export Plug-In . SVG Version: 6.00 Build 0)  -->
<svg version="1.1" id="city" xmlns="http://www.w3.org/2000/svg" xmlns:xlink="http://www.w3.org/1999/xlink" x="0px" y="0px"
	 viewBox="0 0 128 128" style="enable-background:new 0 0 128 128;" xml:space="preserve">
<style type="text/css">
	.st0{fill:#F99900;}
	.st1{opacity:0.5;fill:#FFFFFF;}
	.st2{fill:#6B3C1C;}
	.st3{fill:#AD5114;}
	.st4{fill:#993F0D;}
	.st5{fill:#3AD0F9;}
	.st6{fill:#FFFFFF;}
	.st7{fill:#EAEAEA;}
	.st8{fill:#D4D6D6;}
	.st9{fill:#415E6D;}
</style>
<g>
	<circle class="st0" cx="64" cy="64" r="64"/>
	<path class="st1" d="M90.3,17.9c0-0.4-0.4-0.8-1-0.9l-1.9-0.3c-0.5-0.1-1.1-0.6-1.1-1.1L86,13.7c-0.1-0.5-0.5-1-0.9-1
		c-0.4,0-0.8,0.4-0.9,1L84,15.6c-0.1,0.5-0.6,1.1-1.1,1.1L81,17c-0.5,0.1-1,0.5-1,0.9c0,0.4,0.4,0.8,1,0.9l1.9,0.3
		c0.5,0.1,1.1,0.6,1.1,1.1l0.3,1.9c0.1,0.5,0.5,1,0.9,1c0.4,0,0.8-0.4,0.8-1l0.3-2.1c0.1-0.5,0.6-1,1.1-1.1l1.8-0.1
		C89.8,18.6,90.3,18.3,90.3,17.9z"/>
	<path class="st1" d="M79,116.1c0-0.4-0.4-0.8-1-0.9l-1.9-0.3c-0.5-0.1-1.1-0.6-1.1-1.1l-0.3-1.9c-0.1-0.5-0.5-1-0.9-1
		c-0.4,0-0.8,0.4-0.9,1l-0.3,1.9c-0.1,0.5-0.6,1.1-1.1,1.1l-1.9,0.3c-0.5,0.1-1,0.5-1,0.9s0.4,0.8,1,0.9l1.9,0.3
		c0.5,0.1,1.1,0.6,1.1,1.1l0.3,1.9c0.1,0.5,0.5,1,0.9,1c0.4,0,0.8-0.4,0.8-1l0.3-2.1c0.1-0.5,0.6-1,1.1-1.1l1.8-0.1
		C78.6,116.9,79,116.5,79,116.1z"/>
	<path class="st1" d="M28.3,34.1c0-0.4-0.4-0.8-1-0.9L25.4,33c-0.5-0.1-1.1-0.6-1.1-1.1L24,30c-0.1-0.5-0.5-1-0.9-1s-0.8,0.4-0.9,1
		L22,31.8c-0.1,0.5-0.6,1.1-1.1,1.1L19,33.3c-0.5,0.1-1,0.5-1,0.9c0,0.4,0.4,0.8,1,0.9l1.9,0.3c0.5,0.1,1.1,0.6,1.1,1.1l0.3,1.9
		c0.1,0.5,0.5,1,0.9,1s0.8-0.4,0.8-1l0.3-2.1c0.1-0.5,0.6-1,1.1-1.1l1.8-0.1C27.8,34.9,28.3,34.5,28.3,34.1z"/>
	<path class="st1" d="M48,117c-2.2,0-4-1.8-4-4c0-2.2,1.8-4,4-4c2.2,0,4,1.8,4,4C52,115.2,50.2,117,48,117z M48,110.9
		c-1.2,0-2.1,1-2.1,2.1c0,1.2,1,2.1,2.1,2.1c1.2,0,2.1-1,2.1-2.1C50.1,111.8,49.2,110.9,48,110.9z"/>
	<path class="st1" d="M48,32c-2.2,0-4-1.8-4-4c0-2.2,1.8-4,4-4c2.2,0,4,1.8,4,4C52,30.2,50.2,32,48,32z M48,25.9
		c-1.2,0-2.1,1-2.1,2.1c0,1.2,1,2.1,2.1,2.1c1.2,0,2.1-1,2.1-2.1C50.1,26.8,49.2,25.9,48,25.9z"/>
	<path class="st2" d="M117.5,105H7c-0.6,0-1-0.4-1-1s0.4-1,1-1h110.5c0.6,0,1,0.4,1,1S118.1,105,117.5,105z"/>
	<rect x="10" y="49" class="st3" width="22" height="55"/>
	<rect x="11" y="54" class="st4" width="21" height="3"/>
	<path class="st2" d="M32,105H10c-0.6,0-1-0.4-1-1V49c0-0.6,0.4-1,1-1h22c0.6,0,1,0.4,1,1v55C33,104.5,32.6,105,32,105z M11,103h20
		V50H11V103z"/>
	<rect x="9" y="47" class="st3" width="23" height="6"/>
	<path class="st2" d="M32,54H9c-0.6,0-1-0.4-1-1v-6c0-0.6,0.4-1,1-1h23c0.6,0,1,0.4,1,1v6C33,53.5,32.6,54,32,54z M10,52h21v-4H10
		V52z"/>
	<rect x="13" y="57" class="st1" width="16" height="4"/>
	<path class="st2" d="M29,62H13c-0.6,0-1-0.4-1-1v-4c0-0.6,0.4-1,1-1h16c0.6,0,1,0.4,1,1v4C30,61.6,29.6,62,29,62z M14,60h14v-2H14
		V60z"/>
	<rect x="13" y="66" class="st1" width="16" height="4"/>
	<path class="st2" d="M29,71H13c-0.6,0-1-0.4-1-1v-4c0-0.6,0.4-1,1-1h16c0.6,0,1,0.4,1,1v4C30,70.6,29.6,71,29,71z M14,69h14v-2H14
		V69z"/>
	<rect x="13" y="75" class="st1" width="16" height="4"/>
	<path class="st2" d="M29,80H13c-0.6,0-1-0.4-1-1v-4c0-0.6,0.4-1,1-1h16c0.6,0,1,0.4,1,1v4C30,79.6,29.6,80,29,80z M14,78h14v-2H14
		V78z"/>
	<rect x="13" y="84" class="st1" width="16" height="4"/>
	<path class="st2" d="M29,89H13c-0.6,0-1-0.4-1-1v-4c0-0.6,0.4-1,1-1h16c0.6,0,1,0.4,1,1v4C30,88.6,29.6,89,29,89z M14,87h14v-2H14
		V87z"/>
	<rect x="13" y="93" class="st1" width="16" height="4"/>
	<path class="st2" d="M29,98H13c-0.6,0-1-0.4-1-1v-4c0-0.6,0.4-1,1-1h16c0.6,0,1,0.4,1,1v4C30,97.6,29.6,98,29,98z M14,96h14v-2H14
		V96z"/>
	<path class="st1" d="M29,51H12c-0.6,0-1-0.4-1-1s0.4-1,1-1h17c0.6,0,1,0.4,1,1S29.6,51,29,51z"/>
	<polygon class="st5" points="82,104 62,104 62,22.3 82,33.7 	"/>
	<path class="st2" d="M82,105H62c-0.6,0-1-0.4-1-1V22.3c0-0.4,0.2-0.7,0.5-0.9c0.3-0.2,0.7-0.2,1,0l20,11.3c0.3,0.2,0.5,0.5,0.5,0.9
		V104C83,104.6,82.6,105,82,105z M63,103h18V34.3L63,24.1V103z"/>
	<path class="st6" d="M66,64c-0.6,0-1-0.4-1-1V32c0-0.6,0.4-1,1-1c0.6,0,1,0.4,1,1v31C67,63.6,66.6,64,66,64z"/>
	<path class="st6" d="M72,99c-0.6,0-1-0.4-1-1V36c0-0.6,0.4-1,1-1c0.6,0,1,0.4,1,1v62C73,98.6,72.6,99,72,99z"/>
	<path class="st6" d="M77,99c-0.6,0-1-0.4-1-1V55c0-0.6,0.4-1,1-1c0.6,0,1,0.4,1,1v43C78,98.6,77.6,99,77,99z"/>
	<path class="st6" d="M77,51c-0.6,0-1-0.4-1-1V40c0-0.6,0.4-1,1-1c0.6,0,1,0.4,1,1v10C78,50.6,77.6,51,77,51z"/>
	<path class="st6" d="M65,10c0-1.1-1.3-2-3-2H48.1c-1.7,0-3,0.9-3,2s-1.1,2-2.5,2c-1.4,0-2.5,0.9-2.5,2s1.3,2,3,2h10
		c1.7,0,3-0.9,3-2s1.3-2,3-2h3C63.7,12,65,11.1,65,10z"/>
	<rect x="94" y="47" class="st7" width="21" height="57"/>
	<rect x="96.9" y="34" class="st7" width="14.3" height="13"/>
	<path class="st2" d="M114,105H94c-0.6,0-1-0.4-1-1V47c0-0.6,0.4-1,1-1h20c0.6,0,1,0.4,1,1v57C115,104.5,114.6,105,114,105z M95,103
		h18V48H95V103z"/>
	<rect x="97" y="43" class="st8" width="15" height="3"/>
	<path class="st2" d="M112,48H97c-0.6,0-1-0.4-1-1V34c0-0.6,0.4-1,1-1h15c0.6,0,1,0.4,1,1v13C113,47.6,112.6,48,112,48z M98,46h13
		V35H98V46z"/>
	<path class="st2" d="M101,35c-0.6,0-1-0.4-1-1v-9c0-0.6,0.4-1,1-1c0.6,0,1,0.4,1,1v9C102,34.6,101.6,35,101,35z"/>
	<path class="st2" d="M108,35c-0.6,0-1-0.4-1-1v-5c0-0.6,0.4-1,1-1c0.6,0,1,0.4,1,1v5C109,34.6,108.6,35,108,35z"/>
	<rect x="97" y="50" class="st2" width="2" height="3"/>
	<rect x="101" y="50" class="st2" width="2" height="3"/>
	<rect x="100" y="37" class="st2" width="2" height="3"/>
	<rect x="104" y="37" class="st2" width="2" height="3"/>
	<rect x="105" y="50" class="st2" width="2" height="3"/>
	<rect x="109" y="50" class="st2" width="2" height="3"/>
	<rect x="97" y="56" class="st2" width="2" height="3"/>
	<rect x="101" y="56" class="st2" width="2" height="3"/>
	<rect x="105" y="56" class="st2" width="2" height="3"/>
	<rect x="109" y="56" class="st2" width="2" height="3"/>
	<rect x="97" y="62" class="st2" width="2" height="3"/>
	<rect x="101" y="62" class="st2" width="2" height="3"/>
	<rect x="105" y="62" class="st2" width="2" height="3"/>
	<rect x="109" y="62" class="st2" width="2" height="3"/>
	<rect x="97" y="68" class="st2" width="2" height="3"/>
	<rect x="101" y="68" class="st2" width="2" height="3"/>
	<rect x="105" y="68" class="st2" width="2" height="3"/>
	<rect x="109" y="68" class="st2" width="2" height="3"/>
	<rect x="97" y="74" class="st2" width="2" height="3"/>
	<rect x="101" y="74" class="st2" width="2" height="3"/>
	<rect x="105" y="74" class="st2" width="2" height="3"/>
	<rect x="109" y="74" class="st2" width="2" height="3"/>
	<rect x="97" y="80" class="st2" width="2" height="3"/>
	<rect x="101" y="80" class="st2" width="2" height="3"/>
	<rect x="105" y="80" class="st2" width="2" height="3"/>
	<rect x="109" y="80" class="st2" width="2" height="3"/>
	<rect x="97" y="86" class="st2" width="2" height="3"/>
	<rect x="101" y="86" class="st2" width="2" height="3"/>
	<rect x="105" y="86" class="st2" width="2" height="3"/>
	<rect x="109" y="86" class="st2" width="2" height="3"/>
	<rect x="97" y="92" class="st2" width="2" height="3"/>
	<rect x="101" y="92" class="st2" width="2" height="3"/>
	<rect x="105" y="92" class="st2" width="2" height="3"/>
	<rect x="109" y="92" class="st2" width="2" height="3"/>
	<rect x="97" y="98" class="st2" width="2" height="3"/>
	<rect x="101" y="98" class="st2" width="2" height="3"/>
	<rect x="105" y="98" class="st2" width="2" height="3"/>
	<rect x="109" y="98" class="st2" width="2" height="3"/>
	<path class="st6" d="M109,42c-0.6,0-1-0.4-1-1v-4c0-0.6,0.4-1,1-1c0.6,0,1,0.4,1,1v4C110,41.6,109.6,42,109,42z"/>
	<rect x="32" y="38" class="st8" width="17" height="66"/>
	<path class="st2" d="M49,105H32c-0.6,0-1-0.4-1-1V38c0-0.6,0.4-1,1-1h17c0.6,0,1,0.4,1,1v66C50,104.5,49.6,105,49,105z M33,103h15
		V39H33V103z"/>
	<path class="st2" d="M38,105h-2c-0.6,0-1-0.4-1-1V43c0-0.6,0.4-1,1-1h2c0.6,0,1,0.4,1,1v61C39,104.6,38.6,105,38,105z"/>
	<path class="st2" d="M45,105h-2c-0.6,0-1-0.4-1-1V43c0-0.6,0.4-1,1-1h2c0.6,0,1,0.4,1,1v61C46,104.6,45.6,105,45,105z"/>
	<path class="st1" d="M44,101c-0.6,0-1-0.4-1-1V57c0-0.6,0.4-1,1-1c0.6,0,1,0.4,1,1v43C45,100.6,44.6,101,44,101z"/>
	<path class="st1" d="M44,53c-0.6,0-1-0.4-1-1v-8c0-0.6,0.4-1,1-1c0.6,0,1,0.4,1,1v8C45,52.6,44.6,53,44,53z"/>
	<path class="st1" d="M37,83c-0.6,0-1-0.4-1-1V58c0-0.6,0.4-1,1-1c0.6,0,1,0.4,1,1v24C38,82.6,37.6,83,37,83z"/>
	<rect x="49" y="67" class="st9" width="18" height="37"/>
	<path class="st2" d="M67,105H49c-0.6,0-1-0.4-1-1V67c0-0.6,0.4-1,1-1h18c0.6,0,1,0.4,1,1v37C68,104.6,67.6,105,67,105z M50,103h16
		V68H50V103z"/>
	<rect x="53" y="71" class="st5" width="10" height="33"/>
	<path class="st2" d="M63,105H53c-0.6,0-1-0.4-1-1V71c0-0.6,0.4-1,1-1h10c0.6,0,1,0.4,1,1v33C64,104.6,63.6,105,63,105z M54,103h8
		V72h-8V103z"/>
	<path class="st6" d="M55.5,86c-0.3,0-0.5-0.1-0.7-0.3c-0.4-0.4-0.4-1,0-1.4l3.5-3.5c0.4-0.4,1-0.4,1.4,0c0.4,0.4,0.4,1,0,1.4
		l-3.5,3.5C56,85.9,55.8,86,55.5,86z"/>
	<path class="st6" d="M55.5,79.5c-0.3,0-0.5-0.1-0.7-0.3c-0.4-0.4-0.4-1,0-1.4l3.5-3.5c0.4-0.4,1-0.4,1.4,0c0.4,0.4,0.4,1,0,1.4
		l-3.5,3.5C56,79.4,55.8,79.5,55.5,79.5z"/>
	<path class="st6" d="M55.5,99c-0.3,0-0.5-0.1-0.7-0.3c-0.4-0.4-0.4-1,0-1.4l3.5-3.5c0.4-0.4,1-0.4,1.4,0c0.4,0.4,0.4,1,0,1.4
		l-3.5,3.5C56,98.9,55.8,99,55.5,99z"/>
	<rect x="82" y="83" class="st9" width="12" height="21"/>
	<path class="st2" d="M94,105H82c-0.6,0-1-0.4-1-1V83c0-0.6,0.4-1,1-1h12c0.6,0,1,0.4,1,1v21C95,104.6,94.6,105,94,105z M83,103h10
		V84H83V103z"/>
	<rect x="85" y="86" class="st0" width="2" height="3"/>
	<rect x="89" y="86" class="st0" width="2" height="3"/>
	<rect x="85" y="91" class="st0" width="2" height="3"/>
	<rect x="89" y="91" class="st0" width="2" height="3"/>
	<rect x="85" y="96" class="st0" width="2" height="3"/>
	<rect x="89" y="96" class="st0" width="2" height="3"/>
</g>
</svg>
