<?xml version="1.0" encoding="utf-8"?>
<!-- Generator: Adobe Illustrator 21.0.2, SVG Export Plug-In . SVG Version: 6.00 Build 0)  -->
<svg version="1.1" id="hourglass" xmlns="http://www.w3.org/2000/svg" xmlns:xlink="http://www.w3.org/1999/xlink" x="0px" y="0px"
	 viewBox="0 0 128 128" style="enable-background:new 0 0 128 128;" xml:space="preserve">
<style type="text/css">
	.st0{fill:#3DB39E;}
	.st1{fill:#EAEAEA;}
	.st2{fill:#FBD000;}
	.st3{fill:#663210;}
	.st4{fill:#AD5114;}
	.st5{fill:#993F0D;}
	.st6{fill:#FFFFFF;}
	.st7{opacity:0.5;fill:#FFFFFF;}
</style>
<g>
	<circle class="st0" cx="64" cy="64" r="64"/>
	<path class="st1" d="M89,47V30.6H40V47c0,13.4,8.8,24.7,20.5,26.7c1.2,0.3,2.3,0.4,2.3,2.7c0,2.1-1.4,2.2-2.3,2.5
		C48.8,80.8,40,92.1,40,105.5v16.3h49v-16.3c0-13.4-8.8-24.7-20.5-26.7c-1-0.2-2,0.3-2-2.7c0-2,0.9-2.4,2-2.4
		C80.2,71.7,89,60.4,89,47z"/>
	<path class="st2" d="M70.7,95.8c-5-4.4-4.5-18.9-4.8-19.1c1-2.7,3.1-3.5,9-5.1c7.2-2,10.8-10.6,10.8-10.6H43.1
		c0.5,4.5,13.2,12.1,16.2,12.6c1.7,0.3,2.8,1.8,3.4,3.2c0,3-1.9,17.6-4.6,19.1c-2.8,1.5-17.6,6.2-17.6,6.2l-0.2,14.5h48v-14.5
		L70.7,95.8z"/>
	<path class="st3" d="M89,122.8H40c-0.6,0-1-0.4-1-1v-16.3c0-13.9,8.9-25.5,21.2-27.7c0.1,0,0.2-0.1,0.3-0.1
		c0.8-0.2,1.2-0.3,1.2-1.4c0-1.4-0.3-1.5-1.4-1.7C48,72.5,39,60.9,39,47V30.6c0-0.6,0.4-1,1-1h49c0.6,0,1,0.4,1,1V47
		c0,13.9-9,25.6-21.3,27.7c-0.7,0.1-1.2,0.1-1.2,1.5c0,1.3,0.2,1.6,0.2,1.6c0,0,0.2,0,0.4,0c0.2,0,0.4,0,0.6,0.1
		C81,79.9,90,91.6,90,105.5v16.3C90,122.4,89.6,122.8,89,122.8z M41,120.8h47v-15.3c0-12.9-8.3-23.7-19.6-25.7c-0.1,0-0.3,0-0.4,0
		c-1.5-0.1-2.4-0.8-2.4-3.6c0-2.1,1-3.3,2.9-3.4C79.7,70.7,88,59.9,88,47V31.6H41V47c0,12.9,8.3,23.7,19.6,25.7c0,0,0.1,0,0.1,0
		c1.2,0.3,3,0.6,3,3.7c0,2.6-1.8,3.1-2.7,3.3c-0.1,0-0.2,0.1-0.3,0.1c0,0-0.1,0-0.1,0C49.3,81.8,41,92.6,41,105.5V120.8z"/>
	<path class="st4" d="M94,32c0,2.2-1.8,4-4,4H39c-2.2,0-4-1.8-4-4v-2.5c0-2.2,1.8-4,4-4h51c2.2,0,4,1.8,4,4V32z"/>
	<path class="st5" d="M90,32H39c-2.1,0-3.7-1-4-3c0,0.1,0,0.3,0,0.4v2.5c0,2.2,1.8,4,4,4h51c2.2,0,4-1.8,4-4v-2.5c0-0.1,0-0.3,0-0.4
		C93.7,31,92.1,32,90,32z"/>
	<path class="st4" d="M94,120.5c0-2.2-1.8-4-4-4H39c-2.2,0-4,1.8-4,4v2.5c0,2.2,1.8,4,4,4h51c2.2,0,4-1.8,4-4V120.5z"/>
	<path class="st5" d="M90,124H39c-2.1,0-3.7-0.9-4-2.9c0,0.1,0,0.3,0,0.4v2.5c0,2.2,1.8,4,4,4h51c2.2,0,4-1.8,4-4v-2.5
		c0-0.1,0-0.3,0-0.4C93.7,123.1,92.1,124,90,124z"/>
	<path class="st3" d="M90,37H39c-2.8,0-5-2.2-5-5v-3c0-2.8,2.2-5,5-5h51c2.8,0,5,2.2,5,5v3C95,34.8,92.8,37,90,37z M39,26
		c-1.7,0-3,1.3-3,3v3c0,1.7,1.3,3,3,3h51c1.7,0,3-1.3,3-3v-3c0-1.7-1.3-3-3-3H39z"/>
	<path class="st3" d="M90,128H39c-2.8,0-5-2.2-5-5v-2c0-2.8,2.2-5,5-5h51c2.8,0,5,2.2,5,5v2C95,125.8,92.8,128,90,128z M39,118
		c-1.7,0-3,1.3-3,3v2c0,1.7,1.3,3,3,3h51c1.7,0,3-1.3,3-3v-2c0-1.7-1.3-3-3-3H39z"/>
	<path class="st6" d="M73.6,66.5c-0.3,0-0.7-0.2-0.9-0.5c-0.3-0.5-0.1-1.1,0.3-1.4c8.8-5.3,9.5-22.7,9.5-22.8c0-0.6,0.5-1,1-1
		c0.6,0,1,0.5,1,1c0,0.8-0.8,18.6-10.5,24.5C74,66.5,73.8,66.5,73.6,66.5z"/>
	<path class="st6" d="M83.9,108c-0.6,0-1.1-0.4-1.1-1c0-15.5-11.6-21.4-12-21.7c-0.5-0.3-0.7-0.8-0.4-1.3c0.3-0.5,0.9-0.7,1.4-0.4
		C72.4,83.9,85,90.3,85,107C85,107.6,84.5,108,83.9,108z"/>
	<path class="st6" d="M57.3,68.5c-0.1,0-0.3,0-0.4-0.1c-10-4.2-13.1-18.1-13.3-18.7c-0.1-0.5,0.2-1.1,0.8-1.2
		c0.5-0.1,1.1,0.2,1.2,0.8c0,0.1,3,13.5,12.1,17.3c0.5,0.2,0.8,0.8,0.5,1.3C58.1,68.3,57.7,68.5,57.3,68.5z"/>
	<path class="st7" d="M87.3,30h-43c-0.6,0-1-0.4-1-1s0.4-1,1-1h43c0.6,0,1,0.4,1,1S87.8,30,87.3,30z"/>
	<path class="st7" d="M88.6,122H65.3c-0.6,0-1-0.4-1-1s0.4-1,1-1h23.3c0.6,0,1,0.4,1,1S89.2,122,88.6,122z"/>
	<path class="st7" d="M57.3,122H48c-0.6,0-1-0.4-1-1s0.4-1,1-1h9.3c0.6,0,1,0.4,1,1S57.8,122,57.3,122z"/>
	<path class="st7" d="M24,57.8c-2.2,0-4-1.8-4-4c0-2.2,1.8-4,4-4c2.2,0,4,1.8,4,4C28,56,26.2,57.8,24,57.8z M24,51.6
		c-1.2,0-2.1,1-2.1,2.1c0,1.2,1,2.1,2.1,2.1c1.2,0,2.1-1,2.1-2.1C26.1,52.6,25.2,51.6,24,51.6z"/>
	<path class="st7" d="M105,70.9c-2.2,0-4-1.8-4-4c0-2.2,1.8-4,4-4c2.2,0,4,1.8,4,4C109,69.2,107.2,70.9,105,70.9z M105,64.9
		c-1.2,0-2.1,0.9-2.1,2.1c0,1.2,0.9,2.1,2.1,2.1c1.2,0,2.1-0.9,2.1-2.1C107.1,65.8,106.2,64.9,105,64.9z"/>
	<path class="st7" d="M25.5,84.3c0-0.4-0.4-0.8-1-0.9l-1.9-0.3c-0.5-0.1-1.1-0.6-1.1-1.1l-0.3-1.9c-0.1-0.5-0.5-1-0.9-1
		c-0.4,0-0.8,0.4-0.9,1l-0.3,1.9c-0.1,0.5-0.6,1.1-1.1,1.1l-1.9,0.3c-0.5,0.1-1,0.5-1,0.9s0.4,0.8,1,0.9l1.9,0.3
		c0.5,0.1,1.1,0.6,1.1,1.1l0.3,1.9c0.1,0.5,0.5,1,0.9,1c0.4,0,0.8-0.4,0.8-1l0.3-2.1c0.1-0.5,0.6-1,1.1-1.1l1.8-0.1
		C25.1,85.1,25.5,84.7,25.5,84.3z"/>
	<path class="st7" d="M110.2,41c0-0.4-0.4-0.8-1-0.9l-1.9-0.3c-0.5-0.1-1.1-0.6-1.1-1.1l-0.3-1.9c-0.1-0.5-0.5-1-0.9-1
		c-0.4,0-0.8,0.4-0.9,1l-0.3,1.9c-0.1,0.5-0.6,1.1-1.1,1.1l-1.9,0.3c-0.5,0.1-1,0.5-1,0.9s0.4,0.8,1,0.9l1.9,0.3
		c0.5,0.1,1.1,0.6,1.1,1.1l0.3,1.9c0.1,0.5,0.5,1,0.9,1c0.4,0,0.8-0.4,0.8-1l0.3-2.1c0.1-0.5,0.6-1,1.1-1.1l1.8-0.1
		C109.7,41.7,110.2,41.4,110.2,41z"/>
	<path class="st7" d="M57.2,12.7c0-0.4-0.4-0.8-1-0.9l-1.9-0.3c-0.5-0.1-1.1-0.6-1.1-1.1l-0.3-1.9c-0.1-0.5-0.5-1-0.9-1
		c-0.4,0-0.8,0.4-0.9,1l-0.3,1.9c-0.1,0.5-0.6,1.1-1.1,1.1l-1.9,0.3c-0.5,0.1-1,0.5-1,0.9c0,0.4,0.4,0.8,1,0.9l1.9,0.3
		c0.5,0.1,1.1,0.6,1.1,1.1l0.3,1.9c0.1,0.5,0.5,1,0.9,1c0.4,0,0.8-0.4,0.8-1l0.3-2.1c0.1-0.5,0.6-1,1.1-1.1l1.8-0.1
		C56.7,13.4,57.2,13.1,57.2,12.7z"/>
	<path class="st7" d="M108.2,93c0-0.4-0.4-0.8-1-0.9l-1.9-0.3c-0.5-0.1-1.1-0.6-1.1-1.1l-0.3-1.9c-0.1-0.5-0.5-1-0.9-1
		c-0.4,0-0.8,0.4-0.9,1l-0.3,1.9c-0.1,0.5-0.6,1.1-1.1,1.1l-1.9,0.3c-0.5,0.1-1,0.5-1,0.9s0.4,0.8,1,0.9l1.9,0.3
		c0.5,0.1,1.1,0.6,1.1,1.1l0.3,1.9c0.1,0.5,0.5,1,0.9,1c0.4,0,0.8-0.4,0.8-1l0.3-2.1c0.1-0.5,0.6-1,1.1-1.1l1.8-0.1
		C107.7,93.7,108.2,93.4,108.2,93z"/>
	<path class="st3" d="M100.7,128H28c-0.6,0-1-0.4-1-1s0.4-1,1-1h72.7c0.6,0,1,0.4,1,1S101.2,128,100.7,128z"/>
</g>
</svg>
