<?xml version="1.0" encoding="utf-8"?>
<!-- Generator: Adobe Illustrator 21.0.2, SVG Export Plug-In . SVG Version: 6.00 Build 0)  -->
<svg version="1.1" id="lifebuoy" xmlns="http://www.w3.org/2000/svg" xmlns:xlink="http://www.w3.org/1999/xlink" x="0px" y="0px"
	 viewBox="0 0 128 128" style="enable-background:new 0 0 128 128;" xml:space="preserve">
<style type="text/css">
	.st0{fill:#3AD0F9;}
	.st1{fill:#663210;}
	.st2{fill:#EAEAEA;}
	.st3{fill:#D4D6D6;}
	.st4{fill:#FF4848;}
	.st5{opacity:0.5;fill:#A81000;}
	.st6{opacity:0.5;fill:#FFFFFF;}
	.st7{fill:#FFFFFF;}
</style>
<g>
	<circle class="st0" cx="64" cy="64" r="64"/>
	<path class="st1" d="M12.8,66c-0.6,0-1-0.4-1-1c0-2.1-0.6-5.5-1.3-9.4c-2.3-12.5-5.8-31.3,4.7-41.5C25.6,4.1,43.2,6.9,56.1,9
		c4,0.7,7.5,1.2,9.9,1.2c0.6,0,1,0.4,1,1c0,0.5-0.4,1-1,1c-2.6,0-6.1-0.6-10.2-1.2c-12.5-2-29.5-4.8-39.3,4.6
		c-9.7,9.4-6.3,27.6-4.1,39.7c0.7,4,1.4,7.4,1.4,9.7C13.8,65.6,13.4,66,12.8,66z"/>
	<path class="st1" d="M36.9,121c-8.1,0-16-1.6-21.8-7.2c-10.5-10.2-7-29.1-4.7-41.6c0.7-3.9,1.3-7.3,1.3-9.4c0-0.6,0.4-1,1-1
		c0.6,0,1,0.4,1,1c0,2.3-0.6,5.8-1.4,9.8c-2.2,12.1-5.6,30.4,4.1,39.8c9.7,9.4,26.8,6.7,39.3,4.6c4.1-0.7,7.6-1.2,10.2-1.2
		c0.6,0,1,0.4,1,1c0,0.6-0.4,1-1,1c-2.4,0-5.9,0.6-9.9,1.2C50.3,119.9,43.5,121,36.9,121z"/>
	<path class="st1" d="M118.2,66c-0.6,0-1-0.4-1-1c0-2.3,0.6-5.7,1.4-9.7c2.2-12.1,5.6-30.3-4.1-39.7C104.7,6.2,87.6,9,75.1,11
		c-4.1,0.7-7.7,1.2-10.2,1.2c-0.6,0-1-0.4-1-1c0-0.5,0.5-1,1-1c2.4,0,5.9-0.6,9.9-1.2c12.9-2.1,30.6-5,41.1,5.1
		c10.5,10.1,7,29,4.7,41.5c-0.7,3.9-1.4,7.3-1.4,9.4C119.2,65.6,118.7,66,118.2,66z"/>
	<path class="st1" d="M94,121c-6.7,0-13.4-1.1-19.3-2c-4-0.7-7.5-1.2-9.9-1.2c-0.6,0-1-0.4-1-1c0-0.6,0.5-1,1-1
		c2.6,0,6.1,0.6,10.2,1.2c12.5,2,29.6,4.8,39.4-4.6c9.7-9.4,6.3-27.7,4.1-39.8c-0.7-4-1.4-7.5-1.4-9.8c0-0.6,0.4-1,1-1
		c0.6,0,1,0.4,1,1c0,2.1,0.6,5.5,1.4,9.4c2.3,12.5,5.8,31.4-4.7,41.6C110.1,119.4,102.2,121,94,121z"/>
	<path class="st2" d="M65.2,15c-27.1,0-49,21.9-49,49s21.9,49,49,49c27.1,0,49-21.9,49-49S92.2,15,65.2,15z M65.2,93
		c-16,0-29-13-29-29s13-29,29-29c16,0,29,13,29,29S81.2,93,65.2,93z"/>
	<path class="st2" d="M70,15.7c0,2.2-1.8,4-4,4h-0.3c-2.2,0-4-1.8-4-4v-5.3c0-2.2,1.8-4,4-4H66c2.2,0,4,1.8,4,4V15.7z"/>
	<path class="st2" d="M70,118.2c0,2.2-1.8,4-4,4h-0.3c-2.2,0-4-1.8-4-4v-5.3c0-2.2,1.8-4,4-4H66c2.2,0,4,1.8,4,4V118.2z"/>
	<path class="st3" d="M65.2,27.3c-16,0-29,13-29,29c0,1.3,0.1,2.6,0.3,3.8C38.3,46,50.5,35,65.2,35C79.9,35,92,46,93.9,60.2
		c0.2-1.3,0.3-2.5,0.3-3.8C94.2,40.3,81.2,27.3,65.2,27.3z"/>
	<path class="st3" d="M65.2,105.3c-25.8,0-46.9-19.9-48.8-45.2c-0.1,1.3-0.2,2.5-0.2,3.8c0,27.1,21.9,49,49,49c27.1,0,49-21.9,49-49
		c0-1.3-0.1-2.6-0.2-3.8C112.1,85.4,90.9,105.3,65.2,105.3z"/>
	<path class="st1" d="M65,114c-27.6,0-50-22.4-50-50s22.4-50,50-50s50,22.4,50,50S92.6,114,65,114z M65,16c-26.5,0-48,21.5-48,48
		c0,26.5,21.5,48,48,48c26.5,0,48-21.5,48-48C113,37.5,91.5,16,65,16z M65,94c-16.5,0-30-13.5-30-30s13.5-30,30-30s30,13.5,30,30
		S81.5,94,65,94z M65,36c-15.4,0-28,12.6-28,28s12.6,28,28,28c15.4,0,28-12.6,28-28S80.4,36,65,36z"/>
	<path class="st1" d="M66,20.7h-0.3c-2.8,0-5-2.2-4.7-5v-5.3C60.7,7.6,62.9,5,65.7,5H66c2.8,0,5,2.6,5,5.3v5.3
		C71,18.4,68.8,20.7,66,20.7z M65.7,7.3c-1.7,0-3,1.3-2.7,3v5.3c-0.3,1.7,1,3,2.7,3H66c1.7,0,3-1.3,3-3v-5.3c0-1.7-1.3-3-3-3H65.7z"
		/>
	<path class="st2" d="M114.4,68.4c-2.2,0-4-1.8-4-4v-0.3c0-2.2,1.8-4,4-4h5.3c2.2,0,4,1.8,4,4v0.3c0,2.2-1.8,4-4,4H114.4z"/>
	<path class="st2" d="M11.9,68.4c-2.2,0-4-1.8-4-4v-0.3c0-2.2,1.8-4,4-4h5.3c2.2,0,4,1.8,4,4v0.3c0,2.2-1.8,4-4,4H11.9z"/>
	<path class="st1" d="M66.2,123h-0.3c-2.7,0-4.8-2.1-4.8-4.8v-5.3c0-2.8,2.2-5,4.8-5h0.3c2.7,0,4.8,2.2,4.8,5v5.3
		C71,120.9,68.8,123,66.2,123z M65.7,109.9c-1.6,0-3,1.3-2.6,3v5.3c-0.3,1.7,1,3,2.6,3H66c1.6,0,3-1.3,3-3v-5.3c0-1.7-1.3-3-3-3
		H65.7z"/>
	<path class="st1" d="M119.8,69h-5.3c-2.8,0-5-2.2-5-4.8v-0.3c0-2.7,2.2-4.8,5-4.8h5.3c2.8,0,5.2,2.2,5.2,4.8v0.3
		C125,66.8,122.5,69,119.8,69z M114.4,61c-1.7,0.1-3,1.4-3,3.1v0.3c0,1.7,1.3,2.6,3,2.6h5.3c1.7,0,3-0.9,3-2.6v-0.3
		c0-1.7-1.3-3-3-3.1H114.4z"/>
	<path class="st1" d="M17.1,69h-5.2C9.1,69,7,66.8,7,64.2v-0.3c0-2.7,2.1-4.8,4.8-4.8h5.2c2.7,0,4.9,2.2,4.9,4.8v0.3
		C22,66.8,19.8,69,17.1,69z M11.9,60.9C10.3,60.9,9,62.3,9,64v0.3c0,1.7,1.4,2.6,3,2.6h5.8c1.6,0,2.2-0.9,2.2-2.6V64
		c0-1.7-1.3-3.1-2.9-3.1H11.9z"/>
	<path class="st4" d="M65.2,12.7c-10.3,0-19.8,3.1-27.7,8.4l13.5,20.7c4-2.8,9-4.5,14.3-4.5c5.3,0,10.2,1.7,14.3,4.5l13.5-20.7
		C85,15.8,75.4,12.7,65.2,12.7z"/>
	<path class="st4" d="M65.2,115.8c-10.3,0-19.8-3.1-27.7-8.4l13.5-20.7c4,2.8,9,4.5,14.3,4.5c5.3,0,10.2-1.7,14.3-4.5l13.5,20.7
		C85,112.7,75.4,115.8,65.2,115.8z"/>
	<path class="st5" d="M65.2,30c-6.8,0-13.1,2.1-18.3,5.6l4.1,6.3c4-2.8,9-4.5,14.3-4.5c5.3,0,10.2,1.7,14.3,4.5l4.1-6.3
		C78.3,32.1,72,30,65.2,30z"/>
	<path class="st4" d="M116.7,64.2c0-10.3-3.1-19.8-8.4-27.7L87.6,50c2.8,4,4.5,9,4.5,14.3c0,5.3-1.7,10.2-4.5,14.3l20.7,13.5
		C113.6,84,116.7,74.5,116.7,64.2z"/>
	<path class="st5" d="M65.2,108.1c-8.8,0-17-2.3-24.2-6.3l-3.6,5.5c7.9,5.3,17.5,8.4,27.7,8.4s19.8-3.1,27.7-8.4l-3.6-5.5
		C82.2,105.8,73.9,108.1,65.2,108.1z"/>
	<path class="st4" d="M13.6,64.2c0-10.3,3.1-19.8,8.4-27.7L42.8,50c-2.8,4-4.5,9-4.5,14.3c0,5.3,1.7,10.2,4.5,14.3L22,91.9
		C16.7,84,13.6,74.5,13.6,64.2z"/>
	<path class="st5" d="M42.8,50l-5.5-3.6c-3.4,5.1-5.4,11.2-5.4,17.8c0,6.6,2,12.7,5.4,17.8l5.5-3.6c-2.8-4-4.5-9-4.5-14.3
		C38.3,58.9,40,54,42.8,50z"/>
	<path class="st5" d="M87.6,50l5.5-3.6c3.4,5.1,5.4,11.2,5.4,17.8c0,6.6-2,12.7-5.4,17.8l-5.5-3.6c2.8-4,4.5-9,4.5-14.3
		C92,58.9,90.4,54,87.6,50z"/>
	<path class="st1" d="M79.4,42.8c-0.2,0-0.4-0.1-0.6-0.2c-4-2.8-8.8-4.7-13.7-4.7c-4.9,0-9.7,1.9-13.7,4.7c-0.2,0.2-0.5,0.2-0.8,0.2
		c-0.3-0.1-0.5-0.2-0.6-0.4L36.6,21.6c-0.3-0.5-0.2-1.1,0.3-1.4C45.3,14.6,55,12,65.2,12c10.1,0,19.9,2.6,28.3,8.3
		c0.5,0.3,0.6,0.9,0.3,1.4L80.3,42.4c-0.1,0.2-0.4,0.4-0.6,0.4C79.6,42.8,79.5,42.8,79.4,42.8z M65.2,36c5,0,9.8,1.8,14,4.4
		l12.4-19.1C83.7,16.3,74.4,14,65,14c-9.4,0-18.3,2.3-26.2,7.4l12.4,19.1C55.4,37.8,60.2,36,65.2,36z"/>
	<path class="st1" d="M65.2,117c-10.1,0-19.9-3.2-28.3-8.8c-0.5-0.3-0.6-0.9-0.3-1.4l13.5-20.7c0.1-0.2,0.4-0.4,0.6-0.4
		c0.3-0.1,0.5,0,0.8,0.2c4,2.8,8.8,4.2,13.7,4.2c4.9,0,9.7-1.4,13.7-4.2c0.2-0.2,0.5-0.2,0.8-0.2c0.3,0.1,0.5,0.2,0.6,0.4l13.5,20.7
		c0.3,0.5,0.2,1.1-0.3,1.4C85.1,113.8,75.3,117,65.2,117z M38.8,107.1c7.9,5.1,16.9,7.9,26.3,7.9c9.4,0,18.5-2.9,26.3-7.9L79.2,88
		c-4.2,2.7-9,4-14,4c-5,0-9.8-1.3-14-4L38.8,107.1z"/>
	<path class="st1" d="M108.3,92.9c-0.2,0-0.4-0.1-0.5-0.2L87,79.3c-0.2-0.1-0.4-0.4-0.4-0.6c-0.1-0.3,0-0.5,0.2-0.8
		c2.8-4,4.3-8.8,4.3-13.7c0-4.9-1.5-9.7-4.3-13.7c-0.2-0.2-0.2-0.5-0.2-0.8c0.1-0.3,0.2-0.5,0.4-0.6l20.7-13.5
		c0.5-0.3,1.1-0.2,1.4,0.3c5.6,8.4,8.9,18.1,8.9,28.3c0,10.1-3.2,19.9-8.9,28.3C108.9,92.8,108.6,92.9,108.3,92.9z M89,78.2
		L108,90.6c5.1-7.9,8-16.9,8-26.3c0-9.4-2.9-18.5-8-26.3L89,50.2c2.7,4.2,4,9,4,14C93,69.2,91.6,74,89,78.2z"/>
	<path class="st1" d="M22.1,92.9c-0.3,0-0.6-0.2-0.8-0.4C15.6,84.1,13,74.4,13,64.2c0-10.1,2.6-19.9,8.2-28.3
		c0.3-0.5,0.9-0.6,1.4-0.3l20.7,13.5c0.2,0.1,0.4,0.4,0.4,0.6c0.1,0.3,0,0.5-0.2,0.8c-2.8,4-4.6,8.8-4.6,13.7
		c0,4.9,1.8,9.7,4.6,13.7c0.2,0.2,0.2,0.5,0.2,0.8c-0.1,0.3-0.2,0.5-0.4,0.6L22.6,92.8C22.4,92.9,22.2,92.9,22.1,92.9z M22.3,37.9
		C17.3,45.7,15,54.8,15,64.2c0,9.4,2.3,18.5,7.3,26.3l19.1-12.4c-2.7-4.2-4.4-9-4.4-14c0-5,1.7-9.8,4.4-14L22.3,37.9z"/>
	<path class="st6" d="M23.1,83.6c-0.4,0-0.7-0.2-0.9-0.6c-2.7-6-4-12.4-4-19c0-7.1,1.6-14,4.6-20.4c0.2-0.5,0.8-0.7,1.3-0.5
		c0.5,0.2,0.7,0.8,0.5,1.3c-2.9,6.1-4.4,12.7-4.4,19.5c0,6.3,1.3,12.5,3.8,18.2c0.2,0.5,0,1.1-0.5,1.3
		C23.4,83.6,23.2,83.6,23.1,83.6z"/>
	<path class="st6" d="M47.3,22.6c-0.4,0-0.8-0.2-0.9-0.6c-0.2-0.5,0-1.1,0.5-1.3c2.4-1,4.9-1.8,7.5-2.4c0.5-0.1,1.1,0.2,1.2,0.7
		c0.1,0.5-0.2,1.1-0.7,1.2c-2.4,0.6-4.8,1.4-7.1,2.3C47.5,22.6,47.4,22.6,47.3,22.6z"/>
	<path class="st6" d="M84.8,23.4c-0.1,0-0.3,0-0.4-0.1c-6-2.8-12.5-4.3-19.2-4.3c-1.5,0-3,0.1-4.4,0.2c-0.6,0.1-1-0.3-1.1-0.9
		c-0.1-0.5,0.3-1,0.9-1.1c1.5-0.1,3.1-0.2,4.6-0.2c7,0,13.8,1.5,20.1,4.5c0.5,0.2,0.7,0.8,0.5,1.3C85.5,23.2,85.2,23.4,84.8,23.4z"
		/>
	<path class="st6" d="M111.2,65c-0.6,0-1-0.4-1-1c0-6.8-1.5-13.3-4.4-19.4c-0.2-0.5,0-1.1,0.5-1.3c0.5-0.2,1.1,0,1.3,0.5
		c3,6.4,4.6,13.2,4.6,20.3C112.2,64.6,111.7,65,111.2,65z"/>
	<path class="st6" d="M65.2,97c-4.5,0-8.8-0.9-12.9-2.6c-0.5-0.2-0.7-0.8-0.5-1.3c0.2-0.5,0.8-0.7,1.3-0.5C56.9,94.2,61,95,65.2,95
		c4.4,0,8.7-0.9,12.6-2.7c0.5-0.2,1.1,0,1.3,0.5c0.2,0.5,0,1.1-0.5,1.3C74.4,96,69.9,97,65.2,97z"/>
	<path class="st7" d="M76,69c-2.2,0-4-1.8-4-4c0-2.2,1.8-4,4-4c2.2,0,4,1.8,4,4C80,67.2,78.2,69,76,69z M76,62.9
		c-1.2,0-2.1,1-2.1,2.1c0,1.2,1,2.1,2.1,2.1c1.2,0,2.1-1,2.1-2.1C78.1,63.8,77.2,62.9,76,62.9z"/>
	<path class="st7" d="M61.8,58.8c0-0.4-0.4-0.8-1-0.9L59,57.6c-0.5-0.1-1.1-0.6-1.1-1.1l-0.3-1.9c-0.1-0.5-0.5-1-0.9-1
		c-0.4,0-0.8,0.4-0.9,1l-0.3,1.9c-0.1,0.5-0.6,1.1-1.1,1.1l-1.9,0.3c-0.5,0.1-1,0.5-1,0.9c0,0.4,0.4,0.8,1,0.9l1.9,0.3
		c0.5,0.1,1.1,0.6,1.1,1.1l0.3,1.9c0.1,0.5,0.5,1,0.9,1c0.4,0,0.8-0.4,0.8-1l0.3-2.1c0.1-0.5,0.6-1,1.1-1.1l1.8-0.1
		C61.4,59.5,61.8,59.2,61.8,58.8z"/>
	<path class="st7" d="M115.6,43.3c0-0.4-0.4-0.8-1-0.9l-4.8-0.8c-0.5-0.1-1.1-0.6-1.2-1.2l-0.8-4.8c-0.1-0.5-0.5-1-0.9-1
		c-0.4,0-0.8,0.4-0.9,1l-0.8,4.8c-0.1,0.5-0.6,1.1-1.2,1.2l-4.8,0.8c-0.5,0.1-1,0.5-1,0.9c0,0.4,0.4,0.8,1,0.9l4.7,0.6
		c0.5,0.1,1.1,0.6,1.2,1.1l0.9,5c0.1,0.5,0.5,1,0.9,1c0.4,0,0.8-0.4,0.9-1l0.9-5.1c0.1-0.5,0.6-1,1.2-1.1l4.7-0.6
		C115.2,44.2,115.6,43.8,115.6,43.3z"/>
</g>
</svg>
