<?xml version="1.0" encoding="utf-8"?>
<!-- Generator: Adobe Illustrator 21.0.2, SVG Export Plug-In . SVG Version: 6.00 Build 0)  -->
<svg version="1.1" id="smart_x5F_watch" xmlns="http://www.w3.org/2000/svg" xmlns:xlink="http://www.w3.org/1999/xlink" x="0px"
	 y="0px" viewBox="0 0 128 128" style="enable-background:new 0 0 128 128;" xml:space="preserve">
<style type="text/css">
	.st0{fill:#FF4848;}
	.st1{fill:#FBD000;}
	.st2{fill:#F4B10B;}
	.st3{fill:#EAEAEA;}
	.st4{fill:#663210;}
	.st5{fill:#415E6D;}
	.st6{fill:#3AD0F9;}
	.st7{fill:#75B600;}
	.st8{fill:#D4D6D6;}
	.st9{opacity:0.5;fill:#FFFFFF;}
	.st10{fill:#FFFFFF;}
</style>
<g>
	<circle class="st0" cx="64.1" cy="64" r="64"/>
	<path class="st1" d="M83.8,13.4c-0.6-2.1-3-3.8-5.2-3.8H49.7c-2.2,0-4.5,1.7-5.2,3.8l-3.3,10.9c-0.6,2.1,0.6,3.8,2.8,3.8h40.3
		c2.2,0,3.5-1.7,2.8-3.8L83.8,13.4z"/>
	<path class="st2" d="M41.2,23.8c-0.6,2.1,0.6,3.8,2.8,3.8h40.3c2.2,0,3.5-1.7,2.8-3.8L85.6,19h-43L41.2,23.8z"/>
	<path class="st1" d="M84.5,114.7c-0.6,2.1-3,3.8-5.2,3.8H50.5c-2.2,0-4.5-1.7-5.2-3.8L42,103.8c-0.6-2.1,0.6-3.8,2.8-3.8H85
		c2.2,0,3.5,1.7,2.8,3.8L84.5,114.7z"/>
	<path class="st2" d="M41.8,104.1c-0.6-2.1,0.6-3.8,2.8-3.8h40.2c2.2,0,3.5,1.7,2.8,3.8l-1.5,4.8h-43L41.8,104.1z"/>
	<path class="st3" d="M100.4,60.7c0,2.2-1.8,4-4,4h-2.5c-2.2,0-4-1.8-4-4v-12c0-2.2,1.8-4,4-4h2.5c2.2,0,4,1.8,4,4V60.7z"/>
	<path class="st3" d="M100.4,78.2c0,2.2-1.8,4-4,4h-2.5c-2.2,0-4-1.8-4-4v-2c0-2.2,1.8-4,4-4h2.5c2.2,0,4,1.8,4,4V78.2z"/>
	<path class="st4" d="M96,65.7h-2.1c-2.8,0-5-2.2-5-5v-12c0-2.8,2.2-5,5-5H96c2.8,0,5,2.2,5,5v12C101,63.4,98.8,65.7,96,65.7z
		 M93.9,45.7c-1.7,0-3,1.3-3,3v12c0,1.7,1.3,3,3,3H96c1.7,0,3-1.3,3-3v-12c0-1.7-1.3-3-3-3H93.9z"/>
	<path class="st4" d="M96,83.2h-2.1c-2.8,0-5-2.2-5-5v-2c0-2.8,2.2-5,5-5H96c2.8,0,5,2.2,5,5v2C101,80.9,98.8,83.2,96,83.2z
		 M93.9,73.2c-1.7,0-3,1.3-3,3v2c0,1.7,1.3,3,3,3H96c1.7,0,3-1.3,3-3v-2c0-1.7-1.3-3-3-3H93.9z"/>
	<path class="st4" d="M84.3,29.1H44c-1.4,0-2.6-0.6-3.3-1.5c-0.7-1-0.9-2.3-0.5-3.6l3.4-11.4C44.4,10,47,8,49.7,8h28.9
		c2.7,0,5.3,2,6.1,4.5L88.1,24c0.4,1.3,0.2,2.6-0.5,3.6C86.9,28.5,85.7,29.1,84.3,29.1z M49.7,10c-1.8,0-3.7,1.4-4.2,3.1l-3.4,11.4
		c-0.2,0.7-0.1,1.4,0.2,1.8c0.3,0.5,0.9,0.7,1.7,0.7h40.3c0.7,0,1.3-0.3,1.7-0.7c0.3-0.5,0.4-1.1,0.2-1.8l-3.4-11.4
		c-0.5-1.7-2.4-3.1-4.2-3.1H49.7z"/>
	<path class="st4" d="M79.4,120H50.5c-2.7,0-5.3-2-6.1-4.5L41,104.2c-0.4-1.3-0.2-2.6,0.5-3.6c0.7-1,1.9-1.5,3.3-1.5H85
		c1.4,0,2.6,0.6,3.3,1.5c0.7,1,0.9,2.3,0.5,3.6l-3.4,11.2C84.7,118,82,120,79.4,120z M44.8,101.1c-0.7,0-1.3,0.3-1.7,0.7
		c-0.3,0.5-0.4,1.1-0.2,1.8l3.4,11.2c0.5,1.7,2.4,3.1,4.2,3.1h28.9c1.8,0,3.7-1.4,4.2-3.1l3.4-11.2c0.2-0.7,0.1-1.4-0.2-1.8
		c-0.3-0.5-0.9-0.7-1.7-0.7H44.8z"/>
	<path class="st3" d="M96.2,94.2c0,4.4-3.6,8-8,8h-48c-4.4,0-8-3.6-8-8v-60c0-4.4,3.6-8,8-8h48c4.4,0,8,3.6,8,8V94.2z"/>
	<path class="st5" d="M89.4,89.2c0,3.3-2.7,6-6,6H44.9c-3.3,0-6-2.7-6-6V39c0-3.3,2.7-6,6-6l38.5,0.2c3.3,0,6,2.7,6,6V89.2z"/>
	<circle class="st3" cx="64" cy="66" r="7"/>
	<circle class="st0" cx="64" cy="49" r="6"/>
	<circle class="st6" cx="50" cy="54" r="4"/>
	<circle class="st3" cx="51.5" cy="43.5" r="3.5"/>
	<circle class="st0" cx="51.5" cy="86.5" r="3.5"/>
	<circle class="st3" cx="50" cy="76" r="4"/>
	<circle class="st7" cx="48" cy="65" r="4"/>
	<circle class="st7" cx="78" cy="54" r="4"/>
	<circle class="st1" cx="76.5" cy="43.5" r="3.5"/>
	<path class="st8" d="M88.2,99h-48c-4.4,0-8-3.6-8-8v2.8c0,4.4,3.6,8.2,8,8.2h48c4.4,0,8-3.8,8-8.2V91C96.2,95.4,92.6,99,88.2,99z"
		/>
	<circle class="st3" cx="76.5" cy="86.5" r="3.5"/>
	<ellipse class="st6" cx="78" cy="76" rx="4" ry="4"/>
	<circle class="st3" cx="80" cy="65" r="4"/>
	<circle class="st1" cx="64" cy="83" r="6"/>
	<path class="st4" d="M88,104H40c-5,0-9-4-9-9V34c0-5,4-9,9-9h48c5,0,9,4,9,9v61C97,100,93,104,88,104z M40,27c-3.9,0-7,3.1-7,7v61
		c0,3.9,3.1,7,7,7h48c3.9,0,7-3.1,7-7V34c0-3.9-3.1-7-7-7H40z"/>
	<path class="st4" d="M83,96H44.9C41,96,38,92.9,38,89V40c0-3.9,3-7,6.9-7H83c3.9,0,7,3.1,7,7v49C90,92.9,86.9,96,83,96z M44.9,35
		c-2.8,0-5,2.2-5,5v49c0,2.8,2.2,5,5,5H83c2.8,0,5-2.2,5-5V40c0-2.8-2.2-5-5-5H44.9z"/>
	<path class="st9" d="M118.8,69c0-0.4-0.4-0.8-1-0.9l-1.9-0.3c-0.5-0.1-1.1-0.6-1.1-1.1l-0.3-1.9c-0.1-0.5-0.5-1-0.9-1
		c-0.4,0-0.8,0.4-0.9,1l-0.3,1.9c-0.1,0.5-0.6,1.1-1.1,1.1l-1.9,0.3c-0.5,0.1-1,0.5-1,0.9c0,0.4,0.4,0.8,1,0.9l1.9,0.3
		c0.5,0.1,1.1,0.6,1.1,1.1l0.3,1.9c0.1,0.5,0.5,1,0.9,1c0.4,0,0.8-0.4,0.8-1l0.3-2.1c0.1-0.5,0.6-1,1.1-1.1l1.8-0.1
		C118.3,69.8,118.8,69.4,118.8,69z"/>
	<path class="st9" d="M23.6,85.1c0-0.4-0.4-0.8-1-0.9L20.7,84c-0.5-0.1-1.1-0.6-1.1-1.1L19.3,81c-0.1-0.5-0.5-1-0.9-1
		s-0.8,0.4-0.9,1l-0.3,1.9c-0.1,0.5-0.6,1.1-1.1,1.1l-1.9,0.3c-0.5,0.1-1,0.5-1,0.9c0,0.4,0.4,0.8,1,0.9l1.9,0.3
		c0.5,0.1,1.1,0.6,1.1,1.1l0.3,1.9c0.1,0.5,0.5,1,0.9,1s0.8-0.4,0.8-1l0.3-2.1c0.1-0.5,0.6-1,1.1-1.1l1.8-0.1
		C23.1,85.9,23.6,85.5,23.6,85.1z"/>
	<path class="st9" d="M25.2,40.5c0-0.4-0.4-0.8-1-0.9l-1.9-0.3c-0.5-0.1-1.1-0.6-1.1-1.1L21,36.3c-0.1-0.5-0.5-1-0.9-1
		c-0.4,0-0.8,0.4-0.9,1L19,38.2c-0.1,0.5-0.6,1.1-1.1,1.1L16,39.6c-0.5,0.1-1,0.5-1,0.9c0,0.4,0.4,0.8,1,0.9l1.9,0.3
		c0.5,0.1,1.1,0.6,1.1,1.1l0.3,1.9c0.1,0.5,0.5,1,0.9,1c0.4,0,0.8-0.4,0.8-1l0.3-2.1c0.1-0.5,0.6-1,1.1-1.1l1.8-0.1
		C24.8,41.2,25.2,40.9,25.2,40.5z"/>
	<path class="st9" d="M15,64c-2.2,0-4-1.8-4-4c0-2.2,1.8-4,4-4c2.2,0,4,1.8,4,4C19,62.2,17.2,64,15,64z M15,57.9
		c-1.2,0-2.1,1-2.1,2.1c0,1.2,1,2.1,2.1,2.1c1.2,0,2.1-1,2.1-2.1C17.1,58.8,16.2,57.9,15,57.9z"/>
	<path class="st9" d="M111.5,52c-2.5,0-4.5-2-4.5-4.5c0-2.5,2-4.5,4.5-4.5c2.5,0,4.5,2,4.5,4.5C116,50,114,52,111.5,52z M111.5,45
		c-1.4,0-2.5,1.1-2.5,2.5c0,1.4,1.1,2.5,2.5,2.5c1.4,0,2.5-1.1,2.5-2.5C114,46.1,112.9,45,111.5,45z"/>
	<path class="st10" d="M93.2,93c-0.6,0-1-0.4-1-1V35c0-2.8-2.2-5-5-5H59.8c-0.6,0-1-0.4-1-1c0-0.6,0.4-1,1-1h27.4c3.9,0,7,3.1,7,7
		v57C94.2,92.6,93.7,93,93.2,93z"/>
	<path class="st10" d="M52.5,30H41.1c-0.6,0-1-0.4-1-1s0.4-1,1-1h11.4c0.6,0,1,0.4,1,1S53.1,30,52.5,30z"/>
	<path class="st10" d="M78.3,14H50.5c-0.6,0-1-0.4-1-1s0.4-1,1-1h27.8c0.6,0,1,0.4,1,1S78.9,14,78.3,14z"/>
	<path class="st10" d="M79.7,116H67c-0.6,0-1-0.4-1-1s0.4-1,1-1h12.7c0.6,0,1,0.4,1,1S80.2,116,79.7,116z"/>
	<path class="st10" d="M61,116h-7.3c-0.6,0-1-0.4-1-1s0.4-1,1-1H61c0.6,0,1,0.4,1,1S61.6,116,61,116z"/>
</g>
</svg>
