<?xml version="1.0" encoding="utf-8"?>
<!-- Generator: Adobe Illustrator 21.0.2, SVG Export Plug-In . SVG Version: 6.00 Build 0)  -->
<svg version="1.1" id="spring" xmlns="http://www.w3.org/2000/svg" xmlns:xlink="http://www.w3.org/1999/xlink" x="0px" y="0px"
	 viewBox="0 0 128 128" style="enable-background:new 0 0 128 128;" xml:space="preserve">
<style type="text/css">
	.st0{fill:#6AE5E1;}
	.st1{fill:#FFFFFF;}
	.st2{fill:#AD5114;}
	.st3{fill:#993F0D;}
	.st4{fill:#6B3C1C;}
	.st5{fill:#FBD000;}
	.st6{fill:#75B600;}
	.st7{fill:#5C8E0D;}
	.st8{opacity:0.5;fill:#FFFFFF;}
</style>
<g>
	<circle class="st0" cx="64" cy="64" r="64"/>
	<path class="st1" d="M115,68c-2.2,0-4-1.8-4-4c0-2.2,1.8-4,4-4c2.2,0,4,1.8,4,4C119,66.2,117.2,68,115,68z M115,61.9
		c-1.2,0-2.1,1-2.1,2.1c0,1.2,1,2.1,2.1,2.1c1.2,0,2.1-1,2.1-2.1C117.1,62.8,116.2,61.9,115,61.9z"/>
	<path class="st1" d="M35.8,92c0-0.4-0.4-0.7-0.9-0.8l-1.8-0.3c-0.5-0.1-1-0.6-1.1-1.1L31.7,88c-0.1-0.5-0.4-0.9-0.8-0.9
		c-0.4,0-0.7,0.4-0.8,0.9l-0.3,1.8c-0.1,0.5-0.6,1-1.1,1.1l-1.8,0.3C26.4,91.2,26,91.6,26,92c0,0.4,0.4,0.7,0.9,0.8l1.8,0.3
		c0.5,0.1,1,0.6,1.1,1.1l0.3,1.8c0.1,0.5,0.4,0.9,0.8,0.9c0.4,0,0.7-0.4,0.8-0.9l0.3-2c0.1-0.5,0.6-1,1.1-1l1.8-0.1
		C35.4,92.7,35.8,92.4,35.8,92z"/>
	<path class="st1" d="M46,24.7c0-0.4-0.4-0.8-1-0.9l-1.9-0.3c-0.5-0.1-1.1-0.6-1.1-1.1l-0.3-1.9c-0.1-0.5-0.5-1-0.9-1
		c-0.4,0-0.8,0.4-0.9,1l-0.3,1.9c-0.1,0.5-0.6,1.1-1.1,1.1l-1.9,0.3c-0.5,0.1-1,0.5-1,0.9c0,0.4,0.4,0.8,1,0.9l1.9,0.3
		c0.5,0.1,1.1,0.6,1.1,1.1l0.3,1.9c0.1,0.5,0.5,1,0.9,1c0.4,0,0.8-0.4,0.9-1l0.3-2.1c0.1-0.5,0.6-1,1.1-1.1l1.8-0.1
		C45.6,25.5,46,25.1,46,24.7z"/>
	<path class="st1" d="M93,20.5c0-0.4-0.4-0.7-0.9-0.8l-1.7-0.3c-0.5-0.1-1-0.6-1.1-1.1L89,16.6c-0.1-0.5-0.4-0.9-0.8-0.9
		c-0.4,0-0.7,0.4-0.8,0.9l-0.3,1.7c-0.1,0.5-0.6,1-1.1,1.1l-1.7,0.3c-0.5,0.1-0.9,0.4-0.9,0.8c0,0.4,0.4,0.7,0.9,0.8l1.7,0.3
		c0.5,0.1,1,0.6,1.1,1.1l0.3,1.7c0.1,0.5,0.4,0.9,0.8,0.9c0.4,0,0.7-0.4,0.8-0.9l0.3-2c0.1-0.5,0.5-1,1.1-1l1.7-0.1
		C92.6,21.1,93,20.8,93,20.5z"/>
	<path class="st1" d="M68,117c-2.2,0-4-1.8-4-4c0-2.2,1.8-4,4-4c2.2,0,4,1.8,4,4C72,115.2,70.2,117,68,117z M68,110.9
		c-1.2,0-2.1,1-2.1,2.1c0,1.2,1,2.1,2.1,2.1c1.2,0,2.1-1,2.1-2.1C70.1,111.8,69.2,110.9,68,110.9z"/>
	<path class="st1" d="M71,41c-2.2,0-4-1.8-4-4c0-2.2,1.8-4,4-4c2.2,0,4,1.8,4,4C75,39.2,73.2,41,71,41z M71,34.9
		c-1.2,0-2.1,1-2.1,2.1c0,1.2,1,2.1,2.1,2.1c1.2,0,2.1-1,2.1-2.1C73.1,35.8,72.2,34.9,71,34.9z"/>
	<path class="st2" d="M55.2,64.8c-11.3-3.8-15.3-7.2-15.3-7.2s5.8-2.1,8.8-2.9c2.9-0.9,8.9-0.5,8.9-0.5s1.2,1.9,2.2,3.1
		c1,1.2,6.2,4.5,11.3,4.8c5.2,0.3,13.2,0,13.2,0v-1.7c0,0-10.1-0.3-15.3-1.9C64,56.9,61,52.8,61,52.8s4.1-0.2,8.6,0.2
		c4.5,0.3,8.3,3.1,13.1,2.4c4.8-0.7,19.8-4.1,19.8-4.1l-1.5-1.5c0,0-16.5,4.5-20.6,3.1c-4.1-1.4-13.1-4.1-23.8-3.6
		c-10.7,0.5-25.4,4.3-35.4-1.4c-3.8-2.1-9.6-6.2-15.5-10.4c-1.3,2.9-2.4,5.9-3.3,9.1c7.4,4.1,14.7,7.4,21.7,10.8
		C37,63.6,43,67.9,43,67.9s1.5,3.1,4.1,8.4c2.6,5.3,3.6,8.4,13.6,10.7c10,2.2,13.9,1.9,19.6,1.5C86,88.2,93,88,93,88l-0.2-1.5
		c0,0-9.3-0.2-12.9,0c-3.6,0.2-10.5-0.7-10.5-0.7s0.3-1.4,2.9-2.8c2.6-1.4,7-0.7,7-0.7l-0.7-1.5c0,0-5.8,0-8.3,1.2
		c-2.4,1.2-4.6,2.4-5.7,2.4c-1,0-6.4-0.2-10.7-4c-4.3-3.8-6-12.7-6-12.7s2.8,1,14.1,2.9c11.3,1.9,12.2,2.1,23,0.9
		c10.8-1.2,22.9-2.8,22.9-2.8v-1.9c0,0-12.2,1.2-21.3,2.1C77.7,69.8,66.5,68.6,55.2,64.8z"/>
	<path class="st3" d="M79.9,86.5c-1.8,0.1-4.5-0.1-6.6-0.3c-3.2-0.1-6.9-0.5-12.6-1.8c-10-2.2-11-5.3-13.6-10.7
		c-2.6-5.3-4.1-8.4-4.1-8.4S37,61,24.1,54.6C17.2,51.3,10.2,48.1,3,44.2c-0.2,0.7-0.4,1.5-0.7,2.2c7.4,4.1,14.7,7.4,21.7,10.8
		C37,63.6,43,67.9,43,67.9s1.5,3.1,4.1,8.4c2.6,5.3,3.6,8.4,13.6,10.7c10,2.2,13.9,1.9,19.6,1.5C86,88.2,93,88,93,88l-0.2-1.5
		C92.8,86.5,83.6,86.3,79.9,86.5z"/>
	<path class="st3" d="M60.2,52.2c0,0,1.7-0.8,3.3,0.5c1.6,0,3.8,0,6.2,0.2c4.5,0.3,8.3,3.1,13.1,2.4c4.8-0.7,19.8-4.1,19.8-4.1
		l-1.5-1.5c0,0-15.7,4.2-20.3,3.2c-3.9-0.2-7.3-1.2-11.1-1.5C65.1,51,60.2,52.2,60.2,52.2z"/>
	<path class="st3" d="M83.1,69.1c-8.9,0.9-10.4,0.7-20.9-1.1c-11.3-1.9-14-1.1-14-1.1s0.1-0.6,0.6,1c1.4,0.4,5.1,1.3,13.4,2.7
		c11.3,1.9,12.2,2.1,23,0.9c10.8-1.2,22.9-2.8,22.9-2.8v-1.9c0,0-12.2,1.2-21.3,2.1C85.6,69,84.4,69.1,83.1,69.1z"/>
	<path class="st3" d="M84.4,60.3c0,0-4.5-0.2-9.1-0.7c-1.4,0-2.9-0.1-4.1-0.1c-5.2-0.3-10.3-3.6-11.3-4.8c-1-1.2-2.2-3.1-2.2-3.1
		s-7.2,0.5-10.1,1.3c-2.9,0.9-12.8,4.7-12.8,4.7s1,0.5,2.7,1.6c1.9-0.7,9.6-4,11.3-4.5c2.9-0.9,8.9-0.5,8.9-0.5s1.2,1.9,2.2,3.1
		c1,1.2,6.2,4.5,11.3,4.8c5.2,0.3,13.2,0,13.2,0V60.3z"/>
	<path class="st4" d="M108,65.9c0,0-12.2,1.2-21.3,2.1c-1.8,0.2-3.7,0.3-5.7,0.3c-8.2,0-17-1.5-25.5-4.3c-7.2-2.4-11.4-4.7-13.5-6
		c2-0.7,5-1.7,6.9-2.3c1.2-0.4,3.2-0.5,5.9-0.5c0.9,0,1.7,0,2.2,0c0.4,0.6,1.3,1.9,2,2.8c1.1,1.3,6.4,4.8,12,5.2
		c1.5,0.1,3.5,0.2,5.8,0.2c3.9,0,7.5-0.2,7.6-0.2c0.5,0,1-0.5,1-1v-1.7c0-0.5-0.4-1-1-1c-0.1,0-10.1-0.4-15.1-1.9
		c-2.8-0.8-4.9-2.5-6.2-3.8c0.1,0,0.3,0,0.4,0c1.4,0,3.6,0,5.9,0.2c1.7,0.1,3.3,0.6,5.1,1.2c2,0.7,4.2,1.3,6.5,1.3
		c0.6,0,1.1,0,1.7-0.1c4.8-0.7,19.2-4,19.9-4.1c0.4-0.1,0.6-0.3,0.7-0.7c0.1-0.3,0-0.7-0.3-1l-1.5-1.5c-0.3-0.3-0.6-0.4-1-0.3
		c-0.1,0-12.3,3.3-18.1,3.3c-1.1,0-1.6-0.1-1.9-0.2c-7.3-2.5-14.5-3.7-21.4-3.7c-0.9,0-1.8,0-2.7,0.1c-2.6,0.1-5.4,0.4-8.3,0.8
		c-4.2,0.5-8.5,0.9-12.7,0.9c-5.8,0-10.4-1-13.9-3C17.9,44.8,12,40.7,6,36.4c-0.3,0.6-0.6,1.2-0.8,1.9c5.8,4.2,11.7,8.2,15.5,10.4
		c3.8,2.2,8.7,3.2,14.9,3.2c4.3,0,8.7-0.5,12.9-1c2.9-0.3,5.6-0.6,8.2-0.8c0.9,0,1.7-0.1,2.6-0.1c6.7,0,13.7,1.2,20.8,3.6
		c1.1,0.4,3.1,0.4,5.5,0.1c-1.2,0.2-2.2,0.4-3,0.5c-0.5,0.1-0.9,0.1-1.4,0.1c-2.1,0-3.9-0.6-5.9-1.2c-1.7-0.6-3.6-1.1-5.5-1.3
		c-2.3-0.2-4.6-0.2-6.1-0.2c-1.6,0-2.6,0-2.6,0c-0.4,0-0.7,0.2-0.9,0.6c-0.2,0.3-0.1,0.7,0.1,1c0.1,0.2,3.2,4.4,8.6,6.1
		c3.4,1,8.8,1.5,12.2,1.8c-1.2,0-2.7,0-4.1,0c-2.3,0-4.2,0-5.7-0.2c-5-0.3-9.9-3.5-10.7-4.5c-1-1.1-2.1-3-2.2-3
		c-0.2-0.3-0.5-0.4-0.8-0.5c0,0-1.2-0.1-2.8-0.1c-2.9,0-5,0.2-6.5,0.6c-2.9,0.9-8.6,2.9-8.8,2.9c-0.3,0.1-0.6,0.4-0.6,0.8
		c-0.1,0.3,0.1,0.7,0.3,0.9c0.2,0.1,4.2,3.6,15.6,7.4c8.7,2.9,17.8,4.4,26.2,4.4c2,0,4-0.1,5.9-0.3c5.7-0.5,12.5-1.2,16.9-1.6
		c-4.5,0.6-11.8,1.5-18.7,2.2c-10.8,1.2-11.5,1-22.5-0.8l-0.3-0.1c-11-1.8-13.9-2.9-13.9-2.9c-0.3-0.1-0.7-0.1-1,0.2
		c-0.3,0.2-0.4,0.6-0.3,1c0.1,0.4,1.8,9.3,6.3,13.3c4.5,4,10.2,4.2,11.3,4.2c1.1,0,2.7-0.8,5.2-2.1l0.2-0.1
		c-1.4,1.1-1.7,2.1-1.7,2.3c-0.1,0.3,0,0.6,0.1,0.8c0.2,0.2,0.4,0.4,0.7,0.4c0.3,0,7,0.9,10.7,0.7c0.6,0,1.5-0.1,2.5-0.1
		c-0.8,0-1.6,0.1-2.3,0.1l-0.6,0c-1.8,0.1-3.5,0.2-5.3,0.2c-3.9,0-7.9-0.5-13.5-1.8c-9-2-10.3-4.6-12.5-9.4L48,75.9
		c-2.6-5.3-4.1-8.4-4.1-8.4c-0.1-0.1-0.2-0.3-0.3-0.4c-0.2-0.2-6.2-4.4-19.1-10.7c-2.1-1-4.2-2.1-6.4-3.1
		c-5.1-2.5-10.3-4.9-15.5-7.8c-0.2,0.7-0.4,1.3-0.6,2c5.2,2.8,10.2,5.3,15.2,7.7c2.1,1,4.2,2,6.3,3.1c11.4,5.6,17.4,9.7,18.6,10.4
		c0.4,0.8,1.8,3.7,4,8.2l0.4,0.8c2.4,4.9,3.9,8.2,13.9,10.4c5.7,1.3,9.9,1.8,13.9,1.8c1.8,0,3.6-0.1,5.4-0.2l0.6,0
		C85.9,89.2,93,89,93,89c0.3,0,0.5-0.1,0.7-0.3c0.2-0.2,0.3-0.5,0.2-0.8l-0.2-1.5c-0.1-0.5-0.5-0.9-1-0.9c0,0-4.5-0.1-8.4-0.1
		c-2,0-3.5,0-4.5,0.1c-2.4,0.1-6.4-0.2-8.6-0.5c0.4-0.3,0.9-0.7,1.6-1.1c0.9-0.5,2.3-0.7,4-0.7c1.3,0,2.4,0.2,2.4,0.2
		c0.4,0.1,0.7-0.1,0.9-0.4c0.2-0.3,0.3-0.7,0.1-1l-0.7-1.5c-0.2-0.4-0.5-0.6-0.9-0.6c-0.6,0-6.2,0-8.7,1.3l-0.9,0.5
		c-1.6,0.8-3.7,1.8-4.3,1.8c-1,0-6-0.2-10-3.7c-2.9-2.6-4.6-7.9-5.3-10.5c1.9,0.5,5.7,1.3,12.6,2.5l0.3,0.1c11.2,1.9,11.9,2,23,0.8
		c10.7-1.2,22.8-2.7,22.9-2.8c0.5-0.1,0.9-0.5,0.9-1v-1.9c0-0.3-0.1-0.6-0.3-0.7C108.6,65.9,108.3,65.8,108,65.9z"/>
	<path class="st3" d="M79.4,82.3l-0.7-1.5c0,0-5.8,0-8.3,1.2c-0.1,0.1-0.3,0.1-0.4,0.2c-0.5,0.6-0.6,1-0.6,1s0.9,0.1,2.2,0.2
		c0.2-0.1,0.4-0.3,0.7-0.4C75,81.6,79.4,82.3,79.4,82.3z"/>
	<ellipse class="st1" cx="67.5" cy="85.7" rx="3.1" ry="3.7"/>
	<path class="st4" d="M67.5,90.4c-2.2,0-4.1-2.1-4.1-4.7c0-2.6,1.8-4.7,4.1-4.7c2.2,0,4.1,2.1,4.1,4.7
		C71.6,88.3,69.7,90.4,67.5,90.4z M67.5,83c-1.1,0-2.1,1.2-2.1,2.7c0,1.5,0.9,2.7,2.1,2.7c1.1,0,2.1-1.2,2.1-2.7
		C69.6,84.2,68.6,83,67.5,83z"/>
	<ellipse transform="matrix(0.8643 -0.5031 0.5031 0.8643 -34.6099 49.2063)" class="st1" cx="73.9" cy="88.7" rx="3.7" ry="3.1"/>
	<path class="st4" d="M73.1,93c-1.4,0-2.7-0.7-3.3-1.8c-1.1-1.8-0.2-4.3,1.9-5.5c0.8-0.4,1.6-0.7,2.5-0.7c1.4,0,2.7,0.7,3.3,1.8
		c1.1,1.8,0.2,4.3-1.9,5.5C74.8,92.7,74,93,73.1,93z M74.2,86.9c-0.5,0-1.1,0.1-1.5,0.4c-1.2,0.7-1.8,2-1.2,3c0.5,0.9,2,1.1,3.2,0.4
		c1.2-0.7,1.8-2,1.2-3C75.6,87.2,74.9,86.9,74.2,86.9z"/>
	<ellipse transform="matrix(0.7085 -0.7057 0.7057 0.7085 -46.8115 79.3595)" class="st1" cx="72.7" cy="96.3" rx="3.1" ry="3.7"/>
	<path class="st4" d="M73.1,101c-1.3,0-2.6-0.6-3.6-1.6c-1.9-1.9-2.1-4.8-0.4-6.4c0.7-0.7,1.7-1.1,2.8-1.1c1.3,0,2.6,0.6,3.6,1.6
		c0.9,0.9,1.4,2,1.5,3.2c0.1,1.2-0.3,2.4-1.1,3.2C75.2,100.6,74.2,101,73.1,101z M71.9,94c-0.4,0-0.9,0.1-1.3,0.5
		c-0.8,0.8-0.6,2.4,0.4,3.5c0.6,0.6,1.4,1,2.1,1c0.4,0,0.9-0.1,1.3-0.5c0.4-0.4,0.6-0.9,0.5-1.5c-0.1-0.7-0.4-1.4-0.9-1.9
		C73.4,94.3,72.6,94,71.9,94z"/>
	<ellipse transform="matrix(0.4442 -0.8959 0.8959 0.4442 -50.6202 112.3293)" class="st1" cx="65.2" cy="97" rx="3.7" ry="3.1"/>
	<path class="st4" d="M64.7,102c-0.6,0-1.1-0.1-1.6-0.4c-1-0.5-1.7-1.5-2-2.7c-0.3-1.2-0.1-2.4,0.4-3.6c0.8-1.8,2.5-2.9,4.1-2.9
		c0.6,0,1.1,0.1,1.6,0.4c2,1,2.7,3.9,1.6,6.3C68,100.9,66.4,102,64.7,102z M65.7,94.5c-0.9,0-1.8,0.7-2.3,1.8
		c-0.3,0.7-0.4,1.5-0.3,2.2c0.1,0.6,0.5,1.1,0.9,1.3c1,0.5,2.4-0.2,3.1-1.6c0.7-1.4,0.4-3-0.7-3.5C66.2,94.5,66,94.5,65.7,94.5z"/>
	<ellipse transform="matrix(0.1433 -0.9897 0.9897 0.1433 -36.322 139.4924)" class="st1" cx="62.4" cy="90.7" rx="3.1" ry="3.7"/>
	<path class="st4" d="M62.7,94.8c-0.2,0-0.5,0-0.8-0.1c-1.2-0.2-2.2-0.7-3-1.6c-0.8-0.9-1.1-2-1-3.1c0.3-2.2,2.5-3.7,5.1-3.4
		c2.5,0.4,4.3,2.5,3.9,4.7C66.8,93.4,65,94.8,62.7,94.8z M62.4,88.6c-1.2,0-2.3,0.7-2.4,1.7c-0.1,0.5,0.1,1,0.5,1.5
		c0.4,0.5,1.1,0.8,1.8,0.9c1.4,0.2,2.7-0.6,2.9-1.7c0.2-1.1-0.9-2.2-2.3-2.4C62.7,88.6,62.5,88.6,62.4,88.6z"/>
	<circle class="st5" cx="68.4" cy="91.7" r="2.3"/>
	<path class="st4" d="M68.5,95c-1.9,0-3.5-1.6-3.5-3.5c0-1.9,1.6-3.5,3.5-3.5c1.9,0,3.5,1.6,3.5,3.5C72,93.4,70.4,95,68.5,95z
		 M68.5,90.1c-0.8,0-1.4,0.6-1.4,1.4c0,0.8,0.6,1.4,1.4,1.4c0.8,0,1.4-0.6,1.4-1.4C69.9,90.7,69.3,90.1,68.5,90.1z"/>
	<ellipse class="st1" cx="33.7" cy="57.7" rx="3.1" ry="3.7"/>
	<path class="st4" d="M34,62c-2.2,0-4-2-4-4.5c0-2.5,1.8-4.5,4-4.5c2.2,0,4,2,4,4.5C38,60,36.2,62,34,62z M34,54.9
		c-1.1,0-2,1.2-2,2.6c0,1.4,0.9,2.6,2,2.6c1.1,0,2-1.2,2-2.6C36,56.1,35.1,54.9,34,54.9z"/>
	<ellipse transform="matrix(0.8643 -0.5031 0.5031 0.8643 -25.1465 28.4303)" class="st1" cx="40.1" cy="60.8" rx="3.7" ry="3.1"/>
	<path class="st4" d="M39.9,65.1c-1.5,0-2.8-0.7-3.5-2c-1.1-2.1-0.2-4.9,2-6.3c0.8-0.5,1.7-0.8,2.6-0.8c1.5,0,2.8,0.7,3.5,2
		c1.1,2.1,0.2,4.9-2,6.3C41.7,64.8,40.8,65.1,39.9,65.1z M41.1,58.1c-0.5,0-1.1,0.2-1.6,0.5c-1.3,0.8-1.8,2.3-1.3,3.4
		c0.5,1,2.1,1.2,3.3,0.5c1.3-0.8,1.8-2.3,1.3-3.4C42.5,58.5,41.8,58.1,41.1,58.1z"/>
	<ellipse transform="matrix(0.7084 -0.7058 0.7058 0.7084 -36.9491 47.3913)" class="st1" cx="38.9" cy="68.4" rx="3.1" ry="3.7"/>
	<path class="st4" d="M39.6,73c-1.1,0-2.3-0.6-3.2-1.6c-1.7-1.9-1.8-4.7-0.4-6.3c0.6-0.7,1.5-1.1,2.4-1.1c1.1,0,2.3,0.6,3.2,1.6
		c0.8,0.9,1.3,2,1.4,3.2c0.1,1.2-0.2,2.4-1,3.2C41.4,72.6,40.5,73,39.6,73z M38.4,66c-0.3,0-0.8,0.1-1.2,0.5
		c-0.7,0.8-0.6,2.4,0.4,3.5c0.5,0.6,1.2,1,1.9,1c0.3,0,0.8-0.1,1.2-0.5c0.3-0.4,0.5-0.9,0.4-1.5c-0.1-0.7-0.4-1.4-0.8-1.9
		C39.8,66.4,39.1,66,38.4,66z"/>
	<ellipse transform="matrix(0.4442 -0.8959 0.8959 0.4442 -44.3691 66.5612)" class="st1" cx="31.5" cy="69" rx="3.7" ry="3.1"/>
	<path class="st4" d="M31,74c-0.6,0-1.2-0.1-1.7-0.4c-1.1-0.5-1.8-1.4-2.1-2.6c-0.3-1.1-0.1-2.3,0.5-3.4c0.9-1.7,2.6-2.7,4.4-2.7
		c0.6,0,1.2,0.1,1.7,0.4c2.2,1,2.9,3.6,1.7,5.9C34.5,72.9,32.8,74,31,74z M32,67c-1,0-2,0.7-2.5,1.6c-0.4,0.7-0.5,1.4-0.3,2
		c0.1,0.6,0.5,1,1,1.2c1.1,0.5,2.6-0.2,3.3-1.5c0.7-1.3,0.4-2.8-0.7-3.3C32.5,67,32.3,67,32,67z"/>
	<ellipse transform="matrix(0.1433 -0.9897 0.9897 0.1433 -37.6135 82.1547)" class="st1" cx="28.6" cy="62.8" rx="3.1" ry="3.7"/>
	<path class="st4" d="M28.7,67c-0.2,0-0.5,0-0.8-0.1c-1.2-0.2-2.2-0.7-2.9-1.6c-0.8-0.9-1.1-2-1-3.1c0.3-2.2,2.5-3.7,5-3.3
		c2.5,0.4,4.2,2.4,3.9,4.6C32.7,65.6,30.9,67,28.7,67z M28.3,61c-1.2,0-2.2,0.7-2.4,1.7c-0.1,0.5,0.1,1,0.5,1.5
		c0.4,0.5,1.1,0.8,1.8,0.9c1.4,0.2,2.7-0.6,2.9-1.6c0.2-1.1-0.9-2.2-2.3-2.4C28.6,61,28.5,61,28.3,61z"/>
	<circle class="st5" cx="34.6" cy="63.8" r="2.3"/>
	<path class="st4" d="M34.6,67.2c-1.8,0-3.3-1.5-3.3-3.3c0-1.8,1.5-3.3,3.3-3.3c1.8,0,3.3,1.5,3.3,3.3C38,65.7,36.5,67.2,34.6,67.2z
		 M34.6,62.5c-0.7,0-1.3,0.6-1.3,1.3c0,0.7,0.6,1.3,1.3,1.3c0.7,0,1.3-0.6,1.3-1.3C36,63.1,35.4,62.5,34.6,62.5z"/>
	<ellipse transform="matrix(0.975 -0.2223 0.2223 0.975 -6.6301 21.7203)" class="st1" cx="93.1" cy="40.3" rx="3.1" ry="3.7"/>
	<path class="st4" d="M93.4,45c-1.9,0-3.7-1.6-4.2-3.8c-0.6-2.5,0.7-5,2.9-5.5c0.3-0.1,0.5-0.1,0.8-0.1c1.9,0,3.7,1.6,4.2,3.8
		c0.6,2.5-0.7,5-2.9,5.5C93.9,45,93.7,45,93.4,45z M92.9,37.6c-0.1,0-0.2,0-0.4,0c-1.1,0.3-1.8,1.6-1.4,3.1c0.3,1.4,1.5,2.4,2.6,2.2
		c1.1-0.3,1.8-1.6,1.4-3.1C94.9,38.6,93.9,37.6,92.9,37.6z"/>
	<ellipse transform="matrix(0.7308 -0.6826 0.6826 0.7308 -1.6542 79.5665)" class="st1" cx="100.1" cy="41.9" rx="3.7" ry="3.1"/>
	<path class="st4" d="M99.4,46.3c-1.1,0-2.1-0.4-2.8-1.2c-1.5-1.6-1.2-4.4,0.7-6.2c1-0.9,2.2-1.4,3.4-1.4c1.1,0,2.1,0.4,2.8,1.2
		c0.8,0.8,1.1,1.9,1,3.1c-0.1,1.1-0.7,2.2-1.6,3.1C101.9,45.8,100.6,46.3,99.4,46.3z M100.7,39.5c-0.7,0-1.5,0.3-2,0.9
		c-1.1,1-1.3,2.5-0.6,3.4c0.4,0.4,1,0.5,1.3,0.5c0.7,0,1.5-0.3,2-0.9c0.6-0.5,0.9-1.2,1-1.8c0.1-0.6-0.1-1.1-0.4-1.5
		C101.6,39.6,101.1,39.5,100.7,39.5z"/>
	<ellipse transform="matrix(0.5338 -0.8456 0.8456 0.5338 4.962 108.1385)" class="st1" cx="100.6" cy="49.6" rx="3.1" ry="3.7"/>
	<path class="st4" d="M101.1,53.8c-1,0-1.9-0.3-2.8-0.8c-2.2-1.4-3-4.1-1.8-6c0.7-1.1,2-1.8,3.4-1.8c1,0,1.9,0.3,2.8,0.8
		c2.2,1.4,3,4.1,1.8,6C103.8,53.2,102.6,53.8,101.1,53.8z M100,47.3c-0.8,0-1.4,0.3-1.7,0.8c-0.6,1-0.1,2.4,1.2,3.2
		c1.2,0.8,2.8,0.6,3.4-0.3c0.6-1,0.1-2.4-1.2-3.2C101.1,47.5,100.5,47.3,100,47.3z"/>
	<ellipse transform="matrix(0.2339 -0.9723 0.9723 0.2339 21.2106 130.5749)" class="st1" cx="93.5" cy="51.8" rx="3.7" ry="3.1"/>
	<path class="st4" d="M93.2,56.5c-0.3,0-0.6,0-0.8-0.1c-1.1-0.3-2-1-2.5-2.1c-0.5-1-0.6-2.2-0.3-3.4c0.5-2.2,2.3-3.7,4.2-3.7
		c0.3,0,0.6,0,0.8,0.1c2.2,0.5,3.5,3,2.9,5.5C96.9,54.9,95.1,56.5,93.2,56.5z M93.7,49.2c-1,0-2,0.9-2.3,2.2
		c-0.2,0.7-0.1,1.5,0.2,2.1c0.3,0.5,0.7,0.9,1.2,1c1.1,0.3,2.3-0.7,2.7-2.1c0.3-1.5-0.3-2.8-1.4-3.1C94,49.2,93.8,49.2,93.7,49.2z"
		/>
	
		<ellipse transform="matrix(0.9968 -8.030971e-02 8.030971e-02 0.9968 -3.4356 7.3234)" class="st1" cx="89.3" cy="46.4" rx="3.7" ry="3.1"/>
	<path class="st4" d="M89.2,50.5c-2.4,0-4.4-1.6-4.6-3.7c-0.1-1.1,0.3-2.2,1.2-3.1c0.8-0.8,1.9-1.3,3.2-1.4c2.6-0.2,4.8,1.4,5,3.7
		c0.1,1.1-0.3,2.2-1.2,3.1c-0.8,0.8-1.9,1.3-3.2,1.4C89.5,50.4,89.4,50.5,89.2,50.5z M89.4,44.3c-0.1,0-0.2,0-0.3,0
		c-0.8,0.1-1.4,0.4-1.9,0.8c-0.4,0.4-0.7,0.9-0.6,1.5c0.1,1.1,1.4,2,2.9,1.9c0.8-0.1,1.4-0.4,1.9-0.8c0.4-0.4,0.6-0.9,0.6-1.5
		C91.9,45.1,90.8,44.3,89.4,44.3z"/>
	<ellipse transform="matrix(0.975 -0.2222 0.2222 0.975 -7.8461 22.3518)" class="st5" cx="95.4" cy="46" rx="2.3" ry="2.3"/>
	<path class="st4" d="M95.4,49.4c-1.6,0-2.9-1.1-3.3-2.6c-0.4-1.8,0.7-3.6,2.5-4c0.2-0.1,0.5-0.1,0.7-0.1c1.6,0,2.9,1.1,3.3,2.6
		c0.2,0.9,0,1.8-0.4,2.5c-0.5,0.8-1.2,1.3-2.1,1.5C95.9,49.3,95.6,49.4,95.4,49.4z M95.4,44.7c-0.1,0-0.2,0-0.3,0
		c-0.3,0.1-0.6,0.3-0.8,0.6c-0.2,0.3-0.3,0.7-0.2,1c0.2,0.7,0.9,1.2,1.6,1c0.3-0.1,0.6-0.3,0.8-0.6c0.2-0.3,0.3-0.7,0.2-1
		C96.6,45.1,96,44.7,95.4,44.7z"/>
	<ellipse transform="matrix(0.1122 -0.9937 0.9937 0.1122 -21.5618 52.5739)" class="st1" cx="18.6" cy="38.4" rx="3.7" ry="3.1"/>
	<path class="st4" d="M18.9,43.1c-0.1,0-0.3,0-0.4,0c-1.1-0.1-2.1-0.7-2.7-1.7c-0.6-0.9-0.9-2.1-0.7-3.2c0.3-2.3,2-4,4-4.1
		c0.2,0,0.3,0,0.5,0c1.1,0.1,2.1,0.7,2.7,1.7c0.6,0.9,0.9,2.1,0.7,3.2C22.7,41.3,20.9,43.1,18.9,43.1z M19.1,35.9c-1,0-2,1-2.1,2.4
		c-0.1,0.7,0.1,1.4,0.4,2c0.3,0.5,0.8,0.8,1.3,0.8c1.1,0.1,2.2-1,2.3-2.4c0.1-0.7-0.1-1.4-0.4-2c-0.3-0.5-0.8-0.8-1.3-0.8
		C19.2,35.9,19.2,35.9,19.1,35.9z"/>
	<ellipse transform="matrix(0.9153 -0.4028 0.4028 0.9153 -14.8795 13.4924)" class="st1" cx="24.6" cy="42.1" rx="3.7" ry="3.1"/>
	<path class="st4" d="M24,46c-1.7,0-3.1-0.8-3.7-2.2c-0.9-2,0.3-4.4,2.6-5.4c0.7-0.3,1.4-0.4,2.1-0.4c1.7,0,3.1,0.8,3.7,2.2
		c0.9,2-0.3,4.4-2.6,5.4C25.4,45.8,24.7,46,24,46z M25,39.9c-0.4,0-0.9,0.1-1.3,0.3c-1.3,0.6-2,1.9-1.6,2.9c0.3,0.6,1,1,1.9,1
		c0.4,0,0.9-0.1,1.3-0.3c1.3-0.6,2-1.9,1.6-2.9C26.6,40.3,25.9,39.9,25,39.9z"/>
	<ellipse transform="matrix(0.7832 -0.6218 0.6218 0.7832 -25.9126 24.7767)" class="st1" cx="22.6" cy="49.5" rx="3.1" ry="3.7"/>
	<path class="st4" d="M23.1,54c-1.5,0-2.9-0.7-3.9-2c-1.7-2-1.6-4.8,0.3-6.3c0.7-0.5,1.5-0.8,2.4-0.8c1.5,0,2.9,0.7,3.9,2
		c0.8,1,1.2,2.1,1.2,3.3c0,1.2-0.5,2.3-1.5,3C24.9,53.7,24,54,23.1,54z M21.9,47c-0.4,0-0.8,0.1-1.1,0.4c-0.9,0.7-0.9,2.3,0.1,3.4
		c0.9,1.1,2.5,1.5,3.4,0.8c0.4-0.3,0.7-0.8,0.7-1.4c0-0.7-0.2-1.4-0.7-2C23.6,47.5,22.7,47,21.9,47z"/>
	<ellipse transform="matrix(0.542 -0.8404 0.8404 0.542 -34.5304 35.307)" class="st1" cx="15.1" cy="49.3" rx="3.7" ry="3.1"/>
	<path class="st4" d="M14.5,54c-0.7,0-1.3-0.2-1.9-0.6c-0.9-0.6-1.4-1.6-1.6-2.9c-0.1-1.2,0.1-2.4,0.8-3.4c0.9-1.5,2.3-2.4,3.7-2.4
		c0.7,0,1.3,0.2,1.9,0.6c1.8,1.2,2.1,4,0.8,6.3C17.3,53.1,15.9,54,14.5,54z M15.5,46.8c-0.8,0-1.6,0.5-2.2,1.4
		c-0.4,0.6-0.6,1.4-0.5,2.1c0.1,0.6,0.3,1.1,0.7,1.4c0.9,0.6,2.3,0.1,3-1.2c0.8-1.3,0.6-2.8-0.3-3.5C16.1,46.9,15.8,46.8,15.5,46.8z
		"/>
	<ellipse transform="matrix(0.2534 -0.9673 0.9673 0.2534 -31.6927 44.5658)" class="st1" cx="13" cy="42.8" rx="3.1" ry="3.7"/>
	<path class="st4" d="M12.8,47c-0.4,0-0.9-0.1-1.3-0.2c-2.4-0.6-3.9-2.9-3.4-5c0.4-1.7,2.1-2.8,4.1-2.8c0.4,0,0.9,0.1,1.3,0.2
		c2.4,0.6,3.9,2.9,3.4,5C16.4,45.9,14.8,47,12.8,47z M12.2,40.9c-1.1,0-2,0.6-2.2,1.4c-0.3,1.1,0.6,2.2,2,2.6c1.4,0.4,2.8-0.3,3-1.3
		c0.3-1.1-0.6-2.2-2-2.6C12.7,41,12.4,40.9,12.2,40.9z"/>
	<ellipse transform="matrix(0.1123 -0.9937 0.9937 0.1123 -27.4776 58.2524)" class="st5" cx="18.9" cy="44.5" rx="2.3" ry="2.3"/>
	<path class="st4" d="M18.9,47.8c-0.1,0-0.2,0-0.4,0c-0.9-0.1-1.7-0.5-2.2-1.2c-0.6-0.7-0.8-1.6-0.7-2.5c0.2-1.8,1.8-3.1,3.7-2.9
		c0.9,0.1,1.7,0.5,2.2,1.2c0.6,0.7,0.8,1.6,0.7,2.5C22,46.6,20.6,47.8,18.9,47.8z M18.9,43.2c-0.7,0-1.2,0.5-1.3,1.2
		c0,0.4,0.1,0.7,0.3,1c0.2,0.3,0.5,0.5,0.9,0.5c0.7,0.1,1.4-0.5,1.5-1.2c0-0.4-0.1-0.7-0.3-1c-0.2-0.3-0.5-0.5-0.9-0.5
		C19,43.2,18.9,43.2,18.9,43.2z"/>
	<ellipse class="st1" cx="103" cy="62.4" rx="3.1" ry="3.7"/>
	<path class="st4" d="M103,67.1c-2.2,0-4.1-2-4.1-4.5s1.8-4.5,4.1-4.5c2.2,0,4.1,2,4.1,4.5S105.3,67.1,103,67.1z M103,59.9
		c-1.1,0-2.1,1.2-2.1,2.6s0.9,2.6,2.1,2.6c1.1,0,2.1-1.2,2.1-2.6S104.2,59.9,103,59.9z"/>
	<ellipse transform="matrix(0.8642 -0.5031 0.5031 0.8642 -18.0704 63.9238)" class="st1" cx="109.4" cy="65.4" rx="3.7" ry="3.1"/>
	<path class="st4" d="M108.9,69.7c-1.5,0-2.8-0.7-3.5-1.9c-1.1-1.9-0.2-4.6,2-5.9c0.8-0.5,1.7-0.7,2.6-0.7c1.5,0,2.8,0.7,3.5,1.9
		c1.1,1.9,0.2,4.6-2,5.9C110.7,69.4,109.8,69.7,108.9,69.7z M110,63.2c-0.5,0-1.1,0.2-1.6,0.5c-1.3,0.8-1.9,2.2-1.3,3.2
		c0.6,0.9,2.2,1.2,3.4,0.4c1.3-0.8,1.9-2.2,1.3-3.2C111.5,63.5,110.8,63.2,110,63.2z"/>
	<ellipse transform="matrix(0.7085 -0.7057 0.7057 0.7085 -20.0152 97.6511)" class="st1" cx="108.2" cy="73.1" rx="3.1" ry="3.7"/>
	<path class="st4" d="M109.1,78c-1.3,0-2.6-0.6-3.6-1.6c-1.9-1.9-2.1-4.7-0.4-6.3c0.7-0.7,1.7-1.1,2.8-1.1c1.3,0,2.6,0.6,3.6,1.6
		c0.9,0.9,1.4,2,1.5,3.2c0.1,1.2-0.3,2.4-1.1,3.2C111.2,77.6,110.2,78,109.1,78z M107.9,71c-0.4,0-0.9,0.1-1.3,0.5
		c-0.8,0.8-0.6,2.4,0.4,3.5c0.6,0.6,1.4,1,2.1,1c0.4,0,0.9-0.1,1.3-0.5c0.4-0.4,0.6-0.9,0.5-1.5c-0.1-0.7-0.4-1.4-0.9-1.9
		C109.4,71.4,108.6,71,107.9,71z"/>
	
		<ellipse transform="matrix(0.4442 -0.8959 0.8959 0.4442 -10.0054 131.2255)" class="st1" cx="100.8" cy="73.7" rx="3.7" ry="3.1"/>
	<path class="st4" d="M100.3,78.3c-0.6,0-1.1-0.1-1.6-0.4c-1-0.5-1.7-1.4-2-2.6c-0.3-1.1-0.1-2.3,0.4-3.4c0.8-1.7,2.5-2.8,4.1-2.8
		c0.6,0,1.1,0.1,1.6,0.4c2,1,2.7,3.7,1.6,6C103.6,77.2,102,78.3,100.3,78.3z M101.2,71.1c-0.9,0-1.8,0.7-2.3,1.7
		c-0.3,0.7-0.4,1.4-0.3,2.1c0.1,0.6,0.5,1,0.9,1.3c1,0.5,2.4-0.2,3.1-1.5c0.7-1.3,0.4-2.8-0.7-3.3C101.7,71.1,101.5,71.1,101.2,71.1
		z"/>
	<ellipse transform="matrix(0.1433 -0.9897 0.9897 0.1433 17.1709 154.7128)" class="st1" cx="97.9" cy="67.4" rx="3.1" ry="3.7"/>
	<path class="st4" d="M97.7,71.5c-0.2,0-0.5,0-0.8-0.1c-1.2-0.2-2.2-0.7-2.9-1.6c-0.8-0.9-1.1-2-1-3.1c0.3-2.2,2.5-3.7,5-3.4
		c2.5,0.4,4.2,2.5,3.9,4.7C101.7,70.1,99.9,71.5,97.7,71.5z M97.3,65.3c-1.2,0-2.2,0.7-2.4,1.7c-0.1,0.5,0.1,1,0.5,1.5
		c0.4,0.5,1.1,0.8,1.8,0.9c1.4,0.2,2.7-0.6,2.9-1.7c0.2-1.1-0.9-2.2-2.3-2.4C97.6,65.4,97.5,65.3,97.3,65.3z"/>
	<circle class="st5" cx="103.9" cy="68.5" r="2.3"/>
	<path class="st4" d="M103.5,72c-1.9,0-3.5-1.5-3.5-3.4c0-1.9,1.6-3.4,3.5-3.4c1.9,0,3.5,1.5,3.5,3.4C107,70.5,105.4,72,103.5,72z
		 M103.5,67.2c-0.8,0-1.4,0.6-1.4,1.4c0,0.8,0.6,1.4,1.4,1.4s1.4-0.6,1.4-1.4C104.9,67.8,104.3,67.2,103.5,67.2z"/>
	<ellipse transform="matrix(0.2731 -0.962 0.962 0.2731 -12.8316 105.3177)" class="st1" cx="63.3" cy="61.1" rx="3.7" ry="3.1"/>
	<path class="st4" d="M63,65.8c-0.3,0-0.7,0-1-0.1c-1.1-0.3-1.9-1.1-2.4-2.2c-0.5-1-0.5-2.3-0.2-3.4c0.6-2.1,2.3-3.6,4.2-3.6
		c0.3,0,0.7,0,1,0.1c1.1,0.3,1.9,1.1,2.4,2.2c0.5,1,0.5,2.3,0.2,3.4C66.6,64.4,64.9,65.8,63,65.8z M63.6,58.5c-1,0-2,0.9-2.3,2.1
		c-0.2,0.7-0.2,1.5,0.1,2.1c0.2,0.6,0.7,0.9,1.2,1.1c1.1,0.3,2.3-0.6,2.7-2c0.2-0.7,0.2-1.5-0.1-2.1c-0.2-0.6-0.7-0.9-1.2-1.1
		C63.9,58.5,63.7,58.5,63.6,58.5z"/>
	<ellipse transform="matrix(0.9688 -0.2478 0.2478 0.9688 -14.1761 19.0431)" class="st1" cx="68.6" cy="65.8" rx="3.7" ry="3.1"/>
	<path class="st4" d="M68.2,70c-2.1,0-3.8-1.2-4.2-3c-0.6-2.2,1-4.5,3.6-5.1c0.4-0.1,0.9-0.2,1.3-0.2c2.1,0,3.8,1.2,4.2,3
		c0.3,1.1,0,2.2-0.7,3.2c-0.7,0.9-1.7,1.6-2.9,1.9C69.1,69.9,68.7,70,68.2,70z M68.9,63.7c-0.3,0-0.6,0-0.8,0.1
		c-1.4,0.4-2.4,1.6-2.1,2.7c0.3,1.1,1.7,1.7,3.1,1.3c0.7-0.2,1.4-0.6,1.8-1.1c0.4-0.5,0.5-1,0.4-1.5C71,64.3,70,63.7,68.9,63.7z"/>
	<ellipse transform="matrix(0.8743 -0.4854 0.4854 0.8743 -27.1403 40.8613)" class="st1" cx="65.3" cy="72.8" rx="3.1" ry="3.7"/>
	<path class="st4" d="M65.8,77.4c-1.6,0-3.2-1-4.1-2.6c-1.3-2.3-0.7-5,1.3-6.1c0.5-0.3,1.1-0.5,1.8-0.5c1.6,0,3.2,1,4.1,2.6
		c0.6,1.1,0.8,2.3,0.6,3.4c-0.2,1.2-0.9,2.1-1.9,2.7C67.1,77.2,66.5,77.4,65.8,77.4z M64.8,70.3c-0.3,0-0.6,0.1-0.8,0.2
		c-1,0.6-1.2,2.1-0.5,3.4c0.7,1.3,2.1,1.9,3.1,1.4c0.5-0.3,0.8-0.7,0.9-1.3c0.1-0.7,0-1.4-0.4-2.1C66.6,70.9,65.7,70.3,64.8,70.3z"
		/>
	<ellipse transform="matrix(0.6721 -0.7405 0.7405 0.6721 -33.8507 66.3719)" class="st1" cx="58" cy="71.4" rx="3.7" ry="3.1"/>
	<path class="st4" d="M57.4,75.8c-1,0-1.9-0.3-2.5-1c-0.8-0.8-1.3-1.8-1.2-3.1c0.1-1.1,0.5-2.3,1.4-3.2c1-1.1,2.3-1.7,3.6-1.7
		c1,0,1.9,0.3,2.5,1c1.7,1.5,1.6,4.3-0.1,6.2C60.1,75.2,58.7,75.8,57.4,75.8z M58.6,69c-0.8,0-1.6,0.4-2.2,1
		c-0.5,0.6-0.8,1.2-0.8,1.9c0,0.6,0.2,1.1,0.6,1.5c0.4,0.4,0.9,0.4,1.2,0.4c0.8,0,1.6-0.4,2.2-1c1-1.1,1.1-2.6,0.3-3.4
		C59.4,69,59,69,58.6,69z"/>
	<ellipse transform="matrix(0.4082 -0.9129 0.9129 0.4082 -25.2674 90.2921)" class="st1" cx="57" cy="64.6" rx="3.1" ry="3.7"/>
	<path class="st4" d="M57.5,68.8c-0.7,0-1.5-0.2-2.2-0.5c-2.4-1.1-3.6-3.6-2.6-5.6c0.6-1.4,2.1-2.3,3.8-2.3c0.7,0,1.5,0.2,2.2,0.5
		c2.4,1.1,3.5,3.6,2.6,5.6C60.7,68,59.2,68.8,57.5,68.8z M56.5,62.4c-0.9,0-1.7,0.4-2,1.1c-0.5,1,0.3,2.4,1.6,3
		c0.4,0.2,0.9,0.3,1.3,0.3c0.9,0,1.7-0.4,2-1.1c0.5-1-0.3-2.4-1.6-3C57.4,62.5,57,62.4,56.5,62.4z"/>
	<ellipse transform="matrix(0.2733 -0.9619 0.9619 0.2733 -19.2821 108.9876)" class="st5" cx="62.5" cy="67.3" rx="2.3" ry="2.3"/>
	<path class="st4" d="M62.5,70.6c-0.3,0-0.6,0-0.9-0.1c-1.8-0.5-2.8-2.4-2.3-4.1c0.4-1.4,1.7-2.4,3.2-2.4c0.3,0,0.6,0,0.9,0.1
		c0.9,0.2,1.6,0.8,2,1.6c0.4,0.8,0.5,1.7,0.3,2.5C65.3,69.6,64,70.6,62.5,70.6z M62.5,65.9c-0.6,0-1.1,0.4-1.3,1
		c-0.2,0.7,0.2,1.4,0.9,1.7c0.7,0.2,1.5-0.2,1.6-0.9c0.1-0.3,0.1-0.7-0.1-1c-0.2-0.3-0.5-0.5-0.8-0.6C62.7,65.9,62.6,65.9,62.5,65.9
		z"/>
	<path class="st6" d="M54.9,36.3c0,0-5.8-0.1-9,3.5c-3.2,3.7-2.5,9.7-2.5,9.7s5.8,0.1,9-3.5C55.6,42.4,54.9,36.3,54.9,36.3z"/>
	<path class="st7" d="M48.4,40.2c2.1-2.1,4.7-3.3,6.9-3.9c-1.1,0-6.2,0.3-9.2,3.5c-3.3,3.7-2.6,9.7-2.6,9.7s0.1,0,0.2,0
		C44.2,47.2,45.4,43.2,48.4,40.2z"/>
	<path class="st4" d="M43.1,50.6C43.1,50.6,43,50.6,43.1,50.6c-0.6,0-1-0.4-1-0.9c0-0.3-0.7-6.5,2.8-10.5c3.4-3.8,9.3-3.9,10-3.9
		c0.5,0,1,0.4,1,0.9c0,0.3,0.7,6.5-2.8,10.5C49.7,50.5,43.8,50.6,43.1,50.6z M54,37.4c-1.7,0.1-5.4,0.7-7.6,3.2
		c-2.2,2.5-2.4,6.3-2.4,8c1.7-0.1,5.4-0.7,7.6-3.2C53.8,42.9,54,39.1,54,37.4z"/>
	<path class="st8" d="M48,47.2c-0.3,0-0.7-0.2-0.8-0.6c-0.2-0.5,0-1.1,0.5-1.3c3.2-1.5,3.6-6.1,3.6-6.2c0.1-0.5,0.5-0.9,0.9-0.9
		c0.5,0.1,0.8,0.6,0.7,1.1c0,0.2-0.6,5.9-4.7,7.8C48.2,47.1,48.1,47.2,48,47.2z"/>
	<path class="st6" d="M54.1,90.9c-0.5,4.9-5.5,8.4-5.5,8.4s-4.2-4.4-3.6-9.4c0.5-4.9,5.5-8.4,5.5-8.4S54.6,86,54.1,90.9z"/>
	<path class="st7" d="M47,88.9c0.5-2.9,1.9-5.4,3.3-7.3c-0.9,0.7-4.8,3.9-5.3,8.3c-0.5,4.9,3.6,9.4,3.6,9.4s0,0,0.1-0.1
		C47.7,97,46.3,93.1,47,88.9z"/>
	<path class="st4" d="M48.6,100c-0.3,0-0.5-0.1-0.7-0.3c-0.2-0.2-3.8-4.2-3.9-9c0-0.3,0-0.7,0-1c0.5-5.2,5.6-8.8,5.8-9
		c0.4-0.3,0.9-0.2,1.3,0.1c0.2,0.2,3.8,4.1,3.9,8.9c0,0.4,0,0.7,0,1.1c-0.5,5.2-5.6,8.8-5.8,9C49,99.9,48.8,100,48.6,100z
		 M50.3,82.9c-1.3,1.1-3.9,3.8-4.3,7c-0.3,3.3,1.7,6.4,2.7,7.7c1.3-1.1,3.9-3.8,4.3-7C53.3,87.4,51.3,84.3,50.3,82.9z"/>
	<path class="st8" d="M50.3,94.9c-0.2,0-0.4-0.1-0.5-0.2c-0.5-0.3-0.6-0.9-0.3-1.4c2.1-3.4-0.2-7.5-0.2-7.5
		c-0.3-0.5-0.1-1.1,0.4-1.4c0.5-0.3,1.1-0.1,1.4,0.4c0.1,0.2,2.9,5.2,0.1,9.6C51,94.7,50.6,94.9,50.3,94.9z"/>
	<path class="st6" d="M19.2,64.4c-1.8,4.6-7.5,6.7-7.5,6.7s-2.8-5.4-1-10c1.8-4.6,7.5-6.7,7.5-6.7S20.9,59.8,19.2,64.4z"/>
	<path class="st7" d="M12.9,60.6c1.2-2.7,3.3-4.7,5.1-6.1c-1,0.4-5.7,2.5-7.3,6.6c-1.8,4.6,1,10,1,10s0.1,0,0.2-0.1
		C11.4,68.6,11.1,64.4,12.9,60.6z"/>
	<path class="st4" d="M11.7,72c-0.4,0-0.7-0.2-0.9-0.5c-0.1-0.2-3.1-5.8-1.1-10.8c2-5,8-7.1,8.3-7.2c0.5-0.2,1,0,1.3,0.5
		c0.1,0.2,3.1,5.8,1.1,10.8c-2,5-8,7.1-8.3,7.2C11.9,72,11.8,72,11.7,72z M17.8,55.7c-1.6,0.7-5,2.6-6.2,5.7c-1.2,3.1,0,6.7,0.6,8.3
		c1.6-0.7,5-2.6,6.2-5.7C19.7,60.9,18.5,57.3,17.8,55.7z"/>
	<path class="st8" d="M14.7,67.2c-0.3,0-0.5-0.1-0.7-0.3c-0.4-0.4-0.3-1,0.1-1.4c3-2.7,1.8-7.3,1.8-7.3c-0.1-0.5,0.2-1.1,0.7-1.2
		c0.5-0.1,1.1,0.2,1.2,0.7c0.1,0.2,1.5,5.8-2.4,9.3C15.2,67.1,15,67.2,14.7,67.2z"/>
	<path class="st6" d="M96.4,91.5c3.5,3.5,3.1,9.6,3.1,9.6s-6.1,0.4-9.6-3.1c-3.5-3.5-3.1-9.6-3.1-9.6S92.9,88,96.4,91.5z"/>
	<path class="st7" d="M90.4,95.7c-2-2.2-3-4.9-3.6-7.1c0,1.1,0,6.2,3.1,9.3c3.5,3.5,9.6,3.1,9.6,3.1s0-0.1,0-0.2
		C97.1,100.3,93.2,98.9,90.4,95.7z"/>
	<path class="st4" d="M98.4,102c-1.8,0-6.3-0.3-9.2-3.4c-3.6-3.8-3.2-10-3.2-10.3c0-0.5,0.4-0.9,0.9-0.9c0,0,0.2,0,0.7,0
		c1.8,0,6.3,0.3,9.2,3.4c3.6,3.7,3.2,10,3.2,10.3c0,0.5-0.4,0.9-0.9,0.9C99.1,102,98.9,102,98.4,102z M87.9,89.4
		c0,1.7,0.4,5.5,2.7,7.8c2.3,2.4,6,2.7,7.5,2.8c0-1.7-0.4-5.5-2.7-7.8C93.1,89.8,89.4,89.4,87.9,89.4z"/>
	<path class="st8" d="M96.3,97.3c-0.4,0-0.8-0.3-0.9-0.7c-1.3-3.8-5.9-4.6-6-4.6c-0.5-0.1-0.9-0.6-0.8-1.1c0.1-0.5,0.6-0.9,1.1-0.8
		c0.2,0,5.9,1,7.5,6c0.2,0.5-0.1,1.1-0.6,1.3C96.5,97.3,96.4,97.3,96.3,97.3z"/>
	<path class="st6" d="M95,78.9c4.4-2.2,10,0.2,10,0.2s-1.6,5.9-6,8c-4.4,2.2-10-0.2-10-0.2S90.6,81,95,78.9z"/>
	<path class="st7" d="M97.1,85.9c-2.7,1.1-5.6,1.2-7.9,1.1c1,0.4,5.9,2.1,9.8,0.1c4.4-2.2,6-8,6-8s-0.1,0-0.2-0.1
		C103.6,81,100.9,84.3,97.1,85.9z"/>
	<path class="st4" d="M94.7,89c-3.3,0-6-1.2-6.1-1.2c-0.5-0.2-0.7-0.7-0.6-1.2c0.1-0.3,1.8-6.3,6.6-8.6c1.4-0.7,2.9-1,4.7-1
		c3.3,0,6,1.2,6.1,1.2c0.5,0.2,0.7,0.7,0.6,1.2c-0.1,0.3-1.8,6.3-6.6,8.6C98,88.7,96.5,89,94.7,89z M90.2,86.3
		c1,0.3,2.7,0.7,4.5,0.7c1.5,0,2.7-0.3,3.8-0.8c3-1.4,4.6-4.9,5.2-6.5c-1-0.3-2.7-0.7-4.5-0.7c-1.5,0-2.7,0.3-3.8,0.8
		C92.4,81.2,90.8,84.7,90.2,86.3z"/>
	<path class="st8" d="M92.3,86.2c-0.2,0-0.3,0-0.5-0.1c-0.5-0.3-0.7-0.9-0.4-1.4c0.1-0.2,2.8-5.2,8-5.2c0,0,0.1,0,0.1,0
		c0.6,0,1,0.5,1,1c0,0.5-0.5,1-1,1c0,0-0.1,0-0.1,0c-4,0-6.2,4.1-6.2,4.1C93,86,92.6,86.2,92.3,86.2z"/>
	<path class="st6" d="M85,58.2c-4.4-1.1-9,2.3-9,2.3s2.6,5.2,7,6.3c4.4,1.1,9-2.3,9-2.3S89.4,59.3,85,58.2z"/>
	<path class="st7" d="M82.4,64.9c-2.8-0.8-5.1-2.6-6.8-4.2c0.6,1,3.3,5.3,7.5,6.3c4.8,1.1,9.8-2.4,9.8-2.4s0-0.1-0.1-0.1
		C90.5,65.2,86.4,66.1,82.4,64.9z"/>
	<path class="st4" d="M93.9,64c-0.1-0.2-3-5.6-8.1-6.8c-0.7-0.2-1.4-0.2-2.2-0.2c-4.3,0-8,2.6-8.2,2.7C75,60,74.9,60.5,75.1,61
		c0.1,0.2,3,5.6,8.1,6.8c0.7,0.2,1.4,0.2,2.2,0.2c4.3,0,8-2.6,8.2-2.7C94,65,94.1,64.5,93.9,64z M85.4,66.1c-0.6,0-1.2-0.1-1.7-0.2
		c-3.2-0.7-5.4-3.7-6.4-5.1c1.2-0.7,3.7-1.9,6.3-1.9c0.6,0,1.2,0.1,1.7,0.2c3.2,0.7,5.4,3.7,6.4,5.1C90.5,64.9,88,66.1,85.4,66.1z"
		/>
	<path class="st8" d="M87.7,63.2c-0.2,0-0.5-0.1-0.6-0.2c-3.1-2.6-7.4-0.8-7.5-0.8c-0.5,0.2-1.1,0-1.3-0.5c-0.2-0.5,0-1.1,0.5-1.3
		c0.2-0.1,5.5-2.2,9.5,1.1c0.4,0.4,0.5,1,0.1,1.4C88.3,63.1,88,63.2,87.7,63.2z"/>
</g>
</svg>
