<?xml version="1.0" encoding="utf-8"?>
<!-- Generator: Adobe Illustrator 21.0.2, SVG Export Plug-In . SVG Version: 6.00 Build 0)  -->
<svg version="1.1" id="switch" xmlns="http://www.w3.org/2000/svg" xmlns:xlink="http://www.w3.org/1999/xlink" x="0px" y="0px"
	 viewBox="0 0 128 128" style="enable-background:new 0 0 128 128;" xml:space="preserve">
<style type="text/css">
	.st0{fill:#28A5C6;}
	.st1{fill:#FFFFFF;}
	.st2{fill:#EAEAEA;}
	.st3{fill:#074370;}
	.st4{fill:#75B600;}
	.st5{fill:#5C8E0D;}
	.st6{opacity:0.5;fill:#FFFFFF;}
	.st7{opacity:0.5;fill:#074370;}
</style>
<g>
	<circle class="st0" cx="64" cy="64" r="64"/>
	<path class="st1" d="M111,64.4c0,9.9-8.1,18-18,18H35.2c-9.9,0-18-8.1-18-18v-0.7c0-9.9,8.1-18,18-18H93c9.9,0,18,8.1,18,18V64.4z"
		/>
	<circle class="st2" cx="35.8" cy="67.7" r="12"/>
	<path class="st2" d="M93,45.8H35.2c-9.9,0-18,8.1-18,18v0.7c0,1.4,0.2,2.7,0.5,4.1c1.9-8,9-14.5,17.5-14.5H93
		c8.5,0,15.7,6.5,17.5,14.5c0.3-1.3,0.5-2.7,0.5-4.1v-0.7C111,53.9,102.9,45.8,93,45.8z"/>
	<path class="st3" d="M93,84H35c-10.5,0-19-8.5-19-19v-1c0-10.5,8.5-19,19-19h58c10.5,0,19,8.5,19,19v1C112,75.5,103.5,84,93,84z
		 M35,47c-9.4,0-17,7.6-17,17v1c0,9.4,7.6,17,17,17h58c9.4,0,17-7.6,17-17v-1c0-9.4-7.6-17-17-17H35z"/>
	<circle class="st4" cx="35.8" cy="64" r="12"/>
	<path class="st5" d="M35.8,70.1c-5.6,0-10.3-3.8-11.6-9C24,62,23.9,63,23.9,64c0,6.6,5.4,12,12,12c6.6,0,12-5.4,12-12
		c0-1-0.1-2-0.4-2.9C46.1,66.3,41.4,70.1,35.8,70.1z"/>
	<path class="st3" d="M35.8,77C28.7,77,23,71.2,23,64c0-7.2,5.7-13,12.8-13C43,51,49,57,49,64C49,71.2,43.1,77,35.8,77z M35.8,53
		c-6,0-10.8,4.9-10.8,11c0,6.1,4.9,11,10.8,11C41.9,75,47,70,47,64C47,58,41.9,53,35.8,53z"/>
	<path class="st1" d="M43.8,65c-0.6,0-1-0.4-1-1c0-3.9-3.1-7-7-7c-2.4,0-4.6,1.2-5.9,3.2c-0.3,0.5-0.9,0.6-1.4,0.3
		c-0.5-0.3-0.6-0.9-0.3-1.4c1.7-2.6,4.5-4.1,7.6-4.1c5,0,9,4,9,9C44.8,64.6,44.4,65,43.8,65z"/>
	<path class="st3" d="M67.3,72c-3.7,0-7.3-3.7-7.3-7.6c0-3.8,3.6-7.4,7.3-7.4c3.9,0,7.7,3.7,7.7,7.4C75,68.2,71.1,72,67.3,72z
		 M67.3,59c-2.6,0-5.3,2.7-5.3,5.4c0,2.7,2.7,5.6,5.3,5.6c2.7,0,5.7-2.9,5.7-5.6C73,61.8,70,59,67.3,59z"/>
	<path class="st3" d="M90,72c-0.3,0-0.5-0.1-0.7-0.3L80,60.9v9.9c0,0.6-0.4,1.2-1,1.2s-1-0.5-1-1.2V58.2c0-0.5,0.2-0.9,0.6-1.1
		c0.4-0.2,0.8-0.1,1.1,0.3L89,68.1v-9.9c0-0.6,0.4-1.2,1-1.2s1,0.5,1,1.2v12.7c0,0.5-0.2,0.9-0.6,1.1C90.3,72,90.1,72,90,72z"/>
	<path class="st6" d="M97,35.9c-2.2,0-4-1.8-4-4c0-2.2,1.8-4,4-4c2.2,0,4,1.8,4,4C101,34.2,99.2,35.9,97,35.9z M97,29.9
		c-1.2,0-2.1,0.9-2.1,2.1c0,1.2,0.9,2.1,2.1,2.1c1.2,0,2.1-0.9,2.1-2.1C99.1,30.8,98.2,29.9,97,29.9z"/>
	<path class="st6" d="M66.5,114c-2.5,0-4.5-2-4.5-4.5c0-2.5,2-4.5,4.5-4.5c2.5,0,4.5,2,4.5,4.5C71,112,69,114,66.5,114z M66.5,107.1
		c-1.3,0-2.4,1.1-2.4,2.4c0,1.3,1.1,2.4,2.4,2.4c1.3,0,2.4-1.1,2.4-2.4C68.9,108.2,67.8,107.1,66.5,107.1z"/>
	<path class="st6" d="M49.1,28c-2.2,0-3.9-1.8-3.9-3.9c0-2.2,1.8-3.9,3.9-3.9c2.2,0,3.9,1.8,3.9,3.9C53,26.2,51.2,28,49.1,28z
		 M49.1,22c-1.2,0-2.1,0.9-2.1,2.1c0,1.2,0.9,2.1,2.1,2.1c1.2,0,2.1-0.9,2.1-2.1C51.2,22.9,50.2,22,49.1,22z"/>
	<path class="st6" d="M78.5,19.8c0-0.4-0.4-0.8-1-0.9l-1.9-0.3c-0.5-0.1-1.1-0.6-1.1-1.1l-0.3-1.9c-0.1-0.5-0.5-1-0.9-1
		c-0.4,0-0.8,0.4-0.9,1l-0.3,1.9c-0.1,0.5-0.6,1.1-1.1,1.1L69.2,19c-0.5,0.1-1,0.5-1,0.9c0,0.4,0.4,0.8,1,0.9l1.9,0.3
		c0.5,0.1,1.1,0.6,1.1,1.1l0.3,1.9c0.1,0.5,0.5,1,0.9,1c0.4,0,0.8-0.4,0.8-1l0.3-2.1c0.1-0.5,0.6-1,1.1-1.1l1.8-0.1
		C78,20.6,78.5,20.2,78.5,19.8z"/>
	<path class="st6" d="M46.5,97.3c0-0.4-0.4-0.8-1-0.9l-1.9-0.3c-0.5-0.1-1.1-0.6-1.1-1.1l-0.3-1.9c-0.1-0.5-0.5-1-0.9-1
		c-0.4,0-0.8,0.4-0.9,1L40.2,95c-0.1,0.5-0.6,1.1-1.1,1.1l-1.9,0.3c-0.5,0.1-1,0.5-1,0.9c0,0.4,0.4,0.8,1,0.9l1.9,0.3
		c0.5,0.1,1.1,0.6,1.1,1.1l0.3,1.9c0.1,0.5,0.5,1,0.9,1c0.4,0,0.8-0.4,0.8-1l0.3-2.1c0.1-0.5,0.6-1,1.1-1.1l1.8-0.1
		C46,98,46.5,97.6,46.5,97.3z"/>
	<path class="st6" d="M94.8,101.1c0-0.4-0.4-0.8-1-0.9l-1.9-0.3c-0.5-0.1-1.1-0.6-1.1-1.1L90.5,97c-0.1-0.5-0.5-1-0.9-1
		c-0.4,0-0.8,0.4-0.9,1l-0.3,1.9c-0.1,0.5-0.6,1.1-1.1,1.1l-1.9,0.3c-0.5,0.1-1,0.5-1,0.9c0,0.4,0.4,0.8,1,0.9l1.9,0.3
		c0.5,0.1,1.1,0.6,1.1,1.1l0.3,1.9c0.1,0.5,0.5,1,0.9,1c0.4,0,0.8-0.4,0.8-1l0.3-2.1c0.1-0.5,0.6-1,1.1-1.1l1.8-0.1
		C94.3,101.8,94.8,101.5,94.8,101.1z"/>
	<path class="st6" d="M30.1,35c0-0.4-0.4-0.8-1-0.9l-1.9-0.3c-0.5-0.1-1.1-0.6-1.1-1.1l-0.3-1.9c-0.1-0.5-0.5-1-0.9-1
		s-0.8,0.4-0.9,1l-0.3,1.9c-0.1,0.5-0.6,1.1-1.1,1.1l-1.9,0.3c-0.5,0.1-1,0.5-1,0.9s0.4,0.8,1,0.9l1.9,0.3c0.5,0.1,1.1,0.6,1.1,1.1
		l0.3,1.9c0.1,0.5,0.5,1,0.9,1s0.8-0.4,0.8-1l0.3-2.1c0.1-0.5,0.6-1,1.1-1.1l1.8-0.1C29.7,35.7,30.1,35.4,30.1,35z"/>
	<path class="st7" d="M93.3,79H68.8c-0.6,0-1-0.4-1-1s0.4-1,1-1h24.5c3.9,0,9.6-3.1,11.1-7.1c0.2-0.5,0.8-0.8,1.3-0.6
		c0.5,0.2,0.8,0.8,0.6,1.3C104.5,75.4,98,79,93.3,79z"/>
	<path class="st3" d="M62.8,79H51.7c-0.6,0-1-0.4-1-1s0.4-1,1-1h11.2c0.6,0,1,0.4,1,1S63.4,79,62.8,79z"/>
</g>
</svg>
