<?xml version="1.0" encoding="utf-8"?>
<!-- Generator: Adobe Illustrator 21.0.2, SVG Export Plug-In . SVG Version: 6.00 Build 0)  -->
<svg version="1.1" id="theatre" xmlns="http://www.w3.org/2000/svg" xmlns:xlink="http://www.w3.org/1999/xlink" x="0px" y="0px"
	 viewBox="0 0 128 128" style="enable-background:new 0 0 128 128;" xml:space="preserve">
<style type="text/css">
	.st0{fill:#9B1B1B;}
	.st1{fill:#E02020;}
	.st2{fill:#FF4848;}
	.st3{fill:#663210;}
	.st4{fill:#FBD000;}
	.st5{opacity:0.5;fill:#FFFFFF;}
	.st6{fill:#AD5114;}
</style>
<g>
	<circle class="st0" cx="64" cy="64" r="64"/>
	<path class="st1" d="M110.5,26.4h0.3c-0.6-0.7-1.2-1.3-1.8-2c-6.5-8.3-15-14.9-24.8-19.1c0,1,0,2,0,3c-6.7-2.4-14-3.7-21.5-3.7
		c-7.2,0-14.1,1.2-20.5,3.4c0-0.9,0-1.8,0-2.6c-7.6,3.3-14.4,8-20.1,13.9c-2.7,2.2-5.2,4.6-7.5,7.2H16C8.3,36.9,3.7,49.9,3.7,64
		c0,15.1,5.2,28.9,13.9,39.8h6.5c0-0.2,0-0.4,0-0.5c0-14.2-3.1-27-12.5-36.2c15.8-8,27.4-22.8,29.6-40h43.9
		c2.2,17.2,13.8,32,29.6,40c-9.4,9.2-12.5,22-12.5,36.2c0,0.2,0,0.4,0,0.5h6.5c8.7-10.9,13.9-24.8,13.9-39.8
		C122.8,49.9,118.2,36.9,110.5,26.4z"/>
	<path class="st2" d="M38.5,5.3C15.8,15.2,0,37.7,0,64c0,15.1,5.2,28.9,13.9,39.8h6.5c0-0.2,0-0.4,0-0.5c0-14.2-5.8-27-15.2-36.2
		c17.5-8.9,32.7-27,32.7-46.5C37.9,17.1,38.6,10.5,38.5,5.3z"/>
	<path class="st1" d="M20.4,17c-3.4,3.2-6.5,7.2-9.2,11H37c0.4-2.3,0.6-5.1,0.6-7.5c0-1,0-2.2,0.1-3.5H20.4z"/>
	<path class="st3" d="M20.2,104.8C20.2,104.8,20.2,104.8,20.2,104.8c-0.6,0-1-0.5-1-1l0-0.5c0-13.5-5.3-26.1-14.9-35.5
		c-0.2-0.2-0.3-0.5-0.3-0.9c0-0.3,0.2-0.6,0.5-0.7c23.7-12,32.1-30.6,32.1-44c0-0.6,0.4-1,1-1c0.6,0,1,0.4,1,1
		c0,13.8-8.4,32.7-32,45.2c9.4,9.7,14.5,22.4,14.5,36l0,0.6C21.2,104.4,20.7,104.8,20.2,104.8z"/>
	<path class="st2" d="M89.5,5.3C112.2,15.2,128,37.7,128,64c0,15.1-5.2,28.9-13.9,39.8h-6.5c0-0.2,0-0.4,0-0.5
		c0-14.2,5.8-27,15.2-36.2c-17.5-8.9-32.7-27-32.7-46.5C90.1,17.1,89.4,10.5,89.5,5.3z"/>
	<path class="st1" d="M107.4,17c3.4,3.2,6.5,7.2,9.2,11H90.7c-0.4-2.3-0.6-5.1-0.6-7.5c0-1,0-2.2-0.1-3.5H107.4z"/>
	<path class="st3" d="M107.6,104.8c-0.5,0-1-0.4-1-1l0-0.6c0-13.5,5.2-26.2,14.5-36c-23.6-12.5-32-31.4-32-45.2c0-0.6,0.4-1,1-1
		c0.6,0,1,0.4,1,1c0,13.4,8.4,32,32.1,44c0.3,0.1,0.5,0.4,0.5,0.7c0,0.3-0.1,0.6-0.3,0.9c-9.6,9.4-14.9,22.1-14.9,35.5l0,0.5
		C108.6,104.4,108.1,104.8,107.6,104.8C107.6,104.8,107.6,104.8,107.6,104.8z"/>
	<path class="st4" d="M120,65h8c0,1.3-0.1,2.7-0.2,4H120c-1.1,0-2-0.9-2-2S118.9,65,120,65z"/>
	<path class="st3" d="M128,66H120c-0.6,0-1,0.4-1,1c0,0.6,0.4,1,1,1h7.8c0,0.7-0.1,1.3-0.2,2H120c-1.7,0-3-1.3-3-3s1.3-3,3-3h8
		c0,0,0,1,0,1C128,65.7,128,65.3,128,66z"/>
	<path class="st3" d="M118,57c-0.2,0-0.3,0-0.5-0.1C103.1,49,98.2,34.9,98.1,34.3c-0.2-0.5,0.1-1.1,0.6-1.3c0.5-0.2,1.1,0.1,1.3,0.6
		c0,0.1,4.8,14,18.5,21.4c0.5,0.3,0.7,0.9,0.4,1.4C118.7,56.8,118.4,57,118,57z"/>
	<path class="st5" d="M121,54c-0.2,0-0.4-0.1-0.6-0.2c-2.2-1.6-4.3-3.5-6.1-5.5c-0.4-0.4-0.3-1,0.1-1.4c0.4-0.4,1.1-0.3,1.4,0.1
		c1.8,1.9,3.7,3.7,5.8,5.2c0.4,0.3,0.5,1,0.2,1.4C121.6,53.8,121.3,54,121,54z"/>
	<path class="st5" d="M111.7,43.6c-0.3,0-0.7-0.2-0.9-0.5c-4.5-6.5-5.7-12-5.7-12.2c-0.1-0.5,0.3-1.1,0.8-1.2
		c0.6-0.1,1.1,0.2,1.2,0.8c0,0.1,1.2,5.4,5.4,11.5c0.3,0.5,0.2,1.1-0.3,1.4C112.1,43.5,111.9,43.6,111.7,43.6z"/>
	<path class="st5" d="M119,89.5C119,89.5,119,89.5,119,89.5c-0.6,0-1-0.5-1-1c0.3-5.4,4-12.6,4.1-12.9c0.3-0.5,0.9-0.7,1.3-0.4
		c0.5,0.3,0.7,0.9,0.4,1.3c0,0.1-3.7,7.1-3.9,12.1C120,89.1,119.5,89.5,119,89.5z"/>
	<path class="st3" d="M113.2,98C113.2,98,113.2,98,113.2,98c-0.7,0-1.3-0.5-1.2-1.1c0.3-4.9,1.5-9,1.6-9.1c0.2-0.5,0.8-0.9,1.5-0.7
		c0.7,0.1,1.1,0.7,0.9,1.2c0,0-1.2,4.1-1.5,8.8C114.4,97.6,113.9,98,113.2,98z"/>
	<path class="st2" d="M15.8,21.8H112C100.3,8.4,83.1,0,63.9,0C44.7,0,27.5,8.4,15.8,21.8z"/>
	<path class="st6" d="M14,104.2C25.7,118.7,43.7,128,63.7,128s38-9.3,49.7-23.8H14z"/>
	<path class="st3" d="M119,105H8c-0.6,0-1-0.4-1-1s0.5-1,1-1h111c0.6,0,1,0.4,1,1S119.5,105,119,105z"/>
	<path class="st4" d="M8,65H0c0,1.3,0.1,2.7,0.2,4H8c1.1,0,2-0.9,2-2S9.1,65,8,65z"/>
	<path class="st3" d="M14.8,23h97.9c-0.6-0.7-1.1-1.3-1.7-2H16.5C15.9,21.7,15.3,22.3,14.8,23z"/>
	<path class="st3" d="M0,66H8c0.6,0,1,0.4,1,1c0,0.6-0.4,1-1,1H0.1c0,0.7,0.1,1.3,0.2,2H8c1.7,0,3-1.3,3-3s-1.3-3-3-3H0
		C0,64,0,65.3,0,66z"/>
	<ellipse class="st2" cx="63.5" cy="64" rx="31.5" ry="31"/>
	<path class="st3" d="M92,113H65c-0.6,0-1-0.4-1-1s0.4-1,1-1h27c0.6,0,1,0.4,1,1S92.6,113,92,113z"/>
	<path class="st3" d="M51,113H26c-0.6,0-1-0.4-1-1s0.4-1,1-1h25c0.6,0,1,0.4,1,1S51.6,113,51,113z"/>
	<path class="st3" d="M75,120H45c-0.6,0-1-0.4-1-1s0.4-1,1-1h30c0.6,0,1,0.4,1,1S75.6,120,75,120z"/>
	<path class="st3" d="M90.9,120h-7.9c-0.6,0-1.1-0.4-1.1-1s0.5-1,1.1-1h7.9c0.6,0,1.1,0.4,1.1,1S91.5,120,90.9,120z"/>
	<path class="st3" d="M42,22.5c-0.6,0-1-0.4-1-1v-9c0-0.6,0.4-1,1-1s1,0.4,1,1v9C43,22,42.6,22.5,42,22.5z"/>
	<path class="st3" d="M56,22.5c-0.6,0-1-0.4-1-1V4c0-0.6,0.4-1,1-1s1,0.4,1,1v17.5C57,22,56.6,22.5,56,22.5z"/>
	<path class="st3" d="M69,22.5c-0.6,0-1-0.4-1-1v-9c0-0.6,0.4-1,1-1s1,0.4,1,1v9C70,22,69.6,22.5,69,22.5z"/>
	<path class="st3" d="M81,22.5c-0.6,0-1-0.4-1-1v-6c0-0.6,0.4-1,1-1s1,0.4,1,1v6C82,22,81.6,22.5,81,22.5z"/>
	<path class="st3" d="M9.2,57c-0.4,0-0.7-0.2-0.9-0.5c-0.3-0.5-0.1-1.1,0.4-1.4C22.3,47.6,27,33.8,27.1,33.7
		c0.2-0.5,0.7-0.8,1.3-0.6c0.5,0.2,0.8,0.7,0.6,1.3C28.8,34.9,24,49,9.7,56.9C9.5,56.9,9.4,57,9.2,57z"/>
	<path class="st5" d="M6.2,54c-0.3,0-0.6-0.2-0.8-0.4c-0.3-0.5-0.2-1.2,0.2-1.5c2.1-1.7,4-3.6,5.7-5.7c0.4-0.4,1-0.5,1.4-0.1
		c0.4,0.4,0.4,1.1,0.1,1.5c-1.8,2.2-3.8,4.2-6,6C6.6,53.9,6.4,54,6.2,54z"/>
	<path class="st5" d="M16,43c-0.2,0-0.4,0-0.5-0.2c-0.4-0.3-0.6-0.9-0.3-1.3c3.8-5.7,4.9-10.7,4.9-10.8c0.1-0.5,0.6-0.8,1.1-0.7
		c0.5,0.1,0.9,0.6,0.7,1.1c0,0.2-1.1,5.4-5.2,11.5C16.6,42.9,16.3,43,16,43z"/>
	<path class="st5" d="M61,16c-0.6,0-1-0.4-1-1V4c0-0.6,0.4-1,1-1s1,0.4,1,1v11C62,15.5,61.6,16,61,16z"/>
	<path class="st5" d="M88,18c-0.6,0-1-0.5-1-1.1v-5.9c0-0.6,0.4-1.1,1-1.1s1,0.5,1,1.1v5.9C89,17.5,88.6,18,88,18z"/>
	<path class="st5" d="M34,18c-0.6,0-1-0.4-1-1v-4.3c0-0.6,0.4-1,1-1c0.6,0,1,0.4,1,1V17C35,17.6,34.5,18,34,18z"/>
	<path class="st5" d="M9.2,89.5c-0.5,0-1-0.4-1-1c-0.2-5-3.8-12-3.9-12.1c-0.3-0.5-0.1-1.1,0.4-1.3c0.5-0.3,1.1-0.1,1.3,0.4
		c0.2,0.3,3.8,7.5,4.1,12.9C10.3,89,9.8,89.5,9.2,89.5C9.3,89.5,9.2,89.5,9.2,89.5z"/>
	<path class="st3" d="M14.8,98.2c-0.6,0-1.1-0.4-1.2-0.9c-0.3-4.4-1.4-8.1-1.4-8.1c-0.2-0.5,0.2-1,0.8-1.2c0.6-0.1,1.3,0.2,1.4,0.7
		c0,0.2,1.2,3.9,1.5,8.5C16,97.8,15.5,98.2,14.8,98.2C14.9,98.2,14.9,98.2,14.8,98.2z"/>
	<path class="st5" d="M50,71c-2.2,0-4-1.8-4-4c0-2.2,1.8-4,4-4c2.2,0,4,1.8,4,4C54,69.2,52.2,71,50,71z M50,64.9
		c-1.2,0-2.1,1-2.1,2.1c0,1.2,1,2.1,2.1,2.1c1.2,0,2.1-1,2.1-2.1C52.1,65.8,51.2,64.9,50,64.9z"/>
	<path class="st5" d="M70,84c-2.2,0-4-1.8-4-4c0-2.2,1.8-4,4-4c2.2,0,4,1.8,4,4C74,82.2,72.2,84,70,84z M70,77.9
		c-1.2,0-2.1,1-2.1,2.1c0,1.2,1,2.1,2.1,2.1c1.2,0,2.1-1,2.1-2.1C72.1,78.8,71.2,77.9,70,77.9z"/>
	<path class="st5" d="M108.7,73.4c0-0.4-0.4-0.8-1-0.9l-1.9-0.3c-0.5-0.1-1.1-0.6-1.1-1.1l-0.3-1.9c-0.1-0.5-0.5-1-0.9-1
		c-0.4,0-0.8,0.4-0.9,1l-0.3,1.9c-0.1,0.5-0.6,1.1-1.1,1.1l-1.9,0.3c-0.5,0.1-1,0.5-1,0.9c0,0.4,0.4,0.8,1,0.9l1.9,0.3
		c0.5,0.1,1.1,0.6,1.1,1.1l0.3,1.9c0.1,0.5,0.5,1,0.9,1c0.4,0,0.8-0.4,0.8-1l0.3-2.1c0.1-0.5,0.6-1,1.1-1.1l1.8-0.1
		C108.3,74.2,108.7,73.8,108.7,73.4z"/>
	<path class="st5" d="M73.2,49.6c0-0.4-0.4-0.8-1-0.9l-1.9-0.3c-0.5-0.1-1.1-0.6-1.1-1.1l-0.3-1.9c-0.1-0.5-0.5-1-0.9-1
		c-0.4,0-0.8,0.4-0.9,1l-0.3,1.9c-0.1,0.5-0.6,1.1-1.1,1.1l-1.9,0.3c-0.5,0.1-1,0.5-1,0.9c0,0.4,0.4,0.8,1,0.9l1.9,0.3
		c0.5,0.1,1.1,0.6,1.1,1.1l0.3,1.9c0.1,0.5,0.5,1,0.9,1c0.4,0,0.8-0.4,0.8-1l0.3-2.1c0.1-0.5,0.6-1,1.1-1.1l1.8-0.1
		C72.8,50.3,73.2,50,73.2,49.6z"/>
	<path class="st5" d="M36.8,94.6c0-0.4-0.4-0.8-1-0.9L34,93.5c-0.5-0.1-1.1-0.6-1.1-1.1l-0.3-1.9c-0.1-0.5-0.5-1-0.9-1
		c-0.4,0-0.8,0.4-0.9,1l-0.3,1.9c-0.1,0.5-0.6,1.1-1.1,1.1l-1.9,0.3c-0.5,0.1-1,0.5-1,0.9s0.4,0.8,1,0.9l1.9,0.3
		c0.5,0.1,1.1,0.6,1.1,1.1l0.3,1.9c0.1,0.5,0.5,1,0.9,1c0.4,0,0.8-0.4,0.9-1l0.3-2.1c0.1-0.5,0.6-1,1.1-1.1l1.8-0.1
		C36.4,95.4,36.8,95,36.8,94.6z"/>
</g>
</svg>
