<?xml version="1.0" encoding="utf-8"?>
<!-- Generator: Adobe Illustrator 21.0.2, SVG Export Plug-In . SVG Version: 6.00 Build 0)  -->
<svg version="1.1" id="vendingmachine" xmlns="http://www.w3.org/2000/svg" xmlns:xlink="http://www.w3.org/1999/xlink" x="0px"
	 y="0px" viewBox="0 0 128 128" style="enable-background:new 0 0 128 128;" xml:space="preserve">
<style type="text/css">
	.st0{fill:#FBD000;}
	.st1{fill:#FF4848;}
	.st2{fill:#415E6D;}
	.st3{fill:#D4D6D6;}
	.st4{fill:#663210;}
	.st5{fill:#E8372E;}
	.st6{fill:#2D4552;}
	.st7{fill:#FFFFFF;}
	.st8{opacity:0.5;fill:#FFFFFF;}
</style>
<g>
	<circle class="st0" cx="64" cy="64" r="64"/>
	<path class="st1" d="M94,119c0,4.4-3.6,8-8,8H41c-4.4,0-8-3.6-8-8V34c0-4.4,3.6-8,8-8h45c4.4,0,8,3.6,8,8V119z"/>
	<path class="st2" d="M77,87c0,3.3-2.7,6-6,6H45c-3.3,0-6-2.7-6-6V40c0-3.3,2.7-6,6-6h26c3.3,0,6,2.7,6,6V87z"/>
	<path class="st2" d="M77,104c0-2.2-1.8-4-4-4H43c-2.2,0-4,1.8-4,4v3c0,2.2,1.8,4,4,4h30c2.2,0,4-1.8,4-4V104z"/>
	<path class="st3" d="M90,74c0,1.1-0.9,2-2,2h-5c-1.1,0-2-0.9-2-2V62c0-1.1,0.9-2,2-2h5c1.1,0,2,0.9,2,2V74z"/>
	<path class="st2" d="M90,107c0,1.1-0.9,2-2,2h-5c-1.1,0-2-0.9-2-2v-3c0-1.1,0.9-2,2-2h5c1.1,0,2,0.9,2,2V107z"/>
	<path class="st3" d="M90,54c0,1.1-0.9,2-2,2h-5c-1.1,0-2-0.9-2-2v-5c0-1.1,0.9-2,2-2h5c1.1,0,2,0.9,2,2V54z"/>
	<path class="st4" d="M87,65h-5c-0.6,0-1-0.4-1-1s0.4-1,1-1h5c0.6,0,1,0.4,1,1S87.6,65,87,65z"/>
	<path class="st5" d="M86,121H41c-4.4,0-8-3.6-8-8v6c0,4.4,3.6,8,8,8h45c4.4,0,8-3.6,8-8v-6C94,117.4,90.4,121,86,121z"/>
	<path class="st4" d="M87,69h-5c-0.6,0-1-0.4-1-1s0.4-1,1-1h5c0.6,0,1,0.4,1,1S87.6,69,87,69z"/>
	<path class="st4" d="M87,73h-5c-0.6,0-1-0.4-1-1s0.4-1,1-1h5c0.6,0,1,0.4,1,1S87.6,73,87,73z"/>
	<path class="st4" d="M85,76c-0.6,0-1-0.4-1-1v-9c0-0.6,0.4-1,1-1s1,0.4,1,1v9C86,75.6,85.6,76,85,76z"/>
	<path class="st4" d="M87,53h-3c-0.6,0-1-0.4-1-1s0.4-1,1-1h3c0.6,0,1,0.4,1,1S87.6,53,87,53z"/>
	<path class="st4" d="M85,90c-0.6,0-1-0.4-1-1v-8c0-0.6,0.4-1,1-1s1,0.4,1,1v8C86,89.6,85.6,90,85,90z"/>
	<path class="st4" d="M86,128H41c-5,0-9-4-9-9V34c0-5,4-9,9-9h45c5,0,9,4,9,9v85C95,124,91,128,86,128z M41,27c-3.9,0-7,3.1-7,7v85
		c0,3.9,3.1,7,7,7h45c3.9,0,7-3.1,7-7V34c0-3.9-3.1-7-7-7H41z"/>
	<path class="st4" d="M71,94H45c-3.9,0-7-3.1-7-7V40c0-3.9,3.1-7,7-7h26c3.9,0,7,3.1,7,7v47C78,90.9,74.9,94,71,94z M45,35
		c-2.8,0-5,2.2-5,5v47c0,2.8,2.2,5,5,5h26c2.8,0,5-2.2,5-5V40c0-2.8-2.2-5-5-5H45z"/>
	<path class="st3" d="M51,47c0,1.1-0.9,2-2,2h-4c-1.1,0-2-0.9-2-2v-5c0-1.1,0.9-2,2-2h4c1.1,0,2,0.9,2,2V47z"/>
	<path class="st3" d="M62,47c0,1.1-0.9,2-2,2h-4c-1.1,0-2-0.9-2-2v-5c0-1.1,0.9-2,2-2h4c1.1,0,2,0.9,2,2V47z"/>
	<path class="st3" d="M73,47c0,1.1-0.9,2-2,2h-4c-1.1,0-2-0.9-2-2v-5c0-1.1,0.9-2,2-2h4c1.1,0,2,0.9,2,2V47z"/>
	<path class="st3" d="M51,51.5c0,0.8-0.9,1.5-2,1.5h-4c-1.1,0-2-0.7-2-1.5s0.9-1.5,2-1.5h4C50.1,50,51,50.7,51,51.5z"/>
	<path class="st3" d="M62,51.5c0,0.8-0.9,1.5-2,1.5h-4c-1.1,0-2-0.7-2-1.5s0.9-1.5,2-1.5h4C61.1,50,62,50.7,62,51.5z"/>
	<path class="st3" d="M73,51.5c0,0.8-0.9,1.5-2,1.5h-4c-1.1,0-2-0.7-2-1.5s0.9-1.5,2-1.5h4C72.1,50,73,50.7,73,51.5z"/>
	<path class="st3" d="M51,65c0,1.1-0.9,2-2,2h-4c-1.1,0-2-0.9-2-2v-5c0-1.1,0.9-2,2-2h4c1.1,0,2,0.9,2,2V65z"/>
	<path class="st3" d="M62,65c0,1.1-0.9,2-2,2h-4c-1.1,0-2-0.9-2-2v-5c0-1.1,0.9-2,2-2h4c1.1,0,2,0.9,2,2V65z"/>
	<path class="st3" d="M73,65c0,1.1-0.9,2-2,2h-4c-1.1,0-2-0.9-2-2v-5c0-1.1,0.9-2,2-2h4c1.1,0,2,0.9,2,2V65z"/>
	<path class="st3" d="M51,69.5c0,0.8-0.9,1.5-2,1.5h-4c-1.1,0-2-0.7-2-1.5s0.9-1.5,2-1.5h4C50.1,68,51,68.7,51,69.5z"/>
	<path class="st3" d="M62,69.5c0,0.8-0.9,1.5-2,1.5h-4c-1.1,0-2-0.7-2-1.5s0.9-1.5,2-1.5h4C61.1,68,62,68.7,62,69.5z"/>
	<path class="st3" d="M73,69.5c0,0.8-0.9,1.5-2,1.5h-4c-1.1,0-2-0.7-2-1.5s0.9-1.5,2-1.5h4C72.1,68,73,68.7,73,69.5z"/>
	<path class="st3" d="M51,83c0,1.1-0.9,2-2,2h-4c-1.1,0-2-0.9-2-2v-5c0-1.1,0.9-2,2-2h4c1.1,0,2,0.9,2,2V83z"/>
	<path class="st3" d="M62,83c0,1.1-0.9,2-2,2h-4c-1.1,0-2-0.9-2-2v-5c0-1.1,0.9-2,2-2h4c1.1,0,2,0.9,2,2V83z"/>
	<path class="st3" d="M73,83c0,1.1-0.9,2-2,2h-4c-1.1,0-2-0.9-2-2v-5c0-1.1,0.9-2,2-2h4c1.1,0,2,0.9,2,2V83z"/>
	<path class="st3" d="M51,87.5c0,0.8-0.9,1.5-2,1.5h-4c-1.1,0-2-0.7-2-1.5s0.9-1.5,2-1.5h4C50.1,86,51,86.7,51,87.5z"/>
	<path class="st6" d="M73,107H43c-2,0-3.7-1.5-3.9-3.5c0,0.2-0.1,0.3-0.1,0.5v3c0,2.2,1.8,4,4,4h30c2.2,0,4-1.8,4-4v-3
		c0-0.2,0-0.3-0.1-0.5C76.7,105.5,75,107,73,107z"/>
	<path class="st3" d="M62,87.5c0,0.8-0.9,1.5-2,1.5h-4c-1.1,0-2-0.7-2-1.5s0.9-1.5,2-1.5h4C61.1,86,62,86.7,62,87.5z"/>
	<path class="st3" d="M73,87.5c0,0.8-0.9,1.5-2,1.5h-4c-1.1,0-2-0.7-2-1.5s0.9-1.5,2-1.5h4C72.1,86,73,86.7,73,87.5z"/>
	<path class="st4" d="M73,112H43c-2.8,0-5-2.2-5-5v-3c0-2.8,2.2-5,5-5h30c2.8,0,5,2.2,5,5v3C78,109.8,75.8,112,73,112z M43,101
		c-1.7,0-3,1.3-3,3v3c0,1.7,1.3,3,3,3h30c1.7,0,3-1.3,3-3v-3c0-1.7-1.3-3-3-3H43z"/>
	<path class="st4" d="M88,110h-5c-1.7,0-3-1.3-3-3v-3c0-1.7,1.3-3,3-3h5c1.7,0,3,1.3,3,3v3C91,108.7,89.7,110,88,110z M83,103
		c-0.6,0-1,0.4-1,1v3c0,0.6,0.4,1,1,1h5c0.6,0,1-0.4,1-1v-3c0-0.6-0.4-1-1-1H83z"/>
	<path class="st4" d="M88,77h-5c-1.7,0-3-1.3-3-3V62c0-1.7,1.3-3,3-3h5c1.7,0,3,1.3,3,3v12C91,75.7,89.7,77,88,77z M83,61
		c-0.6,0-1,0.4-1,1v12c0,0.6,0.4,1,1,1h5c0.6,0,1-0.4,1-1V62c0-0.6-0.4-1-1-1H83z"/>
	<path class="st4" d="M88,57h-5c-1.7,0-3-1.3-3-3v-5c0-1.7,1.3-3,3-3h5c1.7,0,3,1.3,3,3v5C91,55.7,89.7,57,88,57z M83,48
		c-0.6,0-1,0.4-1,1v5c0,0.6,0.4,1,1,1h5c0.6,0,1-0.4,1-1v-5c0-0.6-0.4-1-1-1H83z"/>
	<path class="st7" d="M49,43h-4c-0.6,0-1-0.4-1-1s0.4-1,1-1h4c0.6,0,1,0.4,1,1S49.6,43,49,43z"/>
	<path class="st7" d="M60,43h-4c-0.6,0-1-0.4-1-1s0.4-1,1-1h4c0.6,0,1,0.4,1,1S60.6,43,60,43z"/>
	<path class="st7" d="M71,43h-4c-0.6,0-1-0.4-1-1s0.4-1,1-1h4c0.6,0,1,0.4,1,1S71.6,43,71,43z"/>
	<path class="st7" d="M49,61h-4c-0.6,0-1-0.4-1-1s0.4-1,1-1h4c0.6,0,1,0.4,1,1S49.6,61,49,61z"/>
	<path class="st7" d="M60,61h-4c-0.6,0-1-0.4-1-1s0.4-1,1-1h4c0.6,0,1,0.4,1,1S60.6,61,60,61z"/>
	<path class="st7" d="M71,61h-4c-0.6,0-1-0.4-1-1s0.4-1,1-1h4c0.6,0,1,0.4,1,1S71.6,61,71,61z"/>
	<path class="st7" d="M49,79h-4c-0.6,0-1-0.4-1-1s0.4-1,1-1h4c0.6,0,1,0.4,1,1S49.6,79,49,79z"/>
	<path class="st7" d="M60,79h-4c-0.6,0-1-0.4-1-1s0.4-1,1-1h4c0.6,0,1,0.4,1,1S60.6,79,60,79z"/>
	<path class="st7" d="M71,79h-4c-0.6,0-1-0.4-1-1s0.4-1,1-1h4c0.6,0,1,0.4,1,1S71.6,79,71,79z"/>
	<path class="st8" d="M90,44c-0.6,0-1-0.4-1-1v-8c0-3.7-0.8-4-3-4H42c-0.6,0-1-0.4-1-1s0.4-1,1-1h44c3.7,0,5,1.6,5,6v8
		C91,43.6,90.6,44,90,44z"/>
	<path class="st8" d="M75,116h-9c-0.6,0-1-0.4-1-1s0.4-1,1-1h9c0.6,0,1,0.4,1,1S75.6,116,75,116z"/>
	<path class="st8" d="M61,116H42c-0.6,0-1-0.4-1-1s0.4-1,1-1h19c0.6,0,1,0.4,1,1S61.6,116,61,116z"/>
	<path class="st4" d="M86,37h-4c-0.6,0-1-0.4-1-1s0.4-1,1-1h4c0.6,0,1,0.4,1,1S86.6,37,86,37z"/>
	<path class="st4" d="M84,41h-2c-0.6,0-1-0.4-1-1s0.4-1,1-1h2c0.6,0,1,0.4,1,1S84.6,41,84,41z"/>
	<path class="st7" d="M17.7,64.5c-2.4,0-4.3-1.9-4.3-4.3c0-2.4,1.9-4.3,4.3-4.3c2.4,0,4.3,1.9,4.3,4.3C22,62.6,20.1,64.5,17.7,64.5z
		 M17.7,58c-1.3,0-2.3,1-2.3,2.3c0,1.3,1,2.3,2.3,2.3c1.3,0,2.3-1,2.3-2.3C20,59,19,58,17.7,58z"/>
	<path class="st7" d="M74.5,18C72,18,70,16,70,13.5C70,11,72,9,74.5,9C77,9,79,11,79,13.5C79,16,77,18,74.5,18z M74.5,11.1
		c-1.3,0-2.4,1.1-2.4,2.4c0,1.3,1.1,2.4,2.4,2.4c1.3,0,2.4-1.1,2.4-2.4C76.9,12.2,75.8,11.1,74.5,11.1z"/>
	<path class="st7" d="M110,52c-2.2,0-4-1.8-4-4c0-2.2,1.8-4,4-4c2.2,0,4,1.8,4,4C114,50.2,112.2,52,110,52z M110,45.9
		c-1.2,0-2.1,1-2.1,2.1c0,1.2,1,2.1,2.1,2.1c1.2,0,2.1-1,2.1-2.1C112.1,46.8,111.2,45.9,110,45.9z"/>
	<path class="st7" d="M51,14.1c0-0.4-0.4-0.8-1-0.9L48.2,13c-0.5-0.1-1.1-0.6-1.1-1.1L46.7,10c-0.1-0.5-0.5-1-0.9-1
		c-0.4,0-0.8,0.4-0.9,1l-0.3,1.9c-0.1,0.5-0.6,1.1-1.1,1.1l-1.9,0.3c-0.5,0.1-1,0.5-1,0.9c0,0.4,0.4,0.8,1,0.9l1.9,0.3
		c0.5,0.1,1.1,0.6,1.1,1.1l0.3,1.9c0.1,0.5,0.5,1,0.9,1c0.4,0,0.8-0.4,0.8-1l0.3-2.1c0.1-0.5,0.6-1,1.1-1.1l1.8-0.1
		C50.6,14.9,51,14.5,51,14.1z"/>
	<path class="st7" d="M117.3,73.1c0-0.4-0.4-0.8-1-0.9l-1.9-0.3c-0.5-0.1-1.1-0.6-1.1-1.1L113,69c-0.1-0.5-0.5-1-0.9-1
		s-0.8,0.4-0.9,1l-0.3,1.9c-0.1,0.5-0.6,1.1-1.1,1.1l-1.9,0.3c-0.5,0.1-1,0.5-1,0.9s0.4,0.8,1,0.9l1.9,0.3c0.5,0.1,1.1,0.6,1.1,1.1
		l0.3,1.9c0.1,0.5,0.5,1,0.9,1s0.8-0.4,0.8-1l0.3-2.1c0.1-0.5,0.6-1,1.1-1.1l1.8-0.1C116.8,73.9,117.3,73.5,117.3,73.1z"/>
	<path class="st7" d="M26,85.9c0-0.4-0.4-0.8-1-0.9l-1.9-0.3c-0.5-0.1-1.1-0.6-1.1-1.1l-0.3-1.9c-0.1-0.5-0.5-1-0.9-1
		c-0.4,0-0.8,0.4-0.9,1l-0.3,1.9c-0.1,0.5-0.6,1.1-1.1,1.1L16.7,85c-0.5,0.1-1,0.5-1,0.9c0,0.4,0.4,0.8,1,0.9l1.9,0.3
		c0.5,0.1,1.1,0.6,1.1,1.1L20,90c0.1,0.5,0.5,1,0.9,1c0.4,0,0.8-0.4,0.8-1l0.3-2.1c0.1-0.5,0.6-1,1.1-1.1l1.8-0.1
		C25.6,86.6,26,86.3,26,85.9z"/>
	<path class="st4" d="M101,128H26c-0.6,0-1-0.4-1-1s0.4-1,1-1h75c0.6,0,1,0.4,1,1S101.6,128,101,128z"/>
</g>
</svg>
