<?xml version="1.0" encoding="utf-8"?>
<!-- Generator: Adobe Illustrator 21.0.2, SVG Export Plug-In . SVG Version: 6.00 Build 0)  -->
<svg version="1.1" id="vr" xmlns="http://www.w3.org/2000/svg" xmlns:xlink="http://www.w3.org/1999/xlink" x="0px" y="0px"
	 viewBox="0 0 128 128" style="enable-background:new 0 0 128 128;" xml:space="preserve">
<style type="text/css">
	.st0{fill:#FBD000;}
	.st1{fill:#3AD0F9;}
	.st2{fill:#6B3C1C;}
	.st3{fill:#F9D4CA;}
	.st4{fill:#EFBFB4;}
	.st5{fill:#FFFFFF;}
	.st6{fill:#415E6D;}
	.st7{fill:#2D4552;}
	.st8{fill:#F99900;}
	.st9{fill:#D6742B;}
	.st10{opacity:0.5;fill:#FFFFFF;}
</style>
<g>
	<circle class="st0" cx="64" cy="64" r="64"/>
	<path class="st1" d="M64,128c10.1,0,19.6-2.3,28-6.5C90.6,107.2,78.4,96,63.6,96c-14.7,0-26.7,11-28.4,25.3
		C43.9,125.6,53.7,128,64,128z"/>
	<path class="st2" d="M63.5,95c-15.1,0-27.6,11-29.5,25.6c0.6,0.3,1.3,0.7,1.9,1c1.4-14,13.3-24.6,27.6-24.6
		c14.3,0,26.1,10.7,27.6,25c0.6-0.3,1.3-0.6,1.9-0.9C91.1,106.1,78.5,95,63.5,95z"/>
	<path class="st3" d="M67.9,99.5c0,2.3-1.5,4.2-3.7,4.2l0,0c-2.3,0-4.3-1.9-4.3-4.2v-8.9c0-2.3,2-4.2,4.3-4.2l0,0
		c2.3,0,3.7,1.9,3.7,4.2V99.5z"/>
	<circle class="st3" cx="34.5" cy="63.5" r="5.4"/>
	<path class="st2" d="M34.5,69.9c-3.6,0-6.4-2.9-6.4-6.4c0-3.6,2.9-6.4,6.4-6.4c3.6,0,6.4,2.9,6.4,6.4C40.9,67,38,69.9,34.5,69.9z
		 M34.5,59c-2.5,0-4.4,2-4.4,4.4c0,2.5,2,4.4,4.4,4.4c2.5,0,4.4-2,4.4-4.4C38.9,61,36.9,59,34.5,59z"/>
	<circle class="st3" cx="93.4" cy="63.5" r="5.4"/>
	<path class="st2" d="M64.3,105c-2.9,0-5.3-2.4-5.3-5.2v-9c0-2.9,2.4-5.2,5.3-5.2c2.7,0,4.7,2.2,4.7,5.2v9C69,102.8,67,105,64.3,105
		z M64.3,87.5c-1.8,0-3.3,1.5-3.3,3.2v9c0,1.7,1.5,3.2,3.3,3.2c1.9,0,2.7-1.7,2.7-3.2v-9C67,89.2,66.1,87.5,64.3,87.5z"/>
	<path class="st2" d="M93.4,69.9c-3.6,0-6.4-2.9-6.4-6.4c0-3.6,2.9-6.4,6.4-6.4c3.6,0,6.4,2.9,6.4,6.4C99.9,67,97,69.9,93.4,69.9z
		 M93.4,59C91,59,89,61,89,63.5c0,2.5,2,4.4,4.4,4.4c2.5,0,4.4-2,4.4-4.4C97.9,61,95.9,59,93.4,59z"/>
	<path class="st3" d="M63.9,27.3c14.9,0,27,12.1,27,27v10.8c0,14.9-12.1,27-27,27c-14.9,0-27-12.1-27-27V54.3
		C36.9,39.4,49,27.3,63.9,27.3z"/>
	<path class="st4" d="M63.9,86.5c-14.9,0-27-12.1-27-27v5.6c0,14.9,12.1,27,27,27c14.9,0,27-12.1,27-27v-5.6
		C90.8,74.4,78.8,86.5,63.9,86.5z"/>
	<path class="st2" d="M64,92.9c-15.4,0-28-12.5-28-27.8V54.3c0-15.4,12.6-28,28-28c15.4,0,28,12.5,28,28v10.8
		C92,80.4,79.4,92.9,64,92.9z M64,28.3c-14.3,0-26,11.7-26,26v10.8c0,14.2,11.7,25.8,26,25.8c14.3,0,26-11.6,26-25.8V54.3
		C90,40,78.3,28.3,64,28.3z"/>
	<path class="st5" d="M86,118.2c-0.4,0-0.8-0.2-0.9-0.6c-0.6-1.5-1.2-2.8-1.8-4c-0.3-0.5-0.1-1.1,0.4-1.4c0.5-0.3,1.1-0.1,1.4,0.4
		c0.7,1.3,1.3,2.7,1.9,4.3c0.2,0.5-0.1,1.1-0.6,1.3C86.3,118.2,86.2,118.2,86,118.2z"/>
	<path class="st5" d="M81.9,110.6c-0.3,0-0.6-0.1-0.8-0.4c-2.6-3.5-5.6-5.1-8.1-6.2c-0.5-0.2-0.7-0.8-0.5-1.3
		c0.2-0.5,0.8-0.7,1.3-0.5c2.8,1.3,6,2.9,8.9,6.9c0.3,0.4,0.2,1.1-0.2,1.4C82.3,110.5,82.1,110.6,81.9,110.6z"/>
	<path class="st5" d="M21.9,57.7c0-0.4-0.4-0.8-1-0.9l-1.9-0.3c-0.5-0.1-1.1-0.6-1.1-1.1l-0.3-1.9c-0.1-0.5-0.5-1-0.9-1
		c-0.4,0-0.8,0.4-0.9,1l-0.3,1.9c-0.1,0.5-0.6,1.1-1.1,1.1l-1.9,0.3c-0.5,0.1-1,0.5-1,0.9c0,0.4,0.4,0.8,1,0.9l1.9,0.3
		c0.5,0.1,1.1,0.6,1.1,1.1l0.3,1.9c0.1,0.5,0.5,1,0.9,1c0.4,0,0.8-0.4,0.9-1l0.3-2.1c0.1-0.5,0.6-1,1.1-1.1l1.8-0.1
		C21.5,58.4,21.9,58.1,21.9,57.7z"/>
	<path class="st5" d="M75.4,10.7c0-0.4-0.4-0.8-1-0.9l-1.9-0.3c-0.5-0.1-1.1-0.6-1.1-1.1l-0.3-1.9c-0.1-0.5-0.5-1-0.9-1
		c-0.4,0-0.8,0.4-0.9,1l-0.3,1.9c-0.1,0.5-0.6,1.1-1.1,1.1l-1.9,0.3c-0.5,0.1-1,0.5-1,0.9s0.4,0.8,1,0.9l1.9,0.3
		c0.5,0.1,1.1,0.6,1.1,1.1l0.3,1.9c0.1,0.5,0.5,1,0.9,1c0.4,0,0.8-0.4,0.9-1l0.3-2.1c0.1-0.5,0.6-1,1.1-1.1l1.8-0.1
		C75,11.4,75.4,11.1,75.4,10.7z"/>
	<path class="st5" d="M31,98c-2.2,0-4-1.8-4-4c0-2.2,1.8-4,4-4c2.2,0,4,1.8,4,4C35,96.2,33.2,98,31,98z M31,91.9
		c-1.2,0-2.1,1-2.1,2.1c0,1.2,1,2.1,2.1,2.1c1.2,0,2.1-1,2.1-2.1C33.1,92.8,32.2,91.9,31,91.9z"/>
	<path class="st5" d="M100,94c-2.2,0-4-1.8-4-4c0-2.2,1.8-4,4-4c2.2,0,4,1.8,4,4C104,92.2,102.2,94,100,94z M100,87.9
		c-1.2,0-2.1,1-2.1,2.1c0,1.2,0.9,2.1,2.1,2.1c1.2,0,2.1-1,2.1-2.1C102.1,88.8,101.2,87.9,100,87.9z"/>
	<path class="st5" d="M109,55c-2.2,0-4-1.8-4-4c0-2.2,1.8-4,4-4c2.2,0,4,1.8,4,4C113,53.2,111.2,55,109,55z M109,48.9
		c-1.2,0-2.1,1-2.1,2.1c0,1.2,1,2.1,2.1,2.1c1.2,0,2.1-1,2.1-2.1C111.1,49.8,110.2,48.9,109,48.9z"/>
	<path class="st6" d="M95.4,66.1c0,4.4-3.6,8-8,8H40.6c-4.4,0-8-3.6-8-8v-9.7c0-4.4,3.6-8,8-8h46.8c4.4,0,8,3.6,8,8V66.1z"/>
	<path class="st7" d="M87.4,67H40.6c-4.4,0-8-4.8-8-9.2v8.3c0,4.4,3.6,8,8,8h46.8c4.4,0,8-3.6,8-8v-8.3C95.4,62.2,91.8,67,87.4,67z"
		/>
	<path class="st2" d="M87,75L87,75H41c-5,0-9-4-9-9v-9c0-5,4-9,9-9h46c5,0,9,4,9,9v9.1C96,71.1,92,75,87,75z M41,50
		c-3.9,0-7,3.1-7,7v9c0,3.9,3.1,7,7,7l46,0.1l0,1v-1c3.9,0,7-3.1,7-7V57c0-3.9-3.1-7-7-7H41z"/>
	<path class="st2" d="M67,82.4c0,2-1.6,3.6-3.6,3.6l0,0c-2,0-3.4-1.6-3.4-3.6v-1.9c0-2,1.5-3.6,3.4-3.6l0,0c2,0,3.6,1.6,3.6,3.6
		V82.4z"/>
	<path class="st8" d="M41.9,38c0,0-0.5-12.2,12.2-17.2s23.2,7,31.2,5.8s10-4.8,10-4.8s0,16.5-13.8,19.2S50.9,45.2,41.9,38z"/>
	<path class="st9" d="M91.2,34.9c-12.4,6-24.4,5.3-33.7,3.1c-10.8-2.5-11.9-9.5-11.9-9.5H45l-0.8,0.7c-2.5,4.5-2.3,8.8-2.3,8.8
		c9,7.2,26,5.8,39.8,3C86.2,40.1,89.2,37.7,91.2,34.9z"/>
	<path class="st2" d="M63.3,45c-9.2,0-17-2.3-22-6.4c-0.2-0.2-0.4-0.5-0.4-0.8c0-0.1-0.4-13.2,12.8-18.5c2.2-0.9,4.4-1.3,6.8-1.3
		c5.2,0,10,2.2,14.2,4.2c3.3,1.5,6.5,3,9.1,3c0.4,0,0.7,0,1.1-0.1c7.3-1.2,9.2-4.3,9.2-4.3c0.2-0.4,0.7-0.6,1.1-0.5
		c0.4,0.1,0.7,0.5,0.7,1c0,0.2-0.7,15.5-14.3,20.5C76.2,43.9,69.6,45,63.3,45z M43,37.3C47.6,41,54.8,43,63.3,43
		c6.1,0,12.4-1.1,17.7-3.1C90,36.6,92.8,28.4,93.6,24c-1.6,1.1-4.2,2.4-8.4,3.1c-0.4,0.1-0.9,0.1-1.4,0.1c-3.1,0-6.4-1.5-9.9-3.2
		c-4-1.9-8.6-4-13.4-4c-2.1,0-4.1,0.4-6,1.2C43.9,25.5,43,35.1,43,37.3z"/>
	<path class="st10" d="M89,54h-9.2c-0.6,0-1-0.4-1-1s0.4-1,1-1H89c0.6,0,1,0.4,1,1S89.6,54,89,54z"/>
	<path class="st10" d="M72.7,54H39.9c-0.6,0-1-0.4-1-1s0.4-1,1-1h32.7c0.6,0,1,0.4,1,1S73.2,54,72.7,54z"/>
	<path class="st10" d="M50.5,28.5c-0.3,0-0.6-0.1-0.7-0.3c-0.4-0.4-0.3-1,0.1-1.4c0.2-0.2,4.8-4.3,10.5-4.3c6.4,0,12.6,3.8,12.9,4
		c0.5,0.3,0.6,0.9,0.3,1.4c-0.3,0.5-0.9,0.6-1.4,0.3c-0.1,0-5.9-3.7-11.8-3.7c-4.9,0-9.1,3.7-9.2,3.7C51,28.4,50.7,28.5,50.5,28.5z"
		/>
</g>
</svg>
