<?xml version="1.0" encoding="utf-8"?>
<!-- Generator: Adobe Illustrator 21.0.2, SVG Export Plug-In . SVG Version: 6.00 Build 0)  -->
<svg version="1.1" id="wine" xmlns="http://www.w3.org/2000/svg" xmlns:xlink="http://www.w3.org/1999/xlink" x="0px" y="0px"
	 viewBox="0 0 128 128" style="enable-background:new 0 0 128 128;" xml:space="preserve">
<style type="text/css">
	.st0{fill:#5E52F7;}
	.st1{opacity:0.4;fill:#FFFFFF;}
	.st2{fill:#F74541;}
	.st3{fill:#E8372E;}
	.st4{fill:#074370;}
	.st5{fill:#FFFFFF;}
	.st6{opacity:0.5;fill:#FFFFFF;}
</style>
<g>
	<circle class="st0" cx="64" cy="64" r="64"/>
	<path class="st1" d="M86.1,59.8C87.4,45,79.7,21,79.7,21H49.6c0,0-8.3,24-6.6,38.8c1.5,13.3,8,24,18,26.1V119c0,0-2.8,1.9-6.4,2.7
		s-6.6,0.9-6.6,0.9v4.4h33v-4.4c0,0-3.9-0.2-7-1c-3.5-0.9-6-2.7-6-2.7V85.9C78,83.7,85,72.8,86.1,59.8z"/>
	<path class="st2" d="M44,40c-1.2,6-1.5,13.2-0.8,18.8c1.7,14.8,9.8,26.5,21.5,26.5c11.7,0,20.3-12,21.5-26.5
		c0.5-5.6,0-12.9-1.2-18.9H44z"/>
	<path class="st3" d="M64.7,73.3c-11.4,0-19.4-11.2-21.4-25.6c-0.4,3.9-0.5,7.6-0.1,10.9c1.7,14.8,9.8,26.6,21.5,26.6
		c11.7,0,20.3-12.1,21.5-26.6c0.3-3.1,0.1-6.5-0.2-10C84.2,62.2,75.9,73.3,64.7,73.3z"/>
	<path class="st4" d="M81,128H48c-0.6,0-1-0.4-1-1v-4.4c0-0.6,0.4-1,1-1c0,0,2.9,0,6.4-0.8c2.6-0.6,4.7-1.8,5.6-2.3V86.7
		C50.5,84.3,43.6,74.2,42,60v-8c0.9-14.1,6.4-30.5,6.7-31.3c0.1-0.4,0.5-0.7,0.9-0.7h30.1c0.4,0,0.8,0.3,1,0.7
		C81,21.6,86.9,41.2,87,56v4c-1.2,13.5-8.3,24.1-18,26.6v31.7c0.8,0.5,2.8,1.6,5.2,2.2c3,0.8,6.8,1,6.8,1c0.5,0,0.9,0.5,0.9,1v4.4
		C82,127.6,81.6,128,81,128z M49,126h31v-2.5c-1.4-0.1-4-0.4-6.2-1c-3.6-0.9-6.2-2.7-6.3-2.8c-0.3-0.2-0.4-0.5-0.4-0.8V85.9
		c0-0.5,0.3-0.9,0.8-1c9.2-2,16.2-12.1,17.3-25.1C86.2,46.6,80.2,26,79,22H50.4c-1.3,4-7.8,24.7-6.3,37.7
		c1.6,13.7,8.2,23.3,17.2,25.2c0.5,0.1,0.8,0.5,0.8,1V119c0,0.3-0.2,0.6-0.4,0.8c-0.1,0.1-2.9,2-6.7,2.9c-2.5,0.6-4.7,0.8-5.9,0.9
		V126z"/>
	<path class="st4" d="M86,128H24c-0.6,0-1-0.4-1-1s0.4-1,1-1h62c0.6,0,1,0.4,1,1S86.6,128,86,128z"/>
	<path class="st4" d="M105,128H93c-0.6,0-1-0.4-1-1s0.4-1,1-1h12c0.6,0,1,0.4,1,1S105.6,128,105,128z"/>
	<path class="st5" d="M80.2,53.6c-0.5,0-1-0.4-1-0.9c-1-15.7-4.9-26.6-4.9-26.7c-0.2-0.5,0.1-1.1,0.6-1.3c0.5-0.2,1.1,0.1,1.3,0.6
		c0,0.1,4.1,11.3,5.1,27.3C81.3,53.1,80.9,53.5,80.2,53.6C80.3,53.6,80.3,53.6,80.2,53.6z"/>
	<path class="st5" d="M48.2,57C48.2,57,48.2,57,48.2,57c-0.6,0-1-0.6-1-1.1c0.2-5.2,0.9-11.6,2.2-19c0.1-0.5,0.6-0.9,1.2-0.8
		c0.5,0.1,0.9,0.6,0.8,1.1c-1.3,7.3-2,13.6-2.2,18.8C49.2,56.5,48.8,57,48.2,57z"/>
	<path class="st5" d="M51.4,32.8c-0.1,0-0.1,0-0.2,0c-0.5-0.1-0.9-0.6-0.8-1.2c0.7-3.8,1.3-6.2,1.3-6.3c0.1-0.5,0.7-0.9,1.2-0.7
		c0.5,0.1,0.9,0.7,0.7,1.2c0,0-0.6,2.5-1.3,6.2C52.3,32.5,51.9,32.8,51.4,32.8z"/>
	<path class="st5" d="M65,83c-0.5,0-1-0.5-1-1c0-0.5,0.4-1.1,0.9-1.1c0.2,0,5.1-0.4,9.5-6.4c0.3-0.4,1-0.6,1.4-0.2
		c0.4,0.3,0.5,1,0.2,1.5C71.1,82.6,65.3,83,65,83C65,83,65,83,65,83z"/>
	<path class="st5" d="M72,124.6C72,124.6,72,124.6,72,124.6c-4.8-0.3-6.5-2.8-6.6-2.9c-0.3-0.5-0.2-1.1,0.3-1.4
		c0.5-0.3,1.1-0.2,1.4,0.3c0.1,0.1,1.4,1.9,5,2.1c0.6,0,1,0.5,0.9,1.1C73,124.2,72.5,124.6,72,124.6z"/>
	<path class="st5" d="M65,115c-0.6,0-1-0.4-1-1V90c0-0.6,0.4-1,1-1c0.6,0,1,0.4,1,1v24C66,114.6,65.6,115,65,115z"/>
	<path class="st6" d="M97.6,93.5c0-0.4-0.4-0.8-1-0.9l-1.9-0.3c-0.5-0.1-1.1-0.6-1.1-1.1l-0.3-1.9c-0.1-0.5-0.5-1-0.9-1
		c-0.4,0-0.8,0.4-0.9,1l-0.3,1.9c-0.1,0.5-0.6,1.1-1.1,1.1l-1.9,0.3c-0.5,0.1-1,0.5-1,0.9c0,0.4,0.4,0.8,1,0.9l1.9,0.3
		c0.5,0.1,1.1,0.6,1.1,1.1l0.3,1.9c0.1,0.5,0.5,1,0.9,1c0.4,0,0.8-0.4,0.9-1l0.3-2.1c0.1-0.5,0.6-1,1.1-1.1l1.8-0.1
		C97.1,94.2,97.6,93.9,97.6,93.5z"/>
	<path class="st6" d="M20.2,74.2c0-0.4-0.4-0.8-1-0.9L17.4,73c-0.5-0.1-1.1-0.6-1.1-1.1L16,70c-0.1-0.5-0.5-1-0.9-1
		c-0.4,0-0.8,0.4-0.9,1L14,71.9c-0.1,0.5-0.6,1.1-1.1,1.1L11,73.3c-0.5,0.1-1,0.5-1,0.9c0,0.4,0.4,0.8,1,0.9l1.9,0.3
		c0.5,0.1,1.1,0.6,1.1,1.1l0.3,1.9c0.1,0.5,0.5,1,0.9,1c0.4,0,0.8-0.4,0.9-1l0.3-2.1c0.1-0.5,0.6-1,1.1-1.1l1.8-0.1
		C19.8,74.9,20.2,74.6,20.2,74.2z"/>
	<path class="st6" d="M103.5,31.8c0-0.4-0.4-0.8-1-0.9l-1.9-0.3c-0.5-0.1-1.1-0.6-1.1-1.1l-0.3-1.9c-0.1-0.5-0.5-1-0.9-1
		c-0.4,0-0.8,0.4-0.9,1l-0.3,1.9c-0.1,0.5-0.6,1.1-1.1,1.1l-1.9,0.3c-0.5,0.1-1,0.5-1,0.9c0,0.4,0.4,0.8,1,0.9l1.9,0.3
		c0.5,0.1,1.1,0.6,1.1,1.1l0.3,1.9c0.1,0.5,0.5,1,0.9,1c0.4,0,0.8-0.4,0.9-1l0.3-2.1c0.1-0.5,0.6-1,1.1-1.1l1.8-0.1
		C103.1,32.6,103.5,32.2,103.5,31.8z"/>
	<path class="st6" d="M38,102c-2.2,0-4-1.8-4-4c0-2.2,1.8-4,4-4c2.2,0,4,1.8,4,4C42,100.2,40.2,102,38,102z M38,95.9
		c-1.2,0-2.1,1-2.1,2.1c0,1.2,1,2.1,2.1,2.1c1.2,0,2.1-1,2.1-2.1C40.1,96.8,39.2,95.9,38,95.9z"/>
	<path class="st6" d="M110,63c-2.2,0-4-1.8-4-4c0-2.2,1.8-4,4-4c2.2,0,4,1.8,4,4C114,61.2,112.2,63,110,63z M110,56.9
		c-1.2,0-2.1,1-2.1,2.1c0,1.2,1,2.1,2.1,2.1c1.2,0,2.1-1,2.1-2.1C112.1,57.8,111.2,56.9,110,56.9z"/>
	<path class="st6" d="M28,51c-2.2,0-4-1.8-4-4c0-2.2,1.8-4,4-4c2.2,0,4,1.8,4,4C32,49.2,30.2,51,28,51z M28,44.9
		c-1.2,0-2.1,1-2.1,2.1c0,1.2,1,2.1,2.1,2.1c1.2,0,2.1-1,2.1-2.1C30.1,45.8,29.2,44.9,28,44.9z"/>
	<path class="st5" d="M83.3,20.4c0-0.4-0.4-0.8-1-0.9l-4.8-0.8c-0.5-0.1-1.1-0.6-1.2-1.2l-0.8-4.8c-0.1-0.5-0.5-1-0.9-1
		c-0.4,0-0.8,0.4-0.9,1l-0.8,4.8c-0.1,0.5-0.6,1.1-1.2,1.2l-4.8,0.8c-0.5,0.1-1,0.5-1,0.9s0.4,0.8,1,0.9l4.7,0.6
		c0.5,0.1,1.1,0.6,1.2,1.1l0.9,5c0.1,0.5,0.5,1,0.9,1c0.4,0,0.8-0.4,0.9-1l0.9-5.1c0.1-0.5,0.6-1,1.2-1.1l4.7-0.6
		C82.9,21.3,83.3,20.9,83.3,20.4z"/>
</g>
</svg>
