<?xml version="1.0" encoding="iso-8859-1"?>
<!-- Generator: Adobe Illustrator 19.0.0, SVG Export Plug-In . SVG Version: 6.00 Build 0)  -->
<svg version="1.1" id="Layer_1" xmlns="http://www.w3.org/2000/svg" xmlns:xlink="http://www.w3.org/1999/xlink" x="0px" y="0px"
	 viewBox="0 0 455.271 455.271" style="enable-background:new 0 0 455.271 455.271;" xml:space="preserve">
<g>
	<path d="M143.364,316C83.822,316,31.31,285.917,0.186,240.125c-0.03,23.311-0.051,48.414-0.051,72.417
		c0,78.827,64.173,142.729,143,142.729s143-63.902,143-142.729c0-25.155,0.023-49.887,0.055-71.91
		C255.024,286.138,202.685,316,143.364,316z"/>
	<path d="M241.858,0.771c41.835,29.026,70.241,76.03,74.052,129.835l0.541,0.03l-0.316,181.906l-0.003,0.229h139.003v-312H241.858z"
		/>
	<path d="M143.365,123c-11.028,0-20,8.972-20,20s8.972,20,20,20s20-8.972,20-20S154.392,123,143.365,123z"/>
	<path d="M143.364,0c-78.977,0-143,64.023-143,143c0,78.977,64.023,143,143,143s143-64.023,143-143
		C286.364,64.023,222.341,0,143.364,0z M143.365,193c-27.57,0-50-22.43-50-50s22.43-50,50-50s50,22.43,50,50
		S170.935,193,143.365,193z"/>
</g>
<g>
</g>
<g>
</g>
<g>
</g>
<g>
</g>
<g>
</g>
<g>
</g>
<g>
</g>
<g>
</g>
<g>
</g>
<g>
</g>
<g>
</g>
<g>
</g>
<g>
</g>
<g>
</g>
<g>
</g>
</svg>
