<?xml version="1.0" encoding="iso-8859-1"?>
<!-- Generator: Adobe Illustrator 19.0.0, SVG Export Plug-In . SVG Version: 6.00 Build 0)  -->
<svg version="1.1" id="Layer_1" xmlns="http://www.w3.org/2000/svg" xmlns:xlink="http://www.w3.org/1999/xlink" x="0px" y="0px"
	 viewBox="0 0 455 455" style="enable-background:new 0 0 455 455;" xml:space="preserve">
<path d="M411.839,67.5H387.5V43.161C387.5,19.323,367.837,0,344,0c-23.837,0-43.5,19.324-43.5,43.161v36.933L80.093,300.5H43.161
	C19.324,300.5,0,320.163,0,344c-0.001,23.836,19.323,43.5,43.16,43.5H67.5v24.338C67.5,435.677,87.163,455,111,455
	c23.837,0,43.5-19.324,43.5-43.161v-36.933L374.906,154.5h36.933C435.676,154.5,455,134.837,455,111
	C455,87.163,435.677,67.5,411.839,67.5z"/>
<g>
</g>
<g>
</g>
<g>
</g>
<g>
</g>
<g>
</g>
<g>
</g>
<g>
</g>
<g>
</g>
<g>
</g>
<g>
</g>
<g>
</g>
<g>
</g>
<g>
</g>
<g>
</g>
<g>
</g>
</svg>
