<?xml version="1.0" encoding="iso-8859-1"?>
<!-- Generator: Adobe Illustrator 19.0.0, SVG Export Plug-In . SVG Version: 6.00 Build 0)  -->
<svg version="1.1" id="Layer_1" xmlns="http://www.w3.org/2000/svg" xmlns:xlink="http://www.w3.org/1999/xlink" x="0px" y="0px"
	 viewBox="0 0 455 455" style="enable-background:new 0 0 455 455;" xml:space="preserve">
<path d="M252.078,227.313c31.999-24.947,63.834-51.354,88.667-83.273C373.889,101.439,390,54,390,0h-30
	c0,16.547-1.677,31.81-4.784,46H99.786C96.678,31.813,95,16.55,95,0H65c0,54,16.111,101.564,49.255,144.164
	c24.87,31.966,56.763,58.219,88.81,83.148c-32.047,24.929-63.94,51.182-88.81,83.148C81.111,353.061,65,400,65,455h30
	c0-17.745,1.903-33.984,5.392-49H354.61c3.488,15.019,5.39,31.259,5.39,49h30c0-55-16.111-101.814-49.255-144.414
	C315.912,278.667,284.077,252.26,252.078,227.313z M109.022,76h236.965c-8.021,19.988-19.12,37.717-32.351,54H141.418
	C128.169,113.72,117.054,95.993,109.022,76z M169.535,160h116.031c-17.835,16.901-37.64,32.612-57.985,48.361
	C207.217,192.603,187.391,176.895,169.535,160z M227.58,246.261c20.141,15.578,39.753,31.078,57.448,47.739H170.072
	C187.788,277.345,207.421,261.848,227.58,246.261z M110.035,376c8.017-19.223,18.891-36.295,31.746-52h171.492
	c12.837,15.708,23.695,32.782,31.702,52H110.035z"/>
<g>
</g>
<g>
</g>
<g>
</g>
<g>
</g>
<g>
</g>
<g>
</g>
<g>
</g>
<g>
</g>
<g>
</g>
<g>
</g>
<g>
</g>
<g>
</g>
<g>
</g>
<g>
</g>
<g>
</g>
</svg>
