<?xml version="1.0" encoding="iso-8859-1"?>
<!-- Generator: Adobe Illustrator 19.0.0, SVG Export Plug-In . SVG Version: 6.00 Build 0)  -->
<svg version="1.1" id="Layer_1" xmlns="http://www.w3.org/2000/svg" xmlns:xlink="http://www.w3.org/1999/xlink" x="0px" y="0px"
	 viewBox="0 0 437.5 437.5" style="enable-background:new 0 0 437.5 437.5;" xml:space="preserve">
<g>
	<circle cx="218.75" cy="58.364" r="58.364"/>
	<path d="M218.75,248.222c45.563,0,82.5-36.937,82.5-82.5c0-18.373-6.009-35.34-16.164-49.051
		c-16.206,18.415-39.935,30.057-66.336,30.057s-50.13-11.642-66.336-30.057c-10.155,13.711-16.164,30.679-16.164,49.051
		C136.25,211.285,173.187,248.222,218.75,248.222z"/>
	<path d="M300.72,313.141l-66.97,66.97V437.5h134C367.75,385.679,341.101,339.856,300.72,313.141z"/>
	<path d="M69.75,437.5h134v-57.389l-66.97-66.97C96.399,339.856,69.75,385.679,69.75,437.5z"/>
	<path d="M218.75,288.5c-19.062,0-37.285,3.601-54.04,10.145l54.04,54.04l54.04-54.04C256.035,292.101,237.812,288.5,218.75,288.5z"
		/>
</g>
<g>
</g>
<g>
</g>
<g>
</g>
<g>
</g>
<g>
</g>
<g>
</g>
<g>
</g>
<g>
</g>
<g>
</g>
<g>
</g>
<g>
</g>
<g>
</g>
<g>
</g>
<g>
</g>
<g>
</g>
</svg>
