<?xml version="1.0" encoding="iso-8859-1"?>
<!-- Generator: Adobe Illustrator 19.0.0, SVG Export Plug-In . SVG Version: 6.00 Build 0)  -->
<svg version="1.1" id="Layer_1" xmlns="http://www.w3.org/2000/svg" xmlns:xlink="http://www.w3.org/1999/xlink" x="0px" y="0px"
	 viewBox="0 0 455 455" style="enable-background:new 0 0 455 455;" xml:space="preserve">
<g>
	<g>
		<path d="M199.459,310h56.082c6.043,0,10.959-4.916,10.959-10.958c0-6.125-4.916-11.042-10.959-11.042h-56.082
			c-6.043,0-10.959,4.916-10.959,10.958C188.5,305.084,193.416,310,199.459,310z"/>
	</g>
	<g>
		<polygon points="386.5,132.583 386.5,98 68.5,98 68.5,132.583 37.5,152.583 37.5,198 417.5,198 417.5,152.583 		"/>
	</g>
	<g>
		<rect x="37.5" y="400" width="380" height="55"/>
	</g>
	<g>
		<path d="M37.5,370h380V228h-380V370z M199.459,258h56.082c22.585,0,40.959,18.374,40.959,40.958
			c0,22.667-18.374,41.042-40.959,41.042h-56.082c-22.585,0-40.959-18.374-40.959-40.958C158.5,276.374,176.874,258,199.459,258z"/>
	</g>
	<g>
		<rect x="242.5" width="67" height="68"/>
	</g>
	<g>
		<rect x="144.5" width="68" height="68"/>
	</g>
	<g>
		<rect x="339.5" width="68" height="68"/>
	</g>
	<g>
		<rect x="47.5" width="67" height="68"/>
	</g>
</g>
<g>
</g>
<g>
</g>
<g>
</g>
<g>
</g>
<g>
</g>
<g>
</g>
<g>
</g>
<g>
</g>
<g>
</g>
<g>
</g>
<g>
</g>
<g>
</g>
<g>
</g>
<g>
</g>
<g>
</g>
</svg>
