<?xml version="1.0" encoding="iso-8859-1"?>
<!-- Generator: Adobe Illustrator 19.0.0, SVG Export Plug-In . SVG Version: 6.00 Build 0)  -->
<svg version="1.1" id="Layer_1" xmlns="http://www.w3.org/2000/svg" xmlns:xlink="http://www.w3.org/1999/xlink" x="0px" y="0px"
	 viewBox="0 0 455.07 455.07" style="enable-background:new 0 0 455.07 455.07;" xml:space="preserve">
<path d="M227.617,0C153.419,0,92.943,60.302,92.943,134.478V455.07h92.388c39.033,0,72.341-24.717,85.623-59.052l82.285-213.405
	c5.81-15.021,8.888-31.313,8.888-48.385C362.127,60.054,301.815,0,227.617,0z M287.24,135.07c0-33-26.758-59.441-59.648-59.441
	s-59.648,26.571-59.648,59.323v67.538c11.768,2.703,22.51,8.595,31.154,17.235c12.153,12.148,18.846,28.382,18.846,45.712
	c0,35.639-28.947,64.633-64.529,64.633h-15.471v-30h15.471c19.039,0,34.529-15.403,34.529-34.5c0-19.421-15.374-34.5-35-34.5h-15
	v-96.118c0-49.294,40.216-89.323,89.648-89.323S317.24,86.07,317.24,135.07H287.24z"/>
<g>
</g>
<g>
</g>
<g>
</g>
<g>
</g>
<g>
</g>
<g>
</g>
<g>
</g>
<g>
</g>
<g>
</g>
<g>
</g>
<g>
</g>
<g>
</g>
<g>
</g>
<g>
</g>
<g>
</g>
</svg>
