<?xml version="1.0" encoding="iso-8859-1"?>
<!-- Generator: Adobe Illustrator 19.0.0, SVG Export Plug-In . SVG Version: 6.00 Build 0)  -->
<svg version="1.1" id="Layer_1" xmlns="http://www.w3.org/2000/svg" xmlns:xlink="http://www.w3.org/1999/xlink" x="0px" y="0px"
	 viewBox="0 0 476.487 476.487" style="enable-background:new 0 0 476.487 476.487;" xml:space="preserve">
<g>
	<path d="M238.767,164.42c-64.141,0-116.323,52.183-116.323,116.323s52.183,116.323,116.323,116.323S355.09,344.884,355.09,280.743
		S302.907,164.42,238.767,164.42z M238.767,340.743c-33.137,0-60-26.863-60-60s26.863-60,60-60c0.757,0,1.507,0.029,2.258,0.057
		c-2.498,5.492-3.901,11.588-3.901,18.015c0,24.064,19.508,43.572,43.571,43.572c6.427,0,12.523-1.403,18.015-3.901
		c0.028,0.75,0.057,1.5,0.057,2.258C298.767,313.881,271.904,340.743,238.767,340.743z"/>
	<path d="M92.443,280.743c0-46.992,22.272-88.875,56.809-115.665c-58.46,21.194-107.257,62.546-137.986,115.665
		c30.729,53.118,79.526,94.471,137.986,115.665C114.716,369.619,92.443,327.736,92.443,280.743z"/>
	<path d="M328.281,165.079c34.537,26.79,56.809,68.672,56.809,115.665s-22.272,88.875-56.81,115.665
		c58.46-21.194,107.258-62.547,137.986-115.665C435.538,227.625,386.741,186.273,328.281,165.079z"/>
	<path d="M85.278,151.185c46.35-27.322,99.426-41.765,153.489-41.765s107.139,14.442,153.488,41.765
		c22.933,13.52,44.059,30.078,62.792,49.219l21.44-20.984c-20.578-21.024-43.792-39.22-68.997-54.078
		C356.527,95.299,298.184,79.42,238.767,79.42S121.006,95.299,70.043,125.341C44.401,140.456,20.835,159.012,0,180.491
		l21.533,20.889C40.501,181.825,61.948,164.938,85.278,151.185z"/>
</g>
<g>
</g>
<g>
</g>
<g>
</g>
<g>
</g>
<g>
</g>
<g>
</g>
<g>
</g>
<g>
</g>
<g>
</g>
<g>
</g>
<g>
</g>
<g>
</g>
<g>
</g>
<g>
</g>
<g>
</g>
</svg>
