<?xml version="1.0" encoding="iso-8859-1"?>
<!-- Generator: Adobe Illustrator 19.0.0, SVG Export Plug-In . SVG Version: 6.00 Build 0)  -->
<svg version="1.1" id="Layer_1" xmlns="http://www.w3.org/2000/svg" xmlns:xlink="http://www.w3.org/1999/xlink" x="0px" y="0px"
	 viewBox="0 0 455 455" style="enable-background:new 0 0 455 455;" xml:space="preserve">
<g>
	<path d="M454.922,202.005c-0.016-0.335-0.044-0.666-0.065-1c-0.043-0.686-0.091-1.37-0.156-2.05
		c-0.037-0.39-0.083-0.777-0.128-1.165c-0.071-0.62-0.147-1.238-0.236-1.852c-0.058-0.403-0.12-0.804-0.185-1.204
		c-0.098-0.599-0.206-1.195-0.32-1.788c-0.076-0.396-0.152-0.791-0.236-1.184c-0.129-0.607-0.272-1.208-0.418-1.809
		c-0.089-0.366-0.172-0.734-0.268-1.097c-0.183-0.698-0.385-1.389-0.591-2.078c-0.076-0.254-0.143-0.513-0.223-0.767
		c-0.285-0.911-0.592-1.813-0.917-2.706c-0.132-0.364-0.279-0.722-0.417-1.083c-0.208-0.541-0.416-1.083-0.638-1.616
		c-0.175-0.419-0.36-0.833-0.543-1.248c-0.205-0.465-0.413-0.929-0.628-1.388c-0.205-0.435-0.416-0.865-0.629-1.294
		c-0.212-0.425-0.429-0.848-0.65-1.268c-0.233-0.442-0.469-0.883-0.712-1.319c-0.216-0.388-0.44-0.771-0.664-1.153
		c-0.264-0.451-0.527-0.904-0.802-1.348c-0.204-0.331-0.419-0.653-0.629-0.98c-1.159-1.798-2.403-3.537-3.731-5.206
		c-0.142-0.179-0.28-0.361-0.424-0.538c-0.415-0.51-0.844-1.009-1.274-1.506c-0.18-0.208-0.358-0.417-0.54-0.623
		c-0.436-0.491-0.882-0.973-1.333-1.45c-0.181-0.191-0.363-0.383-0.547-0.572c-0.472-0.487-0.95-0.968-1.437-1.439
		c-0.156-0.15-0.313-0.299-0.47-0.448c-0.529-0.502-1.062-1-1.608-1.483c-0.063-0.056-0.128-0.11-0.192-0.166
		c-3.234-2.845-6.758-5.37-10.522-7.522c-0.057-0.032-0.113-0.065-0.17-0.098c-0.731-0.415-1.471-0.816-2.22-1.204
		c-0.043-0.022-0.086-0.043-0.128-0.065c-4.725-2.427-9.792-4.286-15.11-5.482c-4.542-1.022-9.259-1.579-14.11-1.579
		c-21.46,0-40.449,10.556-52.049,26.75c-11.6-16.194-30.589-26.75-52.049-26.75c-35.319,0-63.951,28.589-63.951,63.856
		c0,15.331,5.411,29.398,14.429,40.405L339,369.229l0.74-0.901c0,0,100.831-122.838,100.831-122.838
		C449.589,234.483,455,220.416,455,205.086C455,204.052,454.971,203.026,454.922,202.005z"/>
	<path d="M214.224,264.503C200.537,247.799,193,226.698,193,205.086c0-51.752,42.146-93.856,93.951-93.856
		c18.724,0,36.809,5.628,52.049,15.751c15.24-10.123,33.325-15.751,52.049-15.751c0.29,0,0.579,0.008,0.868,0.011
		c-13.327-22.601-33.825-41.225-59.933-52.039C293.843,43.402,252.381,47.85,219.5,67.565V0.369h-30v66.967
		c-32.819-19.52-74.104-23.872-112.097-8.135C13.452,85.69-16.916,159.006,9.573,222.956L86.488,409.08
		c15.589,37.634,58.734,55.505,96.368,39.917c8.287-3.432,15.613-8.204,21.837-13.956c6.224,5.752,13.551,10.523,21.838,13.956
		c37.634,15.589,80.779-2.283,96.368-39.917l3.349-8.104l-10.436-12.713L214.224,264.503z"/>
</g>
<g>
</g>
<g>
</g>
<g>
</g>
<g>
</g>
<g>
</g>
<g>
</g>
<g>
</g>
<g>
</g>
<g>
</g>
<g>
</g>
<g>
</g>
<g>
</g>
<g>
</g>
<g>
</g>
<g>
</g>
</svg>
