<?xml version="1.0" encoding="iso-8859-1"?>
<!-- Generator: Adobe Illustrator 19.0.0, SVG Export Plug-In . SVG Version: 6.00 Build 0)  -->
<svg version="1.1" id="Layer_1" xmlns="http://www.w3.org/2000/svg" xmlns:xlink="http://www.w3.org/1999/xlink" x="0px" y="0px"
	 viewBox="0 0 455 455" style="enable-background:new 0 0 455 455;" xml:space="preserve">
<g>
	<path d="M370.5,182.536v2.152c4.917-1.019,10.008-1.557,15.222-1.557c5.058,0,9.998,0.51,14.778,1.47v-2.065
		C400.5,128.715,356.935,85,303.114,85H301.5v30h1.614C340.393,115,370.5,145.257,370.5,182.536z"/>
	<path d="M370.5,331.504V385H94.313c-38.66,0-70,31-70,70H400.5V331.59c-4.78,0.959-9.72,1.47-14.778,1.47
		C380.508,333.061,375.417,332.522,370.5,331.504z"/>
	<path d="M385.722,213.131c-20.505,0-37.835,13.801-43.222,32.599V244h-203v30h105v33h-35v30h35v18h30v-81h68v-3.539
		c5.386,18.797,22.717,32.599,43.222,32.599c24.794,0,44.965-20.171,44.965-44.965S410.516,213.131,385.722,213.131z"/>
	<polygon points="212.5,216 242.5,216 242.5,175 271.5,175 271.5,0 183.5,0 183.5,175 212.5,175 	"/>
</g>
<g>
</g>
<g>
</g>
<g>
</g>
<g>
</g>
<g>
</g>
<g>
</g>
<g>
</g>
<g>
</g>
<g>
</g>
<g>
</g>
<g>
</g>
<g>
</g>
<g>
</g>
<g>
</g>
<g>
</g>
</svg>
