<?xml version="1.0" encoding="iso-8859-1"?>
<!-- Generator: Adobe Illustrator 19.0.0, SVG Export Plug-In . SVG Version: 6.00 Build 0)  -->
<svg version="1.1" id="Layer_1" xmlns="http://www.w3.org/2000/svg" xmlns:xlink="http://www.w3.org/1999/xlink" x="0px" y="0px"
	 viewBox="0 0 436.417 436.417" style="enable-background:new 0 0 436.417 436.417;" xml:space="preserve">
<g>
	<path d="M218.208,52.833c26.826,0,52.214,9.333,72.47,26.451l12.579-58.618L218.208,0l-85.049,20.667l12.579,58.618
		C165.995,62.166,191.382,52.833,218.208,52.833z"/>
	<path d="M217.771,82.833c-31.888,0-59.562,18.104-73.313,44.583h146.528C277.271,100.937,249.659,82.833,217.771,82.833z"/>
	<path d="M300.208,232.417v-67.083c0-2.671-0.138-5.31-0.386-7.917H135.595c-0.249,2.606-0.387,5.245-0.387,7.917
		c0,0.028,0,67.083,0,67.083h30v-3.875c14.337,12.034,32.818,19.292,53,19.292c19.716,0,37.808-6.925,52-18.463v3.047H300.208z"/>
	<path d="M301.266,312.513l-68.058,68.059v55.845h134C367.208,384.434,341.039,339.122,301.266,312.513z"/>
	<path d="M69.208,436.417h134v-55.845l-68.058-68.059C95.377,339.122,69.208,384.434,69.208,436.417z"/>
	<path d="M218.208,287.417c-19.518,0-38.156,3.719-55.238,10.49l55.238,55.238l55.238-55.238
		C256.364,291.135,237.726,287.417,218.208,287.417z"/>
</g>
<g>
</g>
<g>
</g>
<g>
</g>
<g>
</g>
<g>
</g>
<g>
</g>
<g>
</g>
<g>
</g>
<g>
</g>
<g>
</g>
<g>
</g>
<g>
</g>
<g>
</g>
<g>
</g>
<g>
</g>
</svg>
