<?xml version="1.0" encoding="iso-8859-1"?>
<!-- Generator: Adobe Illustrator 19.0.0, SVG Export Plug-In . SVG Version: 6.00 Build 0)  -->
<svg version="1.1" id="Layer_1" xmlns="http://www.w3.org/2000/svg" xmlns:xlink="http://www.w3.org/1999/xlink" x="0px" y="0px"
	 viewBox="0 0 470 470" style="enable-background:new 0 0 470 470;" xml:space="preserve">
<g>
	<polygon points="440,7.5 440,105.5 415,105.5 415,135.5 440,135.5 440,333.5 415,333.5 415,363.5 440,363.5 440,462.5 470,462.5 
		470,7.5 	"/>
	<polygon points="163,333.5 223,333.5 223,264.5 292,264.5 292,204.5 223,204.5 223,135.5 163,135.5 163,204.5 94,204.5 94,264.5 
		163,264.5 	"/>
	<path d="M0,427.5h385v-385H0V427.5z M64,174.5h69v-69h120v69h69v120h-69v69H133v-69H64V174.5z"/>
</g>
<g>
</g>
<g>
</g>
<g>
</g>
<g>
</g>
<g>
</g>
<g>
</g>
<g>
</g>
<g>
</g>
<g>
</g>
<g>
</g>
<g>
</g>
<g>
</g>
<g>
</g>
<g>
</g>
<g>
</g>
</svg>
