<?xml version="1.0" encoding="iso-8859-1"?>
<!-- Generator: Adobe Illustrator 19.1.0, SVG Export Plug-In . SVG Version: 6.00 Build 0)  -->
<svg version="1.1" id="Capa_1" xmlns="http://www.w3.org/2000/svg" xmlns:xlink="http://www.w3.org/1999/xlink" x="0px" y="0px"
	 viewBox="0 0 455.001 455.001" style="enable-background:new 0 0 455.001 455.001;" xml:space="preserve">
<g>
	<path d="M264.796,343.844L111.16,190.208l79.045-79.045l153.636,153.636L264.796,343.844z"/>
	<path d="M423.182,31.819c-42.426-42.426-111.212-42.426-153.638,0l-58.126,58.126l153.638,153.638l58.126-58.126
		C465.607,143.032,465.607,74.245,423.182,31.819z M296.413,125.158L275.2,103.945l28-28l21.213,21.213L296.413,125.158z
		 M351.056,179.801l-21.213-21.213l28-28l21.213,21.213L351.056,179.801z M370.291,105.923L349.078,84.71l28-28l21.213,21.213
		L370.291,105.923z"/>
	<path d="M31.82,269.543c-42.426,42.426-42.426,111.212,0,153.638s111.212,42.426,153.638,0l58.125-58.125L89.946,211.418
		L31.82,269.543z M77.924,398.29l-21.213-21.213l28-28l21.213,21.213L77.924,398.29z M158.589,329.842l21.213,21.213l-28,28
		l-21.213-21.213L158.589,329.842z M125.159,296.412l-28,28l-21.213-21.213l28-28L125.159,296.412z"/>
</g>
<g>
</g>
<g>
</g>
<g>
</g>
<g>
</g>
<g>
</g>
<g>
</g>
<g>
</g>
<g>
</g>
<g>
</g>
<g>
</g>
<g>
</g>
<g>
</g>
<g>
</g>
<g>
</g>
<g>
</g>
</svg>
