<?xml version="1.0" encoding="iso-8859-1"?>
<!-- Generator: Adobe Illustrator 19.0.0, SVG Export Plug-In . SVG Version: 6.00 Build 0)  -->
<svg version="1.1" id="Layer_1" xmlns="http://www.w3.org/2000/svg" xmlns:xlink="http://www.w3.org/1999/xlink" x="0px" y="0px"
	 viewBox="0 0 445 445" style="enable-background:new 0 0 445 445;" xml:space="preserve">
<g>
	<polygon points="49.407,399.236 85.8,412.058 105.89,445 203.194,324.906 156.413,267.168 	"/>
	<path d="M188.578,143.736c-6.343-7.828-9.695-17.31-9.695-27.423c0-24.051,19.567-43.618,43.617-43.618
		s43.617,19.567,43.617,43.618c0,10.113-3.352,19.595-9.695,27.423l-14.617,18.04l46.781,57.738l24.317-30.012
		c16.708-20.62,25.91-46.612,25.91-73.189C338.813,52.178,286.635,0,222.5,0S106.187,52.178,106.187,116.313
		c0,26.577,9.202,52.569,25.91,73.189L339.11,445l20.09-32.942l36.393-12.822L188.578,143.736z"/>
</g>
<g>
</g>
<g>
</g>
<g>
</g>
<g>
</g>
<g>
</g>
<g>
</g>
<g>
</g>
<g>
</g>
<g>
</g>
<g>
</g>
<g>
</g>
<g>
</g>
<g>
</g>
<g>
</g>
<g>
</g>
</svg>
