<?xml version="1.0" encoding="iso-8859-1"?>
<!-- Generator: Adobe Illustrator 19.0.0, SVG Export Plug-In . SVG Version: 6.00 Build 0)  -->
<svg version="1.1" id="Layer_1" xmlns="http://www.w3.org/2000/svg" xmlns:xlink="http://www.w3.org/1999/xlink" x="0px" y="0px"
	 viewBox="0 0 455 455" style="enable-background:new 0 0 455 455;" xml:space="preserve">
<g>
	<circle cx="52" cy="382.26" r="30.351"/>
	<path d="M369,112.389v70h20v78H67v-78h20v-70H0v70h37v141.408c4.798-1.231,9.823-1.888,15-1.888s10.202,0.657,15,1.888v-33.408h322
		v33.408c4.798-1.231,9.823-1.888,15-1.888s10.202,0.657,15,1.888V182.389h36v-70H369z"/>
	<circle cx="404" cy="382.26" r="30.351"/>
	<rect x="117" y="112.389" width="222" height="70"/>
	<polygon points="117,72.389 339,72.389 339,112.389 369,112.389 369,42.389 87,42.389 87,112.389 117,112.389 	"/>
</g>
<g>
</g>
<g>
</g>
<g>
</g>
<g>
</g>
<g>
</g>
<g>
</g>
<g>
</g>
<g>
</g>
<g>
</g>
<g>
</g>
<g>
</g>
<g>
</g>
<g>
</g>
<g>
</g>
<g>
</g>
</svg>
