<?xml version="1.0" encoding="iso-8859-1"?>
<!-- Generator: Adobe Illustrator 19.0.0, SVG Export Plug-In . SVG Version: 6.00 Build 0)  -->
<svg version="1.1" id="Layer_1" xmlns="http://www.w3.org/2000/svg" xmlns:xlink="http://www.w3.org/1999/xlink" x="0px" y="0px"
	 viewBox="0 0 455 455" style="enable-background:new 0 0 455 455;" xml:space="preserve">
<g>
	<path d="M122.68,114.848L85,121.966v240.388h285V121.953l-36.715-6.977c-12.89,46.019-55.207,79.867-105.285,79.867
		C177.875,194.843,135.528,160.932,122.68,114.848z"/>
	<path d="M228,164.843c43.736,0,79.319-35.583,79.319-79.319c0-38.607-27.733-70.844-64.319-77.878v57.877
		c6.072,4.561,10,11.822,10,20c0,13.807-11.193,25-25,25s-25-11.193-25-25c0-8.179,3.928-15.439,10-20V7.646
		c-36.586,7.034-64.319,39.271-64.319,77.878C148.681,129.26,184.264,164.843,228,164.843z"/>
	<path d="M319.535,25.831c11.182,17.09,17.717,37.484,17.78,59.374L400,97.117v295.237H55V97.103l63.686-12.031
		c0.089-21.692,6.529-41.912,17.551-58.896L0,51.562v395.792h455V51.562L319.535,25.831z"/>
</g>
<g>
</g>
<g>
</g>
<g>
</g>
<g>
</g>
<g>
</g>
<g>
</g>
<g>
</g>
<g>
</g>
<g>
</g>
<g>
</g>
<g>
</g>
<g>
</g>
<g>
</g>
<g>
</g>
<g>
</g>
</svg>
