<?xml version="1.0" encoding="iso-8859-1"?>
<!-- Generator: Adobe Illustrator 19.0.0, SVG Export Plug-In . SVG Version: 6.00 Build 0)  -->
<svg version="1.1" id="Layer_1" xmlns="http://www.w3.org/2000/svg" xmlns:xlink="http://www.w3.org/1999/xlink" x="0px" y="0px"
	 viewBox="0 0 475.324 475.324" style="enable-background:new 0 0 475.324 475.324;" xml:space="preserve">
<g>
	<path d="M79,259.521v-108h252.496l-2.723,15.593c3.326-0.198,6.675-0.311,10.051-0.311c6.853,0,13.607,0.423,20.243,1.228
		l22.326-127.849c0.381-2.185,3.236-4.661,5.454-4.661H459v-30h-72.153c-16.747,0-32.124,13-35.006,29.498l-15.106,86.502H49v212h37
		v69.203c-7.64,3.339-13.859,9.322-17.493,16.797H0v30h68.245c5.56,11.975,17.684,20.282,31.755,20.282c19.33,0,35-15.67,35-35
		c0-13.563-7.72-25.315-19-31.126v-70.156h56.327c0-0.073-0.003-0.145-0.003-0.218c0-26.498,6.2-51.543,17.213-73.782H79z"/>
	<circle cx="338.824" cy="333.303" r="136.5"/>
</g>
<g>
</g>
<g>
</g>
<g>
</g>
<g>
</g>
<g>
</g>
<g>
</g>
<g>
</g>
<g>
</g>
<g>
</g>
<g>
</g>
<g>
</g>
<g>
</g>
<g>
</g>
<g>
</g>
<g>
</g>
</svg>
