<?xml version="1.0" encoding="utf-8"?>
<!-- Generator: Adobe Illustrator 19.1.0, SVG Export Plug-In . SVG Version: 6.00 Build 0)  -->
<svg version="1.1" id="Layer_1" xmlns="http://www.w3.org/2000/svg" xmlns:xlink="http://www.w3.org/1999/xlink" x="0px" y="0px"
	 viewBox="0 0 1200 1200" enable-background="new 0 0 1200 1200" xml:space="preserve">
<g>
	<path fill="#E2583D" d="M1007.19,1150H211.477C93.879,1150,50,1106.767,50,978.387V165.984C50,114.71,94.558,50,173.647,50h832.556
		C1100.386,50,1150,114.71,1150,193.798v789.099C1150,1084.885,1113.584,1150,1007.19,1150z"/>
	<path fill="#E2583D" d="M1023.936,1130.473H176.064c-58.596,0-106.537-47.942-106.537-106.537V176.064
		c0-67.904,47.942-106.537,106.537-106.537h847.871c58.596,0,106.537,47.941,106.537,106.537v837.472
		C1130.472,1081.531,1082.531,1130.473,1023.936,1130.473z"/>
	<g>
		<g>
			<path fill="#F8E69E" d="M386.928,767.059c5.761-5.912,15.107-6.021,20.934-0.17l0,0c5.93,5.815,5.991,15.228,0.164,21.055
				l-56.401,54.838c-5.76,5.826-15.198,5.912-21.061,0.132l0,0c-5.851-5.754-5.919-15.192-0.2-21.103L386.928,767.059z"/>
			<path fill="#F8E69E" d="M858.81,289.28c5.718-5.851,15.192-5.935,21.067-0.157l0,0c5.84,5.791,5.858,15.24,0.08,21.117
				l-61.559,61.943c-5.816,5.863-15.24,5.863-21.16,0.109l0,0c-5.797-5.73-5.894-15.144-0.072-20.995L858.81,289.28z"/>
			<path fill="#F8E69E" d="M396.978,361.667c6.039,5.524,6.451,14.975,0.926,21.021l0,0c-5.494,6.045-14.86,6.506-20.941,0.969
				l-73.753-69.207c-6.075-5.524-6.499-14.95-0.975-21.031l0,0c5.555-6.071,14.98-6.483,21.038-0.922L396.978,361.667z"/>
			<path fill="#F8E69E" d="M897.243,813.734c6.148,5.585,6.518,14.986,0.969,21.068l0,0c-5.482,5.996-15.022,6.446-20.97,0.97
				l-69.022-58.27c-6.039-5.561-6.542-14.963-0.927-21.008l0,0c5.524-6.071,14.945-6.494,21.061-0.969L897.243,813.734z"/>
			<path fill="#F8E69E" d="M310.603,554.72c8.208,0,14.829,6.664,14.829,14.889l0,0c0,8.239-6.621,14.878-14.829,14.878h-89.484
				c-8.256,0-14.883-6.639-14.883-14.878l0,0c0-8.225,6.627-14.889,14.883-14.889H310.603z"/>
			<path fill="#F8E69E" d="M978.888,554.72c8.159,0,14.876,6.664,14.876,14.889l0,0c0,8.239-6.717,14.878-14.876,14.878h-84.244
				c-8.215,0-14.884-6.639-14.884-14.878l0,0c0-8.225,6.669-14.889,14.884-14.889H978.888z"/>
			<path fill="#F8E69E" d="M617.39,290.722c0,7.098-6.65,12.756-14.937,12.756l0,0c-8.196,0-14.884-5.659-14.884-12.756v-79.413
				c0-6.989,6.688-12.744,14.884-12.744l0,0c8.287,0,14.937,5.755,14.937,12.744V290.722z"/>
		</g>
		<path fill="#E4BB73" d="M509.425,831.673c0.328,1.226,0.698,2.459,0.969,3.674l16.016,157.919
			c0.467,4.614,4.006,8.239,8.465,8.925c0.501,0.078,1.013,0.117,1.533,0.118l24.98,0.02c4.394,8.391,14.925,23.773,34.198,26.743
			c2.111,0.325,4.327,0.502,6.65,0.503c21.368,0.019,32.97-15.264,37.744-27.185l26.585,0.022c5.124,0.005,9.429-3.841,10.003-8.931
			l17.806-157.943c0.286-1.277,0.675-2.574,1.024-3.865H509.425z"/>
		<path fill="#F8E69E" d="M771.138,430.213c-34.611-40.04-82.327-66.505-134.354-74.524c-11.177-1.723-22.619-2.601-34.012-2.61
			c-59.487-0.047-115.432,23.074-157.531,65.105c-42.095,42.03-65.305,97.936-65.352,157.423
			c-0.043,53.849,19.398,105.843,54.74,146.405c4.643,5.328,9.615,10.512,14.784,15.414c19.48,21.359,52.904,62.08,60.926,97.714
			h184.14c8.139-35.587,41.552-76.173,61.041-97.47c5.166-4.883,10.146-10.058,14.81-15.393
			c35.405-40.505,54.928-92.468,54.969-146.317C825.344,522.428,806.109,470.667,771.138,430.213z"/>
		<g>
			<path fill="#003750" d="M521.439,878.073c-0.981-0.001-5.102-0.044-6.869,0.031l1.734,19.265c0.969,0.302,1.957,0.578,3.03,0.7
				c0.681,0.078,1.375,0.119,2.085,0.118l165.65,0.097c1.239-6.707,1.481-13.412,2.818-20.112L521.439,878.073z"/>
			<path fill="#003750" d="M677.967,982.285l-152.899-0.08c0.467,3.857,0.924,7.718,1.361,11.581
				c0.549,4.859,4.621,8.536,9.51,8.537l24.666,0.006c4.46,8.391,15.149,23.773,34.713,26.743c2.143,0.325,4.392,0.502,6.75,0.503
				c21.691,0.019,33.466-15.264,38.312-27.185l27.53,0.007c5.555,0.001,9.408-5.239,9.408-10.794L677.967,982.285z
				 M602.083,1009.461c-7.177-0.007-12.627-3.268-16.571-7.114l31.596,0.026C613.972,1006.168,609.202,1009.466,602.083,1009.461z"
				/>
			<path fill="#003750" d="M507.202,824.738l4.118,19.013l182.25,0.109c0.217-5.252,2.34-12.748,3.684-19.122H507.202z"/>
			<path fill="#003750" d="M519.778,930.145c1.181,6.671,0.947,13.371,2.159,20.109l159.496,0.088
				c1.235-6.771,1.311-13.484,2.384-20.113l-163.951-0.092C519.837,930.137,519.809,930.145,519.778,930.145z"/>
		</g>
		<path opacity="0.15" fill="#C06838" d="M770.496,430.509c-34.612-40.194-82.327-66.762-134.355-74.813
			c-6.252-0.967-29.254-4.247-40.523-2.513l6.935,675.26c16.47,2.6,34.482-17.376,37.924-26.005l26.584,0.022
			c5.123,0.005,9.428-3.856,10.003-8.965l16.669-156.094c0.029-0.132,0.074-0.267,0.105-0.399
			c8.138-35.724,41.552-76.467,61.04-97.846c5.167-4.902,10.147-10.097,14.81-15.452c35.405-40.662,54.928-92.826,54.969-146.883
			C824.703,523.08,805.466,471.119,770.496,430.509z"/>
	</g>
</g>
</svg>
