<?xml version="1.0" encoding="utf-8"?>
<!-- Generator: Adobe Illustrator 19.1.0, SVG Export Plug-In . SVG Version: 6.00 Build 0)  -->
<svg version="1.1" id="Layer_1" xmlns="http://www.w3.org/2000/svg" xmlns:xlink="http://www.w3.org/1999/xlink" x="0px" y="0px"
	 viewBox="0 0 1200 1200" enable-background="new 0 0 1200 1200" xml:space="preserve">
<g>
	<path fill="#4ABCDE" d="M50,981.269C50,1109.715,91.755,1150,209.414,1150h793.985c100.02,0,146.601-54.146,146.601-135.309
		V196.268C1150,117.139,1098.789,50,1004.555,50H171.564C92.434,50,50,117.139,50,168.439V981.269z M166.406,299.179
		c0,0,45.599-38.002,98.808,3.799c53.21,41.805,26.605,76.009,26.605,76.009s66.789-21.411,106.41,5.003
		c22.804,15.203,60.811,81.01-7.601,81.01H71V226.87c0,0.05,0.583,0.03,1.438,0.101C163.644,234.57,166.406,299.179,166.406,299.179
		z M1047.677,501.49c0,0,2.787-33.337,49.847-37.258c13.918-1.159,24.475,3.127,31.475,9.95V583H931.995
		c-35.295,0-15.69-31.931-3.924-39.774c20.445-13.629,54.908-1.261,54.908-1.261s-13.732-17.297,13.723-38.869
		C1024.157,481.531,1047.677,501.49,1047.677,501.49z M832,175v131H617V175H832z M1021.075,1130H604.374H280.847H175.208
		C116.75,1130,71,1084.074,71,1025.617v-48.972l116.174-165.039c-0.019-0.002-0.596-0.009-0.596-0.009l95.368-136.724l53.405,76.786
		l118.92-159.24c-0.012-0.06-0.294-0.139-0.294-0.139L603,389.402V168h7v230.947l141.479,191.732c0,0,0.248-0.061,0.108-0.111
		l362.831,484.356C1096.411,1108.206,1061.38,1130,1021.075,1130z"/>
	<path fill="#FFFFFF" d="M71,226.87V465h319.628c68.412,0,30.405-65.807,7.601-81.01c-39.621-26.414-106.41-4.403-106.41-4.403
		s26.605-34.504-26.605-76.309c-53.21-41.801-98.808-3.949-98.808-3.949s-2.762-64.684-93.968-72.283
		C71.583,226.975,71,226.92,71,226.87z"/>
	<path fill="#FFFFFF" d="M982.979,542.667c0,0-34.464-13.07-54.908,0.559c-11.765,7.843-31.37,39.774,3.924,39.774H1129V474.182
		c-7-6.822-17.557-11.109-31.475-9.95c-47.06,3.921-49.437,37.258-49.437,37.258s-23.725-19.608-51.18,1.957
		C969.452,525.019,982.979,542.667,982.979,542.667z"/>
	<rect x="617.446" y="176.932" fill="#F02447" width="210.804" height="131.153"/>
	<polygon fill="#003750" points="610,398.947 610,168 603,168 603,389.402 603,388.584 	"/>
	<path fill="#EFCB00" d="M714.411,603.464c2.512,27.927-31.77,40.25-50.563,30.535C646.635,625.091,624,597.546,603,602.243v527.372
		l1.374,0.385h416.701c40.306,0,75.545-21.794,93.551-55.076L752.004,590.092C748.852,588.957,712.016,576.719,714.411,603.464z"/>
	<path fill="#DBAB1D" d="M376.265,810.526c0,0,0.076,0.079,0.062,0.101L603,1129.615V602.243c0,0.426-3.684,1.02-5.397,2.016
		c-38.485,22.393-51.773,31.894-64.292,6.388c-12.529-25.497-28.126-23.325-51.923-11.183c-22.82,11.655-26.873-5.618-27.165-7.047
		L335.23,751.658L376.265,810.526z"/>
	<path fill="#FFFFFF" d="M481.356,599.464c23.797-12.142,39.363-14.314,51.892,11.183c12.519,25.506,25.745,16.005,64.23-6.388
		c1.712-0.996,3.481-1.59,5.271-2.016c19.744-4.697,43.76,22.848,60.973,31.755c18.793,9.716,53.2-2.607,50.688-30.535
		c-2.395-26.745,34.441-14.031,37.593-12.896c0.14,0.051,0.309,0.111,0.309,0.111L611.668,398.947l-7.601-10.363l-0.602,0.818
		L454.178,592.279c0,0,0.016,0.079,0.029,0.139C454.499,593.846,458.537,611.12,481.356,599.464z"/>
	<path fill="#AFB3BB" d="M376.201,810.628c-0.678,1.074-17.092,27.271-15.531,45.636c1.595,18.746-22.355,22.682-34.34,16.158
		c-11.975-6.522-30.702-26.218-43.832-18.177c-1.075,0.658,2.501,1.039-4.499,1.454V1130h326.374l-1.625-1.337L376.201,810.628z"/>
	<path fill="#8E929B" d="M244.109,801.73c-7.984-17.123-10.366-4.112-25.549,4.037c-14.826,7.965-30.943,5.936-31.742,5.839
		L71,976.644v48.972C71,1084.074,116.75,1130,175.208,1130H278V855.699C257,864.776,251.752,818.098,244.109,801.73z"/>
	<path fill="#FFFFFF" d="M219.272,805.766c15.183-8.148,18.277-21.16,26.261-4.037c7.643,16.368,13.356,63.047,35.314,53.969
		c1.005-0.416,2-0.796,3.075-1.454c13.13-8.041,30.434,11.655,42.409,18.177c11.984,6.524,35.935,2.588,34.34-16.158
		c-1.561-18.365,14.853-44.562,15.531-45.636c0.014-0.022,0.063-0.101,0.063-0.101l-41.043-58.869l-53.535-76.786l-95.628,136.724
		c0,0,0.057,0.007,0.076,0.009C186.934,811.703,204.446,813.731,219.272,805.766z"/>
</g>
</svg>
