<?xml version="1.0" encoding="utf-8"?>
<!-- Generator: Adobe Illustrator 19.1.0, SVG Export Plug-In . SVG Version: 6.00 Build 0)  -->
<svg version="1.1" id="Layer_1" xmlns="http://www.w3.org/2000/svg" xmlns:xlink="http://www.w3.org/1999/xlink" x="0px" y="0px"
	 viewBox="0 0 1200 1200" enable-background="new 0 0 1200 1200" xml:space="preserve">
<g>
	<path fill="none" d="M966.913,752.31c-1.661-0.586-3.304-1.191-4.981-1.759v0C963.609,751.119,965.252,751.724,966.913,752.31z"/>
	<path fill="none" d="M643.305,901.897c-19.253,4.703-37.874,7.651-58.66,8.67c20.786-1.02,39.486-3.967,58.739-8.67
		c34.596-7.671,65.488-21.972,93.666-41.534c24.18-16.215,45.619-35.911,63.226-58.472c-0.024-0.094-0.06-0.182-0.084-0.276
		c-17.227,22.137-38.047,41.46-61.611,57.517c-0.557,0.393-1.069,0.842-1.629,1.231c-0.647,0.433-1.322,0.831-1.972,1.26
		c-27.262,18.585-58.091,32.278-91.279,39.861c-0.519,0.13-1.025,0.286-1.545,0.413c-18.547,4.113-37.678,6.355-57.442,6.429
		c0.077,0.009,0.284,0.028,0.66,0.028C605.496,908.354,624.442,906.08,643.305,901.897z"/>
	<path fill="none" d="M987.687,822.083c-4.059,4.202-9.019,7.558-14.753,10.02c-4.246,1.827-8.942,2.997-14.01,3.599l-0.623,18.821
		l0.623-18.711c5.068-0.602,9.764-1.827,14.01-3.654c5.734-2.463,10.694-5.846,14.753-10.048c4.037-4.188,7.128-9.134,9.225-14.682
		c2.06-5.447,3.088-11.388,3.088-17.654c0-0.002,0-0.003,0-0.003c0,6.263-1.028,12.197-3.088,17.643
		C994.815,812.962,991.724,817.894,987.687,822.083z"/>
	<path fill="none" d="M532.519,521.177c5.964-6.166,13.75-11.259,22.287-15.224c-8.58,3.964-16.781,9.057-22.746,15.224
		c-6.334,6.573-11.123,14.221-14.273,22.679c-3.146,8.361-4.57,17.197-4.353,26.242c-0.217-9.045,1.39-17.881,4.536-26.242
		C521.12,535.398,526.185,527.75,532.519,521.177z"/>
	<path fill="none" d="M575.389,745.72l0.39-54.709l-0.878,54.661C575.061,745.687,575.239,745.707,575.389,745.72z"/>
	<path fill="none" d="M559.037,630.317c0.419,0.162,0.828,0.353,1.248,0.51c3.104,1.158,3.574,2.201,10.503,3.283
		c-6.929-1.082-7.384-2.125-10.488-3.283C559.879,630.67,559.458,630.479,559.037,630.317z"/>
	<path fill="none" d="M842.384,553.312c0.587,1.187,1.165,2.32,1.73,3.331C843.556,555.643,842.964,554.442,842.384,553.312z"/>
	<path fill="none" d="M844.114,557c1.54,7,3.002,10,4.378,14h0.108C847.195,564,845.692,564,844.114,557h-2.345h-0.941
		c-2.867-6-6.272-18.162-10.091-25.526c-0.429-0.756-0.871-2.474-1.3-2.474H829.4c4.365,7,8.23,21,11.429,28h0.94H844.114z"/>
	<path fill="none" d="M844.19,571h-0.064C849.804,592,855,615.359,855,638.895c0-0.014,0-0.029,0-0.043
		C855,615.384,849.829,592,844.19,571z"/>
	<path fill="none" d="M862.814,632.528c25.703-18.038,56.567-28.669,90.281-28.669c87.281,0,157.906,71.003,157.906,158.278
		c0-0.006,0-0.011,0-0.017c0-87.284-70.619-158.33-157.906-158.33c-33.714,0-64.776,10.561-90.479,28.599
		c-0.003-0.022,0.277-0.041,0.275-0.063c-2.792,1.959-7.89,4.07-7.89,6.201c0-0.011,0-0.022,0-0.034c0,0.477,0,1.034,0,1.519
		c0,0.024,0,0.047,0,0.071c0-0.486,0.119-0.94,0.715-1.417C858.372,636.533,860.019,634.489,862.814,632.528z"/>
	<path fill="none" d="M938.913,755.941c-4.611-1.854-8.792-3.638-12.43-6.533c-3.812-3.004-8.783-6.493-11.093-10.951
		c-2.343-4.502-5.39-9.778-5.39-16.258c0,0.003,0,0.006,0,0.009c0,6.488,3.045,12.071,5.39,16.577
		c2.31,4.458,6.354,8.255,10.166,11.259c3.638,2.896,8.283,4.046,12.893,5.9c2.913,1.17,6.147,2.056,9.164,2.056h0.107
		C944.703,758,941.826,757.111,938.913,755.941z"/>
	<path fill="none" d="M993.858,698.119l3.154,3.298l0.043-0.066l-3.197-3.454c-4.927-5.149-10.315-9.248-16.016-11.745
		c-4.076-1.793-8.62-3.436-13.559-4.018c4.939,0.582,9.483,2.67,13.559,4.463C983.543,689.094,988.932,692.971,993.858,698.119z"/>
	<path fill="none" d="M833.709,535.666c-0.889-1.758-1.779-3.523-2.704-5.202c3.521,7.673,6.686,16.352,9.469,23.076
		C838.43,548.415,836.164,541.843,833.709,535.666z"/>
	<polygon fill="none" points="904.913,812.082 904.916,812.086 909.192,807.78 	"/>
	<path fill="none" d="M500.64,894.895c-27.464-8.958-53.035-22.165-75.917-38.877C447.075,872.731,472.462,885.938,500.64,894.895z"
		/>
	<path fill="none" d="M566.732,769.152c-2.042-0.177-2.964-0.379-3.966-0.617C563.769,768.774,564.69,768.975,566.732,769.152z"/>
	<polygon fill="none" points="197.944,466.356 72,645.008 72,649.824 199.62,465.973 240.61,406.154 	"/>
	<path fill="none" d="M553.343,906.653c4.533,0.575,9.963,1.013,17.444,1.292C563.306,907.667,558.066,907.229,553.343,906.653z"/>
	<polygon fill="none" points="257.267,384 257.822,384 258.072,384.401 258.871,384 257.267,384 145.251,384 144.447,384.115 
		144.064,384.432 145.251,384 	"/>
	<path fill="none" d="M577,523.667c-2,0.429-5.065,0.992-6.198,1.627c1.171-0.591,4.198-1.116,6.198-1.533V523.667z"/>
	<path fill="none" d="M625.053,504.481c10.179,4.167,19.868,10.796,28.779,19.668l5.788,5.767l-4.996,8.086
		c-1.437,3.142-5.551,5.998-10.187,5.998h0.001c4.637,0,8.753-2.855,10.19-5.998l5-8.043l-5.78-5.788
		c-8.912-8.872-18.585-15.512-28.764-19.679c-7.276-2.993-15.32-6.025-24.068-6.842l0.628-37.65h-0.122l-0.567,37.643
		C609.702,498.46,617.777,501.488,625.053,504.481z"/>
	<polygon fill="none" points="573.266,815.571 573.756,815.559 574.751,769.839 	"/>
	<path fill="none" d="M517.991,717.368c-3.477,0.084-5.847,1.385-7.203,2.434c1.354-1.047,3.743-2.345,7.214-2.432L517.991,717.368z
		"/>
	<path fill="none" d="M576.998,610.254l0.27-43.294l-0.757,43.141C576.667,610.151,576.855,610.203,576.998,610.254z"/>
	<path fill="none" d="M569.117,744.732c-0.894-0.068-1.906-0.142-2.376-0.25c-0.008-0.002-0.015-0.004-0.022-0.005
		c0.008,0.002,0.014,0.004,0.022,0.005C567.21,744.589,568.222,744.663,569.117,744.732z"/>
	<path fill="none" d="M561.02,768.142c0.01,0.002,0.02,0.005,0.03,0.007c0.692,0.139,1.214,0.267,1.715,0.387
		c-0.501-0.119-1.023-0.248-1.715-0.387C561.041,768.146,561.03,768.144,561.02,768.142z"/>
	<path fill="none" d="M961.82,425l173.231-252.276c-0.008-0.159-0.03-0.05-0.038-0.21L961.82,425h-2.18l-56.926-82.127l-0.229-0.198
		L959.64,425H961.82z"/>
	<polygon fill="none" points="758.799,300.211 815.622,216.931 819.443,211 818.538,211 815.622,216.182 	"/>
	<path fill="none" d="M683.557,388.747c-27.174-10.93-56.516-17.672-87.231-19.118l-0.242,0.37c0.079,0,0.161,0,0.24,0
		C626.948,370,656.397,377.938,683.557,388.747z"/>
	<path fill="none" d="M573.109,908.102c-0.68-0.028-1.524-0.043-2.229-0.076c-0.554-0.027-0.88-0.052-0.88-0.081v0.089
		C571,908.075,572.207,908.07,573.109,908.102z"/>
	<path fill="none" d="M694.859,393.523l63.94-93.312l-64.04,93.269C694.792,393.495,694.826,393.508,694.859,393.523z"/>
	<path fill="none" d="M346.439,511.266C391.961,427.046,481.087,370,583.537,370c-0.024,0-0.047,0-0.071,0
		c-102.472,0-191.56,57.032-237.09,141.267c-19.375,35.845-30.785,76.5-32.055,119.803c-0.078,2.67-0.203,5.281-0.203,7.97
		c0-2.689,0.155-5.277,0.233-7.947C315.622,587.791,327.064,547.111,346.439,511.266z"/>
	<path fill="none" d="M336.674,746.914c3.469,7.922,7.417,15.575,11.603,23.077c-0.035-0.081-0.072-0.161-0.107-0.241
		C344.02,762.324,340.105,754.751,336.674,746.914z"/>
	<polygon fill="none" points="1132,556.643 1132,570.5 1132,965.431 1132,979.288 1132,1007.002 1132,1007.002 1132,976.793 
		1132,965.182 1132,570.779 1132,559.168 1132,528.928 1132,528.928 	"/>
	<path fill="none" d="M543,984.367V927.6c-1-0.179,0-0.438,0-0.625v0.625V984.367c0,10.146,5.412,18.633,14.632,21.456
		C549.229,1002.889,543,994.41,543,984.367z"/>
	<path fill="none" d="M831.006,530.464c-0.35-0.764-0.719-1.23-1.082-1.394h-0.217c0.001,0.001,0.001,0.003,0.001,0.003
		C830.144,529.242,830.586,529.702,831.006,530.464z"/>
	<path fill="none" d="M582,910.567c-4,0.186-8,0.299-12,0.356v0.009c7-0.055,7-0.175,14-0.365v-2.239
		c0,0.001-0.297,0.026-0.611,0.026c-0.458,0-0.501-0.033-0.958-0.035c-0.436-0.002-0.797-0.015-1.222-0.019
		c0.255,0.002,0.792,0.018,0.792,0.019V910.567z"/>
	<path fill="#004860" d="M1006.196,50.004h-832.55C94.557,50.004,50,114.713,50,165.986v812.399
		c0,128.379,43.879,171.611,161.475,171.611h794.835c80.669,0,144.461-32.846,143.682-132.746v-823.45
		C1149.993,114.713,1100.38,50.004,1006.196,50.004z M1135.303,559.168v11.611v394.403v11.611v30.113h-3.298v0.097H562.911
		c-2.395,0-4.541-0.48-6.545-1.179c-9.219-2.823-15.971-11.311-15.971-21.456V927.6v-0.625
		c-87.397-18.22-157.789-77.743-192.117-156.983c-4.187-7.502-8.135-15.155-11.603-23.077
		c-14.471-33.049-22.554-69.533-22.554-107.922c0-2.689,0.124-5.348,0.203-8.018l-113.063-165L75.279,649.824v-4.816l-3.351,4.816
		V483.333l70.844-99.504l1.292-0.209l0.384-0.556l-0.799-1.166h1.604h112.016h1.603l-0.799,1.166l0.251,0.364h0.548l-0.407,0.204
		l87.913,127.443c45.53-84.234,134.618-141.459,237.09-141.459c0.024,0,0.047,0.002,0.071,0.002c0.017,0,0.034-0.002,0.052-0.002
		c4.151,0,8.387,0.126,12.495,0.313l0.242-0.351c-0.082-0.004-0.164-0.014-0.246-0.017l105.343-153.081l-3.364-4.91h6.353
		l0.817-1.357h106.547h7.667l-0.905,1.497h0.905l-3.821,5.576l86.863,125.919l0.229-0.332l-0.229-0.33l177.959-257.577
		c31.272,17.473,52.847,49.989,54.608,87.757l-0.038,0.055c0.008,0.159,0.031,0.315,0.038,0.475L961.82,426.059h-2.18l1.895,2.747
		H846.917l-88.117-128.595l-63.94,93.312c0.125,0.056,0.254,0.105,0.378,0.162c56.015,25.447,102.241,69.476,129.852,124.254
		c1.336,2.65,2.085,5.326,3.056,8.026c0.51,1.042,1.065,2.056,1.561,3.106h0.217c-0.072-0.033-0.145-0.141-0.217-0.141h302.298
		v0.141h3.298V559.168z"/>
	<path fill="#6A9838" d="M977.697,812.652c2.811-2.951,4.885-6.252,6.347-10.095c1.464-3.864,2.205-8.031,2.205-12.389
		c0-4.371-0.791-7.951-2.355-10.637c-1.665-2.896-3.867-5.325-6.549-7.233c-2.943-2.118-6.367-3.897-10.194-5.305
		c-1.901-0.691-3.816-1.367-5.748-2.037l-1.976,57.134c2.873-0.501,5.538-1.292,7.967-2.368
		C971.472,817.929,974.936,815.554,977.697,812.652z"/>
	<path fill="#6A9838" d="M570,980v-48.174c-13-0.87-20-2.257-27-4.226v56.767c0,10.043,4.926,18.521,13.329,21.455
		c2.005,0.7,4.187,1.178,6.582,1.178H1132v-0.094V980H570z"/>
	<path fill="#6A9838" d="M862.304,633c-0.003,0-1.304,0-1.304,0s0-0.367,0-0.346c28-18.038,57.474-28.732,91.187-28.732
		c87.287,0,158.813,70.913,158.813,158.197c0,0.006,0,0.011,0,0.017s0,0.012,0,0.012c0,87.284-70.619,158.288-157.906,158.288
		c-64.203,0-119.348-38.457-144.15-93.521c-49.48,64.411-126.822,105.973-214.324,105.973c-3.913,0-10.619-0.131-10.619-0.295V966
		h548V571H848.6C855.644,592,859.967,612,862.304,633z"/>
	<path fill="#6A9838" d="M950.135,696.793c-2.368,0.406-4.543,1.015-6.499,1.82c-3.558,1.462-6.573,3.397-8.965,5.758
		c-2.348,2.334-4.141,5.041-5.325,8.045c-1.238,3.099-1.833,6.266-1.833,9.696c0,4.02,0.68,7.355,2.027,9.933
		c1.423,2.747,3.261,4.993,5.63,6.894c2.534,2.03,5.514,3.755,8.857,5.122c1.425,0.588,2.876,1.157,4.347,1.718L950.135,696.793z"/>
	<path fill="#6A9838" d="M831.006,530.464c0.925,1.679,1.815,3.444,2.704,5.202c-0.878-2.211-1.778-4.377-2.704-6.394
		c4.155,7.544,7.946,17.27,11.378,24.219c0.58,1.13,1.172,2.51,1.73,3.51H1132v-27.93V529H829.707c0.072,0,0.145,0.073,0.217,0.105
		C830.287,529.27,830.656,529.7,831.006,530.464z"/>
	<path fill="#6A9838" d="M816.954,815.342c21.357,54.628,74.436,93.485,136.536,93.485c80.887,0,146.692-65.795,146.692-146.672
		c0-80.883-65.805-146.685-146.692-146.685c-33.723,0-64.731,11.558-89.533,30.763c0.307,5.285,0.507,10.599,0.507,15.962
		C864.464,719.049,846.901,771.784,816.954,815.342z M904.913,812.082l4.279-4.302c0.403-0.379,0.721-0.65,0.984-0.846
		c0.836-0.616,2.199-1.319,4.168-1.319c2.832,0,4.794,1.786,6.025,3.132c0.731,0.819,1.698,1.766,2.872,2.923
		c1.15,1.11,2.602,2.375,4.3,3.755c1.502,1.191,3.384,2.341,5.558,3.383c2.257,1.089,4.916,2.029,7.916,2.801
		c1.407,0.358,2.943,0.629,4.598,0.812l2.213-61.903c-3.017-1.035-6.002-2.145-8.915-3.315c-4.611-1.854-8.792-4.263-12.43-7.159
		c-3.812-3.004-8.783-6.8-11.093-11.259c-2.345-4.506-5.39-10.089-5.39-16.577c0-0.003,0-0.006,0-0.009c0,0,0-0.012,0-0.019
		c0-5.129,2.819-10.13,4.713-14.826c1.898-4.736,5.657-9.054,9.331-12.688c3.644-3.593,8.587-6.628,13.79-8.793
		c3.721-1.543,8.06-2.8,12.502-3.321l0.617-13.69c-0.003-4.641,3.634-7.862,7.113-7.862h7.036l-0.819,21.347
		c4.939,0.582,9.483,2.118,13.559,3.911c5.701,2.497,11.09,6.543,16.016,11.692l3.197,3.427l-0.043,0.053l0.043,0.038l-2.936,4.456
		c-0.83,1.746-3.198,3.198-5.843,3.198c-3.17,0-5.535-2.166-7.037-3.79c-0.623-0.669-1.87-1.827-4.273-3.492
		c-1.888-1.319-4.411-2.585-7.51-3.776c-1.593-0.609-3.471-1.069-5.609-1.38l-1.914,53.865c1.678,0.568,3.321,1.173,4.981,1.759
		c1.661,0.586,3.339,1.153,4.981,1.759c4.994,1.847,9.565,4.195,13.587,6.996c4.3,3.004,7.794,6.812,10.423,11.331
		c2.727,4.648,4.096,10.498,4.096,17.372v0.003c0,0,0,0.003,0,0.005c0,6.266-1.028,12.207-3.088,17.654
		c-2.098,5.548-5.197,10.494-9.234,14.682c-4.059,4.202-9.014,7.585-14.748,10.048c-4.246,1.827-8.94,3.052-14.008,3.654
		l-0.622,18.96c0.004,4.661-3.517,7.228-6.994,7.228h-7.011l0.907-25.902c-2.747-0.223-5.335-0.506-7.727-1.047
		c-4.134-0.927-7.998-2.356-11.485-4.115c-3.499-1.766-6.743-3.969-9.639-6.487c-2.773-2.422-5.477-5.218-8.045-8.29l-3.393-4.061
		l0.003-0.007L904.913,812.082z"/>
	<path fill="#C5D368" d="M584,932.594c-7-0.165-7-0.44-14-0.768V980h562v-14H584V932.594z"/>
	<path fill="#C5D368" d="M848.6,571H1132v-14H844.114C845.692,564,847.195,564,848.6,571z"/>
	<path fill="#C5D368" d="M953.094,603.859c-33.714,0-64.776,10.631-90.479,28.669c0.495,4.536,0.975,9.104,1.243,13.705
		c24.802-19.205,55.86-30.763,89.583-30.763c80.887,0,146.716,65.802,146.716,146.685c0,80.877-65.792,146.672-146.679,146.672
		c-62.1,0-115.173-38.857-136.53-93.485c-2.462,3.581-5.023,7.083-7.65,10.535c0.081,0.181,0.158,0.368,0.238,0.549
		c-0.128,0.167-0.267,0.323-0.395,0.489c24.802,55.064,79.749,93.521,143.952,93.521c87.287,0,157.907-71.004,157.907-158.282
		c0,0,0-0.012,0-0.018C1111,674.862,1040.375,603.859,953.094,603.859z"/>
	<path fill="#C5D368" d="M908.306,816.143c2.568,3.072,5.271,5.852,8.045,8.275c2.896,2.517,6.141,4.689,9.639,6.455
		c3.488,1.759,7.351,3.126,11.485,4.053c2.392,0.542,4.98,0.949,7.727,1.172L944.295,862h7.011c3.477,0,6.999-2.566,6.995-7.228
		l0.623-18.946c5.068-0.602,9.764-1.834,14.01-3.661c5.734-2.463,10.694-5.849,14.753-10.052c4.037-4.188,7.128-9.136,9.226-14.684
		c2.06-5.446,3.088-11.395,3.088-17.66v-0.003c0-6.874-1.369-12.723-4.096-17.372c-2.629-4.519-6.131-8.327-10.431-11.331
		c-4.023-2.801-8.588-5.149-13.583-6.996c-1.642-0.606-3.318-0.948-4.979-1.534c-1.661-0.586-3.293-1.534-4.971-1.534h-0.004
		l1.912-54.09c2.138,0.311,4.015,0.659,5.608,1.268c3.099,1.191,5.622,2.401,7.51,3.72c2.402,1.665,3.65,2.794,4.273,3.463
		c1.502,1.624,3.867,3.775,7.037,3.775c2.645,0,5.013-1.461,5.843-3.207l2.936-4.463l-0.043-0.047l-3.153-3.299
		c-4.927-5.149-10.316-9.026-16.017-11.523c-4.076-1.793-8.62-3.667-13.559-4.249L965.101,661h-7.036c-3.478,0-7,3.221-6.997,7.862
		l-0.501,13.797c-4.442,0.521-8.55,1.725-12.271,3.268c-5.203,2.165-9.682,5.173-13.326,8.766
		c-3.674,3.633-8.36,7.938-10.258,12.674c-1.894,4.696-4.713,9.684-4.713,14.813c0,0.006,0,0.012,0,0.012
		c0,6.487,3.047,12.077,5.39,16.579c2.31,4.459,6.354,8.262,10.166,11.266c3.638,2.896,8.283,4.05,12.894,5.904
		c2.913,1.17,6.147,2.059,9.164,2.059h0.107l-2.159,63.162c-1.654-0.183-3.164,0.176-4.571-0.182
		c-3.001-0.772-5.647-1.397-7.903-2.486c-2.175-1.042-4.05-2.035-5.552-3.226c-1.698-1.38-3.146-2.566-4.297-3.676
		c-1.174-1.157-2.14-2.065-2.871-2.884c-1.232-1.346-3.193-3.113-6.025-3.113c-1.969,0-3.332,0.713-4.168,1.329
		c-0.264,0.196-0.582,0.472-0.984,0.851l-4.275,4.309l-0.003,0.005L908.306,816.143z M961.404,764.957
		c1.932,0.67,3.847,1.346,5.748,2.037c3.826,1.407,7.25,3.186,10.194,5.305c2.682,1.908,4.884,4.337,6.549,7.233
		c1.563,2.686,2.355,6.266,2.355,10.637c0,4.357-0.741,8.525-2.205,12.389c-1.462,3.843-3.536,7.145-6.347,10.095
		c-2.761,2.902-6.225,5.277-10.302,7.071c-2.429,1.076-5.095,1.867-7.967,2.368L961.404,764.957z M944.025,744.063
		c-3.342-1.367-6.323-3.092-8.857-5.122c-2.368-1.901-4.206-4.147-5.63-6.894c-1.347-2.578-2.027-5.914-2.027-9.933
		c0-3.43,0.595-6.597,1.833-9.696c1.184-3.004,2.978-5.711,5.325-8.045c2.392-2.362,5.407-4.297,8.965-5.758
		c1.956-0.805,4.131-1.414,6.499-1.82l-1.763,48.987C946.9,745.22,945.449,744.651,944.025,744.063z"/>
	<path fill="#64AFC6" d="M961.82,425l173.193-252.222l0.038-0.055c-1.761-37.768-23.335-70.284-54.608-87.757L902.485,342.543
		l0.229,0.331L959.64,425H961.82z"/>
	<polygon fill="#00618E" points="704.412,211.569 698.059,211.569 701.423,216.479 701.68,216.105 	"/>
	<polygon fill="#00618E" points="846.917,428.806 961.535,428.806 959.64,426.059 902.485,343.205 815.622,217.286 758.799,300.211 
			"/>
	<path fill="#64AFC6" d="M694.76,393.48l64.04-93.269l56.823-83.674l2.916-4.433l0.905-1.104h-7.667H705.229l-0.817,0.963
		l-2.731,4.339l-0.257,0.275L596.08,369.61c0.082,0.004,0.164-0.011,0.246-0.007c30.714,1.445,60.056,8.195,87.231,19.125
		C687.338,390.232,691.07,391.813,694.76,393.48z"/>
	<polygon fill="#00618E" points="143.648,381.898 144.447,383.064 145.251,381.898 	"/>
	<path fill="#00618E" d="M258.464,383.632l-0.392,0.197l-15.822,22.326l-40.99,59.819l113.063,165
		c1.269-43.303,12.679-84.054,32.055-119.899L258.464,383.632z"/>
	<polygon fill="#00618E" points="258.323,383.428 258.072,383.064 257.822,383.428 	"/>
	<polygon fill="#64AFC6" points="242.249,406.154 258.072,383.829 258.464,383.918 258.871,384 258.323,384 257.822,384 
		257.267,384 145.251,384 144.064,383.906 142.808,383.972 72,483.333 72,649.824 75.315,645.008 199.602,466.356 	"/>
	<path opacity="0.14" fill="#211915" d="M543,905.157c-1-0.091-1.077-0.178-1.664-0.273c-13.964-2.245-27.519-5.685-40.714-9.989
		c-28.178-8.958-53.556-22.165-75.908-38.877c-31.352-22.9-57.57-52.309-76.548-86.269c0.035,0.081,1.378,0.161,1.412,0.241
		C388.935,840.518,460,891.58,543,904.885v22.09c0,0.188-1,0.446,0,0.625V905.157z"/>
	<path fill="#004860" d="M348.277,769.991c34.328,79.24,104.72,138.763,192.117,156.983v-22.09
		C457.638,891.58,387.635,840.518,348.277,769.991z"/>
	<path opacity="0.14" fill="#211915" d="M350.883,769.991C385.211,849.231,453,908.754,543,926.975v-22.09
		C460,891.58,390.241,840.518,350.883,769.991z"/>
	<path fill="#6A9838" d="M570,910.932v-0.009c0,0.002,0.782,0.008,0.683,0.009c-0.557,0.008-0.683,0.047-0.683,0.052v-3.039
		c0,0.03,0.129,0.055,0.683,0.081c0.098,0.005-0.683,0.003-0.683,0.008v-0.089c-7-0.278-12.554-0.716-17.087-1.292
		c-3.474-0.423-6.913-0.923-9.913-1.496V927.6c7,1.969,14,3.356,27,4.226v-20.842C570,910.979,570,910.94,570,910.932z"/>
	<path opacity="0.14" fill="#211915" d="M570,910.932v-0.009c0,0.002,0.782,0.008,0.683,0.009c-0.557,0.008-0.683,0.047-0.683,0.052
		v-3.039c0,0.03,0.129,0.055,0.683,0.081c0.098,0.005-0.683,0.003-0.683,0.008v-0.089c-7-0.278-12.554-0.716-17.087-1.292
		c-3.474-0.423-6.913-0.923-9.913-1.496V927.6c7,1.969,14,3.356,27,4.226v-20.842C570,910.979,570,910.94,570,910.932z"/>
	<path fill="#6A9838" d="M848.6,571h-3.303c5.874,21,9.279,44.049,9.519,67.602l0.184-0.109c0,0.011,0,0.022,0,0.034
		c0-2.131,5.013-5.526,7.805-5.526c0,0,0.006,0,0.009,0C860.476,612,855.644,592,848.6,571h-0.108
		C848.526,571,848.566,571,848.6,571z"/>
	<path opacity="0.14" fill="#211915" d="M848.6,571h-3.303c5.874,21,9.279,44.049,9.519,67.602l0.184-0.109c0,0.011,0,0.022,0,0.034
		c0-2.131,5.013-5.526,7.805-5.526c0,0,0.006,0,0.009,0C860.476,612,855.644,592,848.6,571h-0.108
		C848.526,571,848.566,571,848.6,571z"/>
	<path fill="#6A9838" d="M809.538,826.427c-0.081-0.181-0.156-0.368-0.237-0.549c-0.137,0.18-0.261,0.37-0.399,0.549
		c-3.511-7.868-6.424-16.058-8.626-24.536c-17.607,22.561-39.047,42.257-63.226,58.472c-28.179,19.562-59.392,33.863-93.989,41.534
		C623.809,906.6,605,909.547,584,910.567v22.027c0,0.164,6.806,0.295,10.719,0.295c87.502,0,164.782-41.562,214.262-105.973
		C809.108,826.75,809.41,826.593,809.538,826.427z"/>
	<path opacity="0.14" fill="#211915" d="M809.538,826.427c-0.081-0.181-0.156-0.368-0.237-0.549c-0.137,0.18-0.261,0.37-0.399,0.549
		c-3.511-7.868-6.424-16.058-8.626-24.536c-17.607,22.561-39.047,42.257-63.226,58.472c-28.179,19.562-59.392,33.863-93.989,41.534
		C623.809,906.6,605,909.547,584,910.567v22.027c0,0.164,6.806,0.295,10.719,0.295c87.502,0,164.782-41.562,214.262-105.973
		C809.108,826.75,809.41,826.593,809.538,826.427z"/>
	<path fill="#6A9838" d="M864.464,662.195c0-5.363-0.199-10.677-0.507-15.962c-3.318,2.569-6.503,5.281-9.586,8.119
		c-2.36,50.421-18.565,96.17-44.973,134.648c1.694,9.112,4.257,17.903,7.557,26.343
		C846.901,771.784,864.464,719.049,864.464,662.195z"/>
	<path opacity="0.14" fill="#211915" d="M864.464,662.195c0-5.363-0.199-10.677-0.507-15.962c-3.318,2.569-6.503,5.281-9.586,8.119
		c-2.36,50.421-18.565,96.17-44.973,134.648c1.694,9.112,4.257,17.903,7.557,26.343
		C846.901,771.784,864.464,719.049,864.464,662.195z"/>
	<path fill="#6A9838" d="M841.769,557h2.345c-0.565-1-1.144-2.323-1.73-3.51c-3.432-6.949-7.223-16.585-11.378-24.129
		c0.926,2.017,1.825,4.139,2.704,6.349c2.454,6.177,4.72,12.905,6.766,18.03C840.908,554.786,841.356,556,841.769,557z"/>
	<path opacity="0.14" fill="#211915" d="M841.769,557h2.345c-0.565-1-1.144-2.323-1.73-3.51
		c-3.432-6.949-7.223-16.585-11.378-24.129c0.926,2.017,1.825,4.139,2.704,6.349c2.454,6.177,4.72,12.905,6.766,18.03
		C840.908,554.786,841.356,556,841.769,557z"/>
	<path fill="#C5D368" d="M848.492,571.026c-1.376-3.819-2.838-8.026-4.378-11.026h-2.345c1.219,3,2.323,7,3.376,11h0.083
		c0.026,0,0.043,0,0.069,0h3.303C848.566,571,848.526,571.12,848.492,571.026z"/>
	<path opacity="0.14" fill="#211915" d="M848.492,571.026c-1.376-3.819-2.838-8.026-4.378-11.026h-2.345c1.219,3,2.323,7,3.376,11
		h0.083c0.026,0,0.043,0,0.069,0h3.303C848.566,571,848.526,571.12,848.492,571.026z"/>
	<path fill="#C5D368" d="M584,910.567c-7,0.19-7,0.31-14,0.365c0,0.008,0,0.047,0,0.052v20.842c7,0.328,7,0.603,14,0.768V910.567z"
		/>
	<path opacity="0.14" fill="#211915" d="M584,910.567c-7,0.19-7,0.31-14,0.365c0,0.008,0,0.047,0,0.052v20.842
		c7,0.328,7,0.603,14,0.768V910.567z"/>
	<path fill="#C5D368" d="M862.814,632.528c-2.794,1.961-5.524,4.005-8.182,6.138c0.01,0.944,0.073,1.871,0.073,2.818
		c0,4.325-0.135,8.607-0.334,12.868c3.083-2.838,6.269-5.55,9.586-8.119C863.69,641.632,863.308,637.064,862.814,632.528z"/>
	<path opacity="0.14" fill="#211915" d="M862.814,632.528c-2.794,1.961-5.524,4.005-8.182,6.138c0.01,0.944,0.073,1.871,0.073,2.818
		c0,4.325-0.135,8.607-0.334,12.868c3.083-2.838,6.269-5.55,9.586-8.119C863.69,641.632,863.308,637.064,862.814,632.528z"/>
	<path fill="#C5D368" d="M808.902,826.427c0.137-0.18,0.262-0.369,0.399-0.549c2.627-3.453,5.191-6.955,7.653-10.535
		c-3.3-8.44-5.863-17.231-7.557-26.343c-2.948,4.295-6.008,8.506-9.205,12.615c0.024,0.093,0.06,0.182,0.084,0.276
		C802.478,810.369,805.391,818.559,808.902,826.427z"/>
	<path opacity="0.14" fill="#211915" d="M808.902,826.427c0.137-0.18,0.262-0.369,0.399-0.549c2.627-3.453,5.191-6.955,7.653-10.535
		c-3.3-8.44-5.863-17.231-7.557-26.343c-2.948,4.295-6.008,8.506-9.205,12.615c0.024,0.093,0.06,0.182,0.084,0.276
		C802.478,810.369,805.391,818.559,808.902,826.427z"/>
	<path fill="#FCE91E" d="M424.723,856.018c22.882,16.712,48.453,29.919,75.917,38.877c13.195,4.304,26.768,7.744,40.732,9.989
		c0.588,0.094,1.135,0.182,1.701,0.273c3.567,0.573,6.403,1.073,9.877,1.496c4.722,0.575,10.05,1.013,17.05,1.292V769.4
		c-1-0.077-2.64-0.159-3.661-0.248c-2.043-0.177-2.767,1.547-3.769,1.309c-0.502-0.119-0.826,1.539-1.518,1.539
		c-0.01,0-0.02,0-0.03,0c-7.338-7-15.184-5.637-21.403-8.591c-6.241-2.97-12.063-7.633-17.29-11.955
		c-5.026-4.171-9.917-9.449-14.57-14.753l-6.115-7.232l7.336-7.937c0.73-0.723,1.323-1.984,1.81-2.354
		c1.356-1.049,3.726-3.178,7.203-3.178h0.011c0.004,0,0.008,0,0.008,0c4.987,0,8.559,3.635,10.791,5.949
		c1.313,1.403,3.055,3.307,5.087,5.218c2.262,2.085,5.001,4.43,8.059,6.795c2.692,2.04,6.313,3.838,10.205,5.597
		c4.026,1.813,9.243,4.44,14.567,4.44c0.008,0,0.015,0,0.022,0c0.47,0,1.088,0.423,1.983,0.491c0.894,0.068,1.277,0.371,1.277,0.456
		V634.11c-6-1.082-7.006-2.125-10.109-3.283c-0.42-0.157-0.632-0.348-1.051-0.51c-7.819-3.017-15.646-6.898-21.857-11.603
		c-6.849-5.132-12.433-11.703-16.715-19.479c-4.332-7.871-6.582-17.678-6.858-29.137c-0.217-9.045,1.219-17.881,4.365-26.242
		c3.15-8.457,7.945-16.106,14.279-22.679c5.964-6.166,14.169-11.259,22.749-15.224c0.463-0.215,0.507-0.466,0.975-0.674
		c4.226-1.871,8.222-3.232,14.222-4.358V371.008c111,1.017,207.653,58.803,254.696,146.93
		c-27.611-54.778-73.64-98.807-129.655-124.254c-0.125-0.057-0.155-0.105-0.28-0.162c-0.033-0.015-0.018-0.027-0.05-0.042
		c-3.689-1.667-7.397-3.228-11.178-4.733C656.372,377.938,626.948,370,596.325,370c-0.079,0-0.161,0-0.24,0
		c-4.109,0-8.345,0-12.495,0c-0.017,0-0.034,0-0.052,0c-102.45,0-191.577,57.046-237.099,141.266
		c-19.375,35.845-30.816,76.501-32.085,119.803c-0.078,2.67-0.233,5.281-0.233,7.971c0,38.389,8.083,74.849,22.554,107.898
		c3.431,7.837,7.346,15.398,11.496,22.824C367.149,803.722,393.371,833.119,424.723,856.018z"/>
	<path fill="#FCE91E" d="M643.701,901.484c33.188-7.583,64.018-21.276,91.279-39.861
		C707.718,879.583,676.964,893.175,643.701,901.484z"/>
	<path fill="#FCE91E" d="M549.597,537.708c-4.035,4.211-7.061,9.079-9.03,14.446c-2.05,5.514-2.905,11.119-2.759,17.189
		c0.17,7.098,1.636,12.972,4.117,17.455c2.632,4.791,6.217,8.68,10.48,11.937c4.567,3.477,10.005,6.397,15.955,8.669
		c0.347,0.133,1.64,0.256,1.64,0.388v-81.991c0,0.432-3.082,0.847-4.24,1.356C559.531,529.89,553.721,533.436,549.597,537.708z"/>
	<path fill="#CE871C" d="M568.723,744.491c-0.894-0.068-1.513-0.491-1.983-0.491c-0.008,0-0.014,0-0.022,0
		c-5.324,0-10.541-2.542-14.567-4.355c-3.892-1.759-7.513-3.591-10.205-5.631c-3.058-2.365-5.797-4.479-8.059-6.564
		c-2.031-1.911-3.773-4.128-5.087-5.531c-2.232-2.314-5.804-5.919-10.787-5.919c0,0-0.008,0-0.012,0
		c-3.471,0-5.859,2.07-7.214,3.117c-0.487,0.37-1.08,1.229-1.81,1.952l-7.336,7.987l6.115,7.077
		c4.653,5.304,9.544,10.143,14.57,14.314c5.227,4.322,11.049,9.97,17.29,12.941c6.219,2.954,14.065,1.613,21.403,8.613
		c0.01,0,0.021,0,0.031,0c0.692,0,1.214-1.658,1.715-1.539c1.003,0.238,1.53-0.523,3.573-0.346c1.021,0.088,2.661-0.792,3.661-0.715
		v-24.453C570,744.862,569.617,744.559,568.723,744.491z"/>
	<path fill="#CE871C" d="M568.36,607.404c-5.95-2.272-11.584-5.191-16.152-8.669c-4.263-3.257-7.749-7.146-10.382-11.937
		c-2.481-4.483-3.898-10.357-4.068-17.455c-0.146-6.07,0.734-11.676,2.784-17.189c1.969-5.368,5.007-10.236,9.043-14.446
		c4.124-4.271,9.94-7.818,16.169-10.55c1.158-0.51,4.246-0.924,4.246-1.356v-24.88c-6,1.126-9.995,2.487-14.221,4.358
		c-0.467,0.208-0.707,0.459-1.17,0.674c-8.537,3.964-16.224,9.057-22.189,15.224c-6.334,6.573-11.349,14.221-14.499,22.679
		c-3.146,8.361-4.729,17.197-4.511,26.242c0.276,11.459,2.562,21.267,6.895,29.137c4.282,7.776,9.921,14.346,16.77,19.479
		c6.211,4.705,14.139,8.586,21.958,11.603c0.421,0.162,0.451,0.353,0.871,0.51c3.104,1.158,4.096,2.201,10.096,3.283v-26.318
		C570,607.66,568.706,607.537,568.36,607.404z"/>
	<path fill="#004860" d="M829.438,529.07h0.04c-0.027-0.043-0.052-0.099-0.079-0.141h0.038c0.086,0,0.176,0.108,0.263,0.141h0.006
		c-0.496-1.05-1.052-2.064-1.561-3.106c0.334,0.929,0.694,1.86,1.113,2.795C829.318,528.863,829.379,528.966,829.438,529.07z"/>
	<path fill="#E6D901" d="M829.438,529h0.04c-0.027,0-0.052,0-0.079,0H829.438c0.086,0,0.176,0,0.263,0h0.006
		c-0.496-1-1.052-2.029-1.561-3.071c0.334,0.929,0.694,1.843,1.113,2.777C829.318,528.811,829.379,529,829.438,529z"/>
	<path fill="#6A9838" d="M829.478,529h-0.04c0.428,1,0.871,1.505,1.3,2.26C830.322,530.459,829.904,530,829.478,529z"/>
	<path fill="#E6D901" d="M829.478,529h-0.04c0.428,1,0.871,1.505,1.3,2.26C830.322,530.459,829.904,530,829.478,529z"/>
	<polygon fill="#6A9838" points="829.709,529.074 829.707,529.07 829.701,529.07 	"/>
	<polygon fill="#E6D901" points="829.709,529.074 829.707,529.07 829.701,529.07 	"/>
	<path fill="#004860" d="M829.259,528.759c0.047,0.104,0.094,0.207,0.141,0.311h0.038
		C829.379,528.966,829.318,528.863,829.259,528.759z"/>
	<path opacity="0.14" fill="#211915" d="M829.259,528.759c0.047,0.104,0.094,0.207,0.141,0.311h0.038
		C829.379,528.966,829.318,528.863,829.259,528.759z"/>
	<path fill="#E6D901" d="M829.259,528.759c0.047,0.104,0.094,0.207,0.141,0.311h0.038
		C829.379,528.966,829.318,528.863,829.259,528.759z"/>
	<path fill="#6A9838" d="M569,907.945v3.039c0-0.005,1-0.044,1-0.052v-2.906C570,908,569,907.975,569,907.945z"/>
	<path opacity="0.14" fill="#211915" d="M569,907.945v3.039c0-0.005,1-0.044,1-0.052v-2.906C570,908,569,907.975,569,907.945z"/>
	<path fill="#E6D901" d="M569,907.945v3.039c0-0.005,1-0.044,1-0.052v-2.906C570,908,569,907.975,569,907.945z"/>
	<path fill="#6A9838" d="M854.631,640c-0.241-28-3.461-47.497-9.334-68.216c-0.026-0.091-0.043-0.784-0.069-0.784h-0.083
		c0.026,0,0.058,0,0.083,0h-1.039c5.639,21,10.81,44.384,10.81,67.852c0,0.014,0,0.029,0,0.043c0,0.033,0,0.064,0,0.097
		c0,0.342-1.09,1.432-1.094,1.773c0.587-0.485,0.63-0.765,1.225-0.765H854.631z"/>
	<path opacity="0.14" fill="#211915" d="M854.631,640c-0.241-28-3.461-47.497-9.334-68.216c-0.026-0.091-0.043-0.784-0.069-0.784
		h-0.083c0.026,0,0.058,0,0.083,0h-1.039c5.639,21,10.81,44.384,10.81,67.852c0,0.014,0,0.029,0,0.043c0,0.033,0,0.064,0,0.097
		c0,0.342-1.09,1.432-1.094,1.773c0.587-0.485,0.63-0.765,1.225-0.765H854.631z"/>
	<path fill="#E6D901" d="M854.631,640c-0.241-28-3.461-47.497-9.334-68.216c-0.026-0.091-0.043-0.784-0.069-0.784h-0.083
		c0.026,0,0.058,0,0.083,0h-1.039c5.639,21,10.81,44.384,10.81,67.852c0,0.014,0,0.029,0,0.043c0,0.033,0,0.064,0,0.097
		c0,0.342-1.09,1.432-1.094,1.773c0.587-0.485,0.63-0.765,1.225-0.765H854.631z"/>
	<path fill="#6A9838" d="M855.744,654.352c-0.702,0.646-0.744,1.266-0.744,1.925v0.007c-7,47.797-19.883,92.187-44.631,129.996
		c-0.004,0.006-0.695,0.012-0.699,0.018c0.15,0.897,0.591,1.811,0.757,2.702C836.835,750.521,853.384,704.773,855.744,654.352z"/>
	<path opacity="0.14" fill="#211915" d="M855.744,654.352c-0.702,0.646-0.744,1.266-0.744,1.925v0.007
		c-7,47.797-19.883,92.187-44.631,129.996c-0.004,0.006-0.695,0.012-0.699,0.018c0.15,0.897,0.591,1.811,0.757,2.702
		C836.835,750.521,853.384,704.773,855.744,654.352z"/>
	<path fill="#E6D901" d="M855.744,654.352c-0.702,0.646-0.744,1.266-0.744,1.925v0.007c-7,47.797-19.883,92.187-44.631,129.996
		c-0.004,0.006-0.695,0.012-0.699,0.018c0.15,0.897,0.591,1.811,0.757,2.702C836.835,750.521,853.384,704.773,855.744,654.352z"/>
	<path fill="#6A9838" d="M840.828,557h0.941c-0.413-1-0.861-2.236-1.294-3.282c-2.783-6.724-5.948-15.529-9.469-23.202
		c-0.419-0.762-0.862-1.516-1.297-1.516h-0.008c-0.088,0-0.177,0-0.263,0h-0.038c0.027,0,0.052,0.063,0.079,0.105
		c0.425,0.684,0.844,1.619,1.259,2.421C834.556,538.891,837.961,551,840.828,557z"/>
	<path opacity="0.14" fill="#211915" d="M840.828,557h0.941c-0.413-1-0.861-2.236-1.294-3.282
		c-2.783-6.724-5.948-15.529-9.469-23.202c-0.419-0.762-0.862-1.516-1.297-1.516h-0.008c-0.088,0-0.177,0-0.263,0h-0.038
		c0.027,0,0.052,0.063,0.079,0.105c0.425,0.684,0.844,1.619,1.259,2.421C834.556,538.891,837.961,551,840.828,557z"/>
	<path fill="#E6D901" d="M840.828,557h0.941c-0.413-1-0.861-2.236-1.294-3.282c-2.783-6.724-5.948-15.529-9.469-23.202
		c-0.419-0.762-0.862-1.516-1.297-1.516h-0.008c-0.088,0-0.177,0-0.263,0h-0.038c0.027,0,0.052,0.063,0.079,0.105
		c0.425,0.684,0.844,1.619,1.259,2.421C834.556,538.891,837.961,551,840.828,557z"/>
	<path fill="#6A9838" d="M642.982,901.897c-18.863,4.183-37.647,7.295-57.77,7.295c-0.376,0-0.421,0.809-0.499,0.809
		c-0.023,0-0.714,0-0.714,0v0.567C605,909.547,623.73,906.6,642.982,901.897z"/>
	<path opacity="0.14" fill="#211915" d="M642.982,901.897c-18.863,4.183-37.647,7.295-57.77,7.295c-0.376,0-0.421,0.809-0.499,0.809
		c-0.023,0-0.714,0-0.714,0v0.567C605,909.547,623.73,906.6,642.982,901.897z"/>
	<path fill="#E6D901" d="M642.982,901.897c-18.863,4.183-37.647,7.295-57.77,7.295c-0.376,0-0.421,0.809-0.499,0.809
		c-0.023,0-0.714,0-0.714,0v0.567C605,909.547,623.73,906.6,642.982,901.897z"/>
	<path fill="#6A9838" d="M800.192,801.615c-0.167-0.651-0.297-1.316-0.456-1.971c-17.078,22.946-37.763,42.986-61.155,59.487
		C762.145,843.074,782.965,823.751,800.192,801.615z"/>
	<path opacity="0.14" fill="#211915" d="M800.192,801.615c-0.167-0.651-0.297-1.316-0.456-1.971
		c-17.078,22.946-37.763,42.986-61.155,59.487C762.145,843.074,782.965,823.751,800.192,801.615z"/>
	<path fill="#E6D901" d="M800.192,801.615c-0.167-0.651-0.297-1.316-0.456-1.971c-17.078,22.946-37.763,42.986-61.155,59.487
		C762.145,843.074,782.965,823.751,800.192,801.615z"/>
	<path fill="#C5D368" d="M570,908.026v2.906c0-0.001,0.391-0.008,0.49-0.009c3.789-0.057,7.51-0.17,11.51-0.356v-2.247
		c0-0.001-0.456-0.018-0.711-0.019c-2.669-0.025-5.197-0.093-7.811-0.198c-0.903-0.032-2.049-0.027-2.949-0.069
		C570.431,908.029,570,908.031,570,908.026z"/>
	<path opacity="0.14" fill="#211915" d="M570,908.026v2.906c0-0.001,0.391-0.008,0.49-0.009c3.789-0.057,7.51-0.17,11.51-0.356
		v-2.247c0-0.001-0.456-0.018-0.711-0.019c-2.669-0.025-5.197-0.093-7.811-0.198c-0.903-0.032-2.049-0.027-2.949-0.069
		C570.431,908.029,570,908.031,570,908.026z"/>
	<path fill="#E6D901" d="M570,908.026v2.906c0-0.001,0.391-0.008,0.49-0.009c3.789-0.057,7.51-0.17,11.51-0.356v-2.247
		c0-0.001-0.456-0.018-0.711-0.019c-2.669-0.025-5.197-0.093-7.811-0.198c-0.903-0.032-2.049-0.027-2.949-0.069
		C570.431,908.029,570,908.031,570,908.026z"/>
	<path fill="#C5D368" d="M845.229,571c-0.026,0-0.057,0.12-0.083,0.026c-1.053-3.811-2.158-8.026-3.376-11.026h-0.94
		c1.188,3,2.279,7,3.297,11h0.064H845.229z"/>
	<path opacity="0.14" fill="#211915" d="M845.229,571c-0.026,0-0.057,0.12-0.083,0.026c-1.053-3.811-2.158-8.026-3.376-11.026h-0.94
		c1.188,3,2.279,7,3.297,11h0.064H845.229z"/>
	<path fill="#E6D901" d="M845.229,571c-0.026,0-0.057,0.12-0.083,0.026c-1.053-3.811-2.158-8.026-3.376-11.026h-0.94
		c1.188,3,2.279,7,3.297,11h0.064H845.229z"/>
	<path fill="#C5D368" d="M854.705,641.484c0-0.947,0.02-1.874,0.01-2.818c-0.595,0.477-1.715,0.931-1.715,1.417v0.003
		c0,5.44-0.322,10.831-0.662,16.19c0.689-0.658,1.373-1.279,2.075-1.925C854.612,650.091,854.705,645.809,854.705,641.484z"/>
	<path opacity="0.14" fill="#211915" d="M854.705,641.484c0-0.947,0.02-1.874,0.01-2.818c-0.595,0.477-1.715,0.931-1.715,1.417
		v0.003c0,5.44-0.322,10.831-0.662,16.19c0.689-0.658,1.373-1.279,2.075-1.925C854.612,650.091,854.705,645.809,854.705,641.484z"/>
	<path fill="#E6D901" d="M854.705,641.484c0-0.947,0.02-1.874,0.01-2.818c-0.595,0.477-1.715,0.931-1.715,1.417v0.003
		c0,5.44-0.322,10.831-0.662,16.19c0.689-0.658,1.373-1.279,2.075-1.925C854.612,650.091,854.705,645.809,854.705,641.484z"/>
	<path fill="#C5D368" d="M809.398,789c-0.166-0.891-0.264-1.805-0.414-2.702c-2.964,4.527-6.001,8.986-9.224,13.318
		c-0.008,0.01-0.016,0.019-0.024,0.029c0.159,0.654,0.288,1.32,0.456,1.971C803.39,797.505,806.45,793.294,809.398,789z"/>
	<path opacity="0.14" fill="#211915" d="M809.398,789c-0.166-0.891-0.264-1.805-0.414-2.702c-2.964,4.527-6.001,8.986-9.224,13.318
		c-0.008,0.01-0.016,0.019-0.024,0.029c0.159,0.654,0.288,1.32,0.456,1.971C803.39,797.505,806.45,793.294,809.398,789z"/>
	<path fill="#E6D901" d="M809.398,789c-0.166-0.891-0.264-1.805-0.414-2.702c-2.964,4.527-6.001,8.986-9.224,13.318
		c-0.008,0.01-0.016,0.019-0.024,0.029c0.159,0.654,0.288,1.32,0.456,1.971C803.39,797.505,806.45,793.294,809.398,789z"/>
	<path fill="#FCE91E" d="M570,371.008v129.913c0-0.609,4.577-1.248,7.323-1.637l-0.476-23.788
		c-0.203-8.196,4.246-12.839,10.388-12.987L598,460.924V460h3.644l-0.628,37.645c8.747,0.817,16.792,3.291,24.068,6.284
		c10.179,4.167,19.852,11.072,28.764,19.944l5.78,5.905l-3.719,8.069c-1.437,3.143-8.909,5.829-8.909,5.941v0.02v0.01
		c-7,0.133-10.915-3.35-13.871-6.399c-1.115-1.145-3.998-3.121-8.341-5.994c-3.384-2.238-8.215-4.364-13.738-6.335
		c-2.84-1.008-6.336-1.74-10.125-2.199l-1.17,95.21c5.981,1.865,11.858,3.79,17.705,5.79c8.891,3.037,17.043,7.002,24.271,11.765
		c7.734,5.134,14.089,11.712,18.918,19.582c5.007,8.093,7.703,18.371,7.995,30.511c0.266,11.053-1.326,21.589-4.727,31.296
		c-3.479,9.923-8.76,18.778-15.703,26.335c-6.979,7.593-15.574,13.766-25.589,18.383c-7.444,3.408-15.654,5.758-24.573,7.037
		l-0.234,33.46c0.204,8.233-7.656,12.864-13.799,13.011L570,815.571v-0.012l1.388,0.012l2.03-45.732
		c-1.698-0.097-3.419-0.273-3.419-0.439v138.545c0,0.03,0.523,0.055,1.077,0.081c0.705,0.033,1.549,0.049,2.229,0.076
		c2.614,0.105,5.267,0.173,7.935,0.198c0.425,0.004,0.865,0.017,1.301,0.019c0.457,0.002,0.686,0.871,1.144,0.871
		c0.314,0,0.645,0.81,0.958,0.81c0.023,0,0.046,0,0.069,0c19.764,0,38.895-3.154,57.442-7.266c0.52-0.127,1.026-0.702,1.545-0.832
		c33.263-8.309,64.017-22.109,91.279-40.07c0.651-0.429,1.326-0.931,1.972-1.365c0.56-0.389,1.072-0.89,1.629-1.283
		c23.392-16.502,44.077-36.568,61.155-59.513c0.008-0.01,0.016-0.032,0.024-0.042c3.223-4.331,6.26-8.798,9.224-13.324
		c0.004-0.006,1.381-0.016,1.385-0.021C835.117,748.474,848,704.081,855,656.284v-0.007c0-5.359,0.128-9.276,0.15-16.276H855
		c0,0,0,0.036,0,0.012c0-0.341,0-0.677,0-1.02c0-0.033,0-0.064,0-0.097c0-23.536-4.125-46.358-9.803-68.116
		c-1.019-3.904-2.646-7.778-3.833-11.611c-3.198-10.324-7.331-20.348-11.697-30.099c-0.047-0.104-0.228-0.207-0.275-0.311
		c-0.42-0.935-0.846-1.866-1.18-2.795c-0.971-2.7-2.147-5.376-3.483-8.026C777.687,429.811,681,372.025,570,371.008z"/>
	<path fill="#E6D901" d="M570,371.008v129.913c0-0.609,4.577-1.248,7.323-1.637l-0.476-23.788
		c-0.203-8.196,4.246-12.839,10.388-12.987L598,460.924V460h3.644l-0.628,37.645c8.747,0.817,16.792,3.291,24.068,6.284
		c10.179,4.167,19.852,11.072,28.764,19.944l5.78,5.905l-3.719,8.069c-1.437,3.143-8.909,5.829-8.909,5.941v0.02v0.01
		c-7,0.133-10.915-3.35-13.871-6.399c-1.115-1.145-3.998-3.121-8.341-5.994c-3.384-2.238-8.215-4.364-13.738-6.335
		c-2.84-1.008-6.336-1.74-10.125-2.199l-1.17,95.21c5.981,1.865,11.858,3.79,17.705,5.79c8.891,3.037,17.043,7.002,24.271,11.765
		c7.734,5.134,14.089,11.712,18.918,19.582c5.007,8.093,7.703,18.371,7.995,30.511c0.266,11.053-1.326,21.589-4.727,31.296
		c-3.479,9.923-8.76,18.778-15.703,26.335c-6.979,7.593-15.574,13.766-25.589,18.383c-7.444,3.408-15.654,5.758-24.573,7.037
		l-0.234,33.46c0.204,8.233-7.656,12.864-13.799,13.011L570,815.571v-0.012l1.388,0.012l2.03-45.732
		c-1.698-0.097-3.419-0.273-3.419-0.439v138.545c0,0.03,0.523,0.055,1.077,0.081c0.705,0.033,1.549,0.049,2.229,0.076
		c2.614,0.105,5.267,0.173,7.935,0.198c0.425,0.004,0.865,0.017,1.301,0.019c0.457,0.002,0.686,0.871,1.144,0.871
		c0.314,0,0.645,0.81,0.958,0.81c0.023,0,0.046,0,0.069,0c19.764,0,38.895-3.154,57.442-7.266c0.52-0.127,1.026-0.702,1.545-0.832
		c33.263-8.309,64.017-22.109,91.279-40.07c0.651-0.429,1.326-0.931,1.972-1.365c0.56-0.389,1.072-0.89,1.629-1.283
		c23.392-16.502,44.077-36.568,61.155-59.513c0.008-0.01,0.016-0.032,0.024-0.042c3.223-4.331,6.26-8.798,9.224-13.324
		c0.004-0.006,1.381-0.016,1.385-0.021C835.117,748.474,848,704.081,855,656.284v-0.007c0-5.359,0.128-9.276,0.15-16.276H855
		c0,0,0,0.036,0,0.012c0-0.341,0-0.677,0-1.02c0-0.033,0-0.064,0-0.097c0-23.536-4.125-46.358-9.803-68.116
		c-1.019-3.904-2.646-7.778-3.833-11.611c-3.198-10.324-7.331-20.348-11.697-30.099c-0.047-0.104-0.228-0.207-0.275-0.311
		c-0.42-0.935-0.846-1.866-1.18-2.795c-0.971-2.7-2.147-5.376-3.483-8.026C777.687,429.811,681,372.025,570,371.008z"/>
	<path fill="#FCE91E" d="M599.361,643.564l-1.059,100.983c5.051-1.006,9.72-2.518,13.963-4.521
		c7.123-3.34,13.14-7.682,17.903-12.938c4.829-5.305,8.35-11.224,10.768-18.086c2.423-6.886,3.554-14.278,3.369-21.973
		c-0.186-7.719-1.736-14.007-4.605-18.685c-3.112-5.114-6.994-9.193-11.875-12.495c-5.306-3.626-11.422-6.611-18.215-8.911
		C606.211,645.79,602.801,644.665,599.361,643.564z"/>
	<path fill="#E6D901" d="M599.361,643.564l-1.059,100.983c5.051-1.006,9.72-2.518,13.963-4.521
		c7.123-3.34,13.14-7.682,17.903-12.938c4.829-5.305,8.35-11.224,10.768-18.086c2.423-6.886,3.554-14.278,3.369-21.973
		c-0.186-7.719-1.736-14.007-4.605-18.685c-3.112-5.114-6.994-9.193-11.875-12.495c-5.306-3.626-11.422-6.611-18.215-8.911
		C606.211,645.79,602.801,644.665,599.361,643.564z"/>
	<path fill="#FCE91E" d="M575.779,691.011l-0.004-54.709c-2.158-0.685-5.775-1.47-5.775-2.192v110.837
		c0,0.259,2.709,0.554,4.507,0.724L575.779,691.011z"/>
	<path fill="#E6D901" d="M575.779,691.011l-0.004-54.709c-2.158-0.685-5.775-1.47-5.775-2.192v110.837
		c0,0.259,2.709,0.554,4.507,0.724L575.779,691.011z"/>
	<path fill="#FCE91E" d="M576.118,610.101l0.954-43.141l0.368-43.199c-2.161,0.416-5.372,0.942-6.543,1.533
		c-0.296,0.165-0.897,0.333-0.897,0.507v81.991C570,608.577,573.818,609.346,576.118,610.101z"/>
	<path fill="#E6D901" d="M576.118,610.101l0.954-43.141l0.368-43.199c-2.161,0.416-5.372,0.942-6.543,1.533
		c-0.296,0.165-0.897,0.333-0.897,0.507v81.991C570,608.577,573.818,609.346,576.118,610.101z"/>
	<path fill="#CE871C" d="M570,815.559v0.012l14.018-0.299c6.142-0.148,13.064-4.778,12.86-13.011l0.703-33.46
		c8.919-1.279,17.363-3.629,24.807-7.037c10.015-4.617,18.727-10.79,25.706-18.383c6.944-7.557,12.281-16.412,15.761-26.335
		c3.401-9.707,5.02-20.243,4.754-31.296c-0.293-12.14-2.978-22.418-7.986-30.511c-4.829-7.87-11.187-14.448-18.92-19.582
		c-7.228-4.763-15.397-8.728-24.287-11.765c-5.847-2-11.762-3.925-17.743-5.79l1.091-95.21c3.789,0.459,7.125,1.192,9.965,2.199
		c5.523,1.971,10.034,4.098,13.418,6.336c4.344,2.873,6.585,4.851,7.701,5.996c2.955,3.049,7.063,6.537,12.589,6.404h0.001
		c4.636-0.112,8.75-2.769,10.187-5.912l4.996-8l-5.788-5.767c-8.911-8.872-18.6-15.501-28.779-19.668
		c-7.276-2.993-15.612-4.915-24.36-5.732L601,462.212v-0.003l-12.167,0.299c-6.142,0.148-12.123,4.791-11.92,12.987l0.344,23.788
		c-2.746,0.389-7.258,1.028-7.258,1.637v24.88c0-0.175,0.381-0.342,0.677-0.507c1.134-0.634,6.323-1.198,6.323-1.627v0.094
		l-0.001,43.199l-0.136,43.294c-0.143-0.051-0.658-0.102-0.813-0.153c-2.3-0.754-6.051-1.524-6.051-2.309v26.318
		c0,0.723,3.616,1.507,5.775,2.192l-0.193,54.709l-0.291,54.709c-0.15-0.013-0.672-0.033-0.833-0.048
		c-1.797-0.17-4.457-0.465-4.457-0.724V769.4c0,0.166,0.781,0.342,2.48,0.439L570,815.559z M639.7,668.345
		c2.868,4.678,4.419,10.966,4.605,18.685c0.185,7.695-0.946,15.087-3.369,21.973c-2.417,6.861-5.939,12.781-10.768,18.086
		c-4.763,5.256-10.78,9.597-17.903,12.938c-4.244,2.003-8.912,3.514-13.963,4.521l1.059-100.983c3.44,1.101,6.85,2.226,10.25,3.376
		c6.793,2.3,12.909,5.284,18.215,8.911C632.706,659.152,636.588,663.231,639.7,668.345z"/>
	<path fill="#E6D901" d="M570,815.559v0.012l14.018-0.299c6.142-0.148,13.064-4.778,12.86-13.011l0.703-33.46
		c8.919-1.279,17.363-3.629,24.807-7.037c10.015-4.617,18.727-10.79,25.706-18.383c6.944-7.557,12.281-16.412,15.761-26.335
		c3.401-9.707,5.02-20.243,4.754-31.296c-0.293-12.14-2.978-22.418-7.986-30.511c-4.829-7.87-11.187-14.448-18.92-19.582
		c-7.228-4.763-15.397-8.728-24.287-11.765c-5.847-2-11.762-3.925-17.743-5.79l1.091-95.21c3.789,0.459,7.125,1.192,9.965,2.199
		c5.523,1.971,10.034,4.098,13.418,6.336c4.344,2.873,6.585,4.851,7.701,5.996c2.955,3.049,7.063,6.537,12.589,6.404h0.001
		c4.636-0.112,8.75-2.769,10.187-5.912l4.996-8l-5.788-5.767c-8.911-8.872-18.6-15.501-28.779-19.668
		c-7.276-2.993-15.612-4.915-24.36-5.732L601,462.212v-0.003l-12.167,0.299c-6.142,0.148-12.123,4.791-11.92,12.987l0.344,23.788
		c-2.746,0.389-7.258,1.028-7.258,1.637v24.88c0-0.175,0.381-0.342,0.677-0.507c1.134-0.634,6.323-1.198,6.323-1.627v0.094
		l-0.001,43.199l-0.136,43.294c-0.143-0.051-0.658-0.102-0.813-0.153c-2.3-0.754-6.051-1.524-6.051-2.309v26.318
		c0,0.723,3.616,1.507,5.775,2.192l-0.193,54.709l-0.291,54.709c-0.15-0.013-0.672-0.033-0.833-0.048
		c-1.797-0.17-4.457-0.465-4.457-0.724V769.4c0,0.166,0.781,0.342,2.48,0.439L570,815.559z M639.7,668.345
		c2.868,4.678,4.419,10.966,4.605,18.685c0.185,7.695-0.946,15.087-3.369,21.973c-2.417,6.861-5.939,12.781-10.768,18.086
		c-4.763,5.256-10.78,9.597-17.903,12.938c-4.244,2.003-8.912,3.514-13.963,4.521l1.059-100.983c3.44,1.101,6.85,2.226,10.25,3.376
		c6.793,2.3,12.909,5.284,18.215,8.911C632.706,659.152,636.588,663.231,639.7,668.345z"/>
</g>
</svg>
