<?xml version="1.0" encoding="utf-8"?>
<!-- Generator: Adobe Illustrator 19.1.0, SVG Export Plug-In . SVG Version: 6.00 Build 0)  -->
<svg version="1.1" id="Layer_1" xmlns="http://www.w3.org/2000/svg" xmlns:xlink="http://www.w3.org/1999/xlink" x="0px" y="0px"
	 viewBox="0 0 1200 1200" enable-background="new 0 0 1200 1200" xml:space="preserve">
<g>
	<path fill="#003750" d="M858.867,274.637c21.001,5.764,42.133,10.07,70.133,11.434V183.719
		C908,202.567,881.447,233.735,858.867,274.637z"/>
	<path fill="#003750" d="M823.264,393.385c-0.431,5.31-0.622,9.615-0.717,16.615H929v-91.448c-28-1.627-59.017-6.763-84.035-14.056
		C833.627,330.997,825.704,361.047,823.264,393.385z"/>
	<path fill="#003750" d="M1028.484,562.437c-25.162-6.293-51.484-9.305-72.484-9.928v110.055c28-29.156,48.166-58.383,65.215-87.604
		C1023.65,570.786,1026.236,566.611,1028.484,562.437z"/>
	<path fill="#003750" d="M789.968,438h-96.157c1.279,14,4.087,27,7.999,41h94.805C793.321,465,791.062,452,789.968,438z"/>
	<path fill="#003750" d="M424.662,428.541c-22.593-52.96-83.856-77.246-136.788-54.599c-52.993,22.56-78.35,84.027-55.713,136.987
		c7.312,17.16,18.839,31.469,31.839,42.041v-54.204c0-10.113,9.679-19.765,19.792-19.765h148.735
		C434.211,465,431.805,445.27,424.662,428.541z"/>
	<path fill="#003750" d="M929,485.848V438H823.502c1.26,14,3.799,27,7.51,41h85.908C921.992,479,929,482.515,929,485.848z"/>
	<path fill="#003750" d="M693.046,410h96.013c0.046-7,0.335-13.264,0.86-19.507c2.729-35.401,11.529-68.01,23.442-96.785
		c-29.612-11.458-52.433-23.874-66.974-33.204C714.047,301.766,694.337,355,693.046,410z"/>
	<path fill="#003750" d="M898.61,167.287c-50.039,9.207-94.913,33.223-129.882,67.357c13.347,8.467,33.201,19.517,58.412,29.253
		C849.336,221.8,877.036,189.101,898.61,167.287z"/>
	<path fill="#003750" d="M992.521,283.176c12.342-1.758,24.763-4.27,37.727-7.655C1006.044,231.82,977,199.481,956,181.471v104.838
		C970,285.938,980.179,284.934,992.521,283.176z"/>
	<path fill="#003750" d="M956,410h112.728c-0.145-7-0.194-10.107-0.575-14.844c-0.646-8.109-1.654-16.412-2.98-24.173
		c-3.137-18.361-8.089-35.883-14.217-52.162c-1.642-4.363-3.339-8.768-5.144-12.973c-7.786,2.147-15.485,3.958-23.091,5.545
		c-3.803,0.794-7.582,1.497-11.338,2.159c-7.51,1.324-15.411,2.377-22.721,3.205c-10.965,1.241-18.661,1.936-32.661,2.178V410z"/>
	<path fill="#003750" d="M1061.741,572.291c-9.417,18.135-20.48,36.223-33.153,54.263c-2.534,3.608-5.134,7.214-7.797,10.819
		c-5.326,7.209-10.908,14.41-16.745,21.604c10.812-2.632,21.346-5.959,31.554-9.934c5.104-1.987,10.126-4.136,15.061-6.441
		c24.674-11.524,47.161-26.934,66.716-45.457c-14.244-7.679-28.219-14.214-41.965-19.706
		C1070.83,575.608,1066.274,573.893,1061.741,572.291z"/>
	<path fill="#003750" d="M1150,193.079C1150,114.11,1097.996,50,1003.953,50H172.648C93.679,50,50,114.11,50,165.307V976.49
		C50,1104.676,93,1150,210.422,1150h793.646c80.548,0,145.932-34.953,145.932-134.703V193.079z M1129,273.315
		c-21,8.777-34.061,16.099-50.283,22.107c2.966,7.194,5.385,14.604,7.923,22.227c7.612,22.867,12.916,48.372,15.032,74.923
		c0.384,5.575,0.398,10.428,0.54,17.428H1129v28h-27.36c-2.393,34-11.003,69.633-25.785,104.987
		c10.572,3.84,21.985,7.645,32.802,12.629c6.501,2.995,13.343,5.696,20.343,9.131V652h-0.587c-5.372,0-11.254,7.135-16.912,10.958
		c-11.895,8.037-24.61,14.672-37.644,20.953c-17.378,8.375-35.798,14.83-54.85,19.732c-9.526,2.451-19.288,4.302-29.158,5.81
		c-14.804,2.262-29.612,3.365-45.049,3.365c-3.071,0-8.8-0.21-8.8-0.302v253.766c0,0.368-0.849-2.282-0.871,3.718h69.128
		c6.203,0,11.656,0,14.985,7H1019v28h-0.016c0,0-0.938,6.91-2.912,9.833c-2.633,3.897-6.62,8.272-11.393,9.248
		c-1.193,0.244-2.321,1.92-3.587,1.92H202.349c-10.125,0-21.349-11.7-21.349-21.824V977h3.194c-0.018,0-0.043,0-0.061,0H562v-7
		H265.578c-0.022-6-1.578-3.35-1.578-3.718V663.153l-29.828-11.609c-9.47-5.377-5.932-13.686-5.932-13.686l9.915-49.312
		c1.091-8.424-13.822-18.637-13.822-18.637c-10.765-9.544-20.84-6.471-20.84-6.471l-34.899,9.446
		c-12.787,4.951-15.427-1.855-15.427-1.855s-14.31-27.144-18.13-36.679c-3.828-9.551,5.035-13.816,5.035-13.816
		s13.84-8.883,29.908-17.731c16.072-8.849,15.321-25.133,15.321-25.133c3.721-22.176-8.927-27.961-8.927-27.961l-39.723-22.747
		c-8.003-4.78-5.086-12.486-5.086-12.486l15.132-37.234c4.612-10.157,16.305-5.965,16.305-5.965l40.429,9.805
		c7.289,1.356,22.355-9.789,22.355-9.789c8.575-6.643,11.379-18.736,11.379-18.736l-13.164-49.474
		c-1.858-6.676,5.585-11.317,5.585-11.317l37.031-15.557c8.914-3.554,13.188,5.295,13.188,5.295
		c1.107,2.003,24.12,40.838,24.12,40.838c3.547,3.677,18.801,5.124,18.801,5.124c14.655,2.933,25.277-5.924,25.277-5.924
		l22.731-40.659c2.7-6.692,11.389-6.169,11.389-6.169l40.434,15.336c8.625,4.16,6.316,15.558,6.316,15.558l-9.024,38.975
		c-4.261,11.497,9.65,24.913,9.65,24.913c8.35,9.094,21.84,9.298,21.84,9.298l39.101-12.46c13.642-4.085,18.287,8.572,18.287,8.572
		l14.307,32.373c4.723,11.627-6.324,16.595-6.324,16.595l-33.668,20.549c-12.268,6.725-9.67,25.487-9.67,25.487
		c-0.118,3.932,0.325,9.092,1.013,9.092h89.742l0,0h89.567c-4.78-20-6.673-42.494-6.673-65.136
		C647.021,250.509,776,118.337,942,116.283v0.146c0-0.016,2.535-0.023,3.816-0.023c69.089,0,128.184,23.636,183.184,63.076V273.315z
		"/>
	<path fill="#003750" d="M1028.204,177.405c-12.068-4.258-24.563-7.625-37.408-10.022c5.442,5.423,11.302,11.563,17.388,18.393
		c18.256,20.492,38.537,47.204,55.616,79.461c9.64-3.528,19.422-7.558,29.331-12.133c9.908-4.575,19.943-9.694,30.085-15.398
		c-22.036-22.275-48.183-40.429-77.238-53.254C1040.166,181.886,1034.238,179.534,1028.204,177.405z"/>
	<path fill="#003750" d="M956,519.071c7,0.078,7.354,0.205,10.826,0.385c6.944,0.359,14.234,0.926,21.379,1.719
		c10.717,1.19,21.777,2.888,32.92,5.157c7.429,1.513,15.01,3.28,22.616,5.318c10.296-24.074,17.449-46.925,21.396-70.883
		c1.316-7.986,2.309-15.767,2.919-22.767H956V519.071z"/>
	<path fill="#ECC53B" d="M232.161,511.11c-22.637-52.96,2.353-114.246,55.346-136.805c52.931-22.647,114.379,1.276,136.971,54.236
		c7.142,16.729,9.733,36.459,8.048,50.459h41.859c-0.688,0-1.131-5.16-1.013-9.092c0,0-2.598-19.125,9.67-25.85l33.668-20.368
		c0,0,11.047-4.878,6.324-16.505l-14.307-32.327c0,0-4.645-12.634-18.287-8.549l-39.101,12.472c0,0-13.49-0.198-21.84-9.292
		c0,0-13.911-13.414-9.65-24.91l9.024-38.973c0,0,2.309-11.397-6.316-15.557l-40.434-15.336c0,0-8.69-0.523-11.389,6.169
		l-22.731,40.659c0,0-10.622,8.857-25.277,5.924c0,0-15.255-1.447-18.801-5.124c0,0-23.013-38.836-24.12-40.838
		c0,0-4.274-8.848-13.188-5.295l-37.031,15.557c0,0-7.443,4.641-5.585,11.317l13.164,49.474c0,0-2.803,12.093-11.379,18.736
		c0,0-15.067,11.145-22.355,9.789l-40.429-9.805c0,0-11.693-4.192-16.305,5.965l-15.132,37.234c0,0-2.917,7.706,5.087,12.486
		l39.723,22.747c0,0,12.648,5.785,8.927,27.961c0,0,0.751,16.284-15.321,25.133c-16.068,8.848-29.906,17.731-29.906,17.731
		s-8.86,4.265-5.032,13.816c3.82,9.535,18.135,36.679,18.135,36.679s2.651,6.806,15.438,1.855l34.922-9.446
		c0,0,10.12-3.072,20.886,6.471c0,0,15.005,10.214,13.914,18.637l-9.731,49.312c0,0-3.906,8.308,5.564,13.686L264,663.153V552.969
		C251,542.398,239.473,528.27,232.161,511.11z"/>
	<path fill="#8DC4EC" d="M988.45,521.174c-7.145-0.793-14.192-1.36-21.136-1.719C974.258,519.814,981.305,520.381,988.45,521.174z"
		/>
	<path fill="#8DC4EC" d="M1004.047,658.976c10.812-2.632,21.346-5.959,31.554-9.934
		C1025.393,653.017,1014.86,656.345,1004.047,658.976L1004.047,658.976z"/>
	<path fill="#8DC4EC" d="M1021.247,526.332c-11.143-2.27-22.081-3.968-32.798-5.157
		C999.167,522.364,1010.105,524.062,1021.247,526.332z"/>
	<path fill="#8DC4EC" d="M1068.728,408.538c-0.145-4.688-0.194-9.376-0.575-14.113
		C1068.534,399.162,1068.583,403.85,1068.728,408.538L1068.728,408.538z"/>
	<path fill="#8DC4EC" d="M1117.378,597.144L1117.378,597.144c-14.244-7.679-28.219-14.214-41.965-19.706
		C1089.159,582.93,1103.134,589.465,1117.378,597.144z"/>
	<path fill="#8DC4EC" d="M1028.589,626.554c12.672-18.04,23.735-36.129,33.153-54.263
		C1052.323,590.425,1041.261,608.513,1028.589,626.554z"/>
	<path fill="#8DC4EC" d="M1123.215,237.705L1123.215,237.705c-22.036-22.276-48.183-40.43-77.238-53.254
		C1075.032,197.276,1101.179,215.43,1123.215,237.705z"/>
	<path fill="#8DC4EC" d="M990.796,167.382c12.845,2.398,25.34,5.764,37.408,10.022
		C1016.136,173.147,1003.641,169.78,990.796,167.382z"/>
	<path fill="#8DC4EC" d="M1050.955,318.638c6.128,16.28,11.08,33.619,14.217,51.98
		C1062.034,352.257,1057.083,334.917,1050.955,318.638z"/>
	<path fill="#8DC4EC" d="M1008.183,185.776c18.256,20.492,38.537,47.205,55.616,79.461c9.64-3.529,19.422-7.559,29.331-12.134
		c-9.909,4.575-19.691,8.605-29.331,12.133C1046.72,232.98,1026.439,206.268,1008.183,185.776z"/>
	<path fill="#8DC4EC" d="M989.149,316.746c7.31-0.828,14.724-1.893,22.234-3.216C1003.872,314.854,996.459,315.918,989.149,316.746z
		"/>
	<path fill="#8DC4EC" d="M1101.64,435.663c-2.394,35.425-11.003,70.8-25.785,106.155
		C1090.637,506.464,1099.247,471.088,1101.64,435.663z"/>
	<path fill="#8DC4EC" d="M942,116.576c-166,2.054-294.979,133.933-294.979,297.288c0,22.642,1.893,45.136,6.673,65.136h48.115
		c-3.913-14-6.721-27-7.999-41h96.157c1.094,14,3.353,27,6.647,41h34.397c-3.71-14-6.25-27-7.51-41H929v47.848
		c0,0.82,2.39,1.715,3.04,2.678c1.975,2.923,3.96,6.447,3.96,10.239v213.75c0,0.092,6.416,0.231,9.487,0.231
		c-1.28,0-3.487-0.081-3.487-0.097V116.576z M898.61,167.287c-21.574,21.814-49.274,54.513-71.471,96.61
		c-25.211-9.736-45.065-20.785-58.412-29.253C803.697,200.51,848.571,176.493,898.61,167.287z M789.919,390.493
		c-0.524,6.243-0.813,12.507-0.86,19.507h-96.013c1.291-55,21.001-108.417,53.341-149.679c14.541,9.33,37.362,22.294,66.974,33.752
		C801.448,322.848,792.647,355.092,789.919,390.493z M929,410H822.547c0.095-7,0.286-11.305,0.717-16.615
		c2.44-32.338,10.363-62.388,21.701-88.889c25.018,7.294,56.035,12.43,84.035,14.056V410z M929,286.071
		c-28-1.364-49.132-5.67-70.133-11.434c22.58-40.902,49.133-72.07,70.133-90.918V286.071z"/>
	<path fill="#8DC4EC" d="M1127.58,649.734L1127.58,649.734c-5.372,4.191-10.838,8.268-16.496,12.091
		C1116.742,658.002,1122.208,653.926,1127.58,649.734z"/>
	<path fill="#8DC4EC" d="M1018.903,703.36c-9.526,2.451-19.236,4.444-29.106,5.952
		C999.667,707.804,1009.377,705.811,1018.903,703.36z"/>
	<path fill="#8DC4EC" d="M1030.98,275.522L1030.98,275.522c-12.964,3.384-25.629,5.896-37.971,7.654
		C1005.351,281.418,1018.016,278.906,1030.98,275.522z"/>
	<path fill="#8DC4EC" d="M1111.084,661.825c-11.895,8.037-24.402,15.238-37.436,21.519
		C1086.682,677.063,1099.189,669.862,1111.084,661.825z"/>
	<path fill="#49A2D5" d="M941.513,120H942v592.65c0,0.016,1.826,0.097,3.106,0.097c15.437,0,30.243-1.173,45.048-3.435
		c9.87-1.508,19.401-3.501,28.927-5.952c19.052-4.902,37.278-11.641,54.657-20.015c13.034-6.281,26.206-13.482,38.101-21.519
		c5.658-3.823,10.161-7.9,17.161-12.091v-84.988c-7-3.434-13.842-6.72-20.343-9.715c-10.818-4.984-21.876-8.205-32.448-12.044
		c14.782-35.355,23.036-70.987,25.43-104.987H1129v-28h-26.787c-0.142-7-0.334-11.853-0.718-17.428
		c-2.116-26.551-7.597-51.69-15.21-74.557c-2.538-7.623-4.602-15.216-7.568-22.409c16.221-6.008,29.283-13.513,50.283-22.29v-93.834
		c-55-39.44-114.338-61.29-183.428-61.29C944.292,118.191,942.791,120,941.513,120z M956,662.564V552.51
		c21,0.622,47.322,3.635,72.484,9.928c-2.249,4.174-4.834,8.348-7.27,12.523C1004.166,604.181,984,633.408,956,662.564z
		 M1030.637,279h0.172c-12.964,0-26.031,4.157-38.373,5.915c-12.342,1.758-22.435,1.023-36.435,1.393V181.471
		C977,199.481,1006.432,230,1030.637,279z M988.661,316.746c7.31-0.828,14.967-1.893,22.478-3.216
		c3.755-0.662,7.657-1.388,11.459-2.182c7.606-1.587,15.366-3.444,23.152-5.591c1.805,4.205,3.532,8.518,5.174,12.881
		c6.128,16.279,11.095,33.618,14.232,51.98c1.326,7.761,2.342,16.43,2.988,24.539c0.382,4.736,0.438,7.844,0.583,14.844l0,0H956
		v-91.064C970,318.694,977.696,317.987,988.661,316.746z M1068.056,438c-0.61,7-1.572,14.782-2.888,22.767
		c-3.947,23.958-11.069,47.393-21.365,71.467c-7.606-2.039-15.126-4.097-22.555-5.61c-11.143-2.27-22.081-4.114-32.798-5.304
		c-7.145-0.793-14.679-1.433-21.623-1.792c-3.472-0.18-3.826-0.38-10.826-0.458V438H1068.056z M1117.379,597.144L1117.379,597.144
		c-19.556,18.523-42.043,33.933-66.717,45.457c-4.935,2.305-9.957,4.454-15.061,6.441c-10.208,3.975-20.741,7.303-31.554,9.934l0,0
		c5.837-7.194,11.419-14.395,16.745-21.604c2.663-3.604,5.262-7.21,7.797-10.819c12.672-18.04,23.735-36.129,33.153-54.263
		c4.533,1.602,9.089,3.317,13.671,5.148C1089.159,582.93,1103.135,589.465,1117.379,597.144z M1123.215,237.705
		c-10.143,5.705-20.177,10.824-30.085,15.398c-9.909,4.575-19.691,8.605-29.331,12.134c-17.079-32.257-37.36-58.969-55.616-79.461
		c-6.086-6.83-11.946-12.97-17.388-18.393c12.845,2.398,25.34,5.765,37.408,10.022c6.034,2.129,11.962,4.481,17.773,7.046
		C1075.032,197.275,1101.179,215.429,1123.215,237.705L1123.215,237.705z"/>
	<path fill="#4981A9" d="M285,957V521h277v-42h-87.614h-41.859H283.792C273.679,479,264,488.653,264,498.765v54.204v110.184v303.129
		c0,0.368,1.557-2.282,1.578,3.718H562v-13H285z"/>
	<polygon fill="#003750" points="285,521 285,957 562,957 562,816.539 528.219,852.226 497.408,823.265 562,758.122 562,711.885 
		538.868,706.548 562,695.925 562,521 	"/>
	<path fill="#FFFFFF" d="M1019.414,1004.176L1019.414,1004.176c0,3.796-1.153,7.321-3.128,10.244
		C1018.262,1011.498,1019.414,1007.973,1019.414,1004.176z"/>
	<path fill="#FFFFFF" d="M1004.786,1022.121c4.773-0.975,8.868-3.803,11.501-7.7
		C1013.654,1018.318,1009.559,1021.146,1004.786,1022.121z"/>
	<path fill="#FFFFFF" d="M562,1026v-49H184.133c0.018,0,0.043,0,0.061,0H181v27.176c0,10.124,11.223,21.824,21.349,21.824h798.743
		c1.266,0,2.501-0.128,3.694-0.372c-1.193,0.244-2.428,0.372-3.694,0.372H562z M281.168,1006.068c-3.999,0-7.232-3.234-7.232-7.224
		c0-3.999,3.234-7.253,7.232-7.253c3.995,0,7.24,3.254,7.24,7.253C288.408,1002.834,285.163,1006.068,281.168,1006.068z
		 M302.329,1006.068c-4.011,0-7.241-3.234-7.241-7.224c0-3.999,3.23-7.253,7.241-7.253c3.998,0,7.228,3.254,7.228,7.253
		C309.557,1002.834,306.327,1006.068,302.329,1006.068z M323.486,1006.068c-4.007,0-7.241-3.234-7.241-7.224
		c0-3.999,3.234-7.253,7.241-7.253c4.007,0,7.237,3.254,7.237,7.253C330.723,1002.834,327.493,1006.068,323.486,1006.068z"/>
	<path fill="#003750" d="M281.168,991.59c-3.999,0-7.232,3.254-7.232,7.253c0,3.99,3.234,7.224,7.232,7.224
		c3.995,0,7.24-3.234,7.24-7.224C288.408,994.845,285.163,991.59,281.168,991.59z"/>
	<path fill="#003750" d="M302.329,991.59c-4.011,0-7.241,3.254-7.241,7.253c0,3.99,3.23,7.224,7.241,7.224
		c3.998,0,7.228-3.234,7.228-7.224C309.557,994.845,306.327,991.59,302.329,991.59z"/>
	<path fill="#003750" d="M323.486,991.59c-4.007,0-7.241,3.254-7.241,7.253c0,3.99,3.234,7.224,7.241,7.224
		c4.007,0,7.237-3.234,7.237-7.224C330.723,994.845,327.493,991.59,323.486,991.59z"/>
	<polygon fill="#FFFFFF" points="538.868,706.548 562,711.885 562,695.925 	"/>
	<polygon fill="#FFFFFF" points="497.94,823.265 527.687,852.226 562,816.539 562,758.122 	"/>
	<rect x="564.128" y="479" fill="#003750" width="89.567" height="0"/>
	<rect x="564.128" y="479" opacity="0.16" fill="#211915" width="89.567" height="0"/>
	<path fill="#003750" d="M916.92,479c5.071,0,12.08,2.93,12.08,6.262v-0.293C929,481.637,921.992,479,916.92,479h-85.908h0H916.92z"
		/>
	<path opacity="0.16" fill="#211915" d="M916.92,479c5.071,0,12.08,2.93,12.08,6.262v-0.293C929,481.637,921.992,479,916.92,479
		h-85.908h0H916.92z"/>
	<rect x="749.213" y="431.598" fill="#003750" width="0" height="94.805"/>
	<rect x="749.213" y="431.598" opacity="0.16" fill="#211915" width="0" height="94.805"/>
	<rect x="813.813" y="461.802" fill="#8DC4EC" width="0" height="34.397"/>
	<rect x="813.813" y="461.802" opacity="0.16" fill="#211915" width="0" height="34.397"/>
	<path fill="#8DC4EC" d="M932.108,488.526c-0.651-0.963-1.393-1.858-2.21-2.678v0C930.715,486.669,931.457,487.563,932.108,488.526z
		"/>
	<path opacity="0.16" fill="#211915" d="M932.108,488.526c-0.651-0.963-1.393-1.858-2.21-2.678v0
		C930.715,486.669,931.457,487.563,932.108,488.526z"/>
	<rect x="677.753" y="454.942" fill="#8DC4EC" width="0" height="48.115"/>
	<rect x="677.753" y="454.942" opacity="0.16" fill="#211915" width="0" height="48.115"/>
	<path fill="#4981A9" d="M932.489,488.526c-0.651-0.963-1.584-2.582-2.401-3.403c-3.318-3.332-8.097-6.124-13.169-6.124h-85.908
		h-34.397H701.81h-48.115H562v42h353v436H562v13h373.129c0.022-6,0.871-3.35,0.871-3.718V712.515v-213.75
		C936,494.973,934.465,491.449,932.489,488.526z"/>
	<path opacity="0.16" fill="#211915" d="M932.489,488.526c-0.651-0.963-1.584-2.582-2.401-3.403
		c-3.318-3.332-8.097-6.124-13.169-6.124h-85.908h-34.397H701.81h-48.115H562v42h353v436H562v13h373.129
		c0.022-6,0.871-3.35,0.871-3.718V712.515v-213.75C936,494.973,934.465,491.449,932.489,488.526z"/>
	<polygon fill="#003750" points="712.728,627.194 657.182,809.245 631.078,746.609 562,816.539 562,957 915,957 915,521 562,521 
		562,695.925 	"/>
	<polygon opacity="0.16" fill="#211915" points="712.728,627.194 657.182,809.245 631.078,746.609 562,816.539 562,957 915,957 
		915,521 562,521 562,695.925 	"/>
	<polygon fill="#003750" points="562,711.885 562,758.122 599.56,720.551 	"/>
	<polygon opacity="0.16" fill="#211915" points="562,711.885 562,758.122 599.56,720.551 	"/>
	<path fill="#FFFFFF" d="M1019.303,977H562v49h439.092c1.266,0,2.501-1.882,3.694-2.125c4.773-0.975,8.661-4.68,11.293-8.577
		c1.975-2.923,2.92-7.325,2.92-11.122v-26.784l0,0v-0.035C1019,977.382,1019.286,977,1019.303,977z"/>
	<path opacity="0.16" fill="#211915" d="M1019.303,977H562v49h439.092c1.266,0,2.501-1.882,3.694-2.125
		c4.773-0.975,8.661-4.68,11.293-8.577c1.975-2.923,2.92-7.325,2.92-11.122v-26.784l0,0v-0.035
		C1019,977.382,1019.286,977,1019.303,977z"/>
	<path fill="#003750" d="M562,970v7h457.303c-0.018,0-0.303-0.726-0.303-0.751v1.021c0-4.713-8.54-7.27-14.743-7.27h-69.128
		c0.022-6,0.108-0.708,0.108-1.076c0,0.368-0.087-4.924-0.109,1.076H562z"/>
	<path opacity="0.16" fill="#211915" d="M562,970v7h457.303c-0.018,0-0.303-0.726-0.303-0.751v1.021c0-4.713-8.54-7.27-14.743-7.27
		h-69.128c0.022-6,0.108-0.708,0.108-1.076c0,0.368-0.087-4.924-0.109,1.076H562z"/>
	<polygon fill="#FFFFFF" points="657.714,809.245 712.728,627.194 562,695.925 562,711.885 599.56,720.551 562,758.122 562,816.539 
		631.343,746.609 	"/>
	<polygon opacity="0.16" fill="#211915" points="657.714,809.245 712.728,627.194 562,695.925 562,711.885 599.56,720.551 
		562,758.122 562,816.539 631.343,746.609 	"/>
</g>
</svg>
