<?xml version="1.0" encoding="utf-8"?>
<!-- Generator: Adobe Illustrator 19.1.0, SVG Export Plug-In . SVG Version: 6.00 Build 0)  -->
<svg version="1.1" id="Layer_1" xmlns="http://www.w3.org/2000/svg" xmlns:xlink="http://www.w3.org/1999/xlink" x="0px" y="0px"
	 viewBox="0 0 1200 1200" enable-background="new 0 0 1200 1200" xml:space="preserve">
<g>
	<path fill="#4ABCDE" d="M251.057,1015.128c61.731-16.07,50.226-47.994,44.34-75.085l-122.716,31.241
		C188.603,1019.752,197.172,1030.599,251.057,1015.128z"/>
	<path fill="#4ABCDE" d="M1008.294,50H176.99C98.02,50,50,114.11,50,165.307V976.49C50,1104.676,97.342,1150,214.763,1150h793.646
		c80.549,0,141.591-34.953,141.591-134.703V193.079C1150,114.11,1102.337,50,1008.294,50z M71,908.192V784.885l127.623-117.358
		c-2.42-18.157-3.169-36.645-3.169-55.463c0-229.827,186.622-417.189,416.449-417.189c29.844,0,59.241,8.125,87.305,8.125h77.554
		l0,0h91.886C974.057,203,1060,288.721,1060,394.163v8.962c0,36.869-10.711,71.284-28.824,100.476
		c-3.821,6.322-8.14,12.377-12.646,18.192c6.434,29.077,9.877,59.257,9.877,90.27c0,229.826-186.339,416.138-416.165,416.138
		c-103.268,0-197.689-37.7-270.432-99.977l-1.675,0.425c0.264,0.479,0.615,0.924,0.695,1.447
		c7.329,38.684,18.687,94.881-91.873,122.618c-105.046,26.337-120.897-45.401-122.841-69.889L71,996.541V908.192z"/>
	<path fill="#EEC900" d="M364.99,513.754c-1.831-2.571-15.862-23.994,12.879-39.943c22.126-14.058,38.191,5.453,44.83,16.064
		c2.214,3.513,3.373,6.072,3.373,6.072L522.4,677.048l-0.148,0.076l97.361,183.403c0,0,10.694,20.139-8.745,33.49
		c-19.462,13.444-37.484-24.798-37.484-24.798l-231.589,59.007c72.742,62.277,167.15,99.977,270.418,99.977
		c229.826,0,416.138-186.312,416.138-416.138c0-31.013-3.498-60.654-9.932-89.731C983.493,567.405,928.879,597,867.469,597H730.753
		L615.727,697.447l6.291-107.729C540.491,567.973,479,493.365,479,405.006v-8.96C479,290.602,567.257,203,672.739,203h26.47
		c-28.064,0-57.151-8.125-86.995-8.125c-229.827,0-416.138,186.837-416.138,416.663c0,18.818,1.37,37.57,3.79,55.726
		l165.316-153.382C365.181,513.882,365.11,513.922,364.99,513.754z"/>
	<path fill="#003750" d="M248.955,1052.715c110.561-27.737,99.201-83.933,91.871-122.618c-0.081-0.523-0.435-0.968-0.699-1.447
		l1.668-0.425l231.589-59.007c0,0,18.021,38.242,37.484,24.798c19.439-13.351,8.745-33.49,8.745-33.49L521.01,677.124L71,908.192
		v88.349l55.115-13.715C128.059,1007.314,143.909,1079.051,248.955,1052.715z M295.397,940.043
		c5.887,27.091,17.391,59.015-44.34,75.085c-53.885,15.471-62.454,4.624-78.376-43.844L295.397,940.043z"/>
	<path fill="#003750" d="M377.869,473.81c22.806-12.657,38.367,5.81,44.83,16.064C416.061,479.264,399.995,459.753,377.869,473.81z"
		/>
	<path fill="#003750" d="M364.99,513.754c0.12,0.168,0.19,0.26,0.19,0.26S365.11,513.922,364.99,513.754z"/>
	<path fill="#F02447" d="M479,396.045v8.96c0,88.359,61.491,162.698,143.018,184.443l-6.99,107.998L730.753,597h136.716
		c61.41,0,116.024-29.595,150.949-74.667c4.506-5.815,8.713-10.661,12.535-16.983C997.281,559.618,937.188,597,868.648,597H777
		V448.236c-21-2.162-40.773-21.423-40.773-44.818c0-23.411,19.773-42.64,40.773-44.799V203h-77.792h-26.47
		C567.257,203,479,290.602,479,396.045z M699.405,403.418c0,24.839-20.129,45.034-45.014,45.034
		c-24.849,0-45.015-20.196-45.015-45.034c0-24.857,20.167-45.015,45.015-45.015C679.276,358.402,699.405,378.561,699.405,403.418z"
		/>
	<path fill="#FFFFFF" d="M736.227,403.418c0,23.395,19.773,42.655,40.773,44.818v-89.617
		C756,360.778,736.227,380.007,736.227,403.418z"/>
	<path fill="#FFFFFF" d="M609.376,403.418c0,24.839,20.167,45.034,45.015,45.034c24.885,0,45.014-20.196,45.014-45.034
		c0-24.857-20.129-45.015-45.014-45.015C629.543,358.402,609.376,378.561,609.376,403.418z"/>
	<path fill="#001E31" d="M521.01,677.124l0.769-0.076l-96.017-181.102c0,0-1.004-2.559-3.218-6.072
		c-6.463-10.254-21.946-28.721-44.753-16.064c-28.741,15.949-14.671,37.373-12.84,39.943c0.12,0.168,0.21,0.26,0.21,0.26
		L198.613,667.527L71,784.885v123.307L521.01,677.124z"/>
	<path fill="#4ABCDE" d="M1060,396.045v8.96c0,36.075-10.613,69.812-28.012,98.595c18.114-29.193,28.012-63.607,28.012-100.476
		v-8.962C1060,288.721,974.057,203,868.648,203h-91.886l0,0h90.707C972.876,203,1060,290.602,1060,396.045z"/>
	<path opacity="0.2" fill="#211915" d="M1060,396.045v8.96c0,36.075-10.613,69.812-28.012,98.595
		c18.114-29.193,28.012-63.607,28.012-100.476v-8.962C1060,288.721,974.057,203,868.648,203h-91.886l0,0h90.707
		C972.876,203,1060,290.602,1060,396.045z"/>
	<path fill="#F02447" d="M777,358.619c0-0.133,2.104-0.217,3.549-0.217c24.884,0,44.648,20.159,44.648,45.015
		c0,24.839-19.581,45.034-44.465,45.034c-1.445,0-3.732-0.083-3.732-0.217V597h91.648c68.539,0,129.445-37.652,163.117-91.919
		c17.399-28.783,28.234-64,28.234-100.075v-8.96C1060,290.602,972.876,203,867.469,203H777V358.619z M903.015,448.452
		c-24.849,0-45.016-20.196-45.016-45.034c0-24.857,20.167-45.015,45.016-45.015c24.884,0,45.015,20.159,45.015,45.015
		C948.029,428.257,927.899,448.452,903.015,448.452z"/>
	<path opacity="0.2" fill="#211915" d="M777,358.619c0-0.133,2.104-0.217,3.549-0.217c24.884,0,44.648,20.159,44.648,45.015
		c0,24.839-19.581,45.034-44.465,45.034c-1.445,0-3.732-0.083-3.732-0.217V597h91.648c68.539,0,129.445-37.652,163.117-91.919
		c17.399-28.783,28.234-64,28.234-100.075v-8.96C1060,290.602,972.876,203,867.469,203H777V358.619z M903.015,448.452
		c-24.849,0-45.016-20.196-45.016-45.034c0-24.857,20.167-45.015,45.016-45.015c24.884,0,45.015,20.159,45.015,45.015
		C948.029,428.257,927.899,448.452,903.015,448.452z"/>
	<path fill="#FFFFFF" d="M903.015,358.402c-24.849,0-45.016,20.159-45.016,45.015c0,24.839,20.167,45.034,45.016,45.034
		c24.884,0,45.015-20.196,45.015-45.034C948.029,378.561,927.899,358.402,903.015,358.402z"/>
	<path opacity="0.2" fill="#211915" d="M903.015,358.402c-24.849,0-45.016,20.159-45.016,45.015
		c0,24.839,20.167,45.034,45.016,45.034c24.884,0,45.015-20.196,45.015-45.034C948.029,378.561,927.899,358.402,903.015,358.402z"/>
	<path fill="#FFFFFF" d="M824.831,403.418c0-24.857-19.398-45.015-44.282-45.015c-1.445,0-3.549,0.083-3.549,0.217v89.617
		c0,0.133,2.104,0.217,3.549,0.217C805.433,448.452,824.831,428.257,824.831,403.418z"/>
	<path opacity="0.2" fill="#211915" d="M824.831,403.418c0-24.857-19.398-45.015-44.282-45.015c-1.445,0-3.549,0.083-3.549,0.217
		v89.617c0,0.133,2.104,0.217,3.549,0.217C805.433,448.452,824.831,428.257,824.831,403.418z"/>
</g>
</svg>
