<?xml version="1.0" encoding="utf-8"?>
<!-- Generator: Adobe Illustrator 19.1.0, SVG Export Plug-In . SVG Version: 6.00 Build 0)  -->
<svg version="1.1" id="Layer_1" xmlns="http://www.w3.org/2000/svg" xmlns:xlink="http://www.w3.org/1999/xlink" x="0px" y="0px"
	 viewBox="0 0 1200 1200" enable-background="new 0 0 1200 1200" xml:space="preserve">
<g>
	<path fill="#D00F2E" d="M1150,1018.402V196.184C1150,117.215,1098.037,50,1003.994,50H172.69C93.72,50,50,117.215,50,168.412
		v811.182C50,1107.781,93.042,1150,210.463,1150h793.646C1084.657,1150,1150,1118.153,1150,1018.402z M1131.18,171.418l-0.07,45.078
		L1130.972,306H984v-9.73c-35,0-27.64,7.408-27.64,7.408c-14.691,13.104-31.987,21.497-48.739,26.809
		c63.278,73.217,101.404,168.565,101.404,272.929c0,106.903-40.329,204.383-106.383,278.266
		c18.26,5.188,37.734,13.888,53.777,28.195c0,0-7.42,7.411,27.58,7.411V894h146.077l-0.147,97.656l-0.049,31.24
		c0,21.642-5.53,44.104-15.428,58.104H984v-14H773.043c0,0-104.089-5.703-132.39-49.645c-16.274,1.927-32.8,3.17-49.591,3.17
		c-54.626,0-106.748-8.525-154.573-29.525h-45.82C351.024,991,348,947.663,348,947.663v-5.424
		c-104-75.867-174.102-199.316-174.102-338.823c0-139.599,68.266-262.481,173.467-338.336c2.269-41.61,45.529-42.08,45.529-42.08
		s10.641,0,28.469,0c51.868-27,109.256-36.674,169.698-36.674c18.38,0,36.442,1.974,54.194,4.275
		C678.785,152.181,773.043,147,773.043,147H984v-27h131.036C1125.123,133,1131.18,152.575,1131.18,171.418z"/>
	<path fill="#D00F2E" d="M785.543,991h-1.714C784.186,991,784.76,991,785.543,991z"/>
	<path fill="#A4CBC7" d="M645.256,189.942c-17.753-2.302-35.815-3.298-54.194-3.298c-60.442,0-117.83,9.356-169.698,36.356
		c44.144,0,132.36,0,212.311,0C632.952,209,637.459,198.875,645.256,189.942z"/>
	<path fill="#A4CBC7" d="M228.483,603.416C228.483,496.535,271,400.43,348,333.885v-66.146c0-1.168-0.412-2.186-0.352-3.296
		c-105.201,75.854-173.467,199.374-173.467,338.973C174.181,742.923,244,866.372,348,942.239v-69.29
		C271,806.404,228.483,710.297,228.483,603.416z"/>
	<path fill="#A4CBC7" d="M840.357,338.723c70.395,66.326,116.002,160.343,116.002,264.693C956.359,710.024,908,805.915,839,872.441
		v2.628c14-0.996,39.672-0.615,65.112,6.613c66.054-73.883,105.468-171.363,105.468-278.266
		c0-104.364-38.763-199.711-102.041-272.929C882.758,338.345,857.749,339.417,840.357,338.723z"/>
	<path fill="#A4CBC7" d="M436.488,991c47.825,21,99.947,29.905,154.573,29.905c16.792,0,33.317-1.225,49.591-3.152
		c-4.949-7.684-7.631-12.752-6.979-26.752H436.488z"/>
	<path fill="#64AFC6" d="M228.483,603.416C228.483,710.297,271,806.404,348,872.949V758.274
		c-28-44.781-45.009-97.871-45.009-154.858c0-56.985,17.009-110.074,45.009-154.855V333.885
		C271,400.43,228.483,496.535,228.483,603.416z"/>
	<path fill="#64AFC6" d="M880.259,603.416c0,56.725-16.396,109.592-44.615,154.243l0.173,114.781
		c73.077-66.526,118.95-162.417,118.95-269.025c0-104.35-44.015-198.367-114.41-264.693c-1.872-0.075-3.65-0.169-5.345-0.278
		l0.166,110.004C863.68,493.252,880.259,546.384,880.259,603.416z"/>
	<path fill="#008EB2" d="M348,758.274V448.561c-28,44.78-45.009,97.87-45.009,154.855C302.991,660.402,320,713.493,348,758.274z"/>
	<path fill="#008EB2" d="M835.177,448.448l0.466,309.211c28.219-44.651,44.615-97.518,44.615-154.243
		C880.259,546.384,863.68,493.252,835.177,448.448z"/>
	<path fill="#3A393B" d="M631.173,991h152.249c0,0,0.167,0,0.407,0h1.714c5.552,0,20.113-6.373,20.113-49.564
		c0,0-81.186,1.564-109.367-12.436H368V423.932l0,0V279h-0.567h353.011c35.158-7,85.211-5.932,85.211-5.932
		c0-53.382-22.234-50.068-22.234-50.068H633.674c-0.009,0,0.008,0,0,0c-79.951,0-168.166,0-212.311,0c-17.828,0-28.469,0-28.469,0
		s-42.977,0.471-45.246,42.08c-0.06,1.11,0.352,1.49,0.352,2.659v66.146v114.676v309.712v114.675v69.29v5.424
		c0,0,3.024,43.337,42.668,43.337h45.82H631.173L631.173,991z M601.198,970h-11.063c-3.036,0-7.135-3.414-7.135-4.801v-11.126
		c0-2.414,4.543-3.231,4.68-3.252l11.101-0.038c3.034,0,4.219,2.69,4.219,4.13v10.161C603,968.316,602.393,970,601.198,970z"/>
	<path fill="#3A393B" d="M602.955,966.2l0.027-11.775c-0.027-0.102-0.22-4.424-2.71-4.424h-10.74c-0.373,0,0.469,2.914,0.469,4.073
		v11.09c0,0.264-2.244,4.837,0.135,4.837h11.063C601.619,970,602.955,968.692,602.955,966.2z"/>
	<path fill="#3A393B" d="M818,424.793v452.645c0-0.06,0.724-0.112,0.911-0.174c0,0,6.089-1.462,20.089-2.195v-2.628l-1.765-114.781
		l-1.262-309.211l-0.564-110.004c-11.659-0.748-17.89-2.145-17.89-2.145c-0.186-0.062,0.48-0.114,0.48-0.174V424.793z"/>
	<path fill="#AFAFAF" d="M603,965.074v-10.161c0-1.44-0.395-4.13-3.428-4.13l-12.242,0.038c-0.137,0.021-4.33,0.837-4.33,3.252
		v11.126c0,1.387,4.098,4.801,7.135,4.801h11.063C602.393,970,603,968.316,603,965.074z M601.198,970h-11.063
		c-2.379,0-0.135-4.573-0.135-4.837v-11.09c0-1.16-0.842-4.073-0.469-4.073h10.74c2.49,0,2.683,3.76,2.71,3.861l-0.027,11.785
		C602.955,968.139,601.619,970,601.198,970z"/>
	<path fill="#FEFAC8" d="M613.097,708h-10.368c-1.527,6-5.639,13-11.287,13h32.964C618.748,721,614.627,714,613.097,708z"/>
	<path fill="#FEFAC8" d="M618.583,680h-21.33c3.152,7,5.206,14,5.829,14h9.661C613.367,694,615.425,687,618.583,680z"/>
	<path fill="#FEFAC8" d="M818,424H368v505h328.289c-3.443,0-6.142-1.787-7.756-4.046c0,0-10.542-9.954-11.52-23.954H389v-14h288.976
		c1.351,0,5.359-8.117,10.342-12.478c0,0,94.682,12.967,129.682,2.916V424z M389,459h401v6H389V459z M389,652h155.524l-1.352-4.763
		L536.375,631H389V528h94.598c-0.626,0-0.953-4.349-0.795-6.177c-3.288-4.284-6.093-6.764-7.621-8.841
		c-0.057-0.077-0.11,1.018-0.166,1.018h-26.34c-1.794,0-3.701,1.255-5.768,1.255c-2.155,0-4.206-1.255-6.072-1.255H389v-14h39.326
		c-0.52,0-0.868-3.111-0.868-4.834c0-3.475,1.186-2.166,3.116-9.166H389v-7h401v7H475.95l12.082,14H790v14H496.011l2.752,1.552
		c1.147,0.064,2.319-1.552,3.416-1.552h217.433c19.475,0,28.925,0,19.712,14H790v103H667.366l2.33,1.95l1.912,1.542l1.274,1.537
		l0.74,1.495l0.433,1.512l0.255,1.807l-0.102,3.274c0,2.222-1.247,0.883-3.944,7.883H790v7H389V652z M389,721h169.934
		c-5.654,0-9.773-7-11.303-13H389v-14h158.276c0.624,0,2.682-7,5.839-14H389v-7h177.57c2.734,0,5.594-1.482,8.622-1.482
		s5.887,1.482,8.62,1.482h48.239c2.737,0,5.601-1.482,8.633-1.482c3.023,0,5.88,1.482,8.611,1.482H790v7H662.738
		c3.155,7,5.212,14,5.836,14H790v14H668.221c-1.53,6-5.648,13-11.297,13H790v7H389V721z M389,749h401v7H389V749z M389,778.673V770
		h401v8.673l2.707-1.673H389.981L389,778.673z M389,791h401v13H389V791z M790,874H389v-7h401V874z M790,853H389v-7h401V853z
		 M790,825H389v-7h401V825z"/>
	<path fill="#EFDCB8" d="M367.433,279H368v145h-0.567H818v-87.875c-14-2.593-21-3.739-35-4.01V403H382v-86.104V306h7.666
		c4.483-7,12.128-14,20.82-14h275.671c1.387,0,2.376-1.517,2.376-1.517c4.454-6.235,16.819-11.483,31.912-11.483H367.433z"/>
	<path fill="#FEFAC8" d="M755.245,341H410.486C396.675,341,382,330.712,382,316.896V403h401v-70.885
		c-7-0.036-4.915-0.511-6.839-0.518C771.589,337.552,763.334,341,755.245,341z"/>
	<path fill="#FEFAC8" d="M385,303v13.896c0-5.118,2.026-9.896,4.666-13.896H385z"/>
	<path fill="#FFFFFF" d="M389.666,303.119c-2.64,3.963-4.191,8.232-4.191,13.35c0,13.817,11.201,24.531,25.011,24.531h344.759
		c8.09,0,15.204-3.448,19.776-9.402c-39.562-0.134-87.977,6.005-87.977,6.005c-19.05-16.664-6.55-38.603-0.888-45.603H410.486
		C401.794,292,394.149,296.389,389.666,303.119z M420.945,297.833c7.56,0,13.715,6.155,13.715,13.722
		c0,7.56-6.155,13.715-13.715,13.715c-0.871,0-1.718-0.101-2.545-0.257l-4.705,9.094c-0.608,1.175-1.803,1.85-3.04,1.85
		c-0.534,0-1.067-0.121-1.575-0.385c-1.676-0.872-2.338-2.932-1.466-4.614l4.609-8.909c-3.025-2.518-4.995-6.262-4.995-10.495
		C407.229,303.988,413.385,297.833,420.945,297.833z"/>
	<path fill="#FFFFFF" d="M420.945,304.684c-3.783,0-6.864,3.081-6.864,6.871c0,2.806,1.703,5.212,4.122,6.275
		c0.017,0.008,0.036,0.007,0.052,0.015c0.019,0.01,0.03,0.028,0.049,0.04c0.814,0.34,1.704,0.535,2.64,0.535
		c3.783,0,6.864-3.081,6.864-6.864C427.809,307.764,424.728,304.684,420.945,304.684z"/>
	<path fill="#008EB2" d="M407.229,311.555c0,4.233,1.97,7.977,4.995,10.495l-4.609,8.909c-0.872,1.683-0.21,3.743,1.466,4.614
		c0.507,0.264,1.04,0.385,1.575,0.385c1.236,0,2.432-0.675,3.04-1.85l4.705-9.094c0.827,0.155,1.673,0.257,2.545,0.257
		c7.56,0,13.715-6.155,13.715-13.715c0-7.566-6.155-13.722-13.715-13.722C413.385,297.833,407.229,303.988,407.229,311.555z
		 M420.945,318.419c-0.936,0-1.826-0.194-2.64-0.535c-0.019-0.011-0.03-0.03-0.049-0.04c-0.016-0.008-0.035-0.007-0.052-0.015
		c-2.42-1.062-4.122-3.469-4.122-6.275c0-3.791,3.081-6.871,6.864-6.871c3.783,0,6.864,3.081,6.864,6.871
		C427.809,315.338,424.728,318.419,420.945,318.419z"/>
	<rect x="389" y="459" fill="#EFDCB8" width="401" height="6"/>
	<path fill="#EFDCB8" d="M442.907,481.232c2.116,0,4.129,1.163,5.965,1.942c3.519,0.115,9.05,0.549,14.251,0.244
		c8.388-0.535,11.523,2.358,11.523,2.358L475.95,486H790v-7H389v7h41.574C433.395,486,437.852,481.232,442.907,481.232z"/>
	<path fill="#EFDCB8" d="M428.326,500H389v14h47.835C432.816,514,429.732,507,428.326,500z"/>
	<path fill="#EFDCB8" d="M464.195,507h-8.133c-1.718,0-4.334,7-7.386,7h26.34C469.322,507,464.195,507,464.195,507z"/>
	<polygon fill="#EFDCB8" points="790,514 790,500 488.032,500 496.011,514 	"/>
	<path fill="#EFDCB8" d="M790,652H670.264c-3.553,0-9.696,0-19.535,0h-95.524l-4.001,0.163l-3.774-1.079l-2.498-0.177L544.524,652
		H389v7h401V652z"/>
	<path fill="#EFDCB8" d="M662.738,680H790v-7H649.295C654.673,673,659.309,680,662.738,680z"/>
	<path fill="#EFDCB8" d="M566.57,673H389v7h164.115C556.546,680,561.185,673,566.57,673z"/>
	<path fill="#EFDCB8" d="M597.254,680h21.33c3.433,0,8.076-7,13.467-7h-48.239C589.194,673,593.828,680,597.254,680z"/>
	<path fill="#EFDCB8" d="M612.412,699.12c0-1.127,0.203-2.12,0.331-3.12h-9.661c0.128,1,0.331,1.993,0.331,3.12
		c0,2.081-0.257,3.88-0.684,5.88h10.368C612.669,703,612.412,701.201,612.412,699.12z"/>
	<path fill="#EFDCB8" d="M547.276,694H389v14h158.63c-0.427-7-0.685-6.299-0.685-8.38C546.945,698.493,547.148,694,547.276,694z"/>
	<path fill="#EFDCB8" d="M668.221,708H790v-14H668.574c0.128,0,0.331,4.493,0.331,5.62C668.906,701.701,668.648,701,668.221,708z"/>
	<path fill="#EFDCB8" d="M790,721H656.924c-4.6,7-10.182,5.207-16.24,5.207c-6.077,0-11.671,1.793-16.278-5.207h-32.964
		c-4.598,7-10.182,5.207-16.25,5.207c-6.067,0-11.655,1.793-16.259-5.207H389v7h401V721z"/>
	<rect x="389" y="749" fill="#EFDCB8" width="401" height="7"/>
	<polygon fill="#EFDCB8" points="790,778.673 790,770 389,770 389,778.673 389.981,777 792.707,777 	"/>
	<rect x="389" y="791" fill="#EFDCB8" width="401" height="13"/>
	<rect x="389" y="818" fill="#EFDCB8" width="401" height="7"/>
	<rect x="389" y="846" fill="#EFDCB8" width="401" height="7"/>
	<rect x="389" y="867" fill="#EFDCB8" width="401" height="7"/>
	<path fill="#EFDCB8" d="M389,887v14h288.012c-0.213-7,0.055-7,0.964-14H389z"/>
	<path fill="#EFDCB8" d="M483.598,528H389v103h147.375l-52.27-101.339C483.857,528.777,483.775,528,483.598,528z"/>
	<path fill="#EFDCB8" d="M696.591,604.449l-0.764,1.173l-0.943,1.516l-0.765,1.02l-1.301,0.906l-2.039,0.905l-2.065,0.37
		l-1.809,0.343L685.094,611H563.515c-3.288,0-14.352,0.269-14.352,3.544l6.807,12.664c2.626,6.31,7.546,3.792,7.546,3.792h102.178
		h1.673H790V528h-50.676c-0.495,0-1.008,2.385-1.612,3.217L696.591,604.449z"/>
	<path fill="#64AFC6" d="M984,1068.519V1081h130.453c9.898-14,15.428-36.79,15.428-58.432L1129.93,991H984V1068.519z"/>
	<polygon fill="#64AFC6" points="1129.93,991 1130.077,894 984,894 984,917.289 984,991 	"/>
	<polygon opacity="0.1" fill="#6C3D00" points="1129.93,991 1130.077,894 984,894 984,917.289 984,991 	"/>
	<polygon fill="#64AFC6" points="984,296.27 984,306 1130.972,306 1131.11,216 984,216 	"/>
	<path fill="#64AFC6" d="M984,145.045V216h147.11l0.07-45.818c0-18.843-6.057-37.182-16.144-50.182H984V145.045z"/>
	<path opacity="0.1" fill="#6C3D00" d="M984,145.045V216h147.11l0.07-45.818c0-18.843-6.057-37.182-16.144-50.182H984V145.045z"/>
	<path fill="#EACBB1" d="M984,147H773.043c0,0-94.258,4.863-127.787,43.282c-7.797,8.933-12.303,19.568-11.582,32.362
		c0.008,0.142-0.01,0.356,0,0.356h149.748c0,0,22.234-4.882,22.234,48.5c0,0-50.053-1.658-85.211,4.579
		c-15.093,2.678-27.458,6.654-31.912,12.889c0,0-0.989,1.067-2.376,2.976c-5.662,7.797-18.162,29.193,0.888,45.858
		c0,0,48.415-5.871,87.977-5.738c1.924,0.006,3.824,0.021,5.699,0.057c14.054,0.272,26.546,1.414,34.732,4.007
		c0.191,0.06,0.409,0.11,0.595,0.172c0,0,7.305,1.396,18.965,2.144c1.695,0.109,3.473,0.203,5.345,0.278
		c17.392,0.695,42.004-0.378,66.786-8.236c16.752-5.312,34.526-13.706,49.217-26.81c0,0-7.36-7.408,27.64-7.408v-77.798V147z
		 M776.743,220.18l-93.533,0.586c0,0,107.662-33.545,132.959,3.535c0,0,17.641,27.058-8.246,49.998
		C807.923,274.299,817.926,221.349,776.743,220.18z"/>
	<path fill="#E1B38B" d="M807.923,274.299c25.887-22.939,8.246-49.998,8.246-49.998c-25.297-37.08-132.959-3.535-132.959-3.535
		l93.533-0.586C817.926,221.349,807.923,274.299,807.923,274.299z"/>
	<path fill="#EACBB1" d="M835.821,875.069c-12.131,0.733-19.774,2.195-19.774,2.195c-0.186,0.062-0.404,0.114-0.595,0.174
		c-31.741,10.051-128.408-1.659-128.408-1.659c-4.983,4.361-7.717,9.049-9.068,13.735c-0.909,3.15-1.177,6.286-0.964,9.333
		c0.978,13.995,11.52,25.862,11.52,25.862c1.614,2.259,4.314,4.222,7.756,5.953c28.181,14.174,109.367,11.846,109.367,11.846
		c0,43.191-14.561,48.513-20.113,48.975c-0.783,0.065-1.356-0.182-1.714-0.218c-0.24-0.024-0.407-0.265-0.407-0.265H631
		c0,0,0,0.466,0,0.483c0,10.143,3.367,18.188,8.316,25.872C667.617,1061.297,773.043,1067,773.043,1067H984v-74.074v-75.637
		c-35,0-27.64-7.411-27.64-7.411c-16.044-14.307-35.099-23.007-53.359-28.195C877.561,874.453,852.296,874.073,835.821,875.069z
		 M683.21,992.794l93.533,0.603c41.183-1.186,31.18-54.135,31.18-54.135c25.887,22.933,8.246,50.006,8.246,50.006
		C790.872,1026.331,683.21,992.794,683.21,992.794z"/>
	<path fill="#E1B38B" d="M807.923,939.263c0,0,10.003,52.95-31.18,54.135l-93.533-0.603c0,0,107.662,33.536,132.959-3.526
		C816.169,989.268,833.81,962.196,807.923,939.263z"/>
	<path fill="#D00F2E" d="M547.429,651.523l3.774,0.64l4.001-0.163h95.524c9.839,0,15.982-1.158,19.535-3.703
		c2.698-1.932,3.944-3.785,3.944-6.007l0.102-1.617l-0.255-1.649l-0.433-1.36l-0.74-1.273l-1.274-1.134l-1.912-0.757l-2.33-1.805
		L665.694,631H563.515c0,0-4.919,2.448-7.546-3.862l-6.807-13.301c0-3.275,11.064-2.837,14.352-2.837h121.578l1.811-0.318
		l1.809-0.273l2.065-0.404l2.039-0.922l1.301-0.914l0.765-1.024l0.943-1.518l0.764-1.175l41.121-72.363
		c0.605-0.832,1.117-2.482,1.612-3.233c9.214-13.982-0.237-14.853-19.712-14.853H502.179c-1.097,0-2.268,0.834-3.416,0.771
		l-2.752-2.776l-7.979-9.111l-12.082-14.021l-1.304-1.47c0,0-3.135-4.166-11.523-3.631c-5.201,0.305-10.732,0.257-14.251,0.142
		c-1.836-0.778-3.849-1.191-5.965-1.191c-5.055,0-9.513,2.482-12.334,6.258c-1.93,2.584-3.116,5.759-3.116,9.234
		c0,1.722,0.348,3.351,0.868,4.9c1.406,4.187,4.491,7.603,8.51,9.333c1.866,0.804,3.917,1.255,6.072,1.255
		c2.067,0,3.974-0.182,5.768-0.918c3.052-1.252,5.668-5.774,7.386-5.774h8.133c0,0,5.127-1.832,10.821,5.774
		c0.056,0.075,0.11-0.047,0.166,0.03c1.528,2.077,4.334,5.689,7.621,9.973c-0.159,1.828,0.169,4.205,0.795,7.004
		c0.177,0.793,0.259,1.443,0.507,2.327l52.27,102.016l6.797,13.262l1.352,1.791l0.407,0.538L547.429,651.523z"/>
	<path fill="#D00F2E" d="M618.583,681.967c-3.158,3.99-5.216,8.815-5.84,14.132c-0.128,1.092-0.331,2.161-0.331,3.288
		c0,2.081,0.258,4.095,0.685,6.048c1.53,6.987,5.651,12.982,11.309,16.979c4.607,3.254,10.2,5.207,16.278,5.207
		c6.058,0,11.64-1.953,16.24-5.207c5.649-3.997,9.767-9.992,11.297-16.979c0.427-1.953,0.685-3.967,0.685-6.048
		c0-1.127-0.203-2.196-0.331-3.288c-0.624-5.317-2.681-10.142-5.836-14.132c-3.429-4.337-8.065-7.598-13.444-9.333
		c-2.731-0.881-5.588-1.482-8.611-1.482c-3.032,0-5.896,0.601-8.633,1.482C626.659,674.369,622.016,677.63,618.583,681.967z"/>
	<path fill="#D00F2E" d="M591.442,722.414c5.648-3.997,9.76-9.992,11.287-16.979c0.427-1.953,0.684-3.967,0.684-6.048
		c0-1.127-0.203-2.196-0.331-3.288c-0.623-5.317-2.677-10.142-5.829-14.132c-3.426-4.337-8.06-7.598-13.442-9.333
		c-2.732-0.881-5.592-1.482-8.62-1.482s-5.888,0.601-8.622,1.482c-5.385,1.735-10.024,4.995-13.455,9.333
		c-3.156,3.99-5.214,8.815-5.839,14.132c-0.128,1.092-0.331,2.161-0.331,3.288c0,2.081,0.258,4.095,0.685,6.048
		c1.53,6.987,5.65,12.982,11.303,16.979c4.603,3.254,10.191,5.207,16.259,5.207C581.26,727.621,586.844,725.669,591.442,722.414z"/>
</g>
</svg>
