<?xml version="1.0" encoding="utf-8"?>
<!-- Generator: Adobe Illustrator 19.1.0, SVG Export Plug-In . SVG Version: 6.00 Build 0)  -->
<svg version="1.1" id="Layer_1" xmlns="http://www.w3.org/2000/svg" xmlns:xlink="http://www.w3.org/1999/xlink" x="0px" y="0px"
	 viewBox="0 0 1200 1200" enable-background="new 0 0 1200 1200" xml:space="preserve">
<g>
	<path fill="#4ABCDE" d="M1006.311,1149.996H211.475C93.878,1149.996,50,1106.764,50,978.385V165.986
		c0-51.274,44.557-115.983,123.645-115.983h832.551c94.184,0,143.797,64.709,143.797,143.797v823.45
		C1150.771,1117.151,1086.98,1149.996,1006.311,1149.996z"/>
	<g opacity="0.49">
		<path fill="none" d="M1025.615,862.558c-2.928,6.323-8.609,13.976-17.869,16.677c-2.38,0.705-4.926,1.765-7.803,1.765
			c-0.022,0-0.041,0-0.063,0c-0.019,0-0.035,0-0.055,0c-1.629,0-3.184-1.203-4.666-1.429c-13.526-2.054-20.917-12.571-24-19.571
			h-17.054c-0.11,0-0.204,0.455-0.313,0.449c-0.14-0.013-0.284,0.243-0.422,0.221c-0.117-0.018-0.214,0.042-0.329,0.019
			c-2.874-0.483-5.174-2.706-5.511-5.693c-0.302-2.671-0.618-7.996-0.941-7.996h0.152l-2.24-21h-0.076c-0.838-7-0.676-7-1.493-14
			c0.022,0,0.041,0,0.063,0h0.096l-2.291-23.04c-0.087-0.026-0.183,0.676-0.269,0.649L939.33,777c0.029,0,0.08,0,0.111,0
			l-2.453-26.238L934.235,736h0.065c-6.522-14-24.3-36.646-31.3-50.516v268.753c21-22.425,56-35.01,90-36.083v-0.164
			c7-1.081,21.749,0.647,27.529,1.489c0.702,0.098,0.67,0.136,1.369,0.244c7.097,1.094,13.102,2.823,20.102,4.883v-63.494
			l-16.957-0.015C1024.873,861.522,1025.883,862.06,1025.615,862.558z"/>
		<path fill="none" d="M1025.615,370.627c-2.928,6.323-8.609,13.942-17.869,16.642c-2.38,0.705-4.926,1.731-7.803,1.731
			c-0.022,0-0.041,0-0.063,0c-0.019,0-0.035,0-0.055,0c-1.629,0-3.184-1.203-4.666-1.429c-13.526-2.054-20.917-12.571-24-19.571
			h-17.054c-0.11,0-0.204,0.489-0.313,0.483c-0.14-0.013-0.284,0.26-0.422,0.239c-0.117-0.018-0.214,0.051-0.329,0.027
			c-2.874-0.483-5.174-2.736-5.511-5.723c-0.302-2.671-0.618-8.026-0.941-8.026h0.152l-2.24-21h-0.076c-0.838-7-0.676-7-1.493-14
			c0.022,0,0.041,0,0.063,0h0.096l-2.291-23.006c-0.087-0.026-0.183,0.659-0.269,0.632L939.33,285c0.029,0,0.08,0,0.111,0
			l-2.453-26.238L934.235,244h0.065c-6.522-14-24.3-36.577-31.3-50.448v254.895c21-22.425,56-35.01,90-36.083V412.2
			c7-1.081,21.749,0.647,27.529,1.489c0.702,0.098,0.67,0.136,1.369,0.244c7.097,1.094,13.102,2.823,20.102,4.884V369.18
			l-16.957-0.015C1024.873,369.591,1025.883,370.129,1025.615,370.627z"/>
		<path fill="none" d="M222.402,413.689c0.702,0.098,0.258,0.136,0.956,0.244C246.805,417.547,266,426.662,287,440.18V207.292
			c-7,11.449-16.736,24.846-21.712,37.909c-0.35,0.961-0.342,1.16-0.648,2.115c-0.903,3.976-1.673,10.684-1.803,10.684h-0.092
			l-2.675,27h0.22c-0.474,0-0.754,3.881-1.025,6.262l-1.672,14.393l-5.928,55.293l-0.066,0.834c0,0.188-0.08,0.304-0.093,0.49
			l-0.082,0.736c-0.015,0.131-0.09,0.223-0.111,0.352c-0.123,0.596-0.274,1.146-0.518,1.69c-0.138,0.308-0.304,0.578-0.483,0.86
			c-0.314,0.516-0.656,0.97-1.077,1.383c-0.098,0.091-0.205,0.162-0.307,0.248c-0.547,0.476-1.134,0.858-1.815,1.116
			c-0.227,0.092-0.481-0.465-0.719-0.397c-0.435,0.104-0.826-0.26-1.299-0.26h-0.352c-0.082,0-0.152,0.612-0.234,0.612l-18.38,0.269
			c-0.17,0.426-0.499,1.107-0.768,1.604c-2.928,6.323-8.609,14.013-17.869,16.713c-2.38,0.705-4.926,1.802-7.803,1.802
			c-0.022,0-0.041,0-0.063,0c-0.019,0-0.035,0-0.055,0c-1.629,0-3.184-1.203-4.666-1.429c-13.526-2.054-20.917-12.571-24-19.571
			H153.85c-0.11,0-0.204,0.489-0.313,0.483c-0.14-0.013-0.284,0.26-0.422,0.239c-0.117-0.018-0.214,0.051-0.329,0.027
			c-2.874-0.483-5.174-2.736-5.511-5.723c-0.302-2.671-0.618-8.026-0.941-8.026h0.152L148,337.479v84.963
			c14-6.124,28-9.539,49-10.077V412.2C204,411.119,216.622,412.847,222.402,413.689z"/>
		<path fill="none" d="M265.288,737.132c-0.35,0.961-0.342,1.194-0.648,2.149c-0.903,3.976-1.673,10.719-1.803,10.719h-0.092
			l-2.675,27h0.22c-0.474,0-0.754,3.847-1.025,6.227l-1.672,14.376l-5.928,55.284l-0.066,0.83c0,0.188-0.08,0.302-0.093,0.488
			l-0.082,0.735c-0.015,0.131-0.09,0.223-0.111,0.351c-0.123,0.596-0.274,1.146-0.518,1.69c-0.138,0.308-0.304,0.578-0.483,0.86
			c-0.314,0.516-0.656,0.97-1.077,1.383c-0.098,0.091-0.205,0.162-0.307,0.248c-0.547,0.476-1.134,0.858-1.815,1.116
			c-0.227,0.092-0.481-0.431-0.719-0.363c-0.435,0.104-0.826-0.226-1.299-0.226h-0.352c-0.082,0-0.152,0.577-0.234,0.577
			l-18.38,0.252c-0.17,0.426-0.499,1.098-0.768,1.596c-2.928,6.323-8.609,14.043-17.869,16.743c-2.38,0.705-4.926,1.832-7.803,1.832
			c-0.022,0-0.041,0-0.063,0c-0.019,0-0.035,0-0.055,0c-1.629,0-3.184-1.203-4.666-1.429c-13.526-2.054-20.917-12.571-24-19.571
			H153.85c-0.11,0-0.204,0.455-0.313,0.449c-0.14-0.013-0.284,0.243-0.422,0.221c-0.117-0.018-0.214,0.042-0.329,0.019
			c-2.874-0.483-5.174-2.706-5.511-5.693c-0.302-2.671-0.618-7.996-0.941-7.996h0.152L148,829.41v98.82c14-6.124,28-9.539,49-10.077
			v-0.164c7-1.081,19.622,0.647,25.402,1.489c0.702,0.098,0.258,0.136,0.956,0.244C246.805,923.335,266,932.451,287,945.969V699.223
			C280,710.672,270.264,724.069,265.288,737.132z"/>
		<path fill="#009BDB" d="M148,337.479L144.246,334h-0.076c-0.838-7-0.676-7-1.493-14c0.022,0,0.041,0,0.063,0h0.096l-2.291-23.006
			c-0.087-0.026-0.183,0.659-0.269,0.632L139.075,285c0.029,0,0.08,0,0.111,0L134,262.761v162.843c7-1.119,7-2.18,14-3.163V337.479z
			"/>
		<path fill="#009BDB" d="M148,829.41l-3.754-3.41h-0.076c-0.838-7-0.676-7-1.493-14c0.022,0,0.041,0,0.063,0h0.096l-2.291-23.04
			c-0.087-0.026-0.183,0.676-0.269,0.649L139.075,777c0.029,0,0.08,0,0.111,0L134,754.692v176.7c7-1.119,7-2.18,14-3.163V829.41z"/>
		<path fill="#009BDB" d="M287,945.969c7,1.807,7,3.65,7,5.616V689.712c0,2.964,0,6.151-7,9.512V945.969z"/>
		<path fill="#009BDB" d="M287,440.18c7,1.807,7,3.65,7,5.616V197.78c0,2.964,0,6.15-7,9.512V440.18z"/>
		<path fill="#009BDB" d="M446,1097.733V71h-7v1060h5.477c-0.016,0-0.732-2.363-0.732-3.305
			C443.753,1117.689,446,1107.344,446,1097.733z"/>
		<path fill="#009BDB" d="M592,973.417c0-0.217,6-0.291,6-0.311V277.035c0,0,0.221,0.965,0.083,0.965c-0.022,0-0.041,0-0.063,0
			c-0.019,0-0.035,0-0.055,0c-1.629,0-2.632-0.588-4.114-0.813c-0.849-0.129-1.852-0.848-1.852-1.041v697.561
			c0-0.041,0-0.098,0-0.125V973.417z"/>
		<path fill="#009BDB" d="M751,71h-7v1001.476c0,8.722,7,17.733,7,26.947V71z"/>
		<path fill="#009BDB" d="M903,685.484c-7-2.797-4.384-5.377-6.427-7.617c-0.302-0.286-0.573-0.61-0.573-0.899v284.131
			c0-2.376,0-4.671,7-6.863V685.484z"/>
		<path fill="#009BDB" d="M903,193.552c-7-2.797-4.384-5.377-6.427-7.617c-0.302-0.286-0.573-0.61-0.573-0.899V455.31
			c0-2.376,0-4.671,7-6.863V193.552z"/>
		<path fill="#009BDB" d="M1051.853,361.673c0,0.188-0.08,0.359-0.093,0.545l-0.082,0.763c-0.015,0.131-0.09,0.237-0.111,0.365
			c-0.123,0.596-0.274,1.153-0.518,1.697c-0.138,0.308-0.304,0.582-0.483,0.864c-0.314,0.516-0.656,0.971-1.077,1.385
			c-0.098,0.091-0.205,0.163-0.307,0.249c-0.547,0.476-1.134,0.859-1.815,1.116c-0.227,0.092-0.481-0.465-0.719-0.397
			c-0.435,0.104-0.826-0.26-1.299-0.26h-0.352c-0.082,0-0.152,0-0.234,0H1042v50.816c7,0.769,7,1.542,7,2.44v-63.681l1.291,3.153
			L1051.853,361.673z"/>
		<path fill="#009BDB" d="M1051.853,853.604c0,0.188-0.08,0.359-0.093,0.545l-0.082,0.763c-0.015,0.131-0.09,0.237-0.111,0.365
			c-0.123,0.596-0.274,1.153-0.518,1.697c-0.138,0.308-0.304,0.582-0.483,0.864c-0.314,0.516-0.656,0.971-1.077,1.385
			c-0.098,0.091-0.205,0.163-0.307,0.249c-0.547,0.476-1.134,0.859-1.815,1.116c-0.227,0.092-0.481-0.431-0.719-0.363
			c-0.435,0.104-0.826-0.225-1.299-0.225h-0.352c-0.082,0-0.152,0-0.234,0H1042v64.605c7,0.769,7,1.542,7,2.44v-77.538l1.291,3.154
			L1051.853,853.604z"/>
		<polygon fill="#E4BB73" points="1060.193,777 1060.324,777 1062.999,750 1062.726,750 		"/>
		<path fill="#E4BB73" d="M999.943,879.858c2.876,0.003,5.423-0.49,7.803-1.195c-2.399,0.7-4.969,1.187-7.866,1.19
			C999.901,879.854,999.921,879.858,999.943,879.858z"/>
		<path fill="#E4BB73" d="M1057.847,797.148l1.672-14.832c-0.113,0.991-0.28,1.982-0.406,2.972L1057.847,797.148z"/>
		<path fill="#E4BB73" d="M944.08,775.109l55.015,0.033l-0.244-23.726l-61.769-0.037l-0.094-0.436l2.453,24.185
			C940.708,775.082,943.417,775.109,944.08,775.109z"/>
		<path fill="#E4BB73" d="M942.624,788.934c-0.646-0.073-1.238-0.244-1.826-0.421l2.291,22.594l56.375,0.032l-0.227-22.09
			l-55.173-0.033C943.574,789.017,943.094,788.988,942.624,788.934z"/>
		<polygon fill="#E4BB73" points="999.834,847.134 999.607,825.046 944.5,825.016 946.74,847.106 		"/>
		<path fill="#E4BB73" d="M953.369,860.924c0.138,0.022,0.282,0.019,0.422,0.033c-0.261-0.013-0.499-0.099-0.751-0.141
			C953.155,860.84,953.252,860.907,953.369,860.924z"/>
		<path fill="#E4BB73" d="M999.837,865.951c0.069,0,0.122-0.021,0.19-0.022l-0.05-4.887l-11.597-0.009
			C991.107,863.692,994.875,865.946,999.837,865.951z"/>
		<path fill="#F8E69E" d="M1065.238,740.009c0.307-0.955,0.642-1.915,0.992-2.876c-0.357,0.937-0.658,1.867-0.975,2.8
			C1065.25,739.958,1065.244,739.983,1065.238,740.009z"/>
		<path fill="#F8E69E" d="M1023.828,413.933c-0.699-0.108-1.415-0.145-2.116-0.244c0.631,0.092,1.247,0.183,1.672,0.249
			c35.973,5.566,69.958,23.936,93.889,51.725c5.108,5.932,7.727,12.28,14.727,18.85v-0.956c-7-6.297-9.354-12.396-14.283-18.099
			c-17.447-20.184-40.24-35.301-64.963-44.202c-2.496-0.899-5.283-1.671-7.827-2.44
			C1038.108,416.755,1030.926,415.027,1023.828,413.933z"/>
		<path fill="#F8E69E" d="M900.997,684.367C912.857,698.237,927.778,722,934.3,736h64.416l-3.347-324.752
			c-34.94,1.073-67.858,14.216-94.372,36.641c-2.591,2.192-5.113,4.766-7.578,7.142c-0.658,0.634-1.374,1.324-2.022,1.971
			c-29.104,29.059-45.153,67.783-45.185,108.912c-0.03,37.232,13.413,73.215,37.848,101.26c2.94,3.373,6.109,6.643,9.36,9.776
			c0.299,0.288,0.56,0.063,0.862,0.349C896.324,679.539,898.604,681.569,900.997,684.367z"/>
		<path fill="#C7565F" d="M944.08,776.045c-0.662,0-3.372,0.955-4.639,0.955c-0.031,0-0.082,0-0.111,0l1.199,12.385
			c0.086,0.027,0.183-0.431,0.269-0.405c0.587,0.177,1.179,0.114,1.826,0.188c0.471,0.054,0.951-0.034,1.441-0.035l55.173-0.026
			l-0.143-13.468L944.08,776.045z"/>
		<path fill="#C7565F" d="M1059.114,785.2c0.126-0.991,0.293-2.026,0.406-3.017c0.271-2.38,0.551-4.183,1.025-7.183h-0.22h-0.131
			L1059.114,785.2z"/>
		<path fill="#C7565F" d="M946.588,847c0.323,0,0.639,5.389,0.941,8.06c0.337,2.987,2.637,5.247,5.511,5.73
			c0.252,0.042,0.49-0.366,0.751-0.354c0.109,0.005,0.203-0.436,0.313-0.436h17.054c3.083,7,10.474,17.518,24,19.571
			c1.482,0.225,3.037,1.429,4.666,1.429c0.019,0,0.035,0,0.055,0c2.897,0,5.467-1.063,7.866-1.763
			c9.26-2.7,14.941-10.069,17.869-16.392c-3.493,6.469-14.879,18.043-25.453,16.374l-0.135-13.218
			c-0.069,0.001-0.121-0.541-0.19-0.541c-4.961-0.005-8.73-5.46-11.457-5.46h11.597l-0.143-13.44L946.74,847H946.588z"/>
		<path fill="#C7565F" d="M1051.567,855.278c-0.101,0.598-0.278,1.163-0.518,1.697
			C1051.293,856.431,1051.444,855.874,1051.567,855.278z"/>
		<path fill="#C7565F" d="M1045.349,861.067c0.473,0,0.864-0.205,1.299-0.308c-0.534,0.153-1.075,0.289-1.651,0.308H1045.349z"/>
		<path fill="#C7565F" d="M1050.566,857.838c-0.317,0.497-0.649,0.985-1.077,1.385
			C1049.91,858.81,1050.252,858.354,1050.566,857.838z"/>
		<path fill="#C7565F" d="M1051.853,853.604l0.066-0.944l-0.159,1.489C1051.773,853.963,1051.853,853.792,1051.853,853.604z"/>
		<path fill="#C7565F" d="M1049.182,859.472c-0.547,0.455-1.149,0.845-1.815,1.116
			C1048.048,860.331,1048.635,859.948,1049.182,859.472z"/>
		<polygon fill="#C7565F" points="934.235,736 936.988,749.826 937.082,750.82 998.851,750.02 998.716,736 934.3,736 		"/>
		<path fill="#C7565F" d="M1063.276,746.713c-0.021,0.091-0.052-0.042-0.073,0.049l-0.477,4.238h0.272h0.092
			c0.13-3,1.244-7.243,2.147-11.219c0.006-0.025,0.011,0.063,0.017,0.037C1064.481,742.097,1063.785,744.479,1063.276,746.713z"/>
		<path fill="#C7565F" d="M942.993,812c-0.022,0-0.041,0-0.063,0c0.817,7,0.655,7,1.493,14h0.076l55.107-0.462l-0.143-13.707
			L943.089,812H942.993z"/>
		<path opacity="0.15" fill="#C06838" d="M1056.349,812c-0.742,7-0.795,8.81-1.648,13.492l-1.63-0.208L1049,846.741V847h3.303
			l-3.303,0.834v1.673l7.219-51.944l0.047,14.437H1056.349z"/>
		<path opacity="0.15" fill="#C06838" d="M1044.476,860c-0.019,0-0.036,0.544-0.056,0.544l-18.105,0.252
			c-0.198,0.485-0.469,1.13-0.7,1.629c0.269-0.498-0.742-0.969-0.572-1.396l16.957,0.082V860H1044.476z"/>
		<path opacity="0.15" fill="#C06838" d="M993,412.2v0.164c7-0.051,4.466-0.238,6.128-0.237c7.165,0.006,13.75,0.574,20.808,1.561
			C1014.157,412.847,1000,411.119,993,412.2z"/>
		<path opacity="0.15" fill="#C06838" d="M1105.923,678.035c-11.98,13.092-31.54,36.723-39.693,59.097
			c8.413-22.085,27.492-45.173,39.249-58.071c3.573-3.389,8.011-6.981,11.236-10.684c5.326-6.117,8.285-12.67,15.285-19.471v-0.237
			c-7,6.528-9.694,12.834-14.841,18.723C1113.934,671.081,1109.495,674.659,1105.923,678.035z"/>
		<polygon fill="#009BDB" points="1051.663,852.66 1052,849.507 1052,847.834 		"/>
		<polygon opacity="0.15" fill="#C06838" points="1051.663,852.66 1052,849.507 1052,847.834 		"/>
		<path fill="#009BDB" d="M1044.678,861.111h0.085c0.082,0,0.152-0.041,0.234-0.044h-0.318V861.111z"/>
		<path opacity="0.15" fill="#C06838" d="M1044.678,861.111h0.085c0.082,0,0.152-0.041,0.234-0.044h-0.318V861.111z"/>
		<path fill="#009BDB" d="M1051.05,856.975c-0.137,0.305-0.312,0.581-0.483,0.864
			C1050.746,857.557,1050.911,857.283,1051.05,856.975z"/>
		<path opacity="0.15" fill="#C06838" d="M1051.05,856.975c-0.137,0.305-0.312,0.581-0.483,0.864
			C1050.746,857.557,1050.911,857.283,1051.05,856.975z"/>
		<path fill="#009BDB" d="M1051.679,854.913l0.082-0.763c-0.026,0.386-0.115,0.754-0.193,1.129
			C1051.589,855.149,1051.664,855.044,1051.679,854.913z"/>
		<path opacity="0.15" fill="#C06838" d="M1051.679,854.913l0.082-0.763c-0.026,0.386-0.115,0.754-0.193,1.129
			C1051.589,855.149,1051.664,855.044,1051.679,854.913z"/>
		<path fill="#009BDB" d="M1049.49,859.223c-0.095,0.093-0.207,0.161-0.307,0.249
			C1049.285,859.386,1049.392,859.314,1049.49,859.223z"/>
		<path opacity="0.15" fill="#C06838" d="M1049.49,859.223c-0.095,0.093-0.207,0.161-0.307,0.249
			C1049.285,859.386,1049.392,859.314,1049.49,859.223z"/>
		<path fill="#009BDB" d="M1047.367,860.588c-0.228,0.086-0.479,0.114-0.719,0.171
			C1046.886,860.691,1047.14,860.68,1047.367,860.588z"/>
		<path opacity="0.15" fill="#C06838" d="M1047.367,860.588c-0.228,0.086-0.479,0.114-0.719,0.171
			C1046.886,860.691,1047.14,860.68,1047.367,860.588z"/>
		<polygon fill="#009BDB" points="1052.256,847.161 1052.256,846.741 1052.208,847.161 		"/>
		<polygon opacity="0.15" fill="#C06838" points="1052.256,847.161 1052.256,846.741 1052.208,847.161 		"/>
		<path fill="#E4BB73" d="M1044.476,860H1028v0.715l17.262-0.345C1045.282,860.37,1044.456,860,1044.476,860z"/>
		<path opacity="0.15" fill="#C06838" d="M1044.476,860H1028v0.715l17.262-0.345C1045.282,860.37,1044.456,860,1044.476,860z"/>
		<path fill="#E4BB73" d="M1010.225,861.05l-10.248-0.008l0.05,4.887C1004.835,865.87,1008.087,863.638,1010.225,861.05z"/>
		<path opacity="0.15" fill="#C06838" d="M1010.225,861.05l-10.248-0.008l0.05,4.887
			C1004.835,865.87,1008.087,863.638,1010.225,861.05z"/>
		<path fill="#E4BB73" d="M1058.595,789.083l-59.358-0.035l0.227,22.09l56.802,0.032l1.581-14.022l1.267-11.859
			C1058.953,786.554,1058.829,787.818,1058.595,789.083z"/>
		<path opacity="0.15" fill="#C06838" d="M1058.595,789.083l-59.358-0.035l0.227,22.09l56.802,0.032l1.581-14.022l1.267-11.859
			C1058.953,786.554,1058.829,787.818,1058.595,789.083z"/>
		<polygon fill="#E4BB73" points="999.607,825.046 999.834,847.134 1052.208,847.161 1052.256,846.741 1054.698,825.077 		"/>
		<polygon opacity="0.15" fill="#C06838" points="999.607,825.046 999.834,847.134 1052.208,847.161 1052.256,846.741 
			1054.698,825.077 		"/>
		<polygon fill="#E4BB73" points="998.851,751.416 999.095,775.142 1060.193,775.178 1062.726,751.454 		"/>
		<polygon opacity="0.15" fill="#C06838" points="998.851,751.416 999.095,775.142 1060.193,775.178 1062.726,751.454 		"/>
		<path fill="#F8E69E" d="M1023.384,413.938c-0.425-0.066-1.042-0.157-1.672-0.249c-7.058-0.987-14.234-1.555-21.399-1.561
			c-1.662-0.001-3.291-0.931-4.944-0.88L998.716,736h66.922c-0.115,0-0.254,2.248-0.382,2.815c0.317-0.932,0.618-1.304,0.975-2.242
			c8.153-22.375,27.713-45.726,39.693-58.818c3.572-3.375,8.011-6.814,11.235-10.503c5.147-5.889,7.841-12.056,14.841-18.583
			V484.513c-7-6.57-9.619-12.918-14.727-18.85C1093.343,437.873,1059.357,419.504,1023.384,413.938z"/>
		<path opacity="0.15" fill="#C06838" d="M1023.384,413.938c-0.425-0.066-1.042-0.157-1.672-0.249
			c-7.058-0.987-14.234-1.555-21.399-1.561c-1.662-0.001-3.291-0.931-4.944-0.88L998.716,736h66.922
			c-0.115,0-0.254,2.248-0.382,2.815c0.317-0.932,0.618-1.304,0.975-2.242c8.153-22.375,27.713-45.726,39.693-58.818
			c3.572-3.375,8.011-6.814,11.235-10.503c5.147-5.889,7.841-12.056,14.841-18.583V484.513c-7-6.57-9.619-12.918-14.727-18.85
			C1093.343,437.873,1059.357,419.504,1023.384,413.938z"/>
		<path fill="#C7565F" d="M999.095,775.142l0.143,13.907l59.358,0.035c0.234-1.265,0.358-2.529,0.518-3.794l1.08-10.111
			L999.095,775.142z"/>
		<path opacity="0.15" fill="#C06838" d="M999.095,775.142l0.143,13.907l59.358,0.035c0.234-1.265,0.358-2.529,0.518-3.794
			l1.08-10.111L999.095,775.142z"/>
		<path fill="#C7565F" d="M999.834,847.053l0.143,13.949l10.248,0.028c-2.138,2.588-5.39,4.829-10.198,4.889l0.135,13.151
			c10.574,1.67,22.802-10.045,26.295-16.515c0.231-0.499,1.543-1.36,1.543-1.846V860h16.476h0.203h0.318
			c0.576,0,1.117,0.378,1.651,0.225c0.24-0.057,0.491,0.182,0.719,0.096c0.666-0.271,1.269-0.528,1.815-0.983
			c0.1-0.088,0.212-0.089,0.307-0.182c0.428-0.4,0.76-0.854,1.077-1.351c0.172-0.282,0.346-0.542,0.483-0.847
			c0.24-0.533,0.417-1.09,0.518-1.688c0.077-0.374,0.167-0.739,0.193-1.125l0.159-1.487l0.337-4.906l0.047-0.753h-0.047h-0.047
			L999.834,847.053z"/>
		<path opacity="0.15" fill="#C06838" d="M999.834,847.053l0.143,13.949l10.248,0.028c-2.138,2.588-5.39,4.829-10.198,4.889
			l0.135,13.151c10.574,1.67,22.802-10.045,26.295-16.515c0.231-0.499,1.543-1.36,1.543-1.846V860h16.476h0.203h0.318
			c0.576,0,1.117,0.378,1.651,0.225c0.24-0.057,0.491,0.182,0.719,0.096c0.666-0.271,1.269-0.528,1.815-0.983
			c0.1-0.088,0.212-0.089,0.307-0.182c0.428-0.4,0.76-0.854,1.077-1.351c0.172-0.282,0.346-0.542,0.483-0.847
			c0.24-0.533,0.417-1.09,0.518-1.688c0.077-0.374,0.167-0.739,0.193-1.125l0.159-1.487l0.337-4.906l0.047-0.753h-0.047h-0.047
			L999.834,847.053z"/>
		<path fill="#C7565F" d="M998.851,750.299l63.875,0.596l0.477-4.186c0.021-0.091,0.052-0.045,0.073-0.137
			c0.509-2.234,1.204-5.549,1.979-7.828c0.129-0.568,0.267-2.745,0.382-2.745h-66.922L998.851,750.299z"/>
		<path opacity="0.15" fill="#C06838" d="M998.851,750.299l63.875,0.596l0.477-4.186c0.021-0.091,0.052-0.045,0.073-0.137
			c0.509-2.234,1.204-5.549,1.979-7.828c0.129-0.568,0.267-2.745,0.382-2.745h-66.922L998.851,750.299z"/>
		<path fill="#C7565F" d="M1056,825.077v0.348c0-4.682-0.394-6.425,0.349-13.425h-0.083l-56.802-0.447l0.794,13.7L1056,825.077z"/>
		<path opacity="0.15" fill="#C06838" d="M1056,825.077v0.348c0-4.682-0.394-6.425,0.349-13.425h-0.083l-56.802-0.447l0.794,13.7
			L1056,825.077z"/>
		<polygon fill="#E4BB73" points="259.939,777 260.069,777 262.744,750 262.472,750 		"/>
		<polygon fill="#E4BB73" points="199.579,847.134 199.353,825.046 144.246,825.016 144.691,829.41 146.486,847.106 		"/>
		<path fill="#E4BB73" d="M199.21,811.138l-0.227-22.09l-55.173-0.033c-0.491,0.001-0.971-0.028-1.441-0.082
			c-0.646-0.073-1.238-0.244-1.826-0.421l2.291,22.594L199.21,811.138z"/>
		<path fill="#E4BB73" d="M153.114,860.924c0.138,0.022,0.282,0.019,0.422,0.033c-0.261-0.013-0.499-0.099-0.751-0.141
			C152.901,860.84,152.998,860.907,153.114,860.924z"/>
		<path fill="#E4BB73" d="M199.688,879.858c2.876,0.003,5.423-0.49,7.803-1.195c-2.399,0.7-4.969,1.187-7.866,1.19
			C199.647,879.854,199.666,879.858,199.688,879.858z"/>
		<path fill="#E4BB73" d="M199.582,865.951c0.069,0,0.122-0.021,0.19-0.022l-0.05-4.887l-11.597-0.009
			C190.853,863.692,194.621,865.946,199.582,865.951z"/>
		<path fill="#E4BB73" d="M257.592,797.148l1.672-14.832c-0.113,0.991-0.28,1.982-0.406,2.972L257.592,797.148z"/>
		<path fill="#E4BB73" d="M143.825,775.109l55.015,0.033l-0.244-23.726l-61.769-0.037l-0.094-0.436l0.38,3.749l2.073,20.436
			C140.454,775.082,143.163,775.109,143.825,775.109z"/>
		<path fill="#F8E69E" d="M265.976,737.132c-0.357,0.937-0.658,1.867-0.975,2.8c-0.006,0.025-0.011,0.051-0.017,0.077
			C265.29,739.053,265.626,738.093,265.976,737.132z"/>
		<path fill="#F8E69E" d="M223.574,413.933c-0.699-0.108-1.415-0.145-2.116-0.244c0.631,0.092,1.247,0.183,1.672,0.249
			c35.973,5.566,68.963,23.936,92.893,51.725c24.179,28.079,37.478,64.004,37.448,101.159c-0.018,23.314-5.282,46.116-15.178,66.798
			c10.166-20.831,15.604-43.843,15.622-67.392c0.03-37.013-13.27-72.799-37.448-100.77c-6.247-7.227-13.139-13.775-20.512-19.663
			c-2.461-1.966-5.008-3.809-7.579-5.616C269.146,426.662,247.021,417.547,223.574,413.933z"/>
		<path fill="#F8E69E" d="M198.461,736l-3.347-324.752c-17.501,0.538-34.481,4.511-50.423,10.635
			c-2.558,0.983-5.077,2.323-7.578,3.442c-16.886,7.558-31.479,18.215-44.964,31.677C84.017,465.122,79,474.194,72,483.658v164.799
			c0,6.537,7.673,12.853,12.813,18.752c3.21,3.684,6.143,6.151,9.718,9.541c12.174,13.348,31.677,38.25,39.515,59.25H198.461z"/>
		<path fill="#C7565F" d="M258.859,785.2c0.126-0.991,0.293-2.026,0.406-3.017c0.271-2.38,0.551-4.183,1.025-7.183h-0.22h-0.131
			L258.859,785.2z"/>
		<path fill="#C7565F" d="M143.81,789.016l55.173,0.033l-0.143-13.907l-55.015,0.903c-0.662,0-3.372,0.955-4.639,0.955
			c-0.031,0-0.082,0-0.111,0l1.199,12.385c0.086,0.027,0.183-0.431,0.269-0.405c0.587,0.177,1.179,0.114,1.826,0.188
			C142.84,789.222,143.32,789.017,143.81,789.016z"/>
		<path fill="#C7565F" d="M251.313,855.278c-0.101,0.598-0.278,1.163-0.518,1.697C251.039,856.431,251.19,855.874,251.313,855.278z"
			/>
		<path fill="#C7565F" d="M245.094,861.067c0.473,0,0.864-0.205,1.299-0.308c-0.534,0.153-1.075,0.289-1.651,0.308H245.094z"/>
		<path fill="#C7565F" d="M251.599,853.604l0.066-0.944l-0.159,1.489C251.519,853.963,251.599,853.792,251.599,853.604z"/>
		<path fill="#C7565F" d="M250.312,857.838c-0.317,0.497-0.649,0.985-1.077,1.385C249.656,858.81,249.998,858.354,250.312,857.838z"
			/>
		<path fill="#C7565F" d="M248.928,859.472c-0.547,0.455-1.149,0.845-1.815,1.116C247.794,860.331,248.381,859.948,248.928,859.472z
			"/>
		<path fill="#C7565F" d="M199.908,879.075l-0.135-13.146c-0.068,0.001-0.121,0.022-0.19,0.022c-4.961-0.005-8.73-2.26-11.457-4.918
			l11.597,0.009l-0.143-13.961L146.486,847h-0.152c0.323,0,0.639,5.389,0.941,8.06c0.337,2.987,2.637,5.247,5.511,5.73
			c0.252,0.042,0.49-0.366,0.751-0.354c0.109,0.005,0.203-0.436,0.313-0.436h17.054c3.083,7,10.474,17.518,24,19.571
			c1.482,0.225,3.037,1.429,4.666,1.429c0.019,0,0.035,0,0.055,0c2.897,0,5.467-1.063,7.866-1.763
			c9.26-2.7,14.942-10.069,17.869-16.392C221.867,869.314,210.481,880.745,199.908,879.075z"/>
		<polygon fill="#C7565F" points="198.597,750.299 198.461,736 134.046,736 133.981,736 136.733,749.826 136.828,750.262 		"/>
		<path fill="#C7565F" d="M263.022,746.713c-0.021,0.091-0.052-0.042-0.073,0.049L262.472,751h0.272h0.092
			c0.13-3,1.244-7.243,2.147-11.219c0.006-0.025,0.011,0.063,0.017,0.037C264.226,742.097,263.531,744.479,263.022,746.713z"/>
		<path fill="#C7565F" d="M199.353,825.538l-0.143-13.707L142.835,812h-0.096c-0.022,0-0.041,0-0.063,0c0.817,7,0.655,7,1.493,14
			h0.076L199.353,825.538z"/>
		<path opacity="0.15" fill="#C06838" d="M287,698.695c-7,11.645-17.596,25.252-22.4,38.437c4.977-13.063,15.4-26.46,22.4-37.909
			V698.695z"/>
		<path opacity="0.15" fill="#C06838" d="M256.094,812c-0.742,7-4.094,8.743-4.094,13.425v-0.5L251.954,847h0.094l-0.384,5.58
			l5.928-55.057L256.012,812H256.094z"/>
		<path opacity="0.15" fill="#C06838" d="M304.692,678.035c-2.882,3.15-3.692,6.938-10.692,11.144v0.532
			c7-4.008,7.487-7.621,10.248-10.65c3.573-3.389,7.504-6.981,10.728-10.684c9.21-10.577,17.104-22.282,23.073-34.757
			c-5.906,12.104-13.755,23.48-22.751,33.772C312.074,671.081,308.264,674.659,304.692,678.035z"/>
		<path opacity="0.15" fill="#C06838" d="M251.424,854.913l0.082-0.763c-0.026,0.386-0.115,0.754-0.193,1.129
			C251.335,855.149,251.409,855.044,251.424,854.913z"/>
		<path opacity="0.15" fill="#C06838" d="M250.795,856.975c-0.137,0.305-0.312,0.581-0.483,0.864
			C250.491,857.557,250.657,857.283,250.795,856.975z"/>
		<path opacity="0.15" fill="#C06838" d="M247.112,860.588c-0.228,0.086-0.479,0.114-0.719,0.171
			C246.632,860.691,246.885,860.68,247.112,860.588z"/>
		<path opacity="0.15" fill="#C06838" d="M222.402,413.689c-5.78-0.842-18.402-2.57-25.402-1.489v0.164
			c0-0.051,2.811-0.238,4.473-0.237C208.638,412.134,215.344,412.702,222.402,413.689z"/>
		<path opacity="0.15" fill="#C06838" d="M244.165,860.544l-18.105,0.252c-0.197,0.485-0.469,1.13-0.7,1.629
			c0.269-0.498,0.598-0.969,0.768-1.396l18.38-0.485c0.082,0,0.152-0.544,0.234-0.544h-0.521
			C244.202,860,244.185,860.544,244.165,860.544z"/>
		<path opacity="0.15" fill="#C06838" d="M249.235,859.223c-0.095,0.093-0.207,0.161-0.307,0.249
			C249.031,859.386,249.138,859.314,249.235,859.223z"/>
		<path fill="#009BDB" d="M288,698.695v0.528c3-3.361,5-6.548,8-9.512v-0.532C293,692.153,291,695.333,288,698.695z"/>
		<path opacity="0.15" fill="#C06838" d="M288,698.695v0.528c3-3.361,5-6.548,8-9.512v-0.532C293,692.153,291,695.333,288,698.695z"
			/>
		<polygon fill="#E4BB73" points="254.444,825.077 199.353,825.046 199.579,847.134 251.954,847.161 		"/>
		<polygon opacity="0.15" fill="#C06838" points="254.444,825.077 199.353,825.046 199.579,847.134 251.954,847.161 		"/>
		<path fill="#E4BB73" d="M209.971,861.05l-10.248-0.008l0.05,4.887C204.58,865.87,207.833,863.638,209.971,861.05z"/>
		<path opacity="0.15" fill="#C06838" d="M209.971,861.05l-10.248-0.008l0.05,4.887C204.58,865.87,207.833,863.638,209.971,861.05z"
			/>
		<path fill="#E4BB73" d="M244.221,860H224v0.715l19.135-0.345C243.155,860.37,244.202,860,244.221,860z"/>
		<path opacity="0.15" fill="#C06838" d="M244.221,860H224v0.715l19.135-0.345C243.155,860.37,244.202,860,244.221,860z"/>
		<polygon fill="#E4BB73" points="262.472,751.454 198.597,751.416 198.84,775.142 259.939,775.178 		"/>
		<polygon opacity="0.15" fill="#C06838" points="262.472,751.454 198.597,751.416 198.84,775.142 259.939,775.178 		"/>
		<path fill="#E4BB73" d="M258.341,789.083l-59.358-0.035l0.227,22.09l56.802,0.032l1.581-14.022l1.267-11.859
			C258.699,786.554,258.575,787.818,258.341,789.083z"/>
		<path opacity="0.15" fill="#C06838" d="M258.341,789.083l-59.358-0.035l0.227,22.09l56.802,0.032l1.581-14.022l1.267-11.859
			C258.699,786.554,258.575,787.818,258.341,789.083z"/>
		<path fill="#F8E69E" d="M316.023,465.663c-23.931-27.79-56.921-46.159-92.893-51.725c-0.425-0.066-1.042-0.157-1.672-0.249
			c-7.058-0.987-14.234-1.555-21.399-1.561c-1.662-0.001-3.29-0.931-4.944-0.88L198.461,736h66.922
			c-0.115,0-0.254,2.248-0.382,2.815c0.317-0.932,0.618-1.304,0.975-2.242c4.804-13.185,13.55-26.513,22.4-38.158
			c2.555-3.362,5.106-6.403,7.579-9.376c3.499-4.206,6.832-7.924,9.715-11.075c3.572-3.375,7.015-6.919,10.24-10.607
			c8.996-10.292,16.478-21.651,22.384-33.754c9.896-20.682,15.16-43.476,15.178-66.789
			C353.502,529.658,340.202,493.742,316.023,465.663z"/>
		<path opacity="0.15" fill="#C06838" d="M316.023,465.663c-23.931-27.79-56.921-46.159-92.893-51.725
			c-0.425-0.066-1.042-0.157-1.672-0.249c-7.058-0.987-14.234-1.555-21.399-1.561c-1.662-0.001-3.29-0.931-4.944-0.88L198.461,736
			h66.922c-0.115,0-0.254,2.248-0.382,2.815c0.317-0.932,0.618-1.304,0.975-2.242c4.804-13.185,13.55-26.513,22.4-38.158
			c2.555-3.362,5.106-6.403,7.579-9.376c3.499-4.206,6.832-7.924,9.715-11.075c3.572-3.375,7.015-6.919,10.24-10.607
			c8.996-10.292,16.478-21.651,22.384-33.754c9.896-20.682,15.16-43.476,15.178-66.789
			C353.502,529.658,340.202,493.742,316.023,465.663z"/>
		<path fill="#C7565F" d="M258.341,789.083c0.234-1.265,0.358-2.529,0.518-3.794l1.08-10.111l-61.099-0.036l0.143,13.907
			L258.341,789.083z"/>
		<path opacity="0.15" fill="#C06838" d="M258.341,789.083c0.234-1.265,0.358-2.529,0.518-3.794l1.08-10.111l-61.099-0.036
			l0.143,13.907L258.341,789.083z"/>
		<path fill="#C7565F" d="M251.954,847l-52.375,0.053l0.143,13.949l10.248,0.028c-2.138,2.588-5.39,4.829-10.198,4.889l0.135,13.151
			c10.574,1.67,20.929-10.045,24.423-16.515c0.231-0.499-0.33-1.36-0.33-1.846V860h20.221h0.521c0.576,0,1.117,0.378,1.651,0.225
			c0.24-0.057,0.491,0.182,0.719,0.096c0.666-0.271,1.269-0.528,1.815-0.983c0.1-0.088,0.212-0.089,0.307-0.182
			c0.428-0.4,0.76-0.854,1.077-1.351c0.172-0.282,0.346-0.542,0.483-0.847c0.24-0.533,0.417-1.09,0.518-1.688
			c0.077-0.374,0.167-0.739,0.193-1.125l0.159-1.568l0.384-5.577H251.954z"/>
		<path opacity="0.15" fill="#C06838" d="M251.954,847l-52.375,0.053l0.143,13.949l10.248,0.028
			c-2.138,2.588-5.39,4.829-10.198,4.889l0.135,13.151c10.574,1.67,20.929-10.045,24.423-16.515c0.231-0.499-0.33-1.36-0.33-1.846
			V860h20.221h0.521c0.576,0,1.117,0.378,1.651,0.225c0.24-0.057,0.491,0.182,0.719,0.096c0.666-0.271,1.269-0.528,1.815-0.983
			c0.1-0.088,0.212-0.089,0.307-0.182c0.428-0.4,0.76-0.854,1.077-1.351c0.172-0.282,0.346-0.542,0.483-0.847
			c0.24-0.533,0.417-1.09,0.518-1.688c0.077-0.374,0.167-0.739,0.193-1.125l0.159-1.568l0.384-5.577H251.954z"/>
		<path fill="#C7565F" d="M262.949,746.989c0.021-0.091,0.052-0.185,0.073-0.276c0.509-2.234,1.204-5.619,1.979-7.897
			c0.129-0.568,0.267-2.815,0.382-2.815h-66.922l0.135,14.299l63.875,0.596L262.949,746.989z"/>
		<path opacity="0.15" fill="#C06838" d="M262.949,746.989c0.021-0.091,0.052-0.185,0.073-0.276
			c0.509-2.234,1.204-5.619,1.979-7.897c0.129-0.568,0.267-2.815,0.382-2.815h-66.922l0.135,14.299l63.875,0.596L262.949,746.989z"
			/>
		<path fill="#C7565F" d="M252,825.425c0-4.682,3.352-6.425,4.094-13.425h-0.082l-56.802-0.447l-1.079,13.7L252,825.338V825.425z"/>
		<path opacity="0.15" fill="#C06838" d="M252,825.425c0-4.682,3.352-6.425,4.094-13.425h-0.082l-56.802-0.447l-1.079,13.7
			L252,825.338V825.425z"/>
		<path fill="#E4BB73" d="M1057.847,305.217l1.672-14.832c-0.113,0.991-0.28,1.982-0.406,2.973L1057.847,305.217z"/>
		<path fill="#E4BB73" d="M953.369,368.993c0.138,0.022,0.282,0.019,0.422,0.033c-0.261-0.013-0.499-0.099-0.751-0.141
			C953.155,368.909,953.252,368.975,953.369,368.993z"/>
		<path fill="#E4BB73" d="M999.943,387.927c2.876,0.003,5.423-0.49,7.803-1.195c-2.399,0.7-4.969,1.187-7.866,1.19
			C999.901,387.922,999.921,387.927,999.943,387.927z"/>
		<path fill="#E4BB73" d="M936.988,259.012l2.453,24.185c1.267-0.047,3.977-0.019,4.639-0.019l55.015,0.033l-0.244-23.726
			l-61.769-0.037L936.988,259.012z"/>
		<polygon fill="#E4BB73" points="999.834,355.203 999.607,333.115 944.5,333.084 946.74,355.175 		"/>
		<path fill="#E4BB73" d="M942.624,297.003c-0.646-0.073-1.238-0.244-1.826-0.421l2.291,22.594l56.375,0.032l-0.227-22.09
			l-55.173-0.033C943.574,297.086,943.094,297.057,942.624,297.003z"/>
		<path fill="#E4BB73" d="M999.837,374.02c0.069,0,0.122-0.021,0.19-0.022l-0.05-4.887l-11.597-0.009
			C991.107,371.76,994.875,374.015,999.837,374.02z"/>
		<polygon fill="#E4BB73" points="1062.726,258 1060.193,285 1060.324,285 1062.999,258 		"/>
		<path fill="#F8E69E" d="M1065.238,248.077c0.307-0.955,0.642-1.915,0.992-2.876c-0.357,0.937-0.658,1.867-0.975,2.8
			C1065.25,248.026,1065.244,248.052,1065.238,248.077z"/>
		<path fill="#F8E69E" d="M900.997,192.401C912.857,206.271,927.778,230,934.3,244h64.416l-1.811-173H846.413
			c-0.036,0-0.2,2.192-0.201,3.559c-0.03,37.232,13.413,72.927,37.848,100.972c2.94,3.373,6.109,6.499,9.36,9.632
			c0.299,0.288,0.56-0.026,0.862,0.26C896.324,187.663,898.604,189.604,900.997,192.401z"/>
		<path fill="#C7565F" d="M944.08,284.079c-0.662,0-3.372,0.921-4.639,0.921c-0.031,0-0.082,0-0.111,0l1.199,12.419
			c0.086,0.027,0.183-0.414,0.269-0.388c0.587,0.177,1.179,0.123,1.826,0.196c0.471,0.054,0.951-0.029,1.441-0.03l55.173-0.024
			l-0.143-13.484L944.08,284.079z"/>
		<path fill="#C7565F" d="M1059.114,293.234c0.126-0.991,0.293-2.043,0.406-3.034c0.271-2.38,0.551-4.2,1.025-7.2h-0.22h-0.131
			L1059.114,293.234z"/>
		<path fill="#C7565F" d="M946.588,355c0.323,0,0.639,5.423,0.941,8.094c0.337,2.987,2.637,5.264,5.511,5.747
			c0.252,0.042,0.49-0.392,0.751-0.38c0.109,0.005,0.203-0.462,0.313-0.462h17.054c3.083,7,10.474,17.518,24,19.571
			c1.482,0.225,3.037,1.429,4.666,1.429c0.019,0,0.035,0,0.055,0c2.897,0,5.467-1.029,7.866-1.729
			c9.26-2.7,14.941-10.052,17.869-16.375c-3.493,6.469-14.879,18.052-25.453,16.383l-0.135-13.213
			c-0.069,0.001-0.121-0.573-0.19-0.573c-4.961-0.005-8.73-5.493-11.457-5.493h11.597l-0.143-13.44L946.74,355H946.588z"/>
		<path fill="#C7565F" d="M1050.566,365.907c-0.317,0.497-0.649,0.985-1.077,1.385
			C1049.91,366.878,1050.252,366.422,1050.566,365.907z"/>
		<path fill="#C7565F" d="M1049.182,367.54c-0.547,0.455-1.149,0.845-1.815,1.116
			C1048.048,368.399,1048.635,368.017,1049.182,367.54z"/>
		<path fill="#C7565F" d="M1051.567,363.347c-0.101,0.598-0.278,1.163-0.518,1.697
			C1051.293,364.5,1051.444,363.943,1051.567,363.347z"/>
		<path fill="#C7565F" d="M1051.853,361.673l0.066-0.944l-0.159,1.489C1051.773,362.032,1051.853,361.861,1051.853,361.673z"/>
		<path fill="#C7565F" d="M1045.349,369.136c0.473,0,0.864-0.205,1.299-0.308c-0.534,0.153-1.075,0.289-1.651,0.308H1045.349z"/>
		<polygon fill="#C7565F" points="936.988,257.861 937.082,258.872 998.851,258.046 998.716,244 934.3,244 934.235,244 		"/>
		<path fill="#C7565F" d="M1063.276,254.781c-0.021,0.091-0.052,0.423-0.073,0.515l-0.477,4.704h0.272h0.092
			c0.13-4,1.244-7.709,2.147-11.684c0.006-0.025,0.011-0.17,0.017-0.196C1064.481,250.399,1063.785,252.547,1063.276,254.781z"/>
		<path fill="#C7565F" d="M942.993,320c-0.022,0-0.041,0-0.063,0c0.817,7,0.655,7,1.493,14h0.076l55.107-0.427l-0.143-13.724
			L943.089,320H942.993z"/>
		<path opacity="0.15" fill="#C06838" d="M1044.476,368c-0.019,0-0.036,0.578-0.056,0.578l-18.105,0.269
			c-0.198,0.485-0.469,1.138-0.7,1.637c0.269-0.498-0.742-0.965-0.572-1.391L1042,369.18V368H1044.476z"/>
		<path opacity="0.15" fill="#C06838" d="M1056.349,320c-0.742,7-0.795,8.844-1.648,13.526l-1.63-0.19L1049,354.809V355h3.303
			l-3.303,0.903v1.673l7.219-51.978l0.047,14.402H1056.349z"/>
		<path opacity="0.15" fill="#C06838" d="M1105.923,186.103c-11.98,13.092-31.54,36.723-39.693,59.097
			c8.413-22.085,27.492-45.173,39.249-58.071c3.573-3.389,7.016-6.981,10.24-10.684c4.714-5.414,8.887-11.201,12.769-17.157
			c-0.011-0.066-0.019-0.133-0.03-0.2c-3.757,5.673-7.771,11.196-12.294,16.371C1112.939,179.15,1109.495,182.728,1105.923,186.103z
			"/>
		<path fill="#009BDB" d="M1051.679,362.981l0.082-0.763c-0.026,0.386-0.115,0.754-0.193,1.129
			C1051.589,363.218,1051.664,363.112,1051.679,362.981z"/>
		<path opacity="0.15" fill="#C06838" d="M1051.679,362.981l0.082-0.763c-0.026,0.386-0.115,0.754-0.193,1.129
			C1051.589,363.218,1051.664,363.112,1051.679,362.981z"/>
		<polygon fill="#009BDB" points="1052.256,355.23 1052.256,354.809 1052.208,355.23 		"/>
		<polygon opacity="0.15" fill="#C06838" points="1052.256,355.23 1052.256,354.809 1052.208,355.23 		"/>
		<path fill="#009BDB" d="M1044.678,369.18h0.085c0.082,0,0.152-0.041,0.234-0.044h-0.318V369.18z"/>
		<path opacity="0.15" fill="#C06838" d="M1044.678,369.18h0.085c0.082,0,0.152-0.041,0.234-0.044h-0.318V369.18z"/>
		<polygon fill="#009BDB" points="1051.663,360.729 1052,357.576 1052,355.903 		"/>
		<polygon opacity="0.15" fill="#C06838" points="1051.663,360.729 1052,357.576 1052,355.903 		"/>
		<path fill="#009BDB" d="M1049.49,367.291c-0.095,0.093-0.207,0.162-0.307,0.249
			C1049.285,367.455,1049.392,367.383,1049.49,367.291z"/>
		<path opacity="0.15" fill="#C06838" d="M1049.49,367.291c-0.095,0.093-0.207,0.162-0.307,0.249
			C1049.285,367.455,1049.392,367.383,1049.49,367.291z"/>
		<path fill="#009BDB" d="M1047.367,368.657c-0.228,0.086-0.479,0.114-0.719,0.171
			C1046.886,368.76,1047.14,368.749,1047.367,368.657z"/>
		<path opacity="0.15" fill="#C06838" d="M1047.367,368.657c-0.228,0.086-0.479,0.114-0.719,0.171
			C1046.886,368.76,1047.14,368.749,1047.367,368.657z"/>
		<path fill="#009BDB" d="M1051.05,365.043c-0.137,0.305-0.312,0.581-0.483,0.864
			C1050.746,365.625,1050.911,365.352,1051.05,365.043z"/>
		<path opacity="0.15" fill="#C06838" d="M1051.05,365.043c-0.137,0.305-0.312,0.581-0.483,0.864
			C1050.746,365.625,1050.911,365.352,1051.05,365.043z"/>
		<path fill="#E4BB73" d="M1058.595,297.152l-59.358-0.035l0.227,22.09l56.802,0.032l1.581-14.022l1.267-11.859
			C1058.953,294.623,1058.829,295.887,1058.595,297.152z"/>
		<path opacity="0.15" fill="#C06838" d="M1058.595,297.152l-59.358-0.035l0.227,22.09l56.802,0.032l1.581-14.022l1.267-11.859
			C1058.953,294.623,1058.829,295.887,1058.595,297.152z"/>
		<path fill="#E4BB73" d="M1010.225,369.119l-10.248-0.008l0.05,4.887C1004.835,373.938,1008.087,371.707,1010.225,369.119z"/>
		<path opacity="0.15" fill="#C06838" d="M1010.225,369.119l-10.248-0.008l0.05,4.887
			C1004.835,373.938,1008.087,371.707,1010.225,369.119z"/>
		<path fill="#E4BB73" d="M1044.476,368H1028v0.784l17.262-0.379C1045.282,368.404,1044.456,368,1044.476,368z"/>
		<path opacity="0.15" fill="#C06838" d="M1044.476,368H1028v0.784l17.262-0.379C1045.282,368.404,1044.456,368,1044.476,368z"/>
		<polygon fill="#E4BB73" points="998.851,259.485 999.095,283.211 1060.193,283.247 1062.726,259.523 		"/>
		<polygon opacity="0.15" fill="#C06838" points="998.851,259.485 999.095,283.211 1060.193,283.247 1062.726,259.523 		"/>
		<polygon fill="#E4BB73" points="999.607,333.115 999.834,355.203 1052.208,355.23 1052.256,354.809 1054.698,333.145 		"/>
		<polygon opacity="0.15" fill="#C06838" points="999.607,333.115 999.834,355.203 1052.208,355.23 1052.256,354.809 
			1054.698,333.145 		"/>
		<path fill="#F8E69E" d="M1065.638,244c-0.115,0-0.254,2.282-0.382,2.85c0.317-0.932,0.618-1.287,0.975-2.224
			c8.153-22.375,27.713-45.718,39.693-58.81c3.572-3.376,7.015-6.81,10.24-10.499c4.523-5.174,8.537-10.119,12.294-15.793
			C1120.098,109.171,1076.194,71,1023.565,71h-26.66l1.811,173H1065.638z"/>
		<path opacity="0.15" fill="#C06838" d="M1065.638,244c-0.115,0-0.254,2.282-0.382,2.85c0.317-0.932,0.618-1.287,0.975-2.224
			c8.153-22.375,27.713-45.718,39.693-58.81c3.572-3.376,7.015-6.81,10.24-10.499c4.523-5.174,8.537-10.119,12.294-15.793
			C1120.098,109.171,1076.194,71,1023.565,71h-26.66l1.811,173H1065.638z"/>
		<path fill="#C7565F" d="M999.095,283.211l0.143,13.907l59.358,0.035c0.234-1.265,0.358-2.529,0.518-3.794l1.08-10.111
			L999.095,283.211z"/>
		<path opacity="0.15" fill="#C06838" d="M999.095,283.211l0.143,13.907l59.358,0.035c0.234-1.265,0.358-2.529,0.518-3.794
			l1.08-10.111L999.095,283.211z"/>
		<path fill="#C7565F" d="M999.834,355.088l0.143,13.966l10.248,0.037c-2.138,2.588-5.39,4.834-10.198,4.893l0.135,13.153
			c10.574,1.67,22.802-10.044,26.295-16.514c0.231-0.499,1.543-1.359,1.543-1.845V368h16.476h0.203h0.318
			c0.576,0,1.117,0.413,1.651,0.26c0.24-0.057,0.491,0.199,0.719,0.113c0.666-0.271,1.269-0.519,1.815-0.974
			c0.1-0.088,0.212-0.085,0.307-0.178c0.428-0.4,0.76-0.852,1.077-1.349c0.172-0.282,0.346-0.54,0.483-0.846
			c0.24-0.533,0.417-1.09,0.518-1.688c0.077-0.374,0.167-0.739,0.193-1.124l0.159-1.487l0.337-4.94l0.047-0.787h-0.047h-0.047
			L999.834,355.088z"/>
		<path opacity="0.15" fill="#C06838" d="M999.834,355.088l0.143,13.966l10.248,0.037c-2.138,2.588-5.39,4.834-10.198,4.893
			l0.135,13.153c10.574,1.67,22.802-10.044,26.295-16.514c0.231-0.499,1.543-1.359,1.543-1.845V368h16.476h0.203h0.318
			c0.576,0,1.117,0.413,1.651,0.26c0.24-0.057,0.491,0.199,0.719,0.113c0.666-0.271,1.269-0.519,1.815-0.974
			c0.1-0.088,0.212-0.085,0.307-0.178c0.428-0.4,0.76-0.852,1.077-1.349c0.172-0.282,0.346-0.54,0.483-0.846
			c0.24-0.533,0.417-1.09,0.518-1.688c0.077-0.374,0.167-0.739,0.193-1.124l0.159-1.487l0.337-4.94l0.047-0.787h-0.047h-0.047
			L999.834,355.088z"/>
		<path fill="#C7565F" d="M1063.276,254.781c0.509-2.234,1.204-5.653,1.979-7.932c0.129-0.568,0.267-2.85,0.382-2.85h-66.922
			l0.135,14.334l63.875,0.614l0.477-4.177C1063.224,254.678,1063.255,254.873,1063.276,254.781z"/>
		<path opacity="0.15" fill="#C06838" d="M1063.276,254.781c0.509-2.234,1.204-5.653,1.979-7.932c0.129-0.568,0.267-2.85,0.382-2.85
			h-66.922l0.135,14.334l63.875,0.614l0.477-4.177C1063.224,254.678,1063.255,254.873,1063.276,254.781z"/>
		<path fill="#C7565F" d="M1056,333.145v0.348c0-4.682-0.394-6.493,0.349-13.493h-0.083l-56.802-0.412l0.794,13.718L1056,333.145z"
			/>
		<path opacity="0.15" fill="#C06838" d="M1056,333.145v0.348c0-4.682-0.394-6.493,0.349-13.493h-0.083l-56.802-0.412l0.794,13.718
			L1056,333.145z"/>
		<path fill="#E4BB73" d="M199.582,374.02c0.069,0,0.122-0.021,0.19-0.022l-0.05-4.887l-11.597-0.009
			C190.853,371.76,194.621,374.015,199.582,374.02z"/>
		<path fill="#E4BB73" d="M199.688,387.927c2.876,0.003,5.423-0.49,7.803-1.195c-2.399,0.7-4.969,1.187-7.866,1.19
			C199.647,387.922,199.666,387.927,199.688,387.927z"/>
		<path fill="#E4BB73" d="M153.114,368.993c0.138,0.022,0.282,0.019,0.422,0.033c-0.261-0.013-0.499-0.099-0.751-0.141
			C152.901,368.909,152.998,368.975,153.114,368.993z"/>
		<path fill="#E4BB73" d="M257.592,305.217l1.672-14.832c-0.113,0.991-0.28,1.982-0.406,2.973L257.592,305.217z"/>
		<polygon fill="#E4BB73" points="199.579,355.203 199.353,333.115 144.246,333.084 144.691,337.479 146.486,355.175 		"/>
		<path fill="#E4BB73" d="M199.21,319.207l-0.227-22.09l-55.173-0.033c-0.491,0.001-0.971-0.028-1.441-0.082
			c-0.646-0.073-1.238-0.244-1.826-0.421l2.291,22.594L199.21,319.207z"/>
		<polygon fill="#E4BB73" points="259.939,285 260.069,285 262.744,258 262.472,258 		"/>
		<path fill="#E4BB73" d="M143.825,283.178l55.015,0.033l-0.244-23.726l-61.769-0.037l-0.094-0.436l0.38,3.749l2.073,20.436
			C140.454,283.151,143.163,283.178,143.825,283.178z"/>
		<path fill="#F8E69E" d="M338.293,141.689c10.166-20.831,15.604-43.337,15.622-66.886c0.001-1.444-0.151-3.803-0.19-3.803h-0.469
			c0.051,0,0.217,2.754,0.215,4.397C353.453,98.711,348.189,121.007,338.293,141.689z"/>
		<path fill="#F8E69E" d="M265.976,245.201c-0.357,0.937-0.658,1.867-0.975,2.8c-0.006,0.025-0.011,0.051-0.017,0.077
			C265.29,247.122,265.626,246.162,265.976,245.201z"/>
		<path fill="#F8E69E" d="M198.461,244L196.65,71h-20.221c-52.572,0-96.44,38.158-104.868,88.431
			c3.742,5.666,7.739,10.929,12.244,16.1c3.21,3.684,6.647,5.99,10.222,9.38C106.2,198.258,126.208,223,134.046,244H198.461z"/>
		<path fill="#C7565F" d="M258.859,293.234c0.126-0.991,0.293-2.043,0.406-3.034c0.271-2.38,0.551-4.2,1.025-7.2h-0.22h-0.131
			L258.859,293.234z"/>
		<path fill="#C7565F" d="M143.81,297.085l55.173,0.033l-0.143-13.907l-55.015,0.869c-0.662,0-3.372,0.921-4.639,0.921
			c-0.031,0-0.082,0-0.111,0l1.199,12.419c0.086,0.027,0.183-0.414,0.269-0.388c0.587,0.177,1.179,0.123,1.826,0.196
			C142.84,297.282,143.32,297.086,143.81,297.085z"/>
		<path fill="#C7565F" d="M245.094,369.136c0.473,0,0.864-0.205,1.299-0.308c-0.534,0.153-1.075,0.289-1.651,0.308H245.094z"/>
		<path fill="#C7565F" d="M250.312,365.907c-0.317,0.497-0.649,0.985-1.077,1.385C249.656,366.878,249.998,366.422,250.312,365.907z
			"/>
		<path fill="#C7565F" d="M251.313,363.347c-0.101,0.598-0.278,1.163-0.518,1.697C251.039,364.5,251.19,363.943,251.313,363.347z"/>
		<path fill="#C7565F" d="M251.599,361.673l0.066-0.944l-0.159,1.489C251.519,362.032,251.599,361.861,251.599,361.673z"/>
		<path fill="#C7565F" d="M248.928,367.54c-0.547,0.455-1.149,0.845-1.815,1.116C247.794,368.399,248.381,368.017,248.928,367.54z"
			/>
		<path fill="#C7565F" d="M199.908,387.144l-0.135-13.146c-0.068,0.001-0.121,0.022-0.19,0.022
			c-4.961-0.005-8.73-2.259-11.457-4.918l11.597,0.009l-0.143-13.996L146.486,355h-0.152c0.323,0,0.639,5.423,0.941,8.094
			c0.337,2.987,2.637,5.264,5.511,5.747c0.252,0.042,0.49-0.392,0.751-0.38c0.109,0.005,0.203-0.462,0.313-0.462h17.054
			c3.083,7,10.474,17.518,24,19.571c1.482,0.225,3.037,1.429,4.666,1.429c0.019,0,0.035,0,0.055,0c2.897,0,5.467-1.029,7.866-1.729
			c9.26-2.7,14.942-10.052,17.869-16.375C221.867,377.365,210.481,388.814,199.908,387.144z"/>
		<polygon fill="#C7565F" points="198.597,258.334 198.461,244 134.046,244 133.981,244 136.733,257.861 136.828,258.296 		"/>
		<path fill="#C7565F" d="M263.022,254.781c-0.021,0.091-0.052,0.423-0.073,0.515L262.472,260h0.272h0.092
			c0.13-4,1.244-7.709,2.147-11.684c0.006-0.025,0.011-0.17,0.017-0.196C264.226,250.399,263.531,252.547,263.022,254.781z"/>
		<path fill="#C7565F" d="M199.353,333.573l-0.143-13.724L142.835,320h-0.096c-0.022,0-0.041,0-0.063,0c0.817,7,0.655,7,1.493,14
			h0.076L199.353,333.573z"/>
		<path opacity="0.15" fill="#C06838" d="M249.235,367.291c-0.095,0.093-0.207,0.162-0.307,0.249
			C249.031,367.455,249.138,367.383,249.235,367.291z"/>
		<path opacity="0.15" fill="#C06838" d="M247.112,368.657c-0.228,0.086-0.479,0.114-0.719,0.171
			C246.632,368.76,246.885,368.749,247.112,368.657z"/>
		<path opacity="0.15" fill="#C06838" d="M304.692,186.103c-2.882,3.15-3.692,6.938-10.692,11.144v0.532
			c7-4.008,7.487-7.621,10.248-10.65c3.573-3.389,7.504-6.981,10.728-10.684c9.21-10.577,17.104-22.282,23.073-34.757
			c-5.906,12.104-13.755,23.48-22.751,33.772C312.074,179.15,308.264,182.728,304.692,186.103z"/>
		<path opacity="0.15" fill="#C06838" d="M256.094,320c-0.742,7-4.094,8.812-4.094,13.493v-0.5L251.954,355h0.094l-0.384,5.614
			l5.928-55.074L256.012,320H256.094z"/>
		<path opacity="0.15" fill="#C06838" d="M244.165,368.578l-18.105,0.269c-0.197,0.485-0.469,1.138-0.7,1.637
			c0.269-0.498,0.598-0.965,0.768-1.391l18.38-0.517c0.082,0,0.152-0.576,0.234-0.576h-0.521
			C244.202,368,244.185,368.578,244.165,368.578z"/>
		<path opacity="0.15" fill="#C06838" d="M287,206.764c-7,11.645-17.596,25.252-22.4,38.437c4.977-13.063,15.4-26.46,22.4-37.909
			V206.764z"/>
		<path opacity="0.15" fill="#C06838" d="M251.424,362.981l0.082-0.763c-0.026,0.386-0.115,0.754-0.193,1.129
			C251.335,363.218,251.409,363.112,251.424,362.981z"/>
		<path opacity="0.15" fill="#C06838" d="M250.795,365.043c-0.137,0.305-0.312,0.581-0.483,0.864
			C250.491,365.625,250.657,365.352,250.795,365.043z"/>
		<path fill="#009BDB" d="M288,206.764v0.528c3-3.361,5-6.548,8-9.512v-0.532C293,200.222,291,203.402,288,206.764z"/>
		<path opacity="0.15" fill="#C06838" d="M288,206.764v0.528c3-3.361,5-6.548,8-9.512v-0.532C293,200.222,291,203.402,288,206.764z"
			/>
		<polygon fill="#E4BB73" points="262.472,259.523 198.597,259.485 198.84,283.211 259.939,283.247 		"/>
		<polygon opacity="0.15" fill="#C06838" points="262.472,259.523 198.597,259.485 198.84,283.211 259.939,283.247 		"/>
		<path fill="#E4BB73" d="M258.341,297.152l-59.358-0.035l0.227,22.09l56.802,0.032l1.581-14.022l1.267-11.859
			C258.699,294.623,258.575,295.887,258.341,297.152z"/>
		<path opacity="0.15" fill="#C06838" d="M258.341,297.152l-59.358-0.035l0.227,22.09l56.802,0.032l1.581-14.022l1.267-11.859
			C258.699,294.623,258.575,295.887,258.341,297.152z"/>
		<path fill="#E4BB73" d="M209.971,369.119l-10.248-0.008l0.05,4.887C204.58,373.938,207.833,371.707,209.971,369.119z"/>
		<path opacity="0.15" fill="#C06838" d="M209.971,369.119l-10.248-0.008l0.05,4.887
			C204.58,373.938,207.833,371.707,209.971,369.119z"/>
		<polygon fill="#E4BB73" points="254.444,333.145 199.353,333.115 199.579,355.203 251.954,355.23 		"/>
		<polygon opacity="0.15" fill="#C06838" points="254.444,333.145 199.353,333.115 199.579,355.203 251.954,355.23 		"/>
		<path fill="#E4BB73" d="M244.221,368H224v0.784l19.135-0.379C243.155,368.404,244.202,368,244.221,368z"/>
		<path opacity="0.15" fill="#C06838" d="M244.221,368H224v0.784l19.135-0.379C243.155,368.404,244.202,368,244.221,368z"/>
		<path fill="#F8E69E" d="M265.383,244c-0.115,0-0.254,2.282-0.382,2.85c0.317-0.932,0.618-1.287,0.975-2.224
			c4.804-13.185,13.55-26.504,22.4-38.149c2.555-3.362,5.106-6.398,7.579-9.372c3.499-4.206,6.832-7.922,9.715-11.072
			c3.572-3.376,7.015-6.918,10.24-10.606c8.996-10.292,16.478-21.65,22.384-33.754c9.896-20.682,15.16-42.969,15.178-66.283
			c0.001-1.643-0.165-4.388-0.215-4.388H196.65l1.811,173H265.383z"/>
		<path opacity="0.15" fill="#C06838" d="M265.383,244c-0.115,0-0.254,2.282-0.382,2.85c0.317-0.932,0.618-1.287,0.975-2.224
			c4.804-13.185,13.55-26.504,22.4-38.149c2.555-3.362,5.106-6.398,7.579-9.372c3.499-4.206,6.832-7.922,9.715-11.072
			c3.572-3.376,7.015-6.918,10.24-10.606c8.996-10.292,16.478-21.65,22.384-33.754c9.896-20.682,15.16-42.969,15.178-66.283
			c0.001-1.643-0.165-4.388-0.215-4.388H196.65l1.811,173H265.383z"/>
		<path fill="#C7565F" d="M258.341,297.152c0.234-1.265,0.358-2.529,0.518-3.794l1.08-10.111l-61.099-0.036l0.143,13.907
			L258.341,297.152z"/>
		<path opacity="0.15" fill="#C06838" d="M258.341,297.152c0.234-1.265,0.358-2.529,0.518-3.794l1.08-10.111l-61.099-0.036
			l0.143,13.907L258.341,297.152z"/>
		<path fill="#C7565F" d="M251.954,355l-52.375,0.088l0.143,13.966l10.248,0.037c-2.138,2.588-5.39,4.834-10.198,4.893l0.135,13.153
			c10.574,1.67,20.929-10.044,24.423-16.514c0.231-0.499-0.33-1.359-0.33-1.845V368h20.221h0.521c0.576,0,1.117,0.413,1.651,0.26
			c0.24-0.057,0.491,0.199,0.719,0.113c0.666-0.271,1.269-0.519,1.815-0.974c0.1-0.088,0.212-0.085,0.307-0.178
			c0.428-0.4,0.76-0.852,1.077-1.349c0.172-0.282,0.346-0.54,0.483-0.846c0.24-0.533,0.417-1.09,0.518-1.688
			c0.077-0.374,0.167-0.739,0.193-1.124l0.159-1.602l0.384-5.612H251.954z"/>
		<path opacity="0.15" fill="#C06838" d="M251.954,355l-52.375,0.088l0.143,13.966l10.248,0.037
			c-2.138,2.588-5.39,4.834-10.198,4.893l0.135,13.153c10.574,1.67,20.929-10.044,24.423-16.514c0.231-0.499-0.33-1.359-0.33-1.845
			V368h20.221h0.521c0.576,0,1.117,0.413,1.651,0.26c0.24-0.057,0.491,0.199,0.719,0.113c0.666-0.271,1.269-0.519,1.815-0.974
			c0.1-0.088,0.212-0.085,0.307-0.178c0.428-0.4,0.76-0.852,1.077-1.349c0.172-0.282,0.346-0.54,0.483-0.846
			c0.24-0.533,0.417-1.09,0.518-1.688c0.077-0.374,0.167-0.739,0.193-1.124l0.159-1.602l0.384-5.612H251.954z"/>
		<path fill="#C7565F" d="M262.949,255.058c0.021-0.091,0.052-0.185,0.073-0.276c0.509-2.234,1.204-5.653,1.979-7.932
			c0.129-0.568,0.267-2.85,0.382-2.85h-66.922l0.135,14.334l63.875,0.614L262.949,255.058z"/>
		<path opacity="0.15" fill="#C06838" d="M262.949,255.058c0.021-0.091,0.052-0.185,0.073-0.276
			c0.509-2.234,1.204-5.653,1.979-7.932c0.129-0.568,0.267-2.85,0.382-2.85h-66.922l0.135,14.334l63.875,0.614L262.949,255.058z"/>
		<path fill="#C7565F" d="M252,333.493c0-4.682,3.352-6.493,4.094-13.493h-0.082l-56.802-0.412l-1.079,13.718L252,333.406V333.493z"
			/>
		<path opacity="0.15" fill="#C06838" d="M252,333.493c0-4.682,3.352-6.493,4.094-13.493h-0.082l-56.802-0.412l-1.079,13.718
			L252,333.406V333.493z"/>
		<path fill="#F8E69E" d="M900.997,954.236c-2.591,2.192-5.113,4.486-7.578,6.863c-0.658,0.634-1.374,1.185-2.022,1.832
			c-29.104,29.059-45.153,68.207-45.185,109.336c-0.016,20.157,4.042,37.734,11.53,58.734h139.803l-2.176-212.353
			C960.429,919.72,927.511,931.811,900.997,954.236z"/>
		<path fill="#F8E69E" d="M1023.828,919.721c-0.699-0.108-1.415-0.146-2.116-0.244c0.631,0.092,1.247,0.183,1.672,0.249
			c35.973,5.566,69.958,23.935,93.889,51.725c5.108,5.932,7.727,12.28,14.727,18.85v-0.956c-7-6.297-9.354-12.396-14.283-18.099
			c-17.447-20.184-40.24-35.301-64.963-44.202c-2.496-0.899-5.283-1.671-7.827-2.44
			C1038.108,922.544,1030.926,920.815,1023.828,919.721z"/>
		<path opacity="0.15" fill="#C06838" d="M993,917.989v0.164c7-0.051,4.466-0.238,6.128-0.237c7.165,0.006,13.75,0.574,20.808,1.561
			C1014.157,918.635,1000,916.908,993,917.989z"/>
		<path fill="#F8E69E" d="M1023.384,919.726c-0.425-0.066-1.042-0.157-1.672-0.249c-7.058-0.987-14.234-1.555-21.399-1.561
			c-1.662-0.001-3.291,0.68-4.944,0.731L997.545,1131h26.02c58.545,0,108.435-48.888,108.435-107.433v-33.266
			c-7-6.57-9.619-12.918-14.727-18.85C1093.343,943.662,1059.357,925.293,1023.384,919.726z"/>
		<path opacity="0.15" fill="#C06838" d="M1023.384,919.726c-0.425-0.066-1.042-0.157-1.672-0.249
			c-7.058-0.987-14.234-1.555-21.399-1.561c-1.662-0.001-3.291,0.68-4.944,0.731L997.545,1131h26.02
			c58.545,0,108.435-48.888,108.435-107.433v-33.266c-7-6.57-9.619-12.918-14.727-18.85
			C1093.343,943.662,1059.357,925.293,1023.384,919.726z"/>
		<path fill="#F8E69E" d="M749.737,1099.423c-1.698-9.215-4.253-18.226-7.578-26.947c-6.333-16.612-15.495-32.147-27.297-45.8
			c-23.93-27.684-56.92-45.982-92.893-51.526c-0.699-0.108-1.415-0.145-2.116-0.244c0.631,0.092,1.247,0.183,1.672,0.249
			c35.973,5.567,68.963,23.936,92.893,51.725c24.179,28.078,37.479,64.498,37.448,101.653c0,0.661-0.081,2.467-0.09,2.467h0.416
			c0.015,0,0.117-2.2,0.118-3.06C752.318,1118.48,751.43,1108.613,749.737,1099.423z"/>
		<path fill="#F8E69E" d="M590.895,973.707c-38.279,1.815-74.049,17.387-101.358,44.652c-22.024,21.989-36.534,49.482-42.324,79.374
			c-1.861,9.611-2.854,19.956-2.862,29.962c-0.001,0.942,0.108,3.305,0.125,3.305h150.639l-1.607-156.924
			C592.635,974.103,591.767,973.666,590.895,973.707z"/>
		<path opacity="0.15" fill="#C06838" d="M619.38,974.906c-4.619-0.673-14.38-1.879-21.38-1.8v0.239
			C605,973.352,612.328,973.92,619.38,974.906z"/>
		<path fill="#009BDB" d="M593.51,973.409c1.654-0.051,3.282-0.409,4.944-0.409c0.007,0-0.454,0-0.454,0v0.107
			c-1,0.02-3.318,0.008-4.729,0.225L593.51,973.409z"/>
		<path opacity="0.15" fill="#C06838" d="M593.51,973.409c1.654-0.051,3.282-0.409,4.944-0.409c0.007,0-0.454,0-0.454,0v0.107
			c-1,0.02-3.318,0.008-4.729,0.225L593.51,973.409z"/>
		<path fill="#F8E69E" d="M714.418,1026.88c-23.93-27.79-56.92-46.159-92.893-51.725c-0.425-0.066-1.042-1.33-1.672-1.422
			c-7.052-0.986-14.221-2.733-21.38-2.733c-0.007,0-0.013,0-0.02,0c-1.662,0-3.291,1.852-4.944,1.903L595.116,1131h156.66
			c0.009,0,0.09-1.806,0.09-2.467C751.897,1091.378,738.597,1054.959,714.418,1026.88z"/>
		<path opacity="0.15" fill="#C06838" d="M714.418,1026.88c-23.93-27.79-56.92-46.159-92.893-51.725
			c-0.425-0.066-1.042-1.33-1.672-1.422c-7.052-0.986-14.221-2.733-21.38-2.733c-0.007,0-0.013,0-0.02,0
			c-1.662,0-3.291,1.852-4.944,1.903L595.116,1131h156.66c0.009,0,0.09-1.806,0.09-2.467
			C751.897,1091.378,738.597,1054.959,714.418,1026.88z"/>
		<path fill="#E4BB73" d="M542.22,172.32l55.015,0.033l-0.244-23.726l-61.769-0.037l-0.094-0.436l2.453,24.185
			C538.849,172.293,541.558,172.32,542.22,172.32z"/>
		<path fill="#E4BB73" d="M655.988,194.359l1.672-14.832c-0.113,0.991-0.28,1.982-0.406,2.972L655.988,194.359z"/>
		<polygon fill="#E4BB73" points="658.334,174 658.464,174 661.139,147 660.867,147 		"/>
		<path fill="#E4BB73" d="M551.51,258.135c0.138,0.022,0.282,0.019,0.422,0.033c-0.261-0.013-0.499-0.099-0.751-0.141
			C551.296,258.051,551.393,258.118,551.51,258.135z"/>
		<polygon fill="#E4BB73" points="597.974,244.345 597.748,222.257 542.641,222.227 544.881,244.317 		"/>
		<path fill="#E4BB73" d="M597.605,208.349l-0.227-22.09l-55.173-0.033c-0.491,0.001-0.971-0.028-1.441-0.082
			c-0.646-0.073-1.238-0.244-1.826-0.421l2.291,22.594L597.605,208.349z"/>
		<path fill="#E4BB73" d="M598.02,277.065c0.022,0,0.041,0.005,0.063,0.005c0.138,0,0.253-0.033,0.39-0.035
			c2.715-0.034,5.147-0.489,7.413-1.16C603.487,276.575,600.917,277.062,598.02,277.065z"/>
		<path fill="#E4BB73" d="M586.52,258.244c2.727,2.659,6.496,4.913,11.457,4.918c0.069,0,0.122-0.021,0.19-0.022l-0.05-4.887
			L586.52,258.244z"/>
		<path fill="#F8E69E" d="M663.379,137.22c0.307-0.955,0.642-1.915,0.992-2.876c-0.357,0.937-0.658,1.867-0.975,2.8
			C663.39,137.168,663.385,137.194,663.379,137.22z"/>
		<path fill="#F8E69E" d="M596.856,133l-0.672-62H487.54c1.635,0,3.175,1.742,4.882,3.361C504.595,87.709,524.603,112,532.441,133
			H596.856z"/>
		<path fill="#C7565F" d="M542.206,186.227l55.173,0.033l-0.143-13.907l-55.015,0.798c-0.662,0-3.372,0.849-4.639,0.849
			c-0.031,0-0.082,0-0.111,0l1.199,12.491c0.086,0.027,0.183-0.379,0.269-0.352c0.587,0.177,1.179,0.141,1.826,0.214
			C541.235,186.406,541.715,186.228,542.206,186.227z"/>
		<path fill="#C7565F" d="M657.254,182.305c0.126-0.991,0.293-2.079,0.406-3.07c0.271-2.38,0.551-4.236,1.025-7.236h-0.22h-0.131
			L657.254,182.305z"/>
		<path fill="#C7565F" d="M649.708,252.489c-0.101,0.598-0.278,1.163-0.518,1.697C649.434,253.642,649.585,253.085,649.708,252.489z
			"/>
		<path fill="#C7565F" d="M643.49,258.278c0.473,0,0.864-0.205,1.299-0.308c-0.534,0.153-1.075,0.289-1.651,0.308H643.49z"/>
		<path fill="#C7565F" d="M647.323,256.683c-0.547,0.455-1.149,0.845-1.815,1.116C646.189,257.542,646.776,257.159,647.323,256.683z
			"/>
		<path fill="#C7565F" d="M648.707,255.049c-0.317,0.497-0.649,0.985-1.077,1.385C648.051,256.021,648.393,255.565,648.707,255.049z
			"/>
		<path fill="#C7565F" d="M649.994,250.815l0.066-0.944l-0.159,1.489C649.914,251.174,649.994,251.003,649.994,250.815z"/>
		<path fill="#C7565F" d="M597.966,278c0.019,0,0.035,0,0.055,0c2.897,0,5.467-0.958,7.866-1.658
			c9.26-2.7,14.942-10.017,17.869-16.34c-3.493,6.469-14.879,18.07-25.453,16.4l-0.135-13.204c-0.068,0.001-0.121-0.139-0.19-0.139
			c-4.961-0.005-8.73-5.059-11.457-5.059h11.597l-0.143-13.94L544.881,244h-0.152c0.323,0,0.639,5.494,0.941,8.165
			c0.337,2.987,2.637,5.299,5.511,5.783c0.253,0.042,0.49,0.054,0.751,0.067c0.109,0.005,0.203-0.015,0.313-0.015h17.054
			c2.89,7,9.633,15.146,21.596,18.03c0.801,0.193,1.555,0.97,2.404,1.099C594.781,277.354,596.336,278,597.966,278z"/>
		<polygon fill="#C7565F" points="596.992,147.405 596.856,133 532.441,133 532.376,133 535.128,146.932 535.223,147.367 		"/>
		<path fill="#C7565F" d="M661.417,143.924c-0.021,0.091-0.052,0.352-0.073,0.444L660.867,149h0.272h0.092
			c0.13-3,1.244-7.638,2.147-11.613c0.006-0.025,0.011-0.135,0.017-0.16C662.621,139.505,661.926,141.69,661.417,143.924z"/>
		<path fill="#C7565F" d="M597.748,222.644l-0.143-13.76L541.23,209h-0.096c-0.022,0-0.041,0-0.063,0c0.817,7,0.655,7,1.493,14
			h0.076L597.748,222.644z"/>
		<path opacity="0.15" fill="#C06838" d="M649.19,254.186c-0.137,0.305-0.312,0.581-0.483,0.864
			C648.886,254.767,649.052,254.494,649.19,254.186z"/>
		<path opacity="0.15" fill="#C06838" d="M647.63,256.434c-0.095,0.093-0.207,0.162-0.307,0.249
			C647.426,256.597,647.533,256.525,647.63,256.434z"/>
		<path opacity="0.15" fill="#C06838" d="M642.56,258.15l-18.105,0.055c-0.197,0.485-0.469,1.031-0.7,1.53
			c0.269-0.498,0.598-1.019,0.768-1.445l18.38-0.115c0.082,0,0.152-0.174,0.234-0.174h-0.521
			C642.597,258,642.58,258.15,642.56,258.15z"/>
		<path opacity="0.15" fill="#C06838" d="M645.508,257.799c-0.227,0.086-0.479,0.114-0.719,0.171
			C645.027,257.902,645.28,257.891,645.508,257.799z"/>
		<path opacity="0.15" fill="#C06838" d="M649.819,252.124l0.082-0.763c-0.026,0.386-0.115,0.754-0.193,1.129
			C649.73,252.36,649.805,252.255,649.819,252.124z"/>
		<path opacity="0.15" fill="#C06838" d="M654.489,209c-0.742,7-0.489,8.954-0.489,13.636v-0.5L650.349,244h0.094l-0.384,5.685
			l5.928-55.109L654.407,209H654.489z"/>
		<path opacity="0.15" fill="#C06838" d="M664.371,134.343c8.413-22.085,27.492-44.667,39.249-57.564
			c2.102-1.994,4.03-5.779,6.024-5.779h-0.52c-1.691,0-3.295,3.084-5.059,4.752C692.084,88.844,672.524,111.969,664.371,134.343z"/>
		<path fill="#E4BB73" d="M608.366,258.261l-10.248-0.008l0.05,4.887C602.975,263.081,606.228,260.849,608.366,258.261z"/>
		<path opacity="0.15" fill="#C06838" d="M608.366,258.261l-10.248-0.008l0.05,4.887
			C602.975,263.081,606.228,260.849,608.366,258.261z"/>
		<path fill="#E4BB73" d="M656.736,186.294l-59.358-0.035l0.227,22.09l56.802,0.032l1.581-14.022l1.267-11.859
			C657.094,183.765,656.97,185.029,656.736,186.294z"/>
		<path opacity="0.15" fill="#C06838" d="M656.736,186.294l-59.358-0.035l0.227,22.09l56.802,0.032l1.581-14.022l1.267-11.859
			C657.094,183.765,656.97,185.029,656.736,186.294z"/>
		<path fill="#E4BB73" d="M642.616,258H626v-0.074l17.333,0.05C643.352,257.976,642.597,258,642.616,258z"/>
		<path opacity="0.15" fill="#C06838" d="M642.616,258H626v-0.074l17.333,0.05C643.352,257.976,642.597,258,642.616,258z"/>
		<polygon fill="#E4BB73" points="650.349,244.372 652.839,222.288 597.748,222.257 597.974,244.345 		"/>
		<polygon opacity="0.15" fill="#C06838" points="650.349,244.372 652.839,222.288 597.748,222.257 597.974,244.345 		"/>
		<polygon fill="#E4BB73" points="658.334,172.389 660.867,148.665 596.992,148.627 597.235,172.353 		"/>
		<polygon opacity="0.15" fill="#C06838" points="658.334,172.389 660.867,148.665 596.992,148.627 597.235,172.353 		"/>
		<path fill="#F8E69E" d="M663.778,133c-0.115,0-0.254,2.353-0.382,2.921c0.317-0.932,0.618-1.252,0.975-2.189
			c8.153-22.375,27.713-45.194,39.693-58.286c1.765-1.668,3.368-4.446,5.059-4.446h-112.94l0.672,62H663.778z"/>
		<path opacity="0.15" fill="#C06838" d="M663.778,133c-0.115,0-0.254,2.353-0.382,2.921c0.317-0.932,0.618-1.252,0.975-2.189
			c8.153-22.375,27.713-45.194,39.693-58.286c1.765-1.668,3.368-4.446,5.059-4.446h-112.94l0.672,62H663.778z"/>
		<path fill="#C7565F" d="M656.736,186.294c0.234-1.265,0.358-2.529,0.518-3.794l1.08-10.111l-61.099-0.036l0.143,13.907
			L656.736,186.294z"/>
		<path opacity="0.15" fill="#C06838" d="M656.736,186.294c0.234-1.265,0.358-2.529,0.518-3.794l1.08-10.111l-61.099-0.036
			l0.143,13.907L656.736,186.294z"/>
		<path fill="#C7565F" d="M650.349,244l-52.375,0.159l0.143,14.002l10.248,0.055c-2.138,2.588-5.39,4.842-10.198,4.902l0.135,13.158
			c10.574,1.67,22.732-10.042,26.225-16.511c0.231-0.499,1.472-1.357,1.472-1.842V258h16.616h0.521c0.576,0,1.117-0.016,1.651-0.169
			c0.24-0.057,0.491-0.015,0.719-0.101c0.667-0.271,1.269-0.626,1.815-1.082c0.1-0.088,0.212-0.138,0.307-0.232
			c0.428-0.4,0.76-0.879,1.077-1.376c0.172-0.282,0.346-0.554,0.483-0.859c0.24-0.533,0.417-1.096,0.518-1.694
			c0.077-0.374,0.167-0.742,0.193-1.128l0.159-1.675l0.384-5.685H650.349z"/>
		<path opacity="0.15" fill="#C06838" d="M650.349,244l-52.375,0.159l0.143,14.002l10.248,0.055
			c-2.138,2.588-5.39,4.842-10.198,4.902l0.135,13.158c10.574,1.67,22.732-10.042,26.225-16.511
			c0.231-0.499,1.472-1.357,1.472-1.842V258h16.616h0.521c0.576,0,1.117-0.016,1.651-0.169c0.24-0.057,0.491-0.015,0.719-0.101
			c0.667-0.271,1.269-0.626,1.815-1.082c0.1-0.088,0.212-0.138,0.307-0.232c0.428-0.4,0.76-0.879,1.077-1.376
			c0.172-0.282,0.346-0.554,0.483-0.859c0.24-0.533,0.417-1.096,0.518-1.694c0.077-0.374,0.167-0.742,0.193-1.128l0.159-1.675
			l0.384-5.685H650.349z"/>
		<path fill="#C7565F" d="M660.867,148.665l0.477-4.465c0.021-0.091,0.052-0.185,0.073-0.276c0.509-2.234,1.204-5.724,1.979-8.003
			c0.129-0.568,0.267-2.921,0.382-2.921h-66.922l0.135,14.405L660.867,148.665z"/>
		<path opacity="0.15" fill="#C06838" d="M660.867,148.665l0.477-4.465c0.021-0.091,0.052-0.185,0.073-0.276
			c0.509-2.234,1.204-5.724,1.979-8.003c0.129-0.568,0.267-2.921,0.382-2.921h-66.922l0.135,14.405L660.867,148.665z"/>
		<path fill="#C7565F" d="M654,222.288v0.348c0-4.682-0.253-6.636,0.489-13.636h-0.082l-56.802-0.341l0.723,13.753L654,222.288z"/>
		<path opacity="0.15" fill="#C06838" d="M654,222.288v0.348c0-4.682-0.253-6.636,0.489-13.636h-0.082l-56.802-0.341l0.723,13.753
			L654,222.288z"/>
		<path fill="#F8E69E" d="M144.691,928.23c-2.558,0.983-5.077,2.043-7.578,3.163c-16.886,7.558-31.479,18.075-44.964,31.538
			C84.017,971.051,79,979.983,72,989.446v34.121C72,1082.112,117.884,1131,176.429,1131h20.861l-2.176-212.353
			C177.613,919.184,160.634,922.105,144.691,928.23z"/>
		<path fill="#F8E69E" d="M316.467,971.247c-6.247-7.227-13.139-13.775-20.512-19.663c-2.461-1.966-5.008-3.809-7.579-5.616
			c-19.23-13.518-41.355-22.633-64.802-26.247c-0.699-0.108-1.415-0.146-2.116-0.244c0.631,0.092,1.247,0.183,1.672,0.249
			c35.973,5.566,68.963,23.935,92.893,51.725c24.179,28.079,37.478,64.498,37.448,101.653c-0.015,19.85-3.936,36.896-11.176,57.896
			h0.096c7.456-21,11.509-38.416,11.525-58.489C353.945,1035.498,340.645,999.217,316.467,971.247z"/>
		<path opacity="0.15" fill="#C06838" d="M197,917.989v0.164c0-0.051,2.339-0.238,4.001-0.237
			c7.165,0.006,14.814,0.574,21.872,1.561C217.093,918.635,204,916.908,197,917.989z"/>
		<path fill="#F8E69E" d="M316.023,971.451c-23.931-27.79-56.921-46.159-92.893-51.725c-0.425-0.066-1.042-0.157-1.672-0.249
			c-7.058-0.987-14.234-1.555-21.399-1.561c-1.662-0.001-3.29,0.68-4.944,0.731L197.29,1131h145.005
			c7.24-21,11.161-38.046,11.176-57.896C353.502,1035.949,340.202,999.53,316.023,971.451z"/>
		<path opacity="0.15" fill="#C06838" d="M316.023,971.451c-23.931-27.79-56.921-46.159-92.893-51.725
			c-0.425-0.066-1.042-0.157-1.672-0.249c-7.058-0.987-14.234-1.555-21.399-1.561c-1.662-0.001-3.29,0.68-4.944,0.731L197.29,1131
			h145.005c7.24-21,11.161-38.046,11.176-57.896C353.502,1035.949,340.202,999.53,316.023,971.451z"/>
	</g>
	<g>
		<path fill="#E4BB73" d="M513.429,748.117c0.301,1.124,0.64,2.254,0.888,3.368l14.68,144.747c0.428,4.229,3.672,7.552,7.759,8.181
			c0.459,0.071,0.928,0.107,1.406,0.108l22.896,0.018c4.027,7.691,13.68,21.79,31.346,24.513c1.935,0.298,3.966,0.46,6.095,0.461
			c19.586,0.017,30.221-13.991,34.596-24.918l24.367,0.021c4.697,0.004,8.643-3.521,9.169-8.187l16.32-144.769
			c0.262-1.171,0.619-2.359,0.939-3.543H513.429z"/>
		<path fill="#F4E789" d="M753.313,380.143c-31.725-36.701-75.461-60.959-123.148-68.309c-10.245-1.578-20.732-2.384-31.175-2.392
			c-54.525-0.043-105.804,21.15-144.392,59.675c-38.583,38.524-59.858,89.768-59.901,144.292
			c-0.039,49.358,17.78,97.015,50.174,134.194c4.255,4.883,8.813,9.636,13.551,14.129c17.855,19.577,48.492,56.902,55.845,89.563
			h168.782c7.46-32.619,38.086-69.819,55.949-89.34c4.736-4.476,9.299-9.219,13.575-14.109
			c32.452-37.126,50.347-84.755,50.384-134.113C802.997,464.666,785.367,417.222,753.313,380.143z"/>
		<g>
			<path fill="#B32350" d="M524.441,790.648c-0.899-0.001-4.676-0.041-6.297,0.028l1.589,17.658c0.888,0.277,1.793,0.53,2.778,0.642
				c0.624,0.071,1.26,0.109,1.91,0.108l151.834,0.089c1.136-6.148,1.357-12.293,2.582-18.434L524.441,790.648z"/>
			<path fill="#B32350" d="M667.913,886.167l-140.146-0.073c0.429,3.535,0.847,7.073,1.247,10.615
				c0.503,4.454,4.235,7.824,8.717,7.825l22.609,0.006c4.088,7.691,13.886,21.79,31.818,24.513c1.964,0.298,4.026,0.46,6.187,0.461
				c19.882,0.017,30.674-13.991,35.117-24.918l25.233,0.006c5.091,0.001,8.623-4.802,8.623-9.893L667.913,886.167z M598.359,911.077
				c-6.578-0.006-11.574-2.995-15.189-6.521l28.96,0.024C609.255,908.059,604.883,911.081,598.359,911.077z"/>
			<path fill="#B32350" d="M511.391,741.761l3.774,17.428l167.049,0.1c0.199-4.815,2.145-11.685,3.377-17.527H511.391z"/>
			<path fill="#B32350" d="M522.919,838.377c1.082,6.114,0.868,12.255,1.979,18.431l146.194,0.081
				c1.132-6.207,1.202-12.359,2.185-18.436L523,838.37C522.972,838.37,522.946,838.377,522.919,838.377z"/>
		</g>
		<path opacity="0.15" fill="#C06838" d="M752.725,380.414c-31.725-36.841-75.46-61.193-123.149-68.572
			c-5.73-0.886-26.814-3.893-37.143-2.304l6.356,618.938c15.096,2.384,31.606-15.927,34.761-23.836l24.367,0.021
			c4.696,0.004,8.642-3.534,9.168-8.217l15.279-143.075c0.026-0.121,0.068-0.245,0.096-0.366
			c7.46-32.745,38.086-70.09,55.949-89.685c4.736-4.493,9.3-9.255,13.575-14.163c32.452-37.27,50.347-85.083,50.385-134.632
			C802.41,465.264,784.778,417.637,752.725,380.414z"/>
	</g>
</g>
</svg>
