<?xml version="1.0" encoding="utf-8"?>
<!-- Generator: Adobe Illustrator 19.1.0, SVG Export Plug-In . SVG Version: 6.00 Build 0)  -->
<svg version="1.1" id="Layer_1" xmlns="http://www.w3.org/2000/svg" xmlns:xlink="http://www.w3.org/1999/xlink" x="0px" y="0px"
	 viewBox="0 0 1200 1200" enable-background="new 0 0 1200 1200" xml:space="preserve">
<g>
	<path fill="#009CBA" d="M994.364,1117.649H222.9c-114.139,0-156.727-41.961-156.727-166.566V162.573
		C66.172,112.806,109.419,50,186.182,50h808.071c91.415,0,139.569,62.806,139.569,139.568v799.238
		C1134.576,1085.768,1072.661,1117.649,994.364,1117.649z"/>
	<path fill="#009CBA" d="M1011.11,1098.252H188.884c-56.823,0-103.315-46.492-103.315-103.315V172.711
		c0-56.823,46.492-103.314,103.315-103.314h822.226c56.823,0,103.314,46.491,103.314,103.314v822.226
		C1114.424,1051.761,1067.933,1098.252,1011.11,1098.252z"/>
	<g>
		<defs>
			<path id="SVGID_1_" d="M1011.11,1098.252H188.884c-56.823,0-103.315-46.492-103.315-103.315V172.711
				c0-56.823,46.492-103.314,103.315-103.314h822.226c56.823,0,103.314,46.491,103.314,103.314v822.226
				C1114.424,1051.761,1067.933,1098.252,1011.11,1098.252z"/>
		</defs>
		<clipPath id="SVGID_2_">
			<use xlink:href="#SVGID_1_"  overflow="visible"/>
		</clipPath>
		<g clip-path="url(#SVGID_2_)">
			<g>
				<polygon fill-rule="evenodd" clip-rule="evenodd" fill="#A87720" points="577.328,207.826 333.585,207.826 333.585,865.077 
					689.474,865.077 689.474,356.235 				"/>
			</g>
			<g>
				<polygon fill-rule="evenodd" clip-rule="evenodd" fill="#EDC620" points="854.563,146.866 501.224,146.866 501.224,804.117 
					1017.132,804.117 1017.132,295.275 				"/>
				<polygon fill-rule="evenodd" clip-rule="evenodd" fill="#FFFFFF" points="852.233,170.421 852.233,304.7 1000.644,304.7 				"/>
			</g>
			<path fill-rule="evenodd" clip-rule="evenodd" fill="#003750" d="M182.675,409.736l1.964,492.393h598.139V465.904H491.327
				c0,0-14.29,4.763-28.574-9.523c-14.286-14.288-38.096-45.716-38.096-45.716L182.675,409.736z"/>
			<g>
				<path fill-rule="evenodd" clip-rule="evenodd" fill="#344B94" d="M910.416,424.141L910.416,424.141
					c-3.796,0.005-6.906-3.088-6.908-6.877l-0.077-22.96c-0.008-3.795,3.078-6.896,6.871-6.906l0,0
					c3.795-0.01,6.896,3.071,6.911,6.859l0.067,22.967C917.295,421.013,914.203,424.121,910.416,424.141z"/>
				<polygon fill-rule="evenodd" clip-rule="evenodd" fill="#7384BB" points="907.149,621.457 917.753,621.423 917.129,413.613 
					906.521,413.641 				"/>
				<g>
					<path fill-rule="evenodd" clip-rule="evenodd" fill="#003750" d="M939.5,1045.647l-55.103,0.171
						c-9.382,0.032-17.076-7.618-17.106-17.006l-1.645-545.816c-0.035-9.108,27.296-66.467,34.394-76.052
						c2.269-3.073,18.216-2.964,20.509,0.097c7.191,9.604,34.289,66.394,34.323,75.672l1.637,545.833
						C956.539,1037.924,948.887,1045.619,939.5,1045.647z"/>
					<path fill-rule="evenodd" clip-rule="evenodd" fill="#EDC620" d="M913.732,1150L913.732,1150
						c30.77-0.085,55.863-25.339,55.773-56.103l-0.729-242.85l-111.888,0.336l0.734,242.85
						C857.718,1124.995,882.968,1150.106,913.732,1150z"/>
					<path fill-rule="evenodd" clip-rule="evenodd" fill="#FFFFFF" d="M912.537,1029.543L912.537,1029.543
						c10.609-0.034,19.254-8.742,19.226-19.348l-0.9-298.895c-0.034-10.61-8.737-19.252-19.344-19.232l0,0
						c-10.604,0.035-19.261,8.746-19.224,19.343l0.9,298.906C893.23,1020.921,901.932,1029.578,912.537,1029.543z"/>
				</g>
			</g>
		</g>
	</g>
</g>
</svg>
