<?xml version="1.0" encoding="utf-8"?>
<!-- Generator: Adobe Illustrator 19.1.0, SVG Export Plug-In . SVG Version: 6.00 Build 0)  -->
<svg version="1.1" id="Layer_1" xmlns="http://www.w3.org/2000/svg" xmlns:xlink="http://www.w3.org/1999/xlink" x="0px" y="0px"
	 viewBox="0 0 1200 1200" enable-background="new 0 0 1200 1200" xml:space="preserve">
<g>
	<path fill="none" d="M125.864,728.829L126.284,598h-0.001l-0.541,130.829c-0.015,7.207,3.47,13.565,8.866,17.439
		C129.266,742.394,125.849,736.036,125.864,728.829z"/>
	<path fill="none" d="M781.312,490.474c2.345,1.865,4.889,3.307,7.844,4.495c1.87,0.754,3.709,2.031,5.656,2.031h0.004
		c-1.948,0-3.789-1.281-5.66-2.035c-2.956-1.188-5.5-2.684-7.845-4.549c-2.452-1.935-4.169-4.352-5.654-7.217
		c0.043,0.083,0.092,0.161,0.136,0.244C777.25,486.206,778.927,488.592,781.312,490.474z"/>
	<path fill="none" d="M147.806,442c-4.563,0-8.708,1.428-12.105,3.854c3.43-2.425,7.603-3.854,12.164-3.854H147.806z"/>
	<path fill="none" d="M794.781,501h0.018H794.781c-1.948-7-3.895-3.281-5.767-4.035c-2.956-1.188-5.641-3.684-7.987-5.549
		c-2.381-1.879-3.796-4.728-5.234-7.486c-0.041-0.078-0.094-0.376-0.135-0.454c1.485,2.866,2.917,5.182,5.369,7.117
		c2.345,1.865,5.031,3.35,7.987,4.538c1.872,0.754,3.783,0.444,5.731,1.115L793.325,535c0.006,0,0.012,0,0.018,0L794.781,501z"/>
	<polygon fill="none" points="773.228,526.183 773.228,526.183 771.57,526.287 	"/>
	<path fill="#D00F2E" d="M1007.665,50h-831.32C97.373,50,50,112.585,50,163.784v811.198C50,1103.171,96.696,1150,214.118,1150
		h765.314c127.431,0,170.568-68.679,170.568-170.515V191.557C1150,112.585,1101.709,50,1007.665,50z M801,248h82v20h-82V248z
		 M1006,296v27H822v-27H1006z M938,740H801v-28h137V740z M1061,637.307c0,7.995-9.231,13.693-17.221,13.693H761.459l0.032,14H883v27
		H761.555l0.606,258.492c0,64.066-65.655,69.508-65.655,69.508H410.32c-59.583,0-66.32-63.887-66.32-63.887V750.682l-197.072-0.718
		c-4.568-0.017-8.822-1.491-12.2-3.941c-5.396-3.875-8.94-10.987-8.926-18.194L126.283,596h-0.541l0.26-37.5l0.017-37.5h0.243l0,0
		h0.264l0.187-57.865c0.027-7.21,3.561-14.994,8.987-18.831c3.397-2.426,7.542-5.304,12.105-5.304H145v1.774l199,2.353v-148.46
		C344,227.079,413.657,227,413.657,227s221.92,0,285.198,0c63.305,0,61.755,60.738,61.755,60.738L760.741,343h283.038
		c7.99,0,17.221,8.199,17.221,16.185V637.307z"/>
	<path fill="#D00F2E" d="M810.208,493.059c3.213,1.188,6.152,2.699,8.734,4.494C816.36,495.758,813.421,494.247,810.208,493.059
		c-2.108-0.778-4.244-1.535-6.399-2.259v0C805.965,491.525,808.1,492.282,810.208,493.059z"/>
	<path fill="#D00F2E" d="M775.679,483.224c-1.503-2.896-1.679-6.492-1.679-10.653c0,0.005,0,0.01,0,0.015
		c0,4.167,0.174,7.753,1.679,10.652c0.041,0.078,0.094,0.139,0.135,0.217C775.771,483.372,775.722,483.307,775.679,483.224z"/>
	<path fill="#D00F2E" d="M781.312,490.474c-2.385-1.882-4.062-4.255-5.519-7.019c1.439,2.758,2.854,5.133,5.234,7.012
		c2.345,1.865,5.031,5.311,7.987,6.498c1.872,0.754,3.819-2.965,5.767,4.035h0.018h0.014c-1.947-7-3.786-3.278-5.656-4.031
		C786.201,495.781,783.657,492.339,781.312,490.474z"/>
	<path fill="#D00F2E" d="M814.035,449.697c3.66,1.605,7.123,4.1,10.292,7.409l2.036,2.129l0.022-0.034l-2.058-2.209
		c-3.169-3.309-6.632-5.918-10.292-7.523c-2.614-1.149-5.528-2.141-8.701-2.519l-0.016,0.451
		C808.497,447.779,811.416,448.546,814.035,449.697z"/>
	<path fill="#D00F2E" d="M820.357,536.772c-2.602,2.692-5.788,4.847-9.474,6.439c-2.729,1.174-5.748,1.925-9.004,2.312l-0.4,12.103
		l0.4-12.037c3.256-0.387,6.275-1.171,9.004-2.345c3.686-1.591,6.872-3.763,9.474-6.455c2.589-2.689,4.44-5.865,5.798-9.441
		c1.321-3.5,1.845-7.316,1.845-11.346V516c0,4.029-0.524,7.841-1.845,11.339C824.797,530.916,822.946,534.083,820.357,536.772z"/>
	<polygon fill="#D00F2E" points="793.059,546 792.614,558.634 793.061,546 	"/>
	<path fill="#D00F2E" d="M770.586,527.004l0.984-0.717l1.658-0.103l-1.658,0.103L770.586,527.004
		c-0.17,0.126-0.475,0.302-1.142,0.953L767,530.365v0.001l2.443-2.408C770.11,527.308,770.416,527.131,770.586,527.004z"/>
	<path fill="#FEF48C" d="M344,522.812v-79.686L147.867,442h-0.002c-4.561,0-8.734,1.635-12.164,4.061
		c-5.426,3.837-8.961,10.274-8.987,17.484l0.051,58.43L344,522.812z"/>
	<path fill="#FEF48C" d="M262,692v-27h82v-21h-41v-20h41v-25.7l-217.478-0.792l-0.54,131.075
		c-0.015,7.207,3.342,13.565,8.685,17.439c3.378,2.45,7.721,3.924,12.29,3.941L344,750.682V692H262z"/>
	<polygon fill="#FEF48C" points="126.019,521 126.002,558.74 126.262,521 	"/>
	<polygon fill="#FEF48C" points="344,598.3 344,522.812 126.527,521 125,521 125,521.575 125.371,558.787 125.742,596 125,596 
		125,596.893 	"/>
	<polygon opacity="0.2" fill="#305544" points="344,598.3 344,522.812 126.527,521 125,521 125,521.575 125.371,558.787 
		125.742,596 125,596 125,596.893 	"/>
	<path fill="#FFFFFF" d="M521.194,309h63.013c4.241,0,7.664-2.522,7.664-6.5c0-3.982-3.424-6.5-7.664-6.5h-63.013
		c-4.259,0-7.664,2.517-7.664,6.5C513.53,306.478,516.935,309,521.194,309z"/>
	<path d="M733,897H378V692h-2.603h-30.902H344v58.682v205.431c0,0,6.737,63.887,66.32,63.887h286.185
		c0,0,65.655-5.443,65.655-69.508L761.555,692H733V897z M568.008,954.681c0,3.754-2.005,3.319-2.638,3.319h-16.622
		c-3.579,0-6.749-2.072-6.749-2.461v-16.669c0-1.739,5.283-0.869,5.836-0.869h16.136c3.75,0,4.036,2.662,4.07,2.817L568.008,954.681
		z"/>
	<polygon points="733,665 761.491,665 761.459,651 733,651 	"/>
	<polygon points="375.397,665 378,665 378,644 375.397,644 344.495,644 344,644 344,665 344.495,665 	"/>
	<path d="M344,598.3V624h0.495h30.902H378V364h164v-3.368v-1.447c0-7.986,3.019-16.185,11.01-16.185h207.732l-0.131-55.262
		c0,0,1.55-60.738-61.755-60.738c-63.279,0-285.198,0-285.198,0S344,227.079,344,294.666v148.46v79.686V598.3z M521.194,296h63.013
		c4.241,0,7.664,2.517,7.664,6.5c0,3.978-3.424,6.5-7.664,6.5h-63.013c-4.259,0-7.664-2.522-7.664-6.5
		C513.53,298.517,516.935,296,521.194,296z"/>
	<path fill="#FFFFFF" d="M563.972,938h-16.136c-0.553,0-5.836-0.87-5.836,0.869v16.669c0,0.389,3.17,2.461,6.749,2.461h16.622
		c0.632,0,2.638,0.435,2.638-3.319l0.034-13.864C568.008,940.662,567.722,938,563.972,938z"/>
	<path fill="#F5DB39" d="M378,624h20v-14h123v20H405v14h-27v21h20v-14h116v14h-75v20h82v21H398v-14h-20v205h355V692h-1.611H671v-27
		h60.389H733v-14h-1.611H553.01c-7.99,0-11.01-5.699-11.01-13.693V548H398V391h144v-27H378V624z M514,883H398v-13h116V883z M521,849
		H398v-20h123V849z M528,808H398v-14h130V808z M712,883H583v-89h129V883z M712,726v41H398v-41H712z M398,576h130v13H398V576z"/>
	<rect x="398" y="391" fill="#E3AD48" width="144" height="157"/>
	<rect x="398" y="576" fill="#E3AD48" width="130" height="13"/>
	<polygon fill="#E3AD48" points="405,630 521,630 521,610 398,610 398,624 405,624 	"/>
	<polygon fill="#E3AD48" points="514,665 514,651 398,651 398,665 439.176,665 	"/>
	<polygon fill="#E3AD48" points="398,692 398,706 521,706 521,685 439,685 439,692 	"/>
	<rect x="398" y="726" fill="#E3AD48" width="314" height="41"/>
	<rect x="398" y="794" fill="#E3AD48" width="130" height="14"/>
	<rect x="583" y="794" fill="#E3AD48" width="129" height="89"/>
	<rect x="398" y="829" fill="#E3AD48" width="123" height="20"/>
	<rect x="398" y="870" fill="#E3AD48" width="116" height="13"/>
	<polygon fill="#FFFFFF" points="375.397,644 377.685,644 405,644 405,630.439 405,624 398.182,624 377.685,624 375.397,624 
		344.495,624 343.524,624 303,624 303,644 343.524,644 344.495,644 	"/>
	<polygon fill="#FFFFFF" points="731.389,665 671,665 671,692 731.389,692 732.965,692 761.555,692 883,692 883,665 761.491,665 
		732.965,665 	"/>
	<rect x="801" y="712" fill="#FFFFFF" width="137" height="28"/>
	<rect x="822" y="296" fill="#FFFFFF" width="184" height="27"/>
	<rect x="801" y="248" fill="#FFFFFF" width="82" height="20"/>
	<polygon fill="#FFFFFF" points="439,692 439,685.098 439,665 398.182,665 377.685,665 375.397,665 344.495,665 343.524,665 
		262,665 262,692 343.524,692 344.495,692 375.397,692 377.685,692 398.182,692 	"/>
	<path fill="#5A9F90" d="M1034,371H562v253h472V371z M625.91,510.053c-6.509,0-11.806-5.294-11.806-11.803
		s5.298-11.806,11.806-11.806c6.509,0,11.803,5.298,11.803,11.806S632.419,510.053,625.91,510.053z M798.385,599.974
		c-56.086,0-101.714-45.631-101.714-101.721S742.299,396.53,798.385,396.53c56.093,0,101.727,45.634,101.727,101.724
		S854.478,599.974,798.385,599.974z M970.868,510.053c-6.509,0-11.803-5.294-11.803-11.803s5.294-11.806,11.803-11.806
		c6.515,0,11.813,5.298,11.813,11.806S977.383,510.053,970.868,510.053z"/>
	<path fill="#5A9F90" d="M1043.779,343H760.741H553.01c-7.99,0-11.01,8.199-11.01,16.185v1.447v3.348v27.329v157.143v88.855
		c0,7.995,3.019,13.693,11.01,13.693h178.379h1.576h28.494h282.321c7.99,0,17.221-5.699,17.221-13.693V359.185
		C1061,351.199,1051.769,343,1043.779,343z M1040,630H555V364h485V630z"/>
	<path fill="#5A9F90" d="M813.715,504.772c-1.892-1.361-4.093-2.502-6.549-3.403c-1.224-0.447-2.455-0.884-3.696-1.318l-1.268,36.72
		c1.845-0.324,3.556-0.831,5.114-1.521c2.619-1.148,4.844-2.676,6.625-4.547c1.805-1.892,3.136-4.013,4.077-6.485
		c0.941-2.475,1.418-5.154,1.418-7.963c0-2.809-0.51-5.108-1.511-6.832C816.837,507.535,815.463,506.017,813.715,504.772z"/>
	<path fill="#5A9F90" d="M625.91,493.903c-2.395,0-4.347,1.952-4.347,4.347c0,2.395,1.952,4.344,4.347,4.344
		s4.344-1.948,4.344-4.344C630.253,495.855,628.305,493.903,625.91,493.903z"/>
	<path fill="#5A9F90" d="M798.385,403.989c-51.973,0-94.254,42.288-94.254,94.264s42.281,94.261,94.254,94.261
		c51.98,0,94.268-42.285,94.268-94.261S850.365,403.989,798.385,403.989z M828,516v0.002c0,4.03-0.524,7.846-1.845,11.346
		c-1.358,3.576-3.283,6.752-5.872,9.441c-2.602,2.692-5.751,4.864-9.438,6.455c-2.729,1.174-5.73,1.958-8.986,2.345l-0.391,11.978
		c0,2.992-2.253,4.432-4.488,4.432h-3.863l-0.504-3.668l0.445-12.605c-1.757-0.143-3.418-0.372-4.965-0.719
		c-2.662-0.597-5.144-1.471-7.383-2.605c-2.245-1.131-4.33-2.522-6.192-4.136c-1.795-1.565-3.533-3.534-5.174-5.502l-2.25-2.764H767
		v0.365l2.443-2.408c0.667-0.651,0.925-0.827,1.095-0.953l1.008-0.809l1.67-0.195l0,0h0.006c1.822,0,3.086,1.246,3.876,2.113
		c0.47,0.52,1.093,1.173,1.844,1.914c0.741,0.707,1.67,1.548,2.764,2.435c0.967,0.767,2.181,1.522,3.582,2.193
		c1.441,0.697,3.154,1.307,5.085,1.801c0.899,0.229,1.893,0.404,2.95,0.523l1.421-39.774c-1.948-0.671-3.86-1.38-5.731-2.134
		c-2.956-1.188-5.641-2.732-7.987-4.597c-2.452-1.935-3.864-4.37-5.349-7.236c-1.505-2.899-1.679-6.485-1.679-10.652
		c0-0.005,0-0.01,0-0.015c0-0.005,0-0.009,0-0.014c0-3.289,0.028-6.514,1.245-9.536c1.228-3.056,2.467-5.849,4.825-8.177
		c2.332-2.309,5.209-4.297,8.552-5.695c2.395-0.991,5.035-1.882,7.887-2.216l0.322-9.26c-0.003-2.982,2.257-5.674,4.492-5.674h3.88
		l0.487,4.937l-0.357,9.938c3.173,0.378,6.087,1.408,8.701,2.557c3.66,1.605,7.123,4.232,10.292,7.542l2.058,2.218l-0.022,0.039
		l0.022,0.025l-1.641,2.483c-0.794,1.508-2.315,2.436-4.007,2.436c-2.012,0-3.473-1.301-4.52-2.435
		c-0.397-0.427-1.194-1.164-2.749-2.252c-1.204-0.834-2.832-1.651-4.831-2.422c-1.021-0.387-2.225-0.684-3.6-0.884L803.81,490.8
		c2.155,0.724,4.29,1.481,6.399,2.259c3.213,1.188,6.152,2.699,8.734,4.494c2.769,1.935,4.878,4.382,6.566,7.281
		c1.748,2.989,2.492,6.747,2.492,11.164V516z"/>
	<path fill="#5A9F90" d="M786.289,461.126c-1.508,1.498-2.662,3.239-3.423,5.168c-0.794,1.988-1.178,4.023-1.178,6.228
		c0,2.579,0.44,4.727,1.304,6.385c0.914,1.761,2.095,3.209,3.616,4.43c1.628,1.304,3.546,2.412,5.691,3.289
		c0.917,0.377,1.852,0.747,2.796,1.108l1.134-31.483c-1.521,0.26-2.919,0.651-4.18,1.171
		C789.765,458.358,787.83,459.602,786.289,461.126z"/>
	<path fill="#5A9F90" d="M970.868,493.903c-2.395,0-4.344,1.952-4.344,4.347c0,2.395,1.948,4.344,4.344,4.344
		c2.399,0,4.354-1.948,4.354-4.344C975.221,495.855,973.266,493.903,970.868,493.903z"/>
	<path fill="#7EDED2" d="M555,630h485V364H555V630z M562,371h472v253H562V371z"/>
	<path fill="#7EDED2" d="M798.385,396.53c-56.086,0-101.714,45.634-101.714,101.724s45.628,101.721,101.714,101.721
		c56.093,0,101.727-45.631,101.727-101.721S854.478,396.53,798.385,396.53z M798.385,592.515c-51.973,0-94.254-42.285-94.254-94.261
		s42.281-94.264,94.254-94.264c51.98,0,94.268,42.288,94.268,94.264S850.365,592.515,798.385,592.515z"/>
	<path fill="#7EDED2" d="M818.942,497.553c-2.582-1.795-5.521-3.306-8.734-4.494c-2.108-0.777-4.244-1.535-6.399-2.259v0
		l1.228-34.618c1.375,0.2,2.579,0.497,3.6,0.884c1.998,0.771,3.626,1.588,4.831,2.422c1.555,1.088,2.352,1.825,2.749,2.252
		c1.047,1.134,2.509,2.435,4.52,2.435c1.691,0,3.213-0.927,4.007-2.435l1.641-2.482l-0.022-0.023l-2.036-2.129
		c-3.169-3.309-6.632-5.805-10.292-7.409c-2.619-1.151-5.538-1.918-8.717-2.295l0.016-0.451l0.357-10.014L805.204,432h-3.88
		c-2.235,0-4.497,2.692-4.494,5.674l-0.324,9.184c-2.852,0.334-5.495,1.263-7.89,2.253c-3.343,1.398-6.225,3.405-8.557,5.714
		c-2.359,2.329-3.587,5.131-4.815,8.187c-1.218,3.022-1.245,6.256-1.245,9.546c0,0.005,0,0.009,0,0.014
		c0,4.16,0.176,7.757,1.679,10.653c1.485,2.866,3.191,5.308,5.643,7.243c2.345,1.865,4.476,3.413,7.431,4.6
		c1.872,0.754,5.247,3.177,5.247,3.848V501h0.799h-0.018l-1.439,34c-0.006,0-0.012,0-0.018,0c-1.057,0-2.052,0.7-2.95,0.471
		c-1.932-0.494-3.644-0.602-5.085-1.299c-1.401-0.671-2.615-1.166-3.582-1.934c-1.094-0.887-2.023-1.581-2.763-2.288
		c-0.751-0.741-0.986-1.286-1.457-1.806c-0.791-0.867-3.487-1.994-3.487-1.994v0.017l-2.044,0.112L770.779,527
		c-0.17,0.127-0.477-0.877-1.144-0.226L767.236,528h-0.024l2.144,3.766c1.641,1.968,3.374,4.348,5.169,5.913
		c1.862,1.615,3.944,3.305,6.189,4.436c2.239,1.134,5.19,2.163,7.852,2.76c1.547,0.347,5.435,0.663,5.435,0.806v0.038l-0.917,12.594
		l0.034,3.687h3.863c2.235,0,4.497-1.44,4.497-4.432l0.4-12.074c3.256-0.387,6.275-1.123,9.004-2.297
		c3.686-1.591,6.872-3.739,9.474-6.431c2.589-2.689,4.44-5.853,5.798-9.429C827.476,523.837,828,520.029,828,516v-0.003
		c0-4.417-0.744-8.175-2.492-11.164C823.82,501.935,821.711,499.488,818.942,497.553z M795.096,487.735
		c-0.944-0.36-1.878-0.731-2.796-1.108c-2.145-0.877-4.063-1.985-5.691-3.289c-1.521-1.221-2.702-2.669-3.616-4.43
		c-0.864-1.658-1.304-3.806-1.304-6.385c0-2.205,0.384-4.24,1.178-6.228c0.761-1.928,1.915-3.67,3.423-5.168
		c1.541-1.525,3.476-2.769,5.761-3.703c1.261-0.52,2.659-0.911,4.18-1.171L795.096,487.735z M818.018,524.218
		c-0.941,2.472-2.272,4.594-4.077,6.485c-1.781,1.872-4.007,3.399-6.625,4.547c-1.558,0.691-3.269,1.198-5.114,1.521l1.268-36.72
		c1.241,0.434,2.472,0.871,3.696,1.318c2.455,0.901,4.657,2.042,6.549,3.403c1.748,1.244,3.123,2.762,4.21,4.651
		c1.001,1.725,1.511,4.023,1.511,6.832C819.436,519.064,818.959,521.743,818.018,524.218z"/>
	<path fill="#7EDED2" d="M970.868,486.444c-6.509,0-11.803,5.298-11.803,11.806s5.294,11.803,11.803,11.803
		c6.515,0,11.813-5.294,11.813-11.803S977.383,486.444,970.868,486.444z M970.868,502.594c-2.395,0-4.344-1.948-4.344-4.344
		c0-2.395,1.948-4.347,4.344-4.347c2.399,0,4.354,1.952,4.354,4.347C975.221,500.646,973.266,502.594,970.868,502.594z"/>
	<path fill="#7EDED2" d="M625.91,486.444c-6.509,0-11.806,5.298-11.806,11.806s5.298,11.803,11.806,11.803
		c6.509,0,11.803-5.294,11.803-11.803S632.419,486.444,625.91,486.444z M625.91,502.594c-2.395,0-4.347-1.948-4.347-4.344
		c0-2.395,1.952-4.347,4.347-4.347s4.344,1.952,4.344,4.347C630.253,500.646,628.305,502.594,625.91,502.594z"/>
</g>
</svg>
