<?xml version="1.0" encoding="utf-8"?>
<!-- Generator: Adobe Illustrator 19.1.0, SVG Export Plug-In . SVG Version: 6.00 Build 0)  -->
<svg version="1.1" id="Layer_1" xmlns="http://www.w3.org/2000/svg" xmlns:xlink="http://www.w3.org/1999/xlink" x="0px" y="0px"
	 viewBox="0 0 1200 1200" enable-background="new 0 0 1200 1200" xml:space="preserve">
<g>
	<path fill="#F5DB39" d="M906.117,1107.436H198.98C90.483,1107.436,50,1067.549,50,949.105V199.572
		c0-47.306,41.11-107.008,114.078-107.008h768.125c86.896,0,132.669,59.702,132.669,132.669v728.032
		C1064.873,1047.36,1023.861,1107.436,906.117,1107.436z"/>
	<path fill="#F5DB39" d="M942.684,1082.062H172.189c-53.248,0-96.815-43.567-96.815-96.815V214.753
		c0-53.248,43.567-96.814,96.815-96.814h770.494c53.248,0,96.814,43.566,96.814,96.814v770.494
		C1039.498,1038.495,995.932,1082.062,942.684,1082.062z"/>
	<g>
		<defs>
			<path id="SVGID_1_" d="M942.684,1082.062H172.189c-53.248,0-96.815-43.567-96.815-96.815V214.753
				c0-53.248,43.567-96.814,96.815-96.814h770.494c53.248,0,96.814,43.566,96.814,96.814v770.494
				C1039.498,1038.495,995.932,1082.062,942.684,1082.062z"/>
		</defs>
		<clipPath id="SVGID_2_">
			<use xlink:href="#SVGID_1_"  overflow="visible"/>
		</clipPath>
		<g clip-path="url(#SVGID_2_)">
			<g>
				<g>
					<path fill="#F1F6FB" d="M323.968,739.836c0,16.754,13.582,30.339,30.342,30.339h765.355c16.756,0,30.334-13.585,30.334-30.339
						V229.608c0-16.76-13.578-30.346-30.334-30.346H354.311c-16.761,0-30.342,13.585-30.342,30.346V739.836z"/>
					<path fill="#353535" d="M323.968,695.688v-466.08c0-16.76,13.582-30.346,30.342-30.346h765.355
						c16.756,0,30.334,13.585,30.334,30.346v466.08H323.968z"/>
					<g>
						<rect x="722.582" y="717.926" fill="#7EDED2" width="31.668" height="27.716"/>
						<rect x="689.719" y="729.408" fill="#D8E6F4" width="12.272" height="12.271"/>
						<rect x="666.952" y="729.408" fill="#D8E6F4" width="12.277" height="12.271"/>
						<rect x="644.19" y="729.408" fill="#F5DB39" width="12.273" height="12.271"/>
					</g>
					<rect x="350.918" y="228.059" fill="#5EA4D2" width="772.143" height="438.392"/>
					<polygon fill="#D8E6F4" points="630.159,851.416 843.815,851.416 843.815,770.175 630.159,770.21 					"/>
					<path fill="#F1F6FB" d="M601.85,857.466c0,7.093,5.743,12.828,12.838,12.828h244.605c7.091,0,12.836-5.735,12.836-12.828l0,0
						c0-7.09-5.744-12.843-12.836-12.843H614.688C607.593,844.623,601.85,850.376,601.85,857.466L601.85,857.466z"/>
				</g>
				<g>
					<rect x="789.458" y="274.96" fill="#5291D2" width="284.021" height="210.824"/>
					<rect x="789.458" y="521.538" fill="#5291D2" width="277.285" height="16.007"/>
					<rect x="789.458" y="565.916" fill="#5291D2" width="277.285" height="16.007"/>
					<rect x="789.458" y="610.295" fill="#5291D2" width="277.285" height="16.006"/>
				</g>
				<g>
					<rect x="382.93" y="415.477" fill="#5291D2" width="371.318" height="210.824"/>
					<rect x="391.736" y="363.716" fill="#5291D2" width="362.513" height="16.007"/>
					<rect x="391.736" y="319.339" fill="#5291D2" width="362.513" height="16.006"/>
					<rect x="391.736" y="274.96" fill="#5291D2" width="362.513" height="16.007"/>
				</g>
			</g>
			<g>
				<g>
					<rect x="785.275" y="605.723" fill="#202020" width="22.555" height="21.431"/>
					<rect x="785.275" y="590.88" width="22.555" height="21.42"/>
					<rect x="782.655" y="618.129" width="27.793" height="305.642"/>
					<rect x="792.606" y="812.115" fill="#7EDED2" width="7.887" height="63.158"/>
					<polygon fill="#202020" points="762.929,1003.845 828.382,1003.845 845.61,907.985 747.493,907.985 					"/>
				</g>
				<g>
					<path fill="#202020" d="M686.67,570.996c-6.679-7.759-17.656-11.521-32.615-11.521H76.106c0.266,2.476-0.06,4.713,0,7.211
						l577.954,0.088c12.628,0,21.667,3.035,26.873,9.025c6.022,6.937,4.846,15.814,4.838,15.912l-0.038,217.419
						c0,10.991-2.647,18.544-7.871,22.412c-6.946,5.157-16.425,2.38-16.528,2.339l-2.156,7.161c0.264,0.077,3.654,1.077,8.231,1.077
						c4.439,0,10.003-0.943,14.899-4.575c7.235-5.363,10.902-14.919,10.902-28.414V592.254
						C693.251,592.254,694.889,580.553,686.67,570.996z"/>
					<g>
						<rect x="122.254" y="655.74" width="551.47" height="360.178"/>
						<polygon fill="#202020" points="569.219,738.786 569.219,746.26 234.234,746.26 234.234,918.87 569.219,918.87 
							569.219,926.354 226.758,926.354 226.758,738.786 						"/>
						<path fill="#202020" d="M206.225,712.659h383.521v240.755H206.225V712.659z M582.273,720.133H213.701v225.804h368.572V720.133
							z"/>
						<rect x="566.106" y="830.237" fill="#7EDED2" width="35.457" height="8.397"/>
					</g>
				</g>
			</g>
		</g>
	</g>
</g>
</svg>
