<?xml version="1.0" encoding="utf-8"?>
<!-- Generator: Adobe Illustrator 19.1.0, SVG Export Plug-In . SVG Version: 6.00 Build 0)  -->
<svg version="1.1" id="Layer_1" xmlns="http://www.w3.org/2000/svg" xmlns:xlink="http://www.w3.org/1999/xlink" x="0px" y="0px"
	 viewBox="0 0 1200 1200" enable-background="new 0 0 1200 1200" xml:space="preserve">
<g>
	<path fill="#45504E" d="M1003.627,50H174.108C95.309,50,50,115.689,50,166.777v809.441C50,1104.129,94.632,1150,211.801,1150
		h763.655c127.155,0,174.544-67.674,174.544-169.29V194.49C1150,115.689,1097.468,50,1003.627,50z M1081,978H847.307
		c-67.801,41-148.014,67.51-234.062,67.51c-86.052,0-166.268-26.51-234.07-67.51H208v-90h-61.75l0,0l0,0l0,0H71V780.644V290h235.694
		c79.231-82,187.314-125.719,306.552-125.719c88.882,0,172.176,25.863,241.354,71.196L861,212.614v-0.166l7.365-31.366
		l20.416,78.914c100.363,80.625,164.514,203.337,164.514,342.094c0,97.233-31.768,189.911-85.185,258.911h14.235h11.024h37.505
		h11.041H1081V978z"/>
	<path fill="#5EA4D2" d="M613.246,1045.51c86.048,0,166.261-26.51,234.062-67.51H379.175
		C446.978,1019,527.193,1045.51,613.246,1045.51z"/>
	<path fill="#5EA4D2" d="M799,823.097V861h37.714h11.032h37.507h11.038h37.494h11.031h23.294
		c53.417-69,85.028-161.699,85.028-258.932c0-138.757-64.308-261.572-164.672-342.197L899.827,304h-0.195L902,764.562v-0.211
		l0.389,17.481c0.11,15.648-11.34,28.349-25.734,28.448l-11.202,0.035c-14.376,0.1-26.091-12.526-26.19-28.168l-3.018-478.709
		l7.896-0.054l-7.671,0.02l17.499-68.513c-69.178-45.333-151.843-70.61-240.725-70.61C494.007,164.281,385.925,208,306.694,290H799
		V823.097z"/>
	<polygon fill="#5EA4D2" points="836.263,303.432 839.299,782.134 839.194,764.543 902.558,764.139 899.633,303.224 844.15,303.381 
			"/>
	<linearGradient id="SVGID_1_" gradientUnits="userSpaceOnUse" x1="836.2631" y1="542.6788" x2="902.6708" y2="542.6788">
		<stop  offset="0" style="stop-color:#DE5E4A"/>
		<stop  offset="0.4368" style="stop-color:#D85645"/>
		<stop  offset="1" style="stop-color:#CB443B"/>
	</linearGradient>
	<polygon fill="url(#SVGID_1_)" points="836.263,303.432 839.299,782.134 839.194,764.543 902.558,764.139 899.633,303.224 
		844.15,303.381 	"/>
	<path fill="#F5DB39" d="M839.299,782.134c0.099,15.642,11.849,28.255,26.225,28.155l11.272-0.061
		c14.395-0.099,25.984-12.923,25.874-28.57L902.561,764h-0.003l-63.365,0.474L839.299,782.134z"/>
	<polygon fill="#EBE3BF" points="844.15,303.769 899.633,304 899.827,304 888.466,260.342 867.736,181.192 875.92,212.269 
		859.746,212.329 853.972,234.915 836.475,303.609 	"/>
	<polygon points="867.736,180.857 859.741,212 859.746,212 875.92,211.961 	"/>
	<polygon fill="#F1F6FB" points="146,442 98,442 98,393 146,393 146,290.319 146,290.319 146,393 208,393 208,442 146,442 
		146,655.108 166.529,622.989 242,746.56 242,290 249,290 249,755.342 258.445,772.507 333.844,664.685 339,673.814 339,442 
		284,442 284,393 339,393 339,290 346,290 346,393 394,393 394,442 346,442 346,681.221 409.956,769.345 442,704.74 442,290.319 
		442,290.319 442,693.679 510.026,553.651 538,609.704 538,442 462,442 462,393 538,393 538,290 545,290 545,393 572,393 572,442 
		545,442 545,620.763 614.689,771.562 634,742.162 634,290 641,290 641,734.975 688.763,671.584 737,735.596 737,442 648,442 
		648,393 737,393 737,290 744,290 744,393 758,393 758,442 744,442 744,742.772 799,823.097 799,290 306.694,290 71,290 71,780.644 
		146,663.894 	"/>
	<rect x="143" y="886" fill="#D8E6F4" width="5" height="2"/>
	<polygon fill="#D8E6F4" points="146,441.569 146,663.894 146,655.108 146,441.569 	"/>
	<rect x="146" y="290.319" fill="#D8E6F4" width="0" height="103.125"/>
	<polygon fill="#D8E6F4" points="249,290 242,290 242,746.56 249,755.342 	"/>
	<polygon fill="#D8E6F4" points="346,442 339,442 339,673.814 346,681.221 	"/>
	<rect x="339" y="290" fill="#D8E6F4" width="7" height="103"/>
	<polygon fill="#D8E6F4" points="442,290.319 442,290.319 442,704.74 442,693.679 	"/>
	<polygon fill="#D8E6F4" points="545,442 538,442 538,609.704 545,620.763 	"/>
	<rect x="538" y="290" fill="#D8E6F4" width="7" height="103"/>
	<polygon fill="#D8E6F4" points="641,290 634,290 634,742.162 641,734.975 	"/>
	<rect x="737" y="290" fill="#D8E6F4" width="7" height="103"/>
	<polygon fill="#D8E6F4" points="744,442 737,442 737,735.596 744,742.772 	"/>
	<polygon fill="#EBAE30" points="740.702,742.772 735.781,735.596 688.94,671.584 642.487,734.975 637.254,742.162 615.69,770.622 
		659.291,861 691.104,861 702.118,861 739.638,861 750.67,861 788.172,861 799.203,861 799,861 799,823.097 	"/>
	<polygon points="615.712,770.622 543.749,620.293 538.471,609.469 511.721,553.533 444.919,693.62 439.642,704.711 408.822,768.39 
		475.407,861 497,861 497,909 511,909 511,861 545,861 545,909 559,909 559,861 593,861 593,909 607,909 607,861 641,861 641,909 
		655,909 655,861 659.291,861 	"/>
	<polygon fill="#F1F6FB" points="346,681.221 346,861 351.326,861 362.357,861 364.199,861 408.777,768.404 	"/>
	<linearGradient id="SVGID_2_" gradientUnits="userSpaceOnUse" x1="173.5292" y1="771.1107" x2="494.939" y2="771.1107">
		<stop  offset="0" style="stop-color:#DE5E4A"/>
		<stop  offset="0.4368" style="stop-color:#D85645"/>
		<stop  offset="1" style="stop-color:#CB443B"/>
	</linearGradient>
	<polygon fill="url(#SVGID_2_)" points="346,681.221 346,861 351.326,861 362.357,861 364.199,861 408.777,768.404 	"/>
	<polygon fill="#F1F6FB" points="333.409,664.685 257.123,771.567 311.877,861 313.803,861 339,861 339,673.814 	"/>
	<linearGradient id="SVGID_3_" gradientUnits="userSpaceOnUse" x1="174.661" y1="762.8423" x2="490.5823" y2="762.8423">
		<stop  offset="0" style="stop-color:#DE5E4A"/>
		<stop  offset="0.4368" style="stop-color:#D85645"/>
		<stop  offset="1" style="stop-color:#CB443B"/>
	</linearGradient>
	<polygon fill="url(#SVGID_3_)" points="333.409,664.685 257.123,771.567 311.877,861 313.803,861 339,861 339,673.814 	"/>
	<polygon fill="#D8E6F4" points="339,673.814 339,861 346,861 346,681.221 	"/>
	<linearGradient id="SVGID_4_" gradientUnits="userSpaceOnUse" x1="117.2018" y1="767.4071" x2="543.5812" y2="767.4071">
		<stop  offset="0" style="stop-color:#DE5E4A"/>
		<stop  offset="0.4368" style="stop-color:#D85645"/>
		<stop  offset="1" style="stop-color:#CB443B"/>
	</linearGradient>
	<polygon fill="url(#SVGID_4_)" points="339,673.814 339,861 346,861 346,681.221 	"/>
	<polygon points="408.822,767.464 364.199,861 399.859,861 410.891,861 448.402,861 459.425,861 475.407,861 	"/>
	<linearGradient id="SVGID_5_" gradientUnits="userSpaceOnUse" x1="173.7427" y1="814.2321" x2="494.9223" y2="814.2321">
		<stop  offset="0" style="stop-color:#DE5E4A"/>
		<stop  offset="0.4368" style="stop-color:#D85645"/>
		<stop  offset="1" style="stop-color:#CB443B"/>
	</linearGradient>
	<polygon fill="url(#SVGID_5_)" points="408.822,767.464 364.199,861 399.859,861 410.891,861 448.402,861 459.425,861 475.407,861 
			"/>
	<polygon fill="#5EA4D2" points="254.226,861 265.281,861 302.792,861 311.877,861 257.577,771.567 247.264,754.872 
		241.987,746.325 167.742,622.871 148.439,655.049 142.161,663.865 71,780.644 71,888 143.159,888 148.439,888 208,888 208,861 	"/>
	<polygon points="208,442 208,393 148.439,393 143.159,393 98,393 98,442 143.159,442 148.439,442 	"/>
	<polygon fill="#5EA4D2" points="394,442 394,393 346.09,393 340.817,393 284,393 284,442 340.817,442 346.09,442 	"/>
	<polygon fill="#EBAE30" points="572,442 572,393 543.749,393 538.471,393 462,393 462,442 538.471,442 543.749,442 	"/>
	<polygon fill="#B87368" points="758,442 758,393 741.4,393 736.13,393 648,393 648,442 736.13,442 741.4,442 	"/>
	<polygon fill="#F5DB39" points="1040,909 1033,909 1033,861 992,861 992,909 985,909 985,861 968.11,861 944,861 944,909 937,909 
		937,861 896,861 896,909 882,909 882,861 847,861 847,909 834,909 834,861 800.396,861 799,861 799,909 786,909 786,861 751,861 
		751,909 737,909 737,861 703,861 703,909 689,909 689,861 659.291,861 655,861 655,909 641,909 641,861 607,861 607,909 593,909 
		593,861 559,861 559,909 545,909 545,861 511,861 511,909 497,909 497,861 475.407,861 462,861 462,909 449,909 449,861 407,861 
		407,909 401,909 401,861 364.199,861 359,861 359,909 352,909 352,861 346.09,861 340.817,861 311,861 311,909 304,909 304,861 
		263,861 263,909 256,909 256,861 208,861 208,885.695 208,978 379.175,978 847.307,978 1081,978 1081,861 1040,861 	"/>
	<rect x="256" y="861" width="7" height="48"/>
	<polygon points="304,861 304,909 311,909 311,861 311.877,861 	"/>
	<rect x="352" y="861" width="7" height="48"/>
	<rect x="401" y="861" width="6" height="48"/>
	<rect x="449" y="861" width="13" height="48"/>
	<rect x="689" y="861" width="14" height="48"/>
	<rect x="737" y="861" width="14" height="48"/>
	<rect x="786" y="861" width="13" height="48"/>
	<rect x="834" y="861" width="13" height="48"/>
	<rect x="882" y="861" width="14" height="48"/>
	<rect x="937" y="861" width="7" height="48"/>
	<rect x="985" y="861" width="7" height="48"/>
	<rect x="1033" y="861" width="7" height="48"/>
</g>
</svg>
