<?xml version="1.0" encoding="utf-8"?>
<!-- Generator: Adobe Illustrator 19.1.0, SVG Export Plug-In . SVG Version: 6.00 Build 0)  -->
<svg version="1.1" id="Layer_1" xmlns="http://www.w3.org/2000/svg" xmlns:xlink="http://www.w3.org/1999/xlink" x="0px" y="0px"
	 viewBox="0 0 1200 1200" enable-background="new 0 0 1200 1200" xml:space="preserve">
<g>
	<path fill="#4ABCDE" d="M919.717,1063.982H257.142c-101.659,0-139.591-37.373-139.591-148.354V213.329
		c0-44.325,38.519-100.264,106.889-100.264h719.719c81.42,0,124.309,55.939,124.309,124.309v682.152
		C1068.468,1007.691,1020.539,1063.982,919.717,1063.982z"/>
	<path fill="#4ABCDE" d="M939.698,1047.757H226.005c-50.727,0-92.23-41.504-92.23-92.23V221.518c0-50.726,41.503-92.23,92.23-92.23
		h734.01c50.726,0,92.23,41.504,92.23,92.23v713.694C1052.244,997.112,1001.599,1047.757,939.698,1047.757z"/>
	<g>
		<defs>
			<path id="SVGID_1_" d="M938.572,1047.757H226.005c-50.727,0-92.23-41.504-92.23-92.23V221.518c0-50.726,41.503-92.23,92.23-92.23
				h734.01c50.726,0,92.23,41.504,92.23,92.23v712.568C1052.244,996.605,1001.092,1047.757,938.572,1047.757z"/>
		</defs>
		<clipPath id="SVGID_2_">
			<use xlink:href="#SVGID_1_"  overflow="visible"/>
		</clipPath>
		<g clip-path="url(#SVGID_2_)">
			<path fill="#FFFFFF" d="M875.961,632.786h231.876c0,0,42.162,6.02,42.162-33.127c0-39.148-48.187-30.113-48.187-30.113
				s6.025-93.355-84.316-93.355s-102.389,87.331-102.389,87.331s-90.341,0-90.341,33.13
				C824.767,629.774,830.791,632.786,875.961,632.786z"/>
			<path fill="#FFFFFF" d="M433.207,1085.75h523.068c0,0,111.397,14.526,111.397-58.123c0-72.645-39.502-122.182-87.938-88.282
				c0,0,0-154.555-139.696-153.878c-116.634,0.565-121.084,92.023-121.084,92.023s-58.114-48.427-125.916,4.844
				c-67.809,53.27-33.909,96.862-33.909,96.862s-85.112-28.817-135.611,4.844C394.467,1003.414,346.032,1085.75,433.207,1085.75z"/>
			<path fill="#FFFFFF" d="M420.578,512.286h-305.52c0,0-65.058,8.488-65.058-33.94c0-42.436,49.347-69.378,91.716-48.978
				c0,0-28.249-81.594,61.073-83.183c47.184-0.839,50.88,44.462,50.88,44.462s51.236-36.596,81.043-2.076
				c24.031,27.827,12.314,61.48,12.314,61.48s49.711-16.828,79.212,2.832C443.209,464.2,471.491,512.286,420.578,512.286z"/>
			<polygon fill="#FFFFFF" points="274.501,743.901 293.047,751.631 295.624,791.841 334.778,759.358 364.13,759.358 
				325.547,748.289 304.814,766.671 301.955,748.094 			"/>
			<polygon fill="#FFFFFF" points="180.87,714.069 229.389,706.012 248.846,734.916 263.836,710.529 300.281,709.112 
				265.402,716.193 245.208,755.862 212.269,716.193 			"/>
			<path fill="#C34538" d="M490.012,284.381c0,0,36.867-20.961,102.306-19.621c65.44,1.341,104.155,18.543,150.394,60.482
				c46.231,41.938,55.918,189.254,20.427,272.054c-35.484,82.8-121.507,175.277-121.507,175.277l-24.04,15.711
				c0,0-35.144,6.93-51.054,4.75c-15.902-2.179-12.165,0.889-12.165,0.889l-98.776-120.28l-68.821-221.513l26.89-116.133
				L490.012,284.381z"/>
			<g>
				<g>
					<path fill="#D00F2E" d="M344.847,468.626c3.654-120.635,94.832-170.933,165.484-191.836
						c-42.436,24.605-73.063,58.527-88.916,98.681c-33.229,84.089-4.906,194.829,84.217,329.139l0.216,0.282
						c0.389,0.524,34.638,46.202,47.631,88.439c-4.541-1.429-8.345-2.44-13.043-4.653l17.137,58.361
						c1.243-0.414,2.568-0.64,3.952-0.613l49.438,0.623c3.05,0.033,5.809,1.21,8.005,3.062l10.466-60.118
						c-3.025,1.307-7.168,2.904-12.248,4.372c0.39-1.146-12.48-1.069-12.065-2.221c14.799-40.776,61.984-84.727,62.382-85.212
						l0.207-0.269c92.122-132.045,122.957-242.021,91.7-326.947c-14.792-40.126-44.217-74.496-85.394-100.096
						c69.782,23.105,157.736,75.862,158.607,195.144c0,0,0.082,102.87-85.212,200.787c0,0-58.943,64.366-71.406,70.714
						c0,0-32.359,25.394-39.826,37.064l-13.416,72.123c0.679,1.659,1.052,3.493,1.028,5.409l-0.423,35.367
						c-0.067,7.553-5.942,13.557-13.126,13.483l-49.438-0.608c-7.16-0.107-12.895-6.281-12.828-13.832l0.414-35.362
						c0.058-4.139,1.84-7.814,4.665-10.288l-19.332-68.375c-8.055-12.181-38.483-37.269-38.483-37.269
						c-12.297-6.638-69.732-72.483-69.732-72.483C342.435,571.463,344.847,468.626,344.847,468.626z"/>
					<path fill="#FFFFFF" d="M655.305,284.194c30.429,17.174,70.602,48.516,89.206,100.278
						c28.879,80.277,7.342,189.467-79.428,316.729c-14.145,22.629-31.116,52.328-43.844,89.098
						c-10.938,2.062-48.941,5.266-63.641,2.318c-11.303-44.408-42.576-94.855-45.253-98.486
						c-83.877-129.425-106.889-234.077-76.154-313.606c25.489-65.982,85.8-98.072,123.197-112.136
						c14.891-2.474,25.921-3.361,30.553-3.678l-0.016-0.139c0,0,0.414,0.027,1.201,0.079c0.77-0.035,1.177-0.052,1.177-0.052
						l0.016,0.16c4.848,0.43,16.847,1.715,32.923,4.92C634.29,273.366,644.582,278.144,655.305,284.194z"/>
				</g>
				<path fill="#D00F2E" d="M592.318,264.76c0,0,52.96,84.293,44.035,277.701c-6.63,131.871-39.544,252.057-39.544,252.057
					l-17.8,0.592c0,0-28.158-180.503-34.596-247.117C540.626,508.865,527.898,341.983,592.318,264.76z"/>
			</g>
			<g opacity="0.2">
				<path fill="#211915" d="M674.016,279.62c41.177,25.6,70.602,59.97,85.394,100.096c31.257,84.925,0.423,194.902-91.7,326.947
					l-0.207,0.269c-0.149,0.176-6.397,6.031-15.007,15.337c4.318-7.572,8.568-14.638,12.587-21.067
					c86.77-127.262,108.306-236.452,79.428-316.729c-18.604-51.762-58.777-83.104-89.206-100.278
					c-10.723-6.051-21.015-10.828-30.064-14.514c-16.076-3.205-28.075-4.489-32.923-4.92l-0.016-0.16c0,0-0.406,0.017-1.177,0.052
					c-0.788-0.052-1.201-0.079-1.201-0.079l0.016,0.139c-0.779,0.054-1.806,0.131-2.942,0.222v529.909l9.811-0.325
					c0,0,0.157-0.564,0.431-1.589c2.743-0.194,5.411-0.408,7.93-0.64c0.688,1,12.389,0.982,12.016,2.076
					c5.08-1.467,9.223-3.064,12.248-4.372l-10.466,60.118c-2.196-1.852-4.955-3.029-8.005-3.062l-23.965-0.303v62.678l23.244,0.286
					c7.185,0.074,13.06-5.93,13.126-13.483l0.423-35.367c0.025-1.916-0.349-3.75-1.028-5.409l13.416-72.123
					c7.466-11.67,39.826-37.064,39.826-37.064c12.463-6.348,71.406-70.714,71.406-70.714
					c85.294-97.917,85.212-200.787,85.212-200.787C831.752,355.483,743.798,302.726,674.016,279.62z"/>
			</g>
		</g>
	</g>
</g>
</svg>
