<?xml version="1.0" encoding="utf-8"?>
<!-- Generator: Adobe Illustrator 19.1.0, SVG Export Plug-In . SVG Version: 6.00 Build 0)  -->
<svg version="1.1" id="Layer_1" xmlns="http://www.w3.org/2000/svg" xmlns:xlink="http://www.w3.org/1999/xlink" x="0px" y="0px"
	 viewBox="0 0 1200 1200" enable-background="new 0 0 1200 1200" xml:space="preserve">
<g>
	<path fill="#009CBA" d="M968.003,1067.677h-727.45c-108.797,0-149.392-39.997-149.392-158.769V157.303
		C91.162,109.866,132.385,50,205.554,50h770.248c87.136,0,133.036,59.866,133.036,133.036v745.486
		C1108.839,1022.877,1073.157,1067.677,968.003,1067.677z"/>
	<path fill="#009CBA" d="M989.52,1046.246H210.481c-53.839,0-97.888-44.05-97.888-97.888V169.319
		c0-53.839,44.05-97.888,97.888-97.888H989.52c53.839,0,97.888,44.049,97.888,97.888v779.039
		C1087.407,1002.196,1043.358,1046.246,989.52,1046.246z"/>
	<g>
		<defs>
			<path id="SVGID_1_" d="M989.52,1046.246H210.481c-53.839,0-97.888-44.05-97.888-97.888V169.319
				c0-53.839,44.05-97.888,97.888-97.888H989.52c53.839,0,97.888,44.049,97.888,97.888v779.039
				C1087.407,1002.196,1043.358,1046.246,989.52,1046.246z"/>
		</defs>
		<clipPath id="SVGID_2_">
			<use xlink:href="#SVGID_1_"  overflow="visible"/>
		</clipPath>
		<g clip-path="url(#SVGID_2_)">
			<g>
				<rect x="311.157" y="284.588" fill="#FFFFFF" width="702.588" height="482.274"/>
				<rect x="355.956" y="319.322" fill="#C64E45" width="612.969" height="412.811"/>
				<g>
					<path fill="#EDC620" d="M968.354,336.147c-3.237-0.501-6.649,0.396-9.199,2.826L783.413,505.006l-52.497-22.177
						c-4.151-1.735-8.927-0.803-12.076,2.396L617.706,587.6l-78.528-33.828c-3.91-1.673-8.463-0.933-11.651,1.906L398.775,671.266
						c-4.501,4.05-4.872,10.977-0.831,15.479c2.166,2.414,5.163,3.64,8.162,3.64c2.605,0,5.222-0.921,7.317-2.799l123.53-110.905
						l78.959,34.008c4.151,1.783,8.962,0.851,12.137-2.366l101.168-102.415l52.26,22.077c4.011,1.695,8.637,0.865,11.794-2.134
						l175.082-165.425V336.147z"/>
					<path fill="#FFFFFF" d="M558.472,567.125c0,11.972-9.692,21.666-21.66,21.666c-11.981,0-21.678-9.694-21.678-21.666
						c0-11.99,9.697-21.644,21.678-21.644C548.78,545.481,558.472,555.135,558.472,567.125z"/>
					<path fill="#FFFFFF" d="M639.913,597.364c0,11.981-9.683,21.656-21.653,21.656c-11.97,0-21.688-9.675-21.688-21.656
						c0-11.99,9.718-21.655,21.688-21.655C630.23,575.709,639.913,585.375,639.913,597.364z"/>
					<path fill="#FFFFFF" d="M749.622,496.827c0,11.97-9.684,21.695-21.679,21.695c-11.979,0-21.671-9.725-21.671-21.695
						c0-11.944,9.693-21.667,21.671-21.667C739.939,475.16,749.622,484.883,749.622,496.827z"/>
					<path fill="#FFFFFF" d="M810.052,516.556c0,11.99-9.701,21.666-21.697,21.666c-11.97,0-21.653-9.677-21.653-21.666
						c0-11.972,9.683-21.664,21.653-21.664C800.352,494.892,810.052,504.584,810.052,516.556z"/>
				</g>
			</g>
			<path fill="#173D4E" d="M809.912,644.294l-22.33-82.858l-43.465,69.615c-11.407-0.027-22.972,1.077-34.582,3.403
				c-93.737,18.786-154.493,109.995-135.715,203.73c18.786,93.732,109.999,154.495,203.736,135.713
				c93.737-18.786,154.493-109.999,135.707-203.736C901.503,711.457,861.327,665.695,809.912,644.294z"/>
			<g>
				<path fill="#EDC620" d="M759.631,879.419v22.214h-14.952v-21.6c-13.852-0.069-26.754-3.208-38.698-9.42v-28.357
					c3.957,3.207,9.868,6.176,17.713,8.905c7.845,2.731,14.845,4.3,20.984,4.71v-37.265c-15.963-5.939-26.869-12.371-32.708-19.299
					c-5.831-6.927-8.751-15.373-8.751-25.338c0-10.715,3.791-19.844,11.363-27.386c7.582-7.542,17.608-11.928,30.096-13.157v-19.041
					h14.952v18.633c14.397,0.684,25.145,3.004,32.251,6.961v27.643c-9.559-5.8-20.307-9.349-32.251-10.646v38.799
					c14.943,5.394,25.664,11.555,32.146,18.481c6.482,6.928,9.728,15.305,9.728,25.134c0,11.33-3.624,20.459-10.853,27.385
					C783.413,873.703,773.079,877.918,759.631,879.419z M744.679,789.838v-32.453c-9.481,1.706-14.23,6.653-14.23,14.843
					C730.449,779.26,735.198,785.128,744.679,789.838z M759.631,824.442v31.02c9.763-1.499,14.644-6.381,14.644-14.639
					C774.275,834.134,769.394,828.675,759.631,824.442z"/>
			</g>
			<g>
				<path opacity="0.58" fill="#FFFFFF" d="M169.929,384.84c0,106.718,86.503,193.252,193.222,193.252
					c106.725,0,193.237-86.534,193.237-193.252c0-106.721-86.512-193.224-193.237-193.224
					C256.432,191.616,169.929,278.119,169.929,384.84z"/>
				<path fill="#173D4E" d="M160.332,379.776c0,112.01,90.819,202.821,202.819,202.821c112.019,0,202.832-90.811,202.832-202.821
					c0-112.031-90.813-202.832-202.832-202.832C251.151,176.944,160.332,267.746,160.332,379.776z M184.069,379.776
					c0-98.924,80.19-179.101,179.082-179.101c98.913,0,179.105,80.176,179.105,179.101c0,98.902-80.192,179.079-179.105,179.079
					C264.26,558.856,184.069,478.679,184.069,379.776z"/>
				<rect x="345.651" y="571.384" fill="#173D4E" width="35.022" height="97.165"/>
				<path fill="#EDC620" d="M326.443,1120.011c0,16.55,13.432,29.989,30.004,29.989h13.43c16.587,0,30.019-13.439,30.019-29.989
					V672.562c0-16.559-13.432-29.998-30.019-29.998h-13.43c-16.572,0-30.004,13.439-30.004,29.998V1120.011z"/>
				<path fill="#173D4E" d="M225.173,400.148c0.205,0,0.38,0,0.563-0.031c5.824-0.308,10.314-5.266,10.021-11.128
					c-2.098-40.57,7.917-72.64,29.773-95.279c36.956-38.273,96.338-37.623,96.996-37.73c5.682-0.022,10.655-4.549,10.745-10.407
					c0.112-5.824-4.508-10.666-10.365-10.774c-2.775,0.022-68.977-0.822-112.462,44.07c-26.191,27.04-38.238,64.459-35.84,111.224
					C214.898,395.759,219.582,400.148,225.173,400.148z"/>
			</g>
		</g>
	</g>
</g>
</svg>
