<?xml version="1.0" encoding="utf-8"?>
<!-- Generator: Adobe Illustrator 19.1.0, SVG Export Plug-In . SVG Version: 6.00 Build 0)  -->
<svg version="1.1" id="Layer_1" xmlns="http://www.w3.org/2000/svg" xmlns:xlink="http://www.w3.org/1999/xlink" x="0px" y="0px"
	 viewBox="0 0 1200 1200" enable-background="new 0 0 1200 1200" xml:space="preserve">
<g>
	<path fill="#003750" d="M53,975.666C53,1103.43,93.936,1150,210.971,1150h762.776c127.009,0,172.253-68.348,172.253-169.847
		V194.838C1146,116.129,1095.619,50,1001.886,50H173.322C94.612,50,53,116.129,53,167.157V975.666z M239.076,705.419l21.522,35.373
		l39.044-14.465l-25.902,31.691l24.733,32.37l-36.343-14.348l-24.945,33.031l8.271-44.865l-44.977-7.646l44.524-8.166
		L239.076,705.419z M330.533,893.836l-9.127-5.146l-7.839,7.857l3.846-11.615l-10.105-3.684L321,880.717v-11.63l2.857,10.187
		l10.125-2.41l-8.435,7.466L330.533,893.836z M776.122,1122h-88.505h-88.833h-103.41h-67.989l10.82-114.369l15.685-168.872
		L472.272,641H458v-13.806l0,0V558h21v-37.162L73,646.154V204.961l406,112.812v-23.069l110.623-101.025
		c-1.193-1.828-2.453-4.003-2.453-6.349c0-6.432,4.939-11.644,11.368-11.644c0.425,0,0.689,0.081,1.102,0.125
		c0.412-0.054,0.75-0.125,1.178-0.125c6.434,0,11.609,5.212,11.609,11.644c0,2.921-2.736,5.558-4.51,7.601L719,294.704V318h0.73H706
		v199h14.231H719v41h28v66.251l-0.78,1.243L745.103,627H747v3.807L745.746,648h-16.991l0.67,3.647L777.475,1122H776.122z
		 M1053.851,538.273l25.065-9.285l-16.629,20.346l15.878,20.78l-23.332-9.212l-16.014,21.205l5.309-28.801l-28.875-4.912
		l28.583-5.241l-3.803-27.589L1053.851,538.273z M886.126,701.939l6.51,8.835l10.052-4.27l-6.142,8.488l6.923,8.676l-11.108-5.132
		l-4.976,11.174l0.84-12.111l-11.556-1.316l10.619-3.239L886.126,701.939z M884.772,293.352l-32.035-32.483l-32.035,32.483
		l18.816-41.171l-38.617-19.765l41.324,2.627l10.512-40.29l11.134,39.387l40.701-1.725l-32.583,21.568L884.772,293.352z
		 M818.828,427.817l12.364,16.78l19.094-8.111l-11.668,16.123l13.15,16.482l-21.1-9.749l-9.45,21.227l1.597-23.006l-21.953-2.5
		l20.171-6.152L818.828,427.817z M948.072,354.708l-4.975,11.175l0.84-12.112l-11.556-1.317l10.619-3.239l-1.163-11.105l6.51,8.835
		l10.052-4.271l-6.142,8.489l6.923,8.676L948.072,354.708z M363.33,159.931l12.365,16.78l19.093-8.112l-11.668,16.123l13.151,16.482
		l-21.101-9.748l-9.449,21.226l1.596-23.005l-21.953-2.501l20.171-6.152L363.33,159.931z"/>
	<polygon fill="#003750" points="481.382,517 499,517 499,514.305 	"/>
	<polygon fill="#003750" points="479.42,318 499,324.032 499,318 	"/>
	<rect x="465" y="565" fill="#003750" width="14" height="62"/>
	<polygon fill="#003750" points="740,624.021 740,565 719,565 719,623.128 	"/>
	<polygon fill="#FEF8B8" points="481.382,517 499,514.305 499,324.032 479.42,318 479,318 479,317.773 73,204.961 73,646.154 
		479,520.838 479,517 	"/>
	<path fill="#5E5F69" d="M517.41,416.173c0-43.918,36.59-79.584,78.59-80.86V318h-97v6.032v190.273V517h97v-19.969
		C554,495.755,517.41,460.089,517.41,416.173z"/>
	<polygon fill="#FFFFFF" points="596,879.411 436.812,1007.631 427.384,1122 495.374,1122 596,1041.464 	"/>
	<polygon fill="#FFFFFF" points="596,565 589,565 589,627 582,627 582,565 554,565 554,627.194 554,627.194 554,565 527,565 
		527,627 520,627 520,565 493,565 493,627 486,627 486,565 479,565 479,627 462.333,627 457.473,627 458,627 458,641 472.272,641 
		452.497,839.51 596,724.11 	"/>
	<path fill="#FEF8B8" d="M517.41,416.173c0,43.915,36.59,79.582,78.59,80.858V335.314C554,336.59,517.41,372.255,517.41,416.173z"/>
	<polygon fill="#C54532" points="729.425,651.792 728.755,645 728.736,645 	"/>
	<polygon fill="#C54532" points="596,724.11 452.497,841.162 436.117,1009.133 596,879.411 	"/>
	<polygon fill="#C54532" points="495.374,1122 596,1122 596,1041.464 	"/>
	<polygon fill="#FFFFFF" points="719,558 719,517 720.231,517 720.492,558 	"/>
	<polygon fill="#FFFFFF" points="719,620 719,565 720.523,565 720.885,620 	"/>
	<polygon fill="#FFFFFF" points="596,517 499.268,517 481.382,517 479,517 479,520.838 479,558 596,558 	"/>
	<polygon fill="#BFB9AB" points="465,565 478.085,565 486,565 486,627 493,627 493,565 520,565 520,627 527,627 527,565 554,565 
		554,627.194 554,627.194 554,565 582,565 582,627 589,627 589,565 596,565 596,558 478.085,558 458,558 458,627 465,627 	"/>
	<polygon fill="#BFB9AB" points="720.523,565 721.024,565 740,565 740,624.021 747,624.251 747,558 721.024,558 720.492,558 	"/>
	<polygon fill="#FFFFFF" points="745,625 745.103,625 745,630.807 	"/>
	<path fill="#FFFFFF" d="M479.42,318h19.849H596V198.921c0,0.008,1.048,0.053,0.869,0.053c-4.084,0-5.864-2.112-7.942-5.295
		L479,294.704v23.069V318H479.42z"/>
	<path fill="#EDE7D4" d="M596.869,198.974c0.179,0-0.869-0.045-0.869-0.053v-23.038c0-0.04,1.872-0.041,2.109-0.072
		c-0.413-0.044-0.119-0.125-0.544-0.125c-6.429,0-11.296,5.212-11.296,11.644c0,2.346,0.186,4.521,1.379,6.349
		C589.727,196.862,592.786,198.974,596.869,198.974z"/>
	<rect x="699" y="318" fill="#003750" width="7" height="199"/>
	<rect x="699" y="318" opacity="0.2" fill="#211915" width="7" height="199"/>
	<polygon fill="#003750" points="719,623.128 719,627 740,627 740,624.021 	"/>
	<polygon opacity="0.2" fill="#211915" points="719,623.128 719,627 740,627 740,624.021 	"/>
	<polygon fill="#003750" points="728.715,641 728.755,648 745.746,648 747,630.807 747,641 	"/>
	<polygon opacity="0.2" fill="#211915" points="728.715,641 728.755,648 745.746,648 747,630.807 747,641 	"/>
	<path fill="#003750" d="M609.905,187.33c0,2.921-1.477,5.557-3.252,7.601L719,294.704v23.115l0,0v-23.115l-111.102-99.773
		c1.775-2.043,3.689-4.68,3.689-7.601c0-6.432-4.807-11.644-11.242-11.644c-0.428,0-0.634,0.071-1.046,0.125
		C605.141,176.438,609.905,181.323,609.905,187.33z"/>
	<path opacity="0.2" fill="#211915" d="M609.905,187.33c0,2.921-1.477,5.557-3.252,7.601L719,294.704v23.115l0,0v-23.115
		l-111.102-99.773c1.775-2.043,3.689-4.68,3.689-7.601c0-6.432-4.807-11.644-11.242-11.644c-0.428,0-0.634,0.071-1.046,0.125
		C605.141,176.438,609.905,181.323,609.905,187.33z"/>
	<polygon fill="#003750" points="745.103,624.547 745.094,624.268 744.748,624.251 744.748,624.547 	"/>
	<polygon opacity="0.2" fill="#211915" points="745.103,624.547 745.094,624.268 744.748,624.251 744.748,624.547 	"/>
	<polygon fill="#003750" points="729.425,650.003 740.603,764.092 755.405,914.563 769.591,1057.092 776.122,1122 777.475,1122 	"/>
	<polygon opacity="0.2" fill="#211915" points="729.425,650.003 740.603,764.092 755.405,914.563 769.591,1057.092 776.122,1122 
		777.475,1122 	"/>
	<path fill="#5E5F69" d="M699,318H596v17.314c0-0.023,2.975-0.121,3.783-0.121c44.723,0,81.674,36.255,81.674,80.981
		c0,44.723-37.299,80.979-82.022,80.979c-0.807,0-3.435-0.097-3.435-0.121V517h103V318z"/>
	<path opacity="0.2" fill="#211915" d="M699,318H596v17.314c0-0.023,2.975-0.121,3.783-0.121c44.723,0,81.674,36.255,81.674,80.981
		c0,44.723-37.299,80.979-82.022,80.979c-0.807,0-3.435-0.097-3.435-0.121V517h103V318z"/>
	<polygon fill="#FFFFFF" points="596,1041.464 754.013,914.939 738.515,764.843 596,879.411 	"/>
	<polygon opacity="0.2" fill="#211915" points="596,1041.464 754.013,914.939 738.515,764.843 596,879.411 	"/>
	<polygon fill="#FFFFFF" points="687.617,1122 776.122,1122 769.591,1055.778 	"/>
	<polygon opacity="0.2" fill="#211915" points="687.617,1122 776.122,1122 769.591,1055.778 	"/>
	<path fill="#FEF8B8" d="M599.783,497.152c44.723,0,81.674-36.256,81.674-80.979c0-44.725-37.299-80.981-82.022-80.981
		c-0.807,0-3.435,0.097-3.435,0.121v161.718C596,497.055,598.975,497.152,599.783,497.152z"/>
	<path opacity="0.2" fill="#211915" d="M599.783,497.152c44.723,0,81.674-36.256,81.674-80.979
		c0-44.725-37.299-80.981-82.022-80.981c-0.807,0-3.435,0.097-3.435,0.121v161.718C596,497.055,598.975,497.152,599.783,497.152z"/>
	<polygon fill="#C54532" points="697.574,641 596,724.11 596,879.411 739.211,764.843 728.729,653.148 728.736,648 728.755,648 
		728.715,641 	"/>
	<polygon opacity="0.2" fill="#211915" points="697.574,641 596,724.11 596,879.411 739.211,764.843 728.729,653.148 728.736,648 
		728.755,648 728.715,641 	"/>
	<polygon fill="#C54532" points="754.013,914.939 596,1041.464 596,1122 687.617,1122 768.895,1057.28 	"/>
	<polygon opacity="0.2" fill="#211915" points="754.013,914.939 596,1041.464 596,1122 687.617,1122 768.895,1057.28 	"/>
	<polygon fill="#FFFFFF" points="596,517 596,558 720.492,558 720.231,517 705.078,517 702.592,517 	"/>
	<polygon opacity="0.2" fill="#211915" points="596,517 596,558 720.492,558 720.231,517 705.078,517 702.592,517 	"/>
	<polygon fill="#BFB9AB" points="739,625 744,625 744,624.251 739,624.021 	"/>
	<polygon opacity="0.2" fill="#211915" points="739,625 744,625 744,624.251 739,624.021 	"/>
	<polygon fill="#BFB9AB" points="616,627 623,627 623,565 651,565 651,627 658,627 658,565 685,565 685,627.194 685,627.194 
		685,565 713,565 713,627 719,627 719,565 720.523,565 720.492,558 596,558 596,565 616,565 	"/>
	<polygon opacity="0.2" fill="#211915" points="616,627 623,627 623,565 651,565 651,627 658,627 658,565 685,565 685,627.194 
		685,627.194 685,565 713,565 713,627 719,627 719,565 720.523,565 720.492,558 596,558 596,565 616,565 	"/>
	<polygon fill="#FFFFFF" points="739.888,627 719,627 719,620 720.885,620 720.523,565 719,565 719,627 713,627 713,565 685,565 
		685,627.194 685,627.194 685,565 658,565 658,627 651,627 651,565 623,565 623,627 616,627 616,565 596,565 596,724.11 
		697.574,641 728.715,641 747,641 747,630.807 745.103,627 744.748,627 	"/>
	<polygon opacity="0.2" fill="#211915" points="739.888,627 719,627 719,620 720.885,620 720.523,565 719,565 719,627 713,627 
		713,565 685,565 685,627.194 685,627.194 685,565 658,565 658,627 651,627 651,565 623,565 623,627 616,627 616,565 596,565 
		596,724.11 697.574,641 728.715,641 747,641 747,630.807 745.103,627 744.748,627 	"/>
	<path fill="#FFFFFF" d="M605.261,194.931c-2.026,2.332-2.261,3.841-9.261,3.99V318h106.592h2.486H719v-23.296L605.261,194.931z"/>
	<path opacity="0.2" fill="#211915" d="M605.261,194.931c-2.026,2.332-2.261,3.841-9.261,3.99V318h106.592h2.486H719v-23.296
		L605.261,194.931z"/>
	<path fill="#EDE7D4" d="M596,198.921c7-0.149,7.6-1.658,9.626-3.99c1.775-2.044,3.583-4.68,3.583-7.601
		c0-6.008-5.606-10.893-11.448-11.519c-0.237,0.031-1.761,0.032-1.761,0.072V198.921z"/>
	<path opacity="0.2" fill="#211915" d="M596,198.921c7-0.149,7.6-1.658,9.626-3.99c1.775-2.044,3.583-4.68,3.583-7.601
		c0-6.008-5.606-10.893-11.448-11.519c-0.237,0.031-1.761,0.032-1.761,0.072V198.921z"/>
	<polygon fill="#4ABCDE" points="863.87,234.141 852.737,194.753 842.224,235.043 800.901,232.416 839.518,252.181 820.702,293.352 
		852.737,260.869 884.772,293.352 871.989,253.984 904.572,232.416 	"/>
	<polygon fill="#4ABCDE" points="245.455,764.206 237.185,809.071 262.129,776.04 298.472,790.388 273.74,758.018 299.642,726.328 
		260.598,740.793 239.076,705.419 245.002,748.394 200.478,756.56 	"/>
	<polygon fill="#4ABCDE" points="1043.837,543.154 1015.253,548.394 1044.129,553.306 1038.819,582.107 1054.833,560.902 
		1078.165,570.114 1062.287,549.334 1078.916,528.988 1053.851,538.273 1040.034,515.565 	"/>
	<polygon fill="#4ABCDE" points="958.4,342.675 948.348,346.946 941.838,338.111 943.001,349.216 932.382,352.455 943.938,353.771 
		943.098,365.883 948.072,354.708 959.181,359.84 952.258,351.164 	"/>
	<polygon fill="#4ABCDE" points="888.226,717.599 887.385,729.711 892.361,718.537 903.469,723.668 896.546,714.992 
		902.688,706.504 892.636,710.774 886.126,701.939 887.288,713.044 876.67,716.283 	"/>
	<polygon fill="#4ABCDE" points="323.857,879.274 321,869.087 321,880.717 307.309,881.248 318.194,884.932 313.958,896.548 
		321.602,888.69 330.631,893.836 325.206,884.33 334.006,876.864 	"/>
	<polygon fill="#4ABCDE" points="822.816,457.563 821.219,480.569 830.668,459.342 851.768,469.091 838.618,452.61 850.286,436.487 
		831.192,444.597 818.828,427.817 821.033,448.911 800.863,455.063 	"/>
	<polygon fill="#4ABCDE" points="367.318,189.677 365.722,212.682 375.171,191.456 396.271,201.204 383.121,184.722 394.788,168.6 
		375.695,176.711 363.33,159.931 365.537,181.024 345.365,187.176 	"/>
</g>
</svg>
