<?xml version="1.0" encoding="utf-8"?>
<!-- Generator: Adobe Illustrator 19.1.0, SVG Export Plug-In . SVG Version: 6.00 Build 0)  -->
<svg version="1.1" id="Layer_1" xmlns="http://www.w3.org/2000/svg" xmlns:xlink="http://www.w3.org/1999/xlink" x="0px" y="0px"
	 viewBox="0 0 1200 1200" enable-background="new 0 0 1200 1200" xml:space="preserve">
<g>
	<path fill="#C1251A" d="M1150,1001.005v-805.94C1150,115.954,1098.262,50,1004.05,50H171.255C92.143,50,50,115.954,50,167.242
		V979.88C50,1108.297,91.464,1150,209.096,1150h795.243C1111.523,1150,1150,1103.022,1150,1001.005z M1129,638.005v61.649v13.716
		v287.773v23.174c0,4.588-2.444,7.683-3.016,14.683H648.963c-10.715,0-17.963-9.86-17.963-20.582V1004h14v-69H287.683
		c-7.352,0-14.185-2.086-19.96-5.822c-0.02,0.01-0.04,0.093-0.06,0.103c-0.116-0.075-0.217-0.133-0.332-0.208
		c-0.328-0.217-0.624-0.451-0.944-0.679c-1.475-1.047-2.862-2.189-4.167-3.434c-0.321-0.307-0.654-0.587-0.964-0.905
		c-1.435-1.469-2.74-3.053-3.918-4.742c-0.248-0.357-0.466-0.727-0.702-1.093c-1.034-1.601-1.956-3.273-2.737-5.029
		c-0.114-0.255-0.253-0.493-0.361-0.751c-0.812-1.945-1.425-3.984-1.897-6.079c-0.107-0.476-0.535-0.953-0.624-1.436
		c-0.398-2.166-1.017-4.372-1.017-6.65V239.737c0-20.35,17.333-37.737,37.683-37.737H506v-10.364c0-3.686,5.757-3.636,9.443-3.636
		H534V79.654l14-1.127V188h16.942c3.686,0,4.058-0.051,4.058,3.636V202h218.153c2.512,0,4.965,0.631,7.343,1.112
		c0.578,0.118,1.105,0.542,1.673,0.687c1.679,0.426,3.365,0.933,4.945,1.582c-0.003,0.017,0.424,0.079,0.42,0.096
		C815.004,211.019,825,224.317,825,239.73V617h224.84c-4.848,0-8.155-6.907-8.155-12.904c0-8.937,7.247-15.096,16.157-15.096H1129
		V638.005z M147.64,987.889L146.7,422.09c-0.01-9.635,21.228-68.634,26.891-78.632c0.399-0.703,1.382-1.236,2.609-1.644
		l-0.022-11.623c0-3.915,2.435-7.147,5.439-7.147c3.004-0.025,5.463,3.199,5.477,7.123l0.021,11.449
		c1.287,0.376,2.31,0.901,2.724,1.624c5.654,9.905,27.541,69.214,27.56,78.644l0.931,565.8c0.01,9.726-6.059,17.705-13.484,17.724
		l-43.67,0.115C153.752,1005.558,147.65,997.615,147.64,987.889z"/>
	<path fill="#010002" d="M187.115,341.617l-0.021-11.449c-0.014-3.925-2.473-7.148-5.477-7.123c-3.004,0-5.439,3.232-5.439,7.147
		l0.022,11.623C179.245,340.802,184.019,340.712,187.115,341.617z"/>
	<path fill="#969796" d="M218.33,987.685l-0.931-565.8c-0.019-9.43-21.907-68.739-27.56-78.644
		c-0.415-0.723-1.438-1.249-2.724-1.624c-3.096-0.905-7.87-0.815-10.915,0.198c-1.226,0.408-2.21,0.94-2.609,1.644
		c-5.663,9.998-26.901,68.997-26.891,78.632l0.94,565.799c0.01,9.726,6.112,17.669,13.536,17.635l43.67-0.115
		C212.271,1005.391,218.34,997.412,218.33,987.685z M184.119,579.074c5.166-0.015,9.363,5.457,9.373,12.213
		c0.019,6.766-4.164,12.257-9.33,12.262c-5.157,0.026-9.359-5.443-9.377-12.21C174.775,584.582,178.948,579.093,184.119,579.074z
		 M184.601,760.309c-10.915,0.028-19.849-11.629-19.868-25.896l-0.153-88.762c-0.024-14.265,8.872-25.973,19.787-25.996
		c10.91-0.033,19.863,11.607,19.887,25.889l0.138,88.759C204.417,748.57,195.516,760.284,184.601,760.309z"/>
	<path fill="#1F1F1F" d="M184.367,619.654c-10.915,0.024-19.811,11.732-19.787,25.996l0.153,88.762
		c0.019,14.267,8.953,25.924,19.868,25.896c10.915-0.024,19.815-11.739,19.791-26.006l-0.138-88.759
		C204.23,631.262,195.278,619.622,184.367,619.654z M184.578,748.071c-7.191,0.007-13.093-7.673-13.097-17.082l-0.134-81.956
		c-0.024-9.404,5.854-17.117,13.044-17.151c7.186-0.014,13.087,7.673,13.098,17.077l0.143,81.97
		C197.646,740.341,191.778,748.057,184.578,748.071z"/>
	<path fill="#EFF2F1" d="M184.391,631.883c-7.19,0.033-13.069,7.747-13.044,17.151l0.134,81.956
		c0.004,9.409,5.906,17.089,13.097,17.082c7.2-0.014,13.068-7.73,13.054-17.141l-0.143-81.97
		C197.478,639.555,191.577,631.869,184.391,631.883z"/>
	<path fill="#1F1F1F" d="M184.162,603.55c5.166-0.005,9.349-5.496,9.33-12.262c-0.01-6.757-4.207-12.228-9.373-12.213
		c-5.171,0.019-9.345,5.508-9.335,12.266C174.803,598.106,179.005,603.576,184.162,603.55z"/>
	<polygon fill="#4E4E4E" points="548,78.527 534,79.654 534,188 548,188 	"/>
	<path fill="#969796" d="M569,191.636c0-3.686-0.372-3.636-4.058-3.636h-18.545h-13.995h-16.959c-3.686,0-9.443-0.051-9.443,3.636
		V202h63V191.636z"/>
	<path fill="#1F1F1F" d="M257.338,919.314c-0.247-0.355-0.467-0.73-0.702-1.094C256.872,918.586,257.09,918.957,257.338,919.314z"/>
	<path fill="#1F1F1F" d="M253.898,913.191c-0.113-0.255-0.253-0.494-0.361-0.752C253.646,912.697,253.785,912.935,253.898,913.191z"
		/>
	<path fill="#1F1F1F" d="M794.496,203.479c0.578,0.117,1.105,0.361,1.673,0.504C795.6,203.838,795.074,203.597,794.496,203.479z"/>
	<path fill="#1F1F1F" d="M340.855,887c-23.533,14-47.88,28.326-73.133,41.158c5.776,3.737,12.608,6.842,19.96,6.842H645v-48H340.855
		z"/>
	<path fill="#1F1F1F" d="M251.641,906.36c-0.107-0.475-0.194-0.956-0.282-1.437C251.447,905.407,251.534,905.884,251.641,906.36z"/>
	<path fill="#1F1F1F" d="M262.219,924.969c-0.32-0.305-0.655-0.594-0.964-0.91C261.565,924.377,261.898,924.662,262.219,924.969z"/>
	<path fill="#1F1F1F" d="M267.331,929.108c-0.326-0.217-0.625-0.47-0.944-0.697C266.706,928.639,267.003,928.891,267.331,929.108z"
		/>
	<path fill="#4E4E4E" d="M299,887V313h475.803c9.849-35,18.657-70.204,26.3-107.842c0.003-0.017,0.008,0.149,0.011,0.132
		c-1.581-0.649-3.267-0.974-4.945-1.399c-0.568-0.144-1.095-0.708-1.673-0.825c-2.378-0.482-4.831-1.067-7.343-1.067H571.636
		h-62.897H287.683C267.333,202,250,219.387,250,239.737v658.537c0,2.278,0.619,4.484,1.017,6.65
		c0.088,0.481,0.346,0.962,0.453,1.437c0.472,2.095,1.17,4.133,1.982,6.079c0.108,0.258,0.291,0.497,0.403,0.752
		c0.781,1.756,1.725,3.428,2.759,5.03c0.235,0.364,0.465,0.739,0.713,1.094c1.177,1.689,2.488,3.275,3.923,4.744
		c0.309,0.316,0.647,0.605,0.966,0.91c1.306,1.245,2.694,2.396,4.169,3.443c0.319,0.227,0.618,0.48,0.945,0.697
		c0.115,0.076,0.217,0.17,0.332,0.245c0.02-0.01,0.04-1.041,0.06-1.051c25.252-12.831,49.6-27.302,73.133-41.302H299z M548,232.183
		v49.786c0,5.893-4.608,10.714-10.5,10.714c-5.897,0.003-10.5-4.822-10.5-10.714v-49.786c0-5.907,4.603-10.729,10.5-10.729
		C543.392,221.455,548,226.277,548,232.183z"/>
	<path fill="#969796" d="M299,887h41.855H645V714h-21v-75.188c0-10.719,9.359-21.812,20.073-21.812H783V313h-8.197H299V887z"/>
	<path fill="#F2D300" d="M527,232.183v49.786c0,5.893,4.603,10.717,10.5,10.714c5.892,0,10.5-4.822,10.5-10.714v-49.786
		c0-5.907-4.608-10.729-10.5-10.729C531.603,221.455,527,226.277,527,232.183z"/>
	<path fill="#F5DB39" d="M1027.455,818.654c0,87.161-70.67,157.664-157.843,157.664s-157.824-70.425-157.824-157.586
		c0-40.31,15.13-76.733,39.994-104.733H645v175.035v46.248V1004h484V714H987.452C1012.321,742,1027.455,778.344,1027.455,818.654z"
		/>
	<path fill="#1F1F1F" d="M1057.842,589c-8.91,0-16.157,6.16-16.157,15.096c0,5.996,3.308,12.904,8.155,12.904H825V239.73
		c0-15.413-9.996-29.031-23.466-34.571C793.89,242.796,784.651,278,774.803,313H783v304H644.073
		C633.359,617,624,628.093,624,638.812V714h19.52h108.263c28.904-35,70.969-52.871,117.83-52.871
		c46.861,0,88.931,17.871,117.84,52.871H1129v-14h-69.869c-10.743,0-20.131-9.029-20.131-19.758v-22.828
		c0-10.719,9.389-19.414,20.131-19.414H1129v-49H1057.842z"/>
	<path fill="#1F1F1F" d="M631,1004v14.418c0,10.722,7.248,20.582,17.963,20.582h477.021c0.571-7,3.016-10.095,3.016-14.683V1004
		H643.52H631z"/>
	<path fill="#EFF2F1" d="M869.613,976.161c87.172,0,157.843-70.661,157.843-157.822c0-40.31-15.135-77.073-40.003-104.969
		c-28.909-32.429-70.979-52.871-117.84-52.871c-46.861,0-88.926,20.441-117.83,52.871c-24.864,27.897-39.994,64.659-39.994,104.969
		C711.789,905.5,782.44,976.161,869.613,976.161z M974.604,818.339c0,57.975-46.997,104.951-104.991,104.951
		c-57.979,0-104.964-46.976-104.964-104.951c0-57.982,46.984-104.969,104.964-104.969
		C927.606,713.37,974.604,760.358,974.604,818.339z"/>
	<path fill="#F5DB39" d="M764.649,818.339c0,57.975,46.984,104.951,104.964,104.951c57.994,0,104.991-46.976,104.991-104.951
		c0-57.982-46.997-104.969-104.991-104.969C811.633,713.37,764.649,760.358,764.649,818.339z M959.917,818.339
		c0,49.872-40.418,90.278-90.304,90.278c-49.858,0-90.291-40.406-90.291-90.278c0-49.889,40.432-90.297,90.291-90.297
		C919.499,728.042,959.917,768.451,959.917,818.339z"/>
	<path fill="#1F1F1F" d="M779.322,818.339c0,49.872,40.432,90.278,90.291,90.278c49.886,0,90.304-40.406,90.304-90.278
		c0-49.889-40.418-90.297-90.304-90.297C819.754,728.042,779.322,768.451,779.322,818.339z"/>
	<path fill="#969796" d="M1039,657.414v22.828c0,10.729,9.389,19.758,20.131,19.758H1129v-62h-69.869
		C1048.389,638,1039,646.695,1039,657.414z"/>
</g>
</svg>
