<?xml version="1.0" encoding="utf-8"?>
<!-- Generator: Adobe Illustrator 19.1.0, SVG Export Plug-In . SVG Version: 6.00 Build 0)  -->
<svg version="1.1" id="Layer_1" xmlns="http://www.w3.org/2000/svg" xmlns:xlink="http://www.w3.org/1999/xlink" x="0px" y="0px"
	 viewBox="0 0 1200 1200" enable-background="new 0 0 1200 1200" xml:space="preserve">
<g>
	<path fill="#67AEB7" d="M53,976.611C53,1083.109,111.718,1150,211.779,1150h763.547c101.601,0,170.675-67.296,170.675-168.897
		V194.995C1146,116.206,1082.281,50,1003.492,50h-829.4C95.303,50,53,116.206,53,167.286V976.611z M211.435,1129
		C135.334,1129,74,1066.612,74,990.512V628.544c27,11.593,52.754,32.508,64.567,69.78c17.179,54.198-40.612,78.04-40.612,78.04
		l-2.262,41.707c0,0,89.22,0.85,44.297,74.214c7.667,32.095,7.638,32.095,7.638,32.095s35.952-30.269,86.423,8.566
		c50.457,38.835,13.618,95.965,13.618,95.965s22.917-5.472,68.349,22.444c45.439,27.925,56.374,73.774,56.374,73.774
		s36.318-54.2,88.418-35.638c34.734,13.519,34.733,13.519,34.733,13.519s16.1-51.372,69.987-49.179
		c-6.664-107.734-22.363-178.405-23.923-185.222c-20.05-13.742-52.588-75.5-66.689-103.603
		c-44.303,15.765-74.961,138.605-76.458,149.052c-1.602,11.23-30.465,0-30.465,0s11.226-157.18,24.053-194.066
		c9.913-28.49,55.198-39.752,75.312-43.406c-0.039-6.848-0.149-14.441-0.369-23.063c-2.068-81.137,7.754-186.911,47.065-295.536
		l-0.006,0.002c0.027-0.074,0.057-0.148,0.084-0.222c4.436-12.245,9.26-24.523,14.471-36.809c0.414-0.977,0.841-1.953,1.26-2.931
		c2.172-5.059,4.414-10.117,6.725-15.175c0.541-1.185,1.076-2.369,1.625-3.554c2.614-5.641,5.301-11.279,8.093-16.911
		c0.154-0.31,0.298-0.621,0.452-0.931c2.991-6.011,6.091-12.014,9.29-18.008c0.622-1.165,1.275-2.326,1.904-3.49
		c2.497-4.615,5.051-9.222,7.676-13.822c1.03-1.807,2.077-3.61,3.128-5.414c2.419-4.154,4.898-8.299,7.425-12.436
		c1.057-1.732,2.098-3.466,3.175-5.195c3.558-5.714,7.19-11.415,10.96-17.09c0.711,0.972,1.399-4.082,2.077-3.082
		c0.695-0.999,1.378,4.054,2.085,3.082c3.776,5.684,7.413,11.394,10.977,17.117c1.059,1.702,2.084,3.409,3.125,5.114
		c2.545,4.167,5.041,8.34,7.477,12.523c1.038,1.783,2.073,3.566,3.091,5.352c2.64,4.626,5.21,9.26,7.721,13.902
		c0.617,1.14,0.385,2.277,0.994,3.417c0.003,0.006-0.86,0.012-0.86,0.019c0,0.003,0,0.007,0,0.01
		c7,5.997,7.175,12.003,10.167,18.017c0.142,0.285,0.711,0.571,0.852,0.856c0.014,0.027,0.245,0.055,0.258,0.082
		c0,0,0.114,0.01,0.116,0.015c2.789,5.627,5.528,11.259,8.139,16.895c0.54,1.167,1.095,3.912,1.628,5.079
		c0.004,0.008,0.026,1.603,0.026,1.603h0.011c2.314,0,4.561,8.555,6.736,13.621c0.403,0.939,0.816,1.09,1.214,2.029
		c0.011,0.024,0.022-0.345,0.032-0.32c0.011,0.026,0.021-0.145,0.032-0.119c5.206,12.275,10.024,24.445,14.456,36.679
		c0.004,0.012-0.862-0.025-0.857-0.013c0.019,0.053-0.811,0.081-0.811,0.133V358c7,6.476,5.436,12.932,7.573,19.384
		c0.195,0.587,0.825,1.17,1.017,1.756c4.327,13.166,8.461,26.265,11.979,39.265c0.066,0.245,0.238,0.488,0.304,0.733
		c1.68,6.231,3.322,12.436,4.827,18.615c0.113,0.463,0.256,0.927,0.368,1.389c3.093,12.799,5.834,25.472,8.224,37.988
		c0.115,0.6,0.231,1.198,0.344,1.797c1.092,5.792,2.121,11.549,3.074,17.267c0.076,0.455,0.158,0.912,0.234,1.366
		c2.001,12.146,3.691,24.107,5.104,35.863c0.113,0.937,0.222,1.87,0.331,2.804c0.619,5.301,1.19,10.562,1.699,15.771
		c0.045,0.457,0.096,0.92,0.14,1.377c0.55,5.729,1.036,11.4,1.459,17.008c0.051,0.676,0.092,1.34,0.141,2.014
		c0.346,4.735,0.646,9.42,0.907,14.062c0.069,1.229,0.138,2.455,0.201,3.677c0.248,4.793,0.461,9.541,0.624,14.226
		c0.016,0.445,0.038,0.899,0.053,1.343c0.169,5.108,0.282,10.136,0.356,15.105c0.018,1.208,0.024,2.395,0.037,3.594
		c0.04,3.794,0.055,7.544,0.043,11.251c-0.004,1.331-0.006,2.662-0.016,3.981c-0.038,4.695-0.103,9.341-0.218,13.885
		c-0.103,4.038-0.19,7.838-0.267,11.489c-0.012,0.584-0.184,1.139-0.196,1.714c-0.068,3.336-0.342,6.561-0.342,9.616
		c0,0.073,0,0.148,0,0.221c0,0.003,0.202,0.009,0.222,0.012c1.184,0.215,2.534,0.457,3.882,0.727
		c0.086,0.017,0.205,0.033,0.292,0.05c1.33,0.268,2.751,0.565,4.212,0.89c0.225,0.05,0.462,0.102,0.689,0.154
		c1.37,0.309,2.787,0.64,4.247,1.002c0.145,0.035,0.284,0.067,0.43,0.103c1.518,0.379,3.085,0.793,4.678,1.231
		c0.361,0.1,0.724,0.201,1.088,0.304c1.574,0.443,3.166,0.906,4.787,1.409c0.07,0.022,0.138,0.041,0.208,0.063
		c1.638,0.511,3.297,1.065,4.963,1.641c0.419,0.145,0.836,0.291,1.257,0.44c1.673,0.594,3.349,1.211,5.024,1.874
		c0.195,0.077,0.387,0.161,0.581,0.239c1.502,0.602,2.996,1.239,4.484,1.899c0.433,0.192,0.864,0.383,1.296,0.58
		c1.62,0.742,3.225,1.514,4.804,2.33c0.299,0.155,0.589,0.319,0.885,0.475c1.372,0.725,2.72,1.483,4.045,2.267
		c0.363,0.215,0.729,0.425,1.089,0.645c1.497,0.916,2.955,1.87,4.369,2.866c0.318,0.224,0.623,0.458,0.937,0.687
		c1.227,0.894,2.413,1.82,3.557,2.779c0.254,0.213,0.517,0.416,0.766,0.633c1.286,1.114,2.501,2.279,3.658,3.482
		c0.272,0.283,0.531,0.574,0.795,0.862c1.038,1.133,2.022,2.298,2.93,3.509c0.12,0.161,0.255,0.312,0.373,0.475
		c0.973,1.337,1.836,2.734,2.632,4.169c0.188,0.339,0.365,0.682,0.543,1.027c0.765,1.488,1.467,3.009,2.022,4.603
		c12.82,36.887,24.059,194.066,24.059,194.066s-28.873,11.23-30.48,0c-0.048-0.336-0.13-0.804-0.237-1.366
		c-0.038-0.201-0.098-0.476-0.144-0.704c-0.083-0.413-0.166-0.823-0.274-1.324c-0.073-0.337-0.165-0.742-0.249-1.116
		c-0.106-0.472-0.209-0.939-0.332-1.47c-0.119-0.513-0.256-1.087-0.391-1.652c-0.114-0.48-0.227-0.954-0.353-1.47
		c-0.169-0.694-0.356-1.439-0.546-2.195c-0.114-0.453-0.227-0.904-0.348-1.378c-0.225-0.879-0.464-1.803-0.714-2.752
		c-0.11-0.419-0.221-0.842-0.336-1.274c-0.277-1.045-0.57-2.128-0.875-3.245c-0.106-0.388-0.215-0.784-0.324-1.181
		c-0.338-1.225-0.69-2.483-1.059-3.784c-0.08-0.283-0.164-0.574-0.246-0.861c-0.418-1.462-0.85-2.957-1.307-4.502
		c-0.026-0.089-0.054-0.179-0.08-0.268c-11.892-40.184-36.44-106.247-67.984-118.25c-0.578,1.497-1.448,3.723-2.548,6.466
		c-0.025,0.062-0.05,0.125-0.075,0.188c-0.34,0.847-0.702,1.741-1.086,2.686c-0.035,0.086-0.069,0.171-0.105,0.258
		c-0.364,0.894-0.746,1.825-1.147,2.797c-0.075,0.182-0.148,0.359-0.224,0.543c-0.401,0.969-0.819,1.973-1.254,3.01
		c-0.063,0.149-0.123,0.294-0.186,0.445c-0.443,1.054-0.903,2.139-1.378,3.254c-0.079,0.186-0.155,0.365-0.235,0.552
		c-0.534,1.249-1.085,2.528-1.657,3.843c-0.008,0.02-0.016,0.039-0.025,0.058c-1.2,2.759-2.479,5.646-3.829,8.627
		c-0.003,0.005-0.005,0.011-0.008,0.016c-0.649,1.432-1.315,2.887-1.996,4.356c-0.117,0.253-0.239,0.51-0.357,0.765
		c-0.562,1.208-1.13,2.422-1.711,3.647c-0.204,0.429-0.41,0.861-0.616,1.291c-0.504,1.057-1.013,2.116-1.53,3.181
		c-0.245,0.505-0.493,1.009-0.741,1.515c-0.504,1.029-1.012,2.056-1.527,3.088c-0.258,0.519-0.518,1.035-0.78,1.554
		c-0.506,1.004-1.016,2.005-1.531,3.008c-0.276,0.537-0.551,1.073-0.83,1.608c-0.527,1.014-1.059,2.023-1.594,3.031
		c-0.27,0.508-0.538,1.016-0.81,1.523c-0.562,1.045-1.128,2.08-1.698,3.115c-0.253,0.46-0.504,0.923-0.759,1.38
		c-0.625,1.121-1.256,2.228-1.889,3.331c-0.206,0.358-0.409,0.722-0.615,1.078c-1.686,2.907-3.397,5.735-5.126,8.448
		c-0.215,0.338-0.432,0.659-0.647,0.993c-0.64,0.991-1.282,1.975-1.926,2.932c-0.305,0.453-0.612,0.887-0.918,1.332
		c-0.557,0.81-1.114,1.613-1.673,2.393c-0.342,0.477-0.684,0.934-1.026,1.398c-0.528,0.716-1.055,1.423-1.583,2.109
		c-0.359,0.465-0.717,0.915-1.076,1.366c-0.513,0.644-1.024,1.273-1.537,1.884c-0.367,0.438-0.734,0.866-1.1,1.287
		c-0.507,0.581-1.013,1.141-1.518,1.687c-0.369,0.398-0.737,0.793-1.105,1.172c-0.506,0.521-1.01,1.012-1.514,1.495
		c-0.362,0.347-0.725,0.699-1.086,1.026c-0.519,0.47-1.036,0.899-1.553,1.325c-0.34,0.28-0.681,0.575-1.019,0.835
		c-0.569,0.437-1.133,0.819-1.697,1.198c-0.282,0.189-0.566,0.405-0.847,0.579c-0.842,0.523-1.68,0.986-2.51,1.367
		c-0.447-0.122-0.968-0.195-1.424-0.312c-14.091,93.217-16.625,169.859-16.503,214.89c0.418,0.76,0.812,1.52,1.177,2.28
		c17.808-9.026,66.241-27.203,82.437,31.709c13.064-2.802,29.21-4.192,49.48-2.503c11.61,0.968,21.068,5.627,28.805,12.627H211.435z
		 M953.187,407.737l12.275,2.129l8.54-8.568l1.963,11.941l11.215,5.41l-11.058,5.249l-1.609,11.908l-8.794-8.685l-12.212,1.946
		l5.62-10.624L953.187,407.737z M899.568,543.549l-5.797-3.168l-5.71,3.069l1.007-6.594l-4.714-4.718l6.421-0.907l2.794-5.988
		l2.953,6.033l6.451,1.02l-4.593,4.637L899.568,543.549z M830.738,299.625l-19.54-6.785l-17.041,11.732L795,284.485l-16.683-11.895
		l20.07-5.624l6.739-19.085l11.551,16.616l20.834,0.093l-12.925,15.895L830.738,299.625z M396.971,299.255l-5.803-3.171l-5.706,3.07
		l1.007-6.591l-4.72-4.717l6.42-0.91l2.793-5.985l2.956,6.031l6.455,1.017l-4.599,4.641L396.971,299.255z M374.42,1055.207
		c-14.362,7.178-34.717-2.397-23.945-21.558c0,0-20.359,0-20.359-14.368c0-17.96,23.952-8.382,23.952-8.382
		s8.385-27.543,28.737-15.567c20.353,11.973,7.179,29.937,7.179,29.937S406.645,1039.096,374.42,1055.207z M222.548,379.669
		l11.558,16.613l20.835,0.095l-12.918,15.892l6.138,19.142l-19.54-6.786l-17.041,11.733l0.842-20.089l-16.676-11.892l20.071-5.625
		L222.548,379.669z M430.54,1034.236c6.61-2.215,14.094,2.025,17.518,9.593c2.509-0.657,5.458-0.42,8.237,0.871
		c5.534,2.573,8.318,8.324,6.219,12.842c-2.103,4.527-8.284,6.107-13.819,3.536c-0.36-0.165-0.673-0.375-1.005-0.566
		c-1.495,2.569-3.707,4.55-6.515,5.491c-7.176,2.402-15.36-2.765-18.304-11.534C419.94,1045.692,423.368,1036.638,430.54,1034.236z
		 M494.127,1020.952c4.947-2.34,10.504-0.955,12.409,3.089c1.907,4.04-0.544,9.215-5.498,11.546
		c-4.946,2.342-10.502,0.955-12.407-3.083C486.717,1028.458,489.183,1023.287,494.127,1020.952z M794.92,1023.669
		c-0.593,9.337-10.332,16.294-21.748,15.556c-0.739-0.043-1.431-0.203-2.139-0.31c-0.879,5.505-3.403,10.471-7.669,14.023
		c-10.905,9.065-28.715,5.596-39.811-7.74c-11.092-13.346-11.24-31.504-0.342-40.566c10.062-8.363,26.015-6.031,37.133,4.877
		c3.941-2.85,9.256-4.436,14.996-4.066C786.757,1006.182,795.532,1014.344,794.92,1023.669z M663.998,1053.791
		c0,0-2.547-7.122,6.312-9.225c4.933-1.173,6.795,6.312,6.795,6.312s7.534-2.261,8.124,3.975c0.58,6.233-4.479,7.205-4.479,7.205
		s-1.173,4.677-5.849,3.896c-4.675-0.778-4.486-5.455-0.976-7.597C668.467,1061.666,661.281,1061.5,663.998,1053.791z M1132,990.512
		c0,76.101-62.756,138.488-138.857,138.488H813.669c1.72-7,4.13-16.643,7.575-26.489c16.17-46.202,64.683-32.372,64.683-32.372
		s-11.051-7.61-1.537-35.768C871.121,827.663,1056,848.451,1132,862.754V990.512z"/>
	<path fill="#FFFFFF" d="M579.354,223.089c3.557-5.714,7.189-11.415,10.96-17.09C586.544,211.674,582.913,217.376,579.354,223.089z"
		/>
	<path fill="#FFFFFF" d="M594.475,205.999c3.776,5.684,7.414,11.394,10.977,17.117C601.888,217.393,598.251,211.683,594.475,205.999
		z"/>
	<path fill="#FFFFFF" d="M568.754,240.72c2.419-4.154,4.899-8.299,7.425-12.436C573.652,232.422,571.173,236.567,568.754,240.72z"/>
	<path fill="#FFFFFF" d="M689.982,419.137c1.68,6.231,3.267,12.436,4.772,18.616C693.249,431.573,691.662,425.368,689.982,419.137z"
		/>
	<path fill="#FFFFFF" d="M557.951,259.957c2.495-4.614,5.053-9.222,7.676-13.822C563.002,250.735,560.448,255.342,557.951,259.957z"
		/>
	<path fill="#FFFFFF" d="M678.025,379.137c4.327,13.165,8.243,26.267,11.762,39.266
		C686.268,405.403,682.352,392.303,678.025,379.137z"/>
	<path fill="#FFFFFF" d="M483.644,742h89.048l-4.966-57.243c0,0,11.274-4.523,18.274-5.495V516.274l-28.478,16.023l6.415-35.448
		l-26.736-24.482l35.27-5.885L586,435.735v-89.939c-42,1.028-73.531,12.164-73.609,12.191
		c-39.311,108.625-48.302,214.399-46.233,295.536c0.22,8.622,0.746,16.215,0.785,23.063c5.928-1.077,9.901-1.585,9.901-1.585
		S480.606,700,483.644,742z"/>
	<path fill="#FFFFFF" d="M626.848,259.973c0.005,0.009,0.01,0.018,0.015,0.027c0,0,0.003,0.004,0.003,0.006
		c-2.51-4.641-5.081-9.276-7.721-13.902c1.105,1.936,2.15,3.88,3.232,5.819C623.873,254.605,625.394,257.285,626.848,259.973z"/>
	<path fill="#FFFFFF" d="M608.594,228.258c0.793,1.299,1.546,2.602,2.329,3.901c1.722,2.863,3.461,5.724,5.132,8.595
		c-2.436-4.183-4.932-8.356-7.477-12.523c0,0,0.006,0.011,0.009,0.016C608.589,228.25,608.591,228.253,608.594,228.258z"/>
	<path fill="#FFFFFF" d="M514.131,357.767c4.438-12.244,9.261-24.524,14.471-36.809
		C523.391,333.244,518.567,345.522,514.131,357.767z"/>
	<path fill="#FFFFFF" d="M717.318,676.564c0.001-0.073,0.003-0.148,0.004-0.221C717.32,676.413,717.319,676.493,717.318,676.564
		L717.318,676.564z"/>
	<path fill="#FFFFFF" d="M546.757,281.455c2.989-6.011,6.092-12.014,9.29-18.008C552.847,269.441,549.748,275.444,546.757,281.455z"
		/>
	<path fill="#FFFFFF" d="M638.04,281.469c-2.992-6.014-6.093-12.02-9.294-18.017c1.596,2.991,3.089,5.991,4.635,8.986
		C634.932,275.448,636.541,278.454,638.04,281.469z"/>
	<path fill="#FFFFFF" d="M538.212,299.298c2.613-5.641,5.303-11.279,8.093-16.911C543.513,288.019,540.826,293.657,538.212,299.298z
		"/>
	<path fill="#FFFFFF" d="M529.862,318.027c2.171-5.059,4.416-10.118,6.725-15.175C534.276,307.91,532.034,312.968,529.862,318.027z"
		/>
	<path fill="#FFFFFF" d="M668.014,350.761c0.876,2.344,1.807,4.69,2.655,7.031c-4.432-12.234-9.25-24.502-14.456-36.778
		c0.209,0.491,0.395,0.983,0.602,1.475C660.791,331.923,664.497,341.349,668.014,350.761z"/>
	<path fill="#FFFFFF" d="M717.603,605.706c0.17,5.108,0.282,10.136,0.356,15.105C717.885,615.841,717.772,610.813,717.603,605.706z"
		/>
	<path fill="#FFFFFF" d="M716.926,590.137c0.249,4.793,0.461,9.541,0.624,14.226C717.387,599.678,717.174,594.93,716.926,590.137z"
		/>
	<path fill="#FFFFFF" d="M654.937,318.047c-2.175-5.066-4.42-10.131-6.734-15.196c1.69,3.698,3.301,7.395,4.916,11.093
		C653.716,315.312,654.35,316.68,654.937,318.047z"/>
	<path fill="#FFFFFF" d="M717.996,624.405c0.04,3.794,0.055,7.545,0.043,11.251C718.051,631.95,718.036,628.199,717.996,624.405z"/>
	<path fill="#FFFFFF" d="M717.537,665.012c-0.013,0.582-0.023,1.141-0.035,1.714C717.514,666.151,717.525,665.596,717.537,665.012z"
		/>
	<path fill="#FFFFFF" d="M715.818,572.397c0.347,4.735,0.646,9.421,0.907,14.062C716.464,581.817,716.163,577.132,715.818,572.397z"
		/>
	<path fill="#FFFFFF" d="M718.023,639.638c-0.038,4.694-0.103,9.341-0.218,13.885C717.92,648.979,717.984,644.333,718.023,639.638z"
		/>
	<path fill="#FFFFFF" d="M714.217,553.375c0.551,5.73,1.035,11.399,1.459,17.008C715.253,564.775,714.767,559.105,714.217,553.375z"
		/>
	<path fill="#FFFFFF" d="M695.095,439.142c3.093,12.798,5.819,25.473,8.211,37.988C700.916,464.614,698.188,451.941,695.095,439.142
		z"/>
	<path fill="#FFFFFF" d="M677.443,377.389c-2.137-6.451-4.36-13.389-6.704-19.389h-0.001
		C673.081,364,675.305,370.939,677.443,377.389z"/>
	<path fill="#FFFFFF" d="M703.643,478.928c1.093,5.792,2.118,11.549,3.07,17.267C705.761,490.477,704.736,484.72,703.643,478.928z"
		/>
	<path fill="#FFFFFF" d="M706.945,497.56c2.003,12.146,3.688,24.107,5.103,35.863C710.635,521.667,708.947,509.706,706.945,497.56z"
		/>
	<path fill="#FFFFFF" d="M646.588,299.318c-2.611-5.636-5.296-11.268-8.085-16.895c1.915,3.864,3.725,7.734,5.551,11.602
		C644.89,295.789,645.77,297.552,646.588,299.318z"/>
	<path fill="#FFFFFF" d="M712.379,536.228c0.62,5.301,1.189,10.562,1.698,15.771C713.569,546.79,712.998,541.529,712.379,536.228z"
		/>
	<path fill="#E2583D" d="M654.938,318.051c0.402,0.938,0.812,1.878,1.211,2.813c-0.398-0.939-0.81-1.877-1.213-2.816
		c-0.587-1.368-1.221-2.735-1.818-4.103C653.717,315.313,654.351,316.682,654.938,318.051z"/>
	<path fill="#E2583D" d="M668.014,350.761c-3.517-9.413-7.223-18.838-11.198-28.272
		C660.791,331.925,664.493,341.349,668.014,350.761z"/>
	<path fill="#E2583D" d="M646.58,299.302c0.545,1.171,1.073,2.347,1.609,3.517c-0.533-1.167-1.06-2.334-1.601-3.501
		c-0.818-1.765-1.698-3.528-2.534-5.293C644.885,295.784,645.764,297.541,646.58,299.302z"/>
	<path fill="#E2583D" d="M628.731,263.423c-0.609-1.141-1.248-2.277-1.865-3.417c-0.001-0.002-0.002-0.004-0.002-0.004
		C627.479,261.141,628.12,262.281,628.731,263.423z"/>
	<path fill="#E2583D" d="M638.03,281.45c0.147,0.292,0.283,0.584,0.426,0.875c-0.141-0.285-0.274-0.571-0.416-0.856
		c-1.499-3.014-3.108-6.021-4.659-9.031C634.931,275.442,636.533,278.441,638.03,281.45z"/>
	<path fill="#E2583D" d="M586,207.541c7-0.513,2.312-1.031,2.651-1.542c-3.77,5.675-6.571,11.376-10.128,17.09
		c-1.077,1.729-1.702,3.463-2.759,5.195c-2.526,4.138-4.798,8.283-7.217,12.436c-1.05,1.804-1.993,3.607-3.024,5.414
		c-2.623,4.6-5.129,9.208-7.624,13.822c-0.63,1.164-1.257,2.325-1.878,3.49c-3.197,5.993-6.288,11.997-9.277,18.008
		c-0.154,0.31-0.292,0.621-0.446,0.931c-2.79,5.632-5.477,11.27-8.09,16.911c-0.549,1.185-1.082,2.369-1.623,3.554
		c-2.309,5.057-4.553,10.116-6.724,15.175c-0.419,0.978-0.846,1.954-1.26,2.931c-5.209,12.285-10.033,26.071-14.471,38.315
		c-0.027,0.074-0.057,1.727-0.083,1.727h-1.61c0.079,0,31.563-14.176,73.563-15.205V207.541z"/>
	<path fill="#E2583D" d="M616.038,240.727c1.048,1.8,2.093,3.6,3.122,5.404c1.1,1.928,2.14,3.862,3.217,5.792
		c-1.081-1.939-2.127-3.882-3.232-5.819c-1.018-1.786-2.053-3.568-3.091-5.352c-1.671-2.87-3.409-5.731-5.132-8.595
		C612.642,235.012,614.371,237.863,616.038,240.727z"/>
	<path fill="#E2583D" d="M606,228.245c0-0.005,0-0.011,0-0.011c0-1.71-0.779-3.417-1.838-5.119
		c-3.563-5.722-6.556-11.433-10.332-17.117c3.774,5.682,6.438,11.388,9.999,17.106C604.894,224.817,606,226.532,606,228.245z"/>
	<path fill="#192D37" d="M700.633,789.309c-0.009,0.019-0.017,0.038-0.025,0.058C700.617,789.348,700.625,789.329,700.633,789.309z"
		/>
	<path fill="#192D37" d="M688.295,815.855c-0.258,0.518-0.519,1.035-0.78,1.554C687.777,816.89,688.036,816.374,688.295,815.855z"/>
	<path fill="#192D37" d="M681.051,829.693c-0.253,0.46-0.504,0.923-0.759,1.38C680.547,830.616,680.798,830.154,681.051,829.693z"/>
	<path fill="#192D37" d="M704.089,781.214c-0.063,0.149-0.123,0.295-0.186,0.445C703.966,781.508,704.026,781.364,704.089,781.214z"
		/>
	<path fill="#192D37" d="M702.524,784.914c-0.079,0.186-0.155,0.365-0.235,0.552C702.37,785.278,702.445,785.1,702.524,784.914z"/>
	<path fill="#192D37" d="M683.559,825.056c-0.27,0.508-0.539,1.017-0.81,1.523C683.021,826.073,683.289,825.565,683.559,825.056z"/>
	<path fill="#192D37" d="M692.708,806.779c-0.203,0.429-0.41,0.861-0.616,1.291C692.298,807.64,692.505,807.208,692.708,806.779z"/>
	<path fill="#192D37" d="M678.403,834.404c-0.206,0.358-0.409,0.722-0.615,1.078C677.994,835.127,678.198,834.763,678.403,834.404z"
		/>
	<path fill="#192D37" d="M685.984,820.416c-0.276,0.537-0.551,1.073-0.83,1.608C685.432,821.489,685.708,820.953,685.984,820.416z"
		/>
	<path fill="#192D37" d="M696.779,797.994c-0.003,0.005-0.005,0.011-0.008,0.016C696.774,798.005,696.776,798,696.779,797.994z"/>
	<path fill="#192D37" d="M694.776,802.367c-0.117,0.253-0.239,0.51-0.357,0.765C694.537,802.878,694.658,802.62,694.776,802.367z"/>
	<path fill="#192D37" d="M690.562,811.252c-0.245,0.504-0.493,1.01-0.741,1.515C690.07,812.261,690.318,811.756,690.562,811.252z"/>
	<path fill="#192D37" d="M662.277,858.337c-0.367,0.438-0.733,0.866-1.1,1.287C661.543,859.203,661.909,858.775,662.277,858.337z"/>
	<path fill="#192D37" d="M667.498,851.58c-0.342,0.476-0.684,0.935-1.026,1.398C666.814,852.514,667.156,852.057,667.498,851.58z"/>
	<path fill="#192D37" d="M659.658,861.311c-0.369,0.398-0.737,0.793-1.105,1.172C658.922,862.103,659.29,861.709,659.658,861.311z"
		/>
	<path fill="#192D37" d="M657.04,863.977c-0.362,0.347-0.725,0.7-1.086,1.026C656.315,864.676,656.678,864.325,657.04,863.977z"/>
	<path fill="#192D37" d="M651.684,868.361c-0.282,0.189-0.566,0.405-0.847,0.579C651.118,868.766,651.402,868.551,651.684,868.361z"
		/>
	<path fill="#192D37" d="M654.4,866.328c-0.34,0.28-0.681,0.575-1.019,0.835C653.719,866.903,654.06,866.608,654.4,866.328z"/>
	<path fill="#192D37" d="M664.889,855.087c-0.359,0.465-0.717,0.915-1.076,1.366C664.173,856.002,664.531,855.553,664.889,855.087z"
		/>
	<path fill="#192D37" d="M706.819,774.605c-0.035,0.085-0.07,0.172-0.105,0.258C706.75,774.777,706.784,774.691,706.819,774.605z"/>
	<path fill="#192D37" d="M705.567,777.661c-0.074,0.18-0.148,0.36-0.224,0.543C705.419,778.02,705.492,777.842,705.567,777.661z"/>
	<path fill="#192D37" d="M672.662,843.931c-0.215,0.337-0.432,0.659-0.647,0.993C672.23,844.59,672.447,844.268,672.662,843.931z"/>
	<path fill="#192D37" d="M707.98,771.732c-0.024,0.061-0.05,0.126-0.075,0.188C707.929,771.857,707.955,771.794,707.98,771.732z"/>
	<path fill="#192D37" d="M670.089,847.855c-0.305,0.453-0.612,0.888-0.918,1.332C669.477,848.743,669.783,848.309,670.089,847.855z"
		/>
	<path fill="#192D37" d="M619.271,866.27c-0.469-0.023-0.944-0.028-1.415-0.048C618.326,866.242,618.803,866.248,619.271,866.27z"/>
	<path fill="#192D37" d="M640.205,868.529c-0.813-0.147-1.645-0.275-2.477-0.407C638.56,868.254,639.394,868.383,640.205,868.529z"
		/>
	<path fill="#192D37" d="M579.882,866.963l3.976,69.014l18.012-0.711L586,935.779V679.263c-7,0.972-18.274,5.495-18.274,5.495
		L572.692,742h-89.048c-3.038-42-6.593-66.999-6.593-66.999s-3.765,0.466-9.693,1.543c-20.115,3.654-65.399,14.937-75.312,43.428
		c-12.827,36.887-24.053,194.077-24.053,194.077s28.864,11.236,30.465,0.005c1.497-10.447,32.155-133.284,76.458-149.049
		c14.102,28.103,46.639,89.862,66.689,103.604c1.337,0.916,2.636,1.685,3.852,2.15C549.938,869.981,563.389,868.124,579.882,866.963
		z"/>
	<path fill="#192D37" d="M630.921,867.209c-0.775-0.085-1.531-0.183-2.317-0.258C629.389,867.025,630.148,867.123,630.921,867.209z"
		/>
	<polygon fill="#E2583D" points="572.68,466.483 536.786,472.367 564.353,496.85 557.315,532.297 586,516.274 586,435.735 	"/>
	<path fill="#192D37" d="M753.562,686.703c1.502,0.602,2.996,1.239,4.484,1.899C756.558,687.942,755.064,687.305,753.562,686.703z"
		/>
	<path fill="#192D37" d="M741.737,682.508c1.637,0.51,3.297,1.066,4.963,1.641C745.034,683.573,743.375,683.019,741.737,682.508z"/>
	<path fill="#192D37" d="M747.956,684.589c1.672,0.594,3.349,1.211,5.024,1.874C751.305,685.8,749.629,685.183,747.956,684.589z"/>
	<path fill="#192D37" d="M780.144,889.147c-0.081-0.285-0.164-0.573-0.246-0.861C779.98,888.573,780.064,888.864,780.144,889.147z"
		/>
	<path fill="#192D37" d="M730.977,679.501c1.517,0.378,3.085,0.794,4.676,1.231C734.061,680.294,732.496,679.88,730.977,679.501z"/>
	<path fill="#192D37" d="M778.591,883.785c-0.026-0.089-0.053-0.179-0.08-0.268C778.538,883.605,778.565,883.696,778.591,883.785z"
		/>
	<path fill="#192D37" d="M721.436,677.352c1.327,0.267,2.734,0.566,4.193,0.89C724.166,677.918,722.766,677.62,721.436,677.352z"/>
	<path fill="#192D37" d="M717.381,676.576c1.181,0.214,2.458,0.458,3.802,0.727C719.836,677.033,718.565,676.791,717.381,676.576z"
		/>
	<path fill="#192D37" d="M736.742,681.036c1.573,0.442,3.167,0.907,4.787,1.409C739.908,681.942,738.315,681.479,736.742,681.036z"
		/>
	<path fill="#192D37" d="M726.308,678.396c1.368,0.308,2.784,0.641,4.242,1.002C729.089,679.036,727.678,678.705,726.308,678.396z"
		/>
	<path fill="#192D37" d="M787.55,710.193c0.973,1.337,1.837,2.734,2.632,4.169C789.386,712.928,788.523,711.53,787.55,710.193z"/>
	<path fill="#192D37" d="M786.326,914.058c-0.048-0.337-0.129-0.802-0.237-1.366C786.196,913.255,786.278,913.722,786.326,914.058z"
		/>
	<path fill="#192D37" d="M790.724,715.39c0.765,1.488,1.467,3.009,2.022,4.603C792.192,718.398,791.49,716.878,790.724,715.39z"/>
	<path fill="#192D37" d="M784.247,706.209c1.038,1.132,2.023,2.298,2.93,3.509C786.269,708.508,785.285,707.342,784.247,706.209z"/>
	<path fill="#192D37" d="M784.699,906.426c-0.115-0.483-0.226-0.951-0.353-1.47C784.472,905.472,784.585,905.946,784.699,906.426z"
		/>
	<path fill="#192D37" d="M759.342,689.183c1.619,0.741,3.225,1.515,4.804,2.33C762.567,690.697,760.962,689.925,759.342,689.183z"/>
	<path fill="#192D37" d="M785.422,909.548c-0.106-0.475-0.208-0.935-0.332-1.47C785.213,908.609,785.317,909.076,785.422,909.548z"
		/>
	<path fill="#192D37" d="M785.945,911.989c-0.084-0.414-0.166-0.822-0.274-1.324C785.779,911.166,785.862,911.576,785.945,911.989z"
		/>
	<path fill="#192D37" d="M779.794,701.865c1.286,1.114,2.502,2.279,3.658,3.482C782.295,704.144,781.079,702.979,779.794,701.865z"
		/>
	<path fill="#192D37" d="M765.031,691.988c1.372,0.726,2.72,1.483,4.045,2.267C767.752,693.471,766.404,692.714,765.031,691.988z"/>
	<path fill="#192D37" d="M770.165,694.9c1.497,0.915,2.956,1.87,4.369,2.866C773.121,696.77,771.662,695.816,770.165,694.9z"/>
	<path fill="#192D37" d="M781.528,894.112c-0.106-0.391-0.214-0.782-0.324-1.181C781.313,893.328,781.422,893.724,781.528,894.112z"
		/>
	<path fill="#192D37" d="M783.8,902.761c-0.114-0.456-0.226-0.9-0.348-1.378C783.573,901.857,783.686,902.308,783.8,902.761z"/>
	<path fill="#192D37" d="M775.47,698.453c1.226,0.894,2.413,1.82,3.557,2.779C777.884,700.273,776.697,699.348,775.47,698.453z"/>
	<path fill="#192D37" d="M782.739,898.631c-0.111-0.421-0.22-0.839-0.336-1.274C782.517,897.789,782.629,898.212,782.739,898.631z"
		/>
	<path fill="#192D37" d="M608.286,865.969c-2.322,34.029-4.165,60.763-4.634,67.564c0.464-6.713,2.308-32.533,4.633-67.533
		c0.42,0,0.839,0,1.258,0C609.122,866,608.707,865.972,608.286,865.969z"/>
	<path fill="#FFFFFF" d="M382.805,995.332c-20.352-11.976-28.737,15.567-28.737,15.567s-23.952-9.578-23.952,8.382
		c0,14.368,20.359,14.368,20.359,14.368c-10.772,19.161,9.583,28.737,23.945,21.558c32.224-16.111,15.563-29.938,15.563-29.938
		S403.157,1007.304,382.805,995.332z"/>
	<path fill="#FFFFFF" d="M674.901,1065.954c4.676,0.781,5.849-3.896,5.849-3.896s5.059-0.972,4.479-7.205
		c-0.59-6.236-8.124-3.975-8.124-3.975s-1.863-7.485-6.795-6.312c-8.859,2.103-6.312,9.225-6.312,9.225
		c-2.717,7.709,4.469,7.875,9.927,4.567C670.415,1060.499,670.226,1065.176,674.901,1065.954z"/>
	<path fill="#FFFFFF" d="M501.038,1035.587c4.954-2.331,7.406-7.506,5.498-11.546c-1.905-4.044-7.462-5.429-12.409-3.089
		c-4.945,2.335-7.41,7.506-5.496,11.552C490.536,1036.542,496.092,1037.929,501.038,1035.587z"/>
	<path fill="#FFFFFF" d="M441.176,1066.002c2.808-0.941,5.02-2.922,6.515-5.491c0.331,0.191,0.644,0.401,1.005,0.566
		c5.535,2.571,11.715,0.991,13.819-3.536c2.099-4.517-0.685-10.268-6.219-12.842c-2.779-1.291-5.727-1.529-8.237-0.871
		c-3.423-7.568-10.907-11.808-17.518-9.593c-7.172,2.402-10.6,11.457-7.669,20.233
		C425.816,1063.238,433.999,1068.404,441.176,1066.002z"/>
	<path fill="#FFFFFF" d="M775.34,1005.444c-5.739-0.37-11.054,1.216-14.996,4.066c-11.118-10.908-27.07-13.24-37.133-4.877
		c-10.898,9.062-10.75,27.22,0.342,40.566c11.096,13.336,28.906,16.805,39.811,7.74c4.266-3.552,6.79-8.518,7.669-14.023
		c0.708,0.107,1.401,0.267,2.139,0.31c11.416,0.738,21.155-6.219,21.748-15.556C795.532,1014.344,786.757,1006.182,775.34,1005.444z
		"/>
	<path fill="#FFFFFF" d="M884.39,1034.355c-9.514,28.159,1.66,35.753,1.66,35.753s-48.575-13.799-64.745,32.403
		c-3.445,9.845-5.917,19.489-7.637,26.489h179.475c76.101,0,138.857-62.388,138.857-138.488V862.754
		C1056,848.451,871.121,827.648,884.39,1034.355z"/>
	<path fill="#FFFFFF" d="M792.299,1129c-7.737-7-17.195-11.66-28.805-12.627c-20.271-1.69-36.417-0.269-49.48,2.533
		c-16.196-58.913-64.629-40.75-82.437-31.725c-0.365-0.76-0.758-1.527-1.177-2.287c-0.122-45.031,2.412-121.677,16.503-214.894
		c-2.147-0.548-4.369-1.047-6.697-1.468c-0.811-0.147-1.646-0.276-2.477-0.408c-2.213-0.352-4.481-0.658-6.808-0.914
		c-0.774-0.085-1.532-0.184-2.317-0.259c-3.053-0.293-6.166-0.526-9.334-0.68c-0.468-0.023-0.945-0.031-1.415-0.05
		c-2.753-0.117-5.529-0.22-8.314-0.22c-0.419,0-0.838,0-1.258,0c-2.325,35-4.169,60.821-4.633,67.534
		c-0.076,1.1-0.12,1.732-0.12,1.732l-19.674,0.711l-3.976-69.014c-16.493,1.161-29.944,3.019-34.424,3.796
		c-1.217-0.464-2.515-1.233-3.852-2.149c1.559,6.817,17.259,77.488,23.922,185.222c-53.887-2.193-69.988,49.179-69.988,49.179
		s0,0-34.733-13.519c-52.1-18.562-88.419,35.638-88.419,35.638s-10.936-45.849-56.375-73.774
		c-45.431-27.915-68.352-22.444-68.352-22.444s36.833-57.13-13.625-95.965c-50.471-38.836-86.437-8.566-86.437-8.566
		s0,0-7.667-32.095c44.923-73.364-44.355-74.214-44.355-74.214l2.146-41.707c0,0,58.024-23.842,40.845-78.04
		C126.754,661.052,101,640.137,74,628.544v361.967C74,1066.612,135.334,1129,211.435,1129H792.299z"/>
	<path fill="#67AEB7" d="M663.814,856.453c-0.512,0.643-1.025,1.273-1.537,1.884C662.789,857.726,663.301,857.096,663.814,856.453z"
		/>
	<path opacity="0.2" fill="#211915" d="M663.814,856.453c-0.512,0.643-1.025,1.273-1.537,1.884
		C662.789,857.726,663.301,857.096,663.814,856.453z"/>
	<path fill="#67AEB7" d="M689.822,812.767c-0.503,1.028-1.012,2.057-1.527,3.088C688.81,814.824,689.318,813.796,689.822,812.767z"
		/>
	<path opacity="0.2" fill="#211915" d="M689.822,812.767c-0.503,1.028-1.012,2.057-1.527,3.088
		C688.81,814.824,689.318,813.796,689.822,812.767z"/>
	<path fill="#67AEB7" d="M705.343,778.204c-0.401,0.969-0.819,1.974-1.254,3.01C704.524,780.177,704.942,779.173,705.343,778.204z"
		/>
	<path opacity="0.2" fill="#211915" d="M705.343,778.204c-0.401,0.969-0.819,1.974-1.254,3.01
		C704.524,780.177,704.942,779.173,705.343,778.204z"/>
	<path fill="#67AEB7" d="M682.749,826.579c-0.561,1.045-1.129,2.081-1.698,3.115C681.621,828.659,682.187,827.624,682.749,826.579z"
		/>
	<path opacity="0.2" fill="#211915" d="M682.749,826.579c-0.561,1.045-1.129,2.081-1.698,3.115
		C681.621,828.659,682.187,827.624,682.749,826.579z"/>
	<path fill="#67AEB7" d="M702.29,785.466c-0.534,1.249-1.085,2.529-1.657,3.843C701.205,787.994,701.756,786.715,702.29,785.466z"/>
	<path opacity="0.2" fill="#211915" d="M702.29,785.466c-0.534,1.249-1.085,2.529-1.657,3.843
		C701.205,787.994,701.756,786.715,702.29,785.466z"/>
	<path fill="#67AEB7" d="M661.176,859.624c-0.507,0.581-1.013,1.141-1.518,1.687C660.164,860.764,660.67,860.205,661.176,859.624z"
		/>
	<path opacity="0.2" fill="#211915" d="M661.176,859.624c-0.507,0.581-1.013,1.141-1.518,1.687
		C660.164,860.764,660.67,860.205,661.176,859.624z"/>
	<path fill="#67AEB7" d="M658.554,862.482c-0.506,0.521-1.01,1.012-1.514,1.495C657.544,863.495,658.048,863.003,658.554,862.482z"
		/>
	<path opacity="0.2" fill="#211915" d="M658.554,862.482c-0.506,0.521-1.01,1.012-1.514,1.495
		C657.544,863.495,658.048,863.003,658.554,862.482z"/>
	<path fill="#67AEB7" d="M784.346,904.956c-0.169-0.694-0.356-1.439-0.546-2.195C783.99,903.517,784.177,904.262,784.346,904.956z"
		/>
	<path opacity="0.2" fill="#211915" d="M784.346,904.956c-0.169-0.694-0.356-1.439-0.546-2.195
		C783.99,903.517,784.177,904.262,784.346,904.956z"/>
	<path fill="#67AEB7" d="M685.154,822.025c-0.527,1.014-1.059,2.023-1.594,3.031C684.095,824.048,684.627,823.039,685.154,822.025z"
		/>
	<path opacity="0.2" fill="#211915" d="M685.154,822.025c-0.527,1.014-1.059,2.023-1.594,3.031
		C684.095,824.048,684.627,823.039,685.154,822.025z"/>
	<path fill="#67AEB7" d="M703.903,781.659c-0.442,1.051-0.904,2.143-1.378,3.254C703,783.798,703.46,782.713,703.903,781.659z"/>
	<path opacity="0.2" fill="#211915" d="M703.903,781.659c-0.442,1.051-0.904,2.143-1.378,3.254
		C703,783.798,703.46,782.713,703.903,781.659z"/>
	<path fill="#67AEB7" d="M655.953,865.004c-0.519,0.47-1.037,0.899-1.553,1.325C654.917,865.902,655.434,865.474,655.953,865.004z"
		/>
	<path opacity="0.2" fill="#211915" d="M655.953,865.004c-0.519,0.47-1.037,0.899-1.553,1.325
		C654.917,865.902,655.434,865.474,655.953,865.004z"/>
	<path fill="#67AEB7" d="M781.203,892.931c-0.338-1.226-0.69-2.482-1.059-3.784C780.514,890.448,780.866,891.706,781.203,892.931z"
		/>
	<path opacity="0.2" fill="#211915" d="M781.203,892.931c-0.338-1.226-0.69-2.482-1.059-3.784
		C780.514,890.448,780.866,891.706,781.203,892.931z"/>
	<path fill="#67AEB7" d="M706.714,774.863c-0.363,0.891-0.748,1.829-1.147,2.797C705.968,776.688,706.35,775.757,706.714,774.863z"
		/>
	<path opacity="0.2" fill="#211915" d="M706.714,774.863c-0.363,0.891-0.748,1.829-1.147,2.797
		C705.968,776.688,706.35,775.757,706.714,774.863z"/>
	<path fill="#67AEB7" d="M783.452,901.383c-0.225-0.88-0.464-1.802-0.714-2.752C782.988,899.58,783.228,900.504,783.452,901.383z"/>
	<path opacity="0.2" fill="#211915" d="M783.452,901.383c-0.225-0.88-0.464-1.802-0.714-2.752
		C782.988,899.58,783.228,900.504,783.452,901.383z"/>
	<path fill="#67AEB7" d="M696.771,798.011c-0.649,1.432-1.316,2.887-1.996,4.356C695.456,800.898,696.122,799.443,696.771,798.011z"
		/>
	<path opacity="0.2" fill="#211915" d="M696.771,798.011c-0.649,1.432-1.316,2.887-1.996,4.356
		C695.456,800.898,696.122,799.443,696.771,798.011z"/>
	<path fill="#67AEB7" d="M672.014,844.924c-0.64,0.991-1.282,1.975-1.926,2.932C670.732,846.899,671.374,845.915,672.014,844.924z"
		/>
	<path opacity="0.2" fill="#211915" d="M672.014,844.924c-0.64,0.991-1.282,1.975-1.926,2.932
		C670.732,846.899,671.374,845.915,672.014,844.924z"/>
	<path fill="#67AEB7" d="M687.515,817.409c-0.505,1.003-1.017,2.006-1.531,3.008C686.499,819.414,687.01,818.412,687.515,817.409z"
		/>
	<path opacity="0.2" fill="#211915" d="M687.515,817.409c-0.505,1.003-1.017,2.006-1.531,3.008
		C686.499,819.414,687.01,818.412,687.515,817.409z"/>
	<path fill="#67AEB7" d="M694.419,803.132c-0.561,1.207-1.13,2.423-1.711,3.647C693.289,805.553,693.857,804.34,694.419,803.132z"/>
	<path opacity="0.2" fill="#211915" d="M694.419,803.132c-0.561,1.207-1.13,2.423-1.711,3.647
		C693.289,805.553,693.857,804.34,694.419,803.132z"/>
	<path fill="#67AEB7" d="M680.292,831.074c-0.625,1.121-1.256,2.228-1.889,3.331C679.036,833.302,679.667,832.195,680.292,831.074z"
		/>
	<path opacity="0.2" fill="#211915" d="M680.292,831.074c-0.625,1.121-1.256,2.228-1.889,3.331
		C679.036,833.302,679.667,832.195,680.292,831.074z"/>
	<path fill="#67AEB7" d="M782.403,897.357c-0.277-1.046-0.57-2.126-0.875-3.245C781.833,895.229,782.125,896.312,782.403,897.357z"
		/>
	<path opacity="0.2" fill="#211915" d="M782.403,897.357c-0.277-1.046-0.57-2.126-0.875-3.245
		C781.833,895.229,782.125,896.312,782.403,897.357z"/>
	<path fill="#67AEB7" d="M650.837,868.941c-0.842,0.523-1.68,0.986-2.51,1.367C649.157,869.927,649.995,869.464,650.837,868.941z"/>
	<path opacity="0.2" fill="#211915" d="M650.837,868.941c-0.842,0.523-1.68,0.986-2.51,1.367
		C649.157,869.927,649.995,869.464,650.837,868.941z"/>
	<path fill="#67AEB7" d="M779.898,888.286c-0.418-1.463-0.851-2.957-1.307-4.502C779.048,885.329,779.48,886.824,779.898,888.286z"
		/>
	<path opacity="0.2" fill="#211915" d="M779.898,888.286c-0.418-1.463-0.851-2.957-1.307-4.502
		C779.048,885.329,779.48,886.824,779.898,888.286z"/>
	<path fill="#67AEB7" d="M692.092,808.07c-0.504,1.057-1.013,2.117-1.53,3.181C691.08,810.186,691.588,809.128,692.092,808.07z"/>
	<path opacity="0.2" fill="#211915" d="M692.092,808.07c-0.504,1.057-1.013,2.117-1.53,3.181
		C691.08,810.186,691.588,809.128,692.092,808.07z"/>
	<path fill="#67AEB7" d="M653.381,867.164c-0.569,0.437-1.133,0.819-1.697,1.198C652.248,867.982,652.812,867.601,653.381,867.164z"
		/>
	<path opacity="0.2" fill="#211915" d="M653.381,867.164c-0.569,0.437-1.133,0.819-1.697,1.198
		C652.248,867.982,652.812,867.601,653.381,867.164z"/>
	<path fill="#67AEB7" d="M677.788,835.483c-1.686,2.907-3.398,5.735-5.126,8.448C674.39,841.218,676.102,838.39,677.788,835.483z"/>
	<path opacity="0.2" fill="#211915" d="M677.788,835.483c-1.686,2.907-3.398,5.735-5.126,8.448
		C674.39,841.218,676.102,838.39,677.788,835.483z"/>
	<path fill="#67AEB7" d="M669.171,849.188c-0.557,0.809-1.114,1.614-1.673,2.393C668.057,850.801,668.614,849.997,669.171,849.188z"
		/>
	<path opacity="0.2" fill="#211915" d="M669.171,849.188c-0.557,0.809-1.114,1.614-1.673,2.393
		C668.057,850.801,668.614,849.997,669.171,849.188z"/>
	<path fill="#67AEB7" d="M707.904,771.92c-0.34,0.846-0.702,1.742-1.086,2.686C707.203,773.661,707.565,772.767,707.904,771.92z"/>
	<path opacity="0.2" fill="#211915" d="M707.904,771.92c-0.34,0.846-0.702,1.742-1.086,2.686
		C707.203,773.661,707.565,772.767,707.904,771.92z"/>
	<path fill="#67AEB7" d="M700.608,789.367c-1.2,2.758-2.479,5.648-3.829,8.627C698.129,795.013,699.407,792.127,700.608,789.367z"/>
	<path opacity="0.2" fill="#211915" d="M700.608,789.367c-1.2,2.758-2.479,5.648-3.829,8.627
		C698.129,795.013,699.407,792.127,700.608,789.367z"/>
	<path fill="#67AEB7" d="M666.472,852.979c-0.527,0.716-1.055,1.424-1.583,2.109C665.417,854.402,665.944,853.695,666.472,852.979z"
		/>
	<path opacity="0.2" fill="#211915" d="M666.472,852.979c-0.527,0.716-1.055,1.424-1.583,2.109
		C665.417,854.402,665.944,853.695,666.472,852.979z"/>
	<path fill="#67AEB7" d="M677.443,377.378c0.194,0.587,0.39,1.173,0.583,1.759C677.833,378.551,677.637,377.965,677.443,377.378z"/>
	<path opacity="0.2" fill="#211915" d="M677.443,377.378c0.194,0.587,0.39,1.173,0.583,1.759
		C677.833,378.551,677.637,377.965,677.443,377.378z"/>
	<path fill="#67AEB7" d="M712.048,533.424c0.113,0.937,0.222,1.87,0.331,2.804C712.27,535.294,712.161,534.361,712.048,533.424z"/>
	<path opacity="0.2" fill="#211915" d="M712.048,533.424c0.113,0.937,0.222,1.87,0.331,2.804
		C712.27,535.294,712.161,534.361,712.048,533.424z"/>
	<path fill="#67AEB7" d="M706.714,496.195c0.076,0.454,0.157,0.912,0.232,1.366C706.87,497.107,706.79,496.65,706.714,496.195z"/>
	<path opacity="0.2" fill="#211915" d="M706.714,496.195c0.076,0.454,0.157,0.912,0.232,1.366
		C706.87,497.107,706.79,496.65,706.714,496.195z"/>
	<path fill="#67AEB7" d="M689.787,418.403c0.066,0.245,0.129,0.489,0.195,0.734C689.916,418.892,689.853,418.648,689.787,418.403z"
		/>
	<path opacity="0.2" fill="#211915" d="M689.787,418.403c0.066,0.245,0.129,0.489,0.195,0.734
		C689.916,418.892,689.853,418.648,689.787,418.403z"/>
	<path fill="#67AEB7" d="M694.754,437.753c0.113,0.463,0.229,0.927,0.341,1.39C694.983,438.679,694.867,438.216,694.754,437.753z"/>
	<path opacity="0.2" fill="#211915" d="M694.754,437.753c0.113,0.463,0.229,0.927,0.341,1.39
		C694.983,438.679,694.867,438.216,694.754,437.753z"/>
	<path fill="#67AEB7" d="M785.09,908.078c-0.119-0.513-0.256-1.086-0.391-1.652C784.834,906.991,784.972,907.565,785.09,908.078z"/>
	<path opacity="0.2" fill="#211915" d="M785.09,908.078c-0.119-0.513-0.256-1.086-0.391-1.652
		C784.834,906.991,784.972,907.565,785.09,908.078z"/>
	<path fill="#67AEB7" d="M717.55,604.363c0.015,0.445,0.038,0.899,0.053,1.343C717.588,605.262,717.565,604.807,717.55,604.363z"/>
	<path opacity="0.2" fill="#211915" d="M717.55,604.363c0.015,0.445,0.038,0.899,0.053,1.343
		C717.588,605.262,717.565,604.807,717.55,604.363z"/>
	<path fill="#67AEB7" d="M714.077,551.999c0.045,0.457,0.096,0.92,0.14,1.377C714.173,552.919,714.122,552.456,714.077,551.999z"/>
	<path opacity="0.2" fill="#211915" d="M714.077,551.999c0.045,0.457,0.096,0.92,0.14,1.377
		C714.173,552.919,714.122,552.456,714.077,551.999z"/>
	<path fill="#67AEB7" d="M716.725,586.459c0.069,1.228,0.138,2.456,0.201,3.677C716.863,588.914,716.794,587.688,716.725,586.459z"
		/>
	<path opacity="0.2" fill="#211915" d="M716.725,586.459c0.069,1.228,0.138,2.456,0.201,3.677
		C716.863,588.914,716.794,587.688,716.725,586.459z"/>
	<path fill="#67AEB7" d="M715.677,570.384c0.051,0.676,0.092,1.34,0.141,2.014C715.768,571.723,715.728,571.059,715.677,570.384z"/>
	<path opacity="0.2" fill="#211915" d="M715.677,570.384c0.051,0.676,0.092,1.34,0.141,2.014
		C715.768,571.723,715.728,571.059,715.677,570.384z"/>
	<path fill="#67AEB7" d="M656.214,321.015c-0.011-0.026-0.021-0.052-0.032-0.078c-0.011-0.024-0.021-0.049-0.032-0.073
		c0.011,0.027,0.021,0.053,0.032,0.08C656.193,320.967,656.203,320.991,656.214,321.015z"/>
	<path opacity="0.2" fill="#211915" d="M656.214,321.015c-0.011-0.026-0.021-0.052-0.032-0.078
		c-0.011-0.024-0.021-0.049-0.032-0.073c0.011,0.027,0.021,0.053,0.032,0.08C656.193,320.967,656.203,320.991,656.214,321.015z"/>
	<path fill="#67AEB7" d="M717.959,620.811c0.018,1.207,0.024,2.395,0.037,3.594C717.984,623.206,717.977,622.019,717.959,620.811z"
		/>
	<path opacity="0.2" fill="#211915" d="M717.959,620.811c0.018,1.207,0.024,2.395,0.037,3.594
		C717.984,623.206,717.977,622.019,717.959,620.811z"/>
	<path fill="#67AEB7" d="M648.203,302.852c-0.001-0.002-0.002-0.005-0.003-0.007c-0.004-0.008-0.008-0.017-0.012-0.026l0.003,0.006
		C648.196,302.834,648.199,302.843,648.203,302.852z"/>
	<path opacity="0.2" fill="#211915" d="M648.203,302.852c-0.001-0.002-0.002-0.005-0.003-0.007
		c-0.004-0.008-0.008-0.017-0.012-0.026l0.003,0.006C648.196,302.834,648.199,302.843,648.203,302.852z"/>
	<polygon fill="#67AEB7" points="670.739,357.989 670.742,357.989 670.738,357.988 	"/>
	<polygon opacity="0.2" fill="#211915" points="670.739,357.989 670.742,357.989 670.738,357.988 	"/>
	<path fill="#67AEB7" d="M670.742,357.989c-0.019-0.053-0.041-0.107-0.06-0.16c-0.004-0.012-0.009-0.024-0.014-0.036
		c0.005,0.015,0.011,0.03,0.016,0.045C670.703,357.888,670.724,357.939,670.742,357.989z"/>
	<path opacity="0.2" fill="#211915" d="M670.742,357.989c-0.019-0.053-0.041-0.107-0.06-0.16c-0.004-0.012-0.009-0.024-0.014-0.036
		c0.005,0.015,0.011,0.03,0.016,0.045C670.703,357.888,670.724,357.939,670.742,357.989z"/>
	<path fill="#67AEB7" d="M628.746,263.452c-0.002-0.003-0.004-0.007-0.005-0.01c-0.003-0.006-0.007-0.012-0.01-0.019l0.005,0.01
		C628.739,263.44,628.743,263.446,628.746,263.452z"/>
	<path opacity="0.2" fill="#211915" d="M628.746,263.452c-0.002-0.003-0.004-0.007-0.005-0.01c-0.003-0.006-0.007-0.012-0.01-0.019
		l0.005,0.01C628.739,263.44,628.743,263.446,628.746,263.452z"/>
	<path fill="#67AEB7" d="M646.903,869.996c0.456,0.117,0.977,0.19,1.424,0.312c-0.453-0.124-0.959-0.213-1.422-0.331
		C646.905,869.984,646.904,869.99,646.903,869.996z"/>
	<path opacity="0.2" fill="#211915" d="M646.903,869.996c0.456,0.117,0.977,0.19,1.424,0.312c-0.453-0.124-0.959-0.213-1.422-0.331
		C646.905,869.984,646.904,869.99,646.903,869.996z"/>
	<path fill="#67AEB7" d="M710.527,765.266c-0.581,1.505-1.44,3.704-2.547,6.467C709.079,768.99,709.95,766.764,710.527,765.266
		c31.545,12.004,56.093,78.067,67.985,118.251C766.628,843.313,742.084,777.274,710.527,765.266z"/>
	<path opacity="0.2" fill="#211915" d="M710.527,765.266c-0.581,1.505-1.44,3.704-2.547,6.467
		C709.079,768.99,709.95,766.764,710.527,765.266c31.545,12.004,56.093,78.067,67.985,118.251
		C766.628,843.313,742.084,777.274,710.527,765.266z"/>
	<path fill="#67AEB7" d="M638.503,282.422c-0.003-0.005-0.005-0.01-0.005-0.01c-0.016-0.032-0.029-0.06-0.043-0.087h0
		C638.472,282.357,638.487,282.39,638.503,282.422z"/>
	<path opacity="0.2" fill="#211915" d="M638.503,282.422c-0.003-0.005-0.005-0.01-0.005-0.01c-0.016-0.032-0.029-0.06-0.043-0.087h0
		C638.472,282.357,638.487,282.39,638.503,282.422z"/>
	<path fill="#67AEB7" d="M717.381,676.576c-0.02-0.003-0.043-0.009-0.063-0.012v0C717.338,676.568,717.36,676.572,717.381,676.576z"
		/>
	<path opacity="0.2" fill="#211915" d="M717.381,676.576c-0.02-0.003-0.043-0.009-0.063-0.012v0
		C717.338,676.568,717.36,676.572,717.381,676.576z"/>
	<path fill="#67AEB7" d="M703.306,477.13c0.114,0.6,0.224,1.198,0.337,1.798C703.53,478.328,703.421,477.731,703.306,477.13z"/>
	<path opacity="0.2" fill="#211915" d="M703.306,477.13c0.114,0.6,0.224,1.198,0.337,1.798
		C703.53,478.328,703.421,477.731,703.306,477.13z"/>
	<path fill="#67AEB7" d="M752.981,686.464c0.194,0.077,0.388,0.161,0.581,0.239C753.368,686.625,753.175,686.541,752.981,686.464z"
		/>
	<path opacity="0.2" fill="#211915" d="M752.981,686.464c0.194,0.077,0.388,0.161,0.581,0.239
		C753.368,686.625,753.175,686.541,752.981,686.464z"/>
	<path fill="#67AEB7" d="M758.046,688.602c0.432,0.192,0.866,0.383,1.296,0.58C758.91,688.985,758.479,688.795,758.046,688.602z"/>
	<path opacity="0.2" fill="#211915" d="M758.046,688.602c0.432,0.192,0.866,0.383,1.296,0.58
		C758.91,688.985,758.479,688.795,758.046,688.602z"/>
	<path fill="#67AEB7" d="M787.177,709.719c0.12,0.16,0.255,0.312,0.373,0.475C787.432,710.031,787.297,709.88,787.177,709.719z"/>
	<path opacity="0.2" fill="#211915" d="M787.177,709.719c0.12,0.16,0.255,0.312,0.373,0.475
		C787.432,710.031,787.297,709.88,787.177,709.719z"/>
	<path fill="#67AEB7" d="M790.182,714.363c0.188,0.339,0.365,0.683,0.543,1.027C790.547,715.045,790.369,714.702,790.182,714.363z"
		/>
	<path opacity="0.2" fill="#211915" d="M790.182,714.363c0.188,0.339,0.365,0.683,0.543,1.027
		C790.547,715.045,790.369,714.702,790.182,714.363z"/>
	<path fill="#67AEB7" d="M779.028,701.233c0.253,0.212,0.517,0.417,0.766,0.633C779.544,701.649,779.281,701.445,779.028,701.233z"
		/>
	<path opacity="0.2" fill="#211915" d="M779.028,701.233c0.253,0.212,0.517,0.417,0.766,0.633
		C779.544,701.649,779.281,701.445,779.028,701.233z"/>
	<path fill="#67AEB7" d="M785.671,910.665c-0.073-0.337-0.166-0.741-0.249-1.116C785.506,909.923,785.599,910.328,785.671,910.665z"
		/>
	<path opacity="0.2" fill="#211915" d="M785.671,910.665c-0.073-0.337-0.166-0.741-0.249-1.116
		C785.506,909.923,785.599,910.328,785.671,910.665z"/>
	<path fill="#67AEB7" d="M783.451,705.347c0.272,0.283,0.531,0.574,0.795,0.862C783.982,705.921,783.724,705.63,783.451,705.347z"/>
	<path opacity="0.2" fill="#211915" d="M783.451,705.347c0.272,0.283,0.531,0.574,0.795,0.862
		C783.982,705.921,783.724,705.63,783.451,705.347z"/>
	<path fill="#67AEB7" d="M774.534,697.766c0.318,0.224,0.624,0.459,0.937,0.687C775.157,698.224,774.852,697.99,774.534,697.766z"/>
	<path opacity="0.2" fill="#211915" d="M774.534,697.766c0.318,0.224,0.624,0.459,0.937,0.687
		C775.157,698.224,774.852,697.99,774.534,697.766z"/>
	<path fill="#67AEB7" d="M769.077,694.255c0.363,0.215,0.73,0.426,1.089,0.645C769.806,694.68,769.44,694.471,769.077,694.255z"/>
	<path opacity="0.2" fill="#211915" d="M769.077,694.255c0.363,0.215,0.73,0.426,1.089,0.645
		C769.806,694.68,769.44,694.471,769.077,694.255z"/>
	<path fill="#67AEB7" d="M764.146,691.513c0.298,0.154,0.589,0.318,0.885,0.475C764.735,691.831,764.445,691.667,764.146,691.513z"
		/>
	<path opacity="0.2" fill="#211915" d="M764.146,691.513c0.298,0.154,0.589,0.318,0.885,0.475
		C764.735,691.831,764.445,691.667,764.146,691.513z"/>
	<path fill="#67AEB7" d="M718.039,635.657c-0.005,1.329-0.006,2.664-0.016,3.981C718.033,638.319,718.035,636.987,718.039,635.657z"
		/>
	<path opacity="0.2" fill="#211915" d="M718.039,635.657c-0.005,1.329-0.006,2.664-0.016,3.981
		C718.033,638.319,718.035,636.987,718.039,635.657z"/>
	<path fill="#67AEB7" d="M786.089,912.693c-0.038-0.201-0.097-0.475-0.144-0.704C785.991,912.217,786.05,912.492,786.089,912.693z"
		/>
	<path opacity="0.2" fill="#211915" d="M786.089,912.693c-0.038-0.201-0.097-0.475-0.144-0.704
		C785.991,912.217,786.05,912.492,786.089,912.693z"/>
	<path fill="#67AEB7" d="M721.183,677.302c0.086,0.017,0.166,0.032,0.253,0.05C721.349,677.335,721.269,677.32,721.183,677.302z"/>
	<path opacity="0.2" fill="#211915" d="M721.183,677.302c0.086,0.017,0.166,0.032,0.253,0.05
		C721.349,677.335,721.269,677.32,721.183,677.302z"/>
	<path fill="#67AEB7" d="M725.628,678.242c0.223,0.05,0.453,0.103,0.679,0.154C726.08,678.344,725.853,678.292,725.628,678.242z"/>
	<path opacity="0.2" fill="#211915" d="M725.628,678.242c0.223,0.05,0.453,0.103,0.679,0.154
		C726.08,678.344,725.853,678.292,725.628,678.242z"/>
	<path fill="#67AEB7" d="M730.55,679.397c0.144,0.035,0.282,0.068,0.427,0.103C730.832,679.464,730.695,679.433,730.55,679.397z"/>
	<path opacity="0.2" fill="#211915" d="M730.55,679.397c0.144,0.035,0.282,0.068,0.427,0.103
		C730.832,679.464,730.695,679.433,730.55,679.397z"/>
	<path fill="#67AEB7" d="M717.502,666.726c-0.07,3.355-0.13,6.56-0.181,9.616C717.372,673.287,717.434,670.062,717.502,666.726z"/>
	<path opacity="0.2" fill="#211915" d="M717.502,666.726c-0.07,3.355-0.13,6.56-0.181,9.616
		C717.372,673.287,717.434,670.062,717.502,666.726z"/>
	<path fill="#67AEB7" d="M717.804,653.523c-0.103,4.036-0.188,7.821-0.267,11.489C717.615,661.361,717.701,657.561,717.804,653.523z
		"/>
	<path opacity="0.2" fill="#211915" d="M717.804,653.523c-0.103,4.036-0.188,7.821-0.267,11.489
		C717.615,661.361,717.701,657.561,717.804,653.523z"/>
	<path fill="#67AEB7" d="M746.7,684.149c0.418,0.144,0.837,0.291,1.257,0.44C747.536,684.44,747.119,684.295,746.7,684.149z"/>
	<path opacity="0.2" fill="#211915" d="M746.7,684.149c0.418,0.144,0.837,0.291,1.257,0.44
		C747.536,684.44,747.119,684.295,746.7,684.149z"/>
	<path fill="#67AEB7" d="M735.654,680.732c0.361,0.099,0.724,0.202,1.088,0.304C736.377,680.933,736.015,680.832,735.654,680.732z"
		/>
	<path opacity="0.2" fill="#211915" d="M735.654,680.732c0.361,0.099,0.724,0.202,1.088,0.304
		C736.377,680.933,736.015,680.832,735.654,680.732z"/>
	<path fill="#67AEB7" d="M741.529,682.446c0.07,0.022,0.138,0.041,0.208,0.063C741.667,682.487,741.599,682.467,741.529,682.446z"/>
	<path opacity="0.2" fill="#211915" d="M741.529,682.446c0.07,0.022,0.138,0.041,0.208,0.063
		C741.667,682.487,741.599,682.467,741.529,682.446z"/>
	<path fill="#FFFFFF" d="M628.605,866.95c-3.054-0.293-6.164-0.526-9.334-0.68C622.439,866.425,625.552,866.658,628.605,866.95z"/>
	<path opacity="0.2" fill="#211915" d="M628.605,866.95c-3.054-0.293-6.164-0.526-9.334-0.68
		C622.439,866.425,625.552,866.658,628.605,866.95z"/>
	<path fill="#FFFFFF" d="M640.205,868.529c2.329,0.421,4.55,0.919,6.697,1.466c0.001-0.006,0.002-0.012,0.003-0.019
		C644.763,869.431,642.529,868.949,640.205,868.529z"/>
	<path opacity="0.2" fill="#211915" d="M640.205,868.529c2.329,0.421,4.55,0.919,6.697,1.466c0.001-0.006,0.002-0.012,0.003-0.019
		C644.763,869.431,642.529,868.949,640.205,868.529z"/>
	<path fill="#FFFFFF" d="M603.652,933.533c-0.073,1.067-0.12,1.732-0.12,1.732S603.576,934.633,603.652,933.533z"/>
	<path opacity="0.2" fill="#211915" d="M603.652,933.533c-0.073,1.067-0.12,1.732-0.12,1.732S603.576,934.633,603.652,933.533z"/>
	<path fill="#FFFFFF" d="M617.856,866.222c-2.754-0.117-5.526-0.188-8.314-0.218C612.327,866.034,615.104,866.105,617.856,866.222z"
		/>
	<path opacity="0.2" fill="#211915" d="M617.856,866.222c-2.754-0.117-5.526-0.188-8.314-0.218
		C612.327,866.034,615.104,866.105,617.856,866.222z"/>
	<path fill="#FFFFFF" d="M637.729,868.122c-2.214-0.353-4.48-0.657-6.808-0.913C633.247,867.465,635.516,867.77,637.729,868.122z"/>
	<path opacity="0.2" fill="#211915" d="M637.729,868.122c-2.214-0.353-4.48-0.657-6.808-0.913
		C633.247,867.465,635.516,867.77,637.729,868.122z"/>
	<path fill="#FFFFFF" d="M653.119,313.944c-1.615-3.698-3.225-7.395-4.916-11.093c-0.004-0.008-0.008-0.017-0.012-0.026
		C649.884,306.531,651.501,310.238,653.119,313.944z"/>
	<path opacity="0.2" fill="#211915" d="M653.119,313.944c-1.615-3.698-3.225-7.395-4.916-11.093
		c-0.004-0.008-0.008-0.017-0.012-0.026C649.884,306.531,651.501,310.238,653.119,313.944z"/>
	<path fill="#FFFFFF" d="M656.816,322.489c-0.207-0.492-0.394-0.983-0.602-1.475c-0.01-0.024-0.021-0.048-0.031-0.072
		C656.401,321.459,656.599,321.974,656.816,322.489z"/>
	<path opacity="0.2" fill="#211915" d="M656.816,322.489c-0.207-0.492-0.394-0.983-0.602-1.475c-0.01-0.024-0.021-0.048-0.031-0.072
		C656.401,321.459,656.599,321.974,656.816,322.489z"/>
	<path fill="#FFFFFF" d="M670.685,357.837c-0.005-0.015-0.011-0.03-0.016-0.045c-0.848-2.341-1.779-4.688-2.655-7.031
		C668.895,353.119,669.832,355.482,670.685,357.837z"/>
	<path opacity="0.2" fill="#211915" d="M670.685,357.837c-0.005-0.015-0.011-0.03-0.016-0.045c-0.848-2.341-1.779-4.688-2.655-7.031
		C668.895,353.119,669.832,355.482,670.685,357.837z"/>
	<path fill="#FFFFFF" d="M633.381,272.438c-1.545-2.995-3.039-5.994-4.635-8.986c-0.003-0.006-0.007-0.012-0.011-0.019
		C630.335,266.431,631.835,269.436,633.381,272.438z"/>
	<path opacity="0.2" fill="#211915" d="M633.381,272.438c-1.545-2.995-3.039-5.994-4.635-8.986
		c-0.003-0.006-0.007-0.012-0.011-0.019C630.335,266.431,631.835,269.436,633.381,272.438z"/>
	<path fill="#FFFFFF" d="M644.054,294.024c-1.827-3.868-3.636-7.737-5.551-11.602c-0.016-0.033-0.031-0.065-0.047-0.097
		C640.387,286.221,642.209,290.123,644.054,294.024z"/>
	<path opacity="0.2" fill="#211915" d="M644.054,294.024c-1.827-3.868-3.636-7.737-5.551-11.602
		c-0.016-0.033-0.031-0.065-0.047-0.097C640.387,286.221,642.209,290.123,644.054,294.024z"/>
	<path fill="#FFFFFF" d="M622.377,251.923c1.502,2.691,3.028,5.38,4.486,8.077c-0.005-0.009-0.01-0.018-0.015-0.027
		C625.394,257.285,623.873,254.605,622.377,251.923z"/>
	<path opacity="0.2" fill="#211915" d="M622.377,251.923c1.502,2.691,3.028,5.38,4.486,8.077c-0.005-0.009-0.01-0.018-0.015-0.027
		C625.394,257.285,623.873,254.605,622.377,251.923z"/>
	<path fill="#FFFFFF" d="M608.586,228.245c0.795,1.302,1.552,2.61,2.336,3.913c-0.783-1.299-1.536-2.602-2.329-3.901
		C608.591,228.253,608.589,228.25,608.586,228.245z"/>
	<path opacity="0.2" fill="#211915" d="M608.586,228.245c0.795,1.302,1.552,2.61,2.336,3.913c-0.783-1.299-1.536-2.602-2.329-3.901
		C608.591,228.253,608.589,228.25,608.586,228.245z"/>
	<path fill="#FFFFFF" d="M586,345.795v89.939l2.503-1.725l17.944,31.813l37.339,4.41l-25.941,25.552l7.107,35.188l-34.877-16.008
		L586,516.274v162.988c13-0.696,21.004,0.373,32.536,6.481c-0.75,12.746-0.38,35.256-1.921,56.256h84.537
		c3.033-42,6.59-66.999,6.59-66.999s3.714,0.459,9.576,1.521l-0.159,0.021L717,676.564c0-0.07,0-0.151,0-0.221
		c0-3.057,0.272-6.262,0.342-9.616c0.012-0.573,0.103-1.132,0.115-1.714c0.079-3.668,0.204-7.453,0.307-11.489
		c0.116-4.544,0.2-9.19,0.238-13.885c0.011-1.318,0.022-2.652,0.027-3.981c0.012-3.707,0.002-7.458-0.038-11.251
		c-0.013-1.199-0.016-2.387-0.035-3.594c-0.075-4.97-0.185-9.998-0.355-15.105c-0.015-0.444-0.037-0.898-0.053-1.343
		c-0.163-4.685-0.374-9.433-0.623-14.226c-0.063-1.221-0.132-2.449-0.201-3.677c-0.262-4.641-0.561-9.327-0.907-14.062
		c-0.049-0.674-0.09-1.338-0.141-2.014c-0.424-5.609-0.909-11.278-1.459-17.008c-0.044-0.456-0.095-0.919-0.14-1.377
		c-0.509-5.209-1.078-10.47-1.698-15.771c-0.109-0.934-0.218-1.868-0.331-2.804c-1.415-11.756-3.1-23.718-5.103-35.863
		c-0.075-0.454-0.156-0.911-0.232-1.366c-0.953-5.718-1.977-11.475-3.07-17.267c-0.113-0.6-0.223-1.197-0.337-1.798
		c-2.392-12.516-5.117-25.19-8.211-37.988c-0.112-0.462-0.228-0.926-0.341-1.39c-1.505-6.179-3.092-12.385-4.772-18.616
		c-0.066-0.245-0.129-0.489-0.195-0.734c-3.519-12.999-7.435-26.102-11.762-39.266c-0.193-0.586-1.257-1.172-1.451-1.759
		c-2.137-6.45-0.574-11.401-7.574-17.876V361h0.122C640.888,347,613,345.206,586,345.795z"/>
	<path opacity="0.2" fill="#211915" d="M586,345.795v89.939l2.503-1.725l17.944,31.813l37.339,4.41l-25.941,25.552l7.107,35.188
		l-34.877-16.008L586,516.274v162.988c13-0.696,21.004,0.373,32.536,6.481c-0.75,12.746-0.38,35.256-1.921,56.256h84.537
		c3.033-42,6.59-66.999,6.59-66.999s3.714,0.459,9.576,1.521l-0.159,0.021L717,676.564c0-0.07,0-0.151,0-0.221
		c0-3.057,0.272-6.262,0.342-9.616c0.012-0.573,0.103-1.132,0.115-1.714c0.079-3.668,0.204-7.453,0.307-11.489
		c0.116-4.544,0.2-9.19,0.238-13.885c0.011-1.318,0.022-2.652,0.027-3.981c0.012-3.707,0.002-7.458-0.038-11.251
		c-0.013-1.199-0.016-2.387-0.035-3.594c-0.075-4.97-0.185-9.998-0.355-15.105c-0.015-0.444-0.037-0.898-0.053-1.343
		c-0.163-4.685-0.374-9.433-0.623-14.226c-0.063-1.221-0.132-2.449-0.201-3.677c-0.262-4.641-0.561-9.327-0.907-14.062
		c-0.049-0.674-0.09-1.338-0.141-2.014c-0.424-5.609-0.909-11.278-1.459-17.008c-0.044-0.456-0.095-0.919-0.14-1.377
		c-0.509-5.209-1.078-10.47-1.698-15.771c-0.109-0.934-0.218-1.868-0.331-2.804c-1.415-11.756-3.1-23.718-5.103-35.863
		c-0.075-0.454-0.156-0.911-0.232-1.366c-0.953-5.718-1.977-11.475-3.07-17.267c-0.113-0.6-0.223-1.197-0.337-1.798
		c-2.392-12.516-5.117-25.19-8.211-37.988c-0.112-0.462-0.228-0.926-0.341-1.39c-1.505-6.179-3.092-12.385-4.772-18.616
		c-0.066-0.245-0.129-0.489-0.195-0.734c-3.519-12.999-7.435-26.102-11.762-39.266c-0.193-0.586-1.257-1.172-1.451-1.759
		c-2.137-6.45-0.574-11.401-7.574-17.876V361h0.122C640.888,347,613,345.206,586,345.795z"/>
	<path fill="#E2583D" d="M586,345.795c27-0.589,54.888,1.205,83.122,15.205h0.812c-0.018,0,0.365-1.607,0.347-1.657
		c-0.853-2.356-1.588-5.471-2.469-7.829c-3.521-9.412-7.122-19.213-11.097-28.648c-0.217-0.516-0.365-1.219-0.583-1.734
		c-0.011-0.027,0.004-0.147-0.007-0.174c-0.4-0.935-0.797-1.922-1.199-2.86c-0.588-1.369-1.309-2.761-1.907-4.13
		c-1.618-3.707-5.018-7.425-5.018-11.131c0-0.002,0-0.01,0-0.01c0-1.172-0.969-2.351-1.514-3.522
		c-0.816-1.761-1.647-2.183-2.478-3.942c-1.845-3.901-3.599-10.363-5.53-10.363h-0.011c-0.143,0-0.284-1.92-0.431-2.212
		c-1.497-3.009-3.969-6.677-5.519-9.681c-1.546-3.002-5.516-6.676-5.516-9.673v-0.01c0-1.143-0.386-2.283-1.003-3.423
		c-1.458-2.697-2.551-5.385-4.053-8.077c-1.076-1.93-1.9-3.864-3-5.792c-1.029-1.805-1.966-3.605-3.014-5.404
		c-1.667-2.863-3.342-5.715-5.062-8.568c-0.784-1.303-1.514-2.611-2.309-3.913c-1.045-1.713-2.063-3.428-3.128-5.14
		c-3.561-5.718-7.189-11.424-10.963-17.106c-0.707,0.972-1.386-4.082-2.081-3.082c-0.678-0.999-3.027,4.054-3.738,3.082
		c-0.339,0.511,4.351,1.029-2.649,1.542V345.795z"/>
	<path opacity="0.2" fill="#211915" d="M586,345.795c27-0.589,54.888,1.205,83.122,15.205h0.812c-0.018,0,0.365-1.607,0.347-1.657
		c-0.853-2.356-1.588-5.471-2.469-7.829c-3.521-9.412-7.122-19.213-11.097-28.648c-0.217-0.516-0.365-1.219-0.583-1.734
		c-0.011-0.027,0.004-0.147-0.007-0.174c-0.4-0.935-0.797-1.922-1.199-2.86c-0.588-1.369-1.309-2.761-1.907-4.13
		c-1.618-3.707-5.018-7.425-5.018-11.131c0-0.002,0-0.01,0-0.01c0-1.172-0.969-2.351-1.514-3.522
		c-0.816-1.761-1.647-2.183-2.478-3.942c-1.845-3.901-3.599-10.363-5.53-10.363h-0.011c-0.143,0-0.284-1.92-0.431-2.212
		c-1.497-3.009-3.969-6.677-5.519-9.681c-1.546-3.002-5.516-6.676-5.516-9.673v-0.01c0-1.143-0.386-2.283-1.003-3.423
		c-1.458-2.697-2.551-5.385-4.053-8.077c-1.076-1.93-1.9-3.864-3-5.792c-1.029-1.805-1.966-3.605-3.014-5.404
		c-1.667-2.863-3.342-5.715-5.062-8.568c-0.784-1.303-1.514-2.611-2.309-3.913c-1.045-1.713-2.063-3.428-3.128-5.14
		c-3.561-5.718-7.189-11.424-10.963-17.106c-0.707,0.972-1.386-4.082-2.081-3.082c-0.678-0.999-3.027,4.054-3.738,3.082
		c-0.339,0.511,4.351,1.029-2.649,1.542V345.795z"/>
	<polygon fill="#E2583D" points="625.055,530.973 618.053,495.785 644.202,470.233 607.278,465.823 588.503,434.01 586,435.735 
		586,516.274 590.126,514.965 	"/>
	<polygon opacity="0.2" fill="#211915" points="625.055,530.973 618.053,495.785 644.202,470.233 607.278,465.823 588.503,434.01 
		586,435.735 586,516.274 590.126,514.965 	"/>
	<path fill="#192D37" d="M707.742,675.001c0,0-3.557,24.999-6.59,66.999h-84.537c1.541-21,1.171-43.51,1.921-56.256
		c-11.532-6.108-19.536-7.177-32.536-6.481v256.516l15.87-0.513c0,0,0.877-0.665,0.951-1.732c0.469-6.801,2.728-33.532,5.049-67.561
		c0.421,0.003,1.044,0.028,1.464,0.033c2.787,0.03,5.663,0.101,8.418,0.218c0.47,0.02,0.997,0.025,1.466,0.048
		c3.17,0.154,6.306,0.387,9.36,0.68c0.785,0.075,1.554,0.173,2.329,0.258c2.327,0.256,4.6,0.561,6.814,0.913
		c0.832,0.133,1.667,0.261,2.48,0.407c2.323,0.42,4.559,0.902,6.702,1.448c0.462,0.118,0.969,0.206,1.423,0.331
		c0.83-0.381,1.668-0.845,2.51-1.367c0.281-0.174,0.565-0.39,0.847-0.579c0.565-0.379,1.129-0.761,1.698-1.198
		c0.338-0.26,0.679-0.555,1.019-0.835c0.517-0.426,1.034-0.855,1.553-1.325c0.361-0.327,0.724-0.679,1.086-1.026
		c0.504-0.483,1.008-0.974,1.514-1.495c0.367-0.379,0.736-0.774,1.105-1.172c0.505-0.546,1.011-1.106,1.518-1.687
		c0.367-0.421,0.733-0.849,1.1-1.287c0.512-0.611,1.025-1.241,1.537-1.884c0.358-0.45,0.717-0.901,1.076-1.366
		c0.528-0.685,1.056-1.393,1.583-2.109c0.342-0.464,0.684-0.922,1.026-1.398c0.559-0.779,1.116-1.583,1.673-2.393
		c0.306-0.445,0.613-0.879,0.918-1.332c0.644-0.956,1.286-1.94,1.926-2.932c0.216-0.334,0.432-0.656,0.647-0.993
		c1.728-2.712,3.44-5.54,5.126-8.448c0.206-0.356,0.41-0.72,0.615-1.078c0.633-1.103,1.264-2.21,1.889-3.331
		c0.255-0.458,0.506-0.921,0.759-1.38c0.569-1.034,1.137-2.07,1.698-3.115c0.272-0.506,0.541-1.015,0.81-1.523
		c0.535-1.008,1.068-2.018,1.594-3.031c0.279-0.536,0.554-1.072,0.83-1.608c0.515-1.002,1.026-2.004,1.531-3.008
		c0.261-0.518,0.521-1.036,0.78-1.554c0.515-1.031,1.023-2.06,1.527-3.088c0.247-0.505,0.496-1.011,0.741-1.515
		c0.517-1.065,1.026-2.124,1.53-3.181c0.206-0.43,0.413-0.863,0.616-1.291c0.58-1.225,1.15-2.44,1.711-3.647
		c0.118-0.254,0.24-0.511,0.357-0.765c0.68-1.469,1.347-2.924,1.996-4.356c0.003-0.006,0.005-0.011,0.008-0.016
		c1.349-2.979,2.629-5.869,3.829-8.627c0.008-0.02,0.016-0.039,0.025-0.058c0.571-1.314,1.123-2.594,1.657-3.843
		c0.08-0.188,0.156-0.367,0.235-0.552c0.474-1.112,0.937-2.203,1.378-3.254c0.063-0.15,0.124-0.296,0.186-0.445
		c0.435-1.036,0.853-2.042,1.254-3.01c0.076-0.183,0.15-0.363,0.224-0.543c0.399-0.968,0.785-1.906,1.147-2.797
		c0.035-0.086,0.07-0.173,0.105-0.258c0.383-0.943,0.746-1.84,1.086-2.686c0.025-0.062,0.051-0.126,0.075-0.188
		c1.107-2.762,1.966-4.962,2.547-6.467c31.557,12.009,56.101,78.048,67.985,118.251c0.027,0.089,0.054,0.179,0.08,0.268
		c0.456,1.545,0.889,3.039,1.307,4.502c0.082,0.288,0.165,0.576,0.246,0.861c0.369,1.301,0.721,2.558,1.059,3.784
		c0.11,0.399,0.218,0.79,0.324,1.181c0.305,1.119,0.597,2.198,0.875,3.245c0.116,0.435,0.225,0.853,0.336,1.274
		c0.249,0.951,0.489,1.872,0.714,2.752c0.122,0.478,0.233,0.922,0.348,1.378c0.19,0.757,0.377,1.501,0.546,2.195
		c0.127,0.519,0.238,0.987,0.353,1.47c0.135,0.566,0.272,1.139,0.391,1.652c0.124,0.535,0.226,0.994,0.332,1.47
		c0.084,0.375,0.176,0.779,0.249,1.116c0.108,0.502,0.19,0.91,0.274,1.324c0.046,0.229,0.105,0.503,0.144,0.704
		c0.108,0.564,0.19,1.029,0.237,1.366c1.607,11.23,30.48,0,30.48,0s-11.239-157.18-24.059-194.066
		c-0.554-1.594-1.257-3.115-2.022-4.603c-0.177-0.344-0.355-0.688-0.543-1.027c-0.795-1.435-1.659-2.832-2.632-4.169
		c-0.118-0.162-0.253-0.314-0.373-0.475c-0.907-1.211-1.892-2.377-2.93-3.509c-0.264-0.288-0.523-0.579-0.795-0.862
		c-1.156-1.203-2.372-2.368-3.658-3.482c-0.249-0.216-0.513-0.42-0.766-0.633c-1.144-0.959-2.331-1.885-3.557-2.779
		c-0.313-0.228-0.619-0.463-0.937-0.687c-1.413-0.996-2.872-1.951-4.369-2.866c-0.359-0.219-0.725-0.43-1.089-0.645
		c-1.325-0.784-2.673-1.541-4.045-2.267c-0.297-0.157-0.587-0.321-0.885-0.475c-1.579-0.815-3.185-1.589-4.804-2.33
		c-0.43-0.197-0.864-0.388-1.296-0.58c-1.487-0.66-2.982-1.298-4.484-1.899c-0.194-0.078-0.387-0.163-0.581-0.239
		c-1.675-0.663-3.352-1.281-5.024-1.874c-0.419-0.149-0.839-0.296-1.257-0.44c-1.665-0.576-3.326-1.131-4.963-1.641
		c-0.07-0.022-0.138-0.041-0.208-0.063c-1.62-0.503-3.214-0.967-4.787-1.409c-0.364-0.102-0.727-0.205-1.088-0.304
		c-1.591-0.437-3.16-0.853-4.676-1.231c-0.145-0.036-0.283-0.068-0.427-0.103c-1.459-0.361-2.874-0.693-4.242-1.002
		c-0.226-0.051-0.456-0.104-0.679-0.154c-1.458-0.323-2.865-0.622-4.193-0.89c-0.086-0.018-0.167-0.033-0.253-0.05
		c-1.344-0.269-2.621-0.512-3.802-0.727c-0.021-0.003-0.043-0.051-0.063-0.054C711.456,675.46,707.742,675.001,707.742,675.001z"/>
	<path opacity="0.2" fill="#211915" d="M707.742,675.001c0,0-3.557,24.999-6.59,66.999h-84.537c1.541-21,1.171-43.51,1.921-56.256
		c-11.532-6.108-19.536-7.177-32.536-6.481v256.516l15.87-0.513c0,0,0.877-0.665,0.951-1.732c0.469-6.801,2.728-33.532,5.049-67.561
		c0.421,0.003,1.044,0.028,1.464,0.033c2.787,0.03,5.663,0.101,8.418,0.218c0.47,0.02,0.997,0.025,1.466,0.048
		c3.17,0.154,6.306,0.387,9.36,0.68c0.785,0.075,1.554,0.173,2.329,0.258c2.327,0.256,4.6,0.561,6.814,0.913
		c0.832,0.133,1.667,0.261,2.48,0.407c2.323,0.42,4.559,0.902,6.702,1.448c0.462,0.118,0.969,0.206,1.423,0.331
		c0.83-0.381,1.668-0.845,2.51-1.367c0.281-0.174,0.565-0.39,0.847-0.579c0.565-0.379,1.129-0.761,1.698-1.198
		c0.338-0.26,0.679-0.555,1.019-0.835c0.517-0.426,1.034-0.855,1.553-1.325c0.361-0.327,0.724-0.679,1.086-1.026
		c0.504-0.483,1.008-0.974,1.514-1.495c0.367-0.379,0.736-0.774,1.105-1.172c0.505-0.546,1.011-1.106,1.518-1.687
		c0.367-0.421,0.733-0.849,1.1-1.287c0.512-0.611,1.025-1.241,1.537-1.884c0.358-0.45,0.717-0.901,1.076-1.366
		c0.528-0.685,1.056-1.393,1.583-2.109c0.342-0.464,0.684-0.922,1.026-1.398c0.559-0.779,1.116-1.583,1.673-2.393
		c0.306-0.445,0.613-0.879,0.918-1.332c0.644-0.956,1.286-1.94,1.926-2.932c0.216-0.334,0.432-0.656,0.647-0.993
		c1.728-2.712,3.44-5.54,5.126-8.448c0.206-0.356,0.41-0.72,0.615-1.078c0.633-1.103,1.264-2.21,1.889-3.331
		c0.255-0.458,0.506-0.921,0.759-1.38c0.569-1.034,1.137-2.07,1.698-3.115c0.272-0.506,0.541-1.015,0.81-1.523
		c0.535-1.008,1.068-2.018,1.594-3.031c0.279-0.536,0.554-1.072,0.83-1.608c0.515-1.002,1.026-2.004,1.531-3.008
		c0.261-0.518,0.521-1.036,0.78-1.554c0.515-1.031,1.023-2.06,1.527-3.088c0.247-0.505,0.496-1.011,0.741-1.515
		c0.517-1.065,1.026-2.124,1.53-3.181c0.206-0.43,0.413-0.863,0.616-1.291c0.58-1.225,1.15-2.44,1.711-3.647
		c0.118-0.254,0.24-0.511,0.357-0.765c0.68-1.469,1.347-2.924,1.996-4.356c0.003-0.006,0.005-0.011,0.008-0.016
		c1.349-2.979,2.629-5.869,3.829-8.627c0.008-0.02,0.016-0.039,0.025-0.058c0.571-1.314,1.123-2.594,1.657-3.843
		c0.08-0.188,0.156-0.367,0.235-0.552c0.474-1.112,0.937-2.203,1.378-3.254c0.063-0.15,0.124-0.296,0.186-0.445
		c0.435-1.036,0.853-2.042,1.254-3.01c0.076-0.183,0.15-0.363,0.224-0.543c0.399-0.968,0.785-1.906,1.147-2.797
		c0.035-0.086,0.07-0.173,0.105-0.258c0.383-0.943,0.746-1.84,1.086-2.686c0.025-0.062,0.051-0.126,0.075-0.188
		c1.107-2.762,1.966-4.962,2.547-6.467c31.557,12.009,56.101,78.048,67.985,118.251c0.027,0.089,0.054,0.179,0.08,0.268
		c0.456,1.545,0.889,3.039,1.307,4.502c0.082,0.288,0.165,0.576,0.246,0.861c0.369,1.301,0.721,2.558,1.059,3.784
		c0.11,0.399,0.218,0.79,0.324,1.181c0.305,1.119,0.597,2.198,0.875,3.245c0.116,0.435,0.225,0.853,0.336,1.274
		c0.249,0.951,0.489,1.872,0.714,2.752c0.122,0.478,0.233,0.922,0.348,1.378c0.19,0.757,0.377,1.501,0.546,2.195
		c0.127,0.519,0.238,0.987,0.353,1.47c0.135,0.566,0.272,1.139,0.391,1.652c0.124,0.535,0.226,0.994,0.332,1.47
		c0.084,0.375,0.176,0.779,0.249,1.116c0.108,0.502,0.19,0.91,0.274,1.324c0.046,0.229,0.105,0.503,0.144,0.704
		c0.108,0.564,0.19,1.029,0.237,1.366c1.607,11.23,30.48,0,30.48,0s-11.239-157.18-24.059-194.066
		c-0.554-1.594-1.257-3.115-2.022-4.603c-0.177-0.344-0.355-0.688-0.543-1.027c-0.795-1.435-1.659-2.832-2.632-4.169
		c-0.118-0.162-0.253-0.314-0.373-0.475c-0.907-1.211-1.892-2.377-2.93-3.509c-0.264-0.288-0.523-0.579-0.795-0.862
		c-1.156-1.203-2.372-2.368-3.658-3.482c-0.249-0.216-0.513-0.42-0.766-0.633c-1.144-0.959-2.331-1.885-3.557-2.779
		c-0.313-0.228-0.619-0.463-0.937-0.687c-1.413-0.996-2.872-1.951-4.369-2.866c-0.359-0.219-0.725-0.43-1.089-0.645
		c-1.325-0.784-2.673-1.541-4.045-2.267c-0.297-0.157-0.587-0.321-0.885-0.475c-1.579-0.815-3.185-1.589-4.804-2.33
		c-0.43-0.197-0.864-0.388-1.296-0.58c-1.487-0.66-2.982-1.298-4.484-1.899c-0.194-0.078-0.387-0.163-0.581-0.239
		c-1.675-0.663-3.352-1.281-5.024-1.874c-0.419-0.149-0.839-0.296-1.257-0.44c-1.665-0.576-3.326-1.131-4.963-1.641
		c-0.07-0.022-0.138-0.041-0.208-0.063c-1.62-0.503-3.214-0.967-4.787-1.409c-0.364-0.102-0.727-0.205-1.088-0.304
		c-1.591-0.437-3.16-0.853-4.676-1.231c-0.145-0.036-0.283-0.068-0.427-0.103c-1.459-0.361-2.874-0.693-4.242-1.002
		c-0.226-0.051-0.456-0.104-0.679-0.154c-1.458-0.323-2.865-0.622-4.193-0.89c-0.086-0.018-0.167-0.033-0.253-0.05
		c-1.344-0.269-2.621-0.512-3.802-0.727c-0.021-0.003-0.043-0.051-0.063-0.054C711.456,675.46,707.742,675.001,707.742,675.001z"/>
	<polygon fill="#FFFFFF" points="965.718,427.122 974.513,435.807 976.122,423.899 987.18,418.649 975.965,413.239 974.002,401.298 
		965.462,409.866 953.187,407.737 959.126,418.444 953.507,429.068 	"/>
	<polygon fill="#FFFFFF" points="896.522,531.278 893.569,525.245 890.775,531.233 884.354,532.139 889.069,536.857 
		888.062,543.451 893.772,540.381 899.568,543.549 898.38,536.934 902.973,532.297 	"/>
	<polygon fill="#FFFFFF" points="393.918,286.981 390.962,280.951 388.169,286.936 381.749,287.845 386.469,292.563 
		385.462,299.154 391.167,296.084 396.971,299.255 395.775,292.639 400.373,287.998 	"/>
	<polygon fill="#FFFFFF" points="816.677,264.497 805.126,247.881 798.387,266.966 778.317,272.59 795,284.485 794.157,304.572 
		811.198,292.84 830.738,299.625 824.586,280.485 837.511,264.591 	"/>
	<polygon fill="#FFFFFF" points="212.421,416.269 211.578,436.359 228.619,424.625 248.16,431.412 242.022,412.27 254.94,396.377 
		234.105,396.282 222.548,379.669 215.816,398.753 195.745,404.378 	"/>
</g>
</svg>
