<?xml version="1.0" encoding="utf-8"?>
<!-- Generator: Adobe Illustrator 19.1.0, SVG Export Plug-In . SVG Version: 6.00 Build 0)  -->
<svg version="1.1" id="Layer_1" xmlns="http://www.w3.org/2000/svg" xmlns:xlink="http://www.w3.org/1999/xlink" x="0px" y="0px"
	 viewBox="0 0 1200 1200" enable-background="new 0 0 1200 1200" xml:space="preserve">
<g>
	<path fill="#5EA4D2" d="M1053.492,426.377c1.125,2.57,2.048,5.169,3.018,7.761C1055.596,431.541,1054.618,428.951,1053.492,426.377
		z"/>
	<path fill="#5EA4D2" d="M1150,194.963C1150,115.993,1098.343,53,1004.3,53H172.995C94.026,53,50,115.993,50,167.19v811.183
		C50,1106.56,93.347,1147,210.769,1147h793.646c80.548,0,145.585-30.069,145.585-129.82V194.963z M1130,337v306.573v1.033
		l-32.296-7.959c-4.946-1.178-10.11-1.117-14.383,0.097c-1.424,0.405-3.066,0.78-4.405,1.362c-1.189,0.517-2.47,1.02-3.584,1.648
		c-1.11,0.628-2.246,1.258-3.278,1.968c-2.716,1.867-5.213,3.929-7.317,6.005c-1.422,1.403-2.711,2.785-3.819,4.081
		c-3.325,3.888-5.183,6.926-5.183,6.926c-2.003,2.235-3.641,4.44-4.965,6.592c-1.324,2.152-2.341,4.248-3.108,6.26
		c-0.383,1.007-0.707,1.992-0.974,2.954c-0.535,1.922-0.853,3.747-1.015,5.446c-0.081,0.85-0.124,1.668-0.134,2.451
		c-0.023,1.697,0.106,3.212,0.299,4.544c0.143,0.988,0.32,1.859,0.507,2.613c0.123,0.497,0.249,0.942,0.368,1.329
		c0.358,1.162,0.659,1.811,0.659,1.811l8.589,29.88l8.589,29.881c0.592,1.721,0.868,3.387,0.899,4.984
		c0.031,1.596-0.184,3.123-0.575,4.569c-0.195,0.723-0.434,1.426-0.709,2.105c-0.824,2.04-1.966,3.883-3.191,5.483
		c-1.225,1.6-2.533,2.958-3.69,4.03c-1.928,1.787-3.436,2.782-3.436,2.782l-55.134,23.471c-1.192,0.561-2.336,1.184-3.431,1.566
		c-2.19,0.763-4.19,1.515-6.01,1.515c0.001,0,0.001,0,0.001,0c1.82,0,3.819-0.595,6.01-1.358c-2.19,0.763-4.189,1.358-6.009,1.358
		H989v-0.157c-3,0.334-6.427-0.453-8.729-1.594c-0.576-0.285-1.049-0.636-1.548-0.966c-1.499-0.989-2.636-2.155-3.505-3.203
		c-1.447-1.745-2.079-3.222-2.079-3.222l-35.508-59.118c-0.641-0.982-1.426-1.896-2.204-2.74
		c-8.155-8.855-23.311-10.398-31.656-10.523c-1.067-0.012-2.049-0.007-2.848,0.015c0.799-0.021,1.782-0.027,2.849-0.016
		c-1.205-0.019-2.27-0.009-3.149,0.015c-1.71,0.045-3.006,0.132-3.055,0.135c0.2,0.007,0.38,1.679,0.582,1.689
		c-0.203-0.01-0.382,1.686-0.582,1.686h-0.018c-0.017,0-0.04,0-0.057,0c-1.297,0-2.562-1.735-3.784-1.694
		c-0.668,0.029-1.295-0.742-1.942-0.692c-0.028,0.003-1.492-0.417-1.525-0.414c-0.604,0.048-3.244-0.165-3.244-0.099v-0.092
		c0-0.066,2.626-0.135,3.221-0.186c-0.551,0.042-0.991,0.067-3.481,0.118c-20.755,2.547-28.128,19.84-28.128,19.84l-25.686,49.445
		c-4.603,14.2-21.841,12.532-21.841,12.532l-62.195-23.641c-15.072-8.557-10.003-21.781-10.003-21.781l15.496-78.476
		c1.736-13.406-22.137-29.66-22.137-29.66c-7.925-7.026-15.605-9.731-21.597-10.636c2.378,5.112,4.555,10.652,6.334,16.634
		c0.526,1.77,1.019,3.576,1.472,5.418c0.907,3.684,1.66,7.51,2.222,11.474c0.281,1.983,0.514,3.999,0.696,6.047
		c0.362,4.099,0.516,8.331,0.424,12.69c-0.046,2.18-0.153,4.388-0.326,6.63c-0.52,6.726-1.632,13.724-3.462,20.982
		c-1.219,4.839-2.757,9.78-4.65,14.838c-9.63,20.023-25.225,37.145-44.835,49.093c-10.895,6.638-23.028,11.821-36.066,14.859
		C627.243,799.445,621.883,801,616.4,801c-0.027,0-0.054,0-0.081,0c-3.196,0-6.361,0.262-9.508,0.302
		c-2.702,0.034-5.392-0.302-8.065-0.302c-0.003,0-1.746,0-1.746,0v0.183c-53-2.209-101.218-40.72-110.537-93.199l-26.535-6.311
		c-14.927-3.555-25.739,14.202-25.739,14.202c-3.777,4.212-5.466,8.27-6.094,11.696c-0.209,1.143-0.305,2.215-0.318,3.199
		c-0.014,0.985,0.05,1.882,0.155,2.672c0.316,2.374,0.994,3.799,0.994,3.799l10.794,37.552c0.057,0.166,0.038,0.315,0.086,0.479
		c0.577,1.978,0.571,3.847,0.117,5.524c-0.528,1.952-1.569,3.641-2.685,5.037c-1.999,2.502-4.244,4.011-4.244,4.011l-34.644,14.749
		c-2.997,1.408-5.497,1.872-7.562,1.779c-6.195-0.282-8.473-5.595-8.473-5.595l-22.294-37.144c-2.012-3.088-5.195-5.05-8.619-6.288
		c-0.685-0.248-1.38-0.466-2.077-0.66c-1.393-0.385-2.797-0.669-4.149-0.875c-5.41-0.824-10.016-0.414-10.016-0.414
		c-1.961-0.097-3.708,0.042-5.386,0.247l0,0c-13.926,1.683-18.48,12.41-18.48,12.41l-17.008,31.074
		c-2.893,8.923-13.78,7.877-13.78,7.877l-39.11-14.854c-9.47-5.378-6.299-13.686-6.299-13.686l9.73-49.312
		c1.091-8.424-13.914-18.638-13.914-18.638c-10.765-9.543-20.886-6.471-20.886-6.471l-34.923,9.445
		c-12.787,4.951-15.438-1.855-15.438-1.855s-14.315-27.144-18.135-36.679c-3.828-9.551,5.033-13.817,5.033-13.817
		s13.838-8.882,29.905-17.731c16.072-8.849,15.32-25.133,15.32-25.133c3.721-22.176-8.926-27.961-8.926-27.961l-39.723-22.748
		c-8.003-4.78-5.086-12.485-5.086-12.485l15.132-37.235c4.612-10.156,16.305-5.965,16.305-5.965l40.429,9.806
		c7.289,1.355,22.356-9.79,22.356-9.79c8.574-6.643,11.378-18.736,11.378-18.736l-13.163-49.473
		c-1.859-6.676,5.584-11.318,5.584-11.318l37.031-15.557c8.914-3.554,13.187,5.294,13.187,5.294
		c1.108,2.003,24.121,40.839,24.121,40.839c3.547,3.677,18.914,5.123,18.914,5.123c0.193,0.039,0.671,0.027,0.671,0.063v-0.002
		c14,2.532,24.049-5.536,24.518-5.916c0.011-0.009,0.032-0.068,0.032-0.068l22.703-40.659c0.337-0.836,0.754-1.56,1.251-2.186
		c2.48-3.131,6.576-3.821,8.718-3.96c0.857-0.055,1.396-0.023,1.396-0.023l40.433,15.336c8.625,4.16,6.314,15.558,6.314,15.558
		l-9.024,38.974c-1.598,4.311-0.641,8.892,1.18,12.935c0.607,1.347,1.31,2.635,2.046,3.832c0.736,1.198,1.506,2.306,2.246,3.294
		c0.37,0.494,0.733,0.959,1.081,1.389c1.043,1.29,1.949,2.279,2.507,2.863c0.186,0.195,0.333,0.345,0.434,0.446
		s0.155,0.154,0.155,0.154c1.044,1.137,2.168,2.135,3.336,3.01c2.336,1.752,4.848,3.017,7.244,3.929
		c5.991,2.279,11.26,2.36,11.26,2.36l39.102-12.462c11.936-3.575,16.985,5.67,18.06,8.036c0.154,0.339,0.226,0.536,0.226,0.536
		l14.307,32.373c1.771,4.36,1.324,7.784,0.074,10.36c-2.083,4.293-6.398,6.234-6.398,6.234l-23.215,14.169l-10.454,6.381
		c-0.767,0.421-1.475,0.89-2.13,1.402c-1.31,1.024-2.404,2.217-3.318,3.514c-0.913,1.297-1.646,2.699-2.231,4.143
		c-1.756,4.331-2.189,9.042-2.22,12.429c-0.026,2.821,0.228,4.724,0.228,4.724c-0.13,4.339,0.369,7.866,1.192,10.717
		c2.468,8.55,7.846,11.009,7.846,11.009l9.047,5.243c17.951-33.238,52.634-57.646,94.396-62.018
		c2.646-3.084,5.676-4.567,5.676-4.567s22.023-14.135,47.593-28.217c25.577-14.083,24.381-39.998,24.381-39.998
		c5.922-35.292-14.206-44.499-14.206-44.499l-63.216-36.2c-12.736-7.608-8.093-19.87-8.093-19.87l24.082-59.254
		c7.34-16.163,25.948-9.491,25.948-9.491l64.34,15.608c11.598,2.158,35.577-15.572,35.577-15.572
		c13.646-10.572,18.107-29.803,18.107-29.803l-20.948-78.707c-2.958-10.624,8.887-17.958,8.887-17.958l58.931-24.653
		c14.187-5.655,20.987,8.638,20.987,8.638c1.762,3.187,38.386,65.413,38.386,65.413c5.643,5.852,29.92,8.996,29.92,8.996
		c0.399,0.08,0.782,1.869,1.177,1.869c22.703,0,39.05-11.296,39.05-11.296l36.175-66.391c0.806-1.997,1.947-3.59,3.268-4.861
		c1.322-1.271,2.824-2.219,4.355-2.926c3.06-1.414,6.229-1.863,8.274-1.995c1.363-0.088,2.228-0.036,2.228-0.036l64.348,24.407
		c3.217,1.551,5.477,3.736,7.054,6.171c0.525,0.812,0.975,1.651,1.358,2.505c0.614,1.365,1.058,2.766,1.375,4.144
		c0.475,2.067,0.663,4.082,0.702,5.851c0.078,3.538-0.439,6.089-0.439,6.089l-9.574,41.35l-4.787,20.675
		c-0.848,2.287-1.244,4.622-1.287,6.956c-0.044,2.335,0.265,4.67,0.826,6.957c0.561,2.287,1.374,4.527,2.34,6.671
		c4.83,10.722,13.478,19.063,13.478,19.063c2.492,2.713,5.271,4.93,8.142,6.74c1.555,0.98,3.137,1.842,4.716,2.598
		c11.048,5.295,21.899,6.438,21.899,6.438L1128.76,337H1130z M598.76,821c0.029,0,0.24,0,0.24,0v0.192
		c7,0,14.019,0.381,20.745,0.929c33.63,2.736,61.907,12.068,85.753,24.969c4.769,2.58,9.34,5.329,13.758,8.175
		c4.418,2.846,8.655,5.825,12.736,8.89c-4.081-3.066-8.332-6.026-12.75-8.872c-4.418-2.846-9.011-5.568-13.78-8.148
		c-23.404-12.662-51.138-21.808-83.952-24.732c46.187,4.115,82.285,20.597,110.473,41.768c4.435,3.331,8.646,6.825,12.696,10.428
		c3.315,2.948,6.508,6.027,9.575,9.136c19.464,19.726,34.127,42.53,44.986,65.776c1.67,3.574,3.251,7.365,4.75,10.954
		c2.996,7.177,5.658,14.775,8.019,21.897c3.541,10.684,6.406,21.909,8.709,32.055c6.141,27.059,8.287,69.584,8.614,69.584H596.888
		H378.58c3.686-48,31.516-267.979,218.308-262.987l1.849-0.013C598.745,821,598.753,821,598.76,821z M598.746,801.183
		c2.673,0.107,5.363,0.138,8.065,0.105C604.109,801.321,601.419,801.29,598.746,801.183z M668.524,783.411
		c4.902-2.987,9.554-6.298,13.924-9.898c13.111-10.8,23.689-24.196,30.911-39.214c0.947-2.529,1.804-5.031,2.578-7.506
		c0.774-2.475,1.463-4.923,2.072-7.341c1.829-7.258,2.942-14.261,3.462-20.987c0.173-2.242,0.28-4.453,0.326-6.633
		c-0.046,2.18-0.153,4.391-0.326,6.633c-0.52,6.726-1.632,13.729-3.462,20.987c-0.61,2.419-1.299,4.866-2.072,7.341
		c-0.774,2.475-1.631,4.978-2.578,7.507c-7.222,15.017-17.8,28.414-30.911,39.213C678.078,777.113,673.427,780.424,668.524,783.411z
		 M744.678,874.547c3.315,2.948,6.508,5.976,9.575,9.085C751.186,880.522,747.993,877.495,744.678,874.547z M803.989,960.052
		c2.996,7.177,5.658,14.363,8.019,21.486C809.647,974.416,806.985,967.229,803.989,960.052z M928.919,254.941
		c0,0-2.299,1.909-6.369,4.086c-1.357,0.726-2.911,1.481-4.642,2.205c-1.731,0.725-3.639,1.418-5.706,2.02
		c-1.033,0.301-2.106,0.579-3.215,0.826c-3.329,0.742-6.991,1.209-10.921,1.197c-2.62-0.008-5.358-0.23-8.196-0.725
		c2.838,0.496,5.577,0.717,8.196,0.725c3.93,0.013,7.592-0.455,10.921-1.197c1.11-0.247,2.182-0.526,3.215-0.826
		c2.067-0.602,3.975-1.295,5.706-2.02c1.731-0.724,3.285-1.48,4.642-2.205C926.621,256.85,928.919,254.941,928.919,254.941z"/>
	<path fill="#5EA4D2" d="M239.386,651.715c16.102,37.794,51.942,61.056,90.398,63.119c3.696,0.199,7.417,0.182,11.146-0.008
		c0.292-0.015,0.583-0.028,0.875-0.046c3.348-0.2,6.7-0.601,10.05-1.132c0.619-0.1,1.239-0.172,1.858-0.284
		c3.053-0.539,6.095-1.279,9.129-2.106c0.786-0.216,1.578-0.372,2.363-0.608c3.691-1.101,7.363-2.393,10.993-3.942
		c6.619-2.826,12.796-6.256,18.492-10.199c5.697-3.943,10.914-8.397,15.614-13.272c28.203-29.251,37.809-73.637,20.848-113.365
		c-1.283-3.008-2.727-5.896-4.25-8.717c-0.478-0.886-0.997-1.738-1.498-2.604c-1.113-1.925-2.274-3.809-3.494-5.64
		c-0.619-0.927-1.241-1.849-1.887-2.753c-1.276-1.787-2.617-3.508-3.991-5.197c-0.62-0.76-1.21-1.551-1.849-2.29
		c-1.923-2.229-3.93-4.366-6.018-6.407c-0.871-0.85-1.797-1.632-2.695-2.448c-1.306-1.19-2.623-2.365-3.983-3.484
		c-1.187-0.973-2.402-1.905-3.627-2.822c-1.108-0.831-2.235-1.631-3.373-2.415c-1.399-0.963-2.8-1.922-4.241-2.814
		c-0.824-0.51-1.677-0.969-2.514-1.458c-5.86-3.4-12.016-6.249-18.41-8.454c-0.41-0.143-0.818-0.291-1.23-0.428
		c-2.27-0.752-4.564-1.434-6.883-2.03c-0.158-0.041-0.318-0.075-0.475-0.115c-10.02-2.522-20.448-3.582-30.953-3.027
		c-11.878,0.628-23.844,3.193-35.417,8.144C241.371,537.469,216.749,598.755,239.386,651.715z"/>
	<path fill="#5EA4D2" d="M892.511,721.618c-0.818,0.027,0.038,0.081-0.732,0.15c0.642-0.052,1.261-0.128,1.933-0.15
		c1.222-0.041,2.487-0.034,3.784,0.007C895.953,721.552,893.917,721.558,892.511,721.618z"/>
	<path fill="#5EA4D2" d="M1048.596,421.487c-0.712-1.963-0.483-3.9-1.466-5.818c-0.407-0.793-2.105-1.586-2.523-2.371
		c0.418,0.784,0.825,1.577,1.232,2.371C1046.812,417.567,1047.678,419.546,1048.596,421.487z"/>
	<path fill="#5EA4D2" d="M745.135,555.67c25.666,60.237,82.218,99.676,143.525,99.676c6.048,0,13.334,1.252,19.436,0.892
		c0.332-0.019,0.665,0.901,0.997,0.88c2.575-0.167,5.152-0.392,7.73-0.681c0.762-0.086,1.523-0.194,2.284-0.291
		c2.154-0.272,4.307-0.58,6.458-0.94c0.939-0.157,1.878-0.328,2.817-0.502c1.982-0.367,3.962-0.772,5.939-1.214
		c1.018-0.227,2.036-0.456,3.052-0.703c1.929-0.469,3.853-0.988,5.775-1.53c1.015-0.285,2.031-0.558,3.044-0.865
		c2.022-0.611,4.036-1.288,6.048-1.981c0.88-0.304,1.765-0.579,2.643-0.899c2.87-1.042,5.73-2.155,8.573-3.37
		c59.911-25.585,97.029-82.25,100.551-143.162c0.503-8.702,0.32-17.491-0.579-26.287c0.9,8.796,1.082,17.585,0.579,26.287
		c-3.522,60.912-40.639,117.577-100.55,143.162c-2.843,1.214-5.703,2.326-8.574,3.37c-0.878,0.319-1.763,0.595-2.643,0.899
		c-2.012,0.693-4.026,1.37-6.048,1.981c-1.013,0.307-2.029,0.579-3.044,0.865c-1.922,0.542-3.846,1.062-5.775,1.53
		c-1.016,0.247-2.034,0.476-3.052,0.703c-1.978,0.442-3.958,0.847-5.939,1.214c-0.939,0.174-1.878,0.345-2.817,0.502
		c-2.152,0.36-4.305,0.668-6.458,0.94c-0.762,0.097-1.523,0.205-2.284,0.291c-2.578,0.289-5.155,0.513-7.73,0.681l0,0
		c2.576-0.167,5.152-0.391,7.73-0.681c0.762-0.086,1.523-0.195,2.285-0.291c2.154-0.273,4.307-0.58,6.46-0.94
		c0.94-0.156,1.88-0.329,2.819-0.502c1.982-0.367,3.966-0.772,5.945-1.214c1.018-0.227,2.046-0.457,3.063-0.703
		c1.929-0.47,3.872-0.988,5.795-1.53c1.016-0.285,2.072-0.559,3.085-0.865c2.022-0.611,4.117-1.288,6.128-1.981
		c0.881-0.303,1.925-0.579,2.804-0.899c2.87-1.044,6.053-2.155,8.896-3.37c68.47-29.24,107.813-99.075,100.615-169.45
		c-1.391-13.595-3.508-27.396-8.207-40.742c-0.97-2.593-2.14-4.951-3.265-7.951H1053c0,0,0,0.37,0,0.366
		c-2-1.264-3.383-2.513-4.115-3.752c0.583,1.258,1.353,2.467,1.901,3.752c-0.548-1.284-1.134-2.493-1.717-3.752
		c-0.223-0.377-0.368-0.752-0.504-1.127c-0.918-1.941-1.769-3.92-2.742-5.818c-0.407-0.793-0.806-1.586-1.224-2.371
		c-1.809-3.393-3.695-6.72-5.708-9.941c-0.263-0.421-0.546-0.824-0.812-1.242c-1.858-2.914-3.806-5.747-5.824-8.513
		c-0.477-0.654-0.944-1.315-1.429-1.96c-2.241-2.979-4.566-5.874-6.983-8.671c-0.462-0.535-0.943-1.05-1.411-1.579
		c-2.209-2.492-4.484-4.911-6.827-7.251c-0.441-0.441-0.87-0.898-1.316-1.333c-2.637-2.575-5.36-5.043-8.149-7.425
		c-0.606-0.518-1.224-1.021-1.837-1.529c-2.679-2.221-5.409-4.372-8.212-6.413c-0.242-0.176-0.475-0.366-0.718-0.541
		c-2.998-2.159-6.08-4.185-9.207-6.133c-0.695-0.433-1.393-0.86-2.094-1.282c-3.169-1.911-6.38-3.747-9.663-5.44
		c-0.147-0.075-0.297-0.141-0.444-0.217c-3.185-1.63-6.433-3.129-9.714-4.551c-0.703-0.304-1.405-0.613-2.112-0.908
		c-3.384-1.41-6.807-2.727-10.277-3.911c-0.48-0.164-0.967-0.305-1.448-0.464c-3.183-1.055-6.401-2.008-9.645-2.869
		c-0.639-0.17-1.274-0.353-1.915-0.515c-3.557-0.899-7.147-1.68-10.763-2.343c-0.661-0.121-1.327-0.222-1.991-0.335
		c-3.361-0.574-6.741-1.054-10.142-1.42c-0.445-0.048-0.887-0.114-1.332-0.158c-3.695-0.368-7.412-0.59-11.14-0.708
		c-0.759-0.024-1.519-0.034-2.28-0.048c-3.757-0.067-7.524-0.047-11.299,0.146c3.775-0.193,7.542-0.212,11.299-0.146
		c0.76,0.013,1.521,0.024,2.28,0.048c3.728,0.118,7.445,0.34,11.14,0.708c0.445,0.044,0.887,0.11,1.332,0.158
		c3.4,0.367,6.781,0.847,10.142,1.42c0.664,0.114,1.33,0.214,1.991,0.335c3.616,0.663,7.206,1.443,10.763,2.343
		c0.641,0.162,1.276,0.345,1.915,0.515c3.245,0.861,6.462,1.814,9.645,2.869c0.481,0.16,0.968,0.301,1.448,0.464
		c3.47,1.185,6.893,2.501,10.277,3.911c0.707,0.295,1.409,0.604,2.112,0.908c3.281,1.421,6.529,2.92,9.714,4.551
		c0.147,0.075,0.297,0.141,0.444,0.217c3.283,1.693,6.494,3.529,9.663,5.44c-3.169-1.911-6.379-3.747-9.663-5.44
		c-0.147-0.076-0.297-0.141-0.444-0.217c-3.185-1.63-6.433-3.13-9.714-4.551c-0.704-0.305-1.404-0.614-2.112-0.909
		c-3.384-1.411-6.806-2.727-10.277-3.913c-0.48-0.164-0.966-0.308-1.448-0.467c-3.184-1.055-6.401-2.012-9.645-2.874
		c-0.639-0.17-1.274-0.363-1.915-0.525c-3.557-0.899-7.146-1.699-10.763-2.362c-0.662-0.121-1.327-0.26-1.991-0.374
		c-3.361-0.574-6.741-1.131-10.142-1.498c-0.445-0.048-0.886-0.268-1.332-0.312c-3.696-0.368-7.411-0.899-11.14-1.017
		c-0.76-0.024-1.519-0.652-2.28-0.665c-3.758-0.067-7.523-1.089-11.299-1.089c-19.005,0-38.463,6.005-56.981,13.929
		C748.594,373.1,709.111,471.389,745.135,555.67z"/>
	<path fill="#ECC53B" d="M401.487,530.329c1.361,1.119,2.677,2.295,3.983,3.484C404.162,532.625,402.849,531.446,401.487,530.329z"
		/>
	<path fill="#ECC53B" d="M353.712,713.364c-0.619,0.112-1.239,0.184-1.858,0.284C352.474,713.55,353.093,713.474,353.712,713.364z"
		/>
	<path fill="#ECC53B" d="M394.487,525.092c1.138,0.785,2.265,1.584,3.373,2.415C396.75,526.678,395.626,525.875,394.487,525.092z"/>
	<path fill="#ECC53B" d="M421.909,552.91c1.22,1.831,2.382,3.714,3.494,5.64C424.289,556.624,423.13,554.741,421.909,552.91z"/>
	<path fill="#ECC53B" d="M410.303,683.236c28.203-29.25,37.81-73.637,20.849-113.365c-1.284-3.008-2.727-5.896-4.251-8.717
		c1.524,2.821,2.967,5.709,4.25,8.717C448.112,609.599,438.506,653.985,410.303,683.236z"/>
	<path fill="#ECC53B" d="M416.031,544.96c1.374,1.689,2.716,3.41,3.991,5.197C418.745,548.371,417.407,546.647,416.031,544.96z"/>
	<path fill="#ECC53B" d="M365.204,710.65c-0.785,0.236-1.576,0.392-2.363,0.608C363.629,711.043,364.418,710.884,365.204,710.65z"/>
	<path fill="#ECC53B" d="M408.165,536.262c2.088,2.041,4.095,4.178,6.018,6.407C412.258,540.442,410.255,538.3,408.165,536.262z"/>
	<path fill="#ECC53B" d="M349.325,756.686c-1.394-0.386-2.797-0.669-4.149-0.875C346.528,756.017,347.931,756.301,349.325,756.686z"
		/>
	<path fill="#ECC53B" d="M341.805,714.779c-0.292,0.018-0.584,0.03-0.875,0.046C341.222,714.81,341.513,714.796,341.805,714.779z"/>
	<path fill="#ECC53B" d="M479.862,611.24c-0.13,4.338,0.369,7.865,1.192,10.716C480.23,619.105,479.731,615.578,479.862,611.24
		c0-0.001-0.254-1.904-0.228-4.725C479.608,609.337,479.862,611.24,479.862,611.24z"/>
	<path fill="#ECC53B" d="M439.72,774.794c0.057,0.166,0.038,0.316,0.086,0.479C439.758,775.109,439.777,774.959,439.72,774.794
		l-10.795-37.552c0,0-0.678-1.425-0.994-3.799c0.316,2.374,0.994,3.799,0.994,3.799L439.72,774.794z"/>
	<path fill="#ECC53B" d="M432.995,789.845l-34.645,14.749L432.995,789.845c0,0.001,2.244-1.508,4.243-4.011
		C435.239,788.336,432.995,789.845,432.995,789.845z"/>
	<path fill="#ECC53B" d="M387.732,520.82c0.837,0.488,1.69,0.948,2.514,1.458C389.421,521.768,388.571,521.307,387.732,520.82z"/>
	<path fill="#ECC53B" d="M487.402,586.429c0.655-0.512,1.363-0.981,2.13-1.402l10.454-6.381l-10.454,6.381
		C488.765,585.447,488.057,585.917,487.402,586.429z"/>
	<path fill="#ECC53B" d="M427.52,498.121c-1.821-4.044-2.778-8.624-1.18-12.935l9.024-38.974l-9.024,38.974
		C424.741,489.497,425.699,494.078,427.52,498.121z"/>
	<path fill="#ECC53B" d="M382.315,800.778l-22.294-37.145c-2.012-3.087-5.195-5.048-8.619-6.287
		c3.424,1.238,6.607,3.201,8.619,6.288L382.315,800.778c0,0.001,2.278,5.314,8.473,5.596
		C384.592,806.091,382.315,800.778,382.315,800.778z"/>
	<path fill="#ECC53B" d="M427.931,733.443c-0.106-0.79-0.171-1.687-0.157-2.672C427.76,731.756,427.825,732.653,427.931,733.443z"/>
	<path fill="#ECC53B" d="M368.091,511.938c0.412,0.137,0.82,0.285,1.23,0.428C368.911,512.224,368.504,512.075,368.091,511.938z"/>
	<path fill="#ECC53B" d="M459.901,701.672c-14.927-3.554-25.725,14.201-25.725,14.201c-3.777,4.214-5.459,8.271-6.087,11.698
		c0.628-3.426,2.311-7.484,6.087-11.696C434.175,715.875,444.973,698.119,459.901,701.672l26.507,6.312h0L459.901,701.672z"/>
	<path fill="#ECC53B" d="M377.225,421.487l-22.731,40.659c0,0-0.077,0.059-0.088,0.068c0.011-0.009,0.088-0.068,0.088-0.068
		L377.225,421.487z"/>
	<path fill="#ECC53B" d="M360.733,509.793c0.158,0.04,0.318,0.074,0.475,0.115C361.05,509.867,360.891,509.832,360.733,509.793z"/>
	<path fill="#ECC53B" d="M329.784,718c-38.456-7-74.295-26.909-90.398-64.702c-22.637-52.959,1.985-115.037,54.977-137.596
		c11.573-4.951,22.152-7.912,34.03-8.54L327,506.766v-38.635c0-0.035,1.022-0.024,0.829-0.063c0,0-14.561-1.446-18.108-5.123
		c0,0-22.666-38.836-23.774-40.839c0,0-4.1-8.848-13.014-5.294L235.99,432.37c0,0-7.4,4.642-5.541,11.318l13.185,49.473
		c0,0-2.793,12.093-11.367,18.736c0,0-15.062,11.145-22.35,9.79l-40.427-9.806c0,0-11.692-4.191-16.304,5.965l-15.132,37.235
		c0,0-2.917,7.705,5.086,12.485l39.723,22.748c0,0,12.648,5.785,8.927,27.961c0,0,0.752,16.285-15.32,25.133
		c-16.068,8.849-29.905,17.731-29.905,17.731s-8.861,4.266-5.033,13.817c3.821,9.535,18.135,36.679,18.135,36.679
		s2.651,6.806,15.438,1.855l34.923-9.445c0,0,10.12-3.072,20.886,6.471c0,0,15.005,10.214,13.914,18.638l-9.73,49.312
		c0,0-3.171,8.308,6.299,13.686l39.11,14.854c0,0,10.887,1.046,13.78-7.877l15.621-31.074c0,0,3.093-10.727,17.093-12.41V718
		H329.784z"/>
	<path fill="#5EA4D2" d="M439.325,513.11c-1.168-0.875-2.292-1.873-3.336-3.01c0,0-0.054-0.052-0.155-0.154
		c0.101,0.101,0.155,0.154,0.155,0.154C437.033,511.237,438.157,512.235,439.325,513.11z"/>
	<path opacity="0.14" fill="#211915" d="M439.325,513.11c-1.168-0.875-2.292-1.873-3.336-3.01c0,0-0.054-0.052-0.155-0.154
		c0.101,0.101,0.155,0.154,0.155,0.154C437.033,511.237,438.157,512.235,439.325,513.11z"/>
	<path fill="#5EA4D2" d="M496.931,506.937c11.936-3.575,16.985,5.669,18.06,8.036C513.916,512.607,508.867,503.362,496.931,506.937
		l-39.102,12.461c0,0-5.27-0.08-11.26-2.36c5.991,2.28,11.26,2.36,11.26,2.36L496.931,506.937z"/>
	<path opacity="0.14" fill="#211915" d="M496.931,506.937c11.936-3.575,16.985,5.669,18.06,8.036
		C513.916,512.607,508.867,503.362,496.931,506.937l-39.102,12.461c0,0-5.27-0.08-11.26-2.36c5.991,2.28,11.26,2.36,11.26,2.36
		L496.931,506.937z"/>
	<path fill="#5EA4D2" d="M390.246,522.278c1.442,0.892,2.842,1.851,4.241,2.814C393.088,524.126,391.688,523.173,390.246,522.278z"
		/>
	<path opacity="0.14" fill="#211915" d="M390.246,522.278c1.442,0.892,2.842,1.851,4.241,2.814
		C393.088,524.126,391.688,523.173,390.246,522.278z"/>
	<path fill="#5EA4D2" d="M523.2,564.476l-23.214,14.169L523.2,564.476c0.001,0,4.315-1.941,6.399-6.234
		C527.516,562.536,523.2,564.476,523.2,564.476z"/>
	<path opacity="0.14" fill="#211915" d="M523.2,564.476l-23.214,14.169L523.2,564.476c0.001,0,4.315-1.941,6.399-6.234
		C527.516,562.536,523.2,564.476,523.2,564.476z"/>
	<path fill="#5EA4D2" d="M369.322,512.366c6.395,2.205,12.551,5.054,18.41,8.454C381.873,517.408,375.716,514.581,369.322,512.366z"
		/>
	<path opacity="0.14" fill="#211915" d="M369.322,512.366c6.395,2.205,12.551,5.054,18.41,8.454
		C381.873,517.408,375.716,514.581,369.322,512.366z"/>
	<path fill="#5EA4D2" d="M361.208,509.908c2.319,0.596,4.613,1.279,6.883,2.03C365.819,511.183,363.529,510.507,361.208,509.908z"/>
	<path opacity="0.14" fill="#211915" d="M361.208,509.908c2.319,0.596,4.613,1.279,6.883,2.03
		C365.819,511.183,363.529,510.507,361.208,509.908z"/>
	<path fill="#5EA4D2" d="M354.631,462.214c-0.469,0.38-10.631,8.448-24.631,5.916v0.002
		C344,470.661,354.169,462.592,354.631,462.214z"/>
	<path opacity="0.14" fill="#211915" d="M354.631,462.214c-0.469,0.38-10.631,8.448-24.631,5.916v0.002
		C344,470.661,354.169,462.592,354.631,462.214z"/>
	<path fill="#5EA4D2" d="M432.893,506.638c1.043,1.291,1.949,2.279,2.507,2.863C434.841,508.917,433.936,507.928,432.893,506.638z"
		/>
	<path opacity="0.14" fill="#211915" d="M432.893,506.638c1.043,1.291,1.949,2.279,2.507,2.863
		C434.841,508.917,433.936,507.928,432.893,506.638z"/>
	<path fill="#5EA4D2" d="M479.634,606.515c0.031-3.387,0.464-8.097,2.22-12.429C480.097,598.418,479.664,603.128,479.634,606.515z"
		/>
	<path opacity="0.14" fill="#211915" d="M479.634,606.515c0.031-3.387,0.464-8.097,2.22-12.429
		C480.097,598.418,479.664,603.128,479.634,606.515z"/>
	<path fill="#5EA4D2" d="M378.489,419.3c2.48-3.131,6.583-3.821,8.725-3.96C385.072,415.479,380.969,416.169,378.489,419.3z"/>
	<path opacity="0.14" fill="#211915" d="M378.489,419.3c2.48-3.131,6.583-3.821,8.725-3.96
		C385.072,415.479,380.969,416.169,378.489,419.3z"/>
	<path fill="#5EA4D2" d="M429.566,501.954c0.736,1.198,1.506,2.306,2.246,3.294C431.072,504.259,430.302,503.152,429.566,501.954z"
		/>
	<path opacity="0.14" fill="#211915" d="M429.566,501.954c0.736,1.198,1.506,2.306,2.246,3.294
		C431.072,504.259,430.302,503.152,429.566,501.954z"/>
	<path fill="#5EA4D2" d="M488.899,632.966l9.047,5.243v-0.001L488.899,632.966c0-0.001-5.378-2.46-7.846-11.01
		C483.521,630.506,488.899,632.966,488.899,632.966z"/>
	<path opacity="0.14" fill="#211915" d="M488.899,632.966l9.047,5.243v-0.001L488.899,632.966c0-0.001-5.378-2.46-7.846-11.01
		C483.521,630.506,488.899,632.966,488.899,632.966z"/>
	<path fill="#5EA4D2" d="M439.923,780.796c-0.528,1.952-1.569,3.641-2.685,5.037C438.354,784.437,439.395,782.749,439.923,780.796z"
		/>
	<path opacity="0.14" fill="#211915" d="M439.923,780.796c-0.528,1.952-1.569,3.641-2.685,5.037
		C438.354,784.437,439.395,782.749,439.923,780.796z"/>
	<path fill="#5EA4D2" d="M484.084,589.943c-0.913,1.296-1.646,2.7-2.231,4.143C482.439,592.642,483.171,591.24,484.084,589.943z"/>
	<path opacity="0.14" fill="#211915" d="M484.084,589.943c-0.913,1.296-1.646,2.7-2.231,4.143
		C482.439,592.642,483.171,591.24,484.084,589.943z"/>
	<path fill="#5EA4D2" d="M360.733,509.793c-10.026-2.538-20.44-3.582-30.953-3.027C340.285,506.21,350.713,507.271,360.733,509.793z
		"/>
	<path opacity="0.14" fill="#211915" d="M360.733,509.793c-10.026-2.538-20.44-3.582-30.953-3.027
		C340.285,506.21,350.713,507.271,360.733,509.793z"/>
	<path fill="#5EA4D2" d="M397.86,527.507c1.225,0.917,2.441,1.849,3.627,2.822C400.3,529.355,399.086,528.428,397.86,527.507z"/>
	<path opacity="0.14" fill="#211915" d="M397.86,527.507c1.225,0.917,2.441,1.849,3.627,2.822
		C400.3,529.355,399.086,528.428,397.86,527.507z"/>
	<path fill="#5EA4D2" d="M365.204,710.65c3.691-1.111,7.364-2.393,10.993-3.941c6.619-2.827,12.796-6.257,18.492-10.2
		c-5.697,3.943-11.873,7.373-18.492,10.199C372.567,708.257,368.895,709.548,365.204,710.65z"/>
	<path opacity="0.14" fill="#211915" d="M365.204,710.65c3.691-1.111,7.364-2.393,10.993-3.941
		c6.619-2.827,12.796-6.257,18.492-10.2c-5.697,3.943-11.873,7.373-18.492,10.199C372.567,708.257,368.895,709.548,365.204,710.65z"
		/>
	<path fill="#5EA4D2" d="M427.774,730.771c0.013-0.984,0.106-2.056,0.315-3.199C427.879,728.715,427.787,729.786,427.774,730.771z"
		/>
	<path opacity="0.14" fill="#211915" d="M427.774,730.771c0.013-0.984,0.106-2.056,0.315-3.199
		C427.879,728.715,427.787,729.786,427.774,730.771z"/>
	<path fill="#5EA4D2" d="M439.923,780.796c0.453-1.677,0.459-3.546-0.117-5.524C440.383,777.25,440.377,779.119,439.923,780.796z"/>
	<path opacity="0.14" fill="#211915" d="M439.923,780.796c0.453-1.677,0.459-3.546-0.117-5.524
		C440.383,777.25,440.377,779.119,439.923,780.796z"/>
	<path fill="#5EA4D2" d="M340.93,714.825c-3.729,0.191-7.45,0.208-11.146,0.008C333.483,715.033,337.197,715.028,340.93,714.825z"/>
	<path opacity="0.14" fill="#211915" d="M340.93,714.825c-3.729,0.191-7.45,0.208-11.146,0.008
		C333.483,715.033,337.197,715.028,340.93,714.825z"/>
	<path fill="#5EA4D2" d="M335.161,755.397c-1.961-0.096-3.709,0.043-5.387,0.247l0,0C331.452,755.439,333.199,755.3,335.161,755.397
		c-0.001,0,4.605-0.41,10.015,0.414C339.765,754.986,335.161,755.397,335.161,755.397z"/>
	<path opacity="0.14" fill="#211915" d="M335.161,755.397c-1.961-0.096-3.709,0.043-5.387,0.247l0,0
		C331.452,755.439,333.199,755.3,335.161,755.397c-0.001,0,4.605-0.41,10.015,0.414
		C339.765,754.986,335.161,755.397,335.161,755.397z"/>
	<path fill="#5EA4D2" d="M420.022,550.157c0.645,0.904,1.268,1.826,1.887,2.753C421.29,551.981,420.667,551.061,420.022,550.157z"/>
	<path opacity="0.14" fill="#211915" d="M420.022,550.157c0.645,0.904,1.268,1.826,1.887,2.753
		C421.29,551.981,420.667,551.061,420.022,550.157z"/>
	<path fill="#5EA4D2" d="M414.182,542.669c0.639,0.739,1.229,1.53,1.849,2.29C415.411,544.199,414.821,543.409,414.182,542.669z"/>
	<path opacity="0.14" fill="#211915" d="M414.182,542.669c0.639,0.739,1.229,1.53,1.849,2.29
		C415.411,544.199,414.821,543.409,414.182,542.669z"/>
	<path fill="#5EA4D2" d="M351.855,713.648c-3.349,0.53-6.702,0.931-10.05,1.132C345.155,714.569,348.503,714.191,351.855,713.648z"
		/>
	<path opacity="0.14" fill="#211915" d="M351.855,713.648c-3.349,0.53-6.702,0.931-10.05,1.132
		C345.155,714.569,348.503,714.191,351.855,713.648z"/>
	<path fill="#5EA4D2" d="M405.47,533.814c0.898,0.817,1.824,1.598,2.695,2.448C407.294,535.411,406.368,534.632,405.47,533.814z"/>
	<path opacity="0.14" fill="#211915" d="M405.47,533.814c0.898,0.817,1.824,1.598,2.695,2.448
		C407.294,535.411,406.368,534.632,405.47,533.814z"/>
	<path fill="#5EA4D2" d="M425.403,558.55c0.501,0.866,1.019,1.719,1.498,2.604C426.422,560.267,425.904,559.418,425.403,558.55z"/>
	<path opacity="0.14" fill="#211915" d="M425.403,558.55c0.501,0.866,1.019,1.719,1.498,2.604
		C426.422,560.267,425.904,559.418,425.403,558.55z"/>
	<path fill="#5EA4D2" d="M362.841,711.258c-3.034,0.828-6.076,1.567-9.129,2.106C356.767,712.812,359.806,712.094,362.841,711.258z"
		/>
	<path opacity="0.14" fill="#211915" d="M362.841,711.258c-3.034,0.828-6.076,1.567-9.129,2.106
		C356.767,712.812,359.806,712.094,362.841,711.258z"/>
	<path fill="#5EA4D2" d="M529.599,558.242c1.25-2.577,1.697-6-0.074-10.36l-14.307-32.373l14.307,32.373
		C531.296,552.242,530.85,555.667,529.599,558.242z"/>
	<path opacity="0.14" fill="#211915" d="M529.599,558.242c1.25-2.577,1.697-6-0.074-10.36l-14.307-32.373l14.307,32.373
		C531.296,552.242,530.85,555.667,529.599,558.242z"/>
	<path fill="#ECC53B" d="M459.901,701.672l26.506,6.312c-0.451-2.538-0.908-5.073-1.171-7.673
		c-2.209-22.186,2.667-43.506,12.711-62.103l-9.047-5.243c0,0-5.378-2.459-7.846-11.01c-0.823-2.851-1.322-6.378-1.192-10.716
		c0,0-0.254-1.903-0.228-4.725c0.03-3.387,0.464-8.096,2.22-12.429c0.585-1.443,1.317-2.847,2.231-4.143
		c0.913-1.297,2.008-2.49,3.318-3.514c0.655-0.512,1.363-0.982,2.13-1.402l10.454-6.381l23.214-14.169c0,0,4.315-1.941,6.399-6.234
		c1.25-2.576,1.697-6-0.074-10.36l-14.307-32.373c0,0-0.073-0.198-0.226-0.536c-1.076-2.366-6.124-11.61-18.06-8.036l-39.102,12.461
		c0,0-5.27-0.079-11.26-2.36c-2.396-0.912-4.908-2.176-7.244-3.929c-1.168-0.875-2.292-1.873-3.336-3.01
		c0,0-0.054-0.052-0.155-0.154s-0.248-0.251-0.434-0.446c-0.558-0.584-1.464-1.572-2.507-2.863c-0.348-0.431-0.71-0.895-1.081-1.389
		c-0.74-0.989-1.51-2.096-2.246-3.294c-0.736-1.198-1.439-2.485-2.046-3.832c-1.821-4.044-2.779-8.624-1.181-12.935l9.024-38.974
		c0,0,2.309-11.398-6.315-15.558l-40.434-15.336c0,0-0.543-0.033-1.4,0.023c-2.142,0.139-6.245,0.829-8.725,3.96
		c-0.496,0.626-0.927,1.35-1.265,2.186l-22.731,40.659c0,0-1.464,0.059-1.475,0.068c-0.462,0.378-12.018,8.448-26.018,5.917V510
		h1.432c10.512-7,21.6-1.128,31.627,1.41c0.158,0.04,0.655-0.734,0.813-0.694c2.321,0.6,4.78,0.871,7.051,1.626
		c0.413,0.137,0.904,0.084,1.315,0.226c6.394,2.215,12.594,4.942,18.453,8.353c0.839,0.486,1.71,0.897,2.535,1.407
		c1.442,0.895,2.852,1.823,4.252,2.789c1.139,0.783,2.269,1.573,3.378,2.403c1.226,0.92,2.443,1.841,3.63,2.816
		c1.362,1.116,2.677,2.292,3.984,3.481c0.898,0.818,1.825,1.595,2.695,2.447c2.09,2.038,4.093,4.179,6.018,6.407
		c0.639,0.74,1.229,1.529,1.849,2.29c1.376,1.687,2.714,3.411,3.991,5.197c0.645,0.904,1.268,1.824,1.887,2.753
		c1.221,1.831,2.38,3.714,3.494,5.64c0.501,0.868,1.019,1.718,1.498,2.604c1.525,2.821,2.968,5.709,4.251,8.717
		c16.961,39.728,7.354,84.115-20.849,113.365c-4.701,4.875-9.918,9.329-15.614,13.272c-5.697,3.943-11.873,7.373-18.492,10.2
		c-3.629,1.549-7.301,2.83-10.993,3.941c-0.785,0.235-1.575,0.394-2.363,0.608c-3.035,0.836-6.075,1.555-9.129,2.106
		c-0.619,0.11-1.238,0.186-1.858,0.284c-3.352,0.543-6.7,0.921-10.05,1.132c-0.292,0.017-0.583,1.614-0.875,1.629
		c-3.732,0.203-7.447,1.592-11.146,1.592H327v37.643c7-0.204,4.813-0.343,6.774-0.247c0,0,5.298-0.41,10.708,0.414
		c1.352,0.206,3.102,0.489,4.496,0.875c0.697,0.194,1.565,0.412,2.25,0.66c3.424,1.238,6.694,3.2,8.706,6.287l22.338,37.145
		c0,0,2.299,5.314,8.495,5.596c2.065,0.093,4.576-0.372,7.573-1.779l34.65-14.749c0,0,2.247-1.508,4.246-4.011
		c1.116-1.397,2.159-3.085,2.686-5.037c0.453-1.677,0.46-3.546-0.117-5.524c-0.048-0.163-0.029-0.313-0.086-0.479l-10.794-37.552
		c0,0-0.678-1.425-0.994-3.799c-0.106-0.79-0.171-1.687-0.157-2.672c0.013-0.985,0.105-2.056,0.315-3.199
		c0.628-3.427,2.311-7.484,6.087-11.698C434.175,715.874,444.973,698.119,459.901,701.672z"/>
	<path opacity="0.14" fill="#211915" d="M459.901,701.672l26.506,6.312c-0.451-2.538-0.908-5.073-1.171-7.673
		c-2.209-22.186,2.667-43.506,12.711-62.103l-9.047-5.243c0,0-5.378-2.459-7.846-11.01c-0.823-2.851-1.322-6.378-1.192-10.716
		c0,0-0.254-1.903-0.228-4.725c0.03-3.387,0.464-8.096,2.22-12.429c0.585-1.443,1.317-2.847,2.231-4.143
		c0.913-1.297,2.008-2.49,3.318-3.514c0.655-0.512,1.363-0.982,2.13-1.402l10.454-6.381l23.214-14.169c0,0,4.315-1.941,6.399-6.234
		c1.25-2.576,1.697-6-0.074-10.36l-14.307-32.373c0,0-0.073-0.198-0.226-0.536c-1.076-2.366-6.124-11.61-18.06-8.036l-39.102,12.461
		c0,0-5.27-0.079-11.26-2.36c-2.396-0.912-4.908-2.176-7.244-3.929c-1.168-0.875-2.292-1.873-3.336-3.01
		c0,0-0.054-0.052-0.155-0.154s-0.248-0.251-0.434-0.446c-0.558-0.584-1.464-1.572-2.507-2.863c-0.348-0.431-0.71-0.895-1.081-1.389
		c-0.74-0.989-1.51-2.096-2.246-3.294c-0.736-1.198-1.439-2.485-2.046-3.832c-1.821-4.044-2.779-8.624-1.181-12.935l9.024-38.974
		c0,0,2.309-11.398-6.315-15.558l-40.434-15.336c0,0-0.543-0.033-1.4,0.023c-2.142,0.139-6.245,0.829-8.725,3.96
		c-0.496,0.626-0.927,1.35-1.265,2.186l-22.731,40.659c0,0-1.464,0.059-1.475,0.068c-0.462,0.378-12.018,8.448-26.018,5.917V510
		h1.432c10.512-7,21.6-1.128,31.627,1.41c0.158,0.04,0.655-0.734,0.813-0.694c2.321,0.6,4.78,0.871,7.051,1.626
		c0.413,0.137,0.904,0.084,1.315,0.226c6.394,2.215,12.594,4.942,18.453,8.353c0.839,0.486,1.71,0.897,2.535,1.407
		c1.442,0.895,2.852,1.823,4.252,2.789c1.139,0.783,2.269,1.573,3.378,2.403c1.226,0.92,2.443,1.841,3.63,2.816
		c1.362,1.116,2.677,2.292,3.984,3.481c0.898,0.818,1.825,1.595,2.695,2.447c2.09,2.038,4.093,4.179,6.018,6.407
		c0.639,0.74,1.229,1.529,1.849,2.29c1.376,1.687,2.714,3.411,3.991,5.197c0.645,0.904,1.268,1.824,1.887,2.753
		c1.221,1.831,2.38,3.714,3.494,5.64c0.501,0.868,1.019,1.718,1.498,2.604c1.525,2.821,2.968,5.709,4.251,8.717
		c16.961,39.728,7.354,84.115-20.849,113.365c-4.701,4.875-9.918,9.329-15.614,13.272c-5.697,3.943-11.873,7.373-18.492,10.2
		c-3.629,1.549-7.301,2.83-10.993,3.941c-0.785,0.235-1.575,0.394-2.363,0.608c-3.035,0.836-6.075,1.555-9.129,2.106
		c-0.619,0.11-1.238,0.186-1.858,0.284c-3.352,0.543-6.7,0.921-10.05,1.132c-0.292,0.017-0.583,1.614-0.875,1.629
		c-3.732,0.203-7.447,1.592-11.146,1.592H327v37.643c7-0.204,4.813-0.343,6.774-0.247c0,0,5.298-0.41,10.708,0.414
		c1.352,0.206,3.102,0.489,4.496,0.875c0.697,0.194,1.565,0.412,2.25,0.66c3.424,1.238,6.694,3.2,8.706,6.287l22.338,37.145
		c0,0,2.299,5.314,8.495,5.596c2.065,0.093,4.576-0.372,7.573-1.779l34.65-14.749c0,0,2.247-1.508,4.246-4.011
		c1.116-1.397,2.159-3.085,2.686-5.037c0.453-1.677,0.46-3.546-0.117-5.524c-0.048-0.163-0.029-0.313-0.086-0.479l-10.794-37.552
		c0,0-0.678-1.425-0.994-3.799c-0.106-0.79-0.171-1.687-0.157-2.672c0.013-0.985,0.105-2.056,0.315-3.199
		c0.628-3.427,2.311-7.484,6.087-11.698C434.175,715.874,444.973,698.119,459.901,701.672z"/>
	<path fill="#ECC53B" d="M1055.96,722.615l-8.589-29.88c0,0-0.301-0.649-0.659-1.811c0.358,1.163,0.659,1.811,0.659,1.811
		L1055.96,722.615z"/>
	<path fill="none" stroke="#ECC53B" stroke-width="0" stroke-linecap="round" stroke-linejoin="round" d="M954.884,647.512
		c-0.878,0.319-1.763,0.595-2.643,0.899"/>
	<path fill="none" stroke="#ECC53B" stroke-width="0" stroke-linecap="round" stroke-linejoin="round" d="M1044.607,413.298
		c0.418,0.784,0.825,1.577,1.232,2.371"/>
	<path fill="none" stroke="#ECC53B" stroke-width="0" stroke-linecap="round" stroke-linejoin="round" d="M915.959,326.509
		c-0.445-0.048-0.887-0.114-1.332-0.158"/>
	<path fill="none" stroke="#ECC53B" stroke-width="0" stroke-linecap="round" stroke-linejoin="round" d="M928.091,328.265
		c-0.661-0.121-1.327-0.222-1.991-0.335"/>
	<path fill="none" stroke="#ECC53B" stroke-width="0" stroke-linecap="round" stroke-linejoin="round" d="M950.415,333.992
		c0.481,0.16,0.968,0.301,1.448,0.464"/>
	<path fill="none" stroke="#ECC53B" stroke-width="0" stroke-linecap="round" stroke-linejoin="round" d="M940.77,331.123
		c-0.639-0.17-1.274-0.353-1.915-0.515"/>
	<path fill="none" stroke="#ECC53B" stroke-width="0" stroke-linecap="round" stroke-linejoin="round" d="M973.965,343.827
		c0.147,0.075,0.297,0.141,0.444,0.217"/>
	<path fill="none" stroke="#ECC53B" stroke-width="0" stroke-linecap="round" stroke-linejoin="round" d="M964.252,339.276
		c-0.703-0.304-1.405-0.613-2.112-0.908"/>
	
		<line fill="none" stroke="#ECC53B" stroke-width="0" stroke-linecap="round" stroke-linejoin="round" x1="989" y1="803" x2="989" y2="803"/>
	<path fill="none" stroke="#ECC53B" stroke-width="0" stroke-linecap="round" stroke-linejoin="round" d="M897.57,721.625
		c0.2,0.007,0.38-0.008,0.582,0.002"/>
	<path fill="none" stroke="#ECC53B" stroke-width="0" stroke-linecap="round" stroke-linejoin="round" d="M897.495,721.625
		c-1.297-0.041-2.562-0.047-3.784-0.007"/>
	<path fill="none" stroke="#ECC53B" stroke-width="0" stroke-linecap="round" stroke-linejoin="round" d="M903.775,721.475
		c-1.067-0.012-2.05-0.006-2.849,0.015"/>
	<path fill="none" stroke="#ECC53B" stroke-width="0" stroke-linecap="round" stroke-linejoin="round" d="M946.193,650.392
		c-1.013,0.307-2.029,0.579-3.044,0.865"/>
	<path fill="none" stroke="#ECC53B" stroke-width="0" stroke-linecap="round" stroke-linejoin="round" d="M928.382,654.704
		c-0.939,0.174-1.878,0.345-2.817,0.502"/>
	<path fill="#ECC53B" d="M888.66,655c-61.307,0-117.86-39.266-143.525-99.503c-36.024-84.281,3.459-182.618,87.792-218.52
		C851.445,329.054,870.903,323,889.908,323c-0.018,0-2.908,0-2.908,0v-55c0,0,2.865,0,2.87,0c-0.396,0-0.778-1.827-1.177-1.907
		c0,0-24.277-3.163-29.92-9.015c0,0-36.624-62.235-38.386-65.422c0,0-6.801-14.297-20.987-8.642l-58.931,24.651
		c0,0-11.845,7.333-8.887,17.957l20.948,78.707c0,0-4.461,19.231-18.107,29.803c0,0-23.979,17.73-35.577,15.572l-64.34-15.608
		c0,0-18.608-6.672-25.948,9.491l-24.082,59.254c0,0-4.643,12.262,8.093,19.87l63.216,36.2c0,0,20.128,9.207,14.206,44.499
		c0,0,1.196,25.915-24.381,39.998c-25.57,14.081-47.593,28.217-47.593,28.217s-3.03,1.483-5.676,4.567
		c0.216-0.023,0.478-0.073,0.695-0.095c1.623-0.164,3.963-0.152,3.963-0.253V579c0,0,1.753,0,1.761,0
		c11.599-7,22.936-1.421,33.751,0.866c0.085,0.019,0.167-1.599,0.252-1.58c3.482,0.743,6.909,1.664,10.273,2.694
		c0.389,0.119,0.763,0.286,1.15,0.409c3.053,0.969,6.066,2.034,9.006,3.23c0.837,0.341,1.633,0.756,2.46,1.115
		c2.473,1.071,4.936,2.162,7.316,3.39c1.466,0.757,2.852,1.631,4.28,2.445c1.696,0.966,3.426,1.884,5.065,2.929
		c3.055,1.95,6.015,4.028,8.858,6.241c0.297-0.164,2.026,1.008,4.618,3.412c1.037,0.961,2.211,2.12,3.487,3.469
		c6.137,6.487,14.61,17.399,21.376,31.945c5.993,0.904,13.675,3.61,21.6,10.636c0,0,23.878,16.254,22.142,29.66l-15.485,78.475
		c0,0-5.047,13.223,10.025,21.78l62.24,23.64c0,0,17.327,1.665,21.93-12.535l25.638-49.45c0,0,8.258-17.304,28.258-19.851V655
		H888.66z M598.761,575.841c11.607-0.719,22.934,0.131,33.751,2.445C621.698,576,610.361,575.122,598.761,575.841z"/>
	<path fill="none" stroke="#ECC53B" stroke-width="0" stroke-linecap="round" stroke-linejoin="round" d="M919.107,656.146
		c-0.762,0.097-1.523,0.205-2.284,0.291"/>
	<path fill="none" stroke="#ECC53B" stroke-width="0" stroke-linecap="round" stroke-linejoin="round" d="M937.374,652.787
		c-1.016,0.247-2.034,0.476-3.052,0.703"/>
	<path fill="#ECC53B" d="M1057,434.14c0,0,0-0.001,0-0.001c-1-2.592-2.138-5.138-3.263-8.138h0.122
		C1054.984,429,1056,431.547,1057,434.14z"/>
	<path fill="#ECC53B" d="M1041.969,298.566c0.043-2.335,0.44-4.669,1.287-6.956l4.787-20.675l-4.787,20.675
		C1042.409,293.896,1042.013,296.231,1041.969,298.566z"/>
	<path fill="#ECC53B" d="M1071.471,340.595c11.048,5.296,21.899,5.46,21.899,5.46l34.557-11.013v0l-34.557,11.012
		C1093.37,346.054,1082.519,345.89,1071.471,340.595z"/>
	<path fill="none" stroke="#ECC53B" stroke-width="0" stroke-linecap="round" stroke-linejoin="round" d="M995.283,801.328
		c-2.19,0.763-4.189,1.191-6.009,1.358"/>
	<path fill="none" stroke="#ECC53B" stroke-width="0" stroke-linecap="round" stroke-linejoin="round" d="M901.207,325.595
		c0.76,0.013,1.521,0.024,2.28,0.048"/>
	<path fill="#ECC53B" d="M1054.621,210.996c-1.577-2.435-3.837-4.619-7.054-6.171l-64.348-24.407l64.347,24.407
		C1050.783,206.377,1053.044,208.561,1054.621,210.996z"/>
	<path opacity="0.14" fill="none" stroke="#211915" stroke-width="0" stroke-linecap="round" stroke-linejoin="round" d="
		M984.072,349.483c-3.169-1.911-6.38-3.747-9.663-5.44"/>
	<path opacity="0.14" fill="none" stroke="#211915" stroke-width="0" stroke-linecap="round" stroke-linejoin="round" d="
		M962.14,338.368c-3.384-1.41-6.807-2.727-10.277-3.911"/>
	<path opacity="0.14" fill="none" stroke="#211915" stroke-width="0" stroke-linecap="round" stroke-linejoin="round" d="
		M973.965,343.827c-3.185-1.63-6.433-3.129-9.714-4.551"/>
	<path opacity="0.14" fill="none" stroke="#211915" stroke-width="0" stroke-linecap="round" stroke-linejoin="round" d="
		M889.908,325.741c3.775-0.193,7.542-0.212,11.299-0.146"/>
	<path opacity="0.14" fill="none" stroke="#211915" stroke-width="0" stroke-linecap="round" stroke-linejoin="round" d="
		M908.987,264.078c1.11-0.247,2.182-0.526,3.215-0.826"/>
	<path opacity="0.14" fill="none" stroke="#211915" stroke-width="0" stroke-linecap="round" stroke-linejoin="round" d="
		M889.87,264.55c2.838,0.496,5.577,0.717,8.196,0.725"/>
	<path opacity="0.14" fill="none" stroke="#211915" stroke-width="0" stroke-linecap="round" stroke-linejoin="round" d="
		M922.55,259.027c4.071-2.177,6.369-4.086,6.369-4.086"/>
	<path fill="#5EA4D2" d="M922.55,259.027c-1.357,0.726-2.911,1.481-4.642,2.205C919.639,260.508,921.193,259.753,922.55,259.027z"/>
	<path opacity="0.14" fill="#211915" d="M922.55,259.027c-1.357,0.726-2.911,1.481-4.642,2.205
		C919.639,260.508,921.193,259.753,922.55,259.027z"/>
	<path fill="#5EA4D2" d="M908.987,264.078c-3.329,0.742-6.991,1.21-10.921,1.197C901.996,265.288,905.658,264.82,908.987,264.078z"
		/>
	<path opacity="0.14" fill="#211915" d="M908.987,264.078c-3.329,0.742-6.991,1.21-10.921,1.197
		C901.996,265.288,905.658,264.82,908.987,264.078z"/>
	<path fill="#5EA4D2" d="M917.908,261.232c-1.731,0.725-3.639,1.418-5.706,2.02C914.269,262.65,916.177,261.957,917.908,261.232z"/>
	<path opacity="0.14" fill="#211915" d="M917.908,261.232c-1.731,0.725-3.639,1.418-5.706,2.02
		C914.269,262.65,916.177,261.957,917.908,261.232z"/>
	<path opacity="0.14" fill="none" stroke="#211915" stroke-width="0" stroke-linecap="round" stroke-linejoin="round" d="
		M940.77,331.123c3.245,0.861,6.462,1.814,9.645,2.869"/>
	<path opacity="0.14" fill="none" stroke="#211915" stroke-width="0" stroke-linecap="round" stroke-linejoin="round" d="
		M903.487,325.643c3.728,0.118,7.445,0.34,11.14,0.708"/>
	<path opacity="0.14" fill="none" stroke="#211915" stroke-width="0" stroke-linecap="round" stroke-linejoin="round" d="
		M915.959,326.509c3.4,0.367,6.781,0.847,10.142,1.42"/>
	<path opacity="0.14" fill="none" stroke="#211915" stroke-width="0" stroke-linecap="round" stroke-linejoin="round" d="
		M928.091,328.265c3.616,0.663,7.206,1.443,10.763,2.343"/>
	<path opacity="0.14" fill="none" stroke="#211915" stroke-width="0" stroke-linecap="round" stroke-linejoin="round" d="
		M925.565,655.206c-2.152,0.36-4.305,0.668-6.458,0.94"/>
	<path fill="#5EA4D2" d="M1050.766,665.325c1.324-2.152,2.957-4.359,4.961-6.594c0,0,1.85-3.042,5.175-6.93
		c-3.325,3.888-5.176,6.93-5.176,6.93C1053.723,660.965,1052.089,663.173,1050.766,665.325z"/>
	<path opacity="0.14" fill="#211915" d="M1050.766,665.325c1.324-2.152,2.957-4.359,4.961-6.594c0,0,1.85-3.042,5.175-6.93
		c-3.325,3.888-5.176,6.93-5.176,6.93C1053.723,660.965,1052.089,663.173,1050.766,665.325z"/>
	<path opacity="0.14" fill="none" stroke="#211915" stroke-width="0" stroke-linecap="round" stroke-linejoin="round" d="
		M934.322,653.491c-1.978,0.442-3.958,0.847-5.939,1.214"/>
	<path opacity="0.14" fill="none" stroke="#211915" stroke-width="0" stroke-linecap="round" stroke-linejoin="round" d="
		M916.823,656.437c-2.578,0.289-5.155,0.513-7.73,0.681"/>
	<path fill="#5EA4D2" d="M889.855,721.919L889.855,721.919c0.586-0.066,1.213-0.093,1.817-0.141
		c-0.006,0.001-0.018,0.001-0.024,0.001C891.054,721.829,890.434,721.853,889.855,721.919z"/>
	<path opacity="0.14" fill="#211915" d="M889.855,721.919L889.855,721.919c0.586-0.066,1.213-0.093,1.817-0.141
		c-0.006,0.001-0.018,0.001-0.024,0.001C891.054,721.829,890.434,721.853,889.855,721.919z"/>
	<path fill="#5EA4D2" d="M891.77,721.77c0.647-0.051,1.273-0.123,1.942-0.152c-0.672,0.022-1.29,0.099-1.933,0.15
		C891.779,721.768,891.774,721.77,891.77,721.77z"/>
	<path opacity="0.14" fill="#211915" d="M891.77,721.77c0.647-0.051,1.273-0.123,1.942-0.152c-0.672,0.022-1.29,0.099-1.933,0.15
		C891.779,721.768,891.774,721.77,891.77,721.77z"/>
	<path opacity="0.14" fill="none" stroke="#211915" stroke-width="0" stroke-linecap="round" stroke-linejoin="round" d="
		M943.149,651.257c-1.922,0.542-3.846,1.062-5.775,1.53"/>
	<path opacity="0.14" fill="none" stroke="#211915" stroke-width="0" stroke-linecap="round" stroke-linejoin="round" d="
		M1049.131,422.615c0.583,1.258,1.23,2.467,1.778,3.752"/>
	<path opacity="0.14" fill="none" stroke="#211915" stroke-width="0" stroke-linecap="round" stroke-linejoin="round" d="
		M1048.596,421.487c-0.918-1.941-1.785-3.92-2.758-5.818"/>
	<path fill="#5EA4D2" d="M1065.448,757.479c-0.031-1.597-0.307-3.263-0.899-4.984l-8.589-29.881l8.589,29.881
		C1065.141,754.218,1065.417,755.883,1065.448,757.479z"/>
	<path opacity="0.14" fill="#211915" d="M1065.448,757.479c-0.031-1.597-0.307-3.263-0.899-4.984l-8.589-29.881l8.589,29.881
		C1065.141,754.218,1065.417,755.883,1065.448,757.479z"/>
	<path fill="#5EA4D2" d="M965.094,190.237c0.806-1.997,1.947-3.59,3.268-4.861C967.041,186.647,965.9,188.24,965.094,190.237z"/>
	<path opacity="0.14" fill="#211915" d="M965.094,190.237c0.806-1.997,1.947-3.59,3.268-4.861
		C967.041,186.647,965.9,188.24,965.094,190.237z"/>
	<path fill="#5EA4D2" d="M968.362,185.376c1.322-1.271,2.825-2.219,4.355-2.926C971.187,183.157,969.684,184.105,968.362,185.376z"
		/>
	<path opacity="0.14" fill="#211915" d="M968.362,185.376c1.322-1.271,2.825-2.219,4.355-2.926
		C971.187,183.157,969.684,184.105,968.362,185.376z"/>
	<path fill="#5EA4D2" d="M1082.802,636.486c4.273-1.214,8.919-1.534,13.865-0.356l31.26,7.443l0,0l-31.261-7.444
		C1091.721,634.953,1087.075,635.272,1082.802,636.486z"/>
	<path opacity="0.14" fill="#211915" d="M1082.802,636.486c4.273-1.214,8.919-1.534,13.865-0.356l31.26,7.443l0,0l-31.261-7.444
		C1091.721,634.953,1087.075,635.272,1082.802,636.486z"/>
	<path opacity="0.14" fill="none" stroke="#211915" stroke-width="0" stroke-linecap="round" stroke-linejoin="round" d="
		M946.193,650.392c2.022-0.611,4.036-1.288,6.048-1.981"/>
	<path opacity="0.14" fill="none" stroke="#211915" stroke-width="0" stroke-linecap="round" stroke-linejoin="round" d="
		M1064.008,500.98c0.503-8.702,0.32-17.491-0.579-26.287"/>
	<path fill="#5EA4D2" d="M1064.008,500.98c-3.522,60.912-40.64,117.577-100.551,143.162c-2.843,1.214-5.703,2.327-8.573,3.37
		c2.87-1.044,5.731-2.155,8.574-3.37C1023.369,618.557,1060.486,561.892,1064.008,500.98z"/>
	<path opacity="0.14" fill="#211915" d="M1064.008,500.98c-3.522,60.912-40.64,117.577-100.551,143.162
		c-2.843,1.214-5.703,2.327-8.573,3.37c2.87-1.044,5.731-2.155,8.574-3.37C1023.369,618.557,1060.486,561.892,1064.008,500.98z"/>
	<path fill="#5EA4D2" d="M1048.043,270.934l9.574-41.35c0,0,0.517-2.551,0.439-6.089c0.078,3.537-0.439,6.088-0.439,6.088
		L1048.043,270.934z"/>
	<path opacity="0.14" fill="#211915" d="M1048.043,270.934l9.574-41.35c0,0,0.517-2.551,0.439-6.089
		c0.078,3.537-0.439,6.088-0.439,6.088L1048.043,270.934z"/>
	<path fill="#ECC53B" d="M1071.471,340.595c-1.578-0.756-3.161-1.618-4.716-2.598c-2.871-1.81-5.651-4.026-8.142-6.74
		c0,0-8.648-8.341-13.478-19.063c-0.966-2.144-1.779-4.384-2.34-6.671c-0.561-2.287-0.87-4.622-0.826-6.957
		c0.043-2.335,0.44-4.67,1.287-6.957l4.787-20.675l9.574-41.351c0,0,0.517-2.55,0.439-6.088c-0.039-1.769-0.226-3.784-0.702-5.851
		c-0.317-1.378-0.761-2.778-1.375-4.144c-0.383-0.853-0.833-1.693-1.358-2.505c-1.577-2.435-3.838-4.619-7.055-6.171l-64.347-24.407
		c0,0-0.864-0.052-2.228,0.036c-2.045,0.133-5.214,0.581-8.274,1.995c-1.53,0.707-3.033,1.655-4.355,2.926
		c-1.322,1.271-2.463,2.864-3.268,4.861l-36.175,66.429c0,0-16.346,11.334-39.05,11.334c-0.005,0-2.87,0-2.87,0v55
		c0,0,2.89,0,2.908,0c3.776,0,7.542,1.158,11.299,1.225c0.761,0.014,1.52,0.709,2.28,0.733c3.729,0.118,7.444,0.683,11.14,1.051
		c0.446,0.044,0.887,0.282,1.332,0.329c3.4,0.367,6.781,0.932,10.142,1.506c0.664,0.114,1.329,0.257,1.991,0.378
		c3.617,0.663,7.206,1.465,10.763,2.364c0.641,0.162,1.276,0.356,1.915,0.526c3.245,0.862,6.461,1.82,9.645,2.874
		c0.481,0.159,0.968,0.303,1.448,0.467c3.471,1.185,6.893,2.502,10.277,3.913c0.708,0.295,1.408,0.604,2.112,0.909
		c3.281,1.421,6.529,2.921,9.714,4.551c0.147,0.075,0.297,0.141,0.444,0.217c3.284,1.693,6.494,3.529,9.663,5.44
		c0.701,0.423,1.399,0.85,2.094,1.282c3.127,1.949,6.209,3.975,9.207,6.133c0.243,0.175,0.476,0.365,0.718,0.541
		c2.803,2.041,5.533,4.192,8.212,6.413c0.613,0.509,1.23,1.012,1.837,1.529c2.789,2.381,5.512,4.85,8.149,7.425
		c0.446,0.435,0.875,0.893,1.316,1.333c2.342,2.34,4.617,4.759,6.827,7.251c0.468,0.529,0.949,1.043,1.412,1.579
		c2.417,2.797,4.742,5.692,6.983,8.671c0.485,0.645,0.953,1.306,1.429,1.96c2.018,2.766,3.966,5.599,5.825,8.513
		c0.266,0.418,0.551,0.821,0.814,1.242c2.013,3.221,3.903,6.548,5.712,9.941c0.418,0.785,2.117,1.577,2.523,2.371
		c0.983,1.919,0.755,3.856,1.466,5.818c0.136,0.375,0.066,0.75,0.289,1.127c0.732,1.238,2.115,2.488,4.115,3.752
		c0,0.004,0,0.007,0,0.011c2,2.574,3,5.164,4,7.761c0,0,0,0.001,0,0.001c4,13.347,6.572,26.958,7.962,40.553
		c7.198,70.375-32.268,140.209-100.738,169.45c-2.843,1.214-6.087,2.326-8.957,3.37c-0.879,0.319-1.954,0.595-2.834,0.899
		c-2.012,0.693-4.122,1.37-6.143,1.981c-1.013,0.306-2.077,0.579-3.092,0.865c-1.922,0.542-3.87,1.061-5.799,1.53
		c-1.017,0.247-2.047,0.476-3.065,0.703c-1.978,0.442-3.963,0.847-5.945,1.214c-0.939,0.173-1.88,0.345-2.82,0.502
		c-2.152,0.36-4.306,0.667-6.46,0.94c-0.762,0.096-1.524,0.205-2.285,0.291c-2.578,0.29-5.155,0.513-7.73,0.681l0,0
		c-0.332,0.021-0.665-1.071-0.997-1.053c-6.102,0.36-13.389-1.065-19.436-1.065H887v66.919c3-0.051,4.097,3.081,4.648,3.081
		c0.006,0,0.018,0,0.024,0c0.033,0,0.07,0,0.098,0c0.005,0,0.005,0,0.005,0c0.774,0-0.082-0.052,0.736-0.079
		c1.406-0.06,3.443,0.079,4.984,0.079c0.017,0,0.04,0,0.057,0h0.018c0.049,0,1.345-1.778,3.055-1.823
		c0.879-0.024,1.944-0.878,3.149-0.859c8.345,0.125,23.503,1.245,31.658,10.1c0.778,0.844,1.567,1.545,2.208,2.527l35.516,59.008
		c0,0,0.648,1.415,2.096,3.16c0.868,1.047,2.04,2.168,3.538,3.157c0.499,0.33,0.904,0.63,1.48,0.914
		c2.302,1.141,5.729,1.842,8.729,1.508v-0.003c2-0.167,3.956-0.596,6.146-1.359c1.095-0.382,2.307-0.849,3.499-1.409l55.168-23.471
		c0,0,1.525-0.995,3.453-2.782c1.157-1.073,2.474-2.431,3.699-4.03c1.225-1.6,2.371-3.443,3.195-5.483
		c0.275-0.68,0.516-1.383,0.712-2.105c0.391-1.446,0.607-2.973,0.576-4.569c-0.031-1.596-0.307-3.262-0.898-4.984l-8.589-29.881
		l-8.589-29.88c0,0-0.301-0.649-0.659-1.811c-0.12-0.388-0.245-0.833-0.368-1.329c-0.187-0.754-0.364-1.625-0.507-2.613
		c-0.193-1.333-0.322-2.848-0.299-4.544c0.011-0.783,0.053-1.601,0.134-2.451c0.162-1.699,0.48-3.524,1.014-5.446
		c0.267-0.962,0.589-1.947,0.973-2.954c0.767-2.012,1.782-4.109,3.106-6.261c1.324-2.152,2.957-4.359,4.96-6.594
		c0,0,1.85-3.042,5.176-6.93c1.108-1.296,2.381-2.686,3.803-4.089c2.104-2.076,4.568-4.154,7.285-6.021
		c1.032-0.709,2.103-1.372,3.213-2c1.114-0.628,2.265-1.196,3.454-1.713c1.339-0.582,2.721-1.086,4.146-1.491
		c4.272-1.214,9.954-1.534,14.9-0.356l32.297,7.444V335.042l-35.594,11.013C1094.406,346.055,1082.519,345.89,1071.471,340.595z"/>
	<path opacity="0.14" fill="#211915" d="M1071.471,340.595c-1.578-0.756-3.161-1.618-4.716-2.598
		c-2.871-1.81-5.651-4.026-8.142-6.74c0,0-8.648-8.341-13.478-19.063c-0.966-2.144-1.779-4.384-2.34-6.671
		c-0.561-2.287-0.87-4.622-0.826-6.957c0.043-2.335,0.44-4.67,1.287-6.957l4.787-20.675l9.574-41.351c0,0,0.517-2.55,0.439-6.088
		c-0.039-1.769-0.226-3.784-0.702-5.851c-0.317-1.378-0.761-2.778-1.375-4.144c-0.383-0.853-0.833-1.693-1.358-2.505
		c-1.577-2.435-3.838-4.619-7.055-6.171l-64.347-24.407c0,0-0.864-0.052-2.228,0.036c-2.045,0.133-5.214,0.581-8.274,1.995
		c-1.53,0.707-3.033,1.655-4.355,2.926c-1.322,1.271-2.463,2.864-3.268,4.861l-36.175,66.429c0,0-16.346,11.334-39.05,11.334
		c-0.005,0-2.87,0-2.87,0v55c0,0,2.89,0,2.908,0c3.776,0,7.542,1.158,11.299,1.225c0.761,0.014,1.52,0.709,2.28,0.733
		c3.729,0.118,7.444,0.683,11.14,1.051c0.446,0.044,0.887,0.282,1.332,0.329c3.4,0.367,6.781,0.932,10.142,1.506
		c0.664,0.114,1.329,0.257,1.991,0.378c3.617,0.663,7.206,1.465,10.763,2.364c0.641,0.162,1.276,0.356,1.915,0.526
		c3.245,0.862,6.461,1.82,9.645,2.874c0.481,0.159,0.968,0.303,1.448,0.467c3.471,1.185,6.893,2.502,10.277,3.913
		c0.708,0.295,1.408,0.604,2.112,0.909c3.281,1.421,6.529,2.921,9.714,4.551c0.147,0.075,0.297,0.141,0.444,0.217
		c3.284,1.693,6.494,3.529,9.663,5.44c0.701,0.423,1.399,0.85,2.094,1.282c3.127,1.949,6.209,3.975,9.207,6.133
		c0.243,0.175,0.476,0.365,0.718,0.541c2.803,2.041,5.533,4.192,8.212,6.413c0.613,0.509,1.23,1.012,1.837,1.529
		c2.789,2.381,5.512,4.85,8.149,7.425c0.446,0.435,0.875,0.893,1.316,1.333c2.342,2.34,4.617,4.759,6.827,7.251
		c0.468,0.529,0.949,1.043,1.412,1.579c2.417,2.797,4.742,5.692,6.983,8.671c0.485,0.645,0.953,1.306,1.429,1.96
		c2.018,2.766,3.966,5.599,5.825,8.513c0.266,0.418,0.551,0.821,0.814,1.242c2.013,3.221,3.903,6.548,5.712,9.941
		c0.418,0.785,2.117,1.577,2.523,2.371c0.983,1.919,0.755,3.856,1.466,5.818c0.136,0.375,0.066,0.75,0.289,1.127
		c0.732,1.238,2.115,2.488,4.115,3.752c0,0.004,0,0.007,0,0.011c2,2.574,3,5.164,4,7.761c0,0,0,0.001,0,0.001
		c4,13.347,6.572,26.958,7.962,40.553c7.198,70.375-32.268,140.209-100.738,169.45c-2.843,1.214-6.087,2.326-8.957,3.37
		c-0.879,0.319-1.954,0.595-2.834,0.899c-2.012,0.693-4.122,1.37-6.143,1.981c-1.013,0.306-2.077,0.579-3.092,0.865
		c-1.922,0.542-3.87,1.061-5.799,1.53c-1.017,0.247-2.047,0.476-3.065,0.703c-1.978,0.442-3.963,0.847-5.945,1.214
		c-0.939,0.173-1.88,0.345-2.82,0.502c-2.152,0.36-4.306,0.667-6.46,0.94c-0.762,0.096-1.524,0.205-2.285,0.291
		c-2.578,0.29-5.155,0.513-7.73,0.681l0,0c-0.332,0.021-0.665-1.071-0.997-1.053c-6.102,0.36-13.389-1.065-19.436-1.065H887v66.919
		c3-0.051,4.097,3.081,4.648,3.081c0.006,0,0.018,0,0.024,0c0.033,0,0.07,0,0.098,0c0.005,0,0.005,0,0.005,0
		c0.774,0-0.082-0.052,0.736-0.079c1.406-0.06,3.443,0.079,4.984,0.079c0.017,0,0.04,0,0.057,0h0.018
		c0.049,0,1.345-1.778,3.055-1.823c0.879-0.024,1.944-0.878,3.149-0.859c8.345,0.125,23.503,1.245,31.658,10.1
		c0.778,0.844,1.567,1.545,2.208,2.527l35.516,59.008c0,0,0.648,1.415,2.096,3.16c0.868,1.047,2.04,2.168,3.538,3.157
		c0.499,0.33,0.904,0.63,1.48,0.914c2.302,1.141,5.729,1.842,8.729,1.508v-0.003c2-0.167,3.956-0.596,6.146-1.359
		c1.095-0.382,2.307-0.849,3.499-1.409l55.168-23.471c0,0,1.525-0.995,3.453-2.782c1.157-1.073,2.474-2.431,3.699-4.03
		c1.225-1.6,2.371-3.443,3.195-5.483c0.275-0.68,0.516-1.383,0.712-2.105c0.391-1.446,0.607-2.973,0.576-4.569
		c-0.031-1.596-0.307-3.262-0.898-4.984l-8.589-29.881l-8.589-29.88c0,0-0.301-0.649-0.659-1.811
		c-0.12-0.388-0.245-0.833-0.368-1.329c-0.187-0.754-0.364-1.625-0.507-2.613c-0.193-1.333-0.322-2.848-0.299-4.544
		c0.011-0.783,0.053-1.601,0.134-2.451c0.162-1.699,0.48-3.524,1.014-5.446c0.267-0.962,0.589-1.947,0.973-2.954
		c0.767-2.012,1.782-4.109,3.106-6.261c1.324-2.152,2.957-4.359,4.96-6.594c0,0,1.85-3.042,5.176-6.93
		c1.108-1.296,2.381-2.686,3.803-4.089c2.104-2.076,4.568-4.154,7.285-6.021c1.032-0.709,2.103-1.372,3.213-2
		c1.114-0.628,2.265-1.196,3.454-1.713c1.339-0.582,2.721-1.086,4.146-1.491c4.272-1.214,9.954-1.534,14.9-0.356l32.297,7.444
		V335.042l-35.594,11.013C1094.406,346.055,1082.519,345.89,1071.471,340.595z"/>
	<path fill="#003750" d="M378.58,1084H597V821.343C410,816.351,382.265,1036,378.58,1084z"/>
	<path fill="none" stroke="#003750" stroke-width="0" stroke-linecap="round" stroke-linejoin="round" d="M754.254,883.632
		c-3.068-3.109-6.26-6.137-9.575-9.085"/>
	<path fill="none" stroke="#003750" stroke-width="0" stroke-linecap="round" stroke-linejoin="round" d="M812.008,981.539
		c-2.361-7.123-5.022-14.309-8.019-21.486"/>
	<path fill="none" stroke="#003750" stroke-width="0" stroke-linecap="round" stroke-linejoin="round" d="M705.459,847.137
		c4.769,2.58,9.359,5.305,13.778,8.151"/>
	<path fill="#003750" d="M719.237,855.288c4.418,2.846,8.664,5.813,12.745,8.878C727.901,861.101,723.655,858.134,719.237,855.288z"
		/>
	<path fill="#003750" d="M705.459,847.137c-23.846-12.901-52.161-22.184-85.791-24.921c0.623,0.051,1.221,0.133,1.841,0.188
		C654.322,825.328,682.055,834.475,705.459,847.137z"/>
	<path fill="none" stroke="#003750" stroke-width="0" stroke-linecap="round" stroke-linejoin="round" d="M721.471,698.464
		c0.173-2.242,0.28-4.453,0.326-6.633"/>
	<path fill="none" stroke="#003750" stroke-width="0" stroke-linecap="round" stroke-linejoin="round" d="M606.811,801.288
		c-2.702,0.034-5.392,0.003-8.065-0.105"/>
	<path fill="none" stroke="#003750" stroke-width="0" stroke-linecap="round" stroke-linejoin="round" d="M718.01,719.451
		c-0.61,2.419-1.299,4.866-2.072,7.341"/>
	<path fill="none" stroke="#003750" stroke-width="0" stroke-linecap="round" stroke-linejoin="round" d="M668.524,783.411
		c4.902-2.987,9.554-6.298,13.924-9.898"/>
	<path fill="#003750" d="M713.36,734.299c0.947-2.529,1.804-5.032,2.578-7.507C715.164,729.268,714.306,731.769,713.36,734.299
		c-7.222,15.017-17.8,28.413-30.911,39.213C695.559,762.713,706.137,749.316,713.36,734.299z"/>
	<path fill="#003750" d="M598.761,575.841c11.599-0.719,22.936,0.159,33.751,2.445C621.696,575.972,610.368,575.122,598.761,575.841
		z"/>
	<path fill="#003750" d="M597,579.245v-3.403c0,0.101-2.34,0.089-3.963,0.253c-0.217,0.022-0.451-0.032-0.667-0.009
		C550.608,580.457,515.911,605,497.96,638h-0.007c-10.043,19-14.923,40.029-12.714,62.215c0.263,2.6,0.719,4.785,1.17,7.785h0.056
		C495.783,760,544,798.974,597,801.183v-0.554V579.245z"/>
	<path fill="none" stroke="#003750" stroke-width="0" stroke-linecap="round" stroke-linejoin="round" d="M721.471,698.464
		c-0.52,6.726-1.632,13.729-3.462,20.987"/>
	<path fill="#001D30" d="M597,821.343V1084h232.33c-0.326,0-2.472-42.525-8.614-69.584c-2.303-10.147-5.168-21.44-8.709-32.124
		c-2.361-7.123-5.022-14.686-8.019-21.863c-1.498-3.589-3.08-7.363-4.75-10.937c-10.859-23.246-25.522-46.041-44.986-65.767
		c-3.068-3.109-6.26-6.183-9.575-9.132c-4.05-3.603-8.262-7.094-12.696-10.425c-28.188-21.171-64.287-37.651-110.474-41.766
		c-0.619-0.055-1.14-0.136-1.763-0.187c-6.726-0.547-13.745-1.024-20.745-1.024V821c0,0-0.211,0-0.24,0c-0.008,0-0.016,0-0.024,0
		L597,821.343z"/>
	<path fill="#001D30" d="M685.789,604.152c-2.591-2.403-4.321-3.576-4.618-3.412c-2.843-2.214-5.803-4.291-8.858-6.241
		c-1.639-1.045-3.369-1.963-5.065-2.929c-1.428-0.814-2.814-1.687-4.28-2.444c-2.379-1.228-4.843-2.317-7.316-3.388
		c-0.827-0.359-1.623-0.77-2.46-1.111c-2.94-1.196-5.953-2.254-9.006-3.223c-0.388-0.123-0.761-0.274-1.15-0.394
		c-3.364-1.03-6.791-1.92-10.273-2.664c-0.085-0.019-0.167,1.538-0.252,1.519c-10.815-2.287-22.152-7.866-33.751-0.866
		c-0.008,0-1.761,0-1.761,0v222c0,0,1.743,0,1.746,0c2.673,0,5.363,0.336,8.065,0.302c3.147-0.041,6.313-0.302,9.508-0.302
		c0.027,0,0.054,0,0.081,0c5.483,0,10.843-1.555,16.058-2.769c13.038-3.038,25.172-8.128,36.066-14.766
		c19.61-11.948,35.206-29.116,44.835-49.14c1.893-5.058,3.431-10.022,4.65-14.861c1.829-7.258,2.942-14.268,3.462-20.994
		c0.173-2.242,0.28-4.456,0.326-6.636c0.092-4.359-0.062-8.593-0.424-12.693c-0.181-2.049-0.414-4.066-0.695-6.049
		c-0.562-3.964-1.315-7.791-2.222-11.475c-0.453-1.843-0.945-3.649-1.472-5.419c-1.778-5.982-3.954-11.523-6.332-16.635
		c-6.767-14.545-15.24-25.458-21.376-31.945C688.001,606.271,686.826,605.113,685.789,604.152z"/>
</g>
</svg>
