<?xml version="1.0" encoding="utf-8"?>
<!-- Generator: Adobe Illustrator 19.1.0, SVG Export Plug-In . SVG Version: 6.00 Build 0)  -->
<svg version="1.1" id="Layer_1" xmlns="http://www.w3.org/2000/svg" xmlns:xlink="http://www.w3.org/1999/xlink" x="0px" y="0px"
	 viewBox="0 0 1200 1200" enable-background="new 0 0 1200 1200" xml:space="preserve">
<g>
	<path fill="#F5DB39" d="M1006.311,1149.996H211.475C93.878,1149.996,50,1106.764,50,978.385V165.986
		c0-51.274,44.557-115.983,123.645-115.983h832.551c94.184,0,143.797,64.709,143.797,143.797v823.45
		C1150.771,1117.151,1086.98,1149.996,1006.311,1149.996z"/>
	<circle fill="#D00F2E" cx="613.336" cy="634.99" r="426.088"/>
	<g>
		<g>
			<rect x="366.311" y="815.374" fill="#2D3F52" width="167.842" height="69.863"/>
			<path fill="#2D3F52" d="M344.07,889.982c0,5.574,4.513,10.083,10.086,10.083h192.155c5.573,0,10.083-4.508,10.083-10.083l0,0
				c0-5.567-4.51-10.083-10.083-10.083H354.156C348.584,879.9,344.07,884.415,344.07,889.982L344.07,889.982z"/>
			<g>
				<path fill="#FFFFFF" d="M125.776,797.576c0,13.165,10.668,23.835,23.834,23.835h601.244c13.161,0,23.832-10.67,23.832-23.835
					V396.757c0-13.17-10.671-23.839-23.832-23.839H149.611c-13.166,0-23.834,10.669-23.834,23.839V797.576z"/>
				<path fill="#FFFFFF" d="M125.776,762.895V396.757c0-13.17,10.668-23.839,23.834-23.839h601.244
					c13.161,0,23.832,10.669,23.832,23.839v366.138H125.776z"/>
				<g>
					<rect x="438.916" y="780.366" fill="#48505E" width="24.876" height="21.773"/>
				</g>
				<rect x="146.945" y="395.542" fill="#2D3F52" width="606.577" height="344.389"/>
			</g>
		</g>
		<path fill="#80C2CD" d="M423.614,519.982l76.121,43.949c10.892,6.288,10.892,22.009,0,28.297l-76.121,43.949
			c-10.892,6.288-24.506-1.572-24.506-14.149v-87.897C399.108,521.554,412.722,513.694,423.614,519.982z"/>
	</g>
	<path opacity="0.19" fill="#211915" d="M750.854,372.918H450.731v527.147h95.581c5.573,0,10.083-4.508,10.083-10.083
		c0-5.567-4.51-10.082-10.083-10.082h-12.158v-58.489h216.701c13.161,0,23.832-10.671,23.832-23.835v-400.82
		C774.687,383.587,764.015,372.918,750.854,372.918z"/>
	<path fill="#80C2CD" d="M895.646,267.345l-12.672-12.537l-178.64,57.284v151.752c-5.797-1.853-12.195-2.941-18.945-2.941
		c-25.716,0-46.545,14.914-46.545,33.336c0,18.401,20.829,33.324,46.545,33.324c25.673,0,46.503-14.923,46.503-33.324
		c0-2.004-0.332-3.96-0.808-5.855V363.285l125.181-40.167v94.616c-6.024-2.045-12.671-3.266-19.794-3.266
		c-25.715,0-46.523,14.891-46.523,33.324c0,18.411,20.807,33.325,46.523,33.325c25.695,0,46.503-14.914,46.503-33.325
		c0-2.257-0.31-4.472-0.931-6.6l0.931-0.309L895.646,267.345z"/>
	<g>
		<path fill="#2D3F52" d="M1083.101,672.145v-42.894c0-7.42-6.014-13.437-13.429-13.437H685.001
			c-7.415,0-13.433,6.018-13.433,13.437v42.894h9.665v219.586h-9.665v0.233c0,7.418,6.018,13.437,13.433,13.437h384.671
			c7.415,0,13.429-6.018,13.429-13.437v-0.233h-9.414V672.145H1083.101z"/>
		<path fill="#2B3D4E" d="M1034.061,606.326c0,6.18-4.998,11.188-11.164,11.188h-60.979c-6.166,0-11.181-5.009-11.181-11.188l0,0
			c0-6.183,5.015-11.18,11.181-11.18h60.979C1029.062,595.146,1034.061,600.143,1034.061,606.326L1034.061,606.326z"/>
		<g>
			<path fill="#FFFFFF" d="M671.568,880.005v11.959c0,7.418,6.018,13.437,13.433,13.437h384.671c7.415,0,13.429-6.018,13.429-13.437
				v-11.959H671.568z"/>
			<path fill="#FFFFFF" d="M1083.101,680.849v-51.598c0-7.42-6.014-13.437-13.429-13.437H685.001
				c-7.415,0-13.433,6.018-13.433,13.437v51.598H1083.101z"/>
		</g>
		<g>
			<path fill="#80C2CD" d="M946.933,753.495c0,60.32-48.906,109.223-109.234,109.223c-60.32,0-109.225-48.902-109.225-109.223
				c0-60.33,48.906-109.235,109.225-109.235C898.028,644.26,946.933,693.166,946.933,753.495z"/>
			<path fill="#2B3D4E" d="M900.194,753.495c0,34.513-27.972,62.479-62.495,62.479c-34.504,0-62.479-27.965-62.479-62.479
				c0-34.527,27.975-62.493,62.479-62.493C872.222,691.002,900.194,718.968,900.194,753.495z"/>
		</g>
		<path fill="#80C2CD" d="M1055.661,661.307c0,7.424-6.022,13.435-13.427,13.435h-61.532c-7.436,0-13.439-6.011-13.439-13.435
			v-15.797c0-7.421,6.003-13.435,13.439-13.435h61.532c7.405,0,13.427,6.015,13.427,13.435V661.307z"/>
	</g>
	<path opacity="0.19" fill="#211915" d="M1069.672,615.813h-40.919c3.175-1.973,5.308-5.468,5.308-9.487
		c0-6.184-4.998-11.181-11.164-11.181h-60.979c-6.166,0-11.181,4.997-11.181,11.181c0,4.019,2.14,7.515,5.32,9.487H877.69v289.587
		h191.982c7.415,0,13.429-6.018,13.429-13.437v-11.958h-9.414V680.85h9.414V629.25
		C1083.101,621.831,1077.087,615.813,1069.672,615.813z"/>
</g>
</svg>
