<?xml version="1.0" encoding="utf-8"?>
<!-- Generator: Adobe Illustrator 19.1.0, SVG Export Plug-In . SVG Version: 6.00 Build 0)  -->
<svg version="1.1" id="Layer_1" xmlns="http://www.w3.org/2000/svg" xmlns:xlink="http://www.w3.org/1999/xlink" x="0px" y="0px"
	 viewBox="0 0 1200 1200" enable-background="new 0 0 1200 1200" xml:space="preserve">
<g>
	<path fill="#E2583D" d="M1006.311,1149.996H211.475C93.878,1149.996,50,1106.764,50,978.385V165.986
		c0-51.274,44.557-115.983,123.645-115.983h832.551c94.184,0,143.797,64.709,143.797,143.797v823.45
		C1150.771,1117.151,1086.98,1149.996,1006.311,1149.996z"/>
	<g>
		<g>
			<rect x="184.575" y="681.786" fill="#3CB997" width="803.719" height="302.629"/>
			<rect x="205.361" y="291.554" fill="#3CB997" width="803.719" height="302.629"/>
		</g>
	</g>
	<g>
		<path fill="none" d="M315.903,306.909c0,0-1.869-1.467-5.221-2.89c3.39,1.514,5.221,3.117,5.221,3.117
			c2.637,9.175,33.168,11.853,60.883,12.178C349.072,318.99,318.54,316.084,315.903,306.909z"/>
		<path fill="none" d="M439.846,316.9c-0.559,0.137-1.079,0.282-1.653,0.417c0,0-10.66,0.743-24.921,1.33
			c14.261-0.587,24.921-1.33,24.921-1.33C438.768,317.182,439.288,317.037,439.846,316.9z"/>
		<path fill="none" d="M350.947,117.298c11.291-4.512,18.911-13.681,25.839-21.281c-6.929,7.6-14.548,16.277-25.839,20.79
			c-12.275,4.923-30.984,26.384-42.735,42.113c0.097,0.025,0.203,0.052,0.299,0.076C320.258,143.26,338.653,122.228,350.947,117.298
			z"/>
		<path fill="none" d="M383.324,84.187c-0.012,0.025-0.017,0.077-0.03,0.1c-0.592,1.048-3.957,3.979-5.602,7.736
			c1.646-3.757,5.011-6.688,5.603-7.736C383.308,84.264,383.312,84.212,383.324,84.187z"/>
		<path fill="none" d="M295.988,301.612c1.412,0.03,2.792,0.008,4.087-0.126c-0.026-0.002-0.049-0.008-0.075-0.009
			C298.687,301.633,297.346,301.641,295.988,301.612z"/>
		<polygon fill="none" points="414.901,146 438.338,146.613 414.905,146 		"/>
		<path fill="none" stroke="#003750" stroke-width="0" stroke-linecap="round" stroke-linejoin="round" d="M748.865,1065.393
			c1.192,4.947,2.298,9.84,3.234,14.594"/>
		<path fill="#003750" d="M529,1133V878.112C353,873.394,314.922,1071,308.107,1133H529z"/>
		<path fill="#003750" d="M527.681,634c-0.006,0-0.012,0-0.018,0l1.552-1.802c0,0.1-3.989,0.111-5.614,0.274
			c-65.556,6.525-114.128,62.277-107.941,124.415C421.403,813.538,471,855.817,529,857.87V634.073
			C529,634.076,528.196,634,527.681,634z"/>
		<path fill="#003750" d="M534.32,858.038c0.865,0,1.709-0.003,2.413-0.013c-0.04,0.001-0.078-0.003-0.118-0.003
			c-0.026,0-0.049,0.002-0.076,0.003C535.88,858.034,535.109,858.038,534.32,858.038z"/>
		<path fill="#003750" d="M561.484,634.689c-10.834-2.317-22.179-3.169-33.803-2.449C539.299,631.521,550.652,632.4,561.484,634.689
			z"/>
		<path fill="#001D30" d="M758.205,1133c-0.741-14-2.526-32.473-6.106-50.653c-0.948-4.813-2.024-10.948-3.234-16.207
			c-0.445-1.933-0.905-4.223-1.388-6.085c-1.796-6.932-3.86-14.188-6.224-21.321c-1.182-3.567-2.44-7.243-3.777-10.832
			c-4.011-10.768-8.738-21.645-14.296-32.287c-16.673-31.925-40.822-62.181-75.55-83.995c-7.717-4.847-15.957-9.291-24.753-13.233
			c-21.99-9.855-47.458-17.212-76.935-19.793c-5.895-0.516-11.951-1.594-18.172-1.594c-0.037,0-0.071,0-0.107,0l1.337,1.112V1133
			H758.205z"/>
		<path fill="#001D30" d="M587.326,845.658c2.204-1.068,4.341-2.196,6.461-3.386c2.73-1.533,5.377-3.156,7.96-4.88
			c1.449-0.967,2.867-1.961,4.267-2.984c10.142-7.42,18.965-16.303,26.161-26.286c2.468-3.424,4.783-6.948,6.853-10.612
			c1.217-2.153,2.361-4.346,3.433-6.574c0.948-2.533,1.806-5.039,2.581-7.518c1.549-4.957,2.761-9.804,3.673-14.535
			c0.456-2.366,0.836-4.702,1.146-7.007c5.891-43.818-13.697-76.802-27.419-93.191c-0.722-0.863-1.428-1.679-2.113-2.449
			c-4.111-4.618-7.471-7.553-9.096-8.62c-0.541-0.355-0.89-0.504-1.009-0.438c-2.847-2.218-5.811-4.298-8.871-6.25
			c-1.627-1.039-3.346-1.949-5.029-2.909c-1.446-0.826-2.851-1.708-4.335-2.475c-2.367-1.222-4.819-2.305-7.278-3.372
			c-0.844-0.365-1.656-0.787-2.511-1.133c-2.934-1.194-5.941-2.249-8.988-3.216c-0.399-0.127-0.783-0.282-1.184-0.405
			c-3.36-1.029-6.784-1.917-10.262-2.661c-0.094-0.02-0.293,0.876-0.387,0.857c-10.352-2.188-21.376-1.598-32.376-1.54V857.87v0.052
			c0,0.081,2.75-0.894,5.212-0.896c0.789,0,1.668-1.025,2.327-1.025c0.026,0,0.049,0,0.076,0c3.088,0,5.822,0.83,8.963,0.518
			c0.055-0.006-0.085,0.501-0.03,0.496c12.93-1.297,25.052-4.302,36.334-9.101C583.741,847.123,585.519,846.534,587.326,845.658z"/>
		<path fill="#001D30" d="M527.681,634.088c0.515,0,1.021-0.012,1.535-0.015v-1.83l-1.552,1.846
			C527.669,634.088,527.675,634.088,527.681,634.088z"/>
		<rect x="554.734" y="558.411" fill="#F1F6FB" width="0.001" height="0"/>
		<path fill="#F1F6FB" d="M375.178,447c0.059,0,1.822,0,1.822,0v-0.866v-0.024c-1,0.01-1.079-0.11-1.558-0.11h0.043
			c0.48,0,0.515,0.121,1.515,0.11V319.315c-28-0.325-58.353-3.004-60.99-12.178c0,0-1.885-1.603-5.275-3.117
			c-2.641-1.121-6.212-2.212-10.634-2.534c-1.295,0.134-2.688,0.4-4.1,0.369c-1.407-0.029-2.847,0.145-4.286,0.145h-18.517
			C249.157,302,231,290.502,231,275.775v-91.169C231,169.895,249.157,156,273.198,156h18.517c5.698,0,11.478,1.639,16.496,2.913
			c11.751-15.729,30.567-37.187,42.842-42.11C362.345,112.29,370,103.617,377,96.017V73H176.429C117.884,73,72,117.887,72,176.432
			v83.585C107,367.199,228.425,447,375.178,447z"/>
		<path fill="#ECC53B" d="M1038.521,666.463c-42.796,40.876-107.558,66.961-180.065,67.068
			C930.965,733.424,995.727,707.342,1038.521,666.463z"/>
		<path fill="none" stroke="#ECC53B" stroke-width="0" stroke-linecap="round" stroke-linejoin="round" d="M1045.45,659.512
			c-2.191,2.311-4.455,4.576-6.778,6.8"/>
		<path fill="#ECC53B" d="M1091.824,549.439L1091.824,549.439c0-0.57-0.048-1.13-0.055-1.697
			C1091.776,548.31,1091.824,548.869,1091.824,549.439z"/>
		
			<line fill="none" stroke="#ECC53B" stroke-width="0" stroke-linecap="round" stroke-linejoin="round" x1="854.86" y1="363.872" x2="854.86" y2="363.872"/>
		<path fill="#ECC53B" d="M716,613v-34h146v-56H716v-27h146V365.392c-1-0.003-0.829-0.028-1.249-0.03
			c-0.156,0,1.249-0.009,1.249-0.009V364c-2,0-3.378,0-3.989,0c-129.155,0-233.858,83.101-233.858,184.766
			c0,76.453,59.172,142.339,143.397,170.162c10.87,47.864-25.636,77.789-42.719,97.72c81.351-11.638,107.388-58.573,115.707-84.994
			c5.766,0.315,11.585-0.654,17.474-0.654c0.132,0,0.259,0,0.446,0c1.119,0,2.543,0.028,3.543,0.017V613H716z M858.357,365.352
			c0.157,0,0.311,0.009,0.467,0.01C858.668,365.362,858.514,365.353,858.357,365.352L858.357,365.352z"/>
		<rect x="716" y="496" fill="#003750" width="146" height="27"/>
		<rect x="716" y="579" fill="#003750" width="146" height="34"/>
		<path opacity="0.25" fill="none" stroke="#D49639" stroke-width="0" stroke-linecap="round" stroke-linejoin="round" d="
			M1045.708,659.228c-0.089,0.093-0.169,0.191-0.258,0.284"/>
		
			<line opacity="0.25" fill="none" stroke="#D49639" stroke-width="0" stroke-linecap="round" stroke-linejoin="round" x1="861.789" y1="731.088" x2="861.789" y2="731.088"/>
		<path opacity="0.25" fill="none" stroke="#D49639" stroke-width="0" stroke-linecap="round" stroke-linejoin="round" d="
			M1038.521,666.463c0.052-0.049,0.099-0.102,0.151-0.151"/>
		<path fill="#ECC53B" d="M858.357,365.352L858.357,365.352c0.157,0.001,0.311,0.009,0.467,0.01
			C858.668,365.362,858.514,365.352,858.357,365.352z"/>
		<path opacity="0.25" fill="#D49639" d="M858.357,365.352L858.357,365.352c0.157,0.001,0.311,0.009,0.467,0.01
			C858.668,365.362,858.514,365.352,858.357,365.352z"/>
		<path fill="#ECC53B" d="M1091.521,539.973c-0.11-1.704-0.322-3.387-0.49-5.077c-0.141-1.422-0.23-2.855-0.412-4.267
			c-0.229-1.775-0.56-3.525-0.853-5.285c-0.217-1.306-0.381-2.624-0.633-3.922c-0.417-2.148-0.938-4.269-1.448-6.392
			c-0.213-0.885-0.376-1.783-0.604-2.663c-0.565-2.173-1.231-4.316-1.892-6.461c-0.25-0.81-0.452-1.634-0.715-2.441
			c-0.695-2.128-1.489-4.224-2.278-6.322c-0.3-0.799-0.555-1.613-0.869-2.408c-0.9-2.28-1.897-4.526-2.905-6.766
			c-0.265-0.59-0.492-1.193-0.764-1.778c-0.948-2.04-1.99-4.043-3.025-6.047c-0.396-0.768-0.75-1.553-1.159-2.314
			c-1.136-2.116-2.363-4.193-3.595-6.267c-0.369-0.622-0.7-1.26-1.078-1.878c-1.385-2.265-2.857-4.489-4.354-6.701
			c-0.274-0.405-0.52-0.824-0.798-1.227c-1.61-2.336-3.304-4.631-5.037-6.904c-0.2-0.263-0.381-0.535-0.582-0.798
			c-1.72-2.231-3.521-4.418-5.356-6.585c-0.245-0.291-0.47-0.593-0.718-0.881c-2.008-2.343-4.092-4.642-6.231-6.907
			c-0.093-0.099-0.178-0.203-0.272-0.301c-2.191-2.31-4.454-4.575-6.778-6.799c-0.052-0.049-0.099-0.102-0.151-0.151
			c-2.337-2.232-4.744-4.419-7.209-6.561c-0.044-0.038,0.021-0.078-0.022-0.116C988.947,389.025,930,365.856,862,365.392V496h125v27
			H862v56h125v34H862v118.017c71-0.757,134.492-25.53,176.627-65.775c0.052-0.049,0.046,0.509,0.098,0.46
			c2.324-2.224,4.56-4.184,6.752-6.495c0.088-0.093,0.156,0.114,0.244,0.021c2.146-2.272,4.228-4.577,6.242-6.927
			c0.148-0.173,0.277-0.353,0.424-0.525c1.94-2.279,3.829-4.588,5.641-6.938c0.203-0.264,0.384-0.538,0.585-0.802
			c1.732-2.273,3.424-4.565,5.033-6.9c0.296-0.43,0.558-0.877,0.851-1.309c1.478-2.185,2.932-4.381,4.3-6.617
			c0.474-0.775,0.891-1.573,1.352-2.354c1.132-1.92,2.273-3.836,3.322-5.791c0.505-0.942,0.946-1.911,1.432-2.86
			c0.935-1.825,1.89-3.645,2.751-5.499c0.423-0.911,0.781-1.845,1.187-2.762c0.849-1.92,1.714-3.835,2.484-5.784
			c0.434-1.1,0.795-2.227,1.203-3.337c0.661-1.794,1.35-3.579,1.944-5.396c0.382-1.171,0.685-2.365,1.039-3.544
			c0.535-1.783,1.101-3.556,1.569-5.357c0.351-1.353,0.615-2.73,0.928-4.094c0.38-1.654,0.802-3.297,1.125-4.966
			c0.331-1.707,0.562-3.437,0.833-5.159c0.213-1.352,0.478-2.69,0.653-4.05c0.25-1.939,0.392-3.901,0.565-5.855
			c0.103-1.166,0.261-2.32,0.337-3.492c0.202-3.136,0.304-6.293,0.304-9.469c0-0.57-0.048-1.129-0.055-1.697
			C1091.74,545.142,1091.687,542.546,1091.521,539.973z"/>
		<path opacity="0.25" fill="#D49639" d="M1091.521,539.973c-0.11-1.704-0.322-3.387-0.49-5.077
			c-0.141-1.422-0.23-2.855-0.412-4.267c-0.229-1.775-0.56-3.525-0.853-5.285c-0.217-1.306-0.381-2.624-0.633-3.922
			c-0.417-2.148-0.938-4.269-1.448-6.392c-0.213-0.885-0.376-1.783-0.604-2.663c-0.565-2.173-1.231-4.316-1.892-6.461
			c-0.25-0.81-0.452-1.634-0.715-2.441c-0.695-2.128-1.489-4.224-2.278-6.322c-0.3-0.799-0.555-1.613-0.869-2.408
			c-0.9-2.28-1.897-4.526-2.905-6.766c-0.265-0.59-0.492-1.193-0.764-1.778c-0.948-2.04-1.99-4.043-3.025-6.047
			c-0.396-0.768-0.75-1.553-1.159-2.314c-1.136-2.116-2.363-4.193-3.595-6.267c-0.369-0.622-0.7-1.26-1.078-1.878
			c-1.385-2.265-2.857-4.489-4.354-6.701c-0.274-0.405-0.52-0.824-0.798-1.227c-1.61-2.336-3.304-4.631-5.037-6.904
			c-0.2-0.263-0.381-0.535-0.582-0.798c-1.72-2.231-3.521-4.418-5.356-6.585c-0.245-0.291-0.47-0.593-0.718-0.881
			c-2.008-2.343-4.092-4.642-6.231-6.907c-0.093-0.099-0.178-0.203-0.272-0.301c-2.191-2.31-4.454-4.575-6.778-6.799
			c-0.052-0.049-0.099-0.102-0.151-0.151c-2.337-2.232-4.744-4.419-7.209-6.561c-0.044-0.038,0.021-0.078-0.022-0.116
			C988.947,389.025,930,365.856,862,365.392V496h125v27H862v56h125v34H862v118.017c71-0.757,134.492-25.53,176.627-65.775
			c0.052-0.049,0.046,0.509,0.098,0.46c2.324-2.224,4.56-4.184,6.752-6.495c0.088-0.093,0.156,0.114,0.244,0.021
			c2.146-2.272,4.228-4.577,6.242-6.927c0.148-0.173,0.277-0.353,0.424-0.525c1.94-2.279,3.829-4.588,5.641-6.938
			c0.203-0.264,0.384-0.538,0.585-0.802c1.732-2.273,3.424-4.565,5.033-6.9c0.296-0.43,0.558-0.877,0.851-1.309
			c1.478-2.185,2.932-4.381,4.3-6.617c0.474-0.775,0.891-1.573,1.352-2.354c1.132-1.92,2.273-3.836,3.322-5.791
			c0.505-0.942,0.946-1.911,1.432-2.86c0.935-1.825,1.89-3.645,2.751-5.499c0.423-0.911,0.781-1.845,1.187-2.762
			c0.849-1.92,1.714-3.835,2.484-5.784c0.434-1.1,0.795-2.227,1.203-3.337c0.661-1.794,1.35-3.579,1.944-5.396
			c0.382-1.171,0.685-2.365,1.039-3.544c0.535-1.783,1.101-3.556,1.569-5.357c0.351-1.353,0.615-2.73,0.928-4.094
			c0.38-1.654,0.802-3.297,1.125-4.966c0.331-1.707,0.562-3.437,0.833-5.159c0.213-1.352,0.478-2.69,0.653-4.05
			c0.25-1.939,0.392-3.901,0.565-5.855c0.103-1.166,0.261-2.32,0.337-3.492c0.202-3.136,0.304-6.293,0.304-9.469
			c0-0.57-0.048-1.129-0.055-1.697C1091.74,545.142,1091.687,542.546,1091.521,539.973z"/>
		<path fill="#ECC53B" d="M861.789,365.392v-0.039c0,0-1.405,0.009-1.249,0.009C860.96,365.363,861.37,365.389,861.789,365.392z"/>
		<path opacity="0.25" fill="#D49639" d="M861.789,365.392v-0.039c0,0-1.405,0.009-1.249,0.009
			C860.96,365.363,861.37,365.389,861.789,365.392z"/>
		<path fill="#ECC53B" d="M862,731v0.017c-1,0.012-2.425-0.017-3.543-0.017C859.135,731,860,731,862,731z"/>
		<path opacity="0.25" fill="#D49639" d="M862,731v0.017c-1,0.012-2.425-0.017-3.543-0.017C859.135,731,860,731,862,731z"/>
		<rect x="862" y="496" fill="#003750" width="125" height="27"/>
		<rect x="862" y="496" opacity="0.25" fill="#D49639" width="125" height="27"/>
		<rect x="862" y="579" fill="#003750" width="125" height="34"/>
		<rect x="862" y="579" opacity="0.25" fill="#D49639" width="125" height="34"/>
		<path fill="#E2583D" d="M351.054,117.298c-12.294,4.93-30.742,25.962-42.489,41.698c-0.096-0.024-0.229-0.059-0.326-0.083
			c-5.018-1.273-10.824-2.913-16.522-2.913h-18.517C249.157,156,231,169.895,231,184.606v91.169
			C231,290.502,249.157,302,273.198,302h18.517c1.439,0,2.865-0.174,4.272-0.145c1.358,0.028,2.698-0.101,4.012-0.257
			c0.026,0.002,0.049-0.053,0.075-0.051c4.422,0.322,7.966,1.383,10.607,2.503c3.352,1.423,5.328,2.874,5.328,2.874
			c2.637,9.175,32.99,12.065,60.99,12.391V96.017C370,103.617,362.345,112.785,351.054,117.298z"/>
		<path opacity="0.33" fill="#BEC9D6" d="M499.492,480.693c2.485,7.566,5.772,14.656,9.568,21.317
			C505.265,495.348,501.977,488.259,499.492,480.693z"/>
		<path opacity="0.33" fill="none" stroke="#BEC9D6" stroke-width="0" stroke-linecap="round" stroke-linejoin="round" d="
			M469.066,530.658c-7.24-4.168-13.787-8.605-19.707-13.214"/>
		<path opacity="0.33" fill="#BEC9D6" d="M555,558.413v-0.002c-36-5.147-63.947-15.247-85.668-27.753
			C491.053,543.165,519,553.265,555,558.413z"/>
		<path opacity="0.33" fill="none" stroke="#BEC9D6" stroke-width="0" stroke-linecap="round" stroke-linejoin="round" d="
			M439.812,509.391c-4.479-4.094-8.525-8.275-12.18-12.485"/>
		<path opacity="0.33" fill="#BEC9D6" d="M495.119,438.706c0.439-3.845,1.105-7.783,2.021-11.816
			c7.097-2.345,14.062-4.888,20.884-7.62c-6.822,2.733-13.787,5.276-20.884,7.62C496.224,430.922,495.558,434.861,495.119,438.706z"
			/>
		<path opacity="0.33" fill="none" stroke="#BEC9D6" stroke-width="0" stroke-linecap="round" stroke-linejoin="round" d="
			M427.631,496.906c-2.437-2.806-4.7-5.626-6.802-8.439"/>
		<path opacity="0.33" fill="none" stroke="#BEC9D6" stroke-width="0" stroke-linecap="round" stroke-linejoin="round" d="
			M449.359,517.444c-3.383-2.634-6.561-5.324-9.547-8.053"/>
		<path opacity="0.33" fill="none" stroke="#BEC9D6" stroke-width="0" stroke-linecap="round" stroke-linejoin="round" d="
			M414.996,480.057c-1.791-2.787-3.433-5.55-4.939-8.273"/>
		<path fill="#F1F6FB" d="M418,149v-1.36l21.886-0.11l22.67,0.252c0,0,34.263-0.181,35.162,24.174c0,0,0.749,20.143-12.443,25.091
			c0,0,24.603,23.487,0.453,41.233c0,0,18.801,30.529-9.886,39.59c0,0,17.104,25.97-35.972,39.042
			c-0.559,0.137-1.09,0.276-1.665,0.411c0,0-10.56,0.74-24.82,1.327c-11.092,0.457-24.385,0.818-36.385,0.665V446.11
			c-1,0.01-1.079-0.11-1.558-0.11h0.043c0.48,0,0.515,0.121,1.515,0.11v0.024c0,0,0.426-0.027,1.053-0.031
			c3.304-0.021,6.19-0.063,9.464-0.168c3.896-0.127,7.568-0.303,11.426-0.513c2.453,7.792,5.947,16.831,11.217,26.363
			c1.506,2.723,3.096,5.487,4.888,8.273c1.791,2.786,3.706,5.595,5.808,8.41c2.102,2.813,4.352,5.633,6.789,8.439
			c3.655,4.209,7.695,8.391,12.174,12.485c2.986,2.729,6.161,5.214,9.544,7.848C473.042,535.676,506.75,552,554.733,558H555v0.206
			c-9-9.764-20.319-21.205-31.282-35.003c-2.868-3.61-5.712-7.342-8.385-11.274c-2.181-3.209-4.283-6.509-6.24-9.944
			c-3.795-6.661-7.1-13.738-9.584-21.304c-0.828-2.522-1.576-5.09-2.215-7.721c-0.283-1.167-0.567-2.329-0.809-3.517
			c-1.233-6.034-1.963-12.326-1.991-18.93c-0.001-0.186-0.031-0.359-0.031-0.546c0.006-3.663,0.217-7.415,0.656-11.261
			c0.439-3.845,1.105-7.783,2.021-11.817c7.097-2.344,14.062-4.887,20.884-7.62c10.233-4.099,20.144-8.626,29.694-13.55
			c15.918-8.207,30.836-17.517,44.578-27.793c5.497-4.111,10.806-8.375,15.915-12.786c6.387-5.514,12.462-11.255,18.204-17.206
			c5.742-5.952,11.151-12.114,16.204-18.469c4.043-5.084,7.858-10.292,11.434-15.615c1.788-2.662,3.517-5.351,5.185-8.069
			c3.335-5.435,6.427-10.981,9.262-16.628c2.836-5.648,5.415-11.396,7.729-17.238c3.47-8.762,6.34-17.733,8.572-26.883
			c1.488-6.1,2.693-12.28,3.602-18.53c1.364-9.375,2.065-18.909,2.065-28.573c0-6.61-0.427-13.137-1.072-19.617
			c-0.418-4.207-0.968-8.383-1.649-12.529c-0.309-1.881-0.549-3.778-0.911-5.645c-0.37-1.907-0.862-3.782-1.287-5.674
			c-0.49-2.182-0.922-4.38-1.484-6.542c-0.54-2.075-1.204-4.114-1.809-6.17c-0.572-1.946-1.082-3.91-1.712-5.838
			c-0.696-2.128-1.515-4.217-2.28-6.323c-0.659-1.815-1.255-3.652-1.966-5.45c-0.841-2.128-1.803-4.212-2.714-6.316
			c-0.752-1.737-1.443-3.496-2.242-5.216c-0.904-1.943-1.922-3.842-2.885-5.762c-0.921-1.835-1.784-3.694-2.758-5.507
			c-1.461-2.72-3.045-5.387-4.625-8.056c-0.574-0.97-1.092-1.964-1.681-2.928c-1.733-2.832-3.585-5.608-5.449-8.378
			c-0.517-0.768-0.984-1.559-1.511-2.323c-1.765-2.559-3.647-3.553-5.522-6.056c-0.522-0.697-1.025-0.6-1.538-0.6H425.529
			c0.641,0,1.254,2.583,1.806,4.953c0,0,4.03,27.331-20.997,46.293c0,0-9.185,8.691-7.803,12.418c0,0-3.216,11.352,12.879,11.278
			c1.072-0.005,2.229,1.057,3.48,1.057H418z"/>
		<path opacity="0.33" fill="#BEC9D6" d="M418,149v-1.36l21.886-0.11l22.67,0.252c0,0,34.263-0.181,35.162,24.174
			c0,0,0.749,20.143-12.443,25.091c0,0,24.603,23.487,0.453,41.233c0,0,18.801,30.529-9.886,39.59c0,0,17.104,25.97-35.972,39.042
			c-0.559,0.137-1.09,0.276-1.665,0.411c0,0-10.56,0.74-24.82,1.327c-11.092,0.457-24.385,0.818-36.385,0.665V446.11
			c-1,0.01-1.079-0.11-1.558-0.11h0.043c0.48,0,0.515,0.121,1.515,0.11v0.024c0,0,0.426-0.027,1.053-0.031
			c3.304-0.021,6.19-0.063,9.464-0.168c3.896-0.127,7.568-0.303,11.426-0.513c2.453,7.792,5.947,16.831,11.217,26.363
			c1.506,2.723,3.096,5.487,4.888,8.273c1.791,2.786,3.706,5.595,5.808,8.41c2.102,2.813,4.352,5.633,6.789,8.439
			c3.655,4.209,7.695,8.391,12.174,12.485c2.986,2.729,6.161,5.214,9.544,7.848C473.042,535.676,506.75,552,554.733,558H555v0.206
			c-9-9.764-20.319-21.205-31.282-35.003c-2.868-3.61-5.712-7.342-8.385-11.274c-2.181-3.209-4.283-6.509-6.24-9.944
			c-3.795-6.661-7.1-13.738-9.584-21.304c-0.828-2.522-1.576-5.09-2.215-7.721c-0.283-1.167-0.567-2.329-0.809-3.517
			c-1.233-6.034-1.963-12.326-1.991-18.93c-0.001-0.186-0.031-0.359-0.031-0.546c0.006-3.663,0.217-7.415,0.656-11.261
			c0.439-3.845,1.105-7.783,2.021-11.817c7.097-2.344,14.062-4.887,20.884-7.62c10.233-4.099,20.144-8.626,29.694-13.55
			c15.918-8.207,30.836-17.517,44.578-27.793c5.497-4.111,10.806-8.375,15.915-12.786c6.387-5.514,12.462-11.255,18.204-17.206
			c5.742-5.952,11.151-12.114,16.204-18.469c4.043-5.084,7.858-10.292,11.434-15.615c1.788-2.662,3.517-5.351,5.185-8.069
			c3.335-5.435,6.427-10.981,9.262-16.628c2.836-5.648,5.415-11.396,7.729-17.238c3.47-8.762,6.34-17.733,8.572-26.883
			c1.488-6.1,2.693-12.28,3.602-18.53c1.364-9.375,2.065-18.909,2.065-28.573c0-6.61-0.427-13.137-1.072-19.617
			c-0.418-4.207-0.968-8.383-1.649-12.529c-0.309-1.881-0.549-3.778-0.911-5.645c-0.37-1.907-0.862-3.782-1.287-5.674
			c-0.49-2.182-0.922-4.38-1.484-6.542c-0.54-2.075-1.204-4.114-1.809-6.17c-0.572-1.946-1.082-3.91-1.712-5.838
			c-0.696-2.128-1.515-4.217-2.28-6.323c-0.659-1.815-1.255-3.652-1.966-5.45c-0.841-2.128-1.803-4.212-2.714-6.316
			c-0.752-1.737-1.443-3.496-2.242-5.216c-0.904-1.943-1.922-3.842-2.885-5.762c-0.921-1.835-1.784-3.694-2.758-5.507
			c-1.461-2.72-3.045-5.387-4.625-8.056c-0.574-0.97-1.092-1.964-1.681-2.928c-1.733-2.832-3.585-5.608-5.449-8.378
			c-0.517-0.768-0.984-1.559-1.511-2.323c-1.765-2.559-3.647-3.553-5.522-6.056c-0.522-0.697-1.025-0.6-1.538-0.6H425.529
			c0.641,0,1.254,2.583,1.806,4.953c0,0,4.03,27.331-20.997,46.293c0,0-9.185,8.691-7.803,12.418c0,0-3.216,11.352,12.879,11.278
			c1.072-0.005,2.229,1.057,3.48,1.057H418z"/>
		<path fill="#F1F6FB" d="M377.799,92.023c1.646-3.757,4.957-6.688,5.549-7.736c0.013-0.023-0.009,1.431,0.003,1.406
			C384.085,84.133,383.54,80,383.74,73H377v23.017C377,94.62,377.25,93.275,377.799,92.023z"/>
		<path opacity="0.33" fill="#BEC9D6" d="M377.799,92.023c1.646-3.757,4.957-6.688,5.549-7.736c0.013-0.023-0.009,1.431,0.003,1.406
			C384.085,84.133,383.54,80,383.74,73H377v23.017C377,94.62,377.25,93.275,377.799,92.023z"/>
		<path fill="#E2583D" d="M383.324,85.693c-0.012,0.025-0.016-0.676-0.029-0.653c-0.592,1.048-3.85,3.602-5.496,7.359
			C377.25,93.652,377,94.62,377,96.017v223.298c12,0.152,25.288-0.211,36.379-0.668c14.261-0.587,24.867-1.33,24.867-1.33
			c0.574-0.135,1.068-0.28,1.626-0.417c53.076-13.072,35.934-39.053,35.934-39.053c28.687-9.062,9.831-39.613,9.831-39.613
			c24.15-17.746-0.553-41.278-0.553-41.278c13.192-4.948,12.248-25.181,12.248-25.181c-0.899-24.355-35.55-24.355-35.55-24.355
			l-23.445,0.79L414.901,149h-0.007c-1.25,0-2.407-1.251-3.48-1.246c-16.111,0.079-12.918-10.765-12.918-10.765
			c-1.382-3.727,7.756-13.145,7.756-13.145c25.027-18.962,20.906-45.716,20.906-45.716c-0.552-2.371-1.167-5.129-1.81-5.129H383.74
			C383.54,80,384.059,84.133,383.324,85.693z"/>
		<path opacity="0.33" fill="#BEC9D6" d="M383.324,85.693c-0.012,0.025-0.016-0.676-0.029-0.653
			c-0.592,1.048-3.85,3.602-5.496,7.359C377.25,93.652,377,94.62,377,96.017v223.298c12,0.152,25.288-0.211,36.379-0.668
			c14.261-0.587,24.867-1.33,24.867-1.33c0.574-0.135,1.068-0.28,1.626-0.417c53.076-13.072,35.934-39.053,35.934-39.053
			c28.687-9.062,9.831-39.613,9.831-39.613c24.15-17.746-0.553-41.278-0.553-41.278c13.192-4.948,12.248-25.181,12.248-25.181
			c-0.899-24.355-35.55-24.355-35.55-24.355l-23.445,0.79L414.901,149h-0.007c-1.25,0-2.407-1.251-3.48-1.246
			c-16.111,0.079-12.918-10.765-12.918-10.765c-1.382-3.727,7.756-13.145,7.756-13.145c25.027-18.962,20.906-45.716,20.906-45.716
			c-0.552-2.371-1.167-5.129-1.81-5.129H383.74C383.54,80,384.059,84.133,383.324,85.693z"/>
	</g>
</g>
</svg>
