<?xml version="1.0" encoding="utf-8"?>
<!-- Generator: Adobe Illustrator 19.1.0, SVG Export Plug-In . SVG Version: 6.00 Build 0)  -->
<svg version="1.1" id="Layer_1" xmlns="http://www.w3.org/2000/svg" xmlns:xlink="http://www.w3.org/1999/xlink" x="0px" y="0px"
	 viewBox="0 0 1200 1200" enable-background="new 0 0 1200 1200" xml:space="preserve">
<g>
	<path fill="#5EA4D2" d="M1006.311,1149.996H211.475C93.878,1149.996,50,1106.764,50,978.385V165.986
		c0-51.274,44.557-115.983,123.645-115.983h832.551c94.184,0,143.797,64.709,143.797,143.797v823.45
		C1150.771,1117.151,1086.98,1149.996,1006.311,1149.996z"/>
	<g>
		<path fill="#FFFFFF" d="M873.569,1135.31c-7.01-46.498-63.097-74.178-111.953-50.655c0,0,34.804-100.516-75.24-102.474
			c-58.128-1.035-62.681,54.773-62.681,54.773s-63.125-45.089-99.844-2.56c-29.608,34.284-15.172,75.744-15.172,75.744
			s-61.244-20.722-97.587,3.49c-6.205,4.139-13.603,12.292-19.344,21.682H873.569z"/>
		<path fill="#FFFFFF" d="M1133.874,914.154c-12.703-1.243-22.496-1.269-22.496-1.269s-10.74-77.849-91.268-77.849
			c-80.529,0-75.159,83.219-75.159,83.219s-42.953-8.059-42.953,26.842c0,34.893,37.583,29.523,37.583,29.523h194.294V914.154z"/>
		<g>
			<polygon fill="#FFFFFF" points="438.331,167.964 458.721,176.464 461.554,220.675 504.603,184.96 536.874,184.96 
				494.453,172.793 471.658,193.001 468.515,172.575 			"/>
			<polygon fill="#FFFFFF" points="335.386,135.165 388.731,126.309 410.123,158.088 426.605,131.275 466.675,129.717 
				428.326,137.502 406.123,181.121 369.907,137.502 			"/>
		</g>
		<g>
			<path fill="#DFA468" d="M784.197,145.077c0,0,34.981-19.893,97.081-18.618c62.1,1.275,98.837,17.602,142.716,57.394
				c43.873,39.797,53.063,179.594,19.388,258.171c-33.676,78.573-115.306,166.325-115.306,166.325l-22.813,14.91
				c0,0-33.351,6.574-48.45,4.506c-15.09-2.064-13.322-1.096-13.322-1.096l-91.954-112.198l-65.305-210.207l25.515-110.2
				L784.197,145.077z"/>
			<g>
				<g>
					<path fill="#BF0024" d="M646.44,319.92c3.469-114.475,89.993-162.206,157.036-182.045
						c-40.268,23.356-69.334,55.544-84.374,93.646c-31.535,79.802-4.655,184.878,79.917,312.331l0.202,0.278
						c0.369,0.497,36.735,43.115,49.064,83.204c-4.307-1.354-11.781-1.593-16.241-3.697l16.264,55.38
						c1.179-0.401,2.442-0.61,3.751-0.588l46.914,0.597c2.898,0.031,5.512,1.143,7.596,2.901l9.931-57.052
						c-2.869,1.244,1.046-1.057-3.776,0.328c0.371-1.075-19.686,2.811-19.292,1.718c14.042-38.695,58.818-80.4,59.193-80.86
						l0.198-0.26c87.42-125.302,116.679-229.663,87.016-310.244c-14.033-38.084-41.958-70.696-81.03-95
						c66.216,21.93,149.681,71.994,150.508,185.193c0,0,0.08,97.619-80.862,190.527c0,0-55.937,61.084-67.763,67.111
						c0,0-30.706,24.098-37.787,35.163l-12.733,68.446c0.642,1.571,0.998,3.311,0.973,5.129l-0.401,33.56
						c-0.062,7.17-5.64,12.873-12.452,12.801l-46.916-0.574c-6.793-0.114-12.237-5.968-12.175-13.134l0.394-33.555
						c0.055-3.927,1.747-7.412,4.428-9.758l-18.347-64.892c-7.642-11.553-36.521-35.359-36.521-35.359
						c-11.666-6.3-66.168-68.787-66.168-68.787C644.153,417.502,646.44,319.92,646.44,319.92z"/>
					<path fill="#FFFFFF" d="M941.048,144.903c28.875,16.295,66.998,46.047,84.654,95.154
						c27.405,76.186,6.965,179.799-75.374,300.569c-13.423,21.47-29.529,49.65-41.606,84.545c-10.38,1.959-46.445,4.997-60.392,2.2
						c-10.726-42.147-40.402-90.011-42.944-93.459c-79.598-122.815-101.432-222.128-72.265-297.594
						c24.186-62.619,81.419-93.064,116.909-106.411c14.129-2.351,24.595-3.184,28.991-3.48l-0.016-0.141
						c0,0,0.394,0.027,1.141,0.073c0.734-0.032,1.116-0.046,1.116-0.046l0.016,0.146c4.599,0.41,15.99,1.635,31.244,4.669
						C921.108,134.635,930.871,139.164,941.048,144.903z"/>
				</g>
				<path fill="#BF0024" d="M881.278,126.459c0,0,50.256,79.994,41.789,263.528c-6.29,125.143-37.105,238.012-37.105,238.012
					l-17.574,0.799c0,0-26.46-170.347-32.569-233.563C832.225,358.108,820.146,199.743,881.278,126.459z"/>
			</g>
			<g opacity="0.1">
				<path d="M958.807,140.558c39.073,24.303,66.997,56.916,81.03,95c29.663,80.581,0.404,184.942-87.016,310.244l-0.198,0.26
					c-0.139,0.164-6.067,5.722-14.24,14.559c4.1-7.188,8.134-13.908,11.945-19.994c82.34-120.77,102.78-224.383,75.374-300.569
					c-17.657-49.107-55.779-78.859-84.654-95.154c-10.177-5.74-19.939-10.268-28.526-13.775
					c-15.254-3.034-26.645-4.259-31.244-4.669l-0.016-0.146c0,0-0.382,0.014-1.116,0.046c-0.747-0.046-1.141-0.073-1.141-0.073
					l0.016,0.141c-0.738,0.045-1.713,0.109-2.79,0.196l-0.254,502.308l9.311-0.31c0,0,0.403,0.022,0.664-0.958
					c2.604-0.182,5.132-0.382,7.524-0.601c0.653,0.948,16.137-2.755,15.785-1.726c4.822-1.384,5.325-0.133,7.238-0.461
					l-9.931,57.052c-2.084-1.758-4.698-2.87-7.596-2.901l-22.741-0.297v59.481l22.06,0.278c6.812,0.073,12.39-5.631,12.452-12.801
					l0.401-33.56c0.025-1.818-0.33-3.558-0.973-5.129l12.733-68.446c7.081-11.065,37.787-35.163,37.787-35.163
					c11.826-6.027,67.763-67.111,67.763-67.111c80.941-92.909,80.862-190.527,80.862-190.527
					C1108.488,212.552,1025.023,162.487,958.807,140.558z"/>
			</g>
		</g>
		<g>
			<path fill="#5EA4D2" d="M514.849,341.446c-58.437-53.002-107.366-74.746-190.067-76.441
				c-82.702-1.695-129.293,24.798-129.293,24.798L99.004,355.04L70.197,479.446v39.015l81.798,263.291l124.484,151.581
				c-0.532-0.923-0.112-2.865,15.723-0.697c20.106,2.75,64.521-6.005,64.521-6.005l30.379-19.86
				c0,0,108.718-116.864,153.561-221.507C585.517,580.625,573.275,394.442,514.849,341.446z"/>
			<g>
				<g>
					<path fill="#003E70" d="M428.031,283.786c52.039,32.359,89.226,75.793,107.92,126.505
						c39.5,107.323,0.533,246.312-115.89,413.188l-0.262,0.343c-0.505,0.614-60.134,56.155-78.839,107.69
						c-0.521,1.452,20.617-2.978,20.125-1.53c6.419-1.859,6.78,0.464,10.603-1.193l-13.227,75.974
						c-2.775-2.338-6.263-3.818-10.116-3.861l-62.478-0.792c-1.749-0.036-3.426,0.254-4.997,0.778l-21.658-73.751
						c5.938,2.794,10.458,3.188,16.197,4.986c-16.422-53.377-59.418-110.222-59.909-110.877l-0.27-0.36
						C102.597,651.147,66.801,511.195,108.797,404.922c20.032-50.741,58.74-93.614,112.37-124.709
						c-50.215,14.857-108.634,41.463-150.97,89.023v347.226c11.976,20.553,26.361,41.606,43.773,62.574
						c0,0,72.585,83.214,88.125,91.599c0,0,38.457,31.712,48.636,47.105l24.432,86.411c-3.57,3.125-5.824,7.771-5.896,13.006
						l-0.524,44.69c-0.082,9.54,7.164,17.337,16.213,17.475l62.482,0.771c9.077,0.096,16.502-7.5,16.586-17.042l0.533-44.696
						c0.033-2.422-0.437-4.735-1.299-6.836l16.955-91.153c9.436-14.74,50.331-46.834,50.331-46.834
						c15.754-8.021,90.243-89.372,90.243-89.372c107.793-123.746,107.69-253.751,107.69-253.751
						C627.377,379.659,516.22,312.991,428.031,283.786z"/>
					<path fill="#F5DA50" d="M404.387,289.567c38.452,21.707,89.225,61.309,112.734,126.736
						c36.497,101.447,9.281,239.443-100.379,400.275c-17.877,28.598-39.325,66.129-55.411,112.607
						c-13.824,2.598-61.85,6.651-80.431,2.926c-14.283-56.125-53.805-119.878-57.189-124.47
						C117.708,644.078,88.626,511.819,127.47,411.312c32.212-83.389,108.432-123.942,155.693-141.722
						c18.822-3.122,32.758-4.239,38.612-4.642l-0.019-0.175c0,0,0.525,0.033,1.518,0.093c0.974-0.035,1.488-0.06,1.488-0.06
						l0.02,0.2c6.126,0.546,21.292,2.166,41.608,6.222C377.826,275.887,390.831,281.921,404.387,289.567z"/>
				</g>
				<path fill="#003E70" d="M324.782,265.005c0,0,66.93,106.53,55.652,350.957c-8.377,166.659-49.975,317.079-49.975,317.079
					l-22.494,0.75c0,0-35.585-226.651-43.723-310.835C259.455,573.503,243.368,362.601,324.782,265.005z"/>
			</g>
			<g opacity="0.1">
				<path d="M428.031,283.787c52.039,32.359,89.226,75.793,107.92,126.505c39.5,107.323,0.534,246.311-115.89,413.188l-0.262,0.343
					c-0.189,0.218-8.086,7.625-18.966,19.381c5.456-9.565,10.828-18.504,15.908-26.624
					c109.66-160.832,136.877-298.829,100.379-400.275c-23.509-65.427-74.282-105.029-112.734-126.736
					c-13.555-7.646-26.561-13.68-37.996-18.34c-20.316-4.056-35.482-5.676-41.608-6.222l-0.02-0.2c0,0-0.513,0.025-1.488,0.06
					c-0.994-0.06-1.518-0.093-1.518-0.093l0.019,0.175c-0.982,0.064-2.28,0.161-3.716,0.278v667.768l12.399-0.411
					c0,0,0.2,1.219,0.545-0.08c3.466-0.249,6.837-0.518,10.022-0.806c0.87,1.26,20.835-3.559,20.367-2.174
					c6.419-1.859,6.474,0.922,10.297-0.734l-13.227,75.974c-2.776-2.337-6.263-3.818-10.116-3.861l-30.286-0.389v79.213
					l29.377,0.365c9.077,0.096,16.502-7.5,16.586-17.042l0.534-44.696c0.033-2.422-0.437-4.735-1.299-6.836l16.955-91.153
					c9.436-14.74,50.331-46.834,50.331-46.834c15.754-8.021,90.243-89.371,90.243-89.371
					c107.793-123.746,107.69-253.751,107.69-253.751C627.377,379.659,516.22,312.991,428.031,283.787z"/>
			</g>
		</g>
	</g>
	<path fill="none" d="M1022.367,1129.746H175.231c-58.545,0-106.445-47.9-106.445-106.445V176.166
		c0-58.545,47.9-106.444,106.445-106.444h847.135c58.545,0,106.444,47.9,106.444,106.444v847.135
		C1128.811,1081.846,1080.911,1129.746,1022.367,1129.746z"/>
</g>
</svg>
