<?xml version="1.0" encoding="utf-8"?>
<!-- Generator: Adobe Illustrator 19.1.0, SVG Export Plug-In . SVG Version: 6.00 Build 0)  -->
<svg version="1.1" id="Layer_1" xmlns="http://www.w3.org/2000/svg" xmlns:xlink="http://www.w3.org/1999/xlink" x="0px" y="0px"
	 viewBox="0 0 1200 1200" enable-background="new 0 0 1200 1200" xml:space="preserve">
<g>
	<path fill="#D00F2E" d="M1003.688,50H172.383C93.414,50,50,114.896,50,166.093v811.183C50,1105.463,92.735,1150,210.157,1150
		h793.646c80.548,0,146.197-34.166,146.197-133.917V193.866C1150,114.896,1097.731,50,1003.688,50z M474.421,71
		c-35.627,48-45.852,110.024-21.169,167.77c9.426,22.125,23.074,40.961,39.569,56.421c36.395-11.125,75.018-17.246,115.055-17.246
		c39.988,0,78.563,5.965,114.919,17.064c5.999-5.637,11.537-11.699,16.588-18.079c23.544-29.736,36.527-66.878,36.4-105.071
		c-0.064-19.097-3.405-38.465-10.341-57.302c-0.991-2.691-2.055-5.374-3.194-8.041c-1.499-3.513-3.14-6.921-4.845-10.277
		c-0.432-0.852-0.873-1.697-1.319-2.538c-1.652-3.121-3.369-6.19-5.192-9.168c-0.117-0.19-0.223-0.391-0.339-0.58
		c-1.951-3.158-4.022-6.209-6.156-9.199c-0.511-0.716-1.032-1.042-1.553-1.748c-0.602-0.816-1.251-2.005-1.866-2.005h179.408
		l0.372,0.461c1.427,3.513,1.961,6.458,1.886,9.235c-0.05,1.851-0.371,3.447-0.877,4.984c-0.507,1.537-1.199,2.872-1.993,4.105
		c-1.171,1.82-2.564,3.286-3.907,4.474c-2.754,2.436-5.299,3.573-5.299,3.573l-54.25,33.106c-3.706,2.031-6.571,4.783-8.778,7.918
		c-4.416,6.27-6.204,14.061-6.851,20.635c-0.215,2.191-0.304,4.246-0.32,6.065c-0.041,4.547,0.367,7.613,0.367,7.613
		c-0.842,27.963,14.562,35.007,14.562,35.007l55.224,32.005c3.519,1.572,6.147,3.526,8.094,5.662
		c3.894,4.273,5.065,9.277,5.197,13.426c0.154,4.842-1.106,8.521-1.106,8.521l-21.533,53.546
		c-12.02,19.552-25.857,13.443-25.857,13.443l-66.745-15.892c-3.006-0.716-5.909-0.896-8.687-0.661
		c-4.196,0.353-8.104,1.654-11.657,3.472c126.339,65.377,212.744,197.18,212.744,349.247c0,39.216-5.819,77.206-16.509,112.945
		c21.412,35.997,30.691,75.109,34.621,103.109h-82.667c-70.276,104-191.141,177.336-328.541,177.336
		c-137.4,0-258.264-73.336-328.541-177.336h-67.851c3.315-21,10.413-54.635,25.399-85.918
		c-14.261-40.701-22.103-84.493-22.103-130.063c0-150.475,84.585-281.182,208.768-347.247c-10.162-3.261-17.6-1.047-17.6-1.047
		l-56.272,15.211c-20.604,7.978-24.876-2.992-24.876-2.992s-23.067-43.74-29.222-59.104c-6.168-15.391,8.109-22.264,8.109-22.264
		s22.298-14.313,48.188-28.571c25.897-14.258,24.685-40.498,24.685-40.498c5.996-35.733-14.384-45.054-14.384-45.054l-64.007-36.653
		c-12.896-7.704-8.195-19.738-8.195-19.738L295.032,71H474.421z"/>
	<path fill="#183855" d="M610.038,340.479c7.965-0.105,15.974-0.777,23.966-2.041c0.141-0.023,0.282-0.053,0.423-0.076
		c2.513-0.404,5.024-0.86,7.532-1.382c0.379-0.079,0.756-0.179,1.135-0.261c2.276-0.49,4.549-1.01,6.817-1.599
		c0.715-0.186,1.427-0.413,2.142-0.609c1.935-0.53,3.87-1.061,5.798-1.665c1.298-0.407,2.588-0.878,3.882-1.319
		c1.348-0.459,2.7-0.885,4.043-1.381c2.652-0.978,5.293-2.025,7.922-3.147c18.655-7.967,35.127-18.91,49.098-32.039
		c-36.356-11.099-74.931-17.112-114.919-17.112c-40.037,0-78.659,6.025-115.055,17.15
		C524.441,324.638,566.599,341.05,610.038,340.479z"/>
	<path fill="#183855" d="M776.21,330.613c-1.646,1.623-3.094,3.229-4.322,4.696c-3.071,3.667-4.769,6.461-4.769,6.461
		c-2.029,2.263-3.682,4.498-5.022,6.677c-4.022,6.537-5.228,12.568-5.293,17.326c-0.086,6.344,1.855,10.425,1.855,10.425
		l17.393,60.511c4.793,13.943-10.835,24.252-10.835,24.252l-55.823,23.765c-4.829,2.268-8.858,3.017-12.185,2.866
		c-1.005-0.046-1.925-0.195-2.804-0.387c-7.86-1.724-10.849-8.627-10.849-8.627l-35.922-59.853c-0.968-1.485-2.148-2.76-3.411-3.939
		c-0.244-0.228-0.479-0.466-0.733-0.683c-1.248-1.07-2.597-2.018-4.029-2.847c-0.306-0.177-0.623-0.335-0.936-0.502
		c-1.405-0.751-2.857-1.425-4.356-1.986c-0.13-0.049-0.255-0.112-0.386-0.16c-1.592-0.578-3.218-1.032-4.84-1.43
		c-0.384-0.095-0.768-0.193-1.152-0.279c-1.553-0.346-3.095-0.63-4.595-0.846c-0.353-0.051-0.694-0.089-1.042-0.133
		c-1.389-0.177-2.744-0.32-4.017-0.412c-0.164-0.012-0.343-0.032-0.505-0.043c-1.422-0.093-2.731-0.138-3.923-0.157
		c-0.216-0.003-0.435-0.008-0.642-0.01c-1.153-0.009-2.211,0.002-3.034,0.028v0c-1.524,0.049-2.458,0.126-2.458,0.126
		c-29.379-1.449-38.457,20.394-38.457,20.394l-27.404,50.069c-4.661,14.377-22.204,12.692-22.204,12.692l-63.018-23.936
		c-15.26-8.664-10.151-22.052-10.151-22.052l15.68-79.458c1.758-13.573-22.42-30.031-22.42-30.031
		c-5.64-4.999-11.157-7.827-16.052-9.398C299.365,389.8,214.78,520.47,214.78,670.945c0,45.57,8.389,89.289,22.651,129.989
		C259.429,755.013,299,712.017,368,710.382v-0.019c0-0.023,1.339-3.362,2.555-3.362c0.629,0,1.26,0,1.887,0l0.397,1.683
		c0.586-0.004,2.16,1.668,2.16,1.679v0.019c90,2.213,130.647,80.235,146.339,138.695C543.439,829.01,576,815.12,610,814.206v-0.019
		c0-0.023,2.283,0.006,3.499,0.01c1.217-0.003,3.501-0.032,3.501-0.01v0.019c0,0,2.091-3.206,2.171-3.206l0,0
		c0.038,0,0.073,0,0.111,0c38.427,7,68.814,16.459,90.846,36.464C725.821,789.004,762,712.595,859,710.382v-0.019
		c0-0.023,2.283,0.006,3.5,0.01c1.217-0.003-3.5-0.033,3.5-0.01v0.019c55,1.428,96.475,34.432,119.631,73.361
		c10.69-35.739,15.925-73.581,15.925-112.798c0-152.067-86.698-283.87-213.036-349.247c-3.503,1.792-6.809,4.087-9.548,6.483
		C778.052,328.987,777.033,329.802,776.21,330.613z M458.97,612.825c-0.937,6.973-2.728,14.309-5.594,21.967
		c-0.915,1.902-2.059,3.683-3.113,5.513c-4.546,7.892-10.202,15.167-17.05,21.375c-5.624,5.098-11.946,9.536-18.836,13.158
		c-6.89,3.623-14.347,6.43-22.243,8.269c-3.948,0.92-8.006,1.597-12.156,2.014c-1.511,0.152-3.002,0.175-4.499,0.236
		c-47.628,2.546-89.129-30.76-93.745-76.295c-4.676-46.967,31.662-89.101,81.215-94.033c3.191-0.321,6.358-0.468,9.495-0.472l0,0
		c2.78-0.003,5.53,0.129,8.254,0.364c1.119,0.097,2.211,0.277,3.319,0.413c1.682,0.206,3.362,0.412,5.016,0.706
		c1.185,0.211,2.346,0.483,3.516,0.738c1.548,0.338,3.087,0.689,4.606,1.103c1.159,0.316,2.3,0.665,3.44,1.024
		c1.499,0.471,2.978,0.976,4.442,1.52c1.088,0.405,2.167,0.818,3.234,1.261c1.498,0.622,2.963,1.297,4.418,1.995
		c0.969,0.465,1.944,0.915,2.893,1.413c1.581,0.828,3.11,1.728,4.631,2.644c0.764,0.46,1.55,0.886,2.298,1.367
		c2.237,1.439,4.415,2.956,6.501,4.58c0.315-0.174,2.754,1.635,6.135,5.208c1.449,1.531,3.07,3.387,4.771,5.55
		c4.536,5.767,9.637,13.717,13.535,23.526c0.974,2.452,1.873,5.02,2.67,7.699c0.398,1.339,0.771,2.708,1.114,4.102
		c0.687,2.789,1.256,5.687,1.682,8.688c0.213,1.5,0.39,3.027,0.527,4.578c0.274,3.103,0.391,6.307,0.321,9.607
		C459.694,605.943,459.438,609.339,458.97,612.825z M698.104,738.615c-1.62,3.368-3.463,6.629-5.513,9.763
		c-2.05,3.134-4.307,6.141-6.754,9.001c-2.447,2.861-5.085,5.575-7.897,8.124c-0.285,0.258-0.617,0.468-0.906,0.722
		c-13.948,12.323-31.996,20.679-52.33,22.719c-1.86,0.187-3.692,0.212-5.534,0.29v0c-47.193,2.012-88.129-31.143-92.711-76.349
		c-4.676-46.968,31.664-89.336,81.215-94.268c3.877-0.39,7.702-0.618,11.495-0.618l0,0c0.002,0,0.005,0,0.005,0
		c7.362,1,14.518,1.39,21.381,3.153c0.384,0.098,0.777,0.292,1.159,0.395c1.716,0.464,3.393,1.065,5.067,1.623
		c0.931,0.308,1.86,0.643,2.777,0.979c1.41,0.521,2.796,1.091,4.171,1.677c1.181,0.5,2.341,1.038,3.495,1.586
		c1.151,0.549,2.299,1.101,3.422,1.696c1.424,0.751,2.804,1.565,4.179,2.388c0.842,0.505,1.702,0.981,2.525,1.513
		c2.196,1.415,4.336,2.904,6.386,4.5c0.18-0.099,1.054,0.449,2.401,1.604c0.337,0.288,0.703,0.615,1.095,0.979
		C687.826,649.918,717.447,686.924,698.104,738.615z M852.962,515.029c4.214-0.424,6.038-1.049,13.038-0.923V514
		c0,0-1.105,0-1.099,0c9.522,0,18.698,2.351,27.306,5.299c0.722,0.245,1.448,0.65,2.162,0.912c1.484,0.55,2.938,1.231,4.383,1.853
		c1.094,0.468,2.174,1,3.245,1.509c1.184,0.566,2.361,1.158,3.515,1.772c1.38,0.731,2.72,1.527,4.054,2.325
		c0.855,0.514,1.727,1.005,2.562,1.546c2.178,1.405,4.303,2.883,6.337,4.468c0.449-0.248,5.236,3.55,10.906,10.759
		c1.134,1.442,2.303,3.021,3.48,4.73c1.177,1.709,2.362,3.551,3.526,5.518c2.329,3.935,4.579,8.374,6.528,13.278
		c0.975,2.452,1.874,5.02,2.67,7.7c0.398,1.339,0.771,2.708,1.114,4.102c0.687,2.789,1.256,5.687,1.682,8.688
		c0.213,1.5,0.389,3.027,0.527,4.578c0.274,3.103,0.391,6.307,0.321,9.607c-0.07,3.299-0.325,6.695-0.794,10.182
		c-0.937,6.973-2.728,14.309-5.594,21.967c-4.815,10.011-11.614,19.058-19.943,26.661c-0.079,0.071-0.142,0.155-0.22,0.227
		c-3.911,3.546-8.268,6.634-12.811,9.488c-8.985,5.646-19.05,9.885-29.996,12.226c-3.413,0.73-6.868,1.371-10.428,1.728
		c-0.705,0.071-1.4,0.08-2.098,0.11c-48.63,3.825-91.174-29.868-95.867-76.169C766.792,562.095,803.41,519.961,852.962,515.029z"/>
	<path fill="#183855" d="M739.215,887c17.565,28,27.091,61.693,32.183,86.937c0.1,0.494,0.182,1.12,0.279,1.608
		c1.084,5.498,1.974,8.455,2.678,15.455H619.171h-162.96c3.962-28,13.361-69,35.141-104h-118.91h-93.108
		c70.276,104,191.141,177.336,328.541,177.336c137.4,0,258.265-73.336,328.541-177.336h-71.533H739.215z"/>
	<path fill="#8DC4EC" d="M901.173,321.337c-12.019,19.552-25.856,13.442-25.856,13.442l-66.745-15.891l66.745,15.892
		C875.317,334.78,889.154,340.889,901.173,321.337l21.534-53.546c0,0,1.26-3.679,1.106-8.521c0.154,4.841-1.106,8.52-1.106,8.52
		L901.173,321.337z"/>
	<path fill="#8DC4EC" d="M750.892,84.533c-0.117-0.19-0.223-0.39-0.339-0.58C750.669,84.142,750.775,84.342,750.892,84.533z"/>
	<path fill="#8DC4EC" d="M757.403,96.237c-0.432-0.852-0.873-1.696-1.319-2.537C756.53,94.541,756.97,95.385,757.403,96.237z"/>
	<path fill="#8DC4EC" d="M744.396,74.753c-0.511-0.716-1.031-1.423-1.553-2.129C743.365,73.33,743.886,74.037,744.396,74.753z"/>
	<path fill="#8DC4EC" d="M847.539,138.854c-4.416,6.27-6.204,14.063-6.851,20.636C841.335,152.916,843.124,145.124,847.539,138.854z
		"/>
	<path fill="#8DC4EC" d="M921.767,85.584c-0.507,1.537-1.199,2.919-1.993,4.153C920.568,88.504,921.26,87.121,921.767,85.584z"/>
	<path fill="#8DC4EC" d="M922.644,80.505c-0.05,1.851-0.371,3.543-0.877,5.079C922.273,84.047,922.593,82.356,922.644,80.505z"/>
	<path fill="#8DC4EC" d="M840.689,159.49c-0.215,2.191-0.304,4.247-0.32,6.066C840.385,163.737,840.473,161.681,840.689,159.49z"/>
	<path fill="#8DC4EC" d="M775.783,171.847c0.127,38.193-12.856,75.324-36.4,105.059C762.926,247.171,775.909,210.04,775.783,171.847
		z"/>
	<path fill="#8DC4EC" d="M915.867,94.236c1.343-1.188,2.736-2.678,3.907-4.498C918.602,91.557,917.21,93.047,915.867,94.236z"/>
	<path fill="#8DC4EC" d="M298.17,102.798l64.007,36.653c0,0,20.38,9.322,14.384,45.054c0,0,1.211,26.24-24.685,40.498
		c-25.89,14.258-48.188,28.57-48.188,28.57s-14.277,6.872-8.109,22.263c6.154,15.364,29.222,59.102,29.222,59.102
		s4.272,10.966,24.876,2.988l56.272-15.22c0,0,7.438-2.232,17.6,1.029c4.895,1.571,10.412,4.399,16.052,9.398
		c0,0,24.178,16.458,22.42,30.031l-15.68,79.458c0,0-5.11,13.388,10.151,22.052l63.018,23.936c0,0,17.543,1.685,22.204-12.692
		l27.404-50.069c0,0,9.062-21.843,38.441-20.394c0,0,2.441-0.078,2.441-0.126V341h0.078c-43.439,0-85.617-16.102-117.237-45.739
		c-16.495-15.46-30.153-34.236-39.579-56.361C428.579,181.154,438.794,119,474.421,71H295.032l-5.057,12.06
		C289.976,83.06,285.275,95.094,298.17,102.798z"/>
	<path fill="#8DC4EC" d="M665.775,330.147c2.652-0.978,5.293-2.025,7.922-3.147c26.664-11.387,48.869-28.854,65.685-50.094
		c-5.051,6.38-10.589,12.419-16.588,18.055c-13.972,13.129-30.443,24.072-49.098,32.039
		C671.068,328.123,668.427,329.169,665.775,330.147z"/>
	<path fill="#8DC4EC" d="M778.826,328.182c2.739-2.397,5.898-4.691,9.402-6.483c3.553-1.817,7.461-3.118,11.657-3.472
		C791.551,318.929,784.343,323.354,778.826,328.182z"/>
	<path fill="#8DC4EC" d="M697.209,487.592c-1.005-0.046-1.925-0.195-2.804-0.387C695.283,487.397,696.204,487.546,697.209,487.592z"
		/>
	<path fill="#8DC4EC" d="M617.631,405.466c0.162,0.011,0.34,0.031,0.505,0.043C617.969,405.497,617.796,405.477,617.631,405.466z"/>
	<path fill="#8DC4EC" d="M762.097,348.447c1.341-2.179,2.994-4.414,5.022-6.677C765.091,344.034,763.438,346.269,762.097,348.447z"
		/>
	<path fill="#8DC4EC" d="M756.804,365.773c0.065-4.758,1.271-10.789,5.293-17.326C758.075,354.984,756.869,361.015,756.804,365.773z
		"/>
	<path fill="#8DC4EC" d="M638.525,410.754c0.313,0.167,0.63,0.325,0.936,0.502C639.153,411.078,638.838,410.922,638.525,410.754z"/>
	<path fill="#8DC4EC" d="M643.489,414.103c0.254,0.217,0.489,0.455,0.733,0.683C643.977,414.557,643.744,414.321,643.489,414.103z"
		/>
	<path fill="#8DC4EC" d="M634.004,338.439c0.141-0.022,0.282-0.053,0.423-0.076C634.286,338.386,634.145,338.416,634.004,338.439z"
		/>
	<path fill="#8DC4EC" d="M771.889,335.31c1.228-1.467,2.676-3.073,4.322-4.696C774.565,332.237,773.117,333.843,771.889,335.31z"/>
	<path fill="#8DC4EC" d="M633.782,408.609c0.131,0.047,0.256,0.111,0.386,0.16C634.037,408.719,633.914,408.656,633.782,408.609z"/>
	<path fill="#8DC4EC" d="M657.85,332.847c1.298-0.407,2.588-0.879,3.882-1.319C660.438,331.968,659.148,332.44,657.85,332.847z"/>
	<path fill="#8DC4EC" d="M649.911,335.12c0.715-0.186,1.427-0.413,2.142-0.609C651.338,334.707,650.626,334.934,649.911,335.12z"/>
	<path fill="#8DC4EC" d="M641.959,336.981c0.379-0.079,0.756-0.18,1.135-0.261C642.715,336.801,642.338,336.902,641.959,336.981z"/>
	<path fill="#8DC4EC" d="M613.067,405.3c0.207,0.002,0.426,0.006,0.642,0.01C613.484,405.306,613.282,405.301,613.067,405.3z"/>
	<path fill="#8DC4EC" d="M627.79,406.9c0.383,0.086,0.768,0.184,1.152,0.279C628.554,407.083,628.176,406.986,627.79,406.9z"/>
	<path fill="#8DC4EC" d="M622.153,405.92c0.348,0.045,0.689,0.083,1.042,0.133C622.837,406.002,622.506,405.965,622.153,405.92z"/>
	<path fill="#73A7D2" d="M673.697,327.001c-2.629,1.122-5.271,2.169-7.922,3.147c-1.343,0.495-2.695,0.922-4.043,1.381
		c-1.294,0.44-2.584,0.912-3.882,1.319c-1.927,0.603-3.863,1.134-5.798,1.665c-0.714,0.195-1.426,0.423-2.142,0.609
		c-2.268,0.589-4.541,1.109-6.817,1.599c-0.378,0.081-0.756,0.182-1.135,0.261c-2.508,0.522-5.019,0.978-7.532,1.382
		c-0.141,0.023-0.282,0.313-0.423,0.336c-7.992,1.264-15.96,2.301-23.926,2.301H610v62h0.073c0.823,0,1.861,1.127,3.014,1.136
		c0.215,0.002,0.407,0.588,0.632,0.592c1.192,0.019,2.496,0.354,3.918,0.448c0.165,0.011,0.335,0.176,0.502,0.188
		c1.273,0.092,2.627,0.307,4.016,0.484c0.352,0.045,0.683,0.118,1.041,0.17c1.499,0.216,3.041,0.519,4.594,0.864
		c0.387,0.086,0.764,0.192,1.152,0.288c1.622,0.398,3.248,0.857,4.84,1.435c0.132,0.048,0.255,0.112,0.386,0.162
		c1.499,0.561,2.951,1.236,4.356,1.987c0.314,0.168,0.628,0.324,0.936,0.502c1.431,0.828,2.781,1.778,4.029,2.847
		c0.255,0.218,0.488,0.454,0.733,0.683c1.263,1.179,2.444,2.454,3.411,3.939l35.922,59.853c0,0,2.989,6.903,10.849,8.627
		c0.88,0.193,1.8,0.342,2.804,0.387c3.328,0.151,7.357-0.598,12.185-2.866l55.823-23.765c0,0,15.628-10.309,10.835-24.252
		l-17.393-60.511c0,0-1.941-4.081-1.855-10.425c0.065-4.758,1.271-10.789,5.293-17.326c1.341-2.179,2.994-4.414,5.022-6.677
		c0,0,1.699-2.794,4.769-6.461c1.228-1.467,2.676-3.073,4.322-4.696c0.823-0.812,1.695-1.627,2.615-2.432
		c5.518-4.827,12.726-9.253,21.059-9.955c2.778-0.234,5.681-0.054,8.687,0.661l66.745,15.891c0,0,13.837,6.11,25.856-13.442
		l21.534-53.547c0,0,1.26-3.679,1.106-8.52c-0.132-4.149-1.303-9.153-5.197-13.426c-1.947-2.136-4.575-4.09-8.094-5.662
		l-55.224-32.005c0,0-15.404-7.044-14.562-35.008c0,0-0.409-3.066-0.367-7.614c0.016-1.819,0.105-3.875,0.32-6.066
		c0.646-6.573,2.435-14.366,6.851-20.636c2.208-3.135,5.072-5.89,8.778-7.921l54.25-33.112c0,0,2.545-1.149,5.299-3.585
		c1.343-1.188,2.736-2.678,3.907-4.498c0.794-1.233,1.486-2.616,1.993-4.153c0.506-1.537,0.827-3.228,0.877-5.079
		c0.075-2.776-0.459-5.531-1.886-9.044L920.386,71H740.978c0.615,0,1.264,1.189,1.866,2.005c0.521,0.706,1.041,1.222,1.553,1.938
		c2.134,2.991,4.205,5.946,6.156,9.104c0.117,0.19,0.223,0.342,0.339,0.533c1.823,2.977,3.54,6.022,5.192,9.143
		c0.446,0.842,0.886,1.673,1.319,2.525c1.705,3.356,3.346,6.756,4.845,10.269c1.139,2.667,2.203,5.344,3.194,8.036
		c6.937,18.837,10.278,38.198,10.341,57.295c0.127,38.193-12.856,75.323-36.4,105.059
		C722.566,298.147,700.361,315.613,673.697,327.001z"/>
	<path fill="#F5DB39" d="M375,707c0,0-3.816,0-4.445,0c-1.216,0-2.555,3.34-2.555,3.362v0.019
		c-69,1.635-108.571,44.779-130.569,90.701C222.445,832.365,214.799,866,211.484,887h67.851H375V707z"/>
	<path fill="#F5DB39" d="M450.263,640.304c-4.546,7.892-10.202,15.167-17.05,21.375
		C440.061,655.472,445.717,648.196,450.263,640.304z"/>
	<path fill="#F5DB39" d="M412.687,523.681c0.969,0.465,1.945,0.916,2.893,1.413C414.631,524.596,413.656,524.146,412.687,523.681z"
		/>
	<path fill="#F5DB39" d="M420.212,527.739c0.763,0.46,1.55,0.886,2.298,1.367C421.761,528.624,420.976,528.198,420.212,527.739z"/>
	<path fill="#F5DB39" d="M459.764,602.643c0.07-3.3-0.047-6.504-0.321-9.607C459.717,596.139,459.833,599.343,459.764,602.643z"/>
	<path fill="#F5DB39" d="M405.035,520.425c1.086,0.404,2.167,0.818,3.234,1.261C407.202,521.243,406.123,520.83,405.035,520.425z"/>
	<path fill="#F5DB39" d="M375,514.557c-7,0.004-7.582,0.151-10.773,0.472c-49.553,4.932-86.53,47.065-81.854,94.033
		c4.616,45.536,47.076,78.841,94.704,76.295c-1.01,0.041-2.076,0.137-2.076,0.159V514.557z"/>
	<path fill="#F5DB39" d="M397.154,517.881c1.158,0.315,2.3,0.666,3.44,1.024C399.453,518.546,398.313,518.196,397.154,517.881z"/>
	<path fill="#F5DB39" d="M380.697,514.921c1.118,0.097,2.212,0.278,3.319,0.413C382.908,515.198,381.816,515.018,380.697,514.921z"
		/>
	<path fill="#F5DB39" d="M389.032,516.04c1.184,0.211,2.347,0.483,3.516,0.738C391.378,516.523,390.218,516.251,389.032,516.04z"/>
	<path fill="#E8BA3C" d="M491.353,887c8.233-14,18.642-26.734,30.803-37.776C506.464,790.765,465,712.595,375,710.382V707
		c0,0-0.403,0-0.989,0H375v180H491.353z"/>
	<path fill="#E8BA3C" d="M458.916,588.458c-0.426-3.001-0.995-5.898-1.682-8.688c-0.343-1.394-0.716-2.762-1.114-4.102
		c-0.796-2.679-1.695-5.247-2.67-7.699c-3.897-9.809-8.999-17.758-13.535-23.526c-1.701-2.162-3.322-4.018-4.771-5.55
		c-3.381-3.574-5.82-5.382-6.135-5.208c-2.086-1.624-4.264-3.141-6.501-4.58c-0.747-0.481-1.534-0.907-2.298-1.367
		c-1.521-0.916-3.051-1.816-4.631-2.644c-0.948-0.497-1.925-0.948-2.893-1.413c-1.455-0.698-2.92-1.373-4.418-1.995
		c-1.066-0.443-2.147-0.858-3.234-1.261c-1.464-0.544-2.943-1.049-4.442-1.52c-1.139-0.358-2.282-0.709-3.44-1.024
		c-1.518-0.413-3.058-0.765-4.606-1.103c-1.169-0.255-2.331-0.527-3.516-0.738c-1.654-0.294-3.335-0.5-5.016-0.706
		c-1.108-0.136-0.923-0.317-2.041-0.413c-2.724-0.235-6.975-0.367-6.975-0.364l0,0v170.96c0-0.022,0.746-0.118,1.756-0.159
		c1.497-0.061,2.349-0.084,3.86-0.236c4.151-0.417,7.889-1.094,11.837-2.014c7.896-1.84,15.193-4.647,22.083-8.269
		c6.89-3.622,13.132-8.06,18.756-13.158c6.849-6.208,12.464-13.483,17.01-21.375c1.054-1.83,2.178-3.611,3.093-5.513
		c2.866-7.658,4.647-14.994,5.584-21.967c0.469-3.487,0.719-6.882,0.789-10.182c0.07-3.3-0.049-6.504-0.323-9.607
		C459.308,591.485,459.128,589.958,458.916,588.458z"/>
	<path fill="#F5DB39" d="M866,710.382v-0.019c-7-0.023-2.283,0.006-3.5,0.01c-1.217-0.003-3.5-0.033-3.5-0.01v0.019
		c-97,2.213-133.179,80.235-148.872,138.695c-22.032-20.004-51.759-33.86-90.186-34.851
		c104.892,2.703,139.983,101.202,151.786,159.711C766.635,948.693,756.78,915,739.215,887H866V710.45
		c111,3.573,145.49,122.531,153.641,176.254c-3.93-25.903-12.32-66.965-33.731-102.962C962.754,744.813,921,711.81,866,710.382z"/>
	<path fill="#F5DB39" d="M948.899,593.036c0.274,3.103,0.391,6.307,0.321,9.607C949.29,599.343,949.173,596.139,948.899,593.036z"/>
	<path fill="#F5DB39" d="M922.889,661.453c-0.078,0.071-0.142,0.155-0.22,0.227C922.747,661.608,922.81,661.524,922.889,661.453z"/>
	<path fill="#F5DB39" d="M901.998,523.616c1.185,0.562,2.36,1.14,3.515,1.751C904.359,524.753,903.182,524.182,901.998,523.616z"/>
	<path fill="#F5DB39" d="M771.189,609.062c4.693,46.301,48.073,79.994,96.704,76.169c-0.815,0.034-1.893,0.085-1.893,0.128V514.689
		c-7-0.125-8.824-0.084-13.038,0.34C803.41,519.961,766.513,562.095,771.189,609.062z"/>
	<path fill="#F5DB39" d="M909.567,527.681c0.855,0.512,1.727,1.002,2.562,1.54C911.293,528.681,910.422,528.195,909.567,527.681z"/>
	<path fill="#F5DB39" d="M864.901,514.69c9.518,0.293,18.695,2.032,27.306,4.954C883.599,516.696,874.423,514.982,864.901,514.69z"
		/>
	<path fill="#F5DB39" d="M909.858,671.168c-8.986,5.646-19.05,9.885-29.996,12.226C890.808,681.053,900.873,676.814,909.858,671.168
		z"/>
	<path fill="#F5DB39" d="M894.369,520.383c1.484,0.545,2.938,1.149,4.383,1.767C897.308,521.528,895.853,520.933,894.369,520.383z"
		/>
	<path fill="#E8BA3C" d="M866,710.45V887h70.417h82.667C1010.932,832,977,714.023,866,710.45z"/>
	<path fill="#E8BA3C" d="M867.893,685.231c0.698-0.03,1.114-0.039,1.819-0.11c3.561-0.357,6.876-0.998,10.289-1.728
		c10.946-2.341,20.941-6.58,29.926-12.226c4.543-2.854,8.865-5.942,12.776-9.488c0.079-0.071,0.125-0.155,0.203-0.227
		c8.329-7.604,15.12-16.65,19.934-26.661c2.866-7.658,4.652-14.994,5.59-21.967c0.469-3.487,0.722-6.882,0.792-10.182
		c0.07-3.3-0.048-6.504-0.322-9.607c-0.137-1.551-0.314-3.078-0.527-4.578c-0.426-3.001-0.996-5.898-1.682-8.688
		c-0.343-1.394-0.716-2.762-1.114-4.102c-0.796-2.679-1.695-5.247-2.67-7.699c-1.949-4.904-4.199-9.344-6.528-13.278
		c-1.165-1.967-2.349-3.808-3.526-5.518c-1.177-1.71-2.346-3.288-3.48-4.73c-5.67-7.209-10.457-11.006-10.906-10.758
		c-2.034-1.584-4.159-3.06-6.337-4.465c-0.835-0.539-1.706-1.029-2.562-1.54c-1.334-0.798-2.674-1.583-4.054-2.314
		c-1.155-0.611-2.33-1.188-3.515-1.751c-1.071-0.508-2.151-0.998-3.245-1.466c-1.446-0.618-2.899-1.222-4.383-1.767
		c-0.714-0.262-1.44-0.84-2.162-1.085c-8.611-2.922-17.789-5.299-27.306-5.299c-0.006,0-0.011,0-0.017,0l1.116,0.689v170.671
		C866,685.316,867.078,685.265,867.893,685.231z"/>
	<path fill="#F5DB39" d="M771.677,975.235c1.085,5.498,1.974,10.653,2.678,15.293C773.651,985.888,772.761,980.733,771.677,975.235z
		"/>
	<path fill="#F5DB39" d="M491.353,886.94C469.573,923.142,460.174,963,456.212,991H617V814.219v-0.013v-0.019
		c0-0.023-2.284,0.006-3.501,0.01c-1.216-0.003-3.499-0.032-3.499-0.01v0.019c-34,0.914-66.958,14.922-89.058,34.988
		C508.781,860.236,499.585,873.256,491.353,886.94z"/>
	<path fill="#F5DB39" d="M641.716,621.665c1.716,0.46,3.393,1.01,5.067,1.564C645.109,622.671,643.432,622.129,641.716,621.665z"/>
	<path fill="#F5DB39" d="M619.178,618.469c7.357,0.149,14.515,1.17,21.379,2.918C633.694,619.624,626.538,618.618,619.178,618.469z"
		/>
	<path fill="#F5DB39" d="M606.59,618.853c-49.552,4.932-86.434,47.065-81.758,94.033C529.414,758.092,569,791.248,617,789.236
		V618.469C617,618.393,610.467,618.463,606.59,618.853z"/>
	<path fill="#F5DB39" d="M649.56,624.179c1.41,0.517,2.796,1.08,4.171,1.662C652.356,625.256,650.97,624.7,649.56,624.179z"/>
	<path fill="#F5DB39" d="M677.941,765.504c-0.285,0.258-0.617,0.468-0.906,0.722C677.323,765.971,677.656,765.762,677.941,765.504z"
		/>
	<path fill="#F5DB39" d="M657.226,627.42c1.151,0.546,2.299,1.1,3.422,1.692C659.525,628.517,658.378,627.969,657.226,627.42z"/>
	<path fill="#F5DB39" d="M664.827,631.498c0.842,0.504,1.702,0.982,2.525,1.512C666.529,632.479,665.669,632.004,664.827,631.498z"
		/>
	<path fill="#E8BA3C" d="M774.355,991c-0.704-7-1.594-10.031-2.678-15.529c-0.096-0.488-0.179-2.682-0.279-3.176
		C759.595,913.785,724.174,818,619.282,811c-0.038,0-2.282,0-2.282,0l0,0v180H774.355z"/>
	<path fill="#E8BA3C" d="M677.233,640.092c-0.392-0.364-0.758-0.691-1.095-0.979c-1.347-1.155-2.221-1.703-2.401-1.604
		c-2.05-1.596-4.19-3.084-6.386-4.499c-0.823-0.53-1.683-1.008-2.525-1.512c-1.375-0.823-2.755-1.635-4.179-2.386
		c-1.123-0.592-2.271-1.146-3.422-1.692c-1.154-0.548-2.314-1.078-3.495-1.578c-1.375-0.583-2.761-1.145-4.171-1.662
		c-0.917-0.337-1.846-0.642-2.777-0.95c-1.674-0.554-3.351-1.104-5.067-1.564c-0.383-0.103-0.775-0.914-1.159-1.012
		c-6.864-1.748-15.093-3.653-22.449-3.653c-0.002,0-1.108,0-1.108,0l0,0v173h1.101c1.841,0,4.209-0.485,6.069-0.672
		c20.333-2.041,38.649-10.588,52.597-22.91c0.288-0.255,0.755-0.56,1.04-0.818c2.812-2.549,5.517-5.311,7.964-8.172
		c2.447-2.86,4.737-5.891,6.787-9.025c2.05-3.134,3.91-6.407,5.53-9.775C717.431,686.936,687.826,649.918,677.233,640.092z"/>
</g>
</svg>
