<?xml version="1.0" encoding="utf-8"?>
<!-- Generator: Adobe Illustrator 19.1.0, SVG Export Plug-In . SVG Version: 6.00 Build 0)  -->
<svg version="1.1" id="Layer_1" xmlns="http://www.w3.org/2000/svg" xmlns:xlink="http://www.w3.org/1999/xlink" x="0px" y="0px"
	 viewBox="0 0 1200 1200" enable-background="new 0 0 1200 1200" xml:space="preserve">
<g>
	<path fill="#F5DB39" d="M845.934,352.646c-75.594,0-137.124,61.538-137.124,137.123c0,74.582,59.937,135.354,134.149,136.959v0
		c0.516,0.011,1.026,0.042,1.535,0.078c0.485,0.005,0.954,0.073,1.44,0.073c42.522,0,80.562-19.466,105.709-49.952
		c2.794-3.387,5.429-6.911,7.893-10.559c4.928-7.296,9.174-15.089,12.644-23.288c6.94-16.397,10.78-34.415,10.78-53.311
		s-3.84-36.915-10.78-53.313C951.359,387.261,902.63,352.646,845.934,352.646z"/>
	<path fill="#F5DB39" d="M1003.707,50H172.402C93.432,50,50,114.896,50,166.093v811.183C50,1105.463,92.755,1150,210.176,1150
		h793.646c80.549,0,146.179-34.166,146.179-133.917V193.866C1150,114.896,1097.75,50,1003.707,50z M1046,505.435l-2.349,1.565
		h-14.556c-0.506,7-1.334,10.793-2.353,16.447c-1.439,7.989-3.32,15.42-5.744,23.04l15.221,5.417L1026,580.77v-0.036l0,0
		l-15.352-5.709c-3.107,5.921-7.48,11.652-11.197,17.186c-3.717,5.534-8.203,10.856-12.486,15.952l10.148,10.313l-22.368,22.22
		l-10.436-10.379c-3.776,3.198-7.768,6.178-11.81,9.056c-4.537,3.231-9.2,6.316-14.025,9.129c-3.041,1.774-6.142,3.463-9.281,5.067
		l5.509,13.569l-29.129,11.826l-6.213-13.461c-12.335,3.854-26.358,6.306-39.358,7.37v14.585l1.601-1.459H832v-13.126
		c-14-1.142-28.563-3.871-41.469-8.033l-6.051,13.398l-29.192-12.15l5.518-13.461c-11.819-6.23-23.014-13.677-33.168-22.312
		l-10.381,10.379l-22.241-22.221l10.347-10.315c-9.043-10.762-16.726-22.543-23.21-35.141l-13.616,5.49l-11.782-29.051l13.423-4.645
		C666.385,532.477,663.98,520,662.752,507H645v-35h17.752c1.227-14,3.986-26.602,8.119-39.555l-13.353-5.138l12.173-28.648
		l13.401,5.743c6.205-11.858,13.737-22.864,22.265-33.055l-10.354-10.313l22.228-22.157l10.354,10.339
		c10.685-9.036,22.52-16.819,35.079-23.218l-5.536-13.567l29.142-11.795l6.335,13.4c12.312-3.808,25.395-6.259,39.395-7.369V292
		h10.959H860v14.665c13,0.88,21.637,2.651,31.57,5.239c3.311,0.862,6.984,1.815,10.214,2.856l5.814-13.685L936.654,313h0.065l0,0
		l-5.594,13.762c8.865,4.661,17.337,10.102,25.35,16.112c2.671,2.003,5.301,4.138,7.872,6.293l10.275-10.304l22.251,22.188
		l-10.384,10.353c6.805,8.06,12.832,16.705,18.131,25.824c1.767,3.039,3.453,6.134,5.06,9.275l13.616-5.474l11.742,29.097
		l-13.344,4.338c3.802,12.367,6.252,23.536,7.402,37.536H1046V505.435z M181.689,783H161v-48h20.689
		c1.643-14,5.519-37.493,11.412-55.845l-18.974-7.18l17.155-40.523l19.066,8.15c8.824-16.775,19.376-32.364,31.556-46.743
		l-14.683-14.652l31.358-31.327l14.669,14.673c15.217-12.771,31.857-23.76,49.64-32.866l-7.732-19.225l41.127-16.618l6.902,18.933
		c17.481-5.413,39.817-8.88,53.817-10.417V479h25.776h20.13l2.094,1.681v20.678c21,1.692,38.036,5.498,56.389,11.433l7.357-17.46
		L569.527,514h-0.142h-0.07l-8.014,17.544c8.387,4.405,16.481,8.502,24.302,13.764c3.911,2.631,7.74,4.99,11.504,7.826
		c3.764,2.835,7.449,5.584,11.063,8.618l14.623-14.782l31.384,31.333l-14.675,14.678c12.856,15.083,23.787,31.791,32.852,49.651
		l19.22-7.844l16.705,41.187l-19.01,6.084C694.626,699.526,698.107,721,699.7,735h20.623l0.677,3.195v44.404L720.323,783H699.7
		c-1.248,14-3.733,29.214-7.38,43.279c-1.216,4.688-2.561,9.226-4.032,13.807l18.89,7.915l-17.092,40.952l-19.059-8.019
		c-6.613,12.591-14.217,24.599-22.723,35.872c-2.835,3.758-5.771,7.43-8.803,11.018l14.674,14.645l-31.385,31.42L608.164,959.2
		c-9.52,8.008-19.644,15.202-30.203,21.75c-6.336,3.929-12.791,7.682-19.472,11.081l3.866,9.613l3.865,9.613l0,0v0l-41.147,16.719
		l-7.627-18.96c-2.71,0.827-5.47,1.527-8.215,2.265c-6.12,1.645-11.246,3.15-17.526,4.351c-9.098,1.739-19.704,3.012-26.704,3.816
		v20.594l-2.094-1.043h-20.13H417v-19.551c-21-1.734-38.366-5.581-56.735-11.502l-7.48,19.002l-40.777-17.156l8.035-19.116
		c-16.788-8.824-32.452-19.341-46.844-31.477l-14.645,14.632l-31.346-31.364l14.688-14.646
		c-12.862-15.14-23.801-31.844-32.884-49.648l-19.199,7.753l-16.732-41.19l18.996-7.425C186.728,819.859,183.246,804,181.689,783z
		 M71,433.254l68.424-62.372c0.356-23.125,18.617-41.646,41.811-41.646c19.788,0,36.081,13.524,40.728,31.872l89.282,38.517
		c7.566-7.001,17.599-11.307,28.725-11.307c6.416,0,12.44,1.462,17.885,4.008l154.192-156.101c-0.034-0.695-0.113-1.381-0.113-2.085
		c0-23.344,18.94-42.348,42.353-42.348c18.988,0,35.003,12.468,40.41,29.608l48.626,20.541c7.578-7.164,17.776-11.583,29.038-11.583
		c3.441,0,6.768,0.834,9.97,1.604L853.107,71h62.373L713.19,261.751c1.002,3.611,1.579,7.21,1.579,11.141
		c0,23.434-18.961,42.252-42.408,42.252c-19.682,0-36.153-13.453-40.901-31.656l-46.796-19.793
		c-7.693,7.927-18.442,12.86-30.382,12.86c-6.408,0-12.457-1.471-17.899-4.018L382.126,428.692c0.03,0.653,0.098,1.294,0.098,1.954
		c0,23.418-18.926,42.327-42.321,42.327c-19.827,0-36.445-13.599-41.069-31.994l-89.31-38.466
		c-7.559,7.039-17.666,11.378-28.816,11.378c-7.367,0-13.237-1.881-19.269-5.181L71,490.849V433.254z"/>
	<path fill="#F5DB39" d="M564.86,909.212c2.337-1.954,4.629-3.96,6.871-6.02c0.074-0.068,0.144-0.14,0.218-0.208
		c2.186-2.014,4.329-4.074,6.421-6.186c0.151-0.152,0.294-0.312,0.444-0.466c2.006-2.038,3.975-4.113,5.89-6.237
		c0.218-0.242,0.423-0.495,0.639-0.738c1.833-2.053,3.635-4.136,5.38-6.266c0.267-0.326,0.517-0.667,0.782-0.995
		c1.671-2.067,3.317-4.155,4.903-6.291c0.323-0.435,0.624-0.888,0.943-1.326c1.499-2.052,2.979-4.119,4.397-6.231
		c0.374-0.557,0.719-1.134,1.087-1.695c1.33-2.024,2.649-4.057,3.904-6.133c0.399-0.661,0.765-1.345,1.157-2.011
		c1.179-2.004,2.354-4.012,3.463-6.062c0.426-0.787,0.812-1.599,1.227-2.392c1.026-1.962,2.056-3.924,3.016-5.924
		c0.44-0.916,0.834-1.858,1.26-2.783c0.879-1.909,1.768-3.812,2.586-5.753c0.459-1.089,0.865-2.205,1.305-3.305
		c0.725-1.811,1.466-3.615,2.138-5.453c0.444-1.217,0.83-2.46,1.25-3.688c0.601-1.757,1.226-3.503,1.778-5.282
		c0.411-1.323,0.758-2.673,1.14-4.008c0.491-1.714,1.01-3.415,1.455-5.148c0.372-1.448,0.675-2.922,1.013-4.383
		c0.383-1.651,0.798-3.291,1.139-4.958c0.318-1.554,0.562-3.134,0.842-4.702c0.286-1.601,0.608-3.19,0.854-4.804
		c0.263-1.726,0.447-3.477,0.665-5.217c0.185-1.481,0.411-2.95,0.562-4.442c0.216-2.133,0.345-4.292,0.491-6.445
		c0.076-1.12,0.197-2.228,0.254-3.354c0.167-3.292,0.252-6.605,0.252-9.937c0-3.333-0.085-6.646-0.252-9.938
		c-0.057-1.117-0.177-2.216-0.252-3.329c-0.147-2.162-0.276-4.329-0.494-6.471c-0.149-1.469-0.372-2.914-0.553-4.373
		c-0.22-1.764-0.407-3.538-0.673-5.287c-0.243-1.592-0.561-3.158-0.842-4.738c-0.283-1.59-0.532-3.192-0.854-4.769
		c-0.334-1.635-0.741-3.241-1.116-4.86c-0.346-1.494-0.657-3.002-1.037-4.483c-0.431-1.677-0.934-3.324-1.408-4.983
		c-0.398-1.391-0.76-2.797-1.188-4.175c-0.536-1.727-1.143-3.421-1.726-5.127c-0.437-1.279-0.839-2.574-1.302-3.841
		c-0.652-1.785-1.374-3.535-2.077-5.295c-0.46-1.153-0.886-2.322-1.368-3.464c-0.798-1.892-1.665-3.746-2.521-5.607
		c-0.447-0.972-0.862-1.962-1.324-2.925c-0.936-1.95-1.94-3.859-2.938-5.772c-0.441-0.846-0.853-1.709-1.306-2.547
		c-1.071-1.98-2.208-3.918-3.345-5.855c-0.432-0.736-0.836-1.49-1.278-2.221c-1.219-2.016-2.503-3.989-3.793-5.956
		c-0.405-0.618-0.785-1.253-1.197-1.866c-1.375-2.046-2.811-4.046-4.261-6.036c-0.367-0.503-0.713-1.024-1.084-1.523
		c-1.548-2.083-3.156-4.119-4.785-6.136c-0.304-0.378-0.592-0.768-0.899-1.143c-1.719-2.098-3.495-4.147-5.299-6.17
		c-0.243-0.272-0.473-0.556-0.717-0.828c-1.893-2.1-3.841-4.15-5.824-6.165c-0.173-0.176-0.337-0.36-0.51-0.535
		c-2.056-2.075-4.165-4.098-6.312-6.078c-0.113-0.104-0.22-0.214-0.333-0.318c-2.217-2.035-4.483-4.018-6.794-5.95
		c-0.049-0.041-0.097-0.085-0.146-0.127c-33.153-27.667-75.654-44.489-122.003-44.98l0,0c-0.696-0.007-1.382-0.053-2.08-0.053
		c-113.321,0-193.918,92.164-193.918,193.926c0,106.964,86.975,193.968,193.918,193.968c0.698,0,1.385-0.045,2.081-0.053
		c46.352-0.492,88.857-17.328,122.01-45.01C564.812,909.254,564.835,909.232,564.86,909.212z M437.266,608.152
		c1.895-0.064,3.734-0.119,5.734-0.031V608h-0.22c2.02,0,4.007,0.417,5.975,0.685c0.184,0.025,0.37,0.098,0.554,0.124
		c1.855,0.267,3.675,0.657,5.479,1.071c0.287,0.066,0.578,0.133,0.864,0.202c1.708,0.415,3.379,0.916,5.033,1.457
		c0.369,0.121,0.743,0.234,1.11,0.361c1.564,0.54,3.09,1.15,4.6,1.798c0.437,0.187,0.877,0.37,1.309,0.566
		c1.421,0.647,2.807,1.347,4.173,2.086c0.49,0.265,0.979,0.53,1.462,0.806c1.282,0.735,2.531,1.511,3.758,2.326
		c0.528,0.35,1.049,0.705,1.567,1.07c1.144,0.807,2.26,1.643,3.349,2.517c0.554,0.444,1.096,0.9,1.635,1.362
		c1.006,0.861,1.99,1.741,2.942,2.659c0.568,0.546,1.114,1.111,1.662,1.677c0.869,0.899,1.723,1.806,2.54,2.753
		c0.567,0.655,1.103,1.334,1.643,2.011c0.738,0.925,1.469,1.851,2.156,2.815c0.544,0.762,1.046,1.551,1.558,2.336
		c0.613,0.942,1.23,1.878,1.795,2.853c0.509,0.877,0.964,1.783,1.433,2.685c0.488,0.94,0.991,1.87,1.434,2.836
		c0.459,1,0.851,2.033,1.261,3.059c0.368,0.923,0.761,1.832,1.087,2.775c0.396,1.143,0.709,2.32,1.042,3.49
		c0.248,0.874,0.534,1.73,0.746,2.619c0.325,1.36,0.552,2.756,0.79,4.148c0.127,0.741,0.302,1.464,0.404,2.214
		c0.293,2.16,0.487,4.351,0.563,6.575c0.078,2.267,0.036,4.511-0.116,6.727c-0.055,0.807-0.2,1.589-0.285,2.388
		c-0.148,1.393-0.267,2.793-0.503,4.16c-0.188,1.092-0.478,2.148-0.72,3.221c-0.234,1.038-0.419,2.094-0.703,3.114
		c-0.344,1.24-0.792,2.436-1.207,3.647c-0.28,0.814-0.509,1.648-0.819,2.448c-0.52,1.339-1.139,2.628-1.744,3.925
		c-0.292,0.626-0.539,1.276-0.85,1.891c-0.726,1.437-1.548,2.818-2.376,4.195c-0.259,0.431-0.481,0.885-0.75,1.309
		c-0.962,1.521-2.014,2.98-3.096,4.417c-0.183,0.243-0.341,0.503-0.527,0.744c-1.191,1.538-2.466,3.01-3.787,4.439
		c-0.107,0.116-0.201,0.242-0.309,0.357c-1.422,1.517-2.92,2.964-4.481,4.345c-0.017,0.015-0.033,0.033-0.05,0.048
		c-11.368,10.045-26.241,16.391-42.712,16.958c-37.13,1.266-68.221-27.256-69.471-63.736
		C370.958,640.052,400.097,609.432,437.266,608.152z M482.117,925.04c-4.609,0.986-9.179,1.812-13.64,2.475
		c-8.922,1.326-17.412,2.001-24.92,2.006c-0.181,0-0.356-0.009-0.533-0.017c-61.153-0.153-103-31.792-100.902-29.693l-6.421-75.944
		c-1.094-31.871,22.789-60.12,58.034-73.789l48.863,42.47l42.979-43.443c32.934,12.218,55.948,37.593,56.966,67.691l3.137,81.752
		c-14.828,11.364-35.784,19.738-56.628,24.893C486.737,924.014,484.422,924.547,482.117,925.04z"/>
	<path fill="#64AFC6" d="M584.664,263.671l46.796,19.769c-0.896-3.434-1.421-7.02-1.421-10.739c0-12.136,5.118-23.043,13.282-30.761
		l-48.627-20.541c1.27,4.024,1.961,8.302,1.961,12.741C596.656,245.622,592.079,256.031,584.664,263.671z"/>
	<path fill="#64AFC6" d="M209.525,402.511l89.31,38.466c-0.833-3.312-1.323-6.76-1.323-10.333c0-12.291,5.256-23.298,13.601-31.019
		l-89.413-38.517c0.846,3.341,1.344,6.824,1.344,10.434C223.044,383.788,217.824,394.782,209.525,402.511z"/>
	<path fill="#64AFC6" d="M382.126,428.689l154.258-156.158c-13.843-6.482-23.569-20.21-24.354-36.306L357.821,392.326
		C371.673,398.801,381.389,412.529,382.126,428.689z"/>
	<path fill="#64AFC6" d="M713.19,261.751L915.48,71h-62.373L682.331,232.152C697.281,235.749,709.104,247.023,713.19,261.751z"/>
	<path fill="#64AFC6" d="M138.339,371.542c0-0.223,1.082-0.438,1.085-0.66L71,433.254v57.595l90.44-82.141
		C148.298,401.52,138.339,387.579,138.339,371.542z"/>
	<path fill="#C54845" d="M160.388,408.708c6.032,3.299,12.954,5.181,20.321,5.181c11.149,0,21.257-4.338,28.816-11.378
		c8.299-7.73,13.519-18.724,13.519-30.97c0-3.61-0.498-7.093-1.344-10.434c-4.646-18.348-21.203-31.872-40.99-31.872
		c-23.194,0-41.981,18.521-42.337,41.646c-0.003,0.222-0.033,0.437-0.033,0.66C138.339,387.579,147.246,401.52,160.388,408.708z"/>
	<path fill="#C54845" d="M297.512,430.644c0,3.573,0.49,7.022,1.323,10.333c4.624,18.395,21.242,31.994,41.069,31.994
		c23.396,0,42.321-18.909,42.321-42.327c0-0.66-0.069-1.303-0.098-1.955c-0.736-16.16-10.453-29.888-24.305-36.363
		c-5.445-2.546-11.502-4.008-17.918-4.008c-11.126,0-21.225,4.306-28.791,11.307C302.768,407.347,297.512,418.354,297.512,430.644z"
		/>
	<path fill="#C54845" d="M536.383,272.531c5.442,2.547,11.491,4.012,17.899,4.012c11.939,0,22.689-4.945,30.382-12.872
		c7.415-7.64,11.992-18.049,11.992-29.531c0-4.439-0.692-8.717-1.961-12.741c-5.407-17.14-21.424-29.608-40.412-29.608
		c-23.413,0-42.357,19.004-42.357,42.348c0,0.704,0.071,1.39,0.105,2.085C512.814,252.321,522.541,266.049,536.383,272.531z"/>
	<path fill="#C54845" d="M630.039,272.702c0,3.719,0.525,7.305,1.421,10.739c4.748,18.203,21.218,31.608,40.901,31.608
		c23.447,0,42.408-18.913,42.408-42.347c0-3.932-0.577-7.721-1.579-11.332c-4.086-14.728-15.909-26.193-30.859-29.789
		c-3.202-0.77-6.529-1.223-9.97-1.223c-11.262,0-21.461,4.419-29.039,11.583C635.157,249.658,630.039,260.566,630.039,272.702z"/>
	<path fill="#003750" d="M509.23,1011.282c2.745-0.738,5.505-1.438,8.215-2.265l7.627,18.96l-7.626-18.96
		C514.735,1009.844,511.975,1010.544,509.23,1011.282z"/>
	<path fill="#003750" d="M692.32,826.479c3.647-14.065,6.132-29.479,7.38-43.479h20.623l0,0H699.7
		C698.452,797,695.967,812.414,692.32,826.479z"/>
	<path fill="#003750" d="M465,1040.043L465,1040.043v-20.594c7-0.804,18.654-2.076,27.751-3.816
		c-9.098,1.74-20.751,3.012-27.751,3.816V1040.043z"/>
	<polygon fill="#003750" points="654.175,942.468 639.5,927.822 639.5,927.822 	"/>
	<polygon fill="#003750" points="689.268,683.655 708.278,675.973 689.268,683.655 	"/>
	<polygon fill="#003750" points="562.354,1001.645 558.489,992.032 558.489,992.032 	"/>
	<rect x="465" y="480.681" fill="#003750" width="0" height="20.678"/>
	<path fill="#003750" d="M189.815,885.926l19.2-7.753c9.083,17.804,20.024,34.508,32.887,49.648l-14.683,14.646l31.358,31.364
		l14.669-14.632c14.392,12.136,30.103,22.653,46.891,31.477l-7.942,19.116l40.963,17.156l7.108-19.002
		c18.369,5.921,35.735,9.768,56.735,11.502V1039h27v-83h-0.4c-0.696,0-1.794-0.805-2.492-0.805
		c-106.942,0-194.123-87.433-194.123-194.397c0-101.762,81.106-194.141,194.427-194.141c0.698,0,2.589-0.169,2.589-0.162V479h-27
		v22.36c-14,1.537-36.336,5.004-53.817,10.417l-7.274-18.932l-40.941,16.62l7.825,19.228c-17.783,9.106-34.377,20.102-49.594,32.873
		l-14.645-14.661l-31.346,31.352l14.688,14.702c-12.179,14.379-22.728,30.068-31.553,46.843l-19.064-7.951l-17.154,40.923
		l18.974,6.381C187.208,697.507,183.332,721,181.689,735H161v48h20.689c1.557,21,5.04,36.859,10.39,54.31l-18.996,7.526
		L189.815,885.926z"/>
	<polygon fill="#003750" points="569.243,511.002 528.223,493.832 569.243,511.002 	"/>
	<path fill="#003750" d="M577.961,980.95c10.559-6.548,20.683-13.742,30.203-21.75l14.625,14.689l-14.625-14.689
		C598.644,967.208,588.52,974.402,577.961,980.95z"/>
	<polygon fill="#003750" points="566.22,1011.258 566.22,1011.258 525.073,1027.977 	"/>
	<path fill="#003750" d="M561.265,530.046c8.387,4.405,16.498,9.252,24.319,14.513C577.763,539.297,569.652,534.451,561.265,530.046
		z"/>
	<path fill="#003750" d="M671.027,880.922c-6.613,12.591-14.217,24.604-22.723,35.879
		C656.81,905.527,664.414,893.513,671.027,880.922z"/>
	<path fill="#003750" d="M606.733,660.308c0.442,0.73,0.846,1.484,1.278,2.221C607.579,661.792,607.174,661.038,606.733,660.308z"/>
	<path fill="#003750" d="M630.668,721.464c0.322,1.576,0.57,3.178,0.854,4.769C631.238,724.643,630.989,723.041,630.668,721.464z"/>
	<path fill="#003750" d="M625.918,702.962c0.428,1.378,0.79,2.784,1.188,4.175C626.708,705.746,626.346,704.341,625.918,702.962z"/>
	<path fill="#003750" d="M628.514,712.121c0.38,1.481,0.691,2.989,1.037,4.483C629.205,715.11,628.895,713.602,628.514,712.121z"/>
	<path fill="#003750" d="M564.779,611.476c0.049,0.041,0.097,0.086,0.146,0.127C564.876,611.561,564.828,611.517,564.779,611.476z"
		/>
	<path fill="#003750" d="M634.588,760.369c0,3.332-0.085,6.645-0.252,9.937C634.503,767.015,634.588,763.701,634.588,760.369z"/>
	<path fill="#003750" d="M619.445,685.235c0.481,1.142,0.907,2.311,1.368,3.464C620.353,687.547,619.927,686.378,619.445,685.235z"
		/>
	<path fill="#003750" d="M634.336,750.431c0.167,3.292,0.252,6.605,0.252,9.938C634.588,757.036,634.503,753.723,634.336,750.431z"
		/>
	<path fill="#003750" d="M633.591,740.631c0.217,2.142,0.347,4.31,0.494,6.471C633.937,744.94,633.808,742.773,633.591,740.631z"/>
	<path fill="#003750" d="M632.364,730.971c0.267,1.749,0.454,3.523,0.673,5.287C632.817,734.494,632.631,732.72,632.364,730.971z"/>
	<path fill="#003750" d="M584.698,630.648c0.245,0.271,0.474,0.555,0.717,0.828C585.173,631.203,584.942,630.919,584.698,630.648z"
		/>
	<path fill="#003750" d="M590.715,637.646c0.307,0.375,0.594,0.766,0.899,1.143C591.309,638.412,591.022,638.021,590.715,637.646z"
		/>
	<path fill="#003750" d="M578.364,623.948c0.174,0.175,0.337,0.359,0.51,0.535C578.701,624.308,578.538,624.123,578.364,623.948z"/>
	<path fill="#003750" d="M571.719,617.552c0.113,0.104,0.22,0.214,0.333,0.318C571.939,617.766,571.832,617.656,571.719,617.552z"/>
	<path fill="#003750" d="M615.6,676.703c0.462,0.963,0.877,1.953,1.324,2.925C616.477,678.657,616.063,677.666,615.6,676.703z"/>
	<path fill="#003750" d="M611.355,668.383c0.453,0.839,0.865,1.702,1.306,2.547C612.221,670.085,611.809,669.222,611.355,668.383z"
		/>
	<path fill="#003750" d="M601.743,652.485c0.412,0.613,0.792,1.249,1.197,1.866C602.534,653.734,602.155,653.098,601.743,652.485z"
		/>
	<path fill="#003750" d="M596.398,644.925c0.371,0.5,0.717,1.02,1.084,1.523C597.115,645.945,596.769,645.425,596.398,644.925z"/>
	<path fill="#003750" d="M622.89,693.995c0.463,1.267,0.865,2.562,1.302,3.841C623.755,696.556,623.353,695.261,622.89,693.995z"/>
	<path fill="#003750" d="M627.06,813.758c-0.383,1.335-0.729,2.686-1.14,4.008C626.331,816.443,626.677,815.093,627.06,813.758z"/>
	<path fill="#003750" d="M634.082,773.66c-0.147,2.153-0.275,4.311-0.491,6.445C633.808,777.971,633.936,775.813,634.082,773.66z"/>
	<path fill="#003750" d="M602.838,866.553c-0.368,0.561-0.713,1.138-1.087,1.695C602.124,867.691,602.47,867.114,602.838,866.553z"
		/>
	<path fill="#003750" d="M624.142,823.049c-0.42,1.228-0.806,2.471-1.25,3.688C623.336,825.52,623.722,824.277,624.142,823.049z"/>
	<path fill="#003750" d="M607.899,858.409c-0.392,0.666-0.758,1.35-1.157,2.011C607.142,859.759,607.507,859.075,607.899,858.409z"
		/>
	<path fill="#003750" d="M612.588,849.954c-0.415,0.794-0.801,1.605-1.227,2.392C611.787,851.56,612.173,850.748,612.588,849.954z"
		/>
	<path fill="#003750" d="M620.754,832.19c-0.44,1.099-0.846,2.215-1.305,3.305C619.908,834.405,620.314,833.289,620.754,832.19z"/>
	<path fill="#003750" d="M616.863,841.247c-0.426,0.925-0.82,1.867-1.26,2.783C616.044,843.113,616.437,842.171,616.863,841.247z"/>
	<path fill="#003750" d="M629.529,804.227c-0.339,1.461-0.642,2.935-1.013,4.383C628.887,807.162,629.19,805.688,629.529,804.227z"
		/>
	<path fill="#003750" d="M564.86,909.212c-0.025,0.021-0.049,0.043-0.073,0.063C564.812,909.254,564.835,909.232,564.86,909.212z"/>
	<path fill="#003750" d="M597.353,874.479c-0.32,0.438-0.62,0.891-0.943,1.326C596.734,875.369,597.034,874.917,597.353,874.479z"/>
	<path fill="#003750" d="M631.51,794.568c-0.28,1.567-0.524,3.148-0.842,4.702C630.986,797.715,631.23,796.135,631.51,794.568z"/>
	<path fill="#003750" d="M633.029,784.546c-0.217,1.74-0.401,3.492-0.665,5.217C632.627,788.037,632.811,786.287,633.029,784.546z"
		/>
	<path fill="#003750" d="M571.95,902.984c-0.074,0.068-0.144,0.14-0.218,0.208C571.806,903.124,571.876,903.052,571.95,902.984z"/>
	<path fill="#003750" d="M591.507,882.096c-0.265,0.328-0.515,0.669-0.782,0.995C590.992,882.765,591.242,882.423,591.507,882.096z"
		/>
	<path fill="#003750" d="M585.344,889.357c-0.217,0.243-0.421,0.496-0.639,0.738C584.923,889.853,585.127,889.6,585.344,889.357z"/>
	<path fill="#003750" d="M578.815,896.332c-0.15,0.153-0.293,0.313-0.444,0.466C578.522,896.646,578.664,896.485,578.815,896.332z"
		/>
	<path fill="#003750" d="M496.149,638.681c0.613,0.941,1.23,1.88,1.795,2.853C497.378,640.559,496.762,639.623,496.149,638.681z"/>
	<path fill="#003750" d="M488.913,718.916c-1.423,1.516-2.919,2.965-4.481,4.345C485.994,721.88,487.491,720.433,488.913,718.916z"
		/>
	<path fill="#003750" d="M492.434,633.53c0.738,0.924,1.469,1.852,2.156,2.815C493.903,635.381,493.172,634.455,492.434,633.53z"/>
	<path fill="#003750" d="M499.376,644.218c0.489,0.94,0.991,1.871,1.434,2.836C500.367,646.088,499.864,645.158,499.376,644.218z"/>
	<path fill="#003750" d="M483.647,624.43c1.006,0.859,1.99,1.743,2.942,2.659C485.637,626.171,484.653,625.291,483.647,624.43z"/>
	<path fill="#003750" d="M504.2,656.379c0.248,0.874,0.534,1.731,0.746,2.619C504.735,658.109,504.449,657.253,504.2,656.379z"/>
	<path fill="#003750" d="M502.071,650.113c0.368,0.923,0.761,1.833,1.087,2.775C502.832,651.945,502.439,651.036,502.071,650.113z"
		/>
	<path fill="#003750" d="M473.339,617.155c1.282,0.734,2.532,1.513,3.758,2.326C475.87,618.667,474.621,617.891,473.339,617.155z"/>
	<path fill="#003750" d="M449.309,608.869c1.853,0.267,3.676,0.628,5.479,1.04C452.984,609.496,451.164,609.136,449.309,608.869z"/>
	<path fill="#003750" d="M442.783,608.241c2.016,0.096,4.005,0.297,5.973,0.564C446.787,608.538,444.8,608.337,442.783,608.241z"/>
	<path fill="#003750" d="M493.009,714.12c-1.192,1.537-2.464,3.011-3.787,4.439C490.544,717.13,491.818,715.658,493.009,714.12z"/>
	<path fill="#003750" d="M478.663,620.551c1.143,0.805,2.26,1.645,3.349,2.517C480.923,622.194,479.807,621.358,478.663,620.551z"/>
	<path fill="#003750" d="M455.652,610.097c1.706,0.414,3.38,0.91,5.033,1.449C459.031,611.005,457.36,610.511,455.652,610.097z"/>
	<path fill="#003750" d="M441.671,740.268c16.471-0.568,31.956-6.914,43.324-16.958C473.883,733.112,458,739.366,444,740.175
		V608.241c-6-0.088-4.339-0.153-6.234-0.089c-37.169,1.281-66.558,31.9-65.316,68.38C373.7,713.012,404.541,741.534,441.671,740.268
		z"/>
	<path fill="#003750" d="M461.795,611.903c1.562,0.539,3.091,1.149,4.6,1.796C464.885,613.05,463.359,612.443,461.795,611.903z"/>
	<path fill="#003750" d="M467.704,614.264c1.42,0.645,2.807,1.348,4.173,2.086C470.511,615.61,469.125,614.911,467.704,614.264z"/>
	<path fill="#003750" d="M488.251,628.766c0.869,0.897,1.723,1.808,2.54,2.753C489.974,630.573,489.12,629.665,488.251,628.766z"/>
	<path fill="#003750" d="M505.737,663.146c0.127,0.741,0.303,1.465,0.404,2.214C506.039,664.61,505.864,663.887,505.737,663.146z"/>
	<path fill="#003750" d="M505.801,685.209c-0.188,1.091-0.478,2.148-0.72,3.221C505.323,687.357,505.613,686.301,505.801,685.209z"
		/>
	<path fill="#003750" d="M504.378,691.544c-0.345,1.24-0.792,2.436-1.207,3.647C503.586,693.98,504.034,692.784,504.378,691.544z"/>
	<path fill="#003750" d="M496.632,708.96c-0.963,1.52-2.013,2.981-3.096,4.417C494.618,711.94,495.67,710.481,496.632,708.96z"/>
	<path fill="#003750" d="M499.758,703.456c-0.727,1.437-1.547,2.819-2.376,4.195C498.21,706.274,499.032,704.893,499.758,703.456z"
		/>
	<path fill="#003750" d="M502.352,697.639c-0.52,1.339-1.139,2.629-1.744,3.925C501.212,700.267,501.832,698.978,502.352,697.639z"
		/>
	<path fill="#003750" d="M506.588,678.662c-0.055,0.807-0.2,1.589-0.285,2.388C506.388,680.25,506.533,679.469,506.588,678.662z"/>
	<path fill="#003750" d="M482.117,925.04c-4.609,0.986-9.179,1.811-13.64,2.475C472.939,926.852,477.508,926.026,482.117,925.04z"/>
	<path fill="#003750" d="M444,792.368l42.19-43.264l-43.285,43.443l-49.016-42.47c-35.245,13.669-59.204,41.918-58.11,73.789
		l6.383,75.944c-2.098-2.098,40.341,29.541,101.495,29.693c-0.082-0.003,0.345-0.007,0.345-0.007V792.368z"/>
	<path fill="#003750" d="M542.543,816.795l3.136,81.752c-14.828,11.364-35.784,19.738-56.627,24.894
		c20.844-5.155,41.8-13.529,56.628-24.893L542.543,816.795z"/>
	<path fill="#211915" d="M444,566.496L444,566.496c0,0.492,88.238,17.314,121.391,44.98c0.049,0.041-0.209,0.085-0.16,0.127
		c2.31,1.932,4.423,3.914,6.641,5.95c0.113,0.104,0.143,0.214,0.257,0.318c2.148,1.981,4.218,4.003,6.274,6.078
		c0.174,0.175,0.318,0.359,0.491,0.535c1.982,2.015,3.921,4.065,5.814,6.165c0.245,0.271,0.47,0.555,0.713,0.828
		c1.804,2.023,3.577,4.073,5.297,6.17c0.307,0.375,0.593,0.766,0.897,1.143c1.629,2.018,3.236,4.053,4.784,6.136
		c0.372,0.5,0.717,1.02,1.084,1.523c1.45,1.99,2.886,3.99,4.261,6.036c0.412,0.613,0.792,1.249,1.197,1.866
		c1.29,1.968,2.573,3.94,3.793,5.956c0.441,0.73,0.846,1.484,1.278,2.221c1.137,1.937,2.274,3.875,3.345,5.855
		c0.453,0.838,0.865,1.702,1.306,2.547c0.999,1.913,2.002,3.823,2.938,5.772c0.462,0.963,0.877,1.953,1.324,2.925
		c0.856,1.861,1.723,3.715,2.521,5.607c0.482,1.142,0.908,2.311,1.368,3.464c0.703,1.76,1.425,3.51,2.077,5.295
		c0.463,1.267,0.865,2.562,1.302,3.841c0.583,1.706,1.19,3.4,1.726,5.127c0.428,1.378,0.79,2.784,1.188,4.175
		c0.474,1.659,0.978,3.306,1.408,4.983c0.38,1.481,0.691,2.989,1.037,4.483c0.375,1.619,0.782,3.226,1.116,4.86
		c0.322,1.576,0.57,3.179,0.854,4.769c0.282,1.579,0.6,3.146,0.842,4.738c0.267,1.749,0.453,3.523,0.673,5.287
		c0.182,1.459,0.404,2.905,0.553,4.373c0.217,2.142,0.347,4.31,0.494,6.471c0.076,1.112,0.195,2.211,0.252,3.329
		c0.167,3.292,0.252,6.605,0.252,9.938c0,3.332-0.085,6.646-0.252,9.937c-0.057,1.126-0.178,2.233-0.254,3.354
		c-0.146,2.153-0.274,4.311-0.491,6.445c-0.151,1.491-0.377,2.96-0.562,4.442c-0.217,1.741-0.402,3.491-0.665,5.217
		c-0.247,1.614-0.568,3.203-0.854,4.804c-0.28,1.567-0.524,3.148-0.842,4.702c-0.341,1.667-0.756,3.306-1.139,4.958
		c-0.339,1.461-0.641,2.935-1.013,4.383c-0.445,1.732-0.964,3.434-1.455,5.148c-0.383,1.335-0.73,2.685-1.14,4.008
		c-0.552,1.779-1.177,3.525-1.778,5.282c-0.421,1.228-0.806,2.471-1.25,3.688c-0.671,1.838-1.413,3.641-2.138,5.453
		c-0.44,1.099-0.846,2.216-1.305,3.305c-0.818,1.941-1.707,3.844-2.586,5.753c-0.426,0.924-0.82,1.866-1.26,2.783
		c-0.96,2.001-1.989,3.962-3.016,5.924c-0.415,0.794-0.801,1.605-1.227,2.392c-1.108,2.05-2.283,4.057-3.463,6.062
		c-0.392,0.666-0.757,1.35-1.157,2.011c-1.255,2.076-2.574,4.109-3.904,6.133c-0.368,0.561-0.714,1.138-1.087,1.695
		c-1.419,2.112-2.899,4.179-4.397,6.231c-0.32,0.438-0.62,0.891-0.943,1.326c-1.586,2.135-3.232,4.224-4.903,6.291
		c-0.265,0.328-0.515,0.669-0.782,0.995c-1.746,2.131-3.548,4.213-5.38,6.266c-0.217,0.243-0.421,0.496-0.639,0.738
		c-1.915,2.124-3.884,4.199-5.89,6.237c-0.151,0.153-0.293,0.313-0.444,0.466c-2.092,2.111-4.235,4.172-6.421,6.186
		c-0.074,0.068-0.144,0.14-0.218,0.208c-2.242,2.059-4.534,4.066-6.871,6.02c-0.025,0.02-0.048,0.9-0.073,0.921
		C531.634,937.814,489.952,956,443.6,956h0.4v83h21v-19.551c7-0.804,17.607-2.076,26.704-3.816c6.28-1.2,11.929-2.706,18.049-4.351
		c2.746-0.738,5.244-1.438,7.954-2.265l7.495,18.96l41.082-16.719l0,0l-3.898-9.613l-3.882-9.613l0,0
		c6.682-3.4,13.128-7.152,19.464-11.081c10.559-6.548,20.679-13.742,30.199-21.751l14.623,14.689l31.384-31.42l-14.675-14.646l0,0
		c3.033-3.587,5.968-7.263,8.803-11.021c8.506-11.274,16.11-23.288,22.723-35.879l19.059,8.006l17.092-40.977l-18.89-7.965
		c1.472-4.581,2.816-9.018,4.032-13.707c3.647-14.065,6.132-29.279,7.38-43.279H721v-44.805L720.323,735H699.7
		c-1.594-14-6.7-35.523-12.7-52.989v0.822l20.144-7.271l-16.138-40.984l-18.937,7.941c-9.065-17.86-19.855-34.529-32.711-49.611
		l14.745-14.676l-31.35-31.367l-14.608,14.695c-3.614-3.034-7.294-5.967-11.058-8.802c-3.764-2.836-7.597-5.569-11.508-8.199
		c-7.821-5.261-15.93-10.107-24.317-14.512l7.98-19.043l0,0l-41.019-17.17l-7.88,18.28C501.989,506.178,483.904,500,464.042,500H465
		v-21h-21V566.496z"/>
	<path fill="#211915" d="M484.995,723.31c0.017-0.015-0.273-0.033-0.256-0.048c1.562-1.38,2.904-2.83,4.328-4.345
		c0.108-0.115,0.125-0.241,0.232-0.357c1.323-1.428,2.557-2.902,3.749-4.439c0.187-0.24,0.325-0.501,0.508-0.744
		c1.082-1.436,2.123-2.897,3.086-4.417c0.269-0.425,0.486-0.879,0.745-1.309c0.828-1.376,1.647-2.758,2.373-4.195
		c0.311-0.616,0.557-1.265,0.849-1.891c0.605-1.297,1.223-2.586,1.743-3.925c0.31-0.8,0.539-1.635,0.819-2.448
		c0.415-1.211,0.863-2.407,1.207-3.647c0.284-1.02,0.469-2.075,0.703-3.114c0.242-1.073,0.532-2.13,0.719-3.221
		c0.235-1.366,0.355-2.767,0.502-4.16c0.085-0.799,0.229-1.581,0.285-2.388c0.152-2.216,0.194-4.459,0.116-6.727
		c-0.076-2.224-0.27-4.416-0.563-6.575c-0.101-0.749-0.277-1.473-0.404-2.214c-0.238-1.393-0.465-2.788-0.79-4.148
		c-0.212-0.888-0.498-1.745-0.746-2.619c-0.333-1.17-0.646-2.347-1.042-3.49c-0.326-0.943-0.72-1.853-1.087-2.775
		c-0.41-1.026-0.802-2.059-1.261-3.059c-0.443-0.965-0.945-1.896-1.434-2.836c-0.468-0.901-0.924-1.808-1.433-2.685
		c-0.565-0.973-1.181-1.912-1.795-2.853c-0.512-0.785-1.014-1.574-1.558-2.335c-0.688-0.963-1.419-1.891-2.156-2.815
		c-0.541-0.677-1.077-1.356-1.643-2.011c-0.817-0.945-1.671-1.855-2.54-2.753c-0.548-0.566-1.094-1.13-1.662-1.677
		c-0.952-0.916-1.936-1.8-2.942-2.659c-0.539-0.462-1.081-0.918-1.635-1.362c-1.089-0.872-2.205-1.712-3.349-2.517
		c-0.517-0.364-1.039-0.72-1.567-1.07c-1.226-0.813-2.477-1.592-3.758-2.326c-0.483-0.276-0.972-0.541-1.462-0.806
		c-1.366-0.738-2.752-1.44-4.173-2.086c-0.432-0.196-0.872-0.378-1.309-0.565c-1.509-0.647-3.037-1.257-4.6-1.796
		c-0.367-0.127-0.74-0.236-1.11-0.357c-1.654-0.539-3.327-1.035-5.033-1.449c-0.286-0.069-0.577-0.121-0.864-0.187
		c-1.803-0.412-3.625-0.774-5.479-1.04c-0.183-0.026-0.37,0.841-0.554,0.816c-1.968-0.267-3.957,0.315-5.973,0.315h0.816H444
		v130.175C458,739.366,473.883,733.112,484.995,723.31z"/>
	<path fill="#211915" d="M542.543,816.795c-1.017-30.098-23.42-55.473-56.354-67.691L444,792.368v137.128
		c0,0-0.446,0.005-0.364,0.008c0.177,0.008,0.046,0.017,0.227,0.017c7.508-0.004,15.845-0.679,24.767-2.006
		c4.461-0.663,8.954-1.489,13.563-2.475c2.305-0.493,4.581-1.026,6.897-1.599c20.844-5.155,41.78-13.53,56.608-24.894
		L542.543,816.795z"/>
	<polygon fill="#4ABCDE" points="986.49,371.411 996.875,361.065 986.49,371.411 	"/>
	<path fill="#4ABCDE" d="M846,626.728c-76-1.604-135.67-62.377-135.67-136.959c0-75.585,60.771-137.123,136.364-137.123
		c56.695,0,105.045,34.615,125.866,83.81c-20.821-49.195-68.22-83.811-124.915-83.811c-1.005,0-1.645,0.13-1.645,0.152V292h-14
		v14.665c-14,1.11-27.084,3.561-39.395,7.37l-5.897-13.399l-29.362,11.796L762.772,326c-12.559,6.399-24.449,14.186-35.134,23.222
		l-10.381-10.331l-22.241,22.174l10.347,10.346c-8.527,10.191-16.064,21.263-22.268,33.12l-13.402-5.612l-12.174,28.909
		l13.353,4.616C666.738,445.398,663.98,458,662.752,472H645v35h17.752c1.227,13,3.632,25.477,7.425,37.812l-13.423,5.036
		l11.781,28.856l13.614-5.588c6.484,12.597,14.164,24.33,23.206,35.092l-10.354,10.29l22.228,22.209l10.354-10.385
		c10.154,8.635,21.294,16.08,33.113,22.309l-5.628,13.46l28.973,12.149l6.489-13.398c12.907,4.162,27.469,6.891,41.469,8.033V686
		h29.601l0,0H846V626.728z"/>
	<polygon fill="#4ABCDE" points="900.157,665.504 905.569,678.965 934.696,667.138 905.569,678.964 	"/>
	<path fill="#4ABCDE" d="M952.468,639.373c-4.537,3.231-9.185,6.316-14.01,9.13C943.284,645.689,947.932,642.604,952.468,639.373z"
		/>
	<polygon fill="#4ABCDE" points="1021.693,435.509 1035.038,430.127 1021.693,435.508 	"/>
	<path fill="#4ABCDE" d="M845.934,626.878c-0.486,0-0.955-0.068-1.44-0.073C844.972,626.839,845.448,626.879,845.934,626.878
		c42.522,0,80.562-19.466,105.709-49.952C926.496,607.412,888.456,626.878,845.934,626.878z"/>
	<path fill="#4ABCDE" d="M900.157,665.504c-12.335,3.854-25.25,6.306-38.557,7.37C874.908,671.81,887.822,669.358,900.157,665.504z"
		/>
	<path fill="#4ABCDE" d="M972.18,543.08c-3.47,8.199-7.716,15.992-12.644,23.288C964.464,559.072,968.71,551.278,972.18,543.08z"/>
	<polygon fill="#4ABCDE" points="964.248,630.316 964.248,630.316 974.625,640.694 996.875,618.474 974.625,640.694 	"/>
	<rect x="1029.095" y="507" fill="#4ABCDE" width="14.556" height="0"/>
	<path fill="#4ABCDE" d="M998.501,592.202c3.717-5.534,7.141-11.274,10.248-17.195l13.453,5.69l0,0l-13.453-5.691
		C1005.641,580.928,1002.218,586.668,998.501,592.202z"/>
	<polygon fill="#4ABCDE" points="934.696,667.138 929.184,653.569 929.184,653.569 	"/>
	
		<rect x="926.641" y="320.218" transform="matrix(-0.3838 0.9234 -0.9234 -0.3838 1588.149 -419.3041)" fill="#4ABCDE" width="14.66" height="0"/>
	<path fill="#4ABCDE" d="M1026.742,522.665c-1.439,7.988-3.32,15.811-5.744,23.431
		C1023.422,538.477,1025.303,530.654,1026.742,522.665z"/>
	<path fill="#4798B1" d="M1019,434.471c0,0,0,0.518,0,0.518l14.691-5.122l-11.068-28.967l-13.279,5.539
		c-1.607-3.142-4.369-6.202-6.136-9.241c-5.3-9.119-12.207-17.744-19.207-25.804v0.008l11.63-10.342l-21.627-22.172l-9.96,10.333
		c-2.571-2.155-5.037-4.226-7.708-6.23c-8.013-6.01-16.389-8.992-25.254-15.992h0.038l5.646-14h0.01l-28.982-11.926l-5.611,13.573
		c-3.23-1.041-7.302-1.938-10.613-2.8c-9.934-2.587-18.569-4.303-31.569-5.182V292h-14v60.796c0-0.022,0.451-0.152,1.455-0.152
		c56.695,0,104.664,34.616,125.485,83.811c6.94,16.398,10.4,34.417,10.4,53.313s-4.03,36.914-10.97,53.311
		c-3.47,8.199-7.811,15.992-12.739,23.288c-2.464,3.648-5.147,7.171-7.941,10.559c-25.147,30.486-63.211,49.952-105.732,49.952
		c-0.486,0-0.975-1.403-1.453-1.437c-0.509-0.036,0.334-1.442-0.181-1.442H846v62h14v-13.126c13-1.064,27.022-3.517,39.357-7.37
		l5.812,13.46l29.328-12.61L929.053,652h0.066c3.14,0,6.266-2.508,9.307-4.282c4.826-2.814,9.49-5.507,14.027-8.737
		c4.041-2.878,8.012-5.663,11.788-8.86l0,0l10.381,10.475l22.251-22.171l-10.384-10.29c4.283-5.096,8.294-10.411,12.012-15.945
		c3.717-5.534,7.04-11.268,10.147-17.189l13.353,5.694v0.002l12.22-28.987l-13.272-5.612c2.424-7.62,5.782-15.443,7.221-23.431
		c1.019-5.655-2.169-10.797,3.831-16.645V507h14v-35h-16.905C1027.945,458,1026,446.837,1019,434.471z"/>
</g>
</svg>
