<?xml version="1.0" encoding="utf-8"?>
<!-- Generator: Adobe Illustrator 19.1.0, SVG Export Plug-In . SVG Version: 6.00 Build 0)  -->
<svg version="1.1" id="Layer_1" xmlns="http://www.w3.org/2000/svg" xmlns:xlink="http://www.w3.org/1999/xlink" x="0px" y="0px"
	 viewBox="0 0 1200 1200" enable-background="new 0 0 1200 1200" xml:space="preserve">
<g>
	<path fill="#3CB997" d="M344.317,718.893c0,7.462-2.29,13.474-7.051,18.036c4.761-4.562,7.147-10.573,7.147-18.036
		c0-4.011-0.921-7.61-2.561-10.888C343.45,711.283,344.317,714.883,344.317,718.893z"/>
	<path fill="#3CB997" d="M287.319,692.496c-3.84-4.562-7.002-10.125-7.002-16.688c0,6.563,2.749,12.125,6.589,16.688
		c3.846,4.563,9.336,8.799,23.193,12.71C296.243,701.295,291.165,697.059,287.319,692.496z"/>
	<path fill="#3CB997" d="M866.309,679.26c-4.4-5.226-7.718-11.599-7.718-19.117c0,7.518,2.946,13.891,7.346,19.117
		c4.407,5.227,12.309,10.08,26.166,14.56C878.246,689.34,870.715,684.487,866.309,679.26z"/>
	<path fill="#3CB997" d="M923.802,690.538c1.851,1.979,3.318,4.165,4.561,6.458c-1.151-2.292-2.538-4.479-4.389-6.458
		c-4.891-5.226-11.086-9.875-24.943-13.944C912.889,680.663,918.911,685.313,923.802,690.538z"/>
	<path fill="#3CB997" d="M622.248,228.993c-0.81-1.613-1.786-3.151-3.088-4.544c-3.439-3.675-11.13-6.945-18.059-9.807
		c6.929,2.862,14.369,6.132,17.809,9.807C620.212,225.842,621.305,227.381,622.248,228.993z"/>
	<path fill="#3CB997" d="M50,978.385c0,128.379,43.879,171.611,161.475,171.611h794.835c80.669,0,144.46-32.846,143.682-132.746
		v-823.45c0-79.088-49.613-143.797-143.797-143.797h-832.55C94.557,50.004,50,114.713,50,165.986V978.385z M195.068,429.511
		c0,0,80.529,0.634,80.529,30.167c0,29.524-5.369,33.472-45.635,33.472H69.984V357.68c9.135-3.931,20.228-6.334,33.815-6.334
		C184.328,351.345,195.068,429.511,195.068,429.511z M1023.565,1130.012H176.429c-30.292,0-57.663-12.891-77.095-33.378
		c113.846-24.901,278.213-49.747,487.91-49.086v-15.616c-20.786-21.411-64.842-67.636-110.393-116.137h-58.298
		c-27.322,27.714-58.803,46.622-91.594,48.266c-1.848,0.091-3.696,0.356-5.544,0.356c-36.028,0-72.071-17.508-107.215-52.239
		l-12.725-12.457l12.173-12.872c1.824-1.969,45.333-47.63,106.596-48.955c35.504-0.691,69.007,15.544,99.74,43.259h21.413
		c-25.239-27.714-49.642-51.528-69.617-70.513l5.274-6.496c-19.306,12.268-42.137,19.479-66.657,19.479
		c-68.781,0-124.762-55.955-124.762-124.736c0-68.782,55.922-124.746,124.703-124.746c68.781,0,124.658,55.964,124.658,124.746
		c0,35.839-15.437,68.104-39.72,90.878c35.008,33.276,67.253,60.991,88.039,84.208v-34.665
		c-13.857-16.518-57.094-73.552,4.495-175.664l15.283-25.12l15.728,24.528c30.167,45.951,39.967,86.638,30.561,120.898
		c-6.378,23.242-17.567,37.404-31.424,44.888v80.545c34.643,30.42,55.429,49.743,69.286,62.154V634.049l-89.094-97.576
		c-11.312,7.117-25.921,11.301-40.246,11.301c-40.518,0-73.395-32.964-73.395-73.482s33.124-73.471,73.641-73.471
		c40.517,0,73.805,32.953,73.805,73.471c0,15.038-3.899,29.023-11.68,40.681l66.969,72.948V332.663
		c-55.429-6.03-98.624-52.412-98.624-108.605c0-60.276,47.657-109.309,107.931-109.309c60.274,0,109.186,49.034,109.186,109.309
		c0,53.854-42.278,98.626-90.779,107.574v143.102c13.857-13.414,25.988-29.837,37.506-43.26
		c0.652-11.919,4.778-42.342,27.429-65.037c18.192-18.231,43.523-26.949,75.769-26.266l11.726,0.306v12.048
		c0,24.006-9.381,80.663-95.727,94.238c-9.816,11.443-42.845,50.817-56.703,65.388V631.41l17.562-20.131
		c0.685-15.408,5.579-55.5,34.508-85.343c21.62-22.317,51.591-32.785,89.07-32.785h14.127l1.176,13.23
		c3.329,37.714-5.624,68.432-25.767,90.428c-18.758,20.489-46.459,32.118-82.212,34.676l-48.463,57.25V960.96L803.2,778.899
		c-25.853-23.612-41.941-57.471-41.941-95.159c0-71.141,57.879-129.025,129.02-129.025c71.147,0,128.961,57.884,128.961,129.025
		c0,71.142-57.943,129.025-129.089,129.025c-22.204,0-43.244-5.642-61.508-15.563l-213.684,206.701v43.891
		c142.368,1.958,304.754,15.783,485.595,48.956C1081.128,1117.171,1053.801,1130.012,1023.565,1130.012z M871.809,437.722
		c-62.727,0-27.879-58.545-6.974-72.489c36.343-24.213,97.587-2.791,97.587-2.791s-14.436-41.459,15.172-75.744
		c36.719-42.53,99.845,2.56,99.845,2.56s4.02-49.151,52.571-54.337v202.8H871.809z"/>
	<path fill="#3CB997" d="M594.173,181.558c-6.929,0.653-11.574,2.98-15.597,6.982c-4.018,4.002-5.656,8.846-5.656,14.532
		c0-5.685,1.763-10.53,5.78-14.532C582.723,184.538,587.244,182.211,594.173,181.558z"/>
	<path fill="#FFFFFF" d="M669.072,224.058c0-39.916-32.477-72.388-72.392-72.388c-39.915,0-72.387,32.472-72.387,72.388
		c0,39.914,32.472,72.387,72.387,72.387C636.595,296.445,669.072,263.971,669.072,224.058z M574,254.356v-15.048
		c0,1.702,5.469,3.277,9.632,4.725c4.163,1.449,11.368,2.282,11.368,2.5v-19.775c-7-3.152-14.298-6.564-17.397-10.24
		c-3.094-3.676-4.477-8.158-4.477-13.447c0-5.685,1.948-10.53,5.966-14.532c4.023-4.002,8.908-6.329,15.908-6.982V174h7v7.341
		c6,0.363,13,1.593,20,3.694v14.669c-7-3.078-14-4.961-20-5.649v20.588c6,2.862,14.17,6.132,17.609,9.807
		c1.302,1.392,2.054,2.931,2.864,4.544c1.548,2.646,2.462,5.553,2.462,8.794c0,6.013-2.03,10.857-5.867,14.532
		c-3.841,3.676-11.068,5.913-17.068,6.71V271h-7v-11.645C588,259.318,581,257.653,574,254.356z"/>
	<path fill="#FFFFFF" d="M609.771,238.548c0-3.55-1.771-6.447-7.771-8.693v16.461C608,245.52,609.771,242.93,609.771,238.548z"/>
	<path fill="#FFFFFF" d="M595,194.271c-7,0.906-7.551,3.531-7.551,7.877c0,3.732,0.551,6.845,7.551,9.345V194.271z"/>
	<path fill="#F3D642" d="M893,647.629c-7,1.288-10.737,5.02-10.737,11.2c0,5.305,3.737,9.732,10.737,13.286V647.629z"/>
	<path fill="#F3D642" d="M890.279,774.577c50.089,0,90.838-40.748,90.838-90.837c0-50.089-40.749-90.837-90.838-90.837
		c-50.084,0-90.833,40.748-90.833,90.837C799.446,733.829,840.194,774.577,890.279,774.577z M858,711.665
		c7,2.42,10.346,4.659,16.266,6.718c5.919,2.061,11.734,3.245,18.734,3.554v-28.117c-14-4.481-22.208-9.334-26.614-14.56
		c-4.4-5.226-7.57-11.599-7.57-19.117c0-8.084,3.94-14.973,9.653-20.663c5.721-5.69,10.532-9,24.532-9.927V618h6v11.245
		c14,0.516,21,2.266,28,5.252v20.856c-7-4.376-21-7.054-28-8.033v29.274c14,4.069,20.068,8.718,24.959,13.944
		c1.851,1.979,3.246,4.165,4.397,6.458c2.04,3.763,3.299,7.897,3.299,12.506c0,8.548-3.092,15.436-8.547,20.661
		c-5.461,5.228-10.107,8.407-24.107,9.541V756h-6v-15.832c-14-0.052-21-2.421-35-7.107V711.665z"/>
	<path fill="#F3D642" d="M910.049,710.583c0-5.047-4.049-9.166-11.049-12.359v23.404C906,720.497,910.049,716.814,910.049,710.583z"
		/>
	<path fill="#95C8ED" d="M457.822,431.676c-23.503,0-42.622,19.115-42.622,42.617c0,23.503,19.119,42.627,42.622,42.627
		c23.503,0,42.622-19.123,42.622-42.627C500.444,450.79,481.325,431.676,457.822,431.676z"/>
	<path fill="#FFFFFF" d="M310.417,611.062c-48.422,0-87.819,39.403-87.819,87.825c0,48.421,39.398,87.815,87.819,87.815
		c48.422,0,87.815-39.393,87.815-87.815C398.231,650.465,358.839,611.062,310.417,611.062z M337.252,736.929
		c-4.768,4.563-13.252,7.339-20.252,8.328V756h-6v-10.339c-14-0.045-21-2.112-28-6.204v-18.676c0,2.112,7.756,4.068,12.923,5.865
		c5.166,1.799,8.077,2.833,15.077,3.102v-24.542c-14-3.911-19.797-8.147-23.643-12.71c-3.84-4.562-6.814-10.125-6.814-16.688
		c0-7.057,3.66-13.069,8.646-18.037c4.993-4.966,7.811-7.856,21.811-8.665V639h6v9.838c7,0.45,14,1.978,21,4.585v18.206
		c-7-3.82-14-6.158-21-7.012v25.553c7,3.552,16.772,7.611,21.041,12.172c1.623,1.736,2.824,3.654,3.804,5.665
		c1.64,3.277,2.557,6.877,2.557,10.888C344.402,726.356,342.013,732.368,337.252,736.929z"/>
	<path fill="#FFFFFF" d="M301.628,674.661c0,4.631,2.372,8.496,9.372,11.598v-21.374C304,666.01,301.628,669.267,301.628,674.661z"
		/>
	<path fill="#FFFFFF" d="M317,709.049v20.43c7-0.988,9.644-4.203,9.644-9.641C326.644,715.432,324,711.837,317,709.049z"/>
	<path fill="#FFFFFF" d="M1076.434,289.258c0,0-62.623-45.09-99.343-2.56c-29.607,34.284-14.921,75.744-14.921,75.744
		s-61.118-21.283-97.461,2.93c-20.905,13.944-55.627,72.628,7.1,72.628H1128V234.921
		C1080,240.107,1076.434,289.258,1076.434,289.258z"/>
	<path fill="#FFFFFF" d="M68,493h161.962c40.266,0,45.635-3.873,45.635-33.397c0-29.532-80.529-30.129-80.529-30.129
		s-11.732-78.147-92.26-78.147C89.22,351.326,82,353.749,68,357.68V493z"/>
	<path fill="#003750" d="M893,756h6v-16.296c14-1.133,18.648-4.313,24.109-9.541c5.455-5.225,8.541-12.113,8.541-20.661
		c0-4.608-1.25-8.742-3.291-12.506c-1.243-2.292-2.724-4.479-4.575-6.458c-4.891-5.226-10.785-9.875-24.785-13.944V647.32
		c7,0.979,21,3.657,28,8.033v-20.856c-7-2.986-14-4.736-28-5.252V618h-6v11.553c-14,0.927-18.923,4.237-24.644,9.927
		c-5.712,5.69-9.541,12.579-9.541,20.663c0,7.518,3.654,13.891,8.054,19.117c4.406,5.227,12.131,10.08,26.131,14.56v28.117
		c-7-0.309-12.815-1.493-18.734-3.554c-5.919-2.059-9.266-4.298-16.266-6.718v21.395c14,4.687,21,7.055,35,7.107V756z M899,698.224
		c7,3.194,11.049,7.313,11.049,12.359c0,6.231-4.049,9.913-11.049,11.045V698.224z M882.263,658.829c0-6.18,3.737-9.912,10.737-11.2
		v24.486C886,668.561,882.263,664.134,882.263,658.829z"/>
	<path fill="#003750" d="M341.852,708.006c-0.981-2.012-2.188-3.93-3.811-5.665c-4.269-4.561-14.041-8.619-21.041-12.172v-25.553
		c7,0.854,14,3.192,21,7.012v-18.206c-7-2.607-14-4.134-21-4.585V639h-6v10.107c-14,0.81-16.93,3.699-21.924,8.665
		c-4.987,4.967-8.534,10.98-8.534,18.037c0,6.563,3.499,12.125,7.339,16.688c3.846,4.563,9.118,8.799,23.118,12.71v24.542
		c-7-0.269-9.911-1.303-15.077-3.102c-5.167-1.797-12.923-3.753-12.923-5.865v18.676c7,4.091,14,6.159,28,6.204V756h6v-10.743
		c7-0.989,15.484-3.765,20.252-8.328c4.761-4.562,7.058-10.573,7.058-18.036C344.31,714.883,343.45,711.283,341.852,708.006z
		 M311,686.259c-7-3.102-9.372-6.967-9.372-11.598c0-5.394,2.372-8.652,9.372-9.776V686.259z M317,729.479v-20.43
		c7,2.787,9.644,6.383,9.644,10.788C326.644,725.276,324,728.491,317,729.479z"/>
	<path fill="#003750" d="M602,271v-11.971c6-0.797,13.171-3.033,17.012-6.71c3.837-3.675,6.035-8.52,6.035-14.532
		c0-3.24-1.138-6.147-2.686-8.794c-0.943-1.613-1.643-3.151-2.945-4.544c-3.439-3.675-11.415-6.945-17.415-9.807v-20.588
		c6,0.688,13,2.571,20,5.649v-14.669c-7-2.1-14-3.331-20-3.694V174h-7v7.558c-7,0.653-11.863,2.98-15.887,6.982
		c-4.018,4.002-5.987,8.846-5.987,14.532c0,5.288,1.486,9.771,4.581,13.447c3.099,3.676,10.293,7.088,17.293,10.24v19.775
		c0-0.217-7.205-1.05-11.368-2.5c-4.163-1.448-9.632-3.023-9.632-4.725v15.048c7,3.296,14,4.962,21,4.999V271H602z M602,229.855
		c6,2.246,7.771,5.143,7.771,8.693c0,4.382-1.771,6.972-7.771,7.768V229.855z M587.449,202.148c0-4.346,0.551-6.971,7.551-7.877
		v17.222C588,208.993,587.449,205.879,587.449,202.148z"/>
	<path fill="#B4D1B6" d="M742.27,365.223c-18.807,1.552-33.769,7.761-44.582,18.521c-11.332,11.267-16.342,25.751-18.558,36.585
		C715.907,412.109,737.436,393.315,742.27,365.223z"/>
	<path fill="#95C8ED" d="M741.258,523.107c-21.705,2.37-39.127,10.184-51.918,23.291c-16.361,16.773-22.364,39.202-24.563,54.047
		c25.968-2.37,45.509-10.576,58.23-24.467C736.788,560.922,740.912,540.774,741.258,523.107z"/>
	<path fill="#B4D1B6" d="M497.641,800.08c4.866-3.616,13.73-11.851,17.587-25.904c4.675-17.034,0.999-38.458-10.637-62.925
		C478.427,767.397,492.207,792.988,497.641,800.08z"/>
	<path fill="#C8D3A0" d="M254.959,899.203c24.105,19.817,47.678,29.228,70.152,28.143c24.386-1.215,44.841-14.905,59.997-29.65
		c-20.475-16.241-41.933-24.437-63.789-23.834C293.287,874.375,269.311,888.416,254.959,899.203z"/>
	<path fill="#003750" d="M615,1047.794v-43.891l213.663-206.701c18.264,9.921,39.293,15.563,61.497,15.563
		c71.147,0,129.084-57.883,129.084-129.025c0-71.141-57.817-129.025-128.963-129.025c-71.141,0-129.021,57.884-129.021,129.025
		c0,37.688,16.108,71.547,41.961,95.159L615,960.96V688.736l48.443-57.25c35.754-2.559,63.443-14.187,82.202-34.676
		c20.143-21.996,29.091-52.789,25.762-90.504L770.225,493h-14.127c-37.479,0-67.45,10.543-89.07,32.86
		c-28.929,29.843-33.802,69.972-34.487,85.381L615,631.41V512.151c14-14.571,47.172-53.945,56.988-65.388
		C758.334,433.187,768,376.53,768,352.525v-12.048l-12.032-0.306c-32.246-0.683-57.73,8.035-75.922,26.266
		c-22.651,22.695-26.833,53.118-27.484,65.037C641.044,444.897,629,461.32,615,474.734V331.632
		c49-8.948,90.758-53.72,90.758-107.574c0-60.276-48.922-109.309-109.196-109.309c-60.274,0-107.558,49.034-107.558,109.309
		c0,56.192,42.996,102.575,98.996,108.605v255.259l-67.347-72.948c7.781-11.657,11.491-25.643,11.491-40.681
		c0-40.518-33.382-73.471-73.899-73.471c-40.518,0-73.689,32.953-73.689,73.471s32.853,73.482,73.371,73.482
		c14.325,0,29.3-4.184,40.612-11.301L588,634.049v337.486c-14-12.411-35-31.734-70-62.154v-80.545
		c14-7.484,25.025-21.646,31.403-44.888c9.406-34.26-0.404-74.947-30.571-120.898l-15.733-24.528l-14.943,25.12
		C426.566,765.755,470,822.789,484,839.306v34.665c-21-23.217-53.373-50.931-88.382-84.208
		c24.284-22.773,39.549-55.038,39.549-90.878c0-68.782-55.962-124.746-124.743-124.746c-68.781,0-124.746,55.964-124.746,124.746
		c0,68.781,55.96,124.736,124.74,124.736c24.52,0,47.341-7.212,66.647-19.479l-5.28,6.42C391.76,829.548,416.158,853,441.397,881
		h-21.413c-30.734-28-64.236-43.873-99.74-43.182c-61.263,1.325-104.773,47.024-106.596,48.993l-12.173,12.891l12.725,12.467
		c35.144,34.732,71.187,52.244,107.215,52.244c1.848,0,3.696-0.16,5.544-0.251C359.75,962.517,391.231,944,418.553,916h58.298
		C522.402,964,567,1010.521,588,1031.932v15.616C597,1047.577,606,1047.666,615,1047.794z M799.446,683.74
		c0-50.089,40.748-90.837,90.833-90.837c50.089,0,90.838,40.748,90.838,90.837c0,50.089-40.749,90.837-90.838,90.837
		C840.194,774.577,799.446,733.829,799.446,683.74z M689.341,546.398c12.791-13.107,30.212-20.921,51.918-23.291
		c-0.347,17.667-4.47,37.815-18.25,52.872c-12.721,13.89-32.262,22.096-58.23,24.467C666.977,585.6,672.98,563.171,689.341,546.398z
		 M697.688,383.744c10.813-10.76,25.775-16.969,44.582-18.521c-4.834,28.092-26.363,46.887-63.14,55.106
		C681.346,409.495,686.356,395.011,697.688,383.744z M457.822,516.92c-23.503,0-42.622-19.123-42.622-42.627
		c0-23.502,19.119-42.617,42.622-42.617c23.503,0,42.622,19.115,42.622,42.617C500.444,497.796,481.325,516.92,457.822,516.92z
		 M310.417,786.701c-48.422,0-87.819-39.393-87.819-87.815c0-48.422,39.398-87.825,87.819-87.825
		c48.422,0,87.815,39.403,87.815,87.825C398.231,747.308,358.839,786.701,310.417,786.701z M325.111,927.347
		c-22.474,1.085-46.047-8.326-70.152-28.143c14.352-10.787,38.328-24.829,66.36-25.341c21.856-0.603,43.315,7.593,63.789,23.834
		C369.952,912.442,349.497,926.132,325.111,927.347z M515.228,774.176c-3.857,14.052-12.721,22.288-17.587,25.904
		c-5.434-7.091-19.214-32.683,6.951-88.829C516.228,735.718,519.904,757.142,515.228,774.176z M524.293,224.058
		c0-39.916,32.472-72.388,72.387-72.388c39.915,0,72.392,32.472,72.392,72.388c0,39.914-32.477,72.387-72.392,72.387
		C556.765,296.445,524.293,263.971,524.293,224.058z"/>
	<path fill="#FFFFFF" d="M587.244,1047.548c-209.697-0.661-374.064,24.679-487.91,49.58c19.432,20.487,46.803,33.872,77.095,33.872
		h847.135c30.236,0,57.564-13.335,76.989-33.756c-180.841-33.173-343.227-47.245-485.595-49.203
		C605.641,1047.913,596.39,1047.577,587.244,1047.548z"/>
</g>
</svg>
