<?xml version="1.0" encoding="utf-8"?>
<!-- Generator: Adobe Illustrator 19.1.0, SVG Export Plug-In . SVG Version: 6.00 Build 0)  -->
<svg version="1.1" id="Layer_1" xmlns="http://www.w3.org/2000/svg" xmlns:xlink="http://www.w3.org/1999/xlink" x="0px" y="0px"
	 viewBox="0 0 1200 1200" enable-background="new 0 0 1200 1200" xml:space="preserve">
<g>
	<path fill="none" d="M438.537,821.902c1.711-1.591,3.466-2.808,5.267-4.317c0.085-0.071,0.196,0.34,0.196,0.34v-1.107
		c0,0.071-0.111,0.143-0.196,0.214c-1.801,1.509-3.585,3.004-5.296,4.594c-1.105,1.028-3.57,2.157-4.636,3.218
		C411.335,847.25,396,876.809,396,909.345c0,0.016,0,0.03,0,0.046c0-32.526,15.354-62.008,37.885-84.41
		C434.952,823.921,437.432,822.93,438.537,821.902z"/>
	<path fill="none" d="M374.832,818h-3.894H368v7h7v-7H374.832z M375,821.625V823h-4v-1.375V821h4V821.625z"/>
	<polygon fill="none" points="83.133,818 79.236,818 71,818 71,821 79.236,821 83,821 83,821.625 83,823 79,823 79,822 71,822 
		71,825 77.449,825 84,825 84,818 	"/>
	<path fill="none" d="M399.041,910.175c0-0.081-0.008-0.155-0.013-0.231c0.004,0.065,0.01,0.13,0.011,0.196
		c-0.002,0.274-0.047,0.54-0.047,0.814c0,65.508,55.589,117.958,126.808,124.231C454.881,1028.759,399.494,975.316,399.041,910.175z
		"/>
	<path fill="none" d="M863.826,1035.816c-68.274,0-124.404-43.441-137.481-101.169l-11.979-29.182
		c-0.052,0.025-0.078,0.043-0.131,0.068l11.858,29.163c13.077,57.728,69.449,101.219,137.723,101.219
		c77.962,0,140.184-56.518,140.184-126.373c0-0.04,0-0.08,0-0.12C1004,979.239,941.759,1035.816,863.826,1035.816z"/>
	<path fill="none" d="M510.113,841.416c-0.402-0.022-0.7,0-1.031,0.008c3.041,0.178,6.715,1.375,8.649,5.835
		c0,0,3.483,6.018-2.737,10.82c6.219-4.802,4.366-10.82,4.366-10.82C516.989,841.793,513.003,841.185,510.113,841.416z"/>
	<path fill="none" d="M690.599,906.875l-0.005,0.012c3.172,1.102,6.563,1.715,10.121,1.715c1.243,0,2.461-0.075,3.655-0.215
		c-1.169,0.133-2.357,0.204-3.565,0.204C697.233,908.592,693.783,907.986,690.599,906.875z"/>
	<path fill="none" d="M683.343,695.242c0.168,0.047,0.326,0.121,0.493,0.169l17.822-50.442l-18.913,50.127
		C682.942,695.15,683.146,695.186,683.343,695.242z"/>
	<path fill="none" d="M562.002,705.54l-11.159,11.696l11.868-11.696c0.387-0.375,0.91-0.768,1.501-1.17
		c3.926-2.67,12.24-5.863,23.257-8.598c-12.012,2.596-21.25,5.798-25.743,8.598C561.726,704.772,562.389,705.165,562.002,705.54z"/>
	<path fill="none" d="M444.123,817.924c0.842,0,1.686-1.981,2.533-2.689C444.398,815.937,444.143,817.924,444.123,817.924z"/>
	<polygon fill="none" points="534,520.44 534,734.835 534,733.783 534,520.44 	"/>
	<path fill="none" d="M451,520.44v290.847v0.116c0-0.039,0-0.077,0-0.116V520.44L451,520.44z"/>
	<path fill="none" d="M228.98,818h-3.891H223v7h7v-7H228.98z M229,821.625V823h-4v-1.375V821h4V821.625z"/>
	<path fill="none" d="M942.15,804.128c-0.228-0.247-0.474-0.516-0.703-0.764c-14.899-8.677-31.638-15.032-49.711-18.161
		C910.371,788.429,926.909,795.031,942.15,804.128z"/>
	<path fill="none" d="M771.251,693l-14.181-46.24L771.194,693C771.213,693,771.232,693,771.251,693z"/>
	<path fill="#E2583D" d="M714.491,706.077l-5.594-0.078c0.879,0.51,1.764,1.011,2.62,1.558
		C712.507,707.032,713.499,706.56,714.491,706.077z"/>
	<path fill="#E2583D" d="M1003.423,50H172.119C93.149,50,50,113.763,50,164.96v811.183C50,1104.329,92.472,1150,209.892,1150
		h793.646c80.549,0,146.462-35.3,146.462-135.05V192.732C1150,113.763,1097.467,50,1003.423,50z M1032,536.945v31.923v0.78v68.402
		V645H757.07l14.181,46.223c0.155-0.009,0.314-0.036,0.469-0.044c45.153-2.526,81.164,14.365,81.164,14.365
		c30.368,33.804,63.709,70.136,89.986,98.586c-0.459-0.274-0.959-0.496-1.422-0.765c0.229,0.248,0.229,0.517,0.457,0.764
		C979.875,826.792,1004,865.413,1004,909.345c0,0.026,0,0.05,0,0.076c0,0.04,0,0.08,0,0.12c0,69.854-62.215,126.373-140.176,126.373
		c-68.274,0-124.761-43.49-137.838-101.219l-11.781-29.163c-3.061,1.465-6.352,2.455-9.865,2.855
		c-1.194,0.14-2.396,0.215-3.639,0.215c-3.558,0-6.941-0.613-10.113-1.715l-12.1,27.708
		c-13.077,57.744-70.042,101.238-138.31,101.238c-4.854,0-9.651-0.219-14.379-0.648c-71.219-6.273-126.808-58.722-126.808-124.231
		c0-0.274,0.045-0.54,0.048-0.814c0-0.066-1.505-0.131-1.508-0.196c-0.014-0.174-1.529-0.343-1.529-0.53c0-0.008,0-0.015,0-0.023
		c0-0.016,0-0.03,0-0.046C396,876.809,412.847,847,435.384,825h-60.451h-6.918h-69.182H229.65h-6.918H153.55H84.367h-6.918H71l0,0
		l0,0v-7.076l0,0l0,0V586.132v-3.427V451h6.449h6.918h69.182h69.182h6.918h69.182h69.182h6.918H423V161h290.927h3.015H1032V536.945z
		"/>
	<path fill="#E2583D" d="M587.606,695.772c24.419-6.063,62.101-9.835,95.207-0.66L701.658,645H562v59.37
		C566,701.57,575.594,698.368,587.606,695.772z"/>
	<path fill="#003750" d="M683.836,695.427c8.309,2.383,16.313,5.562,23.715,9.779c0.454,0.258,0.895,0.535,1.347,0.797l5.594,0.076
		c0.255-0.124,0.51-0.256,0.764-0.381c18.965-9.336,38.143-13.417,55.939-14.47L757.07,645h-55.412L683.836,695.427z"/>
	<path fill="#ECC53B" d="M714,610h-11.919c-3.012,0-5.434-0.463-5.434-3.527c0-2.968,2.422-3.473,5.434-3.473H714v-34H562v0.648
		v72.191V645h139.658h55.412H1032v-7H714V610z"/>
	<polygon fill="#262324" points="444,451 444,175 714,175 714,161 423,161 423,451 423.503,451 	"/>
	<rect x="562" y="555" fill="#262324" width="152" height="14"/>
	<polygon fill="#003750" points="444,451 445.845,451 451.034,451 520.216,451 562,451 562,554.647 562,555 714,555 714,175 
		444,175 	"/>
	<path fill="#003750" d="M696.647,606.473c0,3.064,2.422,3.527,5.434,3.527H714v-7h-11.919
		C699.069,603,696.647,603.505,696.647,606.473z"/>
	<polygon fill="#F1F6FB" points="79,821 70.531,821 69,821 69,822 70.531,822 79,822 	"/>
	<polygon fill="#F1F6FB" points="320,818 320,548 368,548 368,451 298.833,451 230,451 230,534 264,534 264,818 230,818 230,825 
		298.833,825 368,825 368,818 	"/>
	<polygon fill="#F1F6FB" points="181,818 181,534 223,534 223,451 153.55,451 84,451 84,583 133,583 133,818 84,818 84,825 
		153.55,825 223,825 223,818 	"/>
	<path fill="#F1F6FB" d="M562,554.647V451h-41.784H451v69l0,0l0,0h65.79h3.426h0.463H534l0,0l0,0v213.783l16.817-16.547
		l11.309-11.696c0.387-0.375-0.126-0.768-0.126-1.17v-59.402v-3.129v-72.191v-0.78v-13.836V554.647z"/>
	<path fill="#F1F6FB" d="M443.804,817.031c0.085-0.071,0.196-0.142,0.196-0.214V451h-20.497h-0.142H375v97h28v270h-28v7h60.384
		c1.067-1,2.019-2.268,3.125-3.296C440.219,820.113,442.003,818.54,443.804,817.031z"/>
	<rect x="71" y="451" fill="#F1F6FB" width="6" height="132"/>
	<polygon fill="#D8E6F4" points="79.236,583 83.133,583 84,583 84,451 77,451 77,583 	"/>
	<polygon fill="#D8E6F4" points="79,823 83,823 83,821.625 83,821 79,821 79,821.625 	"/>
	<polygon fill="#D8E6F4" points="225.089,534 228.98,534 230,534 230,451 223,451 223,534 	"/>
	<polygon fill="#D8E6F4" points="225,821.625 225,823 229,823 229,821.625 229,821 225,821 	"/>
	<polygon fill="#D8E6F4" points="370.938,548 374.832,548 375,548 375,451 368,451 368,548 	"/>
	<polygon fill="#D8E6F4" points="371,821.625 371,823 375,823 375,821.625 375,821 371,821 	"/>
	<path fill="#D8E6F4" d="M451,520.44V451h-5.155H444v365.817V818h0.123c0.02,0,0.275-2.025,2.533-2.727
		c0.368-0.308,0.703-1.206,1.083-1.502c1.057-0.821,2.261-1.582,3.261-2.368v-0.116V520.44z"/>
	<polygon points="83.133,818 84.367,818 133,818 133,583 84.367,583 83.133,583 79.236,583 77.449,583 71,583 71,586.132 71,818 
		79.236,818 	"/>
	<polygon fill="#5EA4D2" points="225.089,534 222.732,534 181,534 181,818 222.732,818 225.089,818 228.98,818 229.65,818 264,818 
		264,534 229.65,534 228.98,534 	"/>
	<polygon fill="#EBAE30" points="370.938,548 368.015,548 320,548 320,818 368.015,818 370.938,818 374.832,818 374.933,818 
		403,818 403,548 374.933,548 374.832,548 	"/>
	<path fill="#EA4E1B" d="M532.985,519.468h-12.306h-0.463h-3.426h-65.595v0.972v290.847c3.971-2.895,8.115-5.594,12.426-8.095
		l69.364-68.358V520.44V519.468z"/>
	<path fill="#00618E" d="M715.255,705.696c-0.255,0.125-0.509,0.256-0.764,0.38c-0.992,0.483-1.984,0.955-2.974,1.48
		c-0.856-0.547-1.741-1.048-2.62-1.558c-0.452-0.262-0.893-0.543-1.347-0.801c-7.402-4.217-15.406-7.403-23.715-9.787
		c-0.168-0.048-0.325-0.122-0.493-0.169c-0.197-0.056-0.401-0.092-0.598-0.146c-33.106-9.175-70.857-5.387-95.276,0.676
		c-11.017,2.735-19.331,5.928-23.257,8.598c-0.591,0.402-1.114,0.795-1.501,1.17l-11.868,11.696l-16.791,16.547l-1.067,1.052
		l-69.364,68.358c14.522-8.421,30.812-14.602,48.346-17.784l-0.934-0.28L609,757.797c10.271-4.017,21.636-6.255,33.554-6.255
		c10.239,0,20.057,1.631,29.105,4.654c5.351-11.293,17.848-19.208,32.405-19.208c14.358,0,26.657,7.707,32.131,18.719
		c8.603-2.697,17.907-4.165,27.568-4.165c12.951,0,25.218,2.623,36.135,7.322l91.871,26.293l-0.033,0.046
		c18.073,3.129,34.812,9.484,49.711,18.161c0.463,0.269,0.963,0.49,1.422,0.764c-26.277-28.45-59.618-64.785-89.986-98.588
		c0,0-36.011-16.895-81.164-14.369c-0.155,0.008-0.314,0.027-0.469,0.036c-0.019,0.001-0.038,0.003-0.057,0.004
		C753.398,692.264,734.22,696.36,715.255,705.696z"/>
	<path fill="#CEEBFD" d="M645.64,909.345c0-2.682-0.192-5.32-0.448-7.943c-0.869,0.015-1.736,0.089-2.639,0.089
		c-46.218,0-83.667-33.571-83.667-74.982c0-3.393,0.322-6.713,0.801-9.99c-6.343-1.067-12.844-1.704-19.51-1.704
		c-58.292,0-105.502,42.315-105.502,94.53c0,52.201,47.209,94.517,105.502,94.517C598.405,1003.862,645.64,961.546,645.64,909.345z
		 M514.995,858.078c-22.217,8.493-37.807,28.249-37.807,51.267c0,4.092,0.513,8.033,1.449,11.858
		c-0.448,2.638-2.094,6.774-8.213,7.558c0,0-10.653,3.098-12.753-5.587c0-0.046-0.058-0.118-0.058-0.118
		c-0.935-4.447-0.526-9.041-0.526-13.711c0-29.923,21.915-55.683,48.915-67.555v0.103c0,0,1.268-0.622,3.923-0.478
		c0.018,0.001-0.41,0.007-0.393,0.008c0.331-0.008,0.405-0.03,0.807-0.008c2.891-0.231,6.764,0.377,9.136,5.843
		C519.472,847.259,521.214,853.277,514.995,858.078z"/>
	<path fill="#CEEBFD" d="M846.593,816.341c0.513,3.321,0.836,6.699,0.836,10.167c0,41.411-37.45,74.982-83.666,74.982
		c-1.348,0-2.672-0.074-4.02-0.133c-0.232,2.638-0.456,5.291-0.456,7.988c0,52.201,47.243,94.517,105.502,94.517
		c58.251,0,105.495-42.316,105.495-94.517c0-52.215-47.243-94.53-105.495-94.53C858.571,814.815,852.516,815.393,846.593,816.341z
		 M887.195,847.259c3.672-8.389,13.531-5.365,13.531-5.365l0.034-0.103c28.369,11.872,48.013,37.632,48.013,67.555
		c0,4.67-0.513,9.264-1.415,13.711c0,0-0.066,0.073-0.1,0.118c-2.092,8.685-12.753,5.587-12.753,5.587
		c-6.122-0.785-7.758-4.921-8.18-7.558c0.933-3.824,1.421-7.766,1.421-11.858c0-23.018-15.59-42.774-37.813-51.267
		C883.755,853.277,887.195,847.259,887.195,847.259z"/>
	<path fill="#004860" d="M889.933,858.078c22.223,8.493,37.813,28.249,37.813,51.267c0,4.092-0.488,8.033-1.421,11.858
		c0.421,2.638,2.058,6.774,8.18,7.558c0,0,10.661,3.098,12.753-5.587c0.034-0.046,0.1-0.118,0.1-0.118
		c0.902-4.447,1.415-9.041,1.415-13.711c0-29.923-19.643-55.683-48.013-67.555l-0.034,0.103c0,0-9.858-3.023-13.531,5.365
		C887.195,847.259,883.755,853.277,889.933,858.078z"/>
	<path fill="#004860" d="M517.731,847.259c-1.935-4.46-5.608-5.657-8.649-5.835c-0.018-0.001-0.038-0.007-0.055-0.008
		c-2.655-0.145-4.819,0.478-4.819,0.478v-0.103c-28.375,11.872-48.019,37.632-48.019,67.555c0,4.67,0.488,9.264,1.423,13.711
		c0,0,0.058,0.073,0.058,0.118c2.101,8.685,12.753,5.587,12.753,5.587c6.12-0.785,7.766-4.921,8.213-7.558
		c-0.935-3.824-1.449-7.766-1.449-11.858c0-23.018,15.59-42.774,37.807-51.267C521.214,853.277,517.731,847.259,517.731,847.259z"/>
	<path fill="#003750" d="M891.769,785.157l-91.871-26.293c-10.917-4.699-23.184-7.322-36.135-7.322
		c-9.661,0-18.965,1.468-27.568,4.165c-5.475-11.012-17.774-18.719-32.131-18.719c-14.557,0-27.054,7.915-32.405,19.208
		c-9.048-3.023-18.866-4.654-29.105-4.654c-11.918,0-23.283,2.238-33.554,6.255l-97.967,27.331l0.934,0.28
		c-17.535,3.182-33.824,9.362-48.346,17.784c-4.311,2.501-8.455,5.2-12.426,8.095c-0.053,0.039-0.108,0.077-0.161,0.116
		c-1.09,0.787-2.221,1.529-3.278,2.349c-0.38,0.296-0.732,1.213-1.1,1.521c-0.847,0.708-1.691,2.727-2.533,2.727h-0.007
		c-0.084,0-0.169-0.449-0.254-0.378c-1.801,1.509-3.614,2.708-5.325,4.298c-1.105,1.028-3.585,2.01-4.652,3.07
		C411.354,847.392,396,876.865,396,909.391c0,0.008,0,0.015,0,0.023c0,0.187,1.516,0.356,1.529,0.53
		c0.006,0.076,0.762,0.149,0.762,0.231c0.453,65.141,56.214,118.584,127.133,125.01c4.728,0.429,9.712,0.648,14.567,0.648
		c68.268,0,126.532-43.494,139.608-101.238l13.4-27.708v-0.012c0,1.111,5.433,1.716,9.006,1.716c1.207,0,1.796-0.071,2.965-0.204
		c3.512-0.401,6.535-1.391,9.596-2.855c0.053-0.025-0.041-0.043,0.012-0.068l11.966,29.182
		c13.077,57.728,69.046,101.169,137.32,101.169c77.933,0,140.137-56.577,140.137-126.395c0-0.026,0-0.05,0-0.076
		c0-43.932-24.125-82.553-62.096-105.217c-15.242-9.098-31.656-15.699-50.291-18.926L891.769,785.157z M434.677,909.345
		c0-52.215,47.209-94.53,105.502-94.53c6.666,0,13.167,0.637,19.51,1.704c-0.479,3.277-0.801,6.596-0.801,9.99
		c0,41.411,37.449,74.982,83.667,74.982c0.903,0,1.77-0.074,2.639-0.089c0.256,2.624,0.448,5.262,0.448,7.943
		c0,52.201-47.235,94.517-105.462,94.517C481.886,1003.862,434.677,961.546,434.677,909.345z M970.284,909.345
		c0,52.201-47.243,94.517-105.495,94.517c-58.259,0-105.502-42.316-105.502-94.517c0-2.697,0.223-5.35,0.456-7.988
		c1.348,0.06,2.672,0.133,4.02,0.133c46.216,0,83.666-33.571,83.666-74.982c0-3.468-0.322-6.846-0.836-10.167
		c5.922-0.948,11.978-1.527,18.196-1.527C923.041,814.815,970.284,857.13,970.284,909.345z"/>
	<path fill="#ECC53B" d="M714,603h41.219c3.011,0,5.432,0.505,5.432,3.473c0,3.064-2.421,3.527-5.432,3.527H714v28h318v-68.352V569
		H714V603z"/>
	<path opacity="0.13" fill="#211915" d="M714,603h41.219c3.011,0,5.432,0.505,5.432,3.473c0,3.064-2.421,3.527-5.432,3.527H714v28
		h318v-68.352V569H714V603z"/>
	<polygon fill="#262324" points="714,161 714,175 1011,175 1011,555 714,555 714,569 1032,569 1032,536.945 1032,161 716.942,161 	
		"/>
	<polygon opacity="0.13" fill="#211915" points="714,161 714,175 1011,175 1011,555 714,555 714,569 1032,569 1032,536.945 
		1032,161 716.942,161 	"/>
	<rect x="714" y="175" fill="#003750" width="297" height="380"/>
	<rect x="714" y="175" opacity="0.13" fill="#211915" width="297" height="380"/>
	<path fill="#003750" d="M755.219,610c3.011,0,5.432-0.463,5.432-3.527c0-2.968-2.421-3.473-5.432-3.473H714v7H755.219z"/>
	<path opacity="0.13" fill="#211915" d="M755.219,610c3.011,0,5.432-0.463,5.432-3.527c0-2.968-2.421-3.473-5.432-3.473H714v7
		H755.219z"/>
</g>
</svg>
