<?xml version="1.0" encoding="iso-8859-1"?>
<!-- Generator: Adobe Illustrator 19.0.0, SVG Export Plug-In . SVG Version: 6.00 Build 0)  -->
<svg version="1.1" id="Capa_1" xmlns="http://www.w3.org/2000/svg" xmlns:xlink="http://www.w3.org/1999/xlink" x="0px" y="0px"
	 viewBox="0 0 512.001 512.001" style="enable-background:new 0 0 512.001 512.001;" xml:space="preserve">
<path style="fill:#5CBD9B;" d="M55.75,50v53.23l3.21,4.29c50.99,68.04,90.39,109.36,156.79,162.48v232
	c33.34-5.59,62.01-24.93,80-51.98V270c33.2-26.56,59.65-50.17,84.17-75.64c24.53-25.48,47.13-52.82,72.62-86.84l3.21-4.29V50H55.75z
	"/>
<path style="fill:#E3F2FF;" d="M255.75,10c121.5,0,200,17.91,200,40s-78.5,40-200,40s-200-17.91-200-40S134.25,10,255.75,10z"/>
<path d="M256,120c-5.52,0-10,4.48-10,10c0,5.52,4.48,10,10,10c5.52,0,10-4.48,10-10S261.52,120,256,120z"/>
<path d="M403.599,11.926C366.078,4.124,315.039,0,256,0S145.922,4.124,108.401,11.926C66.412,20.657,46,33.111,46,50v53.23
	c0,4.653,2.631,6.463,5.208,10.286C102.611,182.107,142.102,223.313,206,274.789V502c0,2.941,1.295,5.733,3.54,7.634
	c2.31,1.954,5.303,2.702,8.113,2.229c35.211-5.903,66.802-26.426,86.674-56.305c1.091-1.641,1.673-3.567,1.673-5.538V274.788
	c32.66-26.311,57.903-49.112,81.374-73.492c23.858-24.782,46.501-51.854,73.422-87.784c2.162-3.414,5.134-5.315,5.198-10.137
	c0.001-0.048,0.006-0.096,0.006-0.144V50C466,33.111,445.588,20.657,403.599,11.926z M116.223,30.75
	C152.122,23.718,200.456,20,256,20s103.878,3.718,139.777,10.75c38.272,7.498,49.221,16.487,50.196,19.25
	c-0.976,2.763-11.924,11.752-50.196,19.25C359.878,76.282,311.544,80,256,80s-103.878-3.718-139.777-10.75
	C77.95,61.752,67.002,52.763,66.026,50C67.002,47.237,77.95,38.248,116.223,30.75z M226,489.514V280h60v166.926
	C271.422,467.611,250.091,482.672,226,489.514z M372.966,187.425c-23.101,23.996-48.017,46.471-80.48,72.575h-72.971
	c-55.925-44.971-92.729-81.828-135.618-136.671c28.498,8.21,65.818,14.395,131.847,16.157c0.091,0.003,0.182,0.004,0.271,0.004
	c5.399,0,9.847-4.304,9.991-9.733c0.147-5.521-4.208-10.115-9.729-10.263C132.594,117.26,97.067,107.83,66,96.318V74.625
	c10.178,5.214,24.274,9.679,42.401,13.449C145.922,95.876,196.961,100,256,100s110.078-4.124,147.599-11.926
	c18.127-3.77,32.223-8.234,42.401-13.449v21.693c-31.067,11.511-66.594,20.942-150.276,23.176
	c-5.521,0.147-9.877,4.742-9.729,10.263c0.145,5.431,4.592,9.733,9.991,9.733c0.09,0,0.181-0.001,0.271-0.004
	c66.034-1.762,103.355-7.948,131.854-16.159C408.7,148.161,391.17,168.516,372.966,187.425z"/>
<g>
</g>
<g>
</g>
<g>
</g>
<g>
</g>
<g>
</g>
<g>
</g>
<g>
</g>
<g>
</g>
<g>
</g>
<g>
</g>
<g>
</g>
<g>
</g>
<g>
</g>
<g>
</g>
<g>
</g>
</svg>
