<?xml version="1.0" encoding="iso-8859-1"?>
<!-- Generator: Adobe Illustrator 19.0.0, SVG Export Plug-In . SVG Version: 6.00 Build 0)  -->
<svg version="1.1" id="Capa_1" xmlns="http://www.w3.org/2000/svg" xmlns:xlink="http://www.w3.org/1999/xlink" x="0px" y="0px"
	 viewBox="0 0 512 512" style="enable-background:new 0 0 512 512;" xml:space="preserve">
<path style="fill:#E3F2FF;" d="M501.75,30v346c0,11.05-8.95,20-20,20c-14.724,0-430.179,0-452,0c-11.05,0-20-8.95-20-20V30
	c0-11.05,8.95-20,20-20h452C492.8,10,501.75,18.95,501.75,30z"/>
<rect x="49.75" y="50" style="fill:#ADE6FF;" width="412" height="306"/>
<path style="fill:#E3F2FF;" d="M395.75,482v20h-280v-20c0-11.05,8.95-20,20-20c9.862,0,229.357,0,240,0
	C386.8,462,395.75,470.95,395.75,482z"/>
<polygon style="fill:#57555C;" points="315.75,396 335.75,462 175.75,462 195.75,396 "/>
<path d="M256,346c-5.52,0-10,4.48-10,10s4.48,10,10,10c5.52,0,10-4.48,10-10S261.52,346,256,346z"/>
<path d="M482,0H30C13.458,0,0,13.458,0,30v346c0,16.542,13.458,30,30,30h152.521l-13.939,46H136c-16.542,0-30,13.458-30,30v20
	c0,5.522,4.477,10,10,10h280c5.522,0,10-4.478,10-10v-20c0-16.542-13.458-30-30-30h-32.581l-13.939-46H482c16.542,0,30-13.458,30-30
	V30C512,13.458,498.542,0,482,0z M386,482v10H126v-10c0-5.514,4.486-10,10-10c25.626,0,204.205,0,240,0
	C381.514,472,386,476.486,386,482z M189.48,452l13.939-46h105.162l13.939,46H189.48z M492,376c0,5.514-4.486,10-10,10
	c-25.605,0-434.677,0-452,0c-5.514,0-10-4.486-10-10V30c0-5.514,4.486-10,10-10h452c5.514,0,10,4.486,10,10V376z"/>
<path d="M462,40H50c-5.523,0-10,4.478-10,10v306c0,5.522,4.477,10,10,10h166c5.523,0,10-4.478,10-10s-4.477-10-10-10H60V60h392v286
	H296c-5.522,0-10,4.478-10,10s4.478,10,10,10h166c5.522,0,10-4.478,10-10V50C472,44.478,467.522,40,462,40z"/>
<path d="M327.056,220.472C328.75,223.86,332.212,226,336,226h86c5.522,0,10-4.478,10-10s-4.478-10-10-10h-79.819l-17.236-34.472
	c-1.761-3.521-5.417-5.681-9.36-5.52c-3.935,0.163-7.406,2.621-8.869,6.277l-29.136,72.84l-31.964-111.873
	c-1.175-4.111-4.834-7.021-9.104-7.24c-4.274-0.228-8.208,2.303-9.795,6.273l-29.861,74.653l-11.367-34.102
	c-1.279-3.837-4.744-6.526-8.778-6.813c-4.032-0.297-7.844,1.885-9.653,5.503L149.82,206H90c-5.523,0-10,4.478-10,10s4.477,10,10,10
	h66c3.788,0,7.25-2.14,8.944-5.528l9.203-18.406l12.366,37.097c1.327,3.981,4.999,6.71,9.193,6.834
	c4.192,0.133,8.02-2.386,9.579-6.282l29.136-72.84l31.964,111.873c1.175,4.111,4.834,7.021,9.104,7.24
	c0.172,0.009,0.343,0.013,0.514,0.013c4.069,0,7.758-2.476,9.282-6.286l31.729-79.324L327.056,220.472z"/>
<g>
</g>
<g>
</g>
<g>
</g>
<g>
</g>
<g>
</g>
<g>
</g>
<g>
</g>
<g>
</g>
<g>
</g>
<g>
</g>
<g>
</g>
<g>
</g>
<g>
</g>
<g>
</g>
<g>
</g>
</svg>
