<?xml version="1.0" encoding="iso-8859-1"?>
<!-- Generator: Adobe Illustrator 19.0.0, SVG Export Plug-In . SVG Version: 6.00 Build 0)  -->
<svg version="1.1" id="Capa_1" xmlns="http://www.w3.org/2000/svg" xmlns:xlink="http://www.w3.org/1999/xlink" x="0px" y="0px"
	 viewBox="0 0 512.001 512.001" style="enable-background:new 0 0 512.001 512.001;" xml:space="preserve">
<path style="fill:#4DBBEB;" d="M501.75,261.008c0,11.05-8.95,20-20,20c-4.839,0-421.726,0-432,0c-22.09,0-40-17.91-40-40v-80
	c0-11.05,8.95-20,20-20c5.786,0,238.694,0,246,0c22.09,0,40,17.91,40,40v60c17.668,0,139.45,0,166,0
	C492.79,241.008,501.75,249.967,501.75,261.008z"/>
<path style="fill:#E3F2FF;" d="M471.75,181.008c16.57,0,30,13.43,30,30c0,16.56-13.44,30-30,30h-156v-60H471.75z"/>
<circle style="fill:#57555C;" cx="405.75" cy="431.01" r="30"/>
<path style="fill:#E3F2FF;" d="M375.75,281.008v80h-246v-80h-40c0,6.595,0,112.915,0,120c15.917,0,309.886,0,326,0
	c0-7.085,0-113.405,0-120H375.75z"/>
<circle style="fill:#57555C;" cx="99.75" cy="431.01" r="30"/>
<path style="fill:#E3F2FF;" d="M75.47,65.568l45.27,75.44H50.76l-26.73-44.56c-8.53-14.21-3.92-32.64,10.28-41.16
	C48.51,46.758,66.95,51.358,75.47,65.568z"/>
<path d="M70,171.008c-5.52,0-10,4.48-10,10s4.48,10,10,10s10-4.48,10-10S75.52,171.008,70,171.008z"/>
<path d="M472,171.008H324.994c-4.646-22.795-24.847-40-48.994-40H126.652L84.297,60.425C72.931,41.47,48.37,35.326,29.416,46.713
	c-18.954,11.371-25.089,35.924-13.711,54.88l17.645,29.415H30c-16.542,0-30,13.458-30,30v80c0,27.57,22.43,50,50,50h30
	c0,10.342,0,95.058,0,105.381c-11.944,6.927-20,19.846-20,34.619c0,22.056,17.944,40,40,40s40-17.944,40-40
	c0-7.283-1.966-14.212-5.381-20.1h236.763c-3.415,5.888-5.381,12.817-5.381,20.1c0,22.056,17.944,40,40,40s40-17.944,40-40
	c0-14.773-8.056-27.691-20-34.619c0-10.323,0-95.039,0-105.381h56c16.542,0,30-13.458,30-30c0-8.563-3.589-16.911-10.612-22.882
	c6.851-7.41,10.612-16.975,10.612-27.118C512,188.952,494.056,171.008,472,171.008z M492,211.008c0,5.338-2.082,10.359-5.861,14.139
	c-3.78,3.779-8.801,5.861-14.139,5.861H326v-40h146C483.028,191.008,492,199.979,492,211.008z M32.854,91.302
	c-5.688-9.475-2.627-21.753,6.856-27.441c9.472-5.689,21.751-2.629,27.436,6.853l36.182,60.295H56.672L32.854,91.302z M120,291.008
	v60h-20v-60H120z M366,291.008v60H140v-60H366z M120,431.008c0,11.028-8.972,20-20,20s-20-8.972-20-20s8.972-20,20-20
	S120,419.979,120,431.008z M406,451.008c-11.028,0-20-8.972-20-20s8.972-20,20-20s20,8.972,20,20S417.028,451.008,406,451.008z
	 M100,391.008v-20c13.117,0,279.564,0,306,0v20H100z M406,351.008h-20v-60h20V351.008z M482,271.008H50c-16.542,0-30-13.458-30-30
	v-80c0-5.514,4.486-10,10-10c12.785,0,232.628,0,246,0c16.542,0,30,13.458,30,30v60c0,5.522,4.477,10,10,10c17.668,0,139.45,0,166,0
	c5.522,0,10,4.479,10,10C492,266.521,487.514,271.008,482,271.008z"/>
<path d="M256,171.008H110c-5.523,0-10,4.478-10,10s4.477,10,10,10h146c5.523,0,10-4.478,10-10S261.523,171.008,256,171.008z"/>
<g>
</g>
<g>
</g>
<g>
</g>
<g>
</g>
<g>
</g>
<g>
</g>
<g>
</g>
<g>
</g>
<g>
</g>
<g>
</g>
<g>
</g>
<g>
</g>
<g>
</g>
<g>
</g>
<g>
</g>
</svg>
