<?xml version="1.0" encoding="iso-8859-1"?>
<!-- Generator: Adobe Illustrator 19.0.0, SVG Export Plug-In . SVG Version: 6.00 Build 0)  -->
<svg version="1.1" id="Capa_1" xmlns="http://www.w3.org/2000/svg" xmlns:xlink="http://www.w3.org/1999/xlink" x="0px" y="0px"
	 viewBox="0 0 512.001 512.001" style="enable-background:new 0 0 512.001 512.001;" xml:space="preserve">
<path style="fill:#E3F2FF;" d="M490.018,163.152c15.63,15.62,15.63,40.939,0,56.569L219.471,490.268
	c-15.63,15.63-40.949,15.63-56.569,0L21.484,348.85c-15.63-15.62-15.63-40.939,0-56.569L292.03,21.734
	c15.63-15.63,40.949-15.63,56.569,0L490.018,163.152z"/>
<g>
	<path style="fill:#FE73B1;" d="M437.528,173.222c11.71,11.71,11.71,30.71,0,42.419c-11.72,11.72-30.71,11.72-42.429,0
		c-11.72-11.71-11.72-30.71,0-42.419C406.819,161.502,425.809,161.502,437.528,173.222z"/>
	<path style="fill:#FE73B1;" d="M363.819,246.931c11.71,11.71,11.71,30.71,0,42.429c-11.72,11.71-30.71,11.71-42.429,0
		c-11.72-11.72-11.72-30.72,0-42.429C333.11,235.211,352.1,235.211,363.819,246.931z"/>
	<path style="fill:#FE73B1;" d="M338.53,74.223c11.72,11.72,11.72,30.71,0,42.429c-11.71,11.72-30.71,11.72-42.419,0
		c-11.72-11.72-11.72-30.71,0-42.429C307.82,62.513,326.82,62.513,338.53,74.223z"/>
	<path style="fill:#FE73B1;" d="M289.111,321.64c11.71,11.72,11.71,30.71,0,42.429c-11.72,11.71-30.72,11.71-42.429,0
		c-11.72-11.72-11.72-30.71,0-42.429C258.391,309.92,277.391,309.92,289.111,321.64z"/>
	<path style="fill:#FE73B1;" d="M264.821,147.932c11.72,11.72,11.72,30.71,0,42.429c-11.71,11.72-30.71,11.72-42.429,0
		c-11.71-11.72-11.71-30.71,0-42.429C234.111,136.222,253.111,136.222,264.821,147.932z"/>
	<path style="fill:#FE73B1;" d="M215.392,395.349c11.72,11.72,11.72,30.71,0,42.429c-11.71,11.71-30.71,11.71-42.419,0
		c-11.72-11.72-11.72-30.71,0-42.429C184.682,383.629,203.682,383.629,215.392,395.349z"/>
	<path style="fill:#FE73B1;" d="M190.112,222.641c11.72,11.72,11.72,30.72,0,42.429c-11.72,11.72-30.71,11.72-42.429,0
		c-11.71-11.71-11.71-30.71,0-42.429C159.402,210.931,178.392,210.931,190.112,222.641z"/>
	<path style="fill:#FE73B1;" d="M116.403,296.36c11.72,11.71,11.72,30.71,0,42.419c-11.72,11.72-30.71,11.72-42.429,0
		c-11.71-11.71-11.71-30.71,0-42.419C85.693,284.64,104.683,284.64,116.403,296.36z"/>
</g>
<path d="M395.349,130.792c3.91-3.9,3.91-10.23,0-14.14s-10.24-3.91-14.14,0c-3.91,3.91-3.91,10.24,0,14.14
	C385.109,134.701,391.439,134.701,395.349,130.792z"/>
<path d="M116.653,381.208c-3.91,3.9-3.91,10.24,0,14.14c3.9,3.91,10.24,3.91,14.14,0c3.91-3.9,3.91-10.24,0-14.14
	C126.893,377.299,120.553,377.299,116.653,381.208z"/>
<path d="M355.923,14.666c-19.539-19.552-51.163-19.555-70.714-0.003L14.662,285.209c-19.542,19.543-19.558,51.166,0,70.711
	l141.416,141.414c0,0,0,0,0.002,0.003c19.537,19.549,51.16,19.552,70.712,0l270.546-270.546c19.542-19.543,19.558-51.166,0-70.711
	L355.923,14.666z M483.196,212.649L212.65,483.196c-11.726,11.727-30.694,11.741-42.425,0.003c0,0-0.001-0.002-0.002-0.003
	l-141.42-141.42c-11.73-11.721-11.733-30.692,0.002-42.424L299.35,28.805c11.729-11.73,30.697-11.739,42.427,0l141.42,141.42
	C494.929,181.946,494.931,200.917,483.196,212.649z"/>
<path d="M388.281,166.147c-15.635,15.622-15.646,40.935-0.003,56.563c15.637,15.639,40.934,15.639,56.571,0v0.001
	c15.627-15.627,15.629-40.932,0-56.562C429.252,150.554,403.875,150.553,388.281,166.147z M430.708,208.569
	C430.707,208.569,430.707,208.569,430.708,208.569c-7.819,7.82-20.463,7.826-28.291-0.003c-7.814-7.808-7.82-20.458,0.003-28.274
	c7.8-7.8,20.489-7.799,28.288,0C438.517,188.102,438.518,200.759,430.708,208.569z"/>
<path d="M314.572,239.856c-15.638,15.625-15.645,40.933,0,56.578c15.595,15.582,40.969,15.582,56.565,0
	c0.002-0.002,0.004-0.004,0.006-0.007c15.588-15.603,15.587-40.978-0.003-56.568C355.543,224.263,330.166,224.262,314.572,239.856z
	 M356.998,282.289c-7.801,7.794-20.491,7.791-28.287,0c-7.817-7.816-7.825-20.47,0-28.288c7.8-7.8,20.488-7.799,28.287,0
	C364.792,261.795,364.792,274.485,356.998,282.289z"/>
<path d="M239.859,314.568c-15.596,15.598-15.596,40.975,0,56.572c15.593,15.592,40.967,15.589,56.568,0.003
	c0.002-0.002,0.004-0.004,0.006-0.007c15.581-15.595,15.581-40.97-0.003-56.568C280.801,298.939,255.491,298.924,239.859,314.568z
	 M282.286,357.001c-7.804,7.79-20.491,7.792-28.284-0.004c-7.799-7.799-7.799-20.489,0.003-28.291
	c7.797-7.803,20.451-7.829,28.281-0.001C290.08,336.508,290.08,349.2,282.286,357.001z"/>
<path d="M166.15,388.277c-15.596,15.598-15.596,40.975,0,56.572c15.594,15.593,40.966,15.594,56.562,0v-0.001
	c15.596-15.597,15.596-40.974,0.003-56.568C207.092,372.643,181.78,372.635,166.15,388.277z M208.57,430.706
	c-7.796,7.796-20.481,7.796-28.277,0c-7.799-7.799-7.799-20.489,0.003-28.291c7.81-7.816,20.458-7.819,28.274,0.002
	C216.369,410.218,216.369,422.908,208.57,430.706z"/>
<path d="M345.854,123.721c15.593-15.598,15.592-40.973-0.003-56.569c-15.595-15.593-40.967-15.596-56.562,0.001
	c-15.596,15.597-15.596,40.974-0.003,56.568C304.914,139.361,330.225,139.361,345.854,123.721z M303.431,81.294
	c7.797-7.797,20.48-7.797,28.277,0c7.799,7.799,7.799,20.489,0,28.288c0,0-0.002,0.002-0.003,0.003
	c-7.81,7.816-20.458,7.819-28.274-0.002C295.632,101.783,295.632,89.092,303.431,81.294z"/>
<path d="M272.145,197.43c15.593-15.598,15.592-40.973-0.003-56.569c-15.591-15.59-40.967-15.592-56.574,0.004
	c-15.581,15.595-15.581,40.97,0.003,56.568C231.205,213.066,256.513,213.073,272.145,197.43z M229.709,155.005
	c7.797-7.79,20.49-7.806,28.291-0.003c7.799,7.799,7.799,20.489,0,28.288c-0.001,0.001-0.002,0.002-0.003,0.003
	c-7.797,7.803-20.451,7.829-28.281,0.001C221.921,175.493,221.921,162.8,229.709,155.005z"/>
<path d="M197.429,272.145c15.638-15.625,15.645-40.933,0-56.578c-15.596-15.582-40.97-15.583-56.571,0.007
	c-15.588,15.603-15.587,40.978,0.003,56.568C156.455,287.734,181.831,287.74,197.429,272.145z M155,229.714
	c7.796-7.79,20.491-7.798,28.291-0.003c7.813,7.812,7.828,20.467,0.003,28.285c-0.001,0.001-0.002,0.002-0.003,0.003
	c-7.799,7.799-20.488,7.799-28.287,0C147.207,250.205,147.209,237.512,155,229.714z"/>
<path d="M67.153,289.289c-15.627,15.627-15.629,40.932,0,56.562c15.595,15.593,40.97,15.599,56.568,0.003
	c15.635-15.622,15.646-40.935,0.003-56.563C108.087,273.652,82.79,273.651,67.153,289.289z M109.585,331.706
	c-0.001,0.001-0.002,0.002-0.003,0.003c-7.799,7.799-20.489,7.799-28.288,0c-7.81-7.809-7.812-20.466,0-28.278
	c7.819-7.819,20.463-7.825,28.291,0.004C117.401,311.244,117.401,323.895,109.585,331.706z"/>
<path d="M367.06,159.083c3.905-3.905,3.906-10.237,0-14.143c-3.904-3.902-10.237-3.904-14.142,0L144.931,352.917
	c-3.905,3.905-3.906,10.237,0,14.143c3.906,3.905,10.237,3.905,14.142,0L367.06,159.083z"/>
<g>
</g>
<g>
</g>
<g>
</g>
<g>
</g>
<g>
</g>
<g>
</g>
<g>
</g>
<g>
</g>
<g>
</g>
<g>
</g>
<g>
</g>
<g>
</g>
<g>
</g>
<g>
</g>
<g>
</g>
</svg>
