<?xml version="1.0" encoding="iso-8859-1"?>
<!-- Generator: Adobe Illustrator 19.0.0, SVG Export Plug-In . SVG Version: 6.00 Build 0)  -->
<svg version="1.1" id="Capa_1" xmlns="http://www.w3.org/2000/svg" xmlns:xlink="http://www.w3.org/1999/xlink" x="0px" y="0px"
	 viewBox="0 0 512 512" style="enable-background:new 0 0 512 512;" xml:space="preserve">
<path style="fill:#ED5151;" d="M435.915,498.87c0,0,0.17,1.14,0.5,3.14c-12.26,0.02-28.09,0.05-40.5,0.11
	c-14.709-86.961-58.28-206.6-144.65-226.62c-17.3-3.97-32.98-10.75-47.17-19.64C113.205,199.02,83.185,56.5,76.865,21.17
	c-0.78-4.37-1.2-7.16-1.33-8.04c0,0-0.16-1.14-0.45-3.13c12.26,0,28.09,0,40.47,0c14.195,83.681,57.179,202.647,140.14,225.37h0.01
	c7.017,1.944,26.865,5.247,51.68,20.73C409.475,319.74,434.755,490.87,435.915,498.87z"/>
<g>
	<path style="fill:#4DBBEB;" d="M435.525,9.98c-0.25,1.66-0.38,2.56-0.38,2.56c-1.14,8.01-25.86,180.47-127.65,243.38l-0.11,0.18
		c-14.2-8.86-29.88-15.63-47.2-19.6c-1.51-0.35-3-0.72-4.48-1.13c82.696-22.799,125.368-141.413,139.35-225.45
		C406.545,9.95,421.565,9.97,435.525,9.98z"/>
	<path style="fill:#4DBBEB;" d="M251.265,275.5c1.51,0.35,3.01,0.72,4.49,1.13C172.803,299.493,130.393,418.158,116.395,502
		c-12.24,0-28.04,0-40.45,0c0.23-1.63,0.36-2.54,0.36-2.54c1.14-8.01,25.86-180.47,127.65-243.38l0.14-0.22
		C218.285,264.75,233.965,271.53,251.265,275.5z"/>
</g>
<path d="M325.975,459c0,5.52,4.48,10,10,10s10-4.48,10-10s-4.48-10-10-10S325.975,453.48,325.975,459z"/>
<path d="M185.975,53c0-5.52-4.48-10-10-10s-10,4.48-10,10s4.48,10,10,10S185.975,58.52,185.975,53z"/>
<path d="M385.929,501.513c0.146,0.895,0.271,1.657,0.377,2.275c0.813,4.813,4.982,8.032,9.858,8.032c0.017,0,0.033,0,0.05,0
	c12.399-0.061,28.217,0.01,40.468-0.01c6.144-0.01,10.857-5.325,9.85-11.428c-6.143-37.266-14.057-69.584-27.409-105.515
	c-23.553-63.382-55.076-109.992-93.826-138.81C395.111,204.286,432.73,97.345,445.664,11.471c0.907-6.024-3.855-11.386-9.881-11.39
	c-13.954-0.011-28.966-0.03-40.451-0.061c-0.009,0-0.018,0-0.026,0c-4.889,0-9.062,3.435-9.864,8.259
	c-0.969,5.825-3.25,18.405-7.243,34.721H212.815c-5.522,0-10,4.478-10,10s4.478,9.9,10,9.9h160.082
	c-3.822,13.365-8.604,28.16-14.485,43.1H153.039c-17.428-43.856-25.309-85.498-27.374-97.673C124.848,3.519,120.682,0,115.805,0
	h-40.47c-6.099,0-10.774,5.419-9.896,11.442c12.047,82.745,51.873,192.509,121.287,244.446
	C116.475,307.93,79.896,413.711,66.294,500.6c-0.853,6.035,3.842,11.4,9.901,11.4h40.45c4.888,0,9.059-3.533,9.863-8.354
	c0.972-5.819,3.254-18.373,7.238-34.646h165.389c5.522,0,10-4.478,10-10s-4.478-10-10-10H139.049
	c3.823-13.368,8.605-28.067,14.483-43h205.775C371.634,436.785,380.43,467.985,385.929,501.513z M256.016,287.042
	c20.603,6.256,39.667,19.323,56.873,38.958H199.474C216.538,306.387,235.491,293.319,256.016,287.042z M184.243,346h143.998
	c7.985,11.774,15.493,25.167,22.421,40H162.057C168.898,371.176,176.327,357.784,184.243,346z M403.675,19.939
	c6.382,0.012,13.372,0.022,20.414,0.03C410.557,98.432,373.703,199.65,307.34,244.278c-7.008-4.009-14.236-7.479-21.643-10.394
	C353.672,196.17,389.285,96.081,403.675,19.939z M327.708,166H183.953c-7.961-11.791-15.434-25.283-22.32-40.1H349.89
	C343.054,140.72,335.627,154.212,327.708,166z M312.479,186c-17.064,19.614-36.015,32.684-56.538,38.96
	c-20.56-6.25-39.566-19.321-56.702-38.96H312.479z M87.065,20h20.395c16.783,87.274,60.442,201.625,145.844,225.015
	c0.072,0.021,0.146,0.039,0.218,0.058c7.421,2.036,25.613,5.034,48.824,19.514c50.587,31.535,81.231,92.042,98.03,137.247
	c14.502,39.024,21.743,74.373,24.54,90.198c-6.678,0.014-13.704,0.03-20.285,0.054c-15.005-87.247-62.307-205.781-150.879-226.332
	C155.456,243.199,104.899,118.902,87.065,20z M108.266,492H87.868c13.531-78.437,50.385-179.682,116.779-224.303
	c6.998,4.016,14.219,7.493,21.623,10.412C158.269,315.823,122.47,416.328,108.266,492z"/>
<g>
</g>
<g>
</g>
<g>
</g>
<g>
</g>
<g>
</g>
<g>
</g>
<g>
</g>
<g>
</g>
<g>
</g>
<g>
</g>
<g>
</g>
<g>
</g>
<g>
</g>
<g>
</g>
<g>
</g>
</svg>
