<?xml version="1.0" encoding="iso-8859-1"?>
<!-- Generator: Adobe Illustrator 19.0.0, SVG Export Plug-In . SVG Version: 6.00 Build 0)  -->
<svg version="1.1" id="Capa_1" xmlns="http://www.w3.org/2000/svg" xmlns:xlink="http://www.w3.org/1999/xlink" x="0px" y="0px"
	 viewBox="0 0 512.001 512.001" style="enable-background:new 0 0 512.001 512.001;" xml:space="preserve">
<path style="fill:#4DBBEB;" d="M170.47,352.001c-15.15,0-29,8.56-35.78,22.11l-8.94,17.89h144l21.01-40L170.47,352.001
	L170.47,352.001z"/>
<g>
	<path style="fill:#57555C;" d="M445.75,452.001v50h-380v-50c0-11.05,8.95-20,20-20c30.352,0,301.877,0,340,0
		C436.8,432.001,445.75,440.951,445.75,452.001z"/>
	<path style="fill:#57555C;" d="M339.17,173.361l-33.87,58.66c3.41-0.51,6.9-0.78,10.45-0.78c38.66,0,70,32.1,70,70.76
		c0,16.32-5.59,31.34-14.95,43.24l35.88,49.57h0.01c24.09-23.61,39.06-56.49,39.06-92.81
		C445.75,238.311,399.71,184.421,339.17,173.361z"/>
</g>
<g>
	<path style="fill:#E3F2FF;" d="M419.08,432.001H232.42c1.172-3.515-4.754,14.261,14.36-43.08
		c11.279-33.836,42.978-56.92,78.97-56.92c35.83,0,67.635,22.916,78.97,56.92C423.834,446.262,417.909,428.485,419.08,432.001z"/>
	<path style="fill:#E3F2FF;" d="M410.39,50.001l-20,34.64c-20.313-11.728-47.669-27.522-69.28-40l20-34.64L410.39,50.001z"/>
</g>
<rect x="325.744" y="61.972" transform="matrix(-0.5 0.866 -0.866 -0.5 589.6064 -176.4628)" style="fill:#57555C;" width="39.998" height="39.998"/>
<path style="fill:#E3F2FF;" d="M370.39,119.281c-81.319,140.85-79.837,138.288-80,138.57l-69.28-40l80-138.57
	C321.424,91.009,348.779,106.803,370.39,119.281z"/>
<path style="fill:#57555C;" d="M307.71,267.851l-20,34.64l-103.92-60l20-34.64C228.375,222.045,286.536,255.625,307.71,267.851z"/>
<path d="M286,382.001c-5.52,0-10,4.48-10,10s4.48,10,10,10s10-4.48,10-10S291.52,382.001,286,382.001z"/>
<path d="M86,422.001c-16.542,0-30,13.458-30,30v50c0,5.522,4.477,10,10,10h380c5.523,0,10-4.478,10-10v-50
	c0-16.36-13.166-29.695-29.458-29.986l-8.195-24.586C442.673,371.408,456,337.766,456,302.001
	c0-62.984-42.061-118.048-101.212-135.262l24.512-42.458c2.761-4.783,1.122-10.898-3.661-13.66l-8.66-5l10-17.32l8.66,5
	c4.772,2.755,10.892,1.134,13.66-3.66l20-34.64c2.76-4.78,1.121-10.899-3.66-13.66l-69.28-40c-4.781-2.76-10.899-1.122-13.66,3.66
	l-20,34.64c-2.76,4.78-1.122,10.899,3.66,13.66l8.66,5l-10,17.32l-8.66-5c-4.779-2.76-10.9-1.122-13.66,3.66l-75,129.909l-8.66-5
	c-4.778-2.761-10.899-1.122-13.66,3.66l-20,34.641c-2.762,4.783-1.123,10.898,3.66,13.66l103.92,60
	c4.75,2.744,10.882,1.151,13.66-3.66l20-34.641c2.762-4.783,1.123-10.898-3.66-13.66l-8.66-5l7.385-12.791
	C346.55,238.9,376,266.9,376,302.001c0,10.702-2.759,20.919-8.02,29.983c-12.981-6.552-27.317-9.983-41.98-9.983
	c-20.945,0-41.28,7.08-57.693,20H170.72c-19.057,0-36.194,10.59-44.726,27.641l-8.94,17.89c-1.549,3.1-1.383,6.78,0.439,9.728
	c1.822,2.948,5.041,4.742,8.506,4.742h106.129l-6.667,20L86,422.001L86,422.001z M436,452.001v40H76v-40c0-5.514,4.486-10,10-10
	c8.23,0,322.997,0,340,0C431.515,442.001,436,446.487,436,452.001z M342.341,68.301l17.319,10l-10,17.32l-17.319-10L342.341,68.301z
	 M345.02,23.661l51.96,30l-10,17.319c-11.567-6.678-38.465-22.209-51.96-30L345.02,23.661z M305.02,92.941
	c98.117,56.65,0.859,0.496,51.96,30c-10.335,17.902-61.241,106.076-70.001,121.249l-51.96-30L305.02,92.941z M284.3,288.831
	l-86.6-50l10-17.32c9.192,5.307,65.786,37.983,77.937,44.999c0.001,0.001,0.002,0.001,0.004,0.002c0.001,0,0.002,0.001,0.003,0.001
	l8.656,4.998L284.3,288.831z M323.128,221.579l21.316-36.922C397.896,197.665,436,245.933,436,302.001
	c0,27.143-8.963,52.862-25.498,73.886c-5.964-12.775-14.785-24.088-25.723-32.994C392.145,330.579,396,316.626,396,302.001
	C396,259.896,363.912,225.233,323.128,221.579z M170.721,361.901h78.749c-4.312,6.198-7.868,13.021-10.572,20.1h-96.721
	C142.869,381.191,149.236,361.901,170.721,361.901z M256.517,392.083c10.057-30.166,38.272-50.082,69.483-50.082
	c31.894,0,59.634,20.538,69.482,50.077l9.974,29.923H246.545L256.517,392.083z"/>
<path d="M366,382.001h-40c-5.523,0-10,4.478-10,10s4.477,10,10,10h40c5.523,0,10-4.478,10-10S371.523,382.001,366,382.001z"/>
<g>
</g>
<g>
</g>
<g>
</g>
<g>
</g>
<g>
</g>
<g>
</g>
<g>
</g>
<g>
</g>
<g>
</g>
<g>
</g>
<g>
</g>
<g>
</g>
<g>
</g>
<g>
</g>
<g>
</g>
</svg>
