<?xml version="1.0" encoding="iso-8859-1"?>
<!-- Generator: Adobe Illustrator 19.0.0, SVG Export Plug-In . SVG Version: 6.00 Build 0)  -->
<svg version="1.1" id="Capa_1" xmlns="http://www.w3.org/2000/svg" xmlns:xlink="http://www.w3.org/1999/xlink" x="0px" y="0px"
	 viewBox="0 0 512 512" style="enable-background:new 0 0 512 512;" xml:space="preserve">
<path style="fill:#57555C;" d="M135.379,333.95l-28.12,28.12c-7.81,7.81-7.81,20.47,0,28.28l14.14,14.14
	c7.81,7.81,20.47,7.81,28.28,0l28.12-28.12L135.379,333.95z"/>
<path style="fill:#E3F2FF;" d="M495.886,72.432l-56.57-56.57c-7.83-7.81-20.444-7.816-28.28,0c-7.81,7.81-7.81,20.47,0,28.28
	l14.14,14.14l-62.15,62.16l-28.29-28.29L213.318,213.571l84.859,84.859c130.276-130.299,73.617-73.617,121.419-121.419l-28.29-28.29
	l62.16-62.15l14.14,14.14c7.787,7.807,20.48,7.82,28.28,0C503.696,92.902,503.696,80.242,495.886,72.432z"/>
<path style="fill:#5CBD9B;" d="M229.758,366.84c-24.545,24.545-63.341,22.507-85.725-0.84
	c-22.197-23.152-22.592-60.542,0.876-84.009l68.409-68.419l84.859,84.859C223.421,373.173,230.843,365.755,229.758,366.84z"/>
<path d="M192.358,305.501c3.91-3.91,3.91-10.24,0-14.14c-3.9-3.91-10.24-3.91-14.14,0c-3.91,3.9-3.91,10.23,0,14.14
	C182.118,309.401,188.458,309.401,192.358,305.501z"/>
<path d="M2.929,509.07c3.906,3.905,10.237,3.905,14.143,0l97.508-97.508c11.695,11.694,30.725,11.695,42.421-0.001l18.25-18.25
	c22.74,4.06,45.848-3.418,61.829-19.4c39.545-39.542,142.556-142.548,182.768-182.758l7.069,7.069
	c3.906,3.905,10.237,3.905,14.142,0s3.906-10.237,0-14.143c-3.201-3.201-32.053-32.054-35.359-35.359l48.017-48.008l7.06,7.06
	c11.721,11.752,30.744,11.728,42.432,0.01c11.723-11.723,11.726-30.696,0-42.423L446.628,8.784
	C435.048-2.77,416.12-3.084,404.216,8.792c-11.724,11.724-11.725,30.696,0,42.422l7.07,7.07l-48.009,48.016
	c-3.277-3.277-32.158-32.158-35.358-35.359c-3.906-3.903-10.237-3.904-14.142,0c-3.905,3.905-3.906,10.237,0,14.143l7.069,7.069
	C317.272,95.726,150.69,262.319,138.09,274.92c-16.86,16.859-23.314,40.034-19.403,61.833l-18.247,18.247
	c-11.695,11.696-11.695,30.724-0.001,42.421l-97.51,97.507C-0.976,498.833-0.976,505.165,2.929,509.07z M383.279,199.434
	l-21.222-21.215c-3.905-3.904-10.237-3.903-14.142,0.002c-3.905,3.906-3.903,10.238,0.002,14.143l21.219,21.212l-14.147,14.146
	l-7.072-7.072c-3.906-3.903-10.237-3.904-14.142,0c-3.905,3.905-3.906,10.237,0,14.143l7.071,7.072l-14.138,14.137l-21.211-21.211
	c-3.905-3.904-10.237-3.904-14.142,0c-3.905,3.905-3.905,10.237,0,14.143l21.21,21.21l-14.143,14.142l-70.713-70.712
	l107.278-107.278l70.716,70.715L383.279,199.434z M418.348,22.943c3.949-3.94,10.245-3.902,14.147-0.009l56.57,56.569
	c3.885,3.885,3.933,10.204-0.009,14.147c-3.835,3.844-10.174,3.955-14.128-0.01c-4.802-4.802-48.956-48.956-56.57-56.57
	C414.438,33.151,414.464,26.828,418.348,22.943z M425.426,72.425l14.147,14.147l-48.017,48.008l-14.139-14.139L425.426,72.425z
	 M152.231,289.061l61.339-61.347l70.713,70.712L270.14,312.57l-7.07-7.07c-3.905-3.904-10.237-3.904-14.142,0
	c-3.905,3.905-3.905,10.237,0,14.143l7.069,7.069l-14.14,14.139l-21.219-21.213c-3.905-3.903-10.237-3.903-14.142,0.002
	c-3.905,3.906-3.903,10.238,0.002,14.143l21.216,21.209l-4.778,4.777c-19.669,19.671-51.933,19.584-71.445-0.768
	C132.979,339.692,132.659,308.632,152.231,289.061z M114.58,369.141l11.437-11.437c3.024,5.587,6.813,10.737,11.213,15.295
	c4.979,5.158,10.741,9.559,17.065,12.982l-11.436,11.437c-3.898,3.898-10.241,3.898-14.138,0
	c-17.235-17.235-13.042-13.043-14.14-14.141C110.682,379.381,110.682,373.039,114.58,369.141z"/>
<g>
</g>
<g>
</g>
<g>
</g>
<g>
</g>
<g>
</g>
<g>
</g>
<g>
</g>
<g>
</g>
<g>
</g>
<g>
</g>
<g>
</g>
<g>
</g>
<g>
</g>
<g>
</g>
<g>
</g>
</svg>
