<?xml version="1.0" encoding="iso-8859-1"?>
<!-- Generator: Adobe Illustrator 19.0.0, SVG Export Plug-In . SVG Version: 6.00 Build 0)  -->
<svg version="1.1" id="Capa_1" xmlns="http://www.w3.org/2000/svg" xmlns:xlink="http://www.w3.org/1999/xlink" x="0px" y="0px"
	 viewBox="0 0 512 512" style="enable-background:new 0 0 512 512;" xml:space="preserve">
<path style="fill:#57555C;" d="M255.75,10c132.55,0,246,113.45,246,246s-113.45,246-246,246s-246-113.45-246-246S123.2,10,255.75,10
	z"/>
<path style="fill:#FEC459;" d="M255.75,462c-110.28,0-206-95.73-206-206c0-117.287,89.17-206,206-206c110.28,0,206,95.73,206,206
	C461.75,366.085,366.203,462,255.75,462z"/>
<g>
	<path style="fill:#57555C;" d="M421.75,256h-106c0-20.79-10.62-39.14-26.73-49.91l61.45-89.18
		C393.42,145.64,421.75,200.57,421.75,256z"/>
	<path style="fill:#57555C;" d="M285.98,307.82l56.37,92.36c-23.68,13.86-57.23,21.82-86.6,21.82s-62.92-7.96-86.6-21.82
		l56.37-92.36c8.88,5.2,19.22,8.18,30.23,8.18C266.76,316,277.1,313.02,285.98,307.82z"/>
	<path style="fill:#57555C;" d="M255.75,236c11.05,0,20,8.95,20,20c0,11.05-8.95,20-20,20c-11.05,0-20-8.95-20-20
		C235.75,244.95,244.7,236,255.75,236z"/>
	<path style="fill:#57555C;" d="M169.15,111.82l56.37,92.36c-17.79,10.42-29.77,29.75-29.77,51.82h-106
		C89.75,197.15,121.69,139.62,169.15,111.82z"/>
</g>
<path d="M130,100c5.52,0,10-4.48,10-10s-4.48-10-10-10c-5.52,0-10,4.48-10,10S124.48,100,130,100z"/>
<path d="M256,0C117.987,0,0,117.815,0,256c0,138.01,117.815,256,256,256c138.013,0,256-117.815,256-256C512,117.99,394.185,0,256,0z
	 M256,492C128.075,492,20,383.925,20,256S128.075,20,256,20s236,108.075,236,236S383.925,492,256,492z"/>
<path d="M256,40c-33.48,0-69.393,7.594-96.064,20.313c-4.985,2.378-7.099,8.346-4.721,13.331c2.377,4.984,8.345,7.096,13.331,4.722
	C192.299,67.037,225.81,60,256,60c104.411,0,196,91.589,196,196s-91.589,196-196,196S60,360.411,60,256
	c0-48.235,18.434-98.898,48.108-132.22c3.673-4.124,3.307-10.445-0.817-14.118s-10.445-3.308-14.118,0.817
	C59.877,147.866,40,202.267,40,256c0,116.361,100.688,216,216,216c116.385,0,216-100.715,216-216C472,140.331,371.966,40,256,40z"/>
<path d="M177.936,106.61c-2.841-4.653-8.886-6.175-13.59-3.419C113.442,133.008,80,193.999,80,256c0,5.522,4.477,10,10,10h106
	c5.523,0,10-4.478,10-10c0-17.673,9.512-34.223,24.824-43.191c2.315-1.356,3.989-3.587,4.644-6.189
	c0.655-2.602,0.236-5.358-1.162-7.649L177.936,106.61z M186.727,246h-86.4c3.131-48.03,28.512-94.361,65.851-120.264l46.14,75.598
	C198.479,212.439,189.287,228.48,186.727,246z"/>
<path d="M256,226c-16.542,0-30,13.458-30,30s13.458,30,30,30s30-13.458,30-30S272.542,226,256,226z M256,266
	c-5.514,0-10-4.486-10-10s4.486-10,10-10s10,4.486,10,10S261.514,266,256,266z"/>
<path d="M281.177,299.19C273.569,303.646,264.863,306,256,306s-17.569-2.354-25.177-6.81c-4.704-2.754-10.749-1.233-13.588,3.42
	l-56.37,92.359c-1.398,2.291-1.817,5.049-1.162,7.651s2.329,4.833,4.646,6.188C188.787,423.114,223.906,432,256,432
	s67.213-8.886,91.651-23.19c2.317-1.355,3.991-3.586,4.646-6.188s0.237-5.36-1.162-7.651l-56.37-92.359
	C291.926,297.957,285.881,296.437,281.177,299.19z M256,412c-24.947,0-51.773-5.899-72.515-15.702l46.071-75.484
	C237.91,324.225,246.898,326,256,326c9.102,0,18.09-1.775,26.444-5.187l46.071,75.484C307.773,406.101,280.947,412,256,412z"/>
<path d="M432,256c0-58.774-29.722-116.633-75.72-147.401c-4.546-3.044-10.692-1.865-13.794,2.638l-61.45,89.18
	c-1.519,2.204-2.09,4.925-1.587,7.554c0.503,2.628,2.039,4.945,4.264,6.434C297.668,223.733,306,239.284,306,256
	c0,5.522,4.477,10,10,10h106C427.523,266,432,261.522,432,256z M325.285,246c-2.33-16.183-10.263-31.023-22.439-41.987
	l50.299-72.997c33.558,26.333,55.668,69.739,58.537,114.984H325.285z"/>
<g>
</g>
<g>
</g>
<g>
</g>
<g>
</g>
<g>
</g>
<g>
</g>
<g>
</g>
<g>
</g>
<g>
</g>
<g>
</g>
<g>
</g>
<g>
</g>
<g>
</g>
<g>
</g>
<g>
</g>
</svg>
