<?xml version="1.0" encoding="iso-8859-1"?>
<!-- Generator: Adobe Illustrator 19.0.0, SVG Export Plug-In . SVG Version: 6.00 Build 0)  -->
<svg version="1.1" id="Capa_1" xmlns="http://www.w3.org/2000/svg" xmlns:xlink="http://www.w3.org/1999/xlink" x="0px" y="0px"
	 viewBox="0 0 512 512" style="enable-background:new 0 0 512 512;" xml:space="preserve">
<path style="fill:#FE73B1;" d="M135.75,462V290c0-22.09,17.91-40,40-40v-20c0-11.05,8.95-20,20-20h120c11.05,0,20,8.95,20,20v20
	c22.09,0,40,17.91,40,40v172c0,22.09-17.91,40-40,40h-160C153.66,502,135.75,484.09,135.75,462z"/>
<path style="fill:#E3F2FF;" d="M335.75,130c-23.83,0-140.358,0-161.2,0c-11.04,0-20,8.96-20,20c0,11.05,8.95,20,20,20h21.2v40h120
	v-40h20c11.04,0,20-8.96,20-20C355.75,138.95,346.8,130,335.75,130z"/>
<path style="fill:#FE73B1;" d="M315.75,130h-120c20-40,40-50.17,40-68.28V30c0-11.05,8.95-20,20-20c11.05,0,20,8.95,20,20v31.72
	C275.75,79.83,295.75,90,315.75,130z"/>
<path style="fill:#E3F2FF;" d="M255.75,286c33.14,0,60,26.86,60,60s-26.86,60-60,60s-60-26.86-60-60S222.61,286,255.75,286z"/>
<path d="M256,452c-5.52,0-10,4.48-10,10s4.48,10,10,10c5.52,0,10-4.48,10-10S261.52,452,256,452z"/>
<path d="M276,336h-10v-10c0-5.522-4.478-10-10-10s-10,4.478-10,10v10h-10c-5.523,0-10,4.478-10,10s4.477,10,10,10h10v10
	c0,5.522,4.478,10,10,10s10-4.478,10-10v-10h10c5.522,0,10-4.478,10-10S281.522,336,276,336z"/>
<path d="M256,276c-38.598,0-70,31.402-70,70s31.402,70,70,70s70-31.402,70-70S294.598,276,256,276z M256,396
	c-27.57,0-50-22.43-50-50s22.43-50,50-50s50,22.43,50,50S283.57,396,256,396z"/>
<path d="M166,230v11.005c-22.794,4.646-40,24.85-40,48.995v172c0,27.57,22.43,50,50,50h160c27.57,0,50-22.43,50-50V290
	c0-24.146-17.206-44.35-40-48.995V230c0-13.036-8.361-24.152-20-28.28V180h10c16.575,0,30-13.425,30-30c0-16.542-13.458-30-30-30
	h-13.924c-8.828-16.508-17.579-27.928-24.142-36.479C289.874,73.02,286,67.706,286,61.72V30c0-16.542-13.458-30-30-30
	s-30,13.458-30,30v31.72c0,5.986-3.874,11.3-11.934,21.801c-6.563,8.551-15.314,19.972-24.142,36.479H174.8
	c-16.573,0-30,13.423-30,30c0,16.542,13.458,30,30,30H186v21.72C174.361,205.848,166,216.964,166,230z M336,260
	c16.542,0,30,13.458,30,30v162h-70c-5.522,0-10,4.478-10,10s4.478,9.9,10,9.9h68.28C360.152,483.539,349.036,492,336,492H176
	c-13.036,0-24.152-8.361-28.28-20H216c5.523,0,10-4.478,10-10s-4.477-10-10-10h-70V290c0-16.542,13.458-30,30-30
	c5.523,0,10-4.478,10-10v-20c0-5.514,4.486-10,10-10h120c5.514,0,10,4.486,10,10v20C326,255.522,330.478,260,336,260z
	 M229.932,95.697C238.909,84.001,246,74.762,246,61.72V30c0-5.514,4.486-10,10-10s10,4.486,10,10v31.72
	c0,13.042,7.091,22.281,16.068,33.978c5.011,6.53,10.881,14.186,17.009,24.303h-86.155
	C219.051,109.883,224.921,102.227,229.932,95.697z M164.8,150c0-5.521,4.479-10,10-10c34.048,0,138.686,0,161.2,0
	c5.514,0,10,4.486,10,10c0,5.52-4.479,10-10,10H174.8C169.286,160,164.8,155.514,164.8,150z M306,180v20H206v-20H306z"/>
<g>
</g>
<g>
</g>
<g>
</g>
<g>
</g>
<g>
</g>
<g>
</g>
<g>
</g>
<g>
</g>
<g>
</g>
<g>
</g>
<g>
</g>
<g>
</g>
<g>
</g>
<g>
</g>
<g>
</g>
</svg>
