<?xml version="1.0" encoding="iso-8859-1"?>
<!-- Generator: Adobe Illustrator 19.0.0, SVG Export Plug-In . SVG Version: 6.00 Build 0)  -->
<svg version="1.1" id="Capa_1" xmlns="http://www.w3.org/2000/svg" xmlns:xlink="http://www.w3.org/1999/xlink" x="0px" y="0px"
	 viewBox="0 0 512 512" style="enable-background:new 0 0 512 512;" xml:space="preserve">
<path style="fill:#57555C;" d="M484.151,112.435c23.371-23.35,23.543-61.307,0-84.85c-23.403-23.403-61.457-23.403-84.85,0
	L298.209,128.657l-14.142-14.142c-7.81-7.81-20.466-7.817-28.283,0c-7.811,7.811-7.811,20.472,0,28.283
	c5.885,5.886,109.414,109.432,113.153,113.153c7.811,7.811,20.466,7.817,28.283,0c7.811-7.811,7.811-20.472,0-28.283l-14.142-14.142
	l0.01-0.01L484.151,112.435z"/>
<path style="fill:#E3F2FF;" d="M269.926,156.95l84.86,84.86L162.633,433.963c-18.472,18.472-45.995,22.383-68.298,11.731
	L43.899,496.12c-7.811,7.811-20.472,7.811-28.283,0s-7.811-20.472,0-28.283l50.426-50.436
	c-10.651-22.303-6.741-49.826,11.731-68.298L269.926,156.95z"/>
<path style="fill:#4DBBEB;" d="M223.96,259.492l49.506,7.071L134.35,405.679c-7.801,7.791-20.492,7.791-28.293,0
	c-7.791-7.801-7.791-20.492,0-28.293L223.96,259.492z"/>
<path d="M178.245,347.883c-3.91,3.91-3.91,10.241,0,14.152c3.9,3.9,10.241,3.9,14.142,0c3.91-3.91,3.91-10.241,0-14.152
	C188.486,343.982,182.145,343.982,178.245,347.883z"/>
<path d="M141.674,412.75l22.423-22.433c3.904-3.906,3.903-10.238-0.003-14.144c-3.905-3.905-10.239-3.904-14.144,0.003
	l-22.417,22.426c-3.902,3.901-10.254,3.899-14.15,0.01c-3.898-3.903-3.898-10.255-0.005-14.154L227.747,270.1l24.752,3.535
	l-45.97,45.962c-3.906,3.904-3.906,10.237-0.001,14.144c3.905,3.907,10.238,3.906,14.144,0.001l60.117-60.107
	c2.679-2.678,3.614-6.641,2.417-10.234c-1.197-3.593-4.323-6.203-8.074-6.738l-49.506-7.071c-3.118-0.446-6.26,0.603-8.486,2.828
	L99.231,370.319c-11.682,11.697-11.682,30.731,0.009,42.437C110.936,424.437,129.968,424.441,141.674,412.75z"/>
<path d="M8.794,503.192c11.723,11.723,30.702,11.727,42.427,0l45.714-45.704c25.223,8.983,53.792,2.775,73.021-16.452
	L355.04,255.952l7.077,7.071c11.727,11.729,30.698,11.731,42.427,0.001c11.724-11.724,11.727-30.7,0-42.428l-7.07-7.07
	l93.997-94.016c27.371-27.347,27.374-71.625,0.003-98.997c-27.325-27.325-71.667-27.337-98.993,0l-94.021,94.001l-7.07-7.07
	c-11.727-11.729-30.698-11.731-42.427-0.001c-11.721,11.721-11.728,30.699-0.002,42.425l7.075,7.079L70.951,342.031
	c-19.229,19.231-25.44,47.796-16.452,73.021L8.794,460.765C-2.93,472.49-2.932,491.465,8.794,503.192z M406.625,34.656
	c19.503-19.512,51.191-19.511,70.704,0.002c19.542,19.54,19.561,51.162,0,70.706l-94,94.019l-70.725-70.725L406.625,34.656z
	 M263.107,121.587c3.911-3.91,10.226-3.911,14.14,0.001L390.4,234.741c3.907,3.907,3.908,10.229,0,14.141
	c-3.901,3.9-10.216,3.921-14.142-0.003c-207.412-207.393-54.456-54.193-113.151-113.152
	C259.198,131.819,259.197,125.497,263.107,121.587z M22.939,474.908l50.426-50.437c2.996-2.997,3.778-7.557,1.952-11.381
	c-9.113-19.081-5.184-41.954,9.778-56.916l185.081-185.081l70.716,70.716L155.811,426.891
	c-14.963,14.963-37.835,18.891-56.917,9.778c-3.824-1.827-8.385-1.044-11.381,1.952l-50.437,50.426
	c-3.908,3.908-10.23,3.908-14.14,0C19.03,485.14,19.029,478.819,22.939,474.908z"/>
<g>
</g>
<g>
</g>
<g>
</g>
<g>
</g>
<g>
</g>
<g>
</g>
<g>
</g>
<g>
</g>
<g>
</g>
<g>
</g>
<g>
</g>
<g>
</g>
<g>
</g>
<g>
</g>
<g>
</g>
</svg>
