<?xml version="1.0" encoding="iso-8859-1"?>
<!-- Generator: Adobe Illustrator 19.0.0, SVG Export Plug-In . SVG Version: 6.00 Build 0)  -->
<svg version="1.1" id="Capa_1" xmlns="http://www.w3.org/2000/svg" xmlns:xlink="http://www.w3.org/1999/xlink" x="0px" y="0px"
	 viewBox="0 0 512 512" style="enable-background:new 0 0 512 512;" xml:space="preserve">
<path style="fill:#E3F2FF;" d="M490.017,21.732c-15.619-15.629-40.937-15.629-56.556,0L128.505,326.679
	c-31.368-10.539-67.385-3.32-92.373,21.668c-35.147,35.147-35.147,92.123,0,127.27s92.123,35.147,127.27,0
	c24.988-24.988,32.208-61.005,21.668-92.373c58.632-58.639,289.753-289.762,304.947-304.957
	C505.646,62.669,505.646,37.351,490.017,21.732z"/>
<path style="fill:#ED5151;" d="M135.124,376.625c19.489,19.499,19.489,51.216,0,70.715c-19.499,19.489-51.216,19.489-70.715,0
	c-19.489-19.499-19.489-51.216,0-70.715C83.908,357.137,115.626,357.137,135.124,376.625z"/>
<path d="M417.123,80.738c-3.91,3.91-3.91,10.239,0,14.139c3.9,3.91,10.229,3.91,14.139,0c3.9-3.9,3.9-10.229,0-14.139
	C427.352,76.838,421.022,76.838,417.123,80.738z"/>
<path d="M426.641,14.662L125.915,315.38c-34.543-9.29-71.06,0.354-96.603,25.897c-39.081,39.081-39.084,102.327,0,141.411
	c39.081,39.081,102.327,39.084,141.411,0c25.544-25.544,35.188-62.06,25.897-96.602l24.478-24.478v-0.001
	c8.646-8.646,267.564-267.572,276.237-276.246c19.544-19.53,19.559-51.157,0.005-70.697C477.807-4.884,446.183-4.892,426.641,14.662
	z M361.627,164.514l14.138,14.138l-28.281,28.282l-14.141-14.136L361.627,164.514z M319.202,206.939l14.142,14.137l-28.283,28.284
	l-14.137-14.142L319.202,206.939z M276.783,249.358L290.92,263.5l-28.282,28.283l-14.14-14.14L276.783,249.358z M234.357,291.785
	l14.141,14.14l-34.468,34.469l-14.138-14.144L234.357,291.785z M483.197,71.217l-93.29,93.293l-14.138-14.138l27.207-27.207
	c3.905-3.905,3.905-10.236,0-14.142c-3.906-3.904-10.235-3.904-14.142,0L134.772,363.086c-23.416-16.652-56.197-14.507-77.185,6.471
	c-23.381,23.394-23.381,61.459,0,84.853c0.002,0.001,0.003,0.002,0.004,0.004c23.393,23.379,61.457,23.381,84.857-0.004
	c20.971-20.983,23.118-53.763,6.466-77.181l36.836-36.836l14.138,14.144l-21.639,21.639c-2.685,2.685-3.617,6.656-2.408,10.255
	c9.751,29.022,2.371,60.487-19.261,82.118c-31.264,31.266-81.861,31.27-113.128,0c-31.266-31.264-31.27-81.861,0-113.128
	c21.598-21.601,53.058-29.026,82.118-19.261c3.596,1.208,7.569,0.276,10.255-2.408L440.784,28.8
	c11.719-11.725,30.682-11.736,42.416,0.005C494.927,40.525,494.934,59.489,483.197,71.217z M128.303,383.694
	c15.591,15.599,15.591,40.979,0.004,56.574c-15.597,15.59-40.976,15.59-56.576,0.002c-15.588-15.599-15.588-40.978-0.002-56.572
	C87.327,368.106,112.708,368.108,128.303,383.694z"/>
<g>
</g>
<g>
</g>
<g>
</g>
<g>
</g>
<g>
</g>
<g>
</g>
<g>
</g>
<g>
</g>
<g>
</g>
<g>
</g>
<g>
</g>
<g>
</g>
<g>
</g>
<g>
</g>
<g>
</g>
</svg>
