<?xml version="1.0" encoding="iso-8859-1"?>
<!-- Generator: Adobe Illustrator 19.0.0, SVG Export Plug-In . SVG Version: 6.00 Build 0)  -->
<svg version="1.1" id="Capa_1" xmlns="http://www.w3.org/2000/svg" xmlns:xlink="http://www.w3.org/1999/xlink" x="0px" y="0px"
	 viewBox="0 0 512 512" style="enable-background:new 0 0 512 512;" xml:space="preserve">
<g>
	<polygon style="fill:#57555C;" points="116.94,136 75.41,136 102.91,238 102.91,238.01 143.43,234.39 143.43,234.38 	"/>
	<path style="fill:#57555C;" d="M481.75,462c11.05,0,20,8.95,20,20c0,11.04-8.96,20-20,20h-452c-11.05,0-20-8.95-20-20
		c0-11.04,8.96-20,20-20C43.636,462,458.209,462,481.75,462z"/>
</g>
<g>
	<path style="fill:#5CBD9B;" d="M455.2,326.02c27.13,9.65,46.55,35.54,46.55,65.98c0,38.66-37.34,70-76,70l-310.89-0.91
		C55.61,453.75,9.75,403.23,9.75,342c0-66.599,54.055-120,120-120c33.14,0,39.281,8.462,193.38,59.05
		C323.261,281.095,454.498,325.781,455.2,326.02z"/>
	<path style="fill:#5CBD9B;" d="M355.36,115.99c-10.87-0.2-19.61-9.07-19.61-19.99c0-11.05,8.95-20,20-20h60V30
		c0-11.04,8.96-20,20-20c11.05,0,20,8.95,20,20v46c0,22.09-17.91,40-40,40c-23.31,0-17.985,0-60,0
		C355.62,116,355.49,116,355.36,115.99z"/>
</g>
<circle style="fill:#E3F2FF;" cx="375.75" cy="382" r="40"/>
<path style="fill:#57555C;" d="M396.14,116l-34.57,177.54l-0.18,0.54l-38.26-13.03l0.36-1.05l31.87-164.01
	c0.13,0.01,0.26,0.01,0.39,0.01C355.75,116,396.14,116,396.14,116z"/>
<path style="fill:#5CBD9B;" d="M167.13,82.23c13.05,2.18,22.62,13.47,22.62,26.7c0,14.952-12.129,27.07-27.07,27.07
	c-40.136,0-76.038,0-116.24,0c-20.26,0-36.69-16.43-36.69-36.69c0-20.58,16.78-36.7,36.61-36.7
	C51.808,62.61,47.176,62.413,167.13,82.23z"/>
<path style="fill:#E3F2FF;" d="M172.18,384.43C161.32,395.28,146.32,402,129.75,402c-33.14,0-60-26.86-60-60s26.86-60,60-60
	s60,26.86,60,60C189.75,358.57,183.03,373.57,172.18,384.43z"/>
<path d="M276,392c-5.52,0-10,4.48-10,10s4.48,10,10,10s10-4.48,10-10S281.52,392,276,392z"/>
<path d="M512,392c0-33.782-21.379-64.084-53.198-75.402c-0.043-0.015-0.086-0.03-0.129-0.045l-85.479-29.103L404.63,126H416
	c27.57,0,50-22.43,50-50V30c0-16.542-13.458-30-30-30c-16.575,0-30,13.425-30,30v36h-50c-16.542,0-30,13.458-30,30
	c0,12.174,7.421,22.78,17.974,27.453l-28.077,144.489l-142.41-48.486c-8.368-2.974-17.044-5.06-25.863-6.253L130.127,146h32.803
	c9.899,0,19.208-3.856,26.211-10.858C196.144,128.139,200,118.83,200,108.93c0-18.188-13.026-33.565-30.976-36.563
	C47.12,52.274,53.514,52.61,46.61,52.61C20.909,52.61,0,73.56,0,99.31C0,125.055,20.945,146,46.69,146h21.246l19.132,73.271
	C35.336,237.321,0,286.436,0,342c0,45.87,24.008,86.812,60.69,110H30c-16.574,0-30,13.424-30,30c0,16.542,13.458,30,30,30h452
	c16.575,0,30-13.425,30-30c0-16.542-13.458-30-30-30h-0.448C499.962,437.082,512,415.325,512,392z M356,86h60
	c5.522,0,10-4.478,10-10V30c0-5.519,4.479-10,10-10c5.514,0,10,4.486,10,10v46c0,16.542-13.458,30-30,30c-11.81,0-47.195,0-59.585,0
	c-0.32-0.026-0.637-0.036-0.953-0.031C350.215,105.694,346,101.297,346,96C346,90.486,350.486,86,356,86z M363.852,126h20.403
	l-30.169,154.944l-19.079-6.496L363.852,126z M20,99.31c0-14.722,11.937-26.7,26.61-26.7c4.09,0-0.908-0.392,119.123,19.483
	C174,93.475,180,100.555,180,108.93c0,4.558-1.776,8.845-5.001,12.069c-3.225,3.225-7.511,5.001-12.069,5.001H46.69
	C31.973,126,20,114.026,20,99.31z M109.46,146l17.198,66.054c-6.823,0.173-13.597,0.881-20.255,2.104L88.607,146H109.46z M482,472
	c5.514,0,10,4.486,10,10c0,5.519-4.479,10-10,10H30c-5.514,0-10-4.486-10-10c0-5.521,4.479-10,10-10C38.364,472,392.062,472,482,472
	z M115.754,451.092C61.122,444.029,20,397.234,20,342c0-49.853,33.605-93.575,81.733-106.327c20.642-5.497,43.667-4.99,65.112,2.648
	c0.044,0.016,0.088,0.03,0.132,0.046l285.186,97.097C475.993,343.972,492,366.684,492,392c0,31.395-31.442,58.986-65.971,59
	L115.754,451.092z"/>
<path d="M376,332c-27.57,0-50,22.43-50,50s22.43,50,50,50s50-22.43,50-50S403.57,332,376,332z M376,412c-16.542,0-30-13.458-30-30
	s13.458-30,30-30s30,13.458,30,30S392.542,412,376,412z"/>
<path d="M236,392h-41.858l-8.076-8.076C195.104,371.882,200,357.317,200,342c0-38.598-31.402-70-70-70s-70,31.402-70,70
	s31.402,70,70,70c15.315,0,29.879-4.894,41.923-13.934l11.006,11.006c1.875,1.875,4.419,2.929,7.071,2.929h46
	c5.522,0,10-4.478,10-10S241.522,392,236,392z M130,392c-27.57,0-50-22.43-50-50s22.43-50,50-50s50,22.43,50,50
	c0,9.955-2.895,19.468-8.278,27.58l-34.651-34.651c-3.905-3.904-10.237-3.904-14.142,0c-3.905,3.905-3.905,10.237,0,14.143
	l34.65,34.65C149.465,389.106,139.954,392,130,392z"/>
<g>
</g>
<g>
</g>
<g>
</g>
<g>
</g>
<g>
</g>
<g>
</g>
<g>
</g>
<g>
</g>
<g>
</g>
<g>
</g>
<g>
</g>
<g>
</g>
<g>
</g>
<g>
</g>
<g>
</g>
</svg>
