<?xml version="1.0" encoding="iso-8859-1"?>
<!-- Generator: Adobe Illustrator 19.0.0, SVG Export Plug-In . SVG Version: 6.00 Build 0)  -->
<svg version="1.1" id="Capa_1" xmlns="http://www.w3.org/2000/svg" xmlns:xlink="http://www.w3.org/1999/xlink" x="0px" y="0px"
	 viewBox="0 0 512 512" style="enable-background:new 0 0 512 512;" xml:space="preserve">
<path style="fill:#ED5151;" d="M501.75,406.306c0,10.5-0.53,20.85-1.57,31.04c-1.1,10.86-10.41,18.86-21.32,18.32
	c-110.74-5.49-203.11-45.42-203.11-199.36c0-17.91,2.59-35.26,7.44-51.78c-7.88-5.19-17.31-8.22-27.44-8.22s-19.56,3.03-27.44,8.22
	c4.85,16.52,7.44,33.87,7.44,51.78c0,153.94-92.37,193.87-203.11,199.36c-10.91,0.54-20.22-7.46-21.32-18.32
	c-1.04-10.19-1.57-20.54-1.57-31.04c0-103.61,57.87-193.59,134-238.86c15.26-9.07,28.84-11.14,45.29-11.14
	c14.13,0,36.71-13.44,36.71-34.61v-65.39h60v65.39c0,16.8,16.09,34.61,41,34.61c14.41,0,28.62,3.78,41,11.14
	C443.88,212.716,501.75,302.696,501.75,406.306z"/>
<path d="M326,296.306c0-5.52-4.48-10-10-10s-10,4.48-10,10s4.48,10,10,10S326,301.826,326,296.306z"/>
<path d="M196,286.306c-5.52,0-10,4.48-10,10s4.48,10,10,10s10-4.48,10-10S201.52,286.306,196,286.306z"/>
<path d="M373.11,158.85c-13.804-8.206-29.749-12.544-46.11-12.544c-18.543,0-31-12.726-31-24.61v-65.39c0-5.522-4.477-10-10-10h-60
	c-5.523,0-10,4.478-10,10v65.39c0,15.026-17.539,24.61-26.71,24.61c-15.215,0-31.851,1.52-50.401,12.545
	c-40.152,23.876-74.412,58.839-99.075,101.107C13.768,304.599,0,355.206,0,406.306c0,10.729,0.545,21.513,1.621,32.048
	c1.632,16.109,15.594,28.121,31.765,27.3c65.798-3.262,114.498-18.383,148.881-46.228c20.529-16.626,36.286-38.166,46.831-64.022
	C240.313,327.901,246,294.559,246,256.306c0-15.791-1.924-31.489-5.726-46.776c4.941-2.122,10.275-3.224,15.726-3.224
	c5.451,0,10.784,1.102,15.726,3.224c-3.802,15.287-5.726,30.985-5.726,46.776c0,38.253,5.687,71.595,16.903,99.098
	c10.545,25.856,26.301,47.396,46.831,64.022c34.383,27.845,83.083,42.966,148.881,46.228c0.513,0.025,1.021,0.038,1.529,0.038
	c15.521,0,28.655-11.738,30.234-27.33c1.076-10.543,1.622-21.327,1.622-32.056c0-51.101-13.768-101.707-39.814-146.348
	C447.523,217.69,413.264,182.727,373.11,158.85z M490.481,436.339c-0.567,5.604-5.228,9.605-10.876,9.341
	C345.71,439.041,286,380.636,286,256.306c0-16.589,2.367-33.062,7.035-48.963c1.238-4.219-0.423-8.751-4.095-11.169
	c-9.803-6.456-21.193-9.868-32.94-9.868s-23.137,3.412-32.94,9.868c-3.672,2.418-5.333,6.95-4.095,11.169
	c4.668,15.9,7.035,32.374,7.035,48.963c0,124.33-59.71,182.734-193.604,189.373c-5.622,0.276-10.309-3.737-10.877-9.349
	C20.511,426.461,20,416.359,20,406.306c0-93.241,50.679-183.626,129.109-230.264c13.641-8.107,25.488-9.736,40.181-9.736
	c19.045,0,46.71-17.378,46.71-44.61v-55.39h40v55.39c0,21.454,19.499,44.61,51,44.61c12.766,0,25.176,3.366,35.889,9.734
	C441.321,222.68,492,313.065,492,406.306C492,416.359,491.489,426.461,490.481,436.339z"/>
<path d="M188.294,325.337c-5.198-1.87-10.926,0.828-12.794,6.026c-8.068,22.434-21.223,38.986-40.217,50.603
	c-4.711,2.882-6.195,9.037-3.314,13.749c2.878,4.705,9.031,6.197,13.749,3.313c23.034-14.087,38.933-34.007,48.603-60.897
	C196.189,332.934,193.491,327.206,188.294,325.337z"/>
<path d="M376.708,381.965c-18.997-11.618-32.149-28.169-40.207-50.6c-1.867-5.198-7.595-7.898-12.792-6.03
	c-5.198,1.867-7.897,7.594-6.03,12.792c9.66,26.89,25.555,46.811,48.594,60.9c4.711,2.881,10.868,1.397,13.749-3.314
	C382.903,391.003,381.419,384.847,376.708,381.965z"/>
<g>
</g>
<g>
</g>
<g>
</g>
<g>
</g>
<g>
</g>
<g>
</g>
<g>
</g>
<g>
</g>
<g>
</g>
<g>
</g>
<g>
</g>
<g>
</g>
<g>
</g>
<g>
</g>
<g>
</g>
</svg>
