<?xml version="1.0" encoding="iso-8859-1"?>
<!-- Generator: Adobe Illustrator 19.0.0, SVG Export Plug-In . SVG Version: 6.00 Build 0)  -->
<svg version="1.1" id="Capa_1" xmlns="http://www.w3.org/2000/svg" xmlns:xlink="http://www.w3.org/1999/xlink" x="0px" y="0px"
	 viewBox="0 0 512 512" style="enable-background:new 0 0 512 512;" xml:space="preserve">
<g>
	<circle style="fill:#FE73B1;" cx="471.75" cy="256" r="30"/>
	<path style="fill:#FE73B1;" d="M431.46,80.29c11.71,11.72,11.71,30.72,0,42.43c-11.72,11.72-30.72,11.72-42.43,0
		c-11.72-11.71-11.72-30.71,0-42.43C400.74,68.58,419.74,68.58,431.46,80.29z"/>
	<path style="fill:#FE73B1;" d="M431.46,389.28c11.71,11.71,11.71,30.71,0,42.43c-11.72,11.71-30.72,11.71-42.43,0
		c-11.72-11.72-11.72-30.72,0-42.43C400.74,377.56,419.74,377.56,431.46,389.28z"/>
</g>
<path style="fill:#ED5151;" d="M395.75,256c0,77.33-62.677,140-140,140c-77.33,0-140-62.677-140-140c0-77.33,62.677-140,140-140
	C333.08,116,395.75,178.677,395.75,256z"/>
<g>
	<circle style="fill:#FE73B1;" cx="255.75" cy="40" r="30"/>
	<circle style="fill:#FE73B1;" cx="255.75" cy="472" r="30"/>
	<path style="fill:#FE73B1;" d="M122.47,80.29c11.72,11.72,11.72,30.72,0,42.43c-11.71,11.72-30.71,11.72-42.43,0
		c-11.71-11.71-11.71-30.71,0-42.43C91.76,68.58,110.76,68.58,122.47,80.29z"/>
	<path style="fill:#FE73B1;" d="M122.47,389.28c11.72,11.71,11.72,30.71,0,42.43c-11.71,11.71-30.71,11.71-42.43,0
		c-11.71-11.72-11.71-30.72,0-42.43C91.76,377.56,110.76,377.56,122.47,389.28z"/>
	<circle style="fill:#FE73B1;" cx="39.75" cy="256" r="30"/>
</g>
<path d="M176,206c5.52,0,10-4.48,10-10s-4.48-10-10-10s-10,4.48-10,10S170.48,206,176,206z"/>
<path d="M256,146c-19.361,0-38.416,5.126-55.104,14.823c-4.775,2.775-6.396,8.896-3.622,13.671c2.774,4.775,8.895,6.396,13.67,3.622
	C224.584,170.189,240.165,166,256,166c49.626,0,90,40.374,90,90s-40.374,90-90,90s-90-40.374-90-90
	c0-7.245,0.869-14.47,2.583-21.472c1.313-5.364-1.971-10.778-7.336-12.091c-5.368-1.321-10.778,1.971-12.091,7.335
	C147.062,238.33,146,247.154,146,256c0,60.654,49.346,110,110,110s110-49.346,110-110S316.654,146,256,146z"/>
<path d="M472,216c-18.604,0-34.282,12.767-38.734,30h-27.602c-2.157-32.984-14.962-63.903-36.761-88.761l21.264-21.265
	c14.948,8.853,35.128,7.302,48.613-6.183c15.59-15.591,15.591-40.968-0.003-56.575c-15.602-15.588-40.978-15.587-56.569,0.003
	c-13.485,13.487-15.034,33.667-6.183,48.613l-21.264,21.264c-24.856-21.798-55.776-34.603-88.761-36.76V78.734
	c17.233-4.452,30-20.13,30-38.734c0-22.056-17.944-40-40-40s-40,17.944-40,40c0,18.604,12.767,34.282,30,38.734v27.602
	c-32.984,2.157-63.903,14.962-88.761,36.761l-21.265-21.265c8.851-14.946,7.303-35.125-6.183-48.613l0,0
	c-15.591-15.59-40.968-15.591-56.575,0.003C57.627,88.823,57.628,114.2,73.219,129.79c13.487,13.489,33.668,15.036,48.614,6.185
	l21.264,21.264c-21.798,24.856-34.604,55.776-36.761,88.761H78.734c-4.452-17.233-20.13-30-38.734-30c-22.056,0-40,17.944-40,40
	s17.944,40,40,40c18.604,0,34.282-12.767,38.734-30h27.602c2.157,32.984,14.962,63.903,36.761,88.761l-21.264,21.265
	c-14.948-8.853-35.128-7.302-48.613,6.183c-15.59,15.591-15.591,40.968,0.003,56.575c15.598,15.584,40.974,15.591,56.569-0.003l0,0
	c13.485-13.487,15.034-33.667,6.183-48.613l21.264-21.264c24.856,21.798,55.776,34.603,88.761,36.76v27.602
	c-17.233,4.452-30,20.13-30,38.734c0,22.056,17.944,40,40,40s40-17.944,40-40c0-18.604-12.767-34.282-30-38.734v-27.602
	c32.984-2.157,63.903-14.962,88.761-36.761l21.265,21.265c-8.871,14.98-7.277,35.151,6.183,48.613
	c15.59,15.589,40.967,15.591,56.575-0.003c15.588-15.602,15.587-40.979-0.003-56.568c-13.487-13.489-33.668-15.036-48.614-6.185
	l-21.264-21.264c21.798-24.856,34.604-55.776,36.761-88.761h27.602c4.452,17.233,20.13,30,38.734,30c22.056,0,40-17.944,40-40
	S494.056,216,472,216z M396.351,87.361c7.793-7.793,20.485-7.797,28.285-0.003c7.797,7.804,7.799,20.494,0.003,28.29
	c0,0,0,0,0,0.001c-7.8,7.8-20.452,7.843-28.291-0.004C388.532,107.837,388.53,95.182,396.351,87.361z M236,40
	c0-11.028,8.972-20,20-20c11.028,0,20,8.972,20,20s-8.972,20-20,20S236,51.028,236,40z M87.361,115.648
	c-7.796-7.796-7.794-20.486-0.003-28.284c7.797-7.791,20.491-7.804,28.291-0.003c7.815,7.814,7.827,20.467-0.003,28.29
	C107.836,123.47,95.182,123.471,87.361,115.648z M40,276c-11.028,0-20-8.972-20-20s8.972-20,20-20s20,8.972,20,20
	C60,267.028,51.028,276,40,276z M115.649,424.639c-7.796,7.795-20.488,7.795-28.285,0.003c-7.797-7.804-7.799-20.494-0.003-28.291
	c7.8-7.8,20.452-7.843,28.291,0.004C123.468,404.163,123.47,416.818,115.649,424.639z M276,472c0,11.028-8.972,20-20,20
	s-20-8.972-20-20s8.972-20,20-20C267.028,452,276,460.972,276,472z M424.639,396.351
	C424.639,396.352,424.639,396.352,424.639,396.351c7.796,7.797,7.794,20.487,0.003,28.285c-7.803,7.798-20.495,7.799-28.291,0.003
	c-7.815-7.814-7.827-20.467,0.003-28.29C404.165,388.53,416.818,388.53,424.639,396.351z M348.006,347.85
	c-0.027,0.026-0.056,0.048-0.082,0.074s-0.048,0.055-0.073,0.081C323.299,372.506,290.684,386,256,386
	c-34.721,0-67.37-13.521-91.928-38.069C139.521,323.369,126,290.722,126,256c0-34.685,13.494-67.3,37.994-91.85
	c0.026-0.026,0.055-0.048,0.082-0.074c0.026-0.026,0.048-0.055,0.073-0.081C188.701,139.494,221.316,126,256,126
	c34.721,0,67.37,13.521,91.928,38.069C372.479,188.631,386,221.278,386,256C386,290.685,372.506,323.3,348.006,347.85z M472,276
	c-11.028,0-20-8.972-20-20s8.972-20,20-20s20,8.972,20,20C492,267.028,483.028,276,472,276z"/>
<g>
</g>
<g>
</g>
<g>
</g>
<g>
</g>
<g>
</g>
<g>
</g>
<g>
</g>
<g>
</g>
<g>
</g>
<g>
</g>
<g>
</g>
<g>
</g>
<g>
</g>
<g>
</g>
<g>
</g>
</svg>
