<?xml version="1.0" encoding="iso-8859-1"?>
<!-- Generator: Adobe Illustrator 19.0.0, SVG Export Plug-In . SVG Version: 6.00 Build 0)  -->
<svg version="1.1" id="Capa_1" xmlns="http://www.w3.org/2000/svg" xmlns:xlink="http://www.w3.org/1999/xlink" x="0px" y="0px"
	 viewBox="0 0 512 512" style="enable-background:new 0 0 512 512;" xml:space="preserve">
<path style="fill:#57555C;" d="M415.75,10c-10.005,0-269.271,0-280,0c-11.05,0-20,8.95-20,20v20c29.547,0,250.043,0,280,0v360v92h40
	V30C435.75,18.95,426.8,10,415.75,10z"/>
<path style="fill:#ED5151;" d="M75.75,190v160c0,22.09,17.91,40,40,40h160c22.09,0,40-17.91,40-40V190H75.75z"/>
<g>
	<path style="fill:#E3F2FF;" d="M215.75,350h-40c-11.05,0-20,8.95-20,20c0,5.278,0,15.02,0,20h10v20c0,11.05,8.95,20,20,20
		c6.995,0,13.005,0,20,0c11.05,0,20-8.95,20-20v-20h10c0-4.985,0-14.725,0-20C235.75,358.95,226.8,350,215.75,350z"/>
	<path style="fill:#E3F2FF;" d="M275.75,90h-60V50h-40v40h-60c-22.09,0-40,17.91-40,40v60h240c0-9.1,0-44.228,0-60
		C315.75,107.91,297.84,90,275.75,90z"/>
</g>
<path d="M236,160c5.52,0,10-4.48,10-10s-4.48-10-10-10s-10,4.48-10,10S230.48,160,236,160z"/>
<path d="M396,512h40c5.522,0,10-4.478,10-10V30c0-16.542-13.458-30-30-30c-10.005,0-269.271,0-280,0c-16.542,0-30,13.458-30,30v20
	c0,5.523,4.478,10,10,10h50v20h-50c-27.57,0-50,22.43-50,50v220c0,27.57,22.43,50,50,50h40v10c0,16.542,13.458,30,30,30v62
	c0,5.522,4.478,10,10,10s10-4.478,10-10v-62c16.542,0,30-13.458,30-30v-10h40c27.57,0,50-22.43,50-50V130c0-27.57-22.43-50-50-50
	h-50V60h160v340h-20v-10c0-5.523-4.478-10-10-10s-10,4.477-10,10v20c0,5.523,4.478,10,10,10h30v82C386,507.522,390.478,512,396,512z
	 M426,30v462h-20c0-22.465,0-458.949,0-472h10C421.514,20,426,24.486,426,30z M126,30c0-5.514,4.486-10,10-10h250v20
	c-4.336,0-255.728,0-260,0V30z M226,380h-60v-10c0-5.514,4.486-10,10-10h40c5.514,0,10,4.486,10,10V380z M216,410
	c0,5.514-4.486,10-10,10h-20c-5.514,0-10-4.486-10-10v-10h40V410z M276,380h-30v-10c0-16.542-13.458-30-30-30h-40
	c-16.542,0-30,13.458-30,30v10h-30c-16.542,0-30-13.458-30-30V200h220v20h-30c-5.522,0-10,4.477-10,10s4.478,10,10,10h30v20h-10
	c-5.522,0-10,4.477-10,10s4.478,10,10,10h10v20h-30c-5.522,0-10,4.477-10,10s4.478,10,10,10h30v30C306,366.542,292.542,380,276,380z
	 M306,130v10h-30c-5.522,0-10,4.477-10,10s4.478,10,10,10h30v20H86v-50c0-16.542,13.458-30,30-30h160
	C292.542,100,306,113.458,306,130z M186,80V60h20v20H186z"/>
<g>
</g>
<g>
</g>
<g>
</g>
<g>
</g>
<g>
</g>
<g>
</g>
<g>
</g>
<g>
</g>
<g>
</g>
<g>
</g>
<g>
</g>
<g>
</g>
<g>
</g>
<g>
</g>
<g>
</g>
</svg>
