<?xml version="1.0" encoding="iso-8859-1"?>
<!-- Generator: Adobe Illustrator 19.0.0, SVG Export Plug-In . SVG Version: 6.00 Build 0)  -->
<svg version="1.1" id="Capa_1" xmlns="http://www.w3.org/2000/svg" xmlns:xlink="http://www.w3.org/1999/xlink" x="0px" y="0px"
	 viewBox="0 0 512 512" style="enable-background:new 0 0 512 512;" xml:space="preserve">
<path style="fill:#FEC459;" d="M435.75,236v40c0,11.05-8.95,20-20,20h-100v-80h100C426.8,216,435.75,224.95,435.75,236z"/>
<path style="fill:#E3F2FF;" d="M115.75,216v80c11.101,0,188.899,0,200,0v-80C306.766,216,125.535,216,115.75,216z"/>
<path style="fill:#57555C;" d="M205.75,86c16.57,0,30,13.43,30,30s-13.43,30-30,30h-50c-22.09,0-40,17.91-40,40v-40
	c0-20.5,15.7-40,41.84-40c4.13-11.62,15.12-20,28.16-20H205.75z"/>
<path style="fill:#ED5151;" d="M115.75,216v80h-20c-11.05,0-20-8.95-20-20v-40c0-11.05,8.95-20,20-20H115.75z"/>
<path d="M256,512c138.01,0,256-117.815,256-256C512,118.017,394.185,0,256,0C116.863,0,0,125.078,0,262
	C0,402.372,120.359,512,256,512z M492,256c0,127.925-108.075,236-236,236c-58.399,0-116.089-22.492-159.855-62.002L220.143,306H416
	c16.542,0,30-13.458,30-30v-40c0-16.542-13.458-30-30-30h-95.858L428.554,97.588C468.981,141.467,492,198.65,492,256z M96,286
	c-5.514,0-10-4.486-10-10v-40c0-5.514,4.486-10,10-10h10v60H96z M126,226h145.858l-60,60H126V226z M300.142,226H306v60h-65.857
	L300.142,226z M416,226c5.514,0,10,4.486,10,10v40c0,5.514-4.486,10-10,10h-90v-60H416z M256,20
	c57.351,0,114.533,23.019,158.412,63.445L291.858,206H96c-16.542,0-30,13.458-30,30v40c0,16.542,13.458,30,30,30h95.858
	L81.871,415.987C41.904,373.371,20,319.068,20,262C20,133.084,130.28,20,256,20z"/>
<path d="M116,196c5.522,0,10-4.477,10-10c0-16.542,13.458-30,30-30h50c22.056,0,40-17.944,40-40s-17.944-40-40-40h-20
	c-14.492,0-27.714,7.956-34.717,20.361c-12.244,1.367-23.205,6.573-31.354,15C110.947,120.649,106,132.951,106,146v40
	C106,191.523,110.478,196,116,196z M126,146c0-14.908,10.937-30,31.84-30c4.231,0,8.006-2.664,9.423-6.651
	C170.101,101.364,177.63,96,186,96h20c11.028,0,20,8.972,20,20s-8.972,20-20,20h-50c-11.246,0-21.638,3.733-30,10.023V146z"/>
<g>
</g>
<g>
</g>
<g>
</g>
<g>
</g>
<g>
</g>
<g>
</g>
<g>
</g>
<g>
</g>
<g>
</g>
<g>
</g>
<g>
</g>
<g>
</g>
<g>
</g>
<g>
</g>
<g>
</g>
</svg>
