<?xml version="1.0" encoding="iso-8859-1"?>
<!-- Generator: Adobe Illustrator 19.0.0, SVG Export Plug-In . SVG Version: 6.00 Build 0)  -->
<svg version="1.1" id="Capa_1" xmlns="http://www.w3.org/2000/svg" xmlns:xlink="http://www.w3.org/1999/xlink" x="0px" y="0px"
	 viewBox="0 0 512.001 512.001" style="enable-background:new 0 0 512.001 512.001;" xml:space="preserve">
<path style="fill:#E3F2FF;" d="M480.022,31.729c15.614,15.594,15.639,40.939,0,56.558l-14.14,14.15l-56.568-56.568l14.15-14.14
	C439.084,16.099,464.403,16.099,480.022,31.729z"/>
<path style="fill:#57555C;" d="M492.952,202.633l-21.209-21.209l8.28-8.28c15.629-15.619,15.629-40.949,0-56.568
	c-20.072-20.072-67.559-67.559-84.847-84.847c-15.619-15.629-40.949-15.629-56.568,0l-8.28,8.28l-21.209-21.209
	c-11.697-11.697-30.685-11.743-42.428,0c-11.72,11.71-11.72,30.709,0,42.419c18.872,18.872,163.845,163.845,183.844,183.844
	c11.7,11.72,30.719,11.72,42.418,0C504.671,233.351,504.671,214.352,492.952,202.633z"/>
<path style="fill:#E3F2FF;" d="M386.896,181.423L181.173,387.146l-56.568-56.568l205.723-205.723L386.896,181.423z"/>
<path style="fill:#57555C;" d="M244.811,450.784C224.834,430.807,80.062,286.036,60.967,266.94c-11.7-11.72-30.719-11.72-42.419,0
	c-11.72,11.71-11.72,30.709,0,42.428l21.209,21.209l-8.28,8.28c-15.629,15.619-15.629,40.949,0,56.568
	c17.252,17.252,64.678,64.678,84.847,84.847c15.619,15.629,40.949,15.629,56.568,0l8.28-8.28l21.209,21.209
	c11.697,11.697,30.685,11.744,42.429,0C256.53,481.493,256.53,462.493,244.811,450.784z"/>
<path style="fill:#E3F2FF;" d="M102.186,466.133l-14.15,14.14c-15.619,15.629-40.939,15.629-56.558,0
	c-15.614-15.594-15.639-40.939,0-56.558l14.14-14.15L102.186,466.133z"/>
<path d="M317.648,194.353c-3.91-3.9-10.24-3.9-14.14,0c-3.91,3.91-3.91,10.24,0,14.139c3.9,3.91,10.23,3.91,14.14,0
	C321.548,204.592,321.548,198.263,317.648,194.353z"/>
<path d="M486.134,181.423c0.521-0.762,15.859-13.252,15.859-36.564c0-13.358-5.204-25.914-14.65-35.355l-7.071-7.071l7.066-7.072
	c19.541-19.513,19.561-51.174,0.007-70.702c-19.533-19.546-51.16-19.558-70.698-0.006l-7.079,7.074l-7.069-7.069
	c-19.535-19.549-51.171-19.556-70.712-0.002l-1.209,1.209l-14.138-14.139c-15.631-15.63-40.929-15.641-56.567-0.003
	c-15.635,15.623-15.643,40.935-0.003,56.563l56.567,56.567l-191.581,191.58l-56.561-56.561
	c-15.605-15.63-40.945-15.653-56.563-0.009C-3.909,275.492-3.911,300.8,11.728,316.44l14.139,14.138l-1.206,1.206
	c-19.549,19.535-19.556,51.171-0.002,70.713l7.071,7.071l-7.066,7.072c-19.541,19.513-19.561,51.174-0.007,70.702
	c19.533,19.544,51.158,19.559,70.7,0.005l7.079-7.074l7.069,7.069c19.535,19.549,51.171,19.557,70.713,0.002l1.208-1.208
	l14.138,14.139c15.632,15.631,40.931,15.64,56.568,0.003c15.635-15.623,15.643-40.935,0.003-56.563l-56.567-56.567l191.58-191.58
	l56.561,56.561c15.605,15.63,40.945,15.653,56.563,0.009c15.639-15.626,15.642-40.935,0.003-56.574L486.134,181.423z
	 M430.788,38.797c11.691-11.7,30.658-11.763,42.418,0.007c11.72,11.703,11.733,30.689-0.007,42.414l-7.068,7.074L423.709,45.87
	L430.788,38.797z M345.93,38.797c11.72-11.728,30.697-11.735,42.424,0.002l84.849,84.849c11.728,11.72,11.735,30.697-0.002,42.425
	l-1.208,1.209L344.719,40.008L345.93,38.797z M81.212,473.204c-11.691,11.7-30.658,11.763-42.418-0.007
	c-11.72-11.703-11.733-30.689,0.007-42.414l7.068-7.074l42.422,42.422L81.212,473.204z M166.07,473.204
	c-11.72,11.728-30.697,11.735-42.424-0.002l-84.849-84.849c-11.728-11.72-11.735-30.697,0.002-42.424l1.208-1.209L167.28,471.993
	L166.07,473.204z M237.99,486.132c-7.836,7.836-20.481,7.805-28.287,0c-8.36-8.36-174.684-174.684-183.834-183.834
	c-7.753-7.753-7.886-20.407,0.006-28.293c7.779-7.792,20.443-7.835,28.27,0.006l183.847,183.847
	C245.807,465.664,245.813,478.315,237.99,486.132z M181.423,373.004l-42.426-42.426l191.58-191.58l42.426,42.426L181.423,373.004z
	 M486.125,237.996c-7.779,7.792-20.443,7.835-28.27-0.006L274.007,54.144c-7.815-7.807-7.821-20.457,0.003-28.274
	c7.836-7.836,20.48-7.805,28.287,0c9.151,9.151,175.607,175.607,183.834,183.834C493.884,217.456,494.017,230.111,486.125,237.996z"
	/>
<path d="M275.218,222.641l-80.867,80.867c-3.905,3.905-3.905,10.237,0,14.142c3.905,3.905,10.237,3.905,14.143,0l80.867-80.867
	c3.905-3.905,3.905-10.237,0-14.143C285.455,218.735,279.123,218.735,275.218,222.641z"/>
<g>
</g>
<g>
</g>
<g>
</g>
<g>
</g>
<g>
</g>
<g>
</g>
<g>
</g>
<g>
</g>
<g>
</g>
<g>
</g>
<g>
</g>
<g>
</g>
<g>
</g>
<g>
</g>
<g>
</g>
</svg>
