<?xml version="1.0" encoding="iso-8859-1"?>
<!-- Generator: Adobe Illustrator 19.0.0, SVG Export Plug-In . SVG Version: 6.00 Build 0)  -->
<svg version="1.1" id="Capa_1" xmlns="http://www.w3.org/2000/svg" xmlns:xlink="http://www.w3.org/1999/xlink" x="0px" y="0px"
	 viewBox="0 0 512.001 512.001" style="enable-background:new 0 0 512.001 512.001;" xml:space="preserve">
<path style="fill:#5CBD9B;" d="M229.432,150.148H89.626c-44.119,0-79.889,35.77-79.889,79.889v5.992h283.607h0.569
	c2.986-8.388,7.649-16.138,13.641-22.798C299.835,177.181,267.789,150.148,229.432,150.148z"/>
<path style="fill:#E3F2FF;" d="M292.225,274.606c-3.505-13.232-2.626-26.553,1.688-38.577h-0.569H9.737V415.78h281.47h1.428
	c5.313-19.004,17.556-42.691,17.556-65.899C310.19,326.104,297.308,293.819,292.225,274.606z"/>
<path style="fill:#5CBD9B;" d="M229.432,30.314v19.972c-29.149,0-110.718,0-139.806,0V30.314c0-11.035,8.938-19.972,19.972-19.972
	h99.862C220.495,10.342,229.432,19.279,229.432,30.314z"/>
<path style="fill:#E3F2FF;" d="M229.432,130.176v19.972H89.626v-19.972c0-11.035,8.938-19.972,19.972-19.972
	c31.07,0,68.82,0,99.862,0C220.495,110.203,229.432,119.141,229.432,130.176z"/>
<rect x="139.557" y="50.281" style="fill:#57555C;" width="39.945" height="59.917"/>
<g>
	<path style="fill:#5CBD9B;" d="M291.207,415.78h1.428c-0.14,0.499-0.28,0.999-0.409,1.488c-5.732,21.74,0.369,43.719,14.041,59.797
		c-6.012,14.44-20.262,24.596-36.889,24.596H49.681c-22.059,0-39.945-17.885-39.945-39.945V415.78H291.207z"/>
	<path style="fill:#5CBD9B;" d="M159.529,275.974c27.532,0,49.931,22.389,49.931,49.931s-22.399,49.931-49.931,49.931
		s-49.931-22.389-49.931-49.931C109.598,298.363,131.997,275.974,159.529,275.974z"/>
</g>
<path style="fill:#FE73B1;" d="M481.633,349.881c0-23.777,12.882-56.062,17.965-75.276c10.985-41.513-21.151-83.904-66.768-84.493
	h-73.838c-45.542,0.586-77.774,42.944-66.768,84.493c5.083,19.213,17.965,51.499,17.965,75.276
	c0,23.208-12.243,46.895-17.556,65.899c-0.14,0.499-0.28,0.999-0.409,1.488c-10.914,41.394,21.111,83.804,66.768,84.393
	c0.379,0,0.749,0.01,1.128,0.01h71.581c0.379,0,0.749-0.01,1.128-0.01c45.567-0.589,77.702-42.921,66.768-84.393
	C494.525,398.025,481.633,373.698,481.633,349.881z"/>
<path d="M159.779,246.015c5.512,0,9.986-4.474,9.986-9.986c0-5.512-4.474-9.986-9.986-9.986s-9.986,4.474-9.986,9.986
	C149.793,241.541,154.266,246.015,159.779,246.015z"/>
<path d="M509.502,277.16c12.608-47.645-23.986-96.358-76.292-97.033c-0.043,0-0.086-0.001-0.129-0.001h-73.838
	c-0.043,0-0.086,0-0.129,0.001c-17.13,0.221-33.167,5.577-46.482,15.335c-5.66-13.529-14.603-25.635-26.078-35.021
	c-13.4-10.961-29.761-17.774-46.887-19.699v-10.566c0-16.519-13.439-29.959-29.959-29.959h-19.972V60.273h39.945
	c5.515,0,9.986-4.471,9.986-9.986V40.3h45.795l17.047,17.047c1.95,1.95,4.506,2.925,7.061,2.925s5.112-0.975,7.061-2.925
	c3.9-3.9,3.9-10.223,0-14.123L296.66,23.252c-1.872-1.872-4.413-2.925-7.061-2.925h-51.648
	C233.828,8.704,222.729,0.354,209.71,0.354h-99.862c-16.519,0-29.959,13.439-29.959,29.959v19.972c0,5.515,4.471,9.986,9.986,9.986
	h39.945v39.945h-19.972c-16.519,0-29.959,13.439-29.959,29.959v10.544C35.015,145.703,0,183.855,0,230.036v5.992
	c0,9.955,0,215.813,0,225.687c0,27.532,22.399,49.931,49.931,49.931h219.696c15.414,0,29.583-7.008,38.898-18.601
	c14.565,12.142,33.191,18.501,50.718,18.501l72.709,0.01c54.518-0.437,89.919-49.935,77.553-96.835
	c-5.273-20.001-17.636-43.125-17.636-64.841C491.869,328.052,504.448,296.263,509.502,277.16z M149.793,60.272h19.972v39.945
	h-19.972V60.272z M99.862,30.314c0-5.506,4.48-9.986,9.986-9.986h99.862c5.506,0,9.986,4.48,9.986,9.986V40.3h-39.945h-39.945
	H99.862V30.314z M99.862,130.176c0-5.506,4.48-9.986,9.986-9.986h29.959h39.945h29.959c5.506,0,9.986,4.48,9.986,9.986v9.986H99.862
	V130.176z M89.876,160.134h139.806c31.177,0,58.705,21.026,67.197,50.618c-3.735,4.762-6.885,9.873-9.4,15.291h-87.756
	c-5.515,0-9.986,4.471-9.986,9.986c0,5.515,4.471,9.886,9.986,9.886h81.582c-1.69,10.336-1.197,21.004,1.515,31.244
	c5.05,19.091,17.634,50.891,17.634,72.721c0,18.422-8.909,37.86-14.919,55.913H19.972V246.014h99.862
	c5.515,0,9.986-4.471,9.986-9.986c0-5.515-4.471-9.986-9.986-9.986h-99.74C22.172,189.35,52.672,160.134,89.876,160.134z
	 M269.627,491.675H49.931c-16.519,0-29.959-13.439-29.959-29.958v-35.95h260.821c-1.942,18.31,2.972,36.961,13.899,52.346
	C289.228,486.485,279.893,491.675,269.627,491.675z M490.194,272.051c-5.048,19.087-18.298,52.201-18.298,77.83
	c0,26.028,13.334,51.114,18.296,69.933c9.286,35.219-18.174,71.355-57.241,71.861l-72.581,0.009l-1-0.009
	c-38.848-0.5-67.138-36.566-56.869-73.208c5.206-18.626,17.924-43.237,17.924-68.588c0-25.631-13.248-58.745-18.299-77.832
	c-9.38-35.416,18.399-71.514,57.184-72.049h73.7C472.048,200.539,499.497,236.892,490.194,272.051z"/>
<path d="M433.213,220.072c-0.044,0-0.088-0.001-0.133-0.001h-73.318c-0.042,0-0.083,0-0.125,0.001
	c-26.306,0.33-44.145,24.384-38.197,46.88c3.23,12.172,18.959,49.564,18.959,82.919c0,34.222-15.893,63.406-18.953,75.032
	c-5.747,21.757,10.827,46.352,38.797,46.708c0.043,0,0.085,0.001,0.128,0.001c1.475,0-11.953,0.002,72.316-0.011
	c26.289-0.331,44.126-24.276,38.2-46.685c-3.384-12.826-18.953-40.117-18.953-75.045c0-33.318,15.873-71.295,18.952-82.929
	C477.063,243.577,457.858,220.4,433.213,220.072z M451.578,261.835c-3.143,11.88-19.616,50.571-19.616,88.036
	c0,38.66,17.006,70.259,19.616,80.146c2.576,9.743-5.761,21.545-19.178,21.715l-71.958,0.008
	c-14.375-0.215-22.208-12.18-19.681-21.745c2.479-9.421,19.612-41.641,19.612-80.124c0-37.217-16.57-76.527-19.625-88.034
	c-2.63-9.947,6.022-21.695,19.083-21.894h73.179C444.697,240.135,454.376,251.251,451.578,261.835z"/>
<path d="M99.862,325.905c0,33.038,26.879,59.917,59.917,59.917s59.917-26.879,59.917-59.917s-26.879-59.917-59.917-59.917
	S99.862,292.866,99.862,325.905z M199.723,325.905c0,22.026-17.919,39.945-39.945,39.945s-39.945-17.919-39.945-39.945
	c0-22.025,17.919-39.945,39.945-39.945S199.723,303.879,199.723,325.905z"/>
<g>
</g>
<g>
</g>
<g>
</g>
<g>
</g>
<g>
</g>
<g>
</g>
<g>
</g>
<g>
</g>
<g>
</g>
<g>
</g>
<g>
</g>
<g>
</g>
<g>
</g>
<g>
</g>
<g>
</g>
</svg>
