<?xml version="1.0" encoding="iso-8859-1"?>
<!-- Generator: Adobe Illustrator 19.0.0, SVG Export Plug-In . SVG Version: 6.00 Build 0)  -->
<svg version="1.1" id="Capa_1" xmlns="http://www.w3.org/2000/svg" xmlns:xlink="http://www.w3.org/1999/xlink" x="0px" y="0px"
	 viewBox="0 0 512 512" style="enable-background:new 0 0 512 512;" xml:space="preserve">
<path style="fill:#57555C;" d="M325.75,96c-8.533,0-156.46,0-180,0c-33.14,0-60,26.86-60,60v200c0,33.14,26.86,60,60,60
	c8.533,0,156.46,0,180,0c33.14,0,60-26.86,60-60c0-25.343,0-179.806,0-200C385.75,122.86,358.89,96,325.75,96z"/>
<path style="fill:#ADE6FF;" d="M329.25,133.333h-187c-11.874,0-21.5,9.626-21.5,21.5v202.333c0,11.874,9.626,21.5,21.5,21.5h187
	c11.874,0,21.5-9.626,21.5-21.5V154.833C350.75,142.959,341.124,133.333,329.25,133.333z"/>
<g>
	<path style="fill:#57555C;" d="M425.75,296v20c0,11.05-8.95,20-20,20h-20v-60h20C416.8,276,425.75,284.95,425.75,296z"/>
	<path style="fill:#57555C;" d="M425.75,196v20c0,11.05-8.95,20-20,20h-20v-60h20C416.8,176,425.75,184.95,425.75,196z"/>
</g>
<g>
	<path style="fill:#5CBD9B;" d="M309.54,25.15L321.93,96H149.57l12.39-70.85c2.23-8.9,10.23-15.15,19.41-15.15h108.76
		C299.31,10,307.31,16.25,309.54,25.15z"/>
	<path style="fill:#5CBD9B;" d="M321.93,416l-12.39,70.85c-2.23,8.9-10.23,15.15-19.41,15.15H181.37c-9.18,0-17.18-6.25-19.41-15.15
		L149.57,416H321.93z"/>
</g>
<path d="M236,146c5.52,0,10-4.48,10-10s-4.48-10-10-10s-10,4.48-10,10S230.48,146,236,146z"/>
<path d="M330.612,86.169c-8.599-49.136-10.985-62.9-11.122-63.45C316.138,9.342,304.167,0,290.38,0H181.62
	c-13.787,0-25.758,9.342-29.11,22.719c-0.138,0.55-2.523,14.314-11.122,63.45C104.934,88.554,76,118.953,76,156v200
	c0,37.047,28.934,67.446,65.388,69.831l10.972,62.741c0.042,0.238,0.092,0.474,0.15,0.708c3.352,13.378,15.323,22.72,29.11,22.72
	h108.76c13.787,0,25.758-9.342,29.11-22.719c0.059-0.234,0.108-0.471,0.15-0.708l10.972-62.741C367.066,423.446,396,393.047,396,356
	v-10h10c16.542,0,30-13.458,30-30v-20c0-16.542-13.458-30-30-30h-10v-20h10c16.542,0,30-13.458,30-30v-20c0-16.542-13.458-30-30-30
	h-10v-10C396,118.953,367.066,88.554,330.612,86.169z M181.62,20h108.76c4.498,0,8.416,2.982,9.633,7.29L310.279,86H161.721
	l10.266-58.71C173.204,22.982,177.122,20,181.62,20z M290.38,492H181.62c-4.498,0-8.416-2.982-9.633-7.29L161.721,426h148.558
	l-10.266,58.71C298.796,489.018,294.878,492,290.38,492z M376,356c0,27.57-22.43,50-50,50H146c-27.57,0-50-22.43-50-50V156
	c0-27.57,22.43-50,50-50c9.682,0,169.804,0,180,0c27.57,0,50,22.43,50,50C376,186.186,376,323.933,376,356z M416,296v20
	c0,5.514-4.486,10-10,10h-10v-40h10C411.514,286,416,290.486,416,296z M416,196v20c0,5.514-4.486,10-10,10h-10v-40h10
	C411.514,186,416,190.486,416,196z"/>
<path d="M326,126h-50c-5.522,0-10,4.477-10,10s4.478,10,10,10h50c5.514,0,10,4.486,10,10v90h-50c-4.305,0-8.126,2.754-9.487,6.838
	L266,284.377l-10.513-31.54C254.126,248.754,250.305,246,246,246h-12.192l-18.106-72.425C214.589,169.123,210.589,166,206,166
	s-8.589,3.123-9.701,7.575L178.192,246H136v-90c0-5.514,4.486-10,10-10h30c5.522,0,10-4.477,10-10s-4.478-10-10-10h-30
	c-16.542,0-30,13.458-30,30v200c0,16.542,13.458,30,30,30h180c16.542,0,30-13.458,30-30V156C356,139.458,342.542,126,326,126z
	 M326,366H146c-5.514,0-10-4.486-10-10v-90h50c4.589,0,8.589-3.123,9.701-7.575L206,217.231l10.299,41.194
	c1.112,4.452,5.112,7.575,9.701,7.575h12.792l17.721,53.162c1.361,4.083,5.183,6.838,9.487,6.838s8.126-2.754,9.487-6.838
	L293.208,266H336v90C336,361.514,331.514,366,326,366z"/>
<g>
</g>
<g>
</g>
<g>
</g>
<g>
</g>
<g>
</g>
<g>
</g>
<g>
</g>
<g>
</g>
<g>
</g>
<g>
</g>
<g>
</g>
<g>
</g>
<g>
</g>
<g>
</g>
<g>
</g>
</svg>
