<?xml version="1.0" encoding="iso-8859-1"?>
<!-- Generator: Adobe Illustrator 19.0.0, SVG Export Plug-In . SVG Version: 6.00 Build 0)  -->
<svg version="1.1" id="Capa_1" xmlns="http://www.w3.org/2000/svg" xmlns:xlink="http://www.w3.org/1999/xlink" x="0px" y="0px"
	 viewBox="0 0 512.001 512.001" style="enable-background:new 0 0 512.001 512.001;" xml:space="preserve">
<path style="fill:#E3F2FF;" d="M391.819,17.522c76.651,24.57,112.882,138.462,50.271,230.574
	c-55.471,81.601-30.561,137.002-62.001,211.664c-21.27,50.501-42.371,62.801-66.341-2.59
	c-19.57-53.351-18.03-141.172-58.031-140.883c-40.001,0.28-38.441,87.442-58.021,140.883c-23.79,64.881-44.941,53.421-66.351,2.59
	c-32.641-77.511-5.6-128.822-61.931-211.564C6.792,156.175,42.672,42.203,119.614,17.522c63.711-20.43,116.102,5.83,136.102,18.41
	C275.727,23.352,328.107-2.908,391.819,17.522z"/>
<polygon style="fill:#FEC459;" points="216.215,146.284 171.215,161.285 156.214,206.285 141.214,161.285 96.213,146.284 
	141.214,131.284 156.214,86.283 171.215,131.284 "/>
<path d="M385.968,46.993c-5.52,0-10,4.48-10,10s4.48,10,10,10c5.52,0,10-4.48,10-10S391.49,46.993,385.968,46.993z"/>
<path d="M395.123,7.999c-62.714-20.11-115.125,2.394-139.154,16.261C231.942,10.39,179.539-12.115,116.81,7.999
	C33.738,34.646-5.209,155.948,61.398,253.824c31.557,46.352,35.771,82.105,40.232,119.958c3.266,27.71,6.643,56.362,20.749,89.86
	c9.486,22.52,22.895,48.281,42.734,48.279c0.179,0,0.362-0.002,0.542-0.006c15.953-0.377,28.809-16.199,41.681-51.304
	c6.557-17.895,10.758-39.011,14.821-59.43c7.313-36.754,14.876-74.759,33.883-74.892c0.034,0,0.067,0,0.101,0
	c18.799,0,26.345,38.018,33.643,74.783c4.065,20.484,8.269,41.667,14.825,59.541c12.888,35.159,25.743,51.006,41.681,51.382
	c0.181,0.004,0.36,0.006,0.541,0.006c19.799,0,33.226-25.802,42.726-48.36c13.48-32.011,17.011-60.593,20.426-88.234
	c4.808-38.917,9.349-75.675,40.629-121.689l0,0C517.999,154.579,476.801,34.182,395.123,7.999z M434.07,242.474
	c-33.996,50.01-39.05,90.919-43.938,130.481c-3.397,27.497-6.606,53.469-19.009,82.922C356.407,490.816,347.873,492,346.794,492
	c-0.012,0-0.022,0-0.032,0c-0.385-0.009-9.586-0.655-23.375-38.274c-6.02-16.412-10.069-36.816-13.985-56.548
	c-4.396-22.15-8.548-43.073-15.392-59.404c-8.757-20.895-21.485-31.487-37.836-31.487c-0.091,0-0.184,0-0.275,0.001
	c-16.419,0.115-29.195,10.789-37.97,31.727c-6.841,16.322-10.992,37.181-15.385,59.263c-3.915,19.672-7.962,40.015-13.984,56.45
	c-13.764,37.538-22.987,38.184-23.373,38.193c-0.896,0.016-9.53-0.804-24.372-36.041c-13.007-30.889-16.073-56.899-19.318-84.438
	c-4.547-38.579-9.249-78.471-43.561-128.87C17.891,154.341,54.085,49.127,122.921,27.046c59.86-19.195,109.263,5.74,127.724,17.353
	c3.253,2.047,7.393,2.048,10.646,0.001c18.468-11.61,67.883-36.543,127.727-17.353C459.217,49.548,492.901,155.924,434.07,242.474z"
	/>
<path d="M410.384,75.112c-4.563,3.112-5.738,9.333-2.625,13.896c4.237,6.211,7.738,13.288,10.406,21.032
	c9.965,28.925,7.365,62.673-7.134,92.594c-2.409,4.97-0.332,10.951,4.638,13.36c4.971,2.409,10.952,0.332,13.36-4.638
	c16.788-34.643,19.72-73.945,8.045-107.83c-3.248-9.429-7.553-18.105-12.794-25.788C421.167,73.174,414.946,71.999,410.384,75.112z"
	/>
<path d="M219.629,136.797l-40.257-13.419l-13.419-40.257c-1.361-4.083-5.183-6.838-9.487-6.838s-8.125,2.754-9.487,6.838
	l-13.419,40.257l-40.257,13.419c-4.083,1.361-6.838,5.183-6.838,9.487s2.754,8.125,6.838,9.487l40.257,13.419l13.419,40.257
	c1.361,4.083,5.183,6.838,9.487,6.838s8.125-2.754,9.487-6.838l13.419-40.257l40.257-13.419c4.083-1.361,6.838-5.183,6.838-9.487
	S223.712,138.159,219.629,136.797z M168.303,151.797c-2.986,0.995-5.33,3.338-6.325,6.325l-5.513,16.54l-5.513-16.54
	c-0.995-2.986-3.338-5.33-6.325-6.325l-16.54-5.513l16.54-5.513c2.986-0.995,5.33-3.338,6.325-6.325l5.513-16.54l5.513,16.54
	c0.995,2.986,3.338,5.33,6.325,6.325l16.54,5.513L168.303,151.797z"/>
<g>
</g>
<g>
</g>
<g>
</g>
<g>
</g>
<g>
</g>
<g>
</g>
<g>
</g>
<g>
</g>
<g>
</g>
<g>
</g>
<g>
</g>
<g>
</g>
<g>
</g>
<g>
</g>
<g>
</g>
</svg>
