<?xml version="1.0" encoding="iso-8859-1"?>
<!-- Generator: Adobe Illustrator 19.0.0, SVG Export Plug-In . SVG Version: 6.00 Build 0)  -->
<svg version="1.1" id="Capa_1" xmlns="http://www.w3.org/2000/svg" xmlns:xlink="http://www.w3.org/1999/xlink" x="0px" y="0px"
	 viewBox="0 0 512.002 512.002" style="enable-background:new 0 0 512.002 512.002;" xml:space="preserve">
<path style="fill:#F98232;" d="M345.753,10.002c-60.75,0-110,49.25-110,110c0,3.37,0.15,6.71,0.45,10l108.75,99.99
	c0.27,0.01,0.53,0.01,0.8,0.01c60.75,0,110-49.25,110-110S406.503,10.002,345.753,10.002z"/>
<path style="fill:#FEC459;" d="M345.753,50.002c-38.59,0-70,31.41-70,70c0,3.39,0.24,6.73,0.71,10l72.78,59.91
	c36.98-1.82,66.51-32.49,66.51-69.91C415.753,81.412,384.343,50.002,345.753,50.002z"/>
<path style="fill:#ADE6FF;" d="M333.403,130.002c-75.535,0-139.762,0-215.3,0c-11.92,0-21.2,10.36-19.88,22.21l5.86,54.74l0.22-0.02
	c11.1-0.55,22.3,3.58,31.95,12.38c11.89,10.84,26.12,14.59,39.63,11.25c7.15-1.77,14.09-5.52,20.37-11.25
	c18.17-16.57,41.83-16.57,60,0s41.83,16.57,60,0c9.36-8.54,20.18-12.68,30.96-12.42l0.21,0.02c6.979-65.146,5.499-51.328,5.86-54.7
	C354.603,140.362,345.323,130.002,333.403,130.002z"/>
<path style="fill:#FE73B1;" d="M317.733,484.212c-1.13,10.13-9.69,17.79-19.88,17.79h-144.2c-10.19,0-18.75-7.66-19.88-17.79
	c-1.638-15.3-27.972-261.216-29.69-277.26l0.22-0.02c11.1-0.55,22.3,3.58,31.95,12.38c11.89,10.84,26.12,14.59,39.63,11.25
	c7.15-1.77,14.09-5.52,20.37-11.25c18.17-16.57,41.83-16.57,60,0s41.83,16.57,60,0c9.36-8.54,20.18-12.68,30.96-12.42l0.21,0.02
	C346.497,215.558,319.943,463.568,317.733,484.212z"/>
<polygon style="fill:#E3F2FF;" points="235.753,336.002 235.753,276.002 175.753,276.002 175.753,336.002 215.753,336.002 
	215.753,396.002 275.753,396.002 275.753,336.002 "/>
<path d="M226.003,452.002c-5.52,0-10,4.48-10,10s4.48,10,10,10s10-4.48,10-10S231.523,452.002,226.003,452.002z"/>
<path d="M88.529,153.276c2.452,22.9,34.008,317.604,35.555,332.045c1.698,15.21,14.518,26.681,29.819,26.681h144.199
	c15.302,0,28.121-11.47,29.824-26.725c0.861-8.045,25.734-240.326,26.294-245.562c62.349-4.238,111.782-56.308,111.782-119.713
	c0-66.168-53.832-120-120-120s-120,53.832-120,120h-50.95l-9.099-90.995c-0.438-4.374-3.679-7.949-7.989-8.811l-100-20
	C52.55-0.887,47.28,2.625,46.197,8.041s2.429,10.684,7.845,11.767l92.746,18.549l8.165,81.645h-36.6
	C100.352,120.002,86.571,135.695,88.529,153.276z M298.102,492.002H153.903c-5.102,0-9.376-3.826-9.938-8.855l-1.193-11.145h54.841
	c5.522,0,10-4.477,10-10s-4.478-10-10-10h-56.982l-25.024-233.7c4.96,1.556,9.744,4.374,14.159,8.4
	c14.051,12.81,31.818,17.757,48.771,13.567c8.955-2.217,17.268-6.782,24.705-13.568c14.348-13.085,32.176-13.085,46.523,0
	c10.987,10.02,23.862,15.029,36.737,15.029c12.876,0,25.753-5.01,36.741-15.031c4.096-3.738,8.525-6.45,13.12-8.065
	c-3.576,33.391-22.803,212.959-24.989,233.368h-45.372c-5.522,0-10,4.477-10,10s4.478,10,10,10h43.23l-1.188,11.101
	C307.478,488.175,303.204,492.002,298.102,492.002z M286.003,120.002c0-33.084,26.916-60,60-60s60,26.916,60,60
	c0,27.958-19.081,51.564-45.191,58.159l2.66-24.842c1.978-17.762-11.95-33.316-29.818-33.316L286.003,120.002L286.003,120.002z
	 M346.003,20.002c55.141,0,100,44.86,100,100c0,51.633-39.335,94.25-89.614,99.463l2.19-20.458
	c38.434-6.045,67.423-39.217,67.423-79.004c0-44.112-35.888-80-80-80s-80,35.888-80,80h-20
	C246.003,64.861,290.862,20.002,346.003,20.002z M333.653,140.002c5.879,0,10.613,5.066,9.937,11.145
	c-2.663,24.872,3.431-32.04-4.965,46.365c-10.368,1.641-20.215,6.524-28.861,14.411c-14.348,13.085-32.176,13.085-46.523,0
	c-21.976-20.04-51.503-20.039-73.479,0.002c-1.657,1.512-3.367,2.838-5.117,4.008l-7.593-75.93L333.653,140.002L333.653,140.002z
	 M165.122,221.688c-7.661-0.366-15.213-3.686-21.881-9.765c-8.809-8.033-19.175-13.018-29.874-14.532l-4.956-46.285
	c-0.659-5.923,3.96-11.104,9.941-11.104h38.6L165.122,221.688z"/>
<path d="M276.003,406.002c5.522,0,10-4.477,10-10v-60c0-5.523-4.478-10-10-10h-30v-50c0-5.523-4.478-10-10-10h-60
	c-5.522,0-10,4.477-10,10v60c0,5.523,4.478,10,10,10h30v50c0,5.523,4.478,10,10,10H276.003z M266.003,386.002h-40v-40h40V386.002z
	 M186.003,286.002h40v40c-11.898,0-27.854,0-40,0V286.002z"/>
<g>
</g>
<g>
</g>
<g>
</g>
<g>
</g>
<g>
</g>
<g>
</g>
<g>
</g>
<g>
</g>
<g>
</g>
<g>
</g>
<g>
</g>
<g>
</g>
<g>
</g>
<g>
</g>
<g>
</g>
</svg>
