<?xml version="1.0" encoding="iso-8859-1"?>
<!-- Generator: Adobe Illustrator 19.0.0, SVG Export Plug-In . SVG Version: 6.00 Build 0)  -->
<svg version="1.1" id="Capa_1" xmlns="http://www.w3.org/2000/svg" xmlns:xlink="http://www.w3.org/1999/xlink" x="0px" y="0px"
	 viewBox="0 0 512.001 512.001" style="enable-background:new 0 0 512.001 512.001;" xml:space="preserve">
<path style="fill:#4DBBEB;" d="M490.002,416.9l-83.558-80.598L252.347,124.442c-0.01-0.02-0.03-0.05-0.04-0.07
	c-13.978-23.427-3.879-59.201-23.167-78.499l-30.006-30.006c-6.129-6.119-15.498-7.609-23.217-3.669l-139.48,71.07l116.003,192.152
	l43.034,40.284L369.74,473.822l124.822,3.43l5.809-21.757C504.05,441.707,500.101,426.999,490.002,416.9z"/>
<path style="fill:#57555C;" d="M308.429,374.046c158.382,130.405,178.048,71.944,185.983,97.406c0.63,2.02,0.64,3.949,0.15,5.799
	c-3.989,14.928-41.254,24.157-58.751,24.706c-54.512,1.72-140.84-47.393-192.402-98.966c-17.417-17.408-61.811-71.21-48.713-86.518
	c0.24-0.28,0.5-0.53,0.78-0.77c7.919-6.659,33.035,2.2,42.524,6.069C262.913,331.936,270.265,342.631,308.429,374.046z"/>
<path style="fill:#E3F2FF;" d="M406.445,336.302c-5.519,5.459-21.947,5.159-58.632-2.15c-6.586-1.309-12.105-6.079-14.598-12.248
	c-63.948-157.491-73.077-184.371-80.868-197.461l0.1-0.06c3.24-1.72,7.129-1.76,10.409-0.06
	c17.158,8.889,37.835,11.318,57.322,9.019c5.159-0.62,10.139,2.02,12.118,6.829C333.602,143.355,413.024,329.783,406.445,336.302z"
	/>
<path style="fill:#57555C;" d="M152.441,275.421c-0.07,0.08-0.15,0.14-0.23,0.21C124.735,299.327-44.15,130.132,27.249,88.967
	c3.579-2.06,6.649-3.829,9.469-5.079C57.065,74.83,64.954,91.837,160.22,210.31C173.634,227.014,173.185,257.284,152.441,275.421z"
	/>
<path d="M189.116,62.161c3.899-3.909,3.899-10.239,0-14.148c-3.909-3.899-10.239-3.899-14.148,0c-3.899,3.909-3.899,10.239,0,14.148
	C178.877,66.061,185.206,66.061,189.116,62.161z"/>
<path d="M49.947,218.626c26.357,30.605,57.353,56.259,78.965,65.356c7.624,3.21,16.639,5.476,24.364,2.595
	c7.112,3.368,13.807,8.078,19.551,13.823c4.477,4.476,8.266,9.422,11.323,14.743c-4.582,10.876,0.42,26.79,15.377,49.333
	c11.569,17.435,27.322,35.855,37.06,45.587c50.647,50.657,137.275,101.939,196.644,101.939c21.347,0,65.343-10.101,71.241-32.167
	c0.002-0.006,0.003-0.012,0.004-0.018l5.806-21.743c4.584-17.18-0.382-35.664-12.959-48.242c-0.043-0.042-0.086-0.084-0.129-0.126
	l-78.498-75.717c1.517-8.883-3.266-19.745-8.572-31.79c-6.195-14.066-53.75-130.227-68.335-165.832
	c-3.672-8.926-12.727-14.128-22.536-12.954c-19.001,2.242-37.308-0.588-51.549-7.966c-2.973-1.541-6.218-2.332-9.473-2.373
	c-2.817-7.637-3.809-16.72-4.845-26.211c-1.877-17.178-3.816-34.939-16.93-48.058L206.449,8.791
	c-9.228-9.211-23.223-11.421-34.82-5.502C19.493,81.085,22.668,80.148,22.505,80.306C6.683,89.427-1.043,104.477,0.164,123.826
	C2.328,158.528,32.284,198.116,49.947,218.626z M168.887,272.233c12.376-17.709,13.664-40.439,5.52-58.151
	c18.234-16.189,53.988-15.769,85.65-15.391c4.503,0.054,8.832,0.1,13.057,0.105c11.188,28.008,27.505,68.792,51.081,126.855
	c1.13,2.796,2.684,5.39,4.576,7.725c-2.923,8.855-7.882,16.929-14.545,23.584c-1.601,1.602-3.29,3.106-5.049,4.511
	c-32.81-27.384-41.816-38.619-67.151-48.954c-13.079-5.333-29.267-10.337-41.446-8.868c-3.767-6.262-8.315-12.093-13.611-17.389
	C181.531,280.821,175.413,276.089,168.887,272.233z M467.169,485.569c-11.6,4.1-24.141,6.166-31.424,6.395
	c-53.289,1.675-137.527-48.543-185.018-96.044c-8.379-8.374-22.237-24.468-32.862-40.016c-14.672-21.468-15.422-30.216-15.27-32.503
	c4.116-0.745,16.396,1.318,31.878,7.632c22.762,9.285,29.762,19.306,66.885,49.935c0.581,0.613,1.225,1.14,1.919,1.577
	c131.992,108.424,172.364,88.575,181.636,91.331c0.055,0.122,0.127,0.303,0.205,0.556c0.051,0.161,0.048,0.192,0.033,0.25
	C484.76,476.087,480.79,480.756,467.169,485.569z M490.961,452.914l-0.486,1.819c-6.057-1.686-12.288-0.99-17.203-0.99
	c-23.045,0-67.192-14.224-148.364-79.388c1.181-1.05,2.333-2.134,3.452-3.254c7.783-7.774,13.825-17.009,17.828-27.128
	c20.401,4.062,34.899,6.102,45.42,6.102c5.389,0,9.731-0.539,13.291-1.611l78.34,75.565
	C490.746,431.576,493.705,442.636,490.961,452.914z M321.62,143.268c0.657-0.079,1.433,0.109,1.677,0.701l6.509,15.853l-13.849,2.77
	c-5.415,1.083-8.927,6.35-7.844,11.765c1.086,5.431,6.366,8.924,11.765,7.844l17.665-3.533c5.162,12.57,6.348,15.435,9.436,22.969
	l-13.746,2.751c-5.414,1.083-8.927,6.351-7.843,11.766c1.083,5.412,6.347,8.926,11.766,7.843l17.557-3.512l9.197,22.393
	c0.04,0.099,0.082,0.197,0.126,0.294l0.116,0.282l-13.442,2.69c-5.415,1.083-8.927,6.351-7.843,11.766
	c1.083,5.412,6.347,8.926,11.766,7.843l17.255-3.452c3.132,7.624,6.634,16.154,9.436,22.972l-15.017,3.007
	c-5.415,1.084-8.926,6.352-7.842,11.767c1.09,5.441,6.38,8.922,11.767,7.841l18.899-3.783c3.541,8.203,9.345,20.578,9.834,25.254
	c-1.423,0.406-4.735,0.968-11.66,0.577c-8.686-0.487-20.883-2.313-37.296-5.583c-3.042-0.605-5.949-2.906-7.281-6.203
	c-40.194-98.989-64.202-160.249-72.521-179.918C285.65,143.621,303.463,145.411,321.62,143.268z M180.713,21.104
	c3.865-1.973,8.528-1.233,11.601,1.833l30.004,30.005c8.14,8.144,9.623,21.719,11.192,36.091
	c1.531,14.011,3.134,28.295,10.494,40.523c3.837,6.447,8.644,18.095,21.094,49.193c-1.582-0.017-3.182-0.035-4.805-0.055
	c-34.418-0.413-73.157-0.861-97.273,18.823c-13.826-17.233-25.602-32.055-36.125-45.299c-29.145-36.687-45.199-56.896-57.029-68.018
	c-1.599-1.503-3.185-2.903-4.772-4.184L180.713,21.104z M32.58,97.58c3.287-1.892,6.126-3.524,8.455-4.557
	c4.176-1.86,6.328-2.534,15.135,5.747c10.771,10.129,27.445,31.117,55.069,65.887c11.846,14.911,25.271,31.81,41.437,51.914
	c10.388,12.947,10.014,36.393-6.767,51.332c-17.798,2.986-92.219-60.73-118.029-117.93C8.32,106.624,31.614,99.115,32.58,97.58z"/>
<path d="M114.096,99.926l36.445-18.567c4.921-2.507,6.877-8.527,4.37-13.448c-2.508-4.92-8.527-6.876-13.447-4.37l-36.445,18.567
	c-4.92,2.507-6.877,8.527-4.37,13.448C103.138,100.441,109.142,102.45,114.096,99.926z"/>
<g>
</g>
<g>
</g>
<g>
</g>
<g>
</g>
<g>
</g>
<g>
</g>
<g>
</g>
<g>
</g>
<g>
</g>
<g>
</g>
<g>
</g>
<g>
</g>
<g>
</g>
<g>
</g>
<g>
</g>
</svg>
