<?xml version="1.0" encoding="iso-8859-1"?>
<!-- Generator: Adobe Illustrator 19.0.0, SVG Export Plug-In . SVG Version: 6.00 Build 0)  -->
<svg version="1.1" id="Capa_1" xmlns="http://www.w3.org/2000/svg" xmlns:xlink="http://www.w3.org/1999/xlink" x="0px" y="0px"
	 viewBox="0 0 512 512" style="enable-background:new 0 0 512 512;" xml:space="preserve">
<path style="fill:#FFCDB3;" d="M501.268,306.087c0-95.414-140.182-91.455-187.909-0.17c-14.029-6.33-29.238-9.919-45.077-9.919
	c-26.168,0-61.106,9.329-80.585,25.578h-0.01c-0.37-17.179-2.6-34.288-4.79-49.487c-0.02-0.13-0.04-0.26-0.06-0.39
	c-3.15-21.899,0.44-44.237,10.159-64.116l6.44-13.199l-30.888-78.715h-0.01C112.281,174.195,64.273,240.161,25.866,311.757
	c-15.869,29.598-20.879,44.457-10.989,76.556c3.48,11.289,8.539,20.579,15.879,24.769c72.026,41.158,164.26,62.906,247.206,62.906
	c53.507,0,105.724-3.6,168.44-24.499C510.837,429.92,501.268,365.244,501.268,306.087z"/>
<path style="fill:#4DBBEB;" d="M257.952,36.013c49.697,0,89.995,40.288,89.995,89.995s-40.298,89.995-89.995,89.995
	c-49.813,0-89.995-40.403-89.995-89.995C167.957,76.436,208.121,36.013,257.952,36.013z"/>
<path style="fill:#57555C;" d="M257.952,76.011c27.558,0,49.997,22.429,49.997,49.997s-22.439,49.997-49.997,49.997
	c-27.568,0-49.997-22.429-49.997-49.997S230.384,76.011,257.952,76.011z"/>
<path d="M441.51,415.991c5.53,0,9.999-4.48,9.999-9.999c0-5.52-4.47-9.999-9.999-9.999c-5.52,0-9.999,4.48-9.999,9.999
	C431.511,411.511,435.991,415.991,441.51,415.991z"/>
<path d="M26.044,421.762c74.49,42.566,168.707,64.224,252.167,64.224c50.143,0,105.636-3.03,171.614-25.016
	c71.757-24.02,61.692-96.33,61.692-154.884c0-39.161-22.213-67.996-59.42-77.136c-48.744-11.975-110.93,12.229-142.825,64.402
	c-13.273-4.881-26.939-7.355-40.743-7.355c-20.625,0-49.195,5.591-71.567,17.633c-1.106-13.328-2.699-24.064-3.988-33.403
	c-4.948-34.52,9.843-58.895,10.399-60.605c16.205,10.623,35.261,16.379,54.826,16.379c55.137,0,99.994-44.857,99.994-99.994
	s-44.857-99.994-99.994-99.994c-49.692,0-91.582,36.34-98.863,85.076C103.395,169.71,55.615,235.613,17.302,307.031
	C0.664,338.066-5.475,355.411,5.57,391.257C10.306,406.623,17.004,416.603,26.044,421.762z M258.201,46.012
	c44.109,0,79.995,35.886,79.995,79.995s-35.886,79.995-79.995,79.995c-44.18,0-79.995-35.834-79.995-79.995
	C178.206,81.751,213.971,46.012,258.201,46.012z M34.926,316.484c34.095-63.555,75.877-122.63,124.347-175.952
	c3.104,21.192,12.939,40.873,28.175,56.13l-3.186,6.53c-17.934,36.682-11.015,68.69-11.013,70.324
	c2.229,15.471,4.34,32.027,4.69,48.285c0.272,12.201-0.456,22.811-2.228,32.435c-1.128,6.133,3.579,11.811,9.845,11.811
	c4.731,0,8.936-3.372,9.823-8.191c1.764-9.585,2.624-19.903,2.612-31.398c18.705-13.311,49.522-20.459,70.539-20.459
	c20.506,0,40.287,6.697,57.61,18.306c4.588,3.074,10.799,1.848,13.873-2.74c3.075-4.588,1.848-10.799-2.74-13.873
	c-3.164-2.121-6.409-4.103-9.708-5.935c28.6-45.02,81.912-62.682,119.761-53.383c16.504,4.054,44.191,16.943,44.191,57.715
	c0,60.169,8.928,116.85-48.028,135.915c-59.74,19.907-109.278,23.986-165.279,23.986c-84.197,0-174.756-23.024-242.249-61.591
	c-4.238-2.419-8.244-9.177-11.28-19.029C15.74,356.346,20.123,344.095,34.926,316.484z"/>
<path d="M235.125,444.137c12.72,1.16,28.822,1.852,43.075,1.852c37.251,0,81.742-1.677,129.284-14.115
	c5.343-1.398,8.541-6.862,7.143-12.205c-1.398-5.344-6.862-8.541-12.205-7.143c-45.227,11.832-86.432,13.463-124.222,13.463
	c-13.683,0-29.107-0.661-41.26-1.769c-5.509-0.507-10.365,3.551-10.866,9.05C225.574,438.77,229.626,443.636,235.125,444.137z"/>
<path d="M258.201,186.004c33.082,0,59.996-26.914,59.996-59.996s-26.914-59.996-59.996-59.996s-59.996,26.914-59.996,59.996
	S225.119,186.004,258.201,186.004z M258.201,86.01c22.055,0,39.998,17.943,39.998,39.998s-17.943,39.998-39.998,39.998
	c-22.055,0-39.998-17.943-39.998-39.998S236.146,86.01,258.201,86.01z"/>
<g>
</g>
<g>
</g>
<g>
</g>
<g>
</g>
<g>
</g>
<g>
</g>
<g>
</g>
<g>
</g>
<g>
</g>
<g>
</g>
<g>
</g>
<g>
</g>
<g>
</g>
<g>
</g>
<g>
</g>
</svg>
