<?xml version="1.0" encoding="iso-8859-1"?>
<!-- Generator: Adobe Illustrator 19.0.0, SVG Export Plug-In . SVG Version: 6.00 Build 0)  -->
<svg version="1.1" id="Capa_1" xmlns="http://www.w3.org/2000/svg" xmlns:xlink="http://www.w3.org/1999/xlink" x="0px" y="0px"
	 viewBox="0 0 512 512" style="enable-background:new 0 0 512 512;" xml:space="preserve">
<path style="fill:#5CBD9B;" d="M501.75,70v372c0,33.14-26.86,60-60,60h-372c-33.14,0-60-26.86-60-60V70c0-33.14,26.86-60,60-60h372
	C474.89,10,501.75,36.86,501.75,70z"/>
<rect x="155.75" y="50" style="fill:#57555C;" width="200" height="96.64"/>
<g>
	<path style="fill:#E3F2FF;" d="M375.75,296v96c0,16.56-13.44,30-30,30c-16.57,0-30-13.43-30-30v-9.04
		c0-36.391-13.534-58.494-18.06-72.1c-10.51-26.28,8.84-54.86,37.14-54.86h0.92C357.84,256,375.75,273.91,375.75,296z"/>
	<path style="fill:#E3F2FF;" d="M155.75,173v-26.36c21.5-32.33,58.26-53.64,100-53.64s78.5,21.31,100,53.64V173
		C344.649,173,166.851,173,155.75,173z"/>
	<path style="fill:#E3F2FF;" d="M176.67,256c28.3,0,47.65,28.58,37.14,54.86c-4.504,13.538-18.06,35.679-18.06,72.1V392
		c0,16.57-13.43,30-30,30c-16.56,0-30-13.44-30-30v-96c0-22.09,17.91-40,40-40H176.67z"/>
</g>
<path d="M256,452c-5.52,0-10,4.48-10,10s4.48,10,10,10c5.52,0,10-4.48,10-10S261.52,452,256,452z"/>
<path d="M442,0H70C31.402,0,0,31.402,0,70v372c0,38.598,31.402,70,70,70h372c38.598,0,70-31.402,70-70V70
	C512,31.402,480.598,0,442,0z M492,442c0,27.57-22.43,50-50,50H70c-27.57,0-50-22.43-50-50V70c0-27.57,22.43-50,50-50h372
	c27.57,0,50,22.43,50,50V442z"/>
<path d="M442,40h-46c-5.522,0-10,4.477-10,10v123c0,16.542-13.458,30-30,30H156c-16.542,0-30-13.458-30-30V50
	c0-5.523-4.478-10-10-10H70c-16.542,0-30,13.458-30,30v372c0,16.542,13.458,30,30,30h146c5.522,0,10-4.477,10-10s-4.478-10-10-10H70
	c-5.514,0-10-4.486-10-10V70c0-5.514,4.486-10,10-10h36v113c0,27.57,22.43,50,50,50h200c27.57,0,50-22.43,50-50V60h36
	c5.514,0,10,4.486,10,10v372c0,5.514-4.486,10-10,10H296c-5.522,0-10,4.477-10,10s4.478,10,10,10h146c16.542,0,30-13.458,30-30V70
	C472,53.458,458.542,40,442,40z"/>
<path d="M146,173c0,5.523,4.478,10,10,10h200c5.522,0,10-4.477,10-10c0-12.865,0-111.08,0-123c0-5.523-4.478-10-10-10H156
	c-5.522,0-10,4.477-10,10C146,63.353,146,157.468,146,173z M266,163v-30c0-5.523-4.478-10-10-10s-10,4.477-10,10v30h-80v-13.255
	C186.64,120.421,220.06,103,256,103s69.36,17.421,90,46.745V163H266z M346,60v59.175C322.044,96.171,289.975,83,256,83
	s-66.044,13.171-90,36.175V60H346z"/>
<path d="M176.92,246H176c-27.57,0-50,22.43-50,50v96c0,10.68,4.162,20.723,11.719,28.281C145.275,427.838,155.319,432,166,432
	c22.056,0,40-17.944,40-40v-9.04c0-34.128,12.656-54.389,17.345-68.387C236.454,281.797,212.326,246,176.92,246z M204.775,307.144
	C200.242,320.824,186,344.177,186,382.96V392c0,11.028-8.972,20-20,20c-5.338,0-10.359-2.082-14.139-5.861
	C148.082,402.359,146,397.338,146,392v-96c0-16.542,13.458-30,30-30h0.92C198.048,266,212.713,287.299,204.775,307.144z"/>
<path d="M346,432c10.681,0,20.725-4.162,28.281-11.719C381.838,412.723,386,402.68,386,392v-96c0-27.57-22.43-50-50-50h-0.92
	c-35.356,0-59.55,35.757-46.424,68.576C293.248,328.284,306,348.752,306,382.96V392C306,414.056,323.944,432,346,432z M335.08,266
	H336c16.542,0,30,13.458,30,30v96c0,5.338-2.082,10.359-5.861,14.139C356.359,409.918,351.338,412,346,412c-11.028,0-20-8.972-20-20
	v-9.04c0-38.84-14.363-62.503-18.774-75.813C299.362,287.484,313.743,266,335.08,266z"/>
<g>
</g>
<g>
</g>
<g>
</g>
<g>
</g>
<g>
</g>
<g>
</g>
<g>
</g>
<g>
</g>
<g>
</g>
<g>
</g>
<g>
</g>
<g>
</g>
<g>
</g>
<g>
</g>
<g>
</g>
</svg>
