<?xml version="1.0" encoding="iso-8859-1"?>
<!-- Generator: Adobe Illustrator 19.0.0, SVG Export Plug-In . SVG Version: 6.00 Build 0)  -->
<svg version="1.1" id="Capa_1" xmlns="http://www.w3.org/2000/svg" xmlns:xlink="http://www.w3.org/1999/xlink" x="0px" y="0px"
	 viewBox="0 0 512 512" style="enable-background:new 0 0 512 512;" xml:space="preserve">
<path style="fill:#57555C;" d="M481.75,256c11.05,0,20,8.95,20,20c0,11.04-8.96,20-20,20h-80c-11.05,0-20-8.95-20-20
	c0-11.04,8.96-20,20-20C411.429,256,472.007,256,481.75,256z"/>
<path style="fill:#4DBBEB;" d="M481.75,296v166c0,22.09-17.91,40-40,40s-40-17.91-40-40V296H481.75z"/>
<path style="fill:#57555C;" d="M109.75,256c11.05,0,20,8.95,20,20c0,11.04-8.96,20-20,20h-80c-11.05,0-20-8.95-20-20
	c0-11.04,8.96-20,20-20C39.429,256,100.007,256,109.75,256z"/>
<path style="fill:#4DBBEB;" d="M109.75,296v166c0,22.09-17.91,40-40,40s-40-17.91-40-40V296H109.75z"/>
<path d="M442,346c-5.52,0-10,4.48-10,10s4.48,10,10,10s10-4.48,10-10S447.52,346,442,346z"/>
<path d="M70,346c-5.52,0-10,4.48-10,10s4.48,10,10,10s10-4.48,10-10S75.52,346,70,346z"/>
<path d="M20,304.28V462c0,27.57,22.43,50,50,50s50-22.43,50-50V304.296c11.391-4.019,20-14.965,20-28.296c0-16.542-13.458-30-30-30
	H80V70c0-26.636,24.767-50,53-50c27.36,0,53,22.149,53,50v166c0,38.598,31.402,70,70,70c18.69,0,36.269-7.279,49.504-20.502
	C318.721,272.269,326,254.69,326,236V70c0-28.617,29.565-50,56-50c27.699,0,50,22.426,50,50v176h-30c-16.575,0-30,13.424-30,30
	c0,13.036,8.361,24.152,20,28.28V462c0,27.57,22.43,50,50,50s50-22.43,50-50V304.296c11.391-4.019,20-14.965,20-28.296
	c0-16.542-13.458-30-30-30h-30V70c0-38.625-31.248-70-70-70c-38.049,0-76,30.684-76,70v166c0,13.352-5.201,25.91-14.639,35.356
	C281.91,280.799,269.352,286,256,286c-27.57,0-50-22.43-50-50V70c0-39.181-34.856-70-73-70C93.43,0,60,32.056,60,70v176H30
	c-16.575,0-30,13.424-30,30C0,289.036,8.361,300.152,20,304.28z M442,492c-16.542,0-30-13.458-30-30V306h60v156
	C472,478.542,458.542,492,442,492z M492,276c0,5.522-4.479,10-10,10h-80c-5.514,0-10-4.486-10-10c0-5.522,4.479-10,10-10h80
	C487.514,266,492,270.486,492,276z M70,492c-16.542,0-30-13.458-30-30V306h60v156C100,478.542,86.542,492,70,492z M30,266h80
	c5.514,0,10,4.486,10,10c0,5.522-4.479,10-10,10H30c-5.514,0-10-4.486-10-10C20,270.478,24.479,266,30,266z"/>
<path d="M70,386c-5.522,0-10,4.477-10,10v46c0,5.523,4.478,10,10,10s10-4.477,10-10v-46C80,390.477,75.522,386,70,386z"/>
<path d="M442,386c-5.522,0-10,4.477-10,10v46c0,5.523,4.478,10,10,10s10-4.477,10-10v-46C452,390.477,447.522,386,442,386z"/>
<g>
</g>
<g>
</g>
<g>
</g>
<g>
</g>
<g>
</g>
<g>
</g>
<g>
</g>
<g>
</g>
<g>
</g>
<g>
</g>
<g>
</g>
<g>
</g>
<g>
</g>
<g>
</g>
<g>
</g>
</svg>
