<?xml version="1.0" encoding="iso-8859-1"?>
<!-- Generator: Adobe Illustrator 19.0.0, SVG Export Plug-In . SVG Version: 6.00 Build 0)  -->
<svg version="1.1" id="Capa_1" xmlns="http://www.w3.org/2000/svg" xmlns:xlink="http://www.w3.org/1999/xlink" x="0px" y="0px"
	 viewBox="0 0 512 512" style="enable-background:new 0 0 512 512;" xml:space="preserve">
<path style="fill:#57555C;" d="M481.75,86h-252c-11.05,0-20,8.95-20,20v340c0,11.05,8.95,20,20,20h252c11.05,0,20-8.95,20-20V106
	C501.75,94.95,492.8,86,481.75,86z"/>
<rect x="249.75" y="126" style="fill:#E3F2FF;" width="212" height="300"/>
<path style="fill:#FEC459;" d="M421.75,86v40h-132V86h26c0-22.09,17.91-40,40-40s40,17.91,40,40H421.75z"/>
<path style="fill:#4DBBEB;" d="M109.75,126h-40c-33.14,0-60,26.86-60,60c0,10.503,0,60.015,0,67.64c6.14,5.49,10,13.48,10,22.36
	s-3.86,16.87-10,22.36c0,20.48,0,114.157,0,127.64c0,22.09,17.91,40,40,40h80c22.09,0,40-17.91,40-40c0-13.629,0-107.182,0-127.64
	c-6.14-5.49-10-13.48-10-22.36s3.86-16.87,10-22.36c0-7.625,0-57.111,0-67.64C169.75,152.86,142.89,126,109.75,126z"/>
<path style="fill:#E3F2FF;" d="M109.75,86V46h-40v40c-11.05,0-20,8.95-20,20v20c23.456,0,55.045,0,80,0v-20
	C129.75,94.95,120.8,86,109.75,86z"/>
<path d="M290,196c5.52,0,10-4.48,10-10s-4.48-10-10-10s-10,4.48-10,10S284.48,196,290,196z"/>
<path d="M290,256c5.52,0,10-4.48,10-10s-4.48-10-10-10s-10,4.48-10,10S284.48,256,290,256z"/>
<path d="M50,476h80c27.57,0,50-22.43,50-50c0-13.629,0-107.182,0-127.64c0-2.846-1.213-5.558-3.335-7.455
	C172.429,287.118,170,281.685,170,276s2.429-11.118,6.665-14.905c4.9-4.381,2.854-9.867,3.335-15.095v-60
	c0-27.867-16.372-51.977-40-63.232V106c0-13.036-8.361-24.152-20-28.28V46c0-5.523-4.477-10-10-10H70c-5.523,0-10,4.477-10,10v31.72
	C48.361,81.848,40,92.964,40,106v16.768C16.372,134.023,0,158.133,0,186c0,10.503,0,60.015,0,67.64c0,2.846,1.213,5.558,3.335,7.455
	C7.571,264.882,10,270.315,10,276s-2.429,11.118-6.665,14.905C1.213,292.802,0,295.514,0,298.36C0,318.84,0,412.517,0,426
	C0,453.57,22.43,476,50,476z M130,456H50c-16.542,0-30-13.458-30-30V316h140v110C160,442.542,146.542,456,130,456z M24.637,255.9
	h130.726C151.888,261.921,150,268.913,150,276s1.888,13.979,5.363,20H24.637C28.112,289.979,30,283.087,30,276
	S28.112,261.921,24.637,255.9z M80,56h20v20H80V56z M60,116v-10c0-5.514,4.486-10,10-10h40c5.514,0,10,4.486,10,10v10H60z M70,136
	h40c27.57,0,50,22.43,50,50v50H20v-50C20,158.43,42.43,136,70,136z"/>
<path d="M482,76c-15.718,0-61.313,0-77.005,0C400.35,53.206,380.146,36,356,36s-44.35,17.206-48.995,40c-15.689,0-61.287,0-77.005,0
	c-16.542,0-30,13.458-30,30v340c0,16.542,13.458,30,30,30h252c16.542,0,30-13.458,30-30V106C512,89.458,498.542,76,482,76z M452,136
	v280H260V136H452z M316,96c5.522,0,10-4.477,10-10c0-16.542,13.458-30,30-30s30,13.458,30,30c0,5.523,4.478,10,10,10h16v20H300V96
	H316z M492,446c0,5.514-4.486,10-10,10H230c-5.514,0-10-4.486-10-10V106c0-5.514,4.486-10,10-10h50v20h-30c-5.522,0-10,4.477-10,10
	v300c0,5.523,4.478,10,10,10h212c5.522,0,10-4.477,10-10V126c0-5.523-4.478-10-10-10h-30V96h50c5.514,0,10,4.486,10,10V446z"/>
<path d="M330,196h92c5.522,0,10-4.477,10-10s-4.478-10-10-10h-92c-5.522,0-10,4.477-10,10S324.478,196,330,196z"/>
<path d="M290,316h132c5.522,0,10-4.477,10-10s-4.478-10-10-10H290c-5.522,0-10,4.477-10,10S284.478,316,290,316z"/>
<path d="M290,376h132c5.522,0,10-4.477,10-10s-4.478-10-10-10H290c-5.522,0-10,4.477-10,10S284.478,376,290,376z"/>
<path d="M330,256h92c5.522,0,10-4.477,10-10s-4.478-10-10-10h-92c-5.522,0-10,4.477-10,10S324.478,256,330,256z"/>
<g>
</g>
<g>
</g>
<g>
</g>
<g>
</g>
<g>
</g>
<g>
</g>
<g>
</g>
<g>
</g>
<g>
</g>
<g>
</g>
<g>
</g>
<g>
</g>
<g>
</g>
<g>
</g>
<g>
</g>
</svg>
