<?xml version="1.0" encoding="iso-8859-1"?>
<!-- Generator: Adobe Illustrator 19.0.0, SVG Export Plug-In . SVG Version: 6.00 Build 0)  -->
<svg version="1.1" id="Capa_1" xmlns="http://www.w3.org/2000/svg" xmlns:xlink="http://www.w3.org/1999/xlink" x="0px" y="0px"
	 viewBox="0 0 511.998 511.998" style="enable-background:new 0 0 511.998 511.998;" xml:space="preserve">
<polygon style="fill:#E3F2FF;" points="401.852,62.99 401.843,62.99 250.589,195.983 372.772,195.983 448.743,109.891 
	448.743,109.881 "/>
<path style="fill:#57555C;" d="M361.282,473.05l-22.761-51.471v-0.01l-165.574-0.01l-0.16,0.45l-22.571,51.041
	c-6.65,13.29,3.02,28.941,17.89,28.941h175.284C358.262,501.99,367.931,486.34,361.282,473.05z"/>
<path style="fill:#FEC459;" d="M10.024,219.274c-2.03-12.19,7.37-23.291,19.72-23.291h220.845c11.412,0,222.578,0,231.165,0
	c12.35,0,21.75,11.1,19.72,23.291c-0.331,1.987,1.2-7.197-3.24,19.43c-18.962,113.83-127.089,197.285-242.486,197.285
	c-115.194,0-223.487-83.252-242.486-197.285C8.823,212.077,10.355,221.261,10.024,219.274z"/>
<path style="fill:#57555C;" d="M487.115,24.619c19.52,19.53,19.52,51.191,0,70.722c-19.449,19.449-51.159,19.562-70.722,0
	c-19.589-19.589-19.431-51.29,0-70.722C435.924,5.099,467.584,5.099,487.115,24.619z"/>
<path d="M255.999,245.984c5.52,0,10-4.48,10-10c0-5.52-4.48-10-10-10c-5.52,0-10,4.48-10,10
	C245.999,241.504,250.478,245.984,255.999,245.984z"/>
<path d="M3.649,240.348c14.328,85.998,77.172,155.187,156.166,186.836l-18.406,41.624c-4.561,9.311-4.034,20.113,1.425,28.949
	c5.507,8.912,15.049,14.233,25.525,14.233h175.283c10.476,0,20.018-5.321,25.525-14.233c5.459-8.835,5.985-19.637,1.425-28.949
	l-18.407-41.626c79.369-31.806,141.9-101.199,156.169-186.848l3.237-19.417c1.452-8.717-0.992-17.584-6.705-24.329
	c-5.711-6.74-14.05-10.605-22.88-10.605h-86.821l58.281-66.045c15.332-0.368,30.041-6.595,40.973-17.528
	c23.384-23.397,23.384-61.464-0.004-84.864c-23.397-23.385-61.464-23.385-84.863,0.002c-10.927,10.928-17.152,25.63-17.523,40.957
	L247.067,185.983H29.994c-8.829,0-17.168,3.866-22.88,10.605c-5.713,6.743-8.157,15.61-6.704,24.333L3.649,240.348z
	 M352.588,477.525c2.249,4.494,0.443,8.294-0.438,9.72c-0.882,1.427-3.476,4.746-8.51,4.746H168.357
	c-5.034,0-7.628-3.319-8.51-4.746c-0.881-1.425-2.687-5.226-0.438-9.72c0.213-0.43-1.081,2.462,19.285-43.585
	c25.258,7.991,51.216,12.05,77.304,12.05c26.08,0,52.038-4.059,77.303-12.051C353.594,479.816,352.374,477.091,352.588,477.525z
	 M423.711,31.692c15.594-15.585,40.978-15.597,56.579-0.003c15.592,15.6,15.592,40.982,0.002,56.58
	c-15.581,15.581-40.957,15.622-56.579,0C408.011,72.566,408.217,47.188,423.711,31.692z M396.046,81.623
	c2.986,7.732,7.56,14.824,13.525,20.789c5.958,5.958,13.041,10.529,20.759,13.515l-61.821,70.056h-91.152L396.046,81.623z
	 M22.374,209.518c1.931-2.279,4.637-3.534,7.619-3.534h452.011c2.982,0,5.688,1.255,7.619,3.534
	c1.934,2.282,2.728,5.164,2.237,8.109l-1.393,8.357H295.999c-5.522,0-10,4.477-10,10c0,5.523,4.478,9.9,10,9.9h190.923
	c-15.967,75.246-73.263,138.507-151.496,166.259c-0.002,0-0.003,0.001-0.004,0.001c-25.867,9.186-52.589,13.843-79.425,13.843
	c-26.855,0-53.586-4.661-79.458-13.854c-78.219-27.751-135.504-90.914-151.467-166.15h190.923c5.522,0,10-4.477,10-10
	c0-5.523-4.478-10-10-10H21.53l-1.392-8.353C19.647,214.681,20.441,211.8,22.374,209.518z"/>
<path d="M215.999,325.986c-5.522,0-10,4.477-10,10c0,5.523,4.478,10,10,10h30.001v30.001c0,5.523,4.478,10,10,10
	c5.522,0,10-4.477,10-10v-30.001H296c5.522,0,10-4.477,10-10c0-5.523-4.478-10-10-10H266v-30.001c0-5.523-4.478-10-10-10
	c-5.522,0-10,4.477-10,10v30.001H215.999z"/>
<g>
</g>
<g>
</g>
<g>
</g>
<g>
</g>
<g>
</g>
<g>
</g>
<g>
</g>
<g>
</g>
<g>
</g>
<g>
</g>
<g>
</g>
<g>
</g>
<g>
</g>
<g>
</g>
<g>
</g>
</svg>
