<?xml version="1.0" encoding="iso-8859-1"?>
<!-- Generator: Adobe Illustrator 19.0.0, SVG Export Plug-In . SVG Version: 6.00 Build 0)  -->
<svg version="1.1" id="Capa_1" xmlns="http://www.w3.org/2000/svg" xmlns:xlink="http://www.w3.org/1999/xlink" x="0px" y="0px"
	 viewBox="0 0 511.999 511.999" style="enable-background:new 0 0 511.999 511.999;" xml:space="preserve">
<path style="fill:#ED5151;" d="M308.836,282.566l0.23-0.24c17.677-17.607,46.023-50.322,62.87-92.786
	c19.707-49.642,11.708-107.843-27.246-144.387c-23.27-21.829-54.57-35.154-88.906-35.154c-55.487,0-103.997,35.089-122.251,85.897
	c-8.309,23.116-8.239,48.592-2.06,72.369c8.939,34.355,31.785,68.179,71.359,112.602l-0.95,0.85L33.749,442.931l59.061,59.061
	l162.025-165.654l0.07-0.07c42.483,43.633,96.585,96.925,163.774,165.734l59.071-59.071
	C406.571,374.851,351.24,323.479,308.836,282.566z M186.115,109.343c12.378-24.136,37.234-39.354,64.39-39.354h10.558
	c27.126,0,51.932,15.168,64.33,39.244v0.01c-5.339,65.67-65.43,116.362-69.419,120.501
	C208.432,179.532,188.795,147.277,186.115,109.343z"/>
<path d="M85.99,509.061c3.938,3.937,10.33,3.896,14.218-0.079l154.94-158.41c40.955,41.842,93.374,93.637,156.629,158.414
	c3.887,3.981,10.283,4.023,14.224,0.085L485.071,450c1.902-1.902,2.958-4.491,2.928-7.181c-0.029-2.69-1.143-5.254-3.087-7.114
	c-67.318-64.386-120.248-113.63-161.65-153.375c19.369-20.507,43.083-50.952,58.218-89.101
	c21.148-53.268,12.428-115.849-29.697-155.369C324.663,12.423,290.07,0,256.034,0c-58.869,0-111.78,37.179-131.66,92.514
	c-8.606,23.943-9.412,51.007-2.327,78.268c8.464,32.53,28.119,64.67,67.168,109.467L27.079,435.714
	c-1.941,1.86-3.05,4.423-3.079,7.112c-0.029,2.689,1.027,5.274,2.928,7.175L85.99,509.061z M362.893,185.853
	c-14.417,36.338-37.933,65.45-54.03,82.584c-15.259-14.811-27.771-27.285-38.479-38.364c35.73-34.738,65.638-80.247,65.638-130.09
	c0-22.573-5.351-43.931-15.148-60.976c6.092,3.918,11.861,8.406,17.225,13.437C372.515,84.732,382.248,137.097,362.893,185.853z
	 M256.638,215.543c-40.784-44.142-57.036-72.42-60.059-104.063c11.091-19.493,31.599-31.493,54.176-31.493h10.559
	c22.504,0,42.97,11.936,54.082,31.332C311.676,145.349,290.971,182.035,256.638,215.543z M256.034,19.997
	c33.065,0,52.276,26.976,58.122,59.143c-14.538-12.183-33.093-19.149-52.843-19.149h-10.559c-19.764,0-38.322,6.968-52.861,19.158
	C203.536,47.874,222.239,19.997,256.034,19.997z M143.193,99.276c9.085-25.287,26.224-46.152,47.892-60.117
	c-9.74,17.018-15.038,38.288-15.038,60.824c0,84.886,71.801,136.983,287.651,343.108l-44.688,44.688
	c-175.507-179.352-259.135-251.03-277.609-322.032C135.334,142.403,135.953,119.417,143.193,99.276z M202.523,295.194
	c10.827,11.926,23.399,25.27,38.671,41.047L92.981,487.773l-44.692-44.692L202.523,295.194z"/>
<g>
</g>
<g>
</g>
<g>
</g>
<g>
</g>
<g>
</g>
<g>
</g>
<g>
</g>
<g>
</g>
<g>
</g>
<g>
</g>
<g>
</g>
<g>
</g>
<g>
</g>
<g>
</g>
<g>
</g>
</svg>
