<?xml version="1.0" encoding="iso-8859-1"?>
<!-- Generator: Adobe Illustrator 19.0.0, SVG Export Plug-In . SVG Version: 6.00 Build 0)  -->
<svg version="1.1" id="Capa_1" xmlns="http://www.w3.org/2000/svg" xmlns:xlink="http://www.w3.org/1999/xlink" x="0px" y="0px"
	 viewBox="0 0 512 512" style="enable-background:new 0 0 512 512;" xml:space="preserve">
<path style="fill:#FE73B1;" d="M215.75,254.5v120c0,55.221-47.761,100-103,100c-55.23,0-103-44.77-103-100v-120H215.75z"/>
<path style="fill:#4DBBEB;" d="M215.75,134.5v120h-206v-120c0-55.23,47.77-100,103-100S215.75,79.27,215.75,134.5z"/>
<path style="fill:#E3F2FF;" d="M378.75,231.5c-66.268,0-123,56.727-123,123c0,66.27,56.73,123,123,123c66.259,0,123-56.722,123-123
	C501.75,288.23,445.02,231.5,378.75,231.5z"/>
<path d="M173,184.5c-5.52,0-10,4.48-10,10s4.48,10,10,10s10-4.48,10-10S178.52,184.5,173,184.5z"/>
<path d="M113,484.5c60.328,0,113-48.762,113-110v-240c0-61.161-52.584-110-113-110c-60.436,0-113,48.857-113,110v240
	C0,435.661,52.584,484.5,113,484.5z M113,44.5c50.411,0,93,41.215,93,90v110H20v-110C20,85.715,62.589,44.5,113,44.5z M20,264.5h186
	v110c0,50.645-44.313,90-93,90c-50.411,0-93-41.215-93-90V264.5z"/>
<path d="M129.66,87.356C149.602,94.423,163,113.369,163,134.5v20c0,5.523,4.477,10,10,10s10-4.477,10-10v-20
	c0-29.583-18.751-56.105-46.66-65.996c-5.207-1.843-10.921,0.88-12.766,6.085C121.729,79.795,124.454,85.511,129.66,87.356z"/>
<path d="M379,487.5c71.444,0,133-60.719,133-133c0-71.724-61.282-133-133-133c-70.115,0-133,59.562-133,133
	C246,426.224,307.282,487.5,379,487.5z M492,354.5c0,26.164-9.506,51.353-26.944,71.913L307.093,268.45
	c20.448-17.239,46.099-26.95,71.907-26.95C440.252,241.5,492,293.248,492,354.5z M292.942,282.584l157.971,157.971
	C430.353,457.994,405.163,467.5,379,467.5c-61.252,0-113-51.748-113-113C266,328.39,275.51,303.157,292.942,282.584z"/>
<g>
</g>
<g>
</g>
<g>
</g>
<g>
</g>
<g>
</g>
<g>
</g>
<g>
</g>
<g>
</g>
<g>
</g>
<g>
</g>
<g>
</g>
<g>
</g>
<g>
</g>
<g>
</g>
<g>
</g>
</svg>
