<?xml version="1.0" encoding="utf-8"?>
<!-- Generator: Adobe Illustrator 16.0.0, SVG Export Plug-In . SVG Version: 6.00 Build 0)  -->
<!DOCTYPE svg PUBLIC "-//W3C//DTD SVG 1.1//EN" "http://www.w3.org/Graphics/SVG/1.1/DTD/svg11.dtd">
<svg version="1.1" id="Layer_1" xmlns="http://www.w3.org/2000/svg" xmlns:xlink="http://www.w3.org/1999/xlink" x="0px" y="0px"
	 width="64px" height="64px" viewBox="0 0 64 64" enable-background="new 0 0 64 64" xml:space="preserve">
<g id="Collared_T-shirt">
	<rect x="0.771" y="0.071" fill="#F79420" width="63.514" height="64.158"/>
	<polygon fill="#E48025" points="64.285,64.229 36.293,64.229 23.316,48.805 23.454,35.188 21.437,32.08 21.503,19.916 
		22.81,18.863 26.901,16.863 28.317,15.608 28.985,15.244 35.488,14.833 36.311,15.386 36.993,15.994 37.734,16.475 44.514,20.954 
		48.6,27.111 64.285,46.896 	"/>
	<g>
		<path fill="#FFFFFF" d="M34.229,19.234c0.451,0.269,0.813,0.721,0.916,0.857c0.037,0.048,0.063,0.104,0.072,0.164
			c0.148,0.918,0.4,1.321,0.563,1.492c1.244-1.575,1.232-4.988,1.215-5.754l-0.684-0.608C36.334,16.953,35.141,18.378,34.229,19.234
			z"/>
		<path fill="#FFFFFF" d="M30.299,19.019c-1.138-0.834-1.726-2.478-1.982-3.41l-0.681,0.642c-0.013,0.677,0.011,2.996,0.808,4.835
			C28.81,20.396,29.461,19.395,30.299,19.019z"/>
		<path fill="#FFFFFF" d="M35.384,16.382c0.183-0.5,0.248-1.025,0.104-1.549c-0.812-0.103-1.615-0.164-2.391-0.164
			c-2.072,0-3.472,0.363-4.114,0.575c0.087,0.345,0.237,0.843,0.458,1.358C30.197,16.399,32.287,15.971,35.384,16.382z"/>
		<path fill="#FFFFFF" d="M33.248,19.093c0.012-0.004,0.021-0.01,0.033-0.014c0.492-0.413,1.256-1.136,1.764-1.992
			c-2.65-0.318-4.497,0.008-5.266,0.197c0.291,0.51,0.658,0.975,1.124,1.245c0.026,0.013,0.389,0.2,0.667,0.456
			c0.251,0.115,0.563,0.374,0.694,0.812c0.155-0.135,0.341-0.258,0.564-0.358c0.04-0.03,0.124-0.094,0.24-0.184
			C33.105,19.185,33.168,19.127,33.248,19.093z"/>
		<path fill="#FFFFFF" d="M32.85,29.198c-0.088-0.99-0.481-5.67-0.281-8.646c-0.299,0.372-0.35,0.777-0.351,0.783l-0.029,0.195
			v0.001c0,0.008,0.005,0.016,0.005,0.023v7.947C32.385,29.468,32.63,29.385,32.85,29.198z"/>
		<path fill="#FFFFFF" d="M48.717,27.283l-3.894-5.931c-1.659-2.197-2.806-2.641-2.814-2.641l-4.274-2.237
			c-0.004,1.388-0.182,4.558-1.625,6.018c-0.069,0.07-0.164,0.108-0.26,0.108c-0.022,0-0.041-0.001-0.063-0.005
			c-0.158-0.028-0.951-0.257-1.28-2.122c-0.281-0.345-0.68-0.674-0.896-0.7c-0.101,0.081-0.186,0.146-0.25,0.194
			c-0.344,3.065,0.232,9.274,0.238,9.338c0.01,0.104-0.024,0.21-0.096,0.288c-0.557,0.607-1.287,0.678-1.582,0.678
			c-0.076,0-0.123-0.005-0.132-0.006c-0.188-0.021-0.331-0.18-0.331-0.37v-8.34c0-0.016,0.007-0.028,0.01-0.045
			c-0.003-0.02-0.011-0.039-0.009-0.064l0.052-0.732c0.002-0.027,0.006-0.055,0.013-0.081c0.219-0.739-0.189-0.94-0.279-0.977
			c-1.268-0.429-2.437,2.376-2.449,2.404c-0.052,0.131-0.174,0.222-0.313,0.232c-0.138,0.013-0.272-0.062-0.344-0.181
			c-1.01-1.707-1.208-4.018-1.237-5.249L23.09,18.69c-0.047,0.02-1.196,0.461-2.872,2.682l-3.877,5.911
			c-0.104,0.159-0.073,0.369,0.069,0.49l5.027,4.279c0.149,0.126,0.371,0.113,0.507-0.029l0.544-0.584
			c-0.06-0.059-0.103-0.134-0.115-0.222c-0.446-3.452-0.016-6.104,0.002-6.217c0.034-0.201,0.223-0.34,0.425-0.304
			c0.2,0.034,0.335,0.226,0.301,0.429c-0.004,0.026-0.428,2.66,0.002,5.996c0.008,0.06-0.002,0.115-0.02,0.167
			c0.082,2.417,0.233,8.118,0.233,17.487c0,0.188,0.139,0.349,0.325,0.371c0.039,0.004,4.023,0.48,7.995,0.48
			c0.268,0,0.535-0.001,0.796-0.006h0.187c0.268,0.005,0.535,0.006,0.803,0.006c3.971,0,7.955-0.477,7.994-0.48
			c0.188-0.022,0.324-0.183,0.324-0.371c0-9.488,0.156-15.213,0.238-17.574c0-0.019-0.006-0.035-0.004-0.055
			c0.004-0.03,0.008-0.058,0.01-0.088c0.002-0.082,0.006-0.17,0.009-0.241l0.015,0.016c0.344-3.242-0.025-5.687-0.031-5.712
			c-0.031-0.202,0.105-0.393,0.308-0.426c0.2-0.031,0.389,0.106,0.421,0.31c0.018,0.11,0.416,2.729,0.002,6.229
			c-0.014,0.09-0.055,0.168-0.114,0.226l0.522,0.563c0.134,0.143,0.354,0.155,0.507,0.029l5.026-4.279
			C48.789,27.652,48.82,27.442,48.717,27.283z"/>
	</g>
</g>
</svg>
