<?xml version="1.0" encoding="utf-8"?>
<!-- Generator: Adobe Illustrator 16.0.0, SVG Export Plug-In . SVG Version: 6.00 Build 0)  -->
<!DOCTYPE svg PUBLIC "-//W3C//DTD SVG 1.1//EN" "http://www.w3.org/Graphics/SVG/1.1/DTD/svg11.dtd">
<svg version="1.1" id="Layer_1" xmlns="http://www.w3.org/2000/svg" xmlns:xlink="http://www.w3.org/1999/xlink" x="0px" y="0px"
	 width="64px" height="64px" viewBox="0 0 64 64" enable-background="new 0 0 64 64" xml:space="preserve">
<g id="Frock">
	<rect x="0.353" y="0.26" fill="#12978B" width="63.515" height="64.157"/>
	<polygon fill="#10877A" points="63.867,64.417 36.186,64.417 21.107,44.844 23.841,41.46 27.729,31.687 22.879,24.784 24.462,20.7 
		28.638,18.737 29.033,17.028 32.938,21.703 35.171,19.281 35.184,17.295 36.202,18.335 39.879,19.023 63.867,49.093 	"/>
	<g>
		<path fill="#FFFFFF" d="M25.823,25.21l0.369-0.958c0,0,0,0.426-0.052,0.958c-0.052,0.531,0.781,1.559,1.156,2.19
			c0.192,0.327,0.744,1.987,0.688,2.937c0.017,0.008,0.035,0.01,0.052,0.021c0.147,0.103,3.836,2.558,9.021-0.117
			c0.008-0.005,0.014-0.002,0.021-0.005c0.012-0.64,0.114-1.223,0.159-1.521c0.121-0.796,0.578-1.808,0.789-2.177
			c0.045-0.08,0.228-0.31,0.246-0.603c0.021-0.294-0.092-0.65-0.099-0.74c-0.049-0.755,0.169,0.387,0.169,0.387s0,0,0.42,0.158
			c1.316,0.211,2.631-0.478,2.578-0.743c-0.053-0.268-1.053-4.73-1.262-5.577c-0.211-0.852-1.473-1.171-2.156-1.171
			c-0.686,0-1.79-0.16-1.79-0.16l-0.948-0.795c0,0-0.052,0.743-0.262,1.168c-0.211,0.424-0.949,0.902-1.945,1.113
			c-1,0.215-2.432-0.382-2.8-0.701c-0.368-0.32-1.144-1.847-1.144-1.847s-0.526,0.691-0.789,0.957
			c-0.265,0.265-0.684,0.211-1.213,0.265c-0.525,0.052-1.153,0.267-1.786,0.637c-0.632,0.373-0.999,0.743-1.159,1.224
			c-0.155,0.477-0.998,3.187-1.208,4.674C23.614,25.421,25.823,25.21,25.823,25.21z M32.397,23.27c0.205,0,0.402,0.2,0.402,0.405
			c0,0.205-0.199,0.404-0.402,0.404c-0.202,0-0.401-0.199-0.401-0.404C31.996,23.47,32.195,23.27,32.397,23.27z M32.397,27.019
			c0.205,0,0.402,0.199,0.402,0.403c0,0.208-0.199,0.407-0.402,0.407c-0.202,0-0.401-0.199-0.401-0.407
			C31.996,27.218,32.195,27.019,32.397,27.019z"/>
		<path fill="#FFFFFF" d="M39.764,36.938c-0.587-3.584-2.229-5.53-2.596-5.928c-1.868,0.913-3.543,1.22-4.948,1.22
			c-2.554,0-4.204-0.996-4.532-1.214c-1.261,1.292-2.893,6.638-2.893,6.638c-0.986,3.662-4.3,6.676-4.3,6.676
			c1.798,2.111,4.636,1.525,4.636,1.525c1.944,2.188,4.881,1.256,4.881,1.256c1.347,1.049,5.208,0.123,5.208,0.123
			c1.777,1.055,3.827-0.176,4.135-0.66c2.343,1.229,4.369-2.113,4.369-2.113C40.863,43.719,39.764,36.938,39.764,36.938z"/>
	</g>
</g>
</svg>
