<?xml version="1.0" encoding="utf-8"?>
<!-- Generator: Adobe Illustrator 16.0.0, SVG Export Plug-In . SVG Version: 6.00 Build 0)  -->
<!DOCTYPE svg PUBLIC "-//W3C//DTD SVG 1.1//EN" "http://www.w3.org/Graphics/SVG/1.1/DTD/svg11.dtd">
<svg version="1.1" id="Layer_1" xmlns="http://www.w3.org/2000/svg" xmlns:xlink="http://www.w3.org/1999/xlink" x="0px" y="0px"
	 width="64px" height="64px" viewBox="0 0 64 64" enable-background="new 0 0 64 64" xml:space="preserve">
<g id="Hat">
	<rect x="0.631" y="0.26" fill="#EC3F7A" width="63.514" height="64.157"/>
	<polygon fill="#DB256B" points="19.002,38.411 38.992,64.417 64.145,64.417 64.145,54.2 45.764,33.33 39.08,31.968 38.094,32.018 
		33.695,25.855 30.969,25.259 28.852,25.546 26.598,30.12 25.162,34.369 24.252,34.723 	"/>
	<g>
		<path fill="#FFFFFF" d="M45.764,33.33c-0.186-1.049-2.842-1.518-6.684-1.362c0.342,0.949,0.639,2.033,0.652,2.083
			c0.065,0.244-0.072,0.5-0.314,0.573c-2.186,0.663-4.734,1.251-7.367,1.701c-2.518,0.432-5.021,0.719-7.244,0.833
			c-0.008,0.001-0.016,0.001-0.023,0.001c-0.115,0-0.227-0.043-0.313-0.122c-0.092-0.083-0.146-0.199-0.152-0.323
			c-0.002-0.052-0.055-1.125-0.066-1.991c-3.33,1.146-5.416,2.428-5.24,3.418c0.285,1.623,6.506,1.863,13.893,0.534
			C40.293,37.348,46.049,34.954,45.764,33.33z"/>
		<path fill="#FFFFFF" d="M25.176,34.436c0.002,0.549,0.029,1.287,0.049,1.762c2.068-0.127,4.363-0.4,6.67-0.795
			c2.421-0.414,4.768-0.945,6.816-1.545c-0.133-0.459-0.357-1.19-0.586-1.795c-0.006-0.016-0.004-0.03-0.008-0.046
			c-0.008,0.001-0.016,0.001-0.023,0.002c-0.598-1.675-1.574-4.109-2.488-5.078c0,0-0.621-0.936-2.321-1.157
			c0,0-0.156-0.027-0.496-0.026c-0.682,0.071-2.109,0.545-3.41,1.137c-0.063,0.027-0.127,0.041-0.189,0.041
			c-0.178,0-0.346-0.104-0.424-0.276c-0.105-0.235,0-0.513,0.232-0.619c0.592-0.27,1.299-0.552,1.973-0.779
			c-2.152-0.438-3.449,0.523-3.449,0.523c-1.506,0.828-1.75,1.932-1.75,1.932c-0.545,1.341-0.617,4.674-0.607,6.655
			C25.166,34.393,25.176,34.411,25.176,34.436z"/>
	</g>
</g>
</svg>
