<?xml version="1.0" encoding="utf-8"?>
<!-- Generator: Adobe Illustrator 16.0.0, SVG Export Plug-In . SVG Version: 6.00 Build 0)  -->
<!DOCTYPE svg PUBLIC "-//W3C//DTD SVG 1.1//EN" "http://www.w3.org/Graphics/SVG/1.1/DTD/svg11.dtd">
<svg version="1.1" id="Layer_1" xmlns="http://www.w3.org/2000/svg" xmlns:xlink="http://www.w3.org/1999/xlink" x="0px" y="0px"
	 width="64px" height="64px" viewBox="0 0 64 64" enable-background="new 0 0 64 64" xml:space="preserve">
<g id="Hoodie">
	<rect x="-0.144" y="0.062" fill="#795CA6" width="63.514" height="64.159"/>
	<polygon fill="#634A96" points="63.371,64.221 32.111,64.221 17.766,45.807 18.151,44.338 18.129,43.57 28.432,24.437 
		28.23,24.125 27.773,23.284 26.572,21.325 26.879,20.012 29.052,17.372 35.585,18.396 63.371,53.352 	"/>
	<g>
		<path fill="#FFFFFF" d="M32.333,26.182c0.044-0.183,0.065-0.323,0.076-0.412C32.377,25.9,32.353,26.038,32.333,26.182z"/>
		<path fill="#FFFFFF" d="M31.936,18.578c0.173-0.009,3.568-0.111,5.392,1.878c-0.069-0.287-0.184-0.455-0.184-0.455
			c-2.922-5.378-5.326-5.713-5.326-5.713c-2.107,0.82-4.353,4.666-4.939,5.724C27.796,19.359,29.344,18.718,31.936,18.578z"/>
		<path fill="#FFFFFF" d="M31.969,19.328c-3.528,0.188-4.899,1.348-5.397,1.997c0.086,0.898,0.739,1.58,1.201,1.959
			c0.917,0.126,3.266,0.583,3.676,1.988c0.006,0.02,0.01,0.039,0.012,0.058c0.001,0.007,0.043,0.323,0.129,0.792
			c0.01-0.091,0.019-0.184,0.034-0.27c-0.024-0.048-0.04-0.101-0.041-0.157c-0.018-0.955-0.455-1.253-1.116-1.702
			c-0.356-0.241-0.759-0.515-1.138-0.932c-1.188-1.311-0.653-2.547-0.629-2.6c0.084-0.188,0.307-0.271,0.492-0.186
			s0.268,0.305,0.186,0.492c-0.018,0.042-0.342,0.858,0.5,1.786c0.318,0.351,0.667,0.588,1.004,0.817
			c0.458,0.311,0.921,0.633,1.196,1.195c0.587-1.06,1.535-1.638,2.16-2.015c0.094-0.057,0.18-0.108,0.257-0.157
			c0.371-0.237,0.229-1.096-0.026-1.82c-0.068-0.195,0.032-0.41,0.225-0.479c0.195-0.069,0.406,0.033,0.475,0.228
			c0.471,1.332,0.372,2.292-0.277,2.706c-0.082,0.053-0.173,0.107-0.271,0.167C33.948,23.6,32.96,24.2,32.521,25.4
			c0.854-1.737,3.28-2.139,3.387-2.156c0.021-0.002,0.042,0.004,0.063,0.004c0.729-0.596,1.104-1.154,1.276-1.637
			C35.898,19.21,32.012,19.321,31.969,19.328z"/>
		<g>
			<path fill="#FFFFFF" d="M21.336,44.174l3.263-10.22l0.117,12.603c0,0-0.04,0.695,0.327,1.219
				c0.161,0.031,0.397,0.066,0.533,0.088c0.139,0.021,0.254,0.039,0.305,0.05c0.022,0.005,2.364,0.476,5.419,0.437
				c-0.486-4.093-0.013-18.978,0.025-20.125c-0.384-1.284-0.564-2.541-0.594-2.764c-0.235-0.718-1.526-1.136-2.5-1.335l-0.004,0.257
				l-5.5,2.472L18.13,43.573L21.336,44.174z M26.038,42.758l2.085-3.664c0.102-0.18,0.329-0.24,0.506-0.139
				c0.178,0.104,0.24,0.333,0.137,0.512l-2.085,3.665c-0.068,0.12-0.193,0.188-0.322,0.188c-0.063,0-0.126-0.019-0.185-0.051
				C25.998,43.167,25.936,42.938,26.038,42.758z"/>
			<path fill="#FFFFFF" d="M37.275,47.523c0.338-0.119,0.926-0.334,1.16-0.443c0.026-0.094,0.045-0.186,0.049-0.266l0.117-12.86
				l3.252,10.187l3.225-0.539l-4.604-16.748l-4.891-2.49l-0.105-0.246c-0.697,0.204-1.873,0.683-2.322,1.666
				c-0.031,0.312-0.211,1.524-1.092,2.534c-0.047,1.47-0.5,16.214-0.021,20.005C33.948,48.247,35.71,47.982,37.275,47.523z
				 M34.378,38.955c0.177-0.104,0.405-0.041,0.506,0.139l2.085,3.664c0.102,0.18,0.041,0.409-0.137,0.512
				c-0.059,0.033-0.122,0.051-0.184,0.051c-0.129,0-0.254-0.067-0.322-0.188l-2.085-3.665
				C34.139,39.288,34.201,39.059,34.378,38.955z"/>
			<path fill="#FFFFFF" d="M18.151,44.338c-0.203,0.465-0.489,1.206-0.385,1.469l2.564,0.471c0,0,0.339-0.735,0.586-1.42
				L18.151,44.338z"/>
			<path fill="#FFFFFF" d="M42.35,44.816c0.248,0.681,0.601,1.438,0.601,1.438l2.513-0.462c0.1-0.251-0.182-0.966-0.388-1.431
				L42.35,44.816z"/>
			<path fill="#FFFFFF" d="M37.5,48.238c-1.734,0.51-3.668,0.794-5.764,0.852c-0.272,0.008-0.54,0.012-0.8,0.012
				c-2.942,0-5.105-0.436-5.204-0.455c-0.046-0.011-0.146-0.024-0.266-0.043c-0.001,0-0.002,0-0.003,0
				c0,0.184-0.002,0.432-0.01,0.769c0,0,3.808,1.534,12.597-0.218l0.001-1.114C37.803,48.132,37.579,48.211,37.5,48.238z"/>
		</g>
	</g>
</g>
</svg>
