<?xml version="1.0" encoding="utf-8"?>
<!-- Generator: Adobe Illustrator 16.0.0, SVG Export Plug-In . SVG Version: 6.00 Build 0)  -->
<!DOCTYPE svg PUBLIC "-//W3C//DTD SVG 1.1//EN" "http://www.w3.org/Graphics/SVG/1.1/DTD/svg11.dtd">
<svg version="1.1" id="Layer_1" xmlns="http://www.w3.org/2000/svg" xmlns:xlink="http://www.w3.org/1999/xlink" x="0px" y="0px"
	 width="64px" height="64px" viewBox="0 0 64 64" enable-background="new 0 0 64 64" xml:space="preserve">
<g id="Jacket">
	<rect x="0.771" y="0.047" fill="#C183B8" width="63.514" height="64.157"/>
	<path fill="#AE69AA" d="M39.488,19.905l0.66,0.295l2.709,2.518l21.428,26.97v14.518H31.562L18.374,47.271l0.07-1.707l-0.12-0.758
		l3.186-12.199l2.577-11.874l0.763-0.309c0,0,2.243-3.006,7.82-3.131C32.669,17.295,37.072,17.253,39.488,19.905z"/>
	<g>
		<path fill="#FFFFFF" d="M36.873,19.824c-0.15-0.38-0.652-0.66-1.146-0.851c0.058,1.147-1.119,2.977-1.965,4.129
			c1.176-0.63,2.36-1.764,2.846-2.3C36.883,20.435,36.979,20.099,36.873,19.824z"/>
		<path fill="#FFFFFF" d="M18.516,45.544c-0.022,0.015-0.048,0.013-0.072,0.021l-0.276,1.291c-0.036,0.172,0.05,0.346,0.207,0.416
			c0.086,0.039,0.886,0.367,3.249,0.031c0.197-0.029,0.336-0.214,0.312-0.416c-0.001-0.012-0.103-0.871,0.266-1.429
			C21.7,45.21,20.115,44.568,18.516,45.544z"/>
		<path fill="#FFFFFF" d="M34.966,18.85c-0.058-0.124-0.229-0.188-0.507-0.188c-0.025,0-0.052-0.002-0.072-0.006
			c-0.007-0.002-0.504-0.102-1.382-0.102c-0.937,0-1.936,0.109-2.974,0.322c-0.038,0.007-0.272,0.059-0.354,0.315
			c-0.112,0.348-0.08,1.466,2.599,4.355c0.004,0.001,0.01,0.002,0.014,0.002s0.009,0.001,0.013,0.001
			c0.044-0.004,0.112-0.016,0.228-0.056C33.73,22.007,35.297,19.558,34.966,18.85z"/>
		<path fill="#FFFFFF" d="M27.334,20.091c-0.133,0.444,0.386,1.006,0.846,1.398c0.023,0.021,1.403,1.236,2.866,1.79
			c-1.615-1.877-2.296-3.249-2.091-4.185C28.205,19.304,27.468,19.641,27.334,20.091z"/>
		<path fill="#FFFFFF" d="M32.051,31.273c-0.296-2.074-0.019-6.745-0.003-6.997c-0.046-0.004-0.092-0.004-0.138-0.01
			c-0.462-0.027-0.913-0.079-1.347-0.163c0.05,0.377,0.045,0.915-0.153,1.645c-0.247,0.903-0.018,1.579,0.17,2.122
			c0.076,0.222,0.147,0.434,0.179,0.635c0.069,0.444,0.034,0.951,0.013,1.285c-0.008,0.138-0.019,0.246-0.015,0.304
			c0.041,0.201-0.089,0.39-0.289,0.431c-0.023,0.005-0.047,0.007-0.071,0.007c-0.172,0-0.329-0.128-0.364-0.306
			c-0.021-0.104-0.014-0.23,0.002-0.484c0.022-0.32,0.051-0.76-0.005-1.121c-0.021-0.136-0.081-0.308-0.148-0.508
			c-0.208-0.604-0.491-1.436-0.184-2.562c0.25-0.917,0.137-1.438,0.072-1.63c-3.309-0.885-5.568-3.073-5.685-3.187v-0.001
			c-0.43,0.188-0.91,0.488-1.332,0.973c-0.858,0.984-1.212,2.407-1.054,4.231c-0.08,0.577-0.527,3.974-0.147,5.323
			c-0.355,0.496-1.248,1.885-0.876,2.84c-0.207,0.492-0.747,1.892-0.625,2.76c0.038,0.256-0.101,0.574-0.292,1.015
			c-0.329,0.762-0.826,1.912-0.826,3.83c0,0.938-0.244,1.298-0.46,1.612c-0.292,0.429-0.456,0.775-0.151,1.49
			c2.211-1.209,4.325,0.047,4.417,0.101c0.033,0.021,0.06,0.051,0.084,0.079c0.042-0.024,0.09-0.045,0.117-0.084
			c0.059-0.082,0.593-0.901,1.117-4.334c0.157-1.036,0.345-1.864,0.529-2.512c-0.078,1.269-0.198,2.996-0.381,4.94
			c0.026,0.008,0.049,0.009,0.071,0.021c0.046,0.022,3.033,1.508,7.783,1.657c-0.098-2.952-0.187-7.403,0.116-8.399
			c0.4-1.313,0.175-2.897-0.111-4.905L32.051,31.273z M28.908,36.193c-0.148,0.447-1.49,4.39-3.059,5.242
			c-0.055,0.029-0.115,0.043-0.173,0.043c-0.131,0-0.257-0.069-0.325-0.195c-0.096-0.18-0.029-0.406,0.149-0.502
			c1.114-0.606,2.333-3.688,2.709-4.822c0.063-0.193,0.279-0.3,0.465-0.236C28.869,35.788,28.973,36,28.908,36.193z M28.559,33.668
			c-0.002,0-0.004,0-0.005,0c-2.776-0.049-4.489-6.235-4.677-6.939c-0.051-0.199,0.064-0.402,0.263-0.458
			c0.198-0.049,0.397,0.067,0.449,0.265c0.466,1.768,2.091,6.356,3.978,6.39c0.202,0.004,0.366,0.174,0.361,0.379
			C28.924,33.507,28.76,33.668,28.559,33.668z"/>
		<path fill="#FFFFFF" d="M28.542,22.718c-0.486-0.353-0.806-0.633-0.843-0.666c-0.907-0.774-1.27-1.509-1.071-2.176
			c0.397-1.333,2.923-1.689,3.27-1.731c0,0,0.001-0.001,0.003-0.001c1.069-0.22,2.119-0.333,3.104-0.333
			c0.829,0,1.349,0.083,1.489,0.106c0.137,0.002,0.248,0.027,0.357,0.05c0.01,0.002,0.021-0.003,0.031-0.001
			c0.225,0.038,2.21,0.402,2.674,1.587c0.209,0.533,0.077,1.114-0.388,1.727c-0.062,0.068-0.678,0.744-1.53,1.438
			c1.486-0.551,3.074-1.428,3.842-2.805c0.004-0.003,0.006-0.005,0.008-0.007c-0.016-0.215-0.072-0.479-0.225-0.767
			c-0.449-0.847-1.488-1.496-3.065-1.922c-0.147-0.051-3.72-1.233-8.15,0.278c-1.838,0.626-2.846,1.237-3.167,1.921
			c-0.185,0.396-0.12,0.742-0.033,1.01C25.375,20.881,26.712,21.953,28.542,22.718z"/>
		<path fill="#FFFFFF" d="M45.875,40.63c0.004-0.608-0.039-4.008-1.439-6.248c0.004-0.458-0.035-2.07-0.768-3.053
			c-0.102-0.585-0.652-3.906-0.5-6.188c0.006-0.04,0.514-3.761-3.02-4.941c-0.008,0.025-0.012,0.053-0.025,0.076
			c-1.043,1.873-3.316,2.902-5.135,3.449c-0.217,0.752-0.586,2.502-0.168,3.348c0.488,0.989,0.385,1.662,0.291,2.253
			c-0.032,0.208-0.064,0.417-0.068,0.645c-0.005,0.203-0.169,0.364-0.368,0.364c0,0-0.007,0-0.009,0
			c-0.203-0.003-0.365-0.175-0.359-0.38c0.006-0.271,0.043-0.511,0.08-0.745c0.084-0.55,0.159-1.027-0.224-1.805
			c-0.483-0.978-0.2-2.595,0.005-3.458c-0.416,0.104-0.787,0.182-1.082,0.234c-0.104,0.028-0.208,0.05-0.313,0.069
			c0.002,0.021,0.011,0.042,0.01,0.063c-0.004,0.05-0.29,4.842-0.004,6.855l0.015,0.095c0.299,2.101,0.535,3.762,0.086,5.231
			c-0.255,0.836-0.185,5.061-0.081,8.199c2.406,0.002,5.217-0.348,8.307-1.383c0.015-0.004,0.026-0.002,0.041-0.004
			c-0.057-0.523-0.17-1.597-0.315-2.904c0.101,0.343,0.271,0.736,0.563,1.229c0.373,0.619,0.361,0.885,0.347,1.225
			c-0.021,0.459-0.033,0.986,0.733,2.162c0.584-0.371,2.103-1.115,4.166-0.584c0.025-0.102,0.047-0.201,0.084-0.301
			c0.027-0.025,0.053-0.059,0.074-0.093C46.986,43.741,47.021,43.102,45.875,40.63z M39.289,41.283
			c-0.066,0.126-0.193,0.195-0.324,0.195c-0.059,0-0.117-0.014-0.174-0.043c-1.568-0.854-2.91-4.795-3.059-5.242
			c-0.064-0.193,0.039-0.405,0.23-0.471c0.189-0.064,0.402,0.041,0.469,0.235c0.375,1.136,1.596,4.218,2.709,4.821
			C39.318,40.877,39.385,41.104,39.289,41.283z M40.764,26.994c-0.187,0.706-1.9,6.895-4.676,6.939h-0.006
			c-0.201,0-0.365-0.164-0.369-0.365c-0.003-0.207,0.158-0.375,0.361-0.379c1.887-0.03,3.512-4.622,3.978-6.388
			c0.052-0.196,0.25-0.314,0.45-0.264C40.699,26.592,40.813,26.795,40.764,26.994z"/>
		<path fill="#FFFFFF" d="M32.825,45.462c0.018,0.502,0.036,0.962,0.052,1.354c2.207-0.061,4.857-0.366,8.021-1.106
			c0.166-0.041,0.285-0.19,0.285-0.364l-0.002-1.281C38.066,45.092,35.242,45.453,32.825,45.462z"/>
		<path fill="#FFFFFF" d="M24.071,43.741l-0.199,1.002c-0.029,0.146,0.031,0.294,0.151,0.378c0.139,0.1,2.565,1.719,8.119,1.707
			c-0.016-0.337-0.036-0.803-0.055-1.378C27.636,45.331,24.704,44.047,24.071,43.741z"/>
		<path fill="#FFFFFF" d="M46.547,45.176c-1.826-0.498-3.17,0.153-3.664,0.461c0.176,0.325,0.352,0.813,0.291,1.405
			c-0.021,0.196,0.115,0.375,0.307,0.406c0.037,0.007,0.47,0.073,1.041,0.073c0.641,0,1.453-0.084,2.082-0.438
			c0.16-0.09,0.23-0.285,0.166-0.457C46.766,46.617,46.534,45.969,46.547,45.176z"/>
	</g>
</g>
</svg>
