<?xml version="1.0" encoding="utf-8"?>
<!-- Generator: Adobe Illustrator 16.0.0, SVG Export Plug-In . SVG Version: 6.00 Build 0)  -->
<!DOCTYPE svg PUBLIC "-//W3C//DTD SVG 1.1//EN" "http://www.w3.org/Graphics/SVG/1.1/DTD/svg11.dtd">
<svg version="1.1" id="Layer_1" xmlns="http://www.w3.org/2000/svg" xmlns:xlink="http://www.w3.org/1999/xlink" x="0px" y="0px"
	 width="64px" height="64px" viewBox="0 0 64 64" enable-background="new 0 0 64 64" xml:space="preserve">
<g id="Jeans">
	<rect x="0.486" fill="#53A1D8" width="63.516" height="64.158"/>
	<polygon fill="#3B85B2" points="38.414,15.715 63.982,47.064 64.002,64.158 34.717,64.158 21.385,47.908 21.953,46.092 24.6,25.42 
		24.889,23.708 26.08,16.671 31.965,16.345 32.701,16.345 35.73,16.216 	"/>
	<g>
		<path fill="#FFFFFF" d="M38.775,17.658l-0.107-0.682l-0.227-1.156c-0.021-0.112-0.096-0.206-0.195-0.259
			c-0.102-0.051-0.221-0.054-0.322-0.006c-0.014,0.007-1.504,0.676-5.223,0.789v2.258c0,0.029-0.01,0.054-0.016,0.08
			c0.69-0.021,4.235-0.164,6.076-1.021C38.766,17.659,38.77,17.66,38.775,17.658z M33.516,18.113c-0.295,0-0.535-0.242-0.535-0.542
			c0-0.296,0.24-0.538,0.535-0.538s0.533,0.242,0.533,0.538C34.049,17.871,33.811,18.113,33.516,18.113z"/>
		<path fill="#FFFFFF" d="M33.066,25.079c1.178-1.108,1.059-4.491,0.914-5.72c-0.584,0.042-1.033,0.06-1.26,0.066
			c0.038,1.308,0.045,4.587-0.812,5.991C32.375,25.472,32.76,25.366,33.066,25.079z"/>
		<path fill="#FFFFFF" d="M39.756,23.912l-0.863-5.506c-0.701,0.3-1.569,0.514-2.444,0.662L39.756,23.912z"/>
		<path fill="#FFFFFF" d="M31.979,18.675c-0.006-0.023-0.014-0.046-0.014-0.072v-2.258c-3.721-0.113-5.211-0.782-5.223-0.789
			c-0.102-0.048-0.223-0.047-0.322,0.005c-0.102,0.053-0.174,0.146-0.195,0.26l-0.309,1.818c0.031,0.007,0.063,0.01,0.092,0.023
			C27.699,18.447,30.906,18.634,31.979,18.675z"/>
		<path fill="#FFFFFF" d="M25.793,18.373l-0.904,5.335l3.248-4.676C27.285,18.88,26.453,18.666,25.793,18.373z"/>
		<path fill="#FFFFFF" d="M40.717,30.044l-0.695-4.433l-4.332-6.342c-0.016-0.025-0.022-0.054-0.03-0.081
			c-0.328,0.045-0.646,0.081-0.945,0.109c0.054,0.439,0.5,4.775-1.146,6.324c-0.396,0.375-0.875,0.563-1.428,0.563
			c-0.117,0-0.238-0.02-0.359-0.037l0.648,2.105c2.551,4.954,3.67,19.876,3.682,20.029c0.012,0.189,0.166,0.337,0.354,0.344
			c0.145,0.006,0.293,0.008,0.443,0.008c2.539,0,5.77-0.686,5.906-0.715c0.188-0.04,0.313-0.223,0.287-0.416L40.717,30.044z"/>
		<path fill="#FFFFFF" d="M30.881,25.735c-0.053-0.166,0.018-0.345,0.168-0.433c0.773-0.449,1.006-3.596,0.934-5.884
			c-0.572-0.02-1.76-0.081-3.035-0.259L24.6,25.42l-0.83,4.898l-2.381,17.364c-0.027,0.2,0.109,0.387,0.309,0.418
			c0.137,0.022,3.408,0.537,5.939,0.537c0.195,0,0.383-0.006,0.566-0.012c0.188-0.007,0.34-0.154,0.354-0.344
			c0.012-0.146,1.035-13.799,3.354-19.325c0.021-0.048-0.113-0.251-0.146-0.356L30.881,25.735z"/>
	</g>
</g>
</svg>
