<?xml version="1.0" encoding="utf-8"?>
<!-- Generator: Adobe Illustrator 16.0.0, SVG Export Plug-In . SVG Version: 6.00 Build 0)  -->
<!DOCTYPE svg PUBLIC "-//W3C//DTD SVG 1.1//EN" "http://www.w3.org/Graphics/SVG/1.1/DTD/svg11.dtd">
<svg version="1.1" id="Layer_1" xmlns="http://www.w3.org/2000/svg" xmlns:xlink="http://www.w3.org/1999/xlink" x="0px" y="0px"
	 width="64px" height="64px" viewBox="0 0 64 64" enable-background="new 0 0 64 64" xml:space="preserve">
<g id="Men_x2019_s_Sleeveless_Jacket">
	<rect x="0.486" y="0.062" fill="#FFCA1C" width="63.516" height="64.159"/>
	<polygon fill="#EBB21F" points="64.002,64.221 37.98,64.221 23.258,45.223 23.891,33.239 22.973,31.373 21.293,22.988 
		21.607,21.969 27.115,19.853 27.584,19.18 27.939,18.308 28.473,17.758 36.092,17.735 36.674,18.195 37.203,19.091 37.709,19.655 
		43.023,21.979 64.002,48.15 	"/>
	<g>
		<path fill="#FFFFFF" d="M21.6,27.879c0,0,0.74,2.28,1.373,3.494c0,0,0.631-4.776-1.68-8.385
			C21.293,22.988,20.623,24.706,21.6,27.879z"/>
		<path fill="#FFFFFF" d="M43.295,22.988c0,0-2.283,2.895-1.783,8.327c0.598-1.689,1.273-3.443,1.273-3.443
			C43.797,24.738,43.295,22.988,43.295,22.988z"/>
		<path fill="#FFFFFF" d="M36.092,17.735c-1.127-0.5-2.344-0.766-3.633-0.766c-1.912,0-3.418,0.549-3.986,0.788
			c0.303,0.531,1.564,2.482,3.719,2.564C34.379,20.24,35.762,18.258,36.092,17.735z"/>
		<path fill="#FFFFFF" d="M32.678,21.029c-0.006,0.231-0.018,0.743-0.033,1.486c0.896-0.258,3.004-1.085,4.56-3.425l-0.529-0.896
			C36.258,18.851,34.889,20.718,32.678,21.029z"/>
		<path fill="#FFFFFF" d="M31.906,22.535c0.016-0.705,0.027-1.221,0.035-1.487c-2.213-0.193-3.529-1.969-4.002-2.74l-0.355,0.872
			c0.039,0.036,0.072,0.079,0.092,0.133C27.719,19.418,28.688,21.816,31.906,22.535z"/>
		<path fill="#FFFFFF" d="M31.891,23.29c-3.104-0.637-4.398-2.689-4.775-3.438l-5.275,1.863c-0.113,0.04-0.201,0.135-0.232,0.253
			c-0.033,0.119-0.004,0.248,0.074,0.34c0.018,0.021,1.879,2.064,2.096,8.023l-0.631,14.606c-0.004,0.106,0.035,0.209,0.111,0.283
			c0.084,0.084,2.17,2.063,8.754,2.088C31.518,43.443,31.766,29.089,31.891,23.29z M29.816,30.854h-3.559
			c-0.201,0-0.367-0.167-0.367-0.372c0-0.206,0.166-0.371,0.367-0.371h3.559c0.203,0,0.367,0.165,0.367,0.371
			C30.184,30.687,30.02,30.854,29.816,30.854z"/>
		<path fill="#FFFFFF" d="M42.943,22.312c0.078-0.091,0.106-0.215,0.08-0.332c-0.027-0.117-0.109-0.213-0.219-0.259l-5.097-2.065
			c-1.821,2.638-4.235,3.433-5.08,3.637c-0.122,5.807-0.37,20.387,0.124,23.997c1.303-0.097,6.469-0.577,8.488-2.364
			c0.084-0.074,0.129-0.182,0.127-0.294l-0.516-14.279C40.902,24.736,42.924,22.335,42.943,22.312z M37.914,30.854h-3.557
			c-0.203,0-0.369-0.167-0.369-0.372c0-0.206,0.166-0.371,0.369-0.371h3.557c0.203,0,0.367,0.165,0.367,0.371
			C38.281,30.687,38.117,30.854,37.914,30.854z"/>
	</g>
</g>
</svg>
