<?xml version="1.0" encoding="utf-8"?>
<!-- Generator: Adobe Illustrator 16.0.0, SVG Export Plug-In . SVG Version: 6.00 Build 0)  -->
<!DOCTYPE svg PUBLIC "-//W3C//DTD SVG 1.1//EN" "http://www.w3.org/Graphics/SVG/1.1/DTD/svg11.dtd">
<svg version="1.1" id="Layer_1" xmlns="http://www.w3.org/2000/svg" xmlns:xlink="http://www.w3.org/1999/xlink" x="0px" y="0px"
	 width="64px" height="64px" viewBox="0 0 64 64" enable-background="new 0 0 64 64" xml:space="preserve">
<g id="Men_x2019_s_Full_Sleeve_Shirt">
	<rect x="0.771" y="0.062" fill="#C183B8" width="63.514" height="64.159"/>
	<polygon fill="#AE69AA" points="64.285,64.221 31.042,64.221 15.754,44.492 16.04,43.17 16.143,42.364 27.175,19.967 
		27.722,19.451 28.123,18.396 28.655,17.876 36.324,17.868 36.912,18.336 37.555,19.421 38.125,19.956 43.243,22.008 64.285,48.15 	
		"/>
	<g>
		<path fill="#FFFFFF" d="M15.754,44.492c0.046,0.119,0.15,0.203,0.274,0.229l3.432,0.629c0.168,0.03,0.329-0.056,0.4-0.209
			c0.02-0.045,0.471-1.033,0.796-1.986l-4.514-0.789C15.873,43.059,15.568,44.025,15.754,44.492z"/>
		<path fill="#FFFFFF" d="M48.799,42.227l-4.39,1.063c0.335,0.917,0.805,1.823,0.827,1.867c0.076,0.146,0.231,0.223,0.392,0.192
			l3.431-0.629c0.164-0.031,0.289-0.171,0.301-0.342C49.389,43.945,49.021,42.848,48.799,42.227z"/>
		<path fill="#FFFFFF" d="M30.894,22.501l1.2,0.406c0.019-0.862,0.034-1.487,0.041-1.792c-0.002,0-0.006,0-0.008-0.001l-1.5-0.613
			c-0.037-0.015-0.068-0.036-0.099-0.06l-2.405-2.046l-0.42,1.034c0.006,0.009,0.015,0.013,0.02,0.021
			C28.189,20.198,29.667,22.202,30.894,22.501z"/>
		<path fill="#FFFFFF" d="M34.368,20.508l-1.494,0.511c-0.005,0.186-0.021,0.819-0.041,1.775l1.642-0.503
			c0.69-0.352,2.696-1.577,3.014-2.741c0.014-0.049,0.037-0.092,0.066-0.129l-0.644-1.085l-2.423,2.103
			C34.455,20.469,34.412,20.493,34.368,20.508z"/>
		<polygon fill="#FFFFFF" points="36.324,17.868 32.622,17.127 32.324,17.135 28.655,17.876 30.958,19.833 32.334,20.397 
			32.395,20.396 34.064,19.827 		"/>
		<path fill="#FFFFFF" d="M32.076,23.685l-1.386-0.469c-1.563-0.38-3.154-2.698-3.515-3.249l-5.141,1.814
			c-0.114,0.039-0.201,0.134-0.234,0.251l-5.393,19.622l4.481,0.785l3.104-9.727l0.115,12.407c0.001,0.175,0.123,0.323,0.292,0.36
			l7.791,1.672C31.728,43.201,31.952,29.599,32.076,23.685z M30.011,30.92h-3.558c-0.204,0-0.369-0.167-0.369-0.372
			c0-0.207,0.165-0.372,0.369-0.372h3.558c0.203,0,0.369,0.165,0.369,0.372C30.379,30.753,30.214,30.92,30.011,30.92z"/>
		<path fill="#FFFFFF" d="M43.217,22.032c-0.033-0.114-0.117-0.208-0.229-0.249l-4.863-1.827c-0.627,1.628-3.264,2.964-3.381,3.022
			l-1.928,0.598c-0.123,5.858-0.354,19.795,0.111,23.557l7.688-1.65c0.169-0.037,0.291-0.187,0.292-0.36l0.114-12.409l3.15,9.868
			l4.398-1.063L43.217,22.032z M38.109,30.92h-3.56c-0.202,0-0.368-0.167-0.368-0.372c0-0.207,0.166-0.372,0.368-0.372h3.56
			c0.203,0,0.367,0.165,0.367,0.372C38.477,30.753,38.313,30.92,38.109,30.92z"/>
	</g>
</g>
</svg>
