<?xml version="1.0" encoding="utf-8"?>
<!-- Generator: Adobe Illustrator 16.0.0, SVG Export Plug-In . SVG Version: 6.00 Build 0)  -->
<!DOCTYPE svg PUBLIC "-//W3C//DTD SVG 1.1//EN" "http://www.w3.org/Graphics/SVG/1.1/DTD/svg11.dtd">
<svg version="1.1" id="Layer_1" xmlns="http://www.w3.org/2000/svg" xmlns:xlink="http://www.w3.org/1999/xlink" x="0px" y="0px"
	 width="64px" height="64px" viewBox="0 0 64 64" enable-background="new 0 0 64 64" xml:space="preserve">
<g id="Men_x2019_s_Shirt">
	<rect x="1.204" y="0.067" fill="#617F8F" width="63.515" height="64.158"/>
	<polygon fill="#476572" points="64.719,64.227 39.404,64.227 23.901,45.035 24.403,44.021 25.189,40.281 18.214,31.34 
		22.172,21.965 22.367,21.642 27.511,19.658 28.066,19.059 28.489,18.021 29.022,17.505 36.732,17.525 37.219,17.976 38.313,19.591 
		43.484,21.591 64.719,48.154 	"/>
	<g>
		<path fill="#FFFFFF" d="M31.399,22.315c-0.022-0.051-0.035-0.108-0.035-0.164l0.007-0.873l-0.101-0.08l-1.191,3.188
			c-0.054,0.143-0.189,0.238-0.34,0.239c-0.002,0-0.004,0-0.004,0c-0.15,0-0.285-0.092-0.342-0.232l-1.882-4.734l-5.139,1.813
			c-0.113,0.039-0.201,0.134-0.232,0.251l-3.925,9.617l5.429,2.418c0.008,0.002,0.016,0.008,0.025,0.012l0.546-0.996l-0.429,11.89
			c-0.003,0.058,0.009,0.116,0.033,0.168c0.049,0.106,1.268,2.62,8.105,2.62c0.218,0,0.447-0.006,0.674-0.012
			c-0.883-4.723-0.033-20.51,0.075-22.459L31.399,22.315z"/>
		<path fill="#FFFFFF" d="M31.968,20.805c0.09,0.072,0.142,0.181,0.141,0.295l-0.008,0.97l0.89,1.864l0.687-1.83l-0.092-0.97
			c-0.012-0.127,0.041-0.249,0.139-0.329l0.605-0.482l2.303-2.797c-1.314-0.446-2.641-0.682-3.947-0.682
			c-1.832,0-3.127,0.441-3.664,0.661l2.339,2.816L31.968,20.805z"/>
		<path fill="#FFFFFF" d="M36.416,23.509l1.299-4.496c0.012-0.041,0.032-0.074,0.057-0.107l-0.553-0.93l-2.193,2.667L36.416,23.509z
			"/>
		<polygon fill="#FFFFFF" points="30.683,20.663 28.489,18.021 28.066,19.059 29.725,23.23 		"/>
		<path fill="#FFFFFF" d="M43.555,21.723c-0.031-0.114-0.115-0.208-0.227-0.249l-5.016-1.883l-1.457,5.046
			c-0.041,0.146-0.17,0.254-0.322,0.267c-0.01,0-0.021,0.001-0.031,0.001c-0.141,0-0.268-0.079-0.33-0.209l-1.713-3.527
			l-0.121,0.098l0.082,0.853c0.004,0.057-0.003,0.113-0.023,0.167L33.417,24.9c-0.06,1.041-0.993,18.03-0.069,22.52
			c1.649-0.07,6.938-0.447,8.536-2.516c0.054-0.067,0.08-0.153,0.076-0.241l-0.47-11.854l0.56,1.041
			c0.011-0.002,0.019-0.01,0.029-0.013l5.629-2.541L43.555,21.723z M33.965,41.221c-0.268,0-0.482-0.219-0.482-0.486
			c0-0.269,0.216-0.486,0.482-0.486c0.266,0,0.482,0.219,0.482,0.486S34.23,41.221,33.965,41.221z M34.012,37.038
			c-0.268,0-0.484-0.218-0.484-0.487c0-0.269,0.218-0.486,0.484-0.486c0.264,0,0.48,0.219,0.48,0.486
			C34.492,36.82,34.275,37.038,34.012,37.038z M34.055,33.43c-0.266,0-0.48-0.218-0.48-0.484c0-0.271,0.216-0.488,0.48-0.488
			c0.266,0,0.482,0.219,0.482,0.488C34.537,33.212,34.32,33.43,34.055,33.43z M34.215,29.248c-0.266,0-0.482-0.221-0.482-0.487
			c0-0.27,0.218-0.489,0.482-0.489c0.268,0,0.482,0.22,0.482,0.489C34.697,29.027,34.482,29.248,34.215,29.248z M34.445,25.342
			c-0.266,0-0.484-0.219-0.484-0.487s0.219-0.487,0.484-0.487c0.265,0,0.48,0.219,0.48,0.487S34.711,25.342,34.445,25.342z"/>
	</g>
</g>
</svg>
