<?xml version="1.0" encoding="utf-8"?>
<!-- Generator: Adobe Illustrator 16.0.0, SVG Export Plug-In . SVG Version: 6.00 Build 0)  -->
<!DOCTYPE svg PUBLIC "-//W3C//DTD SVG 1.1//EN" "http://www.w3.org/Graphics/SVG/1.1/DTD/svg11.dtd">
<svg version="1.1" id="Layer_1" xmlns="http://www.w3.org/2000/svg" xmlns:xlink="http://www.w3.org/1999/xlink" x="0px" y="0px"
	 width="64px" height="64px" viewBox="0 0 64 64" enable-background="new 0 0 64 64" xml:space="preserve">
<g id="Men_x2019_s_Short">
	<rect x="0.771" y="0.274" fill="#4358A6" width="63.514" height="64.158"/>
	<polyline fill="#2E458C" points="28.387,21.256 43.662,20.639 64.285,46.484 64.285,64.434 34.02,64.434 16.242,42.527 
		16.877,40.091 17.423,37.87 21.245,23.82 21.394,23.039 28.387,21.256 	"/>
	<g>
		<path fill="#FFFFFF" d="M43.662,20.639c0-0.206-0.165-0.373-0.368-0.373H21.762c-0.203,0-0.368,0.167-0.368,0.373v2.4h22.268
			V20.639z"/>
		<path fill="#FFFFFF" d="M48.809,42.213l-1.891-8.99l-3.107-9.402h-8.723v8.904c-0.125,1.307-0.521,2.219-1.182,2.748
			c-0.51,0.41-1.039,0.467-1.284,0.467c-0.083,0-0.134-0.006-0.142-0.008c-0.183-0.023-0.321-0.184-0.321-0.369V23.82H21.245
			l-3.117,9.441l-1.878,8.951c-0.041,0.192,0.075,0.384,0.265,0.435l6.202,1.688c0.03,0.008,0.06,0.012,0.091,0.012l7.997,0.092
			c0.188,0.035,0.33-0.123,0.366-0.299l1.358-6.804l1.357,6.804c0.034,0.176,0.186,0.299,0.36,0.299c0.002,0,0.003,0,0.007,0
			l7.949-0.139c0.029,0,0.059-0.005,0.086-0.011l6.25-1.64C48.73,42.6,48.848,42.407,48.809,42.213z"/>
		<path fill="#FFFFFF" d="M32.896,35.163c0.16-0.038,0.363-0.117,0.566-0.284c0.48-0.396,0.789-1.154,0.891-2.191V23.82h-1.457
			V35.163z"/>
	</g>
</g>
</svg>
