<?xml version="1.0" encoding="utf-8"?>
<!-- Generator: Adobe Illustrator 16.0.0, SVG Export Plug-In . SVG Version: 6.00 Build 0)  -->
<!DOCTYPE svg PUBLIC "-//W3C//DTD SVG 1.1//EN" "http://www.w3.org/Graphics/SVG/1.1/DTD/svg11.dtd">
<svg version="1.1" id="Layer_1" xmlns="http://www.w3.org/2000/svg" xmlns:xlink="http://www.w3.org/1999/xlink" x="0px" y="0px"
	 width="64px" height="64px" viewBox="0 0 64 64" enable-background="new 0 0 64 64" xml:space="preserve">
<g id="Men_x2019_s_Blazer">
	<rect x="0.353" y="0.274" fill="#12978B" width="63.515" height="64.158"/>
	<polygon fill="#10877A" points="63.867,64.434 34.096,64.434 15.415,41.414 15.577,40.035 17.005,37.87 22.663,22.694 
		22.857,22.371 27.968,21.256 28.524,20.656 28.801,19.492 29.479,19.103 34.848,19.173 35.529,19.504 36.033,20.013 41.427,21.852 
		63.867,49.992 	"/>
	<g>
		<g>
			<path fill="#FFFFFF" d="M28.286,20.013l-5.289,1.783c-0.102,0.035-0.185,0.112-0.225,0.215l-7.553,18.921
				c-0.075,0.188,0.012,0.401,0.196,0.482l4.376,1.895c0.092,0.039,0.196,0.039,0.287,0c0.092-0.037,0.164-0.113,0.201-0.207
				l3.713-9.472c-0.018,2.31-0.014,6.444,0.139,11.615c0.007,0.194,0.163,0.353,0.355,0.36l6.202,0.225
				c0.054,0,0.335-0.01,0.642-0.131c-0.001-0.395,0.009-0.998,0.012-1.229v-3.043c0-0.035,0.033-3.138,0.145-6.783l0.095-0.438
				l-2.779-14.714L28.286,20.013z M30.491,39.294c0,0.205-0.165,0.37-0.368,0.37H26.35c-0.203,0-0.369-0.165-0.369-0.37
				s0.166-0.372,0.369-0.372h3.773C30.327,38.922,30.491,39.089,30.491,39.294z"/>
			<path fill="#FFFFFF" d="M31.755,18.785c-1.097,0-1.842,0.174-2.276,0.317l2.503,13.259l2.866-13.188
				C33.741,18.921,32.701,18.785,31.755,18.785z"/>
			<path fill="#FFFFFF" d="M49.003,41.271l-7.45-19.257c-0.039-0.104-0.123-0.184-0.228-0.219l-5.292-1.783l-0.504-0.509
				l-3.202,14.71c0.011,0.09-0.008,0.178-0.056,0.248l-0.06,0.273c-0.102,3.57-0.134,6.664-0.134,6.695v3.047
				c-0.008,0.537-0.014,1.119-0.012,1.371c0.11,0.041,0.228,0.071,0.359,0.071c0.011,0,0.019,0,0.029-0.001l7.352-0.645
				c0.194-0.018,0.342-0.186,0.334-0.383c-0.181-5.187-0.238-9.201-0.257-11.416l3.97,9.838c0.074,0.188,0.284,0.279,0.475,0.207
				l4.468-1.769C48.982,41.68,49.076,41.464,49.003,41.271z M37.484,39.664h-3.772c-0.203,0-0.368-0.165-0.368-0.37
				s0.166-0.372,0.368-0.372h3.772c0.205,0,0.367,0.167,0.367,0.372S37.689,39.664,37.484,39.664z"/>
		</g>
	</g>
</g>
</svg>
