<?xml version="1.0" encoding="utf-8"?>
<!-- Generator: Adobe Illustrator 16.0.0, SVG Export Plug-In . SVG Version: 6.00 Build 0)  -->
<!DOCTYPE svg PUBLIC "-//W3C//DTD SVG 1.1//EN" "http://www.w3.org/Graphics/SVG/1.1/DTD/svg11.dtd">
<svg version="1.1" id="Layer_1" xmlns="http://www.w3.org/2000/svg" xmlns:xlink="http://www.w3.org/1999/xlink" x="0px" y="0px"
	 width="64px" height="64px" viewBox="0 0 64 64" enable-background="new 0 0 64 64" xml:space="preserve">
<g id="Men_x2019_s_Vest">
	<rect x="0.353" y="0.074" fill="#EC5451" width="63.515" height="64.156"/>
	<polygon fill="#D13F3F" points="63.867,64.23 35.575,64.23 22.177,48.482 22.177,45.896 26.323,15.822 32.855,22.338 
		35.014,21.675 36.896,18.949 38.898,21.5 39.298,15.822 63.867,45.896 	"/>
	<g>
		<path fill="#FFFFFF" d="M36.896,18.949c-1.022,1.569-2.791,2.607-4.796,2.607c-2.006,0-3.774-1.039-4.797-2.607v0.827
			c0,2.672,2.152,4.846,4.797,4.846s4.796-2.174,4.796-4.846V18.949z"/>
		<path fill="#FFFFFF" d="M39.298,23.152v-7.33h-1.465c0,0.031-0.003,0.063-0.009,0.094v3.86c0,3.188-2.567,5.782-5.724,5.782
			c-3.157,0-5.725-2.594-5.725-5.782v-3.951l-1.454-0.003v7.33c0,4.086-0.659,5.178-2.745,6.16v19.17h9.923h0.02h9.922V29.313
			C39.957,28.33,39.298,27.238,39.298,23.152z"/>
	</g>
</g>
</svg>
