<?xml version="1.0" encoding="utf-8"?>
<!-- Generator: Adobe Illustrator 16.0.0, SVG Export Plug-In . SVG Version: 6.00 Build 0)  -->
<!DOCTYPE svg PUBLIC "-//W3C//DTD SVG 1.1//EN" "http://www.w3.org/Graphics/SVG/1.1/DTD/svg11.dtd">
<svg version="1.1" id="Layer_1" xmlns="http://www.w3.org/2000/svg" xmlns:xlink="http://www.w3.org/1999/xlink" x="0px" y="0px"
	 width="64px" height="64px" viewBox="0 0 64 64" enable-background="new 0 0 64 64" xml:space="preserve">
<g id="Scarf">
	<rect x="0.771" y="0.26" fill="#4358A6" width="63.514" height="64.157"/>
	<polygon fill="#2E458C" points="27.703,48.676 39.723,64.417 64.285,64.417 64.285,51.014 38.932,18.975 36.621,18.335 
		28.476,18.335 30.58,31.228 29.919,31.802 27.438,44.482 	"/>
	<g>
		<path fill="#FFFFFF" d="M32.827,26.977c0,0,1.653,1.269,3.749,1.524l0.328,0.047c2.406-2.091,2.818-6.204,2.818-6.204
			c-0.141-7.533-8.137-6.454-8.137-6.454c-8.936,0.428-5.667,9.846-5.667,9.846c2.53,6.373,9.817,7.577,9.817,7.577
			c1.729-1.558,1.543-3.897,1.543-3.897c-8.566-1.494-7.863-6.839-7.863-6.839c-0.16-3.738,2.668-3.531,2.668-3.531
			c3.864-0.512,3.729,3.113,3.729,3.113C35.975,24.141,33.959,26.103,32.827,26.977z"/>
		<path fill="#FFFFFF" d="M35.416,42.622c-0.002-0.028-0.016-0.056-0.023-0.082l0,0c0,0-1.154-5.416-1.102-8.834l-0.521-0.2
			c-1.513-0.402-3.85-1.704-3.85-1.704s-3.765,3.851-2.481,12.681c-0.034,0.056-0.059,0.115-0.061,0.184
			c-0.026,0.785-0.079,3.396,0.326,4.011c0.072,0.107,0.187,0.165,0.306,0.165c0.07,0,0.14-0.021,0.204-0.063
			c0.169-0.112,0.215-0.346,0.104-0.514c-0.184-0.281-0.253-2.076-0.204-3.574c0-0.006-0.002-0.008-0.002-0.014h1.103
			c0,0.014-0.005,0.023-0.004,0.037c0.054,0.555,0.346,3.354,0.748,3.961c0.073,0.107,0.188,0.165,0.306,0.165
			c0.071,0,0.143-0.021,0.204-0.062c0.171-0.114,0.216-0.346,0.103-0.516c-0.199-0.303-0.473-2.053-0.625-3.587h2.435
			c0.07,0.7,0.354,3.294,0.739,3.878c0.07,0.106,0.188,0.166,0.307,0.166c0.07,0,0.141-0.021,0.203-0.063
			c0.17-0.114,0.217-0.345,0.104-0.517c-0.2-0.304-0.477-2.08-0.627-3.623c-0.004-0.047-0.02-0.086-0.039-0.125v-1.746l1.63-0.076
			c-0.011,0.041-0.017,0.084-0.013,0.125c0.056,0.555,0.347,3.354,0.746,3.961c0.07,0.109,0.188,0.167,0.307,0.167
			c0.07,0,0.142-0.021,0.203-0.063c0.17-0.113,0.216-0.345,0.104-0.515C35.844,45.943,35.568,44.166,35.416,42.622z"/>
	</g>
</g>
</svg>
