<?xml version="1.0" encoding="utf-8"?>
<!-- Generator: Adobe Illustrator 16.0.0, SVG Export Plug-In . SVG Version: 6.00 Build 0)  -->
<!DOCTYPE svg PUBLIC "-//W3C//DTD SVG 1.1//EN" "http://www.w3.org/Graphics/SVG/1.1/DTD/svg11.dtd">
<svg version="1.1" id="Layer_1" xmlns="http://www.w3.org/2000/svg" xmlns:xlink="http://www.w3.org/1999/xlink" x="0px" y="0px"
	 width="64px" height="64px" viewBox="0 0 64 64" enable-background="new 0 0 64 64" xml:space="preserve">
<g id="Skirt">
	<rect x="0.631" y="0.053" fill="#77594A" width="63.514" height="64.157"/>
	<polygon fill="#634739" points="64.145,64.21 36.273,64.193 15.852,38.198 23.193,32.132 28.869,20.306 29.787,20.538 
		32.387,21.455 35.592,20.458 36.662,20.18 40.975,21.466 64.145,50.734 	"/>
	<g>
		<path fill="#FFFFFF" d="M43.281,27.676c-0.939-5.751-3.969-8.548-3.969-8.548c-0.974,0.479-1.908,0.836-2.799,1.096v0.126
			c0.01,0.135,1.088,16.464,6.063,21.067l0.385,0.429c3.201-0.313,5.961-3.459,5.961-3.459
			C44.85,37.331,43.281,27.676,43.281,27.676z"/>
		<path fill="#FFFFFF" d="M22.709,41.545c5.23-8.426,6.15-21.02,6.16-21.146v-0.094c-1.699-0.496-2.666-1.178-2.666-1.178
			c-1.809,1.631-4.23,9.571-4.23,9.571c-1.402,5.212-6.121,9.499-6.121,9.499c2.061,2.422,5.51,3.253,6.779,3.486
			C22.656,41.639,22.686,41.59,22.709,41.545z"/>
		<path fill="#FFFFFF" d="M42.117,42.296l-0.197-0.219c-5.102-4.716-6.24-20.275-6.328-21.619c-2.295,0.519-4.268,0.404-5.805,0.08
			c-0.096,1.205-1.18,13.269-6.273,21.473c-0.092,0.179-0.203,0.36-0.32,0.542c2.299-0.062,4.785,2.324,4.785,2.324
			c2.609,0.579,4.492,0,4.492,0c0.938-0.634,2.871-0.422,2.871-0.422c0.941,0.947,3.238,0,3.238,0
			c1.045-1.109,3.684-1.583,3.684-1.583C42.123,42.684,42.102,42.477,42.117,42.296z"/>
	</g>
</g>
</svg>
