<?xml version="1.0" encoding="utf-8"?>
<!-- Generator: Adobe Illustrator 16.0.0, SVG Export Plug-In . SVG Version: 6.00 Build 0)  -->
<!DOCTYPE svg PUBLIC "-//W3C//DTD SVG 1.1//EN" "http://www.w3.org/Graphics/SVG/1.1/DTD/svg11.dtd">
<svg version="1.1" id="Layer_1" xmlns="http://www.w3.org/2000/svg" xmlns:xlink="http://www.w3.org/1999/xlink" x="0px" y="0px"
	 width="64px" height="64px" viewBox="0 0 64 64" enable-background="new 0 0 64 64" xml:space="preserve">
<g id="Sweater">
	<rect x="0.631" y="0.071" fill="#9D9E9E" width="63.514" height="64.158"/>
	<polygon fill="#818282" points="64.145,64.229 28.086,64.229 14.934,48.713 15.535,46.7 14.781,45.766 21.361,19.916 
		22.668,18.863 25.861,16.363 27.996,15.478 31.9,19.378 35.777,15.478 36.242,15.67 36.852,15.994 37.938,16.374 43.246,19.944 
		64.145,46.896 	"/>
	<g>
		<path fill="#FFFFFF" d="M18.482,46.771L15.535,46.7c-0.193,0-0.328,0.118-0.369,0.292l-0.307,1.404
			c-0.023,0.11,0.002,0.227,0.074,0.315c0.068,0.087,0.174,0.138,0.287,0.138h2.977c0.174,0,0.324-0.123,0.361-0.295l0.275-1.334
			c0.023-0.109-0.004-0.223-0.072-0.309C18.695,46.826,18.592,46.773,18.482,46.771z"/>
		<path fill="#FFFFFF" d="M49.744,46.992c-0.039-0.174-0.182-0.29-0.369-0.292l-2.947,0.071c-0.109,0.002-0.211,0.055-0.279,0.142
			c-0.067,0.086-0.096,0.198-0.071,0.31l0.274,1.332c0.035,0.174,0.187,0.297,0.359,0.297h2.98c0.004,0,0.01,0,0.016,0
			c0.201,0,0.367-0.168,0.367-0.373c0-0.064-0.018-0.125-0.045-0.179L49.744,46.992z"/>
		<path fill="#FFFFFF" d="M31.855,20.717h0.059c0.541-0.317,3.664-2.214,5.33-4.632l-1.467-0.607
			c-0.15-0.063-0.33-0.016-0.435,0.117c-1.166,1.553-3.025,2.728-3.457,2.989c-0.434-0.261-2.305-1.435-3.457-2.986
			c-0.1-0.136-0.279-0.185-0.434-0.12l-1.438,0.597C28.391,18.693,31.34,20.427,31.855,20.717z"/>
		<path fill="#FFFFFF" d="M49.697,45.96c0.225-0.007,0.377-0.165,0.377-0.373c0-0.069-0.02-0.135-0.053-0.19l-6.713-25.322
			c-0.015-0.047-0.035-0.091-0.063-0.129c-1.537-2.038-2.604-2.449-2.636-2.461l-2.674-1.109c-1.891,2.849-5.585,4.949-5.748,5.042
			c-0.055,0.029-0.115,0.046-0.178,0.046h-0.25c-0.061,0-0.119-0.015-0.172-0.044c-0.148-0.079-3.633-1.961-5.729-5.055
			l-2.684,1.114c-0.045,0.018-1.111,0.429-2.648,2.467c-0.033,0.041-0.057,0.091-0.066,0.143L14.709,45.45
			c-0.023,0.112,0.002,0.227,0.072,0.315c0.068,0.088,0.176,0.139,0.287,0.139h4.525c0.172,0,0.322-0.121,0.359-0.293l3.25-14.753
			c0.074,2.769,0.162,7.298,0.162,14.176c0,0.2,0.156,0.356,0.352,0.368h16.343c0.192-0.012,0.348-0.168,0.348-0.368
			c0-7.292,0.104-11.968,0.18-14.653l4.111,15.303c0.043,0.162,0.188,0.276,0.354,0.276h4.64
			C49.691,45.96,49.695,45.96,49.697,45.96z"/>
		<path fill="#FFFFFF" d="M24.666,47.348c0,0.207,0.166,0.373,0.369,0.373h13.658c0.203,0,0.367-0.166,0.367-0.373v-1.201H24.666
			V47.348z"/>
	</g>
</g>
</svg>
