<?xml version="1.0" encoding="utf-8"?>
<!-- Generator: Adobe Illustrator 16.0.0, SVG Export Plug-In . SVG Version: 6.00 Build 0)  -->
<!DOCTYPE svg PUBLIC "-//W3C//DTD SVG 1.1//EN" "http://www.w3.org/Graphics/SVG/1.1/DTD/svg11.dtd">
<svg version="1.1" id="Layer_1" xmlns="http://www.w3.org/2000/svg" xmlns:xlink="http://www.w3.org/1999/xlink" x="0px" y="0px"
	 width="64px" height="64px" viewBox="0 0 64 64" enable-background="new 0 0 64 64" xml:space="preserve">
<g id="T-Shirt">
	<rect x="0.353" y="0.071" fill="#444444" width="63.515" height="64.158"/>
	<polygon fill="#30302F" points="63.867,64.229 36.867,64.229 22.897,47.802 23.035,34.186 21.018,31.078 21.084,18.913 
		22.392,17.86 27.588,15.674 28.393,15.776 30.871,17.196 34.427,17.196 35.829,15.773 36.626,15.672 41.563,17.72 43.143,18.916 
		48.298,26.309 63.867,45.895 	"/>
	<g>
		<path fill="#FFFFFF" d="M32.005,18.746h0.201c2.616,0.064,3.583-2.85,3.624-2.973l0.038-0.126
			c-1.445,0.988-3.209,1.046-3.556,1.046l-0.105-0.002l-0.295,0.002c-0.347,0-2.113-0.058-3.559-1.048l0.041,0.131
			C28.432,15.896,29.388,18.803,32.005,18.746z"/>
		<path fill="#FFFFFF" d="M21.084,18.913c-0.379,0.375-0.808,0.851-1.285,1.484l-3.878,5.911c-0.102,0.157-0.072,0.368,0.07,0.49
			l5.027,4.279c0.149,0.125,0.372,0.114,0.505-0.03l0.336-0.36c0.242-6.712-0.703-11.557-0.713-11.607L21.084,18.913z"/>
		<path fill="#FFFFFF" d="M31.977,21.309c0.001,0,0.001,0,0.003,0h0.258c0,0,0.002,0,0.003,0c4.965,0,6.054-4.511,6.063-4.556
			l0.051-0.363l-1.73-0.718l-0.093,0.321c-0.015,0.044-1.188,3.543-4.336,3.498h-0.182c-0.036,0-0.069,0-0.103,0
			c-3.074,0-4.209-3.455-4.22-3.488l-0.103-0.329l-1.73,0.718l0.061,0.386C25.957,16.938,27.03,21.309,31.977,21.309z"/>
		<path fill="#FFFFFF" d="M42.352,18.93l0.207-0.546c-0.604-0.503-0.979-0.656-0.996-0.664l-2.504-1.04l-0.031,0.211
			c-0.016,0.08-1.242,5.162-6.786,5.162c-0.001,0-0.003,0-0.003,0H31.98c-0.001,0-0.003,0-0.003,0c-5.542,0-6.768-5.082-6.779-5.133
			l-0.038-0.238l-2.488,1.034c-0.026,0.01-0.398,0.162-1,0.662l0.182,0.502c0.023,0.099,0.91,4.624,0.768,10.99l0.026-0.027
			c0.076,2.086,0.25,7.919,0.25,17.959c0,0.188,0.14,0.347,0.326,0.368c0.039,0.006,4.024,0.484,7.995,0.484
			c0.268,0,0.535-0.002,0.796-0.008H32.2c0.267,0.006,0.536,0.008,0.803,0.008c3.972,0,7.957-0.479,7.996-0.484
			c0.185-0.021,0.323-0.18,0.323-0.368c0-9.063,0.143-14.687,0.227-17.231C41.323,23.838,42.341,18.977,42.352,18.93z"/>
		<path fill="#FFFFFF" d="M48.298,26.309l-3.892-5.932c-0.469-0.622-0.893-1.089-1.264-1.461l-0.088,0.227
			c0.004,0-0.998,4.801-0.769,11.466l0.409,0.439c0.134,0.145,0.355,0.155,0.507,0.03l5.026-4.279
			C48.372,26.677,48.402,26.466,48.298,26.309z"/>
	</g>
</g>
</svg>
