<?xml version="1.0" encoding="utf-8"?>
<!-- Generator: Adobe Illustrator 16.0.0, SVG Export Plug-In . SVG Version: 6.00 Build 0)  -->
<!DOCTYPE svg PUBLIC "-//W3C//DTD SVG 1.1//EN" "http://www.w3.org/Graphics/SVG/1.1/DTD/svg11.dtd">
<svg version="1.1" id="Layer_1" xmlns="http://www.w3.org/2000/svg" xmlns:xlink="http://www.w3.org/1999/xlink" x="0px" y="0px"
	 width="64px" height="64px" viewBox="0 0 64 64" enable-background="new 0 0 64 64" xml:space="preserve">
<g id="Tank_Top">
	<rect x="0.631" y="0.057" fill="#9D9E9E" width="63.514" height="64.157"/>
	<path fill="#818282" d="M29.762,17.497l-2.729,13.65L25.73,44.43l-1.803,1.327l13.839,18.457h26.379V52.05L37.205,17.531
		c0,0-1.986-0.461-2.234,2.005c0,0-0.486,1.838-0.166,4.564l-3.922-6.282L29.762,17.497z"/>
	<path fill="#FFFFFF" d="M38.629,39.368c-0.164-2.265,1.035-5.978,1.037-5.988c1.006-2.479,1.172-4.291,1.178-4.374
		c0.047-0.658-0.387-1.096-0.658-1.258c-2.699-1.499-2.369-6.997-2.365-7.071c0.025-1.906-0.262-3.051-0.881-3.499
		c-0.258-0.188-0.53-0.215-0.717-0.173c-0.496,0.012-0.926,0.229-1.242,0.627c-1.479,1.861-0.358,7.54-0.096,8.763
		c-0.24,0.295-0.977,1.05-2.25,1.05c-0.979,0-1.6-0.451-1.93-0.791c0.369-1.498,1.984-8.69-0.682-9.483
		c-0.285-0.085-0.564-0.041-0.816,0.13c-0.965,0.651-1.273,3.142-1.324,3.633c-0.084,0.747-0.545,2.91-0.547,2.926
		c-0.598,2.571-2.307,4.027-2.299,4.027c-0.592,0.346-0.602,1.042-0.518,1.368c0.301,1.919,0.979,3.47,0.988,3.481
		c0.01,0.039,1.076,4.08,0.504,6.93c-0.58,2.889-1.877,5.654-1.891,5.682l-0.193,0.41l0.434,0.111
		c4.154,1.07,7.342,1.413,9.721,1.413c4.15,0,5.846-1.046,5.953-1.114l0.246-0.159l-0.096-0.276
		C40.172,45.689,38.795,41.662,38.629,39.368z M30.014,25.525c-0.004-0.014-0.592-1.492-0.592-2.775
		c0.002-0.028,0.084-2.94,0.338-3.862c0.088-0.334,0.203-0.68,0.289-0.892c1.18,0.819,0.76,4.833,0.104,7.791L30.014,25.525z
		 M36.326,21.121c-0.291,2.104-0.639,3.402-0.908,4.17c-0.4-2.252-0.818-5.991,0.137-7.193c0.174-0.22,0.377-0.33,0.637-0.346
		c0.113,0.093,0.22,0.442,0.238,0.713l0.01,0.12l0.037,0.046C36.502,18.752,36.578,19.307,36.326,21.121z"/>
</g>
</svg>
