<?xml version="1.0" encoding="utf-8"?>
<!-- Generator: Adobe Illustrator 16.0.0, SVG Export Plug-In . SVG Version: 6.00 Build 0)  -->
<!DOCTYPE svg PUBLIC "-//W3C//DTD SVG 1.1//EN" "http://www.w3.org/Graphics/SVG/1.1/DTD/svg11.dtd">
<svg version="1.1" id="Layer_1" xmlns="http://www.w3.org/2000/svg" xmlns:xlink="http://www.w3.org/1999/xlink" x="0px" y="0px"
	 width="64px" height="64px" viewBox="0 0 64 64" enable-background="new 0 0 64 64" xml:space="preserve">
<g id="Track_Pant">
	<g>
		<rect x="0.771" y="0.037" fill="#69B76B" width="63.514" height="64.156"/>
		<polygon fill="#4B9B4A" points="38.518,16.147 64.285,47.699 64.285,64.193 37.482,64.193 24.013,47.676 24.084,45.859 
			26.188,22.047 		"/>
	</g>
	<path fill="#FFFFFF" d="M39.756,30.289l-1.104-12.577l0.031-1.243c0.004-0.13-0.06-0.251-0.166-0.321
		c-0.107-0.072-0.242-0.079-0.357-0.025c-0.018,0.009-1.751,0.811-5.525,0.895h-0.202c-3.781-0.084-5.492-0.885-5.509-0.894
		c-0.115-0.055-0.25-0.048-0.356,0.022c-0.106,0.068-0.171,0.187-0.171,0.315l0.009,1.209l-1.104,12.622l-1.368,17.125
		c-0.014,0.185,0.107,0.353,0.286,0.394c0.068,0.015,1.84,0.41,4.332,0.32c0.19-0.007,0.343-0.156,0.354-0.349
		c0.012-0.181,1.112-17.839,3.623-22.53c2.511,4.683,3.613,22.35,3.625,22.53c0.012,0.19,0.164,0.342,0.354,0.349
		c0.248,0.01,0.486,0.014,0.719,0.014c2.112,0,3.555-0.321,3.612-0.334c0.181-0.041,0.304-0.209,0.286-0.394L39.756,30.289z"/>
</g>
</svg>
