<?xml version="1.0" encoding="utf-8"?>
<!-- Generator: Adobe Illustrator 16.0.0, SVG Export Plug-In . SVG Version: 6.00 Build 0)  -->
<!DOCTYPE svg PUBLIC "-//W3C//DTD SVG 1.1//EN" "http://www.w3.org/Graphics/SVG/1.1/DTD/svg11.dtd">
<svg version="1.1" id="Layer_1" xmlns="http://www.w3.org/2000/svg" xmlns:xlink="http://www.w3.org/1999/xlink" x="0px" y="0px"
	 width="64px" height="64px" viewBox="0 0 64 64" enable-background="new 0 0 64 64" xml:space="preserve">
<g id="Tunic_Dress">
	<rect x="0.353" y="0.269" fill="#EC5451" width="63.515" height="64.157"/>
	<polygon fill="#D13F3F" points="63.867,64.426 36.822,64.426 23.396,47.266 27.116,29.637 27.402,28.92 27.77,28.518 27.755,27.25 
		27.823,26.447 27.832,23.191 28.474,15.68 32.11,19.996 33.064,19.913 33.484,19.503 34.086,19.241 36.514,18.535 35.768,15.68 
		37.996,16.367 63.867,49.048 	"/>
	<g>
		<path fill="#FFFFFF" d="M31.649,32.802c0.867-0.12,1.701-0.252,2.078-0.333l0.434-3.116c0-0.004,0.004-0.008,0.005-0.013
			c0.001-0.006-0.001-0.011,0-0.016l0.315-1.452c-0.657,0.34-1.353,1.211-1.609,1.595l-1.222,3.27V32.802z"/>
		<polygon fill="#FFFFFF" points="31.649,30.628 32.009,29.663 31.649,29.663 		"/>
		<path fill="#FFFFFF" d="M39.098,36.835c0,0-0.839-5.728-2.272-8.59c0,0,0.103-0.247-0.125-0.53c0,0-0.009-0.063-0.024-0.161
			l-0.162,0.061l0.641,7.387c0.012,0.139-0.053,0.27-0.164,0.344l-0.094,0.061c0.033,0.047,0.06,0.1,0.067,0.162
			c0.083,0.631,0.235,1.164,0.396,1.729c0.227,0.803,0.461,1.631,0.502,2.77c0.002,0.063,0.184,5.944,0.846,7.983l2.117-0.349
			C40.824,47.699,39.624,40.443,39.098,36.835z"/>
		<path fill="#FFFFFF" d="M36.4,34.846l-0.625-7.236c-0.196-0.063-0.371-0.022-0.487,0.019l-0.399,1.839l-0.795,6.868l0.867-0.527
			L36.4,34.846z"/>
		<path fill="#FFFFFF" d="M27.776,27.158c-0.069,0.292-0.154,0.758-0.18,1.395c0,0-0.067,0.084-0.194,0.367h4.949
			c0.229-0.324,0.756-1.005,1.401-1.464c-1.482-0.188-4.125-0.27-5.877-0.275C27.839,27.181,27.808,27.168,27.776,27.158z"/>
		<path fill="#FFFFFF" d="M34.029,26.751c0.385,0.058,0.709,0.124,0.932,0.204c0.18-0.073,0.477-0.153,0.811-0.105l0.647-0.366
			c0.062-0.034,0.127-0.042,0.192-0.04c0-0.005,0-0.013,0-0.018l0.578-3.306c0,0,0.386-1.372,0.56-1.494
			c0,0-0.699-2.926,0.246-5.259l-0.368-0.354l-1.859-0.334c0,0,0.129,0.638,0.035,1.077c0,0-0.191,1.062-0.42,1.328
			c-0.156,0.182-0.38,0.782-1.297,1.156c0.083,0.072,0.139,0.175,0.133,0.294C34.217,19.587,34,24.484,34.029,26.751z"/>
		<path fill="#FFFFFF" d="M33.83,37.365c-0.059,0.035-0.125,0.054-0.189,0.054c-0.07,0-0.14-0.021-0.201-0.06
			c-0.119-0.076-0.182-0.215-0.166-0.355l0.438-3.775c-0.55,0.109-1.408,0.233-2.062,0.323v3.212
			c-0.972,8.084-0.374,11.531-0.367,11.564c0.013,0.07,0,0.139-0.024,0.201c0.007,0.004,0.017,0.008,0.024,0.013v0.371
			c0,0,1.78,0.21,2.548,0.03c0.243-2.041,0.064-9.37,0.003-11.579L33.83,37.365z"/>
		<path fill="#FFFFFF" d="M30.915,33.598c-0.054-0.023-0.104-0.06-0.143-0.109c-0.08-0.103-0.102-0.239-0.056-0.362l0.197-0.528
			l-0.001-2.934h-1.846c-0.001,0.006,0.002,0.011,0.001,0.016l-0.63,4.242c-0.482,4.587-1.076,14.398-1.082,14.497
			c-0.001,0.009-0.006,0.017-0.007,0.022c0.668,0.078,2.065,0.205,2.486-0.045c0,0,0.333-0.06,0.704-0.045
			c-0.099-0.641-0.529-4.136,0.375-11.631L30.915,33.598z"/>
		<path fill="#FFFFFF" d="M36.652,37.501c-0.147-0.521-0.295-1.063-0.387-1.678l-1.113,0.731l-0.596,0.365
			c0.041,1.406,0.252,8.967,0.043,11.715c0.373-0.074,0.879-0.156,1.021-0.102l2.393-0.232c-0.701-2.14-0.881-7.963-0.889-8.214
			C37.089,39.042,36.875,38.293,36.652,37.501z"/>
		<path fill="#FFFFFF" d="M28.327,29.663h-1.081c-0.046,0-0.089-0.011-0.13-0.026c-0.444,1.23-1.192,3.782-2.227,8.954
			c0,0-1.119,7.541-1.493,8.675c0,0,0.374,0.328,1.259,0.471c0.658,0.104,1.519,0.027,1.998,0.137
			c0.127-2.066,0.633-10.025,1.055-14.045L28.327,29.663z"/>
		<path fill="#FFFFFF" d="M26.919,21.459c0,0,0.303,0.684,0.536,2.52l0.369,2.469c0.017-0.003,0.033-0.011,0.053-0.011h0.001
			c0.401,0.002,1.421,0.01,2.579,0.05c0.112-1.596-0.011-7.091-0.013-7.147c-0.001-0.072,0.021-0.137,0.055-0.194
			c-0.772-0.401-1.098-0.955-1.098-0.955s-0.768-1.009-0.926-2.51l-1.327,0.405c0,0-0.473-0.177-0.787,0.282
			C26.36,16.367,27.55,17.428,26.919,21.459z"/>
		<path fill="#FFFFFF" d="M31.192,26.516c0.721,0.033,1.453,0.079,2.1,0.146c-0.022-2.334,0.188-7.108,0.192-7.158
			c0-0.029,0.013-0.055,0.02-0.082c-0.314,0.069-0.686,0.117-1.124,0.129c-0.464,0.013-0.854-0.054-1.199-0.149
			C31.195,20.078,31.297,24.922,31.192,26.516z M32.27,26.088c-0.296,0-0.536-0.243-0.536-0.542c0-0.295,0.24-0.537,0.536-0.537
			c0.294,0,0.535,0.242,0.535,0.537C32.805,25.845,32.564,26.088,32.27,26.088z M32.27,20.598c0.294,0,0.535,0.243,0.535,0.539
			c0,0.3-0.24,0.543-0.535,0.543c-0.296,0-0.536-0.243-0.536-0.543C31.734,20.841,31.974,20.598,32.27,20.598z M32.269,22.639
			c0.295,0,0.536,0.242,0.536,0.54c0,0.298-0.24,0.54-0.536,0.54c-0.295,0-0.535-0.242-0.535-0.54
			C31.734,22.881,31.974,22.639,32.269,22.639z"/>
	</g>
</g>
</svg>
