<?xml version="1.0" encoding="utf-8"?>
<!-- Generator: Adobe Illustrator 16.0.0, SVG Export Plug-In . SVG Version: 6.00 Build 0)  -->
<!DOCTYPE svg PUBLIC "-//W3C//DTD SVG 1.1//EN" "http://www.w3.org/Graphics/SVG/1.1/DTD/svg11.dtd">
<svg version="1.1" id="Layer_1" xmlns="http://www.w3.org/2000/svg" xmlns:xlink="http://www.w3.org/1999/xlink" x="0px" y="0px"
	 width="64px" height="64px" viewBox="0 0 64 64" enable-background="new 0 0 64 64" xml:space="preserve">
<g id="Woman_x2019_s_T-shirt">
	<rect x="0.353" y="0.047" fill="#795CA6" width="63.515" height="64.157"/>
	<polygon fill="#634A96" points="37.202,16.512 37.869,17.194 43.273,18.86 63.867,44.675 63.867,64.204 36.04,64.204 
		22.801,47.271 27.725,39.036 19.052,27.124 27.134,16.371 27.733,15.752 36.641,16.011 	"/>
	<g>
		<path fill="#FFFFFF" d="M32.105,18.205c0.032,0,3.282-0.054,4.536-2.194c-1.242-0.512-2.767-0.771-4.541-0.771
			c-2.345,0-4.267,0.449-4.348,0.47c-0.01,0.003-0.019,0.009-0.028,0.014c0.002,0.01,0.007,0.019,0.008,0.03
			C27.74,15.86,27.937,18.205,32.105,18.205z"/>
		<path fill="#FFFFFF" d="M41.218,28.518c0.023,0.009,0.048,0.016,0.073,0.021c1.51,0.24,3.357-0.385,3.852-0.99
			c0.159-0.196,0.168-0.37,0.146-0.484c-0.07-0.357-1.464-6.578-1.756-7.761c-0.345-1.39-2.237-1.906-3.353-1.906
			c-0.76,0-1.933-0.15-2.311-0.202l-0.667-0.683c-1.505,2.385-4.942,2.437-5.095,2.438c-3.587,0-4.656-1.664-4.973-2.578
			c-0.22,0.276-0.48,0.592-0.649,0.765c-0.174,0.174-0.463,0.198-0.955,0.226c-0.16,0.009-0.329,0.019-0.507,0.036
			c-0.808,0.082-1.742,0.414-2.631,0.935c-0.98,0.578-1.526,1.165-1.771,1.901c-0.014,0.041-1.369,4.269-1.693,6.555
			c-0.017,0.126,0.03,0.254,0.125,0.336c0.558,0.48,1.626,0.727,3.182,0.727c0.602,0,1.065-0.039,1.161-0.049
			c-0.083,0.811-0.107,2.552,0.956,3.958c0.011,0.017,0.977,1.704,0.431,3.25c-0.1,0.281-0.254,0.622-0.434,1.023
			c-0.897,1.999-2.566,5.719-1.547,11.238c0.022,0.123,0.105,0.227,0.221,0.273c0.142,0.061,3.558,1.469,9.095,1.467
			c3.192,0,6.438-0.474,9.646-1.406c0.143-0.041,0.244-0.164,0.264-0.31c0.945-7.356-1.604-11.45-1.69-11.584
			c-0.345-0.719-1.095-2.792-0.444-3.711c1.219-1.727,1.147-3.506,1.143-3.537c0-0.005,0.001-0.011,0.001-0.017L41.218,28.518z"/>
	</g>
</g>
</svg>
