<?xml version="1.0" encoding="utf-8"?>
<!-- Generator: Adobe Illustrator 16.0.0, SVG Export Plug-In . SVG Version: 6.00 Build 0)  -->
<!DOCTYPE svg PUBLIC "-//W3C//DTD SVG 1.1//EN" "http://www.w3.org/Graphics/SVG/1.1/DTD/svg11.dtd">
<svg version="1.1" id="Layer_1" xmlns="http://www.w3.org/2000/svg" xmlns:xlink="http://www.w3.org/1999/xlink" x="0px" y="0px"
	 width="64px" height="64px" viewBox="0 0 64 64" enable-background="new 0 0 64 64" xml:space="preserve">
<g id="Woman_x2019_s_Pant">
	<rect x="0.771" y="0.053" fill="#617F8F" width="63.514" height="64.157"/>
	<polygon fill="#476572" points="64.285,64.21 38.896,64.193 24.912,46.256 26.555,32.116 27.236,29.788 28.414,19.324 
		36.168,18.948 37,17.269 64.285,51.736 	"/>
	<g>
		<polygon fill="#FFFFFF" points="28.054,17.269 28.057,17.271 28.057,17.269 		"/>
		<path fill="#FFFFFF" d="M38.676,32.749c0,0-0.564-2.383-0.307-5.076c0,0,0.973-5.231-1.078-9.221L37,17.269
			c0,0-1.107,1.184-4.604,1.443c-0.348,0-3.013-0.001-4.339-1.441l-0.293,1.182c-2.051,3.989-1.076,9.221-1.076,9.221
			c0.256,2.693-0.31,5.076-0.31,5.076c-1.742,4.195-1.484,13.52-1.484,13.52l0.018-0.013l3.909,0.738
			c0.518-1.319,0.581-6.009,0.581-6.009c0.102-2.901,1.076-6.579,1.076-6.579c0.513-4.661,1.854-8.292,1.854-8.292l0.129-0.006
			c0,0,1.396,3.637,1.908,8.298c0,0,0.977,3.678,1.076,6.579c0,0,0.128,4.492,0.697,6.009l4.022-0.728
			C40.164,46.268,40.419,36.945,38.676,32.749z"/>
	</g>
</g>
</svg>
