<?xml version="1.0" encoding="utf-8"?>
<!-- Generator: Adobe Illustrator 16.0.0, SVG Export Plug-In . SVG Version: 6.00 Build 0)  -->
<!DOCTYPE svg PUBLIC "-//W3C//DTD SVG 1.1//EN" "http://www.w3.org/Graphics/SVG/1.1/DTD/svg11.dtd">
<svg version="1.1" id="Layer_1" xmlns="http://www.w3.org/2000/svg" xmlns:xlink="http://www.w3.org/1999/xlink" x="0px" y="0px"
	 width="64px" height="64px" viewBox="0 0 64 64" enable-background="new 0 0 64 64" xml:space="preserve">
<g id="Woman_x2019_s_Shirt">
	<rect x="0.353" y="0.067" fill="#F0592F" width="63.515" height="64.158"/>
	<polygon fill="#DC4726" points="63.867,64.227 31.409,64.227 15.271,44.249 15.848,41.921 17.005,37.664 21.321,21.965 
		21.516,21.642 26.759,19.658 27.315,19.06 27.737,18.021 28.27,17.506 35.881,17.525 36.468,17.976 37.563,19.591 42.802,21.723 
		63.867,48.154 	"/>
	<g>
		<path fill="#FFFFFF" d="M15.816,41.904c-0.144,0.437-0.394,1.224-0.594,2.051c-0.024,0.102-0.007,0.207,0.049,0.294
			c0.056,0.086,0.145,0.146,0.247,0.163l3.681,0.63c0.177,0.031,0.353-0.075,0.411-0.248c0,0,0.302-0.908,0.594-1.813l-4.355-1.06
			C15.835,41.917,15.828,41.909,15.816,41.904z"/>
		<path fill="#FFFFFF" d="M30.648,22.315c-0.024-0.051-0.037-0.108-0.036-0.164l0.007-0.873l-0.1-0.08l-1.192,3.188
			c-0.055,0.143-0.19,0.238-0.341,0.239c-0.001,0-0.003,0-0.004,0c-0.149,0-0.285-0.091-0.34-0.232l-1.883-4.734l-5.139,1.813
			c-0.114,0.04-0.202,0.134-0.232,0.251L16.032,41.2l4.371,1.063c0.008,0.002,0.017,0.008,0.026,0.012l3.033-9.504l-0.429,11.891
			c-0.002,0.059,0.008,0.115,0.034,0.168c0.048,0.107,1.267,2.62,8.105,2.62c0.218,0,0.446-0.007,0.675-0.011
			c-0.883-4.724-0.035-20.51,0.075-22.459L30.648,22.315z"/>
		<path fill="#FFFFFF" d="M31.216,20.805c0.09,0.072,0.143,0.181,0.142,0.296L31.35,22.07l0.89,1.864l0.688-1.83l-0.092-0.97
			c-0.012-0.127,0.041-0.249,0.139-0.329l0.605-0.482l2.302-2.797c-1.315-0.446-2.641-0.682-3.947-0.682
			c-1.832,0-3.126,0.441-3.665,0.662l2.34,2.815L31.216,20.805z"/>
		<path fill="#FFFFFF" d="M35.663,23.509l1.299-4.496c0.013-0.041,0.033-0.074,0.058-0.107l-0.552-0.93l-2.194,2.668L35.663,23.509z
			"/>
		<polygon fill="#FFFFFF" points="29.931,20.663 27.737,18.021 27.315,19.06 28.972,23.23 		"/>
		<path fill="#FFFFFF" d="M48.991,43.936l-0.604-1.955l-4.349,0.99c0.31,0.859,0.639,1.826,0.642,1.826
			c0.057,0.172,0.23,0.275,0.409,0.245l3.614-0.63c0.104-0.02,0.195-0.082,0.25-0.173C49.012,44.146,49.023,44.036,48.991,43.936z"
			/>
		<path fill="#FFFFFF" d="M42.802,21.723c-0.03-0.114-0.114-0.208-0.227-0.249l-5.013-1.883l-1.459,5.046
			c-0.043,0.146-0.17,0.254-0.322,0.267c-0.01,0-0.021,0.001-0.031,0.001c-0.139,0-0.266-0.079-0.33-0.209l-1.713-3.527
			l-0.122,0.098l0.081,0.853c0.006,0.057-0.001,0.113-0.021,0.167L32.663,24.9c-0.058,1.041-0.993,18.03-0.067,22.52
			c1.648-0.068,6.938-0.447,8.534-2.516c0.054-0.066,0.082-0.153,0.077-0.241l-0.469-11.854l3.022,9.471
			c0.011-0.004,0.019-0.012,0.029-0.016l4.385-0.996L42.802,21.723z M33.212,41.966c-0.267,0-0.483-0.22-0.483-0.487
			c0-0.269,0.217-0.487,0.483-0.487s0.481,0.22,0.481,0.487S33.479,41.966,33.212,41.966z M33.259,37.782
			c-0.266,0-0.483-0.22-0.483-0.487s0.218-0.486,0.483-0.486c0.265,0,0.481,0.219,0.481,0.486S33.523,37.782,33.259,37.782z
			 M33.303,33.43c-0.266,0-0.48-0.218-0.48-0.484c0-0.271,0.216-0.488,0.48-0.488c0.266,0,0.483,0.219,0.483,0.488
			C33.786,33.212,33.568,33.43,33.303,33.43z M33.464,29.248c-0.267,0-0.483-0.22-0.483-0.487c0-0.27,0.217-0.488,0.483-0.488
			s0.481,0.219,0.481,0.488C33.945,29.028,33.73,29.248,33.464,29.248z M33.691,25.342c-0.266,0-0.482-0.219-0.482-0.487
			s0.217-0.487,0.482-0.487c0.267,0,0.482,0.219,0.482,0.487S33.958,25.342,33.691,25.342z"/>
	</g>
</g>
</svg>
