<?xml version="1.0" encoding="utf-8"?>
<!-- Generator: Adobe Illustrator 16.0.0, SVG Export Plug-In . SVG Version: 6.00 Build 0)  -->
<!DOCTYPE svg PUBLIC "-//W3C//DTD SVG 1.1//EN" "http://www.w3.org/Graphics/SVG/1.1/DTD/svg11.dtd">
<svg version="1.1" id="Layer_1" xmlns="http://www.w3.org/2000/svg" xmlns:xlink="http://www.w3.org/1999/xlink" x="0px" y="0px"
	 width="64px" height="64px" viewBox="0 0 64 64" enable-background="new 0 0 64 64" xml:space="preserve">
<g id="Woman_x2019_s_Dress">
	<rect x="0.771" y="0.269" fill="#69B76B" width="63.514" height="64.157"/>
	<polygon fill="#4B9B4A" points="64.285,64.426 34.184,64.426 20.28,46.484 21.454,41.1 21.911,40.346 23.694,37.355 24.197,36.725 
		26.059,31.729 26.54,31.165 28.228,27.62 27.484,16.969 29.119,15.563 33.873,21.668 38.613,16.143 64.285,48.068 	"/>
	<g>
		<path fill="#FFFFFF" d="M26.833,21.322c-0.011,0.071-0.002,0.145,0.026,0.21c0.002,0.006,0.29,0.68,0.51,2.425l0.408,2.74
			c-0.07,0.221-0.226,0.805-0.269,1.706l-0.967,2.762c0.046,0.03,0.087,0.07,0.116,0.121c0.018,0.032,1.738,3.03,3.218,2.284
			c1.037-0.522,1.652-0.104,2.146,0.234c0.521,0.354,0.932,0.635,1.969-0.035c1.083-0.699,1.886-0.6,2.533-0.518
			c0.812,0.102,1.345,0.166,2.324-1.394c0.041-0.066,0.104-0.107,0.168-0.137l-1.529-3.592c0.02-0.155,0.009-0.39-0.157-0.64
			c-0.067-0.464-0.104-0.945-0.074-1.079l0.568-3.269c0.151-0.544,0.375-1.21,0.415-1.287c0.123-0.089,0.184-0.246,0.146-0.395
			c-0.006-0.028-0.66-2.836,0.229-5.031c0.059-0.143,0.023-0.304-0.086-0.411l-0.368-0.351c-0.052-0.052-0.117-0.085-0.188-0.099
			l-1.859-0.335c-0.119-0.02-0.242,0.02-0.328,0.107c-0.085,0.087-0.121,0.213-0.098,0.335c0.03,0.145,0.101,0.628,0.035,0.935
			c-0.092,0.507-0.25,1.045-0.337,1.151c-0.038,0.044-0.082,0.11-0.135,0.189c-0.229,0.357-0.705,1.101-2.601,1.147l-0.106,0.001
			c-1.814,0-2.517-1.133-2.569-1.217c-0.007-0.009-0.711-0.951-0.854-2.322c-0.013-0.11-0.071-0.209-0.163-0.27
			c-0.092-0.063-0.205-0.08-0.309-0.048l-1.231,0.376c-0.057-0.01-0.128-0.02-0.208-0.02c-0.353,0-0.663,0.169-0.875,0.478
			c-0.101,0.149-0.076,0.357,0.054,0.484C26.397,16.573,27.413,17.617,26.833,21.322z"/>
		<path fill="#FFFFFF" d="M23.271,42.18c0.019,0.014,0.038,0.032,0.053,0.051c0.004,0.002,0.592,0.625,2.117,0.625
			c1.087,0,1.383,0.115,1.812,0.314c0.225,0.104,0.477,0.223,1.022,0.354c0.935,0.221,1.63,0.146,2.369,0.067
			c0.359-0.038,0.729-0.079,1.122-0.079c0.348,0,0.542,0.023,0.707,0.045c0.339,0.041,0.529,0.063,2.268-0.301
			c0.995-0.209,1.501-0.27,1.87-0.313c0.539-0.063,0.701-0.084,1.787-0.547c0.854-0.364,2.012-0.301,3.031-0.24
			c0.723,0.042,1.596,0.09,1.926-0.098c0.043-0.138,0.069-0.291,0.071-0.459c0.039-2.447-1.272-4.058-1.795-4.602
			c-0.317,0.34-0.844,0.736-0.85,0.74c-0.654,0.466-1.281,0.517-1.888,0.568c-0.486,0.039-0.992,0.082-1.578,0.329
			c-0.86,0.369-1.049,0.402-1.52,0.46c-0.266,0.032-0.627,0.074-1.349,0.225c-1.355,0.285-1.568,0.277-1.915,0.234
			c-0.104-0.012-0.229-0.027-0.453-0.027c-0.266,0-0.518,0.027-0.775,0.057c-0.28,0.029-0.578,0.063-0.907,0.063
			c-0.327,0-0.686-0.031-1.087-0.129c-0.493-0.115-0.685-0.225-0.853-0.332c-0.096-0.063-0.162-0.104-0.81-0.104
			c-1.273,0-2.119-0.532-2.303-0.658l-0.141-0.063c-0.554-0.254-1.209-0.56-1.512-1.002c-0.641,0.65-1.559,1.781-1.783,2.988
			C22.067,40.829,22.769,41.794,23.271,42.18z"/>
		<path fill="#FFFFFF" d="M43.809,42.643c-0.514,0.358-1.408,0.313-2.42,0.256c-0.938-0.053-2.006-0.113-2.703,0.186
			c-1.184,0.503-1.401,0.53-1.99,0.6c-0.354,0.041-0.838,0.101-1.805,0.301c-1.781,0.375-2.056,0.365-2.504,0.311
			c-0.145-0.02-0.314-0.038-0.619-0.038c-0.353,0-0.688,0.037-1.044,0.074c-0.383,0.042-0.773,0.085-1.2,0.085
			c-0.426,0-0.888-0.043-1.416-0.169c-0.618-0.146-0.92-0.288-1.164-0.401c-0.326-0.152-0.524-0.242-1.502-0.242
			c-1.699,0-2.477-0.685-2.639-0.849c-0.391-0.31-0.985-1.001-1.348-1.653c-0.604,0.817-2.059,3.004-1.641,4.616
			c0.174,0.673,0.633,1.164,1.365,1.464c0.161,0.123,0.656,0.438,1.584,0.584c0.33,0.053,0.773,0.088,1.245,0.125
			c0.618,0.049,1.735,0.137,2.009,0.248v0.237c0,0.185,0.134,0.341,0.315,0.367c0.05,0.008,1.214,0.175,2.205,0.175
			c0.596,0,1-0.061,1.259-0.186c0.099-0.015,0.319-0.043,0.567-0.043c0.252,0,0.466,0.028,0.622,0.082v0.203
			c0,0.188,0.139,0.348,0.325,0.369c0.042,0.004,1.051,0.122,1.975,0.122c0.708,0,1.382-0.052,1.659-0.381
			c0.35-0.078,0.973-0.199,1.297-0.203c0.053,0.021,0.113,0.027,0.17,0.024l3.199-0.313c0.147-0.016,0.27-0.116,0.313-0.25
			l4.545-0.903c0.051-0.01,0.1-0.031,0.141-0.063c0.414-0.299,0.648-0.71,0.701-1.22C45.426,44.98,44.477,43.52,43.809,42.643z"/>
		<path fill="#FFFFFF" d="M24.26,36.867c0.056,0.269,0.892,0.648,1.249,0.813l0.175,0.081c0.024,0.013,0.046,0.024,0.066,0.04
			c0.006,0.004,0.74,0.537,1.9,0.537c0.786,0,0.965,0.063,1.208,0.223c0.096,0.061,0.213,0.139,0.623,0.235
			c0.688,0.162,1.203,0.108,1.749,0.05c0.284-0.031,0.561-0.06,0.854-0.06c0.267,0,0.415,0.017,0.541,0.03
			c0.238,0.029,0.382,0.049,1.678-0.224c0.752-0.157,1.135-0.2,1.412-0.235c0.395-0.047,0.516-0.062,1.318-0.403
			c0.695-0.296,1.283-0.345,1.805-0.388c0.576-0.049,1.033-0.086,1.521-0.436c0.224-0.158,0.752-0.619,0.832-0.747
			c0.076-0.118,0.209-0.183,0.341-0.178c-0.038-1.448-1.444-3.147-2.111-3.875c-1.204,1.875-2.108,1.771-2.985,1.659
			c-0.61-0.077-1.188-0.149-2.047,0.404c-0.604,0.392-1.086,0.529-1.484,0.529c-0.553,0-0.947-0.27-1.292-0.504
			c-0.454-0.311-0.755-0.516-1.406-0.188c-1.985,1.006-3.832-1.972-4.144-2.505c-0.438,0.646-2.041,3.154-1.862,4.994
			C24.226,36.766,24.249,36.813,24.26,36.867z"/>
	</g>
</g>
</svg>
