<?xml version="1.0" encoding="utf-8"?>
<!-- Generator: Adobe Illustrator 16.0.0, SVG Export Plug-In . SVG Version: 6.00 Build 0)  -->
<!DOCTYPE svg PUBLIC "-//W3C//DTD SVG 1.1//EN" "http://www.w3.org/Graphics/SVG/1.1/DTD/svg11.dtd">
<svg version="1.1" id="Layer_1" xmlns="http://www.w3.org/2000/svg" xmlns:xlink="http://www.w3.org/1999/xlink" x="0px" y="0px"
	 width="64px" height="64px" viewBox="0 0 64 64" enable-background="new 0 0 64 64" xml:space="preserve">
<g id="Woman_x2019_s_Formal_Coat_x2F_Blazer">
	<rect x="0.566" y="0.067" fill="#77594A" width="63.514" height="64.158"/>
	<polygon fill="#634739" points="64.08,64.227 33.09,64.227 14.951,41.958 23.34,21.791 28.904,19.864 29.24,19.525 29.787,19.087 
		35.445,19.155 35.932,19.518 36.217,19.805 37.15,20.208 41.844,21.791 64.08,49.658 	"/>
	<g>
		<path fill="#FFFFFF" d="M29.787,19.087l2.482,14.784l3.176-14.716C31.238,18.104,29.787,19.087,29.787,19.087z"/>
		<path fill="#FFFFFF" d="M37.047,27.455l-0.604-0.561c-0.086-0.081-0.131-0.196-0.121-0.313c0.012-0.118,0.076-0.225,0.174-0.289
			l1.582-1.014l-1.861-5.475l-0.285-0.287L33.436,31.41C34.709,29.588,36.348,28.066,37.047,27.455z"/>
		<path fill="#FFFFFF" d="M28.26,26.293c0.098,0.064,0.16,0.171,0.172,0.289c0.012,0.117-0.033,0.231-0.119,0.313l-0.621,0.578
			c0.684,0.666,2.375,2.406,3.633,4.405L29.24,19.525l-0.336,0.339c-0.002,0.011-0.002,0.021-0.006,0.036l-2.205,5.388L28.26,26.293
			z"/>
		<path fill="#FFFFFF" d="M45.133,43.922l4.563-1.958l-7.852-20.173l-4.693-1.583l1.738,5.107c0.055,0.166-0.008,0.35-0.156,0.445
			l-1.42,0.91l0.558,0.518c0.08,0.076,0.125,0.181,0.121,0.291c-0.005,0.111-0.056,0.215-0.14,0.284
			c-0.039,0.031-3.678,3.051-4.932,6.101l-0.291,1.396l-0.113,9.197l0.01,0.07c0,0-0.136,1.106,0.732,1.096l1.236-0.094l5.879-0.471
			c-0.287-8.338-0.27-13.649-0.27-13.649L45.133,43.922z M45.49,42.082c0.215,0,0.389,0.177,0.389,0.395
			c0,0.221-0.174,0.397-0.389,0.397c-0.217,0-0.393-0.179-0.393-0.397C45.098,42.259,45.273,42.082,45.49,42.082z M33.436,40.305
			c-0.217,0-0.391-0.179-0.391-0.396c0-0.218,0.174-0.396,0.391-0.396s0.394,0.178,0.394,0.396S33.652,40.305,33.436,40.305z
			 M33.436,35.741c-0.217,0-0.391-0.177-0.391-0.396c0-0.218,0.174-0.395,0.391-0.395s0.394,0.177,0.394,0.395
			C33.828,35.564,33.652,35.741,33.436,35.741z"/>
		<path fill="#FFFFFF" d="M26.885,27.749c-0.076-0.072-0.123-0.174-0.123-0.28c0-0.106,0.047-0.208,0.123-0.28l0.557-0.518
			l-1.42-0.91c-0.154-0.101-0.217-0.296-0.146-0.467l2.072-5.058l-4.607,1.555l-8.389,20.167l4.473,1.937L24.64,31.47
			c0,0-0.127,5.611,0.117,13.926l5.926,0.229c0,0,0.785,0.014,1.07-0.62l0.008-0.139l0.123-9.683l-0.133-0.793
			C30.609,31.219,26.924,27.786,26.885,27.749z M19.084,42.721c-0.217,0-0.393-0.177-0.393-0.396c0-0.218,0.176-0.396,0.393-0.396
			s0.391,0.178,0.391,0.396C19.475,42.544,19.301,42.721,19.084,42.721z"/>
	</g>
</g>
</svg>
