<?xml version="1.0" encoding="utf-8"?>
<!-- Generator: Adobe Illustrator 16.0.0, SVG Export Plug-In . SVG Version: 6.00 Build 0)  -->
<!DOCTYPE svg PUBLIC "-//W3C//DTD SVG 1.1//EN" "http://www.w3.org/Graphics/SVG/1.1/DTD/svg11.dtd">
<svg version="1.1" id="Layer_1" xmlns="http://www.w3.org/2000/svg" xmlns:xlink="http://www.w3.org/1999/xlink" x="0px" y="0px"
	 width="64px" height="64px" viewBox="0 0 64 64" enable-background="new 0 0 64 64" xml:space="preserve">
<g id="Woman_x2019_s_Top">
	<rect x="0.631" y="0.047" fill="#FFCA1C" width="63.514" height="64.157"/>
	<path fill="#EBB21F" d="M38.637,14.7l25.508,32.575v16.929H32.801L20.68,48.643l0.512-3.561l0.016-0.775l2.994-12.995l0.084-1.26
		l1.754-7.87c0,0-0.992-9.021,1.688-6.837l7.493,9.97l0.932-2.506l0.619-6.704C36.77,16.104,37.094,13.838,38.637,14.7z"/>
	<g>
		<path fill="#FFFFFF" d="M44.467,47.578l-1.033-2.813c-0.346,0.194-0.895,0.494-1.678,0.899c-0.818,0.425-1.771,0.394-2.779,0.354
			c-0.885-0.029-1.797-0.062-2.729,0.192c-0.725,0.198-1.371,0.267-1.91,0.267c-0.947,0-1.568-0.209-1.727-0.267
			c-0.252-0.053-0.51-0.162-0.779-0.276c-0.713-0.302-1.6-0.679-2.932-0.225c-2.514,0.859-6.496-0.252-7.709-0.63
			c-0.086,0.575-0.324,1.892-0.863,2.899c-0.066,0.129-0.055,0.287,0.033,0.402c0.074,0.098,0.504,0.576,1.809,0.576
			c0.33,0,0.693-0.029,1.084-0.093c0.199-0.032,0.402-0.048,0.602-0.048c0.686,0,1.268,0.186,1.83,0.363
			c0.758,0.241,1.512,0.432,2.223,0.213c1.113-0.347,1.082-0.278,1.867-0.11c0.268,0.058,0.605,0.131,1.061,0.211
			c0.338,0.062,0.602,0.11,0.813,0.153c0.428,0.086,0.686,0.137,0.973,0.137c0.348,0,0.703-0.073,1.484-0.232l0.289-0.06
			c0.85-0.175,1.535-0.246,2.289-0.246c0.321,0,0.633,0.014,0.953,0.024c0.362,0.017,0.743,0.031,1.178,0.031
			c1.621,0,2.451-0.025,3.598-0.604c0.996-0.501,1.758-0.624,1.764-0.626c0.109-0.017,0.207-0.082,0.264-0.179
			C44.494,47.8,44.506,47.684,44.467,47.578z"/>
		<g>
			<path fill="#FFFFFF" d="M24.285,30.052c0.061,0.045,0.113,0.103,0.139,0.18c0.031,0.087,0.756,2.1,4.215,2.547
				c0,0,0.01,0,0.012,0c0.303,0.02,1.127,0.029,1.965-0.309c0.115-0.035,1.993-0.574,3.303,0.071
				c0.888,0.314,1.742,0.246,1.883,0.23c3.445-0.461,4.154-3.001,4.16-3.026c0.026-0.101,0.093-0.181,0.172-0.227
				c0.084-0.976,0.431-2.153,1.412-3.236c0.127-0.141,0.131-0.355,0.006-0.499c-0.022-0.026-2.313-2.661-2.817-4.091
				c-0.029-0.092-0.101-0.16-0.183-0.201c0.369-2.037,0.941-5.938,0.087-6.791c-0.195-0.197-0.455-0.274-0.732-0.216
				c-1.781,0.371-2.119,2.773-2.232,8.373l-0.666,0.36c-0.104,0.055-0.174,0.17-0.193,0.285c-0.002,0.01-0.168,0.897-2.326,1.168
				c-0.02,0-2.068-0.084-2.283-1.106c-0.025-0.114-0.1-0.21-0.203-0.26l-1.252-0.599c-0.115-5.487-0.463-7.854-2.229-8.222
				c-0.277-0.057-0.537,0.019-0.734,0.216c-0.852,0.854-0.283,4.745,0.086,6.783c-0.01,0.004-0.021,0.004-0.031,0.01
				c-0.104,0.059-0.174,0.166-0.186,0.285c-0.004,0.032-0.359,3.315-2.547,3.892c-0.129,0.034-0.229,0.136-0.264,0.267
				c-0.033,0.13,0.008,0.269,0.102,0.362C23.01,26.36,24.246,27.603,24.285,30.052z M38.006,15.454
				c0.283,0.596,0.08,3.376-0.473,6.271c-0.01,0.043-0.004,0.086,0,0.131l-0.891,0.48C36.762,17.56,37.119,15.749,38.006,15.454z
				 M26.418,15.454c0.881,0.293,1.24,2.083,1.361,6.791l-0.889-0.427c0-0.03,0.008-0.061,0-0.093
				C26.34,18.83,26.133,16.05,26.418,15.454z"/>
			<path fill="#FFFFFF" d="M40.338,31.635c-0.01-0.034-0.088-0.279-0.15-0.66c-0.582,0.926-1.807,2.179-4.221,2.525
				c-0.016,0.003-0.029,0.012-0.045,0.014c-0.012,0.002-0.119,0.014-0.281,0.02c-0.067,0.004-0.146,0.007-0.242,0.007
				c-0.422,0-1.082-0.05-1.776-0.299c-0.026-0.011-0.049-0.028-0.072-0.044c-0.896-0.389-2.119-0.156-2.541-0.057
				c-0.02,0.012-0.035,0.027-0.057,0.037c-0.75,0.303-1.484,0.361-1.939,0.361c-0.031,0-0.057-0.001-0.084-0.001
				c-0.004,0-0.012,0-0.016,0c-0.283,0-0.465-0.022-0.484-0.024c-0.031-0.004-0.057-0.018-0.084-0.029
				c-2.367-0.354-3.568-1.409-4.143-2.172c-0.02,0.143-0.037,0.284-0.066,0.433c-0.125,0.374-2.963,8.831-2.928,12.562
				c0.799,0.258,5.016,1.532,7.457,0.701c1.598-0.544,2.67-0.09,3.453,0.243c0.256,0.11,0.479,0.203,0.664,0.239
				c0.026,0.005,0.049,0.011,0.071,0.021c0.013,0.004,1.291,0.506,3.201-0.015c1.037-0.286,2.051-0.249,2.947-0.22
				c0.947,0.037,1.77,0.063,2.418-0.271c1.053-0.545,1.701-0.912,1.951-1.055C43.359,42.381,43.035,38.186,40.338,31.635z"/>
		</g>
	</g>
</g>
</svg>
