<?xml version="1.0" encoding="utf-8"?>
<!-- Generator: Adobe Illustrator 16.0.0, SVG Export Plug-In . SVG Version: 6.00 Build 0)  -->
<!DOCTYPE svg PUBLIC "-//W3C//DTD SVG 1.1//EN" "http://www.w3.org/Graphics/SVG/1.1/DTD/svg11.dtd">
<svg version="1.1" id="Layer_1" xmlns="http://www.w3.org/2000/svg" xmlns:xlink="http://www.w3.org/1999/xlink" x="0px" y="0px"
	 width="64px" height="64px" viewBox="0 0 64 64" enable-background="new 0 0 64 64" xml:space="preserve">
<g id="Woman_x2019_s_Coat">
	<rect x="0.353" y="0.057" fill="#444444" width="63.515" height="64.157"/>
	<polygon fill="#30302F" points="63.867,64.214 35.999,64.214 16.665,38.712 23.903,27.952 24.648,26.949 25.971,27.408 
		24.731,24.777 25.992,22.334 27.498,19.995 28.531,19.69 29.259,18.974 29.791,19.616 31.926,21.436 34.456,19.558 35.212,18.974 
		35.793,19.561 36.889,19.982 42.482,21.689 63.867,48.834 	"/>
	<g>
		<path fill="#FFFFFF" d="M34.456,19.558c0,0-2.276,1.699-4.665,0.059c0,0-0.493,8.598,2.529,11.493
			C32.32,31.109,34.959,25.333,34.456,19.558z"/>
		<path fill="#FFFFFF" d="M29.259,18.974l-0.704,0.709l-0.025,0.008c-1.695,2.699-1.373,4.501-1.37,4.52
			c0.038,0.198-0.086,0.393-0.279,0.436l-0.7,0.162c0.484,1.296,2.287,5.555,5.762,7.925c0.066-0.396,0.113-0.623,0.113-0.623
			C28.285,27.492,29.259,18.974,29.259,18.974z"/>
		<path fill="#FFFFFF" d="M31.676,33.453c-4.432-2.92-6.255-8.563-6.331-8.802c-0.031-0.1-0.02-0.206,0.03-0.297
			c0.052-0.09,0.138-0.155,0.239-0.179l0.785-0.18c-0.031-0.64,0.056-2.075,1.098-4.001l-5.761,1.694l-6.331,15.429
			c0,0,1.104,2.757,4.156,2.26L23.8,28.399c0,0,2.268,5.028-0.923,13.643c0,0,4.866,3.591,8.157,3.115l0.212-0.058
			c0,0,0.621-0.586,0.449-1.897c-0.521-4.002-0.152-7.759,0.127-9.705C31.773,33.491,31.721,33.482,31.676,33.453z"/>
		<path fill="#FFFFFF" d="M32.721,32.32c-0.004,0.007-0.006,0.017-0.009,0.026c2.929-2.396,4.787-6.293,5.332-7.544l-0.676-0.157
			c-0.099-0.021-0.185-0.083-0.235-0.172c-0.051-0.086-0.064-0.193-0.037-0.293c0.006-0.013,0.469-1.852-1.293-4.594
			c-0.005-0.01-0.005-0.019-0.009-0.026l-0.582-0.587C35.764,25.013,32.721,32.32,32.721,32.32z"/>
		<path fill="#FFFFFF" d="M42.482,21.689l-5.594-1.707c1.027,1.922,1.051,3.362,0.981,4.019l0.767,0.175
			c0.104,0.025,0.192,0.093,0.243,0.189c0.05,0.096,0.056,0.207,0.017,0.308c-0.092,0.241-2.316,5.904-6.403,8.774
			c-0.012,0.009-0.028,0.006-0.041,0.013c-0.501,2.793-0.383,6.979-0.383,6.979c0.004,4.465,1.373,4.809,1.373,4.809
			c2.734,0.482,7.512-2.879,7.512-2.879c-2.602-7.227-0.359-13.411-0.359-13.411l4.315,10.42c2.866,0.039,3.905-2.26,3.905-2.26
			L42.482,21.689z M32.833,39.34c-0.288,0-0.521-0.234-0.521-0.525s0.233-0.524,0.521-0.524s0.522,0.233,0.522,0.524
			C33.354,39.104,33.12,39.34,32.833,39.34z M33.166,34.646c-0.288,0-0.521-0.235-0.521-0.526c0-0.29,0.233-0.526,0.521-0.526
			s0.521,0.236,0.521,0.526C33.688,34.411,33.454,34.646,33.166,34.646z"/>
	</g>
</g>
</svg>
