<?xml version="1.0" encoding="utf-8"?>
<!-- Generator: Adobe Illustrator 16.0.0, SVG Export Plug-In . SVG Version: 6.00 Build 0)  -->
<!DOCTYPE svg PUBLIC "-//W3C//DTD SVG 1.1//EN" "http://www.w3.org/Graphics/SVG/1.1/DTD/svg11.dtd">
<svg version="1.1" id="Layer_1" xmlns="http://www.w3.org/2000/svg" xmlns:xlink="http://www.w3.org/1999/xlink" x="0px" y="0px"
	 width="64px" height="64px" viewBox="0 0 64 64" enable-background="new 0 0 64 64" xml:space="preserve">
<g id="Woman_x2019_s_Collared_T-shirt">
	<rect x="0.486" y="0.269" fill="#53A1D8" width="63.516" height="64.157"/>
	<polygon fill="#3B85B2" points="64.002,64.426 35.994,64.426 23.156,47.538 25.006,38.208 25.213,36.119 19.186,27.113 
		21.607,22.176 27.115,20.061 26.633,17.111 27.236,16.401 29.561,18.994 31.721,19.15 33.689,19.245 35.674,18.395 37.35,16.65 
		38.111,17.198 43.023,18.479 64.002,44.65 	"/>
	<g>
		<rect x="32.613" y="19.962" fill="#FFFFFF" width="0.531" height="6.146"/>
		<path fill="#FFFFFF" d="M35.273,21.086c2.518-1.437,2.094-4.222,2.072-4.346c-0.005-0.031,0.002-0.061,0.004-0.09l-0.603-0.506
			c-0.106-0.089-0.252-0.11-0.381-0.056c-0.128,0.055-0.214,0.177-0.224,0.315c-0.02,0.268-0.113,1.055-0.324,1.481
			c-0.225,0.45-1.1,1.039-2.35,1.326c0.369,0.033,0.697,0.157,0.977,0.386C34.945,20.006,35.17,20.636,35.273,21.086z"/>
		<path fill="#FFFFFF" d="M30.107,21.1c0.113-0.493,0.369-1.227,0.916-1.628c0.252-0.185,0.547-0.277,0.863-0.282
			c-0.922-0.189-1.797-0.596-2.086-0.847c-0.332-0.289-1.098-1.657-1.502-2.452c-0.057-0.113-0.17-0.189-0.295-0.2
			c-0.121-0.007-0.248,0.043-0.324,0.144c-0.004,0.005-0.205,0.269-0.443,0.567C27.311,16.841,27.914,19.882,30.107,21.1z"/>
		<path fill="#FFFFFF" d="M41.352,28.509c0.021,0.008,0.047,0.014,0.072,0.019c1.508,0.239,3.359-0.384,3.852-0.989
			c0.16-0.195,0.168-0.372,0.146-0.486c-0.068-0.344-1.457-6.546-1.758-7.758c-0.342-1.39-2.236-1.907-3.35-1.907
			c-0.703,0-1.748-0.128-2.203-0.188c0.014,1.121-0.285,3.578-2.978,4.787c-0.049,0.021-0.098,0.033-0.147,0.033
			c-0.066,0-0.133-0.021-0.193-0.056c-0.102-0.063-0.168-0.175-0.176-0.296c0-0.01-0.064-1.025-0.637-1.493
			c-0.031-0.027-0.066-0.044-0.101-0.065v6.372c0,0.205-0.164,0.372-0.366,0.372h-1.271c-0.203,0-0.367-0.167-0.367-0.372v-6.541
			c-0.154,0.009-0.299,0.043-0.422,0.135c-0.488,0.358-0.674,1.28-0.703,1.606c-0.01,0.117-0.074,0.222-0.176,0.283
			C30.518,22,30.45,22.02,30.386,22.02c-0.047,0-0.096-0.01-0.141-0.029c-2.395-0.981-3.309-3.637-3.613-4.878
			c-0.004,0.004-0.012,0.01-0.014,0.015c-0.174,0.174-0.463,0.198-0.953,0.226c-0.162,0.009-0.332,0.019-0.51,0.038
			c-0.807,0.081-1.742,0.411-2.631,0.932c-0.979,0.579-1.527,1.166-1.771,1.903c-0.014,0.04-1.369,4.261-1.693,6.556
			c-0.018,0.125,0.029,0.251,0.125,0.333c0.557,0.481,1.629,0.727,3.182,0.727c0.604,0,1.066-0.038,1.164-0.047
			c-0.086,0.809-0.109,2.551,0.955,3.958c0.01,0.016,0.977,1.703,0.43,3.249c-0.102,0.282-0.254,0.623-0.434,1.022
			c-0.896,2-2.566,5.72-1.547,11.24c0.021,0.123,0.105,0.228,0.221,0.274c0.141,0.06,3.559,1.467,9.094,1.467
			c3.193,0,6.438-0.474,9.648-1.407c0.141-0.043,0.242-0.162,0.262-0.311c0.947-7.354-1.604-11.45-1.689-11.58
			c-0.344-0.723-1.096-2.794-0.445-3.711c1.222-1.73,1.148-3.508,1.144-3.539c0-0.005,0.002-0.012,0.002-0.018L41.352,28.509z"/>
	</g>
</g>
</svg>
