<?xml version="1.0" encoding="utf-8"?>
<!-- Generator: Adobe Illustrator 16.0.0, SVG Export Plug-In . SVG Version: 6.00 Build 0)  -->
<!DOCTYPE svg PUBLIC "-//W3C//DTD SVG 1.1//EN" "http://www.w3.org/Graphics/SVG/1.1/DTD/svg11.dtd">
<svg version="1.1" id="Layer_1" xmlns="http://www.w3.org/2000/svg" xmlns:xlink="http://www.w3.org/1999/xlink" x="0px" y="0px"
	 width="64px" height="64px" viewBox="0 0 64 64" enable-background="new 0 0 64 64" xml:space="preserve">
<g id="Woman_x2019_s_Jeans">
	<rect x="0.353" y="0.053" fill="#F0592F" width="63.515" height="64.157"/>
	<polygon fill="#DC4726" points="63.867,64.21 36.5,64.21 23.832,47.546 26.136,32.116 25.491,22.736 25.564,21.985 26.028,20.421 
		26.415,18.394 26.799,17.624 31.571,17.399 32.306,17.399 37.137,15.826 63.867,49.333 	"/>
	<g>
		<path fill="#FFFFFF" d="M37.661,17.564c-0.068-0.151-0.132-0.302-0.207-0.447l-0.317-1.291c0,0-1.173,1.243-4.833,1.556
			c0,0.006,0.002,0.012,0.002,0.018v1.999c0.003,0.029,0.011,0.101,0.022,0.206C34.193,19.27,36.979,18.486,37.661,17.564z
			 M33.254,19.033c-0.203,0-0.417-0.217-0.417-0.422c0-0.206,0.214-0.421,0.417-0.421c0.204,0,0.418,0.215,0.418,0.421
			C33.673,18.816,33.458,19.033,33.254,19.033z"/>
		<path fill="#FFFFFF" d="M36.012,19.445c0.004,0.021,0.442,1.952,1.496,2.506c0.354,0.187,0.736,0.19,1.172,0.009
			c0.032-0.014,0.067-0.017,0.103-0.021c-0.119-1.174-0.366-2.425-0.813-3.629c-0.475,0.431-1.197,0.794-1.979,1.088
			C35.996,19.415,36.006,19.429,36.012,19.445z"/>
		<path fill="#FFFFFF" d="M32.395,20.349c0.08,0.941,0.186,2.405,0.199,3.685c0.217-0.057,0.396-0.166,0.532-0.34
			c0.647-0.823,0.386-2.77,0.229-3.449c-0.006-0.029-0.004-0.059-0.002-0.087C32.95,20.246,32.618,20.31,32.395,20.349z"/>
		<path fill="#FFFFFF" d="M38.965,32.723c0,0-0.613-2.602-0.333-5.541c0,0,0.364-1.982,0.209-4.496
			c-0.263,0.096-0.521,0.152-0.771,0.152c-0.314,0-0.617-0.075-0.904-0.228c-1.293-0.682-1.805-2.701-1.868-2.972
			c-0.432,0.139-0.862,0.259-1.262,0.358c0.013,0.025,0.028,0.05,0.036,0.08c0.025,0.114,0.628,2.809-0.37,4.079
			c-0.281,0.356-0.657,0.563-1.111,0.631c-0.012,0.454-0.039,0.859-0.094,1.167c-0.012,0.077-0.052,0.14-0.103,0.194
			c0.467,1.371,1.449,4.577,1.87,8.382c0,0,1.063,4.016,1.176,7.182c0,0-0.056,5.823,1.008,6.561c0,0,2.021,0.707,4.143-0.793
			C40.591,47.479,40.87,37.305,38.965,32.723z"/>
		<path fill="#FFFFFF" d="M29.058,19.886c-0.126,0.435-0.681,2.109-1.902,2.733c-0.309,0.158-0.634,0.236-0.973,0.236
			c-0.224,0-0.456-0.048-0.692-0.119c-0.102,1.237-0.132,2.713-0.033,4.502c0,0,0.47,3.845-0.064,5.504c0,0-0.617,1.449-0.673,3.654
			c0,0-0.785,2.687-0.699,4.58c0,0-0.562,2.601-0.366,6.418c0,0,1.253,1.336,4.339,0.877c0,0,0.153-0.355,0.215-1.408
			c0,0,0.129-0.766,0.458-5.717l1.063-6.22c0,0,1.562-6.152,2.059-9.242c0.175-1.249-0.014-3.927-0.135-5.332
			C30.605,20.249,29.748,20.084,29.058,19.886z"/>
		<path fill="#FFFFFF" d="M31.571,19.599V17.4c0-0.01,0.004-0.018,0.005-0.027c-0.945-0.078-2.918-0.379-3.992-1.546l-0.487,1.387
			c0,0-0.121,0.121-0.299,0.411c0.009,0.019,0.023,0.034,0.03,0.054C26.846,17.723,27.452,19.15,31.571,19.599z"/>
		<path fill="#FFFFFF" d="M26.825,21.954c0.869-0.442,1.385-1.762,1.532-2.299c-1.098-0.414-1.656-0.9-1.943-1.262
			c-0.313,0.741-0.653,1.891-0.85,3.592C26.029,22.155,26.441,22.149,26.825,21.954z"/>
	</g>
</g>
</svg>
