<?xml version="1.0" encoding="utf-8"?>
<!-- Generator: Adobe Illustrator 16.0.0, SVG Export Plug-In . SVG Version: 6.00 Build 0)  -->
<!DOCTYPE svg PUBLIC "-//W3C//DTD SVG 1.1//EN" "http://www.w3.org/Graphics/SVG/1.1/DTD/svg11.dtd">
<svg version="1.1" id="Layer_1" xmlns="http://www.w3.org/2000/svg" xmlns:xlink="http://www.w3.org/1999/xlink" x="0px" y="0px"
	 width="64px" height="64px" viewBox="0 0 64 64" enable-background="new 0 0 64 64" xml:space="preserve">
<g id="Woman_x2019_s_Sweater">
	<rect x="0.771" y="0.057" fill="#F79420" width="63.514" height="64.157"/>
	<polygon fill="#E48025" points="37.535,18.366 38.07,19.316 41.475,20.464 64.285,49.336 64.285,64.214 28.974,64.214 
		16.217,47.386 17.46,45.021 17.348,44.289 26.536,19.483 26.904,18.366 	"/>
	<g>
		<path fill="#FFFFFF" d="M27.833,19.423c0.033,0.008,0.069,0.008,0.106,0.007c0.027-0.003,2.78-0.292,5.321-0.292
			c1.475,0,2.586,0.096,3.301,0.283c0.025,0.007,0.053,0.01,0.078,0.01h0.008c0.197-0.004,0.584-0.106,0.775-0.467
			c0.254-0.476,0.084-1.176-0.518-2.136L36.639,16.4c-0.031-0.056-0.082-0.101-0.144-0.124c-1.108-0.466-2.479-0.699-4.072-0.699
			c-2.085,0-3.794,0.4-3.866,0.417c-0.048,0.013-0.096,0.036-0.135,0.07c-0.292,0.261-1.737,1.609-1.497,2.595
			C26.99,18.923,27.199,19.269,27.833,19.423z"/>
		<path fill="#FFFFFF" d="M20.902,45.98l-3.356-0.946c-0.027-0.007-0.058-0.013-0.086-0.013c-0.308,0-0.581,0.119-0.788,0.346
			c-0.572,0.625-0.492,1.893-0.482,2.037c0.008,0.102,0.065,0.193,0.152,0.244c0.071,0.043,1.752,1.045,3.26,1.045
			c0.257,0,0.499-0.029,0.717-0.088c0.065-0.018,0.122-0.055,0.164-0.104c0.11-0.138,1.061-1.354,0.622-2.344
			C21.066,46.07,20.992,46.007,20.902,45.98z"/>
		<path fill="#FFFFFF" d="M39.654,29.514c2.338,10.126,3.416,14.164,3.943,15.791c0.106-0.082,0.226-0.147,0.357-0.185l3.352-0.947
			c0.092-0.026,0.188-0.039,0.286-0.039c0.023,0,0.044,0.007,0.064,0.007c-0.65-2.623-2.509-10.051-4.4-17.611
			c-0.72-2.874-1.252-5.001-1.323-5.291c-0.291-1.181-1.897-1.62-2.845-1.62c-0.276,0-0.655-0.146-1.012-0.326
			c-0.004,0.009-0.004,0.017-0.009,0.024c-0.332,0.62-0.967,0.852-1.432,0.858c-0.094,0-0.188-0.012-0.263-0.034
			c-0.45-0.118-1.356-0.259-3.116-0.259c-2.451,0-5.133,0.276-5.248,0.289l-0.022,0.003h-0.022l-0.047,0.001h-0.014
			c-0.092,0-0.177-0.01-0.248-0.029c-0.56-0.137-0.905-0.395-1.124-0.662c-0.1,0.071-0.203,0.127-0.3,0.137
			c-0.685,0.07-1.476,0.352-2.231,0.792c-0.831,0.492-1.294,0.988-1.503,1.613c-0.218,0.673-4.204,17.735-5.153,22.264
			c0.037-0.002,0.074-0.011,0.112-0.011c0.099,0,0.199,0.015,0.285,0.039l3.352,0.945c0.083,0.022,0.161,0.059,0.234,0.1
			l3.585-16.058c0.107,0.575,0.328,1.194,0.75,1.754c0.008,0.015,0.829,1.444,0.364,2.757c-0.084,0.24-0.214,0.529-0.366,0.869
			c-0.761,1.693-2.176,4.852-1.313,9.531c0.019,0.104,0.09,0.191,0.186,0.232c0.067,0.027,6.691,2.732,15.898,0.05
			c0.118-0.034,0.207-0.138,0.224-0.261c0.803-6.24-1.359-9.715-1.435-9.825c-0.291-0.611-0.931-2.368-0.379-3.148
			C39.281,30.652,39.521,30.03,39.654,29.514z"/>
		<path fill="#FFFFFF" d="M48.385,45.223c-0.205-0.227-0.479-0.347-0.791-0.347c-0.027,0-0.055,0.004-0.082,0.011l-3.355,0.949
			c-0.09,0.023-0.163,0.089-0.201,0.175c-0.438,0.99,0.511,2.208,0.622,2.345c0.041,0.051,0.098,0.088,0.161,0.104
			c0.22,0.059,0.46,0.089,0.719,0.089c1.507,0,3.188-1,3.259-1.042c0.087-0.053,0.144-0.145,0.152-0.248
			C48.877,47.114,48.957,45.848,48.385,45.223z"/>
	</g>
</g>
</svg>
