<?xml version="1.0" encoding="utf-8"?>
<!-- Generator: Adobe Illustrator 16.0.0, SVG Export Plug-In . SVG Version: 6.00 Build 0)  -->
<!DOCTYPE svg PUBLIC "-//W3C//DTD SVG 1.1//EN" "http://www.w3.org/Graphics/SVG/1.1/DTD/svg11.dtd">
<svg version="1.1" id="Layer_1" xmlns="http://www.w3.org/2000/svg" xmlns:xlink="http://www.w3.org/1999/xlink" x="0px" y="0px"
	 width="64px" height="64px" viewBox="0 0 64 64" enable-background="new 0 0 64 64" xml:space="preserve">
<g id="Women_x2019_s_Short">
	<rect x="0.631" y="0.274" fill="#EC3F7A" width="63.514" height="64.158"/>
	<polyline fill="#DB256B" points="27.074,22.131 43.521,20.639 64.145,46.484 64.145,64.434 33.877,64.434 16.102,42.527 
		16.736,40.091 17.281,37.87 21.104,23.82 21.252,22.736 28.246,21.256 	"/>
	<g>
		<path fill="#FFFFFF" d="M48.666,42.214l-1.891-8.989l-3.144-9.514c-2.733,1.51-7.979,1.906-10.403,2.01
			c-0.062,0.029-0.119,0.061-0.185,0.087c0.285,0.627,0.394,1.576,0.508,2.577c0.063,0.535,0.188,1.641,0.318,1.786
			c0.18,0.198,0.168,0.508-0.024,0.689c-0.183,0.176-0.5,0.172-0.677-0.017c-0.338-0.354-0.437-1.083-0.578-2.342
			c-0.23-1.999-0.416-2.405-0.51-2.462c-0.002,0.001-0.006,0.001-0.012,0.002c-0.02,0.004-0.039,0.008-0.061,0.009
			c-0.129,0.009-0.299,0.062-0.463,0.378c-0.576,1.102-0.211,3.848-0.008,4.245c0.08,0.085,0.123,0.194,0.123,0.309
			c0,0.129-0.053,0.255-0.148,0.353c-0.09,0.088-0.207,0.135-0.332,0.135h-0.004c-0.135,0-0.268-0.056-0.365-0.153
			c-0.482-0.486-0.811-3.53-0.264-5.019c0.074-0.21,0.17-0.391,0.285-0.555c-5.758-0.142-8.629-1.357-9.715-1.967l-3.131,9.488
			l-1.879,8.949c-0.041,0.194,0.076,0.385,0.264,0.436l6.203,1.687c0.029,0.011,0.061,0.013,0.092,0.015l7.996,0.09
			c0.002,0,0.004,0,0.004,0c0.176,0,0.326-0.123,0.361-0.299l1.357-6.804l1.357,6.804c0.034,0.176,0.188,0.299,0.362,0.299
			c0.002,0,0.004,0,0.006,0l7.949-0.139c0.027-0.001,0.058-0.004,0.086-0.012l6.25-1.639C48.588,42.602,48.707,42.409,48.666,42.214
			z"/>
		<g>
			<path fill="#FFFFFF" d="M30.756,23.568c-0.055-0.021-0.184-0.023-0.33,0.062c0.049,0.354,0.221,0.863,0.76,1.171
				c0.096,0.002,0.195,0.003,0.295,0.004C31.309,24.232,31.039,23.673,30.756,23.568z"/>
			<path fill="#FFFFFF" d="M43.391,20.356c-0.08-0.07-0.188-0.1-0.297-0.085c-4.574,0.733-8.762,1.104-12.445,1.104h-0.002
				c-6.205,0-8.859-1.07-8.885-1.079c-0.115-0.049-0.244-0.035-0.346,0.034c-0.102,0.069-0.164,0.185-0.164,0.309v2.097
				c0.363,0.251,2.723,1.722,8.57,2.019c-0.293-0.496-0.389-1.027-0.381-1.379c0.004-0.142,0.068-0.274,0.178-0.365
				c0.494-0.41,1.014-0.534,1.473-0.36c0.254,0.095,0.48,0.279,0.691,0.559c0.25-0.385,0.549-0.649,0.889-0.788
				c0.504-0.204,1.061-0.129,1.635,0.225c0.119,0.072,0.201,0.193,0.226,0.332c0.008,0.041,0.159,0.911-0.259,1.732
				c2.75-0.178,7.205-0.671,9.246-2.045V20.64C43.52,20.53,43.473,20.428,43.391,20.356z"/>
			<path fill="#FFFFFF" d="M33.281,24.478c0.279-0.363,0.32-0.825,0.314-1.107c-0.218-0.093-0.396-0.107-0.562-0.043
				c-0.322,0.131-0.578,0.586-0.707,0.952c0.068,0.201,0.119,0.377,0.154,0.517c0.13-0.004,0.285-0.01,0.458-0.016
				C33.074,24.695,33.189,24.596,33.281,24.478z"/>
		</g>
	</g>
</g>
</svg>
