<?xml version="1.0" encoding="utf-8"?>
<!-- Generator: Adobe Illustrator 16.0.0, SVG Export Plug-In . SVG Version: 6.00 Build 0)  -->
<!DOCTYPE svg PUBLIC "-//W3C//DTD SVG 1.1//EN" "http://www.w3.org/Graphics/SVG/1.1/DTD/svg11.dtd">
<svg version="1.1" id="Layer_1" xmlns="http://www.w3.org/2000/svg" xmlns:xlink="http://www.w3.org/1999/xlink" x="0px" y="0px"
	 width="64px" height="64px" viewBox="0 0 64 64" enable-background="new 0 0 64 64" xml:space="preserve">
<g id="Collared_T-shirt">
	<g>
		
			<path fill="none" stroke="#494949" stroke-width="1.5" stroke-linecap="round" stroke-linejoin="round" stroke-miterlimit="10" d="
			M37.502,5.68c-6.901-0.963-10.89,0.777-10.89,0.777l-2.254,2.102l-6.35,3.013c0,0-1.68,0.616-4.202,3.923L7.75,24.631l7.85,6.614
			l2.692-2.857c0,0,0.446,9.081,0.446,29.151c0,0,7.025,0.844,13.66,0.73h0.301c6.634,0.113,13.658-0.73,13.658-0.73
			c0-20.07,0.449-29.151,0.449-29.151l2.689,2.857l7.85-6.614l-6.057-9.137c-2.523-3.307-4.202-3.923-4.202-3.923l-7.021-3.635
			L37.502,5.68z"/>
		
			<path fill="none" stroke="#494949" stroke-width="1.5" stroke-linecap="round" stroke-linejoin="round" stroke-miterlimit="10" d="
			M17.262,20.882c0,0,0.02,2.261,1.03,7.505"/>
		
			<path fill="none" stroke="#494949" stroke-width="1.5" stroke-linecap="round" stroke-linejoin="round" stroke-miterlimit="10" d="
			M47.869,20.882c0,0-0.021,2.261-1.031,7.505"/>
		
			<path fill="none" stroke="#494949" stroke-width="1.5" stroke-linecap="round" stroke-linejoin="round" stroke-miterlimit="10" d="
			M31.491,15.064c0,0,0.358-2.04,2.155-2.688c-0.739,3.973,0,15.118,0,15.118c-0.91,0.985-2.195,0.855-2.195,0.855V15.46
			L31.491,15.064z"/>
		
			<path fill="none" stroke="#494949" stroke-width="1.5" stroke-linecap="round" stroke-linejoin="round" stroke-miterlimit="10" d="
			M33.893,12.184c1.578-0.648,4.769-4.382,3.609-6.504l2.564,2.256c0,0,0.387,5.842-2.336,8.563c0,0-1.099-0.189-1.555-2.955
			C36.177,13.544,34.838,11.796,33.893,12.184z"/>
		
			<path fill="none" stroke="#494949" stroke-width="1.5" stroke-linecap="round" stroke-linejoin="round" stroke-miterlimit="10" d="
			M30.734,11.979c-1.907-1.907-4.546,4.044-4.546,4.044c-2.138-3.577-1.83-7.465-1.83-7.465l2.254-2.102
			c0,0,0.625,2.802,3.112,4.822C29.725,11.279,30.348,11.591,30.734,11.979z"/>
		
			<path fill="none" stroke="#494949" stroke-width="1.5" stroke-linecap="round" stroke-linejoin="round" stroke-miterlimit="10" d="
			M37.502,5.68c1.158,2.122-2.031,5.856-3.609,6.504c-1.646,0.699-2.4,2.88-2.4,2.88l-0.04,0.268l0.077-1.133
			c0.203-1.822-0.926-2.34-0.926-2.34l0.132,0.121c-0.387-0.388-1.01-0.701-1.01-0.701c-2.487-2.021-3.112-4.822-3.112-4.822
			S30.601,4.716,37.502,5.68z"/>
		
			<path fill="none" stroke="#494949" stroke-width="1.5" stroke-linecap="round" stroke-linejoin="round" stroke-miterlimit="10" d="
			M37.46,8.092c0.336-0.867,0.418-1.724,0.042-2.412c-6.901-0.963-10.89,0.777-10.89,0.777s0.198,0.893,0.819,2.034
			C27.432,8.491,31.252,7.194,37.46,8.092z"/>
	</g>
</g>
</svg>
