<?xml version="1.0" encoding="utf-8"?>
<!-- Generator: Adobe Illustrator 16.0.0, SVG Export Plug-In . SVG Version: 6.00 Build 0)  -->
<!DOCTYPE svg PUBLIC "-//W3C//DTD SVG 1.1//EN" "http://www.w3.org/Graphics/SVG/1.1/DTD/svg11.dtd">
<svg version="1.1" id="Layer_1" xmlns="http://www.w3.org/2000/svg" xmlns:xlink="http://www.w3.org/1999/xlink" x="0px" y="0px"
	 width="64px" height="64px" viewBox="0 0 64 64" enable-background="new 0 0 64 64" xml:space="preserve">
<g id="Frock">
	<path fill="none" stroke="#494949" stroke-width="1.5" stroke-linecap="round" stroke-linejoin="round" stroke-miterlimit="10" d="
		M32.824,46.445"/>
	<path fill="none" stroke="#494949" stroke-width="1.5" stroke-linecap="round" stroke-linejoin="round" stroke-miterlimit="10" d="
		M32.824,46.445"/>
	<path fill="none" stroke="#494949" stroke-width="1.5" stroke-linecap="round" stroke-linejoin="round" stroke-miterlimit="10" d="
		M32.824,46.445"/>
	<g>
		
			<path fill="none" stroke="#494949" stroke-width="1.5" stroke-linecap="round" stroke-linejoin="round" stroke-miterlimit="10" d="
			M29.549,55.152c2.104,1.621,8.135,0.19,8.135,0.19c2.772,1.632,5.975-0.272,6.457-1.021c3.655,1.898,6.821-3.268,6.821-3.268
			c-4.468-1.148-6.188-11.629-6.188-11.629c-0.885-5.369-3.472-8.524-4.18-9.263c-0.051-0.775,0.077-2.396,0.238-3.446
			c0.188-1.229,0.902-2.794,1.229-3.366c0.07-0.123,0.358-0.476,0.388-0.93c0.032-0.457-0.144-1.006-0.154-1.146
			c-0.077-1.164,0.265,0.597,0.265,0.597s0,0,0.655,0.246c2.054,0.327,4.104-0.739,4.022-1.149c-0.08-0.411-1.644-7.311-1.969-8.623
			c-0.328-1.315-2.301-1.809-3.367-1.809c-1.067,0-2.793-0.246-2.793-0.246l-1.48-1.23c0,0-0.079,1.151-0.409,1.807
			c-0.331,0.656-1.479,1.394-3.038,1.723c-1.56,0.328-3.796-0.592-4.369-1.087c-0.578-0.493-1.79-2.854-1.79-2.854
			s-0.819,1.068-1.23,1.478c-0.416,0.41-1.069,0.328-1.895,0.41c-0.82,0.084-1.801,0.413-2.789,0.986
			c-0.987,0.575-1.558,1.146-1.81,1.889c-0.242,0.736-1.558,4.928-1.885,7.227c1.149,0.985,4.596,0.656,4.596,0.656l0.576-1.478
			c0,0,0,0.657-0.081,1.478c-0.081,0.823,1.219,2.412,1.806,3.39c0.389,0.647,1.711,4.731,0.732,5.457l0,0
			c-1.982,1.771-4.638,10.392-4.638,10.392c-1.539,5.66-6.714,10.316-6.714,10.316c2.807,3.269,7.239,2.357,7.239,2.357
			C24.962,56.593,29.549,55.152,29.549,55.152z"/>
		
			<path fill="none" stroke="#494949" stroke-width="1.5" stroke-linecap="round" stroke-linejoin="round" stroke-miterlimit="10" d="
			M26.04,30.143c0.979-0.726-0.343-4.81-0.732-5.457c-0.586-0.978-1.886-2.566-1.806-3.39c0.081-0.82,0.081-1.478,0.081-1.478
			l-0.576,1.478c0,0-3.447,0.329-4.596-0.656c0.327-2.299,1.643-6.49,1.885-7.227c0.252-0.742,0.822-1.313,1.81-1.889
			c0.988-0.573,1.969-0.902,2.789-0.986c0.826-0.082,1.479,0,1.895-0.41c0.411-0.409,1.23-1.478,1.23-1.478s1.212,2.36,1.79,2.854
			c0.572,0.495,2.809,1.415,4.37,1.087c1.557-0.329,2.707-1.066,3.037-1.723c0.331-0.655,0.409-1.807,0.409-1.807l1.481,1.23
			c0,0,1.725,0.246,2.791,0.246c1.067,0,3.039,0.493,3.369,1.809c0.324,1.313,1.889,8.212,1.969,8.623
			c0.08,0.41-1.969,1.477-4.023,1.149c-0.656-0.246-0.656-0.246-0.656-0.246s-0.341-1.761-0.264-0.597
			c0.012,0.14,0.188,0.688,0.154,1.146c-0.028,0.454-0.316,0.807-0.387,0.93c-0.328,0.572-1.043,2.138-1.229,3.366
			c-0.151,0.983-0.267,2.607-0.238,3.446c-2.368,1.153-4.71,1.641-6.604,1.776C29.103,32.285,26.04,30.143,26.04,30.143z"/>
		
			<path fill="none" stroke="#494949" stroke-width="1.5" stroke-linecap="round" stroke-linejoin="round" stroke-miterlimit="10" d="
			M40.594,30.164c0.708,0.738,3.293,3.893,4.18,9.263c0,0,1.721,10.479,6.188,11.63c0,0-3.167,5.164-6.821,3.267
			c-0.481,0.747-3.685,2.651-6.457,1.021c0,0-6.031,1.43-8.135-0.191c0,0-4.587,1.44-7.622-1.942c0,0-4.433,0.91-7.239-2.358
			c0,0,5.175-4.654,6.714-10.315c0,0,2.656-8.62,4.638-10.392c0,0,3.063,2.143,7.949,1.798
			C35.883,31.805,38.225,31.317,40.594,30.164z"/>
		<g>
			
				<path fill="none" stroke="#494949" stroke-width="1.5" stroke-linecap="round" stroke-linejoin="round" stroke-miterlimit="10" d="
				M33.325,18.927c0,0.024-0.022,0.049-0.052,0.049c-0.026,0-0.051-0.024-0.051-0.049c0-0.03,0.024-0.054,0.051-0.054
				C33.303,18.873,33.325,18.896,33.325,18.927z"/>
			
				<path fill="none" stroke="#494949" stroke-width="1.5" stroke-linecap="round" stroke-linejoin="round" stroke-miterlimit="10" d="
				M33.325,24.718c0,0.029-0.022,0.055-0.052,0.055c-0.026,0-0.051-0.025-0.051-0.055c0-0.026,0.024-0.051,0.051-0.051
				C33.303,24.667,33.325,24.691,33.325,24.718z"/>
		</g>
	</g>
</g>
</svg>
