<?xml version="1.0" encoding="utf-8"?>
<!-- Generator: Adobe Illustrator 16.0.0, SVG Export Plug-In . SVG Version: 6.00 Build 0)  -->
<!DOCTYPE svg PUBLIC "-//W3C//DTD SVG 1.1//EN" "http://www.w3.org/Graphics/SVG/1.1/DTD/svg11.dtd">
<svg version="1.1" id="Layer_1" xmlns="http://www.w3.org/2000/svg" xmlns:xlink="http://www.w3.org/1999/xlink" x="0px" y="0px"
	 width="64px" height="64px" viewBox="0 0 64 64" enable-background="new 0 0 64 64" xml:space="preserve">
<g id="Hoodie">
	<g>
		
			<path fill="none" stroke="#494949" stroke-width="1.5" stroke-linecap="round" stroke-linejoin="round" stroke-miterlimit="10" d="
			M12.596,49.834c0,0-1.099,2.221-0.861,2.813l3.905,0.707c0,0,0.689-1.479,1.055-2.608l0.277,0.063l5.17-16.033l0.178,19.002
			c0,0-0.103,1.721,1.122,2.408c0,0,0.035,0.396,0,1.836c0,0,5.799,2.313,19.186-0.33l0.001-2.313
			c0.443-0.246,0.648-0.824,0.66-1.212l0.18-19.394l5.17,16.033l0.389-0.088l0,0c0.359,1.109,1.063,2.604,1.063,2.604l3.827-0.696
			c0.232-0.577-0.893-2.794-0.893-2.794l0.423-0.096L46.32,24.07l-7.448-3.758l-0.411-0.947c4.614-3.002,2.786-5.628,2.786-5.628
			c-4.45-8.108-8.11-8.612-8.11-8.612c-3.73,1.435-7.75,9.042-7.75,9.042c-1.22,3.012,2.297,5.022,2.297,5.022l-0.018,1.153
			l-8.378,3.728L12.16,49.736L12.596,49.834z"/>
		
			<path fill="none" stroke="#494949" stroke-width="1.5" stroke-linecap="round" stroke-linejoin="round" stroke-miterlimit="10" d="
			M32.657,55.975"/>
		
			<path fill="none" stroke="#494949" stroke-width="1.5" stroke-linecap="round" stroke-linejoin="round" stroke-miterlimit="10" d="
			M32.487,22.313"/>
		
			<path fill="none" stroke="#494949" stroke-width="1.5" stroke-linecap="round" stroke-linejoin="round" stroke-miterlimit="10" d="
			M32.952,26.066"/>
		
			<line fill="none" stroke="#494949" stroke-width="1.5" stroke-linecap="round" stroke-linejoin="round" stroke-miterlimit="10" x1="27.998" y1="42.807" x2="24.823" y2="48.332"/>
		
			<line fill="none" stroke="#494949" stroke-width="1.5" stroke-linecap="round" stroke-linejoin="round" stroke-miterlimit="10" x1="37.314" y1="42.807" x2="40.492" y2="48.332"/>
		
			<path fill="none" stroke="#494949" stroke-width="1.5" stroke-linecap="round" stroke-linejoin="round" stroke-miterlimit="10" d="
			M16.694,50.744l0.277,0.063l5.17-16.033l0.178,19.002c0,0-0.103,1.722,1.122,2.408c0.174,0.102,0.3,0.141,0.537,0.189
			c0,0,3.933,0.795,9.018,0.656c-0.905-5.116-0.043-30.964-0.043-30.964c-0.644-2.103-0.919-4.222-0.919-4.222
			c-0.419-1.581-4.349-2.655-4.349-2.655l-0.018,1.153l-8.378,3.728L12.16,49.736l0.436,0.098"/>
		
			<path fill="none" stroke="#494949" stroke-width="1.5" stroke-linecap="round" stroke-linejoin="round" stroke-miterlimit="10" d="
			M16.694,50.744c-0.366,1.13-1.055,2.609-1.055,2.609l-3.905-0.707c-0.238-0.594,0.861-2.813,0.861-2.813l4.125,0.916
			L16.694,50.744z"/>
		
			<path fill="none" stroke="#494949" stroke-width="1.5" stroke-linecap="round" stroke-linejoin="round" stroke-miterlimit="10" d="
			M53.025,49.832c0,0,1.125,2.217,0.892,2.794l-3.827,0.696c0,0-0.705-1.493-1.063-2.604L53.025,49.832z"/>
		
			<path fill="none" stroke="#494949" stroke-width="1.5" stroke-linecap="round" stroke-linejoin="round" stroke-miterlimit="10" d="
			M41.605,55.779c-2.918,0.847-5.924,1.18-8.61,1.252c-0.905-5.117-0.043-30.965-0.043-30.965c1.544-1.622,1.666-3.753,1.666-3.753
			c0.539-1.774,3.844-2.948,3.844-2.948l0.411,0.947l7.447,3.758l7.128,25.667l-0.423,0.096c0,0,1.125,2.217,0.893,2.794
			l-3.827,0.696c0,0-0.705-1.493-1.063-2.604l0,0l-0.389,0.088l-5.17-16.033l-0.18,19.394c-0.012,0.388-0.216,0.966-0.66,1.212
			C42.234,55.598,41.605,55.779,41.605,55.779z"/>
		
			<path fill="none" stroke="#494949" stroke-width="1.5" stroke-linecap="round" stroke-linejoin="round" stroke-miterlimit="10" d="
			M23.44,56.186c0.174,0.101,0.3,0.14,0.537,0.188c0,0,3.933,0.795,9.018,0.657c2.687-0.072,5.692-0.405,8.61-1.252
			c0,0,0.629-0.182,1.021-0.4l-0.001,2.313c-13.387,2.645-19.186,0.33-19.186,0.33C23.476,56.581,23.44,56.186,23.44,56.186z"/>
		
			<path fill="none" stroke="#494949" stroke-width="1.5" stroke-linecap="round" stroke-linejoin="round" stroke-miterlimit="10" d="
			M27.684,19.189c0,0,3.93,1.074,4.349,2.655c0,0,0.275,2.119,0.919,4.222c1.544-1.622,1.666-3.753,1.666-3.753
			c0.539-1.774,3.844-2.948,3.844-2.948c4.614-3.002,2.786-5.628,2.786-5.628c-4.45-8.108-8.111-8.612-8.111-8.612
			c-3.729,1.435-7.749,9.042-7.749,9.042C24.167,17.179,27.684,19.189,27.684,19.189z"/>
		<g>
			
				<path fill="none" stroke="#494949" stroke-width="1.5" stroke-linecap="round" stroke-linejoin="round" stroke-miterlimit="10" d="
				M28.903,14.667c0,0-0.717,1.581,0.86,3.303c1.58,1.723,3.531,1.73,3.581,4.344"/>
			
				<path fill="none" stroke="#494949" stroke-width="1.5" stroke-linecap="round" stroke-linejoin="round" stroke-miterlimit="10" d="
				M37.514,13.925c0,0,1.362,3.039,0,3.901c-1.363,0.86-4.664,2.354-4.17,6.981"/>
		</g>
		
			<path fill="none" stroke="#494949" stroke-width="1.5" stroke-linecap="round" stroke-linejoin="round" stroke-miterlimit="10" d="
			M41.473,15.747c-1.494-4.374-8.127-3.591-8.127-3.591c-8.046,0.79-8.212,3.229-8.212,3.229c-0.054-0.641,0.253-1.219,0.253-1.219
			s4.019-7.607,7.75-9.042c0,0,3.661,0.504,8.11,8.612C41.247,13.737,41.771,14.667,41.473,15.747z"/>
	</g>
</g>
</svg>
