<?xml version="1.0" encoding="utf-8"?>
<!-- Generator: Adobe Illustrator 16.0.0, SVG Export Plug-In . SVG Version: 6.00 Build 0)  -->
<!DOCTYPE svg PUBLIC "-//W3C//DTD SVG 1.1//EN" "http://www.w3.org/Graphics/SVG/1.1/DTD/svg11.dtd">
<svg version="1.1" id="Layer_1" xmlns="http://www.w3.org/2000/svg" xmlns:xlink="http://www.w3.org/1999/xlink" x="0px" y="0px"
	 width="64px" height="64px" viewBox="0 0 64 64" enable-background="new 0 0 64 64" xml:space="preserve">
<g id="Jacket">
	<g>
		
			<path fill="none" stroke="#494949" stroke-width="1.5" stroke-linecap="round" stroke-linejoin="round" stroke-miterlimit="10" d="
			M44.182,38.9c0,0,0.717,1.022,1.33,2.865c0.614,1.844-0.121,2.559,1.371,5.014c1.494,2.457-0.451,2.15,1.803,5.424
			c0,0,1.262,1.344,1.057,3.299c0,0,2.799,0.453,4.504-0.5c0,0-0.887-2.318,0-4.434c0,0,0.887,0-1.434-4.912
			c0,0,0.137-6.006-2.252-9.623c0,0,0.137-3.068-1.16-4.639c0,0-1.08-5.867-0.808-9.895c0,0,0.954-6.273-5.8-7.365
			c0,0,0.93-2.746-4.697-4.254c0,0-5.546-1.869-12.36,0.43c-6.385,2.156-4.504,3.617-4.401,4.541c0,0-5.831,0.203-5.115,7.98
			c0,0-0.94,6.574-0.163,8.314c0,0-2.256,2.873-1.378,4.275c0,0-1.247,2.762-1.04,4.195c0.203,1.434-1.742,2.914-1.742,7.574
			c0,3.582-2.251,2.557-0.615,5.321l-0.596,2.763c0,0,1.127,0.512,4.75,0c0,0-0.365-2.865,1.68-3.479c0,0,0.82-1.129,1.64-6.448
			c0.817-5.32,2.147-7.164,2.147-7.164s-0.182,4.84-0.795,11.258L19.596,52c0,0,7.367,5.117,25.892,0.818V50.26
			C45.488,50.26,44.852,44.174,44.182,38.9z"/>
		
			<path fill="none" stroke="#494949" stroke-width="1.5" stroke-linecap="round" stroke-linejoin="round" stroke-miterlimit="10" d="
			M49.128,52.826c0.341,0.576,0.735,1.52,0.613,2.676c0,0,2.799,0.453,4.504-0.5c0,0-0.49-1.283-0.378-2.811
			c-2.833-0.9-4.737,0.637-4.737,0.637L49.128,52.826z"/>
		
			<path fill="none" stroke="#494949" stroke-width="1.5" stroke-linecap="round" stroke-linejoin="round" stroke-miterlimit="10" d="
			M16.056,52.512c-0.838,1.062-0.621,2.764-0.621,2.764c-3.623,0.513-4.75,0-4.75,0l0.596-2.762
			C13.668,51.07,16.056,52.514,16.056,52.512z"/>
		<g>
			<g>
				
					<path fill="none" stroke="#494949" stroke-width="1.5" stroke-linecap="round" stroke-linejoin="round" stroke-miterlimit="10" d="
					M19.596,23.891c0,0,2.729,10.232,6.755,10.302"/>
				
					<path fill="none" stroke="#494949" stroke-width="1.5" stroke-linecap="round" stroke-linejoin="round" stroke-miterlimit="10" d="
					M26.351,38.49c0,0-2.185,6.527-4.504,7.779"/>
				
					<path fill="none" stroke="#494949" stroke-width="1.5" stroke-linecap="round" stroke-linejoin="round" stroke-miterlimit="10" d="
					M44.852,24.303c0,0-2.73,10.234-6.756,10.3"/>
				
					<path fill="none" stroke="#494949" stroke-width="1.5" stroke-linecap="round" stroke-linejoin="round" stroke-miterlimit="10" d="
					M38.096,38.49c0,0,2.184,6.527,4.502,7.779"/>
				
					<path fill="none" stroke="#494949" stroke-width="1.5" stroke-linecap="round" stroke-linejoin="round" stroke-miterlimit="10" d="
					M28.685,19.273c0,0,0.593,0.949,0,3.1c-0.595,2.148,0.377,3.531,0.53,4.502c0.153,0.975-0.051,2.203,0,2.457"/>
				
					<path fill="none" stroke="#494949" stroke-width="1.5" stroke-linecap="round" stroke-linejoin="round" stroke-miterlimit="10" d="
					M35.896,19.021c0,0-1.231,3.91-0.285,5.807c0.945,1.896,0.315,2.848,0.285,4.213"/>
				
					<path fill="none" stroke="#494949" stroke-width="1.5" stroke-linecap="round" stroke-linejoin="round" stroke-miterlimit="10" d="
					M20.902,38.184c0,0,0.896-5.586,2.071-6.451"/>
				
					<path fill="none" stroke="#494949" stroke-width="1.5" stroke-linecap="round" stroke-linejoin="round" stroke-miterlimit="10" d="
					M41.145,32.598c0,0,2.73,1.697,3.037,6.303"/>
			</g>
		</g>
		
			<path fill="none" stroke="#494949" stroke-width="1.5" stroke-linecap="round" stroke-linejoin="round" stroke-miterlimit="10" d="
			M21.334,14.852c-0.103-0.924-1.983-2.385,4.401-4.541c6.813-2.299,12.361-0.43,12.361-0.43c5.625,1.508,4.696,4.254,4.696,4.254
			c-2.151,5.568-10.562,5.568-10.562,5.568C24.285,19.891,21.334,14.852,21.334,14.852z"/>
		
			<path fill="none" stroke="#494949" stroke-width="1.5" stroke-linecap="round" stroke-linejoin="round" stroke-miterlimit="10" d="
			M36.132,11.061c0,0-3.231-0.609-7.597,0.275c0,0-7.991,0.949-3.146,5.043c0,0,3.758,3.322,6.843,3.324
			c3.058,0.002,7.108-4.438,7.108-4.438C41.841,12.008,36.132,11.061,36.132,11.061z"/>
		
			<path fill="none" stroke="#494949" stroke-width="1.5" stroke-linecap="round" stroke-linejoin="round" stroke-miterlimit="10" d="
			M28.535,11.336c0,0-3.889,0.615,3.204,8.188c0,0,0.139,0.41,1.162,0c0,0,7.074-8.285,2.66-8.525
			C35.561,10.998,32.9,10.451,28.535,11.336z"/>
		
			<path fill="none" stroke="#494949" stroke-width="1.5" stroke-linecap="round" stroke-linejoin="round" stroke-miterlimit="10" d="
			M19.596,52c0,0,7.367,5.117,25.892,0.818V50.26c-14.908,4.947-25.451-0.465-25.451-0.465L19.596,52z"/>
		
			<path fill="none" stroke="#494949" stroke-width="1.5" stroke-linecap="round" stroke-linejoin="round" stroke-miterlimit="10" d="
			M32.407,19.701c-7.944,0.189-11.072-4.85-11.072-4.85s-5.831,0.203-5.115,7.98c0,0-0.94,6.574-0.163,8.314
			c0,0-2.256,2.873-1.378,4.275c0,0-1.247,2.762-1.04,4.195c0.203,1.434-1.742,2.914-1.742,7.574c0,3.582-2.251,2.557-0.615,5.321
			l-0.596,2.763c0,0,1.127,0.512,4.75,0c0,0-0.365-2.865,1.68-3.479c0,0,0.82-1.129,1.64-6.448c0.817-5.32,2.147-7.164,2.147-7.164
			s-0.182,4.84-0.795,11.258L19.596,52c0,0,3.841,2.668,12.951,2.533c0,0-0.67-13.381,0-15.564c0.671-2.186,0.285-4.775-0.175-7.984
			C31.91,27.777,32.407,19.701,32.407,19.701z"/>
		
			<path fill="none" stroke="#494949" stroke-width="1.5" stroke-linecap="round" stroke-linejoin="round" stroke-miterlimit="10" d="
			M42.793,14.135c6.754,1.092,5.8,7.365,5.8,7.365c-0.272,4.027,0.808,9.895,0.808,9.895c1.297,1.57,1.16,4.639,1.16,4.639
			c2.389,3.616,2.252,9.623,2.252,9.623c2.319,4.911,1.434,4.911,1.434,4.911c-0.887,2.115,0,4.435,0,4.435
			c-1.705,0.953-4.504,0.5-4.504,0.5c0.205-1.955-1.057-3.299-1.057-3.299c-2.254-3.272-0.309-2.968-1.803-5.425
			c-1.492-2.454-0.757-3.17-1.371-5.014c-0.613-1.842-1.33-2.865-1.33-2.865c0.67,5.273,1.307,11.359,1.307,11.359v2.559
			c-5.147,1.195-9.436,1.662-12.94,1.716c0,0-0.67-13.382,0-15.563c0.671-2.187,0.285-4.775-0.175-7.985
			c-0.463-3.207,0.034-11.283,0.034-11.283C31.761,19.701,40.578,19.871,42.793,14.135z"/>
	</g>
</g>
</svg>
