<?xml version="1.0" encoding="utf-8"?>
<!-- Generator: Adobe Illustrator 16.0.0, SVG Export Plug-In . SVG Version: 6.00 Build 0)  -->
<!DOCTYPE svg PUBLIC "-//W3C//DTD SVG 1.1//EN" "http://www.w3.org/Graphics/SVG/1.1/DTD/svg11.dtd">
<svg version="1.1" id="Layer_1" xmlns="http://www.w3.org/2000/svg" xmlns:xlink="http://www.w3.org/1999/xlink" x="0px" y="0px"
	 width="64px" height="64px" viewBox="0 0 64 64" enable-background="new 0 0 64 64" xml:space="preserve">
<g id="Jeans">
	<g>
		
			<path fill="none" stroke="#494949" stroke-width="1.5" stroke-linecap="round" stroke-linejoin="round" stroke-miterlimit="10" d="
			M32.133,24.546c0.058,0.085,0.237,0.357,0.293,0.451c4.314,7.229,6.131,31.774,6.131,31.774c4.006,0.142,9.771-1.084,9.771-1.084
			L44.611,28.71l-1.37-8.656l-1.558-9.827l-0.623-3.48c0,0-2.435,1.145-8.804,1.286h-0.343c-6.368-0.142-8.94-1.273-8.94-1.273
			l-0.617,3.394l-3.073,18.971l-3.716,26.841c0,0,6.041,0.948,10.048,0.806c0,0,1.815-24.543,6.132-31.773
			c0.056-0.094,0.233-0.366,0.292-0.451L32.133,24.546L32.133,24.546z"/>
		
			<line fill="none" stroke="#494949" stroke-width="1.5" stroke-linecap="round" stroke-linejoin="round" stroke-miterlimit="10" x1="26.354" y1="11.438" x2="20.813" y2="20.056"/>
		
			<path fill="none" stroke="#494949" stroke-width="1.5" stroke-linecap="round" stroke-linejoin="round" stroke-miterlimit="10" d="
			M43.241,20.055l-0.909-5.735l-0.659-4.164c-1.177,0.542-2.725,0.944-4.149,1.15L43.241,20.055"/>
		
			<path fill="none" stroke="#494949" stroke-width="1.5" stroke-linecap="round" stroke-linejoin="round" stroke-miterlimit="10" d="
			M20.813,20.055l0.908-5.735l0.661-4.164c1.177,0.542,2.723,0.944,4.149,1.15L20.813,20.055"/>
		
			<line fill="none" stroke="#494949" stroke-width="1.5" stroke-linecap="round" stroke-linejoin="round" stroke-miterlimit="10" x1="30.924" y1="21.722" x2="32.039" y2="24.497"/>
		
			<path fill="none" stroke="#494949" stroke-width="1.5" stroke-linecap="round" stroke-linejoin="round" stroke-miterlimit="10" d="
			M35.139,11.554c-1.556,0.106-2.703,0.085-2.703,0.085h-0.34c0,0,0.974,8.851-1.172,10.083l0.694,0.267
			C37.083,22.563,35.139,11.554,35.139,11.554z"/>
		
			<path fill="none" stroke="#494949" stroke-width="1.5" stroke-linecap="round" stroke-linejoin="round" stroke-miterlimit="10" d="
			M22.356,10.153l0.617-3.394c0,0,2.572,1.131,8.94,1.273h0.343c6.369-0.142,8.803-1.286,8.803-1.286l0.613,3.41
			c-1.177,0.542-2.725,0.944-4.15,1.15c-2.611,0.377-5.086,0.333-5.086,0.333h-0.34C32.096,11.639,25.687,11.688,22.356,10.153z"/>
		
			<path fill="none" stroke="#494949" stroke-width="1.5" stroke-linecap="round" stroke-linejoin="round" stroke-miterlimit="10" d="
			M34.189,9.739c0,0.144-0.113,0.262-0.256,0.262c-0.145,0-0.264-0.118-0.264-0.262c0-0.142,0.119-0.258,0.264-0.258
			C34.076,9.481,34.189,9.597,34.189,9.739z"/>
		
			<line fill="none" stroke="#494949" stroke-width="1.5" stroke-linecap="round" stroke-linejoin="round" stroke-miterlimit="10" x1="32.087" y1="8.547" x2="32.087" y2="11.195"/>
	</g>
</g>
</svg>
