<?xml version="1.0" encoding="utf-8"?>
<!-- Generator: Adobe Illustrator 16.0.0, SVG Export Plug-In . SVG Version: 6.00 Build 0)  -->
<!DOCTYPE svg PUBLIC "-//W3C//DTD SVG 1.1//EN" "http://www.w3.org/Graphics/SVG/1.1/DTD/svg11.dtd">
<svg version="1.1" id="Layer_1" xmlns="http://www.w3.org/2000/svg" xmlns:xlink="http://www.w3.org/1999/xlink" x="0px" y="0px"
	 width="64px" height="64px" viewBox="0 0 64 64" enable-background="new 0 0 64 64" xml:space="preserve">
<g id="Men_x2019_s_Shirt">
	<g>
		
			<path fill="none" stroke="#494949" stroke-width="1.5" stroke-linecap="round" stroke-linejoin="round" stroke-miterlimit="10" d="
			M19.793,28.75l-2.092,4.531l-7.279-2.921l5.961-14.414l8.832-3.085l1.187-2.883c0,0,5.617-2.596,12.836,0l1.181,2.883l8.297,3.085
			l5.959,14.414l-7.278,2.921l-2.092-4.531h-0.002l0.901,22.521c-2.769,3.541-13.656,3.691-13.656,3.691
			c-11.716,0.359-13.574-3.691-13.574-3.691L19.793,28.75L19.793,28.75z"/>
		
			<path fill="none" stroke="#494949" stroke-width="1.5" stroke-linecap="round" stroke-linejoin="round" stroke-miterlimit="10" d="
			M26.402,9.977c0,0,5.617-2.596,12.836,0l-3.426,4.064l-1.537,0.784l0.158,1.632l-1.566,4.122l-2.059-4.122l0.014-1.632
			l-0.994-0.784L26.402,9.977z"/>
		
			<path fill="none" stroke="#494949" stroke-width="1.5" stroke-linecap="round" stroke-linejoin="round" stroke-miterlimit="10" d="
			M19.793,28.75l-2.092,4.531l-7.279-2.921l5.961-14.414l8.832-3.085l1.187-2.883l3.427,4.064l0.994,0.784l-0.014,1.632l2.059,4.122
			c0,0-0.929,28.249,0.153,34.37c-0.453,0.021-0.473,0.014-0.473,0.014c-11.716,0.359-13.574-3.69-13.574-3.69L19.793,28.75"/>
		
			<path fill="none" stroke="#494949" stroke-width="1.5" stroke-linecap="round" stroke-linejoin="round" stroke-miterlimit="10" d="
			M45.305,28.75l2.092,4.531l7.278-2.921l-5.959-14.414l-8.297-3.085l-1.181-2.883l-3.426,4.064l-1.537,0.784l0.158,1.632
			l-1.566,4.122c0,0-0.929,28.249,0.154,34.37c2.121-0.078,10.761-0.58,13.183-3.679L45.303,28.75H45.305z"/>
		
			<path fill="none" stroke="#494949" stroke-width="1.5" stroke-linecap="round" stroke-linejoin="round" stroke-miterlimit="10" d="
			M34.475,45.18c0,0.098-0.08,0.178-0.181,0.178c-0.099,0-0.179-0.08-0.179-0.178c0-0.102,0.08-0.18,0.179-0.18
			C34.395,45,34.475,45.078,34.475,45.18z"/>
		
			<path fill="none" stroke="#494949" stroke-width="1.5" stroke-linecap="round" stroke-linejoin="round" stroke-miterlimit="10" d="
			M34.543,38.714c0,0.097-0.078,0.177-0.177,0.177c-0.101,0-0.179-0.08-0.179-0.177c0-0.103,0.078-0.18,0.179-0.18
			C34.465,38.534,34.543,38.611,34.543,38.714z"/>
		
			<path fill="none" stroke="#494949" stroke-width="1.5" stroke-linecap="round" stroke-linejoin="round" stroke-miterlimit="10" d="
			M34.616,33.137c0,0.096-0.082,0.178-0.183,0.178c-0.096,0-0.177-0.082-0.177-0.178c0-0.101,0.081-0.18,0.177-0.18
			C34.534,32.957,34.616,33.036,34.616,33.137z"/>
		
			<path fill="none" stroke="#494949" stroke-width="1.5" stroke-linecap="round" stroke-linejoin="round" stroke-miterlimit="10" d="
			M34.863,26.67c0,0.097-0.077,0.176-0.176,0.176c-0.101,0-0.182-0.08-0.182-0.176c0-0.101,0.081-0.179,0.182-0.179
			C34.786,26.491,34.863,26.569,34.863,26.67z"/>
		
			<path fill="none" stroke="#494949" stroke-width="1.5" stroke-linecap="round" stroke-linejoin="round" stroke-miterlimit="10" d="
			M39.238,9.977c-7.219-2.596-12.836,0-12.836,0l1.38,1.636c1.898-0.544,5.592-1.205,10.044,0.034L39.238,9.977z"/>
		
			<circle fill="none" stroke="#494949" stroke-width="1.5" stroke-linecap="round" stroke-linejoin="round" stroke-miterlimit="10" cx="35.043" cy="20.631" r="0.179"/>
		
			<polygon fill="none" stroke="#494949" stroke-width="1.5" stroke-linecap="round" stroke-linejoin="round" stroke-miterlimit="10" points="
			39.238,9.977 40.424,12.86 37.952,19.703 35.813,14.042 		"/>
		
			<polygon fill="none" stroke="#494949" stroke-width="1.5" stroke-linecap="round" stroke-linejoin="round" stroke-miterlimit="10" points="
			26.402,9.977 25.215,12.86 27.688,19.703 29.829,14.042 		"/>
	</g>
</g>
</svg>
