<?xml version="1.0" encoding="utf-8"?>
<!-- Generator: Adobe Illustrator 16.0.0, SVG Export Plug-In . SVG Version: 6.00 Build 0)  -->
<!DOCTYPE svg PUBLIC "-//W3C//DTD SVG 1.1//EN" "http://www.w3.org/Graphics/SVG/1.1/DTD/svg11.dtd">
<svg version="1.1" id="Layer_1" xmlns="http://www.w3.org/2000/svg" xmlns:xlink="http://www.w3.org/1999/xlink" x="0px" y="0px"
	 width="64px" height="64px" viewBox="0 0 64 64" enable-background="new 0 0 64 64" xml:space="preserve">
<g id="Men_x2019_s_Vest">
	<g>
		
			<path fill="none" stroke="#494949" stroke-width="1.5" stroke-linecap="round" stroke-linejoin="round" stroke-miterlimit="10" d="
			M40.822,7.778"/>
		
			<path fill="none" stroke="#494949" stroke-width="1.5" stroke-linecap="round" stroke-linejoin="round" stroke-miterlimit="10" d="
			M24.798,7.778"/>
		<g>
			
				<path fill="none" stroke="#494949" stroke-width="1.5" stroke-linecap="round" stroke-linejoin="round" stroke-miterlimit="10" d="
				M40.822,7.143L40.822,7.143h2.949v11.052c0,6.161,1.004,7.808,4.182,9.289v28.905H32.84h-0.029H17.696V27.484
				c3.177-1.48,4.181-3.127,4.181-9.289V7.143l2.921,0.008V7.143c0,4.426,3.587,7.941,8.013,7.941
				C37.234,15.084,40.822,11.569,40.822,7.143z"/>
			
				<path fill="none" stroke="#494949" stroke-width="1.5" stroke-linecap="round" stroke-linejoin="round" stroke-miterlimit="10" d="
				M24.798,7.778V7.151v5.955c0,4.425,3.587,8.013,8.013,8.013c4.424,0,8.012-3.587,8.012-8.013V7.143v0.635V7.143
				c0,4.426-3.588,7.941-8.012,7.941c-4.426,0-8.013-3.515-8.013-7.941V7.778z"/>
		</g>
	</g>
</g>
</svg>
