<?xml version="1.0" encoding="utf-8"?>
<!-- Generator: Adobe Illustrator 16.0.0, SVG Export Plug-In . SVG Version: 6.00 Build 0)  -->
<!DOCTYPE svg PUBLIC "-//W3C//DTD SVG 1.1//EN" "http://www.w3.org/Graphics/SVG/1.1/DTD/svg11.dtd">
<svg version="1.1" id="Layer_1" xmlns="http://www.w3.org/2000/svg" xmlns:xlink="http://www.w3.org/1999/xlink" x="0px" y="0px"
	 width="64px" height="64px" viewBox="0 0 64 64" enable-background="new 0 0 64 64" xml:space="preserve">
<g id="Men_x2019_s_Sleeveless_Jacket">
	<g>
		
			<path fill="none" stroke="#494949" stroke-width="1.5" stroke-linecap="round" stroke-linejoin="round" stroke-miterlimit="10" d="
			M38.021,10.499l0.972,2.192l0.306,0.69l8.835,3.086h-0.042h0.042c0,0,1.38,3.499-0.633,9.967c0,0-1.383,3.63-2.592,7.121
			l0.579,17.817c-3.434,3.01-13.383,3.544-13.383,3.544c-10.685,0.094-13.919-3.064-13.919-3.064l0.801-18.297
			c-1.206-3.491-2.59-7.121-2.59-7.121c-2.012-6.468-0.635-9.967-0.635-9.967l8.834-3.086l0.304-0.688l0.974-2.194
			C25.873,10.499,31.875,7.498,38.021,10.499z"/>
		
			<line fill="none" stroke="#494949" stroke-width="1.5" stroke-linecap="round" stroke-linejoin="round" stroke-miterlimit="10" x1="22.515" y1="29.478" x2="28.07" y2="29.478"/>
		
			<line fill="none" stroke="#494949" stroke-width="1.5" stroke-linecap="round" stroke-linejoin="round" stroke-miterlimit="10" x1="35.159" y1="29.478" x2="40.715" y2="29.478"/>
		
			<path fill="none" stroke="#494949" stroke-width="1.5" stroke-linecap="round" stroke-linejoin="round" stroke-miterlimit="10" d="
			M19.027,33.557l0.236-4.146C18.67,19.86,15.85,16.605,15.85,16.605"/>
		
			<path fill="none" stroke="#494949" stroke-width="1.5" stroke-linecap="round" stroke-linejoin="round" stroke-miterlimit="10" d="
			M25.873,10.499c0,0,1.705,3.787,6.074,3.859c4.37-0.072,6.073-3.859,6.073-3.859s0.973,2.192,0.975,2.194
			c0,0-1.141,4.473-7.114,5.459l0,0c-5.975-0.986-6.979-5.459-6.98-5.459L25.873,10.499z"/>
		
			<path fill="none" stroke="#494949" stroke-width="1.5" stroke-linecap="round" stroke-linejoin="round" stroke-miterlimit="10" d="
			M25.823,10.499"/>
		
			<path fill="none" stroke="#494949" stroke-width="1.5" stroke-linecap="round" stroke-linejoin="round" stroke-miterlimit="10" d="
			M15.762,16.468c0,0,2.908,3.393,3.502,12.943l-0.236,4.146h-0.041c-1.206-3.492-2.59-7.122-2.59-7.122
			C14.385,19.967,15.762,16.468,15.762,16.468z"/>
		
			<path fill="none" stroke="#494949" stroke-width="1.5" stroke-linecap="round" stroke-linejoin="round" stroke-miterlimit="10" d="
			M48.135,16.468c0,0-2.91,3.393-3.502,12.943l0.236,4.146h0.04c1.208-3.492,2.59-7.122,2.59-7.122
			C49.51,19.967,48.135,16.468,48.135,16.468z"/>
		
			<path fill="none" stroke="#494949" stroke-width="1.5" stroke-linecap="round" stroke-linejoin="round" stroke-miterlimit="10" d="
			M32.104,54.917c-10.685,0.094-13.919-3.065-13.919-3.065l0.801-18.295c-1.206-3.492-2.59-7.122-2.59-7.122
			c-2.012-6.468-0.635-9.967-0.635-9.967l8.834-3.086l0.304-0.688l0.974-2.194c0,0,1.705,3.787,6.074,3.859
			C31.947,14.358,31.022,48.796,32.104,54.917z"/>
		
			<path fill="none" stroke="#494949" stroke-width="1.5" stroke-linecap="round" stroke-linejoin="round" stroke-miterlimit="10" d="
			M48.091,16.468h0.042l-8.835-3.086l-0.306-0.69L38.02,10.5c0,0-1.703,3.787-6.073,3.859c0,0-0.925,34.438,0.157,40.559
			c0,0,9.949-0.534,13.384-3.544l-0.58-17.817c1.209-3.491,2.592-7.121,2.592-7.121c2.012-6.468,0.633-9.967,0.633-9.967
			L48.091,16.468L48.091,16.468z"/>
		
			<path fill="none" stroke="#494949" stroke-width="1.5" stroke-linecap="round" stroke-linejoin="round" stroke-miterlimit="10" d="
			M25.873,10.499c0,0,1.705,3.787,6.074,3.859c4.37-0.072,6.073-3.859,6.073-3.859C31.875,7.498,25.873,10.499,25.873,10.499z"/>
	</g>
</g>
</svg>
