<?xml version="1.0" encoding="utf-8"?>
<!-- Generator: Adobe Illustrator 16.0.0, SVG Export Plug-In . SVG Version: 6.00 Build 0)  -->
<!DOCTYPE svg PUBLIC "-//W3C//DTD SVG 1.1//EN" "http://www.w3.org/Graphics/SVG/1.1/DTD/svg11.dtd">
<svg version="1.1" id="Layer_1" xmlns="http://www.w3.org/2000/svg" xmlns:xlink="http://www.w3.org/1999/xlink" x="0px" y="0px"
	 width="64px" height="64px" viewBox="0 0 64 64" enable-background="new 0 0 64 64" xml:space="preserve">
<g id="Men_x2019_s_Full_Sleeve_Shirt">
	<g>
		
			<path fill="none" stroke="#494949" stroke-width="1.5" stroke-linecap="round" stroke-linejoin="round" stroke-miterlimit="10" d="
			M32.319,54.704"/>
		
			<path fill="none" stroke="#494949" stroke-width="1.5" stroke-linecap="round" stroke-linejoin="round" stroke-miterlimit="10" d="
			M51.493,48.523c0.505,1.552,1.384,3.346,1.384,3.346l5.355-0.973c0.326-0.813-1.143-3.652-1.143-3.652l0.006,0.021l0.09-0.021
			l-8.526-30.699l-8.294-3.088l-1.725-2.883L32.67,9.38h-0.352l-5.972,1.193l-1.186,2.883l-8.834,3.088L7.8,47.244l0.146,0.031
			l0.016-0.031c0,0-1.421,2.841-1.096,3.652l5.356,0.973c0,0,0.831-1.794,1.334-3.346l6.183-19.175l0.213,22.727l12.367,2.629h0.352
			l12.365-2.629l0.214-22.727l6.184,19.175"/>
		
			<line fill="none" stroke="#494949" stroke-width="1.5" stroke-linecap="round" stroke-linejoin="round" stroke-miterlimit="10" x1="23.038" y1="29.552" x2="28.594" y2="29.552"/>
		
			<line fill="none" stroke="#494949" stroke-width="1.5" stroke-linecap="round" stroke-linejoin="round" stroke-miterlimit="10" x1="35.686" y1="29.552" x2="41.24" y2="29.552"/>
		
			<path fill="none" stroke="#494949" stroke-width="1.5" stroke-linecap="round" stroke-linejoin="round" stroke-miterlimit="10" d="
			M39.979,12.815c-0.67,2.441-4.248,4.522-4.248,4.522l-3.327,1.1l-2.566-0.763c-2.567-0.62-4.454-4.755-4.454-4.755l0.963-2.346
			l3.425,2.915l2.695,1.089l2.748-1.089l3.426-2.915L39.979,12.815z"/>
		
			<path fill="none" stroke="#494949" stroke-width="1.5" stroke-linecap="round" stroke-linejoin="round" stroke-miterlimit="10" d="
			M7.961,47.244c0,0-1.421,2.841-1.096,3.652l5.356,0.973c0,0,0.831-1.794,1.334-3.346l-2.847-0.633l-2.764-0.615"/>
		
			<path fill="none" stroke="#494949" stroke-width="1.5" stroke-linecap="round" stroke-linejoin="round" stroke-miterlimit="10" d="
			M51.493,48.523c0.505,1.552,1.384,3.346,1.384,3.346l5.355-0.973c0.326-0.813-1.143-3.652-1.143-3.652l0.006,0.021l-2.836,0.629
			l-2.828,0.629"/>
		
			<path fill="none" stroke="#494949" stroke-width="1.5" stroke-linecap="round" stroke-linejoin="round" stroke-miterlimit="10" d="
			M32.319,54.704l-12.367-2.629l-0.213-22.727l-6.183,19.175c-0.503,1.552-1.334,3.346-1.334,3.346l-5.356-0.973
			c-0.325-0.813,1.096-3.652,1.096-3.652l-0.016,0.031L7.8,47.244l8.527-30.699l8.834-3.088l1.186-2.883l3.425,2.915l2.695,1.089
			l0,0c0,0-0.878,34.007,0.203,40.126"/>
		
			<path fill="none" stroke="#494949" stroke-width="1.5" stroke-linecap="round" stroke-linejoin="round" stroke-miterlimit="10" d="
			M32.67,54.704c-1.081-6.119-0.203-40.126-0.203-40.126l0,0l2.748-1.089l3.426-2.915l1.726,2.883l8.294,3.088l8.527,30.699
			l-0.092,0.021l-0.005-0.021c0,0,1.47,2.841,1.142,3.652l-5.354,0.973c0,0-0.879-1.794-1.384-3.346h-0.061l-6.185-19.175
			l-0.214,22.727L32.67,54.704h-0.352"/>
		
			<polygon fill="none" stroke="#494949" stroke-width="1.5" stroke-linecap="round" stroke-linejoin="round" stroke-miterlimit="10" points="
			26.347,10.574 32.319,9.38 32.67,9.38 38.641,10.574 35.215,13.489 32.467,14.578 29.772,13.489 		"/>
	</g>
</g>
</svg>
