<?xml version="1.0" encoding="utf-8"?>
<!-- Generator: Adobe Illustrator 16.0.0, SVG Export Plug-In . SVG Version: 6.00 Build 0)  -->
<!DOCTYPE svg PUBLIC "-//W3C//DTD SVG 1.1//EN" "http://www.w3.org/Graphics/SVG/1.1/DTD/svg11.dtd">
<svg version="1.1" id="Layer_1" xmlns="http://www.w3.org/2000/svg" xmlns:xlink="http://www.w3.org/1999/xlink" x="0px" y="0px"
	 width="64px" height="64px" viewBox="0 0 64 64" enable-background="new 0 0 64 64" xml:space="preserve">
<g id="Men_x2019_s_Blazer">
	<g>
		
			<path fill="none" stroke="#494949" stroke-width="1.5" stroke-linecap="round" stroke-linejoin="round" stroke-miterlimit="10" d="
			M27.43,13.352"/>
		<g>
			
				<path fill="none" stroke="#494949" stroke-width="1.5" stroke-linecap="round" stroke-linejoin="round" stroke-miterlimit="10" d="
				M27.439,13.399"/>
			
				<path fill="none" stroke="#494949" stroke-width="1.5" stroke-linecap="round" stroke-linejoin="round" stroke-miterlimit="10" d="
				M57.787,42.904l1.497,3.986l-6.871,2.952l-1.556-4.101l-6.25-15c0,0-0.029,8.027,0.412,20.632l-9.584,0.854L33.55,52.37
				c-1.145,0-1.083-1.08-1.083-1.08c-0.433,0.955-1.632,0.938-1.632,0.938l-9.661-0.348c-0.374-12.568-0.177-21.052-0.177-21.052
				l-6.125,14.999l-1.616,3.973l-6.891-2.938l1.675-3.961l10.971-26.707l8.388-2.799l1.12-1.118c0,0,2.813-1.591,9.234,0l1.12,1.118
				l8.391,2.799L57.787,42.904z"/>
			
				<path fill="none" stroke="#494949" stroke-width="1.5" stroke-linecap="round" stroke-linejoin="round" stroke-miterlimit="10" d="
				M32.468,51.292L32.432,46c0,0,0.041-4.459,0.216-10.154l5.104-23.563l1.12,1.118l8.391,2.799l10.523,26.707l1.497,3.984
				l-6.871,2.953l-1.556-4.101l-6.25-15c0,0-0.029,8.028,0.412,20.632l-9.584,0.854l-1.886,0.143
				C32.405,52.372,32.468,51.292,32.468,51.292z"/>
			
				<path fill="none" stroke="#494949" stroke-width="1.5" stroke-linecap="round" stroke-linejoin="round" stroke-miterlimit="10" d="
				M32.686,35.712l-4.167-23.431l-1.12,1.118l-8.388,2.799L8.041,42.904l-1.675,3.962l6.891,2.937l1.616-3.973l6.125-14.999
				c0,0-0.197,8.483,0.177,21.052l9.661,0.348c0,0,1.199,0.017,1.632-0.938L32.686,35.712z"/>
			
				<path fill="none" stroke="#494949" stroke-width="1.5" stroke-linecap="round" stroke-linejoin="round" stroke-miterlimit="10" d="
				M37.753,12.281c-6.421-1.591-9.234,0-9.234,0l4.167,23.431l0,0L37.753,12.281z"/>
		</g>
		
			<line fill="none" stroke="#494949" stroke-width="1.5" stroke-linecap="round" stroke-linejoin="round" stroke-miterlimit="10" x1="24.057" y1="42.654" x2="29.949" y2="42.654"/>
		
			<line fill="none" stroke="#494949" stroke-width="1.5" stroke-linecap="round" stroke-linejoin="round" stroke-miterlimit="10" x1="35.553" y1="42.654" x2="41.445" y2="42.654"/>
	</g>
</g>
</svg>
