<?xml version="1.0" encoding="utf-8"?>
<!-- Generator: Adobe Illustrator 16.0.0, SVG Export Plug-In . SVG Version: 6.00 Build 0)  -->
<!DOCTYPE svg PUBLIC "-//W3C//DTD SVG 1.1//EN" "http://www.w3.org/Graphics/SVG/1.1/DTD/svg11.dtd">
<svg version="1.1" id="Layer_1" xmlns="http://www.w3.org/2000/svg" xmlns:xlink="http://www.w3.org/1999/xlink" x="0px" y="0px"
	 width="64px" height="64px" viewBox="0 0 64 64" enable-background="new 0 0 64 64" xml:space="preserve">
<g id="Scarf">
	<g>
		
			<path fill="none" stroke="#494949" stroke-width="1.5" stroke-linecap="round" stroke-linejoin="round" stroke-miterlimit="10" d="
			M24.604,51.678c0,0-0.166,4.995,0.412,5.863"/>
		
			<path fill="none" stroke="#494949" stroke-width="1.5" stroke-linecap="round" stroke-linejoin="round" stroke-miterlimit="10" d="
			M28.436,51.678c0,0,0.496,4.995,1.076,5.863"/>
		
			<path fill="none" stroke="#494949" stroke-width="1.5" stroke-linecap="round" stroke-linejoin="round" stroke-miterlimit="10" d="
			M33.374,51.492c0,0,0.494,4.992,1.071,5.861"/>
		
			<path fill="none" stroke="#494949" stroke-width="1.5" stroke-linecap="round" stroke-linejoin="round" stroke-miterlimit="10" d="
			M36.98,48.561c0,0,0.496,4.996,1.074,5.862"/>
		<g>
			
				<path fill="none" stroke="#494949" stroke-width="1.5" stroke-linecap="round" stroke-linejoin="round" stroke-miterlimit="10" d="
				M31.733,25.042c0,0,6.261-3.863,5.901-8.174c0,0-0.116-5.099-5.819-4.816c0,0-4.066,0.131-4.168,5.462
				c0,0-1.094,8.263,12.28,10.571l-2.409,6.024c0,0-11.379-1.858-15.331-11.712c0,0-4.856-14.512,8.851-15.219
				c0,0,12.485-1.67,12.704,9.977c0,0,0.313,7.565-6.028,10.463"/>
			
				<path fill="none" stroke="#494949" stroke-width="1.5" stroke-linecap="round" stroke-linejoin="round" stroke-miterlimit="10" d="
				M28.705,30.386c1.932,1.339,3.898,2.224,5.482,2.796h0.002c-0.084,5.28,2.791,15.194,2.791,15.194l-3.631,0.165v3.137h-8.752
				c-1.156-14.363,4.109-21.295,4.109-21.295"/>
		</g>
	</g>
</g>
</svg>
