<?xml version="1.0" encoding="utf-8"?>
<!-- Generator: Adobe Illustrator 16.0.0, SVG Export Plug-In . SVG Version: 6.00 Build 0)  -->
<!DOCTYPE svg PUBLIC "-//W3C//DTD SVG 1.1//EN" "http://www.w3.org/Graphics/SVG/1.1/DTD/svg11.dtd">
<svg version="1.1" id="Layer_1" xmlns="http://www.w3.org/2000/svg" xmlns:xlink="http://www.w3.org/1999/xlink" x="0px" y="0px"
	 width="64px" height="64px" viewBox="0 0 64 64" enable-background="new 0 0 64 64" xml:space="preserve">
<g id="Sweater">
	<g>
		<g>
			
				<path fill="none" stroke="#494949" stroke-width="1.5" stroke-linecap="round" stroke-linejoin="round" stroke-miterlimit="10" d="
				M43.889,52.307c0-18.484,0.413-26.85,0.413-26.85l7.677,29.032h7.234L48.432,13.581c-2.324-3.049-3.871-3.617-3.871-3.617
				L37.02,6.865c-2.158,2.845-5.713,4.852-5.713,4.852H31.03c0,0-3.582-2.007-5.714-4.852l-7.541,3.099c0,0-1.546,0.568-3.871,3.617
				L4.684,54.49h7.059l6.294-29.032c0,0,0.41,8.365,0.41,26.849h2.031v2.531h21.309v-2.531H43.889L43.889,52.307z"/>
		</g>
		
			<path fill="none" stroke="#494949" stroke-width="1.5" stroke-linecap="round" stroke-linejoin="round" stroke-miterlimit="10" d="
			M22.747,7.92l2.568-1.056c2.132,2.845,5.714,4.852,5.714,4.852h0.276c0,0,3.554-2.007,5.712-4.852L39.6,7.925
			c-2.85,3.988-8.239,7.076-8.239,7.076h-0.389C30.973,15.001,25.494,12.002,22.747,7.92z"/>
		
			<polygon fill="none" stroke="#494949" stroke-width="1.5" stroke-linecap="round" stroke-linejoin="round" stroke-miterlimit="10" points="
			10.792,54.489 6.18,54.489 5.666,56.807 10.313,56.807 		"/>
		
			<polygon fill="none" stroke="#494949" stroke-width="1.5" stroke-linecap="round" stroke-linejoin="round" stroke-miterlimit="10" points="
			53.223,54.489 57.836,54.489 58.348,56.807 53.701,56.807 		"/>
		
			<rect x="20.478" y="52.307" fill="none" stroke="#494949" stroke-width="1.5" stroke-linecap="round" stroke-linejoin="round" stroke-miterlimit="10" width="21.309" height="2.53"/>
	</g>
</g>
</svg>
