<?xml version="1.0" encoding="utf-8"?>
<!-- Generator: Adobe Illustrator 16.0.0, SVG Export Plug-In . SVG Version: 6.00 Build 0)  -->
<!DOCTYPE svg PUBLIC "-//W3C//DTD SVG 1.1//EN" "http://www.w3.org/Graphics/SVG/1.1/DTD/svg11.dtd">
<svg version="1.1" id="Layer_1" xmlns="http://www.w3.org/2000/svg" xmlns:xlink="http://www.w3.org/1999/xlink" x="0px" y="0px"
	 width="64px" height="64px" viewBox="0 0 64 64" enable-background="new 0 0 64 64" xml:space="preserve">
<g id="T-Shirt">
	<g>
		
			<path fill="none" stroke="#494949" stroke-width="1.5" stroke-linecap="round" stroke-linejoin="round" stroke-miterlimit="10" d="
			M32.975,56.861c6.635,0.113,13.66-0.731,13.66-0.731c0-20.069,0.448-29.151,0.448-29.151l2.69,2.859l7.85-6.613l-6.055-9.139
			c-2.523-3.307-4.205-3.923-4.205-3.923l-8.186-3.365c-2.746,1.963-6.203,1.818-6.203,1.818h-0.301c0,0-3.456,0.145-6.204-1.818
			l-8.186,3.365c0,0-1.682,0.617-4.204,3.923l-6.056,9.139l7.849,6.613l2.69-2.859c0,0,0.449,9.083,0.449,29.151
			c0,0,7.026,0.845,13.661,0.731H32.975z"/>
		
			<path fill="none" stroke="#494949" stroke-width="1.5" stroke-linecap="round" stroke-linejoin="round" stroke-miterlimit="10" d="
			M49.378,11.618c0.618,0.58,1.358,1.377,2.19,2.467l6.055,9.139l-7.85,6.613l-2.69-2.859C46.635,16.16,49.378,11.619,49.378,11.618
			L49.378,11.618z"/>
		
			<path fill="none" stroke="#494949" stroke-width="1.5" stroke-linecap="round" stroke-linejoin="round" stroke-miterlimit="10" d="
			M16.271,11.618c-0.618,0.58-1.358,1.377-2.19,2.467l-6.055,9.139l7.849,6.613l2.69-2.859
			C19.014,16.16,16.271,11.619,16.271,11.618L16.271,11.618z"/>
		
			<path fill="none" stroke="#494949" stroke-width="1.5" stroke-linecap="round" stroke-linejoin="round" stroke-miterlimit="10" d="
			M26.471,6.797c0,0,1.643,5.105,6.204,4.994h0.3c4.562,0.111,6.205-4.994,6.205-4.994l3.85,1.582
			c-0.262,0.948-2.314,7.375-10.004,7.373h-0.401c-7.692,0.003-9.743-6.432-10.002-7.374v0.001L26.471,6.797z"/>
		
			<path fill="none" stroke="#494949" stroke-width="1.5" stroke-linecap="round" stroke-linejoin="round" stroke-miterlimit="10" d="
			M39.18,6.797c0,0-1.644,5.105-6.205,4.994h-0.3c-4.561,0.111-6.204-4.994-6.204-4.994c2.748,1.963,6.204,1.818,6.204,1.818h0.3
			C32.975,8.615,36.434,8.76,39.18,6.797z"/>
	</g>
</g>
</svg>
