<?xml version="1.0" encoding="utf-8"?>
<!-- Generator: Adobe Illustrator 16.0.0, SVG Export Plug-In . SVG Version: 6.00 Build 0)  -->
<!DOCTYPE svg PUBLIC "-//W3C//DTD SVG 1.1//EN" "http://www.w3.org/Graphics/SVG/1.1/DTD/svg11.dtd">
<svg version="1.1" id="Layer_1" xmlns="http://www.w3.org/2000/svg" xmlns:xlink="http://www.w3.org/1999/xlink" x="0px" y="0px"
	 width="64px" height="64px" viewBox="0 0 64 64" enable-background="new 0 0 64 64" xml:space="preserve">
<g id="Tunic_Dress">
	<g>
		
			<path fill="none" stroke="#494949" stroke-width="1.5" stroke-linecap="round" stroke-linejoin="round" stroke-miterlimit="10" d="
			M38.592,8.009c0,0-0.302,1.642-0.656,2.054c-0.354,0.409-0.92,2.17-4.69,2.265c-3.361,0.082-4.648-2.104-4.648-2.104
			s-1.202-1.558-1.448-3.88c0,0-2.553,0.703-3.303,1.065c0,0,1.858,1.638,0.872,7.868c0,0,0.475,1.056,0.838,3.898l0.657,4.371
			c0,0-0.363,0.947-0.438,2.697c0,0-1.458,1.823-4.227,15.519c0,0-1.748,11.657-2.331,13.408c0,0,0.583,0.507,1.967,0.729
			c1.383,0.217,3.351-0.074,3.644,0.506v0.513c0,0,3.57,0.511,4.445,0c0,0,1.53-0.276,2.258,0.228v0.573c0,0,4.371,0.511,4.518-0.29
			c0,0,1.895-0.437,2.258-0.295l4.317-0.417v-0.252l3.806-0.624c0,0-1.875-11.215-2.697-16.793c0,0-1.311-8.854-3.549-13.277
			c0,0,0.162-0.386-0.192-0.82c0,0-0.244-1.531-0.136-1.996l0.901-5.107c0,0,0.601-2.12,0.873-2.308c0,0-1.05-4.833,0.54-8.499
			l-3.635-0.695C38.536,6.344,38.738,7.332,38.592,8.009z"/>
		
			<polygon fill="none" stroke="#494949" stroke-width="1.5" stroke-linecap="round" stroke-linejoin="round" stroke-miterlimit="10" points="
			39.835,24.13 39.089,24.403 38.646,24.213 39.835,23.547 		"/>
		
			<path fill="none" stroke="#494949" stroke-width="1.5" stroke-linecap="round" stroke-linejoin="round" stroke-miterlimit="10" d="
			M25.23,27.385c0.361-0.912,0.545-1.141,0.545-1.141c0.075-1.75,0.438-2.697,0.438-2.697s9.655,0.036,11.074,0.856
			c0,0,0.9-0.547,1.802,0l1.038,11.859l-4.915,3.112l0.778-6.646c-0.493,0.22-4.802,0.787-4.802,0.787l2.313-6.13L25.23,27.385z"/>
		
			<path fill="none" stroke="#494949" stroke-width="1.5" stroke-linecap="round" stroke-linejoin="round" stroke-miterlimit="10" d="
			M33.5,27.387l-2.313,6.128c0,0,4.484-0.621,4.976-0.841l1.123-8.271C35.484,24.403,33.5,27.387,33.5,27.387z"/>
		
			<path fill="none" stroke="#494949" stroke-width="1.5" stroke-linecap="round" stroke-linejoin="round" stroke-miterlimit="10" d="
			M37.287,24.403c0,0,0.9-0.547,1.802,0l1.038,11.859l-4.915,3.112L37.287,24.403z"/>
		
			<path fill="none" stroke="#494949" stroke-width="1.5" stroke-linecap="round" stroke-linejoin="round" stroke-miterlimit="10" d="
			M37.287,24.403c-1.418-0.82-11.074-0.856-11.074-0.856s-0.363,0.947-0.438,2.697c0,0-0.184,0.229-0.545,1.141l8.271,0.002
			C33.5,27.387,35.484,24.403,37.287,24.403z"/>
		
			<path fill="none" stroke="#494949" stroke-width="1.5" stroke-linecap="round" stroke-linejoin="round" stroke-miterlimit="10" d="
			M30.802,23.651c1.541,0.061,3.189,0.156,4.458,0.307c-0.072-3.417,0.284-11.975,0.284-11.975
			c-0.592,0.189-1.342,0.319-2.299,0.344c-0.984,0.022-1.79-0.146-2.438-0.398l0,0C30.807,11.929,31.018,21.507,30.802,23.651z"/>
		
			<circle fill="none" stroke="#494949" stroke-width="1.5" stroke-linecap="round" stroke-linejoin="round" stroke-miterlimit="10" cx="33.073" cy="17.937" r="0.261"/>
		
			<path fill="none" stroke="#494949" stroke-width="1.5" stroke-linecap="round" stroke-linejoin="round" stroke-miterlimit="10" d="
			M33.335,21.598c0,0.147-0.117,0.261-0.26,0.261c-0.144,0-0.263-0.113-0.263-0.261c0-0.145,0.119-0.259,0.263-0.259
			S33.335,21.453,33.335,21.598z"/>
		
			<path fill="none" stroke="#494949" stroke-width="1.5" stroke-linecap="round" stroke-linejoin="round" stroke-miterlimit="10" d="
			M33.335,14.782c0,0.145-0.117,0.263-0.26,0.263c-0.144,0-0.263-0.118-0.263-0.263c0-0.142,0.119-0.261,0.263-0.261
			S33.335,14.641,33.335,14.782z"/>
		
			<path fill="none" stroke="#494949" stroke-width="1.5" stroke-linecap="round" stroke-linejoin="round" stroke-miterlimit="10" d="
			M30.802,23.651c0.215-2.145,0.004-11.723,0.004-11.723l0,0h-0.001c-1.565-0.612-2.209-1.705-2.209-1.705s-1.202-1.558-1.448-3.88
			c0,0-2.553,0.703-3.303,1.065c0,0,1.858,1.638,0.872,7.868c0,0,0.475,1.056,0.838,3.898l0.657,4.371
			C26.213,23.547,28.359,23.554,30.802,23.651z"/>
		
			<path fill="none" stroke="#494949" stroke-width="1.5" stroke-linecap="round" stroke-linejoin="round" stroke-miterlimit="10" d="
			M39.77,23.547l-1.19,0.666l0.001,0.002c-0.73-0.191-1.359,0.188-1.359,0.188c-0.32-0.185-1.064-0.332-2.023-0.445
			c-0.073-3.417,0.281-11.975,0.281-11.975c1.746-0.557,2.129-1.616,2.394-1.921c0.354-0.412,0.655-2.054,0.655-2.054
			c0.146-0.677-0.055-1.665-0.055-1.665l3.633,0.695c-1.588,3.666-0.539,8.499-0.539,8.499c-0.271,0.188-0.871,2.308-0.871,2.308
			l-0.903,5.107C39.754,23.105,39.75,23.258,39.77,23.547z"/>
		
			<path fill="none" stroke="#494949" stroke-width="1.5" stroke-linecap="round" stroke-linejoin="round" stroke-miterlimit="10" d="
			M31.532,27.387v11.55c-1.549,12.697,0,18.207,0,18.207c-0.728-0.504-2.258-0.228-2.258-0.228c-0.875,0.511-4.445,0-4.445,0v-0.513
			v0.513c0,0,0.929-15.251,1.694-22.46l1.122-7.07H31.532z"/>
		
			<path fill="none" stroke="#494949" stroke-width="1.5" stroke-linecap="round" stroke-linejoin="round" stroke-miterlimit="10" d="
			M27.645,27.387l-1.122,7.07c-0.765,7.209-1.694,22.46-1.694,22.46v-0.513c-0.292-0.58-2.26-0.289-3.644-0.506
			c-1.384-0.222-1.967-0.729-1.967-0.729c0.583-1.751,2.331-13.408,2.331-13.408c1.785-8.828,3.024-12.726,3.681-14.378
			L27.645,27.387z"/>
		
			<path fill="none" stroke="#494949" stroke-width="1.5" stroke-linecap="round" stroke-linejoin="round" stroke-miterlimit="10" d="
			M36.05,38.846"/>
		
			<polygon fill="none" stroke="#494949" stroke-width="1.5" stroke-linecap="round" stroke-linejoin="round" stroke-miterlimit="10" points="
			33.5,27.387 31.532,32.605 31.532,27.387 		"/>
		
			<path fill="none" stroke="#494949" stroke-width="1.5" stroke-linecap="round" stroke-linejoin="round" stroke-miterlimit="10" d="
			M36.05,57.428c-0.147,0.801-4.518,0.29-4.518,0.29v-0.573c0,0-1.549-5.51,0-18.207l0.042-5.478
			c1.099-0.153,4.188-0.604,4.59-0.785l-0.952,6.7l0.837-0.529l0.012,0.019C36.061,38.863,36.561,54.055,36.05,57.428z"/>
		
			<path fill="none" stroke="#494949" stroke-width="1.5" stroke-linecap="round" stroke-linejoin="round" stroke-miterlimit="10" d="
			M42.625,56.464v0.252l-4.318,0.417c-0.363-0.142-2.257,0.295-2.257,0.295c0.511-3.373,0.011-18.563,0.011-18.563l3.604-2.308
			c0.323,2.438,1.462,4.601,1.563,7.502C41.23,44.059,41.514,53.316,42.625,56.464z"/>
		
			<path fill="none" stroke="#494949" stroke-width="1.5" stroke-linecap="round" stroke-linejoin="round" stroke-miterlimit="10" d="
			M39.035,23.958l1.092,12.306l-0.461,0.293c0.322,2.438,1.462,4.601,1.564,7.502c0,0,0.283,9.258,1.396,12.405l3.806-0.624
			c0,0-1.875-11.215-2.697-16.793c0,0-1.311-8.854-3.549-13.277c0,0,0.162-0.386-0.192-0.82c0,0-0.126-0.792-0.157-1.408
			L39.035,23.958z"/>
	</g>
</g>
</svg>
