<?xml version="1.0" encoding="utf-8"?>
<!-- Generator: Adobe Illustrator 16.0.0, SVG Export Plug-In . SVG Version: 6.00 Build 0)  -->
<!DOCTYPE svg PUBLIC "-//W3C//DTD SVG 1.1//EN" "http://www.w3.org/Graphics/SVG/1.1/DTD/svg11.dtd">
<svg version="1.1" id="Layer_1" xmlns="http://www.w3.org/2000/svg" xmlns:xlink="http://www.w3.org/1999/xlink" x="0px" y="0px"
	 width="64px" height="64px" viewBox="0 0 64 64" enable-background="new 0 0 64 64" xml:space="preserve">
<g id="Woman_x2019_s_Formal_Coat_x2F_Blazer">
	<g>
		<g>
			
				<path fill="none" stroke="#494949" stroke-width="1.5" stroke-linecap="round" stroke-linejoin="round" stroke-miterlimit="10" d="
				M26.562,13.331"/>
			
				<path fill="none" stroke="#494949" stroke-width="1.5" stroke-linecap="round" stroke-linejoin="round" stroke-miterlimit="10" d="
				M56.91,42.837l1.498,3.983l-6.873,2.955l-1.557-4.102l-6.248-15c0,0-0.029,8.029,0.41,20.633l-9.582,0.854l-1.886,0.141
				c-1.146,0-1.083-1.079-1.083-1.079c-0.434,0.955-1.632,0.938-1.632,0.938l-9.663-0.347c-0.373-12.567-0.176-21.052-0.176-21.052
				l-6.125,15l-1.616,3.973l-6.892-2.938l1.676-3.96l10.97-26.706l8.39-2.8l1.119-1.118c0,0,2.813-1.591,9.234,0l1.12,1.118
				l8.392,2.8L56.91,42.837z"/>
			
				<path fill="none" stroke="#494949" stroke-width="1.5" stroke-linecap="round" stroke-linejoin="round" stroke-miterlimit="10" d="
				M34.377,36.622c0,0.133-0.107,0.241-0.238,0.241c-0.135,0-0.24-0.108-0.24-0.241c0-0.13,0.105-0.237,0.24-0.237
				C34.27,36.385,34.377,36.492,34.377,36.622z"/>
			
				<circle fill="none" stroke="#494949" stroke-width="1.5" stroke-linecap="round" stroke-linejoin="round" stroke-miterlimit="10" cx="33.896" cy="43.77" r="0.241"/>
			
				<polygon fill="none" stroke="#494949" stroke-width="1.5" stroke-linecap="round" stroke-linejoin="round" stroke-miterlimit="10" points="
				49.979,45.674 51.535,49.775 58.408,46.82 56.957,42.947 			"/>
			
				<polygon fill="none" stroke="#494949" stroke-width="1.5" stroke-linecap="round" stroke-linejoin="round" stroke-miterlimit="10" points="
				7.163,42.837 5.487,46.797 12.379,49.734 13.995,45.762 			"/>
			
				<path fill="none" stroke="#494949" stroke-width="1.5" stroke-linecap="round" stroke-linejoin="round" stroke-miterlimit="10" d="
				M31.591,51.223l-0.036-5.291c0,0,0.041-4.459,0.217-10.154l5.104-23.564l1.12,1.118l8.391,2.8L56.91,42.837l1.498,3.983
				l-6.873,2.955l-1.557-4.102l-6.248-15c0,0-0.029,8.029,0.41,20.633l-9.582,0.854l-1.886,0.141
				C31.527,52.303,31.591,51.223,31.591,51.223z"/>
			
				<path fill="none" stroke="#494949" stroke-width="1.5" stroke-linecap="round" stroke-linejoin="round" stroke-miterlimit="10" d="
				M31.771,35.777c1.358-5.238,8.159-11.062,8.159-11.062l-1.398-1.291l2.8-1.775l-3.335-8.319l-1.12-1.118L31.771,35.777z"/>
			
				<path fill="none" stroke="#494949" stroke-width="1.5" stroke-linecap="round" stroke-linejoin="round" stroke-miterlimit="10" d="
				M27.642,12.212l-1.119,1.118l-3.984,8.319l2.8,1.775l-1.401,1.291c0,0,6.512,5.69,7.871,10.928L27.642,12.212z"/>
			
				<path fill="none" stroke="#494949" stroke-width="1.5" stroke-linecap="round" stroke-linejoin="round" stroke-miterlimit="10" d="
				M31.808,35.645l-4.166-23.433l-1.119,1.118l-8.39,2.8L7.163,42.837l-1.676,3.96l6.892,2.938l1.616-3.973l6.125-15
				c0,0-0.197,8.485,0.176,21.052l9.663,0.347c0,0,1.198,0.017,1.632-0.938L31.808,35.645z"/>
		</g>
		
			<path fill="none" stroke="#494949" stroke-width="1.5" stroke-linecap="round" stroke-linejoin="round" stroke-miterlimit="10" d="
			M36.876,12.212c-6.421-1.591-9.234,0-9.234,0l4.166,23.433l-0.036,0.133L36.876,12.212z"/>
	</g>
</g>
</svg>
