<?xml version="1.0" encoding="utf-8"?>
<!-- Generator: Adobe Illustrator 16.0.0, SVG Export Plug-In . SVG Version: 6.00 Build 0)  -->
<!DOCTYPE svg PUBLIC "-//W3C//DTD SVG 1.1//EN" "http://www.w3.org/Graphics/SVG/1.1/DTD/svg11.dtd">
<svg version="1.1" id="Layer_1" xmlns="http://www.w3.org/2000/svg" xmlns:xlink="http://www.w3.org/1999/xlink" x="0px" y="0px"
	 width="64px" height="64px" viewBox="0 0 64 64" enable-background="new 0 0 64 64" xml:space="preserve">
<g id="Woman_x2019_s_Pant">
	<g id="_x34_63">
		
			<path fill="none" stroke="#494949" stroke-width="1.5" stroke-linecap="round" stroke-linejoin="round" stroke-miterlimit="10" d="
			M39.527,9.274l0.457,1.83c3.203,6.164,1.685,14.253,1.685,14.253c-0.401,4.163,0.479,7.847,0.479,7.847
			c2.723,6.485,2.324,20.896,2.324,20.896l-6.283,1.125c-0.891-2.345-1.088-9.289-1.088-9.289c-0.158-4.484-1.681-10.17-1.681-10.17
			c-0.8-7.208-2.98-12.826-2.98-12.826l-0.202,0.009c0,0-2.092,5.609-2.894,12.816c0,0-1.52,5.686-1.68,10.17
			c0,0-0.099,7.25-0.907,9.289l-6.101-1.142L20.626,54.1c0,0-0.401-14.41,2.321-20.896c0,0,0.881-3.684,0.48-7.847
			c0,0-1.523-8.089,1.682-14.253l0.457-1.83h-0.004c2.068,2.229,6.234,2.229,6.776,2.229C37.8,11.104,39.527,9.274,39.527,9.274z"/>
	</g>
</g>
</svg>
