<?xml version="1.0" encoding="utf-8"?>
<!-- Generator: Adobe Illustrator 16.0.0, SVG Export Plug-In . SVG Version: 6.00 Build 0)  -->
<!DOCTYPE svg PUBLIC "-//W3C//DTD SVG 1.1//EN" "http://www.w3.org/Graphics/SVG/1.1/DTD/svg11.dtd">
<svg version="1.1" id="Layer_1" xmlns="http://www.w3.org/2000/svg" xmlns:xlink="http://www.w3.org/1999/xlink" x="0px" y="0px"
	 width="64px" height="64px" viewBox="0 0 64 64" enable-background="new 0 0 64 64" xml:space="preserve">
<g id="Woman_x2019_s_Top">
	<g>
		
			<path fill="none" stroke="#494949" stroke-width="1.5" stroke-linecap="round" stroke-linejoin="round" stroke-miterlimit="10" d="
			M22.007,16.363c0,0-0.562,5.513-4.403,6.514c0,0,3.173,3.008,2.004,9.02c0,0-5.01,14.694-4.51,20.039c0,0-0.303,2.977-1.472,5.146
			c0,0,0.791,1.033,3.971,0.53c3.18-0.498,5.018,1.505,7.188,0.837c2.17-0.667,1.838-0.394,4.843,0.139
			c3.007,0.529,2.171,0.638,5.345,0c3.172-0.642,4.51-0.305,7.016-0.305c2.503,0,3.688-0.038,5.359-0.873
			c1.668-0.832,2.924-1.023,2.924-1.023l-1.772-4.782c0,0,0.669-7.015-4.677-19.875c0,0-1.668-4.842,2.006-8.851
			c0,0-3.674-4.175-4.51-6.514l-5.01,2.674c0,0-0.146,1.816-4.218,2.315c0,0-3.675-0.101-4.113-2.168L22.007,16.363z"/>
		
			<path fill="none" stroke="#494949" stroke-width="1.5" stroke-linecap="round" stroke-linejoin="round" stroke-miterlimit="10" d="
			M19.862,29.558c0.091-4.453-2.259-6.681-2.259-6.681c3.842-1.001,4.403-6.514,4.403-6.514l5.97,2.821
			c0.438,2.067,4.113,2.168,4.113,2.168c4.071-0.499,4.218-2.315,4.218-2.315l5.01-2.674c0.836,2.339,4.51,6.514,4.51,6.514
			c-2.12,2.312-2.46,4.899-2.37,6.679c0,0-0.281,3.569-6.157,4.325c0,0-1.561,0.193-3.229-0.398c-1.823-0.89-4.575-0.09-4.575-0.09
			c-1.759,0.703-3.47,0.488-3.47,0.488C20.148,33.125,19.862,29.558,19.862,29.558z"/>
		
			<path fill="none" stroke="#494949" stroke-width="1.5" stroke-linecap="round" stroke-linejoin="round" stroke-miterlimit="10" d="
			M48.497,51.604l1.772,4.782c0,0-1.256,0.191-2.924,1.023c-1.672,0.835-2.857,0.873-5.359,0.873c-2.506,0-3.844-0.337-7.016,0.305
			c-3.174,0.638-2.338,0.529-5.345,0c-3.005-0.532-2.673-0.806-4.843-0.139c-2.17,0.668-4.008-1.335-7.188-0.837
			c-3.18,0.503-3.971-0.53-3.971-0.53c1.169-2.17,1.472-5.146,1.472-5.146s6.78,2.32,11.224,0.821
			c3.109-1.049,4.81,0.515,6.14,0.765c0,0,2.134,0.877,5.363,0c3.229-0.879,6.307,0.319,8.489-0.801
			C48.497,51.604,48.497,51.604,48.497,51.604z"/>
		
			<path fill="none" stroke="#494949" stroke-width="1.5" stroke-linecap="round" stroke-linejoin="round" stroke-miterlimit="10" d="
			M37.895,18.19l2.883-1.539c0,0,2.068-11.33-0.061-10.891c-2.13,0.439-2.715,3.49-2.893,12.267L37.895,18.19z"/>
		
			<path fill="none" stroke="#494949" stroke-width="1.5" stroke-linecap="round" stroke-linejoin="round" stroke-miterlimit="10" d="
			M25.524,18.025l-2.893-1.366H22.63c0,0-2.125-11.338,0.004-10.898c2.128,0.439,2.715,3.49,2.892,12.267L25.524,18.025z"/>
	</g>
</g>
</svg>
