<?xml version="1.0" encoding="utf-8"?>
<!-- Generator: Adobe Illustrator 16.0.0, SVG Export Plug-In . SVG Version: 6.00 Build 0)  -->
<!DOCTYPE svg PUBLIC "-//W3C//DTD SVG 1.1//EN" "http://www.w3.org/Graphics/SVG/1.1/DTD/svg11.dtd">
<svg version="1.1" id="Layer_1" xmlns="http://www.w3.org/2000/svg" xmlns:xlink="http://www.w3.org/1999/xlink" x="0px" y="0px"
	 width="64px" height="64px" viewBox="0 0 64 64" enable-background="new 0 0 64 64" xml:space="preserve">
<g id="Woman_x2019_s_Coat">
	<g>
		
			<path fill="none" stroke="#494949" stroke-width="1.5" stroke-linecap="round" stroke-linejoin="round" stroke-miterlimit="10" d="
			M32.782,49.572c-0.517,1.979-1.192,2.685-1.192,2.685l-0.331,0.089c-5.139,0.735-12.739-4.813-12.739-4.813
			c4.982-13.315,1.444-21.089,1.444-21.089l-6.621,16.97c-4.767,0.769-6.491-3.491-6.491-3.491l9.886-23.853l10.649-3.099
			l1.098-1.099c2.12,1.412,4.473,1.491,4.473,1.491h0.127c0,0,2.353-0.079,4.474-1.491l1.099,1.099l10.258,3.099l9.883,23.853
			c0,0-1.624,3.551-6.097,3.491l-6.739-16.108c0,0-3.5,9.563,0.562,20.731c0,0-7.779,5.124-12.049,4.38
			C34.473,52.415,33.404,52.259,32.782,49.572L32.782,49.572z"/>
		
			<path fill="none" stroke="#494949" stroke-width="1.5" stroke-linecap="round" stroke-linejoin="round" stroke-miterlimit="10" d="
			M32.782,49.572c0.624,2.687,1.69,2.843,1.69,2.843c4.271,0.744,12.049-4.38,12.049-4.38c-4.061-11.168-0.561-20.731-0.561-20.731
			L52.7,43.412c4.474,0.061,6.097-3.491,6.097-3.491l-9.883-23.853L38.656,12.97l-1.1-1.099c0.862,9.338-4.211,20.558-4.211,20.558
			c-0.093,0.29-0.176,0.606-0.252,0.94c-0.974,4.26-0.763,11.611-0.763,11.611C32.332,46.943,32.534,48.506,32.782,49.572z"/>
		
			<path fill="none" stroke="#494949" stroke-width="1.5" stroke-linecap="round" stroke-linejoin="round" stroke-miterlimit="10" d="
			M33.346,32.429c-0.093,0.29-0.176,0.606-0.252,0.94c-6.876-3.258-10.173-12.895-10.173-12.895l1.724-0.394
			c0,0-1.029-2.32,1.923-6.873l0.819-0.238l1.098-1.099C28.484,11.871,27.456,25.289,33.346,32.429z"/>
		
			<path fill="none" stroke="#494949" stroke-width="1.5" stroke-linecap="round" stroke-linejoin="round" stroke-miterlimit="10" d="
			M37.557,11.871c0.862,9.338-4.211,20.558-4.211,20.558c-0.093,0.29-0.176,0.606-0.252,0.94c6.313-4.386,9.682-12.895,9.682-12.895
			l-1.725-0.394c0,0,1.1-2.394-1.851-6.948l-0.543-0.163L37.557,11.871z"/>
		
			<path fill="none" stroke="#494949" stroke-width="1.5" stroke-linecap="round" stroke-linejoin="round" stroke-miterlimit="10" d="
			M33.346,32.429c-5.89-7.14-4.862-20.558-4.862-20.558l-1.098,1.099l-10.649,3.099L6.852,39.921c0,0,1.724,4.261,6.491,3.491
			l6.621-16.97c0,0,3.538,7.773-1.444,21.089c0,0,7.601,5.55,12.739,4.814l0.331-0.09c0,0,0.675-0.705,1.192-2.686
			c-0.248-1.065-0.45-2.629-0.451-4.59c0,0-0.21-7.354,0.763-11.612C33.17,33.035,33.253,32.719,33.346,32.429z"/>
		
			<path fill="none" stroke="#494949" stroke-width="1.5" stroke-linecap="round" stroke-linejoin="round" stroke-miterlimit="10" d="
			M28.484,11.871c0,0-1.028,13.418,4.862,20.558c0,0,5.073-11.22,4.211-20.558c-2.119,1.412-4.473,1.491-4.473,1.491h-0.127
			C32.957,13.362,30.604,13.283,28.484,11.871z"/>
	</g>
</g>
</svg>
