<?xml version="1.0" encoding="utf-8"?>
<!-- Generator: Adobe Illustrator 16.0.0, SVG Export Plug-In . SVG Version: 6.00 Build 0)  -->
<!DOCTYPE svg PUBLIC "-//W3C//DTD SVG 1.1//EN" "http://www.w3.org/Graphics/SVG/1.1/DTD/svg11.dtd">
<svg version="1.1" id="Layer_1" xmlns="http://www.w3.org/2000/svg" xmlns:xlink="http://www.w3.org/1999/xlink" x="0px" y="0px"
	 width="64px" height="64px" viewBox="0 0 64 64" enable-background="new 0 0 64 64" xml:space="preserve">
<g id="Woman_x2019_s_Shirt">
	<g>
		
			<path fill="none" stroke="#494949" stroke-width="1.5" stroke-linecap="round" stroke-linejoin="round" stroke-miterlimit="10" d="
			M57.508,46.645c0,0,0.639,1.795,1.094,3.652l-5.732,0.975c0,0-0.602-1.793-1.102-3.346h0.006L45.59,28.749l0.901,22.521
			c-2.767,3.541-13.655,3.691-13.655,3.691C21.12,55.32,19.261,51.27,19.261,51.27l0.821-22.521l-6.184,19.176
			c-0.501,1.552-1.104,3.345-1.104,3.345l-5.748-0.974c0.455-1.856,1.095-3.651,1.095-3.651l8.528-30.702l8.833-3.084l1.185-2.883
			c0,0,5.616-2.596,12.836,0l1.181,2.883L49,15.943l8.527,30.702H57.508L57.508,46.645z"/>
		
			<path fill="none" stroke="#494949" stroke-width="1.5" stroke-linecap="round" stroke-linejoin="round" stroke-miterlimit="10" d="
			M26.689,9.977c0,0,5.616-2.596,12.836,0L36.1,14.041l-1.535,0.784l0.156,1.632l-1.563,4.122l-2.059-4.122l0.013-1.632
			l-0.995-0.784L26.689,9.977z"/>
		
			<path fill="none" stroke="#494949" stroke-width="1.5" stroke-linecap="round" stroke-linejoin="round" stroke-miterlimit="10" d="
			M34.76,45.18c0,0.096-0.08,0.178-0.178,0.178c-0.1,0-0.18-0.082-0.18-0.178c0-0.102,0.08-0.181,0.18-0.181
			C34.68,45,34.76,45.078,34.76,45.18z"/>
		
			<path fill="none" stroke="#494949" stroke-width="1.5" stroke-linecap="round" stroke-linejoin="round" stroke-miterlimit="10" d="
			M34.831,38.713c0,0.098-0.078,0.178-0.179,0.178c-0.098,0-0.178-0.08-0.178-0.178c0-0.102,0.08-0.179,0.178-0.179
			C34.753,38.535,34.831,38.611,34.831,38.713z"/>
		
			<circle fill="none" stroke="#494949" stroke-width="1.5" stroke-linecap="round" stroke-linejoin="round" stroke-miterlimit="10" cx="34.725" cy="33.135" r="0.179"/>
		
			<path fill="none" stroke="#494949" stroke-width="1.5" stroke-linecap="round" stroke-linejoin="round" stroke-miterlimit="10" d="
			M35.152,26.67c0,0.096-0.079,0.177-0.178,0.177c-0.098,0-0.18-0.081-0.18-0.177c0-0.101,0.082-0.181,0.18-0.181
			C35.073,26.49,35.152,26.569,35.152,26.67z"/>
		
			<path fill="none" stroke="#494949" stroke-width="1.5" stroke-linecap="round" stroke-linejoin="round" stroke-miterlimit="10" d="
			M35.509,20.631c0,0.099-0.079,0.179-0.178,0.179s-0.179-0.081-0.179-0.179c0-0.102,0.08-0.178,0.179-0.178
			S35.509,20.529,35.509,20.631z"/>
		
			<path fill="none" stroke="#494949" stroke-width="1.5" stroke-linecap="round" stroke-linejoin="round" stroke-miterlimit="10" d="
			M13.899,47.925c-0.501,1.552-1.104,3.345-1.104,3.345l-5.748-0.974c0.455-1.856,1.095-3.651,1.095-3.651L13.899,47.925z"/>
		
			<path fill="none" stroke="#494949" stroke-width="1.5" stroke-linecap="round" stroke-linejoin="round" stroke-miterlimit="10" d="
			M51.768,47.925c0.5,1.552,1.102,3.345,1.102,3.345l5.732-0.974c-0.455-1.856-1.094-3.651-1.094-3.651L51.768,47.925z"/>
		
			<polygon fill="none" stroke="#494949" stroke-width="1.5" stroke-linecap="round" stroke-linejoin="round" stroke-miterlimit="10" points="
			26.689,9.977 25.504,12.86 27.977,19.703 30.116,14.041 		"/>
		
			<polygon fill="none" stroke="#494949" stroke-width="1.5" stroke-linecap="round" stroke-linejoin="round" stroke-miterlimit="10" points="
			39.525,9.977 40.712,12.86 38.24,19.703 36.1,14.041 		"/>
		
			<path fill="none" stroke="#494949" stroke-width="1.5" stroke-linecap="round" stroke-linejoin="round" stroke-miterlimit="10" d="
			M33.311,54.949c2.121-0.078,10.76-0.58,13.182-3.678L45.59,28.749l6.184,19.176h-0.006c0.5,1.552,1.102,3.345,1.102,3.345
			l5.732-0.974c-0.455-1.856-1.094-3.651-1.094-3.651h0.021l-8.527-30.702l-8.296-3.084l-1.181-2.883L36.1,14.041l-1.535,0.784
			l0.156,1.632l-1.563,4.122C33.156,20.579,32.228,48.828,33.311,54.949z"/>
		
			<path fill="none" stroke="#494949" stroke-width="1.5" stroke-linecap="round" stroke-linejoin="round" stroke-miterlimit="10" d="
			M33.311,54.949c-1.083-6.121-0.153-34.37-0.153-34.37l-2.059-4.122l0.013-1.632l-0.995-0.784L26.69,9.977l-1.185,2.883
			l-8.833,3.084L8.143,46.645c0,0-0.641,1.795-1.095,3.652l5.748,0.975c0,0,0.603-1.793,1.104-3.346l6.184-19.176l-0.821,22.521
			c0,0,1.859,4.049,13.575,3.69C32.836,54.961,32.855,54.968,33.311,54.949z"/>
		
			<path fill="none" stroke="#494949" stroke-width="1.5" stroke-linecap="round" stroke-linejoin="round" stroke-miterlimit="10" d="
			M39.525,9.977c-7.22-2.596-12.836,0-12.836,0l1.38,1.636c1.898-0.544,5.592-1.204,10.044,0.034L39.525,9.977z"/>
	</g>
</g>
</svg>
