<?xml version="1.0" encoding="utf-8"?>
<!-- Generator: Adobe Illustrator 16.0.0, SVG Export Plug-In . SVG Version: 6.00 Build 0)  -->
<!DOCTYPE svg PUBLIC "-//W3C//DTD SVG 1.1//EN" "http://www.w3.org/Graphics/SVG/1.1/DTD/svg11.dtd">
<svg version="1.1" id="Layer_1" xmlns="http://www.w3.org/2000/svg" xmlns:xlink="http://www.w3.org/1999/xlink" x="0px" y="0px"
	 width="64px" height="64px" viewBox="0 0 64 64" enable-background="new 0 0 64 64" xml:space="preserve">
<g id="Woman_x2019_s_Collared_T-shirt">
	<g>
		<g>
			
				<path fill="none" stroke="#494949" stroke-width="1.5" stroke-linecap="round" stroke-linejoin="round" stroke-miterlimit="10" d="
				M44.273,37.557c0,0,4.056,6.284,2.588,17.575c-16.953,4.89-28.886-0.069-28.886-0.069c-1.869-10.033,2.115-15.975,3.071-18.656
				c0.958-2.684-0.72-5.509-0.72-5.509c-2.097-2.751-1.322-6.399-1.322-6.399c0.11-1.139,0.11-2.055,0.11-2.055l-0.802,2.055
				c0,0-4.787,0.456-6.382-0.911c0.456-3.192,2.283-9.011,2.62-10.035c0.346-1.03,1.141-1.821,2.511-2.624
				c1.373-0.795,2.737-1.252,3.876-1.366c1.145-0.115,2.053,0,2.627-0.569c0.572-0.571,1.71-2.057,1.71-2.057
				s1.684,3.281,2.485,3.965c0.795,0.688,3.901,1.969,6.067,1.509c2.163-0.455,3.759-1.481,4.218-2.392
				c0.457-0.91,0.567-2.509,0.567-2.509l2.056,1.709c0,0,2.394,0.344,3.88,0.344c1.48,0,4.219,0.685,4.674,2.513
				c0.455,1.818,2.623,11.396,2.738,11.968c0.109,0.573-2.738,2.054-5.59,1.599C45.46,25.3,45.46,25.3,45.46,25.3
				s-0.474-2.446-0.366-0.83c0.016,0.193,0.258,0.956,0.215,1.59c0,0,0.135,2.633-1.681,5.173
				C42.189,33.245,44.273,37.557,44.273,37.557z"/>
		</g>
		
			<rect x="31.948" y="12.695" fill="none" stroke="#494949" stroke-width="1.5" stroke-linecap="round" stroke-linejoin="round" stroke-miterlimit="10" width="1.981" height="10.347"/>
		
			<path fill="none" stroke="#494949" stroke-width="1.5" stroke-linecap="round" stroke-linejoin="round" stroke-miterlimit="10" d="
			M40.669,9.217c0,0,0.731,4.054-4.438,6.354c0,0-0.189-3.331-3.162-2.875h-1.119c-2.555-0.573-2.902,2.875-2.902,2.875
			c-4.6-1.868-5.258-6.813-5.258-6.813l1.487-1.822c0,0,1.684,3.281,2.485,3.965c0.795,0.688,3.901,1.969,6.067,1.509
			c2.163-0.455,3.759-1.481,4.218-2.392c0.457-0.91,0.567-2.509,0.567-2.509L40.669,9.217z"/>
		
			<path fill="none" stroke="#494949" stroke-width="1.5" stroke-linecap="round" stroke-linejoin="round" stroke-miterlimit="10" d="
			M33.828,12.408c2.163-0.455,3.759-1.481,4.218-2.392c0.457-0.91,0.567-2.509,0.567-2.509l2.056,1.709c0,0,0.731,4.054-4.438,6.354
			c0,0-0.189-3.331-3.162-2.875V12.5L33.828,12.408z"/>
		
			<path fill="none" stroke="#494949" stroke-width="1.5" stroke-linecap="round" stroke-linejoin="round" stroke-miterlimit="10" d="
			M31.948,12.695c-2.555-0.573-2.902,2.875-2.902,2.875c-4.6-1.868-5.258-6.813-5.258-6.813l1.487-1.822
			c0,0,1.684,3.281,2.485,3.965c0.596,0.516,2.485,1.36,4.307,1.563L31.948,12.695z"/>
	</g>
</g>
</svg>
