<?xml version="1.0" encoding="utf-8"?>
<!-- Generator: Adobe Illustrator 16.0.0, SVG Export Plug-In . SVG Version: 6.00 Build 0)  -->
<!DOCTYPE svg PUBLIC "-//W3C//DTD SVG 1.1//EN" "http://www.w3.org/Graphics/SVG/1.1/DTD/svg11.dtd">
<svg version="1.1" id="Layer_1" xmlns="http://www.w3.org/2000/svg" xmlns:xlink="http://www.w3.org/1999/xlink" x="0px" y="0px"
	 width="64px" height="64px" viewBox="0 0 64 64" enable-background="new 0 0 64 64" xml:space="preserve">
<g id="Woman_x2019_s_Jeans">
	<g>
		
			<path fill="none" stroke="#494949" stroke-width="1.5" stroke-linecap="round" stroke-linejoin="round" stroke-miterlimit="10" d="
			M25.759,7.043L25,9.187c0,0-0.318,0.306-0.734,1.105c-0.6,1.15-1.403,3.319-1.751,7.059c-0.185,1.978-0.242,4.396-0.076,7.333
			c0,0,0.734,5.943-0.099,8.505c0,0-0.965,2.246-1.052,5.652c0,0-1.225,4.152-1.093,7.08c0,0-0.875,4.021-0.57,9.921
			c0,0,1.957,2.064,6.775,1.355c0,0,0.239-0.552,0.335-2.181c0,0,0.202-1.181,0.714-8.834l1.659-9.613
			c0,0,3.058-10.052,3.758-14.681c0,0,2.444,6.203,3.321,14.067c0,0,1.66,6.207,1.838,11.101c0,0-0.088,9.004,1.572,10.142
			c0,0,3.154,1.092,6.469-1.228c0,0,0.438-15.729-2.537-22.811c0,0-0.959-4.021-0.521-8.565c0,0,1.658-8.826-1.838-15.559
			l-0.498-1.994c0,0-1.886,1.994-7.848,2.434C32.825,9.477,28.016,9.471,25.759,7.043z"/>
		
			<circle fill="none" stroke="#494949" stroke-width="1.5" stroke-linecap="round" stroke-linejoin="round" stroke-miterlimit="10" cx="34.613" cy="11.348" r="0.079"/>
		
			<path fill="none" stroke="#494949" stroke-width="1.5" stroke-linecap="round" stroke-linejoin="round" stroke-miterlimit="10" d="
			M32.867,21.89c0-0.532,0-0.665-0.042-1.521"/>
		
			<path fill="none" stroke="#494949" stroke-width="1.5" stroke-linecap="round" stroke-linejoin="round" stroke-miterlimit="10" d="
			M24.254,10.313C24.676,9.498,25,9.187,25,9.187l0.759-2.144c2.257,2.428,7.066,2.434,7.066,2.434
			c5.962-0.439,7.848-2.434,7.848-2.434l0.498,1.994c0.22,0.421,0.417,0.85,0.597,1.283c-0.791,1.53-4.102,2.4-6.475,2.842
			c-1.425,0.263-2.512,0.37-2.512,0.37c-2.208-0.178-3.847-0.506-5.063-0.889C24.57,11.658,24.254,10.313,24.254,10.313z"/>
		
			<path fill="none" stroke="#494949" stroke-width="1.5" stroke-linecap="round" stroke-linejoin="round" stroke-miterlimit="10" d="
			M35.292,13.162c-1.425,0.263-2.467,0.359-2.467,0.359c0,1.601,0.022,4.504,0,6.848C36.827,20.369,35.292,13.162,35.292,13.162z"/>
		
			<line fill="none" stroke="#494949" stroke-width="1.5" stroke-linecap="round" stroke-linejoin="round" stroke-miterlimit="10" x1="32.825" y1="9.468" x2="32.825" y2="13.521"/>
		
			<path fill="none" stroke="#494949" stroke-width="1.5" stroke-linecap="round" stroke-linejoin="round" stroke-miterlimit="10" d="
			M27.717,12.644c-3.146-0.985-3.463-2.33-3.463-2.33l0.011-0.021c-0.6,1.15-1.403,3.319-1.751,7.059
			c4.676,1.751,5.205-4.705,5.205-4.705L27.717,12.644z"/>
		
			<path fill="none" stroke="#494949" stroke-width="1.5" stroke-linecap="round" stroke-linejoin="round" stroke-miterlimit="10" d="
			M38.087,12.498c3.2-0.974,3.681-2.178,3.681-2.178l-0.012-0.02c0.6,1.149,1.275,3.231,1.569,7.094
			C38.648,19.148,38.087,12.498,38.087,12.498z"/>
	</g>
</g>
</svg>
