<?xml version="1.0" encoding="utf-8"?>
<!-- Generator: Adobe Illustrator 16.0.0, SVG Export Plug-In . SVG Version: 6.00 Build 0)  -->
<!DOCTYPE svg PUBLIC "-//W3C//DTD SVG 1.1//EN" "http://www.w3.org/Graphics/SVG/1.1/DTD/svg11.dtd">
<svg version="1.1" id="Layer_1" xmlns="http://www.w3.org/2000/svg" xmlns:xlink="http://www.w3.org/1999/xlink" x="0px" y="0px"
	 width="64px" height="64px" viewBox="0 0 64 64" enable-background="new 0 0 64 64" xml:space="preserve">
<g id="Woman_x2019_s_Dress">
	<g>
		
			<path fill="none" stroke="#494949" stroke-width="1.5" stroke-linecap="round" stroke-linejoin="round" stroke-miterlimit="10" d="
			M39.691,25.649c0,0,0.16-0.382-0.194-0.819c0,0-0.244-1.529-0.138-1.994l0.902-5.108c0,0,0.604-2.119,0.875-2.309
			c0,0-1.092-4.524,0.383-8.131l-0.574-0.543l-2.904-0.52c0,0,0.202,0.987,0.057,1.664c0,0-0.301,1.642-0.656,2.054
			c-0.354,0.407-0.92,2.171-4.689,2.267c-3.361,0.08-4.649-2.105-4.649-2.105s-1.202-1.559-1.448-3.879l-2.072,0.626
			c0,0-0.739-0.274-1.23,0.437c0,0,1.858,1.64,0.872,7.87c0,0,0.475,1.055,0.839,3.898l0.657,4.371c0,0-0.365,0.947-0.437,2.695
			l-1.849,5.219c0,0,2.354,4.613,5.229,3.176c2.874-1.438,2.901,2.564,6.479,0.274c3.58-2.286,4.365,1.288,7.277-2.801
			L39.691,25.649z"/>
		
			<path fill="none" stroke="#494949" stroke-width="1.5" stroke-linecap="round" stroke-linejoin="round" stroke-miterlimit="10" d="
			M48.766,47.244c0,0,5.186,5.574,2.313,7.631l-7.523,1.482v0.291l-4.998,0.483c-0.425-0.164-2.615,0.343-2.615,0.343
			c-0.17,0.928-5.229,0.336-5.229,0.336v-0.666c-0.843-0.584-2.612-0.263-2.612-0.263c-1.011,0.593-5.145,0-5.145,0V56.29
			c-0.339-0.671-3.964-0.663-5.565-0.914c-1.601-0.256-2.275-0.844-2.275-0.844c-4.925-1.896,0.976-9.023,0.976-9.023l0.355-0.282
			c0.033-2.895,3.685-6.187,3.685-6.187l0,0c-0.491-2.997,2.929-7.757,2.929-7.757c0.08-0.114,0.375,0.059,0.375,0.059l1.849-5.219
			c0.071-1.748,0.437-2.695,0.437-2.695l-0.657-4.371c-0.364-2.844-0.839-3.898-0.839-3.898c0.986-6.23-0.872-7.87-0.872-7.87
			c0.491-0.711,1.23-0.437,1.23-0.437l2.072-0.626c0.246,2.32,1.448,3.879,1.448,3.879s1.288,2.186,4.649,2.105
			c3.771-0.096,4.336-1.859,4.69-2.267c0.354-0.412,0.654-2.054,0.654-2.054c0.146-0.677-0.056-1.664-0.056-1.664l2.905,0.52
			l0.574,0.543c-1.476,3.606-0.385,8.131-0.385,8.131c-0.271,0.189-0.873,2.309-0.873,2.309l-0.902,5.108
			c-0.107,0.465,0.137,1.994,0.137,1.994c0.355,0.438,0.193,0.819,0.193,0.819l2.729,6.342c0,0,4.746,4.68,3.372,7.231
			c0,0,3.29,2.531,3.204,7.182c-0.008,0.337-0.076,0.596-0.199,0.797L48.766,47.244z"/>
		
			<path fill="none" stroke="#494949" stroke-width="1.5" stroke-linecap="round" stroke-linejoin="round" stroke-miterlimit="10" d="
			M23.434,31.342c0,0,2.354,4.613,5.229,3.176c2.874-1.438,2.901,2.564,6.479,0.274c3.578-2.286,4.364,1.288,7.276-2.801
			c0,0,5.841,5.759,2.688,7.985c-1.649,1.164-3.127,0.408-5.301,1.328c-2.178,0.922-1.406,0.41-4.373,1.024
			c-2.969,0.614-2.252,0.307-3.581,0.307c-1.329,0-2.457,0.41-4.195,0c-1.739-0.409-0.68-0.69-2.725-0.69
			c-2.048,0-3.312-0.944-3.312-0.944c-4.166-1.923,1.437-9.718,1.437-9.718L23.434,31.342z"/>
		
			<path fill="none" stroke="#494949" stroke-width="1.5" stroke-linecap="round" stroke-linejoin="round" stroke-miterlimit="10" d="
			M20.13,39.04c0.163,0.774,0.634,1.563,1.492,1.961c0,0,1.264,0.944,3.312,0.944c2.045,0,0.985,0.281,2.725,0.69
			c1.738,0.41,2.866,0,4.195,0c1.33,0,0.612,0.308,3.58-0.307c2.967-0.614,2.196-0.103,4.373-1.024
			c2.174-0.92,3.651-0.164,5.301-1.328c0.312-0.22,0.535-0.475,0.685-0.754c0,0,3.319,2.678,3.204,7.182
			c-0.069,2.686-4.159,0.544-7.055,1.771c-2.896,1.224-1.871,0.542-5.816,1.358c-3.948,0.816-2.996,0.41-4.766,0.41
			c-1.769,0-3.268,0.545-5.581,0c-2.314-0.547-1.572-1.016-4.295-1.016c-2.722,0-3.735-1.162-3.735-1.162
			C13.799,44.775,20.13,39.04,20.13,39.04z"/>
		
			<path fill="none" stroke="#494949" stroke-width="1.5" stroke-linecap="round" stroke-linejoin="round" stroke-miterlimit="10" d="
			M16.09,45.509c0,0-5.9,7.127-0.976,9.023c0,0,0.675,0.588,2.275,0.844c1.602,0.251,5.227,0.243,5.565,0.914v0.593
			c0,0,4.134,0.594,5.145,0c0,0,1.77-0.32,2.612,0.264v0.664c0,0,5.059,0.592,5.229-0.334c0,0,2.19-0.508,2.615-0.344l4.997-0.482
			v-0.291l7.524-1.483c2.872-2.058-2.313-7.631-2.313-7.631c-0.869,1.405-4.291-0.144-6.824,0.931
			c-2.896,1.223-1.871,0.542-5.816,1.358c-3.948,0.817-2.996,0.409-4.766,0.409c-1.769,0-3.268,0.546-5.581,0
			c-2.314-0.545-1.572-1.014-4.295-1.014c-2.722,0-3.735-1.164-3.735-1.164c-0.957-0.725-1.311-1.611-1.296-2.539L16.09,45.509z"/>
	</g>
</g>
</svg>
