<?xml version="1.0" encoding="utf-8"?>
<!-- Generator: Adobe Illustrator 16.0.0, SVG Export Plug-In . SVG Version: 6.00 Build 0)  -->
<!DOCTYPE svg PUBLIC "-//W3C//DTD SVG 1.1//EN" "http://www.w3.org/Graphics/SVG/1.1/DTD/svg11.dtd">
<svg version="1.1" id="Layer_1" xmlns="http://www.w3.org/2000/svg" xmlns:xlink="http://www.w3.org/1999/xlink" x="0px" y="0px"
	 width="64px" height="64px" viewBox="0 0 64 64" enable-background="new 0 0 64 64" xml:space="preserve">
<g id="Woman_x2019_s_T-shirt">
	<g>
		<g>
			
				<path fill="none" stroke="#494949" stroke-width="1.5" stroke-linecap="round" stroke-linejoin="round" stroke-miterlimit="10" d="
				M39.746,8.026l1.798,1.82c0,0,2.396,0.343,3.88,0.343c1.48,0,4.219,0.688,4.674,2.513c0.457,1.821,2.623,11.401,2.738,11.971
				c0.111,0.572-2.738,2.054-5.589,1.6c-0.909-0.342-0.909-0.342-0.909-0.342s-0.477-2.448-0.367-0.829
				c0.014,0.193,0.258,0.955,0.215,1.588c0,0,0.133,2.635-1.68,5.174c-1.436,2.011,0.646,6.323,0.646,6.323
				s4.054,6.283,2.586,17.578c-16.953,4.887-28.885-0.072-28.885-0.072c-1.871-10.032,2.113-15.973,3.069-18.656
				c0.958-2.682-0.718-5.508-0.718-5.508c-2.097-2.753-1.323-6.4-1.323-6.4c0.111-1.138,0.111-2.055,0.111-2.055l-0.802,2.055
				c0,0-4.786,0.458-6.38-0.91c0.455-3.194,2.283-9.011,2.62-10.036c0.346-1.027,1.141-1.823,2.51-2.624
				c1.372-0.795,2.737-1.251,3.875-1.368c1.145-0.113,2.054,0,2.629-0.567c0.57-0.57,1.708-2.055,1.708-2.055
				S34.107,5.692,39.746,8.026z"/>
		</g>
		
			<path fill="none" stroke="#494949" stroke-width="1.5" stroke-linecap="round" stroke-linejoin="round" stroke-miterlimit="10" d="
			M39.746,8.026c-5.639-2.334-13.594-0.459-13.594-0.459s-0.144,3.767,6.671,3.767C32.823,11.334,37.843,11.764,39.746,8.026z"/>
	</g>
</g>
</svg>
