<?xml version="1.0" encoding="utf-8"?>
<!-- Generator: Adobe Illustrator 16.0.0, SVG Export Plug-In . SVG Version: 6.00 Build 0)  -->
<!DOCTYPE svg PUBLIC "-//W3C//DTD SVG 1.1//EN" "http://www.w3.org/Graphics/SVG/1.1/DTD/svg11.dtd">
<svg version="1.1" id="Layer_1" xmlns="http://www.w3.org/2000/svg" xmlns:xlink="http://www.w3.org/1999/xlink" x="0px" y="0px"
	 width="64px" height="64px" viewBox="0 0 64 64" enable-background="new 0 0 64 64" xml:space="preserve">
<g id="Woman_x2019_s_Sweater">
	<g>
		
			<path fill="none" stroke="#494949" stroke-width="1.5" stroke-linecap="round" stroke-linejoin="round" stroke-miterlimit="10" d="
			M50.834,53.829c-0.771-0.288-7.266-28.307-7.266-28.307s-0.401-2.077-0.311-0.704c0.01,0.164,0.219,0.81,0.182,1.348
			c0,0,0.111,2.235-1.424,4.388c-1.221,1.706,0.549,5.361,0.549,5.361s3.438,5.331,2.193,14.911
			c-14.382,4.145-24.502-0.061-24.502-0.061c-1.587-8.509,1.793-13.549,2.603-15.824c0.814-2.276-0.608-4.672-0.608-4.672
			c-1.778-2.334-1.122-5.429-1.122-5.429c0.094-0.966,0.094-1.742,0.094-1.742l-6.96,30.957c0.583,1.299-0.903,3.113-0.903,3.113
			c-2.392,0.629-5.836-1.425-5.836-1.425s-0.248-3.158,1.498-3.154c0.387-2.707,8.045-35.014,8.332-35.883
			c0.293-0.873,0.967-1.545,2.129-2.227c1.163-0.674,2.321-1.063,3.286-1.159c0.84-0.084,1.532-1.171,2.019-1.467l0.002,0.002
			c-1.871-1.028,1.67-4.152,1.67-4.152s7.077-1.667,12.097,0.411l0.411,0.659c1.284,2.034,0.958,2.807,0.536,3.103l0.002,0.004
			c0,0,2.031,1.44,3.29,1.44s3.579,0.581,3.966,2.131c0.387,1.544,9.217,36.429,9.313,36.91c1.746-0.004,1.502,3.156,1.502,3.156
			s-3.447,2.053-5.84,1.426C51.734,56.945,50.25,55.129,50.834,53.829z"/>
		
			<path fill="none" stroke="#494949" stroke-width="1.5" stroke-linecap="round" stroke-linejoin="round" stroke-miterlimit="10" d="
			M9.021,52.59c-1.746-0.004-1.498,3.154-1.498,3.154s3.444,2.054,5.836,1.425c0,0,1.486-1.813,0.903-3.114
			C14.263,54.055,10.348,53.938,9.021,52.59z"/>
		
			<path fill="none" stroke="#494949" stroke-width="1.5" stroke-linecap="round" stroke-linejoin="round" stroke-miterlimit="10" d="
			M50.834,53.829c-0.584,1.3,0.9,3.116,0.9,3.116c2.393,0.625,5.84-1.426,5.84-1.426s0.244-3.16-1.502-3.156
			C56.169,52.852,52.402,54.424,50.834,53.829z"/>
		
			<path fill="none" stroke="#494949" stroke-width="1.5" stroke-linecap="round" stroke-linejoin="round" stroke-miterlimit="10" d="
			M39.503,11.877c0.422-0.296,0.748-1.068-0.536-3.103l-0.41-0.659c-5.021-2.078-12.098-0.411-12.098-0.411s-3.541,3.124-1.67,4.152
			c0.146,0.08,0.323,0.149,0.54,0.2c0,0,9.718-1.022,13.638,0C38.967,12.057,39.251,12.052,39.503,11.877z"/>
	</g>
</g>
</svg>
