<?xml version="1.0" encoding="utf-8"?>
<!-- Generator: Adobe Illustrator 16.0.0, SVG Export Plug-In . SVG Version: 6.00 Build 0)  -->
<!DOCTYPE svg PUBLIC "-//W3C//DTD SVG 1.1//EN" "http://www.w3.org/Graphics/SVG/1.1/DTD/svg11.dtd">
<svg version="1.1" id="Layer_1" xmlns="http://www.w3.org/2000/svg" xmlns:xlink="http://www.w3.org/1999/xlink" x="0px" y="0px"
	 width="64px" height="64px" viewBox="0 0 64 64" enable-background="new 0 0 64 64" xml:space="preserve">
<g id="Women_x2019_s_Short">
	<g>
		<g id="_x34_52">
			
				<path fill="none" stroke="#494949" stroke-width="1.5" stroke-linecap="round" stroke-linejoin="round" stroke-miterlimit="10" d="
				M48.758,13.866v4.315L53.871,33.5l2.934,13.834l-9.758,2.531L34.632,50.08l-2.65-13.145h-0.067l-2.65,13.145L16.78,49.939
				l-9.686-2.604L10.026,33.5l5.111-15.319v-4.315C15.138,13.866,24.436,17.719,48.758,13.866z"/>
		</g>
		
			<path fill="none" stroke="#494949" stroke-width="1.5" stroke-linecap="round" stroke-linejoin="round" stroke-miterlimit="10" d="
			M48.758,18.081v-4.215c-24.322,3.853-33.62,0-33.62,0v4.315c0,0,3.975,3.294,16.168,3.294
			C31.306,21.476,44.161,21.376,48.758,18.081z"/>
		<g>
			<g>
				
					<path fill="none" stroke="#494949" stroke-width="1.5" stroke-linecap="round" stroke-linejoin="round" stroke-miterlimit="10" d="
					M31.061,19.502c0,0,0.912-3.46,3.494-1.891c0,0,0.643,3.566-3.249,3.865c-2.907,0.223-1.774,7.864-1.278,8.36"/>
				
					<path fill="none" stroke="#494949" stroke-width="1.5" stroke-linecap="round" stroke-linejoin="round" stroke-miterlimit="10" d="
					M31.489,21.032c0,0-0.861-4.99-3.385-2.918c0,0-0.079,3.14,3.406,3.335c1.692,0.096,1.286,6.711,2.205,7.67"/>
			</g>
		</g>
	</g>
</g>
</svg>
