<?xml version="1.0" encoding="utf-8"?>
<!-- Generator: Adobe Illustrator 16.0.0, SVG Export Plug-In . SVG Version: 6.00 Build 0)  -->
<!DOCTYPE svg PUBLIC "-//W3C//DTD SVG 1.1//EN" "http://www.w3.org/Graphics/SVG/1.1/DTD/svg11.dtd">
<svg version="1.1" id="Layer_1" xmlns="http://www.w3.org/2000/svg" xmlns:xlink="http://www.w3.org/1999/xlink" x="0px" y="0px"
	 width="64px" height="64px" viewBox="0 0 64 64" enable-background="new 0 0 64 64" xml:space="preserve">
<g id="Collared_T-shirt">
	<path fill="#333433" d="M34.295,14.311c0.652,0.384,1.176,1.032,1.326,1.229c0.051,0.069,0.086,0.151,0.102,0.236
		c0.217,1.314,0.582,1.892,0.814,2.137c1.801-2.256,1.785-7.146,1.756-8.244l-0.988-0.87C37.342,11.044,35.615,13.083,34.295,14.311
		z"/>
	<path fill="#333433" d="M28.609,14.001c-1.648-1.193-2.502-3.547-2.871-4.884l-0.982,0.919c-0.02,0.969,0.016,4.292,1.166,6.925
		C26.453,15.975,27.394,14.541,28.609,14.001z"/>
	<path fill="#333433" d="M35.965,10.224c0.266-0.716,0.359-1.468,0.154-2.218c-1.176-0.148-2.338-0.235-3.463-0.235
		c-2.996,0-5.023,0.52-5.951,0.823c0.125,0.493,0.344,1.208,0.664,1.947C28.458,10.25,31.484,9.636,35.965,10.224z"/>
	<path fill="#333433" d="M32.878,14.108c0.015-0.006,0.026-0.013,0.045-0.019c0.711-0.592,1.817-1.628,2.554-2.854
		c-3.836-0.457-6.509,0.011-7.623,0.283c0.42,0.729,0.949,1.395,1.627,1.782c0.035,0.019,0.563,0.287,0.965,0.655
		c0.363,0.164,0.813,0.537,1.004,1.161c0.225-0.194,0.494-0.369,0.816-0.512c0.057-0.043,0.18-0.135,0.345-0.264
		C32.669,14.239,32.759,14.156,32.878,14.108z"/>
	<path fill="#333433" d="M32.298,28.584c-0.127-1.417-0.697-8.122-0.406-12.385c-0.434,0.532-0.51,1.114-0.51,1.123l-0.041,0.279
		v0.001c0,0.013,0.008,0.022,0.008,0.033v11.384C31.626,28.971,31.98,28.853,32.298,28.584z"/>
	<path fill="#333433" d="M55.258,25.842l-5.633-8.498c-2.4-3.148-4.061-3.784-4.072-3.784l-6.186-3.203
		c-0.006,1.988-0.262,6.528-2.354,8.62c-0.101,0.099-0.234,0.155-0.375,0.155c-0.033,0-0.06-0.002-0.091-0.006
		c-0.229-0.042-1.377-0.37-1.854-3.039c-0.404-0.496-0.98-0.968-1.297-1.004c-0.146,0.115-0.267,0.208-0.361,0.277
		c-0.497,4.392,0.336,13.288,0.346,13.378c0.014,0.15-0.037,0.3-0.137,0.412c-0.807,0.871-1.866,0.97-2.29,0.97
		c-0.111,0-0.18-0.006-0.193-0.009c-0.273-0.028-0.479-0.255-0.479-0.528V17.635c0-0.021,0.012-0.041,0.014-0.063
		c-0.004-0.03-0.016-0.059-0.012-0.092l0.076-1.049c0.002-0.039,0.01-0.079,0.02-0.115c0.316-1.06-0.277-1.35-0.404-1.401
		c-1.834-0.614-3.527,3.405-3.545,3.445c-0.076,0.188-0.25,0.316-0.451,0.332c-0.203,0.019-0.395-0.085-0.498-0.258
		c-1.463-2.446-1.75-5.754-1.793-7.52l-5.516,2.619c-0.066,0.027-1.729,0.66-4.152,3.843L8.41,25.842
		c-0.148,0.225-0.107,0.527,0.1,0.702l7.273,6.131c0.217,0.179,0.537,0.162,0.734-0.043l0.787-0.837
		c-0.086-0.083-0.15-0.19-0.166-0.317c-0.645-4.944-0.025-8.743,0.002-8.905c0.049-0.289,0.324-0.489,0.615-0.436
		c0.287,0.048,0.486,0.324,0.436,0.614c-0.006,0.037-0.621,3.811,0.004,8.589c0.01,0.086-0.004,0.165-0.031,0.24
		c0.123,3.461,0.34,11.628,0.34,25.051c0,0.27,0.199,0.498,0.471,0.531c0.057,0.007,5.822,0.691,11.566,0.691
		c0.389,0,0.773-0.004,1.154-0.01h0.27c0.385,0.006,0.773,0.01,1.159,0.01c5.748,0,11.515-0.685,11.574-0.691
		c0.266-0.033,0.467-0.262,0.467-0.531c0-13.593,0.228-21.794,0.344-25.177c0-0.026-0.01-0.05-0.006-0.077
		c0.006-0.044,0.011-0.083,0.015-0.127c0.006-0.117,0.008-0.243,0.012-0.345l0.022,0.023c0.496-4.645-0.038-8.146-0.047-8.183
		c-0.045-0.291,0.154-0.563,0.447-0.609c0.289-0.045,0.562,0.153,0.606,0.442c0.025,0.158,0.604,3.911,0.002,8.925
		c-0.02,0.128-0.076,0.241-0.164,0.322l0.756,0.806c0.191,0.205,0.513,0.223,0.73,0.043l7.275-6.131
		C55.363,26.37,55.408,26.067,55.258,25.842z"/>
</g>
</svg>
