<?xml version="1.0" encoding="utf-8"?>
<!-- Generator: Adobe Illustrator 16.0.0, SVG Export Plug-In . SVG Version: 6.00 Build 0)  -->
<!DOCTYPE svg PUBLIC "-//W3C//DTD SVG 1.1//EN" "http://www.w3.org/Graphics/SVG/1.1/DTD/svg11.dtd">
<svg version="1.1" id="Layer_1" xmlns="http://www.w3.org/2000/svg" xmlns:xlink="http://www.w3.org/1999/xlink" x="0px" y="0px"
	 width="64px" height="64px" viewBox="0 0 64 64" enable-background="new 0 0 64 64" xml:space="preserve">
<g id="Frock">
	<path fill="#333433" d="M23.901,22.696l0.535-1.372c0,0,0,0.613-0.075,1.372c-0.075,0.765,1.13,2.234,1.672,3.141
		c0.277,0.469,1.076,2.846,0.997,4.204c0.023,0.013,0.051,0.017,0.076,0.036c0.214,0.144,5.552,3.659,13.054-0.173
		c0.011-0.008,0.017-0.002,0.027-0.008c0.02-0.915,0.166-1.75,0.23-2.177c0.176-1.139,0.837-2.588,1.143-3.116
		c0.063-0.115,0.328-0.442,0.355-0.861c0.031-0.426-0.133-0.935-0.143-1.066c-0.07-1.077,0.244,0.555,0.244,0.555s0,0,0.607,0.23
		c1.904,0.303,3.805-0.688,3.73-1.067c-0.078-0.38-1.523-6.774-1.826-7.987c-0.305-1.222-2.131-1.68-3.119-1.68
		c-0.992,0-2.59-0.228-2.59-0.228l-1.373-1.141c0,0-0.073,1.067-0.377,1.673c-0.305,0.609-1.375,1.293-2.815,1.596
		c-1.446,0.309-3.518-0.547-4.051-1.005c-0.533-0.458-1.656-2.646-1.656-2.646s-0.761,0.993-1.141,1.372
		c-0.384,0.379-0.99,0.304-1.755,0.379c-0.761,0.074-1.669,0.383-2.585,0.914c-0.915,0.532-1.445,1.064-1.677,1.75
		c-0.224,0.687-1.444,4.564-1.748,6.696C20.706,23.002,23.901,22.696,23.901,22.696z M33.416,19.916
		c0.293,0,0.582,0.289,0.582,0.581c0,0.295-0.289,0.582-0.582,0.582s-0.581-0.287-0.581-0.582
		C32.835,20.205,33.122,19.916,33.416,19.916z M33.416,25.288c0.293,0,0.582,0.285,0.582,0.58c0,0.294-0.289,0.58-0.582,0.58
		s-0.581-0.286-0.581-0.58C32.835,25.573,33.122,25.288,33.416,25.288z"/>
	<path fill="#333433" d="M44.073,39.498c-0.847-5.135-3.226-7.923-3.755-8.489c-2.702,1.308-5.125,1.748-7.159,1.748
		c-3.695,0-6.084-1.432-6.559-1.742c-1.824,1.852-4.187,9.508-4.187,9.508c-1.426,5.244-6.221,9.563-6.221,9.563
		c2.601,3.029,6.709,2.188,6.709,2.188c2.813,3.133,7.063,1.801,7.063,1.801c1.951,1.501,7.537,0.174,7.537,0.174
		c2.571,1.514,5.538-0.25,5.985-0.945c3.388,1.762,6.32-3.027,6.32-3.027C45.666,49.212,44.073,39.498,44.073,39.498z"/>
</g>
</svg>
