<?xml version="1.0" encoding="utf-8"?>
<!-- Generator: Adobe Illustrator 16.0.0, SVG Export Plug-In . SVG Version: 6.00 Build 0)  -->
<!DOCTYPE svg PUBLIC "-//W3C//DTD SVG 1.1//EN" "http://www.w3.org/Graphics/SVG/1.1/DTD/svg11.dtd">
<svg version="1.1" id="Layer_1" xmlns="http://www.w3.org/2000/svg" xmlns:xlink="http://www.w3.org/1999/xlink" x="0px" y="0px"
	 width="64px" height="64px" viewBox="0 0 64 64" enable-background="new 0 0 64 64" xml:space="preserve">
<g id="Hat">
	<path fill="#333433" d="M50.684,34.303c-0.269-1.498-4.111-2.171-9.672-1.949c0.497,1.36,0.926,2.914,0.944,2.983
		c0.099,0.353-0.104,0.718-0.457,0.822c-3.162,0.948-6.849,1.794-10.66,2.437c-3.641,0.617-7.268,1.029-10.479,1.194
		c-0.014,0-0.025,0-0.039,0c-0.164,0-0.326-0.063-0.449-0.175c-0.133-0.119-0.209-0.286-0.219-0.463
		c-0.002-0.073-0.078-1.612-0.096-2.856c-4.822,1.646-7.84,3.479-7.586,4.901c0.416,2.322,9.416,2.668,20.104,0.765
		C42.768,40.061,51.1,36.632,50.684,34.303z"/>
	<path fill="#333433" d="M20.892,35.887c0.004,0.789,0.043,1.846,0.072,2.523c2.994-0.18,6.314-0.569,9.654-1.141
		c3.504-0.59,6.896-1.353,9.86-2.209c-0.194-0.658-0.518-1.705-0.85-2.574c-0.008-0.021-0.006-0.044-0.012-0.066
		c-0.01,0.002-0.021,0.002-0.031,0.002c-0.867-2.397-2.279-5.884-3.6-7.271c0,0-0.9-1.34-3.361-1.659c0,0-0.229-0.041-0.719-0.039
		c-0.986,0.105-3.053,0.783-4.936,1.63c-0.09,0.041-0.184,0.059-0.275,0.059c-0.256,0-0.5-0.146-0.611-0.397
		c-0.154-0.337-0.002-0.734,0.338-0.886c0.854-0.385,1.879-0.79,2.854-1.117c-3.115-0.626-4.992,0.751-4.992,0.751
		c-2.178,1.189-2.531,2.766-2.531,2.766c-0.789,1.922-0.893,6.696-0.879,9.536C20.88,35.824,20.892,35.852,20.892,35.887z"/>
</g>
</svg>
