<?xml version="1.0" encoding="utf-8"?>
<!-- Generator: Adobe Illustrator 16.0.0, SVG Export Plug-In . SVG Version: 6.00 Build 0)  -->
<!DOCTYPE svg PUBLIC "-//W3C//DTD SVG 1.1//EN" "http://www.w3.org/Graphics/SVG/1.1/DTD/svg11.dtd">
<svg version="1.1" id="Layer_1" xmlns="http://www.w3.org/2000/svg" xmlns:xlink="http://www.w3.org/1999/xlink" x="0px" y="0px"
	 width="64px" height="64px" viewBox="0 0 64 64" enable-background="new 0 0 64 64" xml:space="preserve">
<g id="Hoodie">
	<path fill="#333433" d="M34.042,24.425c0.063-0.262,0.097-0.463,0.11-0.591C34.105,24.022,34.07,24.22,34.042,24.425z"/>
	<path fill="#333433" d="M33.465,13.533c0.251-0.013,5.164-0.16,7.801,2.691c-0.1-0.414-0.265-0.654-0.265-0.654
		c-4.228-7.705-7.706-8.182-7.706-8.182c-3.049,1.173-6.298,6.682-7.148,8.198C27.477,14.652,29.716,13.732,33.465,13.533z"/>
	<path fill="#333433" d="M33.514,14.607c-5.104,0.27-7.088,1.932-7.81,2.862c0.126,1.286,1.071,2.263,1.74,2.805
		c1.326,0.18,4.725,0.834,5.32,2.848c0.008,0.027,0.014,0.055,0.018,0.083c0.001,0.01,0.062,0.463,0.186,1.134
		c0.016-0.129,0.028-0.262,0.051-0.385c-0.035-0.069-0.06-0.145-0.061-0.228c-0.025-1.368-0.658-1.794-1.614-2.436
		c-0.514-0.345-1.098-0.74-1.646-1.336c-1.72-1.876-0.946-3.648-0.912-3.723c0.123-0.271,0.444-0.39,0.711-0.267
		c0.269,0.122,0.389,0.438,0.27,0.707c-0.025,0.06-0.496,1.229,0.722,2.558c0.46,0.502,0.965,0.842,1.454,1.17
		c0.662,0.444,1.333,0.908,1.73,1.711c0.85-1.518,2.221-2.344,3.126-2.885c0.136-0.08,0.259-0.154,0.371-0.224
		c0.538-0.339,0.333-1.57-0.037-2.609c-0.1-0.279,0.046-0.586,0.325-0.686c0.281-0.099,0.587,0.047,0.688,0.326
		c0.68,1.907,0.537,3.284-0.401,3.876c-0.118,0.075-0.25,0.155-0.392,0.241c-0.974,0.58-2.402,1.438-3.039,3.157
		c1.237-2.489,4.748-3.063,4.901-3.088c0.031-0.004,0.062,0.005,0.091,0.005c1.053-0.853,1.598-1.655,1.846-2.345
		C39.2,14.437,33.577,14.598,33.514,14.607z"/>
	<g>
		<path fill="#333433" d="M18.128,50.197l4.722-14.637l0.168,18.053c0,0-0.057,0.994,0.473,1.746
			c0.233,0.043,0.575,0.095,0.773,0.123c0.201,0.029,0.368,0.057,0.439,0.072c0.032,0.006,3.422,0.68,7.841,0.623
			c-0.702-5.859-0.019-27.185,0.037-28.829c-0.556-1.839-0.816-3.639-0.86-3.958c-0.341-1.026-2.207-1.626-3.617-1.913l-0.005,0.369
			l-7.96,3.541l-6.652,23.948L18.128,50.197z M24.933,48.172l3.017-5.25c0.147-0.256,0.476-0.346,0.732-0.199
			c0.257,0.147,0.346,0.478,0.198,0.734l-3.018,5.249c-0.098,0.175-0.28,0.269-0.465,0.269c-0.09,0-0.183-0.021-0.267-0.07
			C24.873,48.756,24.784,48.428,24.933,48.172z"/>
		<path fill="#333433" d="M41.191,54.996c0.488-0.167,1.34-0.477,1.678-0.635c0.04-0.135,0.068-0.266,0.07-0.379l0.172-18.424
			l4.705,14.592l4.666-0.771L45.82,25.387l-7.075-3.568l-0.152-0.353c-1.01,0.292-2.71,0.978-3.362,2.386
			c-0.045,0.445-0.306,2.186-1.58,3.633c-0.067,2.104-0.723,23.226-0.03,28.658C36.378,56.033,38.927,55.658,41.191,54.996z
			 M37,42.723c0.256-0.146,0.585-0.057,0.732,0.199l3.018,5.25c0.146,0.256,0.059,0.584-0.198,0.732
			c-0.083,0.048-0.176,0.068-0.267,0.068c-0.188,0-0.367-0.093-0.467-0.268l-3.018-5.249C36.652,43.199,36.744,42.87,37,42.723z"/>
		<path fill="#333433" d="M13.52,50.434c-0.293,0.666-0.708,1.729-0.558,2.105l3.71,0.671c0,0,0.491-1.054,0.848-2.03L13.52,50.434z
			"/>
		<path fill="#333433" d="M48.535,51.119c0.357,0.977,0.867,2.061,0.867,2.061l3.636-0.66c0.146-0.359-0.263-1.387-0.562-2.052
			L48.535,51.119z"/>
		<path fill="#333433" d="M41.518,56.02c-2.511,0.73-5.308,1.141-8.342,1.223c-0.394,0.01-0.78,0.016-1.158,0.016
			c-4.256,0-7.387-0.621-7.529-0.65c-0.069-0.014-0.212-0.034-0.386-0.062c-0.002,0-0.003,0-0.004,0
			c0,0.263-0.004,0.616-0.016,1.099c0,0,5.511,2.198,18.229-0.313l0.002-1.593C41.956,55.868,41.633,55.982,41.518,56.02z"/>
	</g>
</g>
</svg>
