<?xml version="1.0" encoding="utf-8"?>
<!-- Generator: Adobe Illustrator 16.0.0, SVG Export Plug-In . SVG Version: 6.00 Build 0)  -->
<!DOCTYPE svg PUBLIC "-//W3C//DTD SVG 1.1//EN" "http://www.w3.org/Graphics/SVG/1.1/DTD/svg11.dtd">
<svg version="1.1" id="Layer_1" xmlns="http://www.w3.org/2000/svg" xmlns:xlink="http://www.w3.org/1999/xlink" x="0px" y="0px"
	 width="64px" height="64px" viewBox="0 0 64 64" enable-background="new 0 0 64 64" xml:space="preserve">
<g id="Jeans">
	<path fill="#333433" d="M40.777,12.144l-0.154-0.976l-0.328-1.656c-0.029-0.16-0.135-0.297-0.281-0.37
		c-0.146-0.073-0.32-0.077-0.467-0.009c-0.02,0.011-2.176,0.968-7.557,1.13v3.235c0,0.042-0.014,0.076-0.025,0.114
		c1.006-0.03,6.129-0.235,8.793-1.463C40.764,12.145,40.771,12.146,40.777,12.144z M33.17,12.798c-0.428,0-0.775-0.349-0.775-0.776
		c0-0.426,0.348-0.771,0.775-0.771c0.424,0,0.77,0.346,0.77,0.771C33.939,12.449,33.594,12.798,33.17,12.798z"/>
	<path fill="#333433" d="M32.518,22.775c1.703-1.586,1.533-6.433,1.322-8.192c-0.844,0.06-1.496,0.085-1.822,0.094
		c0.059,1.875,0.064,6.571-1.172,8.583C31.518,23.338,32.072,23.185,32.518,22.775z"/>
	<path fill="#333433" d="M42.197,21.103l-1.248-7.886c-1.014,0.428-2.271,0.735-3.539,0.949L42.197,21.103z"/>
	<path fill="#333433" d="M30.943,13.601c-0.006-0.034-0.018-0.066-0.018-0.103v-3.235c-5.387-0.162-7.541-1.119-7.561-1.129
		C23.219,9.066,23.047,9.067,22.9,9.14c-0.146,0.076-0.254,0.21-0.283,0.373l-0.447,2.605c0.049,0.008,0.094,0.012,0.137,0.032
		C24.752,13.274,29.395,13.544,30.943,13.601z"/>
	<path fill="#333433" d="M21.992,13.169l-1.309,7.641l4.701-6.696C24.148,13.894,22.947,13.588,21.992,13.169z"/>
	<path fill="#333433" d="M43.594,29.889l-1.012-6.352l-6.268-9.085c-0.025-0.036-0.033-0.076-0.047-0.114
		c-0.474,0.062-0.933,0.114-1.367,0.156c0.074,0.631,0.725,6.842-1.658,9.06c-0.572,0.536-1.266,0.806-2.066,0.806
		c-0.17,0-0.346-0.028-0.521-0.053l0.939,3.017c3.688,7.097,5.313,28.472,5.328,28.691c0.018,0.271,0.238,0.482,0.512,0.493
		c0.207,0.007,0.422,0.011,0.642,0.011c3.672,0,8.348-0.982,8.545-1.023c0.271-0.059,0.455-0.318,0.416-0.596L43.594,29.889z"/>
	<path fill="#333433" d="M29.355,23.716c-0.076-0.239,0.027-0.495,0.24-0.62c1.121-0.644,1.455-5.151,1.355-8.428
		c-0.828-0.029-2.549-0.116-4.393-0.372l-6.295,8.967l-1.197,7.018L15.62,55.156c-0.043,0.287,0.156,0.555,0.443,0.6
		c0.201,0.031,4.934,0.768,8.598,0.768c0.281,0,0.553-0.006,0.818-0.015c0.271-0.011,0.492-0.222,0.51-0.493
		c0.016-0.211,1.5-19.765,4.855-27.683c0.029-0.068-0.162-0.359-0.213-0.512L29.355,23.716z"/>
</g>
</svg>
