<?xml version="1.0" encoding="utf-8"?>
<!-- Generator: Adobe Illustrator 16.0.0, SVG Export Plug-In . SVG Version: 6.00 Build 0)  -->
<!DOCTYPE svg PUBLIC "-//W3C//DTD SVG 1.1//EN" "http://www.w3.org/Graphics/SVG/1.1/DTD/svg11.dtd">
<svg version="1.1" id="Layer_1" xmlns="http://www.w3.org/2000/svg" xmlns:xlink="http://www.w3.org/1999/xlink" x="0px" y="0px"
	 width="64px" height="64px" viewBox="0 0 64 64" enable-background="new 0 0 64 64" xml:space="preserve">
<g id="Men_x2019_s_Short">
	<path fill="#333433" d="M47.943,16.049c0-0.293-0.239-0.532-0.534-0.532H16.254c-0.295,0-0.531,0.239-0.531,0.532v3.441h32.22
		V16.049z"/>
	<path fill="#333433" d="M55.391,46.956l-2.734-12.879L48.16,20.609H35.538v12.754c-0.183,1.871-0.754,3.18-1.711,3.938
		c-0.738,0.589-1.502,0.667-1.86,0.667c-0.119,0-0.191-0.008-0.203-0.011c-0.266-0.035-0.463-0.261-0.463-0.528V20.608H15.504
		l-4.508,13.527l-2.719,12.82c-0.059,0.277,0.109,0.551,0.383,0.624l8.977,2.416c0.043,0.012,0.086,0.017,0.131,0.019l11.572,0.129
		c0.271,0.049,0.477-0.176,0.529-0.428l1.965-9.747l1.963,9.747c0.051,0.251,0.268,0.428,0.521,0.428c0.004,0,0.008,0,0.012,0
		l11.502-0.199c0.043,0,0.082-0.006,0.123-0.016l9.043-2.347C55.277,47.51,55.448,47.234,55.391,46.956z"/>
	<path fill="#333433" d="M32.368,36.857c0.229-0.055,0.524-0.168,0.819-0.406c0.694-0.568,1.143-1.655,1.289-3.139l-0.002-12.705
		h-2.106V36.857L32.368,36.857z"/>
</g>
</svg>
