<?xml version="1.0" encoding="utf-8"?>
<!-- Generator: Adobe Illustrator 16.0.0, SVG Export Plug-In . SVG Version: 6.00 Build 0)  -->
<!DOCTYPE svg PUBLIC "-//W3C//DTD SVG 1.1//EN" "http://www.w3.org/Graphics/SVG/1.1/DTD/svg11.dtd">
<svg version="1.1" id="Layer_1" xmlns="http://www.w3.org/2000/svg" xmlns:xlink="http://www.w3.org/1999/xlink" x="0px" y="0px"
	 width="64px" height="64px" viewBox="0 0 64 64" enable-background="new 0 0 64 64" xml:space="preserve">
<g id="Men_x2019_s_Blazer">
	<g>
		<path fill="#333433" d="M27.467,15.296l-7.653,2.554c-0.148,0.05-0.268,0.161-0.325,0.308L8.559,45.264
			c-0.109,0.27,0.017,0.574,0.284,0.689l6.333,2.713c0.134,0.057,0.284,0.057,0.416,0.002c0.133-0.055,0.237-0.163,0.291-0.297
			l5.373-13.568c-0.027,3.309-0.022,9.231,0.2,16.639c0.01,0.279,0.236,0.504,0.514,0.517l8.974,0.319
			c0.079,0,0.485-0.01,0.929-0.188c-0.001-0.563,0.013-1.429,0.018-1.76v-4.359c0-0.051,0.046-4.494,0.209-9.716l0.138-0.63
			L28.212,14.55L27.467,15.296z M30.658,42.917c0,0.294-0.238,0.532-0.534,0.532h-5.459c-0.294,0-0.534-0.238-0.534-0.532
			s0.24-0.533,0.534-0.533h5.459C30.42,42.383,30.658,42.622,30.658,42.917z"/>
		<path fill="#333433" d="M32.487,13.538c-1.587,0-2.667,0.25-3.295,0.455l3.623,18.991l4.146-18.891
			C35.359,13.731,33.855,13.538,32.487,13.538z"/>
		<path fill="#333433" d="M57.443,45.75L46.664,18.163c-0.059-0.147-0.18-0.263-0.33-0.313l-7.658-2.554l-0.73-0.729l-4.633,21.072
			c0.017,0.129-0.013,0.256-0.08,0.356l-0.086,0.394c-0.146,5.112-0.195,9.545-0.195,9.59v4.363
			c-0.012,0.77-0.021,1.604-0.018,1.965c0.159,0.062,0.33,0.104,0.521,0.104c0.015,0,0.026,0,0.042-0.001l10.636-0.924
			c0.281-0.022,0.495-0.264,0.485-0.547c-0.26-7.432-0.346-13.182-0.372-16.354l5.743,14.092c0.109,0.271,0.412,0.403,0.688,0.298
			l6.465-2.531C57.416,46.334,57.55,46.027,57.443,45.75z M40.779,43.448h-5.463c-0.293,0-0.531-0.238-0.531-0.532
			s0.238-0.533,0.531-0.533h5.463c0.293,0,0.529,0.239,0.529,0.533C41.311,43.21,41.072,43.448,40.779,43.448z"/>
	</g>
</g>
</svg>
