<?xml version="1.0" encoding="utf-8"?>
<!-- Generator: Adobe Illustrator 16.0.0, SVG Export Plug-In . SVG Version: 6.00 Build 0)  -->
<!DOCTYPE svg PUBLIC "-//W3C//DTD SVG 1.1//EN" "http://www.w3.org/Graphics/SVG/1.1/DTD/svg11.dtd">
<svg version="1.1" id="Layer_1" xmlns="http://www.w3.org/2000/svg" xmlns:xlink="http://www.w3.org/1999/xlink" x="0px" y="0px"
	 width="64px" height="64px" viewBox="0 0 64 64" enable-background="new 0 0 64 64" xml:space="preserve">
<g id="Men_x2019_s_Vest">
	<g>
		<path fill="#333433" d="M40.914,10.129"/>
	</g>
	<g>
		<path fill="#333433" d="M25.689,10.129"/>
	</g>
	<path fill="#333433" d="M39.926,14.1c-1.479,2.248-4.037,3.736-6.939,3.736c-2.901,0-5.461-1.489-6.941-3.736v1.186
		c0,3.828,3.113,6.942,6.941,6.942c3.826,0,6.939-3.115,6.939-6.942V14.1z"/>
	<path fill="#333433" d="M43.4,20.121V9.62h-2.118c0,0.045-0.005,0.092-0.013,0.134v5.531c0,4.568-3.717,8.284-8.283,8.284
		c-4.567,0-8.284-3.716-8.284-8.284v-5.66L22.598,9.62v10.501c0,5.854-0.953,7.418-3.971,8.825v27.462h14.359h0.029h14.356V28.946
		C44.354,27.539,43.4,25.975,43.4,20.121z"/>
</g>
</svg>
