<?xml version="1.0" encoding="utf-8"?>
<!-- Generator: Adobe Illustrator 16.0.0, SVG Export Plug-In . SVG Version: 6.00 Build 0)  -->
<!DOCTYPE svg PUBLIC "-//W3C//DTD SVG 1.1//EN" "http://www.w3.org/Graphics/SVG/1.1/DTD/svg11.dtd">
<svg version="1.1" id="Layer_1" xmlns="http://www.w3.org/2000/svg" xmlns:xlink="http://www.w3.org/1999/xlink" x="0px" y="0px"
	 width="64px" height="64px" viewBox="0 0 64 64" enable-background="new 0 0 64 64" xml:space="preserve">
<g id="Men_x2019_s_Full_Sleeve_Shirt">
	<path fill="#333433" d="M7.561,50.537c0.068,0.172,0.217,0.293,0.398,0.326l4.963,0.9c0.246,0.045,0.477-0.078,0.58-0.3
		c0.029-0.063,0.682-1.479,1.152-2.845l-6.531-1.133C7.733,48.48,7.292,49.87,7.561,50.537z"/>
	<path fill="#333433" d="M55.376,47.293l-6.353,1.52c0.482,1.314,1.166,2.613,1.197,2.677c0.109,0.206,0.338,0.317,0.566,0.276
		l4.965-0.901c0.236-0.044,0.418-0.245,0.434-0.488C56.229,49.752,55.698,48.18,55.376,47.293z"/>
	<path fill="#333433" d="M29.469,19.033l1.736,0.583c0.025-1.236,0.047-2.131,0.055-2.566c0-0.001-0.006,0-0.01-0.002l-2.168-0.88
		c-0.055-0.02-0.102-0.05-0.145-0.084l-3.479-2.931l-0.611,1.482c0.01,0.012,0.023,0.018,0.031,0.031
		C25.553,15.735,27.692,18.606,29.469,19.033z"/>
	<path fill="#333433" d="M34.495,16.178l-2.163,0.731c-0.008,0.266-0.027,1.174-0.059,2.545l2.375-0.724
		c1-0.504,3.903-2.258,4.36-3.925c0.021-0.069,0.056-0.13,0.097-0.185l-0.933-1.554l-3.502,3.012
		C34.618,16.123,34.561,16.157,34.495,16.178z"/>
	<polygon fill="#333433" points="37.327,12.398 31.967,11.335 31.536,11.345 26.229,12.407 29.559,15.212 31.551,16.021 
		31.639,16.019 34.055,15.204 	"/>
	<path fill="#333433" d="M31.178,20.73l-2.004-0.674c-2.264-0.544-4.566-3.864-5.088-4.652l-7.439,2.598
		c-0.164,0.057-0.289,0.192-0.338,0.36L8.504,46.473l6.484,1.127l4.492-13.935l0.166,17.771c0.002,0.252,0.18,0.469,0.426,0.519
		l11.271,2.397C30.674,48.688,30.999,29.2,31.178,20.73z M28.19,31.092h-5.148c-0.295,0-0.533-0.236-0.533-0.53
		c0-0.296,0.238-0.532,0.533-0.532h5.148c0.295,0,0.533,0.236,0.533,0.532C28.723,30.855,28.485,31.092,28.19,31.092z"/>
	<path fill="#333433" d="M47.298,18.362c-0.045-0.164-0.17-0.297-0.327-0.357l-7.037-2.618c-0.908,2.333-4.726,4.246-4.896,4.33
		l-2.788,0.855c-0.178,8.392-0.514,28.36,0.162,33.749l11.124-2.367c0.243-0.051,0.422-0.266,0.422-0.518l0.166-17.774l4.56,14.138
		l6.368-1.523L47.298,18.362z M39.909,31.092h-5.15c-0.293,0-0.53-0.236-0.53-0.53c0-0.296,0.237-0.532,0.53-0.532h5.15
		c0.293,0,0.532,0.236,0.532,0.532C40.441,30.855,40.202,31.092,39.909,31.092z"/>
</g>
</svg>
