<?xml version="1.0" encoding="utf-8"?>
<!-- Generator: Adobe Illustrator 16.0.0, SVG Export Plug-In . SVG Version: 6.00 Build 0)  -->
<!DOCTYPE svg PUBLIC "-//W3C//DTD SVG 1.1//EN" "http://www.w3.org/Graphics/SVG/1.1/DTD/svg11.dtd">
<svg version="1.1" id="Layer_1" xmlns="http://www.w3.org/2000/svg" xmlns:xlink="http://www.w3.org/1999/xlink" x="0px" y="0px"
	 width="64px" height="64px" viewBox="0 0 64 64" enable-background="new 0 0 64 64" xml:space="preserve">
<g id="Men_x2019_s_Sleeveless_Jacket">
	<path fill="#333433" d="M15.924,26.739c0,0,1.072,3.268,1.988,5.006c0,0,0.912-6.842-2.43-12.011
		C15.482,19.734,14.512,22.194,15.924,26.739z"/>
	<path fill="#333433" d="M47.318,19.734c0,0-3.305,4.146-2.582,11.927c0.865-2.418,1.844-4.932,1.844-4.932
		C48.045,22.239,47.318,19.734,47.318,19.734z"/>
	<path fill="#333433" d="M36.893,12.208c-1.627-0.715-3.389-1.096-5.251-1.096c-2.77,0-4.947,0.786-5.771,1.129
		c0.439,0.76,2.266,3.556,5.381,3.674C34.414,15.797,36.42,12.958,36.893,12.208z"/>
	<path fill="#333433" d="M31.955,16.928c-0.004,0.331-0.023,1.061-0.051,2.128c1.301-0.369,4.348-1.555,6.6-4.909l-0.766-1.281
		C37.137,13.806,35.156,16.481,31.955,16.928z"/>
	<path fill="#333433" d="M30.838,19.085c0.023-1.01,0.041-1.749,0.051-2.13c-3.201-0.277-5.107-2.821-5.791-3.926l-0.514,1.249
		c0.055,0.053,0.105,0.115,0.135,0.191C24.777,14.619,26.184,18.055,30.838,19.085z"/>
	<path fill="#333433" d="M30.818,20.166c-4.49-0.913-6.367-3.853-6.914-4.924l-7.633,2.668c-0.164,0.058-0.287,0.194-0.336,0.363
		c-0.047,0.17-0.008,0.354,0.107,0.485c0.027,0.031,2.717,2.959,3.035,11.495L18.166,51.18c-0.01,0.151,0.049,0.297,0.158,0.402
		c0.119,0.123,3.141,2.958,12.666,2.993C30.277,49.035,30.635,28.472,30.818,20.166z M27.814,31.001h-5.146
		c-0.293,0-0.535-0.238-0.535-0.533c0-0.295,0.242-0.533,0.535-0.533h5.146c0.295,0,0.535,0.238,0.535,0.533
		C28.349,30.763,28.109,31.001,27.814,31.001z"/>
	<path fill="#333433" d="M46.811,18.764c0.113-0.129,0.154-0.308,0.117-0.475c-0.041-0.169-0.16-0.306-0.318-0.371l-7.371-2.96
		c-2.641,3.779-6.133,4.917-7.354,5.21c-0.176,8.318-0.533,29.206,0.18,34.377c1.887-0.137,9.361-0.826,12.284-3.387
		c0.123-0.107,0.188-0.262,0.182-0.422l-0.746-20.453C43.855,22.236,46.781,18.799,46.811,18.764z M39.531,31.001h-5.145
		c-0.296,0-0.535-0.238-0.535-0.533c0-0.295,0.239-0.533,0.535-0.533h5.145c0.295,0,0.533,0.238,0.533,0.533
		C40.064,30.763,39.826,31.001,39.531,31.001z"/>
</g>
</svg>
