<?xml version="1.0" encoding="utf-8"?>
<!-- Generator: Adobe Illustrator 16.0.0, SVG Export Plug-In . SVG Version: 6.00 Build 0)  -->
<!DOCTYPE svg PUBLIC "-//W3C//DTD SVG 1.1//EN" "http://www.w3.org/Graphics/SVG/1.1/DTD/svg11.dtd">
<svg version="1.1" id="Layer_1" xmlns="http://www.w3.org/2000/svg" xmlns:xlink="http://www.w3.org/1999/xlink" x="0px" y="0px"
	 width="64px" height="64px" viewBox="0 0 64 64" enable-background="new 0 0 64 64" xml:space="preserve">
<g id="Men_x2019_s_Shirt">
	<path fill="#333433" d="M29.574,18.74c-0.033-0.074-0.051-0.156-0.051-0.236l0.01-1.25l-0.145-0.115l-1.725,4.566
		c-0.078,0.204-0.273,0.342-0.494,0.343c-0.002,0-0.004,0-0.004,0c-0.219,0-0.412-0.131-0.494-0.333l-2.725-6.782l-7.436,2.598
		c-0.166,0.057-0.291,0.19-0.338,0.359l-5.68,13.776l7.857,3.464c0.014,0.002,0.025,0.013,0.037,0.017l0.789-1.428l-0.621,17.033
		c-0.006,0.081,0.012,0.166,0.049,0.24c0.068,0.154,1.836,3.753,11.727,3.753c0.316,0,0.65-0.009,0.977-0.017
		c-1.275-6.765-0.047-29.381,0.107-32.172L29.574,18.74z"/>
	<path fill="#333433" d="M30.396,16.576c0.131,0.104,0.207,0.258,0.205,0.423l-0.012,1.389l1.287,2.669l0.994-2.622l-0.134-1.388
		c-0.018-0.181,0.056-0.357,0.197-0.471l0.881-0.691l3.33-4.008c-1.902-0.638-3.822-0.976-5.71-0.976
		c-2.65,0-4.525,0.632-5.301,0.949l3.387,4.033L30.396,16.576z"/>
	<path fill="#333433" d="M36.831,20.449l1.879-6.44c0.021-0.061,0.052-0.107,0.082-0.155l-0.799-1.332l-3.177,3.822L36.831,20.449z"
		/>
	<polygon fill="#333433" points="28.539,16.373 25.361,12.587 24.75,14.074 27.15,20.049 	"/>
	<path fill="#333433" d="M47.161,17.89c-0.045-0.165-0.164-0.297-0.328-0.357l-7.256-2.699l-2.104,7.23
		c-0.066,0.21-0.248,0.361-0.47,0.381c-0.017,0.001-0.028,0.001-0.047,0.001c-0.201,0-0.388-0.114-0.478-0.299L34,17.093
		l-0.176,0.14l0.117,1.222c0.006,0.082-0.006,0.164-0.031,0.24l-1.419,3.744c-0.084,1.49-1.438,25.827-0.1,32.258
		c2.384-0.1,10.039-0.643,12.351-3.604c0.076-0.096,0.115-0.22,0.109-0.346l-0.681-16.982l0.813,1.492
		c0.012-0.005,0.022-0.015,0.041-0.019l8.146-3.64L47.161,17.89z M33.286,45.822c-0.386,0-0.699-0.313-0.699-0.698
		c0-0.386,0.313-0.699,0.699-0.699c0.385,0,0.694,0.313,0.694,0.699C33.98,45.509,33.671,45.822,33.286,45.822z M33.354,39.83
		c-0.385,0-0.701-0.313-0.701-0.698s0.315-0.698,0.701-0.698c0.383,0,0.692,0.313,0.692,0.698S33.734,39.83,33.354,39.83z
		 M33.415,34.662c-0.386,0-0.697-0.314-0.697-0.698c0-0.386,0.312-0.698,0.697-0.698c0.385,0,0.698,0.313,0.698,0.698
		C34.113,34.348,33.8,34.662,33.415,34.662z M33.648,28.67c-0.387,0-0.7-0.315-0.7-0.698c0-0.386,0.313-0.701,0.7-0.701
		c0.386,0,0.695,0.315,0.695,0.701C34.346,28.354,34.034,28.67,33.648,28.67z M33.979,23.074c-0.383,0-0.699-0.314-0.699-0.698
		s0.316-0.697,0.699-0.697c0.385,0,0.699,0.313,0.699,0.697S34.363,23.074,33.979,23.074z"/>
</g>
</svg>
