<?xml version="1.0" encoding="utf-8"?>
<!-- Generator: Adobe Illustrator 16.0.0, SVG Export Plug-In . SVG Version: 6.00 Build 0)  -->
<!DOCTYPE svg PUBLIC "-//W3C//DTD SVG 1.1//EN" "http://www.w3.org/Graphics/SVG/1.1/DTD/svg11.dtd">
<svg version="1.1" id="Layer_1" xmlns="http://www.w3.org/2000/svg" xmlns:xlink="http://www.w3.org/1999/xlink" x="0px" y="0px"
	 width="64px" height="64px" viewBox="0 0 64 64" enable-background="new 0 0 64 64" xml:space="preserve">
<g id="Scarf">
	<path fill="#333433" d="M32.266,25.203c0,0,2.395,1.82,5.423,2.184l0.476,0.066c3.483-2.993,4.078-8.885,4.078-8.885
		C42.041,7.777,30.471,9.322,30.471,9.322c-12.932,0.612-8.203,14.104-8.203,14.104c3.664,9.129,14.207,10.854,14.207,10.854
		c2.506-2.23,2.232-5.583,2.232-5.583C26.314,26.555,27.328,18.9,27.328,18.9c-0.229-5.356,3.863-5.062,3.863-5.062
		c5.592-0.734,5.393,4.461,5.393,4.461C36.818,21.144,33.902,23.95,32.266,25.203z"/>
	<path fill="#333433" d="M36.014,47.618c-0.008-0.044-0.022-0.082-0.035-0.118h0.002c0,0-1.674-7.762-1.598-12.656l-0.754-0.285
		c-2.188-0.578-5.572-2.442-5.572-2.442s-5.445,5.515-3.59,18.166c-0.047,0.077-0.084,0.163-0.086,0.262
		c-0.041,1.124-0.115,4.868,0.469,5.745c0.105,0.154,0.271,0.236,0.443,0.236c0.102,0,0.203-0.03,0.295-0.09
		c0.248-0.16,0.311-0.492,0.15-0.737c-0.266-0.401-0.363-2.974-0.295-5.118c0-0.006-0.002-0.012-0.002-0.018h1.596
		c0,0.018-0.008,0.031-0.006,0.052c0.078,0.794,0.5,4.806,1.082,5.675c0.105,0.154,0.271,0.236,0.443,0.236
		c0.102,0,0.205-0.028,0.293-0.086c0.25-0.166,0.313-0.496,0.15-0.741c-0.289-0.431-0.684-2.938-0.904-5.136h3.523
		c0.104,1.004,0.512,4.719,1.069,5.551c0.099,0.156,0.271,0.24,0.443,0.24c0.1,0,0.203-0.029,0.293-0.09
		c0.244-0.164,0.313-0.494,0.15-0.738c-0.291-0.437-0.688-2.98-0.908-5.19c-0.006-0.065-0.027-0.126-0.057-0.181v-2.5l2.354-0.108
		c-0.012,0.058-0.022,0.12-0.016,0.181c0.077,0.793,0.5,4.801,1.079,5.672c0.103,0.154,0.271,0.238,0.443,0.238
		c0.103,0,0.203-0.027,0.295-0.092c0.246-0.163,0.312-0.49,0.146-0.736C36.629,52.373,36.232,49.828,36.014,47.618z"/>
</g>
</svg>
