<?xml version="1.0" encoding="utf-8"?>
<!-- Generator: Adobe Illustrator 16.0.0, SVG Export Plug-In . SVG Version: 6.00 Build 0)  -->
<!DOCTYPE svg PUBLIC "-//W3C//DTD SVG 1.1//EN" "http://www.w3.org/Graphics/SVG/1.1/DTD/svg11.dtd">
<svg version="1.1" id="Layer_1" xmlns="http://www.w3.org/2000/svg" xmlns:xlink="http://www.w3.org/1999/xlink" x="0px" y="0px"
	 width="64px" height="64px" viewBox="0 0 64 64" enable-background="new 0 0 64 64" xml:space="preserve">
<g id="Skirt">
	<path fill="#333433" d="M47.091,26.491c-1.36-8.239-5.741-12.243-5.741-12.243c-1.408,0.684-2.765,1.195-4.052,1.567v0.181
		c0.013,0.195,1.578,23.587,8.772,30.18l0.562,0.613c4.634-0.445,8.623-4.953,8.623-4.953
		C49.357,40.324,47.091,26.491,47.091,26.491z"/>
	<path fill="#333433" d="M17.323,46.359c7.568-12.071,8.9-30.113,8.912-30.291v-0.136c-2.459-0.711-3.855-1.686-3.855-1.686
		c-2.615,2.336-6.123,13.709-6.123,13.709C14.228,35.422,7.4,41.566,7.4,41.566c2.98,3.465,7.973,4.656,9.813,4.99
		C17.249,46.491,17.288,46.425,17.323,46.359z"/>
	<path fill="#333433" d="M45.407,47.436l-0.283-0.313c-7.383-6.754-9.028-29.045-9.16-30.969c-3.319,0.744-6.176,0.577-8.396,0.112
		c-0.141,1.729-1.711,19.01-9.08,30.764c-0.133,0.253-0.295,0.518-0.465,0.773c3.33-0.089,6.926,3.33,6.926,3.33
		c3.777,0.83,6.5,0,6.5,0c1.357-0.908,4.154-0.607,4.154-0.607c1.36,1.359,4.688,0,4.688,0c1.512-1.588,5.33-2.267,5.33-2.267
		C45.415,47.991,45.382,47.691,45.407,47.436z"/>
</g>
</svg>
