<?xml version="1.0" encoding="utf-8"?>
<!-- Generator: Adobe Illustrator 16.0.0, SVG Export Plug-In . SVG Version: 6.00 Build 0)  -->
<!DOCTYPE svg PUBLIC "-//W3C//DTD SVG 1.1//EN" "http://www.w3.org/Graphics/SVG/1.1/DTD/svg11.dtd">
<svg version="1.1" id="Layer_1" xmlns="http://www.w3.org/2000/svg" xmlns:xlink="http://www.w3.org/1999/xlink" x="0px" y="0px"
	 width="64px" height="64px" viewBox="0 0 64 64" enable-background="new 0 0 64 64" xml:space="preserve">
<g id="Sweater">
	<path fill="#333433" d="M11.206,53.76l-4.262-0.102c-0.279,0-0.479,0.17-0.537,0.418l-0.443,2.013
		c-0.035,0.158,0.002,0.324,0.105,0.451c0.102,0.125,0.254,0.196,0.418,0.196h4.307c0.254,0,0.469-0.176,0.52-0.422l0.402-1.91
		c0.033-0.155-0.004-0.318-0.105-0.441C11.515,53.838,11.366,53.764,11.206,53.76z"/>
	<path fill="#333433" d="M56.441,54.076c-0.057-0.248-0.262-0.416-0.534-0.418l-4.265,0.102c-0.158,0.004-0.307,0.078-0.404,0.202
		s-0.137,0.287-0.104,0.44l0.4,1.91c0.051,0.248,0.268,0.424,0.518,0.424h4.313c0.008,0,0.014,0,0.021,0
		c0.295,0,0.533-0.239,0.533-0.533c0-0.094-0.023-0.18-0.063-0.254L56.441,54.076z"/>
	<path fill="#333433" d="M30.558,16.436h0.086c0.783-0.455,5.303-3.172,7.713-6.635L36.234,8.93
		c-0.223-0.09-0.479-0.021-0.629,0.169c-1.688,2.224-4.378,3.907-5.005,4.281c-0.625-0.372-3.334-2.054-4.998-4.277
		c-0.146-0.194-0.406-0.265-0.629-0.173l-2.08,0.856C25.546,13.536,29.812,16.02,30.558,16.436z"/>
	<path fill="#333433" d="M56.376,52.596c0.324-0.01,0.545-0.234,0.545-0.533c0-0.102-0.028-0.193-0.073-0.273l-9.716-36.274
		c-0.021-0.068-0.051-0.131-0.092-0.187c-2.226-2.919-3.767-3.508-3.813-3.525l-3.871-1.59c-2.731,4.082-8.08,7.091-8.315,7.223
		c-0.078,0.044-0.166,0.067-0.256,0.067h-0.363c-0.086,0-0.17-0.021-0.248-0.063c-0.217-0.113-5.258-2.809-8.287-7.241l-3.885,1.597
		c-0.063,0.025-1.607,0.613-3.832,3.533c-0.049,0.06-0.082,0.131-0.098,0.205L5.747,51.866c-0.035,0.159,0.002,0.325,0.104,0.452
		c0.1,0.125,0.256,0.201,0.42,0.201h6.545c0.246,0,0.465-0.177,0.521-0.422l4.701-21.135c0.107,3.967,0.232,10.454,0.232,20.309
		c0,0.285,0.227,0.513,0.512,0.527h23.645c0.283-0.015,0.507-0.242,0.507-0.527c0-10.445,0.145-17.144,0.258-20.99l5.949,21.918
		c0.063,0.236,0.272,0.396,0.516,0.396h6.711C56.366,52.596,56.372,52.596,56.376,52.596z"/>
	<path fill="#333433" d="M20.155,54.584c0,0.294,0.24,0.535,0.533,0.535h19.764c0.293,0,0.53-0.24,0.53-0.535v-1.72H20.155V54.584z"
		/>
</g>
</svg>
