<?xml version="1.0" encoding="utf-8"?>
<!-- Generator: Adobe Illustrator 16.0.0, SVG Export Plug-In . SVG Version: 6.00 Build 0)  -->
<!DOCTYPE svg PUBLIC "-//W3C//DTD SVG 1.1//EN" "http://www.w3.org/Graphics/SVG/1.1/DTD/svg11.dtd">
<svg version="1.1" id="Layer_1" xmlns="http://www.w3.org/2000/svg" xmlns:xlink="http://www.w3.org/1999/xlink" x="0px" y="0px"
	 width="64px" height="64px" viewBox="0 0 64 64" enable-background="new 0 0 64 64" xml:space="preserve">
<g id="T-Shirt">
	<path fill="#333433" d="M32.848,13.802h0.291c3.784,0.091,5.185-4.083,5.242-4.261l0.055-0.18c-2.09,1.416-4.643,1.499-5.146,1.499
		l-0.151-0.003L32.71,10.86c-0.501,0-3.057-0.083-5.149-1.502l0.059,0.188C27.677,9.719,29.061,13.883,32.848,13.802z"/>
	<path fill="#333433" d="M17.046,14.04c-0.549,0.537-1.169,1.219-1.859,2.125l-5.612,8.468c-0.148,0.227-0.104,0.528,0.102,0.703
		l7.273,6.129c0.216,0.182,0.539,0.165,0.731-0.043l0.487-0.517c0.349-9.613-1.017-16.554-1.033-16.626L17.046,14.04z"/>
	<path fill="#333433" d="M32.809,17.471c0,0,0.002,0,0.004,0h0.373c0,0,0.002,0,0.004,0c7.185,0,8.761-6.462,8.774-6.526l0.076-0.52
		l-2.505-1.027l-0.137,0.46c-0.02,0.063-1.719,5.074-6.274,5.008h-0.263c-0.051,0.001-0.102,0.002-0.148,0.002
		c-4.448,0-6.09-4.948-6.106-4.997L26.457,9.4l-2.502,1.028l0.088,0.553C24.096,11.211,25.649,17.471,32.809,17.471z"/>
	<path fill="#333433" d="M47.82,14.063l0.297-0.781c-0.873-0.72-1.414-0.941-1.44-0.951l-3.622-1.488l-0.045,0.302
		c-0.023,0.113-1.798,7.394-9.82,7.394h-0.004h-0.373c-0.002,0-0.004,0-0.004,0c-8.02,0-9.795-7.28-9.812-7.352l-0.055-0.341
		l-3.601,1.479c-0.037,0.014-0.577,0.233-1.448,0.949l0.264,0.721c0.033,0.141,1.316,6.622,1.11,15.742l0.039-0.038
		c0.109,2.986,0.362,11.344,0.362,25.726c0,0.271,0.203,0.496,0.471,0.526c0.056,0.01,5.823,0.693,11.568,0.693
		c0.388,0,0.775-0.002,1.154-0.009h0.268c0.387,0.007,0.775,0.009,1.161,0.009c5.749,0,11.515-0.685,11.571-0.693
		c0.27-0.03,0.468-0.258,0.468-0.526c0-12.981,0.206-21.039,0.329-24.685C46.332,21.094,47.805,14.132,47.82,14.063z"/>
	<path fill="#333433" d="M56.424,24.633l-5.632-8.496c-0.677-0.89-1.29-1.562-1.829-2.093l-0.126,0.324
		c0.007,0-1.442,6.878-1.112,16.424l0.594,0.63c0.193,0.208,0.514,0.225,0.73,0.043l7.274-6.129
		C56.531,25.161,56.574,24.859,56.424,24.633z"/>
</g>
</svg>
