<?xml version="1.0" encoding="utf-8"?>
<!-- Generator: Adobe Illustrator 16.0.0, SVG Export Plug-In . SVG Version: 6.00 Build 0)  -->
<!DOCTYPE svg PUBLIC "-//W3C//DTD SVG 1.1//EN" "http://www.w3.org/Graphics/SVG/1.1/DTD/svg11.dtd">
<svg version="1.1" id="Layer_1" xmlns="http://www.w3.org/2000/svg" xmlns:xlink="http://www.w3.org/1999/xlink" x="0px" y="0px"
	 width="64px" height="64px" viewBox="0 0 64 64" enable-background="new 0 0 64 64" xml:space="preserve">
<path id="Tank_Top" fill="#333433" d="M40.357,43.225c-0.236-3.242,1.498-8.559,1.502-8.574c1.455-3.552,1.695-6.149,1.705-6.268
	c0.065-0.945-0.562-1.57-0.955-1.801c-3.902-2.148-3.426-10.023-3.418-10.133c0.035-2.729-0.383-4.367-1.275-5.01
	c-0.379-0.27-0.771-0.309-1.039-0.246c-0.719,0.016-1.342,0.324-1.801,0.895c-2.137,2.666-0.516,10.805-0.135,12.551
	c-0.346,0.424-1.416,1.508-3.254,1.508c-1.42,0-2.318-0.646-2.793-1.135c0.529-2.145,2.871-12.447-0.986-13.584
	c-0.412-0.123-0.818-0.059-1.186,0.186c-1.395,0.934-1.842,4.502-1.916,5.205c-0.119,1.068-0.785,4.168-0.789,4.191
	c-0.863,3.686-3.336,5.768-3.324,5.768c-0.857,0.496-0.871,1.494-0.752,1.959c0.438,2.75,1.416,4.975,1.432,4.99
	c0.016,0.056,1.557,5.844,0.727,9.924c-0.836,4.142-2.713,8.104-2.732,8.144l-0.281,0.584l0.627,0.16
	c6.014,1.535,10.621,2.024,14.065,2.024c6.007,0,8.462-1.498,8.613-1.596l0.357-0.227l-0.141-0.398
	C42.592,52.281,40.6,46.512,40.357,43.225z M27.893,23.398c-0.006-0.021-0.855-2.141-0.855-3.977
	c0.002-0.043,0.121-4.211,0.486-5.535c0.131-0.477,0.295-0.973,0.42-1.277c1.707,1.176,1.1,6.924,0.15,11.162L27.893,23.398z
	 M37.025,17.088c-0.422,3.014-0.922,4.873-1.313,5.973c-0.58-3.223-1.187-8.582,0.197-10.305c0.252-0.314,0.545-0.473,0.92-0.496
	c0.166,0.135,0.319,0.635,0.346,1.021l0.017,0.174l0.051,0.064C37.279,13.693,37.393,14.488,37.025,17.088z"/>
</svg>
