<?xml version="1.0" encoding="utf-8"?>
<!-- Generator: Adobe Illustrator 16.0.0, SVG Export Plug-In . SVG Version: 6.00 Build 0)  -->
<!DOCTYPE svg PUBLIC "-//W3C//DTD SVG 1.1//EN" "http://www.w3.org/Graphics/SVG/1.1/DTD/svg11.dtd">
<svg version="1.1" id="Layer_1" xmlns="http://www.w3.org/2000/svg" xmlns:xlink="http://www.w3.org/1999/xlink" x="0px" y="0px"
	 width="64px" height="64px" viewBox="0 0 64 64" enable-background="new 0 0 64 64" xml:space="preserve">
<path id="Track_Pant" fill="#333433" d="M42.291,30.185l-1.598-18.018l0.047-1.779c0.006-0.185-0.088-0.358-0.24-0.46
	c-0.156-0.103-0.352-0.113-0.52-0.037c-0.025,0.011-2.533,1.161-7.995,1.282h-0.293c-5.471-0.121-7.947-1.27-7.973-1.281
	c-0.164-0.078-0.361-0.067-0.516,0.032c-0.155,0.099-0.246,0.27-0.246,0.454l0.014,1.729L21.376,30.19l-1.98,24.533
	c-0.021,0.262,0.152,0.502,0.412,0.563c0.098,0.021,2.662,0.59,6.27,0.46c0.275-0.009,0.494-0.226,0.512-0.501
	c0.018-0.256,1.609-25.554,5.244-32.273c3.633,6.708,5.225,32.017,5.238,32.273c0.018,0.275,0.242,0.492,0.516,0.501
	c0.357,0.013,0.705,0.019,1.041,0.019c3.055,0,5.143-0.462,5.227-0.479c0.261-0.061,0.438-0.299,0.414-0.563L42.291,30.185z"/>
</svg>
