<?xml version="1.0" encoding="utf-8"?>
<!-- Generator: Adobe Illustrator 16.0.0, SVG Export Plug-In . SVG Version: 6.00 Build 0)  -->
<!DOCTYPE svg PUBLIC "-//W3C//DTD SVG 1.1//EN" "http://www.w3.org/Graphics/SVG/1.1/DTD/svg11.dtd">
<svg version="1.1" id="Layer_1" xmlns="http://www.w3.org/2000/svg" xmlns:xlink="http://www.w3.org/1999/xlink" x="0px" y="0px"
	 width="64px" height="64px" viewBox="0 0 64 64" enable-background="new 0 0 64 64" xml:space="preserve">
<g id="Tunic_Dress">
	<path fill="#333433" d="M32.332,33.6c1.253-0.175,2.461-0.363,3.007-0.478l0.626-4.464c0-0.008,0.004-0.012,0.006-0.02
		c0.002-0.008,0-0.014,0-0.02l0.459-2.082c-0.955,0.486-1.959,1.733-2.33,2.283L32.331,33.5L32.332,33.6L32.332,33.6z"/>
	<polygon fill="#333433" points="32.332,30.486 32.854,29.101 32.332,29.101 	"/>
	<path fill="#333433" d="M43.111,39.375c0,0-1.215-8.204-3.291-12.306c0,0,0.15-0.354-0.18-0.758c0,0-0.014-0.091-0.035-0.231
		l-0.235,0.087l0.926,10.582c0.019,0.196-0.075,0.384-0.237,0.491l-0.134,0.085c0.048,0.069,0.085,0.146,0.099,0.231
		c0.119,0.903,0.338,1.672,0.57,2.478c0.329,1.146,0.67,2.336,0.727,3.968c0.005,0.09,0.267,8.516,1.224,11.438l3.063-0.502
		C45.609,54.938,43.873,44.543,43.111,39.375z"/>
	<path fill="#333433" d="M39.208,36.525l-0.906-10.367c-0.284-0.088-0.536-0.031-0.704,0.026L37.02,28.82l-1.151,9.839l1.254-0.755
		L39.208,36.525z"/>
	<path fill="#333433" d="M26.728,25.513c-0.101,0.419-0.224,1.087-0.261,1.997c0,0-0.096,0.12-0.281,0.525h7.162
		c0.332-0.463,1.094-1.436,2.026-2.096c-2.144-0.269-5.967-0.384-8.504-0.396C26.819,25.544,26.774,25.528,26.728,25.513z"/>
	<path fill="#333433" d="M35.775,24.93c0.558,0.083,1.029,0.179,1.349,0.291c0.26-0.104,0.688-0.217,1.173-0.148l0.939-0.524
		c0.087-0.051,0.183-0.063,0.277-0.061c0.002-0.007,0.002-0.017,0.002-0.024l0.836-4.734c0,0,0.556-1.964,0.809-2.139
		c0,0-1.012-4.192,0.355-7.537L40.982,9.55l-2.69-0.478c0,0,0.187,0.913,0.052,1.542c0,0-0.279,1.521-0.607,1.901
		c-0.228,0.26-0.549,1.121-1.877,1.659c0.121,0.102,0.201,0.249,0.192,0.419C36.048,14.666,35.734,21.683,35.775,24.93z"/>
	<path fill="#333433" d="M35.486,40.134c-0.082,0.054-0.178,0.079-0.274,0.079c-0.101,0-0.2-0.027-0.289-0.085
		c-0.171-0.108-0.263-0.308-0.241-0.51l0.633-5.409c-0.795,0.156-2.039,0.335-2.982,0.465v4.602
		c-1.406,11.578-0.54,16.517-0.531,16.563c0.019,0.104-0.001,0.201-0.036,0.291c0.011,0.008,0.026,0.012,0.035,0.018v0.535
		c0,0,2.576,0.295,3.687,0.041c0.353-2.926,0.095-13.425,0.007-16.588L35.486,40.134L35.486,40.134z"/>
	<path fill="#333433" d="M31.269,34.736c-0.077-0.032-0.149-0.084-0.206-0.154c-0.116-0.148-0.146-0.346-0.08-0.52l0.285-0.758
		L31.266,29.1h-2.67c-0.001,0.01,0.002,0.016,0.002,0.024l-0.911,6.078c-0.699,6.571-1.557,20.624-1.565,20.765
		c-0.001,0.014-0.008,0.022-0.009,0.034c0.966,0.113,2.987,0.293,3.597-0.065c0,0,0.482-0.084,1.018-0.064
		c-0.142-0.914-0.764-5.922,0.543-16.661L31.269,34.736z"/>
	<path fill="#333433" d="M39.57,40.331c-0.211-0.747-0.424-1.522-0.559-2.406l-1.609,1.052l-0.864,0.521
		c0.062,2.016,0.364,12.848,0.063,16.786c0.541-0.109,1.272-0.228,1.479-0.146l3.461-0.337c-1.014-3.065-1.273-11.405-1.285-11.766
		C40.204,42.536,39.895,41.464,39.57,40.331z"/>
	<path fill="#333433" d="M27.524,29.101h-1.563c-0.068,0-0.129-0.014-0.189-0.036c-0.643,1.76-1.726,5.419-3.222,12.828
		c0,0-1.62,10.801-2.16,12.426c0,0,0.541,0.469,1.821,0.675c0.953,0.147,2.198,0.039,2.891,0.192
		c0.183-2.959,0.917-14.36,1.526-20.119L27.524,29.101z"/>
	<path fill="#333433" d="M25.488,17.35c0,0,0.438,0.979,0.774,3.61l0.534,3.533c0.025-0.004,0.047-0.017,0.077-0.017l0,0
		c0.58,0.004,2.058,0.015,3.733,0.075c0.162-2.286-0.017-10.16-0.02-10.241c-0.001-0.102,0.031-0.193,0.081-0.278
		c-1.118-0.571-1.588-1.367-1.588-1.367s-1.111-1.443-1.342-3.594l-1.919,0.58c0,0-0.685-0.255-1.139,0.401
		C24.679,10.053,26.401,11.574,25.488,17.35z"/>
	<path fill="#333433" d="M31.671,24.594c1.044,0.045,2.103,0.113,3.039,0.208c-0.032-3.345,0.272-10.184,0.278-10.255
		c0-0.042,0.018-0.078,0.027-0.118c-0.457,0.1-0.992,0.17-1.625,0.186c-0.672,0.018-1.237-0.078-1.736-0.213
		C31.675,15.37,31.824,22.309,31.671,24.594z M33.23,23.979c-0.428,0-0.774-0.347-0.774-0.774c0-0.425,0.347-0.771,0.774-0.771
		c0.426,0,0.773,0.346,0.773,0.771C34.005,23.633,33.657,23.979,33.23,23.979z M33.23,16.116c0.426,0,0.773,0.346,0.773,0.773
		c0,0.429-0.348,0.773-0.773,0.773c-0.428,0-0.774-0.345-0.774-0.773C32.456,16.462,32.803,16.116,33.23,16.116z M33.229,19.038
		c0.428,0,0.775,0.348,0.775,0.775c0,0.426-0.348,0.772-0.775,0.772c-0.426,0-0.772-0.347-0.772-0.772
		C32.456,19.386,32.803,19.038,33.229,19.038z"/>
</g>
</svg>
