<?xml version="1.0" encoding="utf-8"?>
<!-- Generator: Adobe Illustrator 16.0.0, SVG Export Plug-In . SVG Version: 6.00 Build 0)  -->
<!DOCTYPE svg PUBLIC "-//W3C//DTD SVG 1.1//EN" "http://www.w3.org/Graphics/SVG/1.1/DTD/svg11.dtd">
<svg version="1.1" id="Layer_1" xmlns="http://www.w3.org/2000/svg" xmlns:xlink="http://www.w3.org/1999/xlink" x="0px" y="0px"
	 width="64px" height="64px" viewBox="0 0 64 64" enable-background="new 0 0 64 64" xml:space="preserve">
<g id="Woman_x2019_s_Coat">
	<path fill="#333433" d="M36.395,14.919c0,0-3.295,2.434-6.75,0.084c0,0-0.713,12.315,3.659,16.463
		C33.303,31.466,37.124,23.19,36.395,14.919z"/>
	<path fill="#333433" d="M28.875,14.081l-1.018,1.018l-0.036,0.013c-2.453,3.864-1.986,6.446-1.981,6.473
		c0.054,0.281-0.126,0.563-0.406,0.625l-1.013,0.229c0.701,1.857,3.31,7.958,8.337,11.353c0.098-0.565,0.165-0.89,0.165-0.89
		C27.466,26.285,28.875,14.081,28.875,14.081z"/>
	<path fill="#333433" d="M32.371,34.824c-6.413-4.183-9.05-12.266-9.161-12.606c-0.044-0.145-0.029-0.298,0.044-0.428
		c0.076-0.128,0.2-0.223,0.346-0.256l1.137-0.257c-0.045-0.917,0.08-2.972,1.588-5.733l-8.337,2.427L8.827,40.073
		c0,0,1.598,3.948,6.016,3.235l6.132-15.726c0,0,3.283,7.203-1.335,19.545c0,0,7.042,5.144,11.805,4.463l0.306-0.082
		c0,0,0.897-0.842,0.649-2.719c-0.755-5.733-0.219-11.115,0.184-13.904C32.514,34.879,32.437,34.869,32.371,34.824z"/>
	<path fill="#333433" d="M33.883,33.201c-0.004,0.011-0.007,0.023-0.011,0.035c4.237-3.43,6.926-9.013,7.715-10.807l-0.979-0.221
		c-0.143-0.031-0.266-0.12-0.34-0.249c-0.074-0.122-0.095-0.275-0.054-0.418c0.009-0.02,0.677-2.653-1.871-6.581
		c-0.007-0.014-0.008-0.025-0.014-0.039l-0.843-0.841C38.287,22.735,33.883,33.201,33.883,33.201z"/>
	<path fill="#333433" d="M48.012,17.971l-8.098-2.444c1.486,2.754,1.52,4.818,1.42,5.757l1.107,0.251
		c0.151,0.035,0.281,0.135,0.354,0.271c0.07,0.137,0.08,0.299,0.024,0.443c-0.135,0.343-3.353,8.456-9.266,12.569
		c-0.019,0.01-0.041,0.006-0.06,0.018c-0.726,3.999-0.556,9.996-0.556,9.996c0.006,6.398,1.985,6.889,1.985,6.889
		c3.958,0.691,10.87-4.121,10.87-4.121c-3.764-10.354-0.52-19.217-0.52-19.217l6.246,14.928c4.146,0.057,5.65-3.236,5.65-3.236
		L48.012,17.971z M34.045,43.258c-0.416,0-0.754-0.338-0.754-0.755c0-0.416,0.338-0.753,0.754-0.753s0.755,0.337,0.755,0.753
		C34.801,42.92,34.461,43.258,34.045,43.258z M34.527,36.534c-0.418,0-0.756-0.337-0.756-0.755c0-0.414,0.338-0.756,0.756-0.756
		c0.416,0,0.755,0.342,0.755,0.756C35.283,36.197,34.943,36.534,34.527,36.534z"/>
</g>
</svg>
