<?xml version="1.0" encoding="utf-8"?>
<!-- Generator: Adobe Illustrator 16.0.0, SVG Export Plug-In . SVG Version: 6.00 Build 0)  -->
<!DOCTYPE svg PUBLIC "-//W3C//DTD SVG 1.1//EN" "http://www.w3.org/Graphics/SVG/1.1/DTD/svg11.dtd">
<svg version="1.1" id="Layer_1" xmlns="http://www.w3.org/2000/svg" xmlns:xlink="http://www.w3.org/1999/xlink" x="0px" y="0px"
	 width="64px" height="64px" viewBox="0 0 64 64" enable-background="new 0 0 64 64" xml:space="preserve">
<g id="Woman_x2019_s_Top">
	<path fill="#333433" d="M19.604,29.928c0.086,0.061,0.162,0.144,0.201,0.256c0.043,0.12,1.094,3.005,6.098,3.646
		c0,0,0.016,0.002,0.018,0.002c0.439,0.025,1.631,0.043,2.846-0.443c0.164-0.051,2.885-0.824,4.775,0.102
		c1.283,0.453,2.521,0.353,2.728,0.332c4.983-0.659,6.01-4.299,6.02-4.335c0.037-0.146,0.131-0.258,0.25-0.327
		c0.119-1.396,0.619-3.081,2.041-4.636c0.186-0.199,0.189-0.509,0.008-0.712c-0.031-0.038-3.346-3.815-4.078-5.863
		c-0.043-0.128-0.143-0.229-0.264-0.288c0.535-2.917,1.363-8.503,0.125-9.727c-0.285-0.281-0.658-0.395-1.059-0.309
		c-2.578,0.531-3.066,3.972-3.232,11.995l-0.961,0.516c-0.15,0.079-0.256,0.241-0.281,0.409c-0.002,0.012-0.24,1.283-3.363,1.674
		c-0.029,0-2.996-0.123-3.305-1.588c-0.039-0.161-0.145-0.3-0.295-0.373l-1.813-0.857c-0.168-7.859-0.67-11.25-3.225-11.775
		c-0.398-0.083-0.777,0.027-1.063,0.309c-1.232,1.224-0.408,6.798,0.127,9.717c-0.016,0.006-0.033,0.004-0.049,0.012
		c-0.148,0.089-0.248,0.241-0.27,0.41c-0.004,0.046-0.518,4.748-3.682,5.577c-0.189,0.048-0.334,0.192-0.381,0.379
		c-0.049,0.188,0.01,0.388,0.146,0.52C17.757,24.638,19.546,26.417,19.604,29.928z M39.46,9.014c0.408,0.854,0.11,4.836-0.688,8.982
		c-0.014,0.063-0.004,0.123,0.002,0.188l-1.289,0.688C37.654,12.028,38.177,9.435,39.46,9.014z M22.69,9.014
		c1.275,0.419,1.797,2.981,1.969,9.727l-1.285-0.609c0-0.046,0.01-0.087,0-0.135C22.577,13.85,22.278,9.867,22.69,9.014z"/>
	<path fill="#333433" d="M42.833,32.193c-0.015-0.05-0.127-0.399-0.22-0.947c-0.842,1.324-2.612,3.122-6.106,3.615
		c-0.021,0.007-0.041,0.021-0.063,0.021c-0.02,0.002-0.174,0.02-0.407,0.027c-0.101,0.006-0.211,0.01-0.351,0.01
		c-0.61,0-1.567-0.074-2.572-0.43c-0.04-0.014-0.069-0.039-0.104-0.063c-1.295-0.556-3.066-0.227-3.678-0.082
		c-0.027,0.018-0.049,0.04-0.082,0.055c-1.088,0.432-2.148,0.52-2.807,0.52c-0.047,0-0.08-0.002-0.121-0.002
		c-0.006,0-0.014,0-0.021,0c-0.412,0-0.674-0.031-0.699-0.035c-0.047-0.007-0.084-0.027-0.125-0.045
		c-3.424-0.508-5.162-2.02-5.99-3.11c-0.033,0.203-0.057,0.404-0.1,0.622c-0.18,0.533-4.289,12.65-4.234,17.996
		c1.154,0.366,7.258,2.191,10.789,1c2.313-0.779,3.865-0.127,4.998,0.353c0.369,0.153,0.689,0.288,0.961,0.339
		c0.039,0.008,0.07,0.018,0.105,0.031c0.016,0.006,1.867,0.726,4.629-0.021c1.5-0.406,2.97-0.354,4.269-0.313
		c1.371,0.052,2.561,0.09,3.496-0.392c1.522-0.78,2.463-1.306,2.824-1.509C47.206,47.587,46.734,41.574,42.833,32.193z"/>
	<path fill="#333433" d="M48.807,55.031l-1.492-4.028c-0.5,0.278-1.297,0.709-2.431,1.289c-1.182,0.608-2.561,0.562-4.021,0.508
		c-1.279-0.045-2.602-0.089-3.947,0.275c-1.051,0.284-1.986,0.381-2.762,0.381c-1.373,0-2.271-0.298-2.5-0.381
		c-0.367-0.074-0.736-0.232-1.129-0.396c-1.031-0.433-2.314-0.972-4.242-0.322c-3.637,1.23-9.4-0.36-11.154-0.903
		c-0.123,0.825-0.471,2.711-1.248,4.155c-0.1,0.185-0.082,0.412,0.047,0.576c0.107,0.14,0.73,0.826,2.617,0.826
		c0.473,0,1.002-0.041,1.568-0.133c0.285-0.046,0.58-0.068,0.869-0.068c0.992,0,1.834,0.267,2.648,0.521
		c1.096,0.346,2.188,0.62,3.215,0.304c1.613-0.493,1.57-0.399,2.703-0.157c0.387,0.082,0.877,0.188,1.535,0.304
		c0.49,0.088,0.869,0.159,1.178,0.22c0.617,0.123,0.992,0.195,1.404,0.195c0.504,0,1.021-0.105,2.147-0.331l0.422-0.089
		c1.228-0.245,2.22-0.35,3.312-0.35c0.468,0,0.912,0.02,1.381,0.036c0.523,0.021,1.072,0.041,1.703,0.041
		c2.345,0,3.545-0.034,5.205-0.862c1.438-0.723,2.541-0.896,2.554-0.898c0.157-0.023,0.297-0.115,0.377-0.255
		C48.848,55.35,48.861,55.18,48.807,55.031z"/>
</g>
</svg>
