<?xml version="1.0" encoding="utf-8"?>
<!-- Generator: Adobe Illustrator 16.0.0, SVG Export Plug-In . SVG Version: 6.00 Build 0)  -->
<!DOCTYPE svg PUBLIC "-//W3C//DTD SVG 1.1//EN" "http://www.w3.org/Graphics/SVG/1.1/DTD/svg11.dtd">
<svg version="1.1" id="Layer_1" xmlns="http://www.w3.org/2000/svg" xmlns:xlink="http://www.w3.org/1999/xlink" x="0px" y="0px"
	 width="64px" height="64px" viewBox="0 0 64 64" enable-background="new 0 0 64 64" xml:space="preserve">
<g id="Woman_x2019_s_T-shirt">
	<path fill="#333433" d="M32.993,12.956c0.046,0,4.748-0.079,6.562-3.146c-1.795-0.734-4.002-1.107-6.57-1.107
		c-3.393,0-6.172,0.646-6.291,0.673c-0.015,0.004-0.026,0.015-0.041,0.019c0.002,0.017,0.01,0.028,0.011,0.044
		C26.676,9.597,26.96,12.956,32.993,12.956z"/>
	<path fill="#333433" d="M46.18,27.726c0.031,0.014,0.067,0.023,0.104,0.03c2.185,0.345,4.859-0.549,5.572-1.418
		c0.231-0.282,0.244-0.534,0.211-0.695c-0.102-0.511-2.118-9.423-2.541-11.114c-0.498-1.993-3.237-2.733-4.85-2.733
		c-1.099,0-2.797-0.215-3.343-0.29l-0.967-0.976c-2.177,3.415-7.151,3.487-7.372,3.489c-5.191,0-6.738-2.384-7.197-3.692
		c-0.319,0.397-0.694,0.848-0.94,1.097c-0.25,0.245-0.668,0.281-1.38,0.321c-0.232,0.012-0.477,0.027-0.735,0.053
		c-1.168,0.117-2.521,0.592-3.807,1.336c-1.418,0.832-2.208,1.672-2.562,2.726c-0.022,0.062-1.982,6.115-2.45,9.391
		c-0.025,0.182,0.042,0.363,0.179,0.479c0.807,0.693,2.354,1.043,4.604,1.043c0.872,0,1.543-0.055,1.682-0.069
		c-0.121,1.16-0.155,3.656,1.383,5.669c0.015,0.023,1.412,2.439,0.623,4.654c-0.145,0.404-0.367,0.894-0.627,1.469
		c-1.298,2.863-3.712,8.193-2.238,16.097c0.033,0.179,0.152,0.326,0.32,0.396c0.204,0.086,5.149,2.104,13.163,2.104
		c4.618,0,9.314-0.68,13.959-2.018c0.204-0.059,0.352-0.231,0.381-0.442c1.366-10.536-2.32-16.399-2.447-16.592
		c-0.5-1.032-1.584-4.001-0.645-5.315c1.766-2.477,1.662-5.021,1.654-5.067c0-0.005,0.001-0.016,0.001-0.023L46.18,27.726z"/>
</g>
</svg>
