<?xml version="1.0" encoding="utf-8"?>
<!-- Generator: Adobe Illustrator 16.0.0, SVG Export Plug-In . SVG Version: 6.00 Build 0)  -->
<!DOCTYPE svg PUBLIC "-//W3C//DTD SVG 1.1//EN" "http://www.w3.org/Graphics/SVG/1.1/DTD/svg11.dtd">
<svg version="1.1" id="Layer_1" xmlns="http://www.w3.org/2000/svg" xmlns:xlink="http://www.w3.org/1999/xlink" x="0px" y="0px"
	 width="64px" height="64px" viewBox="0 0 64 64" enable-background="new 0 0 64 64" xml:space="preserve">
<g id="Woman_x2019_s_Pant">
	<polygon fill="#333433" points="25.357,11.583 25.363,11.587 25.363,11.583 	"/>
	<path fill="#333433" d="M40.729,33.76c0,0-0.814-3.413-0.441-7.272c0,0,1.408-7.494-1.563-13.209l-0.423-1.695
		c0,0-1.602,1.695-6.66,2.067c-0.504,0-4.361-0.002-6.279-2.063l-0.424,1.691c-2.969,5.715-1.557,13.209-1.557,13.209
		c0.369,3.859-0.449,7.272-0.449,7.272c-2.52,6.01-2.148,19.362-2.148,19.362l0.029-0.017l5.652,1.061
		c0.75-1.893,0.842-8.609,0.842-8.609c0.146-4.156,1.557-9.424,1.557-9.424c0.742-6.677,2.682-11.88,2.682-11.88l0.188-0.008
		c0,0,2.019,5.211,2.761,11.888c0,0,1.412,5.268,1.559,9.424c0,0,0.182,6.438,1.006,8.609l5.822-1.044
		C42.882,53.122,43.249,39.77,40.729,33.76z"/>
</g>
</svg>
