<?xml version="1.0" encoding="utf-8"?>
<!-- Generator: Adobe Illustrator 16.0.0, SVG Export Plug-In . SVG Version: 6.00 Build 0)  -->
<!DOCTYPE svg PUBLIC "-//W3C//DTD SVG 1.1//EN" "http://www.w3.org/Graphics/SVG/1.1/DTD/svg11.dtd">
<svg version="1.1" id="Layer_1" xmlns="http://www.w3.org/2000/svg" xmlns:xlink="http://www.w3.org/1999/xlink" x="0px" y="0px"
	 width="64px" height="64px" viewBox="0 0 64 64" enable-background="new 0 0 64 64" xml:space="preserve">
<g id="Woman_x2019_s_Shirt">
	<path fill="#333433" d="M9.422,46.968c-0.208,0.622-0.57,1.753-0.86,2.937c-0.035,0.146-0.01,0.297,0.071,0.42
		c0.081,0.124,0.209,0.209,0.356,0.234l5.328,0.901c0.255,0.045,0.51-0.106,0.593-0.354c0,0,0.438-1.301,0.86-2.599l-6.302-1.519
		C9.449,46.984,9.44,46.973,9.422,46.968z"/>
	<path fill="#333433" d="M30.884,18.905c-0.034-0.074-0.052-0.156-0.051-0.236l0.009-1.25l-0.143-0.115l-1.725,4.566
		c-0.079,0.204-0.275,0.342-0.495,0.343c-0.002,0-0.004,0-0.007,0c-0.214,0-0.412-0.131-0.491-0.332l-2.725-6.782l-7.437,2.598
		c-0.165,0.057-0.292,0.19-0.336,0.359l-7.749,27.9l6.325,1.522c0.013,0.004,0.024,0.014,0.037,0.019l4.39-13.613l-0.622,17.033
		c-0.004,0.081,0.012,0.165,0.049,0.239c0.069,0.154,1.833,3.754,11.729,3.754c0.314,0,0.646-0.01,0.976-0.016
		c-1.278-6.766-0.052-29.382,0.108-32.173L30.884,18.905z"/>
	<path fill="#333433" d="M31.707,16.741c0.129,0.104,0.205,0.258,0.204,0.423L31.9,18.553l1.288,2.669l0.996-2.622l-0.135-1.388
		c-0.017-0.181,0.059-0.357,0.201-0.471l0.877-0.691l3.331-4.008c-1.901-0.638-3.821-0.977-5.711-0.977
		c-2.649,0-4.524,0.633-5.303,0.949l3.388,4.033L31.707,16.741z"/>
	<path fill="#333433" d="M38.141,20.614l1.881-6.44c0.018-0.061,0.047-0.106,0.082-0.155l-0.799-1.331l-3.175,3.821L38.141,20.614z"
		/>
	<polygon fill="#333433" points="29.847,16.538 26.671,12.752 26.061,14.239 28.459,20.214 	"/>
	<path fill="#333433" d="M57.427,49.873l-0.875-2.798l-6.292,1.417c0.45,1.23,0.926,2.615,0.928,2.615
		c0.084,0.248,0.336,0.396,0.596,0.353l5.229-0.901c0.15-0.027,0.282-0.117,0.363-0.248S57.475,50.02,57.427,49.873z"/>
	<path fill="#333433" d="M48.471,18.056c-0.045-0.165-0.166-0.298-0.328-0.357L40.891,15l-2.111,7.23
		c-0.062,0.21-0.246,0.361-0.467,0.381c-0.014,0.001-0.029,0.001-0.047,0.001c-0.199,0-0.384-0.114-0.477-0.299l-2.479-5.054
		l-0.176,0.14l0.117,1.222c0.008,0.082-0.003,0.164-0.031,0.24l-1.42,3.744c-0.085,1.49-1.437,25.827-0.1,32.259
		c2.387-0.101,10.04-0.644,12.349-3.604c0.078-0.096,0.118-0.22,0.112-0.346l-0.678-16.982l4.373,13.565
		c0.016-0.006,0.026-0.017,0.043-0.021l6.346-1.429L48.471,18.056z M34.596,47.053c-0.386,0-0.699-0.313-0.699-0.697
		s0.313-0.698,0.699-0.698c0.383,0,0.696,0.313,0.696,0.698C35.292,46.739,34.979,47.053,34.596,47.053z M34.662,41.061
		c-0.385,0-0.699-0.313-0.699-0.697c0-0.385,0.314-0.697,0.699-0.697c0.384,0,0.697,0.313,0.697,0.697
		C35.359,40.747,35.046,41.061,34.662,41.061z M34.727,34.827c-0.385,0-0.695-0.313-0.695-0.697c0-0.386,0.311-0.698,0.695-0.698
		s0.698,0.313,0.698,0.698C35.424,34.514,35.111,34.827,34.727,34.827z M34.96,28.835c-0.385,0-0.7-0.315-0.7-0.697
		c0-0.386,0.314-0.701,0.7-0.701c0.383,0,0.694,0.315,0.694,0.701C35.654,28.52,35.343,28.835,34.96,28.835z M35.29,23.239
		c-0.384,0-0.698-0.313-0.698-0.698c0-0.384,0.314-0.697,0.698-0.697c0.385,0,0.698,0.313,0.698,0.697
		C35.986,22.926,35.674,23.239,35.29,23.239z"/>
</g>
</svg>
