<?xml version="1.0" encoding="utf-8"?>
<!-- Generator: Adobe Illustrator 16.0.0, SVG Export Plug-In . SVG Version: 6.00 Build 0)  -->
<!DOCTYPE svg PUBLIC "-//W3C//DTD SVG 1.1//EN" "http://www.w3.org/Graphics/SVG/1.1/DTD/svg11.dtd">
<svg version="1.1" id="Layer_1" xmlns="http://www.w3.org/2000/svg" xmlns:xlink="http://www.w3.org/1999/xlink" x="0px" y="0px"
	 width="64px" height="64px" viewBox="0 0 64 64" enable-background="new 0 0 64 64" xml:space="preserve">
<g id="Woman_x2019_s_Collared_T-shirt">
	<rect x="31.861" y="15.111" fill="#333433" width="0.77" height="8.804"/>
	<path fill="#333433" d="M35.711,16.72c3.645-2.056,3.031-6.047,2.998-6.222c-0.004-0.047,0.002-0.09,0.006-0.133l-0.871-0.723
		c-0.154-0.129-0.361-0.158-0.549-0.079c-0.184,0.077-0.309,0.254-0.322,0.452c-0.027,0.382-0.166,1.512-0.471,2.123
		c-0.322,0.644-1.59,1.488-3.398,1.896c0.533,0.051,1.008,0.226,1.414,0.555C35.238,15.176,35.561,16.075,35.711,16.72z"/>
	<path fill="#333433" d="M28.236,16.741c0.166-0.706,0.533-1.756,1.326-2.332c0.365-0.267,0.791-0.396,1.248-0.404
		c-1.334-0.271-2.602-0.853-3.018-1.213c-0.482-0.413-1.59-2.376-2.172-3.513c-0.086-0.162-0.246-0.27-0.428-0.286
		c-0.178-0.012-0.361,0.06-0.471,0.204c-0.004,0.008-0.297,0.387-0.641,0.814C24.191,10.64,25.064,14.997,28.236,16.741z"/>
	<path fill="#333433" d="M44.508,27.354c0.031,0.012,0.066,0.021,0.102,0.028c2.185,0.341,4.863-0.551,5.574-1.416
		c0.232-0.283,0.244-0.534,0.211-0.699c-0.098-0.492-2.104-9.374-2.543-11.114c-0.494-1.989-3.231-2.73-4.848-2.73
		c-1.018,0-2.527-0.186-3.184-0.269c0.016,1.605-0.416,5.124-4.313,6.856c-0.063,0.029-0.139,0.045-0.211,0.045
		c-0.098,0-0.196-0.025-0.278-0.077c-0.15-0.091-0.244-0.251-0.254-0.425c0-0.016-0.095-1.469-0.925-2.138
		c-0.045-0.039-0.096-0.063-0.144-0.096v9.13c0,0.294-0.237,0.532-0.532,0.532h-1.836c-0.295,0-0.531-0.238-0.531-0.532v-9.371
		c-0.225,0.012-0.432,0.063-0.609,0.193c-0.709,0.514-0.975,1.834-1.018,2.299c-0.016,0.17-0.109,0.32-0.256,0.407
		c-0.082,0.052-0.18,0.077-0.275,0.077c-0.066,0-0.135-0.012-0.201-0.039c-3.467-1.406-4.787-5.208-5.229-6.987
		c-0.006,0.006-0.016,0.016-0.021,0.02c-0.252,0.248-0.666,0.283-1.379,0.323c-0.234,0.012-0.479,0.025-0.736,0.055
		c-1.168,0.114-2.521,0.589-3.809,1.335c-1.416,0.83-2.209,1.669-2.561,2.727c-0.02,0.058-1.98,6.103-2.451,9.388
		c-0.025,0.183,0.043,0.362,0.182,0.481c0.807,0.688,2.355,1.039,4.602,1.039c0.875,0,1.543-0.055,1.684-0.067
		c-0.125,1.159-0.156,3.657,1.383,5.669c0.014,0.021,1.414,2.441,0.623,4.654c-0.146,0.404-0.367,0.895-0.627,1.466
		c-1.297,2.864-3.713,8.192-2.24,16.103c0.033,0.178,0.154,0.323,0.32,0.396c0.205,0.085,5.146,2.102,13.162,2.102
		c4.617,0,9.314-0.679,13.955-2.019c0.207-0.061,0.354-0.231,0.383-0.441c1.369-10.54-2.322-16.402-2.445-16.59
		c-0.5-1.035-1.584-4.004-0.646-5.32c1.771-2.475,1.664-5.021,1.658-5.067c0-0.006,0-0.016,0-0.023L44.508,27.354z"/>
</g>
</svg>
