<?xml version="1.0" encoding="utf-8"?>
<!-- Generator: Adobe Illustrator 16.0.0, SVG Export Plug-In . SVG Version: 6.00 Build 0)  -->
<!DOCTYPE svg PUBLIC "-//W3C//DTD SVG 1.1//EN" "http://www.w3.org/Graphics/SVG/1.1/DTD/svg11.dtd">
<svg version="1.1" id="Layer_1" xmlns="http://www.w3.org/2000/svg" xmlns:xlink="http://www.w3.org/1999/xlink" x="0px" y="0px"
	 width="64px" height="64px" viewBox="0 0 64 64" enable-background="new 0 0 64 64" xml:space="preserve">
<g id="Woman_x2019_s_Dress">
	<path fill="#333433" d="M23.59,17.062c-0.014,0.1,0,0.208,0.041,0.301c0.004,0.008,0.416,0.972,0.736,3.475l0.59,3.923
		c-0.1,0.316-0.328,1.154-0.391,2.441L23.17,31.16c0.064,0.047,0.125,0.103,0.166,0.174c0.025,0.047,2.516,4.342,4.658,3.273
		c1.498-0.75,2.389-0.146,3.104,0.336c0.754,0.508,1.35,0.908,2.85-0.051c1.567-1.002,2.729-0.858,3.67-0.742
		c1.17,0.145,1.94,0.24,3.36-1.993c0.06-0.096,0.146-0.154,0.244-0.197l-2.217-5.146c0.029-0.222,0.012-0.558-0.227-0.917
		c-0.1-0.664-0.152-1.354-0.107-1.547l0.824-4.679c0.219-0.782,0.541-1.734,0.598-1.847c0.18-0.126,0.266-0.351,0.217-0.563
		c-0.012-0.039-0.957-4.063,0.328-7.209c0.084-0.203,0.035-0.436-0.123-0.588L39.98,8.961c-0.076-0.072-0.172-0.121-0.273-0.139
		l-2.691-0.48c-0.172-0.027-0.352,0.025-0.475,0.152c-0.123,0.124-0.174,0.304-0.141,0.479c0.043,0.209,0.145,0.899,0.051,1.339
		c-0.131,0.729-0.361,1.498-0.488,1.647c-0.057,0.067-0.117,0.161-0.191,0.273c-0.332,0.513-1.022,1.574-3.766,1.646l-0.154,0.002
		c-2.625,0-3.641-1.624-3.715-1.745c-0.012-0.013-1.031-1.364-1.236-3.326c-0.018-0.158-0.104-0.302-0.234-0.387
		c-0.133-0.089-0.297-0.114-0.447-0.067l-1.783,0.539c-0.082-0.017-0.188-0.028-0.301-0.028c-0.512,0-0.961,0.243-1.266,0.684
		c-0.146,0.214-0.109,0.512,0.076,0.694C22.961,10.256,24.43,11.753,23.59,17.062z"/>
	<path fill="#333433" d="M18.438,46.938c0.027,0.021,0.055,0.047,0.078,0.072c0.006,0.006,0.855,0.897,3.064,0.897
		c1.57,0,2,0.161,2.621,0.448c0.324,0.149,0.688,0.32,1.477,0.506c1.355,0.316,2.361,0.211,3.43,0.098
		c0.518-0.055,1.057-0.111,1.623-0.111c0.504,0,0.781,0.034,1.023,0.063c0.492,0.06,0.764,0.092,3.283-0.431
		c1.438-0.299,2.17-0.385,2.703-0.448c0.779-0.089,1.018-0.117,2.588-0.78c1.234-0.523,2.91-0.434,4.389-0.348
		c1.045,0.062,2.307,0.13,2.783-0.137c0.064-0.197,0.104-0.418,0.107-0.656c0.057-3.506-1.842-5.813-2.603-6.592
		c-0.457,0.485-1.219,1.051-1.228,1.058c-0.948,0.669-1.854,0.743-2.729,0.813c-0.707,0.059-1.437,0.118-2.282,0.476
		c-1.246,0.526-1.521,0.575-2.197,0.657c-0.387,0.045-0.908,0.105-1.955,0.322c-1.959,0.405-2.268,0.397-2.771,0.334
		c-0.15-0.016-0.334-0.039-0.654-0.039c-0.387,0-0.75,0.039-1.125,0.082c-0.402,0.041-0.834,0.086-1.313,0.086
		c-0.471,0-0.99-0.043-1.572-0.182c-0.717-0.166-0.992-0.32-1.232-0.479c-0.141-0.09-0.236-0.147-1.172-0.147
		c-1.844,0-3.066-0.763-3.334-0.944l-0.203-0.092c-0.803-0.363-1.752-0.802-2.188-1.438c-0.93,0.935-2.258,2.551-2.582,4.285
		C16.697,45.002,17.715,46.389,18.438,46.938z"/>
	<path fill="#333433" d="M48.158,47.602c-0.748,0.515-2.039,0.449-3.504,0.369c-1.361-0.078-2.902-0.168-3.91,0.262
		c-1.713,0.722-2.031,0.761-2.881,0.857c-0.51,0.061-1.215,0.143-2.611,0.432c-2.58,0.535-2.973,0.523-3.623,0.444
		c-0.211-0.024-0.457-0.056-0.898-0.056c-0.512,0-0.996,0.056-1.512,0.107c-0.553,0.059-1.119,0.118-1.736,0.118
		c-0.615,0-1.283-0.061-2.047-0.237c-0.895-0.211-1.33-0.414-1.684-0.576c-0.473-0.219-0.758-0.348-2.172-0.348
		c-2.461,0-3.586-0.979-3.82-1.216c-0.564-0.442-1.428-1.434-1.951-2.368c-0.873,1.172-2.979,4.303-2.375,6.614
		c0.252,0.961,0.92,1.666,1.977,2.095c0.234,0.176,0.947,0.625,2.293,0.838c0.479,0.074,1.119,0.125,1.801,0.178
		c0.893,0.07,2.514,0.195,2.908,0.357v0.338c0,0.264,0.191,0.488,0.455,0.526c0.07,0.011,1.756,0.25,3.189,0.25
		c0.863,0,1.447-0.083,1.824-0.267c0.141-0.021,0.459-0.059,0.818-0.059c0.367,0,0.676,0.04,0.9,0.117v0.291
		c0,0.27,0.201,0.495,0.469,0.527c0.064,0.006,1.523,0.176,2.859,0.176c1.023,0,1.998-0.074,2.4-0.546
		c0.508-0.112,1.407-0.285,1.877-0.289c0.073,0.026,0.166,0.035,0.244,0.03l4.631-0.443c0.213-0.021,0.392-0.169,0.453-0.361
		l6.573-1.293c0.074-0.014,0.146-0.046,0.205-0.088c0.599-0.431,0.939-1.016,1.015-1.748C50.496,50.951,49.125,48.855,48.158,47.602
		z"/>
	<path fill="#333433" d="M19.869,39.327c0.08,0.385,1.291,0.934,1.809,1.166l0.254,0.114c0.031,0.018,0.063,0.035,0.094,0.058
		c0.008,0.006,1.068,0.771,2.75,0.771c1.135,0,1.395,0.092,1.748,0.319c0.137,0.085,0.309,0.195,0.9,0.336
		c0.992,0.234,1.738,0.156,2.529,0.071c0.412-0.044,0.811-0.083,1.236-0.083c0.383,0,0.598,0.022,0.783,0.043
		c0.344,0.042,0.551,0.067,2.424-0.32c1.09-0.227,1.643-0.288,2.043-0.337c0.571-0.068,0.746-0.087,1.912-0.581
		c1.004-0.422,1.854-0.491,2.608-0.553c0.836-0.07,1.494-0.122,2.201-0.623c0.321-0.229,1.088-0.89,1.205-1.069
		c0.106-0.171,0.303-0.263,0.491-0.255c-0.055-2.075-2.092-4.511-3.055-5.552c-1.742,2.688-3.051,2.534-4.322,2.374
		c-0.883-0.106-1.719-0.212-2.961,0.583c-0.875,0.559-1.567,0.76-2.147,0.76c-0.801,0-1.367-0.386-1.869-0.723
		c-0.656-0.446-1.092-0.739-2.035-0.268c-2.875,1.438-5.543-2.824-5.996-3.591c-0.635,0.923-2.953,4.519-2.695,7.153
		C19.818,39.184,19.854,39.252,19.869,39.327z"/>
</g>
</svg>
