<?xml version="1.0" encoding="utf-8"?>
<!-- Generator: Adobe Illustrator 16.0.0, SVG Export Plug-In . SVG Version: 6.00 Build 0)  -->
<!DOCTYPE svg PUBLIC "-//W3C//DTD SVG 1.1//EN" "http://www.w3.org/Graphics/SVG/1.1/DTD/svg11.dtd">
<svg version="1.1" id="Layer_1" xmlns="http://www.w3.org/2000/svg" xmlns:xlink="http://www.w3.org/1999/xlink" x="0px" y="0px"
	 width="64px" height="64px" viewBox="0 0 64 64" enable-background="new 0 0 64 64" xml:space="preserve">
<g id="Woman_x2019_s_Sweater">
	<path fill="#333433" d="M25.039,14.656c0.049,0.012,0.1,0.012,0.154,0.01c0.037-0.004,4.021-0.421,7.698-0.421
		c2.137,0,3.743,0.141,4.774,0.407c0.041,0.01,0.078,0.016,0.114,0.016h0.013c0.285-0.006,0.845-0.154,1.121-0.671
		c0.369-0.683,0.123-1.684-0.748-3.061l-0.386-0.61c-0.047-0.083-0.122-0.145-0.209-0.178c-1.604-0.666-3.586-1.004-5.89-1.004
		c-3.018,0-5.49,0.575-5.594,0.597c-0.07,0.019-0.139,0.055-0.195,0.102c-0.426,0.373-2.514,2.308-2.164,3.719
		C23.82,13.939,24.123,14.434,25.039,14.656z"/>
	<path fill="#333433" d="M15.01,52.699l-4.855-1.356c-0.039-0.012-0.084-0.016-0.125-0.016c-0.447,0-0.84,0.169-1.141,0.493
		c-0.828,0.896-0.713,2.713-0.697,2.916c0.012,0.146,0.094,0.277,0.221,0.354c0.102,0.062,2.533,1.494,4.719,1.494
		c0.367,0,0.719-0.042,1.037-0.126c0.092-0.021,0.174-0.077,0.232-0.15c0.16-0.193,1.535-1.938,0.9-3.355
		C15.246,52.83,15.139,52.736,15.01,52.699z"/>
	<path fill="#333433" d="M42.145,29.11C45.527,43.615,47.088,49.4,47.85,51.73c0.156-0.117,0.332-0.213,0.521-0.265l4.846-1.356
		c0.135-0.037,0.275-0.057,0.416-0.057c0.035,0,0.063,0.008,0.096,0.008c-0.944-3.756-3.631-14.395-6.371-25.228
		c-1.039-4.116-1.809-7.163-1.914-7.579c-0.422-1.691-2.745-2.318-4.114-2.318c-0.402,0-0.951-0.211-1.463-0.468
		c-0.007,0.012-0.009,0.023-0.013,0.035c-0.479,0.888-1.399,1.219-2.071,1.231c-0.138,0-0.271-0.019-0.38-0.052
		c-0.653-0.169-1.963-0.372-4.512-0.372c-3.544,0-7.426,0.396-7.59,0.415l-0.035,0.005h-0.033l-0.064,0.002h-0.021
		c-0.133,0-0.258-0.015-0.357-0.044c-0.811-0.194-1.309-0.565-1.627-0.95c-0.145,0.104-0.295,0.183-0.436,0.199
		c-0.99,0.101-2.133,0.502-3.229,1.133c-1.203,0.707-1.873,1.414-2.176,2.313c-0.314,0.964-6.082,25.405-7.455,31.893
		c0.053-0.002,0.105-0.015,0.162-0.015c0.143,0,0.289,0.021,0.412,0.058l4.85,1.354c0.121,0.031,0.234,0.082,0.34,0.143
		l5.186-23.003c0.154,0.822,0.477,1.71,1.088,2.512c0.012,0.02,1.199,2.069,0.527,3.948c-0.125,0.346-0.311,0.758-0.531,1.246
		c-1.102,2.426-3.148,6.948-1.9,13.653c0.027,0.149,0.131,0.272,0.271,0.334c0.096,0.038,9.68,3.913,23.002,0.072
		c0.174-0.052,0.303-0.199,0.324-0.377c1.162-8.938-1.966-13.911-2.074-14.07c-0.422-0.877-1.349-3.394-0.549-4.513
		C41.605,30.741,41.951,29.851,42.145,29.11z"/>
	<path fill="#333433" d="M54.779,51.613c-0.299-0.325-0.695-0.495-1.146-0.495c-0.039,0-0.078,0.004-0.121,0.017l-4.852,1.356
		c-0.133,0.034-0.238,0.129-0.293,0.253c-0.635,1.417,0.738,3.16,0.9,3.354c0.059,0.076,0.141,0.129,0.233,0.15
		c0.313,0.086,0.664,0.127,1.037,0.127c2.185,0,4.614-1.436,4.719-1.494c0.123-0.076,0.205-0.206,0.22-0.354
		C55.49,54.323,55.605,52.507,54.779,51.613z"/>
</g>
</svg>
