<?xml version="1.0" encoding="utf-8"?>
<!-- Generator: Adobe Illustrator 16.0.0, SVG Export Plug-In . SVG Version: 6.00 Build 0)  -->
<!DOCTYPE svg PUBLIC "-//W3C//DTD SVG 1.1//EN" "http://www.w3.org/Graphics/SVG/1.1/DTD/svg11.dtd">
<svg version="1.1" id="Layer_1" xmlns="http://www.w3.org/2000/svg" xmlns:xlink="http://www.w3.org/1999/xlink" x="0px" y="0px"
	 width="64px" height="64px" viewBox="0 0 64 64" enable-background="new 0 0 64 64" xml:space="preserve">
<g id="Woman_x2019_s_Jeans">
	<path fill="#333433" d="M41.032,12.051c-0.101-0.214-0.189-0.43-0.3-0.639l-0.459-1.85c0,0-1.697,1.78-6.994,2.229
		c0,0.01,0.004,0.018,0.004,0.026v2.861c0.005,0.043,0.017,0.145,0.031,0.297C36.014,14.493,40.047,13.372,41.032,12.051z
		 M34.654,14.157c-0.293,0-0.604-0.311-0.604-0.607c0-0.294,0.311-0.602,0.604-0.602c0.297,0,0.607,0.308,0.607,0.602
		C35.262,13.847,34.951,14.157,34.654,14.157z"/>
	<path fill="#333433" d="M38.645,14.748c0.006,0.029,0.642,2.796,2.166,3.588c0.513,0.269,1.064,0.272,1.694,0.013
		c0.048-0.021,0.099-0.024,0.149-0.028c-0.174-1.684-0.53-3.475-1.178-5.2c-0.688,0.621-1.73,1.139-2.863,1.561
		C38.623,14.703,38.639,14.724,38.645,14.748z"/>
	<path fill="#333433" d="M33.412,16.041c0.115,1.351,0.27,3.445,0.288,5.278c0.313-0.08,0.571-0.236,0.771-0.486
		c0.937-1.18,0.559-3.966,0.331-4.94c-0.01-0.045-0.005-0.087-0.003-0.126C34.214,15.895,33.734,15.984,33.412,16.041z"/>
	<path fill="#333433" d="M42.918,33.768c0,0-0.889-3.729-0.479-7.938c0,0,0.524-2.84,0.302-6.442
		c-0.382,0.141-0.757,0.22-1.115,0.22c-0.455,0-0.892-0.108-1.308-0.325c-1.871-0.979-2.61-3.87-2.703-4.256
		c-0.625,0.195-1.247,0.366-1.825,0.512c0.017,0.035,0.041,0.072,0.051,0.116c0.037,0.159,0.909,4.023-0.534,5.84
		c-0.408,0.512-0.951,0.807-1.608,0.906c-0.019,0.648-0.058,1.229-0.136,1.668c-0.018,0.113-0.076,0.205-0.148,0.281
		c0.677,1.964,2.098,6.559,2.704,12.007c0,0,1.538,5.75,1.702,10.287c0,0-0.08,8.344,1.459,9.397c0,0,2.923,1.013,5.994-1.138
		C45.271,54.904,45.676,40.331,42.918,33.768z"/>
	<path fill="#333433" d="M28.583,15.376c-0.183,0.625-0.985,3.024-2.752,3.918c-0.446,0.229-0.916,0.339-1.407,0.339
		c-0.324,0-0.66-0.069-1.003-0.172c-0.147,1.772-0.189,3.887-0.047,6.449c0,0,0.681,5.506-0.092,7.885c0,0-0.895,2.078-0.975,5.237
		c0,0-1.136,3.845-1.012,6.56c0,0-0.813,3.727-0.528,9.194c0,0,1.813,1.912,6.276,1.256c0,0,0.224-0.511,0.313-2.021
		c0,0,0.188-1.096,0.663-8.187l1.536-8.91c0,0,2.261-8.812,2.979-13.238c0.253-1.792-0.021-5.627-0.195-7.639
		C30.823,15.898,29.581,15.664,28.583,15.376z"/>
	<path fill="#333433" d="M32.22,14.966v-3.148c0-0.015,0.007-0.026,0.008-0.042c-1.368-0.11-4.222-0.541-5.775-2.213l-0.706,1.985
		c0,0-0.174,0.175-0.431,0.592c0.012,0.024,0.031,0.048,0.041,0.075C25.384,12.282,26.26,14.325,32.22,14.966z"/>
	<path fill="#333433" d="M25.353,18.343c1.258-0.637,2.004-2.527,2.218-3.293c-1.589-0.597-2.396-1.293-2.812-1.809
		c-0.453,1.06-0.945,2.709-1.231,5.145C24.201,18.631,24.797,18.622,25.353,18.343z"/>
</g>
</svg>
