<?xml version="1.0" encoding="utf-8"?>
<!-- Generator: Adobe Illustrator 16.0.0, SVG Export Plug-In . SVG Version: 6.00 Build 0)  -->
<!DOCTYPE svg PUBLIC "-//W3C//DTD SVG 1.1//EN" "http://www.w3.org/Graphics/SVG/1.1/DTD/svg11.dtd">
<svg version="1.1" id="Layer_1" xmlns="http://www.w3.org/2000/svg" xmlns:xlink="http://www.w3.org/1999/xlink" x="0px" y="0px"
	 width="64px" height="64px" viewBox="0 0 64 64" enable-background="new 0 0 64 64" xml:space="preserve">
<g id="Woman_x2019_s_Formal_Coat_x2F_Blazer">
	<path fill="#333433" d="M27.657,14.114l3.594,21.178l4.595-21.078C29.757,12.706,27.657,14.114,27.657,14.114z"/>
	<path fill="#333433" d="M38.161,26.103l-0.873-0.804c-0.121-0.116-0.187-0.282-0.172-0.448c0.014-0.168,0.106-0.32,0.247-0.413
		l2.291-1.453l-2.692-7.841l-0.412-0.412l-3.61,17.036C34.779,29.157,37.152,26.978,38.161,26.103z"/>
	<path fill="#333433" d="M25.448,24.438c0.139,0.092,0.232,0.245,0.246,0.413c0.016,0.168-0.047,0.333-0.172,0.448l-0.9,0.829
		c0.992,0.955,3.438,3.447,5.258,6.31l-3.016-17.694l-0.484,0.484c-0.004,0.016-0.002,0.033-0.01,0.052l-3.191,7.719L25.448,24.438z
		"/>
	<path fill="#333433" d="M49.863,49.693l6.601-2.807l-11.358-28.9l-6.793-2.267l2.518,7.318c0.078,0.237-0.01,0.5-0.229,0.637
		l-2.056,1.304l0.81,0.742c0.112,0.108,0.178,0.258,0.172,0.416c-0.002,0.159-0.076,0.309-0.199,0.407
		c-0.055,0.047-5.324,4.372-7.135,8.741l-0.424,2l-0.164,13.173l0.018,0.103c0,0-0.201,1.586,1.059,1.569l1.789-0.134l8.506-0.673
		c-0.416-11.945-0.389-19.556-0.389-19.556L49.863,49.693z M50.378,47.057c0.313,0,0.565,0.254,0.565,0.563
		c0,0.313-0.254,0.569-0.565,0.569s-0.567-0.256-0.567-0.569C49.811,47.311,50.064,47.057,50.378,47.057z M32.938,44.509
		c-0.313,0-0.567-0.255-0.567-0.567c0-0.312,0.254-0.565,0.567-0.565s0.566,0.254,0.566,0.565
		C33.505,44.253,33.251,44.509,32.938,44.509z M32.938,37.973c-0.313,0-0.567-0.254-0.567-0.568c0-0.312,0.254-0.564,0.567-0.564
		s0.566,0.253,0.566,0.564C33.505,37.718,33.251,37.973,32.938,37.973z"/>
	<path fill="#333433" d="M23.46,26.523c-0.111-0.104-0.178-0.25-0.178-0.401c0-0.153,0.066-0.298,0.176-0.401l0.807-0.742
		l-2.055-1.304c-0.225-0.143-0.314-0.423-0.211-0.667l2.996-7.247l-6.666,2.227L6.19,46.877l6.473,2.771l7.547-17.794
		c0,0-0.188,8.037,0.166,19.949l8.574,0.327c0,0,1.137,0.019,1.551-0.889l0.01-0.199l0.18-13.87l-0.195-1.134
		C28.847,31.494,23.517,26.576,23.46,26.523z M12.169,47.971c-0.313,0-0.568-0.252-0.568-0.566c0-0.311,0.256-0.566,0.568-0.566
		c0.314,0,0.566,0.256,0.566,0.566C12.735,47.719,12.483,47.971,12.169,47.971z"/>
</g>
</svg>
