<?xml version="1.0" encoding="utf-8"?>
<!-- Generator: Adobe Illustrator 16.0.0, SVG Export Plug-In . SVG Version: 6.00 Build 0)  -->
<!DOCTYPE svg PUBLIC "-//W3C//DTD SVG 1.1//EN" "http://www.w3.org/Graphics/SVG/1.1/DTD/svg11.dtd">
<svg version="1.1" id="Layer_1" xmlns="http://www.w3.org/2000/svg" xmlns:xlink="http://www.w3.org/1999/xlink" x="0px" y="0px"
	 width="64px" height="64px" viewBox="0 0 64 64" enable-background="new 0 0 64 64" xml:space="preserve">
<g id="Women_x2019_s_Short">
	<path fill="#333433" d="M54.882,46.959L52.146,34.08L47.6,20.453c-3.957,2.163-11.551,2.731-15.055,2.879
		c-0.092,0.043-0.176,0.086-0.27,0.124c0.415,0.899,0.573,2.258,0.739,3.692c0.088,0.768,0.271,2.35,0.461,2.56
		c0.258,0.285,0.241,0.728-0.041,0.987c-0.261,0.253-0.722,0.246-0.976-0.023c-0.49-0.507-0.631-1.552-0.836-3.356
		c-0.334-2.863-0.604-3.443-0.738-3.527c-0.004,0.001-0.008,0.002-0.018,0.003c-0.027,0.006-0.057,0.011-0.088,0.013
		c-0.186,0.013-0.434,0.087-0.67,0.54c-0.832,1.581-0.307,5.512-0.01,6.083c0.115,0.121,0.176,0.277,0.176,0.441
		c0.002,0.185-0.074,0.364-0.215,0.503c-0.129,0.126-0.299,0.194-0.48,0.194h-0.006c-0.193,0-0.385-0.08-0.527-0.221
		c-0.697-0.696-1.174-5.057-0.385-7.189c0.111-0.299,0.25-0.56,0.416-0.793c-8.332-0.205-12.482-1.946-14.059-2.819l-4.527,13.597
		L7.774,46.96c-0.061,0.276,0.105,0.551,0.379,0.624l8.977,2.415c0.041,0.013,0.084,0.019,0.135,0.019l11.57,0.131
		c0.004,0,0.004,0,0.006,0c0.252,0,0.469-0.178,0.52-0.428l1.967-9.746l1.965,9.746c0.051,0.25,0.268,0.428,0.523,0.428
		c0.002,0,0.008,0,0.01,0l11.504-0.199c0.037-0.001,0.08-0.006,0.121-0.016l9.045-2.348C54.771,47.514,54.941,47.238,54.882,46.959z
		"/>
	<g>
		<path fill="#333433" d="M28.968,20.249c-0.08-0.03-0.268-0.033-0.48,0.088c0.074,0.506,0.32,1.238,1.1,1.678
			c0.139,0.001,0.285,0.002,0.428,0.004C29.765,21.2,29.372,20.4,28.968,20.249z"/>
		<path fill="#333433" d="M47.251,15.648c-0.119-0.101-0.272-0.143-0.431-0.122c-6.62,1.049-12.68,1.581-18.011,1.581h-0.002
			c-8.977,0-12.82-1.531-12.855-1.545c-0.166-0.07-0.355-0.05-0.5,0.049c-0.146,0.101-0.236,0.265-0.236,0.442v3.004
			c0.523,0.358,3.939,2.465,12.4,2.891c-0.426-0.71-0.564-1.469-0.553-1.976c0.006-0.201,0.102-0.392,0.256-0.521
			c0.715-0.591,1.469-0.767,2.137-0.517c0.361,0.136,0.693,0.399,0.998,0.8c0.359-0.551,0.791-0.93,1.287-1.128
			c0.729-0.292,1.532-0.186,2.362,0.322c0.172,0.103,0.293,0.277,0.322,0.476c0.014,0.058,0.232,1.305-0.369,2.481
			c3.978-0.254,10.424-0.962,13.377-2.929v-2.902C47.436,15.896,47.368,15.75,47.251,15.648z"/>
		<path fill="#333433" d="M32.62,21.55c0.405-0.52,0.463-1.181,0.453-1.585c-0.312-0.133-0.572-0.155-0.811-0.062
			c-0.467,0.186-0.836,0.838-1.021,1.364c0.1,0.287,0.174,0.539,0.223,0.74c0.191-0.006,0.412-0.014,0.662-0.024
			C32.321,21.862,32.487,21.72,32.62,21.55z"/>
	</g>
</g>
</svg>
