<?xml version="1.0" encoding="iso-8859-1"?>
<!-- Generator: Adobe Illustrator 19.0.0, SVG Export Plug-In . SVG Version: 6.00 Build 0)  -->
<svg version="1.1" id="Layer_1" xmlns="http://www.w3.org/2000/svg" xmlns:xlink="http://www.w3.org/1999/xlink" x="0px" y="0px"
	 viewBox="0 0 512 512" style="enable-background:new 0 0 512 512;" xml:space="preserve">
<g>
	<g>
		<g>
			<path d="M208.927,378.975h28.232v28.232c0,10.406,8.436,18.842,18.842,18.842c10.406,0,18.842-8.436,18.842-18.842v-28.232
				h28.232c10.406,0,18.842-8.436,18.842-18.842s-8.436-18.842-18.842-18.842h-28.231V313.06c0-10.406-8.436-18.842-18.842-18.842
				c-10.406,0-18.842,8.436-18.842,18.842v28.231h-28.231c-10.406,0-18.842,8.436-18.842,18.842S198.521,378.975,208.927,378.975z"
				/>
			<path d="M372.365,227.085c0-2.047-0.432-4.595-1.254-6.735L312.616,68.126V18.842C312.616,8.436,304.18,0,293.774,0h-75.55
				c-10.406,0-18.842,8.436-18.842,18.842v49.284L140.887,220.35c-0.726,1.894-1.252,4.482-1.252,6.735
				c0,0.008-0.001,0.015-0.001,0.024v266.049c0,10.406,8.436,18.842,18.842,18.842h195.049c10.406,0,18.842-8.436,18.842-18.842
				V227.109C372.366,227.102,372.365,227.094,372.365,227.085z M237.068,37.684h37.866V52.78h-37.866V37.684z M231.17,90.464h49.658
				l45.27,117.803H185.901L231.17,90.464z M334.683,474.316H177.317V245.951h157.365V474.316z"/>
		</g>
	</g>
</g>
<g>
</g>
<g>
</g>
<g>
</g>
<g>
</g>
<g>
</g>
<g>
</g>
<g>
</g>
<g>
</g>
<g>
</g>
<g>
</g>
<g>
</g>
<g>
</g>
<g>
</g>
<g>
</g>
<g>
</g>
</svg>
