<?xml version="1.0" encoding="iso-8859-1"?>
<!-- Generator: Adobe Illustrator 19.0.0, SVG Export Plug-In . SVG Version: 6.00 Build 0)  -->
<svg version="1.1" id="Layer_1" xmlns="http://www.w3.org/2000/svg" xmlns:xlink="http://www.w3.org/1999/xlink" x="0px" y="0px"
	 viewBox="0 0 512 512" style="enable-background:new 0 0 512 512;" xml:space="preserve">
<g>
	<g>
		<g>
			<path d="M109.052,262.146h36.792v36.792c0,11.124,9.018,20.142,20.142,20.142s20.142-9.018,20.142-20.142v-36.792h36.792
				c11.124,0,20.142-9.018,20.142-20.142s-9.018-20.142-20.142-20.142h-36.792v-36.792c0-11.124-9.018-20.142-20.142-20.142
				s-20.142,9.018-20.142,20.142v36.792h-36.792c-11.124,0-20.142,9.018-20.142,20.142S97.929,262.146,109.052,262.146z"/>
			<path d="M504.772,237.937L324.738,87.545c-3.475-2.919-8.165-4.684-12.913-4.684h-72.036V37.386
				c0-11.124-9.018-20.142-20.142-20.142H112.323c-11.124,0-20.142,9.018-20.142,20.142v45.476h-72.04
				C9.018,82.861,0,91.879,0,103.003v278.009c0,11.124,9.018,20.142,20.142,20.142h22.005
				c-7.494,47.203,27.958,93.602,79.785,93.602c51.802,0,87.272-46.392,79.773-93.602h67.332
				c-7.477,47.111,27.864,93.602,79.768,93.602c51.808,0,87.29-46.382,79.788-93.602h63.266c11.124,0,20.142-9.018,20.142-20.142
				V253.395C512,247.279,509.104,241.556,504.772,237.937z M132.465,57.527h67.041v25.33h-67.041V57.527z M121.932,454.473
				c-32.264,0-51.348-35.82-34.061-62.52c16.014-24.754,52.088-24.758,68.11,0.005C173.3,418.708,154.116,454.473,121.932,454.473z
				 M291.684,356.778c-1.171,1.172-3.139,3.31-3.823,4.094H182.883c-32.076-36.887-89.709-37.058-121.919,0H40.283V123.145h251.401
				V356.778z M331.967,146.072l104.367,87.184H331.967V146.072z M348.805,454.473c-32.262,0-51.317-35.841-34.05-62.512
				c16.054-24.794,52.172-24.651,68.111-0.008C400.195,418.748,380.981,454.473,348.805,454.473z M471.717,360.871h-61.968
				c-18.721-21.435-48.232-32.239-77.783-25.945v-61.386h139.751V360.871z"/>
		</g>
	</g>
</g>
<g>
</g>
<g>
</g>
<g>
</g>
<g>
</g>
<g>
</g>
<g>
</g>
<g>
</g>
<g>
</g>
<g>
</g>
<g>
</g>
<g>
</g>
<g>
</g>
<g>
</g>
<g>
</g>
<g>
</g>
</svg>
