<?xml version="1.0" encoding="iso-8859-1"?>
<!-- Generator: Adobe Illustrator 19.0.0, SVG Export Plug-In . SVG Version: 6.00 Build 0)  -->
<svg version="1.1" id="Layer_1" xmlns="http://www.w3.org/2000/svg" xmlns:xlink="http://www.w3.org/1999/xlink" x="0px" y="0px"
	 viewBox="0 0 512 512" style="enable-background:new 0 0 512 512;" xml:space="preserve">
<g>
	<g>
		<g>
			<path d="M256,0C114.841,0,0,114.841,0,256s114.841,256,256,256s256-114.841,256-256S397.159,0,256,0z M256,474.316
				C135.62,474.316,37.684,376.38,37.684,256S135.62,37.684,256,37.684S474.316,135.62,474.316,256S376.38,474.316,256,474.316z"/>
			<path d="M263.997,121.127l-75.827-11.305c-10.289-1.543-19.879,5.566-21.414,15.857c-1.535,10.291,5.565,19.879,15.857,21.414
				c81.95,12.218,76.623,11.514,78.629,11.514c9.177,0,17.219-6.716,18.612-16.066C281.389,132.249,274.289,122.661,263.997,121.127
				z"/>
			<path d="M255.995,280.209h-18.964c-0.813-2.378-1.767-4.688-2.868-6.917l13.412-13.412c7.358-7.357,7.358-19.288,0-26.646
				c-7.357-7.357-19.288-7.357-26.646,0l-13.41,13.41c-2.23-1.1-4.541-2.055-6.919-2.868v-18.964
				c0-10.406-8.436-18.842-18.842-18.842s-18.842,8.436-18.842,18.842v18.964c-2.378,0.813-4.689,1.767-6.919,2.868l-13.41-13.41
				c-7.357-7.357-19.288-7.357-26.646,0s-7.358,19.288,0,26.646l13.412,13.412c-1.1,2.23-2.055,4.54-2.868,6.917h-18.965
				c-10.406,0-18.842,8.436-18.842,18.842s8.436,18.842,18.842,18.842h18.964c0.813,2.378,1.767,4.689,2.868,6.919l-13.41,13.412
				c-7.358,7.357-7.358,19.288,0,26.646c7.36,7.358,19.288,7.358,26.646,0l13.412-13.412c2.23,1.1,4.54,2.055,6.917,2.868v18.964
				c0,10.406,8.436,18.842,18.842,18.842s18.842-8.436,18.842-18.842v-18.964c2.378-0.813,4.688-1.767,6.917-2.868l13.412,13.412
				c7.358,7.358,19.288,7.358,26.646,0c7.358-7.357,7.358-19.288,0-26.646l-13.412-13.412c1.1-2.23,2.055-4.541,2.868-6.919h18.964
				c10.406,0,18.842-8.436,18.842-18.842S266.402,280.209,255.995,280.209z M181.758,319.777c-11.428,0-20.726-9.298-20.726-20.726
				s9.298-20.726,20.726-20.726c11.428,0,20.726,9.298,20.726,20.726C202.484,310.479,193.186,319.777,181.758,319.777z"/>
			<path d="M373.656,160.953c-31.399,0-56.944,25.546-56.944,56.945s25.545,56.944,56.944,56.944s56.945-25.545,56.945-56.944
				S405.056,160.953,373.656,160.953z M373.656,237.158c-10.621,0-19.26-8.64-19.26-19.26s8.64-19.261,19.26-19.261
				s19.261,8.641,19.261,19.261S384.277,237.158,373.656,237.158z"/>
			<path d="M366.357,340.438c-1.443-10.305-10.974-17.493-21.274-16.046c-10.305,1.443-17.489,10.967-16.046,21.274l2.019,14.418
				H310.85c-10.406,0-18.842,8.436-18.842,18.842s8.436,18.842,18.842,18.842h41.872c11.448,0,20.245-10.136,18.66-21.456
				L366.357,340.438z"/>
		</g>
	</g>
</g>
<g>
</g>
<g>
</g>
<g>
</g>
<g>
</g>
<g>
</g>
<g>
</g>
<g>
</g>
<g>
</g>
<g>
</g>
<g>
</g>
<g>
</g>
<g>
</g>
<g>
</g>
<g>
</g>
<g>
</g>
</svg>
