<?xml version="1.0" encoding="iso-8859-1"?>
<!-- Generator: Adobe Illustrator 19.0.0, SVG Export Plug-In . SVG Version: 6.00 Build 0)  -->
<svg version="1.1" id="Layer_1" xmlns="http://www.w3.org/2000/svg" xmlns:xlink="http://www.w3.org/1999/xlink" x="0px" y="0px"
	 viewBox="0 0 512.002 512.002" style="enable-background:new 0 0 512.002 512.002;" xml:space="preserve">
<g>
	<g>
		<path d="M511.275,251.005c-20.519-69.052-70.025-130.057-138.902-163.66l25.374-44.492c4.798-8.413,1.868-19.123-6.546-23.922
			c-8.416-4.797-19.124-1.867-23.922,6.547l-27.676,48.53C196.787,26.86,43.351,107.56,0.727,251.005
			c-0.969,3.26-0.969,6.731,0,9.99c20.519,69.052,70.025,130.057,138.902,163.66l-25.374,44.492
			c-4.798,8.413-1.868,19.123,6.546,23.922c8.426,4.804,19.13,1.857,23.922-6.547l27.676-48.53
			c142.816,47.148,296.252-33.551,338.875-176.998C512.244,257.736,512.244,254.265,511.275,251.005z M238.682,321.771
			c43.232,11.393,85.331-21.431,85.331-65.77c0-18.607-7.509-35.891-20.212-48.416l15.183-26.623
			c21.837,18.284,34.976,45.524,34.976,75.072c0,67.27-66.774,114.881-130.477,92.388L238.682,321.771z M254.606,223.047
			l-27.645,48.474C215.462,250.096,230.488,224.066,254.606,223.047z M257.426,288.902l27.619-48.43
			C296.486,261.901,281.522,287.87,257.426,288.902z M157.05,394.112C97.728,365.914,54.753,314.418,35.896,256.001
			C74.147,137.502,200.398,69.292,321.812,105.203l-15.731,27.584c-87.086-35.499-183.113,28.783-183.113,123.249
			c0,43.103,20.61,81.476,52.487,105.802L157.05,394.112z M158.043,256.035c0-68.948,68.218-114.397,130.455-92.418l-15.181,26.62
			c-42.772-11.31-85.328,20.95-85.328,65.764c0,18.902,7.756,36.019,20.245,48.357l-15.195,26.644
			C171.662,313.018,158.043,286.093,158.043,256.035z M190.189,406.799l15.704-27.536c87.379,35.66,183.141-29.142,183.141-123.228
			c0-42.322-19.851-81.156-52.466-105.906l18.385-32.238c59.32,28.198,102.295,79.694,121.152,138.111
			C437.856,374.499,311.603,442.709,190.189,406.799z"/>
	</g>
</g>
<g>
</g>
<g>
</g>
<g>
</g>
<g>
</g>
<g>
</g>
<g>
</g>
<g>
</g>
<g>
</g>
<g>
</g>
<g>
</g>
<g>
</g>
<g>
</g>
<g>
</g>
<g>
</g>
<g>
</g>
</svg>
