<?xml version="1.0" encoding="iso-8859-1"?>
<!-- Generator: Adobe Illustrator 19.0.0, SVG Export Plug-In . SVG Version: 6.00 Build 0)  -->
<svg version="1.1" id="Layer_1" xmlns="http://www.w3.org/2000/svg" xmlns:xlink="http://www.w3.org/1999/xlink" x="0px" y="0px"
	 viewBox="0 0 512 512" style="enable-background:new 0 0 512 512;" xml:space="preserve">
<g>
	<g>
		<g>
			<path d="M269.806,168.924c-7.122-8.75-20.496-8.739-27.611,0c-13.332,16.362-38.585,50.965-38.585,72.82
				c0,28.888,23.502,52.391,52.39,52.391s52.39-23.503,52.39-52.391c0-7.435-2.102-20.477-20.272-47.809
				C279.1,180.368,270.181,169.385,269.806,168.924z M256,258.53c-9.255,0-16.785-7.531-16.786-16.741
				c0.214-4.886,7.264-17.894,16.79-31.843c9.51,13.921,16.55,26.913,16.779,31.828C272.768,251.016,265.246,258.53,256,258.53z"/>
			<path d="M403.17,48.659h-73.434V17.803C329.736,7.971,321.765,0,311.933,0H200.066c-9.832,0-17.803,7.971-17.803,17.803v30.856
				H108.83c-9.832,0-17.803,7.971-17.803,17.803v323.573c0,9.832,7.971,17.803,17.803,17.803h129.364v39.693
				c0,9.832,7.971,17.803,17.803,17.803c9.832,0,17.803-7.971,17.803-17.803v-39.693h58.16v86.359
				c0,9.832,7.971,17.803,17.803,17.803s17.803-7.971,17.803-17.803v-86.359h35.606c9.832,0,17.803-7.971,17.803-17.803V66.462
				C420.973,56.63,413.002,48.659,403.17,48.659z M217.87,35.606h76.262v13.053H217.87V35.606z M385.368,372.232H126.632V84.265
				c11.369,0,247.416,0,258.735,0V372.232z"/>
			<path d="M162.238,354.429h187.524c9.832,0,17.803-7.971,17.803-17.803V119.87c0-9.832-7.971-17.803-17.803-17.803H162.238
				c-9.832,0-17.803,7.971-17.803,17.803v216.756C144.435,346.458,152.406,354.429,162.238,354.429z M180.041,137.673h151.918
				v181.15H180.041V137.673z"/>
		</g>
	</g>
</g>
<g>
</g>
<g>
</g>
<g>
</g>
<g>
</g>
<g>
</g>
<g>
</g>
<g>
</g>
<g>
</g>
<g>
</g>
<g>
</g>
<g>
</g>
<g>
</g>
<g>
</g>
<g>
</g>
<g>
</g>
</svg>
