<?xml version="1.0" encoding="iso-8859-1"?>
<!-- Generator: Adobe Illustrator 19.0.0, SVG Export Plug-In . SVG Version: 6.00 Build 0)  -->
<svg version="1.1" id="Layer_1" xmlns="http://www.w3.org/2000/svg" xmlns:xlink="http://www.w3.org/1999/xlink" x="0px" y="0px"
	 viewBox="0 0 512 512" style="enable-background:new 0 0 512 512;" xml:space="preserve">
<g>
	<g>
		<path d="M410.927,314.993L351.935,256l58.993-58.993c25.212,14.209,58.71,11.267,81.18-11.209
			c0.001-0.001,0.002-0.002,0.004-0.004c0.002-0.001,0.002-0.002,0.005-0.004c26.51-26.504,26.515-69.41-0.005-95.93
			c-13.777-13.779-32.041-20.359-50.14-19.8c0.61-18.748-6.395-36.737-19.83-50.169c-26.504-26.505-69.419-26.534-95.93-0.006
			c-22.472,22.456-25.441,55.957-11.218,81.187L256,160.066l-58.994-58.994c14.333-25.427,11.1-58.884-11.208-81.179
			C159.291-6.63,116.379-6.631,89.86,19.889c-13.43,13.43-20.44,31.417-19.83,50.17c-18.095-0.562-36.365,6.024-50.14,19.8
			c-26.504,26.504-26.533,69.42-0.005,95.93c22.463,22.476,55.963,25.434,81.187,11.218l58.993,58.994l-58.993,58.992
			c-25.585-14.42-59.01-10.973-81.18,11.209c-26.521,26.504-26.523,69.419-0.004,95.938c13.779,13.779,32.055,20.371,50.14,19.8
			c-0.611,18.748,6.395,36.737,19.83,50.169c26.503,26.504,69.418,26.533,95.929,0.005c22.471-22.457,25.44-55.957,11.218-81.187
			l58.994-58.994l58.994,58.994c-14.333,25.427-11.102,58.884,11.208,81.179c26.507,26.523,69.419,26.525,95.938,0.005
			c13.43-13.429,20.44-31.416,19.83-50.17c18.095,0.564,36.365-6.023,50.14-19.8c26.504-26.504,26.532-69.42,0.005-95.93
			C469.652,303.734,436.153,300.777,410.927,314.993z M115.813,159.841c-7.162-7.163-18.791-7.167-25.956,0.004
			c-12.132,12.139-31.815,12.203-44.017-0.007c-12.166-12.157-12.171-31.85,0.004-44.024c12.134-12.134,31.881-12.135,44.017,0
			c7.168,7.166,18.786,7.166,25.953,0c7.166-7.165,7.168-18.785,0-25.953c-12.164-12.164-12.162-31.853,0-44.016
			c12.167-12.167,31.853-12.182,44.032,0.005c12.168,12.162,12.167,31.845,0,44.006c-7.166,7.16-7.173,18.789-0.005,25.958
			l70.207,70.205l-44.029,44.028L115.813,159.841z M159.841,396.188c-7.163,7.163-7.166,18.792,0.004,25.958
			c12.14,12.132,12.203,31.811-0.009,44.016c-12.157,12.166-31.849,12.171-44.022-0.005c-12.164-12.164-12.162-31.853,0-44.015
			c7.167-7.167,7.167-18.787,0-25.953c-7.165-7.167-18.785-7.167-25.953-0.001c-12.134,12.135-31.881,12.135-44.017,0.001
			c-12.165-12.165-12.182-31.854,0.005-44.032c12.159-12.167,31.847-12.169,44.009,0c7.165,7.169,18.791,7.172,25.957,0.004
			L352.16,115.812c7.163-7.163,7.166-18.792-0.004-25.958c-12.14-12.132-12.203-31.811,0.009-44.016
			c12.157-12.166,31.849-12.171,44.022,0.005c12.164,12.164,12.162,31.853,0,44.015c-7.167,7.167-7.167,18.787,0,25.953
			c7.166,7.167,18.786,7.167,25.953,0c12.135-12.134,31.882-12.135,44.016,0c12.162,12.162,12.182,31.855,0.004,44.024
			c-0.002,0.002-0.005,0.005-0.009,0.009c-12.159,12.167-31.846,12.168-44.009,0c-7.165-7.169-18.791-7.172-25.957-0.004
			L159.841,396.188z M466.158,396.188c-12.134,12.134-31.881,12.134-44.016-0.001c-7.168-7.166-18.786-7.166-25.953,0.001
			c-7.166,7.165-7.168,18.785,0,25.953c12.164,12.164,12.162,31.853,0,44.016c-12.167,12.167-31.853,12.182-44.032-0.005
			c-12.169-12.161-12.167-31.845,0-44.006c7.166-7.16,7.173-18.789,0.005-25.958l-70.207-70.206l44.029-44.029l70.206,70.206
			c7.162,7.163,18.791,7.167,25.957-0.004c12.132-12.139,31.815-12.203,44.017,0.007
			C478.326,364.321,478.331,384.013,466.158,396.188z"/>
	</g>
</g>
<g>
</g>
<g>
</g>
<g>
</g>
<g>
</g>
<g>
</g>
<g>
</g>
<g>
</g>
<g>
</g>
<g>
</g>
<g>
</g>
<g>
</g>
<g>
</g>
<g>
</g>
<g>
</g>
<g>
</g>
</svg>
