<?xml version="1.0" encoding="iso-8859-1"?>
<!-- Generator: Adobe Illustrator 19.0.0, SVG Export Plug-In . SVG Version: 6.00 Build 0)  -->
<svg version="1.1" id="Layer_1" xmlns="http://www.w3.org/2000/svg" xmlns:xlink="http://www.w3.org/1999/xlink" x="0px" y="0px"
	 viewBox="0 0 512 512" style="enable-background:new 0 0 512 512;" xml:space="preserve">
<g>
	<g>
		<g>
			<path d="M172.013,3.512c-41.193,0-73.408,36.178-68.294,77.356c-37.27,17.56-59.015,56.935-54.247,97.914
				c-65.976,30.672-65.948,124.454,0,155.109c-4.762,40.931,16.941,80.338,54.247,97.914c-5.1,41.072,26.998,77.356,68.294,77.356
				c37.946,0,68.819-30.871,68.819-68.819V72.329C240.832,34.383,209.959,3.512,172.013,3.512z M202.958,164.234
				c-31.748,8.13-67.337-13.95-68.043-14.393c-8.792-5.622-20.481-3.074-26.131,5.708c-5.658,8.797-3.115,20.514,5.681,26.171
				c19.826,12.746,55.703,25.944,88.491,21.104v34.194c-18.182,7.095-38.7,4.84-53.638,1.295c5.039-8.748,2.344-19.986-6.266-25.435
				c-8.839-5.593-20.536-2.964-26.13,5.873c-3.217,5.083-22.828,36.069-27.143,42.886c-5.593,8.837-2.963,20.537,5.874,26.13
				c8.847,5.598,20.541,2.955,26.13-5.873l6.406-10.121c23.898,7.474,50.463,10.421,74.767,4.779v33.295
				c-44.663-6.59-86.39,19.759-88.491,21.11c-8.796,5.657-11.34,17.375-5.681,26.171c5.658,8.797,17.377,11.34,26.171,5.681
				c0.394-0.254,36.256-22.427,68.001-14.354v91.888c0.001,17.064-13.881,30.945-30.943,30.945c-21.21,0-37.66-21.446-28.071-44.019
				l0.018,0.008l-0.077,0.177c1.117-2.482,5.407-9.716,11.754-13.341c9.081-5.189,12.236-16.756,7.048-25.838
				c-5.188-9.08-16.756-12.236-25.837-7.048c-7.788,4.45-13.761,10.292-18.144,15.733c-26.01-13.012-37.85-42.904-29.207-69.763
				c3.439-10.688-3.136-22.003-14.103-24.327c-21.816-4.621-37.65-24.189-37.65-46.531c0-22.34,15.834-41.908,37.65-46.531
				c10.982-2.327,17.536-13.654,14.102-24.326c-8.654-26.896,3.231-56.766,29.207-69.763c4.383,5.44,10.355,11.282,18.143,15.732
				c9.082,5.19,20.649,2.034,25.838-7.046c5.189-9.08,2.035-20.648-7.046-25.838c-6.346-3.627-10.636-10.862-11.755-13.343
				l0.077,0.177l-0.018,0.008c-9.589-22.571,6.864-44.019,28.071-44.019c17.062,0,30.945,13.881,30.945,30.945V164.234z"/>
			<path d="M462.528,178.11c4.762-40.931-16.941-80.338-54.247-97.914c5.1-41.072-26.998-77.357-68.294-77.357
				c-37.946,0-68.819,30.871-68.819,68.819v368.013c0,37.948,30.873,68.819,68.819,68.819c41.193,0,73.408-36.178,68.294-77.356
				c37.27-17.56,59.015-56.935,54.247-97.914C528.504,302.549,528.477,208.766,462.528,178.11z M436.609,302.197
				c-10.982,2.327-17.536,13.654-14.102,24.326c8.654,26.896-3.231,56.766-29.207,69.763c-4.383-5.44-10.355-11.282-18.143-15.732
				c-9.077-5.189-20.648-2.034-25.838,7.046c-5.189,9.08-2.035,20.648,7.046,25.838c6.346,3.627,10.636,10.862,11.755,13.343
				l-0.077-0.177l0.018-0.008c9.589,22.571-6.864,44.019-28.071,44.019c-17.062,0-30.945-13.881-30.945-30.945v-91.902
				c31.748-8.13,67.337,13.95,68.043,14.394c8.798,5.626,20.484,3.069,26.131-5.709c5.658-8.797,3.115-20.514-5.681-26.171
				c-2.101-1.351-43.828-27.701-88.491-21.11v-33.294c24.293,5.639,50.854,2.698,74.765-4.78l6.406,10.123
				c5.593,8.836,17.29,11.467,26.13,5.873c8.837-5.594,11.467-17.292,5.874-26.13c-4.348-6.87-23.951-37.842-27.143-42.886
				c-5.593-8.837-17.291-11.465-26.13-5.873c-8.595,5.44-11.295,16.65-6.291,25.39c-14.954,3.524-35.496,5.777-53.611-1.26V202.15
				c31.126,4.593,66.875-7.209,88.491-21.106c8.796-5.657,11.34-17.376,5.681-26.172c-5.657-8.794-17.374-11.34-26.171-5.681
				c-0.394,0.254-36.256,22.428-68.001,14.356V71.659c0-17.064,13.882-30.945,30.945-30.945c22.391,0,37.427,23.206,28.221,43.63
				c-0.058,0.128-0.096,0.261-0.15,0.39l-0.018-0.008l0.077-0.177c-1.117,2.482-5.407,9.716-11.754,13.341
				c-9.081,5.189-12.236,16.756-7.048,25.838c5.189,9.082,16.756,12.236,25.837,7.048c7.788-4.45,13.761-10.292,18.144-15.733
				c26.01,13.012,37.85,42.904,29.207,69.763c-3.439,10.688,3.136,22.003,14.103,24.325c21.816,4.621,37.65,24.189,37.65,46.531
				C474.258,278.005,458.424,297.573,436.609,302.197z"/>
		</g>
	</g>
</g>
<g>
</g>
<g>
</g>
<g>
</g>
<g>
</g>
<g>
</g>
<g>
</g>
<g>
</g>
<g>
</g>
<g>
</g>
<g>
</g>
<g>
</g>
<g>
</g>
<g>
</g>
<g>
</g>
<g>
</g>
</svg>
