<?xml version="1.0" encoding="iso-8859-1"?>
<!-- Generator: Adobe Illustrator 19.0.0, SVG Export Plug-In . SVG Version: 6.00 Build 0)  -->
<svg version="1.1" id="Layer_1" xmlns="http://www.w3.org/2000/svg" xmlns:xlink="http://www.w3.org/1999/xlink" x="0px" y="0px"
	 viewBox="0 0 511.999 511.999" style="enable-background:new 0 0 511.999 511.999;" xml:space="preserve">
<g>
	<g>
		<g>
			<path d="M451.503,60.465c-1.469-54.039-67.276-80.866-105.937-42.203c-19.758,19.757-23.134,49.027-11.544,71.91L213.45,210.744
				c-12.176,12.176-3.555,33.121,13.719,33.121h40.96v40.966c0,17.224,20.912,25.932,33.122,13.72l120.575-120.574
				c22.912,11.603,52.173,8.193,71.91-11.543C532.523,127.649,505.341,61.876,451.503,60.465z M466.297,138.993
				c-9.1,9.098-23.826,9.102-32.927,0c-7.572-7.573-19.864-7.576-27.439,0l-98.997,98.997c0-13.183,1.292-20.27-5.685-27.246
				c-6.96-6.962-14.011-5.684-27.238-5.684l98.993-98.993c7.571-7.571,7.577-19.863,0-27.439c-9.101-9.102-9.1-23.826,0-32.927
				c9.098-9.1,23.825-9.1,32.927,0c9.076,9.078,9.076,23.849,0,32.927c-7.577,7.575-7.579,19.86,0,27.439
				c7.576,7.576,19.862,7.576,27.439-0.001c9.098-9.1,23.825-9.1,32.927,0C475.397,115.169,475.397,129.893,466.297,138.993z"/>
			<path d="M224.424,268.164h-60.359c-5.147,0-10.08,2.045-13.719,5.684l-60.218,60.218c-22.883-11.586-52.15-8.216-71.91,11.544
				C-20.341,384.169,6.356,450.134,60.42,451.577c1.446,54.187,67.475,80.698,105.966,42.204
				c19.419-19.419,23.261-48.607,11.525-71.891l60.234-60.235c3.639-3.639,5.684-8.573,5.684-13.72v-60.366
				C243.829,276.863,235.137,268.164,224.424,268.164z M205.025,339.898l-66.077,66.077c-7.577,7.577-7.577,19.862,0,27.439
				c9.078,9.079,9.078,23.849,0,32.927c-9.079,9.078-23.849,9.078-32.927,0c-9.078-9.079-9.078-23.849,0-32.927
				c7.577-7.576,7.579-19.862,0-27.439c-7.576-7.577-19.862-7.577-27.439,0c-9.079,9.078-23.849,9.078-32.927,0
				c-9.078-9.079-9.078-23.849,0-32.927c9.1-9.098,23.827-9.101,32.927,0c7.572,7.573,19.863,7.576,27.439,0l66.079-66.079h32.924
				V339.898z"/>
		</g>
	</g>
</g>
<g>
</g>
<g>
</g>
<g>
</g>
<g>
</g>
<g>
</g>
<g>
</g>
<g>
</g>
<g>
</g>
<g>
</g>
<g>
</g>
<g>
</g>
<g>
</g>
<g>
</g>
<g>
</g>
<g>
</g>
</svg>
