<?xml version="1.0" encoding="iso-8859-1"?>
<!-- Generator: Adobe Illustrator 19.0.0, SVG Export Plug-In . SVG Version: 6.00 Build 0)  -->
<svg version="1.1" id="Layer_1" xmlns="http://www.w3.org/2000/svg" xmlns:xlink="http://www.w3.org/1999/xlink" x="0px" y="0px"
	 viewBox="0 0 512 512" style="enable-background:new 0 0 512 512;" xml:space="preserve">
<g>
	<g>
		<g>
			<path d="M237.977,378.686c9.94,9.938,26.111,9.938,36.049-0.001l57.213-57.213c39.48-39.479,11.814-106.974-43.755-106.974
				c-11.246,0-22.033,2.951-31.483,8.491c-9.922-5.817-21.304-8.644-31.721-8.49c-55.522,0.204-82.882,67.608-43.518,106.972
				L237.977,378.686z M224.514,250.3c7.113,0,13.797,2.768,18.828,7.8c6.99,6.99,18.325,6.99,25.316,0
				c5.474-5.473,12.864-8.008,18.931-7.799c23.675,0.085,35.369,28.82,18.334,45.854l-49.923,49.923l-49.923-49.923
				C189.016,279.095,200.776,250.3,224.514,250.3z"/>
			<path d="M494.099,49.235H17.901C8.015,49.235,0,57.25,0,67.136c0,4.971,0,374.233,0,377.728c0,9.886,8.015,17.901,17.901,17.901
				h476.198c9.886,0,17.901-8.015,17.901-17.901c0-3.463,0-372.752,0-377.728C512,57.25,503.986,49.235,494.099,49.235z
				 M476.198,426.963H35.802V173.688h440.396V426.963z M476.198,137.886H35.802V85.037h440.396V137.886z"/>
			<circle cx="81.76" cy="111.464" r="13.058"/>
			<circle cx="128.697" cy="111.464" r="13.058"/>
			<circle cx="175.646" cy="111.464" r="13.058"/>
		</g>
	</g>
</g>
<g>
</g>
<g>
</g>
<g>
</g>
<g>
</g>
<g>
</g>
<g>
</g>
<g>
</g>
<g>
</g>
<g>
</g>
<g>
</g>
<g>
</g>
<g>
</g>
<g>
</g>
<g>
</g>
<g>
</g>
</svg>
