<?xml version="1.0" encoding="iso-8859-1"?>
<!-- Generator: Adobe Illustrator 19.0.0, SVG Export Plug-In . SVG Version: 6.00 Build 0)  -->
<svg version="1.1" id="Layer_1" xmlns="http://www.w3.org/2000/svg" xmlns:xlink="http://www.w3.org/1999/xlink" x="0px" y="0px"
	 viewBox="0 0 512 512" style="enable-background:new 0 0 512 512;" xml:space="preserve">
<g>
	<g>
		<g>
			<path d="M506.394,112.003C494.85,100.457,412.879,18.488,399.997,5.606c-7.474-7.474-19.593-7.474-27.068,0
				c-7.475,7.474-7.475,19.593,0,27.068l5.109,5.109l-34.804,34.804L316.747,46.1c-7.474-7.475-19.593-7.475-27.068,0
				c-7.475,7.474-7.475,19.593,0,27.068l26.487,26.487l-54.499,54.499c-0.536-0.004-1.071-0.004-1.607,0.001l-69.51-69.509
				c-7.474-7.474-19.593-7.474-27.068,0l-69.111,69.111c-7.475,7.474-7.475,19.593,0,27.068l69.509,69.509
				c-0.004,0.536-0.004,1.071,0,1.607l-51.936,51.937c-7.471,7.47-7.474,19.596,0,27.068l21.021,21.022L5.606,479.326
				c-7.475,7.474-7.475,19.593,0,27.068c7.472,7.474,19.593,7.476,27.068,0l127.359-127.358l21.021,21.022
				c7.468,7.47,19.594,7.475,27.068,0l51.938-51.938c0.272,0.001,0.542,0.022,0.814,0.022c0.265,0,0.529-0.019,0.794-0.022
				l69.509,69.509c7.468,7.47,19.594,7.475,27.068,0l69.111-69.111c7.475-7.474,7.475-19.593,0-27.068l-69.509-69.508
				c0.005-0.536,0.005-1.072,0-1.608l54.499-54.498l26.487,26.487c7.475,7.475,19.593,7.475,27.068,0
				c7.475-7.474,7.475-19.593,0-27.068l-26.487-26.487l34.804-34.804c5.385,5.385,9.506,10.715,18.642,10.715
				c4.899,0,9.797-1.869,13.533-5.607C513.869,131.597,513.869,119.477,506.394,112.003z M134.975,167.289l42.042-42.043
				l39.593,39.592c-18.216,9.316-32.903,24.22-42.043,42.043L134.975,167.289z M194.589,359.454l-42.042-42.043l22.021-22.021
				c9.622,18.761,24.721,33.172,42.043,42.042L194.589,359.454z M219.343,292.657c-19.819-19.818-21.995-49.434-9.171-71.223
				c19.513-33.154,65.033-38.997,92.212-11.817c22.802,22.798,23.091,59.949,0,83.04
				C279.407,315.628,242.278,315.593,219.343,292.657z M386.752,334.983l-42.042,42.043l-39.593-39.593
				c18.69-9.556,33.082-24.58,42.043-42.042L386.752,334.983z M347.162,206.882c-9.533-18.579-24.458-33.015-42.043-42.043
				l38.117-38.117l42.043,42.043L347.162,206.882z M412.345,141.699l-42.043-42.043l34.804-34.804l42.043,42.043L412.345,141.699z"
				/>
			<path d="M241.372,231.643c-10.739,10.74-10.792,28.195,0,38.986c10.744,10.744,28.2,10.787,38.986,0
				c10.764-10.764,10.764-28.22,0-38.986C269.593,220.879,252.138,220.879,241.372,231.643z"/>
		</g>
	</g>
</g>
<g>
</g>
<g>
</g>
<g>
</g>
<g>
</g>
<g>
</g>
<g>
</g>
<g>
</g>
<g>
</g>
<g>
</g>
<g>
</g>
<g>
</g>
<g>
</g>
<g>
</g>
<g>
</g>
<g>
</g>
</svg>
