<?xml version="1.0" encoding="iso-8859-1"?>
<!-- Generator: Adobe Illustrator 19.0.0, SVG Export Plug-In . SVG Version: 6.00 Build 0)  -->
<svg version="1.1" id="Layer_1" xmlns="http://www.w3.org/2000/svg" xmlns:xlink="http://www.w3.org/1999/xlink" x="0px" y="0px"
	 viewBox="0 0 511.999 511.999" style="enable-background:new 0 0 511.999 511.999;" xml:space="preserve">
<g>
	<g>
		<g>
			<path d="M460.802,34.657c-6.38,0-405.138,0-409.605,0C22.967,34.657,0,57.624,0,85.854v279.082
				c0,28.23,22.967,51.198,51.198,51.198h0.984v42.622c0,10.264,8.321,18.586,18.586,18.586h83.92
				c10.264,0,18.586-8.321,18.586-18.586v-42.622c5.622,0,159.841,0,165.454,0v42.622c0,10.264,8.321,18.586,18.586,18.586h83.92
				c10.264,0,18.586-8.321,18.586-18.586v-42.622h0.984c28.231,0,51.198-22.967,51.198-51.198V85.854
				C512,57.624,489.033,34.657,460.802,34.657z M136.101,440.172H89.353v-24.038h46.748V440.172z M298.239,378.965
				c-12.526,0-234.467,0-247.042,0c-7.734-0.003-14.026-6.294-14.026-14.029V255.562h46.177c8.611,0,10.019-2.762,39.849-27.29
				l28.924,44.523c6.47,9.959,20.498,11.36,28.817,2.927l39.239-39.778l20.586,15.783c6.577,5.045,7.903,3.837,57.476,3.837V378.965
				z M298.239,218.39h-39.863l-28.601-21.929c-7.438-5.705-17.959-4.975-24.541,1.696l-34.534,35.007l-27.663-42.581
				c-6.023-9.272-18.806-11.288-27.39-4.23l-38.962,32.037H37.172V85.854c0-7.734,6.292-14.026,14.026-14.026h247.042V218.39z
				 M422.647,440.172h-46.748v-24.038h46.748V440.172z M474.829,364.937c0,7.734-6.292,14.026-14.026,14.026
				c-14.081,0-112.003,0-125.392,0c0-18.663,0-296.575,0-307.136h125.392c7.734,0,14.026,6.292,14.026,14.026V364.937z"/>
			<path d="M372.505,222.919h65.229c10.264,0,18.586-8.321,18.586-18.586v-68.286c0-10.264-8.321-18.586-18.586-18.586h-65.229
				c-10.264,0-18.586,8.321-18.586,18.586v68.286C353.92,214.598,362.241,222.919,372.505,222.919z M391.091,154.633h28.057v31.115
				h-28.057V154.633z"/>
			<path d="M438.42,245.977h-66.601c-10.264,0-18.586,8.321-18.586,18.586c0,10.264,8.321,18.586,18.586,18.586h66.601
				c10.264,0,18.586-8.321,18.586-18.586C457.006,254.298,448.685,245.977,438.42,245.977z"/>
			<path d="M438.42,296.158h-66.601c-10.264,0-18.586,8.321-18.586,18.586s8.321,18.586,18.586,18.586h66.601
				c10.264,0,18.586-8.321,18.586-18.586S448.685,296.158,438.42,296.158z"/>
		</g>
	</g>
</g>
<g>
</g>
<g>
</g>
<g>
</g>
<g>
</g>
<g>
</g>
<g>
</g>
<g>
</g>
<g>
</g>
<g>
</g>
<g>
</g>
<g>
</g>
<g>
</g>
<g>
</g>
<g>
</g>
<g>
</g>
</svg>
