<?xml version="1.0" encoding="iso-8859-1"?>
<!-- Generator: Adobe Illustrator 19.0.0, SVG Export Plug-In . SVG Version: 6.00 Build 0)  -->
<svg version="1.1" id="Layer_1" xmlns="http://www.w3.org/2000/svg" xmlns:xlink="http://www.w3.org/1999/xlink" x="0px" y="0px"
	 viewBox="0 0 512 512" style="enable-background:new 0 0 512 512;" xml:space="preserve">
<g>
	<g>
		<g>
			<path d="M460.802,34.655H51.198C22.967,34.655,0,57.622,0,85.852v279.084c0,28.231,22.967,51.198,51.198,51.198h0.981v42.625
				c0,10.264,8.322,18.586,18.586,18.586h83.921c10.264,0,18.586-8.322,18.586-18.586v-42.625h165.456v42.625
				c0,10.264,8.322,18.586,18.586,18.586h83.921c10.264,0,18.586-8.322,18.586-18.586v-42.625h0.981
				c28.231,0,51.198-22.967,51.198-51.198V85.852C512,57.622,489.033,34.655,460.802,34.655z M89.35,440.175v-24.039h46.749v24.039
				H89.35z M422.649,440.175H375.9v-24.039h46.749V440.175z M474.828,364.936c0,7.734-6.292,14.026-14.026,14.026
				c-18.285,0-395.314,0-409.604,0c-7.734,0-14.026-6.292-14.026-14.026V85.852c0-7.733,6.292-14.025,14.026-14.025h409.604
				c7.734,0,14.026,6.292,14.026,14.025V364.936z"/>
			<path d="M441.235,86.833H70.764c-10.264,0-18.586,8.322-18.586,18.586v205.423c0,10.264,8.322,18.586,18.586,18.586h370.47
				c10.264,0,18.586-8.322,18.586-18.586V105.419C459.821,95.155,451.5,86.833,441.235,86.833z M422.649,292.256H89.35v-65.539
				h61.857c4.306,0,8.479-1.496,11.805-4.23l38.726-31.843l38.672,59.526c6.478,9.971,20.497,11.36,28.817,2.927l51.533-52.239
				c30.695,23.535,31.874,25.859,40.033,25.859h61.857V292.256z M422.649,189.545h-55.551l-36.74-28.169
				c-7.438-5.705-17.958-4.976-24.541,1.698l-46.826,47.469l-37.411-57.587c-2.883-4.437-7.52-7.434-12.749-8.242
				c-5.229-0.812-10.554,0.651-14.641,4.012l-49.643,40.82H89.35v-65.54h333.298V189.545z"/>
			<circle cx="380.653" cy="353.53" r="15.518"/>
			<circle cx="426.746" cy="353.53" r="15.518"/>
		</g>
	</g>
</g>
<g>
</g>
<g>
</g>
<g>
</g>
<g>
</g>
<g>
</g>
<g>
</g>
<g>
</g>
<g>
</g>
<g>
</g>
<g>
</g>
<g>
</g>
<g>
</g>
<g>
</g>
<g>
</g>
<g>
</g>
</svg>
