<?xml version="1.0" encoding="iso-8859-1"?>
<!-- Generator: Adobe Illustrator 19.0.0, SVG Export Plug-In . SVG Version: 6.00 Build 0)  -->
<svg version="1.1" id="Layer_1" xmlns="http://www.w3.org/2000/svg" xmlns:xlink="http://www.w3.org/1999/xlink" x="0px" y="0px"
	 viewBox="0 0 512 512" style="enable-background:new 0 0 512 512;" xml:space="preserve">
<g>
	<g>
		<g>
			<path d="M136.673,98.305c7.922,0,14.468-5.887,15.501-13.527l0.145-2.121c0-8.642-7.007-15.647-15.647-15.647
				c-8.642,0-15.647,7.005-15.647,15.647l0.145,2.117C122.2,92.414,128.75,98.305,136.673,98.305z"/>
			<path d="M437.04,61.714c-11.567,0-20.944,9.377-20.944,20.944v258.211c0,71.265-57.978,129.241-129.242,129.241
				c-67.81,0-123.587-52.496-128.835-118.981c25.874-8.53,45.225-32.091,47.17-60.562c0.077-1.132,14.144-206.772,14.144-207.907
				c0-45.58-37.081-82.66-82.66-82.66s-82.66,37.081-82.66,82.66c0,1.097,14.059,206.808,14.133,207.903
				c1.96,28.745,21.663,52.485,47.909,60.807C121.501,440.86,196.02,512,286.855,512c94.362,0,171.131-76.767,171.131-171.129
				V82.658C457.984,71.092,448.607,61.714,437.04,61.714z M95.905,82.012c0.348-22.184,18.501-40.125,40.767-40.125
				c25.261,0,41.962,22.66,40.749,40.392l-0.441,6.44c-2.977,20.091-20.471,34.711-40.308,34.711
				c-21.753,0-39.11-17.266-40.45-36.795L95.905,82.012z M136.666,312.68c-14.034,0-25.775-10.968-26.73-24.968l-8.9-130.524
				c22.818,10.957,49.026,10.687,71.27-0.001l-8.91,130.527C162.44,301.712,150.7,312.68,136.666,312.68z"/>
		</g>
	</g>
</g>
<g>
</g>
<g>
</g>
<g>
</g>
<g>
</g>
<g>
</g>
<g>
</g>
<g>
</g>
<g>
</g>
<g>
</g>
<g>
</g>
<g>
</g>
<g>
</g>
<g>
</g>
<g>
</g>
<g>
</g>
</svg>
