<?xml version="1.0" encoding="iso-8859-1"?>
<!-- Generator: Adobe Illustrator 19.0.0, SVG Export Plug-In . SVG Version: 6.00 Build 0)  -->
<svg version="1.1" id="Layer_1" xmlns="http://www.w3.org/2000/svg" xmlns:xlink="http://www.w3.org/1999/xlink" x="0px" y="0px"
	 viewBox="0 0 512 512" style="enable-background:new 0 0 512 512;" xml:space="preserve">
<g>
	<g>
		<path d="M432.01,19.744h-89.936V18.51c0-10.223-8.288-18.51-18.51-18.51H188.437c-10.223,0-18.51,8.288-18.51,18.51v1.234H79.99
			c-10.223,0-18.511,8.288-18.511,18.51V493.49c0,10.223,8.288,18.51,18.511,18.51h352.02c10.223,0,18.51-8.288,18.51-18.51V38.255
			C450.52,28.032,442.233,19.744,432.01,19.744z M206.947,38.255v-1.234h98.106v1.234v43.186h-98.106V38.255z M351.803,118.462
			v221.083h-0.001h-55.227c-10.223,0-18.51,8.288-18.51,18.51v55.227H160.2v-294.82
			C163.197,118.462,345.572,118.462,351.803,118.462z M413.5,474.979L413.5,474.979H98.5V56.765h71.426v24.676h-28.238
			c-10.223,0-18.51,8.288-18.51,18.51v331.841c0,10.223,8.288,18.51,18.51,18.51h154.871c0.004,0,0.007,0,0.011,0
			c4.565,0,9.487-1.817,13.093-5.422c14.136-14.136,59.535-59.535,73.737-73.737c3.338-3.341,5.422-8.057,5.422-13.089V99.952
			c0-10.223-8.288-18.51-18.51-18.51h-28.238V56.765H413.5V474.979z"/>
	</g>
</g>
<g>
</g>
<g>
</g>
<g>
</g>
<g>
</g>
<g>
</g>
<g>
</g>
<g>
</g>
<g>
</g>
<g>
</g>
<g>
</g>
<g>
</g>
<g>
</g>
<g>
</g>
<g>
</g>
<g>
</g>
</svg>
