<?xml version="1.0" encoding="iso-8859-1"?>
<!-- Generator: Adobe Illustrator 19.0.0, SVG Export Plug-In . SVG Version: 6.00 Build 0)  -->
<svg version="1.1" id="Layer_1" xmlns="http://www.w3.org/2000/svg" xmlns:xlink="http://www.w3.org/1999/xlink" x="0px" y="0px"
	 viewBox="0 0 512.001 512.001" style="enable-background:new 0 0 512.001 512.001;" xml:space="preserve">
<g>
	<g>
		<g>
			<path d="M304.497,140.018h-29.086v-29.084c0-10.721-8.691-19.412-19.412-19.412c-10.721,0-19.412,8.691-19.412,19.412v29.084
				h-29.086c-10.721,0-19.412,8.691-19.412,19.412c0,10.721,8.691,19.412,19.412,19.412h29.086v29.086
				c0,10.721,8.691,19.412,19.412,19.412c10.721,0,19.412-8.691,19.412-19.412v-29.086h29.086c10.721,0,19.412-8.691,19.412-19.412
				C323.909,148.71,315.217,140.018,304.497,140.018z"/>
			<path d="M460.235,1.223H51.765C23.222,1.223,0,24.445,0,52.988c0,10.183,0,284.116,0,299.105
				c0,28.543,23.222,51.765,51.765,51.765h141.219l-8.242,68.096h-20.625c-10.721,0-19.412,8.691-19.412,19.412
				s8.691,19.412,19.412,19.412c41.318,0,142.622,0,183.766,0c10.721,0,19.412-8.691,19.412-19.412s-8.691-19.412-19.412-19.412
				h-20.625l-8.242-68.096h141.219c28.543,0,51.765-23.222,51.765-51.765c0-8.995,0-282.824,0-299.105
				C512,24.445,488.778,1.223,460.235,1.223z M223.849,471.956l8.242-68.096h47.817l8.242,68.096H223.849z M473.176,352.094
				c0,7.136-5.805,12.941-12.941,12.941c-17.277,0-389.83,0-408.47,0c-7.136,0-12.941-5.805-12.941-12.941v-34.456h434.352V352.094z
				 M473.176,278.814H38.824V52.988c0-7.136,5.805-12.941,12.941-12.941h408.47c7.136,0,12.941,5.805,12.941,12.941V278.814z"/>
		</g>
	</g>
</g>
<g>
</g>
<g>
</g>
<g>
</g>
<g>
</g>
<g>
</g>
<g>
</g>
<g>
</g>
<g>
</g>
<g>
</g>
<g>
</g>
<g>
</g>
<g>
</g>
<g>
</g>
<g>
</g>
<g>
</g>
</svg>
