<?xml version="1.0" encoding="iso-8859-1"?>
<!-- Generator: Adobe Illustrator 19.0.0, SVG Export Plug-In . SVG Version: 6.00 Build 0)  -->
<svg version="1.1" id="Layer_1" xmlns="http://www.w3.org/2000/svg" xmlns:xlink="http://www.w3.org/1999/xlink" x="0px" y="0px"
	 viewBox="0 0 512 512" style="enable-background:new 0 0 512 512;" xml:space="preserve">
<g>
	<g>
		<path d="M482.962,343.49c0-8.099,0-203.334,0-219.143c0-8.994-7.292-16.286-16.286-16.286H242.115l-16.826-21.043
			c-3.09-3.866-7.771-6.116-12.72-6.116H45.324c-8.994,0-16.286,7.292-16.286,16.286c0,4.896,0,241.531,0,246.303
			C12.07,350.048,0,366.523,0,385.776c0,24.992,20.332,45.324,45.324,45.324s45.324-20.333,45.324-45.324
			c0-19.252-12.071-35.728-29.038-42.285v-15.765H450.39v15.765c-16.966,6.558-29.038,23.033-29.038,42.285
			c0,24.992,20.333,45.324,45.324,45.324c24.992,0,45.324-20.333,45.324-45.324C512,366.523,499.929,350.048,482.962,343.49z
			 M45.324,398.527c-7.031,0-12.751-5.721-12.751-12.751c0-7.031,5.72-12.751,12.751-12.751s12.751,5.72,12.751,12.751
			C58.075,392.806,52.354,398.527,45.324,398.527z M450.39,295.153H61.61v-29.612H450.39V295.153z M450.39,232.967H61.61v-43.46
			H450.39V232.967z M450.391,156.935H61.61v-43.461H204.74l16.826,21.043c3.09,3.866,7.771,6.116,12.72,6.116h216.105V156.935z
			 M466.676,398.527c-7.03,0-12.751-5.721-12.751-12.751c0-7.031,5.721-12.751,12.751-12.751c7.031,0,12.751,5.72,12.751,12.751
			C479.427,392.806,473.706,398.527,466.676,398.527z"/>
	</g>
</g>
<g>
</g>
<g>
</g>
<g>
</g>
<g>
</g>
<g>
</g>
<g>
</g>
<g>
</g>
<g>
</g>
<g>
</g>
<g>
</g>
<g>
</g>
<g>
</g>
<g>
</g>
<g>
</g>
<g>
</g>
</svg>
