<?xml version="1.0" encoding="iso-8859-1"?>
<!-- Generator: Adobe Illustrator 19.0.0, SVG Export Plug-In . SVG Version: 6.00 Build 0)  -->
<svg version="1.1" id="Layer_1" xmlns="http://www.w3.org/2000/svg" xmlns:xlink="http://www.w3.org/1999/xlink" x="0px" y="0px"
	 viewBox="0 0 512 512" style="enable-background:new 0 0 512 512;" xml:space="preserve">
<g>
	<g>
		<g>
			<path d="M227.99,6.231c-3.652,0-204.898,0-208.477,0C8.737,6.231,0,14.968,0,25.744c0,10.776,8.737,19.513,19.513,19.513h16.343
				v208.517c0,3.966,1.274,7.881,3.369,10.959c0.005,0.007,0.009,0.014,0.013,0.022l64.999,95.495v107.23
				c-8.214,2.301-14.246,9.826-14.246,18.774c0,10.776,8.737,19.513,19.513,19.513h28.493c10.776,0,19.513-8.737,19.513-19.513
				c0-8.949-6.032-16.473-14.247-18.774v-107.23l65-95.495c2.2-3.227,3.382-7.137,3.382-10.981V45.258h16.343
				c10.776,0,19.513-8.737,19.513-19.513C247.502,14.968,238.767,6.231,227.99,6.231z M74.883,45.258h97.737v74.989H74.883V45.258z
				 M123.752,319.56l-31.496-46.271h62.99L123.752,319.56z M74.883,234.262v-74.989h97.737v74.989H74.883z"/>
			<path d="M492.487,466.741h-16.343V258.224c0-3.966-1.274-7.881-3.369-10.959c-0.005-0.006-0.009-0.014-0.013-0.022
				l-64.999-95.495V44.519c8.214-2.301,14.246-9.826,14.246-18.774c0-10.777-8.737-19.513-19.513-19.513h-28.493
				c-10.776,0-19.513,8.737-19.513,19.513c0,8.949,6.032,16.473,14.247,18.774v107.23l-65,95.495
				c-2.2,3.227-3.382,7.137-3.382,10.981v208.517h-16.343c-10.776,0-19.513,8.737-19.513,19.513
				c0,10.776,8.736,19.512,19.512,19.512c3.652,0,204.898,0,208.477,0c10.777,0,19.513-8.737,19.513-19.513
				S503.263,466.741,492.487,466.741z M388.248,192.439l31.494,46.271h-62.99L388.248,192.439z M437.116,466.742h-97.737v-74.989
				h97.737V466.742z M437.116,352.726h-97.737v-74.989h97.737V352.726z"/>
		</g>
	</g>
</g>
<g>
</g>
<g>
</g>
<g>
</g>
<g>
</g>
<g>
</g>
<g>
</g>
<g>
</g>
<g>
</g>
<g>
</g>
<g>
</g>
<g>
</g>
<g>
</g>
<g>
</g>
<g>
</g>
<g>
</g>
</svg>
