<?xml version="1.0" encoding="iso-8859-1"?>
<!-- Generator: Adobe Illustrator 19.0.0, SVG Export Plug-In . SVG Version: 6.00 Build 0)  -->
<svg version="1.1" id="Layer_1" xmlns="http://www.w3.org/2000/svg" xmlns:xlink="http://www.w3.org/1999/xlink" x="0px" y="0px"
	 viewBox="0 0 511.997 511.997" style="enable-background:new 0 0 511.997 511.997;" xml:space="preserve">
<g>
	<g>
		<path d="M365.296,300.993c-13.338-19.137-28.867-34.271-45.862-44.995c16.995-10.722,32.524-25.856,45.861-44.994
			c27.248-39.094,42.254-90.736,42.254-145.412V18.842C407.548,8.436,399.112,0,388.706,0c-10.406,0-18.842,8.436-18.842,18.842
			v27.909H142.132V18.842C142.132,8.436,133.696,0,123.29,0c-10.406,0-18.842,8.436-18.842,18.842v46.751
			c0,54.675,15.006,106.317,42.254,145.412c13.338,19.137,28.867,34.271,45.862,44.994c-16.995,10.724-32.525,25.857-45.862,44.995
			c-27.248,39.094-42.254,90.736-42.254,145.412v46.751c0,10.406,8.436,18.842,18.842,18.842s18.842-8.436,18.842-18.842v-27.909
			h227.733v27.909c0,10.406,8.436,18.842,18.842,18.842s18.842-8.436,18.842-18.842v-46.751
			C407.549,391.73,392.544,340.088,365.296,300.993z M154.129,141.955c-6.001-17.924-9.844-37.32-11.315-57.521h226.369
			c-1.471,20.2-5.315,39.597-11.315,57.521H154.129z M177.618,189.457c-2.207-3.167-4.302-6.451-6.316-9.818h169.394
			c-2.014,3.366-4.109,6.652-6.316,9.818c-21.44,30.76-49.275,47.701-78.381,47.701S199.056,220.218,177.618,189.457z
			 M177.618,322.542c21.438-30.76,49.275-47.701,78.381-47.701c29.106,0.001,56.942,16.941,78.381,47.701
			c2.207,3.167,4.302,6.451,6.316,9.818H171.302C173.315,328.994,175.411,325.708,177.618,322.542z M142.813,427.564
			c1.471-20.201,5.315-39.597,11.315-57.521h203.739c6.001,17.924,9.844,37.32,11.315,57.521H142.813z"/>
	</g>
</g>
<g>
</g>
<g>
</g>
<g>
</g>
<g>
</g>
<g>
</g>
<g>
</g>
<g>
</g>
<g>
</g>
<g>
</g>
<g>
</g>
<g>
</g>
<g>
</g>
<g>
</g>
<g>
</g>
<g>
</g>
</svg>
