<?xml version="1.0" encoding="iso-8859-1"?>
<!-- Generator: Adobe Illustrator 19.0.0, SVG Export Plug-In . SVG Version: 6.00 Build 0)  -->
<svg version="1.1" id="Layer_1" xmlns="http://www.w3.org/2000/svg" xmlns:xlink="http://www.w3.org/1999/xlink" x="0px" y="0px"
	 viewBox="0 0 512 512" style="enable-background:new 0 0 512 512;" xml:space="preserve">
<g>
	<g>
		<g>
			<path d="M362.348,260.365c-67.583-31.095-145.109-31.098-212.695,0C62.91,300.259,1.218,388.773,1.218,491.938
				C1.218,503.017,10.2,512,21.28,512h469.44c11.08,0,20.062-8.982,20.062-20.062C510.784,388.691,449.01,300.221,362.348,260.365z
				 M317.472,286.257L256,346.485l-61.472-60.228C233.502,274.589,276.473,273.982,317.472,286.257z M42.273,471.876
				c6.8-73.061,50.375-135.607,111.979-168.908l87.709,85.935c7.8,7.642,20.281,7.642,28.082,0l87.709-85.935
				c61.604,33.302,105.179,95.847,111.979,168.908H42.273z"/>
			<path d="M395.101,383.939v-9.362c0-11.08-8.983-20.062-20.062-20.062c-11.08,0-20.062,8.982-20.062,20.062v9.362h-9.362
				c-11.08,0-20.062,8.982-20.062,20.062c0,11.08,8.982,20.062,20.062,20.062h9.362v9.362c0,11.08,8.982,20.062,20.062,20.062
				c11.08,0,20.062-8.983,20.062-20.062v-9.362h9.362c11.08,0,20.062-8.982,20.062-20.062c0-11.08-8.982-20.062-20.062-20.062
				H395.101z"/>
			<path d="M76.778,219.352c15.729,0,342.714,0,358.443,0c11.08,0,20.062-8.982,20.062-20.062
				c0-52.877-20.491-102.686-57.703-140.252c-76.996-77.734-204.238-79.701-283.178,0.015
				C77.204,96.619,56.716,146.423,56.716,199.29C56.716,210.37,65.699,219.352,76.778,219.352z M361.681,80.263
				c28.04,24.949,47.289,59.457,52.234,98.965h-73.159C363.017,152.063,371.393,115.108,361.681,80.263z M303.458,58.934h-94.914
				C235.343,33.984,276.421,33.762,303.458,58.934z M187.223,99.06H324.78c6.388,40.242-24.529,80.168-68.778,80.168
				C211.681,179.228,180.837,139.286,187.223,99.06z M150.322,80.262c-9.615,34.543-1.538,71.619,20.925,98.966h-73.16
				C102.871,140.991,121.279,106.121,150.322,80.262z"/>
		</g>
	</g>
</g>
<g>
</g>
<g>
</g>
<g>
</g>
<g>
</g>
<g>
</g>
<g>
</g>
<g>
</g>
<g>
</g>
<g>
</g>
<g>
</g>
<g>
</g>
<g>
</g>
<g>
</g>
<g>
</g>
<g>
</g>
</svg>
