<?xml version="1.0" encoding="iso-8859-1"?>
<!-- Generator: Adobe Illustrator 19.0.0, SVG Export Plug-In . SVG Version: 6.00 Build 0)  -->
<svg version="1.1" id="Layer_1" xmlns="http://www.w3.org/2000/svg" xmlns:xlink="http://www.w3.org/1999/xlink" x="0px" y="0px"
	 viewBox="0 0 512 512" style="enable-background:new 0 0 512 512;" xml:space="preserve">
<g>
	<g>
		<path d="M507.84,185.561c-1.298-1.49-119.154-136.805-119.9-137.654c-3.207-3.636-7.831-5.731-12.686-5.731
			c-9.271,0-226.945,0-238.507,0c-4.894,0-9.553,2.136-12.756,5.806L4.16,185.561C1.477,188.641,0,192.588,0,196.673v213.83
			c0,9.342,7.574,16.916,16.916,16.916h68.02c9.342,0,16.916-7.574,16.916-16.916V240.76l17.976-21.286c0,11.72,0,225.793,0,233.434
			c0,9.342,7.574,16.916,16.916,16.916h238.507c9.342,0,16.916-7.574,16.916-16.916c0-8.504,0-221.796,0-233.434l17.976,21.286
			v169.743c0,9.342,7.574,16.916,16.916,16.916h68.022c9.342,0,16.916-7.574,16.916-16.916v-213.83
			C512,192.588,510.523,188.641,507.84,185.561z M119.829,167.039l-47.817,56.62c-2.578,3.053-3.992,6.919-3.992,10.914v159.013
			H33.833v-190.58l85.997-98.736V167.039z M317.076,76.009h22.885l-38.755,48.232C304.49,114.258,309.655,98.561,317.076,76.009z
			 M281.459,76.009L256,153.383l-25.459-77.374H281.459z M194.924,76.009c7.447,22.631,12.591,38.267,15.87,48.232l-38.755-48.232
			H194.924z M153.662,334.011h35.317v35.317h-35.317V334.011z M358.338,369.328h-35.317v-35.317h35.317V369.328z M358.338,300.179
			h-52.233c-9.342,0-16.916,7.574-16.916,16.916v69.149c0,9.342,7.574,16.916,16.916,16.916h52.233v32.831H153.662v-32.831h52.233
			c9.342,0,16.916-7.574,16.916-16.916v-69.149c0-9.342-7.574-16.916-16.916-16.916h-52.233c0-4.61,0-187.334,0-193.026
			l89.151,110.951c6.745,8.392,19.591,8.437,26.374,0l89.151-110.951C358.338,112.893,358.338,295.617,358.338,300.179z
			 M478.167,393.586H443.98V234.573c0-3.996-1.414-7.862-3.992-10.914l-47.817-56.62V104.27l85.997,98.736V393.586z"/>
	</g>
</g>
<g>
</g>
<g>
</g>
<g>
</g>
<g>
</g>
<g>
</g>
<g>
</g>
<g>
</g>
<g>
</g>
<g>
</g>
<g>
</g>
<g>
</g>
<g>
</g>
<g>
</g>
<g>
</g>
<g>
</g>
</svg>
