<?xml version="1.0" encoding="iso-8859-1"?>
<!-- Generator: Adobe Illustrator 19.0.0, SVG Export Plug-In . SVG Version: 6.00 Build 0)  -->
<svg version="1.1" id="Layer_1" xmlns="http://www.w3.org/2000/svg" xmlns:xlink="http://www.w3.org/1999/xlink" x="0px" y="0px"
	 viewBox="0 0 511.999 511.999" style="enable-background:new 0 0 511.999 511.999;" xml:space="preserve">
<g>
	<g>
		<g>
			<path d="M309.157,0h-63.393C124.271,0,25.302,98.362,25.302,220.461v167.89c0,68.18,55.469,123.648,123.648,123.648
				c71.039,0,123.649-59.209,123.649-120.363c0-20.051,16.146-36.574,36.557-36.574c97.914,0,177.54-79.222,177.54-177.523
				C486.698,79.479,407.269,0,309.157,0z M309.157,313.02c-47.327,0-78.599,40.382-78.599,75.331
				c0,45.2-36.577,81.605-81.607,81.605c-44.998,0-81.607-36.608-81.607-81.605v-167.89c0-98.45,79.715-178.419,178.42-178.419
				h63.393c36.18,0,70.208,14.091,95.813,39.677C489.76,166.557,430.023,313.02,309.157,313.02z"/>
			<path d="M309.158,64.424h-63.393c-86.893,0-156.038,70.653-156.038,156.038c0,4.054,0,163.718,0,167.89
				c0,32.657,26.568,59.225,59.225,59.225c30.902,0,58.377-24.162,59.25-58.666c1.462-54.886,46.758-98.272,100.957-98.272
				c62.07,0,113.115-50.493,113.115-113.099C422.273,115.168,371.53,64.424,309.158,64.424z M166.134,388.351
				c0,9.475-7.709,17.183-17.183,17.183c-9.475,0-17.183-7.708-17.183-17.183v-37.774c17.665-3.125,34.004-10.104,48.126-20.049
				C170.781,349.766,166.134,371.614,166.134,388.351z M131.769,307.547v-87.086c0-19.652,4.95-39.516,15.728-57.71
				C209.775,195.506,199.964,288.537,131.769,307.547z M313.213,248.468c-7.06,0.406-43.158-1.878-82.002,23.322
				c-2.651-73.992,88.968-109.404,137.053-54.854C356.165,235.117,335.874,247.149,313.213,248.468z M222.12,186.167
				c-9.23-22.359-25.155-41.842-46.493-55.529c19.827-15.567,44.315-24.172,70.138-24.172h63.393
				c37.011,0,67.49,28.44,70.767,64.613C331.848,136.392,264.248,141.654,222.12,186.167z"/>
		</g>
	</g>
</g>
<g>
</g>
<g>
</g>
<g>
</g>
<g>
</g>
<g>
</g>
<g>
</g>
<g>
</g>
<g>
</g>
<g>
</g>
<g>
</g>
<g>
</g>
<g>
</g>
<g>
</g>
<g>
</g>
<g>
</g>
</svg>
