<?xml version="1.0" encoding="iso-8859-1"?>
<!-- Generator: Adobe Illustrator 19.0.0, SVG Export Plug-In . SVG Version: 6.00 Build 0)  -->
<svg version="1.1" id="Layer_1" xmlns="http://www.w3.org/2000/svg" xmlns:xlink="http://www.w3.org/1999/xlink" x="0px" y="0px"
	 viewBox="0 0 512.001 512.001" style="enable-background:new 0 0 512.001 512.001;" xml:space="preserve">
<g>
	<g>
		<g>
			<path d="M464.298,47.704c-63.606-63.605-167.095-63.605-230.699,0c-44.67,44.67-59.231,111.497-38.289,170.264l-23.447,23.447
				c-7.996,7.995-7.996,20.96,0,28.956l0.307,0.307L14.299,428.547c-19.065,19.065-19.065,50.087-0.001,69.153
				c0.001,0.001,0.001,0.001,0.003,0.003c19.064,19.064,50.088,19.064,69.154-0.001l157.869-157.87l0.307,0.307
				c7.998,7.998,20.96,7.996,28.956,0l23.447-23.447c58.771,20.949,125.596,6.382,170.263-38.289
				C527.902,214.798,527.902,111.307,464.298,47.704z M54.499,468.745c-3.1,3.096-8.141,3.099-11.242,0
				c-3.099-3.1-3.1-8.144,0-11.242l157.87-157.869l11.241,11.241L54.499,468.745z M435.342,249.446
				c-36.114,36.114-91.432,45.877-137.607,24.573c-7.787-3.593-16.99-1.953-23.057,4.114l-18.57,18.57l-0.307-0.307l-40.197-40.197
				l-0.307-0.307l18.571-18.571c6.065-6.065,7.707-15.266,4.114-23.057c-21.345-46.265-11.469-101.563,24.573-137.607
				c47.753-47.75,125.031-47.753,172.786,0C483.092,124.412,483.095,201.691,435.342,249.446z"/>
			<path d="M348.95,68.175c-11.308,0-20.475,9.168-20.475,20.475c0,11.308,9.167,20.475,20.475,20.475
				c14.404,0,27.946,5.609,38.132,15.795c7.998,7.995,20.961,7.995,28.958-0.001c7.995-7.996,7.994-20.96-0.001-28.958
				C398.115,78.043,374.29,68.175,348.95,68.175z"/>
		</g>
	</g>
</g>
<g>
</g>
<g>
</g>
<g>
</g>
<g>
</g>
<g>
</g>
<g>
</g>
<g>
</g>
<g>
</g>
<g>
</g>
<g>
</g>
<g>
</g>
<g>
</g>
<g>
</g>
<g>
</g>
<g>
</g>
</svg>
