<?xml version="1.0" encoding="iso-8859-1"?>
<!-- Generator: Adobe Illustrator 19.0.0, SVG Export Plug-In . SVG Version: 6.00 Build 0)  -->
<svg version="1.1" id="Layer_1" xmlns="http://www.w3.org/2000/svg" xmlns:xlink="http://www.w3.org/1999/xlink" x="0px" y="0px"
	 viewBox="0 0 512.002 512.002" style="enable-background:new 0 0 512.002 512.002;" xml:space="preserve">
<g>
	<g>
		<g>
			<path d="M511.275,251.006C478.71,141.413,377.152,60.675,256.001,60.675c-121.025,0-222.672,80.615-255.274,190.331
				c-0.969,3.26-0.969,6.731,0,9.99C33.291,370.589,134.85,451.327,256.001,451.327c121.025,0,222.672-80.615,255.274-190.331
				C512.244,257.737,512.244,254.265,511.275,251.006z M256.001,416.253c-104.112,0-190.443-68.36-220.105-160.251
				C65.518,164.234,151.762,95.75,256.001,95.75c104.112,0,190.443,68.36,220.105,160.251
				C446.484,347.768,360.24,416.253,256.001,416.253z"/>
			<path d="M318.39,138.472C230.581,91.664,122.969,155.203,122.969,256c0,73.355,59.678,133.033,133.033,133.033
				c101.249,0,165.398-109.257,116.363-197.551C369.849,163.092,346.91,140.482,318.39,138.472z M313.87,173.391
				c0.111-0.002,0.222-0.005,0.333-0.009h0.056c12.815,0,23.257,10.429,23.276,23.246v0.001c0,13.943-11.786,23.724-23.833,23.312
				c-5.912-9.467-13.648-16.775-22.713-22.281C290.396,184.764,300.749,173.603,313.87,173.391z M283.986,238.638
				c13.325,21.349-1.823,50.3-27.985,50.3c-38.434-0.001-46.069-56.306-7.086-65.155
				C262.325,220.756,276.57,226.719,283.986,238.638z M256.001,353.959c-54.015,0-97.959-43.944-97.959-97.959
				c0-61.991,55.517-105.156,111.746-97.112c-7.493,8.867-11.855,19.311-13.298,29.078c-37.056-0.257-68.502,29.7-68.502,68.034
				c0,37.502,30.51,68.012,68.011,68.012c37.995,0,68.936-31.353,67.99-69.755c10.221-1.709,20.384-6.435,28.745-13.739
				C362.245,300.262,315.912,353.959,256.001,353.959z"/>
		</g>
	</g>
</g>
<g>
</g>
<g>
</g>
<g>
</g>
<g>
</g>
<g>
</g>
<g>
</g>
<g>
</g>
<g>
</g>
<g>
</g>
<g>
</g>
<g>
</g>
<g>
</g>
<g>
</g>
<g>
</g>
<g>
</g>
</svg>
