<?xml version="1.0" encoding="iso-8859-1"?>
<!-- Generator: Adobe Illustrator 19.0.0, SVG Export Plug-In . SVG Version: 6.00 Build 0)  -->
<svg version="1.1" id="Layer_1" xmlns="http://www.w3.org/2000/svg" xmlns:xlink="http://www.w3.org/1999/xlink" x="0px" y="0px"
	 viewBox="0 0 511.999 511.999" style="enable-background:new 0 0 511.999 511.999;" xml:space="preserve">
<g>
	<g>
		<g>
			<path d="M117.724,224.752c-30.003,0-54.412,24.409-54.412,54.412s24.409,54.412,54.412,54.412s54.412-24.409,54.412-54.412
				S147.729,224.752,117.724,224.752z M117.724,300.425c-11.723,0-21.261-9.538-21.261-21.261s9.538-21.261,21.261-21.261
				s21.261,9.538,21.261,21.261C138.986,290.887,129.448,300.425,117.724,300.425z"/>
			<path d="M459.078,180.876l-84.459-55.747c-24.037-15.867-56.269-12.6-76.635,7.766c-6.473,6.472-6.473,16.968,0,23.441
				c6.473,6.472,16.968,6.472,23.441,0c9.282-9.281,23.972-10.772,34.931-3.541l16.161,10.667
				c-49.216,9.234-87.728,49.19-94.797,99.126h-43.445c-7.068-49.936-45.581-89.892-94.796-99.126l16.161-10.667
				c10.959-7.229,25.649-5.741,34.931,3.541c6.473,6.474,16.968,6.472,23.441,0c6.472-6.473,6.472-16.969-0.001-23.441
				c-20.367-20.367-52.597-23.634-76.636-7.766c-91.362,60.303-84.151,55.513-85.199,56.291C20.732,202.577,0,238.494,0,279.164
				c0,64.913,52.811,117.724,117.726,117.724c59.288,0,108.471-44.057,116.552-101.149h43.445
				c8.081,57.092,57.264,101.149,116.552,101.149c64.913,0,117.724-52.811,117.724-117.724
				C512,238.557,491.163,202.053,459.078,180.876z M117.726,363.737c-46.634,0-84.574-37.939-84.574-84.573
				s37.94-84.573,84.574-84.573c46.634,0,84.573,37.939,84.573,84.573S164.359,363.737,117.726,363.737z M394.274,363.737
				c-46.634,0-84.573-37.939-84.573-84.573s37.939-84.573,84.573-84.573s84.573,37.939,84.573,84.573
				C478.849,325.798,440.909,363.737,394.274,363.737z"/>
			<path d="M394.274,224.752c-30.003,0-54.412,24.409-54.412,54.412s24.409,54.412,54.412,54.412s54.412-24.409,54.412-54.412
				C448.688,249.161,424.279,224.752,394.274,224.752z M394.274,300.425c-11.723,0-21.261-9.538-21.261-21.261
				s9.538-21.261,21.261-21.261s21.261,9.538,21.261,21.261C415.536,290.887,405.999,300.425,394.274,300.425z"/>
		</g>
	</g>
</g>
<g>
</g>
<g>
</g>
<g>
</g>
<g>
</g>
<g>
</g>
<g>
</g>
<g>
</g>
<g>
</g>
<g>
</g>
<g>
</g>
<g>
</g>
<g>
</g>
<g>
</g>
<g>
</g>
<g>
</g>
</svg>
