<?xml version="1.0" encoding="iso-8859-1"?>
<!-- Generator: Adobe Illustrator 19.0.0, SVG Export Plug-In . SVG Version: 6.00 Build 0)  -->
<svg version="1.1" id="Layer_1" xmlns="http://www.w3.org/2000/svg" xmlns:xlink="http://www.w3.org/1999/xlink" x="0px" y="0px"
	 viewBox="0 0 512 512" style="enable-background:new 0 0 512 512;" xml:space="preserve">
<g>
	<g>
		<g>
			<path d="M463.921,82.659H348.325V45.125c0-10.707-8.68-19.386-19.387-19.386H183.063c-10.706,0-19.386,8.68-19.386,19.386v37.534
				H48.078C21.567,82.659,0,104.227,0,130.737v246.75c0,25.055,19.268,45.684,43.762,47.874v41.513
				c0,10.706,8.68,19.386,19.386,19.386h92.527c10.707,0,19.386-8.68,19.386-19.386v-41.31h161.872v41.31
				c0,10.706,8.68,19.386,19.386,19.386h92.527c10.706,0,19.386-8.68,19.386-19.386v-41.513
				C492.731,423.172,512,402.544,512,377.486v-246.75C512,104.227,490.433,82.659,463.921,82.659z M202.449,64.512h107.103v18.147
				H202.449V64.512z M136.288,447.488H82.535v-21.924h53.754V447.488z M429.46,447.488h-53.754v-21.924h53.754V447.488z
				 M473.227,377.487c0,5.131-4.175,9.306-9.306,9.306c-5.855,0-409.987,0-415.843,0c-5.131,0-9.306-4.175-9.306-9.306V130.736
				c0-5.131,4.175-9.306,9.306-9.306h415.843c5.131,0,9.306,4.175,9.306,9.306V377.487z"/>
			<path d="M301.549,234.72h-26.163v-26.163c0-10.707-8.68-19.387-19.386-19.387c-10.707,0-19.386,8.68-19.386,19.387v26.163
				h-26.163c-10.707,0-19.387,8.68-19.387,19.386c0,10.706,8.68,19.386,19.387,19.386h26.163v26.163
				c0,10.707,8.68,19.387,19.386,19.387c10.706,0,19.386-8.68,19.386-19.387v-26.163h26.163c10.707,0,19.387-8.68,19.387-19.386
				C320.936,243.4,312.257,234.72,301.549,234.72z"/>
		</g>
	</g>
</g>
<g>
</g>
<g>
</g>
<g>
</g>
<g>
</g>
<g>
</g>
<g>
</g>
<g>
</g>
<g>
</g>
<g>
</g>
<g>
</g>
<g>
</g>
<g>
</g>
<g>
</g>
<g>
</g>
<g>
</g>
</svg>
