<?xml version="1.0" encoding="iso-8859-1"?>
<!-- Generator: Adobe Illustrator 19.0.0, SVG Export Plug-In . SVG Version: 6.00 Build 0)  -->
<svg version="1.1" id="Layer_1" xmlns="http://www.w3.org/2000/svg" xmlns:xlink="http://www.w3.org/1999/xlink" x="0px" y="0px"
	 viewBox="0 0 511.999 511.999" style="enable-background:new 0 0 511.999 511.999;" xml:space="preserve">
<g>
	<g>
		<path d="M348.268,147.743V40.161h10.657c11.09,0,20.08-8.991,20.08-20.08S370.015,0,358.925,0c-2.066,0-200.809,0-205.852,0
			c-11.09,0-20.08,8.991-20.08,20.08s8.991,20.08,20.08,20.08h10.657v107.581c-62.537,33.921-101.534,99.83-101.534,170.456
			c0,106.863,86.94,193.801,193.803,193.801c106.89,0.001,193.803-86.966,193.803-193.8
			C449.802,246.961,410.351,181.417,348.268,147.743z M255.999,471.839c-84.492,0-153.266-68.557-153.633-152.964h128.86
			c2.585,0,4.687,2.103,4.687,4.688c0,24.729,20.119,44.849,44.847,44.849h120.444C380.352,428.545,323.141,471.839,255.999,471.839
			z M280.765,328.249c-2.585,0-4.688-2.103-4.688-4.687c0-24.73-20.118-44.849-44.847-44.849H107.565
			c11.683-43.689,42.343-80.974,84.601-100.308c7.145-3.268,11.727-10.403,11.727-18.26V40.161h104.217v119.986
			c0,7.857,4.582,14.992,11.727,18.26c54.555,24.96,89.807,79.83,89.807,139.791c0,3.378-0.122,6.728-0.337,10.052H280.765z"/>
	</g>
</g>
<g>
</g>
<g>
</g>
<g>
</g>
<g>
</g>
<g>
</g>
<g>
</g>
<g>
</g>
<g>
</g>
<g>
</g>
<g>
</g>
<g>
</g>
<g>
</g>
<g>
</g>
<g>
</g>
<g>
</g>
</svg>
