<?xml version="1.0" encoding="iso-8859-1"?>
<!-- Generator: Adobe Illustrator 19.0.0, SVG Export Plug-In . SVG Version: 6.00 Build 0)  -->
<svg version="1.1" id="Layer_1" xmlns="http://www.w3.org/2000/svg" xmlns:xlink="http://www.w3.org/1999/xlink" x="0px" y="0px"
	 viewBox="0 0 512 512" style="enable-background:new 0 0 512 512;" xml:space="preserve">
<g>
	<g>
		<g>
			<path d="M403.975,312.052V120.966c0-29.174-23.734-52.908-52.908-52.908c-5.935,0-11.645,0.983-16.975,2.793
				c-8.947-27.967-39.245-43.584-67.385-34.029C259.885,15.488,239.867,0,216.299,0c-23.568,0-43.586,15.488-50.409,36.822
				c-34.274-11.64-69.883,14.024-69.883,50.115v65.972c-33.746-9.612-67.384,15.876-67.384,50.894V312.05
				c0,31.337,21.181,57.823,49.977,65.893c0,10.89,0,101.782,0,114.838c0,10.612,8.604,19.216,19.216,19.216h236.966
				c10.612,0,19.216-8.604,19.216-19.216c0-12.989,0-103.969,0-114.838C382.795,369.875,403.975,343.389,403.975,312.052z
				 M315.566,473.567H117.032v-15.07h198.534V473.567z M365.543,312.052c0,16.533-13.451,29.985-29.985,29.985h-0.775
				c-10.612,0-19.216,8.604-19.216,19.216v58.812H117.032v-58.812c0-10.612-8.604-19.216-19.216-19.216H97.04
				c-16.533,0-29.985-13.451-29.985-29.985V203.804c0-7.982,6.494-14.476,14.476-14.476s14.476,6.494,14.476,14.476
				c0,10.612,8.604,19.216,19.216,19.216c10.612,0,19.216-8.604,19.216-19.216V86.937c0-7.982,6.494-14.476,14.476-14.476
				c7.982,0,14.476,6.494,14.476,14.476v87.593c0,10.612,8.604,19.216,19.216,19.216c10.612,0,19.216-8.604,19.216-19.216V86.937
				V52.908c0-7.982,6.494-14.476,14.476-14.476s14.476,6.494,14.476,14.476v34.029v87.593c0,10.612,8.604,19.216,19.216,19.216
				c10.614,0,19.216-8.604,19.216-19.216V86.937c0-7.982,6.492-14.476,14.476-14.476c7.981,0,14.476,6.494,14.476,14.476
				c0,9.627,0,79.872,0,87.593c0,10.612,8.604,19.216,19.216,19.216c10.612,0,19.216-8.604,19.216-19.216v-53.564
				c0-7.982,6.494-14.476,14.476-14.476c7.981,0,14.476,6.494,14.476,14.476V312.052z"/>
			<path d="M423.843,67.721c-10.612,0-19.216,8.604-19.216,19.216c0,10.612,8.604,19.216,19.216,19.216
				c11.636,0,21.102,9.466,21.102,21.1V312.05c0,31.852-15.632,61.86-41.815,80.269c-5.117,3.599-8.163,9.463-8.163,15.72v65.529
				h-11.441c-10.612,0-19.216,8.604-19.216,19.216S372.913,512,383.525,512h30.657c10.612,0,19.216-8.604,19.216-19.216V417.55
				c31.469-25.849,49.978-64.569,49.978-105.498c0-7.007,0-167.918,0-184.891C483.323,94.377,456.637,67.721,423.843,67.721z"/>
		</g>
	</g>
</g>
<g>
</g>
<g>
</g>
<g>
</g>
<g>
</g>
<g>
</g>
<g>
</g>
<g>
</g>
<g>
</g>
<g>
</g>
<g>
</g>
<g>
</g>
<g>
</g>
<g>
</g>
<g>
</g>
<g>
</g>
</svg>
