<?xml version="1.0" encoding="iso-8859-1"?>
<!-- Generator: Adobe Illustrator 19.0.0, SVG Export Plug-In . SVG Version: 6.00 Build 0)  -->
<svg version="1.1" id="Layer_1" xmlns="http://www.w3.org/2000/svg" xmlns:xlink="http://www.w3.org/1999/xlink" x="0px" y="0px"
	 viewBox="0 0 512 512" style="enable-background:new 0 0 512 512;" xml:space="preserve">
<g>
	<g>
		<path d="M506.09,191.163c-14.612-14.612-63.777-63.776-78.354-78.354l11.847-11.847c7.884-7.884,7.884-20.665,0-28.549
			c-7.881-7.882-20.664-7.884-28.549,0l-11.849,11.849L320.838,5.913c-7.882-7.884-20.665-7.884-28.549,0L219.622,78.58
			c-7.878,7.877-7.884,20.666,0,28.549l78.348,78.348L176.204,307.243l-17.182-17.182c-7.878-7.88-20.668-7.882-28.549,0
			L18.959,401.575c-25.277,25.277-25.28,66.187,0,91.466c25.273,25.276,66.189,25.28,91.466,0l111.514-111.514
			c7.884-7.884,7.884-20.665,0-28.549l-17.187-17.187l121.766-121.766c14.579,14.579,63.743,63.743,78.355,78.354
			c7.881,7.884,20.664,7.885,28.549,0l72.667-72.667C513.967,211.835,513.973,199.046,506.09,191.163z M81.877,464.492
			c-9.497,9.496-24.868,9.499-34.368,0c0,0,0,0,0-0.001c-9.497-9.496-9.5-24.868,0-34.368l97.241-97.241l34.368,34.368
			L81.877,464.492z M278.944,109.353l-16.498-16.498l44.119-44.119l16.498,16.498L278.944,109.353z M307.493,137.901l44.119-44.119
			l66.607,66.607L374.1,204.509L307.493,137.901z M419.147,249.556l-16.498-16.498l44.119-44.119l16.5,16.498L419.147,249.556z"/>
	</g>
</g>
<g>
</g>
<g>
</g>
<g>
</g>
<g>
</g>
<g>
</g>
<g>
</g>
<g>
</g>
<g>
</g>
<g>
</g>
<g>
</g>
<g>
</g>
<g>
</g>
<g>
</g>
<g>
</g>
<g>
</g>
</svg>
