<?xml version="1.0" encoding="iso-8859-1"?>
<!-- Generator: Adobe Illustrator 19.0.0, SVG Export Plug-In . SVG Version: 6.00 Build 0)  -->
<svg version="1.1" id="Layer_1" xmlns="http://www.w3.org/2000/svg" xmlns:xlink="http://www.w3.org/1999/xlink" x="0px" y="0px"
	 viewBox="0 0 512.001 512.001" style="enable-background:new 0 0 512.001 512.001;" xml:space="preserve">
<g>
	<g>
		<g>
			<path d="M466.738,71.972c-58.483-59.357-149.465-61.834-210.738-14.317C192.227,8.198,101.468,14.927,45.263,71.972
				c-61.15,62.064-60.222,163.233,2.07,225.523l176.816,176.816c17.606,17.606,46.101,17.604,63.703,0l176.817-176.816
				C526.96,235.203,527.887,134.035,466.738,71.972z M434.139,266.965L257.322,443.781c-1.969,1.969,8.696,11.341-179.461-176.817
				c-45.581-45.579-46.407-119.459-1.844-164.689c45.271-45.948,119.18-46.164,164.718-0.626c8.429,8.431,22.106,8.425,30.53,0
				c45.611-45.611,119.521-45.244,164.718,0.628C480.546,147.504,479.719,221.384,434.139,266.965z"/>
			<circle cx="115.784" cy="196.523" r="34.8"/>
			<circle cx="158.729" cy="266.684" r="18.189"/>
		</g>
	</g>
</g>
<g>
</g>
<g>
</g>
<g>
</g>
<g>
</g>
<g>
</g>
<g>
</g>
<g>
</g>
<g>
</g>
<g>
</g>
<g>
</g>
<g>
</g>
<g>
</g>
<g>
</g>
<g>
</g>
<g>
</g>
</svg>
