<?xml version="1.0" encoding="iso-8859-1"?>
<!-- Generator: Adobe Illustrator 19.0.0, SVG Export Plug-In . SVG Version: 6.00 Build 0)  -->
<svg version="1.1" id="Layer_1" xmlns="http://www.w3.org/2000/svg" xmlns:xlink="http://www.w3.org/1999/xlink" x="0px" y="0px"
	 viewBox="0 0 511.999 511.999" style="enable-background:new 0 0 511.999 511.999;" xml:space="preserve">
<g>
	<g>
		<path d="M468.509,137.107h-93.616V43.491C374.893,19.51,355.383,0,331.403,0H180.598c-23.981,0-43.491,19.51-43.491,43.491v93.616
			H43.491C19.51,137.107,0,156.617,0,180.598v150.804c0,23.981,19.51,43.491,43.491,43.491h93.616v93.616
			c0,23.981,19.51,43.491,43.491,43.491h150.804c23.981,0,43.491-19.51,43.491-43.491v-93.616h93.616
			c23.981,0,43.491-19.51,43.491-43.491V180.598C512,156.617,492.49,137.107,468.509,137.107z M353.148,331.401
			c-12.009,0-21.745,9.736-21.745,21.745l0.028,115.36c0,0-0.009,0.001-0.028,0.001H180.598V353.146
			c0-12.009-9.736-21.745-21.745-21.745H43.491V180.598h115.362c12.009,0,21.745-9.736,21.745-21.745V43.491h150.804v115.362
			c0,12.009,9.736,21.745,21.745,21.745h115.362v150.804H353.148z"/>
	</g>
</g>
<g>
</g>
<g>
</g>
<g>
</g>
<g>
</g>
<g>
</g>
<g>
</g>
<g>
</g>
<g>
</g>
<g>
</g>
<g>
</g>
<g>
</g>
<g>
</g>
<g>
</g>
<g>
</g>
<g>
</g>
</svg>
