<?xml version="1.0" encoding="iso-8859-1"?>
<!-- Generator: Adobe Illustrator 19.0.0, SVG Export Plug-In . SVG Version: 6.00 Build 0)  -->
<svg version="1.1" id="Layer_1" xmlns="http://www.w3.org/2000/svg" xmlns:xlink="http://www.w3.org/1999/xlink" x="0px" y="0px"
	 viewBox="0 0 512 512" style="enable-background:new 0 0 512 512;" xml:space="preserve">
<g>
	<g>
		<g>
			<path d="M364.146,189.288H320.87v-43.276c0-35.77-29.101-64.87-64.87-64.87c-35.769,0-64.87,29.101-64.87,64.87v43.276h-43.276
				c-35.769,0-64.87,29.101-64.87,64.871s29.101,64.871,64.87,64.871h43.276v43.276c0,35.771,29.101,64.87,64.87,64.87
				c35.77,0,64.87-29.101,64.87-64.87v-43.276h43.276c35.769,0,64.87-29.101,64.87-64.871S399.916,189.288,364.146,189.288z
				 M364.146,281.346h-62.118c-10.406,0-18.842,8.436-18.842,18.842v62.118c0,14.991-12.196,27.186-27.186,27.186
				c-14.991,0-27.186-12.196-27.186-27.186v-62.118c0-10.406-8.436-18.842-18.842-18.842h-62.118
				c-14.991,0-27.186-12.197-27.186-27.188c0-14.991,12.196-27.188,27.186-27.188h62.118c10.406,0,18.842-8.436,18.842-18.842
				v-62.117c0-14.991,12.196-27.186,27.186-27.186c14.991,0,27.186,12.196,27.186,27.186v62.118
				c0,10.406,8.436,18.842,18.842,18.842h62.118c14.991,0,27.186,12.197,27.186,27.188S379.137,281.346,364.146,281.346z"/>
			<path d="M256,0C114.841,0,0,114.841,0,256s114.841,256,256,256s256-114.841,256-256S397.159,0,256,0z M256,474.316
				C135.62,474.316,37.684,376.38,37.684,256S135.62,37.684,256,37.684S474.316,135.62,474.316,256S376.38,474.316,256,474.316z"/>
		</g>
	</g>
</g>
<g>
</g>
<g>
</g>
<g>
</g>
<g>
</g>
<g>
</g>
<g>
</g>
<g>
</g>
<g>
</g>
<g>
</g>
<g>
</g>
<g>
</g>
<g>
</g>
<g>
</g>
<g>
</g>
<g>
</g>
</svg>
