<?xml version="1.0" encoding="iso-8859-1"?>
<!-- Generator: Adobe Illustrator 19.0.0, SVG Export Plug-In . SVG Version: 6.00 Build 0)  -->
<svg version="1.1" id="Layer_1" xmlns="http://www.w3.org/2000/svg" xmlns:xlink="http://www.w3.org/1999/xlink" x="0px" y="0px"
	 viewBox="0 0 512 512" style="enable-background:new 0 0 512 512;" xml:space="preserve">
<g>
	<g>
		<g>
			<path d="M290.704,96.641h-14.216V82.425c0-11.315-9.173-20.488-20.488-20.488s-20.488,9.173-20.488,20.488v14.216h-14.216
				c-11.315,0-20.488,9.173-20.488,20.488c0,11.315,9.173,20.488,20.488,20.488h14.216v14.216c0,11.315,9.173,20.488,20.488,20.488
				s20.488-9.173,20.488-20.488v-14.216h14.216c11.315,0,20.488-9.173,20.488-20.488C311.192,105.814,302.019,96.641,290.704,96.641
				z"/>
			<path d="M491.512,185.528h-42.911V28.241c0-11.315-9.173-20.488-20.488-20.488H83.886c-11.315,0-20.488,9.173-20.488,20.488
				v157.287H20.488C9.173,185.528,0,194.701,0,206.016v277.744c0,11.315,9.173,20.488,20.488,20.488c8.363,0,462.698,0,471.025,0
				c11.315,0,20.488-9.173,20.488-20.488V206.016C512,194.701,502.828,185.528,491.512,185.528z M104.374,48.729h303.252v136.799
				H104.374V48.729z M235.508,463.271h-43.041v-97.897h43.041V463.271z M319.534,463.271h-43.052v-97.897h43.052V463.271z
				 M471.025,463.271H360.508V344.887c0-11.315-9.173-20.488-20.488-20.488H171.979c-11.315,0-20.488,9.173-20.488,20.488v118.385
				H40.975V226.503c11.978,0,418.732,0,430.049,0V463.271z"/>
		</g>
	</g>
</g>
<g>
</g>
<g>
</g>
<g>
</g>
<g>
</g>
<g>
</g>
<g>
</g>
<g>
</g>
<g>
</g>
<g>
</g>
<g>
</g>
<g>
</g>
<g>
</g>
<g>
</g>
<g>
</g>
<g>
</g>
</svg>
