<?xml version="1.0" encoding="iso-8859-1"?>
<!-- Generator: Adobe Illustrator 19.0.0, SVG Export Plug-In . SVG Version: 6.00 Build 0)  -->
<svg version="1.1" id="Layer_1" xmlns="http://www.w3.org/2000/svg" xmlns:xlink="http://www.w3.org/1999/xlink" x="0px" y="0px"
	 viewBox="0 0 512 512" style="enable-background:new 0 0 512 512;" xml:space="preserve">
<g>
	<g>
		<g>
			<path d="M493.666,102.065H380.904V61.664c0-10.125-8.209-18.334-18.334-18.334H149.43c-10.125,0-18.334,8.209-18.334,18.334
				v40.401H18.334C8.209,102.065,0,110.274,0,120.399v329.937c0,10.125,8.209,18.334,18.334,18.334c7.547,0,449.061,0,475.333,0
				c10.125,0,18.334-8.209,18.334-18.334V120.399C512,110.274,503.791,102.065,493.666,102.065z M131.096,432.002H36.667V216.347
				h94.429V432.002z M131.096,179.68H36.667v-40.947h94.429V179.68z M276.014,432.002h-40.539v-78.518h40.539V432.002z
				 M344.238,432.002h-31.556v-96.851c0-10.125-8.209-18.334-18.334-18.334h-77.206c-10.125,0-18.334,8.209-18.334,18.334v96.851
				h-31.045c-0.001-13.078-0.001-335.565-0.001-352.004h176.475C344.238,96.603,344.238,419.21,344.238,432.002z M380.904,138.732
				h94.429v40.947h-94.429V138.732z M475.334,432.002h-94.429V216.347h94.429V432.002z"/>
			<path d="M217.193,177.54h20.474v20.474c0,10.125,8.209,18.334,18.334,18.334s18.334-8.209,18.334-18.334V177.54h20.474
				c10.125,0,18.334-8.209,18.334-18.334s-8.209-18.334-18.334-18.334h-20.474v-20.474c0-10.125-8.209-18.334-18.334-18.334
				s-18.334,8.209-18.334,18.334v20.474h-20.474c-10.125,0-18.334,8.209-18.334,18.334S207.068,177.54,217.193,177.54z"/>
		</g>
	</g>
</g>
<g>
</g>
<g>
</g>
<g>
</g>
<g>
</g>
<g>
</g>
<g>
</g>
<g>
</g>
<g>
</g>
<g>
</g>
<g>
</g>
<g>
</g>
<g>
</g>
<g>
</g>
<g>
</g>
<g>
</g>
</svg>
