<?xml version="1.0" encoding="iso-8859-1"?>
<!-- Generator: Adobe Illustrator 19.0.0, SVG Export Plug-In . SVG Version: 6.00 Build 0)  -->
<svg version="1.1" id="Layer_1" xmlns="http://www.w3.org/2000/svg" xmlns:xlink="http://www.w3.org/1999/xlink" x="0px" y="0px"
	 viewBox="0 0 511.999 511.999" style="enable-background:new 0 0 511.999 511.999;" xml:space="preserve">
<g>
	<g>
		<path d="M398.626,21.908H113.374C50.859,21.908,0,72.768,0,135.282v154.111c0,35.562,28.403,64.938,64.365,65.624
			c37.449,0.721,66.91-30.499,66.91-66.567v-129.3c0-3.29,2.677-5.967,5.967-5.967h237.516c3.29,0,5.967,2.677,5.967,5.967v58.638
			c0,3.29-2.677,5.967-5.967,5.967H255.999c-36.193,0-65.638,29.445-65.638,65.638v82.018c0,20.833,10.066,40.667,26.36,53.172
			v26.235c0,21.654,17.618,39.273,39.273,39.273s39.273-17.618,39.273-39.273v-25.842c16.495-12.254,26.368-31.549,26.368-52.622
			V355.03h76.989c62.514,0,113.374-50.859,113.374-113.374V135.282C512,72.769,461.142,21.908,398.626,21.908z M476.198,241.656
			c0,42.773-34.799,77.572-77.572,77.572h-94.89c-9.886,0-17.901,8.015-17.901,17.901v35.225c0,11.364-6.319,21.594-16.492,26.693
			c-6.054,3.036-9.877,9.229-9.877,16.002v35.769c0,4.586-6.941,4.587-6.941,0V414.84c0-6.685-3.725-12.812-9.659-15.89
			c-10.145-5.262-16.701-16.072-16.701-27.539v-82.018c0-16.451,13.384-29.835,29.835-29.835h118.759
			c23.032,0,41.769-18.738,41.769-41.769V159.15c0-23.032-18.738-41.769-41.769-41.769H137.242
			c-23.032,0-41.769,18.738-41.769,41.769v129.3c0,16.598-13.505,31.049-30.424,30.772c-16.127-0.308-29.247-13.688-29.247-29.829
			V135.282c0-42.773,34.799-77.572,77.572-77.572h285.252c42.773,0,77.572,34.799,77.572,77.572V241.656z"/>
	</g>
</g>
<g>
</g>
<g>
</g>
<g>
</g>
<g>
</g>
<g>
</g>
<g>
</g>
<g>
</g>
<g>
</g>
<g>
</g>
<g>
</g>
<g>
</g>
<g>
</g>
<g>
</g>
<g>
</g>
<g>
</g>
</svg>
