<?xml version="1.0" encoding="iso-8859-1"?>
<!-- Generator: Adobe Illustrator 19.0.0, SVG Export Plug-In . SVG Version: 6.00 Build 0)  -->
<svg version="1.1" id="Layer_1" xmlns="http://www.w3.org/2000/svg" xmlns:xlink="http://www.w3.org/1999/xlink" x="0px" y="0px"
	 viewBox="0 0 512 512" style="enable-background:new 0 0 512 512;" xml:space="preserve">
<g>
	<g>
		<path d="M485.066,26.933c-35.907-35.91-94.026-35.912-129.938,0c-30.556,30.556-35.027,77.449-13.456,112.813L220.352,261.067
			l-21.013-21.013c-8.443-8.443-22.136-8.443-30.581,0L6.334,402.48c-8.445,8.443-8.445,22.136,0,30.581l72.605,72.605
			c8.446,8.446,22.136,8.445,30.581,0L271.945,343.24c8.445-8.443,8.445-22.136,0-30.581l-21.013-21.013l121.321-121.321
			c35.556,21.689,82.376,16.979,112.813-13.456C520.974,120.962,520.98,62.844,485.066,26.933z M94.23,459.795l-42.024-42.024
			l18.282-18.282l42.024,42.024L94.23,459.795z M143.092,410.932l-42.024-42.024l82.983-82.983
			c15.692,15.692,16.168,16.168,42.024,42.024L143.092,410.932z M454.486,126.29c-18.961,18.96-49.815,18.96-68.776,0
			c-18.96-18.961-18.96-49.815,0-68.776c19.009-19.006,49.767-19.009,68.776,0C473.493,76.522,473.493,107.28,454.486,126.29z"/>
	</g>
</g>
<g>
</g>
<g>
</g>
<g>
</g>
<g>
</g>
<g>
</g>
<g>
</g>
<g>
</g>
<g>
</g>
<g>
</g>
<g>
</g>
<g>
</g>
<g>
</g>
<g>
</g>
<g>
</g>
<g>
</g>
</svg>
