<?xml version="1.0" encoding="iso-8859-1"?>
<!-- Generator: Adobe Illustrator 19.0.0, SVG Export Plug-In . SVG Version: 6.00 Build 0)  -->
<svg version="1.1" id="Layer_1" xmlns="http://www.w3.org/2000/svg" xmlns:xlink="http://www.w3.org/1999/xlink" x="0px" y="0px"
	 viewBox="0 0 512 512" style="enable-background:new 0 0 512 512;" xml:space="preserve">
<g>
	<g>
		<g>
			<path d="M188.318,157.841c-55.1,12.836-99.708,54.374-116.414,108.403c-3.09,9.999,2.508,20.612,12.508,23.704
				c10,3.09,20.612-2.508,23.704-12.508c12.742-41.208,46.769-72.891,88.801-82.685c10.193-2.374,16.532-12.562,14.157-22.757
				C208.699,161.804,198.516,155.464,188.318,157.841z"/>
			<path d="M444.857,90.51c-21.464,0-194.317,0-220.265,0C111.82,90.51,16.636,174.944,3.188,286.91l-2.447,20.369
				c-7.295,60.73,40.195,114.211,101.311,114.211h41.744c63.675,0,118.608-41.949,136.772-100.97h56.364
				c88.925,0,163.977-66.579,174.58-154.869v0.001C516.314,125.699,485.068,90.51,444.857,90.51z M248.26,290.927
				c-6.349,52.825-51.257,92.66-104.462,92.66h-41.744c-38.443,0-68.263-33.645-63.68-71.788l2.447-20.369
				c11.164-92.936,90.168-163.017,183.773-163.017h43.185L248.26,290.927z M473.882,161.131
				c-8.317,69.258-67.193,121.486-136.949,121.486h-49.501l18.519-154.205h138.905C462.396,128.413,475.977,143.68,473.882,161.131z
				"/>
		</g>
	</g>
</g>
<g>
</g>
<g>
</g>
<g>
</g>
<g>
</g>
<g>
</g>
<g>
</g>
<g>
</g>
<g>
</g>
<g>
</g>
<g>
</g>
<g>
</g>
<g>
</g>
<g>
</g>
<g>
</g>
<g>
</g>
</svg>
