<?xml version="1.0" encoding="iso-8859-1"?>
<!-- Generator: Adobe Illustrator 19.0.0, SVG Export Plug-In . SVG Version: 6.00 Build 0)  -->
<svg version="1.1" id="Layer_1" xmlns="http://www.w3.org/2000/svg" xmlns:xlink="http://www.w3.org/1999/xlink" x="0px" y="0px"
	 viewBox="0 0 512 512" style="enable-background:new 0 0 512 512;" xml:space="preserve">
<g>
	<g>
		<g>
			<path d="M467.686,44.291c-59.056-59.056-155.147-59.053-214.203,0c-53.612,53.612-58.55,137.745-14.824,196.984l-83.604,83.604
				l-11.78-11.78c-8.848-8.849-23.196-8.848-32.045,0l-93.086,93.086c-24.164,24.165-24.164,63.484,0,87.648
				c24.221,24.221,63.425,24.224,87.648,0l93.086-93.086c8.843-8.845,8.848-23.197,0-32.045l-11.78-11.778l83.604-83.604
				c59.26,43.743,143.384,38.775,196.982-14.824C526.744,199.44,526.744,103.347,467.686,44.291z M73.747,461.788
				c-6.509,6.511-17.046,6.511-23.558,0c-6.496-6.496-6.496-17.064,0-23.558l37.386-37.386l23.558,23.558L73.747,461.788z
				 M143.178,392.358L119.62,368.8l7.633-7.633l23.558,23.558L143.178,392.358z M435.641,226.451
				c-41.385,41.385-108.726,41.387-150.114,0c-41.486-41.486-41.488-108.627,0-150.114c41.383-41.385,108.727-41.388,150.114,0
				C477.127,117.822,477.129,184.963,435.641,226.451z"/>
			<path d="M303.847,94.654c-31.36,31.359-31.364,82.116,0,113.478c31.285,31.285,82.19,31.286,113.477,0
				c31.285-31.285,31.285-82.191,0-113.478C386.037,63.369,335.13,63.369,303.847,94.654z M385.278,176.087
				c-13.617,13.617-35.772,13.617-49.387,0c-13.65-13.65-13.648-35.737,0-49.387c13.617-13.615,35.767-13.618,49.387,0
				C398.895,140.315,398.895,162.47,385.278,176.087z"/>
		</g>
	</g>
</g>
<g>
</g>
<g>
</g>
<g>
</g>
<g>
</g>
<g>
</g>
<g>
</g>
<g>
</g>
<g>
</g>
<g>
</g>
<g>
</g>
<g>
</g>
<g>
</g>
<g>
</g>
<g>
</g>
<g>
</g>
</svg>
