<?xml version="1.0" encoding="iso-8859-1"?>
<!-- Generator: Adobe Illustrator 19.0.0, SVG Export Plug-In . SVG Version: 6.00 Build 0)  -->
<svg version="1.1" id="Layer_1" xmlns="http://www.w3.org/2000/svg" xmlns:xlink="http://www.w3.org/1999/xlink" x="0px" y="0px"
	 viewBox="0 0 512 512" style="enable-background:new 0 0 512 512;" xml:space="preserve">
<g>
	<g>
		<path d="M325.184,148.135c-9.918,0-17.958,8.041-17.958,17.958v82.392l-33.267-25.166V78.304c0-9.918-8.041-17.958-17.958-17.958
			c-9.918,0-17.958,8.041-17.958,17.958v145.015l-33.267,25.166v-82.392c0-9.918-8.041-17.958-17.958-17.958
			C83.805,148.135,0,231.941,0,334.951v80.416c0,20.008,16.277,36.286,36.285,36.286h132.203c20.008,0,36.285-16.277,36.285-36.286
			V293.521L256,254.77l51.226,38.751v121.847c0,20.008,16.277,36.285,36.286,36.285h132.203c20.008,0,36.285-16.277,36.285-36.285
			v-80.416C512,231.941,428.195,148.135,325.184,148.135z M168.859,415.368h-0.001c0,0.572-132,0.369-132.572,0.369
			c-0.204,0-0.369-0.165-0.369-0.369v-80.416c0-77.132,58.166-140.934,132.941-149.837v90.541l-28.937,21.89l-30.291-22.915
			c-7.908-5.982-19.172-4.421-25.156,3.489c-5.984,7.909-4.421,19.172,3.489,25.156l22.193,16.789l-22.193,16.789
			c-7.91,5.984-9.471,17.247-3.489,25.156c5.989,7.916,17.252,9.468,25.156,3.489l59.229-44.805V415.368z M475.715,415.737
			c-0.572,0-132.572,0.204-132.572-0.369v-94.678l59.229,44.805c7.908,5.983,19.171,4.424,25.156-3.489
			c5.984-7.909,4.421-19.172-3.489-25.156l-22.193-16.789l22.193-16.789c7.91-5.984,9.471-17.247,3.489-25.156
			c-5.985-7.91-17.248-9.472-25.156-3.489l-30.292,22.915l-28.937-21.89v-90.539c74.775,8.904,132.941,72.705,132.941,149.837
			v80.416h0C476.083,415.572,475.918,415.737,475.715,415.737z"/>
	</g>
</g>
<g>
</g>
<g>
</g>
<g>
</g>
<g>
</g>
<g>
</g>
<g>
</g>
<g>
</g>
<g>
</g>
<g>
</g>
<g>
</g>
<g>
</g>
<g>
</g>
<g>
</g>
<g>
</g>
<g>
</g>
</svg>
