<?xml version="1.0" encoding="iso-8859-1"?>
<!-- Generator: Adobe Illustrator 19.0.0, SVG Export Plug-In . SVG Version: 6.00 Build 0)  -->
<svg version="1.1" id="Layer_1" xmlns="http://www.w3.org/2000/svg" xmlns:xlink="http://www.w3.org/1999/xlink" x="0px" y="0px"
	 viewBox="0 0 512 512" style="enable-background:new 0 0 512 512;" xml:space="preserve">
<g>
	<g>
		<g>
			<path d="M174.322,174.813h30.604v30.604c0,11.28,9.145,20.426,20.426,20.426s20.426-9.145,20.426-20.426v-30.604h30.604
				c11.28,0,20.426-9.145,20.426-20.426s-9.145-20.426-20.426-20.426h-30.604v-30.604c0-11.28-9.145-20.426-20.426-20.426
				s-20.426,9.145-20.426,20.426v30.604h-30.604c-11.28,0-20.426,9.145-20.426,20.426S163.04,174.813,174.322,174.813z"/>
			<path d="M474.542,0C459.412,0,52.486,0,37.457,0c-11.28,0-20.426,9.145-20.426,20.426v471.149
				c0,11.28,9.145,20.426,20.426,20.426h375.788c11.28,0,20.426-9.145,20.426-20.426V131.007h40.873
				c11.28,0,20.426-9.145,20.426-20.426V20.426C494.967,9.145,485.822,0,474.542,0z M392.819,110.581v360.568H57.883V40.851h334.937
				V110.581z M454.116,90.156h-20.447V40.851h20.447V90.156z"/>
			<path d="M111.603,309.855h227.494c11.28,0,20.426-9.145,20.426-20.426s-9.144-20.426-20.426-20.426H111.603
				c-11.28,0-20.426,9.145-20.426,20.426S100.323,309.855,111.603,309.855z"/>
			<path d="M111.603,372.54h227.494c11.28,0,20.426-9.145,20.426-20.426s-9.144-20.426-20.426-20.426H111.603
				c-11.28,0-20.426,9.145-20.426,20.426S100.323,372.54,111.603,372.54z"/>
			<path d="M111.603,435.225h227.494c11.28,0,20.426-9.145,20.426-20.426s-9.144-20.426-20.426-20.426H111.603
				c-11.28,0-20.426,9.145-20.426,20.426S100.323,435.225,111.603,435.225z"/>
		</g>
	</g>
</g>
<g>
</g>
<g>
</g>
<g>
</g>
<g>
</g>
<g>
</g>
<g>
</g>
<g>
</g>
<g>
</g>
<g>
</g>
<g>
</g>
<g>
</g>
<g>
</g>
<g>
</g>
<g>
</g>
<g>
</g>
</svg>
