<?xml version="1.0" encoding="iso-8859-1"?>
<!-- Generator: Adobe Illustrator 19.0.0, SVG Export Plug-In . SVG Version: 6.00 Build 0)  -->
<svg version="1.1" id="Layer_1" xmlns="http://www.w3.org/2000/svg" xmlns:xlink="http://www.w3.org/1999/xlink" x="0px" y="0px"
	 viewBox="0 0 511.997 511.997" style="enable-background:new 0 0 511.997 511.997;" xml:space="preserve">
<g>
	<g>
		<path d="M403.386,284.851v-64.658c0-57.557-46.826-104.383-104.383-104.383h-65.034V66.752c0-11.529-9.347-20.877-20.877-20.877
			h-30.268V20.877C182.824,9.347,173.477,0,161.947,0S141.07,9.347,141.07,20.877v24.999h-30.27
			c-11.529,0-20.877,9.347-20.877,20.877c0,14.427,0,190.163,0,197.571c0,11.529,9.347,20.877,20.877,20.877h102.29
			c11.529,0,20.877-9.347,20.877-20.877c0-10.259,0-95.821,0-106.762h65.034c34.536,0,62.63,28.096,62.63,62.63v64.659
			c-29.329,7.571-52.466,30.707-60.038,60.03c-8.868,0-179.865,0.006-190.793,0.006c-11.529,0-20.877,9.347-20.877,20.877
			s9.347,20.877,20.877,20.877h81.416v20.925H129.49c-46.073,0-83.555,37.483-83.555,83.555c0,11.529,9.347,20.877,20.877,20.877
			h315.698c11.529,0,20.877-9.347,20.877-20.877V446.68c36.003-9.292,62.677-42.048,62.677-80.919
			C466.063,326.895,439.388,294.144,403.386,284.851z M131.677,87.629h60.537v98.113h-60.537V87.629z M131.677,243.448v-15.951
			h60.537v15.951H131.677z M301.594,386.643c1.884,7.301,4.885,14.541,8.589,20.925h-76.211v-20.925H301.594z M361.632,470.248
			H93.282v-0.001c7.234-12.5,20.756-20.925,36.207-20.925c12.609,0,219.866,0.001,232.143,0.001V470.248z M382.52,407.568
			c-0.004,0-0.007,0-0.011,0h-0.021c-23.034-0.014-41.77-18.751-41.781-41.785c0-0.006,0.001-0.011,0.001-0.017
			c0-0.007-0.001-0.014-0.001-0.02c0.007-23.039,18.76-41.781,41.809-41.781c23.046,0,41.795,18.749,41.795,41.795
			C424.31,388.811,405.564,407.565,382.52,407.568z"/>
	</g>
</g>
<g>
</g>
<g>
</g>
<g>
</g>
<g>
</g>
<g>
</g>
<g>
</g>
<g>
</g>
<g>
</g>
<g>
</g>
<g>
</g>
<g>
</g>
<g>
</g>
<g>
</g>
<g>
</g>
<g>
</g>
</svg>
