<?xml version="1.0" encoding="iso-8859-1"?>
<!-- Generator: Adobe Illustrator 19.0.0, SVG Export Plug-In . SVG Version: 6.00 Build 0)  -->
<svg version="1.1" id="Layer_1" xmlns="http://www.w3.org/2000/svg" xmlns:xlink="http://www.w3.org/1999/xlink" x="0px" y="0px"
	 viewBox="0 0 512 512" style="enable-background:new 0 0 512 512;" xml:space="preserve">
<g>
	<g>
		<path d="M491.891,131.427h-83.673c35.937-15.468,44.801-62.481,17.222-90.058c-21.609-21.61-56.771-21.612-78.38,0
			c-16.595,16.595-20.43,41.176-11.537,61.481l-28.577,28.577H20.109C9.003,131.427,0,140.43,0,151.536
			c0,101.598,59.412,190.611,147.269,231.822v83.372c0,11.105,9.003,20.109,20.109,20.109h177.247
			c11.105,0,20.109-9.003,20.109-20.109v-83.372C452.682,342.104,512,253.041,512,151.537
			C512,140.43,502.997,131.427,491.891,131.427z M375.498,69.807c5.931-5.929,15.575-5.928,21.506,0
			c5.928,5.929,5.928,15.576,0,21.506c-5.929,5.928-15.576,5.927-21.506,0C369.57,85.383,369.57,75.737,375.498,69.807z
			 M324.515,446.621h-0.001H187.486v-48.35c42.864,11.924,91.158,12.732,137.029,0V446.621z M255.999,367.319
			c-112.509,0-204.738-85.998-214.859-195.674h429.718C460.759,281.093,368.753,367.319,255.999,367.319z"/>
	</g>
</g>
<g>
</g>
<g>
</g>
<g>
</g>
<g>
</g>
<g>
</g>
<g>
</g>
<g>
</g>
<g>
</g>
<g>
</g>
<g>
</g>
<g>
</g>
<g>
</g>
<g>
</g>
<g>
</g>
<g>
</g>
</svg>
