<?xml version="1.0" encoding="iso-8859-1"?>
<!-- Generator: Adobe Illustrator 19.0.0, SVG Export Plug-In . SVG Version: 6.00 Build 0)  -->
<svg version="1.1" id="Layer_1" xmlns="http://www.w3.org/2000/svg" xmlns:xlink="http://www.w3.org/1999/xlink" x="0px" y="0px"
	 viewBox="0 0 512 512" style="enable-background:new 0 0 512 512;" xml:space="preserve">
<g>
	<g>
		<g>
			<path d="M235.686,174.813h30.604v30.604c0,11.28,9.145,20.426,20.426,20.426s20.426-9.145,20.426-20.426v-30.604h30.603
				c11.28,0,20.426-9.145,20.426-20.426s-9.145-20.426-20.426-20.426h-30.603v-30.604c0-11.28-9.145-20.426-20.426-20.426
				s-20.426,9.145-20.426,20.426v30.604h-30.604c-11.28,0-20.426,9.145-20.426,20.426S224.406,174.813,235.686,174.813z"/>
			<path d="M474.609,0C460.251,0,51.705,0,37.391,0c-11.28,0-20.426,9.145-20.426,20.426v471.149
				c0,11.28,9.145,20.426,20.426,20.426h61.43h375.788c11.28,0,20.426-9.145,20.426-20.426V20.426
				C495.035,9.145,485.889,0,474.609,0z M78.396,471.149H57.817V40.851h20.579V471.149z M454.183,471.149H119.247V40.851h334.936
				V471.149z"/>
			<path d="M172.968,309.855h113.747c11.28,0,20.426-9.145,20.426-20.426s-9.145-20.426-20.426-20.426H172.968
				c-11.28,0-20.426,9.145-20.426,20.426S161.687,309.855,172.968,309.855z"/>
			<path d="M172.968,372.54h227.495c11.28,0,20.426-9.145,20.426-20.426s-9.145-20.425-20.426-20.425H172.968
				c-11.28,0-20.426,9.145-20.426,20.425S161.687,372.54,172.968,372.54z"/>
			<path d="M172.968,435.225h227.495c11.28,0,20.426-9.145,20.426-20.426s-9.145-20.426-20.426-20.426H172.968
				c-11.28,0-20.426,9.145-20.426,20.426S161.687,435.225,172.968,435.225z"/>
		</g>
	</g>
</g>
<g>
</g>
<g>
</g>
<g>
</g>
<g>
</g>
<g>
</g>
<g>
</g>
<g>
</g>
<g>
</g>
<g>
</g>
<g>
</g>
<g>
</g>
<g>
</g>
<g>
</g>
<g>
</g>
<g>
</g>
</svg>
