<?xml version="1.0" encoding="iso-8859-1"?>
<!-- Generator: Adobe Illustrator 19.0.0, SVG Export Plug-In . SVG Version: 6.00 Build 0)  -->
<svg version="1.1" id="Layer_1" xmlns="http://www.w3.org/2000/svg" xmlns:xlink="http://www.w3.org/1999/xlink" x="0px" y="0px"
	 viewBox="0 0 512.001 512.001" style="enable-background:new 0 0 512.001 512.001;" xml:space="preserve">
<g>
	<g>
		<g>
			<path d="M505.98,75.417L436.583,6.02c-8.023-8.025-21.048-8.027-29.074,0l-67.227,67.227l-87.88,46.767
				c-1.144,0.61-2.892,1.791-4.014,2.796C3.974,340.47,73.657,276.302,6.021,343.937c-8.023,8.021-8.029,21.047,0,29.074
				l132.968,132.968c8.027,8.029,21.045,8.03,29.074,0c67.66-67.66,3.521,1.986,221.128-242.364
				c0.977-1.083,2.183-2.867,2.795-4.014l46.767-87.878l67.229-67.229C514.004,96.469,514.009,83.445,505.98,75.417z
				 M64.881,373.723l-15.249-15.249l18.826-18.826l15.249,15.249L64.881,373.723z M109.204,418.046l-15.249-15.249l18.826-18.826
				l7.625,7.625l7.625,7.625L109.204,418.046z M153.525,462.366l-15.248-15.248l18.826-18.826l15.248,15.248L153.525,462.366z
				 M200.56,413.6c-15.597-15.597-91.454-91.454-102.161-102.16L221.55,201.766l88.682,88.682L200.56,413.6z M337.623,259.692
				l-85.316-85.316l8.935-7.958l84.337,84.338L337.623,259.692z M368.736,215.764l-72.501-72.501l52.636-28.012
				c5.802,5.802,42.038,42.038,47.876,47.876L368.736,215.764z M422.045,130.277l-40.324-40.324l40.324-40.324l40.325,40.324
				L422.045,130.277z"/>
			<path d="M205.241,277.684l-6.668-6.668c-8.027-8.027-21.045-8.029-29.074,0.001c-8.029,8.029-8.029,21.045,0,29.074l6.668,6.668
				l-6.668,6.668c-8.029,8.029-8.029,21.045,0,29.074c8.027,8.029,21.045,8.029,29.074,0l6.668-6.668l6.668,6.668
				c8.027,8.029,21.045,8.03,29.074,0c8.029-8.029,8.029-21.045,0-29.074l-6.668-6.668l6.668-6.668
				c8.029-8.027,8.029-21.045,0-29.074c-8.026-8.029-21.044-8.027-29.074-0.001L205.241,277.684z"/>
		</g>
	</g>
</g>
<g>
</g>
<g>
</g>
<g>
</g>
<g>
</g>
<g>
</g>
<g>
</g>
<g>
</g>
<g>
</g>
<g>
</g>
<g>
</g>
<g>
</g>
<g>
</g>
<g>
</g>
<g>
</g>
<g>
</g>
</svg>
