<?xml version="1.0" encoding="iso-8859-1"?>
<!-- Generator: Adobe Illustrator 19.0.0, SVG Export Plug-In . SVG Version: 6.00 Build 0)  -->
<svg version="1.1" id="Layer_1" xmlns="http://www.w3.org/2000/svg" xmlns:xlink="http://www.w3.org/1999/xlink" x="0px" y="0px"
	 viewBox="0 0 511.999 511.999" style="enable-background:new 0 0 511.999 511.999;" xml:space="preserve">
<g>
	<g>
		<path d="M506.803,257.992L462.44,213.63c-41.434-79.1-39.574-76.25-42.258-78.935l-86.189-86.189c-6.93-6.93-18.167-6.93-25.098,0
			l-82.426,82.426c-3.328,3.328-5.198,7.842-5.198,12.548c0,8.636,5.083,12.434,11.216,18.567l-20.652,20.653l-6.019-6.019
			c-6.93-6.93-18.167-6.93-25.098,0c-5.99,5.99-169.884,169.884-175.521,175.522c-6.931,6.93-6.931,18.167,0,25.098l86.189,86.189
			c6.931,6.932,18.167,6.931,25.098,0c4.714-4.714,170.808-170.808,175.522-175.521c6.931-6.93,6.931-18.167,0-25.098l-6.018-6.017
			l20.653-20.653c11.765,11.765-1.688,2.894,84.952,48.277l44.363,44.362c6.932,6.931,18.167,6.931,25.098,0l45.75-45.75
			C513.728,276.166,513.734,264.92,506.803,257.992z M103.935,425.843l-61.091-61.09l14.328-14.328l61.091,61.089L103.935,425.843z
			 M143.362,386.418l-61.091-61.089l71.571-71.572l61.091,61.09L143.362,386.418z M240.031,289.748l-61.091-61.09l14.328-14.328
			l61.09,61.09L240.031,289.748z M260.89,231.754l-23.956-23.955l20.652-20.653l23.956,23.955L260.89,231.754z M264.116,143.481
			l57.328-57.328l61.091,61.091c-8.318,8.318-49.018,49.019-57.327,57.328L264.116,143.481z M398.904,248.238l-44.078-23.089
			l48.286-48.286l23.089,44.078L398.904,248.238z M448.504,291.192l-21.179-21.178l20.652-20.652l21.179,21.178L448.504,291.192z"/>
	</g>
</g>
<g>
</g>
<g>
</g>
<g>
</g>
<g>
</g>
<g>
</g>
<g>
</g>
<g>
</g>
<g>
</g>
<g>
</g>
<g>
</g>
<g>
</g>
<g>
</g>
<g>
</g>
<g>
</g>
<g>
</g>
</svg>
