<?xml version="1.0" encoding="iso-8859-1"?>
<!-- Generator: Adobe Illustrator 19.0.0, SVG Export Plug-In . SVG Version: 6.00 Build 0)  -->
<svg version="1.1" id="Layer_1" xmlns="http://www.w3.org/2000/svg" xmlns:xlink="http://www.w3.org/1999/xlink" x="0px" y="0px"
	 viewBox="0 0 512 512" style="enable-background:new 0 0 512 512;" xml:space="preserve">
<g>
	<g>
		<g>
			<path d="M256,0C114.841,0,0,114.841,0,256s114.841,256,256,256s256-114.841,256-256S397.159,0,256,0z M256,474.316
				C135.62,474.316,37.684,376.38,37.684,256S135.62,37.684,256,37.684S474.316,135.62,474.316,256S376.38,474.316,256,474.316z"/>
			<path d="M256,66.324C151.411,66.324,66.324,151.412,66.324,256S151.411,445.677,256,445.677S445.677,360.588,445.677,256
				S360.589,66.324,256,66.324z M256,407.993c-83.809,0-151.993-68.184-151.993-151.993S172.191,104.007,256,104.007
				S407.993,172.191,407.993,256S339.809,407.993,256,407.993z"/>
			<path d="M307.103,158.022c-32.208,0-58.41,26.203-58.41,58.41s26.202,58.41,58.41,58.41s58.41-26.203,58.41-58.41
				S339.311,158.022,307.103,158.022z M307.103,237.158c-11.428,0-20.726-9.298-20.726-20.726c0-11.428,9.298-20.726,20.726-20.726
				c11.428,0,20.726,9.298,20.726,20.726C327.829,227.86,318.531,237.158,307.103,237.158z"/>
			<circle cx="208.894" cy="314.107" r="39.568"/>
			<path d="M194.106,244.104c10.079-2.585,16.155-12.853,13.57-22.932l-12.565-48.989c-2.585-10.08-12.849-16.151-22.932-13.57
				c-10.079,2.585-16.155,12.853-13.57,22.932l12.565,48.989C173.759,240.611,184.021,246.688,194.106,244.104z"/>
			<path d="M342.275,311.574l-41.452-7.537c-10.235-1.863-20.049,4.929-21.908,15.168c-1.862,10.237,4.929,20.048,15.167,21.908
				l41.452,7.537c10.225,1.86,20.045-4.916,21.908-15.168C359.304,323.243,352.513,313.434,342.275,311.574z"/>
		</g>
	</g>
</g>
<g>
</g>
<g>
</g>
<g>
</g>
<g>
</g>
<g>
</g>
<g>
</g>
<g>
</g>
<g>
</g>
<g>
</g>
<g>
</g>
<g>
</g>
<g>
</g>
<g>
</g>
<g>
</g>
<g>
</g>
</svg>
