<?xml version="1.0" encoding="iso-8859-1"?>
<!-- Generator: Adobe Illustrator 19.0.0, SVG Export Plug-In . SVG Version: 6.00 Build 0)  -->
<svg version="1.1" id="Layer_1" xmlns="http://www.w3.org/2000/svg" xmlns:xlink="http://www.w3.org/1999/xlink" x="0px" y="0px"
	 viewBox="0 0 512 512" style="enable-background:new 0 0 512 512;" xml:space="preserve">
<g>
	<g>
		<g>
			<path d="M110.221,56.196C49.445,56.196,0,105.64,0,166.416v179.167c0,60.776,49.445,110.221,110.221,110.221
				c60.776,0,110.22-49.445,110.22-110.221V166.416C220.441,105.64,170.996,56.196,110.221,56.196z M183.537,345.583
				c0,40.426-32.89,73.316-73.316,73.316c-40.427,0-73.317-32.89-73.317-73.316V256h146.633V345.583z"/>
			<path d="M401.779,56.196c-60.776,0-110.221,49.445-110.221,110.221v179.167c0,60.776,49.445,110.221,110.221,110.221
				c60.776,0,110.221-49.445,110.221-110.221V166.416C512,105.64,462.555,56.196,401.779,56.196z M475.096,256H328.463v-89.583
				c0-40.428,32.889-73.317,73.316-73.317s73.317,32.89,73.317,73.317V256z"/>
		</g>
	</g>
</g>
<g>
</g>
<g>
</g>
<g>
</g>
<g>
</g>
<g>
</g>
<g>
</g>
<g>
</g>
<g>
</g>
<g>
</g>
<g>
</g>
<g>
</g>
<g>
</g>
<g>
</g>
<g>
</g>
<g>
</g>
</svg>
