<?xml version="1.0" encoding="iso-8859-1"?>
<!-- Generator: Adobe Illustrator 19.0.0, SVG Export Plug-In . SVG Version: 6.00 Build 0)  -->
<svg version="1.1" id="Layer_1" xmlns="http://www.w3.org/2000/svg" xmlns:xlink="http://www.w3.org/1999/xlink" x="0px" y="0px"
	 viewBox="0 0 511.999 511.999" style="enable-background:new 0 0 511.999 511.999;" xml:space="preserve">
<g>
	<g>
		<g>
			<path d="M35.824,169.373c-47.765,47.767-47.765,125.488,0,173.254c47.765,47.765,125.486,47.768,173.255,0
				c47.766-47.767,47.766-125.488,0-173.254C161.311,121.606,83.591,121.607,35.824,169.373z M60.855,317.596
				c-33.964-33.965-33.964-89.228,0-123.192c33.964-33.963,89.227-33.964,123.192,0L60.855,317.596z"/>
			<path d="M476.174,169.373c-47.767-47.767-125.489-47.767-173.255,0c-47.765,47.767-47.765,125.488,0,173.254
				c47.765,47.765,125.486,47.768,173.255,0C523.941,294.86,523.941,217.139,476.174,169.373z M327.95,317.595
				c-33.963-33.964-33.963-89.227,0-123.191l123.192,123.192C417.175,351.563,361.911,351.556,327.95,317.595z"/>
		</g>
	</g>
</g>
<g>
</g>
<g>
</g>
<g>
</g>
<g>
</g>
<g>
</g>
<g>
</g>
<g>
</g>
<g>
</g>
<g>
</g>
<g>
</g>
<g>
</g>
<g>
</g>
<g>
</g>
<g>
</g>
<g>
</g>
</svg>
