<?xml version="1.0" encoding="iso-8859-1"?>
<!-- Generator: Adobe Illustrator 19.0.0, SVG Export Plug-In . SVG Version: 6.00 Build 0)  -->
<svg version="1.1" id="Layer_1" xmlns="http://www.w3.org/2000/svg" xmlns:xlink="http://www.w3.org/1999/xlink" x="0px" y="0px"
	 viewBox="0 0 511.998 511.998" style="enable-background:new 0 0 511.998 511.998;" xml:space="preserve">
<g>
	<g>
		<path d="M480.968,31.035c-41.372-41.375-108.695-41.375-150.067,0l-65.106,65.104l-41.067-41.066
			c-8.854-8.854-23.211-8.854-32.066,0c-8.855,8.854-8.855,23.211,0,32.066l41.067,41.066
			c-6.731,6.731-125.396,125.394-131.867,131.867c-2.546,2.544-4.446,5.656-5.551,9.082L56.353,393.229
			c-2.535,7.867-0.943,16.493,6.455,23.89L6.641,473.287c-8.855,8.854-8.855,23.211,0,32.066c8.857,8.855,23.211,8.855,32.066,0
			l56.166-56.168c7.38,7.381,15.927,9.032,23.899,6.464l124.075-39.96c3.425-1.102,6.538-3.004,9.082-5.549l131.867-131.867
			l41.066,41.066c8.855,8.857,23.211,8.855,32.066,0c8.855-8.854,8.855-23.211,0-32.066l-41.066-41.066l65.104-65.104
			C522.342,139.729,522.342,72.408,480.968,31.035z M223.734,374.204l-105.675,34.034l-14.292-14.292l34.034-105.675l38.271-38.273
			l85.935,85.935L223.734,374.204z M294.073,303.865l-85.936-85.935l57.658-57.658l85.936,85.936L294.073,303.865z M448.902,149.038
			l-65.104,65.104l-85.936-85.936l65.104-65.104c23.693-23.693,62.243-23.693,85.936,0
			C472.594,86.795,472.594,125.344,448.902,149.038z"/>
	</g>
</g>
<g>
</g>
<g>
</g>
<g>
</g>
<g>
</g>
<g>
</g>
<g>
</g>
<g>
</g>
<g>
</g>
<g>
</g>
<g>
</g>
<g>
</g>
<g>
</g>
<g>
</g>
<g>
</g>
<g>
</g>
</svg>
