<?xml version="1.0" encoding="iso-8859-1"?>
<!-- Generator: Adobe Illustrator 19.0.0, SVG Export Plug-In . SVG Version: 6.00 Build 0)  -->
<svg version="1.1" id="Layer_1" xmlns="http://www.w3.org/2000/svg" xmlns:xlink="http://www.w3.org/1999/xlink" x="0px" y="0px"
	 viewBox="0 0 512 512" style="enable-background:new 0 0 512 512;" xml:space="preserve">
<g>
	<g>
		<g>
			<path d="M282.505,166.246h-7.773v-7.773c0-10.345-8.387-18.732-18.732-18.732s-18.732,8.387-18.732,18.732v7.773h-7.773
				c-10.345,0-18.732,8.387-18.732,18.732s8.387,18.732,18.732,18.732h7.773v7.773c0,10.345,8.387,18.732,18.732,18.732
				s18.732-8.387,18.732-18.732v-7.773h7.773c10.345,0,18.732-8.387,18.732-18.732S292.85,166.246,282.505,166.246z"/>
			<path d="M256,71.689c-62.468,0-113.288,50.821-113.288,113.288S193.533,298.265,256,298.265s113.288-50.821,113.288-113.288
				S318.467,71.689,256,71.689z M256,260.802c-41.81,0-75.824-34.015-75.824-75.824s34.015-75.824,75.824-75.824
				s75.824,34.015,75.824,75.824S297.81,260.802,256,260.802z"/>
			<path d="M256,0C154.003,0,71.023,82.981,71.023,184.977c0,41.683,28.946,108.504,86.032,198.604
				c41.534,65.553,83.668,120.553,84.089,121.102c7.494,9.757,22.221,9.756,29.714,0c0.421-0.548,42.556-55.549,84.089-121.102
				c57.086-90.1,86.032-156.919,86.032-198.604C440.978,82.981,357.997,0,256,0z M256,462.053
				C204.24,391.64,108.487,248.3,108.487,184.977c0-81.339,66.174-147.514,147.514-147.514s147.514,66.175,147.514,147.514
				C403.514,248.3,307.76,391.64,256,462.053z"/>
		</g>
	</g>
</g>
<g>
</g>
<g>
</g>
<g>
</g>
<g>
</g>
<g>
</g>
<g>
</g>
<g>
</g>
<g>
</g>
<g>
</g>
<g>
</g>
<g>
</g>
<g>
</g>
<g>
</g>
<g>
</g>
<g>
</g>
</svg>
