<?xml version="1.0" encoding="iso-8859-1"?>
<!-- Generator: Adobe Illustrator 19.0.0, SVG Export Plug-In . SVG Version: 6.00 Build 0)  -->
<svg version="1.1" id="Layer_1" xmlns="http://www.w3.org/2000/svg" xmlns:xlink="http://www.w3.org/1999/xlink" x="0px" y="0px"
	 viewBox="0 0 512 512" style="enable-background:new 0 0 512 512;" xml:space="preserve">
<g>
	<g>
		<g>
			<path d="M495.298,106.886l-90.185-90.185c-22.265-22.267-58.308-22.27-80.577,0C309.107,32.13,26.858,314.381,16.701,324.536
				c-22.265,22.265-22.271,58.308,0,80.577l90.185,90.185c22.265,22.267,58.308,22.271,80.577,0
				c10.273-10.273,267.863-267.861,307.836-307.836C517.565,165.198,517.569,129.153,495.298,106.886z M158.126,465.963
				c-6.051,6.053-15.852,6.054-21.905,0l-90.186-90.185c-6.054-6.051-6.054-15.852,0-21.906l88.633-88.633l112.092,112.092
				L158.126,465.963z M276.095,347.995L164.005,235.903l71.9-71.9l112.092,112.092L276.095,347.995z M465.963,158.127L377.33,246.76
				L265.239,134.668l88.633-88.633c6.053-6.053,15.853-6.054,21.907,0l90.185,90.186
				C472.018,142.274,472.018,152.073,465.963,158.127z"/>
			<circle cx="368.56" cy="99.026" r="16.908"/>
			<circle cx="412.964" cy="143.43" r="16.908"/>
			<circle cx="324.157" cy="143.444" r="16.908"/>
			<circle cx="368.56" cy="187.847" r="16.908"/>
			<circle cx="143.431" cy="412.963" r="16.908"/>
			<circle cx="99.027" cy="368.56" r="16.908"/>
			<circle cx="187.848" cy="368.56" r="16.908"/>
			<circle cx="143.444" cy="324.156" r="16.908"/>
		</g>
	</g>
</g>
<g>
</g>
<g>
</g>
<g>
</g>
<g>
</g>
<g>
</g>
<g>
</g>
<g>
</g>
<g>
</g>
<g>
</g>
<g>
</g>
<g>
</g>
<g>
</g>
<g>
</g>
<g>
</g>
<g>
</g>
</svg>
