<?xml version="1.0" encoding="iso-8859-1"?>
<!-- Generator: Adobe Illustrator 19.0.0, SVG Export Plug-In . SVG Version: 6.00 Build 0)  -->
<svg version="1.1" id="Layer_1" xmlns="http://www.w3.org/2000/svg" xmlns:xlink="http://www.w3.org/1999/xlink" x="0px" y="0px"
	 viewBox="0 0 512 512" style="enable-background:new 0 0 512 512;" xml:space="preserve">
<g>
	<g>
		<path d="M256,0C114.841,0,0,114.841,0,256s114.841,256,256,256s256-114.841,256-256S397.159,0,256,0z M375.151,73.158
			l-84.292,129.346c-20.418-13.351-46.36-13.773-67.047-1.653L139.488,71.456C210.803,26.269,303.002,25.98,375.151,73.158z
			 M157.211,450.655C82.685,412.676,33.158,333.43,38.017,244.024l154.208,8.329c-0.069,1.208-0.112,2.422-0.112,3.648
			c0,24.829,14.246,46.378,34.984,56.947L157.211,450.655z M256,282.202c-14.448,0-26.202-11.754-26.202-26.202
			c0-14.448,11.754-26.202,26.202-26.202s26.202,11.754,26.202,26.202C282.202,270.448,270.448,282.202,256,282.202z
			 M354.788,450.652l-69.887-137.707c20.739-10.569,34.984-32.118,34.984-56.947c0-1.156-0.035-2.305-0.096-3.446l154.206-8.328
			C478.719,332.64,430.097,412.277,354.788,450.652z"/>
	</g>
</g>
<g>
</g>
<g>
</g>
<g>
</g>
<g>
</g>
<g>
</g>
<g>
</g>
<g>
</g>
<g>
</g>
<g>
</g>
<g>
</g>
<g>
</g>
<g>
</g>
<g>
</g>
<g>
</g>
<g>
</g>
</svg>
