<?xml version="1.0" encoding="iso-8859-1"?>
<!-- Generator: Adobe Illustrator 19.0.0, SVG Export Plug-In . SVG Version: 6.00 Build 0)  -->
<svg version="1.1" id="Layer_1" xmlns="http://www.w3.org/2000/svg" xmlns:xlink="http://www.w3.org/1999/xlink" x="0px" y="0px"
	 viewBox="0 0 512 512" style="enable-background:new 0 0 512 512;" xml:space="preserve">
<g>
	<g>
		<path d="M505.819,119.116c-8.237-8.241-21.596-8.238-29.837,0l-37.677,37.676l-26.616-26.616l37.677-37.677
			c8.24-8.24,8.24-21.599,0-29.837c-8.238-8.238-21.597-8.238-29.837,0l-37.677,37.677l-26.616-26.616l37.676-37.677
			c8.24-8.24,8.24-21.597,0-29.837c-8.238-8.24-21.597-8.24-29.837,0L310.48,58.805c-8.24,8.238-8.24,21.597,0,29.837l41.535,41.535
			L187.041,295.152c-23.758-11.407-53.163-7.293-72.829,12.373c-10.273,10.273-16.296,23.208-18.09,36.605
			c-25.326-3.526-51.958,4.419-71.39,23.851c-32.974,32.971-32.978,86.342,0,119.317c32.893,32.895,86.421,32.898,119.317,0
			c19.433-19.433,27.378-46.064,23.851-71.39c13.397-1.793,26.33-7.816,36.604-18.089h0.001
			c19.666-19.666,23.78-49.071,12.373-72.829l164.976-164.976l41.535,41.535c8.237,8.238,21.596,8.24,29.837,0l52.595-52.595
			C514.06,140.714,514.06,127.356,505.819,119.116z M114.21,457.461c-16.444,16.444-43.199,16.441-59.643,0
			c-16.482-16.48-16.485-43.16,0-59.643c16.441-16.441,43.199-16.445,59.643,0C130.654,414.262,130.654,441.016,114.21,457.461z
			 M174.666,367.981c-8.463,8.462-22.156,8.463-30.619,0c-8.442-8.442-8.442-22.177,0-30.619c8.441-8.439,22.175-8.442,30.619,0
			C183.107,345.804,183.107,359.539,174.666,367.981z"/>
	</g>
</g>
<g>
</g>
<g>
</g>
<g>
</g>
<g>
</g>
<g>
</g>
<g>
</g>
<g>
</g>
<g>
</g>
<g>
</g>
<g>
</g>
<g>
</g>
<g>
</g>
<g>
</g>
<g>
</g>
<g>
</g>
</svg>
