<?xml version="1.0" encoding="iso-8859-1"?>
<!-- Generator: Adobe Illustrator 19.0.0, SVG Export Plug-In . SVG Version: 6.00 Build 0)  -->
<svg version="1.1" id="Layer_1" xmlns="http://www.w3.org/2000/svg" xmlns:xlink="http://www.w3.org/1999/xlink" x="0px" y="0px"
	 viewBox="0 0 512.001 512.001" style="enable-background:new 0 0 512.001 512.001;" xml:space="preserve">
<g>
	<g>
		<path d="M506.448,357.147L383.105,233.803l78.974-78.979c7.369-7.371,7.369-19.32-0.001-26.689L361.665,27.724
			c-3.409-3.409-8.312-5.549-13.395-5.526H163.738c-4.857-0.016-9.822,1.941-13.402,5.526L49.923,128.136
			c-7.371,7.371-7.371,19.32,0,26.69l78.979,78.979L5.553,357.147c-12.26,12.256-2.802,33.286,14.554,32.18l85.882-5.515
			l-5.515,85.882c-1.121,17.461,20.004,26.729,32.179,14.555l123.353-123.34l123.34,123.34c12.236,12.238,33.297,2.852,32.18-14.554
			l-5.515-85.882l85.882,5.515C509.258,390.417,518.704,369.403,506.448,357.147z M302.755,59.944l-46.753,46.754l-46.754-46.754
			H302.755z M89.959,141.48L163.68,67.76l65.637,65.637l-73.723,73.719L89.959,141.48z M141.349,422.176l3.683-57.364
			c0.728-11.331-8.669-20.769-20.042-20.043l-57.358,3.683c130.455-130.443,73.853-73.843,280.69-280.692l73.721,73.722
			C322.598,240.94,390.81,172.728,141.349,422.176z M387.012,344.769c-11.325-0.731-20.774,8.672-20.043,20.043l3.683,57.36
			l-87.953-87.953l73.721-73.722l87.953,87.953L387.012,344.769z"/>
	</g>
</g>
<g>
</g>
<g>
</g>
<g>
</g>
<g>
</g>
<g>
</g>
<g>
</g>
<g>
</g>
<g>
</g>
<g>
</g>
<g>
</g>
<g>
</g>
<g>
</g>
<g>
</g>
<g>
</g>
<g>
</g>
</svg>
