<?xml version="1.0" encoding="iso-8859-1"?>
<!-- Generator: Adobe Illustrator 19.0.0, SVG Export Plug-In . SVG Version: 6.00 Build 0)  -->
<svg version="1.1" id="Layer_1" xmlns="http://www.w3.org/2000/svg" xmlns:xlink="http://www.w3.org/1999/xlink" x="0px" y="0px"
	 viewBox="0 0 511.999 511.999" style="enable-background:new 0 0 511.999 511.999;" xml:space="preserve">
<g>
	<g>
		<path d="M418.219,10.427c-7.074,0-315.924,0-324.449,0c-51.702,0-93.765,42.063-93.765,93.765C0.006,128.531,0,467.755,0,480.828
			c0,11.456,9.288,20.744,20.744,20.744s20.744-9.288,20.744-20.744v-49.09h115.347v49.09c0,11.456,9.288,20.744,20.744,20.744
			s20.744-9.288,20.744-20.744v-49.09h115.346v49.09c0,11.456,9.288,20.744,20.744,20.744c11.456,0,20.744-9.288,20.744-20.744
			v-49.09h115.346v49.09c0,11.456,9.288,20.744,20.744,20.744s20.744-9.288,20.744-20.744c0-51.799,0.008,4.716,0.008-376.636
			C512,52.49,469.93,10.427,418.219,10.427z M198.319,51.914H313.67v85.345H198.319V51.914z M41.493,104.192
			c0-28.826,23.452-52.277,52.277-52.277h63.062v85.345H41.493V104.192z M156.831,390.25H41.493v-67.324h115.338V390.25z
			 M313.67,390.249H198.319v-67.322H313.67V390.249z M470.511,390.25H355.158v-67.324h115.353V390.25z M470.512,281.439
			c-9.32,0-419.468,0-429.019,0V178.747c9.317,0,419.463,0,429.019,0V281.439z M470.512,137.259H355.159V51.914h63.062
			c28.833,0,52.291,23.452,52.291,52.277V137.259z"/>
	</g>
</g>
<g>
</g>
<g>
</g>
<g>
</g>
<g>
</g>
<g>
</g>
<g>
</g>
<g>
</g>
<g>
</g>
<g>
</g>
<g>
</g>
<g>
</g>
<g>
</g>
<g>
</g>
<g>
</g>
<g>
</g>
</svg>
