<?xml version="1.0" encoding="iso-8859-1"?>
<!-- Generator: Adobe Illustrator 19.0.0, SVG Export Plug-In . SVG Version: 6.00 Build 0)  -->
<svg version="1.1" id="Layer_1" xmlns="http://www.w3.org/2000/svg" xmlns:xlink="http://www.w3.org/1999/xlink" x="0px" y="0px"
	 viewBox="0 0 512 512" style="enable-background:new 0 0 512 512;" xml:space="preserve">
<g>
	<g>
		<path d="M469.421,6.363c-8.482-8.484-22.237-8.484-30.721,0C426.698,18.365,50.142,394.92,31.925,413.138
			c-22.586,22.586-22.586,59.337,0,81.922c22.585,22.586,59.336,22.588,81.922,0l232.85-232.848c8.478-8.476,8.484-22.239,0-30.721
			l-35.841-35.841l19.063-19.063l35.841,35.841c8.478,8.479,22.24,8.482,30.721,0l72.941-72.941
			C506.209,102.7,506.214,43.154,469.421,6.363z M83.126,464.339c-5.648,5.645-14.834,5.645-20.482,0
			c-5.646-5.647-5.646-14.834,0-20.482L231.61,274.893l20.48,20.48L83.126,464.339z M282.813,264.654l-20.48-20.48l17.803-17.803
			l20.482,20.48L282.813,264.654z M438.701,108.765l-57.582,57.582l-20.482-20.48l89.985-89.985
			C456.838,73.335,453.306,94.16,438.701,108.765z"/>
	</g>
</g>
<g>
</g>
<g>
</g>
<g>
</g>
<g>
</g>
<g>
</g>
<g>
</g>
<g>
</g>
<g>
</g>
<g>
</g>
<g>
</g>
<g>
</g>
<g>
</g>
<g>
</g>
<g>
</g>
<g>
</g>
</svg>
