<?xml version="1.0" encoding="iso-8859-1"?>
<!-- Generator: Adobe Illustrator 19.0.0, SVG Export Plug-In . SVG Version: 6.00 Build 0)  -->
<svg version="1.1" id="Layer_1" xmlns="http://www.w3.org/2000/svg" xmlns:xlink="http://www.w3.org/1999/xlink" x="0px" y="0px"
	 viewBox="0 0 512 512" style="enable-background:new 0 0 512 512;" xml:space="preserve">
<g>
	<g>
		<g>
			<path d="M487.852,339.554c-27.121-35.332-72.232-49.766-113.938-37.944c-5.911-7.698-14.586-18.998-25.264-32.906l66.005-85.973
				c0.001,0,0.001,0,0.001-0.001c42.966-55.967,32.339-135.831-23.461-178.673c-8.606-6.608-20.922-4.96-27.504,3.614
				L255.974,147.984L148.242,7.669c-6.592-8.586-18.913-10.212-27.503-3.613c-55.744,42.799-66.477,122.642-23.46,178.673
				l66.006,85.975l-25.31,32.965C96.034,290.104,51.377,304,24.083,339.551C-11.901,386.419-3.055,453.819,43.806,489.8
				c47.099,36.159,114.271,27.146,150.256-19.743c0.012-0.014,0.021-0.029,0.033-0.044l61.877-80.586l61.292,79.834
				c0.089,0.115,0.191,0.212,0.281,0.326c35.93,47.335,103.541,56.331,150.572,20.213
				C515.085,453.738,523.923,386.531,487.852,339.554z M381.539,48.844c25.298,30.418,28.004,76.122,1.998,109.997l-59.617,77.652
				c-12.933-16.847-30.381-39.574-43.219-56.298L381.539,48.844z M162.969,446.135c-0.007,0.009-0.013,0.018-0.02,0.027
				c-0.001,0.003-0.004,0.005-0.005,0.008c-22.852,29.78-65.453,35.386-95.249,12.513c-29.701-22.806-35.307-65.53-12.495-95.241
				c23.116-30.113,64.527-34.257,93.181-14.078C182.413,375.382,184.565,417.995,162.969,446.135z M213.426,380.419
				c-5.601-23.957-19.284-45.914-39.514-61.14l14.102-18.365c15.703,20.449,5.463,7.114,43.228,56.303L213.426,380.419z
				 M298.544,380.458c-91.901-119.703-97.85-127.451-90.71-118.15c-12.286-16.003-36.12-47.048-79.436-103.467
				c-25.899-33.732-23.417-79.444,1.998-109.997C334.985,315.314,203.1,143.545,338.06,319.331
				C317.509,334.909,303.837,357.391,298.544,380.458z M219.351,277.31C219.383,277.351,219.382,277.35,219.351,277.31
				L219.351,277.31z M219.329,277.281c-0.028-0.037-0.073-0.095-0.128-0.167C219.259,277.189,219.3,277.243,219.329,277.281z
				 M219.113,276.999c-0.009-0.012-0.017-0.022-0.027-0.035C219.095,276.976,219.104,276.988,219.113,276.999z M216.086,273.057
				c-0.078-0.101-0.164-0.214-0.245-0.319C215.924,272.846,216.005,272.951,216.086,273.057z M209.612,264.624
				c-0.471-0.614-0.96-1.25-1.472-1.917C208.592,263.295,209.088,263.941,209.612,264.624z M470.204,413.654
				c-3.979,30.296-26.011,45.031-25.978,45.031c-17.978,13.807-41.574,17.707-63.119,10.439
				c-49.245-16.61-62.324-80.756-23.176-115.229C407.397,311.567,478.111,353.443,470.204,413.654z"/>
			<path d="M367.776,359.057c-31.646,24.259-30.516,74.32,6.328,95.582c44.631,25.753,97.633-15.182,84.353-64.69
				C447.713,349.895,400.085,334.292,367.776,359.057z M393.712,420.66c-12.422-7.166-11.623-23.147-2.069-30.468
				c9.428-7.23,25.152-4.144,28.922,9.921C424.823,415.968,408.028,428.922,393.712,420.66z"/>
			<path d="M101.568,347.664c-50.128,6.587-68.715,71.291-27.599,102.857c40.637,31.193,98.924-2.414,92.247-53.229
				C162.071,365.71,133.209,343.504,101.568,347.664z M97.858,419.402c-13.793-10.59-6.308-33.003,11.27-33.003
				c10.864,0,18.192,9.584,18.192,16.003C129.439,418.519,110.756,429.304,97.858,419.402z"/>
		</g>
	</g>
</g>
<g>
</g>
<g>
</g>
<g>
</g>
<g>
</g>
<g>
</g>
<g>
</g>
<g>
</g>
<g>
</g>
<g>
</g>
<g>
</g>
<g>
</g>
<g>
</g>
<g>
</g>
<g>
</g>
<g>
</g>
</svg>
