<?xml version="1.0" encoding="iso-8859-1"?>
<!-- Generator: Adobe Illustrator 19.0.0, SVG Export Plug-In . SVG Version: 6.00 Build 0)  -->
<svg version="1.1" id="Layer_1" xmlns="http://www.w3.org/2000/svg" xmlns:xlink="http://www.w3.org/1999/xlink" x="0px" y="0px"
	 viewBox="0 0 512 512" style="enable-background:new 0 0 512 512;" xml:space="preserve">
<g>
	<g>
		<g>
			<path d="M325.447,235.574h-49.021v-49.021c0-11.28-9.145-20.426-20.426-20.426c-11.28,0-20.426,9.145-20.426,20.426v49.021
				h-49.021c-11.28,0-20.426,9.145-20.426,20.426c0,11.28,9.145,20.426,20.426,20.426h49.021v49.021
				c0,11.28,9.145,20.425,20.426,20.425c11.28,0,20.426-9.145,20.426-20.425v-49.021h49.021c11.28,0,20.425-9.145,20.425-20.426
				C345.872,244.72,336.727,235.574,325.447,235.574z"/>
			<path d="M401.702,0H110.298C87.773,0,69.447,18.326,69.447,40.851c0,18.766,0,411.464,0,430.298
				c0,22.525,18.326,40.851,40.851,40.851h291.404c22.525,0,40.851-18.326,40.851-40.851c0-18.787,0-411.497,0-430.298
				C442.553,18.326,424.227,0,401.702,0z M110.298,40.851h291.404l0.004,63.122H110.298V40.851z M110.298,144.824h291.404v222.351
				H110.298V144.824z M401.702,471.149H110.298v-63.122h291.426l0.004,63.12C401.728,471.148,401.72,471.149,401.702,471.149z"/>
			<path d="M278.468,49.93h-44.936c-11.28,0-20.426,9.145-20.426,20.426c0,11.28,9.145,20.425,20.426,20.425h44.936
				c11.28,0,20.426-9.145,20.426-20.425C298.894,59.075,289.748,49.93,278.468,49.93z"/>
			<circle cx="256" cy="439.149" r="21.185"/>
			<circle cx="165.365" cy="439.149" r="12.782"/>
			<circle cx="346.635" cy="439.149" r="12.782"/>
		</g>
	</g>
</g>
<g>
</g>
<g>
</g>
<g>
</g>
<g>
</g>
<g>
</g>
<g>
</g>
<g>
</g>
<g>
</g>
<g>
</g>
<g>
</g>
<g>
</g>
<g>
</g>
<g>
</g>
<g>
</g>
<g>
</g>
</svg>
