<?xml version="1.0" encoding="iso-8859-1"?>
<!-- Generator: Adobe Illustrator 19.0.0, SVG Export Plug-In . SVG Version: 6.00 Build 0)  -->
<svg version="1.1" id="Layer_1" xmlns="http://www.w3.org/2000/svg" xmlns:xlink="http://www.w3.org/1999/xlink" x="0px" y="0px"
	 viewBox="0 0 512 512" style="enable-background:new 0 0 512 512;" xml:space="preserve">
<g>
	<g>
		<g>
			<path d="M94.567,84.369c-10.085,0-18.262,8.176-18.262,18.262v23.854c0,10.085,8.176,18.262,18.262,18.262
				s18.262-8.176,18.262-18.262v-23.854C112.829,92.545,104.652,84.369,94.567,84.369z"/>
			<path d="M493.738,281.964H352.357c-10.085,0-18.262,8.176-18.262,18.262v42.65h-18.483c-6.713,0-12.175-5.461-12.175-12.175
				v-73.154c24.448-0.614,44.15-20.677,44.15-45.27V113.74c0-24.593-19.702-44.656-44.15-45.27V50.179
				c0-10.085-8.176-18.262-18.262-18.262s-18.262,8.176-18.262,18.262V68.47c-24.448,0.614-44.15,20.677-44.15,45.27v98.536
				c0,24.594,19.702,44.656,44.15,45.27V330.7c0,26.852,21.846,48.698,48.698,48.698h18.483v64.161H155.44
				c-23.496,0-42.611-19.115-42.611-42.611V219.265c43.433-8.534,76.305-46.883,76.305-92.781c0-52.145-42.422-94.567-94.567-94.567
				C42.422,31.917,0,74.34,0,126.484c0,45.898,32.871,84.247,76.305,92.781v181.683c0,43.635,35.5,79.134,79.134,79.134
				c13.402,0,322.418,0,338.299,0c10.085,0,18.262-8.176,18.262-18.262V300.226C512,290.139,503.824,281.964,493.738,281.964z
				 M268.063,221.051c-4.839,0-8.775-3.937-8.775-8.775V113.74c0-4.839,3.936-8.775,8.775-8.775h34.225
				c4.839,0,8.775,3.936,8.775,8.775v98.536c0,4.839-3.936,8.775-8.775,8.775H268.063z M94.567,184.528
				c-32.004,0-58.043-26.038-58.043-58.043c0-32.006,26.039-58.043,58.043-58.043s58.043,26.038,58.043,58.043
				C152.61,158.49,126.573,184.528,94.567,184.528z M389.96,443.56h-19.342V318.488h19.342V443.56z M475.476,443.559h-48.993
				V318.488h48.993V443.559z"/>
		</g>
	</g>
</g>
<g>
</g>
<g>
</g>
<g>
</g>
<g>
</g>
<g>
</g>
<g>
</g>
<g>
</g>
<g>
</g>
<g>
</g>
<g>
</g>
<g>
</g>
<g>
</g>
<g>
</g>
<g>
</g>
<g>
</g>
</svg>
