<?xml version="1.0" encoding="iso-8859-1"?>
<!-- Generator: Adobe Illustrator 19.0.0, SVG Export Plug-In . SVG Version: 6.00 Build 0)  -->
<svg version="1.1" id="Layer_1" xmlns="http://www.w3.org/2000/svg" xmlns:xlink="http://www.w3.org/1999/xlink" x="0px" y="0px"
	 viewBox="0 0 512 512" style="enable-background:new 0 0 512 512;" xml:space="preserve">
<g>
	<g>
		<g>
			<path d="M436.203,169.117c-34.893,0-64.337,23.707-73.116,55.855c-38.588,0-62.516,28.893-62.516,59.839v131.647
				c0,10.998-8.948,19.946-19.946,19.946H156.021c-10.998,0-19.946-8.948-19.946-19.946V274.219
				c54.407-9.37,96.195-56.748,96.195-114.397c0-35.809-0.005-44.728-0.005-104.174c0-11.016-8.931-19.946-19.946-19.946h-40.779
				c-11.016,0-19.946,8.931-19.946,19.946c0,11.016,8.931,19.946,19.946,19.946h20.832v18.617h-46.536
				c-11.016,0-19.946,8.931-19.946,19.946v45.664c0,5.375-4.379,9.747-9.76,9.747c-5.375,0-9.747-4.374-9.747-9.747v-45.664
				c0-11.016-8.931-19.946-19.946-19.946H39.893V75.595h20.832c11.016,0,19.946-8.931,19.946-19.946
				c0-11.016-8.931-19.946-19.946-19.946H19.946C8.931,35.702,0,44.633,0,55.649c0,10.399,0,93.756,0,104.174
				c0,57.234,41.619,104.924,96.182,114.409v142.227c0,32.995,26.844,59.839,59.839,59.839h124.604
				c32.995,0,59.839-26.845,59.839-59.839V284.812c0-10.998,8.947-19.946,19.946-19.946h2.68
				c8.782,32.142,38.224,55.845,73.113,55.845c41.794,0,75.797-34.002,75.797-75.796S477.998,169.117,436.203,169.117z
				 M39.893,159.821v-25.718h26.595v25.718c0,27.372,22.268,49.64,49.64,49.64c27.378,0,49.653-22.27,49.653-49.64v-25.718h26.595
				v25.718c0,20.363-7.932,39.51-22.331,53.907C122.361,261.378,39.893,227.8,39.893,159.821z M436.203,280.817
				c-19.797,0-35.904-16.106-35.904-35.904s16.106-35.904,35.904-35.904c19.798,0,35.904,16.106,35.904,35.904
				C472.107,264.71,456.001,280.817,436.203,280.817z"/>
			<circle cx="436.202" cy="244.915" r="16.637"/>
		</g>
	</g>
</g>
<g>
</g>
<g>
</g>
<g>
</g>
<g>
</g>
<g>
</g>
<g>
</g>
<g>
</g>
<g>
</g>
<g>
</g>
<g>
</g>
<g>
</g>
<g>
</g>
<g>
</g>
<g>
</g>
<g>
</g>
</svg>
