<?xml version="1.0" encoding="iso-8859-1"?>
<!-- Generator: Adobe Illustrator 19.0.0, SVG Export Plug-In . SVG Version: 6.00 Build 0)  -->
<svg version="1.1" id="Layer_1" xmlns="http://www.w3.org/2000/svg" xmlns:xlink="http://www.w3.org/1999/xlink" x="0px" y="0px"
	 viewBox="0 0 511.999 511.999" style="enable-background:new 0 0 511.999 511.999;" xml:space="preserve">
<g>
	<g>
		<path d="M493.63,141.402H387.021V79.727c0-10.145-8.225-18.37-18.37-18.37H143.349c-10.145,0-18.37,8.225-18.37,18.37v61.675
			H18.37c-10.145,0-18.37,8.225-18.37,18.37v85.76c0,10.145,8.225,18.37,18.37,18.37h67.306v87.923
			c-19.137,7.396-32.753,25.98-32.753,47.695c0,28.19,22.933,51.122,51.123,51.122s51.123-22.933,51.123-51.122
			c0-21.715-13.616-40.299-32.753-47.695v-17.782h267.167v17.782c-19.137,7.396-32.753,25.98-32.753,47.695
			c0,28.19,22.934,51.122,51.123,51.122c28.19,0,51.123-22.933,51.123-51.122c0-21.715-13.615-40.299-32.753-47.695v-87.923h67.306
			c10.145,0,18.37-8.225,18.37-18.37v-85.76C512,149.627,503.775,141.402,493.63,141.402z M161.719,98.097h188.562v43.304H161.719
			V98.097z M161.719,178.142h188.562v49.02H161.719V178.142z M104.046,413.903c-7.931,0-14.383-6.452-14.383-14.381
			c0-7.931,6.452-14.383,14.383-14.383s14.383,6.453,14.383,14.383C118.43,407.452,111.977,413.903,104.046,413.903z M36.74,227.162
			v-49.02h88.239v49.02H36.74z M122.416,297.304v-33.401c5.139,0,240.842,0,267.167,0v33.401H122.416z M407.954,413.903
			c-7.931,0-14.383-6.452-14.383-14.381c0-7.931,6.453-14.383,14.383-14.383c7.931,0,14.383,6.453,14.383,14.383
			C422.336,407.452,415.884,413.903,407.954,413.903z M387.021,227.163v-49.02h88.239v49.02H387.021z"/>
	</g>
</g>
<g>
</g>
<g>
</g>
<g>
</g>
<g>
</g>
<g>
</g>
<g>
</g>
<g>
</g>
<g>
</g>
<g>
</g>
<g>
</g>
<g>
</g>
<g>
</g>
<g>
</g>
<g>
</g>
<g>
</g>
</svg>
