<?xml version="1.0" encoding="iso-8859-1"?>
<!-- Generator: Adobe Illustrator 19.0.0, SVG Export Plug-In . SVG Version: 6.00 Build 0)  -->
<svg version="1.1" id="Layer_1" xmlns="http://www.w3.org/2000/svg" xmlns:xlink="http://www.w3.org/1999/xlink" x="0px" y="0px"
	 viewBox="0 0 511.999 511.999" style="enable-background:new 0 0 511.999 511.999;" xml:space="preserve">
<g>
	<g>
		<path d="M505.673,107.124C495.069,96.52,416.24,17.691,404.873,6.326c-8.434-8.434-22.108-8.434-30.542,0
			c-8.434,8.434-8.434,22.109,0,30.542l12.248,12.248l-58.897,58.897c-24.93-24.93-30.011-30.011-51.072-51.072
			c-8.433-8.434-22.108-8.434-30.542,0c-8.434,8.434-8.434,22.108,0,30.542l23.552,23.552L71.077,309.58
			c-8.434,8.434-8.434,22.108,0,30.542l35.128,35.129l-99.878,99.88c-8.434,8.434-8.434,22.108,0,30.542
			c8.433,8.434,22.108,8.436,30.542,0l99.88-99.88l35.128,35.129c8.428,8.43,22.111,8.433,30.542,0l198.546-198.546l23.552,23.552
			c8.433,8.434,22.108,8.436,30.542,0c8.434-8.434,8.434-22.108,0-30.542c-21.054-21.054-26.152-26.152-51.072-51.072l58.897-58.898
			l12.248,12.248c8.433,8.434,22.108,8.436,30.542,0C514.107,129.232,514.107,115.558,505.673,107.124z M187.147,395.109
			l-70.256-70.257l95.202-95.202c17.562,17.562,17.765,17.043,17.765,19.854c0,0.953-0.256,2.344-1.477,3.566
			c-18.805,18.806-18.805,49.406,0.001,68.214l16.295,16.295L187.147,395.109z M275.219,307.038l-16.294-16.295
			c-1.965-1.967-1.965-5.166-0.001-7.131c18.808-18.806,18.808-49.407,0-68.213l-16.288-16.29l57.53-57.53
			c6.873,6.873,63.253,63.254,70.258,70.257L275.219,307.038z M373.445,153.774c-9.34-9.338-5.886-5.886-15.22-15.22l58.897-58.897
			c9.073,9.072,9.495,9.494,15.22,15.218L373.445,153.774z"/>
	</g>
</g>
<g>
</g>
<g>
</g>
<g>
</g>
<g>
</g>
<g>
</g>
<g>
</g>
<g>
</g>
<g>
</g>
<g>
</g>
<g>
</g>
<g>
</g>
<g>
</g>
<g>
</g>
<g>
</g>
<g>
</g>
</svg>
