<?xml version="1.0" encoding="iso-8859-1"?>
<!-- Generator: Adobe Illustrator 19.0.0, SVG Export Plug-In . SVG Version: 6.00 Build 0)  -->
<svg version="1.1" id="Layer_1" xmlns="http://www.w3.org/2000/svg" xmlns:xlink="http://www.w3.org/1999/xlink" x="0px" y="0px"
	 viewBox="0 0 512 512" style="enable-background:new 0 0 512 512;" xml:space="preserve">
<g>
	<g>
		<path d="M493.186,109.798c25.086-25.084,25.086-65.9,0-90.984c-25.084-25.084-65.9-25.084-90.984,0
			c-19.394,19.392-23.779,48.185-13.186,71.845l-17.983,17.983c-7.5-7.5-70.639-70.639-78.271-78.271
			c-8.925-8.927-23.399-8.927-32.325,0c-8.927,8.925-8.927,23.399,0,32.325l24.927,24.927L75.227,297.763
			c-8.927,8.925-8.927,23.399,0,32.325l37.18,37.18L6.695,472.979c-8.927,8.925-8.927,23.399,0,32.325
			c8.928,8.927,23.399,8.927,32.325,0l105.712-105.712l37.18,37.18c8.928,8.928,23.399,8.927,32.325,0l210.139-210.139
			l24.927,24.927c8.927,8.928,23.399,8.927,32.325,0c8.927-8.925,8.927-23.399,0-32.325c-7.63-7.63-70.767-70.767-78.271-78.271
			l17.983-17.981C445.247,133.685,473.952,129.031,493.186,109.798z M434.527,51.139c7.264-7.261,19.071-7.26,26.333,0
			c7.261,7.261,7.261,19.074,0,26.333c-7.263,7.26-19.072,7.26-26.333,0C427.266,70.213,427.266,58.4,434.527,51.139z
			 M198.074,388.286c-2.772-2.772-39.768-39.768-74.36-74.36l30.183-30.183l19.395,19.395c8.924,8.925,23.397,8.928,32.325,0
			c8.927-8.927,8.927-23.399,0-32.325l-19.395-19.395l18.318-18.318l19.397,19.397c8.927,8.927,23.399,8.927,32.325,0
			c8.927-8.925,8.927-23.399,0-32.325l-19.397-19.397l18.318-18.318l74.36,74.359L198.074,388.286z M361.869,224.491l-74.36-74.359
			l30.183-30.183c3.994,3.994,52.661,52.661,74.36,74.36L361.869,224.491z"/>
	</g>
</g>
<g>
</g>
<g>
</g>
<g>
</g>
<g>
</g>
<g>
</g>
<g>
</g>
<g>
</g>
<g>
</g>
<g>
</g>
<g>
</g>
<g>
</g>
<g>
</g>
<g>
</g>
<g>
</g>
<g>
</g>
</svg>
