<?xml version="1.0" encoding="iso-8859-1"?>
<!-- Generator: Adobe Illustrator 19.0.0, SVG Export Plug-In . SVG Version: 6.00 Build 0)  -->
<svg version="1.1" id="Layer_1" xmlns="http://www.w3.org/2000/svg" xmlns:xlink="http://www.w3.org/1999/xlink" x="0px" y="0px"
	 viewBox="0 0 512 512" style="enable-background:new 0 0 512 512;" xml:space="preserve">
<g>
	<g>
		<g>
			<path d="M458.032,55.212H53.968C24.21,55.212,0,79.422,0,109.18c0,4.199,0,289.441,0,293.64c0,29.758,24.21,53.968,53.968,53.968
				h404.063c29.758,0,53.968-24.21,53.968-53.968c0-4.199,0-289.441,0-293.64C512,79.422,487.79,55.212,458.032,55.212z
				 M471.524,402.819c0,7.44-6.053,13.492-13.492,13.492H53.968c-7.44,0-13.492-6.053-13.492-13.492V276.237h431.048V402.819z
				 M471.524,235.761H40.476V109.18c0-7.44,6.052-13.492,13.492-13.492h404.063c7.44,0,13.492,6.053,13.492,13.492V235.761z"/>
			<circle cx="122.872" cy="166.519" r="30.356"/>
			<circle cx="255.999" cy="166.519" r="30.356"/>
			<circle cx="389.111" cy="166.519" r="30.356"/>
			<circle cx="122.872" cy="347.069" r="30.356"/>
			<circle cx="255.999" cy="347.069" r="30.356"/>
			<circle cx="389.111" cy="347.069" r="30.356"/>
		</g>
	</g>
</g>
<g>
</g>
<g>
</g>
<g>
</g>
<g>
</g>
<g>
</g>
<g>
</g>
<g>
</g>
<g>
</g>
<g>
</g>
<g>
</g>
<g>
</g>
<g>
</g>
<g>
</g>
<g>
</g>
<g>
</g>
</svg>
