<?xml version="1.0" encoding="iso-8859-1"?>
<!-- Generator: Adobe Illustrator 19.0.0, SVG Export Plug-In . SVG Version: 6.00 Build 0)  -->
<svg version="1.1" id="Layer_1" xmlns="http://www.w3.org/2000/svg" xmlns:xlink="http://www.w3.org/1999/xlink" x="0px" y="0px"
	 viewBox="0 0 511.999 511.999" style="enable-background:new 0 0 511.999 511.999;" xml:space="preserve">
<g>
	<g>
		<g>
			<path d="M397.027,329.423c-20.7-20.7-54.202-20.702-74.902-0.001c-14.267,14.267-22.296,25.371-40.977,25.371
				c-10.064,0-19.524-3.919-26.641-11.035l-86.268-86.268c-7.116-7.116-11.035-16.578-11.035-26.64
				c0-18.801,11.423-27.028,25.37-40.975c20.7-20.698,20.703-54.203,0-74.904l-31.804-31.804c-20.651-20.652-54.253-20.651-74.904,0
				c-59.929,59.929-56.778,56.247-58.769,60.132c-30.684,59.85-19.347,132.015,28.211,179.573L189.128,466.69
				c47.562,47.563,119.726,58.893,179.571,28.211c3.879-1.988,0.192,1.172,60.132-58.769c20.7-20.698,20.703-54.203,0.001-74.905
				L397.027,329.423z M400.551,407.85l-52.804,52.804c-43.796,21.042-95.82,12.278-130.342-22.244L73.586,294.59
				c-34.523-34.522-43.284-86.547-22.245-130.342l52.804-52.804c5.059-5.056,13.29-5.056,18.346,0l31.804,31.802
				c5.068,5.068,5.071,13.275,0,18.346c-15.364,15.365-37.084,32.822-37.084,69.255c0,20.746,8.08,40.249,22.749,54.919
				l86.268,86.268c14.669,14.671,34.174,22.749,54.921,22.749c36.281,0,53.685-21.515,69.255-37.084
				c5.071-5.071,13.274-5.07,18.345,0l31.804,31.802C405.621,394.573,405.622,402.78,400.551,407.85z"/>
			<path d="M346.134,194.141l92.318-92.316c7.809-7.808,7.809-20.47,0-28.279c-7.808-7.809-20.47-7.809-28.279,0l-92.317,92.317
				c-7.809,7.808-7.809,20.471,0,28.279C325.662,201.949,338.325,201.951,346.134,194.141z"/>
			<path d="M492.002,231.098H361.446c-11.043,0-19.996,8.953-19.996,19.996c0,11.043,8.953,19.996,19.996,19.996h130.556
				c11.043,0,19.996-8.953,19.996-19.996C511.999,240.051,503.046,231.098,492.002,231.098z"/>
			<path d="M260.904,170.549c11.043,0,19.996-8.953,19.996-19.996V19.996C280.901,8.953,271.948,0,260.904,0
				s-19.996,8.953-19.996,19.996v130.558C240.908,161.597,249.861,170.549,260.904,170.549z"/>
		</g>
	</g>
</g>
<g>
</g>
<g>
</g>
<g>
</g>
<g>
</g>
<g>
</g>
<g>
</g>
<g>
</g>
<g>
</g>
<g>
</g>
<g>
</g>
<g>
</g>
<g>
</g>
<g>
</g>
<g>
</g>
<g>
</g>
</svg>
