<?xml version="1.0" encoding="iso-8859-1"?>
<!-- Generator: Adobe Illustrator 19.0.0, SVG Export Plug-In . SVG Version: 6.00 Build 0)  -->
<svg version="1.1" id="Layer_1" xmlns="http://www.w3.org/2000/svg" xmlns:xlink="http://www.w3.org/1999/xlink" x="0px" y="0px"
	 viewBox="0 0 512 512" style="enable-background:new 0 0 512 512;" xml:space="preserve">
<g>
	<g>
		<path d="M506.201,121.382c-5.086-5.086-110.54-110.54-115.603-115.603c-7.705-7.705-20.196-7.705-27.901,0L235.23,133.245
			c-7.705,7.705-7.705,20.196,0,27.901l40.334,40.334l-135.471,85.394c-2.673,1.686,6.538-7.227-122.349,121.66
			c-23.629,23.627-23.629,62.074,0,85.703c23.684,23.684,62.016,23.684,85.702,0c4.477-4.477,112.603-112.603,117.359-117.359
			c166.051-104.67,155.609-97.809,157.93-100.129l127.468-127.468C513.899,141.584,513.906,129.085,506.201,121.382z
			 M376.647,47.631l29.901,29.9c-5.106,5.106-9.198,9.198-14.589,14.588l-29.901-29.901L376.647,47.631z M334.158,90.119
			l29.901,29.901l-14.589,14.589l-29.901-29.903L334.158,90.119z M291.669,132.607l29.9,29.9l-14.589,14.589l-29.9-29.9
			L291.669,132.607z M75.544,466.336c-8.263,8.263-21.636,8.263-29.9,0c-8.244-8.244-8.244-21.657,0-29.901l70.629-70.627l29.9,29.9
			L75.544,466.336z M352.393,247.287c-166.051,104.67-155.609,97.809-157.93,100.129l-20.391,20.391l-29.9-29.9l18.828-18.829
			c162.904-102.686,155.615-97.813,157.93-100.129l113.518-113.517l29.9,29.9L352.393,247.287z"/>
	</g>
</g>
<g>
</g>
<g>
</g>
<g>
</g>
<g>
</g>
<g>
</g>
<g>
</g>
<g>
</g>
<g>
</g>
<g>
</g>
<g>
</g>
<g>
</g>
<g>
</g>
<g>
</g>
<g>
</g>
<g>
</g>
</svg>
