<?xml version="1.0" encoding="iso-8859-1"?>
<!-- Generator: Adobe Illustrator 19.0.0, SVG Export Plug-In . SVG Version: 6.00 Build 0)  -->
<svg version="1.1" id="Layer_1" xmlns="http://www.w3.org/2000/svg" xmlns:xlink="http://www.w3.org/1999/xlink" x="0px" y="0px"
	 viewBox="0 0 511.999 511.999" style="enable-background:new 0 0 511.999 511.999;" xml:space="preserve">
<g>
	<g>
		<g>
			<path d="M466.874,65.692C408.261,6.203,316.976,4.152,256,52.298C195.01,4.139,103.721,6.221,45.125,65.692
				c-57.447,58.304-59.929,150.826-8.104,213.335c10.947,13.203,5.412,3.758,92.591,195.224c0.572,1.255,1.272,2.447,2.088,3.559
				c18.769,25.497,58.51,18.861,68.144-11.346c12.27-38.472,34.311-63.333,56.155-63.333s43.885,24.86,56.155,63.333
				c9.648,30.257,49.383,36.829,68.144,11.346c1.813-2.466-4.048,9.919,81.444-177.843c3.334-7.323,7.787-14.369,13.235-20.938
				C526.792,216.53,524.333,124.01,466.874,65.692z M444.275,253.576c-15.08,18.191-10.363,11.275-95.18,197.556
				c-14.85-44.182-46.497-87.879-93.096-87.879c-46.459,0-78.129,43.363-93.096,87.879
				C80.168,269.424,83.194,272.238,67.722,253.576c-38.83-46.839-37.185-116.257,5.811-159.895
				c46.202-46.891,121.748-47.259,168.366-0.639c0.001,0.001,0.004,0.004,0.007,0.005c0.003,0.003,0.004,0.004,0.005,0.007
				l36.222,36.16c7.783,7.771,20.409,7.781,28.199-0.024c7.781-7.793,7.77-20.419-0.024-28.199L285.41,80.127
				c46.013-32.749,111.14-28.986,153.057,13.554C481.518,137.378,483.057,206.798,444.275,253.576z"/>
			<path d="M124.926,116.326c-7.843-7.727-20.468-7.634-28.198,0.21c-30.548,31.005-32.278,82.072-3.936,116.257
				c3.943,4.755,9.631,7.213,15.362,7.213c16.739,0,26.145-19.633,15.339-32.667c-15.436-18.619-14.714-46.21,1.643-62.814
				C132.865,136.681,132.771,124.056,124.926,116.326z"/>
		</g>
	</g>
</g>
<g>
</g>
<g>
</g>
<g>
</g>
<g>
</g>
<g>
</g>
<g>
</g>
<g>
</g>
<g>
</g>
<g>
</g>
<g>
</g>
<g>
</g>
<g>
</g>
<g>
</g>
<g>
</g>
<g>
</g>
</svg>
