<?xml version="1.0" encoding="iso-8859-1"?>
<!-- Generator: Adobe Illustrator 19.0.0, SVG Export Plug-In . SVG Version: 6.00 Build 0)  -->
<svg version="1.1" id="Layer_1" xmlns="http://www.w3.org/2000/svg" xmlns:xlink="http://www.w3.org/1999/xlink" x="0px" y="0px"
	 viewBox="0 0 512.001 512.001" style="enable-background:new 0 0 512.001 512.001;" xml:space="preserve">
<g>
	<g>
		<path d="M505.371,122.647L389.352,6.63c-8.835-8.837-23.18-8.843-32.022,0C345,18.96,50.25,313.71,39.532,324.427
			c-8.838,8.837-8.841,23.182,0,32.022l4.349,4.349l-21.638,21.638c-29.655,29.656-29.661,77.661,0,107.319
			c29.658,29.659,77.66,29.661,107.319,0l21.638-21.638l4.35,4.35c8.844,8.843,23.179,8.843,32.022,0
			c11.115-11.115,306.68-306.68,317.798-317.798C514.209,145.834,514.212,131.487,505.371,122.647z M97.541,457.734
			c-11.957,11.959-31.314,11.962-43.274,0c-11.959-11.96-11.959-31.314,0-43.276l21.638-21.638
			c32.789,32.789,22.264,22.264,43.274,43.276L97.541,457.734z M171.563,424.435c-10.404-10.404-73.57-73.57-83.995-83.995
			L305.93,122.074l25.987,25.987l-53.808,53.809c-8.841,8.843-8.841,23.179,0.002,32.022s23.177,8.843,32.022,0l53.808-53.809
			l25.987,25.987L171.563,424.435z M421.947,174.049c-52.668-52.669-24.026-24.026-83.995-83.997l35.388-35.39l83.995,83.997
			L421.947,174.049z"/>
	</g>
</g>
<g>
</g>
<g>
</g>
<g>
</g>
<g>
</g>
<g>
</g>
<g>
</g>
<g>
</g>
<g>
</g>
<g>
</g>
<g>
</g>
<g>
</g>
<g>
</g>
<g>
</g>
<g>
</g>
<g>
</g>
</svg>
