<?xml version="1.0" encoding="iso-8859-1"?>
<!-- Generator: Adobe Illustrator 19.0.0, SVG Export Plug-In . SVG Version: 6.00 Build 0)  -->
<svg version="1.1" id="Layer_1" xmlns="http://www.w3.org/2000/svg" xmlns:xlink="http://www.w3.org/1999/xlink" x="0px" y="0px"
	 viewBox="0 0 512 512" style="enable-background:new 0 0 512 512;" xml:space="preserve">
<g>
	<g>
		<g>
			<path d="M479.107,0H32.893c-12.73,0-23.05,10.32-23.05,23.05v113.736c0,12.73,10.32,23.05,23.05,23.05h29.814l16.891,330.292
				C80.225,502.384,90.345,512,102.617,512h306.764c12.272,0,22.392-9.616,23.019-21.873l16.891-330.292h29.816
				c12.73,0,23.05-10.32,23.05-23.05V23.05C502.157,10.32,491.837,0,479.107,0z M387.479,465.9H124.518l-15.651-306.065h294.265
				L387.479,465.9z M456.057,113.736c-10.786,0-388.31,0-400.115,0V46.1h400.115V113.736z"/>
			<path d="M178.821,409.327h154.356c12.73,0,23.05-10.32,23.05-23.05V278.875c0-12.73-10.32-23.05-23.05-23.05H178.821
				c-12.73,0-23.05,10.32-23.05,23.05v107.401C155.772,399.007,166.092,409.327,178.821,409.327z M201.871,301.925h108.256v61.302
				H201.871V301.925z"/>
		</g>
	</g>
</g>
<g>
</g>
<g>
</g>
<g>
</g>
<g>
</g>
<g>
</g>
<g>
</g>
<g>
</g>
<g>
</g>
<g>
</g>
<g>
</g>
<g>
</g>
<g>
</g>
<g>
</g>
<g>
</g>
<g>
</g>
</svg>
