<?xml version="1.0" encoding="iso-8859-1"?>
<!-- Generator: Adobe Illustrator 19.0.0, SVG Export Plug-In . SVG Version: 6.00 Build 0)  -->
<svg version="1.1" id="Layer_1" xmlns="http://www.w3.org/2000/svg" xmlns:xlink="http://www.w3.org/1999/xlink" x="0px" y="0px"
	 viewBox="0 0 512 512" style="enable-background:new 0 0 512 512;" xml:space="preserve">
<g>
	<g>
		<path d="M495.888,16.113c-21.483-21.483-56.253-21.485-77.738,0l-73.472,73.472c-39.839-3.892-77.385,20.376-90.115,58.346
			l-69.387,44.224c-1.309,0.828-2.462,1.795-3.482,2.813c-0.003,0.003-0.005,0.005-0.009,0.009
			c-90.91,90.91-84.397,84.397-175.836,175.836c-7.799,7.798-7.799,20.444,0,28.243l107.095,107.095
			c7.799,7.799,20.444,7.798,28.243,0c90.922-90.922,84.661-84.661,175.94-175.94c1.052-1.052,2.004-2.255,2.719-3.387l44.23-69.388
			c37.938-12.723,62.247-50.262,58.34-90.115l73.472-73.472C517.369,72.369,517.373,37.598,495.888,16.113z M127.066,463.787
			l-78.852-78.852l34.558-34.558l78.852,78.852L127.066,463.787z M189.867,400.987l-78.852-78.852l22.096-22.096l78.852,78.852
			L189.867,400.987z M240.204,350.648l-78.852-78.852l34.558-34.558l78.852,78.852L240.204,350.648z M467.644,65.607l-80.689,80.689
			c-4.882,4.882-6.897,11.94-5.327,18.664c5.969,25.549-10.171,50.251-34.795,55.884c-5.407,1.237-9.974,4.645-12.725,9.296
			l-34.572,54.238l-71.913-71.913l54.141-34.508c4.701-2.747,8.147-7.343,9.393-12.789c5.673-24.8,30.493-40.727,55.884-34.795
			c6.725,1.567,13.783-0.443,18.664-5.327l80.689-80.689c5.871-5.871,15.376-5.875,21.25,0.001
			C473.517,50.228,473.518,59.734,467.644,65.607z"/>
	</g>
</g>
<g>
</g>
<g>
</g>
<g>
</g>
<g>
</g>
<g>
</g>
<g>
</g>
<g>
</g>
<g>
</g>
<g>
</g>
<g>
</g>
<g>
</g>
<g>
</g>
<g>
</g>
<g>
</g>
<g>
</g>
</svg>
