<?xml version="1.0" encoding="iso-8859-1"?>
<!-- Generator: Adobe Illustrator 19.0.0, SVG Export Plug-In . SVG Version: 6.00 Build 0)  -->
<svg version="1.1" id="Layer_1" xmlns="http://www.w3.org/2000/svg" xmlns:xlink="http://www.w3.org/1999/xlink" x="0px" y="0px"
	 viewBox="0 0 512 512" style="enable-background:new 0 0 512 512;" xml:space="preserve">
<g>
	<g>
		<path d="M325.392,169.084v-45.249h10.223c11.151,0,20.19-9.04,20.19-20.19V20.19c0-11.15-9.04-20.19-20.19-20.19H176.385
			c-11.15,0-20.19,9.04-20.19,20.19v83.454c0,11.151,9.04,20.19,20.19,20.19h10.223v45.249
			c-22.323,6.569-38.667,27.244-38.667,51.664v237.411c0,29.688,24.153,53.841,53.841,53.841h108.437
			c29.688,0,53.841-24.153,53.841-53.841V220.748C364.06,196.327,347.715,175.652,325.392,169.084z M302.728,40.381h12.697v43.073
			h-10.223h-2.474V40.381z M249.653,40.381h12.696v43.073h-12.696V40.381z M196.575,40.381h12.697v43.073h-2.474h-10.223V40.381z
			 M323.678,458.159c0.001,7.422-6.038,13.46-13.459,13.46H201.781c-7.422,0-13.46-6.038-13.46-13.46V333.617h43.411
			c2.247,0,4.073,2.115,4.073,4.714c0,24.865,19.941,45.095,44.454,45.095h43.419V458.159z M323.679,343.044H280.26
			c-2.247,0-4.073-2.115-4.073-4.714c0-24.865-19.943-45.095-44.454-45.095h-43.411v-72.488c0-7.422,6.038-13.46,13.46-13.46h5.017
			c11.151,0,20.19-9.04,20.19-20.19v-63.263h58.022v63.263c0,11.151,9.04,20.19,20.19,20.19h5.017c7.422,0,13.46,6.038,13.46,13.46
			V343.044z"/>
	</g>
</g>
<g>
</g>
<g>
</g>
<g>
</g>
<g>
</g>
<g>
</g>
<g>
</g>
<g>
</g>
<g>
</g>
<g>
</g>
<g>
</g>
<g>
</g>
<g>
</g>
<g>
</g>
<g>
</g>
<g>
</g>
</svg>
