<?xml version="1.0" encoding="iso-8859-1"?>
<!-- Generator: Adobe Illustrator 19.0.0, SVG Export Plug-In . SVG Version: 6.00 Build 0)  -->
<svg version="1.1" id="Layer_1" xmlns="http://www.w3.org/2000/svg" xmlns:xlink="http://www.w3.org/1999/xlink" x="0px" y="0px"
	 viewBox="0 0 512 512" style="enable-background:new 0 0 512 512;" xml:space="preserve">
<g>
	<g>
		<path d="M325.392,169.084v-45.249h10.223c11.151,0,20.19-9.04,20.19-20.19V20.19c0-11.151-9.04-20.19-20.19-20.19H176.384
			c-11.151,0-20.19,9.04-20.19,20.19v83.454c0,11.151,9.04,20.19,20.19,20.19h10.223v45.249
			c-22.323,6.567-38.666,27.244-38.666,51.665v237.41c0,29.688,24.153,53.841,53.841,53.841h108.436
			c29.688,0,53.841-24.153,53.841-53.841v-237.41C364.058,196.328,347.714,175.653,325.392,169.084z M196.574,40.381h118.85v43.073
			c-42.631,0,24.762,0-118.85,0V40.381z M323.677,458.158c0,7.423-6.038,13.462-13.46,13.462H201.781
			c-7.422,0-13.46-6.038-13.46-13.46V323.051h135.357V458.158z M323.677,282.67H188.32v-61.921c0-7.422,6.038-13.46,13.46-13.46
			h5.015c11.151,0,20.19-9.04,20.19-20.19v-63.263h58.025v63.263c0,11.151,9.04,20.19,20.19,20.19h5.015
			c7.422,0,13.46,6.038,13.46,13.46V282.67z"/>
	</g>
</g>
<g>
</g>
<g>
</g>
<g>
</g>
<g>
</g>
<g>
</g>
<g>
</g>
<g>
</g>
<g>
</g>
<g>
</g>
<g>
</g>
<g>
</g>
<g>
</g>
<g>
</g>
<g>
</g>
<g>
</g>
</svg>
