<?xml version="1.0" encoding="iso-8859-1"?>
<!-- Generator: Adobe Illustrator 19.0.0, SVG Export Plug-In . SVG Version: 6.00 Build 0)  -->
<svg version="1.1" id="Layer_1" xmlns="http://www.w3.org/2000/svg" xmlns:xlink="http://www.w3.org/1999/xlink" x="0px" y="0px"
	 viewBox="0 0 511.999 511.999" style="enable-background:new 0 0 511.999 511.999;" xml:space="preserve">
<g>
	<g>
		<g>
			<path d="M256,197.053c-32.503,0-58.947,26.444-58.947,58.947s26.444,58.947,58.947,58.947s58.947-26.444,58.947-58.947
				S288.503,197.053,256,197.053z M256,278.45c-12.379,0-22.45-10.071-22.45-22.45c0-12.379,10.071-22.45,22.45-22.45
				c12.379,0,22.45,10.071,22.45,22.45C278.45,268.379,268.379,278.45,256,278.45z"/>
			<path d="M465.743,209.743c-19.029,0-35.404,11.551-42.498,28.008h-36.671c-3.162-22.735-12.138-43.633-25.382-61.137l25.97-25.97
				c16.837,6.694,36.529,3.08,49.855-10.246c18.035-18.036,18.035-47.381,0-65.417c-18.035-18.036-47.381-18.035-65.417,0.001
				c-13.454,13.455-16.865,33.203-10.245,49.854l-25.972,25.97c-17.504-13.242-38.403-22.22-61.137-25.382V88.754
				c16.457-7.094,28.008-23.47,28.008-42.499C302.257,20.751,281.506,0,256,0c-25.506,0-46.257,20.751-46.257,46.256
				c0,19.029,11.551,35.405,28.008,42.499v36.67c-22.735,3.162-43.633,12.139-61.137,25.382l-25.97-25.97
				c6.621-16.653,3.209-36.4-10.245-49.854l-0.001-0.001c-18.035-18.036-47.382-18.033-65.417,0
				c-18.077,18.077-18.081,47.337,0,65.417c13.334,13.334,33.026,16.936,49.855,10.246l25.97,25.97
				c-13.242,17.504-22.22,38.403-25.382,61.137H88.754c-7.094-16.457-23.469-28.008-42.498-28.008C20.751,209.743,0,230.493,0,256
				s20.751,46.257,46.257,46.257c19.029,0,35.404-11.551,42.497-28.008h36.671c3.162,22.735,12.138,43.633,25.382,61.137
				l-25.97,25.97c-16.653-6.621-36.401-3.208-49.855,10.246c-18.078,18.077-18.08,47.337,0,65.417
				c18.033,18.033,47.381,18.036,65.418-0.001c13.454-13.455,16.865-33.203,10.245-49.854l25.971-25.97
				c17.504,13.242,38.403,22.22,61.137,25.382v36.67c-16.457,7.094-28.008,23.47-28.008,42.498
				c0,25.506,20.751,46.257,46.257,46.257c25.506,0,46.257-20.75,46.257-46.257c0-19.029-11.551-35.404-28.008-42.498v-36.67
				c22.735-3.162,43.633-12.139,61.137-25.382l25.97,25.97c-6.621,16.653-3.209,36.4,10.245,49.854v0.001
				c18.033,18.033,47.381,18.036,65.417-0.001c18.035-18.036,18.035-47.381,0-65.417c-13.454-13.455-33.203-16.865-49.855-10.246
				l-25.972-25.972c13.242-17.504,22.22-38.403,25.382-61.137h36.671c7.094,16.457,23.469,28.008,42.498,28.008
				c25.506,0,46.257-20.75,46.257-46.257S491.249,209.743,465.743,209.743z M397.409,100.789c3.803-3.804,9.997-3.807,13.802-0.001
				c3.805,3.805,3.805,9.997,0,13.802h0.001c-3.807,3.804-9.997,3.805-13.802,0C393.605,110.785,393.605,104.593,397.409,100.789z
				 M114.59,114.59c-3.805,3.805-9.997,3.805-13.802,0c-3.814-3.814-3.815-9.987,0-13.801c3.804-3.804,9.997-3.807,13.802-0.001
				C118.395,104.593,118.395,110.784,114.59,114.59z M46.257,265.758c-5.381,0-9.759-4.378-9.759-9.759
				c0-5.381,4.378-9.759,9.759-9.759c5.381,0,9.758,4.378,9.758,9.759C56.016,261.381,51.638,265.758,46.257,265.758z
				 M114.59,411.211c-3.804,3.804-9.997,3.805-13.802,0c-1.843-1.843-2.859-4.294-2.859-6.9c0-2.607,1.015-5.057,2.859-6.9
				c3.805-3.804,9.997-3.807,13.802,0C118.395,401.215,118.395,407.407,114.59,411.211z M397.41,397.409
				c3.804-3.804,9.995-3.805,13.801,0c3.805,3.805,3.805,9.997,0.001,13.802c-3.805,3.804-9.997,3.805-13.802,0
				C393.605,407.406,393.605,401.215,397.41,397.409z M256,36.497c5.381,0,9.759,4.378,9.759,9.758c0,5.382-4.378,9.759-9.759,9.759
				c-5.381,0-9.759-4.378-9.759-9.759C246.241,40.876,250.619,36.497,256,36.497z M256,475.503c-5.381,0-9.759-4.378-9.759-9.759
				c0-5.381,4.378-9.759,9.759-9.759c5.381,0,9.759,4.378,9.759,9.759C265.759,471.124,261.381,475.503,256,475.503z M256,351.346
				c-52.573,0-95.346-42.773-95.346-95.346s42.772-95.346,95.346-95.346s95.346,42.772,95.346,95.346S308.573,351.346,256,351.346z
				 M465.743,265.758c-5.381,0-9.758-4.378-9.758-9.759c0-5.381,4.378-9.759,9.758-9.759c5.381,0,9.759,4.378,9.759,9.759
				C475.503,261.381,471.124,265.758,465.743,265.758z"/>
		</g>
	</g>
</g>
<g>
</g>
<g>
</g>
<g>
</g>
<g>
</g>
<g>
</g>
<g>
</g>
<g>
</g>
<g>
</g>
<g>
</g>
<g>
</g>
<g>
</g>
<g>
</g>
<g>
</g>
<g>
</g>
<g>
</g>
</svg>
