<?xml version="1.0" encoding="iso-8859-1"?>
<!-- Generator: Adobe Illustrator 19.0.0, SVG Export Plug-In . SVG Version: 6.00 Build 0)  -->
<svg version="1.1" id="Layer_1" xmlns="http://www.w3.org/2000/svg" xmlns:xlink="http://www.w3.org/1999/xlink" x="0px" y="0px"
	 viewBox="0 0 512 512" style="enable-background:new 0 0 512 512;" xml:space="preserve">
<g>
	<g>
		<path d="M476.495,0H352.377c-12.096,0-21.903,9.807-21.903,21.903v9.741h-19.583c-41.242,0-78.475,22.838-97.165,59.6
			L15.986,480.166c-5.483,10.782-1.184,23.968,9.598,29.451c10.775,5.48,23.965,1.192,29.451-9.598l21.35-41.993h378.207v32.066
			c0,12.096,9.807,21.903,21.903,21.903c12.096,0,21.903-9.807,21.903-21.903c0-10.525,0-457.905,0-468.189
			C498.398,9.807,488.591,0,476.495,0z M454.591,414.22H98.657l100.011-196.707h255.923V414.22z M454.591,173.707h-233.65
			l31.833-62.61c11.179-21.988,33.448-35.647,58.116-35.647h19.583v9.738c0,12.096,9.807,21.903,21.903,21.903h102.215V173.707z
			 M454.591,63.286H374.28V43.806h80.312V63.286z"/>
	</g>
</g>
<g>
</g>
<g>
</g>
<g>
</g>
<g>
</g>
<g>
</g>
<g>
</g>
<g>
</g>
<g>
</g>
<g>
</g>
<g>
</g>
<g>
</g>
<g>
</g>
<g>
</g>
<g>
</g>
<g>
</g>
</svg>
