<?xml version="1.0" encoding="iso-8859-1"?>
<!-- Generator: Adobe Illustrator 19.0.0, SVG Export Plug-In . SVG Version: 6.00 Build 0)  -->
<svg version="1.1" id="Layer_1" xmlns="http://www.w3.org/2000/svg" xmlns:xlink="http://www.w3.org/1999/xlink" x="0px" y="0px"
	 viewBox="0 0 512 512" style="enable-background:new 0 0 512 512;" xml:space="preserve">
<g>
	<g>
		<g>
			<path d="M409.418,201.38l50.101-136.757h34.105c10.148,0,18.375-8.227,18.375-18.375c0-10.148-8.227-18.375-18.375-18.375
				h-46.942c-7.71,0-14.601,4.814-17.254,12.054l-21.798,59.498H130.951c-22.659,0-41.093,18.434-41.093,41.093v84.149H56.964
				c-10.148,0-18.375,8.227-18.375,18.375v57.855c0,10.148,8.227,18.375,18.375,18.375h32.893v65.07
				c-13.685,5.236-24.584,16.134-29.82,29.82H18.375C8.227,414.163,0,422.39,0,432.538c0,10.148,8.227,18.375,18.375,18.375h41.663
				c7.421,19.397,26.22,33.214,48.195,33.214c28.446,0,51.589-23.143,51.589-51.589c0-21.976-13.816-40.774-33.214-48.195v-65.07
				h97.887c-0.944,6.66-1.444,13.462-1.444,20.378c0,79.663,64.81,144.474,144.474,144.474c79.663,0,144.474-64.811,144.474-144.474
				C512,274.553,468.716,219.38,409.418,201.38z M126.609,140.518c0-2.395,1.948-4.343,4.343-4.343h263.215l-21.651,59.099
				c-33.876-1.161-66.157,9.44-92.355,29.393H126.609V140.518z M108.233,447.376c-8.182,0-14.839-6.657-14.839-14.839
				s6.657-14.839,14.839-14.839c8.182,0,14.839,6.657,14.839,14.839S116.415,447.376,108.233,447.376z M234.797,282.523H75.339
				v-21.105h170.707C241.725,268.117,237.961,275.175,234.797,282.523z M367.524,447.376c-59.399,0-107.724-48.325-107.724-107.724
				s48.323-107.724,107.724-107.724c59.399,0,107.724,48.325,107.724,107.724C475.249,399.051,426.923,447.376,367.524,447.376z"/>
			<path d="M367.524,261.606c-43.035,0-78.046,35.011-78.046,78.046s35.011,78.047,78.046,78.047s78.046-35.012,78.046-78.047
				S410.559,261.606,367.524,261.606z M367.524,380.947c-22.771,0-41.296-18.526-41.296-41.297s18.525-41.296,41.296-41.296
				s41.296,18.525,41.296,41.296C408.82,362.421,390.295,380.947,367.524,380.947z"/>
		</g>
	</g>
</g>
<g>
</g>
<g>
</g>
<g>
</g>
<g>
</g>
<g>
</g>
<g>
</g>
<g>
</g>
<g>
</g>
<g>
</g>
<g>
</g>
<g>
</g>
<g>
</g>
<g>
</g>
<g>
</g>
<g>
</g>
</svg>
