<?xml version="1.0" encoding="iso-8859-1"?>
<!-- Generator: Adobe Illustrator 19.0.0, SVG Export Plug-In . SVG Version: 6.00 Build 0)  -->
<svg version="1.1" id="Layer_1" xmlns="http://www.w3.org/2000/svg" xmlns:xlink="http://www.w3.org/1999/xlink" x="0px" y="0px"
	 viewBox="0 0 512 512" style="enable-background:new 0 0 512 512;" xml:space="preserve">
<g>
	<g>
		<g>
			<path d="M496.964,49.342c0-10.65-8.634-19.284-19.284-19.284H340.593V19.284C340.593,8.634,331.959,0,321.309,0H190.69
				c-10.65,0-19.284,8.634-19.284,19.284v10.774H34.319c-10.65,0-19.284,8.634-19.284,19.284c0,14.213-0.005,426.745-0.005,443.373
				c0,10.65,8.634,19.284,19.284,19.284h0.005c3.863,0,439.496,0,443.36,0h0.006c10.65,0,19.284-8.634,19.284-19.284
				C496.97,478.287,496.964,63.767,496.964,49.342z M209.974,38.569h92.051c0,21.672,0,46.688,0,58.92h-92.051
				C209.974,85.85,209.974,51.597,209.974,38.569z M53.603,473.431v-28.399l60.513-60.513c7.527-7.526,7.53-19.747-0.004-27.277
				c-7.823-7.818-7.872-20.508,0.009-28.383c12.685-12.693,34.266-3.52,34.266,14.196c0,5.362-2.087,10.402-5.877,14.192
				c-7.531,7.531-7.531,19.742-0.001,27.272c7.531,7.531,19.741,7.531,27.272,0c7.827-7.823,20.56-7.824,28.384,0
				c7.831,7.831,7.874,20.525-0.004,28.398c-7.84,7.845-20.534,7.846-28.375,0c-7.529-7.534-19.746-7.536-27.276-0.004
				l-60.519,60.518H53.603z M458.394,473.431h-28.387l-60.519-60.518c-7.527-7.527-19.746-7.53-27.277,0.004
				c-7.818,7.823-20.508,7.872-28.383-0.009c-7.845-7.837-7.847-20.539,0.004-28.388c7.827-7.827,20.56-7.826,28.384-0.001
				c7.53,7.53,19.741,7.53,27.272,0c7.531-7.531,7.531-19.741,0-27.272c-7.826-7.826-7.824-20.558,0-28.383
				c7.828-7.831,20.524-7.876,28.398,0.003c7.844,7.841,7.847,20.533,0,28.375c-7.53,7.526-7.536,19.745-0.004,27.277l60.512,60.512
				V473.431z M458.395,390.487l-21.885-21.885c10.461-21.581,6.958-48.707-11.351-67.007
				c-35.672-35.693-97.533-12.378-100.02,38.575c-50.517,2.471-74.613,64.006-38.583,100.011
				c18.481,18.491,45.653,21.715,67.014,11.36l21.892,21.89H136.535l21.892-21.89c21.646,10.493,48.759,6.908,67.007-11.351
				c36.084-36.06,11.869-97.533-38.547-100.019c-2.417-50.267-63.897-74.749-100.037-38.584
				c-18.468,18.456-21.732,45.619-11.36,67.016l-21.885,21.885V68.627h117.8v48.147c0,10.65,8.634,19.284,19.284,19.284h130.619
				c10.65,0,19.284-8.634,19.284-19.284V68.627h117.802V390.487z"/>
			<path d="M280.79,212.111h-49.583c-22.434,0-37.424,23.104-28.334,43.58l24.792,55.835c10.907,24.57,45.775,24.531,56.666,0
				l24.791-55.835C318.227,235.188,303.196,212.111,280.79,212.111z M255.999,280.297l-13.151-29.617h26.3L255.999,280.297z"/>
		</g>
	</g>
</g>
<g>
</g>
<g>
</g>
<g>
</g>
<g>
</g>
<g>
</g>
<g>
</g>
<g>
</g>
<g>
</g>
<g>
</g>
<g>
</g>
<g>
</g>
<g>
</g>
<g>
</g>
<g>
</g>
<g>
</g>
</svg>
