<?xml version="1.0" encoding="iso-8859-1"?>
<!-- Generator: Adobe Illustrator 19.0.0, SVG Export Plug-In . SVG Version: 6.00 Build 0)  -->
<svg version="1.1" id="Layer_1" xmlns="http://www.w3.org/2000/svg" xmlns:xlink="http://www.w3.org/1999/xlink" x="0px" y="0px"
	 viewBox="0 0 512 512" style="enable-background:new 0 0 512 512;" xml:space="preserve">
<g>
	<g>
		<g>
			<path d="M443.893,0H68.107c-11.28,0-20.426,9.145-20.426,20.426v471.149c0,11.28,9.145,20.426,20.426,20.426h270.957
				c5.3,0,10.541-2.081,14.442-5.983l104.829-104.829c3.858-3.858,5.983-9.147,5.983-14.442V20.426
				C464.319,9.145,455.173,0,443.893,0z M359.489,442.263v-35.094h35.094L359.489,442.263z M423.469,366.32h-84.405
				c-11.28,0-20.426,9.145-20.426,20.426v84.404H88.532V40.851h334.937V366.32z"/>
			<path d="M142.253,365.392h80.613c11.28,0,20.426-9.145,20.426-20.426c0-11.28-9.145-20.426-20.426-20.426h-80.613
				c-11.28,0-20.426,9.145-20.426,20.425C121.827,356.247,130.973,365.392,142.253,365.392z"/>
			<path d="M121.827,407.65c0,11.28,9.145,20.425,20.426,20.425H256c11.28,0,20.426-9.145,20.426-20.425S267.28,387.225,256,387.225
				H142.253C130.973,387.225,121.827,396.37,121.827,407.65z"/>
			<path d="M151.041,276.426h66.985c16.383,0,29.711-13.328,29.711-29.711V120.413c0-11.28-9.145-20.426-20.425-20.426
				c-58.439,0-105.983,47.542-105.983,105.981v40.746C121.33,263.097,134.659,276.426,151.041,276.426z M162.181,205.968
				c0-28.782,18.766-53.263,44.706-61.851v91.457h-44.706V205.968z"/>
			<path d="M293.974,276.426h66.985c16.383,0,29.711-13.328,29.711-29.711v-40.746c0-58.439-47.544-105.981-105.983-105.981
				c-11.28,0-20.426,9.145-20.426,20.426v126.302C264.261,263.097,277.59,276.426,293.974,276.426z M349.819,205.968v29.606h-44.706
				v-91.457C331.053,152.705,349.819,177.186,349.819,205.968z"/>
		</g>
	</g>
</g>
<g>
</g>
<g>
</g>
<g>
</g>
<g>
</g>
<g>
</g>
<g>
</g>
<g>
</g>
<g>
</g>
<g>
</g>
<g>
</g>
<g>
</g>
<g>
</g>
<g>
</g>
<g>
</g>
<g>
</g>
</svg>
